<svg width="345" height="356" viewBox="0 0 345 356" fill="none" xmlns="http://www.w3.org/2000/svg">
<rect x="62" y="99" width="274" height="128" rx="15" fill="white" stroke="#0DC0DC" stroke-width="5"/>
<path d="M2.99982 101.071V72.0867C2.99982 66.5179 7.43546 62 12.9011 62H73.8454C79.3131 62 83.7446 66.5179 83.7446 72.0867V101.071L83.7446 109V120L66.4998 111.158H12.9011C7.43546 111.158 2.99982 106.64 2.99982 101.071Z" fill="white" stroke="#0DC0DC" stroke-width="5" stroke-miterlimit="10"/>
<path d="M99.9998 58.0714V29.0867C99.9998 23.5179 104.435 19 109.901 19H170.845C176.313 19 180.745 23.5179 180.745 29.0867V58.0714L180.745 66V77L163.5 68.1581H109.901C104.435 68.1581 99.9998 63.6402 99.9998 58.0714Z" fill="white" stroke="#0DC0DC" stroke-width="5" stroke-miterlimit="10"/>
<path d="M178.989 116.697C173.908 116.758 169.33 118.761 164.848 120.97C160.365 123.18 156.06 124.97 152.39 128.077C151.074 129.19 151.241 131.442 152.39 132.591C153.695 133.896 155.585 133.708 156.904 132.591C159.933 130.027 163.979 128.509 167.504 126.765C171.128 124.967 174.862 123.13 178.989 123.08C183.117 123.031 183.106 116.648 178.989 116.697Z" fill="#002469"/>
<path d="M153.134 128.701C143.085 134.97 137.386 146.037 135.39 157.456C134.255 163.952 134.035 170.576 134.276 177.154C134.482 182.715 135.368 188.537 139.528 192.601C142.468 195.473 146.985 190.963 144.042 188.087C140.861 184.977 140.73 180.13 140.627 175.956C140.478 170.133 140.595 164.236 141.666 158.495C143.443 148.963 147.886 139.495 156.358 134.208C159.836 132.037 156.634 126.513 153.138 128.697L153.134 128.701Z" fill="#002469"/>
<path d="M138.113 184.31C140.259 195.137 147.794 204.739 157.833 209.342C159.4 210.062 161.269 209.789 162.198 208.197C163.003 206.821 162.627 204.551 161.053 203.832C152.351 199.839 146.131 192.012 144.266 182.615C143.468 178.591 137.315 180.293 138.11 184.314L138.113 184.31Z" fill="#002469"/>
<path d="M139.266 194.959C142.198 202.441 149.245 207.041 156.152 210.541C163.659 214.342 171.688 216.672 180.032 217.665C181.744 217.871 183.223 216.051 183.223 214.473C183.223 212.58 181.751 211.488 180.032 211.282C173.081 210.456 166.195 208.406 159.925 205.303C154.649 202.693 147.709 199.098 145.422 193.261C144.794 191.658 143.284 190.541 141.496 191.03C139.968 191.452 138.635 193.342 139.266 194.956V194.959Z" fill="#002469"/>
<path d="M153.982 231.158C151.95 239.955 147.369 247.711 142.709 255.342C140.362 259.189 137.982 263.023 135.851 266.994C134.837 268.881 133.982 270.849 132.968 272.732C132.369 273.849 131.617 275.477 130.245 275.352C128.525 275.196 127.053 276.93 127.053 278.544C127.053 280.399 128.521 281.579 130.245 281.735C135.465 282.204 137.957 276.98 139.886 273.076C142.099 268.597 144.698 264.328 147.301 260.069C152.542 251.494 157.851 242.753 160.138 232.853C161.06 228.856 154.908 227.147 153.982 231.154V231.158Z" fill="#002469"/>
<path d="M152.691 215.058C151.961 218.488 154.028 221.25 157.234 222.321C158.652 222.796 160.191 222.959 161.656 223.225C162.879 223.449 165.046 223.434 166.06 224.101L164.915 222.956L165.163 223.346L164.727 221.736L164.766 222.186L165.202 220.576L164.986 220.949L166.893 219.48C165.709 219.941 164.291 218.732 163.691 217.75C162.801 216.293 162.181 214.693 161.294 213.232C160.376 214.832 159.457 216.434 158.539 218.034C159.369 218.044 160.064 218.59 160.748 219.03C161.766 219.683 162.752 220.292 163.876 220.753C166.244 221.725 168.759 221.984 171.291 222.214C173.01 222.37 174.482 220.636 174.482 219.023C174.482 217.165 173.014 215.988 171.291 215.832C169.014 215.622 166.847 215.335 164.876 214.105C162.904 212.874 161.018 211.686 158.539 211.647C156.06 211.608 154.532 214.392 155.784 216.449C157.174 218.736 158.007 221.363 159.964 223.275C162.096 225.356 166.571 226.934 169.354 225.307C171.11 224.278 171.599 221.853 170.674 220.119C169.815 218.512 168.276 217.966 166.603 217.654C164.929 217.342 163.135 217.027 161.401 216.711C160.776 216.597 159.801 216.204 159.181 216.246C158.365 216.303 159.138 215.367 158.844 216.75C159.698 212.743 153.546 211.03 152.688 215.051L152.691 215.058Z" fill="#002469"/>
<path d="M168.22 218.041C181.535 221.328 195.574 219.778 207.893 213.782C211.585 211.984 208.354 206.477 204.674 208.271C193.936 213.498 181.5 214.746 169.918 211.888C165.929 210.902 164.23 217.058 168.22 218.044V218.041Z" fill="#002469"/>
<path d="M195.872 116.435C190.436 115.722 184.971 115.399 179.493 115.466C175.39 115.516 175.376 121.899 179.493 121.849C184.975 121.782 190.439 122.105 195.872 122.818C197.585 123.041 199.064 121.19 199.064 119.626C199.064 117.715 197.588 116.658 195.872 116.435Z" fill="#002469"/>
<path d="M180.06 122.949C180.354 122.864 180.649 122.782 180.95 122.715C181.071 122.686 182.028 122.52 181.734 122.559C181.411 122.601 182.269 122.52 182.379 122.516C182.737 122.498 183.095 122.495 183.453 122.502C185.124 122.53 186.723 121.013 186.645 119.311C186.567 117.608 185.244 116.147 183.453 116.119C181.663 116.091 180.007 116.321 178.365 116.796C176.723 117.272 175.599 119.069 176.134 120.722C176.67 122.374 178.344 123.445 180.06 122.952V122.949Z" fill="#002469"/>
<path d="M196.723 121.655C200.829 121.655 200.836 115.272 196.723 115.272C192.609 115.272 192.609 121.655 196.723 121.655Z" fill="#002469"/>
<path d="M196.443 122.786C200.549 122.786 200.556 116.403 196.443 116.403C192.33 116.403 192.33 122.786 196.443 122.786Z" fill="#002469"/>
<path d="M196.443 123.917C200.549 123.917 200.556 117.534 196.443 117.534C192.33 117.534 192.33 123.917 196.443 123.917Z" fill="#002469"/>
<path d="M208.273 129.615C214.542 130.389 218.641 136.555 221.911 141.303C222.886 142.722 224.712 143.364 226.276 142.449C227.68 141.626 228.404 139.509 227.421 138.084C222.613 131.105 217.226 124.339 208.273 123.233C206.56 123.02 205.081 124.85 205.081 126.424C205.081 128.325 206.553 129.403 208.273 129.615Z" fill="#002469"/>
<path d="M211.34 127.658C217.85 130.505 222.113 135.385 225.056 141.764C228.187 148.555 231.52 155.782 231.765 163.371C231.896 167.466 238.283 167.488 238.148 163.371C237.864 154.587 234.191 146.403 230.567 138.541C227.24 131.325 221.932 125.371 214.563 122.144C212.985 121.452 211.138 121.679 210.198 123.289C209.407 124.644 209.755 126.959 211.343 127.654L211.34 127.658Z" fill="#002469"/>
<path d="M227.177 141.101C230.709 144.52 232.344 149.126 233.191 153.878C234.17 159.364 234.156 165.24 233.329 170.747C231.801 180.906 227.177 190.321 219.982 197.669C216.12 201.612 211.663 204.81 206.72 207.268C203.042 209.098 206.269 214.605 209.939 212.779C219.844 207.853 228.177 199.786 233.489 190.084C239.56 178.995 241.4 165.988 239.563 153.541C238.638 147.268 236.319 141.07 231.688 136.587C228.734 133.729 224.216 138.236 227.173 141.101H227.177Z" fill="#002469"/>
<path d="M233.163 170.239C237.269 170.239 237.276 163.856 233.163 163.856C229.049 163.856 229.049 170.239 233.163 170.239Z" fill="#002469"/>
<path d="M214.659 204.193C212.581 206.03 209.936 206.949 207.326 207.746C204.258 208.686 201.17 209.548 198.088 210.445C194.152 211.59 195.826 217.754 199.787 216.601C206.379 214.679 213.879 213.381 219.173 208.707C222.258 205.984 217.73 201.484 214.659 204.193Z" fill="#002469"/>
<path d="M195.028 219.069C199.836 218.835 204.411 217.541 208.599 215.165C212.173 213.136 208.96 207.622 205.379 209.654C202.184 211.466 198.702 212.509 195.028 212.69C190.939 212.888 190.914 219.275 195.028 219.073V219.069Z" fill="#002469"/>
<path d="M213.229 157.081C214.371 157.081 214.371 155.308 213.229 155.308C212.087 155.308 212.087 157.081 213.229 157.081Z" fill="white"/>
<path d="M185.857 123.227C173.609 123.585 162.619 129.167 153.694 137.319C149.322 141.312 144.229 146.302 142.939 152.255C142.215 155.592 142.364 159.057 142.332 162.447C142.304 165.376 142.276 168.305 142.244 171.234C142.19 176.429 146.846 181.401 152.173 181.163C157.499 180.926 162.045 176.801 162.102 171.234C162.155 165.957 161.779 160.465 162.382 155.223L162.027 157.862C162.088 157.422 162.187 156.993 162.322 156.571C161.662 158 161.584 158.248 162.08 157.316C163.059 155.66 160.573 159.014 162.158 157.149C163.158 155.972 164.205 154.833 165.286 153.731C166.297 152.699 167.343 151.702 168.424 150.745C168.889 150.337 169.357 149.933 169.836 149.539C170.155 149.277 170.474 149.018 170.797 148.763C169.598 149.681 169.421 149.826 170.265 149.199C172.669 147.553 175.095 146.092 177.722 144.83C178.697 144.401 178.477 144.493 177.063 145.107C177.446 144.954 177.832 144.809 178.222 144.67C178.804 144.465 179.392 144.27 179.985 144.092C181.566 143.621 183.173 143.277 184.804 143.028L182.165 143.383C183.392 143.22 184.616 143.121 185.853 143.085C191.041 142.933 196.027 138.628 195.782 133.156C195.548 127.904 191.414 123.064 185.853 123.227H185.857Z" fill="white"/>
<path d="M141.726 162.266C140.109 170.362 140.992 178.248 144.421 185.759C147.201 191.847 152.133 197.202 157.289 201.404C168.389 210.443 182.609 215.659 196.885 211.67C204.552 209.528 212.8 204.312 216.041 196.745C217.076 194.326 217.718 192.156 216.988 189.503C216.389 187.323 214.701 184.961 212.669 183.886C210.488 182.734 207.846 182.156 205.428 182.94C203.268 183.638 200.75 185.071 199.811 187.259C199.591 187.769 199.36 188.273 199.084 188.759C198.924 189.039 197.633 190.925 198.559 189.642C199.431 188.429 198.272 189.872 197.995 190.149C197.644 190.5 195.857 191.979 197.055 191.067C198.254 190.156 196.733 191.262 196.428 191.461C195.885 191.812 195.332 192.142 194.764 192.447C194.289 192.702 193.726 192.883 193.279 193.181C193.236 193.209 195.201 192.45 194.25 192.766C193.899 192.879 193.559 193.025 193.211 193.142C192.073 193.528 190.906 193.833 189.726 194.064C189.452 194.117 189.176 194.156 188.903 194.209C187.69 194.45 190.977 194.01 189.743 194.096C189.091 194.142 188.445 194.209 187.793 194.234C186.58 194.28 185.364 194.252 184.155 194.149C183.885 194.128 183.587 194.06 183.318 194.071C183.24 194.071 185.453 194.418 184.431 194.22C183.701 194.078 182.967 193.961 182.24 193.791C181.045 193.51 179.86 193.163 178.704 192.755C178.172 192.567 177.651 192.312 177.116 192.152C177.066 192.138 178.97 193 178.059 192.539C177.722 192.369 177.371 192.22 177.034 192.057C174.726 190.925 172.573 189.553 170.488 188.057C169.109 187.064 171.878 189.23 170.584 188.124C170.077 187.691 169.559 187.269 169.059 186.83C168.059 185.947 167.094 185.025 166.162 184.071C165.311 183.198 164.481 182.298 163.694 181.369C163.474 181.106 162.623 179.989 163.424 181.081C164.226 182.174 163.527 181.216 163.389 181.014C162.97 180.408 162.552 179.805 162.169 179.174C161.758 178.496 161.382 177.801 161.034 177.092C160.91 176.84 160.814 176.518 160.658 176.287C160.906 176.652 161.336 178.078 160.938 176.883C160.467 175.468 160.038 174.064 159.765 172.596C159.711 172.316 159.697 171.993 159.612 171.72C159.85 172.496 159.829 173.684 159.715 172.156C159.662 171.464 159.637 170.773 159.637 170.082C159.637 169.287 159.694 168.504 159.75 167.713C159.772 167.418 159.903 166.344 159.726 167.784C159.524 169.443 159.814 167.496 159.857 167.28C160.814 162.475 158.485 156.904 153.293 155.72C148.623 154.656 142.761 157.128 141.733 162.284L141.726 162.266Z" fill="white"/>
<path d="M169.52 143.486C166.655 146.713 163.694 150.042 161.602 153.833C159.158 158.262 157.839 163.156 157.822 168.223C157.786 177.854 161.435 188.865 170.836 193.039C187.35 200.372 217.087 194.457 215.137 171.401C214.346 162.053 208.828 152.067 198.75 150.433C192.697 149.45 187.048 150.904 182.204 154.649C178.194 157.748 175.027 162.223 173.591 167.117C171.697 173.578 174.059 180.794 179.988 184.241C184.768 187.017 190.644 186.709 195.828 185.468C204.772 183.326 214.201 176.617 216.917 167.496C218.86 160.968 216.307 153.947 211.002 149.847C206.151 146.099 199.924 144.784 193.967 146.557C191.006 147.436 188.481 148.855 186.07 150.72C183.332 152.833 180.541 155.408 179.786 158.957C178.492 165.053 181.981 170.532 187.949 172.124C192.119 173.237 196.616 172.032 200.339 170.135C204.977 167.773 206.69 160.876 203.903 156.55C200.85 151.815 195.279 150.461 190.318 152.986C192.775 151.734 190.701 152.787 189.789 152.943L192.428 152.589C191.797 152.649 191.222 152.656 190.587 152.62L193.226 152.975C192.924 152.957 192.641 152.876 192.375 152.727C193.836 153.578 195.297 154.429 196.758 155.28L196.47 154.971L199.023 159.354L198.938 158.957V164.237C196.672 167.475 196.158 168.418 197.389 167.067C197.658 166.794 197.935 166.532 198.222 166.276C199.016 165.606 198.797 165.762 197.563 166.745C197.875 166.521 198.194 166.308 198.52 166.106C198.846 165.908 199.18 165.72 199.52 165.546C200.47 165.096 200.201 165.205 198.711 165.876C199.165 165.975 200.389 165.429 200.899 165.347L198.261 165.702C198.999 165.624 199.711 165.606 200.449 165.659L197.811 165.305C197.992 165.33 199.747 165.759 199.754 165.752C199.598 165.957 197.584 164.532 198.747 165.376C199.073 165.61 200.371 166.5 198.967 165.45C197.672 164.486 198.57 165.259 198.864 165.514C199.665 166.213 197.658 163.766 198.18 164.674C198.701 165.581 197.587 162.571 197.779 163.613C197.853 164.01 197.981 164.39 198.045 164.794L197.69 162.156C197.733 162.713 197.719 163.213 197.665 163.769L198.02 161.131C197.953 161.5 197.86 161.854 197.779 162.22C197.414 163.89 198.559 160.964 197.995 161.656C197.775 161.925 197.563 162.323 197.385 162.628C196.818 163.613 198.704 161.209 197.867 161.975C197.243 162.546 196.701 163.202 196.063 163.762C195.782 164.007 195.467 164.223 195.201 164.482C195.729 163.971 196.928 163.216 195.619 164.085C194.995 164.5 194.35 164.883 193.69 165.234C193.403 165.386 192.729 165.862 192.431 165.858C192.665 165.858 194.58 165.046 193.247 165.503C191.641 166.053 190.038 166.486 188.353 166.737L190.992 166.383C189.761 166.535 188.58 166.599 187.346 166.468L189.985 166.823C189.655 166.769 189.328 166.691 188.999 166.631C187.545 166.354 190.183 167.234 190.633 167.599C192.414 169.053 189.977 166.649 191.396 168.347C191.779 168.702 192.048 169.127 192.208 169.624C192.541 170.496 192.619 170.557 192.446 169.801L192.8 172.44C192.768 171.883 192.786 171.39 192.85 170.833L192.495 173.471C192.566 173.103 192.988 172.223 192.914 171.858C192.243 173.354 192.13 173.638 192.58 172.705L192.85 172.209C193.126 171.713 193.449 171.248 193.747 170.766C194.722 169.166 192.169 172.507 193.793 170.798C194.102 170.475 195.644 169.354 194.247 170.252C192.768 171.198 194.566 170.092 194.871 169.922C195.116 169.78 195.368 169.649 195.626 169.532C194.201 170.099 193.853 170.262 194.577 170.021C195.226 169.886 195.846 169.695 196.509 169.596L193.871 169.95C194.63 169.879 195.357 169.872 196.116 169.936L193.477 169.581C194.002 169.659 195.18 169.702 195.584 170.092L194.084 169.482C194.364 169.627 194.637 169.787 194.899 169.961C193.602 168.904 193.243 168.624 193.829 169.124C194.009 169.276 194.187 169.436 194.353 169.603C194.58 169.826 194.793 170.06 194.999 170.305C194.009 168.971 193.733 168.624 194.169 169.255C194.46 169.744 194.75 170.234 195.034 170.723C195.889 172.191 194.3 168.422 194.804 170.174C195.13 171.301 195.424 172.386 195.584 173.553L195.229 170.915C195.382 172.337 195.382 173.723 195.201 175.142L195.555 172.503C195.492 172.932 195.399 173.354 195.282 173.773C194.91 174.883 195.052 174.61 195.704 172.954C195.563 173.255 195.407 173.546 195.233 173.83C194.676 174.674 194.906 174.408 195.928 173.028C195.442 173.44 194.999 174.003 194.541 174.454C193.765 175.103 194.038 174.893 195.36 173.833C195.08 174.028 194.797 174.213 194.506 174.39C193.935 174.737 193.219 174.968 192.683 175.358C194.265 174.713 194.577 174.578 193.616 174.954C193.293 175.074 192.963 175.188 192.633 175.294C191.151 175.769 189.63 176.074 188.098 176.312L190.736 175.957C187.708 176.365 184.701 176.372 181.669 175.986L184.307 176.34C182.584 176.085 180.97 175.585 179.282 175.191C178.155 174.929 181.077 176.12 180.077 175.553C179.751 175.369 179.407 175.216 179.08 175.025C178.782 174.851 177.669 174.064 178.935 175.003C180.438 176.12 178.683 174.847 178.712 174.645C178.708 174.681 180.002 176.638 179.282 175.34C179.105 175.021 178.921 174.702 178.74 174.386C178.013 173.127 178.963 175.17 179.07 175.241C178.899 175.127 178.768 174.39 178.704 174.191C178.141 172.436 177.779 170.62 177.527 168.798L177.882 171.436C177.665 169.51 177.63 167.61 177.839 165.681L177.485 168.319C177.69 166.854 178.215 165.525 178.527 164.103C177.882 165.578 177.775 165.84 178.219 164.886C178.343 164.627 178.478 164.369 178.616 164.117C178.935 163.521 179.279 162.94 179.644 162.372C179.96 161.883 180.307 161.415 180.634 160.932C181.254 160.099 181.091 160.301 180.144 161.546C180.389 161.241 180.634 160.936 180.882 160.635C181.754 159.581 182.662 158.557 183.566 157.535C187.013 153.652 187.68 147.269 183.566 143.493C179.797 140.032 173.208 139.344 169.524 143.493L169.52 143.486Z" fill="white"/>
<path d="M197.836 130.716C195.098 133.383 192.268 135.958 189.339 138.415C187.917 139.606 186.414 140.709 185.009 141.918C185.417 141.571 186.488 140.794 185.46 141.564C185.109 141.826 184.761 142.089 184.41 142.351C183.534 143.004 182.648 143.642 181.761 144.277C179.609 145.816 177.924 147.578 177.197 150.209C176.541 152.585 176.839 155.752 178.197 157.862C180.896 162.046 187.261 164.652 191.782 161.425C198.875 156.362 205.633 150.84 211.875 144.762C215.602 141.131 215.789 134.316 211.875 130.72C207.96 127.124 201.811 126.848 197.832 130.72L197.836 130.716Z" fill="white"/>
<path d="M204.811 149.681C205.718 150.465 206.506 151.309 207.311 152.195C207.793 152.777 207.555 152.465 206.598 151.259C206.811 151.553 207.02 151.855 207.218 152.16C207.516 152.617 207.796 153.085 208.059 153.567C208.321 154.05 208.523 154.56 208.789 155.035C207.413 152.589 208.321 153.911 208.584 154.699C208.988 155.911 209.265 157.152 209.456 158.415L209.101 155.777C209.24 156.865 209.304 157.947 209.289 159.043C209.236 163.993 213.108 168.149 217.899 168.794C223.023 169.482 227.066 166.387 228.793 161.681C229.038 161.011 229.286 160.34 229.53 159.674H210.381C210.935 161.039 211.488 162.408 212.045 163.773C213.055 166.266 214.197 168.294 216.608 169.706C218.736 170.95 221.874 171.479 224.261 170.706C229.527 169 232.488 163.908 231.197 158.493C230.761 156.66 230.325 154.83 229.889 152.996L210.74 158.277C211.236 159.702 211.584 161.135 211.821 162.624L211.467 159.986C212.13 164.933 211.502 169.883 210.843 174.794L211.197 172.156C211.084 172.943 210.874 173.72 210.761 174.503C210.442 175.511 210.577 175.277 211.162 173.805C211.006 174.124 210.832 174.436 210.64 174.734C210.445 175.035 210.243 175.326 210.027 175.61C211.034 174.312 211.218 174.064 210.577 174.865C209.768 175.872 208.949 176.883 208.201 177.933C206.669 180.085 205.605 182.681 205.58 185.358C205.541 189.851 208.672 194.748 213.321 195.585C211.009 191.514 208.697 187.443 206.385 183.372C205.882 185.138 207.545 181.262 206.598 182.816C207.882 180.713 207.555 181.606 206.835 182.319C205.683 183.457 208.421 181.308 207.413 181.847C206.952 182.096 206.516 182.386 206.048 182.624C204.027 183.656 201.896 184.408 200.009 185.688C197.055 187.691 195.091 190.578 195.091 194.262C195.091 197.464 196.917 201.454 200.009 202.837C202.612 204 205.048 204.957 207.981 204.681C210.669 204.425 213.03 203.745 215.002 201.773C216.725 200.049 218.02 197.227 217.91 194.752C217.686 189.791 213.52 184.301 207.981 184.823C207.577 184.886 207.172 184.901 206.765 184.858L209.403 185.213C208.371 184.986 208.58 185.145 210.03 185.691V202.837C212.35 201.262 215.087 200.51 217.435 198.993C221.289 196.5 224.257 193.142 225.534 188.649C226.903 183.833 223.864 177.383 218.598 176.436L218.332 176.39L224.264 180.954L224.115 180.702C224.566 182.372 225.02 184.042 225.47 185.713L225.431 185.358L225.076 187.996C224.261 189.681 224.105 190.035 224.608 189.064C224.786 188.755 224.977 188.457 225.183 188.17L224.275 189.326C224.498 189.046 224.722 188.766 224.949 188.486C226.119 187.018 227.431 185.514 228.303 183.826C230.197 180.145 230.52 176.308 231.023 172.266C231.821 165.858 232.03 159.188 229.881 152.993C228.183 148.096 223.002 144.333 217.669 146.057C212.403 147.762 209.442 152.855 210.733 158.27C211.169 160.103 211.605 161.933 212.041 163.766L231.19 158.486C230.637 157.121 230.084 155.752 229.527 154.387C228.686 152.309 227.796 150.642 225.97 149.231C224.296 147.936 222.13 147 219.952 147.099C215.311 147.309 211.952 150.103 210.378 154.39C210.133 155.06 209.885 155.731 209.64 156.397C216.14 157.277 222.644 158.156 229.144 159.035C229.236 150.316 225.488 141.372 218.846 135.635C216.828 133.89 214.566 132.727 211.825 132.727C209.389 132.727 206.481 133.809 204.804 135.635C201.385 139.362 200.605 146.05 204.804 149.677L204.811 149.681Z" fill="white"/>
<path d="M191.3 130.543C191.892 130.5 192.474 130.518 193.063 130.592L192.119 130.465C192.353 130.5 192.584 130.543 192.814 130.596C193.74 130.802 194.715 130.727 195.548 130.238C196.282 129.809 196.984 128.965 197.18 128.117C197.587 126.319 196.641 124.188 194.704 123.755C193.598 123.507 192.442 123.365 191.307 123.447C190.357 123.514 189.488 123.794 188.8 124.486C188.187 125.099 187.722 126.11 187.761 126.993C187.843 128.802 189.325 130.681 191.307 130.539L191.3 130.543Z" fill="white"/>
<path fill-rule="evenodd" clip-rule="evenodd" d="M201.212 114.665C156.471 103.119 111.918 153.85 139.652 197.683C143.911 204.413 147.539 207.367 149.695 209.126C151.326 210.456 152.117 211.098 151.698 212.169C150.262 215.846 149.152 218.711 151.184 220.431C151.443 220.651 151.641 220.81 151.741 221.016C152.219 222.002 150.446 224.08 142.407 239.289C140.014 243.81 123.358 275.353 121.166 280.392C119.844 283.438 126.617 290.367 134.06 288.268C136.588 287.555 164.461 231.874 165.549 229.48C166.024 228.438 166.709 228.576 167.588 228.754C168.751 228.988 170.262 229.296 172.092 227.03C173.305 225.53 173.886 224.303 174.315 223.395C174.996 221.952 175.301 221.314 177.17 221.637C207.797 226.952 242.187 202.587 241.999 165.793C241.953 157.02 239.694 148.403 235.439 140.733C231.18 133.062 225.063 126.587 217.645 121.906C216.921 121.442 216.198 120.999 215.467 120.577C214.549 121.226 213.549 121.942 212.503 122.697C223.049 128.314 231.73 137.835 236.091 151.243C246.882 184.435 221.517 217.704 187.659 219.094H187.663C149 220.679 123.266 182.381 139.173 147.651C150.666 122.559 177.18 112.726 200.017 118.034C200.475 116.789 200.872 115.676 201.216 114.665H201.212ZM140.727 266.378C141.581 264.732 142.585 262.792 143.776 260.509C144.113 259.86 144.432 259.253 144.73 258.683C148.471 251.516 148.993 250.519 147.854 249.956C146.723 249.399 143.854 255.023 140.489 261.622C137.663 267.161 134.489 273.388 131.698 277.218C130.89 278.331 129.932 278.409 129.248 278.466C128.684 278.512 128.298 278.544 128.326 279.126C128.368 280.012 129.688 280.168 130.915 280.314H130.947C131.954 280.53 132.432 279.81 133.081 278.835C133.45 278.282 133.872 277.643 134.482 277.048C135.957 275.597 136.567 274.417 140.734 266.381L140.727 266.378ZM154.649 238.917C155.624 236.892 156.794 234.466 158.205 231.566C159.975 227.92 158.262 226.608 148.68 246.08C148.602 246.239 148.496 246.406 148.383 246.576C147.954 247.243 147.489 247.97 148.532 248.498C149.734 249.105 149.776 249.019 154.645 238.913L154.649 238.917ZM170.844 222.938C170.982 222.693 171.131 222.438 171.29 222.168H171.287C172.177 220.665 171.524 220.481 169.258 219.839C166.865 219.161 162.673 217.973 156.581 214.19C155.365 213.434 154.758 213.048 154.344 213.197C153.929 213.342 153.698 214.02 153.23 215.385C152.425 217.736 152.762 218.81 154.911 219.981C168.344 227.303 168.652 226.764 170.844 222.942V222.938Z" fill="#002469"/>
<path fill-rule="evenodd" clip-rule="evenodd" d="M198.01 123.084C185.117 120.158 170.869 122.552 159.089 131.063C127.518 153.882 135.521 200.573 170.699 211.711C211.308 224.569 247.01 182.69 228.642 146.68C223.865 137.314 216.294 130.417 207.464 126.311C206.638 126.896 205.815 127.478 205.003 128.034C224.347 136.577 236.957 158.605 228.113 182.119C212.362 224.002 150.603 219.431 143.004 176.19C141.507 167.807 142.518 159.169 145.904 151.357C149.291 143.545 154.904 136.903 162.046 132.261C173.567 124.573 185.929 122.864 196.957 125.368C197.312 124.605 197.67 123.836 198.007 123.08L198.01 123.084Z" fill="#002469"/>
<path d="M301 107.808V73.8258C301 67.2968 295.397 62 288.492 62H211.505C204.598 62 199 67.2968 199 73.8258V107.808L199 117.103V130L220.784 119.634H288.492C295.397 119.634 301 114.337 301 107.808Z" fill="white" stroke="#0DC0DC" stroke-width="5" stroke-miterlimit="10"/>
<path d="M218.704 100.578C216.024 100.044 216.797 97.4103 219.01 97.3181C227.646 96.9461 272.077 96.1756 280.582 97.7165C281.767 97.9306 282.156 99.432 280.625 99.9654C277.717 100.973 220.011 100.841 218.704 100.578Z" fill="#002469"/>
<path d="M243.095 90.6837C219.082 90.7331 220.156 90.7001 218.796 90.6244C218.371 90.6376 217.96 90.4828 217.65 90.1898C217.341 89.9 217.159 89.4983 217.146 89.0736C217.133 88.6488 217.288 88.2373 217.581 87.9278C217.871 87.6183 218.272 87.4372 218.697 87.424C222.655 86.9795 266.019 86.3045 277.556 87.1375C280.579 87.3581 281.961 87.4767 281.985 88.6719C282.017 90.5717 281.352 90.608 243.095 90.6837Z" fill="#002469"/>
<path d="M252.861 77.0324C279.462 77.2728 282.208 76.8842 282.36 78.7577C282.508 80.5884 280.934 80.5654 257.892 80.7037C218.499 80.9374 217.614 81.6849 217.475 79.5183C217.393 78.2342 218.414 77.579 219.718 77.5263C230.758 77.0884 241.805 76.9237 252.861 77.0324Z" fill="#002469"/>
<path d="M137.293 49.2522C136.493 43.7667 141.649 42.1928 145.182 38.2021C145.68 37.6984 146.035 37.0695 146.213 36.3813C146.387 35.6932 146.377 34.9721 146.18 34.2872C145.982 33.6056 145.61 32.9866 145.097 32.496C144.583 32.0054 143.948 31.663 143.256 31.4984C141.906 31.1395 140.48 31.1823 139.154 31.6202C137.827 32.0581 136.654 32.8681 135.779 33.9579C133.902 36.4373 132.193 34.4024 133.408 32.2293C138.426 23.3129 153.707 29.8586 148.076 39.2591C146.677 41.3137 144.929 43.1081 142.91 44.5602C139.394 47.4346 141.044 48.7616 140.082 52.6205C139.598 54.5599 136.961 54.2273 137.293 49.2489V49.2522Z" fill="#002469"/>
<path d="M139.519 60.6347C136.753 60.6775 136.832 57.0919 139.608 57.0128C139.861 56.9931 140.115 57.0293 140.352 57.1149C140.589 57.2005 140.81 57.3355 140.994 57.51C141.178 57.6845 141.323 57.8953 141.419 58.1323C141.514 58.3661 141.564 58.6196 141.557 58.8732C141.551 59.1267 141.491 59.3769 141.383 59.6041C141.274 59.8346 141.119 60.0388 140.928 60.2034C140.737 60.368 140.513 60.4931 140.27 60.5689C140.026 60.6413 139.772 60.6643 139.519 60.6347Z" fill="#002469"/>
<rect x="179" y="239" width="163" height="71" rx="12" fill="white" stroke="#0DC0DC" stroke-width="5"/>
<path d="M296.189 259C291.856 259.111 287.739 260.845 284.716 263.834C281.692 266.822 280 270.829 280 275C280 279.171 281.692 283.178 284.716 286.166C287.739 289.155 291.856 290.889 296.189 291C298.321 290.96 300.424 290.512 302.376 289.684C304.328 288.856 306.09 287.664 307.56 286.176C309.029 284.688 310.178 282.935 310.939 281.017C311.7 279.099 312.058 277.055 311.992 275.003C311.809 266.672 305.341 259 296.189 259ZM296.189 288.536C292.539 288.456 289.071 286.987 286.545 284.45C284.019 281.913 282.641 278.516 282.714 275.003C282.714 267.055 289.495 260.988 296.911 261.47C296.78 263.645 296.105 272.852 296.022 274.798C296.02 275.022 296.079 275.241 296.194 275.435C296.308 275.629 296.474 275.791 296.674 275.903C296.874 276.016 297.102 276.076 297.333 276.077C297.565 276.078 297.793 276.02 297.994 275.909C301.664 273.742 305.211 271.389 308.622 268.861C312.985 278.014 306.148 288.613 296.189 288.529V288.536Z" fill="#002469"/>
<path d="M205.03 290.717L221.591 270.761L229.854 283.645L245.818 264.635L253.931 273.985" stroke="#002469" stroke-width="2.5" stroke-linecap="round" stroke-linejoin="round"/>
<path d="M204.67 254L204.483 291.165L255.279 290.702" stroke="#002469" stroke-width="2.5" stroke-linecap="round" stroke-linejoin="round"/>
<path d="M46.2422 84.879L46.9152 83.9104L48.4709 86.1801C48.4714 86.1796 48.4719 86.1792 48.4724 86.1787L46.2422 84.879ZM46.2422 84.879C46.1197 83.9045 46.0404 82.9254 46.0045 81.9444L46.0045 81.9444L46.0042 81.9351C46.0043 81.9382 46.0044 81.9413 46.0045 81.9444C46.0131 82.2119 45.9243 82.4634 45.7708 82.656L45.013 82.052L45.7708 82.656C45.6172 82.8487 45.4127 82.9671 45.2034 83.0123C44.9949 83.0573 44.7746 83.0317 44.5757 82.933C44.3753 82.8336 44.1969 82.6588 44.0922 82.4205L44.9839 82.0288M46.2422 84.879L45.5695 85.8471M45.5695 85.8471C45.5291 85.7579 45.4887 85.6686 45.4484 85.5793C44.9161 84.3994 44.4006 83.2148 44.0528 82.3254L44.9264 81.9838L44.9271 81.9836M45.5695 85.8471L45.1662 86.4275C45.0627 86.4164 44.9617 86.4059 44.8672 86.396C44.7548 86.3843 44.6514 86.3735 44.5636 86.3638L43.7968 86.2787L41.9779 86.0768L43.8448 85.8092L44.0992 83.3221C43.918 83.3036 43.743 83.2863 43.5727 83.2697C43.5434 82.8589 43.5213 82.4475 43.5062 82.0358L45.5695 85.8471ZM44.9271 81.9836L44.9414 81.978L44.977 81.964L45.0758 81.9254L46.3811 81.415L45.1156 81.971L45.1008 81.9775L45.0358 82.006L44.9904 82.0259L44.9839 82.0288M44.9271 81.9836L44.9212 81.9788L44.9271 81.9836ZM44.9839 82.0288L44.9274 81.9838L44.9839 82.0288ZM41.2881 85.5568C40.6552 85.4872 39.9956 85.4023 39.251 85.2808C38.9141 85.2217 38.5665 85.2727 38.263 85.4257C38.1514 85.4819 38.0481 85.5508 37.955 85.6304L41.2881 85.5568ZM41.2881 85.5568C41.3071 85.707 41.3271 85.857 41.348 86.0069L41.2881 85.5568ZM50.231 88.7021L50.1325 88.5648C50.085 88.4987 50.0377 88.4326 49.9905 88.3665L51.1132 87.8193L50.231 88.7021Z" fill="#63A524" stroke="#F47541" stroke-width="5"/>
<path d="M93.1471 152.288C92.7919 155.804 92.4344 159.331 92.5362 162.866C92.638 166.402 92.8824 170.751 95.8691 173.286C99.1341 176.057 104.596 175.932 106.807 171.982C107.676 170.427 107.854 168.694 107.925 166.963C107.995 165.231 108.212 163.569 108.443 161.874C109.013 157.662 109.033 153.671 107.198 149.717C106.361 147.911 103.438 147.354 101.781 148.368C99.8106 149.573 99.4645 151.579 100.36 153.51C100.107 152.965 100.535 154.079 100.575 154.213C100.7 154.638 100.802 155.07 100.874 155.508C100.768 154.861 100.899 155.909 100.906 156.023C100.931 156.406 100.94 156.788 100.94 157.172C100.94 158.882 100.702 160.579 100.471 162.272C100.241 163.964 100.075 165.592 99.9962 167.27C99.9804 167.581 99.9509 167.893 99.9328 168.204C99.9849 167.325 99.8944 168.21 99.8491 168.406C99.693 169.078 100.019 168.225 100.177 168.017C99.865 168.309 99.8944 168.292 100.272 167.968C100.469 167.832 100.684 167.764 100.919 167.762C101.256 167.734 101.241 167.723 100.867 167.731C101.379 167.811 101.485 167.815 101.189 167.744C100.913 167.663 100.992 167.704 101.431 167.862C101.057 167.643 101.073 167.678 101.474 167.968C101.338 167.854 100.836 167.225 101.241 167.757C100.72 167.072 101.299 168.206 101.039 167.392C100.931 167.055 100.836 166.715 100.761 166.368C100.711 166.136 100.67 165.904 100.634 165.669C100.689 166.037 100.695 166.069 100.659 165.762C100.612 164.864 100.499 163.973 100.469 163.073C100.349 159.469 100.711 155.871 101.075 152.286C101.275 150.323 99.1115 148.441 97.1158 148.527C94.8011 148.626 93.3688 150.183 93.1561 152.286L93.1471 152.288Z" fill="#EEC9AA"/>
<path d="M96.6629 157.368C96.3122 160.274 96.0882 163.189 95.9909 166.112C95.9253 168.079 97.8576 169.959 99.9506 169.871C102.152 169.776 103.84 168.219 103.91 166.112C104.008 163.189 104.232 160.274 104.582 157.368C104.82 155.407 102.591 153.525 100.623 153.609C98.2739 153.708 96.9163 155.267 96.6629 157.368Z" fill="#EEC9AA"/>
<path d="M87.8774 160.379C87.4181 162.349 87.7394 164.387 88.9861 166.052C90.0722 167.499 91.5135 168.509 93.086 169.439C94.8464 170.479 97.5231 169.851 98.5029 168.09C99.4826 166.329 98.9622 164.059 97.0819 162.948C96.7086 162.727 96.3398 162.497 95.9732 162.267C95.6089 162.018 95.6157 162.025 95.9936 162.284C95.8691 162.183 95.7492 162.078 95.6361 161.964C95.446 161.769 95.4732 161.825 95.722 162.132C95.5931 161.96 95.4799 161.78 95.3826 161.591C95.5637 162.005 95.5908 162.009 95.4641 161.601C95.5682 161.855 95.584 162.115 95.5116 162.379C95.9574 160.463 94.903 158.223 92.7466 157.755C90.7419 157.321 88.3548 158.326 87.8751 160.379H87.8774Z" fill="#EEC9AA"/>
<path d="M92.3075 168.853C93.1696 171.54 94.9481 173.789 97.4415 175.305C98.729 176.089 100.279 176.667 101.815 176.677C104.114 176.692 105.646 175.107 106.746 173.398C109.728 168.771 110.594 163.234 110.83 157.907C110.916 155.94 108.947 154.06 106.87 154.148C104.65 154.243 103.003 155.8 102.91 157.907C102.856 159.125 102.766 160.336 102.628 161.548C102.49 162.759 102.766 160.822 102.564 161.999C102.523 162.239 102.483 162.48 102.437 162.718C102.315 163.376 102.168 164.029 101.999 164.675C101.845 165.259 101.67 165.839 101.471 166.413C101.372 166.698 101.261 166.98 101.157 167.263C100.926 167.893 101.229 167.171 101.053 167.53C100.783 168.073 100.512 168.612 100.197 169.136C100.041 169.398 99.8648 169.65 99.7064 169.909C99.306 170.573 99.7064 169.768 99.9734 169.658L101.971 169.145C102.444 169.276 102.533 169.299 102.238 169.216C101.965 169.13 102.028 169.166 102.428 169.325C102.232 169.244 102.039 169.149 101.851 169.05C101.569 168.902 101.297 168.735 101.037 168.554C101.478 168.857 101.247 168.698 100.978 168.447C100.786 168.266 100.607 168.077 100.428 167.884C100.783 168.268 100.591 168.084 100.388 167.772C100.245 167.553 100.123 167.328 99.9983 167.1C100.308 167.667 100.046 167.179 99.9418 166.851C99.3399 164.971 97.1451 163.588 95.0702 164.226C92.9954 164.864 91.6581 166.836 92.3053 168.851L92.3075 168.853Z" fill="#EEC9AA"/>
<path d="M107.664 158.931L106.739 159.975C106.352 160.317 106.08 160.718 105.92 161.185C105.671 161.633 105.558 162.115 105.578 162.632C105.558 163.15 105.671 163.633 105.92 164.08C106.08 164.546 106.352 164.95 106.739 165.289C107.494 165.946 108.483 166.434 109.538 166.391L110.59 166.256C111.26 166.077 111.843 165.755 112.337 165.289L113.262 164.245C113.649 163.904 113.92 163.502 114.081 163.036C114.33 162.587 114.443 162.106 114.423 161.588C114.443 161.071 114.33 160.587 114.081 160.141C113.92 159.675 113.649 159.271 113.262 158.931C112.506 158.274 111.518 157.787 110.463 157.83L109.411 157.965C108.741 158.143 108.157 158.465 107.664 158.931Z" fill="#EEC9AA"/>
<path d="M95.2582 176.95C95.1971 178.361 95.2016 179.942 95.5568 181.321C96.2334 183.939 98.8015 185.093 101.467 184.633C103.2 184.334 104.583 183.273 105.599 181.959C106.748 180.473 106.863 178.778 106.605 177.017C106.479 176.153 105.537 175.189 104.786 174.77C103.938 174.297 102.687 174.098 101.736 174.392C100.786 174.686 99.8536 175.249 99.3694 176.119C98.8377 177.075 98.8151 177.955 98.9712 179.014C98.84 178.638 98.8377 178.262 98.9644 177.887C98.8513 178.269 98.9101 178.174 99.1409 177.609L99.03 177.803C98.8015 178.131 98.8671 178.054 99.2269 177.569C98.7472 178.106 99.9374 177.173 99.2925 177.509C99.8944 177.294 99.9939 177.24 99.5912 177.352C100.277 177.296 100.383 177.259 99.9079 177.24L101.906 177.753C102.736 178.247 103.182 178.887 103.245 179.676C103.293 180.032 103.293 180.019 103.245 179.637C103.22 179.339 103.191 179.042 103.175 178.744C103.144 178.146 103.15 177.549 103.175 176.952C103.261 174.985 101.293 173.105 99.2156 173.193C96.9959 173.288 95.3487 174.845 95.2559 176.952L95.2582 176.95Z" fill="#EEC9AA"/>
<path d="M103.076 183.677C105.146 183.677 107.13 181.948 107.035 179.918C106.94 177.889 105.295 176.16 103.076 176.16C101.005 176.16 99.021 177.889 99.1161 179.918C99.2111 181.948 100.856 183.677 103.076 183.677Z" fill="#EEC9AA"/>
<path d="M99.0255 184.201C101.096 184.201 103.08 182.472 102.985 180.442C102.89 178.413 101.245 176.684 99.0255 176.684C96.9551 176.684 94.9707 178.413 95.0658 180.442C95.1608 182.472 96.8058 184.201 99.0255 184.201Z" fill="#EEC9AA"/>
<path d="M104.428 196.734C103.489 195.033 102.752 193.237 102.231 191.384C102.768 190.269 103.449 189.223 104.259 188.269C103.256 187.021 102.098 185.892 100.81 184.906C100.464 184.816 97.6902 187.451 97.2422 188.031C98.2468 189.017 98.9777 190.222 99.3714 191.543C99.2107 193.409 98.8464 195.254 98.2853 197.048C100.299 196.601 102.378 196.494 104.431 196.734H104.428Z" fill="#F47541"/>
<path d="M85.1192 150.626C86.8049 150.525 88.3774 151.442 89.0404 152.915C89.4929 154.191 90.0586 160.779 91.1628 160.738C92.2669 160.697 93.8961 153.996 93.8508 152.097C98.2132 151.764 102.594 151.71 106.963 151.94C107.529 154.812 109.291 159.501 110.228 159.501C111.165 159.501 113.375 153.027 112.814 151.124C113.914 150.759 115.122 150.825 116.168 151.313C116.701 151.657 116.002 148.409 111.391 147.984C113.115 146.51 115.321 145.389 116.312 145.389C117.303 145.389 113.674 142.672 105.35 144.727C106.094 143.001 107.354 141.519 108.979 140.466C109.841 140.037 100.852 138.297 93.5838 146.128C88.7643 143.606 85.7052 145.114 86.5695 145.505C87.8593 146.375 88.8526 147.584 89.4318 148.982C86.6284 148.708 83.4471 150.739 85.1192 150.623V150.626Z" fill="#59322A"/>
<path d="M100.066 169.16C99.2651 169.224 99.7583 170.167 101.842 170.272C103.564 170.354 105.689 169.398 105.567 167.467C105.546 167.201 105.3 167.001 105.019 167.02C104.738 167.04 104.528 167.274 104.548 167.54C104.634 169.873 100.575 169.119 100.066 169.16Z" fill="#191919"/>
<path d="M103.49 157.318C104.291 157.325 105.076 157.531 105.766 157.915C106.454 158.367 106.542 157.711 106.146 157.179C105.485 156.534 104.619 156.12 103.68 155.997C102.818 155.912 102.494 157.228 103.49 157.318Z" fill="#191919"/>
<path d="M94.9887 190.237C95.2761 190.419 95.6494 190.419 95.9368 190.237C97.6609 188.708 99.066 186.963 100.808 185.475C102.514 186.783 104.03 188.299 105.318 189.986C106.092 190.984 111.015 185.722 111.884 184.904C112.35 185.247 121.365 188.43 124.134 189.814C126.904 191.197 127.816 198.446 129.239 201.268C129.402 201.603 130.101 201.58 129.988 201.129C129.703 199.279 127.401 191.556 126.34 190.181C124.87 188.308 114.878 184.715 112.549 184.249C112.823 183.954 111.954 182.891 110.886 181.794C109.818 180.696 108.705 179.338 108.015 180.034C106.884 181.22 102.551 184.126 100.627 184.053C98.1632 183.538 95.8508 182.507 93.8596 181.033C93.3845 180.674 92.2464 181.345 91.1015 182.056C89.9565 182.766 88.8094 183.503 89.2234 184.397C85.9652 185.443 77.2132 189.086 75.2334 191.852C73.8147 194.876 72.7308 198.034 72 201.271C72.0136 201.481 72.2059 201.642 72.4276 201.629C72.5611 201.621 72.6811 201.552 72.7489 201.442C73.9821 199.584 74.7921 194.584 76.0954 192.58C77.6997 190.125 86.9902 186.19 89.7416 185.277C91.1535 187.226 92.932 188.907 94.991 190.237H94.9887ZM108.479 180.949C109.599 181.785 110.569 182.786 111.357 183.911C109.673 185.69 107.836 187.333 105.868 188.821C104.689 187.331 103.288 186.01 101.711 184.901C103.99 184.523 106.927 182.537 108.479 180.949ZM93.4637 181.858C95.2693 183.342 97.4256 184.392 99.7471 184.919C98.2221 186.218 96.8328 187.653 95.5996 189.206C93.518 187.728 91.6694 185.975 90.1104 184.002C91.0947 183.114 92.2283 182.391 93.4637 181.858Z" fill="#191919"/>
<path d="M91.3685 167.809C91.8844 170.341 93.1673 172.674 95.0589 174.527C94.6629 176.478 94.5498 178.471 94.7195 180.451C94.8191 180.659 95.0815 180.752 95.301 180.657C95.3576 180.632 95.4096 180.595 95.4503 180.55C95.9413 179.854 96.0024 176.231 96.0635 175.354C98.8443 177.459 102.723 177.676 105.745 175.891C105.936 177.072 106.085 178.494 106.311 179.671C106.39 180.039 107.354 179.94 107.345 179.558C107.286 178.119 106.965 176.443 106.893 174.991C109.155 172.888 110.074 169.886 110.513 166.988C113.961 166.874 115.882 161.374 114.995 159.329C114.685 158.474 113.703 158.019 112.803 158.313C112.687 158.352 112.574 158.401 112.47 158.461C112.081 158.699 112.47 159.279 112.893 159.084C113.694 158.762 114.117 159.902 114.111 160.426C114.111 162.22 112.875 165.654 110.662 165.736C110.886 164.054 110.979 162.357 110.936 160.663C110.922 160.373 110.662 160.149 110.359 160.164C110.054 160.177 109.818 160.424 109.834 160.712C110.248 180.204 97.093 178.28 93.3958 170.39C91.5586 166.473 92.3098 163.91 91.7916 161.962C91.6988 161.578 91.1377 161.676 91.0427 161.962C90.7417 163.511 90.7734 165.1 91.1354 166.634C90.1263 166.537 88.7393 163.975 88.4723 163.279C88.2053 162.583 87.2391 158.992 88.9633 159.327C89.3773 159.408 89.6964 158.835 89.3253 158.59C87.7573 157.553 86.1078 159.597 87.212 163.302C87.6034 164.606 89.5584 168.264 91.3685 167.807V167.809Z" fill="#191919"/>
<path d="M97.686 157.353C98.4892 157.286 98.2991 156.24 97.7471 156.171C96.308 155.982 93.8349 157.66 94.6925 158.283C95.2378 158.663 95.9799 157.492 97.686 157.355V157.353Z" fill="#191919"/>
<path d="M104.309 160.216C103.25 160.308 103.548 162.557 104.367 162.441C105.186 162.325 105.229 160.134 104.309 160.216Z" fill="#191919"/>
<path d="M96.9797 162.572C97.8417 162.628 97.9187 160.265 96.9797 160.356C96.0407 160.446 96.0746 162.514 96.9797 162.572Z" fill="#191919"/>
<path d="M100.333 166.795C100.815 166.786 102.806 166.556 102.184 165.639C101.994 165.354 100.272 165.942 99.1431 165.753C99.3693 165.034 99.5956 164.314 99.8151 163.592C100.315 161.956 99.4123 161.865 98.7969 163.592C98.0298 165.762 97.0478 166.844 100.333 166.793V166.795Z" fill="#191919"/>
<path d="M170.56 153.998C170.843 158.302 170.48 162.696 171.627 166.907C172.775 171.117 175.291 174.851 179.211 176.666C183.535 178.668 188.006 178.054 191.732 175.141C195.139 172.479 197.905 168.995 200.517 165.579C201.842 163.847 201.164 160.945 199.733 159.513C198.058 157.839 195.713 157.792 193.667 158.729C191.876 159.55 189.717 160.344 187.572 160.978C186.421 161.318 185.256 161.615 184.085 161.876C183.598 161.982 183.108 162.082 182.617 162.176C182.324 162.233 182.027 162.286 181.733 162.336C180.716 162.466 180.946 162.51 182.43 162.466L184.639 163.754L184.396 163.51L185.683 165.719C184.953 163.958 185.056 161.465 184.959 159.41C184.839 156.871 184.876 154.332 185.033 151.796L177.503 156.117C178.347 156.481 179.167 156.878 179.961 157.345C180.896 157.899 181.223 158.112 181.843 158.649C182.4 159.133 183.281 160.001 183.525 160.274C183.361 160.037 183.431 160.154 183.738 160.625L183.652 160.381L183.628 159.941C183.705 159.37 183.962 158.88 184.399 158.463C182.734 160.588 182.327 163.467 184.399 165.539C186.134 167.274 189.801 167.678 191.475 165.539C197.321 158.082 189.37 150.408 182.557 147.472C179.021 145.944 175.281 147.716 175.027 151.793C174.83 154.963 174.83 158.139 175.07 161.305C175.351 164.988 175.2 170.133 179.177 171.861C182.14 173.149 186.381 171.695 189.377 170.871C192.593 169.983 195.699 168.759 198.729 167.367L191.882 160.521C190.414 162.443 188.312 164.772 186.354 166.62C186.1 166.864 185.84 167.1 185.577 167.331C185.914 167.104 185.834 167.16 185.34 167.497C185.049 167.688 184.749 167.858 184.439 168.005C184.816 167.811 184.733 167.801 184.192 167.981L184.569 167.904C183.965 167.874 183.932 167.891 184.469 167.951C184.152 167.884 183.842 167.798 183.535 167.691C183.979 167.884 183.932 167.844 183.401 167.578C182.914 167.247 182.851 167.221 183.208 167.504C182.958 167.291 182.721 167.064 182.497 166.824C182.938 167.297 182.063 166.176 182.023 166.11C181.44 165.102 181.189 164.131 180.932 162.613C181.049 163.314 180.849 161.792 180.839 161.655C180.776 160.808 180.752 159.954 180.732 159.103C180.696 157.398 180.692 155.697 180.579 153.995C180.405 151.389 178.4 148.864 175.574 148.991C173.012 149.104 170.386 151.199 170.57 153.995L170.56 153.998Z" fill="#7F5C3E"/>
<path d="M184.015 174.817L184.279 183.298C184.359 185.911 186.524 188.426 189.283 188.303C192.042 188.18 194.375 186.101 194.288 183.298L194.024 174.817C193.944 172.205 191.779 169.689 189.02 169.813C186.26 169.936 183.928 172.015 184.015 174.817Z" fill="#7F5C3E"/>
<path d="M182.994 179.408C181.813 180.372 180.382 180.986 178.867 181.176C173.629 181.156 173.819 177.069 172.188 177.243C171.387 177.403 170.556 177.353 169.779 177.099C169.001 176.846 168.301 176.399 167.747 175.798C167.193 175.198 166.799 174.467 166.609 173.67C166.419 172.876 166.432 172.045 166.652 171.257C166.756 170.657 166.756 170.4 166.099 170.34C162.462 170.026 161.338 166.069 162.876 163.313C163.426 162.323 163.44 161.812 162.379 161.061C158.448 158.269 158.658 151.453 162.679 148.784C163.326 148.356 163.693 148.043 163.55 147.132C163.423 146.275 163.613 145.4 164.087 144.673C164.561 143.946 165.285 143.419 166.119 143.188C166.339 143.142 166.536 143.022 166.679 142.851C166.823 142.678 166.903 142.461 166.906 142.238C167.567 137.457 170.082 135.585 174.853 136.476C176.461 136.776 177.416 136.833 178.47 135.101C180.222 132.228 185.029 132.372 187.104 135.101C187.582 135.728 187.828 135.875 188.566 135.478C189.183 135.064 189.884 134.787 190.618 134.671C191.352 134.554 192.102 134.597 192.82 134.801C193.537 135.004 194.201 135.358 194.765 135.842C195.329 136.325 195.782 136.926 196.093 137.6C197.657 140.206 197.908 140.406 200.694 141.22C202.102 141.704 203.303 142.648 204.103 143.899C204.904 145.15 205.261 146.638 205.111 148.116C205.054 148.397 205.098 148.687 205.234 148.937C205.371 149.187 205.595 149.381 205.862 149.481C206.799 149.941 207.613 150.622 208.237 151.463C208.861 152.303 209.271 153.281 209.442 154.312C209.608 155.343 209.528 156.4 209.205 157.395C208.881 158.389 208.324 159.293 207.583 160.027C207.176 160.464 206.959 160.698 207.416 161.258C209.191 163.42 208.721 165.656 207.37 167.778C204.941 171.578 203.293 170.116 202.986 171.461C202.555 173.142 201.584 174.634 200.227 175.711C198.865 176.789 197.19 177.393 195.455 177.426C194.731 177.396 194.665 177.653 194.668 178.177C194.681 179.989 194.294 181.553 194.938 182.571C195.582 183.589 197.501 183.182 198.849 183.472C205.304 184.743 211.58 186.798 217.536 189.591C219.434 190.515 219.467 190.865 218.286 192.55C204.067 212.709 173.265 209.653 160.143 196.354C158.598 194.786 158.575 194.415 160.343 193.061C164.774 189.701 169.735 187.105 175.017 185.374C183.862 182.384 182.991 185.35 182.991 179.402L182.994 179.408ZM174.57 151.91C174.483 152.991 174.106 154.028 173.479 154.912C172.037 156.317 172.228 157.945 172.428 159.647C172.858 163.347 173.165 169.352 177.542 173.943C178.697 175.248 180.225 176.162 181.916 176.562C183.611 176.963 185.386 176.826 187.001 176.175C189.163 175.208 190.408 173.533 190.915 173.967C192.016 174.907 187.825 178.12 185.35 178.524C184.299 178.694 184.869 178.851 184.626 183.592C184.422 187.512 189.01 188.877 193.14 185.591C193.31 188.677 186.074 191.413 183.434 185.934C183.101 185.244 182.781 185.257 182.173 185.454C176.575 187.299 171.714 188.286 162.522 194.012C161.921 194.389 161.431 194.842 162.255 195.47C181.022 209.786 204.304 205.762 215.661 192.377C216.331 191.586 216.331 191.279 215.294 190.859C196.036 183.118 193.237 185.851 193.02 182.584C192.099 168.732 193.117 165.612 197.247 163.951C199.95 162.866 199.583 159.55 195.859 160.881C192.433 162.106 190.544 158.372 191.238 155.476C191.622 153.875 188.803 155.526 187.925 151.9C187.431 149.861 184.759 153.234 181.202 150.665C180.202 149.945 179.861 154.419 174.566 151.903L174.57 151.91ZM192.016 148.66C191.545 149.154 190.648 149.784 191.205 150.405C191.902 151.186 192.413 150.061 192.926 149.691C195.179 148.066 194.772 145.777 192.016 148.66ZM195.342 150.255C195.192 148.703 192.79 150.895 192.79 151.579C192.78 153.224 195.419 151.026 195.342 150.255Z" fill="#301C15"/>
<path d="M186.824 169.879C186.951 174.11 182.507 172.862 182.724 171.975C182.827 171.551 186.394 172.599 185.683 169.195C185.546 168.535 185.326 168.578 184.846 168.818C184.142 169.169 182.31 169.909 182.177 169.139C182.077 168.562 182.5 169.005 185.093 167.547C186.597 166.703 186.581 168.195 186.821 169.879H186.824Z" fill="#191919"/>
<path d="M181.856 165.209C182.834 165.332 182.74 166.119 181.676 166.259C178.683 166.67 179.497 163.313 179.771 158.636C179.788 158.369 179.771 157.959 180.221 158.019C180.562 158.062 180.502 158.402 180.505 158.636C180.562 163.51 179.778 164.948 181.856 165.209Z" fill="#191919"/>
<path d="M177.766 155.837C177.452 157.205 176.452 155.66 174.356 157.201C173.339 157.952 173.329 155.987 175.27 154.996C176.155 154.545 177.686 154.872 177.769 155.837H177.766Z" fill="#191919"/>
<path d="M185.406 155.316C183.795 155.747 183.468 155.94 183.198 155.513C182.43 154.305 186.297 152.857 187.508 154.966C188.205 156.184 186.764 155.653 185.406 155.316Z" fill="#191919"/>
<path d="M185.78 161.752C184.485 161.702 184.429 159.233 185.807 159.297C186.964 159.35 187.064 161.802 185.78 161.752Z" fill="#191919"/>
<path d="M175.851 159.53C177.018 159.563 177.072 161.992 175.807 161.979C174.663 161.976 174.66 159.503 175.851 159.53Z" fill="#191919"/>
<path d="M280.106 134.824C278.359 134.438 276.404 133.762 274.628 134.282C272.852 134.803 271.66 136.214 270.397 137.435C268.705 139.071 268.629 142.166 270.397 143.788C272.215 145.456 274.945 145.535 276.75 143.788C277.104 143.445 277.458 143.104 277.812 142.76C278.09 142.493 278.943 141.957 277.849 142.602C276.306 143.511 274.517 142.776 276.213 143.154L277.72 143.487C280.008 143.995 282.688 142.797 283.246 140.35C283.764 138.075 282.561 135.368 280.109 134.824H280.106Z" fill="#B87444"/>
<path d="M269.62 143.506C269.62 143.754 269.62 144 269.606 144.248C269.596 144.412 269.583 144.576 269.561 144.742C269.583 144.56 269.58 144.552 269.553 144.721C269.448 145.25 269.302 145.76 269.117 146.267C268.687 147.438 269.598 148.923 270.78 149.193C272.125 149.499 273.243 148.783 273.705 147.531C274.168 146.278 274.392 144.869 274.379 143.506C274.369 142.261 273.293 141.069 272.001 141.127C270.708 141.185 269.609 142.174 269.622 143.506H269.62Z" fill="#B87444"/>
<path d="M271.784 142.602L270.743 143.643C270.312 144.074 270.045 144.716 270.045 145.324C270.045 145.932 270.304 146.603 270.743 147.005C271.181 147.406 271.792 147.729 272.423 147.702C273.055 147.676 273.65 147.462 274.104 147.005L275.146 145.963C275.576 145.533 275.843 144.89 275.843 144.283C275.843 143.675 275.584 143.004 275.146 142.602C274.707 142.2 274.096 141.878 273.465 141.904C272.833 141.931 272.238 142.145 271.784 142.602Z" fill="#B87444"/>
<path d="M268.023 148.588L267.645 149.893C267.473 150.48 267.577 151.201 267.886 151.727C268.174 152.222 268.739 152.692 269.308 152.821C270.579 153.112 271.863 152.438 272.233 151.159L272.611 149.854C272.783 149.267 272.68 148.545 272.371 148.02C272.083 147.525 271.517 147.055 270.949 146.925C269.678 146.635 268.393 147.309 268.023 148.588Z" fill="#B87444"/>
<path d="M270.859 150.01C270.819 151.043 270.954 152.084 271.255 153.075C271.353 153.4 271.863 153.26 271.765 152.935C271.477 151.986 271.35 151.003 271.387 150.012C271.401 149.671 270.872 149.671 270.859 150.012V150.01Z" fill="#B87444"/>
<path d="M271.67 151.376C271.533 151.95 271.474 152.544 271.511 153.133C271.519 153.271 271.628 153.406 271.776 153.398C271.91 153.392 272.048 153.281 272.04 153.133C272.006 152.576 272.051 152.05 272.18 151.516C272.212 151.381 272.138 151.223 271.995 151.191C271.852 151.159 271.704 151.231 271.67 151.376Z" fill="#B87444"/>
<path d="M271.707 149.827C271.448 150.707 271.332 151.63 271.366 152.547L271.763 152.319C271.549 152.171 271.335 152.021 271.121 151.873C271.004 151.791 270.827 151.852 270.759 151.968C270.682 152.1 270.735 152.248 270.854 152.33C271.068 152.478 271.282 152.629 271.496 152.777C271.66 152.89 271.9 152.74 271.892 152.549C271.861 151.675 271.969 150.808 272.215 149.97C272.31 149.642 271.8 149.502 271.705 149.83L271.707 149.827Z" fill="#B87444"/>
<path d="M270.994 153.54C272.524 153.54 272.527 151.162 270.994 151.162C269.461 151.162 269.461 153.54 270.994 153.54Z" fill="#B87444"/>
<path d="M267.362 150.612C266.839 150.906 266.329 151.019 265.737 151.006L266.337 153.223C266.797 152.943 267.254 152.66 267.714 152.38C269.017 151.582 267.825 149.523 266.514 150.327C266.054 150.607 265.597 150.89 265.137 151.17C264.128 151.788 264.55 153.363 265.737 153.387C266.733 153.406 267.695 153.152 268.562 152.668C269.899 151.92 268.7 149.864 267.362 150.615V150.612Z" fill="#B87444"/>
<path d="M264.643 150.903C262.904 152.24 260.245 155.081 262.582 157.156C265.111 159.399 267.13 155.118 268.205 153.482L265.251 152.681C264.936 155.404 265.711 158.06 266.559 160.62C267.317 162.912 268.52 164.815 270.756 165.89C272.587 166.77 274.197 164.035 272.357 163.152C270.518 162.27 269.915 160.742 269.321 158.852C268.681 156.817 268.176 154.83 268.425 152.681C268.62 150.998 266.25 150.697 265.47 151.881C265.005 152.589 263.998 153.633 263.792 154.434C263.385 154.915 263.766 155.126 264.936 155.068C265.029 154.907 265.134 154.756 265.259 154.619C265.544 154.262 265.882 153.924 266.247 153.643C266.932 153.118 267.278 152.285 266.815 151.474C266.432 150.802 265.325 150.385 264.646 150.906L264.643 150.903Z" fill="#B87444"/>
<path d="M262.729 157.46C263.062 158.422 263.345 159.402 263.488 160.414C263.578 161.049 263.834 162.391 263.58 163.01C263.226 163.871 261.397 163.998 260.581 164.418C259.022 165.224 258.105 166.683 257.991 168.427C257.864 170.37 258.932 171.887 259.574 173.623C260.029 174.849 259.738 176.237 258.683 177.08C257.547 177.989 255.837 177.846 254.566 178.568C250.686 180.769 251.915 185.46 253.538 188.653C254.019 189.599 255.544 190.056 256.432 189.411C259.172 187.416 262.338 186.052 265.726 185.679C267.463 185.489 269.323 185.716 270.634 184.308C271.601 183.269 271.736 181.633 272.772 180.666C273.208 180.259 273.623 180.288 274.194 180.151C275.092 179.931 275.88 179.445 276.39 178.66C276.853 177.944 277.011 177.069 277.212 176.258C277.413 175.447 277.719 174.524 277.717 173.644C277.711 171.762 276.258 170.964 275.077 169.791C273.895 168.618 273.169 167.27 272.73 165.724L269.196 167.78C270.066 168.662 270.756 169.664 271.189 170.83C272.122 173.338 275.994 172.378 275.267 169.706C274.754 167.822 274.009 166.02 273.047 164.323C271.707 161.955 268.052 164.083 269.395 166.458C270.185 167.854 270.766 169.284 271.189 170.832L275.267 169.709C274.574 167.843 273.589 166.215 272.188 164.793C270.708 163.295 268.078 164.82 268.655 166.85C269.064 168.292 269.675 169.698 270.547 170.925C270.972 171.522 271.432 172.106 271.945 172.635C272.458 173.163 273.102 173.531 273.573 174.059C273.322 173.776 273.523 173.779 273.361 174.231C273.211 174.656 273.137 175.151 273.026 175.589C272.949 175.893 272.619 176.401 272.947 176.234C273.443 175.983 272.423 176.168 272.312 176.197C270.904 176.557 269.828 177.487 269.003 178.652C268.652 179.149 268.364 179.68 268.108 180.23C267.975 180.513 267.846 180.796 267.727 181.084C267.391 181.895 267.701 181.282 267.539 181.343C266.939 181.578 265.935 181.427 265.28 181.506C264.498 181.602 263.715 181.718 262.944 181.882C259.836 182.54 256.862 183.901 254.299 185.767L257.193 186.525C256.699 185.55 255.412 183.362 256.514 182.35C256.981 181.921 257.872 181.906 258.453 181.755C259.23 181.554 259.999 181.274 260.681 180.84C263.586 178.993 264.754 175.256 263.493 172.088C263.171 171.279 261.63 169.069 262.396 168.242C262.7 167.915 263.536 167.817 263.924 167.682C264.64 167.434 265.333 167.161 265.948 166.712C269.006 164.482 267.856 159.36 266.807 156.342C265.922 153.786 261.834 154.886 262.729 157.465V157.46Z" fill="#B87444"/>
<path d="M259.558 185.357C263.771 183.314 268.626 182.458 271.919 178.85C273.777 176.813 274.934 174.492 273.692 171.823C272.677 169.643 271.805 167.55 271.253 165.195C270.661 162.671 267.688 162.38 265.951 163.794C263.948 165.425 260.504 167.251 261.057 170.288C261.271 171.461 261.958 172.568 262.328 173.713C262.73 174.952 263.002 176.221 263.184 177.51C263.425 179.207 265.584 180.137 267.085 179.725C268.909 179.223 269.543 177.526 269.3 175.824C268.916 173.123 267.968 170.758 266.911 168.266L267.344 169.867L267.312 169.558L266.879 171.16C266.71 171.498 267.323 170.816 267.418 170.74C267.754 170.467 268.089 170.193 268.425 169.92C269.096 169.373 269.767 168.826 270.436 168.279L265.135 166.878C265.631 168.995 266.35 171.022 267.233 173.007C267.423 173.438 267.616 173.871 267.838 174.289C268.044 174.757 268.105 174.857 268.021 174.593C268.282 173.382 268.274 173.041 267.999 173.567C267.5 174.091 267.18 174.693 266.572 175.195C263.729 177.547 259.646 178.285 256.355 179.878C254.815 180.626 254.4 182.82 255.216 184.218C256.136 185.79 258.01 186.105 259.556 185.357H259.558Z" fill="#B87444"/>
<path d="M282.445 143.292C286.525 143.292 286.533 136.949 282.445 136.949C278.356 136.949 278.356 143.292 282.445 143.292Z" fill="#B87444"/>
<path d="M281.662 143.812C285.743 143.812 285.751 137.469 281.662 137.469C277.574 137.469 277.574 143.812 281.662 143.812Z" fill="#B87444"/>
<path d="M281.662 144.074C285.743 144.074 285.751 137.731 281.662 137.731C277.574 137.731 277.574 144.074 281.662 144.074Z" fill="#B87444"/>
<path d="M284.786 142.512C285.431 142.517 286.079 142.435 286.689 142.229C285.495 140.675 284.303 139.124 283.108 137.57C283.388 137.171 282.818 137.826 282.773 137.866L287.754 141.708C287.931 141.436 287.958 141.391 287.841 141.574C287.715 141.751 287.762 141.719 287.982 141.481C287.752 141.658 287.73 141.687 287.918 141.571C288.111 141.468 288.082 141.476 287.834 141.597H287.598C288.164 141.616 288.013 141.547 287.144 141.386C285.968 140.678 286.2 138.207 287.913 137.871H289.599L289.372 137.826C287.807 137.517 286.272 138.143 285.629 139.663C285.074 140.976 285.479 142.99 286.927 143.625C287.107 143.693 287.279 143.778 287.442 143.881C287.294 143.807 287.189 143.693 287.131 143.537C288.167 144.896 289.863 145.615 291.47 144.676C292.807 143.894 293.653 141.708 292.609 140.337C291.917 139.428 291.203 138.616 290.13 138.146L287.686 143.942C289.874 144.372 291.787 143.336 292.548 141.227C293.198 139.428 292.34 137.417 290.891 136.299C287.974 134.055 284.086 135.699 282.281 138.503C281.435 139.819 281.887 141.69 283.098 142.594C284.401 143.566 286.058 143.429 287.263 142.345C287.778 141.883 288.193 141.333 288.589 140.765C290.159 138.519 287.548 135.252 285.008 136.106C284.628 136.248 284.554 136.267 284.792 136.161C283.132 136.148 281.544 137.631 281.62 139.333C281.697 141.035 283.013 142.491 284.792 142.504L284.786 142.512Z" fill="#B87444"/>
<path d="M290.03 147.068C290.03 147.068 290.252 148.255 290.31 148.463C290.59 149.444 291.06 150.374 291.528 151.278C292.482 153.117 295.347 153.051 296.319 151.278C297.189 149.692 296.999 148.006 297.63 146.392L296.917 147.615L297.125 147.443L295.902 148.157C296.327 148.03 294.321 148.078 294.602 147.713C294.425 147.946 294.345 148.833 294.245 149.153C293.88 150.319 294.488 151.682 295.521 152.288C296.644 152.946 297.934 152.655 298.883 151.854C299.996 150.916 300.725 149.666 301.121 148.276C302.107 144.835 296.753 143.368 295.77 146.801C295.614 147.343 295.402 147.557 294.958 147.93L299.596 150.631C300.508 147.716 300.22 143.635 296.607 142.763C294.794 142.327 292.931 143.114 292.279 144.917C291.872 146.04 292.094 147.441 291.525 148.477H296.317C295.178 146.281 295.283 143.585 292.826 142.277C289.675 140.596 286.869 145.387 290.024 147.068H290.03Z" fill="#B87444"/>
<path d="M295.326 153.176C298.896 153.176 298.902 147.626 295.326 147.626C291.75 147.626 291.75 153.176 295.326 153.176Z" fill="#B87444"/>
<path d="M293.114 153.421C295.495 153.421 295.498 149.721 293.114 149.721C290.73 149.721 290.73 153.421 293.114 153.421Z" fill="#B87444"/>
<path d="M295.572 154.206C296.256 154.381 296.534 154.695 296.824 155.343C297.638 157.169 300.152 156.046 300.27 154.41C300.31 153.85 300.297 153.321 300.228 152.766L296.594 153.258C297.276 155.121 298.103 156.802 299.967 157.705C300.463 157.946 300.952 158.152 301.42 158.451C301.835 158.715 302.16 159.376 302.009 158.559C302.179 159.481 301.716 160.998 301.602 161.937C301.565 162.251 301.301 163.073 301.428 163.385C301.306 163.855 301.436 163.813 301.819 163.255C301.594 163.329 301.365 163.356 301.127 163.34C300.228 163.335 299.449 162.906 298.878 162.219C298.188 161.387 298.154 160.787 298.399 159.738C298.661 158.625 299.007 157.539 299.406 156.469H295.838C296.232 158.451 296.327 160.435 296.195 162.452C296.079 164.241 298.859 165.034 299.641 163.385C300.263 162.079 300.884 160.774 301.505 159.468L298.058 158.535C298.164 159.894 298.204 161.252 298.18 162.616C298.151 164.397 300.783 165.208 301.626 163.549C302.054 162.706 302.398 161.847 302.623 160.927L298.989 160.435C298.907 161.376 298.822 162.315 298.74 163.255C298.582 165.042 301.436 165.837 302.186 164.188C302.839 162.758 303.492 161.326 304.145 159.896C305.125 157.745 301.938 155.863 300.95 158.028C300.297 159.458 299.644 160.89 298.991 162.32L302.438 163.253C302.519 162.312 302.604 161.374 302.686 160.433C302.871 158.342 299.546 157.941 299.052 159.941C298.901 160.557 298.716 161.115 298.428 161.678L301.875 162.61C301.898 161.247 301.856 159.891 301.753 158.53C301.626 156.873 299.163 155.795 298.307 157.597C297.686 158.903 297.065 160.208 296.444 161.514L299.89 162.447C300.043 160.1 299.858 157.785 299.401 155.48C299.015 153.53 296.409 153.926 295.833 155.48C295.257 157.034 294.718 158.665 294.541 160.317C294.364 161.968 294.998 163.269 295.986 164.497C297.691 166.62 301.187 167.967 303.711 166.416C305.051 165.594 305.041 164.048 305.21 162.655C305.39 161.165 305.95 159.296 305.659 157.811C305.403 156.503 303.986 155.628 302.897 155.015C302.313 154.687 301.565 154.513 301.074 154.053C300.582 153.593 300.374 152.864 300.157 152.269C299.837 151.397 299.086 150.816 298.127 150.945C297.311 151.056 296.409 151.849 296.523 152.761C296.592 153.316 296.608 153.847 296.565 154.405L300.011 153.472C299.367 152.026 298.069 151.022 296.549 150.633C294.242 150.044 293.256 153.612 295.566 154.201L295.572 154.206Z" fill="#B87444"/>
<path d="M293.486 162.922L293.381 163.21L294.094 161.987C294.623 161.77 294.657 161.736 294.2 161.881C293.862 161.973 293.537 162.098 293.225 162.256C292.839 162.454 292.437 162.706 292.123 163.015C291.256 163.879 290.947 165.237 290.534 166.35C289.747 168.48 288.891 170.578 287.963 172.653H292.754L292.604 172.394L292.982 173.795L292.974 173.491L292.596 174.891L292.736 174.625L287.564 173.224C287.487 175.497 287.709 177.748 288.153 179.979C288.716 182.809 292.733 182.423 293.505 179.979C293.663 179.474 293.825 178.969 293.983 178.465C295.061 175.05 289.705 173.591 288.632 176.99C288.473 177.495 288.312 177.999 288.153 178.504H293.505C293.156 176.752 293.053 175.008 293.114 173.224C293.206 170.518 289.213 169.384 287.942 171.823C287.297 173.06 287.244 174.228 287.963 175.452C288.928 177.103 291.877 177.415 292.754 175.452C293.772 173.171 294.736 170.866 295.622 168.528C295.82 168.004 296.127 167.428 296.23 166.881C296.576 166.096 296.391 166.213 295.672 167.23C295.833 167.196 295.989 167.148 296.14 167.085C297.509 166.799 298.386 165.618 298.833 164.397C299.348 162.988 298.254 161.358 296.896 160.982C295.35 160.557 293.999 161.508 293.481 162.92L293.486 162.922Z" fill="#B87444"/>
<path d="M289.86 176.205C293.431 176.205 293.436 170.655 289.86 170.655C286.285 170.655 286.285 176.205 289.86 176.205Z" fill="#B87444"/>
<path d="M290.614 178.914C290.577 180.489 291.169 182.024 292.297 183.137C293.632 184.453 295.22 184.575 296.97 184.813C299.795 185.196 302.316 186.61 304.758 187.995C307.319 189.448 311.328 191.583 313.331 187.992C314.167 186.496 313.908 184.657 312.972 183.28C312.036 181.903 310.58 181.644 309.328 180.682C307.427 179.22 309.288 176.855 309.629 175.058C310.253 171.778 308.442 169.442 305.53 168.248C305.044 168.049 304.547 167.883 304.06 167.685C303.461 167.439 303.757 167.55 303.857 167.597C303.894 167.616 303.067 167.119 303.395 167.386C303.011 167.074 302.8 166.612 302.475 166.244C301.833 165.523 301.019 165.018 300.073 164.807C296.563 164.024 294.118 167.003 293.323 170.055C292.866 171.81 292.408 173.612 292.086 175.396C291.764 177.18 292.26 179.244 294.126 180.008C296.291 180.893 297.895 179.361 298.751 177.55C299.607 175.74 300.429 173.998 301.267 172.222L296.095 170.822C295.789 173.213 295.482 175.608 295.175 177.999C295.019 179.213 294.771 180.441 295.429 181.565C296.19 182.868 297.76 183.367 299.166 182.928C301.074 182.336 302.155 180.513 302.837 178.769C303.099 178.097 303.281 177.392 303.569 176.734C303.41 177.098 303.804 176.311 303.799 176.319C303.92 176.126 304.087 176.041 303.989 176.105C302.631 175.552 301.272 175 299.914 174.445C300.07 174.862 300.073 174.847 299.956 175.314C299.808 175.906 299.565 176.475 299.367 177.053C298.883 178.48 298.746 179.834 299.015 181.319C299.57 184.358 304.808 183.703 304.465 180.582C304.224 178.404 303.931 176.229 303.553 174.07C303.379 173.071 303.188 172.074 302.98 171.081C302.877 170.584 302.768 170.09 302.655 169.595C302.599 169.347 302.541 169.101 302.483 168.855C302.329 167.502 301.307 167.722 299.414 169.513L298.701 168.29L298.756 168.52C299.581 171.992 304.933 170.523 304.108 167.045C303.643 165.089 301.56 164.059 299.673 164.569C297.459 165.169 296.647 167.407 296.975 169.5C297.559 173.213 298.5 176.834 298.912 180.587L304.362 179.849C304.259 179.287 304.959 177.923 305.2 177.143C305.612 175.801 305.757 174.318 305.258 172.978C304.66 171.371 302.81 170.293 301.183 171.318C299.555 172.344 298.796 173.716 298.156 175.41C297.921 176.031 297.757 176.697 297.48 177.302C297.639 176.956 297.271 177.635 297.242 177.701C297.324 177.524 296.999 177.73 297.303 177.666L300.004 178.38L299.784 178.208L300.498 179.432C300.588 179.76 300.583 179.075 300.591 179.03C300.657 178.605 300.699 178.174 300.754 177.748C300.852 176.979 300.953 176.21 301.05 175.441C301.249 173.903 301.444 172.365 301.642 170.827C301.991 168.107 297.604 167.027 296.47 169.426C295.96 170.507 295.45 171.588 294.938 172.669C294.718 173.131 294.499 173.597 294.282 174.059C294.137 174.368 293.991 174.677 293.843 174.987C293.492 175.573 293.555 175.608 294.034 175.09L295.434 174.712L295.189 174.707L296.589 175.084L296.399 174.966L297.395 175.962C297.609 176.276 297.221 177.336 297.57 176.226C297.699 175.817 297.768 175.375 297.866 174.958C298.083 174.027 298.294 173.094 298.516 172.167C298.574 171.926 299.679 169.598 298.455 170.034C298.357 170.068 298.846 170.658 299.05 170.89C299.253 171.123 299.462 171.305 299.705 171.503C300.218 171.921 300.739 172.254 301.338 172.529C301.989 172.825 302.66 173.071 303.328 173.322C303.41 173.353 303.965 173.594 303.669 173.454C303.648 173.443 304.441 173.858 304.103 173.636C304.407 173.834 304.238 173.649 304.243 173.79C304.272 174.471 303.72 175.386 303.492 176.015C302.935 177.561 302.729 179.189 303.128 180.803C303.527 182.418 304.412 183.819 305.649 184.834C306.254 185.331 306.883 185.682 307.581 186.026C307.636 186.052 308.603 186.599 308.619 186.591C308.315 186.734 308.276 185.553 308.342 185.463L309.338 184.466C310.017 183.956 309.869 184.564 309.75 184.429C309.632 184.295 309.158 184.118 308.973 184.014C308.297 183.637 307.626 183.243 306.949 182.862C305.519 182.061 304.068 181.319 302.554 180.693C301.206 180.132 299.837 179.683 298.392 179.456C297.866 179.371 296.788 179.44 296.283 179.207C296.082 179.115 296.14 179.884 296.161 178.922C296.248 175.349 290.699 175.351 290.611 178.922L290.614 178.914Z" fill="#B87444"/>
<path d="M280.983 144.15C280.563 144.174 280.048 143.817 279.577 143.714C278.452 143.469 277.281 143.82 276.451 144.618C275.278 145.749 274.746 147.581 274.453 149.143C273.808 152.581 274.297 156.009 274.826 159.428C275.056 160.911 276.914 161.73 278.24 161.366C279.823 160.932 280.41 159.439 280.177 157.951C279.903 156.186 279.665 154.418 279.67 152.629C279.673 151.54 279.76 149.045 280.5 148.44L279.276 149.153L279.577 149.063H278.103C278.75 149.167 279.94 149.756 280.986 149.698C284.538 149.497 284.559 143.944 280.986 144.148L280.983 144.15Z" fill="#E0A772"/>
<path d="M278.462 151.368C278.166 154.476 278.005 157.595 278.003 160.718C278.003 161.968 278.061 163.224 278.003 164.474C277.973 165.063 278.008 165.045 277.841 165.711C277.815 165.819 277.574 166.551 277.638 166.382C277.733 166.123 277.292 166.887 277.545 166.572C279.345 166.805 281.142 167.035 282.942 167.267C280.635 162.061 280.925 156.022 281.087 150.467C281.19 146.881 276.483 146.032 274.683 148.733C272.136 152.563 272.297 157.983 273.09 162.333C273.481 164.471 274.287 166.651 275.518 168.451C276.951 170.542 279.097 173.095 281.935 172.27C286.174 171.041 284.372 164.408 280.109 165.644L279.847 165.721L282.495 166.067C282.762 166.205 282.226 165.856 282.117 165.748C281.874 165.502 281.618 165.248 281.414 164.965C281.177 164.638 280.825 163.998 280.6 163.525C280.138 162.552 279.786 161.191 279.636 159.989C279.305 157.357 279.202 154.325 280.616 152.203L274.213 150.47C274.012 157.41 274.149 164.289 277.006 170.737C277.849 172.643 281.103 173.044 282.403 171.432C284.594 168.715 284.927 165.666 284.887 162.278C284.842 158.633 284.99 154.997 285.336 151.368C285.511 149.518 283.632 147.932 281.901 147.932C279.897 147.932 278.642 149.513 278.465 151.368H278.462Z" fill="#E0A772"/>
<path d="M276.274 145.903C275.375 146.994 274.577 148.109 273.993 149.399L280.397 151.133C280.413 151.003 280.442 150.065 280.423 150.876C280.428 150.599 280.516 150.274 280.563 150.002C280.666 149.42 280.788 148.844 280.92 148.268C278.671 147.964 276.422 147.66 274.17 147.354C274.152 147.549 274.131 147.745 274.112 147.94C273.932 149.735 275.819 151.453 277.548 151.376C279.562 151.286 280.791 149.862 280.983 147.94C281.002 147.745 281.023 147.549 281.042 147.354C281.211 145.66 279.604 144.187 278.063 143.979C276.446 143.762 274.678 144.766 274.295 146.439C273.938 147.988 273.703 149.552 273.525 151.13C273.364 152.552 274.702 154.138 276.047 154.444C277.392 154.751 279.289 154.272 279.926 152.866C280.138 152.401 280.368 151.947 280.632 151.511C280.764 151.291 280.912 151.085 281.05 150.871C281.427 150.276 280.645 151.352 281.134 150.76C282.276 149.375 282.59 147.24 281.134 145.903C279.871 144.742 277.495 144.42 276.277 145.903H276.274Z" fill="#E0A772"/>
<path d="M268.927 157.111C269.056 157.634 269.173 158.16 269.273 158.689C269.318 158.932 269.36 159.177 269.4 159.423C269.545 160.34 269.342 158.895 269.432 159.619C269.548 160.562 269.738 161.35 270.438 162.048C271.033 162.642 272.011 163.091 272.867 163.054C274.543 162.98 276.535 161.53 276.303 159.619C276.123 158.157 275.904 156.714 275.552 155.285C275.124 153.538 273.057 152.325 271.326 152.885C269.595 153.445 268.467 155.24 268.927 157.111Z" fill="#E0A772"/>
<path d="M272.106 160.56C276.528 160.56 276.536 153.688 272.106 153.688C267.677 153.688 267.677 160.56 272.106 160.56Z" fill="#E0A772"/>
<path d="M285.786 149.803C285.632 150.525 284.684 150.863 284.089 151.019C284.047 151.03 283.716 151.04 283.737 150.98C283.743 150.969 284.586 151.868 284.723 152.039C286.343 150.419 287.963 148.799 289.581 147.182C289.079 146.77 288.579 146.36 288.077 145.948V150.805C290.432 148.733 289.398 144.04 286.116 143.58C284.715 143.384 283.412 143.596 282.506 144.811C281.599 146.027 281.605 147.34 282.236 148.627C282.823 149.819 283.108 151.104 283.153 152.425C283.256 155.47 286.8 156.865 289.018 154.854C289.274 154.621 289.528 154.391 289.784 154.159L285.622 154.695L285.86 154.798L284.628 153.567C284.435 152.769 284.366 152.61 284.419 153.091C284.438 153.326 284.454 153.562 284.464 153.797C284.48 154.111 284.491 154.426 284.496 154.74C284.509 155.604 284.485 156.469 284.422 157.333C284.314 158.834 284.041 160.306 283.663 161.762C283.285 163.218 282.749 164.434 282.279 165.777C282.453 165.282 281.869 166.559 282.215 166.059C282.398 165.798 281.943 166.086 282.062 166.083C281.769 166.094 280.706 166.043 280.167 165.991C278.687 165.848 277.226 167.159 276.853 168.512C276.427 170.055 277.17 171.517 278.431 172.391C280.693 173.961 283.759 173.457 285.667 171.601C283.753 171.097 281.837 170.592 279.924 170.084L280.011 170.314V168.488L280.172 168.118L281.404 166.887L281.182 166.99C278.439 168.274 279.308 172.555 282.004 173.269C285.006 174.064 286.734 171.9 287.969 169.521C288.957 167.613 289.895 165.679 290.786 163.723L284.506 161.075C284.004 163.126 283.119 164.989 281.71 166.58C280.479 167.967 280.344 170.071 281.71 171.437C282.963 172.69 285.334 172.83 286.568 171.437C288.756 168.972 290.344 166.115 291.132 162.901C291.536 161.249 290.743 159.492 289.142 158.847C287.691 158.263 285.572 158.675 284.853 160.253C284.269 161.532 283.669 162.801 283.045 164.061C282.752 164.653 282.453 165.243 282.149 165.832C281.998 166.125 281.845 166.419 281.689 166.712C281.613 166.857 281.536 167.005 281.457 167.151C281.126 167.687 281.414 167.547 282.321 166.728H284.147L283.827 166.643C284.102 168.736 284.374 170.83 284.649 172.923C286.282 172.159 287.181 169.947 286.549 168.258C285.656 165.874 282.781 164.823 280.807 166.741C280.925 166.625 281.134 166.532 281.29 166.495C281.565 166.432 282.569 166.924 281.898 166.456L280.164 172.859C282.588 173.094 285.159 172.809 286.967 170.996C288.775 169.183 289.581 166.197 290.225 163.81C290.876 161.4 291.246 158.879 291.343 156.384C291.441 153.889 291.772 149.933 289.089 148.76C287.604 148.109 286.161 148.176 284.927 149.296C284.67 149.529 284.417 149.759 284.16 149.991L290.025 152.42C289.937 149.83 289.311 147.478 288.169 145.155L284.29 150.203L282.506 147.988L282.974 146.254L283.217 145.945C281.919 147.087 281.845 149.679 283.217 150.802C283.719 151.215 284.218 151.624 284.721 152.037C286.156 153.213 288.177 153.44 289.578 152.037C290.979 150.633 290.741 148.633 289.578 147.179C288.291 145.567 286.396 144.23 284.271 144.164C281.948 144.092 279.649 145.636 279.155 147.975C278.772 149.788 279.689 151.688 281.554 152.201C283.262 152.671 285.394 151.624 285.78 149.801L285.786 149.803Z" fill="#E0A772"/>
<path d="M291.095 155.258C291.013 156.421 290.563 157.695 289.805 158.636C288.954 159.69 288.774 161.154 289.805 162.188C290.685 163.068 292.501 163.25 293.357 162.188C295.006 160.142 295.931 157.89 296.116 155.261C296.211 153.908 294.892 152.75 293.605 152.75C292.168 152.75 291.19 153.903 291.095 155.261V155.258Z" fill="#E0A772"/>
<path d="M277.876 173.409L277.096 176.882C276.903 177.743 276.834 179.104 276.348 179.757L277.249 178.856L277.337 178.798H278.671L278.412 178.742L279.52 179.387L279.329 179.213L276.287 183.156C277.966 184.049 279.781 184.577 281.689 184.617C283.357 184.651 285.616 184.371 286.938 183.259C288.526 181.916 287.937 179.572 287.826 177.749C287.704 175.719 287.58 173.687 287.459 171.657C287.284 168.739 283.539 168.361 282.527 170.988C281.702 173.126 280.873 175.275 280.365 177.516C279.932 179.435 279.023 182.854 281.414 183.88C282.659 184.414 284.105 184.25 284.85 182.979C285.468 181.921 285.202 180.082 283.949 179.543L283.735 179.45L284.636 180.352L284.528 180.103L284.871 181.369C284.776 179.913 285.297 178.333 285.714 176.956C286.19 175.386 286.779 173.853 287.369 172.323L282.437 171.654C282.535 173.261 282.63 174.868 282.728 176.477C282.773 177.238 282.82 178 282.865 178.761C282.886 179.099 282.905 179.437 282.926 179.776C282.942 180.029 282.958 180.283 282.971 180.537C282.982 180.849 282.99 180.875 282.992 180.616L284.147 179.115C282.662 180.079 280.265 179.585 278.819 178.816C276.393 177.524 273.592 180.761 275.777 182.759C277.693 184.511 280.397 183.616 281.219 181.226C281.93 179.16 282.236 176.871 282.715 174.738C283.423 171.591 278.581 170.248 277.873 173.404L277.876 173.409Z" fill="#E0A772"/>
<path d="M282.041 180.78C282.072 181.789 282.202 182.801 282.405 183.79C282.67 185.079 284.263 185.941 285.495 185.545C286.861 185.103 287.53 183.837 287.249 182.455C287.212 182.278 287.181 182.098 287.149 181.919C287.035 181.305 287.197 182.487 287.138 181.866C287.104 181.504 287.078 181.142 287.064 180.777C287.022 179.466 285.939 178.205 284.554 178.266C283.169 178.327 281.998 179.371 282.043 180.777L282.041 180.78Z" fill="#E0A772"/>
<path d="M295.45 185C301.756 187.622 306.756 187.014 310.321 195.159C311.328 197.556 311.981 200.355 312.485 201.473C312.858 202.279 314.327 202.229 314.187 201.174C313.955 199.998 313.617 198.846 313.181 197.73C310.3 188.859 306.494 186.181 295.823 183.835C295.22 183.689 294.747 184.709 295.45 185.003V185Z" fill="#002469"/>
<path d="M252.008 201.594C253.152 199.139 253.348 190.088 261.834 187.379C264.04 186.673 266.385 186.441 268.599 185.738C269.001 185.542 269.165 185.058 268.969 184.657C268.827 184.366 268.525 184.189 268.203 184.205C265.758 184.688 263.29 185.13 260.893 185.857C255.274 187.559 251.831 193.811 251.006 201.449C250.919 201.964 251.781 202.073 252.005 201.592L252.008 201.594Z" fill="#002469"/>
<path d="M290.442 192.926C293.095 190.68 294.229 182.796 293.864 181.853C293.5 180.909 290.461 178.338 289.937 179.094C289.414 179.85 284.401 183.774 282.284 183.795C280.167 183.816 275.64 180.888 274.228 179.094C273.745 178.488 270.595 182.577 270.529 182.87C270.235 184.067 272.453 189.646 275.109 193.008C276.055 194.216 281.634 185.68 282.802 185.68C283.97 185.68 289.356 193.843 290.439 192.929L290.442 192.926Z" fill="#002469"/>
<path d="M282.292 187.429C281.708 188.951 282.08 194.839 282.21 196.793C282.36 198.989 284.224 199.631 283.928 195.27C283.809 193.698 283.655 188.462 283.204 187.379C283.087 187.133 282.794 187.025 282.548 187.141C282.427 187.199 282.334 187.302 282.289 187.429H282.292Z" fill="#002469"/>
<path d="M285.775 153.91C284.768 154.143 285.151 156.72 285.775 156.659C286.399 156.598 286.703 153.691 285.775 153.91Z" fill="#191919"/>
<path d="M282.635 161.553C282.738 161.352 282.691 161.109 282.524 160.959C282.242 160.694 280.939 160.858 280.077 160.274C281.055 158.979 281.742 157.489 282.091 155.906C282.146 155.649 281.983 155.398 281.729 155.343C281.517 155.298 281.303 155.401 281.206 155.594C280.677 157.19 279.871 158.678 278.827 159.994C277.854 160.969 281.829 162.854 282.635 161.553Z" fill="#191919"/>
<path d="M284.99 163.123C282.495 165.14 280.751 163.224 280.579 164.693C280.117 168.419 287.083 170.111 286.993 162.975C286.964 160.718 285.675 162.568 284.99 163.123ZM281.668 165.134C283.27 165.301 284.863 164.756 286.029 163.646C286.158 167.169 281.668 167.74 281.668 165.134Z" fill="#191919"/>
<path d="M309.193 177.36C310.205 174.807 312.486 172.999 310.2 169.899C307.914 166.799 304.261 168.723 304.975 165.076C305.728 161.244 310.068 158.49 303.968 154.706C302.737 154.14 301.69 153.239 300.947 152.105C300.022 149.909 303.273 147.887 300.815 144.309C298.357 140.731 294.412 143.03 293.637 141.481C293.204 140.617 294.211 139.023 293.254 137.092C291.172 132.964 285.965 133.307 283.079 136.447C280.452 132.755 275.328 131.893 271.636 134.523C263.972 139.941 272.36 148.347 265.883 149.013C262.183 149.396 258.615 154.489 262.037 157.999C263.414 159.41 263.467 160.224 263.042 162.135C262.616 164.046 261.11 163.546 259.712 164.281C257.317 165.555 256.266 168.427 257.275 170.946C257.867 172.376 259.368 173.332 259.289 174.973C258.967 179.485 255.623 176.987 253.007 179.302C251.083 180.912 250.71 183.724 252.151 185.777C252.333 185.978 252.648 185.994 252.848 185.812C252.991 185.682 253.047 185.479 252.986 185.294C252.14 183.33 252.682 180.621 254.899 179.868C256.913 179.173 259.543 179.627 260.428 177.159C261.998 172.809 259.492 172.547 258.697 170.031C258.316 168.681 258.734 167.23 259.775 166.287C261.789 164.505 263.953 166.429 264.76 161.989C265.613 157.296 262.141 157.232 262.333 154.941C262.526 153.543 263.248 152.272 264.347 151.386C266.179 149.957 268.808 151.619 269.966 147.972C270.782 145.374 269.26 142.787 269.826 140.176C271.224 133.711 279.443 132.847 282.099 137.89C282.305 138.347 282.842 138.548 283.299 138.344C283.394 138.302 283.478 138.244 283.552 138.173C287.178 133.571 292.67 135.775 292.3 139.494C292.189 140.683 291.816 141.849 292.765 142.816C294.647 144.719 297.586 142.419 299.563 145.131C301.539 147.843 298.616 149.782 299.422 152.42C300.176 154.856 302.837 155.53 304.515 157.132C307.536 160.013 301.838 163.757 303.508 167.502C304.626 169.968 308.001 168.943 309.246 171.53C310.49 174.117 306.447 176.464 307.414 179.59C308.26 182.289 311.862 181.855 313.073 184.215C313.82 185.722 313.353 187.551 311.973 188.513C311.149 189.147 312.195 190.384 312.98 189.749C315.205 188.087 315.662 184.934 314 182.706C314 182.706 314 182.706 314 182.704C312.148 180.262 307.99 180.42 309.203 177.357L309.193 177.36Z" fill="#191919"/>
<path d="M277.912 149.521C276.837 149.764 275.888 150.398 275.254 151.302C274.921 151.846 275.254 152.74 275.896 151.976C276.564 151.476 277.347 151.157 278.171 151.04C279.22 150.85 278.655 149.449 277.91 149.518L277.912 149.521Z" fill="#191919"/>
<path d="M277.58 153.902C276.573 153.918 276.795 156.783 277.508 156.619C278.222 156.455 278.555 153.884 277.58 153.902Z" fill="#191919"/>
<path d="M285.156 149.563C284.723 150.858 286.465 150.57 287.371 151.394C288.278 152.219 288.547 151.566 288.378 150.998C288.172 150.176 285.685 147.959 285.156 149.563Z" fill="#191919"/>
<path d="M295.321 152.753C294.293 152.28 293.077 152.515 292.3 153.337C291.465 143.881 285.873 141.312 281.9 143.609C279.3 140.805 272.63 143.149 271.823 153.374C270.565 152.095 267.878 152.074 267.796 154.238C267.703 156.807 268.48 162.431 270.999 163.652C271.498 163.903 272.085 163.903 272.585 163.652C273.42 166.863 274.871 170.589 277.508 172.714C277.096 175.462 276.319 177.386 276.018 179.207C275.957 179.622 277.175 181.905 278.594 173.448C281.018 174.778 283.964 174.712 286.327 173.279C286.961 181.242 288.502 179.873 288.098 177.225C287.857 175.613 287.715 173.982 287.514 172.373C290.024 170.108 291.058 166.723 291.61 163.453C294.464 164.973 298.706 154.352 295.321 152.75V152.753ZM269.144 155.38C269.012 152.652 270.351 153.638 271.786 154.756C271.649 157.354 271.85 159.96 272.381 162.507C269.844 163.329 269.012 155.38 269.144 155.38ZM289.89 165.829C288.825 169.978 285.711 174.196 280.827 173.039C274.789 171.585 272.492 160.634 272.772 155.409C273.198 150.599 274.395 143.981 279.226 143.931C282.046 143.899 280.37 146.177 282.408 144.938C284.385 143.685 286.985 144.119 288.449 145.945C292.501 150.52 291.293 160.343 289.884 165.829H289.89ZM292.495 162.195C292.162 162.46 292.213 162.116 291.901 162.024C292.073 159.619 292.252 157.211 292.429 154.814C297.311 150.403 295.072 160.166 292.49 162.193H292.495V162.195Z" fill="#191919"/>
</svg>
