<svg width="228" height="150" viewBox="0 0 228 150" fill="none" xmlns="http://www.w3.org/2000/svg">
<path d="M136.277 123.345C115.732 121.261 103.127 125.626 96.7759 128.497C92.6157 130.376 92.8546 130.844 89.5265 132.263C70.4802 140.393 48.2211 131.246 43.5584 129.334C24.4792 121.499 2.4755 102.565 0.193577 80.3159C-3.61238 43.0949 49.5145 13.1097 88.1095 4.54488C128.031 -4.3071 187.831 1.90323 213.352 40.5845C224.803 57.9357 231.961 78.1172 225.643 102.983C221.911 117.66 208.986 137.431 189.305 137.407C169.452 137.382 168.133 126.578 136.277 123.353V123.345Z" fill="#F1F1F1"/>
<path d="M157.457 69.4538C156.823 73.9988 153.157 76.7881 157.473 80.324L156.625 78.2976L156.74 79.2493C156.987 81.2346 158.38 82.3421 160.39 82.014C164.426 81.3577 165.843 77.6987 165.415 73.9988L161.765 76.7635C162.729 76.9522 163.677 77.1901 164.624 77.4608C165.786 76.4599 165.687 76.099 164.336 76.3615C162.68 76.3369 161.576 77.6987 161.452 79.2328C161.329 80.767 161.634 84.5572 160.571 85.7877C159.146 87.4531 159.887 91.0054 162.606 90.6855C164.871 90.4229 167.268 90.6034 168.99 88.856C171.074 86.7476 170.028 84.4095 169.946 81.8253L165.604 84.3028C168.488 85.8288 169.13 90.8988 169.303 93.7455L172.186 90.8742C170.16 90.628 168.413 91.0957 166.733 92.2606L171.074 94.7382C170.959 92.679 170.539 91.1203 169.608 89.2826C167.944 85.9764 162.968 88.8806 164.632 92.1786L165.308 94.7382C165.415 96.7399 167.738 98.5448 169.649 97.2157C170.407 96.502 171.256 96.3051 172.186 96.6087C173.669 96.7891 175.16 95.1484 175.07 93.7373C174.757 88.7083 173.414 81.9319 168.512 79.3313C166.651 78.3468 164.097 79.5528 164.171 81.8089C164.187 82.4324 164.624 83.8927 164.451 84.4013C164.154 85.2709 164.229 84.7377 162.597 84.9263L164.632 89.8241C167.17 86.8625 166.889 82.9164 167.202 79.2082L164.319 82.0796C167.524 82.1288 171.256 80.9064 171.462 77.1163C171.692 72.8338 166.403 71.8822 163.289 71.1931C161.65 70.8321 159.418 71.997 159.64 73.9578C160.011 74.9422 159.747 75.7708 158.849 76.4353L162.499 79.2C162.202 76.7963 161.321 75.5165 158.964 74.6715L160.975 76.6732C160.67 75.6888 162.828 72.1693 163.001 70.9305C163.504 67.3126 157.951 65.7539 157.44 69.4046L157.457 69.4538Z" fill="#835C3C"/>
<path d="M157.885 80.7096C161.592 80.7096 161.601 74.9669 157.885 74.9669C154.17 74.9669 154.17 80.7096 157.885 80.7096Z" fill="#835C3C"/>
<path d="M180.721 17.4741C183.547 22.3308 184.774 27.6962 185.895 33.1353C186.636 36.7532 192.197 35.2191 191.455 31.6094C190.236 25.678 188.778 19.8533 185.705 14.57C183.843 11.3704 178.859 14.2582 180.729 17.4659L180.721 17.4741Z" fill="#835C3C"/>
<path d="M180.466 30.6824C182.245 31.9376 183.835 33.4717 185.26 35.1453C186.265 36.3266 188.3 36.179 189.338 35.1453C190.516 33.9721 190.351 32.2739 189.338 31.0844C187.592 29.0334 185.573 27.2778 183.374 25.7272C182.105 24.8248 180.169 25.5057 179.428 26.7609C178.579 28.2048 179.189 29.7882 180.466 30.6906V30.6824Z" fill="#835C3C"/>
<path d="M184.659 14.9555C186.776 20.0009 188.251 25.194 189.091 30.5921C189.659 34.2347 195.22 32.6841 194.651 29.0662C193.811 23.6599 192.337 18.475 190.219 13.4296C188.811 10.066 183.225 11.5427 184.659 14.9555V14.9555Z" fill="#835C3C"/>
<path d="M188.852 14.1352C188.827 19.5826 189.404 24.9643 190.532 30.2968C191.299 33.9065 196.859 32.3806 196.093 28.7709C195.063 23.9306 194.585 19.0821 194.618 14.1352C194.635 10.4352 188.868 10.4352 188.852 14.1352V14.1352Z" fill="#835C3C"/>
<path d="M160.966 62.6365C166.049 64.2445 170.811 66.4021 175.383 69.1258V64.1707C171.008 67.5178 173.892 72.0956 178.381 73.2934L176.66 69.0766C173.941 72.6781 175.894 76.9933 180.029 78.1665C183.604 79.1838 185.128 73.6379 181.561 72.6289L181.635 71.9807C182.772 70.4712 181.545 68.1988 179.914 67.764L179.049 67.8542L177.722 69.5688L178.291 69.134C179.955 67.8542 180.326 65.3848 178.291 64.1789C173.299 61.2091 168.034 58.871 162.499 57.1153C158.956 55.9914 157.44 61.5372 160.966 62.6529V62.6365Z" fill="#BABA4A"/>
<path d="M158.685 66.3939C161.024 67.2143 163.693 67.2225 166.132 67.6163C168.974 68.0757 171.791 68.6746 174.584 69.3555C178.184 70.2416 179.725 64.7039 176.116 63.8179C173.324 63.1288 170.506 62.5299 167.664 62.0787C165.217 61.6849 162.557 61.6767 160.217 60.8563C156.708 59.6257 155.2 65.1716 158.685 66.3939Z" fill="#BABA4A"/>
<path d="M160.06 68.1413C163.767 68.1413 163.775 62.3986 160.06 62.3986C156.345 62.3986 156.345 68.1413 160.06 68.1413Z" fill="#BABA4A"/>
<path d="M57.2088 106.929C59.326 106.929 59.3342 103.648 57.2088 103.648C55.0834 103.648 55.0834 106.929 57.2088 106.929Z" fill="#EEAF77"/>
<path d="M67.8768 105.494C67.8768 105.494 67.8768 105.567 67.8768 105.6L67.9345 105.165C67.9262 105.231 67.9097 105.288 67.885 105.346L68.0498 104.952C68.0251 105.01 67.9921 105.067 67.9509 105.124L68.2063 104.796C68.1651 104.845 68.1157 104.895 68.0663 104.936L68.3958 104.681C68.3464 104.722 68.2887 104.755 68.2228 104.78L68.6182 104.616C68.5605 104.64 68.5029 104.657 68.4452 104.665L68.8818 104.608C68.8818 104.608 68.8571 104.608 68.8489 104.608C68.6182 104.599 68.4123 104.649 68.2146 104.747C68.0086 104.813 67.8356 104.928 67.6873 105.083C67.5226 105.231 67.4155 105.412 67.3496 105.608C67.2425 105.805 67.2013 106.019 67.2095 106.24L67.2672 106.675C67.3496 106.954 67.4896 107.192 67.6873 107.397L68.0168 107.651C68.2722 107.799 68.5523 107.873 68.8489 107.873C69.0136 107.856 69.1866 107.832 69.3514 107.807C69.3761 107.807 69.4008 107.799 69.4255 107.791C69.6068 107.741 69.7798 107.659 69.9445 107.577C70.1093 107.495 70.2741 107.339 70.3894 107.249C70.4306 107.216 70.4635 107.192 70.4965 107.151C70.5047 107.143 70.513 107.134 70.5212 107.126C70.6118 107.011 70.7024 106.896 70.793 106.782C70.8095 106.765 70.826 106.741 70.8342 106.724C70.9331 106.568 71.0072 106.355 71.0649 106.207C71.0814 106.158 71.0978 106.117 71.1061 106.068C71.139 105.904 71.1555 105.74 71.172 105.567C71.172 105.543 71.172 105.518 71.172 105.494C71.1802 105.264 71.1308 105.059 71.0319 104.862C70.966 104.657 70.8507 104.484 70.6942 104.337C70.5459 104.173 70.3647 104.066 70.167 104C69.9692 103.894 69.7551 103.853 69.5326 103.861L69.096 103.918C68.8159 104 68.577 104.14 68.3711 104.337L68.1157 104.665C67.9674 104.919 67.8933 105.198 67.8933 105.494H67.8768Z" fill="#EEAF77"/>
<path d="M58.568 112.352C58.6504 112.606 58.6998 112.861 58.741 113.123L58.6833 112.688C58.7987 113.566 58.7163 114.452 58.7987 115.33C58.8481 115.83 58.9058 116.356 59.0705 116.831C59.2847 117.463 59.5731 117.939 59.9767 118.464C60.2156 118.776 60.7758 118.948 61.1383 118.948C61.5419 118.948 62.028 118.767 62.2998 118.464C62.5717 118.16 62.8023 117.742 62.7859 117.307C62.7612 116.84 62.5882 116.511 62.2998 116.15C62.6294 116.569 62.374 116.232 62.3163 116.126C62.2586 116.027 62.2092 115.921 62.168 115.814L62.3328 116.208C62.1927 115.855 62.1021 115.494 62.0527 115.117L62.1104 115.552C61.9374 114.19 62.1515 112.811 61.7314 111.482C61.476 110.662 60.5698 110.055 59.7049 110.334C58.8399 110.613 58.2797 111.474 58.5515 112.352H58.568Z" fill="#EEAF77"/>
<path d="M60.7015 112.738C60.8498 114.116 60.9075 115.494 60.8581 116.881C60.8333 117.742 61.6324 118.562 62.5057 118.521C63.4201 118.48 64.1203 117.799 64.1533 116.881C64.1944 115.494 64.145 114.116 63.9967 112.738C63.9473 112.286 63.8485 111.909 63.5107 111.581C63.2224 111.294 62.7528 111.08 62.3491 111.097C61.9455 111.113 61.4841 111.253 61.1876 111.581C60.9075 111.884 60.6603 112.319 60.7015 112.738Z" fill="#EEAF77"/>
<path d="M62.374 112.213C62.4647 113 62.5388 113.788 62.6047 114.583C62.6377 114.969 62.6624 115.355 62.6953 115.748C62.7283 116.142 62.7777 116.503 62.753 116.872L62.8107 116.438C62.8107 116.479 62.7942 116.528 62.7777 116.569L62.9425 116.175L62.9095 116.232L63.1649 115.904L63.1237 115.954L63.4532 115.699L63.3956 115.74L63.791 115.576C63.7416 115.601 63.7004 115.609 63.6509 115.617L64.0876 115.56C63.6097 115.593 63.1237 115.56 62.6541 115.56C62.1846 115.56 61.6656 115.56 61.1713 115.56C60.3063 115.56 59.4825 116.314 59.5237 117.201C59.5649 118.087 60.2486 118.841 61.1713 118.841C61.9292 118.841 62.6871 118.841 63.445 118.841C64.0134 118.841 64.5818 118.858 65.0926 118.554C65.7516 118.169 66.0811 117.422 66.0482 116.675C65.9905 115.191 65.8422 113.697 65.6775 112.221C65.6281 111.77 65.5292 111.392 65.1914 111.064C64.9031 110.777 64.4335 110.564 64.0299 110.58C63.6262 110.596 63.1649 110.736 62.8683 111.064C62.5882 111.368 62.3411 111.802 62.3823 112.221L62.374 112.213Z" fill="#EEAF77"/>
<path d="M115.303 50.0353C115.237 54.7526 116.275 57.4434 120.032 60.1835L118.705 58.4689C118.969 60.1507 118.755 62.136 118.796 63.8507C118.895 67.5424 124.662 67.5506 124.563 63.8507C124.505 61.7012 125.106 58.1982 123.978 56.2539C123.475 55.4007 122.536 55.212 121.918 54.5475C120.847 53.4071 121.053 51.4628 121.07 50.0353C121.119 46.3354 115.353 46.3354 115.303 50.0353Z" fill="#EEAF77"/>
<path d="M118.384 48.9606C118.409 49.9861 118.4 51.0198 118.367 52.0452C118.351 52.4882 118.326 52.9231 118.302 53.3661C118.285 53.645 117.98 55.417 118.277 54.1947L121.827 52.1929L121.72 52.1765L123.73 55.7124V55.6467C123.961 54.1126 123.36 52.5621 121.729 52.1109C120.377 51.7417 118.409 52.5703 118.178 54.1126V54.1782C117.972 55.5483 118.491 57.4844 120.18 57.7141L120.287 57.7305C121.794 57.9356 123.426 57.3942 123.837 55.7288C124.356 53.6122 124.192 51.1264 124.15 48.9688C124.076 45.277 118.31 45.2688 118.384 48.9688V48.9606Z" fill="#EEAF77"/>
<path d="M120.823 49.0838L120.847 49.2561L120.74 48.4931C120.782 48.8377 120.782 49.174 120.749 49.5268L120.856 48.7638C120.831 48.9607 120.798 49.1576 120.74 49.3545C120.683 49.5596 120.411 50.1667 120.765 49.3955C120.436 50.1175 120.254 50.8148 120.477 51.6106C120.658 52.2751 121.177 52.9971 121.803 53.3252C123.064 53.9897 125.082 53.7518 125.749 52.2915C126.054 51.627 126.318 51.0035 126.416 50.2816C126.556 49.3053 126.532 48.5341 126.375 47.5497C126.268 46.8852 125.609 46.1632 125.049 45.8351C124.431 45.4741 123.517 45.3182 122.825 45.5479C122.133 45.7776 121.457 46.2042 121.103 46.8688C120.716 47.5907 120.683 48.2798 120.815 49.0838H120.823Z" fill="#EEAF77"/>
<path d="M124.34 55.6551C128.047 55.6551 128.056 49.9124 124.34 49.9124C120.625 49.9124 120.625 55.6551 124.34 55.6551Z" fill="#EEAF77"/>
<path d="M125.741 55.9092C129.448 55.9092 129.456 50.1665 125.741 50.1665C122.025 50.1665 122.025 55.9092 125.741 55.9092Z" fill="#EEAF77"/>
<path d="M122.932 57.9439C126.639 57.9439 126.647 52.2012 122.932 52.2012C119.216 52.2012 119.216 57.9439 122.932 57.9439Z" fill="#EEAF77"/>
<path d="M124.34 52.472C128.047 52.472 128.056 46.7292 124.34 46.7292C120.625 46.7292 120.625 52.472 124.34 52.472Z" fill="#EEAF77"/>
<path d="M81.865 70.8732C79.7314 70.2743 77.4906 70.5696 75.563 71.6525C74.2531 72.3909 73.6929 74.286 74.525 75.5822C75.357 76.8784 77.0623 77.4035 78.471 76.6159C78.6192 76.5339 79.1959 76.3206 78.7428 76.46C78.8582 76.4272 79.6902 76.2631 79.3936 76.2877C79.0559 76.3124 79.8467 76.3123 79.9291 76.3041C80.1433 76.3206 80.1021 76.3123 79.8138 76.2795C79.9868 76.3123 80.1598 76.3534 80.3245 76.4108C81.7744 76.821 83.5291 75.9104 83.8751 74.4091C84.2211 72.9077 83.4138 71.3162 81.865 70.8732V70.8732Z" fill="#EEAF77"/>
<path d="M78.1992 73.8102C77.9356 73.8512 77.7131 73.9578 77.466 74.0645C77.2189 74.1711 76.9964 74.2614 76.7822 74.4173C76.1891 74.8521 75.6124 75.3361 75.3076 76.0252C75.0935 76.3534 74.9864 76.7143 74.9616 77.0917C74.8793 77.4773 74.8957 77.8547 75.0111 78.2403C75.1923 78.9048 75.7113 79.6267 76.3374 79.9549C77.0047 80.3076 77.8202 80.4799 78.5617 80.242C79.2289 80.0287 79.9868 79.5939 80.2834 78.9212C80.3411 78.7981 80.407 78.6833 80.4893 78.5766L80.0363 79.1591C80.1104 79.0689 80.1845 78.995 80.2752 78.9212L79.6903 79.3724C79.7974 79.2904 79.9127 79.2247 80.0363 79.1673L79.3443 79.4544C79.4678 79.4052 79.5914 79.3642 79.7314 79.3478C80.1104 79.2575 80.4317 79.0853 80.7118 78.8309C81.0248 78.6258 81.272 78.3633 81.4532 78.027C81.8157 77.4117 81.9722 76.501 81.7415 75.8119C81.5109 75.1228 81.0825 74.4501 80.4152 74.0973L79.7232 73.8102C79.2125 73.6707 78.7017 73.6707 78.1909 73.8102H78.1992Z" fill="#EEAF77"/>
<path d="M116.028 47.5824L118.351 48.0172C119.125 48.1648 119.875 48.132 120.575 47.73C121.177 47.3855 121.745 46.6964 121.901 46.0154C122.223 44.6044 121.473 42.7831 119.891 42.4796L117.568 42.0448C116.794 41.8971 116.044 41.9299 115.344 42.3319C114.743 42.6765 114.174 43.3656 114.018 44.0465C113.696 45.4576 114.446 47.2788 116.028 47.5824V47.5824Z" fill="#9C7054"/>
<path d="M115.048 44.9079L117.948 47.1147C118.499 47.5331 119.537 47.5741 120.172 47.4018C120.839 47.2214 121.564 46.7045 121.894 46.081C122.248 45.4165 122.421 44.6043 122.182 43.866C121.943 43.1276 121.49 42.6272 120.856 42.1514L117.956 39.9445C117.404 39.5261 116.366 39.4851 115.732 39.6574C115.064 39.8379 114.339 40.3547 114.01 40.9782C113.656 41.6427 113.483 42.4549 113.721 43.1933C113.96 43.9316 114.413 44.432 115.048 44.9079Z" fill="#9C7054"/>
<path d="M114.85 42.2581C115.97 44.9572 117.873 46.8769 120.658 47.8696C122.083 48.3782 123.879 47.2953 124.208 45.8679C124.579 44.2517 123.714 42.8816 122.198 42.332C121.539 42.0941 122.495 42.5289 122.157 42.3238C122.001 42.2253 121.819 42.1515 121.663 42.0531C121.597 42.012 121.078 41.6511 121.399 41.889C121.721 42.1269 121.185 41.6921 121.177 41.6757C121.07 41.569 120.971 41.4624 120.864 41.3557C120.386 40.8717 121.02 41.6429 120.823 41.3229C120.724 41.167 120.608 41.0112 120.518 40.8471C120.435 40.7076 120.155 40.0841 120.419 40.724C119.842 39.3376 118.483 38.1972 116.868 38.7223C115.534 39.1571 114.24 40.765 114.858 42.2581H114.85Z" fill="#9C7054"/>
<path d="M114.339 47.3034C118.046 47.3034 118.055 41.5607 114.339 41.5607C110.624 41.5607 110.624 47.3034 114.339 47.3034Z" fill="#9C7054"/>
<path d="M121.226 109.292L121.333 112.385C121.35 112.812 121.506 113.238 121.819 113.542C122.108 113.829 122.577 114.042 122.981 114.026C123.385 114.009 123.846 113.87 124.143 113.542C124.439 113.214 124.637 112.82 124.629 112.385L124.522 109.292C124.505 108.865 124.349 108.439 124.035 108.135C123.747 107.848 123.278 107.635 122.874 107.651C122.47 107.668 122.009 107.807 121.712 108.135C121.416 108.463 121.218 108.857 121.226 109.292Z" fill="#F2CBAD"/>
<path d="M121.819 110.957L121.712 112.778C121.704 113.008 121.753 113.213 121.852 113.41C121.918 113.615 122.034 113.788 122.19 113.935C122.338 114.099 122.52 114.206 122.717 114.272C122.915 114.378 123.129 114.419 123.352 114.411C123.78 114.395 124.217 114.255 124.513 113.927L124.769 113.599C124.917 113.345 124.991 113.066 124.991 112.77L125.098 110.949C125.106 110.719 125.057 110.514 124.958 110.317C124.892 110.112 124.777 109.94 124.62 109.792C124.472 109.628 124.291 109.522 124.093 109.456C123.895 109.349 123.681 109.308 123.459 109.316C123.03 109.333 122.594 109.472 122.297 109.8L122.042 110.129C121.894 110.383 121.819 110.662 121.819 110.957Z" fill="#F2CBAD"/>
<path d="M144.977 92.0228C144.68 93.0154 144.449 94.0245 144.285 95.05C144.194 95.6079 144.054 96.215 144.07 96.781C144.087 97.6588 144.655 98.3972 145.496 98.6679C145.611 98.7089 145.759 98.7664 145.883 98.7582C146.163 98.832 146.031 98.6351 145.471 98.1593C145.158 97.4784 145.001 97.3061 145.01 97.6506C144.985 97.7491 144.993 97.8721 144.993 97.9788C144.977 98.4874 144.993 98.9961 145.043 99.5047C145.158 100.629 145.52 101.785 146.599 102.343C147.209 102.663 148.115 102.655 148.593 102.089C148.643 102.032 148.692 101.974 148.741 101.917C149.302 101.26 149.433 100.227 148.741 99.595C148.124 99.0371 147.003 98.8976 146.41 99.595C146.361 99.6524 146.311 99.7098 146.262 99.7672L148.255 99.5129C148.066 99.4145 148.255 99.5375 148.329 99.595C148.173 99.4637 148.338 99.6114 148.395 99.6852C148.231 99.4719 148.445 99.7836 148.428 99.7836C148.412 99.7836 148.371 99.5868 148.362 99.5703C148.362 99.5539 148.305 99.357 148.313 99.3488C148.338 99.5786 148.346 99.636 148.338 99.5129C148.338 99.4637 148.329 99.4227 148.321 99.3735C148.305 99.1602 148.288 98.9386 148.28 98.7171C148.272 98.3152 148.313 97.905 148.297 97.503C148.264 96.7974 147.909 96.1247 147.267 95.7884C147.061 95.6817 146.838 95.6079 146.616 95.5586C146.567 95.5504 146.492 95.5176 146.443 95.5176L147.349 96.7154V96.6087C147.382 96.5103 147.382 96.3872 147.399 96.2806C147.415 96.1739 147.432 96.0509 147.399 96.2314C147.432 96.0181 147.464 95.7966 147.506 95.5833C147.662 94.6726 147.885 93.7702 148.148 92.8842C148.395 92.0638 147.852 91.0629 146.995 90.866C146.138 90.6691 145.232 91.1286 144.968 92.0146L144.977 92.0228Z" fill="#B06C4C"/>
<path d="M54.4902 23.5778C50.3959 23.3891 44.7693 22.0929 41.021 24.2013C36.7785 26.5886 36.7785 32.0934 36.8032 36.3758C36.8691 46.3517 38.0801 56.3687 39.5135 66.2215C40.0242 69.7328 44.4975 71.6607 47.6197 70.8075C51.4009 69.7738 52.7355 66.2543 52.2247 62.7349C51.4339 57.2793 50.8572 51.7909 50.47 46.2861C50.1735 42.0529 48.8389 35.7605 50.4288 31.7406L47.3973 35.6621L47.9492 35.4078L44.621 36.302C47.8833 36.2035 51.2279 36.5563 54.4902 36.704C62.9671 37.0895 62.9506 23.9633 54.4902 23.5778V23.5778Z" fill="white"/>
<path d="M37.4128 63.1041C37.2233 66.7056 37.3222 70.2497 37.7011 73.8348C38.08 77.4199 40.4279 80.5373 44.2915 80.3979C52.0846 80.1189 59.8778 80.0779 67.6792 80.2584C76.1643 80.4553 76.1643 67.3291 67.6792 67.1322C59.8778 66.9517 52.0846 66.9927 44.2915 67.2717L50.8819 73.8348C50.503 70.2415 50.4041 66.7056 50.5936 63.1041C51.0302 54.6623 37.8494 54.6869 37.4128 63.1041V63.1041Z" fill="white"/>
<path d="M50.4947 71.39C64.0709 71.3572 77.6472 71.3243 91.2234 71.2915C99.7003 71.2669 99.7168 58.1407 91.2234 58.1653C77.6472 58.1981 64.0709 58.231 50.4947 58.2638C42.0178 58.2884 42.0013 71.4146 50.4947 71.39Z" fill="white"/>
<path d="M86.4702 72.9817C90.581 76.6242 96.1828 77.7892 101.192 75.0819C103.457 73.8595 104.94 71.7757 106.332 69.7084C106.859 68.9208 107.321 68.1004 107.905 67.3538C108.268 66.878 108.663 66.4268 109.092 66.0084C107.625 66.2709 107.642 66.5335 109.125 66.796C117.124 69.6427 120.567 56.9677 112.626 54.1374C107.889 52.4474 103.383 53.1365 99.7663 56.7298C98.2917 58.1983 97.0148 59.9293 95.8615 61.6521C95.738 61.8326 94.2798 63.818 94.3869 63.9656C94.3128 63.8672 95.4167 63.375 95.7956 63.7113C89.4771 58.1081 80.1269 67.362 86.4784 72.9899L86.4702 72.9817Z" fill="white"/>
<path d="M114.043 51.3971L114.899 53.727C116.234 50.2814 113.4 46.6963 110.294 45.6544C100.417 42.3236 89.9464 42.5944 79.6572 42.9635C74.286 43.1604 68.9148 43.4065 63.5766 44.0711C58.7985 44.6617 53.3285 45.0637 49.5555 48.4027C46.0873 51.471 44.5221 57.4762 48.155 61.1023C51.788 64.7284 58.4196 63.506 63.0658 63.4568C74.5578 63.3338 86.0334 62.8825 97.5007 62.136C105.014 61.652 106.324 51.7581 99.2554 49.2477C92.1871 46.7373 84.6082 44.5797 77.1199 42.8077C73.6269 41.9791 70.1093 41.2161 66.5999 40.4778C63.4201 39.8132 58.4196 39.7558 55.7422 37.9428L58.1065 40.2973L58.3372 41.0766L57.4393 44.391L57.95 43.6855L54.0123 46.7045C56.9944 45.4903 62.3574 46.442 65.6608 46.4256C69.442 46.4092 73.2315 46.3928 77.0128 46.3763C85.119 46.3435 93.2334 46.3107 101.34 46.2697C109.446 46.2287 109.833 33.1107 101.34 33.1435C91.0668 33.1845 80.794 33.2337 70.5212 33.2748C65.1336 33.2994 59.68 33.0532 54.3006 33.3404C49.5308 33.5947 45.2306 36.3266 45.0987 41.5114C44.8351 52.1355 59.3999 52.316 66.8553 53.9403C76.6338 56.0651 86.3135 58.5591 95.746 61.9145L97.5007 49.0262C90.037 49.5102 82.5652 49.8794 75.0851 50.1009C67.605 50.3224 60.5203 50.9623 53.4438 50.2978L56.772 51.192L56.1377 50.7982L59.1692 54.7197L58.9963 53.7762V57.2629C58.7573 58.0997 58.1148 57.9356 58.9633 58.0505C59.8118 58.1653 61.3935 57.55 62.2915 57.4023C64.2356 57.0906 66.188 56.8773 68.1487 56.7132C72.729 56.3194 77.3258 56.1636 81.9144 56.0077C90.3583 55.7206 98.6869 55.5811 106.777 58.3048L102.172 50.2322C100.73 53.9567 101.999 57.911 104.701 60.6757C110.64 66.7302 119.957 57.4434 114.018 51.3971H114.043Z" fill="white"/>
<path d="M57.1016 36.6958C76.3539 36.9583 95.5978 37.2947 114.842 37.7049L110.179 26.4984C106.414 29.5174 103.374 33.3158 101.191 37.6065C97.3772 45.1294 108.746 51.7828 112.576 44.2352C114.315 40.8142 116.506 38.1807 119.504 35.777C124.192 32.0196 120.081 24.6853 114.842 24.5705C95.5978 24.1603 76.3456 23.8239 57.1016 23.5614C48.6165 23.4466 48.6165 36.5728 57.1016 36.6876V36.6958Z" fill="white"/>
<path d="M84.6083 86.8215C90.5891 89.5288 96.3557 90.5789 101.776 86.0831C98.3246 85.6401 94.8729 85.1971 91.4294 84.7541L91.6436 85.1479L90.7456 81.8335L90.7703 82.2765C91.0175 86.8379 94.7658 89.3483 99.1154 88.6017C101.06 88.2654 102.765 87.1906 104.157 85.8206C110.204 79.881 100.887 70.5942 94.8399 76.542C96.4546 75.8939 96.7099 75.697 95.6143 75.9431L103.959 82.2683C103.877 80.7014 103.564 79.5036 102.823 78.1172C100.672 74.0973 95.5731 74.2121 92.4756 76.7881C93.8596 76.14 94.0079 75.9842 92.9369 76.3287C93.1264 76.1975 93.3241 76.1728 93.5301 76.2467C92.6321 76.0826 92.0143 75.8037 91.2811 75.4755C88.0436 74.007 84.1882 74.5485 82.2605 77.83C80.6046 80.644 81.3708 85.3366 84.6248 86.8133L84.6083 86.8215Z" fill="white"/>
<path d="M106.299 62.6777C103.597 66.0084 101.092 69.4623 98.934 73.1704C97.204 76.1402 98.1431 80.4883 101.298 82.1537C104.453 83.819 108.465 82.974 110.319 79.7991C111.2 78.2896 112.123 76.8047 113.112 75.3608C113.606 74.6389 114.125 73.9334 114.636 73.2278C115.105 72.6043 115.163 72.5305 114.8 72.9899C115.072 72.6454 115.344 72.309 115.624 71.9644C117.791 69.2982 118.433 65.2537 115.624 62.6859C113.219 60.4872 108.622 59.8309 106.307 62.6859L106.299 62.6777Z" fill="white"/>
<path d="M126.647 75.2212C127.825 75.9596 130.115 76.8538 130.955 77.9367C130.066 76.8046 131.334 80.2502 131.425 80.6276C132.174 83.9584 131.623 86.5836 129.53 89.3401L133.468 86.3211L132.636 86.5262L139.045 88.2162C136.961 85.796 136.055 83.1133 133.007 81.4972C130.14 79.9795 126.861 79.5857 123.763 80.6112L131.87 88.6838C133.674 84.1306 134.325 79.2411 133.781 74.3762C133.385 70.8568 131.038 67.8131 127.19 67.8131C123.936 67.8131 120.205 70.8321 120.6 74.3762C121.037 78.2731 120.6 81.5464 119.158 85.1889C117.33 89.8241 122.8 94.7464 127.265 93.2615C126.54 93.4995 126.227 91.227 127.421 94.2214C127.915 95.4684 128.855 96.4857 129.72 97.4947C131.244 99.2668 133.97 99.7098 136.129 99.1847C143.683 97.3389 145.677 86.3047 144.655 79.8236C144.128 76.5092 143.296 72.8421 141.393 70.0364C139.49 67.2306 136.088 65.6473 133.295 63.8835C126.103 59.3549 119.488 70.7091 126.639 75.2212H126.647Z" fill="white"/>
<path d="M133.921 81.4971C133.674 79.7087 133.83 81.333 133.83 81.6776C133.83 81.9155 133.83 82.1616 133.806 82.3995C133.764 82.9082 133.806 82.7195 133.913 81.8499C133.987 82.2355 133.699 82.9082 133.6 83.2609C133.493 83.6465 132.916 85.0166 133.591 83.4989C132.85 85.1724 132.422 86.723 132.924 88.5524C133.344 90.0784 134.531 91.7273 135.956 92.4739C138.814 93.9834 143.485 93.4748 144.976 90.1194C145.751 88.3802 146.426 86.7312 146.698 84.8525C147.052 82.4242 146.978 80.4306 146.64 77.9941C146.434 76.4845 144.861 74.8027 143.609 74.0726C142.2 73.2522 140.116 72.8994 138.534 73.4081C136.953 73.9167 135.404 74.9094 134.596 76.4271C133.707 78.1007 133.674 79.6266 133.929 81.4807L133.921 81.4971Z" fill="white"/>
<path d="M72.622 80.5291C76.3291 80.5291 76.3373 74.7864 72.622 74.7864C68.9066 74.7864 68.9066 80.5291 72.622 80.5291Z" fill="white"/>
<path d="M67.1767 118.849C57.5629 118.029 48.6412 122.41 42.9899 130.089C41.9355 131.524 42.9982 133.977 44.7117 134.306C51.1373 135.536 57.6371 136.201 64.1781 136.496C67.844 136.66 71.5099 136.726 75.184 136.75C77.4248 136.767 79.7973 136.923 81.8074 135.758C92.9699 129.293 72.1689 119.99 67.3826 118.94L66.6165 124.576C70.6119 124.92 76.0572 125.322 77.7296 129.72C79.0312 133.141 84.6083 131.656 83.2902 128.194C80.5552 120.991 73.627 119.448 66.6165 118.833C63.379 118.554 62.6952 123.78 65.8504 124.469C69.7634 125.331 73.1987 127.144 76.5351 129.318C78.3804 130.515 79.4925 130.876 76.7575 131.016C74.9369 131.114 73.0751 130.983 71.2545 130.95C62.8682 130.803 54.5066 130.343 46.2522 128.76L47.9739 132.977C52.4554 126.881 59.7131 123.944 67.1767 124.576C70.8755 124.888 70.8508 119.145 67.1767 118.833V118.849Z" fill="white"/>
<path d="M76.6421 126.52C71.5099 125.027 66.1964 124.248 60.8417 124.428C56.7144 124.568 51.3927 124.732 48.081 127.414C46.5982 128.612 47.2078 131.057 48.6659 131.926C51.475 133.608 55.3304 133.165 58.5021 133.354C62.8188 133.608 67.1355 133.854 71.444 134.109C75.1511 134.322 75.1346 128.579 71.444 128.366C68.2064 128.177 64.9689 127.989 61.7396 127.8C59.2188 127.652 53.7734 128.284 51.5739 126.971L52.1588 131.483C53.2133 130.63 56.5826 130.524 57.8018 130.392C59.573 130.204 61.3524 130.138 63.1236 130.163C67.2261 130.22 71.1803 130.926 75.1099 132.066C78.6769 133.108 80.201 127.562 76.6421 126.528V126.52Z" fill="white"/>
<path d="M96.3145 117.201C91.4129 121.647 87.1621 126.701 83.5785 132.255C81.5684 135.372 86.5524 138.26 88.5543 135.151C91.8824 129.99 95.8367 125.388 100.384 121.261C103.136 118.767 99.0495 114.715 96.3062 117.201H96.3145Z" fill="white"/>
<path d="M96.7018 122.033C94.667 124.289 92.5087 126.397 90.1938 128.374C87.7471 130.474 91.0588 134.847 93.6867 132.886C94.9718 131.926 96.2652 130.991 97.5915 130.081C98.6872 129.334 100.063 128.054 101.397 127.874L99.1732 127.587C100.5 128.218 101.348 129.605 102.724 130.261C104.223 130.967 105.681 130.983 107.263 130.573C110.846 129.638 109.331 124.092 105.731 125.035C104.66 125.314 103.3 123.263 102.386 122.779C101.216 122.156 100.046 122.147 98.8107 122.59C95.9686 123.591 93.1595 126.151 90.7704 127.939L94.2634 132.452C96.57 130.474 98.7366 128.366 100.771 126.11C103.243 123.37 99.1814 119.293 96.6936 122.049L96.7018 122.033Z" fill="white"/>
<path d="M118.755 119.645C122.643 119.662 129.596 121.286 130.889 125.478L135.124 122.238C128.863 118.497 114.488 112.139 112.889 124.067C112.403 127.718 118.17 127.685 118.656 124.067C118.994 121.524 124.167 123.156 125.65 123.723C127.965 124.592 130.099 125.938 132.216 127.201C134.333 128.464 137.192 126.364 136.45 123.96C134.292 116.954 125.518 113.943 118.755 113.911C115.048 113.894 115.04 119.637 118.755 119.653V119.645Z" fill="white"/>
<path d="M190.302 46.0236C189.297 45.3509 189.906 46.5405 189.972 47.5824C190.112 49.8384 190.055 52.1273 190.096 54.3916C190.178 59.158 190.302 63.9409 190.013 68.6992C189.552 76.378 187.69 84.2701 182.228 89.9882C176.017 96.4939 185.903 106.371 192.131 99.8493C200.64 90.9399 203.598 79.1181 204.1 67.1076C204.364 60.7988 204.224 54.3998 203.993 48.091C203.779 42.3073 202.403 37.3439 197.37 33.9722C189.873 28.9432 182.855 41.0193 190.302 46.0154V46.0236Z" fill="white"/>
<path d="M190.549 40.3548C197.057 64.9582 200.953 90.825 195.862 116.068C194.091 124.83 207.593 128.579 209.365 119.776C214.966 91.9981 211.226 63.785 204.051 36.6466C201.761 27.9751 188.242 31.6504 190.549 40.3548V40.3548Z" fill="white"/>
<path d="M198.392 58.8791C200.707 74.9587 200.797 91.3336 199.084 107.479C198.688 111.228 202.585 114.452 206.086 114.452C210.205 114.452 212.693 111.244 213.088 107.479C214.942 89.9964 214.398 72.5631 211.894 55.1709C211.358 51.4382 206.597 49.3954 203.277 50.2978C199.248 51.3971 197.848 55.1299 198.383 58.8791H198.392Z" fill="white"/>
<path d="M192.089 91.0465C190.64 98.069 189.593 105.19 189.033 112.336C188.58 118.16 187.97 125.798 194.363 128.751C197.057 129.998 200.69 130.113 202.848 127.66L203.796 126.586C200.97 126.947 198.136 127.316 195.31 127.677C196.035 128.013 196.736 128.391 197.403 128.825C196.711 127.849 196.694 126.75 197.362 125.544L200.451 123.747C197.617 124.756 192.312 123.673 189.099 123.476C184.346 123.181 179.601 122.771 174.872 122.238C166.23 121.27 157.655 119.801 149.062 118.48L153.247 128.727C160.101 117.66 172.203 110.481 185.26 109.891C192.79 109.554 195.203 97.8803 187.122 96.1903C180.26 94.7628 172.516 94.3444 167.581 100.309C165.176 103.213 164.723 107.323 167.581 110.17C170.061 112.639 175.07 113.09 177.483 110.17C178.884 108.472 180.902 109.12 183.398 109.645C184.016 105.075 184.642 100.514 185.26 95.9442C167.178 96.7564 150.669 106.33 141.154 121.688C138.995 125.175 140.849 131.237 145.339 131.935C160.414 134.256 175.44 136.652 190.689 137.521C197.148 137.891 205.905 139.515 209.628 132.624C213.352 125.732 208.623 118.792 202.387 115.642C199.751 114.313 196.011 114.337 193.902 116.733L192.954 117.808C195.78 117.447 198.614 117.077 201.44 116.716L202.725 118.841V117.832C203.029 116.987 202.824 115.592 202.881 114.69C203.029 112.336 203.227 109.989 203.491 107.643C203.969 103.311 204.726 99.0207 205.608 94.7546C207.42 85.9929 193.926 82.2519 192.106 91.0465H192.089Z" fill="white"/>
<path d="M181.817 102.975C181.669 106.823 182.171 111.384 181.29 115.125L184.511 110.957C185.079 110.563 182.435 111.212 181.916 111.277C180.425 111.466 178.934 111.655 177.434 111.835C174.724 112.163 171.956 112.688 169.229 112.746L172.763 113.697L172.145 113.394L175.366 117.561L175.169 117.012V120.72C175.078 121.302 173.76 121.86 174.048 122.213C174.197 122.402 176.742 121.606 177.063 121.548C178.991 121.188 180.902 121.007 182.855 120.884L177.904 108.98C173.48 112.532 167.862 114.715 162.219 115.207L165.753 128.202C172.22 123.714 183.316 125.273 190.574 126.668C191.192 122.098 191.818 117.537 192.436 112.967C180.812 114.091 168.809 116.2 157.128 115.863C148.115 115.609 148.123 129.555 157.128 129.81C168.809 130.146 180.82 128.038 192.436 126.914C195.896 126.577 198.878 124.518 199.314 120.868C199.693 117.668 197.766 113.886 194.297 113.213C183.431 111.121 168.348 109.448 158.685 116.15C153.544 119.719 154.673 129.802 162.219 129.145C171.89 128.3 180.26 124.887 187.806 118.833C192.501 115.067 188.638 106.568 182.855 106.929C177.072 107.29 169.155 107.61 164.616 111.827C159.171 116.889 161.329 126.717 169.608 126.676C172.928 126.659 176.388 125.905 179.683 125.495C182.978 125.084 186.949 125.158 190.014 123.854C197.436 120.695 195.583 109.505 195.83 102.967C196.167 93.9917 182.163 94.0081 181.825 102.967L181.817 102.975Z" fill="white"/>
<path d="M118.871 54.5558C119.579 54.6214 120.386 54.6624 120.353 55.1711C120.337 55.5238 120.106 55.6059 118.755 55.7946C118.574 55.811 118.385 55.811 118.203 55.811C117.874 55.8028 117.602 55.5402 117.585 55.2121C117.495 54.3097 117.553 53.399 117.758 52.5212C117.791 52.4146 118.154 51.4875 118.607 51.6106C119.2 51.7501 118.871 53.4154 118.871 54.5558V54.5558Z" fill="#191919"/>
<path d="M160.439 71.349C160.909 71.349 161.304 72.0217 161.304 72.8503C161.304 73.6789 160.917 74.3598 160.439 74.3598C159.962 74.3598 159.566 73.6789 159.566 72.8503C159.566 72.0217 159.953 71.349 160.439 71.349Z" fill="#191919"/>
<path d="M174.914 88.8643C175.359 90.4886 175.597 92.1622 175.639 93.844C175.672 94.0737 175.515 94.2952 175.284 94.3444C175.054 94.3773 174.84 94.2214 174.79 93.9917C174.222 92.2689 173.81 90.4968 173.538 88.7002C173.48 88.4294 173.604 88.1423 173.851 88.0028C174.016 87.9372 174.172 87.8388 174.321 87.7731C174.584 87.6501 174.848 87.5927 175.12 87.4942C175.317 87.3711 175.564 87.4368 175.688 87.6255C175.803 87.8142 175.754 88.0521 175.573 88.1833C175.383 88.4048 175.186 88.6099 174.98 88.8068C174.955 88.8314 174.93 88.8478 174.905 88.8725L174.914 88.8643Z" fill="#191919"/>
<path d="M167.648 88.6592C167.45 88.3146 167.129 88.4377 166.42 88.6428C166.19 88.7084 164.814 89.2252 164.114 89.3975C162.425 89.8159 160.679 89.6354 159.863 88.1013C162.359 86.6656 162.911 83.6384 162.03 80.8819C161.922 80.5456 161.576 80.3487 161.23 80.4389C159.904 80.7753 158.874 81.1034 157.647 81.3741C157.581 80.8081 157.54 80.2338 157.532 79.6595C157.532 79.3232 157.268 79.0525 156.938 79.0196L155.695 78.9048C155.868 76.821 156.37 74.7782 157.186 72.8503C157.836 71.5951 158.224 71.7674 158.224 71.308C158.166 70.4138 158.042 70.4712 158.042 69.6426C158.059 69.4129 157.886 69.2242 157.655 69.2078C156.971 69.1668 157.243 70.3892 157.243 71.0783C155.274 72.678 154.492 76.9194 154.327 79.479C154.302 79.84 154.566 80.1518 154.928 80.1846L156.214 80.2912C156.238 80.9639 156.312 81.6285 156.419 82.293C156.477 82.6539 156.823 82.8919 157.177 82.8344C157.177 82.8344 157.186 82.8344 157.194 82.8344C158.537 82.6047 159.608 82.252 160.917 81.9156C161.42 84.0978 160.843 86.3047 158.759 87.2317C158.446 87.3712 158.298 87.7239 158.413 88.0439C159.278 90.423 161.453 91.186 163.9 90.6363C164.575 92.5314 165.119 94.4675 165.547 96.4365C165.588 96.6662 165.811 96.822 166.041 96.781C166.272 96.74 166.429 96.5185 166.387 96.2888C166.387 96.2806 166.387 96.2724 166.387 96.256C166.074 94.3035 165.621 92.3755 165.045 90.4886C165.663 90.3574 166.256 90.1359 166.799 89.8323C167.038 89.6683 167.887 89.0776 167.648 88.6756V88.6592Z" fill="#191919"/>
<path d="M181.323 93.6718C183.769 88.569 185.458 83.1462 186.331 77.5594C186.348 77.3215 186.554 77.141 186.784 77.1574C187.023 77.1738 187.205 77.3789 187.188 77.6086C187.188 77.625 187.188 77.6414 187.188 77.6578C186.414 83.4662 184.758 89.1187 182.278 94.4266L181.85 94.7629C161.51 98.5695 147.44 108.102 137.892 126.2C134.761 132.082 131.738 139.408 130.89 145.996C130.848 146.218 130.642 146.374 130.412 146.332C130.206 146.3 130.058 146.111 130.066 145.906C130.725 138.744 133.377 131.91 136.722 125.601C146.583 106.888 161.065 97.3307 181.323 93.68V93.6718Z" fill="#191919"/>
<path d="M180.54 16.3009C180.969 18.4914 181.529 20.649 182.204 22.782C182.501 23.7008 184.132 28.4099 184.997 27.9997C185.541 27.7372 185.104 27.5403 183.868 23.6598C182.443 19.2297 182.32 17.5972 181.52 15.538C181.224 14.7094 181.084 14.2664 180.656 14.3484C180.186 14.4797 180.342 15.095 180.532 16.3092L180.54 16.3009Z" fill="#191919"/>
<path d="M185.384 19.7384C186.018 21.5186 186.2 21.9124 186.628 21.7975C187.131 21.6499 186.908 21.0756 186.669 19.7794C185.574 14.7422 185.434 13.2737 184.783 13.3558C183.638 13.487 185.038 18.7211 185.384 19.7384Z" fill="#191919"/>
<path d="M188.597 14.291C188.778 16.0548 189.099 17.794 189.552 19.5086C189.758 20.1321 189.832 20.5997 190.294 20.5259C190.73 20.4357 190.656 20.0337 190.549 18.8359C190.475 17.6627 189.948 14.5289 189.865 14.1351C189.445 12.24 188.432 12.24 188.589 14.291H188.597Z" fill="#191919"/>
<path d="M199.644 31.2403L199.191 30.9941C198.351 30.9039 197.502 30.8957 196.654 30.9531C194.759 23.865 194.957 18.9098 193.894 13.0277C193.878 12.8061 193.68 12.6421 193.458 12.6585C193.458 12.6585 193.458 12.6585 193.449 12.6585C193.227 12.6831 193.062 12.8718 193.079 13.0933C193.037 14.2254 193.054 15.3576 193.128 16.4897C193.334 20.1568 193.82 23.7993 194.586 27.3844C194.899 28.6232 195.278 29.8456 195.723 31.0434C192.378 31.5356 189.33 33.2174 187.131 35.7688C186.109 34.3413 184.898 33.0615 183.514 31.9786C180.853 29.7964 179.791 29.4518 178.44 29.0416C178.234 28.9514 177.987 29.0416 177.888 29.2467C177.797 29.4518 177.888 29.6897 178.085 29.7882C181.702 32.3232 182.015 32.1345 186.513 36.4989C185.945 37.2209 185.426 37.9674 184.956 38.755C184.841 38.9519 184.841 39.198 184.956 39.3867C188.045 44.752 189.652 50.8393 189.61 57.025C189.61 57.2465 189.792 57.4352 190.014 57.4352C190.245 57.4352 190.426 57.2465 190.426 57.025C190.681 50.7819 189.231 44.5798 186.233 39.0914C189.034 34.571 193.433 31.8309 198.779 32.2739C211.507 48.8622 216.145 71.6361 214.316 92.7857C213.731 99.9231 212.792 109.522 207.899 114.731C207.783 114.846 207.742 115.01 207.775 115.166C208.146 116.675 208.443 117.324 208.805 119.137C208.854 119.366 209.085 119.514 209.316 119.465C209.538 119.416 209.678 119.21 209.653 118.989C209.077 116.232 209.423 117.898 208.739 115.182C213.797 109.784 214.852 100.259 215.535 92.8842C217.471 71.4557 212.916 48.3125 199.653 31.2321L199.644 31.2403Z" fill="#191919"/>
<path d="M121.943 48.0993C120.856 48.0665 119.859 48.6982 119.423 49.6908C118.442 47.0656 114.068 47.6399 114.002 50.7081C114.002 52.2504 115.262 53.4974 116.811 53.4974C117.948 53.4974 118.961 52.8165 119.398 51.7746C119.818 52.8493 120.872 53.5467 122.026 53.5303C123.583 53.5056 124.835 52.2258 124.81 50.6753C124.81 50.6753 124.81 50.6753 124.81 50.6671C124.835 49.2642 123.715 48.1157 122.306 48.0911C122.182 48.0911 122.067 48.0911 121.943 48.1075V48.0993ZM117.866 51.709C117.289 52.2997 116.342 52.3161 115.748 51.7418C115.131 51.1511 115.081 50.1831 115.633 49.5268C117.108 47.8039 119.2 50.3307 117.866 51.709V51.709ZM123.056 51.7336C122.495 52.3243 121.548 52.3571 120.955 51.791C120.955 51.791 120.947 51.7828 120.938 51.7746C119.521 50.4456 121.457 47.7465 123.056 49.576C123.632 50.1831 123.632 51.1265 123.056 51.7254V51.7336Z" fill="#6F93FC"/>
<path d="M118.368 60.1753C115.065 58.7889 115.172 53.8419 116.045 53.8419C116.44 53.8255 116.44 54.0716 116.828 55.7452C117.157 57.304 117.693 58.6494 119.25 59.1006C119.554 59.1908 119.752 59.4944 119.719 59.8143C119.612 60.5281 119.472 62.8744 119.447 63.662C119.464 63.8917 119.291 64.0968 119.052 64.1132C118.813 64.1296 118.607 63.9491 118.599 63.7112C118.385 62.5462 118.31 61.3567 118.376 60.1753H118.368Z" fill="#191919"/>
<path d="M125.494 56.1225C129.374 55.9092 129.646 52.0698 127.075 51.2905C128.204 49.6579 127.792 47.4346 126.153 46.3107C126.079 46.2615 126.005 46.2123 125.93 46.1712C125.733 44.8586 124.654 44.1531 123.657 43.4147C120.09 40.7485 120.609 39.1159 118.582 38.2381C117.717 37.8279 116.679 38.1889 116.259 39.0503C116.127 39.321 116.07 39.6163 116.094 39.9199C116.053 40.6582 116.317 40.3383 115.509 40.248C114.389 40.1168 113.573 41.1423 114.315 42.8405C112.692 42.7338 111.819 44.1695 113.013 45.6134C113.903 46.524 115.04 47.1475 116.275 47.4182C116.49 47.4921 116.72 47.3772 116.803 47.1721C116.877 46.967 116.77 46.7373 116.564 46.6635C116.564 46.6635 116.564 46.6635 116.556 46.6635C115.567 46.2287 113.952 45.4821 113.705 44.4156C113.681 44.2023 113.771 44.1695 113.969 44.1367C114.405 44.0711 114.76 44.3172 116.004 44.8504C116.341 44.9899 116.72 44.8258 116.86 44.4894C116.967 44.2269 116.893 43.9316 116.687 43.7511C115.979 43.2343 115.501 42.4549 115.369 41.5853C116.448 41.7494 117.173 43.4476 117.981 42.6764C118.211 42.4549 118.244 42.0939 118.063 41.8314C117.215 40.6336 117.19 39.0667 118.08 39.4851C119.225 39.9363 119.497 41.495 121.408 43.2261C122.759 44.473 123.813 44.9078 124.439 45.6298C125.065 46.3517 124.654 46.8029 125.164 47.0409C126.507 47.6151 127.133 49.1657 126.556 50.5029C126.449 50.7572 126.301 50.9869 126.12 51.192C125.914 51.192 125.708 51.2084 125.502 51.233C125.271 51.233 125.082 51.4053 125.082 51.635C125.082 51.8647 125.255 52.0534 125.486 52.0534C125.832 52.0944 126.169 52.1683 126.499 52.2749C127.949 52.8574 127.669 54.3505 126.227 54.6951C125.832 54.7935 125.42 54.8345 125.016 54.8263C124.711 54.8263 124.448 55.0314 124.382 55.3268C124.102 56.2292 123.723 57.0906 123.245 57.9028C122.915 58.4689 123.278 62.0457 123.253 63.2353C123.253 63.4732 123.443 63.6701 123.673 63.6701C123.904 63.6701 124.093 63.4978 124.11 63.2681C124.316 60.93 124.299 60.2901 124.382 58.838C124.398 58.6411 124.349 58.5591 124.431 58.4196C124.859 57.6895 125.222 56.9265 125.51 56.1308L125.494 56.1225Z" fill="#191919"/>
<path d="M125.477 64.3593C125.197 64.1624 124.81 64.2198 124.588 64.4824C124.217 64.9664 123.797 65.4094 123.344 65.8196C121.647 67.2881 118.22 67.0174 118.047 64.6711C118.014 64.3019 117.684 64.0312 117.314 64.064C117.116 64.0804 116.943 64.187 116.828 64.3429C113.359 69.5113 111.563 75.6068 111.671 81.8172C111.671 82.0469 111.802 82.2602 112 82.375C116.424 84.9921 116.333 90.4804 117.19 95.6653C117.239 95.9688 117.528 96.1657 117.824 96.1165C118.022 96.0837 118.187 95.9442 118.261 95.7555C118.805 94.2542 119.719 92.917 120.93 91.8669C121.136 91.9736 121.391 91.8997 121.498 91.6946C121.531 91.629 121.548 91.5634 121.548 91.4895V91.3747C121.688 91.2188 121.688 90.9973 121.564 90.8332C121.556 85.0085 122.05 79.1919 123.055 73.4492C123.599 70.6927 124.159 67.608 125.659 65.2289C125.84 64.9336 125.758 64.548 125.477 64.3429V64.3593Z" fill="#6F93FC"/>
<path d="M125.972 63.2682C122.034 71.267 120.724 82.1782 121.375 90.9153C121.383 91.1532 121.589 91.3337 121.82 91.3255C122.059 91.3091 122.24 91.1122 122.232 90.8825C122.215 89.2909 122.298 86.518 122.504 83.9256C122.85 78.3798 123.855 72.8914 125.494 67.5753C126.137 65.4177 126.458 64.3676 126.722 63.5882C126.796 63.3749 126.68 63.1452 126.466 63.0713C126.269 63.0057 126.054 63.096 125.964 63.2846L125.972 63.2682Z" fill="#191919"/>
<path d="M128.962 70.5449C128.641 68.5677 128.443 66.566 128.361 64.5642C128.328 64.3427 128.484 64.1376 128.707 64.1048C128.929 64.072 129.135 64.2279 129.168 64.4494C129.687 66.5988 130.082 68.781 130.354 70.9797C130.395 71.3324 130.156 71.6524 129.81 71.718L128.221 72.0462C128.962 72.7517 129.646 73.5147 130.28 74.3187C130.469 74.5648 130.47 74.9011 130.272 75.139C128.039 77.7725 126.128 80.652 124.563 83.7203C124.464 83.9336 124.2 84.032 123.986 83.9254C123.78 83.8269 123.681 83.589 123.772 83.3757C125.016 80.2336 126.754 77.3131 128.913 74.7206C128.13 73.8018 127.281 72.9404 126.367 72.1446C126.087 71.9067 126.062 71.4883 126.301 71.2176C126.4 71.1027 126.54 71.0207 126.688 70.9961L128.962 70.5449V70.5449Z" fill="#191919"/>
<path d="M109.874 70.5122C109.347 70.2742 108.985 70.1594 108.902 69.7492C108.861 69.5523 108.911 69.3554 109.042 69.1995C110.698 67.1732 112.609 65.3601 114.71 63.7932C114.867 63.6373 115.122 63.6373 115.279 63.7932C115.279 63.7932 115.279 63.7932 115.287 63.8014C115.443 63.9655 115.443 64.228 115.279 64.3839C112.692 67.2962 112 67.8131 110.624 69.3882C110.879 69.5031 111.135 69.6179 111.398 69.7246C111.744 69.8558 111.917 70.2332 111.786 70.5778C111.736 70.7008 111.654 70.8075 111.547 70.8895C110.599 71.5951 109.743 72.4072 108.976 73.3015C109.487 75.0407 109.784 76.8373 109.858 78.6504C109.883 78.8883 109.701 79.0934 109.463 79.118C109.224 79.1426 109.018 78.9621 108.993 78.7242C108.721 76.8948 108.268 75.0981 107.642 73.3589C107.56 73.1456 107.609 72.8995 107.766 72.7354C108.416 71.9478 109.117 71.2095 109.874 70.5204V70.5122Z" fill="#191919"/>
<path d="M117.182 63.3256C116.622 64.105 116.103 64.909 115.625 65.7457C113.821 69.1504 112.461 72.7683 111.563 76.5092C111.217 78.068 110.954 79.6513 110.781 81.2347C110.756 81.4726 110.937 81.6859 111.168 81.7023C111.382 81.7187 111.58 81.5874 111.629 81.3823C113.508 72.8585 115.369 69.3883 117.89 63.7358C118.006 63.5389 117.931 63.2928 117.734 63.1779C117.536 63.0795 117.297 63.1451 117.174 63.3256H117.182Z" fill="#191919"/>
<path d="M116.506 62.2838C116.44 62.0705 116.218 61.9393 115.996 62.0049C108.804 63.859 105.583 71.144 100.417 74.7947C97.6413 76.9278 93.9012 77.3461 90.7131 75.8777C88.0358 74.6963 87.0225 73.3016 84.6829 74.0482C84.2628 71.1604 82.5245 69.815 80.9923 69.815C80.465 69.815 79.3447 70.1431 79.4683 70.66C79.5506 71.021 79.7319 70.9225 80.9099 71.0948C81.7502 71.2014 82.4834 71.7265 82.8458 72.4894C83.2001 73.1211 83.5214 73.7693 83.8097 74.4338C81.5278 75.9023 79.9213 78.2076 79.3447 80.8574C79.3035 81.0297 79.3364 81.2102 79.4271 81.3578C80.8852 83.5483 82.2692 85.9028 84.3122 87.5764C88.0934 90.7103 94.5191 92.3428 99.3054 91.0548C99.536 90.9892 99.6761 90.7513 99.6184 90.5216C99.5525 90.2919 99.3218 90.1606 99.0912 90.218C94.6509 91.2845 88.563 89.6191 85.1113 86.6411C83.3648 85.1891 81.9067 82.7935 80.6792 80.882C81.4371 77.9204 84.4852 74.0154 87.1461 75.4839C88.1346 76.0335 89.1314 76.616 90.1777 77.0836C93.7941 78.7654 98.0449 78.2896 101.2 75.8612C105.121 73.0719 108.194 68.1004 111.942 65.106C115.304 62.4561 116.72 63.1124 116.506 62.2838V62.2838Z" fill="#191919"/>
<path d="M80.3494 72.6041C79.5338 73.5722 79.4844 74.975 80.234 76.0005C80.3494 76.2056 80.6212 76.2795 80.8272 76.1564C81.0331 76.0333 81.1073 75.7708 80.9837 75.5657C80.753 74.6961 80.786 73.7855 81.0908 72.9405C81.1897 72.4318 80.7613 72.1365 80.3494 72.5959V72.6041Z" fill="#191919"/>
<path d="M75.1019 72.481C76.1811 72.1692 77.2767 71.9477 78.3889 71.8001C78.6278 71.8165 78.8337 71.636 78.8502 71.3981C78.8667 71.1602 78.6854 70.9551 78.4465 70.9387C77.1779 70.7418 75.8763 71.0125 74.8053 71.7098C74.2946 72.0708 74.5829 72.563 75.0937 72.4728L75.1019 72.481Z" fill="#191919"/>
<path d="M75.7611 75.4838C76.2636 75.2212 75.7858 75.0736 78.0595 74.6141C78.2902 74.5895 78.4632 74.3844 78.4467 74.1547C78.422 73.925 78.216 73.7527 77.9854 73.7691C76.552 73.6543 74.822 74.7618 75.1927 75.3443C75.3163 75.533 75.5634 75.5822 75.7611 75.4756V75.4838Z" fill="#191919"/>
<path d="M76.6509 78.0433C77.2028 77.8546 76.7497 77.9203 78.7021 76.903C78.9246 76.8292 79.0481 76.583 78.974 76.3533C78.8998 76.14 78.6692 76.017 78.4468 76.0744C77.5571 76.2057 76.7497 76.6651 76.1895 77.3706C76.0495 77.5593 75.9589 77.7562 76.0824 77.9367C76.206 78.1172 76.4367 78.109 76.6509 78.0433V78.0433Z" fill="#191919"/>
<path d="M73.4134 49.3051C73.4958 50.4209 73.6441 51.5366 73.8418 52.6359C75.0116 58.3048 78.7187 69.0847 78.9659 69.8723C79.0235 70.102 79.2542 70.2496 79.4849 70.1922C79.7073 70.1266 79.8473 69.8887 79.7897 69.659C78.0432 61.9883 77.3842 61.4715 75.1105 52.4308C74.9951 51.996 74.3855 49.8302 74.2125 49.1657C74.1713 48.9442 73.9654 48.7883 73.7347 48.8293C73.5123 48.8703 73.3558 49.0754 73.397 49.3051C73.397 49.3051 73.397 49.3051 73.397 49.3133L73.4134 49.3051Z" fill="#191919"/>
<path d="M127.858 62.1852C129.325 62.4395 130.758 62.8415 132.142 63.3829C140.256 66.4758 145.628 74.4828 147.152 82.3585C147.185 82.5882 147.407 82.7523 147.638 82.7195C147.868 82.6866 148.033 82.4651 148 82.2354C148 82.2354 148 82.2272 148 82.219C146.517 70.627 137.258 61.7175 127.941 61.3648C127.718 61.3484 127.512 61.5125 127.496 61.734C127.479 61.9555 127.644 62.1523 127.866 62.177L127.858 62.1852Z" fill="#191919"/>
<path d="M133.938 83.2938C134.02 83.7122 134.135 84.1306 134.243 84.5572C137.604 97.8639 137.324 97.585 137.892 97.4783C138.46 97.3717 138.221 96.6415 138.032 95.3617C137.332 91.0875 136.335 86.8707 135.042 82.7441C134.424 81.0459 134.275 80.7588 133.897 80.8655C133.485 80.9803 133.534 81.3659 133.938 83.302V83.2938Z" fill="#191919"/>
<path d="M155.431 145.61C157.63 139.909 160.464 133.559 165.259 129.99C173.596 123.78 189.223 122.254 199.644 122.008C208.311 121.803 214.324 124.141 214.473 132.771C214.538 136.586 213.468 140.68 212.776 144.052C212.726 144.281 212.874 144.511 213.105 144.56C213.336 144.61 213.566 144.462 213.616 144.232C214.398 140.803 215.568 136.66 215.568 132.763C215.568 123.386 209.027 120.49 199.619 120.703C188.861 120.925 173.027 122.517 164.468 128.948C159.187 132.919 156.823 139.08 154.665 145.323C154.591 145.537 154.714 145.766 154.928 145.84C155.134 145.906 155.348 145.807 155.431 145.61V145.61Z" fill="#6F93FC"/>
<path d="M171.339 136.348C172.937 136.193 174.279 136.201 176.677 135.971C183.86 135.413 182.139 135.421 204.719 134.478C204.958 134.478 205.139 134.273 205.139 134.043C205.131 133.813 204.933 133.625 204.702 133.633C196.53 133.551 196.415 133.584 191.818 133.707C187.254 133.871 181.059 134.174 176.537 134.699C174.345 134.937 172.467 135.306 171.231 135.528C171.009 135.569 170.861 135.782 170.902 136.004C170.943 136.209 171.124 136.357 171.339 136.34V136.348Z" fill="#6F93FC"/>
<path d="M170.63 144.339C190.335 142.903 188.21 143.658 203.812 142.698C204.051 142.69 204.233 142.485 204.224 142.247C204.216 142.009 204.01 141.829 203.771 141.837C191.563 142.034 180.342 141.697 170.523 143.527C170.3 143.56 170.144 143.765 170.177 143.986C170.21 144.208 170.416 144.364 170.638 144.331L170.63 144.339Z" fill="#6F93FC"/>
<path d="M90.746 147.801C91.4874 145.643 92.4019 143.543 93.481 141.525C97.3776 134.215 102.971 129.687 115.732 128.071C123.055 127.152 129.489 127.07 130.915 134.297C130.947 134.535 131.162 134.699 131.401 134.667C131.639 134.634 131.804 134.42 131.771 134.182C131.771 134.166 131.771 134.158 131.771 134.141C131.219 130.729 129.563 128.727 127.38 127.611C123.978 125.888 119.365 126.307 115.584 126.783C101.357 128.546 93.6129 134.158 89.9799 147.563C89.9305 147.785 90.0705 147.998 90.2929 148.047C90.4906 148.088 90.6884 147.981 90.7625 147.801H90.746Z" fill="#6F93FC"/>
<path d="M105.122 137.111C105.83 137.07 106.794 137.087 107.972 136.996C119.217 136.34 121.655 136.078 125.486 135.405C125.725 135.372 125.89 135.151 125.857 134.913C125.824 134.683 125.61 134.519 125.379 134.552C124.077 134.675 122.784 134.732 121.474 134.806C107.189 135.61 108.252 135.61 105.006 136.291C104.784 136.332 104.636 136.545 104.677 136.775C104.718 136.98 104.907 137.128 105.122 137.111V137.111Z" fill="#6F93FC"/>
<path d="M105.335 143.986C105.945 143.904 107.271 143.773 108.005 143.641C109.768 143.363 123.146 141.139 124.291 140.91C124.522 140.86 124.67 140.631 124.621 140.401C124.571 140.188 124.374 140.04 124.159 140.065C120.963 140.426 119.966 140.368 112.692 141.5C110.122 141.787 107.601 142.353 105.154 143.19C104.932 143.231 104.784 143.445 104.825 143.666C104.866 143.888 105.08 144.035 105.303 143.994C105.311 143.994 105.327 143.994 105.335 143.994V143.986Z" fill="#6F93FC"/>
<path d="M48.9628 144.872C52.4475 135.019 60.4796 130.54 70.8842 130.04C73.8004 129.843 78.2407 129.055 80.0201 131.442C80.1519 131.631 80.4238 131.68 80.6132 131.549C80.8027 131.418 80.8521 131.147 80.7203 130.958C78.7597 128.013 74.1217 128.686 70.8265 128.793C59.9935 129.268 50.8329 134.117 48.1885 144.659C48.1226 144.872 48.2461 145.094 48.4521 145.151C48.6663 145.217 48.8969 145.094 48.9628 144.88V144.872Z" fill="#6F93FC"/>
<path d="M62.1766 138.129C63.3546 138.153 72.4493 137.727 72.54 137.727C75.5798 137.513 75.8599 137.595 75.8599 137.095C75.8599 136.512 75.0361 136.627 73.9157 136.586C69.9038 136.488 65.8919 136.603 61.8965 136.939C60.4878 137.144 59.9111 137.152 59.9358 137.628C59.9688 138.079 60.4631 138.112 62.1848 138.137L62.1766 138.129Z" fill="#6F93FC"/>
<path d="M57.9997 143.953C58.4034 143.945 68.4537 143.535 70.0601 143.404C71.8066 143.264 73.5366 142.993 75.2418 142.591C75.4725 142.559 75.6373 142.345 75.6126 142.107C75.5878 141.87 75.3654 141.714 75.1265 141.738C75.1183 141.738 75.1018 141.738 75.0936 141.738C73.9979 141.878 72.9187 141.943 71.8231 142.001C62.3494 142.567 61.748 142.214 57.8926 143.133C57.6702 143.166 57.5137 143.371 57.5466 143.592C57.5796 143.814 57.7855 143.97 58.008 143.937L57.9997 143.953Z" fill="#6F93FC"/>
<path d="M97.0399 116.306C95.5323 117.119 94.0907 118.037 92.7314 119.071C87.3273 123.329 83.1341 128.932 80.5721 135.307C79.5341 137.948 78.768 140.688 78.2819 143.486C78.2325 143.715 78.3808 143.945 78.6197 143.994C78.8586 144.044 79.081 143.896 79.1305 143.658C81.5607 132.747 88.1346 123.198 97.4765 117.004C97.6577 116.872 97.6907 116.61 97.5589 116.429C97.4435 116.274 97.2211 116.224 97.0481 116.306H97.0399Z" fill="#191919"/>
<path d="M119.76 114.6C120.757 114.797 121.779 115.117 122.314 115.273C125.716 116.241 128.847 117.972 131.466 120.351C132.579 121.311 133.559 122.41 134.399 123.608C134.531 123.805 134.803 123.862 135.001 123.731C135.19 123.608 135.248 123.362 135.141 123.165C134.399 121.786 133.452 120.531 132.331 119.432C129.621 116.831 126.285 114.969 122.635 114.042C121.713 113.837 120.773 113.755 119.826 113.788C119.604 113.771 119.398 113.935 119.381 114.157C119.365 114.378 119.53 114.583 119.752 114.6H119.76Z" fill="#191919"/>
<path d="M60.2655 112.163C61.1799 113.148 62.9429 113.271 64.4422 112.894C64.6728 112.861 64.8376 112.639 64.7964 112.401C64.7634 112.18 64.5575 112.016 64.3268 112.04C61.3694 112.147 61.9049 111.942 60.7268 111.491C60.1584 111.277 59.8866 111.761 60.2573 112.155L60.2655 112.163Z" fill="#191919"/>
<path d="M60.9904 114.616C61.9213 115.232 63.1158 115.297 64.1126 114.797C64.335 114.731 64.4668 114.493 64.4009 114.272C64.335 114.05 64.0961 113.919 63.8737 113.985C63.8654 113.985 63.8572 113.985 63.8489 113.993C63.0087 114.001 62.1684 113.96 61.3364 113.87C60.7927 113.788 60.5373 114.231 60.9986 114.616H60.9904Z" fill="#191919"/>
<path d="M58.5189 112.196C58.5271 112.549 58.8566 115.699 59.0626 116.675C59.2356 117.512 59.2685 118.201 59.7628 118.168C60.1994 118.136 60.2488 117.725 60.2159 116.085C60.2159 115.404 59.9193 112.729 59.7958 112.073C59.7134 111.622 59.4415 110.629 58.9884 110.686C58.4859 110.744 58.5106 112.089 58.5189 112.204V112.196Z" fill="#191919"/>
<path d="M55.8828 103.295C54.0292 104.214 54.2846 107.503 57.3409 107.397C57.5716 107.43 57.794 107.274 57.8352 107.044C57.8681 106.814 57.7116 106.593 57.4809 106.552C57.4645 106.552 57.448 106.552 57.4315 106.552C56.1876 106.232 55.4791 105.19 56.6571 104.312C57.275 103.82 57.4645 103.918 57.448 103.557C57.4233 103.008 56.3276 103.04 55.891 103.295H55.8828Z" fill="#191919"/>
<path d="M70.6042 104.78C71.0161 105.19 71.255 105.764 70.876 106.207C70.6948 106.421 70.4806 106.601 70.2335 106.732C69.3026 107.249 68.866 107.257 68.9895 107.709C69.0801 108.127 69.5332 108.061 70.217 107.938C72.0788 107.627 72.8449 106.035 72.1447 104.681C71.9717 104.337 71.7245 104.033 71.4197 103.795C71.0078 103.492 70.0028 103.221 69.8298 103.721C69.7474 103.992 70.1346 104.329 70.5959 104.788L70.6042 104.78Z" fill="#191919"/>
<path d="M38.929 141.927C40.486 129.769 52.6041 119.612 66.3863 119.703C72.6718 119.703 79.3693 121.844 82.6563 127.185C82.7716 127.39 83.027 127.463 83.233 127.349C83.4389 127.226 83.5048 126.963 83.3895 126.758C80.0366 120.909 73.1826 118.521 66.3945 118.406C53.1313 118.308 39.1844 127.759 38.1134 141.837C38.097 142.066 38.2617 142.263 38.4924 142.28C38.7148 142.296 38.9043 142.14 38.9372 141.927H38.929Z" fill="#191919"/>
<path d="M119.859 57.3532C121.515 58.3622 123.426 56.0077 122.569 55.5401C122.355 55.4499 122.108 55.5319 121.993 55.7288C121.466 56.221 120.782 56.5164 120.057 56.5574C119.513 56.5738 119.348 57.0414 119.859 57.3449V57.3532Z" fill="#191919"/>
<path d="M131.672 101.769C132.364 99.8165 130.568 98.2003 128.509 98.0936C128.089 96.0181 127.24 93.6061 125.164 93.1713C123.393 92.8596 121.597 93.5569 120.51 94.9844C119.48 96.379 118.961 98.0854 119.027 99.8165C119.027 100.038 119.2 100.227 119.422 100.235C119.645 100.235 119.834 100.063 119.842 99.8411C120.024 97.0025 122.001 94.0327 124.703 94.4183C126.441 94.7054 126.968 97.1748 127.306 98.8976C127.372 99.234 127.685 99.4719 128.031 99.4309C129.44 99.2832 131.063 100.317 130.255 101.671C130.066 101.982 130.173 102.392 130.486 102.573C130.494 102.573 130.502 102.581 130.511 102.589C131.507 103.131 131.853 104.435 130.593 104.796C130.255 104.886 130.058 105.223 130.132 105.559C130.173 105.748 130.222 105.953 130.255 106.142C130.412 108.029 128.624 108.488 126.828 107.873C126.581 107.791 126.309 107.873 126.153 108.078C125.312 109.169 123.739 109.382 122.643 108.545C122.47 108.414 122.314 108.258 122.182 108.086C122.05 107.856 121.754 107.791 121.523 107.922C121.474 107.955 121.424 107.996 121.383 108.045C121.053 108.586 120.452 108.898 119.818 108.857C119.587 108.816 119.356 108.964 119.315 109.193C119.274 109.423 119.422 109.653 119.653 109.694C119.982 109.76 120.32 109.751 120.641 109.661C120.543 110.424 120.551 111.195 120.674 111.958C120.674 112.196 120.872 112.385 121.111 112.385C121.35 112.385 121.539 112.188 121.539 111.95C121.894 108.742 121.539 109.243 121.721 109.079C122.503 109.907 123.648 110.285 124.769 110.104C124.752 110.736 124.785 111.368 124.859 111.991C124.826 112.221 124.991 112.442 125.23 112.467C125.461 112.5 125.683 112.336 125.708 112.098C125.708 112.081 125.708 112.065 125.708 112.048C125.873 111.31 125.906 110.539 125.798 109.784C126.169 109.62 126.507 109.399 126.803 109.128C127.924 109.505 129.143 109.423 130.198 108.898C131.219 108.234 131.738 107.019 131.524 105.83C133.163 105.018 133.073 102.959 131.672 101.777V101.769Z" fill="#C37A45"/>
<path d="M139.902 117.734C138.864 116.634 137.629 115.732 136.269 115.084C133.625 113.583 130.659 112.746 127.619 112.647C126.68 112.606 125.445 112.738 124.464 112.811C124.102 112.836 123.83 113.156 123.855 113.517C123.871 113.763 124.028 113.976 124.25 114.075C128.682 115.921 132.669 118.308 135.553 122.065C135.759 122.344 136.154 122.394 136.434 122.188C136.475 122.156 136.508 122.123 136.541 122.082C139.424 118.193 139.861 118.759 139.935 118.267C140.05 118.103 140.034 117.89 139.902 117.742V117.734Z" fill="#6F93FC"/>
<path d="M120.699 37.9428C121.185 32.2083 123.418 23.947 115.196 23.7255C104.133 23.4548 96.3396 23.7911 86.6353 23.7337C68.1162 23.6517 61.9048 21.7648 51.0389 21.8714C47.6119 21.7812 44.1848 22.2488 40.9061 23.2415C35.642 25.1612 36.2681 32.3396 36.2022 37.2783C36.1446 43.6527 36.2022 69.134 36.3093 75.5002C36.367 79.6021 39.8022 80.8163 43.9377 80.8491C53.7574 80.9557 64.8622 79.9877 74.9208 79.9385C75.1597 79.9303 75.341 79.7252 75.3327 79.4873C75.3245 79.2658 75.1433 79.0853 74.9208 79.0771C64.6563 79.036 54.4082 79.8728 43.9459 79.6924C40.5437 79.6349 37.5533 78.872 37.5368 75.4756C37.4626 69.1094 37.4626 43.6527 37.5368 37.2947C37.6027 32.8236 36.9848 26.0554 41.3675 24.4803C44.5061 23.5286 47.7766 23.0938 51.0553 23.1841C61.9707 23.0774 67.5231 24.9479 86.6435 25.0299C92.3524 25.0463 111.39 24.8084 115.188 24.8577C118.039 24.8823 119.414 26.08 119.999 27.8931C120.889 30.6168 120.139 34.5546 119.892 37.8526C119.867 38.0741 120.032 38.2792 120.255 38.3038C120.477 38.3284 120.683 38.1643 120.708 37.9428V37.9264L120.699 37.9428Z" fill="#191919"/>
<path d="M52.5548 54.6377C53.255 54.6787 55.2981 54.5803 56.2207 54.4982C57.893 54.3834 58.445 54.2357 58.445 53.8255C58.445 53.4153 58.0331 53.3005 56.4349 53.2266C55.8747 53.202 53.6093 53.284 52.6866 53.3579C52.2418 53.3825 51.1296 53.5384 51.1296 53.9978C51.1296 54.4326 52.2335 54.6295 52.5631 54.6295L52.5548 54.6377Z" fill="#191919"/>
<path d="M51.7557 60.4706C52.8184 60.446 55.7841 60.1507 58.758 60.0522C66.2711 59.8061 66.3782 59.7651 66.3534 59.2646C66.3534 58.756 66.164 58.7806 62.1274 58.6986C58.6097 58.6329 55.0921 58.838 51.6074 59.3221C50.5941 59.5436 49.688 59.6584 49.7704 60.1671C49.8527 60.6757 50.5035 60.528 51.7475 60.4706H51.7557Z" fill="#191919"/>
<path d="M52.876 65.5981C53.4197 65.5981 55.8335 65.4505 56.2536 65.4012C57.2833 65.2782 58.1071 65.1879 58.0742 64.6793C58.0412 64.2773 57.7694 64.2445 56.2536 64.1542C55.1085 64.1378 53.9717 64.1953 52.8348 64.3101C52.39 64.4004 51.5085 64.6219 51.5662 65.0649C51.6156 65.4915 52.2499 65.5407 52.876 65.5981V65.5981Z" fill="#191919"/>
<path d="M88.6452 57.0004C96.9162 56.6067 103.301 57.0907 111.102 57.5747C111.341 57.5911 111.522 57.788 111.514 58.0177C111.497 58.2556 111.3 58.4361 111.069 58.4279C108.293 58.3623 99.0581 58.1736 97.2128 58.1654C87.9203 58.1162 87.9697 58.592 87.5331 58.1818C87.4013 58.0587 87.3189 57.8865 87.3189 57.6978C87.2365 46.7866 86.6269 41.6018 87.6567 33.0369C87.6732 32.8154 87.8709 32.6431 88.1015 32.6677C88.3322 32.6924 88.497 32.8811 88.4722 33.1108C88.2663 37.8034 88.4722 43.9563 88.6452 57.0004Z" fill="#191919"/>
<path d="M72.433 46.0154L72.0952 45.9908C63.2311 39.6328 59.1204 37.7213 50.3963 31.9293C50.0833 31.7243 49.6714 31.8145 49.4654 32.1262C49.3995 32.2329 49.3584 32.3477 49.3584 32.4708C49.2183 47.5249 49.0783 46.4174 49.3913 46.7291C49.9021 47.1721 49.8197 46.6143 58.865 46.5897C63.4124 46.5651 68.0092 46.7127 72.4 46.8604C72.6389 46.8768 72.8367 46.6963 72.8531 46.4666C72.8696 46.2287 72.6884 46.0318 72.4577 46.0154H72.4412H72.433ZM50.5529 43.5132C51.2943 43.6199 52.4311 43.7101 52.9336 43.7347C52.9089 44.7192 52.9007 45.4411 52.9007 45.4575C52.1098 45.4904 51.3025 45.5068 50.5282 45.5478C50.5282 45.1786 50.5446 44.4403 50.5611 43.5132H50.5529ZM54.1364 45.4001C54.1364 45.3099 54.1282 45.3099 54.2929 43.1276C54.3176 42.7749 54.054 42.4631 53.6998 42.4385C53.6915 42.4385 53.6751 42.4385 53.6668 42.4385C53.5927 42.4385 51.5002 42.3319 50.5776 42.3237C50.6188 39.3292 50.6682 35.2765 50.6929 33.7096C52.53 34.9074 69.5415 45.3509 70.39 45.8759C64.0549 45.4904 59.5817 45.2606 54.1446 45.4083L54.1364 45.4001Z" fill="#6F93FC"/>
<path d="M112.239 52.1931C109.438 49.1658 109.224 48.4357 103.828 43.1278C106.069 40.7241 111.061 35.5556 111.152 35.4654C111.316 35.3095 111.325 35.0552 111.168 34.8911C111.02 34.7352 110.781 34.7188 110.616 34.8501C107.79 36.9503 106.736 38.0168 102.881 42.1926C100.459 39.6822 97.6989 37.4999 94.692 35.7115C94.5025 35.5884 94.2471 35.6541 94.1236 35.8428C94.0082 36.0232 94.0577 36.2612 94.2224 36.3924C95.5652 37.4589 99.5442 40.8307 101.966 43.1606C100.796 44.4404 94.9391 50.9625 93.9918 51.8977C93.8188 52.0618 93.8105 52.3325 93.9753 52.5048C94.14 52.6771 94.4119 52.6853 94.5849 52.5212C97.5341 49.8796 100.319 47.0657 102.93 44.0959C103.655 44.8096 110.254 51.4629 111.605 52.792C111.761 52.9642 112.033 52.9724 112.206 52.8166C112.379 52.6525 112.387 52.3818 112.222 52.2013L112.239 52.1931Z" fill="#6F93FC"/>
<path d="M58.6591 98.2741C58.3131 99.5211 58.1318 100.809 58.1154 102.105C57.9012 104.427 58.0577 107.364 59.2522 109.382C60.5456 111.171 62.8852 111.86 64.9447 111.072C65.0023 112.393 65.1341 113.706 65.3401 115.01C65.5296 116.027 65.546 116.355 65.9579 116.355C66.5181 116.355 66.4934 115.453 66.5099 114.518C66.5346 113.64 66.2627 111.22 66.1721 110.44C66.238 110.391 66.3122 110.367 66.3698 110.317C67.1277 109.579 67.7209 108.685 68.0916 107.692C69.2202 105.362 69.8627 102.835 69.9698 100.251C70.0605 94.1475 60.6856 92.3591 58.6591 98.2741V98.2741ZM62.8852 97.6506C61.9707 98.3725 61.3529 99.4062 61.1552 100.555C61.0234 101.006 60.7433 102.023 60.2737 101.958C59.384 101.843 59.8042 98.0444 62.0119 96.7564C62.5804 96.4364 64.055 95.9114 64.2115 96.5923C64.3268 97.0763 63.8902 96.9615 62.8852 97.6424V97.6506Z" fill="#9C7054"/>
<path d="M116.646 93.3189C116.267 91.2269 115.707 87.8387 114.332 85.3119C113.384 83.5809 112.058 82.137 110.163 81.9073C107.906 81.694 105.706 82.7031 104.405 84.549C102.535 86.8379 101.587 90.1276 101.101 92.9251C99.5361 102.598 96.2985 113.172 101.192 122.139C101.365 122.459 101.76 122.582 102.09 122.41C102.189 122.352 102.279 122.279 102.337 122.18C103.449 124.6 105.237 126.651 107.478 128.103C108.013 128.432 108.137 127.915 109.941 127.422C111.712 126.955 112.083 127.39 112.412 126.824C119.497 114.395 119.118 107.11 116.638 93.3271L116.646 93.3189ZM103.795 99.1601C103.746 99.3898 103.515 99.5375 103.284 99.4882C103.062 99.439 102.922 99.2339 102.947 99.0124C102.98 98.151 103.235 95.6406 104.018 95.8211C104.759 95.9934 104.026 98.4381 103.803 99.1601H103.795ZM109.726 85.3119C109.306 85.5827 108.894 85.878 108.515 86.2062C106.621 87.7321 106.184 89.5862 104.973 93.3845C104.932 93.6143 104.71 93.7701 104.471 93.7291C104.24 93.6881 104.083 93.4666 104.125 93.2287C104.125 93.2205 104.125 93.2041 104.125 93.1959C104.248 92.4001 104.339 91.5551 104.512 90.7511C104.99 88.5853 106.192 85.8124 108.227 84.9017C108.614 84.7295 109.018 84.6146 109.43 84.5408C109.644 84.4669 109.883 84.5736 109.965 84.7787C110.04 84.992 109.924 85.2299 109.718 85.3119H109.726Z" fill="#4B241F"/>
<path d="M188.061 58.2065C189.701 54.3917 184.873 50.1093 181.067 51.668C178.917 49.0264 174.098 49.092 172.154 53.7436C169.122 53.3334 165.316 53.7436 162.87 55.5977C162.655 55.532 162.425 55.5731 162.244 55.7043C158.52 58.6003 156.329 63.0222 156.279 67.723C156.271 68.0347 156.51 68.2891 156.823 68.3055C158.355 68.3547 159.443 68.2727 161.502 68.1742C161.848 71.0538 163.504 74.4338 166.387 74.0646C167.211 73.8267 168.101 73.9251 168.859 74.3271C170.103 75.3198 169.065 77.1082 167.763 77.5512C167.425 77.6579 167.236 78.0107 167.343 78.347C167.359 78.388 167.376 78.4373 167.401 78.4783C168.686 80.6605 169.979 82.6212 172.154 83.9092C175.993 86.1407 180.417 84.9429 181.792 80.8656C182.015 80.9312 182.237 80.8 182.303 80.5867C182.336 80.48 182.32 80.3652 182.262 80.2667C181.858 79.553 181.619 78.7736 181.545 77.9614C181.512 77.6907 181.273 77.502 181.01 77.5348C178.728 77.7317 175.943 75.5905 177.443 73.2934C177.632 72.9899 177.542 72.5961 177.245 72.3992C177.163 72.3418 177.064 72.309 176.965 72.3008C175.021 72.1039 173.505 70.5287 173.39 68.5844C173.357 68.2645 173.093 68.0101 172.772 67.9937C170.3 67.8378 167.837 67.5671 165.374 67.3702C160.316 67.0011 162.433 67.4441 157.466 67.2062C157.787 63.2765 159.657 59.6422 162.672 57.0826C162.977 57.1974 163.059 57.222 166.428 59.5437C172.426 63.7933 172.829 64.8024 175.993 67.0667C175.26 69.3884 176.528 71.8742 178.835 72.6617C178.505 75.0327 180.721 77.2641 183.135 77.2969C185.499 77.3872 187.501 75.5659 187.617 73.2032C190.039 72.4812 191.414 69.9462 190.689 67.5343C190.475 66.8288 190.096 66.1807 189.577 65.6556C191.958 63.58 190.871 59.4945 188.061 58.2065V58.2065ZM173.76 57.3041C173.661 57.6158 173.348 57.8127 173.027 57.7553C168.62 57.0826 167.112 58.2803 166.807 57.5502C166.643 57.0498 167.705 56.6478 168.208 56.4755C169.682 56.1227 171.215 56.0899 172.698 56.3852C172.862 55.9422 173.085 55.5238 173.348 55.13C173.653 54.6952 174.872 53.1939 175.375 53.7764C175.877 54.3589 174.65 54.3507 173.752 57.3041H173.76Z" fill="#311D16"/>
<path d="M161.436 93.7374C160.893 91.8505 161.14 91.7192 160.687 91.4731C159.072 90.7019 157.952 89.176 157.705 87.404C158.355 86.9938 158.981 86.5426 159.566 86.0421C159.764 85.8781 159.838 85.6073 159.772 85.3612C159.657 84.7213 159.426 84.1142 159.097 83.5482C158.981 83.3267 158.743 83.1954 158.495 83.1954C157.729 83.2364 156.963 83.3267 156.205 83.4579C156.189 83.2446 156.139 83.1872 155.999 81.6859C155.966 81.3413 155.678 81.0788 155.324 81.087C153.915 81.0378 152.531 81.4316 151.353 82.1945C149.714 83.3841 148.453 85.0167 147.728 86.8953C146.246 90.7101 146.435 97.8967 146.616 101.974C145.784 101.088 145.842 99.7918 145.924 98.5448C145.941 98.2331 145.727 97.9542 145.422 97.8721L144.375 97.6506C144.408 97.4948 145.496 92.4658 145.529 92.3427C145.628 92.1376 145.545 91.8997 145.348 91.8013C145.142 91.7028 144.903 91.7849 144.804 91.9817C144.796 91.9982 144.787 92.0228 144.779 92.0392C143.675 93.9507 143.585 95.0336 142.942 98.028C142.868 98.389 143.099 98.7417 143.461 98.8156L144.614 99.0371C144.614 100.752 145.125 102.278 146.666 103.016C146.732 104.427 146.814 105.846 146.896 107.249C146.921 107.594 147.226 107.856 147.572 107.832C147.695 107.823 147.811 107.774 147.91 107.7C152.309 104.066 157.194 101.047 162.408 98.7171C163.059 98.5038 162.408 97.183 161.445 93.7128L161.436 93.7374ZM152.655 85.2792C151.147 87.2481 150.645 88.1095 149.953 91.4895C149.425 94.0655 149.64 94.4593 149.063 94.4347C148.42 94.4019 148.56 92.8678 148.709 91.3008C149.343 85.6073 152.869 83.1954 153.38 83.942C153.635 84.2701 153.363 84.3932 152.655 85.2792V85.2792Z" fill="#311B12"/>
<path d="M117.478 46.9177C118.228 47.4263 119.15 47.6314 120.048 47.5002C120.279 47.533 120.493 47.3689 120.526 47.131C120.559 46.8931 120.394 46.688 120.156 46.6552C120.131 46.6552 120.114 46.6552 120.09 46.6552C119.332 46.4337 118.557 46.2696 117.775 46.1548C117.206 46.1137 117.033 46.5567 117.486 46.9177H117.478Z" fill="#191919"/>
<path d="M119.612 44.5223C120.238 45.6462 121.169 46.5568 122.306 47.1639C122.495 47.3034 122.767 47.2706 122.907 47.0819C123.047 46.8932 123.014 46.6225 122.825 46.483C122.1 45.8103 120.947 44.6207 120.271 44.0547C119.843 43.6855 119.381 44.0218 119.612 44.5305V44.5223Z" fill="#191919"/>
<path d="M122.125 94.5496C120.403 96.5923 119.398 99.0617 119.538 101.761C119.62 103.311 120.806 104.632 122.421 104.632C123.92 104.632 125.387 103.32 125.304 101.761C125.255 100.883 125.263 100.785 125.502 99.9149C125.593 99.5703 126.005 98.8402 126.202 98.6023C127.199 97.4127 127.372 95.7063 126.202 94.5414C125.173 93.5159 123.13 93.3518 122.125 94.5414V94.5496Z" fill="#C37A45"/>
<path d="M118.385 101.531L118.549 103.262C118.624 104.041 118.821 104.722 119.398 105.288C119.9 105.789 120.716 106.158 121.433 106.133C122.149 106.109 122.949 105.855 123.468 105.288C123.954 104.755 124.382 104.009 124.316 103.262L124.151 101.531C124.077 100.752 123.879 100.071 123.303 99.5047C122.8 99.0043 121.985 98.6351 121.268 98.6597C120.551 98.6843 119.752 98.9387 119.233 99.5047C118.747 100.038 118.319 100.785 118.385 101.531Z" fill="#C37A45"/>
<path d="M121.737 107.856C125.444 107.856 125.453 102.114 121.737 102.114C118.022 102.114 118.022 107.856 121.737 107.856Z" fill="#C37A45"/>
<path d="M118.739 105.272V105.559C118.722 105.953 118.805 106.322 118.986 106.667C119.101 107.019 119.299 107.331 119.579 107.594C119.843 107.873 120.147 108.07 120.51 108.184C120.856 108.365 121.227 108.447 121.622 108.43L122.388 108.324C122.874 108.184 123.302 107.938 123.657 107.585L124.11 107.003C124.373 106.552 124.505 106.076 124.505 105.551V105.264C124.522 104.87 124.439 104.501 124.258 104.156C124.143 103.803 123.945 103.492 123.665 103.229C123.401 102.95 123.097 102.753 122.734 102.639C122.388 102.458 122.017 102.376 121.622 102.392L120.856 102.499C120.37 102.639 119.941 102.885 119.587 103.237L119.134 103.82C118.87 104.271 118.739 104.747 118.739 105.272Z" fill="#C37A45"/>
<path d="M118.632 107.044C118.69 107.192 118.723 107.348 118.747 107.503L118.69 107.069C118.714 107.266 118.714 107.454 118.69 107.651L118.747 107.216C118.723 107.405 118.673 107.577 118.599 107.75L118.764 107.356V107.38C118.632 107.569 118.566 107.774 118.558 107.988C118.508 108.209 118.517 108.422 118.591 108.644C118.64 108.857 118.739 109.046 118.887 109.202C119.003 109.382 119.159 109.522 119.349 109.628L119.744 109.792C120.032 109.874 120.329 109.874 120.617 109.792L121.013 109.628C121.26 109.481 121.458 109.284 121.606 109.038C121.721 108.783 121.845 108.521 121.902 108.25C121.96 107.979 122.001 107.7 122.009 107.43C122.018 107.159 121.968 106.872 121.927 106.601C121.902 106.453 121.869 106.306 121.82 106.166C121.771 105.953 121.672 105.764 121.523 105.608C121.408 105.428 121.252 105.288 121.062 105.182C120.873 105.059 120.667 104.993 120.453 104.985C120.23 104.936 120.016 104.944 119.793 105.018L119.398 105.182C119.151 105.329 118.953 105.526 118.805 105.772L118.64 106.166C118.558 106.453 118.558 106.749 118.64 107.036L118.632 107.044Z" fill="#C37A45"/>
<path d="M124.283 98.1922C124.316 98.668 124.357 99.1438 124.349 99.6196C124.34 100.095 124.349 100.112 124.233 100.579C124.019 101.392 123.599 102.138 123.434 102.975C123.344 103.426 123.294 103.894 123.237 104.353C123.228 104.452 123.212 104.55 123.204 104.649C123.228 104.452 123.228 104.452 123.204 104.649C123.171 104.813 123.146 104.977 123.096 105.141C123.072 105.231 122.874 105.658 123.047 105.346C123.006 105.42 122.668 105.879 122.915 105.592C122.619 105.937 122.297 106.273 122.116 106.7C121.696 107.684 121.984 108.767 123.105 109.112C124.102 109.415 125.247 109.251 126.087 108.627C126.219 108.529 126.342 108.431 126.474 108.332C126.664 108.184 126.252 108.447 126.466 108.349C126.935 108.119 126.161 108.455 126.079 108.332C126.128 108.406 126.589 108.496 126.688 108.529C126.968 108.619 127.232 108.669 127.52 108.71C128.674 108.865 129.901 108.406 130.527 107.389C130.799 106.938 130.939 106.412 130.923 105.887C130.923 105.797 130.923 105.691 130.906 105.6C130.848 105.264 130.642 106.224 130.791 105.969C130.881 105.814 130.692 106.092 130.692 106.084C130.692 106.068 130.914 105.863 130.923 105.846C131.631 105.149 132.142 104.247 131.853 103.221C131.722 102.754 131.475 102.384 131.161 102.023C131.063 101.917 130.964 101.81 130.865 101.703C130.824 101.662 130.791 101.621 130.75 101.58C130.585 101.408 130.675 101.482 130.774 101.621C130.626 101.4 130.791 101.687 130.807 101.736C130.84 101.835 130.783 102.089 130.832 101.753C130.857 101.572 130.881 101.383 130.881 101.195C130.873 100.497 130.56 99.8658 130.066 99.3899C129.102 98.4793 127.784 98.3809 126.729 99.1848C125.675 99.9888 125.626 101.203 125.675 102.393C125.683 102.639 125.675 102.893 125.667 103.139C125.667 103.221 125.65 103.303 125.642 103.385C125.667 103.082 125.601 103.59 125.601 103.607C125.56 103.82 125.502 104.033 125.436 104.247C125.403 104.353 125.362 104.452 125.329 104.558C125.222 104.87 125.387 104.452 125.23 104.772C124.859 105.543 124.991 106.577 125.823 107.02C126.556 107.405 127.685 107.257 128.08 106.429C128.55 105.444 128.838 104.468 128.945 103.385C128.987 102.95 128.978 102.516 128.954 102.081C128.945 101.876 128.921 101.662 128.945 101.457C128.912 101.638 128.921 101.63 128.97 101.441C128.945 101.556 128.888 101.646 128.805 101.72C128.492 102.007 128.196 101.794 127.85 101.785C127.71 101.671 127.701 101.679 127.833 101.794C127.693 101.654 127.611 101.474 127.594 101.269C127.537 101.31 127.537 101.826 127.537 101.909C127.537 102.179 127.586 102.45 127.669 102.696C127.833 103.18 128.122 103.566 128.468 103.935C128.566 104.042 128.665 104.148 128.772 104.255C128.888 104.386 128.871 104.361 128.715 104.165C128.781 104.288 128.789 104.279 128.723 104.14C128.682 103.836 128.632 103.656 128.781 103.352C128.69 103.5 128.707 103.467 128.847 103.27C128.797 103.328 128.748 103.377 128.69 103.426C128.41 103.705 128.13 103.984 127.94 104.337C127.751 104.69 127.677 104.985 127.644 105.362C127.644 105.428 127.586 105.904 127.644 105.937C127.652 105.814 127.693 105.707 127.759 105.608C127.66 105.764 127.677 105.748 127.792 105.576C127.965 105.453 127.973 105.444 127.817 105.535C127.891 105.469 127.982 105.444 128.072 105.453C127.875 105.444 127.866 105.453 128.039 105.477C127.932 105.461 127.833 105.436 127.734 105.403C127.529 105.346 127.331 105.247 127.125 105.19C126.433 105.001 125.757 105.034 125.115 105.346C124.95 105.42 124.81 105.51 124.662 105.617C124.513 105.732 124.365 105.838 124.225 105.953C124.382 105.838 124.382 105.83 124.225 105.937C124.06 106.027 124.06 106.027 124.233 105.945C124.044 105.986 124.052 105.994 124.258 105.961C124.167 105.961 124.069 105.961 123.978 105.961C124.184 105.986 124.192 105.978 124.003 105.928L124.991 108.34C125.024 108.258 125.065 108.176 125.107 108.102C125.181 107.955 125.197 108.004 125.09 108.102C125.28 107.897 125.453 107.676 125.617 107.454C125.906 107.077 126.095 106.642 126.243 106.199C126.392 105.756 126.449 105.256 126.507 104.78C126.532 104.583 126.556 104.394 126.581 104.197C126.598 104.033 126.606 104.042 126.581 104.197C126.606 104.074 126.622 103.959 126.647 103.836C126.82 102.983 127.257 102.212 127.463 101.367C127.726 100.325 127.693 99.2587 127.611 98.1922C127.545 97.339 126.902 96.5104 125.963 96.5514C125.123 96.5924 124.25 97.2733 124.316 98.1922H124.283Z" fill="#C37A45"/>
</svg>
