<svg width="228" height="150" viewBox="0 0 228 150" fill="none" xmlns="http://www.w3.org/2000/svg">
<path d="M140.896 37.4734C123.334 35.2416 113.65 29.1483 108.904 25.5109C105.795 23.1246 106.088 22.7848 103.58 20.9468C89.2511 10.4361 68.8802 13.8032 64.6131 14.5137C47.1512 17.402 25.0981 29.0325 18.8788 47.2659C8.46954 77.7784 47.02 113.226 77.5995 127.884C109.221 143.036 160.372 149.391 189.2 121.868C202.132 109.519 212.025 93.9653 211.577 71.8705C211.315 58.8268 204.355 39.7362 187.911 35.9443C171.321 32.1216 168.127 40.9332 140.888 37.4812L140.896 37.4734Z" fill="#E6F2FC"/>
<path d="M141.899 30.6157C123.396 27.8819 113.264 20.9778 108.318 16.8693C105.069 14.1817 105.386 13.8033 102.77 11.7259C87.8082 -0.136229 66.2567 3.29267 61.7427 4.01088C43.2699 6.95325 19.8202 19.5259 12.9913 39.6591C1.55583 73.338 41.7113 113.226 73.7646 129.93C106.914 147.206 160.804 155.014 191.638 124.918C205.473 111.411 216.145 94.3129 215.998 69.8009C215.914 55.3362 208.853 34.0524 191.553 29.6118C174.107 25.1249 170.596 34.8555 141.907 30.6157H141.899Z" stroke="#CAE8F9" stroke-miterlimit="10"/>
<path d="M75.2539 5.54772C75.1227 5.70217 74.9838 5.86435 74.8835 6.04198C74.8372 6.12693 74.7986 6.22732 74.7601 6.31999C74.7215 6.41267 74.6752 6.50534 74.6443 6.59801C74.5826 6.7988 74.5671 7.02276 74.544 7.23128C74.5363 7.30851 74.5363 7.38573 74.544 7.47068C74.5671 7.6792 74.5826 7.89543 74.6366 8.09623C74.6906 8.29702 74.7755 8.48236 74.8681 8.66771C74.9607 8.85305 75.1073 9.01523 75.223 9.16196C75.277 9.22375 75.3311 9.28553 75.3928 9.33186C75.5317 9.48632 75.7014 9.58671 75.8866 9.6485C76.0718 9.74889 76.2724 9.78751 76.4808 9.77978C76.6968 9.78751 76.8897 9.74117 77.0749 9.6485C77.2678 9.58671 77.4299 9.4786 77.5688 9.33186C77.8388 9.0384 78.0395 8.65226 78.024 8.24296L77.97 7.83365C77.8929 7.57108 77.7617 7.34712 77.5765 7.15405C77.5148 7.09999 77.453 7.04593 77.4067 6.98415L77.6459 7.29306C77.5842 7.21583 77.5379 7.13861 77.4993 7.04593L77.6537 7.41662C77.6151 7.32395 77.5842 7.22356 77.5765 7.12316L77.6305 7.53247C77.6151 7.42435 77.6151 7.31623 77.6305 7.20811L77.5765 7.61741C77.5919 7.52474 77.6151 7.43207 77.6537 7.3394L77.4993 7.71009C77.5379 7.62514 77.5765 7.55563 77.6305 7.47841L77.3913 7.78732C77.3913 7.78732 77.4144 7.75642 77.4299 7.74098C77.5842 7.60197 77.6845 7.43207 77.7462 7.24672C77.8466 7.06138 77.8851 6.86059 77.8774 6.65207C77.8851 6.43584 77.8388 6.24277 77.7462 6.05742C77.6845 5.86435 77.5765 5.70217 77.4299 5.56317C77.1367 5.29287 76.7508 5.09208 76.3419 5.10752L75.9329 5.16158C75.6706 5.23881 75.4468 5.3701 75.2539 5.55544V5.54772Z" fill="white"/>
<path d="M99.0354 26.0438C90.9951 28.0054 82.9547 29.9747 74.9144 31.9363C72.9853 32.4074 73.8032 35.3884 75.7323 34.9173C83.7727 32.9557 91.813 30.9864 99.8534 29.0248C101.782 28.5537 100.964 25.5727 99.0354 26.0438Z" fill="white"/>
<path d="M75.5548 32.5771C71.9358 32.832 68.4558 33.7047 65.1378 35.172C64.397 35.4963 64.1656 36.6393 64.5822 37.288C65.0761 38.0526 65.9017 38.1916 66.6965 37.8441C67.2906 37.5815 68.0854 37.2726 68.8185 37.0332C69.5515 36.7938 70.2923 36.5698 71.0407 36.3845C72.6457 35.9906 73.9729 35.7821 75.5548 35.674C76.3572 35.6199 77.1366 35.0021 77.098 34.1294C77.0594 33.3417 76.419 32.5231 75.5548 32.5849V32.5771Z" fill="white"/>
<path d="M63.6101 38.1764L64.3354 49.3898C64.6209 53.8304 71.5733 53.8613 71.2801 49.3898L70.5547 38.1764C70.2692 33.7358 63.3169 33.7049 63.6101 38.1764Z" fill="white"/>
<path d="M63.6872 48.8569C63.6023 51.807 62.2906 57.4832 64.6209 59.8155C66.9512 62.1477 72.8773 61.7616 75.9638 61.5299C80.2077 61.2056 83.9501 59.5066 87.8159 57.8693C90.7327 56.6337 96.6279 55.5371 96.3656 51.3513C96.0801 46.9108 89.1354 46.8799 89.4209 51.3513L89.4518 51.7838L90.4703 49.328C89.1972 50.3628 86.5659 50.9189 85.0304 51.5676C83.0704 52.3939 81.1182 53.3438 79.0811 53.9385C75.9175 54.8575 71.172 55.2668 68.0083 54.008L70.4312 56.4329C69.9759 54.1779 70.5778 51.1506 70.6395 48.8569C70.763 44.3854 63.8184 44.3854 63.6949 48.8569H63.6872Z" fill="white"/>
<path d="M72.0902 46.2696C77.8543 45.5823 83.2171 43.9837 88.6725 42.0298C94.1279 40.076 99.0431 38.2766 103.688 35.257C108.665 32.0134 104.028 23.9895 99.0123 27.2562C95.0152 29.8588 90.6787 31.496 86.211 33.0946C81.7433 34.6932 76.9515 36.4154 72.0902 37.0023C66.249 37.7051 66.1796 46.9801 72.0902 46.2696Z" fill="white"/>
<path d="M73.7416 53.2975C83.6416 50.6873 93.148 46.8568 102.122 41.9219C107.346 39.0491 102.678 31.0406 97.446 33.9212C89.1433 38.4853 80.4316 41.9451 71.2724 44.3623C65.5161 45.8837 67.9544 54.8266 73.7339 53.2975H73.7416Z" fill="white"/>
<path d="M75.2848 57.5062C84.961 55.3206 93.8038 51.5288 102.662 47.1345L95.6943 43.1341C95.6634 43.9914 95.81 45.4973 95.3779 46.2618C95.1696 46.6325 94.8841 46.7484 94.205 47.0805C92.3686 47.984 90.3855 48.6945 88.495 49.4668C84.8838 50.9418 81.5812 51.521 77.6691 51.3125C71.7121 50.9959 71.7276 60.2632 77.6691 60.5798C84.2279 60.9273 89.4364 59.0353 95.3702 56.5563C97.9629 55.4751 101.343 54.641 103.002 52.2084C104.661 49.7757 104.846 46.0224 104.954 43.1341C105.093 39.404 100.972 37.651 97.986 39.1338C89.8222 43.1805 81.7433 46.5553 72.8233 48.5709C67.0129 49.8838 69.4744 58.819 75.2848 57.5062Z" fill="white"/>
<path d="M101.975 39.9989C107.932 39.9989 107.94 30.7316 101.975 30.7316C96.0107 30.7316 96.0107 39.9989 101.975 39.9989Z" fill="white"/>
<path d="M101.574 42.8023C107.531 42.8023 107.539 33.535 101.574 33.535C95.6094 33.535 95.6094 42.8023 101.574 42.8023Z" fill="white"/>
<path d="M101.435 46.1384C107.392 46.1384 107.4 36.8711 101.435 36.8711C95.4705 36.8711 95.4705 46.1384 101.435 46.1384Z" fill="white"/>
<path d="M61.8817 72.002C57.7072 74.5969 57.7921 80.5279 62.337 82.7675C64.3123 83.7406 66.7275 83.8564 68.726 82.8679C71.5733 81.4547 71.2184 79.2923 72.1829 76.7206L70.0532 79.4931C75.8018 76.1955 83.9348 75.0139 90.3856 74.0254C96.2576 73.1218 93.7653 64.1943 87.9241 65.0902C82.4841 65.9242 77.1367 67.1599 71.9128 68.8975C69.8063 69.6003 67.2291 70.2104 65.3772 71.4923C63.1857 73.006 63.2706 74.8594 62.6688 77.1454L64.7984 74.3729L68.0779 77.6242L65.9482 80.3967L66.5578 80.0182C71.6042 76.8751 66.9667 68.8512 61.8817 72.0175V72.002Z" fill="white"/>
<path d="M81.3498 61.8078L81.5196 66.3488C81.5736 67.8084 82.7233 69.0518 84.2203 69.0518C85.7172 69.0518 86.975 67.8161 86.921 66.3488L86.7512 61.8078C86.6972 60.3482 85.5475 59.1049 84.0505 59.1049C82.5536 59.1049 81.2958 60.3405 81.3498 61.8078Z" fill="white"/>
<path d="M90.3701 69.5461C92.5615 68.5036 94.8687 67.9166 97.3147 67.963C99.0046 67.9939 100.764 68.7044 102.446 68.3877C103.526 68.1869 104.337 67.7081 104.908 66.7428C105.224 66.2099 105.371 65.7388 105.44 65.1287C105.479 64.8044 105.479 63.2058 105.154 64.3719L103.272 66.2562C101.181 66.7505 100.826 73.6932 100.748 75.5622C100.617 78.7516 100.903 81.8407 99.9923 84.9607C99.0123 88.3047 104.229 89.7334 105.201 86.3972C105.996 83.671 106.111 80.9526 106.127 78.1338C106.15 74.6431 107.099 71.6853 107.469 68.2796C107.84 64.8739 105.996 60.0549 101.836 61.0434C100.926 61.2596 100.193 62.0474 99.9537 62.9277C99.645 64.0398 99.8997 64.7735 100.139 65.8392L100.409 63.7541C101.474 62.1246 95.1773 62.6497 94.4983 62.7347C92.0445 63.0513 89.8685 63.8159 87.6463 64.8739C84.5057 66.3644 87.245 71.0289 90.3701 69.5384V69.5461Z" fill="white"/>
<path d="M98.8579 87.7176C98.9196 89.2776 98.8734 90.8376 98.719 92.3899C98.5801 93.8417 100.062 95.0928 101.42 95.0928C103.002 95.0928 103.982 93.8495 104.12 92.3899C104.275 90.8376 104.313 89.2776 104.259 87.7176C104.205 86.258 103.056 85.0146 101.559 85.0146C100.139 85.0146 98.8039 86.2503 98.8579 87.7176Z" fill="white"/>
<path d="M99.3749 94.6605C99.3364 95.6181 99.3518 96.5758 99.4367 97.5334C99.4907 98.1589 99.7839 98.6918 100.386 98.9467C100.988 99.2015 101.605 99.0548 102.068 98.63C102.755 98.0045 103.326 97.2322 103.688 96.375L100.81 95.595L100.795 95.7417C100.818 95.595 100.818 95.5795 100.795 95.6877C100.779 95.7803 100.764 95.8807 100.748 95.9734C100.718 96.1896 100.679 96.4059 100.64 96.6221C100.556 97.0777 100.463 97.5257 100.355 97.9736C100.262 98.352 100.147 98.7227 100.039 99.1011C99.9922 99.2787 100.177 98.854 100.039 99.1011C100.031 99.1166 99.9228 99.2942 99.9228 99.2942C100.046 99.1474 100.069 99.1166 99.9922 99.2015C99.9691 99.2324 99.9459 99.2556 99.9151 99.2787C99.8148 99.3946 100.185 99.132 99.8997 99.271C100.008 99.2169 100.116 99.2015 99.9382 99.2401C99.8379 99.2633 99.7453 99.2865 99.645 99.3096C99.4675 99.3482 99.2901 99.3714 99.1049 99.3946C98.6651 99.4641 98.2484 99.5876 97.8626 99.8193C96.9057 100.391 96.1341 101.626 96.5894 102.754C96.8903 103.503 97.6311 104.113 98.4876 103.835C99.2052 103.603 99.8919 102.739 99.5678 101.935C99.4753 101.696 99.5524 102.067 99.537 102.167C99.5293 102.221 99.4058 102.522 99.4675 102.422C99.5524 102.283 99.2129 102.654 99.4675 102.445C99.3904 102.507 99.2669 102.6 99.4212 102.491C99.6296 102.345 99.3827 102.545 99.3518 102.507C99.3518 102.507 99.5987 102.437 99.6296 102.437C99.8071 102.399 99.9845 102.376 100.17 102.345C101.173 102.182 102.022 101.727 102.585 100.862C103.025 100.175 103.21 99.3096 103.387 98.5219C103.611 97.5566 103.765 96.5835 103.889 95.6027C103.974 94.9694 103.357 94.2512 102.755 94.1122C102.153 93.9732 101.289 94.1817 101.011 94.8227C100.856 95.178 100.679 95.5023 100.463 95.8189C100.378 95.9502 100.386 95.9116 100.478 95.8112C100.424 95.873 100.37 95.9425 100.316 96.0043C100.177 96.1587 100.023 96.3055 99.8688 96.4522L102.5 97.5411C102.415 96.5835 102.4 95.6259 102.438 94.6683C102.477 93.8574 101.705 93.0851 100.895 93.1237C100.031 93.1623 99.3904 93.8033 99.3518 94.6683L99.3749 94.6605Z" fill="white"/>
<path d="M101.559 102.43C101.605 102.445 101.644 102.46 101.69 102.476L101.319 102.321C101.458 102.375 101.582 102.453 101.698 102.545L101.389 102.306C101.512 102.406 101.62 102.514 101.713 102.638L101.474 102.329C101.566 102.453 101.644 102.592 101.705 102.731L101.551 102.36C101.613 102.514 101.659 102.669 101.682 102.839L101.628 102.43C101.644 102.569 101.644 102.7 101.628 102.839L101.682 102.43C101.682 102.43 101.674 102.499 101.667 102.538C101.605 102.746 101.59 102.947 101.636 103.155C101.644 103.364 101.705 103.549 101.821 103.727C101.921 103.905 102.053 104.051 102.222 104.159C102.369 104.298 102.546 104.391 102.747 104.437C103.141 104.53 103.588 104.507 103.935 104.283C104.259 104.074 104.568 103.75 104.645 103.356C104.691 103.117 104.73 102.877 104.73 102.63C104.73 102.383 104.691 102.152 104.645 101.92C104.622 101.804 104.591 101.696 104.553 101.588C104.468 101.372 104.383 101.148 104.267 100.947C104.151 100.746 103.997 100.561 103.85 100.383C103.781 100.298 103.704 100.221 103.619 100.151C103.441 100.005 103.256 99.8501 103.056 99.742C102.847 99.6262 102.616 99.5258 102.384 99.4563C102.176 99.3945 101.975 99.379 101.767 99.4254C101.559 99.4331 101.373 99.4949 101.196 99.6107C101.019 99.7111 100.872 99.8424 100.764 100.012C100.625 100.159 100.532 100.337 100.486 100.537C100.394 100.931 100.417 101.379 100.64 101.727C100.864 102.074 101.165 102.306 101.566 102.437L101.559 102.43Z" fill="white"/>
<path d="M99.838 65.9011C94.8456 65.8238 88.6186 65.8624 85.4858 70.3185C83.9116 72.5503 85.9796 76.4967 88.8192 76.126C91.6588 75.7553 95.216 74.8672 98.2099 75.068L95.4783 73.9404C94.7684 73.0369 94.8764 75.0757 94.8533 75.2301C94.6835 76.3499 94.7607 77.5624 94.6527 78.6976C94.5215 80.1495 94.6064 83.2463 93.5492 84.3043C92.4072 85.4473 89.0044 85.9879 87.5306 86.4127C85.5861 86.9764 83.6261 87.4707 81.6894 88.0499C77.9933 89.1542 74.5518 90.9305 70.8712 92.0425C67.4914 93.0619 64.5052 93.1469 61.6888 95.51C63.8416 96.7611 65.9868 98.0122 68.1396 99.2633C69.2816 93.0002 69.3356 86.9378 68.3634 80.6438L65.6704 85.3933C73.9345 83.6788 83.4872 82.9683 91.1341 79.2691L87.2373 72.6044C82.8699 75.4695 78.4408 78.2729 74.1197 81.2075C70.9252 83.3776 67.8232 85.8798 67.2214 89.9188C66.7738 92.8998 68.8726 95.2861 71.9669 94.6683C74.8142 94.1045 77.6306 93.4635 80.447 92.7453C85.2543 91.5174 83.2172 84.0727 78.3945 85.3006C75.5858 86.0188 72.7616 86.6521 69.9143 87.2235L74.6598 91.973C75.1382 88.7758 79.143 87.1386 81.589 85.5323C84.7681 83.4471 87.9472 81.362 91.1263 79.2768C95.3086 76.5353 91.6896 70.4497 87.2296 72.6121C83.7419 74.3034 79.4439 74.6818 75.6861 75.4618C71.6659 76.2959 67.638 77.1299 63.6179 77.964C61.411 78.4196 60.624 80.7673 60.9249 82.7135C61.6734 87.5325 61.5808 92.4287 60.7011 97.2245C59.9912 101.094 64.1271 103.526 67.1519 100.978C68.8341 99.5645 72.7539 99.6108 74.8527 98.8308C77.8312 97.7265 80.694 96.4136 83.7496 95.5023C88.5491 94.0659 96.7901 93.1855 100.054 88.9071C101.651 86.8142 101.775 83.8024 102.091 81.2848C102.469 78.2806 102.925 74.9598 102.5 71.9325C101.536 65.0052 93.5338 67.7931 88.8115 68.4032L92.1449 74.2107C92.6542 73.4925 98.4568 73.5929 99.838 73.6161C104.807 73.6933 104.807 65.9706 99.838 65.8933V65.9011Z" fill="white"/>
<path d="M51.6653 99.2478L61.9434 99.3636C66.9126 99.4177 66.9126 91.695 61.9434 91.6409L51.6653 91.5251C46.696 91.471 46.696 99.1937 51.6653 99.2478Z" fill="white"/>
<path d="M48.9723 99.4407C50.2764 105.441 51.511 113.952 56.897 117.798C59.4279 119.605 62.6301 120.57 65.516 121.636C69.4436 123.088 73.4175 124.385 77.4299 125.567C82.2063 126.972 84.2434 119.528 79.4824 118.122C73.9345 116.485 67.7383 114.956 62.607 112.23C58.1779 109.874 57.3754 101.85 56.4108 97.3865C55.3614 92.5289 47.9152 94.5831 48.9723 99.4407Z" fill="white"/>
<path d="M55.9555 105.974C65.6317 110.268 72.2985 119.103 81.9825 123.397C88.2789 126.193 93.7883 116.879 87.4378 114.06C77.7617 109.766 71.0948 100.931 61.4109 96.6376C55.1144 93.842 49.605 103.156 55.9555 105.974Z" fill="white"/>
<path d="M57.5451 106.09C60.377 116.222 73.1551 122.64 82.3606 125.683C89.4519 128.023 92.4921 116.84 85.4394 114.516C82.0057 113.38 78.8266 111.851 75.8018 109.859C73.4406 108.307 69.513 105.874 68.7105 103.009C66.7043 95.842 55.5312 98.8848 57.5528 106.09H57.5451Z" fill="white"/>
<path d="M67.692 105.936C76.9823 111.643 85.5474 118.246 93.4334 125.783C98.8194 130.934 107.022 122.756 101.62 117.589C93.0476 109.395 83.6338 102.136 73.5409 95.9347C67.175 92.027 61.3569 102.036 67.6997 105.936H67.692Z" fill="white"/>
<path d="M79.876 104.978C89.4673 106.631 98.8966 108.948 108.156 111.929C115.263 114.222 118.303 103.04 111.235 100.762C101.975 97.7805 92.5461 95.456 82.9548 93.811C75.6707 92.56 72.5379 103.719 79.876 104.978Z" fill="white"/>
<path d="M88.3793 91.4554L87.6308 117.628C87.4147 125.088 98.9891 125.08 99.2052 117.628L99.9537 91.4554C100.17 83.9952 88.5953 84.0029 88.3793 91.4554Z" fill="white"/>
<path d="M103.441 103.379L113.851 103.572C116.976 103.626 119.638 100.869 119.638 97.7803C119.638 94.6912 116.991 92.0423 113.851 91.9883L103.441 91.7952C100.316 91.7412 97.6542 94.4982 97.6542 97.5873C97.6542 100.676 100.301 103.325 103.441 103.379Z" fill="white"/>
<path d="M48.548 100.275C48.3396 107.581 48.5634 114.948 53.8876 120.431C59.6131 126.316 67.175 129.274 74.4437 132.803C88.6108 139.669 103.457 146.117 119.484 142.372C126.737 140.673 123.666 129.506 116.405 131.205C104.205 134.054 92.3146 128.625 81.5581 123.42C76.041 120.756 69.459 118.516 64.6286 114.693C62.9465 113.365 61.2412 111.867 60.5776 109.867C59.6439 107.056 60.0375 103.163 60.1223 100.283C60.3384 92.8225 48.764 92.8302 48.548 100.283V100.275Z" fill="white"/>
<path d="M117.13 97.8887C115.926 103.766 114.923 118.47 124.206 118.47C131.907 118.47 134.283 106.561 136.367 100.993L125.001 99.4564C125.116 103.704 125.572 107.897 126.258 112.091C126.721 114.925 130.032 116.585 132.609 116.238C135.695 115.821 137.246 113.458 137.624 110.546C138.242 105.843 138.867 101.14 139.484 96.4291H127.91C128.195 101.032 128.581 105.627 129.669 110.114C130.757 114.601 138.165 116.114 140.248 111.496C141.76 108.137 143.041 104.762 143.944 101.194L132.578 99.6572C132.192 106.554 132.169 113.381 133.982 120.099C135.124 124.339 140.572 125.698 143.659 122.656C147.069 119.288 149.7 115.226 153.512 112.261C150.287 110.384 147.061 108.507 143.836 106.623C143.226 109.905 142.617 113.187 142 116.47C140.842 122.702 149.052 126.849 152.579 120.933C154.739 117.304 156.9 113.674 159.068 110.052C155.472 109.079 151.876 108.106 148.281 107.125C148.203 109.496 148.288 111.813 148.558 114.176C148.991 118.045 153.319 122.038 157.27 119.18C159.492 117.566 161.144 115.921 162.764 113.697L151.977 110.77C151.853 112.801 151.73 114.84 151.606 116.871C151.336 121.374 156.691 123.93 160.318 121.876C160.766 121.621 161.746 120.872 162.286 120.717L156.653 119.227C155.634 116.763 155.302 116.531 155.657 118.539C155.727 119.412 155.765 120.285 155.765 121.165C155.742 122.756 155.611 124.2 154.886 125.652L165.465 127.034C164.863 123.343 164.948 118.416 161.892 115.829C159.215 113.566 154.978 112.068 151.66 111.102C144.014 108.878 135.927 110.423 128.257 108.546C121.027 106.77 117.94 117.937 125.178 119.713C135.14 122.154 146.56 119.227 155.472 125.374L152.81 121.914C153.705 124.478 153.867 127.436 154.307 130.108C155.102 134.989 162.756 135.746 164.886 131.49C167.456 126.362 168.111 120.014 166.784 114.392C166.252 112.145 164.554 110.176 162.286 109.535C159.377 108.716 156.869 110.5 154.477 111.859L163.188 116.863C163.312 114.832 163.435 112.794 163.559 110.763C163.937 104.476 155.843 103.642 152.771 107.836C152.386 108.338 151.938 108.778 151.429 109.164C154.33 110.832 157.232 112.5 160.141 114.168C159.878 111.805 159.786 109.488 159.863 107.117C160.063 101.256 151.938 99.3869 149.075 104.19C146.915 107.82 144.754 111.45 142.586 115.072C146.112 116.562 149.639 118.045 153.165 119.536C153.775 116.253 154.384 112.971 155.001 109.689C156.113 103.704 149.901 100.499 145.325 104.051C141.513 107.009 138.882 111.079 135.472 114.446C138.697 115.296 141.922 116.153 145.148 117.002C143.605 111.295 143.828 105.488 144.16 99.634C144.531 93.0851 134.384 91.8109 132.794 98.0972C132.138 100.677 131.359 103.202 130.263 105.635L140.842 107.017C139.993 103.511 139.723 100.005 139.5 96.4137C139.021 88.7836 128.882 89.1697 127.925 96.4137C127.308 101.117 126.683 105.82 126.066 110.531L137.432 108.994C136.915 105.82 136.675 102.654 136.59 99.441C136.413 92.6527 127.47 91.9113 125.224 97.9041C124.422 100.043 123.604 102.175 122.755 104.299C122.416 105.148 122.092 106.005 121.721 106.839C121.575 107.241 121.389 107.635 121.173 108.005C120.556 109.025 121.058 108.716 122.678 107.086L127.138 107.673C129.252 109.071 127.941 106.785 127.91 105.326C127.879 103.866 128.002 102.43 128.303 100.962C129.792 93.6875 118.642 90.5753 117.146 97.881L117.13 97.8887Z" fill="white"/>
<path d="M157.208 123.096C154.778 124.069 152.339 124.779 149.77 125.266C143.427 126.455 144.793 137.22 151.305 136.641C156.637 136.17 161.784 135.213 165.604 131.15L157.417 122.957C154.677 126.409 148.528 125.675 144.585 125.961C138.195 126.432 131.806 126.957 125.41 127.366C119.422 127.752 113.773 127.567 107.925 126.162C105.278 125.528 102.662 124.795 100.046 124.045C98.7268 123.667 97.4073 123.296 96.1033 122.903C95.3548 122.679 92.9087 121.821 92.9396 121.891L93.526 126.355C90.0923 128.216 89.3592 129.042 91.3269 128.841C92.0599 128.818 92.8007 128.81 93.5337 128.81C95.0075 128.81 96.4813 128.841 97.9474 128.903C100.648 129.011 103.349 129.212 106.042 129.459C111.682 129.969 117.308 130.695 122.948 131.235C128.303 131.745 133.689 132.108 139.075 131.954C144.461 131.799 150.187 131.876 154.191 128.123C157.625 124.903 155.488 119.906 151.637 118.439C148.157 117.118 144.222 116.57 140.595 115.713C136.166 114.67 131.737 113.62 127.308 112.577C118.696 110.546 110.085 108.507 101.481 106.476L99.9459 117.852C103.009 117.651 106.073 117.458 109.136 117.257C111.906 117.08 115.093 117.319 117.624 116.022C123.033 113.249 121.69 105.967 120.093 101.279C117.701 94.2589 106.52 97.2785 108.935 104.36C109.391 105.689 110.201 107.519 109.892 108.971L112.554 105.511C111.652 106.113 107.878 105.75 106.844 105.82C104.545 105.967 102.245 106.113 99.9537 106.26C93.7421 106.662 91.7358 116.06 98.4181 117.636C107.029 119.667 115.641 121.706 124.244 123.737C128.427 124.725 132.609 125.714 136.791 126.702C140.665 127.621 144.847 128.185 148.566 129.598C147.717 126.37 146.861 123.142 146.012 119.914C145.595 120.308 142.648 120.176 142.007 120.215C140.055 120.339 138.103 120.393 136.151 120.385C132.725 120.369 129.299 120.176 125.888 119.898C119.013 119.335 112.184 118.392 105.309 117.79C101.397 117.45 97.469 117.203 93.5337 117.211C90.3855 117.211 87.191 117.242 84.6677 119.396C82.1445 121.551 81.5427 124.833 82.947 127.722C84.3514 130.61 87.2141 131.992 90.0228 133.066C102.662 137.885 115.556 139.669 128.982 138.688C136.166 138.163 143.358 137.699 150.534 137.105C156.035 136.649 161.946 135.761 165.604 131.143C170.11 125.459 162.648 117.388 157.417 122.949C155.812 124.656 153.551 124.849 151.305 125.049L152.841 136.425C155.41 135.939 157.849 135.228 160.279 134.255C163.165 133.097 165.233 130.386 164.323 127.127C163.551 124.378 160.133 121.906 157.201 123.08L157.208 123.096Z" fill="white"/>
<path d="M150.819 128.363C140.688 128.865 130.51 128.548 120.463 127.142C117.346 126.71 114.283 127.907 113.341 131.189C112.57 133.892 114.29 137.885 117.385 138.317C128.496 139.87 139.608 140.503 150.819 139.947C158.235 139.576 158.273 127.992 150.819 128.363Z" fill="white"/>
<path d="M113.581 142.958L115.394 143.105V131.521C113.804 131.591 112.3 131.791 110.803 132.332C104.622 134.548 105.71 143.229 112.338 143.708C118.967 144.186 125.41 143.167 131.899 142.92C137.91 142.696 143.913 141.908 149.006 138.464C155.148 134.317 149.361 124.277 143.165 128.463C138.89 131.343 134.036 131.243 129.059 131.421C123.473 131.621 117.933 132.517 112.331 132.116L113.866 143.491C114.345 143.221 114.846 143.09 115.379 143.097C122.886 142.75 122.763 132.1 115.379 131.513L113.565 131.367C106.142 130.772 106.181 142.364 113.565 142.951L113.581 142.958Z" fill="white"/>
<path d="M152.725 140.302C156.344 139.352 159.778 138.14 162.648 135.661C165.519 133.182 167.749 130.239 169.169 126.772C170.357 123.876 167.88 120.408 165.125 119.644C161.807 118.732 159.199 120.779 158.003 123.69C157.525 124.849 155.719 126.494 154.731 127.243C153.289 128.332 151.344 128.687 149.639 129.135C142.439 131.027 145.495 142.202 152.718 140.302H152.725Z" fill="white"/>
<path d="M168.189 93.5639C170.889 96.1587 170.334 99.0856 169.932 102.63C169.493 106.499 168.574 110.33 167.363 114.029C166.314 117.25 164.091 120.648 164.577 124.13C165.063 127.613 168.135 130.131 171.676 130.17C179.13 130.262 179.13 118.678 171.676 118.586H171.059C172.031 118.84 173.004 119.103 173.983 119.366L175.264 120.431L176.051 123.358C176.152 122.2 177.425 120.254 177.849 119.088C178.482 117.342 179.045 115.566 179.524 113.767C180.373 110.562 180.936 107.303 181.345 104.02C182.248 96.8151 181.9 90.691 176.376 85.3778C170.851 80.0645 162.803 88.3974 168.189 93.5716V93.5639Z" fill="white"/>
<path d="M143.512 31.4267C144.006 32.9249 144.754 34.3459 145.958 35.4116C146.521 35.9136 147.169 36.4465 147.864 36.7785C148.558 37.1106 149.315 37.4813 150.079 37.5971C150.85 37.8365 151.614 37.8752 152.386 37.6975C153.157 37.6589 153.875 37.435 154.539 37.0102C155.742 36.3074 156.884 34.9328 157.201 33.5504C157.54 32.0677 157.463 30.4073 156.614 29.0867C155.858 27.9051 154.608 26.6386 153.157 26.4223C152.864 26.376 152.594 26.2988 152.324 26.1906L153.705 26.7776C153.481 26.6695 153.281 26.5536 153.088 26.4069L154.261 27.3104C154.029 27.1251 153.829 26.9243 153.651 26.6926L154.554 27.8665C154.415 27.6657 154.292 27.4649 154.191 27.2409L154.778 28.6233C154.739 28.5306 154.708 28.4457 154.677 28.353C154.207 26.9243 153.335 25.6655 152.015 24.8932C150.773 24.1673 148.944 23.8584 147.555 24.3063C146.166 24.7542 144.801 25.6269 144.098 26.9706C143.396 28.3144 143.026 29.9516 143.512 31.4344V31.4267Z" fill="white"/>
<path d="M129.53 99.773C132.748 109.766 148.682 105.055 155.086 112.245C160.056 117.821 168.219 109.604 163.273 104.051C160.295 100.707 156.336 98.63 152.1 97.3094C147.864 95.9889 142.108 96.2823 138.273 93.9732L140.935 97.433L140.696 96.6916C138.419 89.6253 127.238 92.6449 129.538 99.773H129.53Z" fill="white"/>
<path d="M145.048 37.6125C144.423 41.2113 142.331 44.285 141.583 47.8375C140.665 52.1854 141.668 56.8422 145.858 59.0895C149.801 61.1978 155.032 60.4796 157.363 56.3711C159.485 52.6255 160.171 47.6058 161.337 43.4973C163.374 36.3151 152.208 33.2492 150.179 40.4159C149.6 42.4701 149.014 44.5321 148.435 46.5864C148.018 48.0614 147.818 49.9303 146.946 51.1042L149.021 49.0268L148.435 49.4129L151.359 48.6252C150.503 49.1735 150.974 49.8608 152.787 50.6871C152.903 50.3165 153.003 49.9458 153.103 49.5673C153.474 48.9727 153.636 48.0923 153.906 47.4359C154.824 45.2117 155.812 43.088 156.228 40.7016C156.761 37.6203 155.403 34.4617 152.185 33.5735C149.399 32.809 145.603 34.5234 145.063 37.6203L145.048 37.6125Z" fill="#EFAE79"/>
<path d="M158.713 51.969C166.159 51.969 166.175 40.3849 158.713 40.3849C151.251 40.3849 151.251 51.969 158.713 51.969Z" fill="#EFAE79"/>
<path d="M150.225 57.7302C152.594 57.9464 154.369 56.7494 156.63 56.5872L152.772 52.7258C152.27 57.2977 152.077 61.9005 152.393 66.4955C152.633 70.0866 153.643 72.8977 157.656 73.2606C162.602 73.7085 162.571 65.9858 157.656 65.5379L157.069 65.4838L159.801 66.6113C160.233 68.1559 160.333 68.1173 160.11 66.4878L160.04 65.2367C159.971 63.7771 159.955 62.3098 159.971 60.8502C160.002 58.1318 160.195 55.4288 160.488 52.7181C160.704 50.7411 158.543 48.7177 156.63 48.8568C154.515 49.0112 152.285 50.1928 150.225 49.9997C145.279 49.5441 145.318 57.2668 150.225 57.7225V57.7302Z" fill="#EFAE79"/>
<path d="M148.304 60.132C148.227 61.9932 148.041 63.8235 147.663 65.6461C147.494 66.4647 147.416 67.7003 146.977 68.3877C147.509 67.5536 146.251 68.9282 146.051 69.129C144.014 71.2451 144.947 74.7435 147.756 75.5853C150.565 76.427 153.435 76.7823 156.344 76.6278C161.283 76.3652 161.313 68.6425 156.344 68.9051C154.06 69.0286 152 68.797 149.808 68.1405L151.514 74.5967C153.342 72.6892 154.268 71.2991 154.909 68.6193C155.549 65.9395 155.912 62.9817 156.035 60.132C156.244 55.1663 148.528 55.174 148.319 60.132H148.304Z" fill="#EFAE79"/>
<path d="M148.859 62.0165C148.589 63.144 148.342 64.2792 148.026 65.399C147.779 66.2872 147.686 66.6192 147.162 67.1058L153.751 69.8396C153.682 68.9129 154.076 67.9167 154.322 66.9668C154.623 65.7929 154.924 64.619 155.225 63.4452C156.46 58.6262 149.021 56.5719 147.787 61.3909C147.115 64.0012 145.835 67.1212 146.043 69.8396C146.298 73.1836 150.071 74.9212 152.633 72.5735C155.032 70.3725 155.58 67.098 156.313 64.0785C156.807 62.0551 155.673 59.8927 153.62 59.329C151.568 58.7652 149.369 59.9931 148.875 62.0242L148.859 62.0165Z" fill="#EFAE79"/>
<path d="M116.135 95.1163C113.65 101.727 115.919 109.419 121.374 113.689C125.24 116.724 130.734 111.295 126.83 108.229C125.155 106.917 123.967 105.889 123.403 103.781C122.778 101.449 122.717 99.441 123.573 97.1705C125.325 92.5137 117.871 90.5058 116.135 95.1163Z" fill="#EFAE79"/>
<path d="M120.471 100.507C120.464 104.175 120.95 107.835 121.914 111.372C123.226 116.161 130.672 114.129 129.353 109.318C128.558 106.407 128.172 103.526 128.18 100.507C128.195 95.5331 120.479 95.5331 120.464 100.507H120.471Z" fill="#EFAE79"/>
<path d="M123.465 96.9156C123.689 101.402 124.19 105.858 124.893 110.291C125.217 112.353 127.786 113.496 129.638 112.987C131.83 112.384 132.663 110.307 132.331 108.237C131.737 104.484 131.374 100.707 131.181 96.9078C130.934 91.9653 123.211 91.9344 123.465 96.9078V96.9156Z" fill="#EFAE79"/>
<path d="M126.428 99.5798C126.76 104.638 128.882 110.87 134.06 112.747C136.019 113.458 138.288 111.944 138.805 110.052C139.392 107.905 138.08 106.013 136.112 105.302C136.907 105.588 136.174 105.271 135.989 104.901C135.68 104.283 135.248 103.735 134.97 103.086C134.492 101.982 134.222 100.769 134.144 99.5721C134.006 97.4946 132.47 95.7107 130.286 95.7107C128.303 95.7107 126.289 97.4792 126.428 99.5721V99.5798Z" fill="#EFAE79"/>
<path d="M119.63 112.932C124.036 118.23 130.634 116.632 136.637 116.114C139.962 115.828 143.296 115.72 146.629 115.798C148.203 115.836 150.31 115.566 151.699 116.469C152.71 117.126 153.505 118.585 154.4 119.42C158.019 122.818 163.489 117.365 159.855 113.96C158.165 112.376 156.923 110.345 154.809 109.249C152 107.797 148.265 108.067 145.202 108.044C141.868 108.021 138.535 108.175 135.217 108.515C131.899 108.855 127.485 110.345 125.086 107.465C121.906 103.642 116.474 109.125 119.63 112.925V112.932Z" fill="#EFAE79"/>
<path d="M138.62 112.546C142.64 111.627 148.142 113.62 151.954 114.925C153.998 115.628 154.824 116.307 155.549 118.462C156.275 120.616 156.591 123.126 156.761 125.466C157.116 130.393 164.832 130.432 164.477 125.466C164.037 119.319 163.134 111.728 157.039 108.654C151.39 105.812 142.825 103.665 136.583 105.094C131.745 106.198 133.789 113.651 138.635 112.538L138.62 112.546Z" fill="#EFAE79"/>
<path d="M161.236 128.146C166.198 128.146 166.213 120.423 161.236 120.423C156.259 120.423 156.259 128.146 161.236 128.146Z" fill="#EFAE79"/>
<path d="M168.32 93.5253C172.008 104.198 169.192 115.373 168.42 126.285C168.065 131.243 175.781 131.22 176.136 126.285C176.97 114.616 179.709 102.893 175.766 91.4788C174.153 86.8066 166.699 88.8145 168.327 93.5331L168.32 93.5253Z" fill="#EFAE79"/>
<path d="M174.192 92.9383C173.737 103.202 172.633 113.388 170.82 123.505C169.948 128.363 177.386 130.448 178.258 125.559C180.187 114.771 181.422 103.889 181.9 92.9383C182.116 87.9726 174.4 87.9803 174.184 92.9383H174.192Z" fill="#EFAE79"/>
<path d="M61.8662 75.1602C59.9989 79.7321 65.5392 81.516 66.9127 78.9907C67.0361 78.7667 66.9513 78.4887 66.7275 78.3651C66.6195 78.3111 66.496 78.2956 66.388 78.3265C65.4003 78.6046 64.3895 79.037 63.4558 78.3497C62.5761 77.6469 62.2598 76.4576 62.6765 75.4151C62.7459 75.1911 62.6224 74.9594 62.4064 74.8822C62.1826 74.8127 61.9511 74.9362 61.874 75.1525L61.8662 75.1602Z" fill="#6F93FC"/>
<path d="M61.9357 88.9763C62.5453 89.5632 64.1271 89.8799 64.6904 89.069C64.8293 88.8682 64.6673 88.6597 64.4821 88.5902C64.1348 88.5129 63.7799 88.4975 63.4249 88.5438C63.0546 88.4975 62.6842 88.428 62.3215 88.3353C62.1132 88.2735 61.8971 88.3971 61.8431 88.5979C61.8045 88.7292 61.8431 88.8759 61.9357 88.9763Z" fill="#6F93FC"/>
<path d="M62.3678 95.3321C62.9697 95.4789 63.6024 95.4325 64.1812 95.2163C64.3818 95.0927 64.4512 94.8301 64.3278 94.6216C64.2892 94.5599 64.2429 94.5135 64.1812 94.4749C63.6024 94.2587 62.9697 94.22 62.3678 94.3591C62.1055 94.4363 61.9512 94.7143 62.0283 94.9846C62.0746 95.1468 62.2058 95.2781 62.3678 95.3244V95.3321Z" fill="#6F93FC"/>
<path d="M62.4835 101.479C62.9928 101.557 63.5098 101.503 63.9959 101.34C64.1965 101.217 64.2659 100.954 64.1425 100.746C64.1039 100.684 64.0576 100.638 63.9959 100.599C63.5098 100.437 62.9928 100.383 62.4835 100.46C62.2057 100.46 61.9819 100.684 61.9819 100.97C61.9819 101.248 62.2057 101.472 62.4835 101.472V101.479Z" fill="#6F93FC"/>
<path d="M66.0331 56.5332C66.0871 50.911 66.4883 45.2194 66.4652 39.5972C66.4652 39.2728 65.9405 39.1879 65.8942 39.5277C65.2151 45.1807 65.0608 50.8801 65.4389 56.5563C65.4466 56.7185 65.5932 56.8421 65.7553 56.8344C65.9173 56.8266 66.0408 56.6876 66.0331 56.5332Z" fill="#6F93FC"/>
<path d="M147.656 60.0159C146.992 63.1359 146.413 66.2482 145.703 69.3759C145.58 69.901 146.39 70.1327 146.506 69.6076C147.169 66.5571 148.111 63.3444 148.18 60.2013C151.028 61.0044 154.075 60.85 156.159 59.1433C156.413 58.9347 156.082 58.5409 155.812 58.6876C153.412 59.8074 150.688 60.0391 148.134 59.3286C148.08 59.2359 147.964 59.205 147.864 59.2514C145.271 58.5177 142.987 56.95 141.969 54.6409C140.811 51.9997 141.753 48.8334 142.293 46.1536C142.979 43.3425 143.921 40.601 145.109 37.9598C145.155 37.8208 144.924 37.7281 144.878 37.8671C143.311 41.0875 142.123 44.47 141.328 47.9607C140.734 50.7641 140.209 53.8068 142.038 56.2704C143.496 58.0466 145.456 59.3441 147.656 60.0082V60.0159Z" fill="#191919"/>
<path d="M148.543 45.2425C147.447 46.2156 146.583 47.4126 145.997 48.7563C145.588 49.8375 147.285 50.1773 148.011 50.5017C148.52 50.7256 148.967 49.9843 148.443 49.7448C147.903 49.5981 147.386 49.3742 146.907 49.0807C146.745 48.8722 146.768 48.9649 146.953 48.6637C147.092 48.432 147.208 48.1849 147.339 47.9532C147.825 47.1268 148.42 46.3468 148.898 45.4973C149.014 45.2888 148.713 45.0803 148.528 45.2425H148.543Z" fill="#191919"/>
<path d="M148.319 53.5212C148.088 53.6061 148.18 53.9537 148.412 53.8919C151.421 53.0655 151.251 52.7335 152.1 52.4941C152.795 52.301 152.718 52.4709 152.694 53.1582C152.664 54.1853 152.671 55.6295 151.846 56.3941C150.418 57.7146 149.569 55.6141 148.96 54.6719C148.859 54.5406 148.674 54.5174 148.551 54.6178C148.443 54.7028 148.404 54.8418 148.458 54.9653C148.937 56.1006 149.67 57.6838 151.167 57.4443C152.494 57.2281 153.08 55.8844 153.227 54.6719C153.389 53.7992 153.389 52.9034 153.227 52.0307C153.134 51.7759 153.134 51.6446 152.841 51.5751C152.378 51.4669 151.599 52.1465 151.213 52.3319C150.271 52.7875 149.299 53.1582 148.327 53.5289L148.319 53.5212Z" fill="#191919"/>
<path d="M152.146 44.8022C152.27 45.1033 152.586 45.2732 152.903 45.2192C153.296 45.1574 153.543 44.779 153.728 44.4392C153.998 43.9295 154.438 42.717 153.589 42.4853C152.81 42.2228 151.737 43.8909 152.146 44.8022Z" fill="#191919"/>
<path d="M146.182 44.2076C146.56 44.084 146.861 43.7983 147.007 43.4276C147.277 42.9179 147.717 41.7054 146.868 41.4737C146.089 41.2111 145.024 42.8638 145.426 43.8137C145.557 44.0994 145.873 44.2616 146.182 44.1998V44.2076Z" fill="#191919"/>
<path d="M154.322 40.2845C154.778 40.5625 154.924 41.0181 155.31 41.3425C155.472 41.4815 155.796 41.4583 155.835 41.2035C156.051 39.9678 153.844 38.7013 152.88 39.5508C152.802 39.628 152.802 39.7516 152.88 39.8211C152.903 39.8443 152.934 39.8597 152.972 39.8674C153.435 39.9524 153.89 40.0914 154.322 40.2845Z" fill="#191919"/>
<path d="M147.609 38.6549C146.838 38.4077 145.696 38.3923 145.225 39.18C145.171 39.2881 145.217 39.4271 145.325 39.4812C145.372 39.5044 145.426 39.5121 145.48 39.4966C145.804 39.4117 146.074 39.2263 146.398 39.1491C146.761 39.0487 147.146 39.0333 147.524 39.1028C147.656 39.1105 147.764 39.0101 147.771 38.8788C147.771 38.7707 147.71 38.678 147.609 38.6394V38.6549Z" fill="#191919"/>
<path d="M151.869 116.647C147.331 114.484 142.285 115.241 137.516 116.006C131.922 116.902 125.41 117.797 120.826 113.619C116.374 109.557 115.579 103.217 116.173 97.533C116.189 97.3476 115.88 97.3013 115.849 97.4866C114.082 110.492 120.533 117.195 129.329 117.566C135.178 117.813 140.858 115.55 146.706 116.075C149.345 116.253 151.861 117.249 153.906 118.917C156.444 121.126 156.876 124.169 157.046 127.381C157.069 127.837 157.779 127.86 157.779 127.381C157.733 122.655 156.359 118.794 151.861 116.647H151.869Z" fill="#191919"/>
<path d="M157.417 116.006C159.724 120.732 160.295 123.258 159.94 128.972C159.94 129.104 160.048 129.204 160.171 129.204C160.272 129.204 160.364 129.135 160.395 129.042C161.228 124.455 160.279 119.728 157.733 115.828C157.679 115.743 157.563 115.72 157.478 115.774C157.401 115.828 157.37 115.929 157.417 116.014V116.006Z" fill="#191919"/>
<path d="M160.256 115.272C161.545 119.512 162.641 123.397 162.293 127.868C162.278 128.123 162.664 128.169 162.725 127.938C163.837 124.115 162.54 118.539 160.55 115.156C160.503 115.079 160.403 115.056 160.326 115.11C160.272 115.149 160.241 115.21 160.256 115.272Z" fill="#191919"/>
<path d="M155.565 107.604C149.739 105.241 142.655 103.472 136.259 104.507C136.259 104.461 136.282 104.414 136.259 104.368C135.433 102.352 133.944 100.761 134.129 98.4213C134.152 98.1665 133.782 98.1896 133.759 98.4213C133.597 100.661 134.314 102.87 135.757 104.592C135.225 104.684 134.692 104.808 134.175 104.962C134.083 104.986 134.021 105.086 134.052 105.179C134.075 105.271 134.175 105.333 134.268 105.302C140.665 103.765 147.679 105.503 153.736 107.642C161.306 110.314 163.613 115.079 164.238 123.041C164.238 123.18 164.361 123.289 164.5 123.281C164.631 123.281 164.732 123.173 164.739 123.041C165.226 116.477 161.715 110.098 155.565 107.596V107.604Z" fill="#191919"/>
<path d="M85.2696 43.4971C85.478 43.5512 85.6863 43.4199 85.7326 43.2191C85.7635 43.0878 85.7326 42.9488 85.6323 42.8562C84.3205 41.7364 82.5612 41.0259 81.072 40.1686C80.91 40.076 80.7016 40.0991 80.5704 40.2381C78.9886 41.8213 77.5071 43.5049 76.1259 45.2656C75.9947 45.451 76.2879 45.6595 76.45 45.5205C76.5271 45.451 80.8251 41.2421 80.9408 41.0722C82.3375 41.968 83.7881 42.7789 85.2774 43.5049L85.2696 43.4971Z" fill="#191919"/>
<path d="M91.1186 41.3191C92.9165 39.7282 94.591 38.0138 96.1419 36.1758C97.6157 37.3033 99.1744 38.3227 100.795 39.2263C101.134 39.3653 101.458 38.8169 101.165 38.5853C99.6297 37.3728 97.8781 36.392 96.2577 35.2568C96.0956 35.1486 95.8796 35.1795 95.7561 35.3263C93.9351 37.0871 92.2452 38.9714 90.6865 40.9716C90.5013 41.2419 90.918 41.4967 91.1264 41.3191H91.1186Z" fill="#191919"/>
<path d="M91.3192 53.7529C91.4812 53.5521 91.3423 53.1119 91.0182 53.2509C88.3098 54.3707 85.2619 55.2048 82.3066 54.2162C82.0288 54.1236 81.8899 54.5174 82.1214 54.6719C84.0659 56.0234 89.9225 55.5059 91.3115 53.7529H91.3192Z" fill="#191919"/>
<path d="M106.111 91.2468C105.949 91.2545 105.818 91.3936 105.826 91.5635C105.826 91.7179 105.957 91.8415 106.111 91.8492C108.542 91.8492 110.973 91.7797 113.38 91.7334C113.496 91.7334 113.588 91.6407 113.588 91.5248C113.588 91.409 113.496 91.3163 113.38 91.3163C110.973 91.27 108.542 91.2468 106.111 91.2468Z" fill="#191919"/>
<path d="M154.531 136.726C137.161 138.247 119.754 139.298 102.307 138.68C92.7236 138.34 82.7233 137.776 73.9036 133.652C59.3661 126.864 48.5016 110.978 48.7331 93.0154C48.7563 92.7142 48.7794 92.3975 48.8026 92.0963C52.5604 92.05 56.3182 91.6407 60.0838 91.5017C60.2304 97.0157 60.1301 101.642 60.4927 106.121C60.5082 106.329 60.6702 106.499 60.8862 106.507C59.1192 107.078 58.0775 108.584 57.2828 110.662C57.2442 110.77 57.3831 110.994 57.4448 111.056C57.7997 111.411 58.2319 111.674 58.7025 111.836C59.0961 111.975 59.6902 112.183 60.0297 111.836C60.1223 111.735 60.1455 111.589 60.076 111.465C60.7396 110.569 61.3569 109.527 62.7382 109.951C63.8879 110.376 64.7521 111.341 65.053 112.523C65.1302 112.708 65.2922 112.847 65.4851 112.894C66.3416 112.963 67.1904 112.755 67.9158 112.299C68.0084 112.253 68.0855 112.168 68.1241 112.067C68.2707 112.029 68.371 111.897 68.3787 111.743C68.2553 110.129 67.5994 108.608 66.5191 107.403C66.5809 107.341 66.6117 107.256 66.6117 107.171C66.8895 105.287 67.1133 103.387 67.2985 101.456C68.2939 101.456 73.865 99.6646 74.3125 99.5256C73.9499 102.947 73.7801 106.383 73.7878 109.828C73.6721 113.403 73.1705 117.218 73.5332 120.771C73.5409 120.856 73.5872 120.925 73.6489 120.979C73.6489 121.968 73.6027 122.933 73.5101 123.914C73.5101 124.153 73.703 124.347 73.9422 124.347C76.1799 124.153 78.4253 124.138 80.663 124.3C80.91 124.3 81.1106 124.099 81.1106 123.852C81.1106 123.775 81.0874 123.698 81.0566 123.636C79.984 122.053 78.433 120.856 76.6351 120.215C76.7586 119.96 78.8343 100.9 78.8343 98.0737C80.7865 97.4791 86.9981 95.5021 88.1401 95.1159C87.7774 98.5526 87.6 102.005 87.6154 105.464C87.4996 109.048 86.9981 112.855 87.3607 116.408C87.3685 116.492 87.4148 116.562 87.4765 116.616C87.4765 117.605 87.4302 118.57 87.3376 119.551C87.3376 119.79 87.5305 119.983 87.7697 119.983C90.0074 119.79 92.2529 119.775 94.4906 119.937C94.7375 119.937 94.9381 119.736 94.9381 119.489C94.9381 119.412 94.915 119.334 94.8841 119.273C93.8115 117.69 92.2606 116.492 90.4627 115.852C90.6247 115.535 92.9242 93.9421 92.6155 93.6409C94.6758 92.9767 96.7206 92.2894 98.7577 91.6253C98.804 93.8726 98.8271 96.1662 99.0818 98.3904C99.0895 98.4831 99.1281 98.5757 99.1975 98.6452C97.3996 99.5179 96.1419 101.217 95.8255 103.186C95.8023 103.279 95.8409 103.379 95.9181 103.441C96.1496 104.013 97.0447 104.198 97.5925 104.198C97.77 104.198 97.9166 104.036 97.9089 103.858C97.9089 103.812 97.8934 103.758 97.8703 103.719C98.2638 102.931 98.9351 102.321 99.7531 101.997C101.335 101.418 101.906 102.646 102.299 103.928C102.346 104.105 102.508 104.229 102.685 104.229C102.708 104.229 102.708 104.252 102.732 104.252C103.411 104.391 104.12 104.237 104.684 103.819C104.915 103.866 105.147 103.719 105.193 103.48C105.208 103.418 105.201 103.348 105.193 103.287C104.954 102.043 104.792 100.205 103.912 99.2244C103.742 99.0468 103.549 98.8924 103.341 98.7688C105.448 88.8296 107.238 78.512 106.867 68.2948C110.216 65.059 105.571 57.4753 100.309 61.3444C100.054 61.5297 100.262 61.939 100.563 61.7769C102.84 60.5258 105.178 60.6957 106.543 63.1283C107.701 65.1903 107.122 67.0978 105.239 68.403C105.07 68.5034 105.016 68.7196 105.124 68.8895C105.208 69.0208 105.363 69.0903 105.517 69.044C105.795 68.9745 106.065 68.8663 106.32 68.7196C105.602 78.5738 105.887 76.6586 104.877 85.2617H104.854C103.997 85.5166 103.827 85.7096 102.886 85.4007C103.295 80.9988 103.141 83.1766 103.549 78.3808C104.174 78.736 104.954 78.6974 105.54 78.2881C105.625 78.1954 105.617 78.0564 105.525 77.9792C105.494 77.9483 105.448 77.9251 105.401 77.9251C104.815 78.0564 104.205 78.0255 103.634 77.8324C103.418 77.8324 104.414 69.9244 104.367 63.862C104.367 63.7153 104.244 63.6071 104.105 63.6071C104.105 63.6071 104.105 63.6071 104.097 63.6071C104.074 63.6071 104.074 63.584 104.051 63.584C102.886 63.1052 101.551 62.9044 100.34 62.526C99.3441 62.1939 98.3333 61.9081 97.3147 61.6765C97.091 61.607 96.8517 61.607 96.628 61.6765C93.3563 62.2866 90.1463 63.1747 87.0289 64.3331C87.0135 63.1592 86.9286 61.9854 86.7743 60.8192C92.5769 59.5064 98.1172 57.2127 103.141 54.0309C103.318 53.9151 103.472 53.7606 103.573 53.5753C105.401 47.4821 106.404 34.477 106.783 28.1057C106.798 27.8895 106.636 27.7041 106.428 27.6887C106.397 27.6887 106.358 27.6887 106.327 27.6887C104.306 26.7697 102.168 26.1364 99.9768 25.8043C99.892 25.6267 99.6913 25.534 99.4984 25.5726C94.5446 26.5148 89.6602 27.7736 84.8684 29.3413C84.7295 29.3877 84.6523 29.5344 84.6986 29.6734C84.7372 29.8047 84.8761 29.8819 85.0073 29.851C89.8762 28.8625 99.6219 26.4994 99.8842 26.3604C101.034 26.8006 100.949 26.6847 104.514 27.9667C96.7129 29.6734 78.5256 34.4461 70.9251 37.2108C69.1041 36.4076 67.1827 35.8362 65.2151 35.5118C70.6936 34.0213 76.0256 31.8667 81.6044 30.6928C81.8128 30.6465 81.7665 30.299 81.5581 30.3221C78.7108 30.6542 75.9638 31.6504 73.2091 32.4304C70.2306 33.2799 67.2059 34.0136 64.266 35.0021C63.9573 35.1488 63.749 35.4577 63.7413 35.8053C63.2474 40.9718 61.8508 53.3359 63.0777 59.0276C63.1008 59.1202 63.1548 59.1897 63.2397 59.2361C64.5901 61.2131 68.1473 61.7846 70.2306 62.4487C70.3078 62.4719 70.385 62.4719 70.4621 62.4487C73.973 62.804 77.5148 62.665 80.9871 62.0394C80.7325 63.2905 80.6939 64.5802 80.8714 65.8467C79.3281 65.8467 73.7801 67.7002 72.4838 68.0941C70.0223 68.7659 67.6148 69.6 65.2614 70.5962C64.1425 70.4881 63.0314 70.8356 62.1672 71.5616C62.0514 71.6697 62.0514 71.855 62.1672 71.9709C62.2597 72.0635 62.4064 72.0867 62.5221 72.0249C64.6904 70.604 68.1781 71.8396 69.1272 74.0869C70.1766 76.5891 69.5439 79.8249 67.1364 81.3154C64.9141 82.69 61.2952 82.7364 59.8677 80.2342C58.5174 77.8711 59.3121 74.1564 61.2412 72.3184C61.4264 72.1408 61.1718 71.8087 60.9634 71.9477C57.9927 73.9556 57.3059 79.8558 60.3693 82.1108C60.1146 85.0455 60.0297 87.9956 60.1146 90.9457C56.3337 90.8993 52.5295 91.3627 48.7409 91.3781C48.6637 91.3781 48.5865 91.3781 48.5094 91.4013C48.3473 91.4476 48.2624 91.6175 48.3087 91.7797C48.3242 91.8415 48.3628 91.8956 48.4168 91.9342C48.0541 94.5753 47.8381 97.232 47.7532 99.8963C47.514 102.831 47.5371 105.781 47.8226 108.708C47.8226 108.832 47.9229 108.94 48.0541 108.94C48.1776 108.94 48.2856 108.839 48.2856 108.708C48.3396 105.881 48.1853 103.063 48.2624 100.244C48.2933 99.2785 48.355 98.3363 48.4013 97.3787C49.389 111.488 57.8538 124.903 69.9297 132.162C78.2093 137.135 87.8546 138.479 97.3533 139.02C112.963 139.916 138.882 139.39 154.6 137.112C154.94 137.159 154.87 136.672 154.577 136.695L154.531 136.726ZM66.3648 102.036C64.9682 102.368 64.2274 103.078 61.2721 102.36C61.2258 100.568 61.1563 98.7765 61.0869 96.9926C62.3986 97.9039 65.6703 97.8498 66.6812 97.1779C66.6117 98.7842 66.496 100.414 66.3571 102.043L66.3648 102.036ZM66.7815 96.0272C66.6812 96.0272 66.5886 96.0813 66.5268 96.1662C65.354 97.3787 62.4681 96.7841 61.0869 96.1662C61.0637 95.4557 61.0174 91.5326 61.0174 90.2661C62.5298 91.4785 65.5314 92.3512 67.0207 90.768C66.9512 92.5365 66.8586 94.2819 66.766 96.0195L66.7815 96.0272ZM61.3029 103.094C62.9079 103.673 64.6595 103.665 66.2568 103.07C66.1179 104.352 65.979 105.619 65.8015 106.878C64.3663 106.237 62.769 106.082 61.2412 106.422C61.3878 106.268 61.3801 106.329 61.3029 103.094ZM67.6071 111.511C67.067 111.797 66.5037 112.021 65.9095 112.175C65.3154 110.801 64.212 109.349 62.607 109.171C61.2798 109.025 60.0375 109.874 59.6979 111.172C59.0652 111.11 58.4556 110.917 57.9078 110.6C59.0343 108.469 60.2227 106.878 62.9542 107.086C64.4434 107.202 65.6703 107.441 66.5037 108.808C66.9512 109.673 67.3216 110.585 67.5994 111.519L67.6071 111.511ZM76.1567 116.863C75.987 116.917 75.7555 117.435 74.5749 116.84C74.6212 115.689 74.6212 114.523 74.6443 113.349C75.2694 113.527 75.9252 113.527 76.5503 113.349C76.4114 114.539 76.2956 115.689 76.1645 116.863H76.1567ZM76.6583 112.16C76.1259 112.701 75.3079 112.824 74.6443 112.461C74.6443 111.326 74.7369 108.901 74.8064 107.55C75.5626 107.82 76.3882 107.858 77.1676 107.642C76.9824 109.179 76.8203 110.67 76.666 112.16H76.6583ZM77.2756 106.607C76.7123 107.171 75.5857 107.086 74.8218 106.816C74.8913 105.603 74.9376 104.406 74.9607 103.194C75.8018 103.626 76.7972 103.657 77.6691 103.263C77.5534 104.383 77.4145 105.488 77.2833 106.615L77.2756 106.607ZM79.7525 123.428C77.9855 123.35 76.2185 123.366 74.4592 123.474C74.5286 122.74 74.5518 122.03 74.5518 121.296C74.6135 121.234 74.6521 121.149 74.6675 121.064C76.6197 120.67 78.4716 121.96 79.7602 123.428H79.7525ZM75.8095 120.145C75.2539 120.122 74.6984 120.246 74.2045 120.516C74.3588 119.605 74.4669 118.686 74.5286 117.759C74.9993 117.983 75.5317 118.037 76.041 117.921C75.9715 118.655 75.9021 119.389 75.8095 120.145ZM77.8003 102.499C77.345 102.522 76.8898 102.592 76.4499 102.707C75.9484 102.692 75.4545 102.607 74.9839 102.453C75.007 101.425 74.9684 100.398 74.8681 99.3789C74.953 99.348 78.3096 98.3286 78.4022 98.2977C78.1707 99.7032 77.9932 101.101 77.808 102.499H77.8003ZM89.9766 112.546C89.7914 112.716 89.3207 112.948 88.3947 112.523C88.441 111.349 88.441 110.206 88.4642 109.032C89.0892 109.21 89.7451 109.21 90.3701 109.032C90.2312 110.222 90.1155 111.372 89.9843 112.546H89.9766ZM90.4781 107.843C90.3624 108.028 89.7219 108.546 88.4642 108.144C88.4642 107.009 88.5568 104.584 88.6262 103.233C89.3824 103.503 90.208 103.541 90.9874 103.325C90.8022 104.862 90.6402 106.353 90.4858 107.851L90.4781 107.843ZM88.6648 102.491C88.7342 101.279 88.7805 100.082 88.8037 98.8692C89.6448 99.3017 90.6402 99.3326 91.5121 98.9387C91.1803 101.642 91.1263 102.182 91.0877 102.283C90.9874 102.553 89.9303 102.955 88.6725 102.491H88.6648ZM93.5723 119.103C91.8053 119.026 90.0383 119.041 88.279 119.149C88.3484 118.415 88.3716 117.705 88.3716 116.971C88.4333 116.91 88.4719 116.825 88.4873 116.74C90.4395 116.33 92.2914 117.635 93.5801 119.103H93.5723ZM89.6293 115.821C89.0738 115.797 88.5182 115.921 88.0243 116.191C88.1787 115.28 88.2867 114.361 88.3484 113.434C88.8191 113.658 89.3515 113.712 89.8608 113.596C89.7914 114.33 89.6293 115.821 89.6293 115.821ZM91.597 98.1664C90.6865 98.3518 90.6093 98.6761 88.7805 98.1201C88.7805 97.1316 88.7805 96.1508 88.7111 95.1623C88.7111 94.8456 87.9703 95.2627 92.1988 93.8571C91.9905 95.309 91.8053 96.7532 91.6047 98.1819L91.597 98.1664ZM104.321 103.163C104.213 103.163 104.36 103.171 103.125 103.665C102.647 102.537 101.937 101.163 100.509 101.279C99.1126 101.402 97.9089 102.321 97.415 103.642C97.0524 103.642 96.7051 103.541 96.3888 103.364C96.9598 101.364 98.2715 99.5102 100.471 99.209C101.798 99.0236 103.11 99.348 103.681 100.653C103.974 101.464 104.182 102.306 104.321 103.155V103.163ZM99.8534 98.5062C99.9537 97.1702 99.9305 95.8264 99.7839 94.4904C100.903 94.946 102.137 95.0464 103.318 94.7684C103.063 96.0041 102.816 97.2474 102.562 98.4831C101.674 98.2514 100.741 98.2591 99.8534 98.5062ZM104.807 86.0726C104.437 88.6906 103.982 91.3009 103.48 93.8957C102.253 94.2896 100.926 94.251 99.7222 93.7799C99.6296 92.9999 99.537 92.2431 99.4444 91.4863C100.247 91.2082 101.073 90.9611 101.875 90.6831C102.076 90.629 102.207 90.4282 102.176 90.2274C102.515 88.8914 102.739 87.5245 102.84 86.1421C103.472 86.4279 104.198 86.4047 104.807 86.0726ZM64.1811 36.0601C66.2182 36.6548 68.263 37.2108 70.2769 37.9445C69.6596 43.8292 69.0038 56.5177 69.9297 61.5066C67.8695 60.6339 65.5932 60.3559 63.7413 59.0044C64.0191 55.2589 62.8616 55.8535 64.1734 36.0601H64.1811ZM70.7631 62.0317C70.7708 60.1087 70.6782 58.1858 70.4853 56.2705C70.2461 50.1541 70.331 44.0223 70.7399 37.9136C70.8788 37.9136 82.4532 34.5387 88.2095 33.0019C94.0816 31.4419 99.9923 30.0673 105.911 28.6231C104.769 45.9607 103.681 46.0533 103.048 53.1506C102.932 53.2201 102.84 53.2896 102.724 53.3591C88.4333 62.024 76.2107 61.5143 70.7631 62.0317ZM86.2187 61.0664C85.9101 62.8735 85.8869 64.7115 86.1493 66.5263C84.3977 68.0477 82.7541 67.1982 81.8359 67.0283C81.7202 65.3525 81.8128 63.6766 81.7433 62.0008C83.2788 61.7228 84.7681 61.4062 86.211 61.0586L86.2187 61.0664ZM66.4342 70.8665C68.6565 70.3182 70.8325 69.5305 73.0162 68.8895C75.6243 68.125 78.379 67.6075 80.9022 66.6422C80.9562 67.0206 80.8868 67.4067 81.2726 67.5149C83.0088 68.6887 85.3314 68.5111 86.8669 67.0824C87.0212 66.9588 87.0521 66.7349 86.9364 66.5804C86.9827 66.1016 87.0058 65.5687 87.0289 65.0436C90.2852 64.364 96.7977 62.5414 97.2993 62.5414C98.7885 63.1901 100.316 63.723 101.883 64.1477C100.463 64.6652 103.187 63.7925 87.4148 68.5729C81.589 70.3414 75.7941 72.2412 69.8988 73.8012C69.297 72.3107 68.0006 71.214 66.4342 70.8665ZM70.1458 74.3804C72.561 73.9711 74.9376 73.3687 77.2524 72.5655C77.3296 72.5424 103.434 64.5802 103.758 64.5802C103.75 64.6574 101.443 89.8104 101.443 89.8876C100.71 90.1425 78.6722 97.2165 75.8095 98.1201C73.0085 99.0005 70.0763 99.7496 67.3525 100.877C67.9235 94.5213 68.155 88.1423 68.0624 81.7633C70.2229 79.9716 71.0486 77.037 70.1458 74.3727V74.3804ZM67.53 82.2035C67.3216 84.8215 67.1827 87.455 67.0747 90.0962C66.9435 89.9649 66.7275 89.9572 66.5963 90.0962C66.5886 90.1039 66.5809 90.1116 66.5731 90.1193C65.3 91.6021 62.5144 90.5518 61.164 89.7486C61.1255 89.7332 61.0869 89.7255 61.0483 89.7255C61.0483 87.316 61.0251 84.9296 60.84 82.5433C62.7922 83.6708 65.5855 83.3928 67.5377 82.1958L67.53 82.2035Z" fill="#191919"/>
<path d="M152.787 141.56C137.347 142.889 121.953 143.869 106.451 143.645C98.2408 143.53 89.8764 143.352 81.8283 141.63C64.9683 138.016 53.5482 126.246 48.4014 109.92C48.3706 109.828 48.2625 109.781 48.1699 109.812C48.0851 109.843 48.0388 109.928 48.0542 110.013C51.65 124.37 62.2367 135.938 76.2108 140.78C84.3515 143.506 93.1095 143.939 101.613 144.202C116.027 144.634 138.736 144.117 152.872 142.047C153.127 142.024 153.08 141.537 152.779 141.568L152.787 141.56Z" fill="#191919"/>
<path d="M178.073 100.56C178.058 100.352 177.749 100.352 177.772 100.56C178.227 109.99 177.085 119.149 176.075 128.486C176.044 128.741 176.445 128.787 176.507 128.555C178.42 119.357 178.945 109.92 178.065 100.56H178.073Z" fill="#191919"/>
<path d="M155.588 23.5105C143.759 19.904 141.907 30.8162 144.307 35.1641C146.706 39.5198 156.599 38.0293 156.599 38.0293C159.099 37.9366 161.406 42.4544 160.287 45.8061C159.361 48.5786 162.1 49.1578 163.042 49.2736C163.158 49.5362 163.173 49.8296 163.088 50.0999C162.756 51.2043 160.958 51.3356 160.086 50.9494C159.901 50.8645 159.685 50.9417 159.593 51.1193C159.531 51.2506 159.554 51.4128 159.647 51.5209C159.816 51.7217 160.048 51.853 160.31 51.8916C159.577 56.7415 159.369 61.6609 159.693 66.5571C159.693 66.7579 159.855 66.9278 160.063 66.9278C160.272 66.9278 160.434 66.7656 160.434 66.5571C160.48 64.0318 160.357 61.4833 160.434 58.9579C160.503 56.6179 160.758 54.2779 160.804 51.9379C161.213 51.9071 161.622 51.8375 162.016 51.7294C163.551 51.3201 164.022 50.2776 163.69 49.2736C164.215 49.0187 165.418 47.953 167.888 43.5124C171.499 37.0022 167.425 27.1093 155.596 23.5028L155.588 23.5105ZM152.262 33.3107C147.987 34.137 145.04 29.4107 147.1 25.8119C147.285 25.4875 147.771 25.7656 147.602 26.1131C145.912 29.6038 148.535 32.7469 152.162 32.6543C152.347 32.6543 152.501 32.8164 152.494 33.0018C152.494 33.1485 152.393 33.2798 152.254 33.3184L152.262 33.3107Z" fill="#A07250"/>
<path d="M93.8886 73.6929L78.4098 78.1643C78.5255 79.9328 78.4792 81.7168 78.4561 83.4853C78.4561 83.6629 78.3095 83.8096 78.132 83.8096C77.9545 83.8096 77.8079 83.6629 77.8079 83.4853C77.7153 81.8095 77.5301 80.1336 77.4221 78.4346L75.223 79.0756C74.5594 79.2687 74.0964 79.871 74.0732 80.5661L73.8186 91.7177C73.8032 92.5981 74.5054 93.3241 75.385 93.3395C75.5471 93.3395 75.7091 93.3241 75.8634 93.2777L94.0892 87.8641C94.7297 87.6865 95.1849 87.1073 95.2158 86.4431L95.9025 75.2915C95.9566 74.4265 95.3007 73.6774 94.4365 73.6233C94.2513 73.6079 94.0661 73.6311 93.8886 73.6851V73.6929ZM78.6644 87.4162C78.4406 87.4162 78.2555 87.2308 78.2555 87.0069C78.2555 86.891 78.3018 86.7829 78.3866 86.7057C78.4869 86.5435 78.703 86.5049 78.8573 86.6053C78.8959 86.6284 78.9268 86.6671 78.9576 86.7057C79.1197 86.8756 79.112 87.1381 78.9422 87.3003C78.865 87.3776 78.7647 87.4162 78.6567 87.4162H78.6644Z" fill="#6F93FC"/>
<path d="M78.3713 9.44749C79.6599 8.15779 80.0072 5.88731 78.3713 4.97602C76.6429 4.1883 74.5981 4.95286 73.811 6.69047C73.7879 6.74453 73.7647 6.79859 73.7416 6.86037C73.0162 9.15403 75.5703 11.6408 77.9392 9.84135C82.7773 16.5447 84.2511 24.1516 82.9316 32.2836C82.8853 32.5848 83.3252 32.7007 83.3869 32.3995C85.2311 24.2365 83.7958 15.9732 78.3636 9.45521L78.3713 9.44749ZM76.9052 8.92235C76.2725 9.53244 75.2462 8.88373 74.8913 8.23502C74.5595 7.41641 74.7987 6.47424 75.4854 5.9182C75.7169 5.70968 76.1259 5.9877 75.9175 6.26572C75.6089 6.63641 75.47 7.12295 75.5472 7.59403C75.7401 8.03423 76.1722 8.32769 76.6506 8.35086C76.8358 8.34314 76.9901 8.48215 77.0055 8.66749C77.0055 8.76789 76.9747 8.86056 76.9052 8.93007V8.92235Z" fill="#6F93FC"/>
<path d="M177.818 80.0258C175.473 73.6622 169.084 66.5032 161.475 67.5921C161.151 67.6385 160.858 75.2608 152.995 75.8246C148.134 76.1721 144.585 68.8741 144.284 68.8741C134.677 68.9436 124.09 72.3648 119.206 81.4004C117.03 85.8487 115.757 90.6831 115.471 95.6257C115.456 96.1508 130.14 97.6645 134.847 97.232C136.104 97.1162 137.324 96.7841 138.604 96.7764C138.952 96.7764 139.129 97.3015 138.79 97.4405C137.817 97.8421 136.814 98.1588 135.788 98.3827C135.996 99.4021 136.266 100.406 136.59 101.387C137.486 103.858 146.058 102.785 149.384 103.889C153.875 105.38 160.727 107.72 163.281 112.152C164.222 113.782 170.218 125.466 160.897 131.614C160.441 131.915 171.692 131.15 172.155 130.378C173.914 127.413 172.325 101.788 171.537 98.738C170.966 96.7069 170.519 94.6372 170.21 92.5443C170.164 92.1505 170.743 92.0578 170.92 92.359C171.977 94.2819 172.749 96.3439 173.212 98.4908C176.306 97.8267 179.254 96.5833 181.9 94.8457C183.328 93.919 178.374 81.4931 177.842 80.0489L177.818 80.0258Z" fill="#6F93FC"/>
</svg>
