<svg width="228" height="150" viewBox="0 0 228 150" fill="none" xmlns="http://www.w3.org/2000/svg">
<g clip-path="url(#clip0_220_2258)">
<path d="M127.682 31.5961C110.286 39.2239 98.009 38.9392 91.647 38.2074C87.4707 37.7276 87.552 37.2478 84.2369 36.9388C65.2647 35.1579 48.3563 49.4864 44.8218 52.4871C30.3347 64.7664 16.4326 87.6335 20.7389 107.85C27.9459 141.678 82.945 153.071 119.159 149.713C156.616 146.241 207.211 123.902 218.602 82.673C223.713 64.1727 224.266 44.4039 211.696 24.3098C204.278 12.4453 187.361 -1.29772 170.144 4.28081C152.772 9.9 154.674 19.7803 127.698 31.6042L127.682 31.5961Z" fill="#F1F1F1"/>
<path d="M15.8964 17.1862C17.6677 15.0312 23.5015 7.9239 32.1385 8.27357C40.9868 8.63138 47.5357 16.6088 49.4288 23.7487C51.8745 33.0029 47.1944 43.5094 37.9074 48.1365C30.3022 51.926 19.3089 51.9341 13.1582 45.7863C5.09806 37.7275 10.2738 24.0496 15.9045 17.1943L15.8964 17.1862Z" fill="#F0EDF9"/>
<path d="M70.1318 61.8711C72.5287 67.2057 72.0087 73.5567 73.2925 79.1759C74.495 84.4617 77.2819 90.7884 82.1895 93.6589C85.2121 95.4317 88.9659 94.1306 92.1753 93.6427C95.8072 93.0897 99.4392 92.5367 103.063 91.9838C106.175 91.5121 109.287 91.0323 112.399 90.5607C115.511 90.089 118.59 90.0321 120.971 87.7389C126.033 82.8434 121.06 76.8746 119.801 71.5319C118.403 65.5793 119.289 59.2851 117.323 53.4139C116.299 50.3644 114.649 47.4125 111.383 46.396C108.117 45.3795 104.737 46.7538 101.535 47.4857C95.0516 48.9819 88.5109 49.9496 81.8808 50.4538C73.0487 51.1288 72.9431 63.7496 81.8808 64.2782C86.1058 64.5302 93.4428 64.1968 96.311 65.2621L93.2641 63.4812L93.7272 64.0098L91.704 59.1225L91.6634 60.0902L92.6059 56.6016C90.1603 60.4968 84.5864 62.7412 80.6864 64.7661C74.3244 68.0595 77.68 77.4031 84.172 77.6471C88.8602 77.826 93.5484 77.9968 98.2367 78.1757L91.574 69.4257C91.0622 70.6455 89.9653 72.0523 88.9009 72.8655C86.1627 74.9554 84.5783 78.0862 86.0733 81.4935C87.4221 84.5674 90.859 86.4947 94.2228 85.4945C98.2773 84.2909 103.412 83.0061 106.386 79.8346C109.815 76.1752 108.816 70.06 108.824 65.4736C108.84 56.5772 95.0272 56.5609 95.011 65.4736C95.011 67.7342 95.5716 71.0114 94.8485 73.1095L96.6279 70.06C95.4335 71.1985 92.0778 71.7189 90.5584 72.1662L95.8804 84.8032C100.146 81.5423 102.827 78.0537 104.899 73.1013C106.727 68.7345 102.21 64.4977 98.2367 64.3513C93.5484 64.1724 88.8602 64.0017 84.172 63.8228L87.6577 76.7038C94.1416 73.3453 105.728 67.7749 105.517 59.1225C105.395 54.1376 101.056 51.7468 96.6766 51.3239C91.7772 50.8442 86.8046 50.7384 81.8889 50.4457V64.27C91.6959 63.5219 100.975 61.3019 110.595 59.521H106.922L107.719 59.708L103.591 56.5284C105.98 59.952 105.159 65.8964 105.631 69.873C105.931 72.3613 106.321 74.8253 107.044 77.2324C107.386 78.3627 107.8 79.4605 108.239 80.5502C108.547 81.3146 109.222 84.6813 109.425 82.6483L111.448 77.761L110.977 78.135L114.024 76.3541C104.233 78.7043 93.8003 79.4931 83.8389 81.0137L90.5584 82.7946C87.2433 79.9078 86.504 75.7768 85.9514 71.5725C85.1796 65.7013 84.5133 60.3423 82.0676 54.8857C80.5401 51.4784 75.5919 50.6652 72.6181 52.4055C69.1162 54.4547 68.6043 58.4475 70.1399 61.863L70.1318 61.8711Z" fill="white"/>
<path d="M106.719 102.531C113.845 100.774 120.67 98.0828 127.13 94.5941C124.343 94.2363 121.548 93.8704 118.761 93.5126C119.24 94.0656 120.077 94.8137 120.475 95.4724L119.776 90.146C118.639 93.4475 114.836 94.7649 111.732 94.2363C103.802 92.8783 100.122 102.092 106.411 106.873C111.237 110.533 116.868 112.981 122.831 114.046C131.452 115.591 135.279 102.71 126.504 100.718L125.602 100.514C116.949 98.5463 113.252 111.875 121.93 113.842L122.831 114.046L126.504 100.718C121.523 99.8311 117.412 98.0014 113.39 94.9357L108.068 107.573C115.633 108.866 122.645 107.866 127.95 101.848C129.925 99.6116 132.378 96.7979 133.102 93.8297C134.158 89.4954 131.111 86.7061 128.535 83.7461C126.488 81.396 122.734 81.274 120.166 82.6645C114.714 85.6083 109.067 87.7308 103.055 89.2108C94.4259 91.3332 98.0822 104.67 106.727 102.539L106.719 102.531Z" fill="white"/>
<path d="M94.5314 109.11L94.4827 109.72L96.5058 104.832L96.0264 105.255L100.91 103.23L100.3 103.198C92.8576 102.848 91.712 112.387 96.8146 116.079C106.053 122.763 119.581 130.96 130.664 123.707C135.612 120.47 139.78 115.697 143.721 111.338C148.003 106.605 151.968 101.604 155.73 96.4483C157.932 93.4314 156.242 88.7392 153.252 86.9909C149.758 84.9416 146.004 86.446 143.802 89.4711C138.35 96.9525 132.191 104.027 125.391 110.313C122.141 113.322 119.662 113.038 115.681 111.265C111.472 109.394 107.515 106.833 103.794 104.141L100.308 117.022C105.102 117.242 108.003 113.509 108.36 109.102C109.067 100.23 95.2545 100.279 94.5477 109.102L94.5314 109.11Z" fill="white"/>
<path d="M130.136 110.273C133.256 108.134 135.563 105.426 137.424 102.141C138.846 99.6197 140.146 96.7491 141.714 95.1553C147.946 88.7961 138.188 79.0133 131.948 85.3806C129.722 87.6495 128.088 90.333 126.593 93.1223C125.992 94.2526 125.399 95.3992 124.716 96.4808C124.7 96.5052 123.49 98.0828 124.026 97.4891C123.88 97.6518 122.482 98.8065 123.165 98.3349C120.093 100.441 118.712 104.409 120.686 107.792C122.466 110.842 127.04 112.387 130.136 110.273Z" fill="white"/>
<path d="M145.273 93.0573C150.359 89.0401 156.266 86.381 162.506 84.7709C170.112 82.8029 168.43 71.2799 160.67 71.1905L157.185 71.1498C157.794 75.6793 158.411 80.2007 159.021 84.7302C162.945 84.1854 167.252 83.2909 171.217 83.4128C173.28 83.4779 175.564 85.6654 176.823 87.796C178.497 90.6096 179.114 94.4642 179.919 97.6112C180.414 99.5304 180.861 101.466 181.267 103.401C181.397 104.027 181.966 108.841 182.299 107.101L184.079 104.052C182.559 105.784 178.57 106.971 176.417 108.24C173.484 109.956 170.624 111.802 167.837 113.753C163.238 116.973 158.16 121.91 152.293 122.324L158.956 127.399C157.973 120.673 156.567 114.054 154.723 107.508C151.343 110.11 147.962 112.712 144.574 115.315C148.084 117.665 150.733 121.104 153.366 124.357C157.306 129.228 165.09 125 165.155 119.47C165.22 113.55 164.879 107.67 164.123 101.799L151.253 105.288C152.318 106.939 153.236 108.614 154.056 110.403C158.03 108.077 162.011 105.751 165.984 103.426C163.888 98.9855 161.8 94.5455 159.703 90.1054C155.73 92.4312 151.749 94.7569 147.776 97.0827C149.417 100.189 151.237 103.133 153.268 105.995C156.884 111.086 166.61 109.964 166.138 102.507C165.846 97.8145 165.545 93.1305 165.253 88.4384L152.383 91.927C154.731 97.0095 156.591 102.255 158.119 107.646C160.288 115.274 171.347 113.542 171.688 105.808C171.948 99.9045 172.2 94.0088 172.46 88.105C167.934 88.7149 163.417 89.3329 158.891 89.9428C159.817 96.733 160.743 103.523 161.67 110.313C162.596 117.104 173.914 116.835 174.987 110.313C176.23 102.759 177.091 95.1717 177.481 87.5276H163.668C164.278 94.0413 165.212 100.522 166.504 106.939C167.796 113.355 178.765 113.688 179.821 106.939L181.852 93.9275H168.535C169.535 98.2374 170.534 102.547 171.534 106.849C173.54 115.51 186.866 111.842 184.851 103.174C183.851 98.8636 182.852 94.5536 181.852 90.2518C180.39 83.9333 169.608 83.3966 168.535 90.2518L166.504 103.263H179.821C178.773 98.0504 177.977 92.8215 177.473 87.5276C176.652 78.7613 164.123 78.5174 163.66 87.5276C163.335 93.9356 162.701 100.303 161.653 106.638H174.97C174.044 99.8475 173.118 93.0573 172.192 86.2671C171.095 78.2572 158.948 80.6968 158.623 88.105C158.363 94.0088 158.111 99.9045 157.851 105.808C162.376 105.198 166.894 104.58 171.42 103.97C169.567 97.4323 167.146 91.1219 164.294 84.9498C161.442 78.7776 151.001 81.7946 151.424 88.4384C151.716 93.1305 152.017 97.8145 152.309 102.507L165.18 99.0181C163.148 96.1556 161.328 93.2118 159.687 90.1054C155.478 82.1605 144.014 89.1377 147.759 97.0827C149.856 101.523 151.944 105.963 154.04 110.403C155.633 113.778 160.475 114.648 163.49 112.883C166.975 110.842 167.528 106.833 165.968 103.426C165.147 101.637 164.229 99.9614 163.165 98.3106C159.825 93.1305 149.352 94.4804 150.294 101.799C151.05 107.67 151.399 113.55 151.326 119.47L163.116 114.583C159.663 110.313 156.12 106.459 151.529 103.377C146.427 99.9614 139.813 105.605 141.381 111.183C143.226 117.73 144.639 124.349 145.614 131.074C146.021 133.864 149.539 136.344 152.277 136.149C162.775 135.409 169.982 128.724 178.416 123.243C182.502 120.584 186.906 118.543 191.066 116.03C196.112 112.981 196.242 108.687 195.291 103.385C193.642 94.2365 191.846 82.5752 184.81 75.8989C181.43 72.6949 177.449 69.6373 172.614 69.5316C166.943 69.4096 160.946 70.6294 155.34 71.4101C147.459 72.5079 149.636 84.901 157.176 84.9904L160.662 85.0311C160.053 80.5016 159.435 75.9802 158.826 71.4507C150.156 73.6951 142.502 77.7611 135.49 83.2909C132.557 85.6003 133.069 90.6421 135.49 93.0655C138.383 95.9605 142.316 95.3831 145.257 93.0655L145.273 93.0573Z" fill="white"/>
<path d="M40.7999 94.0087C44.3506 95.2448 46.2682 96.0254 49.3395 97.4729C52.6058 99.0099 56.9365 98.4976 58.789 94.9927C60.4059 91.9269 59.8046 87.1779 56.3108 85.5352C52.4514 83.7218 48.5026 82.0872 44.4725 80.6804C41.0599 79.4931 36.7699 82.0303 35.9736 85.5108C35.0961 89.3654 37.1436 92.7401 40.7999 94.0168V94.0087Z" fill="white"/>
<path d="M51.2164 93.6021C53.2802 95.0984 56.124 96.6028 57.7897 98.5138L55.7665 93.6265L55.7015 94.212L60.7716 87.5438C58.2934 88.1293 54.3852 87.3892 51.8096 87.3567C50.2252 87.3405 48.6489 87.3161 47.0726 87.2917C46.2845 87.2754 45.4963 87.2673 44.7001 87.251C42.9613 87.3242 42.5957 87.2835 43.6275 87.1209L47.7551 90.3005L47.4301 89.78L37.9806 99.2375C42.7094 101.921 47.6089 104.174 52.6546 106.182C56.124 107.565 60.2353 104.67 61.1535 101.352C62.2341 97.416 59.8128 94.2364 56.3271 92.8458C52.3946 91.2845 48.6326 89.3816 44.9519 87.2917C39.1181 83.982 31.7242 90.7559 35.5024 96.7491C38.5412 101.571 43.6194 101.059 48.657 101.132C53.6946 101.205 59.5284 102.035 64.4523 100.864C67.6536 100.1 69.1892 97.1883 69.5224 94.1957C70.1805 88.2594 62.2422 84.5837 58.1959 81.6481C55.1734 79.4524 50.5014 81.1276 48.7464 84.1283C46.707 87.6169 48.1939 91.3902 51.2246 93.5858L51.2164 93.6021Z" fill="white"/>
<path d="M61.3647 110.37C62.5104 110.126 63.5991 109.614 64.6229 109.053C64.956 108.849 65.2973 108.646 65.6385 108.451C64.956 108.703 64.8504 108.744 65.3298 108.589C65.7117 108.524 67.7186 108.256 66.0692 108.361C66.8573 108.313 67.6373 108.28 68.4255 108.264C72.033 108.183 75.5024 105.141 75.3318 101.352C75.1612 97.5622 72.293 94.3501 68.4255 94.4396C66.3535 94.4884 64.2248 94.6022 62.2097 95.1064C61.0803 95.391 59.9591 95.8708 58.9272 96.3912C58.6103 96.5539 58.1715 96.7247 57.9034 96.9686C57.554 97.1556 57.5703 97.1719 57.9521 97.0255C58.4397 96.8792 58.3503 96.8873 57.6921 97.0418C54.1496 97.7899 51.7689 102.149 52.8658 105.548C54.0765 109.289 57.5703 111.175 61.3647 110.378V110.37Z" fill="white"/>
<path d="M136.441 53.0399C136.782 54.9427 137.05 56.8293 137.237 58.7566C137.522 61.6597 141.17 63.9042 143.477 61.3426C145.379 59.2364 146.419 57.0001 147.41 54.3654L140.227 53.3895C140.138 56.4634 139.236 60.7652 140.69 63.6033C141.893 65.9534 144.891 67.2464 147.199 68.1328L149.141 61.0742C147.971 60.8709 146.801 60.6676 145.639 60.4725L147.824 65.8477C148.093 65.498 147.304 63.3431 147.361 65.9046C147.369 66.4983 147.442 67.1082 147.589 67.6855C147.93 69.068 148.629 70.3772 149.783 71.2473C152.854 73.5487 157.176 71.3205 160.353 70.3447C162.572 69.6616 163.79 67.0431 162.539 64.9694C161.702 63.5789 160.946 62.1802 160.345 60.6595C158.639 56.3333 151.562 58.2199 153.293 62.603C154.121 64.7092 155.048 66.7178 156.226 68.6614L158.411 63.2861C157.258 63.6358 154.609 63.9204 153.731 64.7255C152.521 64.9532 152.838 65.2134 154.666 65.5062C154.714 65.002 154.731 64.5059 154.714 64.0017C155.096 62.0419 153.723 59.7081 152.22 58.6021C148.125 55.5933 143.997 58.8867 141.519 62.1558C140.17 63.9448 141.544 67.1569 143.705 67.531C144.875 67.7343 146.045 67.9376 147.207 68.1328C151.863 68.9378 153.553 62.7738 149.149 61.0742C147.995 60.627 147.231 60.0903 146.443 59.1632L147.516 61.7492C147.158 59.0006 147.467 56.1463 147.556 53.3814C147.686 49.0064 141.763 48.7462 140.374 52.4056C139.837 53.8287 139.35 55.0078 138.318 56.1463L144.558 58.7322C144.306 56.1625 143.957 53.6172 143.494 51.0719C142.657 46.4448 135.604 48.4046 136.441 53.0155V53.0399Z" fill="#F7CFAD"/>
<path d="M80.0281 103.588C81.3444 103.108 82.6769 102.661 83.8713 103.645C84.6432 104.279 85.2363 105.149 85.9107 105.873C87.3407 107.41 89.0308 108.451 91.0539 109.028C94.0765 109.89 95.3684 105.182 92.354 104.32C89.7295 103.572 88.657 101.148 86.5932 99.595C84.2044 97.7898 81.4581 97.8955 78.7362 98.8794C75.8112 99.9366 77.0706 104.653 80.0362 103.588H80.0281Z" fill="#F7CFAD"/>
<path d="M80.7432 100.953C81.6776 100.709 82.9695 100.221 83.9445 100.539C84.9845 100.88 85.3339 102.108 85.9189 102.946C87.0483 104.564 88.6165 105.711 90.2171 106.833C91.5984 107.8 93.3209 106.743 93.8003 105.377L93.914 105.052C94.9541 102.084 90.2496 100.807 89.2096 103.751L89.0958 104.076L92.679 102.62C91.4359 101.75 90.3796 100.888 89.5671 99.5953C88.8846 98.5219 88.3483 97.5216 87.2677 96.7735C84.8951 95.139 82.092 95.5618 79.4594 96.2449C76.4287 97.0419 77.7125 101.742 80.7594 100.953H80.7432Z" fill="#F7CFAD"/>
<path d="M85.5126 98.4894C86.4795 98.709 87.9176 98.8716 88.3889 99.8718C89.0308 101.238 88.9414 102.742 89.8595 104.044C91.0458 105.735 93.6865 105.58 94.3121 103.458L94.4584 102.97C95.3521 99.9532 90.6477 98.6683 89.7539 101.669L89.6077 102.157L94.0602 101.571C93.5808 100.888 93.4996 100.148 93.2965 99.3514C93.0365 98.3105 92.6546 97.3265 91.9802 96.4808C90.6883 94.8788 88.7383 94.2201 86.7964 93.7729C83.7413 93.0735 82.4413 97.7738 85.4963 98.4813L85.5126 98.4894Z" fill="#F7CFAD"/>
<path d="M89.8922 97.6274C90.5259 98.3349 90.8103 99.4002 90.6803 100.148C90.4609 101.441 91.0216 102.775 92.3866 103.149C93.5566 103.474 95.1573 102.751 95.3848 101.441C95.8479 98.7415 95.1898 96.2206 93.3454 94.1713C92.4597 93.1955 90.7941 93.2768 89.9003 94.1713C88.9253 95.1472 89.0147 96.6434 89.9003 97.6193L89.8922 97.6274Z" fill="#F7CFAD"/>
<path d="M92.1753 94.2281C92.8172 96.0741 92.3297 97.8875 92.6222 99.7741C92.8741 101.384 93.711 101.75 94.9947 102.474L93.8735 101.018L93.9628 101.368L95.0841 98.6112C92.801 99.5952 91.6309 101.726 91.4359 104.125C91.184 107.256 96.0673 107.239 96.311 104.125C96.3679 103.36 96.9123 103.092 97.546 102.824C98.5373 102.393 98.9029 101.026 98.6673 100.067C98.2854 98.5299 97.4729 98.4974 96.3435 97.733L97.4648 99.1886C97.2373 98.2372 97.4973 97.0499 97.4485 96.0822C97.3998 94.9925 97.2373 93.9598 96.8798 92.927C95.856 89.9751 91.1516 91.2437 92.1753 94.2281Z" fill="#F7CFAD"/>
<path d="M91.5577 94.4964C90.9402 94.4557 91.4684 94.4964 91.6309 94.537C91.3384 94.3988 91.314 94.3906 91.5577 94.5126C91.7446 94.6346 91.769 94.6427 91.6227 94.5289C91.2246 94.3175 92.0453 94.903 91.7202 94.5939C91.6146 94.4394 91.6227 94.4557 91.7446 94.6427C91.8746 94.8867 91.8665 94.8542 91.7365 94.5614C92.0534 95.3746 92.5571 96.0252 93.4428 96.2691C94.2065 96.4806 95.2953 96.3017 95.8153 95.643C96.0753 95.3096 96.3353 94.9761 96.5953 94.6427C97.3835 93.6425 97.6435 92.1544 96.5953 91.1948C95.7178 90.3897 93.9872 90.1214 93.1503 91.1948C92.8903 91.5282 92.6303 91.8616 92.3703 92.195L96.4409 93.2684C95.6041 91.1297 93.8815 89.7798 91.5577 89.6253C90.2821 89.544 89.0633 90.8045 89.1202 92.0649C89.1852 93.4555 90.1927 94.415 91.5577 94.5045V94.4964Z" fill="#F7CFAD"/>
<path d="M152.009 73.0932C155.145 73.0932 155.153 68.214 152.009 68.214C148.864 68.214 148.864 73.0932 152.009 73.0932Z" fill="#F7CFAD"/>
<path d="M161.613 70.548C164.749 70.548 164.757 65.6688 161.613 65.6688C158.468 65.6688 158.468 70.548 161.613 70.548Z" fill="#F7CFAD"/>
<path d="M180.625 51.1455C179 51.0723 177.197 51.2105 175.84 50.129C173.004 47.8358 175.783 42.2735 171.281 39.4517C175.84 36.6136 171.948 30.1813 175.637 26.7333C176.88 25.5623 178.553 24.9687 180.252 25.1069C180.999 25.1882 181.284 24.066 180.503 23.9359C177.237 23.4399 174.077 25.3102 172.931 28.4085C172.224 30.4252 172.581 32.5558 172.354 34.6294C172.159 36.4429 171.249 38.5409 169.153 38.6141C168.755 38.6466 168.462 38.9963 168.495 39.3867C168.519 39.6875 168.73 39.9478 169.031 40.0209C170.753 40.3218 172.126 41.6229 172.533 43.3225C173.24 45.9735 172.321 50.0721 175.856 51.8123C177.367 52.4791 179.033 52.7149 180.666 52.4954C181.04 52.4466 181.3 52.105 181.251 51.7391C181.21 51.4138 180.942 51.1699 180.617 51.1455H180.625ZM197.233 38.6792C194.934 38.1181 193.861 37.5732 194.064 34.8734C194.211 32.8404 194.82 30.8237 194.495 28.7744C194.308 27.083 193.301 25.5948 191.806 24.7816C190.229 24.1311 188.523 23.8871 186.833 24.0579C186.077 24.0579 186.215 25.1964 186.939 25.2126C191.659 25.2858 193.731 26.5138 193.041 31.7751C192.675 34.4912 191.7 37.7277 194.787 39.3135C192.984 40.6064 192.829 42.8997 193.081 44.9326C193.252 46.3883 194.105 48.8848 192.569 49.8037C191.026 50.6738 189.262 51.1048 187.491 51.0316C186.524 51.0316 186.662 52.5116 187.621 52.5279C190.189 52.5686 194.755 51.5927 194.853 48.3806C194.909 46.7217 194.406 45.1034 194.406 43.4364C194.406 41.9482 195.137 39.8014 197.014 40.0372C197.404 40.0291 197.713 39.6957 197.704 39.3053C197.696 39.0207 197.518 38.7686 197.249 38.6629L197.233 38.6792Z" fill="#6F93FC"/>
<path d="M18.2445 35.1013C17.9032 35.329 17.8138 35.7925 18.0413 36.1341C18.0982 36.2154 18.1632 36.2805 18.2445 36.3374C19.4714 37.1912 27.7996 42.9568 28.8478 43.2902C29.5303 43.5016 29.8472 42.6722 29.4653 42.1924C28.9128 41.55 20.9908 36.4268 19.8776 35.695C23.8183 32.7187 27.6696 29.6448 31.3991 26.4245C32.0166 25.8959 31.1066 25.0421 30.4972 25.5544C30.4972 25.4649 26.1909 29.3195 18.2363 35.1095L18.2445 35.1013ZM57.1801 34.6378C54.0926 32.0193 51.0782 29.287 48.0962 26.5465C47.56 26.0504 46.7231 26.9612 47.235 27.4817C49.9081 30.2221 52.7276 32.7918 55.6364 35.2802C53.6132 37.2563 51.4519 39.086 49.1769 40.7693C45.8537 43.2414 48.1856 43.5504 48.7056 43.095C51.8988 40.2895 53.402 39.639 57.2208 35.8332C57.5376 35.5567 57.5702 35.0688 57.2939 34.7516C57.2614 34.711 57.2208 34.6785 57.1801 34.6459V34.6378ZM43.6112 23.1717C40.5886 28.6852 36.201 38.2728 33.3247 44.2986C32.431 46.1527 33.6822 47.3887 34.9498 44.7052C36.8023 40.8344 43.6355 25.9935 44.6024 23.6109C44.8381 23.0091 43.9118 22.6269 43.6112 23.1717Z" fill="#6F93FC"/>
<path d="M189.612 84.1369C186.614 76.7937 182.616 70.5483 174.507 68.3039C164.326 65.5147 148.279 72.9717 140.162 79.1113C126.894 89.138 128.438 97.9693 119.833 109.126C114.349 107.272 105.744 102.23 101.787 100.978C101.015 100.572 100.073 100.637 99.3658 101.141C96.1239 102.938 92.5732 107.711 92.362 111.468C92.297 112.526 92.362 112.859 93.1176 113.493C97.7164 117.258 104.728 121.105 110.042 123.894C120.337 129.302 126.016 130.57 134.913 122.089C137.44 119.649 139.805 117.039 141.99 114.29C145.078 122.804 147.044 128.367 147.751 136.198C147.8 136.743 148.694 136.677 148.718 136.108C148.872 130.741 145.143 118.437 142.6 113.485C144.192 111.42 145.614 109.216 146.833 106.906C147.085 106.418 146.305 105.939 145.996 106.402C142.193 112.16 139.407 116.152 134.442 120.91C126.219 128.781 121.482 128.513 111.513 123.382C105.224 120.113 99.1383 116.461 93.2964 112.436C93.0851 108.069 97.8464 103.019 100.731 101.588C107.215 104.02 113.333 108.386 119.443 110.192C119.817 110.306 120.028 110.379 120.247 110.143C127.349 102.409 128.048 91.0897 137.912 82.3803C145.939 75.3299 163.351 66.4417 174.328 69.4099C180.853 71.1989 184.826 76.2407 187.524 82.1933C190.985 89.8618 194.763 100.49 196.063 108.842C196.096 109.094 196.331 109.273 196.583 109.24C196.827 109.208 196.998 108.996 196.989 108.752C196.063 100.214 192.821 92.0086 189.596 84.1125L189.612 84.1369Z" fill="#191919"/>
<path d="M99.3333 99.0509C96.8308 94.4319 99.0083 93.2528 97.6514 91.1385C97.4077 90.7563 96.6764 91.0246 96.8389 91.4068C97.5133 92.9194 95.9533 96.351 98.6508 99.6445C99.0002 100.067 99.5608 99.4819 99.3252 99.0265V99.0427L99.3333 99.0509ZM90.6882 107.744C88.8925 106.573 87.2675 105.15 85.87 103.507C84.7893 102.198 84.9518 101.653 82.5468 101.612C80.6943 101.564 78.6874 102.361 78.2242 104.369C78.1105 104.865 78.8417 105.158 78.9799 104.654C79.7436 102.271 83.5299 102.352 84.2124 103.182C86.065 105.418 87.4056 107.191 90.0544 108.647C90.6719 108.988 91.2976 108.151 90.6719 107.736L90.6882 107.744ZM85.5937 98.384C82.7824 97.9856 79.9224 98.6117 77.5255 100.141C77.1192 100.401 77.4036 101.051 77.8667 100.832C80.2311 99.6364 82.8962 99.1728 85.5206 99.5062C86.2519 99.5876 86.3006 98.4898 85.5937 98.384ZM90.9076 95.2207C89.5344 93.7 87.3731 93.1714 85.4475 93.8871C84.765 94.2367 84.9112 94.9686 85.7156 94.7653C87.2756 94.2611 88.9819 94.749 90.0382 95.9932C90.5419 96.5462 91.3301 95.7981 90.8751 95.2207H90.8994H90.9076ZM88.4375 96.2779C88.73 96.4161 88.8519 96.7658 88.7138 97.0504C88.5757 97.3431 88.2263 97.4651 87.9419 97.3269C85.7156 95.9526 83.1237 96.286 80.6618 96.6438C80.1743 96.717 80.0442 95.9607 80.4911 95.8062C83.0262 94.9686 86.0731 94.8385 88.4375 96.2535V96.2697V96.2779Z" fill="#191919"/>
<path d="M59.8371 81.0791C59.4146 80.8351 58.8377 81.3637 59.2196 81.7296C61.9252 84.2587 64.7772 86.6739 67.5153 89.1867C64.4278 89.3086 45.6343 89.9267 44.9599 90.2601C43.8793 89.8209 35.9573 83.1771 35.1854 82.2257C36.8592 82.185 38.533 82.1037 40.2149 82.0874C40.5236 82.0468 40.743 81.7622 40.7024 81.445C40.6617 81.1523 40.4099 80.9408 40.1174 80.9571C38.1105 80.8189 36.0873 80.9327 34.1048 81.2824C33.8123 81.3556 33.6335 81.6483 33.7066 81.9411C33.731 82.0224 33.7635 82.1037 33.8204 82.1688C35.4292 84.5758 41.3605 89.0972 43.9849 91.0895C44.8706 91.7645 45.9675 91.244 47.0725 91.2196C53.8895 91.0895 60.7552 90.4634 67.5885 90.3902C69.1647 90.3902 71.131 95.5946 67.0359 96.5949C61.4784 97.9692 49.2581 98.2945 43.8631 98.2538C41.393 96.4566 36.9161 92.9599 34.2185 90.8049C33.8204 90.4878 33.2597 91.179 33.6497 91.5124C35.7217 93.2608 43.2212 99.376 43.5299 99.3841C49.1363 99.5305 61.9577 99.254 67.426 97.7984C71.0335 96.8388 71.2448 92.9924 69.6929 90.2194C68.3603 87.8367 61.4458 81.9899 59.8289 81.0628L59.8371 81.0791ZM36.4935 86.8772C36.6642 87.9994 36.6642 90.1625 35.3235 90.6829C34.8116 90.8781 34.4866 90.1137 34.9091 89.886C35.6892 89.455 35.3642 87.6172 35.3804 86.9748C35.3804 86.6657 35.616 86.4055 35.9248 86.3974C36.2092 86.3974 36.4529 86.5926 36.4935 86.8772ZM47.1131 93.0087C47.4787 94.7489 46.7393 96.5461 45.2606 97.53C45.0331 97.652 44.7568 97.5707 44.6268 97.3511C44.5293 97.1804 44.5537 96.9771 44.6756 96.8307C45.74 95.9687 46.2518 94.5944 46.0243 93.2445C45.675 91.8295 46.8856 91.919 47.105 93.0087H47.1131Z" fill="#191919"/>
<path d="M74.7548 100.62C74.5273 99.937 73.3979 100.392 73.5604 101.848C73.7716 103.743 75.3723 103.474 74.8523 102.555C74.3323 101.637 74.9173 101.092 74.7548 100.612V100.62Z" fill="#191919"/>
<path d="M144.834 72.1096C137.822 73.6059 130.688 75.0778 123.782 76.7611C123.229 76.8912 123.384 77.8589 123.953 77.7369C137.562 74.785 143.802 73.9719 145.127 73.0692C145.582 72.7521 145.322 72.0039 144.834 72.1096ZM107.134 123.821C97.2534 127.252 84.9113 131.904 75.4536 134.937C58.8377 123.87 39.3049 111.704 21.9983 101.108C24.6228 100.319 27.6778 99.5957 31.6104 98.7174C32.626 98.4979 31.9841 97.5708 31.2285 97.7578C26.7678 98.8801 22.429 99.7014 20.4302 100.352C19.8127 100.563 19.8127 101.059 20.2433 101.36C37.2736 113.103 57.3915 124.536 75.1286 136.328C75.8843 136.832 104.826 125.886 107.491 124.967C108.23 124.707 107.873 123.569 107.142 123.821H107.134ZM73.8449 88.1215C73.5849 87.2757 71.5211 88.0076 70.7979 88.3898C70.5461 88.5281 70.4567 88.8371 70.5867 89.0892C70.7004 89.3006 70.9442 89.4063 71.1717 89.3413C72.293 89.1624 74.0805 88.9184 73.8367 88.1215H73.8449Z" fill="#191919"/>
<path d="M159.533 58.7079C159.809 56.3659 160.443 48.8194 158.371 42.3383C155.974 34.8487 147.475 31.417 143.104 37.0362C131.72 34.8569 125.391 39.2237 125.407 41.7202C125.456 48.4616 138.854 50.2669 141.422 53.7962C141.479 54.2597 142.259 54.1703 142.234 53.6986C142.088 51.2265 145.403 51.0395 145.159 56.6424C145.094 58.1143 144.542 59.1796 144.72 59.6593C144.899 60.1391 145.76 60.806 146.167 57.8053C147.426 59.5455 149.165 60.8873 151.172 61.6598C152.707 62.1477 157.607 60.6514 159.045 59.8057C159.939 61.6598 160.824 63.5139 161.726 65.368C162.458 66.8805 163.522 66.417 162.718 64.8638C162.718 64.7662 159.573 58.8055 159.524 58.7079H159.533ZM150.376 70.6782C150.489 70.9221 150.392 71.2149 150.148 71.3368C149.945 71.4344 149.693 71.3775 149.547 71.1986C148.946 70.3529 148.393 69.4746 147.881 68.5639C142.486 69.4665 140.682 65.986 139.236 61.7655C134.686 61.8875 139.455 60.2367 135.823 52.4056C135.628 51.9909 136.197 51.6087 136.441 52.0234C137.96 54.6745 138.537 57.7646 138.058 60.7816C139.228 60.9442 139.813 60.6433 139.984 61.1719C143.014 70.8571 147.776 66.5634 148.556 67.7507C149.214 68.694 149.823 69.6617 150.376 70.67V70.6782Z" fill="#5C332B"/>
<path d="M75.1936 104.085C71.4804 105.556 63.1765 109.517 59.6258 109.972C55.9207 110.452 55.2626 106.036 58.3501 104.922C64.1596 102.832 70.3103 101.507 75.8111 98.6117C77.3711 97.7904 74.3323 97.3838 71.7647 96.6031C70.4241 100.035 53.8651 100.384 50.4281 100.45L56.2213 102.962C56.6601 103.149 56.2864 103.792 55.8476 103.58L48.3806 100.49C45.4149 100.531 43.1724 100.49 42.8717 100.45C42.0511 100.311 37.2004 97.1317 34.7141 94.3262C33.5441 95.2126 32.9266 98.5955 33.8528 99.7746C34.6979 100.848 49.2175 108.541 55.5145 110.46C59.4877 111.696 60.7877 111.078 65.0127 109.484C68.6122 108.134 72.1791 106.687 75.6973 105.158C75.9898 105.012 76.1117 104.646 75.9654 104.353C75.8192 104.068 75.4779 103.946 75.1854 104.076L75.1936 104.085Z" fill="#6F93FC"/>
<path d="M50.6231 71.8168C48.3724 71.8168 47.4055 69.7675 44.2124 71.1093C41.0192 72.451 41.1817 80.2415 45.1386 83.0795C48.3562 85.3321 52.6381 85.3321 55.8557 83.0795C58.0657 81.323 59.7801 76.4194 58.3257 73.5651C55.8801 68.8811 52.695 71.8086 50.6231 71.8086V71.8168Z" fill="#6F93FC"/>
<path d="M52.6138 66.2627C51.7038 66.7588 50.1437 69.4911 50.0706 70.9305C50.0462 71.1744 50.2331 71.394 50.4769 71.4184C50.6963 71.4347 50.8913 71.2964 50.9563 71.085C51.6631 68.6129 52.9957 67.5232 53.2069 66.6368C53.2882 66.3115 52.8819 66.1164 52.6219 66.2546L52.6138 66.2627Z" fill="#191919"/>
<path d="M131.038 85.1534C127.877 82.9984 124.578 81.0549 121.157 79.3228C120.694 74.6225 117.265 48.6734 116.924 47.0226C116.583 45.3718 116.632 44.8595 113.707 44.8595C110.782 44.8595 70.5866 51.4301 69.2459 51.4301C67.9053 51.4301 66.6134 52.0482 67.6696 55.1383C68.6771 58.1065 74.4947 86.3406 75.291 89.6666C75.5835 90.8946 79.313 93.9359 80.3692 94.8792C80.9461 95.3997 81.7667 94.5051 81.1817 93.9928C79.6055 92.586 78.0536 91.1548 76.4935 89.7398C85.9512 87.8044 114.869 81.2826 120.386 79.8513C120.483 80.0384 129.274 85.4136 130.412 86.0723C130.704 86.2024 131.046 86.0723 131.176 85.7714C131.281 85.5356 131.216 85.2672 131.029 85.0965L131.046 85.1453L131.038 85.1534ZM127.333 88.5932C125.188 86.853 122.717 85.3811 120.402 83.8279C109.425 86.6171 98.5858 89.3332 87.4706 91.6264C86.8531 91.7484 86.7637 90.8376 87.3406 90.7075C98.0739 88.1541 108.563 85.7226 119.281 82.9821C120.938 82.5593 121.092 83.0309 122.604 84.023C124.57 85.3079 126.504 86.4952 128.373 87.9508C129.315 88.6745 129.161 89.1787 128.373 89.4389C122.531 91.1954 106.768 95.9445 101.511 96.9854C100.934 97.0992 100.812 96.3023 101.332 96.1234C109.579 93.2935 118.874 91.0491 127.316 88.6013H127.333V88.5932ZM122.782 101.238C122.051 100.807 114.04 103.515 113.211 103.987C112.967 104.15 112.894 104.475 113.057 104.719C113.179 104.906 113.406 105.004 113.625 104.947C114.852 104.573 122.612 102.596 122.977 101.897C123.099 101.661 123.018 101.369 122.782 101.238ZM77.3385 86.4626C77.0054 84.1125 72.1872 63.1239 70.5459 53.8128C72.3985 53.4631 100.568 49.6004 114.592 47.7301C114.885 48.7222 118.639 72.8416 118.988 76.9401C118.021 77.2898 79.0204 85.7714 77.3385 86.4626Z" fill="#191919"/>
<path d="M80.7593 56.5695C79.1587 56.6834 77.5824 56.9924 76.0548 57.4885C75.6242 57.643 75.7705 58.3748 76.2417 58.3017C77.7774 58.0577 79.3293 57.8381 80.8568 57.6267C81.1493 57.6023 81.3687 57.3421 81.3443 57.0493C81.3199 56.7566 81.0599 56.537 80.7674 56.5614L80.7593 56.5695ZM75.1042 31.6613C73.5442 31.8728 72.0167 32.0842 70.4323 32.3282C70.1966 32.3607 70.026 32.5721 70.0585 32.8079C70.0829 33.0031 70.2373 33.1576 70.4323 33.182C72.0492 33.1983 73.6579 33.0519 75.2423 32.7591C75.543 32.7266 75.7623 32.4501 75.7298 32.1493C75.6973 31.8484 75.4211 31.6288 75.1205 31.6613C75.1205 31.6613 75.1123 31.6613 75.1042 31.6613ZM78.2486 41.005C77.818 40.6065 73.6661 41.436 73.0079 41.7043C72.6098 41.8669 72.7073 42.607 73.1542 42.5663C73.8367 42.5012 78.0455 42.119 78.3543 41.6718C78.4924 41.4604 78.4436 41.1757 78.2486 41.0131V41.005ZM73.6417 20.301C71.911 20.5205 70.2047 20.8458 68.5147 21.2931C67.9866 21.4313 68.1897 22.2364 68.7016 22.212C69.2135 22.1876 73.3817 21.5452 73.7798 21.0573C73.9586 20.854 73.9342 20.5449 73.7229 20.366C73.6986 20.3416 73.6661 20.3172 73.6336 20.301H73.6417ZM71.9842 14.3646C70.3916 14.4785 68.8154 14.7875 67.2959 15.2917C66.8572 15.4462 67.0034 16.1781 67.4828 16.1049C69.0022 15.8691 70.5379 15.6414 72.0898 15.4381C72.3904 15.4137 72.6098 15.1534 72.5854 14.8607C72.561 14.5598 72.301 14.3402 72.0085 14.3646C72.0085 14.3646 72.0004 14.3646 71.9923 14.3646H71.9842ZM84.4969 73.9801C82.9287 74.0451 81.3687 74.3054 79.8655 74.7607C79.638 74.8583 79.5324 75.1185 79.6299 75.3544C79.703 75.5333 79.8899 75.6471 80.0768 75.6309C81.5799 75.3544 83.0912 75.1755 84.6187 75.1023C84.9275 75.0779 85.1631 74.8095 85.1388 74.5005C85.1144 74.1915 84.8462 73.9557 84.5375 73.9801C84.5212 73.9801 84.5131 73.9801 84.4969 73.9801ZM77.298 63.4654C76.7617 63.6037 76.9649 64.4088 77.4849 64.3844C78.0049 64.36 82.165 63.7175 82.5631 63.2296C82.7337 63.0182 82.7012 62.7173 82.4981 62.5465C82.4737 62.5221 82.4412 62.5059 82.4168 62.4896C80.6862 62.6766 78.9718 63.0019 77.298 63.4736V63.4654Z" fill="#191919"/>
<path d="M104.761 27.3351C104.663 27.3351 87.5356 29.6527 80.0361 30.8562C79.8167 30.8725 79.6461 31.0677 79.6623 31.2872C79.6786 31.5068 79.8655 31.6694 80.0848 31.6613C86.6337 31.3035 98.3583 28.9615 105.102 28.3678C105.801 28.3028 105.443 27.2456 104.753 27.3351H104.761Z" fill="#6F93FC"/>
<path d="M94.3689 23.5702C94.3121 23.3181 94.0846 23.1473 93.8327 23.1554C93.8327 23.0578 80.8812 25.0583 79.2399 25.6194C78.7605 25.7821 79.0043 26.4814 79.4431 26.4245C84.2125 25.8064 89.2338 25.1396 93.9627 24.2126C94.2471 24.1557 94.4339 23.871 94.3689 23.5864C94.3689 23.5864 94.3689 23.5864 94.3689 23.5783V23.5702Z" fill="#6F93FC"/>
<path d="M100.089 33.7513C98.8296 33.7513 82.8312 36.2234 81.2549 36.4755C80.7268 36.5649 81.0355 37.3781 81.5149 37.3375C86.5037 36.8983 95.1408 35.2963 100.081 34.7678C100.658 34.7108 100.698 33.6862 100.081 33.7513H100.089Z" fill="#6F93FC"/>
<path d="M101.275 15.9827C94.9538 17.1863 83.2861 18.4549 77.2979 19.7235C76.8835 19.8129 77.0379 20.5854 77.4279 20.5204C84.6105 19.39 97.8626 17.7393 101.438 17.048C102.12 16.9098 101.95 15.8526 101.275 15.9827Z" fill="#6F93FC"/>
<path d="M100.642 10.0546L100.625 10.0383C92.9552 11.2663 83.7087 12.4047 75.9655 13.7465C75.5105 13.8197 75.6242 14.5922 76.0874 14.5516C83.6437 13.836 93.272 12.2828 100.812 11.0955C101.389 11.006 101.235 9.97327 100.65 10.0627L100.642 10.0546Z" fill="#6F93FC"/>
<path d="M108.726 37.0445V37.0689C100.398 38.2643 91.0945 39.6955 82.685 40.9235C82.1081 41.0129 82.1569 41.9074 82.7581 41.8424C90.6964 41.0211 101.145 39.167 108.945 38.0529C109.563 37.9716 109.295 36.9632 108.726 37.0364V37.0445Z" fill="#6F93FC"/>
<path d="M112.521 68.491C105.086 70.1824 96.6115 71.5892 88.5108 73.5165C88.2914 73.549 88.137 73.7523 88.1695 73.9719C88.202 74.1915 88.4051 74.346 88.6245 74.3134C95.1327 73.4596 106.337 70.7598 112.951 69.4912C113.634 69.3529 113.203 68.3283 112.521 68.491Z" fill="#6F93FC"/>
<path d="M110.497 74.0449C103.632 75.4192 96.7984 76.8829 89.9651 78.3711C89.4045 78.4931 89.6157 79.29 90.1683 79.2249C96.4246 78.4118 104.322 76.4763 110.603 75.0451C111.107 74.9313 111.107 73.9229 110.497 74.0449Z" fill="#6F93FC"/>
<path d="M102.681 66.4171C102.965 66.3521 103.152 66.0756 103.087 65.7828C103.03 65.5307 102.811 65.36 102.551 65.3681C102.551 65.2705 89.6077 67.2628 87.9501 67.8321C87.4789 67.9866 87.7226 68.6941 88.1614 68.629C92.9308 68.011 97.9522 67.3442 102.681 66.4171Z" fill="#6F93FC"/>
<path d="M100.552 42.7857C95.0839 43.5582 89.0876 44.534 83.66 45.5587C83.1887 45.6563 83.3431 46.4451 83.8062 46.3881C87.8119 45.8921 95.4902 44.6072 100.715 43.7127C101.235 43.6233 101.08 42.7125 100.544 42.7857H100.552Z" fill="#6F93FC"/>
<path d="M109.417 52.2594V52.2432C101.608 52.9994 92.492 54.5933 84.7324 55.9513C84.2856 56.0245 84.3993 56.7971 84.8543 56.7564C92.4026 56.0408 101.885 54.3981 109.579 53.2922C110.156 53.2109 110.01 52.2025 109.417 52.2676V52.2594Z" fill="#6F93FC"/>
<path d="M110.05 58.1713C109.563 58.5535 86.1543 61.9201 86.0568 61.9364C85.6343 62.0015 85.7968 62.7903 86.1787 62.7415C94.0519 61.7494 106.613 59.9603 110.188 59.261C110.895 59.1146 110.733 58.0412 110.042 58.1713H110.05Z" fill="#6F93FC"/>
</g>
<defs>
<clipPath id="clip0_220_2258">
<rect width="228" height="150" fill="white"/>
</clipPath>
</defs>
</svg>
