<svg xmlns="http://www.w3.org/2000/svg" fill="none" viewBox="-0.25 -0.25 200 200" id="Business-Go-To-Market-Strategy-01--Streamline-Bangalore.svg"><desc>Business Go To Market Strategy 01 Streamline Illustration: https://streamlinehq.com</desc><g><g><path fill="#72d4a8" fill-rule="evenodd" d="M145.47141000000002 52.24715475000001c-10.632352500000001 -7.436661750000001 -23.5739175 -11.79952725 -37.533930000000005 -11.79952725 -36.21114525000001 0 -65.56617375 29.354928750000003 -65.56617375 65.5666725 0 11.3405775 2.87948325 22.009837500000003 7.947182250000001 31.3145175 0.59361225 -5.468295 3.9898005000000003 -8.390970000000001 7.34189925 -11.274742500000002 3.8766840000000005 -3.33564 7.694415750000001 -6.621405 7.05023025 -13.7345775 -0.10154550000000001 0.0329175 -0.20299124999999998 0.065835 -0.30433725 0.09875250000000001 -4.64785125 1.5351525 -8.95046775 3.9670575 -12.663162750000001 7.160055000000001 -0.30393825 0.237405 -0.6597465 0.39999750000000006 -1.03829775 0.47481 -0.378651 0.073815 -0.7694715 0.057855000000000004 -1.140741 -0.047880000000000006 -0.37116975 -0.1047375 -0.71231475 -0.2962575 -0.99560475 -0.5586000000000001 -0.28329 -0.26134500000000005 -0.500745 -0.58653 -0.634809 -0.9486225l-1.5730575 -3.904215c-0.12378975 -0.29825250000000003 -0.184338 -0.6194475 -0.1777545 -0.94164 0.00648375 -0.32319000000000003 0.0799995 -0.6413925 0.2156595 -0.9346575000000001 2.2533525 -4.853835 5.426799000000001 -9.225877500000001 9.34458 -12.87174 2.94432075 -2.7753442500000003 7.2714757500000005 -3.6706005000000004 11.46157425 -3.05045475 4.2072555000000005 -18.6015795 20.8367775 -32.491368 40.71086775 -32.491368 23.051227500000003 0 41.7383925 18.68686575 41.7383925 41.73829275 0 14.552527500000002 -7.4483325 27.3664125 -18.7400325 34.8356925 1.5291675 5.482260000000001 3.5760375 7.731622500000001 3.5760375 7.731622500000001L117.5055 148.6275s0.656355 -0.720195 1.5042300000000002 -2.3371425c-3.533145 0.971565 -7.252822500000001 1.4902650000000002 -11.094195000000001 1.4902650000000002 -10.051408499999999 0 -19.272597750000003 -3.5520975000000004 -26.47674225 -9.470265 -0.08887725 0.9745575000000001 -0.153615 1.9551 -0.18663225 2.9456175l-24.88433325 -0.0189525c-1.675002 -1.1341575000000002 -3.48656175 -2.05086 -5.39078925 -2.7281625 1.6589422500000002 2.9017275 3.5333445 5.6648025 5.6013615 8.2662825 0.19461225000000001 -0.5536125000000001 0.30304050000000005 -1.139145 0.30304050000000005 -1.7655750000000001h24.41082c0 3.1999800000000005 2.83938375 5.367547500000001 5.529840750000001 7.421400000000001 2.4221295 1.8493650000000001 4.72346175 3.6059625000000004 4.72346175 5.940112500000001 0 3.25983 -3.33564 4.1505975 -3.33564 4.1505975h-13.546050000000001c9.753954 5.755574999999999 21.128247 9.0582975 33.273607500000004 9.0582975 10.579485 0 20.5734375 -2.50572 29.4212625 -6.9555675h-23.714565000000004l0.0189525 -0.0189525s-3.3545925000000003 -0.720195 -3.3545925000000003 -3.6578325c0 -1.8363975000000001 1.5221850000000001 -2.86083 3.1720500000000005 -3.9710475 2.0149500000000002 -1.3566000000000003 4.2224175 -2.8418775000000003 4.086757500000001 -6.0927299999999995l16.8487725 0.0189525c-0.13566000000000003 3.2488575 2.068815 4.731142500000001 4.0827675 6.0857475 1.65186 1.1102175 3.1760400000000004 2.1356475 3.1760400000000004 3.9780300000000004 0 0.57456 -0.129675 1.06533 -0.33915000000000006 1.4812875 19.2587325 -11.421375 32.168377500000005 -32.4197475 32.168377500000005 -56.43356250000001 0 -17.025729000000002 -6.4897350000000005 -32.53535775 -17.129070000000002 -44.1910455l-2.7620775 3.1680600000000005 -12.4278525 3.08816025 1.4922600000000001 -12.602415 2.7939975 -3.229905Z" clip-rule="evenodd" stroke-width="0.5"></path><path fill="#72d4a8" d="M89.99544750000001 106.03325250000002a17.9200875 17.9200875 0 1 0 35.840175 0 17.9200875 17.9200875 0 1 0 -35.840175 0" stroke-width="0.5"></path></g><g><path fill="#6153bd" d="m146.67639000000003 61.807095000000004 -5.496225 6.2732775 12.43284 -3.0892575 5.4014625 -6.1974675 -12.3380775 3.0134475000000003Z" stroke-width="0.5"></path><path fill="#6153bd" d="m153.57510000000002 42.854595 -1.3077225000000001 12.5655075 5.344605 -6.1216574999999995 1.3645800000000001 -12.698175 -5.4014625 6.254325Z" stroke-width="0.5"></path><path fill="#6153bd" d="m114.4002825 98.6318025 -1.7625825 -7.164045000000001 -4.70022 14.5744725 13.380465000000001 -7.05033 -6.9176625 -0.3600975Z" stroke-width="0.5"></path><path fill="#6153bd" d="M94.12110750000001 171.5989275h-50.07450000000001c0.11371500000000001 -6.21642 5.9131800000000005 -9.07725 5.9131800000000005 -9.07725h38.24814000000001c0 -0.019950000000000002 5.7994650000000005 2.8638225 5.9131800000000005 9.07725Z" stroke-width="0.5"></path><path fill="#6153bd" d="M83.10980475000001 141.21807h-28.047705c-0.5027400000000001 0 -0.984732 0.1995 -1.340241 0.5556075 -0.35540925 0.35511 -0.55510875 0.8369025 -0.55510875 1.3396425s0.1996995 0.9845325 0.55510875 1.34064c0.355509 0.35511 0.837501 0.55461 1.340241 0.55461H83.1117c0.5027400000000001 0 0.984732 -0.1995 1.340241 -0.55461 0.35540925 -0.3561075 0.55510875 -0.8379 0.55510875 -1.34064 0 -0.5027400000000001 -0.1996995 -0.9845325 -0.55510875 -1.3396425 -0.355509 -0.3561075 -0.837501 -0.5556075 -1.340241 -0.5556075h-0.00189525Z" stroke-width="0.5"></path><path fill="#6153bd" d="m69.99457500000001 91.145565 -1.5730575 5.856322500000001c9.5051775 2.11071 17.4732075 12.518625000000002 15.124095000000002 27.5758875 -0.34114500000000003 2.1416325 -0.7391475000000001 4.264312500000001 -1.09725 6.384l6.14061 1.8762975000000002c0.5306700000000001 -3.4683075 1.2887700000000002 -6.9176625 1.8383925 -10.423875 1.70373 -10.875742500000001 -5.2328850000000005 -28.330995 -20.432790000000004 -31.268632500000002Z" stroke-width="0.5"></path><path fill="#6153bd" d="M62.982150000000004 88.13211749999999c-0.65027025 1.35031575 -0.926478 2.85035625 -0.7997955 4.34381325 0.1266825 1.49335725 0.651567 2.925468 1.5199905 4.14690675 1.5830325 -0.09157050000000001 3.1710525 0.03600975 4.7191725 0.37905l-5.4393675 -8.86977Z" stroke-width="0.5"></path><path fill="#6153bd" d="M137.10537750000003 149.74669500000002c-0.0009975000000000001 0.301245 -0.1206975 0.59052 -0.33416250000000003 0.8029875000000001 -0.2124675 0.21346500000000002 -0.5017425 0.33316500000000004 -0.8029875000000001 0.33416250000000003H116.00925000000001c-0.2244375 0 -0.44289 -0.0668325 -0.6294225 -0.1905225 -0.185535 -0.1246875 -0.33117 -0.3022425 -0.4159575 -0.508725 -0.085785 -0.20748 -0.10773 -0.43491 -0.06384000000000001 -0.65436 0.04389 -0.22044750000000002 0.15261750000000002 -0.4219425 0.31122 -0.5795475 0.1047375 -0.10374 0.22942500000000002 -0.185535 0.36708 -0.241395 0.13665750000000002 -0.0548625 0.28329 -0.0827925 0.43092 -0.08079750000000001h19.956982500000002c0.149625 -0.005985000000000001 0.29825250000000003 0.0189525 0.43790250000000003 0.0728175 0.13965000000000002 0.053865 0.2663325 0.13566000000000003 0.37306500000000004 0.24039750000000001 0.10673250000000001 0.1047375 0.1905225 0.23042250000000003 0.24738000000000002 0.36907500000000004 0.05586000000000001 0.13765500000000003 0.08379 0.2862825 0.08079750000000001 0.4359075Z" stroke-width="0.5"></path><path fill="#6153bd" d="M138.3183375 164.605455h-24.657202500000004c-1.5930075000000001 0.37107 -3.0194325 1.2578475 -4.05783 2.5226775 -1.0383975 1.2638325 -1.6309125 2.8358925 -1.6847775 4.470795000000001h36.161370000000005c-0.05586000000000001 -1.637895 -0.65037 -3.2109525 -1.6927575000000001 -4.4757825 -1.04139 -1.2648300000000001 -2.4718050000000003 -2.1496125 -4.0688025 -2.51769Z" stroke-width="0.5"></path><path fill="#6153bd" d="M125.9992125 106.932c-1.3346550000000001 0 -2.639385 0.39600750000000007 -3.7486050000000004 1.1371499999999999 -1.10922 0.7411425 -1.9740525000000002 1.7955 -2.4847725 3.0274125000000005 -0.5107200000000001 1.23291 -0.6443850000000001 2.58951 -0.38403750000000003 3.8992275 0.2603475 1.30872 0.9027375000000001 2.5107075 1.8463725 3.4543425 0.943635 0.943635 2.1456225 1.5860250000000002 3.4543425 1.8463725 1.3097175 0.2603475 2.6663175000000003 0.1266825 3.8992275 -0.38403750000000003 1.2319125000000002 -0.5107200000000001 2.28627 -1.3755525000000002 3.0274125000000005 -2.4847725 0.7411425 -1.1102175 1.1371499999999999 -2.4139500000000003 1.1371499999999999 -3.7486050000000004 -0.0009975000000000001 -1.7895150000000002 -0.712215 -3.505215 -1.9770450000000002 -4.7700450000000005 -1.2648300000000001 -1.2648300000000001 -2.9805300000000003 -1.9760475000000002 -4.7700450000000005 -1.9770450000000002Z" stroke-width="0.5"></path><path fill="#6153bd" d="m62.14434975 91.58147250000002 -1.9521075 -3.0324c-0.64967175 1.353807 -0.9254805 2.8566405 -0.798798 4.352890500000001 0.12658275000000002 1.49625 0.65106825 2.9314530000000003 1.518993 4.156782000000001 0.911316 -0.24029775 1.84487625 -0.38633175 2.7860175000000003 -0.4359075 -1.050168 -1.467921 -1.59550125 -3.23698725 -1.554105 -5.041365000000001Z" stroke-width="0.5"></path></g><g><path stroke="#120071" stroke-linecap="round" stroke-linejoin="round" d="M188.96939250000003 142.2225525v11.106165" stroke-width="0.5"></path><path stroke="#120071" stroke-linecap="round" stroke-linejoin="round" d="M194.51250000000002 147.775635h-11.087212500000001" stroke-width="0.5"></path><path stroke="#120071" stroke-linecap="round" stroke-linejoin="round" d="M29.72041275 57.864975v113.73395250000002H178.17544500000002" stroke-width="0.5"></path><path stroke="#120071" stroke-linecap="round" stroke-linejoin="round" d="m21.53293275 73.12183725 8.18748 -15.332572500000001 8.18748 15.332572500000001" stroke-width="0.5"></path><path stroke="#120071" stroke-linecap="round" stroke-linejoin="round" d="m162.937635 163.35459000000003 15.237810000000001 8.2443375 -15.237810000000001 8.2443375" stroke-width="0.5"></path><path stroke="#120071" stroke-linecap="round" stroke-linejoin="round" d="M50.32188 137.37071250000002c-7.05960675 -12.97548 -9.53121225 -27.953940000000003 -7.01412075 -42.50916075 2.51699175 -14.5553205 9.875050500000002 -27.83433975 20.881964250000003 -37.68525075 11.00691375 -9.850911000000002 25.017699000000004 -15.696660000000001 39.76174650000001 -16.5898215 14.7440475 -0.8931615 29.35842 3.2184337500000004 41.47405500000001 11.668555500000002" stroke-width="0.5"></path><path stroke="#120071" stroke-linecap="round" stroke-linejoin="round" d="M53.33522775 142.33626750000002c-0.8528625000000001 -1.2698175 -1.6488675000000002 -2.5585875000000002 -2.4069675 -3.89025" stroke-width="0.5"></path><path stroke="#120071" stroke-linecap="round" stroke-linejoin="round" d="M56.55825000000001 146.77115250000003c-0.4738125 -0.5875275 -0.9286725000000001 -1.175055 -1.3645800000000001 -1.781535" stroke-width="0.5"></path><path stroke="#120071" stroke-linecap="round" stroke-linejoin="round" d="M107.9185275 171.5989275c-4.715182500000001 0.004987500000000001 -9.41709825 -0.496755 -14.024949750000001 -1.49625" stroke-width="0.5"></path><path stroke="#120071" stroke-linecap="round" stroke-linejoin="round" d="M156.3611175 61.845000000000006c6.56754 7.1977605 11.4483075 15.768679500000001 14.287192500000002 25.089519000000003 2.8398825000000003 9.320839500000002 3.5660625000000006 19.157586000000002 2.1266700000000003 28.7944335 -1.4393925 9.6368475 -5.0084475 18.830805 -10.447815 26.9155425s-12.611392500000001 14.85477 -20.99538 19.8193275" stroke-width="0.5"></path><path stroke="#120071" stroke-linecap="round" stroke-linejoin="round" d="M67.23140025000001 96.7744575c1.5163995000000001 -6.656118 4.642165500000001 -12.83872275 9.10328475 -18.005972250000003 4.46111925 -5.16734925 10.121532750000002 -9.161738249999999 16.485084 -11.63314425 6.36355125 -2.471406 13.236426000000002 -3.344418 20.015436 -2.54252775 6.77901 0.80189025 13.25877 3.2542440000000004 18.869707500000004 7.1421 5.611935000000001 3.887856 10.184475 9.0926115 13.316625 15.1582095 3.13215 6.0655980000000005 4.7291475 12.806802750000001 4.6513425 19.63289475 -0.07880250000000001 6.8258925 -1.8304125 13.5290925 -5.101215 19.521075s-7.9610475 11.090205000000001 -13.659765000000002 14.848785" stroke-width="0.5"></path><path stroke="#120071" stroke-linecap="round" stroke-linejoin="round" d="M119.00175 146.29734c-6.444847500000001 1.7755500000000002 -13.221862500000002 1.9750500000000002 -19.759377750000002 0.5815425 -6.53791425 -1.39251 -12.645008250000002 -4.33713 -17.806572 -8.584485" stroke-width="0.5"></path><path stroke="#120071" stroke-linecap="round" stroke-linejoin="round" d="M125.82564750000002 106.91205000000001c0.0149625 -0.289275 0.021945 -0.5795475 0.021945 -0.86982 0.0019950000000000002 -2.3531025000000003 -0.4598475 -4.68426 -1.3585950000000002 -6.85930875 -0.8987475 -2.17504875 -2.2174425 -4.151595 -3.8812725 -5.816622000000001 -1.6628325000000002 -1.665027 -3.6378825 -2.98601625 -5.8124325 -3.8873572500000004 -2.1735525 -0.9013410000000001 -4.50471 -1.365378 -6.8578125000000005 -1.36567725 -3.5441175 -0.0019950000000000002 -7.009432500000001 1.0471755 -9.95774325 3.0146445 -2.9480115000000002 1.9674690000000001 -5.246451 4.764957750000001 -6.60454725 8.03875275 -1.358196 3.2735955000000003 -1.71500175 6.8765655 -1.02543 10.352853000000001 0.6896715000000001 3.477285 2.3946982500000003 6.67128 4.8995205 9.178995 2.504922 2.5067175 5.696722500000001 4.215435 9.17301 4.908697500000001 3.47529 0.6932625 7.079257500000001 0.34014750000000005 10.35405 -1.0144575 2.395995 -0.9905175 4.537627500000001 -2.4847725 6.286245 -4.3690500000000005" stroke-width="0.5"></path><path stroke="#120071" stroke-linecap="round" stroke-linejoin="round" d="m114.4002825 98.63190225 43.2117 -49.295452499999996" stroke-width="0.5"></path><path stroke="#120071" stroke-linecap="round" stroke-linejoin="round" d="m169.987965 46.20928725 -16.37496 18.781927500000002 -12.43284 3.0892575 16.4318175 -18.7440225 12.375982500000001 -3.1271625Z" stroke-width="0.5"></path><path stroke="#120071" stroke-linecap="round" stroke-linejoin="round" d="m158.9765625 36.60027 -16.29915 18.838785 -1.4972475 12.641317500000001 16.4318175 -18.781927500000002 1.3645800000000001 -12.698175Z" stroke-width="0.5"></path><path stroke="#120071" stroke-linecap="round" stroke-linejoin="round" d="m152.2673775 55.4201025 12.35703 -3.0324" stroke-width="0.5"></path><path stroke="#120071" stroke-linecap="round" stroke-linejoin="round" d="m146.67639000000003 61.807095000000004 1.3645800000000001 -12.546555" stroke-width="0.5"></path><path stroke="#120071" stroke-linecap="round" stroke-linejoin="round" d="m107.93748000000001 106.04223000000002 4.70022 -14.5744725 1.7625825 7.164045000000001 6.9176625 0.3600975 -13.380465000000001 7.05033Z" stroke-width="0.5"></path><path stroke="#120071" stroke-linecap="round" stroke-linejoin="round" d="M94.12110750000001 171.5989275c-0.11371500000000001 -6.21642 -5.9131800000000005 -9.07725 -5.9131800000000005 -9.07725" stroke-width="0.5"></path><path stroke="#120071" stroke-linecap="round" stroke-linejoin="round" d="M49.96168275 162.52068s-5.7994650000000005 2.88078 -5.9131800000000005 9.07725" stroke-width="0.5"></path><path stroke="#120071" stroke-linecap="round" stroke-linejoin="round" d="M81.290265 145.00857000000002H56.879445000000004" stroke-width="0.5"></path><path stroke="#120071" stroke-linecap="round" stroke-linejoin="round" d="M56.87934525000001 145.00857000000002c0 6.08475 -10.2533025 8.4338625 -10.2533025 13.3615125 0 3.25983 3.33564 4.1505975 3.33564 4.1505975h38.246145s3.33564 -0.8907675 3.33564 -4.1505975c0 -4.927650000000001 -10.2533025 -7.281750000000001 -10.2533025 -13.3615125" stroke-width="0.5"></path><path stroke="#120071" stroke-linecap="round" stroke-linejoin="round" d="M55.041052500000006 145.00857000000002c-2.535645 0 -2.4229275 -3.7715475000000005 0.0189525 -3.7715475000000005h28.0497c0.49256550000000004 0.0109725 0.961191 0.21546 1.30562775 0.5675775 0.34443675 0.35211749999999997 0.5372535 0.82593 0.5372535 1.3186950000000002 0 0.492765 -0.19281675 0.96558 -0.5372535 1.3176975 -0.34443675 0.353115 -0.8130622500000001 0.5566050000000001 -1.30562775 0.5675775H55.041052500000006Z" stroke-width="0.5"></path><path stroke="#120071" stroke-linecap="round" stroke-linejoin="round" d="M56.36782725 141.23702250000002c-1.888068 -1.2787950000000001 -3.9495015 -2.2812825 -6.1216574999999995 -2.9755425000000004 0.60648 -12.736080000000001 15.6737175 -12.3380775 14.441805 -25.942980000000002" stroke-width="0.5"></path><path stroke="#120071" stroke-linecap="round" stroke-linejoin="round" d="M81.2521605 141.25597500000003c0.189525 -5.6857500000000005 1.4224350000000001 -11.07225 2.29425 -16.65825 1.38453 -8.8887225 -0.5815425 -18.619335000000003 -8.528625000000002 -24.600345 -5.5490925 -4.1754352500000005 -14.348040000000001 -4.795880250000001 -19.2746925 -0.15162 -3.917781 3.6458625 -7.0912275000000005 8.016907500000002 -9.34458 12.87174 -0.13566000000000003 0.293265 -0.20917575000000002 0.6114675 -0.2156595 0.9346575000000001 -0.0065835 0.32219250000000005 0.053964750000000006 0.6433875 0.1777545 0.94164l1.5730575 3.904215c0.134064 0.3620925 0.351519 0.6872775 0.634809 0.9486225 0.28329 0.26234250000000003 0.6244350000000001 0.45386250000000006 0.99560475 0.5586000000000001 0.3712695 0.10573500000000001 0.76209 0.121695 1.140741 0.047880000000000006 0.37855125 -0.0748125 0.7343595 -0.237405 1.03829775 -0.47481 3.7935922500000006 -3.2628225 8.203040999999999 -5.7306375 12.967500000000001 -7.2588075000000005 1.1181975 -0.35910000000000003 6.9934725 -2.4827775 4.8328875 -8.831865" stroke-width="0.5"></path><path stroke="#120071" stroke-linecap="round" stroke-linejoin="round" d="m68.42151750000001 97.00188750000001 1.5730575 -5.856322500000001c15.199905000000001 2.9376375 22.1445 20.41284 20.44875 31.271625000000004 -0.5476275 3.5062125 -1.3077225000000001 6.9555675 -1.8383925 10.423875l-6.1595625 -1.8762975000000002" stroke-width="0.5"></path><path stroke="#120071" stroke-linecap="round" stroke-linejoin="round" d="m68.42151750000001 97.00198725 -5.4393675 -8.8887225c-0.64967175 1.353807 -0.9254805 2.8566405 -0.798798 4.352890500000001 0.12658275000000002 1.49625 0.65106825 2.9314530000000003 1.518993 4.156782000000001" stroke-width="0.5"></path><path stroke="#120071" stroke-linecap="round" stroke-linejoin="round" d="m62.14415025 91.58157225000001 -1.9521075 -3.0513525c-0.64967175 1.353807 -0.9254805 2.8566405 -0.79889775 4.352890500000001 0.1266825 1.49625 0.6511680000000001 2.9314530000000003 1.51909275 4.156782000000001" stroke-width="0.5"></path><path stroke="#120071" stroke-linecap="round" stroke-linejoin="round" d="M135.98718000000002 148.609545h-19.956982500000002c-0.149625 -0.0009975000000000001 -0.297255 0.0269325 -0.4359075 0.0827925 -0.1386525 0.05586000000000001 -0.2643375 0.1386525 -0.37107 0.24339 -0.21546 0.21147000000000002 -0.33715500000000004 0.4997475 -0.34014750000000005 0.8019900000000001 -0.0019950000000000002 0.301245 0.11571000000000001 0.5915175 0.32718 0.8059800000000001 0.21147000000000002 0.21546 0.4997475 0.3381525 0.8009925000000001 0.34014750000000005h19.956982500000002c0.149625 0.0009975000000000001 0.297255 -0.0269325 0.4359075 -0.0827925 0.1386525 -0.05586000000000001 0.2643375 -0.1386525 0.37107 -0.24339 0.10673250000000001 -0.1047375 0.19152000000000002 -0.22942500000000002 0.249375 -0.36708 0.057855000000000004 -0.13765500000000003 0.0887775 -0.285285 0.08977500000000001 -0.43391250000000003 0.0019950000000000002 -0.149625 -0.0269325 -0.29825250000000003 -0.0827925 -0.4359075 -0.05586000000000001 -0.1386525 -0.1386525 -0.26533500000000004 -0.24339 -0.37107 -0.1047375 -0.10673250000000001 -0.22942500000000002 -0.19152000000000002 -0.36708 -0.249375 -0.13665750000000002 -0.0588525 -0.28428749999999997 -0.08977500000000001 -0.43391250000000003 -0.0907725v0Z" stroke-width="0.5"></path><path stroke="#120071" stroke-linecap="round" stroke-linejoin="round" d="M144.07989750000002 171.579975c-0.05586000000000001 -1.6329075000000002 -0.648375 -3.2009775 -1.6867725000000002 -4.462815000000001 -1.0383975 -1.2608400000000002 -2.4638250000000004 -2.1436275 -4.055835 -2.511705" stroke-width="0.5"></path><path stroke="#120071" stroke-linecap="round" stroke-linejoin="round" d="M113.661135 164.605455c-1.5920100000000001 0.3680775 -3.0174375 1.2508650000000001 -4.055835 2.511705 -1.0383975 1.2618375 -1.6309125 2.8299075000000005 -1.6867725000000002 4.462815000000001" stroke-width="0.5"></path><path stroke="#120071" stroke-linecap="round" stroke-linejoin="round" d="M117.5843025 150.8648925c0.2463825 5.9131800000000005 -7.2588075000000005 5.985 -7.2588075000000005 10.0637775 0 2.9376375 3.3545925000000003 3.6578325 3.3545925000000003 3.6578325l-0.0189525 0.0189525h24.676155s3.3545925000000003 -0.7391475000000001 3.3545925000000003 -3.6578325c0 -4.0897499999999996 -7.505190000000001 -4.1505975 -7.2588075000000005 -10.0637775" stroke-width="0.5"></path><path stroke="#120071" stroke-linecap="round" stroke-linejoin="round" d="M134.4899325 148.609545s-5.3635575 -5.8942275 -5.2119375 -21.8522325" stroke-width="0.5"></path><path stroke="#120071" stroke-linecap="round" stroke-linejoin="round" d="M122.72043000000001 126.776265C122.89200000000001 142.71531750000003 117.5055 148.6275 117.5055 148.6275" stroke-width="0.5"></path><path stroke="#120071" stroke-linecap="round" stroke-linejoin="round" d="m102.13801500000001 21.07827225 5.76156 6.0648 5.856322500000001 -7.4862375000000005" stroke-width="0.5"></path><path stroke="#120071" stroke-linecap="round" stroke-linejoin="round" d="M125.9992125 106.932c-1.3346550000000001 0 -2.639385 0.39600750000000007 -3.7486050000000004 1.1371499999999999 -1.10922 0.7411425 -1.9740525000000002 1.7955 -2.4847725 3.02841s-0.6443850000000001 2.58951 -0.38403750000000003 3.8982300000000003c0.2603475 1.30872 0.9027375000000001 2.5107075 1.8463725 3.4543425 0.943635 0.943635 2.1456225 1.5860250000000002 3.4543425 1.8463725 1.3097175 0.2603475 2.6663175000000003 0.1266825 3.8992275 -0.38403750000000003 1.2319125000000002 -0.5107200000000001 2.28627 -1.3755525000000002 3.0274125000000005 -2.4847725 0.7411425 -1.10922 1.1371499999999999 -2.4139500000000003 1.1371499999999999 -3.7486050000000004 -0.0009975000000000001 -1.7895150000000002 -0.712215 -3.505215 -1.9770450000000002 -4.7700450000000005 -1.2648300000000001 -1.2648300000000001 -2.9805300000000003 -1.9760475000000002 -4.7700450000000005 -1.9770450000000002v0Z" stroke-width="0.5"></path><path stroke="#120071" stroke-linecap="round" stroke-linejoin="round" d="M10.2752475 96.26274000000001v2.7221775000000004" stroke-width="0.5"></path><path stroke="#120071" stroke-linecap="round" stroke-linejoin="round" d="M15.57306975 101.5604625h-2.7231750000000003" stroke-width="0.5"></path><path stroke="#120071" stroke-linecap="round" stroke-linejoin="round" d="M10.2752475 106.85718750000001v-2.7221775000000004" stroke-width="0.5"></path><path stroke="#120071" stroke-linecap="round" stroke-linejoin="round" d="M4.978492575 101.5604625h2.7231750000000003" stroke-width="0.5"></path><path stroke="#120071" stroke-linecap="round" stroke-linejoin="round" d="M12.849795 101.5604625c-0.33835200000000004 0 -0.67341225 -0.065835 -0.9861285000000001 -0.19551000000000002 -0.3126165 -0.1286775 -0.5967045 -0.3182025 -0.83600475 -0.5576025000000001 -0.23920050000000004 -0.2394 -0.428925 -0.5236875000000001 -0.5582010000000001 -0.835905 -0.129276 -0.31311525 -0.19560975 -0.6481755000000001 -0.19521075000000002 -0.9865275 0.0005985 0.33825225000000003 -0.06543600000000001 0.6733125000000001 -0.1945125 0.98553 -0.12911640000000002 0.313215 -0.31862145 0.5975025 -0.5577022500000001 0.8369025 -0.2390808 0.2384025 -0.523039125 0.428925 -0.8355858 0.5576025000000001 -0.312546675 0.129675 -0.6475371 0.19551000000000002 -0.985779375 0.19551000000000002 0.33853155 0 0.6738312000000001 0.065835 0.9866372250000001 0.19551000000000002 0.31279605000000005 0.129675 0.5969339250000001 0.31920000000000004 0.83608455 0.5586000000000001 0.23914065 0.2394 0.42858585 0.5246850000000001 0.5574429000000001 0.8379 0.12887700000000002 0.31221750000000004 0.19461225000000001 0.648375 0.19341525 0.9865275 -0.0010972500000000001 -0.3381525 0.0648375 -0.6743100000000001 0.19381425000000002 -0.9875250000000001 0.12907649999999998 -0.313215 0.31870125000000005 -0.5975025 0.5580015 -0.8369025s0.5236875000000001 -0.42992250000000004 0.83660325 -0.5586000000000001c0.31301550000000006 -0.129675 0.6484747500000001 -0.19650750000000003 0.9871260000000001 -0.19551000000000002v0Z" stroke-width="0.5"></path><path stroke="#120071" stroke-linecap="round" stroke-linejoin="round" d="M126.002205 120.4271775c-5.6857500000000005 0.041895 -10.67325 3.3366375000000006 -10.67325 4.794982500000001 -0.0009975000000000001 0.39800250000000004 0.15261750000000002 0.7800450000000001 0.428925 1.0663275 0.27531000000000005 0.28728 0.6513675000000001 0.45486000000000004 1.0493700000000001 0.468825h18.402877500000002c0.39700500000000005 -0.013965000000000002 0.7740600000000001 -0.181545 1.0493700000000001 -0.468825 0.27630750000000004 -0.2862825 0.42992250000000004 -0.6683250000000001 0.428925 -1.0663275 0 -1.458345 -5.004457500000001 -4.7530875 -10.6862175 -4.794982500000001Z" stroke-width="0.5"></path></g></g></svg>