<svg xmlns="http://www.w3.org/2000/svg" fill="none" viewBox="-0.25 -0.25 200 200" id="Marketing-Marketer-Giving-A-Keynote-01--Streamline-Bangalore.svg"><desc>Marketing Marketer Giving A Keynote 01 Streamline Illustration: https://streamlinehq.com</desc><g><g><path fill="#72d4a8" d="M136.82109 100.60286250000001c-0.41496 -7.645239 -3.1441200000000005 -14.983746750000002 -7.824390000000001 -21.042960750000002 -4.68027 -6.059214 -11.0922 -10.5529515 -18.383925 -12.885804750000002 -7.2927225 -2.33285325 -15.121800750000002 -2.3944987500000003 -22.450134000000002 -0.17685675000000003C80.83440750000001 68.7147825 74.3530515 73.10707425000001 69.57771975 79.09177500000001c2.29425 -1.1371499999999999 3.89025 -1.4782950000000001 3.525165 -1.09725 -1.197 1.2508650000000001 -4.8707925 3.9610725 -6.4628025000000004 5.3067v0.0189525c0.0145635 -0.00039900000000000005 0.02902725 -0.0039900000000000005 0.04209450000000001 -0.01047375 0.01306725 -0.0065835 0.02463825 -0.015960000000000002 0.033715499999999995 -0.02743125 2.1226800000000003 -1.4782950000000001 4.47279 -0.8149575 4.0368825 0.69825 1.0044825 0.28428749999999997 0.947625 1.0423875 0.4738125 1.8194400000000002 0.9206925000000001 0.49875 0.44688000000000005 1.6468725000000002 -0.4738125 2.539635 -1.6077705 1.3799415 -3.039981 2.95210125 -4.264312500000001 4.6812675 0.17057250000000002 0.26533500000000004 0.2463825 0.492765 0.15162 0.60648 -0.6633375 1.0044825 -1.49625 2.1416325 -2.4638250000000004 3.3735450000000005 -0.83391 1.0613400000000002 -1.7625825 2.1795375000000003 -2.767065 3.3545925000000003l-0.07581 2.5775400000000004 0.6822900000000001 0.28428749999999997c0.8528625000000001 -0.9665775 11.3525475 -12.603412500000001 12.3001725 -13.645800000000001 0.2463825 -0.26533500000000004 0.8907675 -0.037905 1.7246775 0.45486000000000004 2.09824125 -2.37006 4.05314175 -4.8632115 5.8543275 -7.466287500000001 2.236395 -3.525165 2.1037275 -1.8383925 1.933155 -0.34114500000000003 -0.037905 0.45486000000000004 -0.416955 1.4782950000000001 -0.6633375 2.4448725000000002 4.0080547499999994 -3.54681075 9.08513025 -5.65452825 14.426643 -5.9894887500000005 5.3417122500000005 -0.33486075000000004 10.64242725 1.12228725 15.06135225 4.1406225 4.4199225 3.0183352500000002 7.706685 7.425290250000001 9.337597500000001 12.522415500000001 1.63191 5.0969257500000005 1.5162 10.593150750000001 -0.3281775 15.617558250000002 -1.8453750000000002 5.02341 -5.314680000000001 9.287722500000001 -9.857295 12.11763 -4.5426150000000005 2.8299075000000005 -9.900187500000001 4.06182 -15.2228475 3.5022225000000002 -5.322660000000001 -0.5595975000000001 -10.306469250000001 -2.878785 -14.1615075 -6.59148 -3.855138 -3.712695 -6.361257 -8.605432500000001 -7.12105275 -13.903155000000002l-2.8428750000000003 3.33564c-3.2787825 3.8473575 -5.3067 5.837370000000001 -9.059295 5.5720350000000005 2.570757 7.42539 7.391375250000001 13.8642525 13.791335250000001 18.423825 6.4000597500000005 4.558575 14.061558000000002 7.009432500000001 21.91916475 7.012425 20.15339025 -0.0019950000000000002 38.374722750000004 -16.057755 37.71338025 -39.821197500000004Z" stroke-width="0.5"></path><path fill="#72d4a8" d="M109.43472750000001 102.6497325c0 2.0428800000000003 -0.6054825 4.039875 -1.7406375000000003 5.7386175 -1.135155 1.6987425000000003 -2.7481125 3.022425 -4.6353825 3.8044650000000004 -1.88727 0.7820400000000001 -3.96456375 0.9865275 -5.9681422500000005 0.5875275 -2.00367825 -0.399 -3.8441655000000003 -1.382535 -5.288745 -2.826915 -1.44447975 -1.44438 -2.4283140000000003 -3.2847675000000005 -2.82681525 -5.288745 -0.39860100000000004 -2.0039775 -0.19401375 -4.0807725 0.5878267500000001 -5.967743250000001 0.78174075 -1.88736975 2.10562275 -3.50052675 3.8042655 -4.635582 1.69864275 -1.1349555 3.69563775 -1.7407372500000002 5.738517750000001 -1.7407372500000002 2.739135 0 5.36655 1.0882725 7.303695 3.02531775 1.9371450000000001 1.9370452500000002 3.0254175 4.564659750000001 3.0254175 7.30379475Z" stroke-width="0.5"></path><path fill="#72d4a8" d="M135.75975 70.4683875c-0.26533500000000004 -3.1650675 -0.3600975 -3.25983 -1.7246775 -6.178515 -0.2124675 -0.65805075 -0.26533500000000004 -1.357398 -0.153615 -2.0399872500000003 0.1107225 -0.68258925 0.38403750000000003 -1.3286700000000002 0.7950075000000001 -1.8846765 0.4119675 -0.55590675 0.94962 -1.00577925 1.570065 -1.31201175 0.620445 -0.30633225000000003 1.3047300000000002 -0.4602465 1.9959975 -0.4490745 0.688275 -0.0189525 1.3715625 0.12777975 1.9910100000000002 0.42782775 0.620445 0.30004800000000004 1.159095 0.744534 1.5710625 1.29625125 0.412965 0.5516175000000001 0.68628 1.1943067500000002 0.7989975000000001 1.8738037500000002 0.11172000000000001 0.679497 0.05985 1.37605125 -0.153615 2.03100975 -1.3456275 2.9376375 -1.5162 3.2977350000000003 -1.7246775 6.2353725H135.75975Z" stroke-width="0.5"></path></g><g><path fill="#6153bd" d="M183.46319250000002 53.12685H14.7480375c-0.4359075 0.0009975000000000001 -0.8676255 -0.0839895 -1.2705157500000002 -0.2503725 -0.40289025 -0.16628325 -0.768873 -0.410571 -1.0771005000000002 -0.71869875 -0.3082275 -0.3082275 -0.55251525 -0.6743100000000001 -0.7187985 -1.0771005000000002 -0.16628325 -0.40289025 -0.25137000000000004 -0.834708 -0.25027275000000004 -1.2705157500000002V46.30395000000001c-0.00039900000000000005 -0.43540875 0.08508675 -0.8666280000000001 0.251769 -1.26891975 0.16658250000000002 -0.4023915 0.41097 -0.7677757500000001 0.71909775 -1.0755045 0.30812775000000003 -0.30762900000000004 0.673911 -0.551418 1.076502 -0.717402 0.40249125 -0.165984 0.83391 -0.250971 1.26931875 -0.24987375h168.715155c0.4359075 -0.0010972500000000001 0.8678250000000001 0.0839895 1.270815 0.25027275000000004 0.40299000000000007 0.166383 0.7680750000000001 0.410571 1.0763025 0.7187985 0.3082275 0.3082275 0.5526150000000001 0.67421025 0.7191975 1.0771005000000002 0.16658250000000002 0.40289025 0.25137000000000004 0.83460825 0.2503725 1.2705157500000002v3.5062125c0 0.43540875 -0.08478750000000002 0.8666280000000001 -0.25137000000000004 1.26891975 -0.16658250000000002 0.40229175 -0.41097 0.7677757500000001 -0.7191975 1.0754047500000001 -0.3082275 0.30772875 -0.6743100000000001 0.55151775 -1.0773000000000001 0.71750175 -0.40199250000000003 0.165984 -0.83391 0.25087125 -1.26882 0.24987375Z" stroke-width="0.5"></path><path fill="#6153bd" d="M107.12252250000002 151.41451500000002H38.855517750000004c-0.50762775 0 -0.9945075000000001 0.20149500000000004 -1.3535077500000001 0.5605950000000001 -0.35900025 0.35910000000000003 -0.56069475 0.8458800000000001 -0.56069475 1.3536075s0.2016945 0.9945075000000001 0.56069475 1.3536075c0.35900025 0.35910000000000003 0.8458800000000001 0.5605950000000001 1.3535077500000001 0.5605950000000001h68.26700475000001c0.5077275 0 0.9945075000000001 -0.20149500000000004 1.3536075 -0.5605950000000001 0.35910000000000003 -0.35910000000000003 0.5605950000000001 -0.8458800000000001 0.5605950000000001 -1.3536075s-0.20149500000000004 -0.9945075000000001 -0.5605950000000001 -1.3536075c-0.35910000000000003 -0.35910000000000003 -0.8458800000000001 -0.5605950000000001 -1.3536075 -0.5605950000000001Z" stroke-width="0.5"></path><path fill="#6153bd" d="m47.64947775 65.55969 6.045847500000001 3.5062125 4.6054575 9.893205 -6.1216574999999995 -3.5820225000000003 -4.5296475 -9.817395000000001Z" stroke-width="0.5"></path><path fill="#6153bd" d="m29.09508 69.17961749999999 10.84083 -0.9286725000000001 5.98899 3.48726 -10.727115 0.947625 -6.102705 -3.5062125Z" stroke-width="0.5"></path><path fill="#6153bd" d="m99.105615 102.80135250000001 -12.9445575 -1.5730575 5.704702500000001 -2.6343975 -0.8149575 -5.837370000000001 8.0548125 10.044825000000001Z" stroke-width="0.5"></path><path fill="#6153bd" d="M63.702245250000004 93.4009125c-0.047580750000000005 0.12917625000000002 -0.043491 0.271719 0.011172 0.39800250000000004 0.05476275 0.1262835 0.156009 0.22673175 0.28279125 0.28029750000000003 0.12678224999999999 0.053665500000000005 0.26932500000000004 0.0564585 0.39810225000000005 0.0077805 0.12877725 -0.048678000000000006 0.23391375 -0.1450365 0.2934645 -0.2691255 0.047580750000000005 -0.12917625000000002 0.043590750000000004 -0.271719 -0.011172 -0.39800250000000004 -0.05476275 -0.1262835 -0.156009 -0.22673175 -0.28279125 -0.28039725000000004 -0.12678224999999999 -0.05356575 -0.26932500000000004 -0.056358750000000006 -0.39810225000000005 -0.007680750000000001s-0.23381400000000002 0.1450365 -0.2934645 0.2691255Z" stroke-width="0.5"></path><path fill="#6153bd" d="M80.68368525000001 96.603885c-0.0061845 0.14912625000000002 -0.06972525 0.29017275000000003 -0.17745525 0.39351375000000005 -0.10773 0.103341 -0.25127025000000003 0.1609965 -0.400596 0.1609965 -0.14922600000000003 0 -0.29276625 -0.0576555 -0.40049625000000005 -0.1609965 -0.10773 -0.103341 -0.17127075 -0.2443875 -0.177555 -0.39351375000000005 -0.0031920000000000004 -0.07790475000000001 0.009376500000000001 -0.15570975 0.0369075 -0.228627 0.02763075 -0.073017 0.06972525 -0.13965000000000002 0.12369000000000001 -0.195909 0.053964750000000006 -0.056259 0.11880225 -0.10104675 0.1905225 -0.13167 0.07182 -0.030623250000000005 0.1490265 -0.04638375 0.22693125000000003 -0.04638375 0.0780045 0 0.155211 0.015760500000000004 0.22693125000000003 0.04638375 0.07182 0.030623250000000005 0.13665750000000002 0.075411 0.19062225 0.13167 0.053964750000000006 0.056259 0.09605925 0.12289200000000002 0.12359025 0.195909 0.02763075 0.07291725 0.040199250000000006 0.15072225000000003 0.0369075 0.228627Z" stroke-width="0.5"></path><path fill="#6153bd" d="M72.8564025 130.718385h-27.730500000000003l6.330135 20.349H79.20150000000001l-6.3450975000000005 -20.349ZM56.95725 135.74079749999999c0 -0.049875 0.019950000000000002 -0.09875250000000001 0.05556075 -0.133665 0.035511 -0.03591 0.08369025000000001 -0.05586000000000001 0.13396425 -0.05586000000000001 0.71331225 0.041895 1.3899165 0.32917500000000005 1.9142025000000003 0.8149575 0.264936 0.2703225 0.46812675000000004 0.5955075 0.595707 0.951615 0.12758025000000003 0.357105 0.1765575 0.7371525 0.14344050000000003 1.1142075 -0.37635675 0.0369075 -0.756105 -0.011970000000000001 -1.110816 -0.14364 -0.35461125 -0.13067250000000002 -0.674709 -0.34114500000000003 -0.936054 -0.61446 -0.47391225000000003 -0.5376525000000001 -0.7541100000000001 -1.2179475000000002 -0.7960050000000001 -1.933155Zm7.827382500000001 8.073765c-1.4782950000000001 1.8383925 -4.8877500000000005 0.492765 -5.4772725 -2.04687 -0.10703175000000001 -0.3541125 -0.12797925000000002 -0.7291725 -0.06094725 -1.0922625000000001 0.067032 -0.3640875 0.21994875000000003 -0.7072275 0.44618175 -0.999495 0.22623300000000002 -0.293265 0.519099 -0.5276775 0.8543587500000001 -0.6842850000000001 0.33516 -0.1566075 0.70293825 -0.23042250000000003 1.07261175 -0.2164575 2.6134500000000003 -0.0229425 4.641367499999999 3.1820250000000003 3.1630725 5.03937h0.0019950000000000002Z" stroke-width="0.5"></path><path fill="#6153bd" d="M40.04952525 85.83886500000001c-3.0683100000000003 -4.641367499999999 -15.9889275 4.0289025 -5.7426075 9.6089175 1.3835325 0.7581 3.94212 1.74363 3.904215 3.7336425 0.399 -2.2742999999999998 0.69825 -4.131645000000001 0.871815 -5.3256525 -3.3915 -1.175055 -2.5206825000000004 -3.676785 -0.5496225000000001 -2.7481125 1.0613400000000002 0.492765 1.781535 -0.2084775 -0.13266750000000002 -2.42592 0.6612427500000001 -0.8783985000000001 1.21485525 -1.8328065 1.6488675000000002 -2.8428750000000003Z" stroke-width="0.5"></path><path fill="#6153bd" d="M40.76972025 95.011875c0.492765 0.69825 0.98553 1.3645800000000001 1.5162 2.008965 1.8573450000000002 -0.83391 2.767065 -1.6867725000000002 2.9186850000000004 -2.7481125 -0.317205 0.83391 -2.2553475 0.8528625000000001 -4.434885 0.7391475000000001Z" stroke-width="0.5"></path><path fill="#6153bd" d="M95.06873250000001 176.5265775c0 0.798 0.2368065 1.5790425000000001 0.68039475 2.2423800000000003 0.44358825 0.6643350000000001 1.07400825 1.1820375 1.8116595000000002 1.4872725000000002 0.7376512500000001 0.30523500000000003 1.549317 0.385035 2.33285325 0.22942500000000002 0.7830375 -0.15561 1.502235 -0.5396475000000001 2.0668200000000003 -1.1042325 0.564585 -0.564585 0.9486225 -1.2837825 1.1042325 -2.0668200000000003 0.15561 -0.784035 0.07581 -1.5950025 -0.22942500000000002 -2.3331525 -0.30523500000000003 -0.7371525 -0.8229375 -1.3675725 -1.4872725000000002 -1.81146 -0.6633375 -0.44388750000000005 -1.44438 -0.6802950000000001 -2.2423800000000003 -0.6802950000000001 -0.5304705000000001 -0.0009975000000000001 -1.0559535 0.1027425 -1.5462247500000001 0.30523500000000003 -0.49027125 0.20249250000000002 -0.9358545 0.4997475 -1.3109145000000002 0.8748075000000001s-0.6724147500000001 0.819945 -0.8748075000000001 1.310715c-0.20249250000000002 0.4897725 -0.30613275 1.015455 -0.30493575000000006 1.5461250000000002Z" stroke-width="0.5"></path><path fill="#6153bd" d="M161.0613375 114.45714000000001c0 0.4758075 -0.14064749999999998 0.94164 -0.40598249999999997 1.3376475 -0.2643375 0.39501000000000003 -0.640395 0.7042349999999999 -1.0802925 0.88578 -0.4389 0.1825425 -0.9236850000000001 0.23042250000000003 -1.390515 0.13765500000000003 -0.4668300000000001 -0.0927675 -0.8957550000000001 -0.32219250000000005 -1.2319125000000002 -0.6593475000000001 -0.33715500000000004 -0.33615750000000005 -0.5655825 -0.7650825000000001 -0.6593475000000001 -1.2319125000000002 -0.0927675 -0.4668300000000001 -0.044887500000000004 -0.951615 0.13765500000000003 -1.390515 0.181545 -0.43989750000000005 0.49077000000000004 -0.815955 0.88578 -1.0802925 0.39600750000000007 -0.2643375 0.86184 -0.40598249999999997 1.3376475 -0.40598249999999997 0.6384000000000001 0.0009975000000000001 1.2498675 0.2543625 1.7007375000000002 0.70623 0.45186750000000003 0.45087000000000005 0.7052325 1.0623375 0.70623 1.7007375000000002Z" stroke-width="0.5"></path><path fill="#6153bd" d="M54.453525000000006 112.65665249999999c-1.49625 -0.492765 -2.9376375 -0.98553 -4.0747875 -1.402485l3.2029725 4.6054575c0.387828 -1.0383975 0.6796965 -2.11071 0.871815 -3.2029725Z" stroke-width="0.5"></path><path fill="#6153bd" d="M35.273595 151.77461250000002c-0.1510215 -1.3675725 -0.39800250000000004 -2.7231750000000003 -0.7391475000000001 -4.055835v18.933547500000003l1.7057250000000002 -4.264312500000001c-0.28428749999999997 -3.676785 -0.60648 -7.239855 -0.9665775 -10.6134Z" stroke-width="0.5"></path><path fill="#6153bd" d="M140.7063525 74.73270000000001H135.75975v-2.5775400000000004h4.9466025v2.5775400000000004Z" stroke-width="0.5"></path></g><g><path stroke="#120071" stroke-linejoin="round" d="M57.35625 135.949275c0.045885 0.5446350000000001 0.281694 1.055355 0.6663300000000001 1.4433825000000002 0.38453625 0.3880275 0.893361 0.628425 1.4373975 0.6792975000000001 -0.03920175 -0.5466300000000001 -0.27291600000000005 -1.0613400000000002 -0.65884875 -1.4513625 -0.385833 -0.389025 -0.89844825 -0.6274275 -1.44487875 -0.6713175000000001Z" stroke-width="0.5"></path><path stroke="#120071" stroke-linecap="round" stroke-linejoin="round" d="M158.86284750000002 168.13062v6.709185000000001" stroke-width="0.5"></path><path stroke="#120071" d="M61.61757 139.133295c-0.31451175000000003 -0.015960000000000002 -0.62812575 0.044887500000000004 -0.9139095 0.177555 -0.2858835 0.13167 -0.5354580000000001 0.33117 -0.727377 0.580545 -0.191919 0.2503725 -0.320397 0.5426400000000001 -0.37456125 0.8528625000000001 -0.0540645 0.3102225 -0.032219250000000005 0.628425 0.06374025 0.9286725000000001 0.5117175 2.29425 3.56307 3.4683075 4.813935 1.89525 1.2698175 -1.5730575 -0.5117175 -4.434885 -2.8618275000000004 -4.434885Z" stroke-width="0.5"></path><path stroke="#120071" stroke-linecap="round" stroke-linejoin="round" d="M162.21744 171.4852125h-6.709185000000001" stroke-width="0.5"></path><path stroke="#120071" stroke-linecap="round" stroke-linejoin="round" d="M9.23286 122.303475c0 0.41994750000000003 -0.124488 0.82992 -0.35773342500000005 1.179045s-0.56476455 0.6214425 -0.9526324500000001 0.7820400000000001c-0.38786790000000004 0.1605975 -0.8146682250000001 0.20249250000000002 -1.22642625 0.1206975 -0.411758025 -0.081795 -0.789990075 -0.28428749999999997 -1.086846075 -0.580545 -0.296865975 -0.297255 -0.49902929999999995 -0.6753075000000001 -0.580934025 -1.0872750000000002 -0.08190472500000001 -0.4119675 -0.039870075 -0.8388975 0.12079725000000001 -1.2259275 0.16065735 -0.3880275 0.43272547499999997 -0.720195 0.7818006000000001 -0.9526125 0.349075125 -0.23341500000000004 0.759466575 -0.3581025 1.179294375 -0.3581025 0.2788611 0 0.55506885 0.053865 0.81278295 0.1605975 0.2577141 0.10673250000000001 0.49186725000000003 0.26334 0.689063025 0.4598475 0.1971858 0.19750500000000001 0.35352397500000005 0.4319175 0.46005697500000003 0.6892725 0.10653300000000002 0.25835250000000004 0.16117605000000002 0.5336625 0.16077705 0.8129625v0Z" stroke-width="0.5"></path><path stroke="#120071" stroke-linecap="round" stroke-linejoin="round" d="M194.51250000000002 73.9746c0 0.3373545 -0.09975 0.6671279999999999 -0.28728 0.947625 -0.18753 0.280497 -0.45386250000000006 0.499149 -0.7660800000000001 0.6283252500000001 -0.31122 0.12907649999999998 -0.65436 0.16279200000000002 -0.98553 0.09705675 -0.33017250000000004 -0.065835 -0.63441 -0.22832775 -0.8728125 -0.4668300000000001 -0.2384025 -0.238602 -0.40099500000000005 -0.5425402500000001 -0.4668300000000001 -0.873411s-0.031920000000000004 -0.67381125 0.09675750000000001 -0.98553c0.129675 -0.31161900000000003 0.3481275 -0.57805125 0.628425 -0.7654815 0.28029750000000003 -0.18743025000000002 0.6104700000000001 -0.28747950000000005 0.947625 -0.28747950000000005 0.2244375 -0.00129675 0.44688000000000005 0.041895 0.65436 0.12718125 0.20748 0.08518650000000001 0.39600750000000007 0.21087150000000002 0.55461 0.369474 0.1586025 0.15870225 0.28428749999999997 0.34722975000000006 0.3700725 0.5548095000000001 0.08478750000000002 0.20748 0.12768000000000002 0.42992250000000004 0.1266825 0.6542602500000001v0Z" stroke-width="0.5"></path><path stroke="#120071" stroke-linecap="round" stroke-linejoin="round" d="M108.85817250000001 152.48583h61.679415000000006c1.34064 -0.0009975000000000001 2.62542 -0.5336625 3.5740425000000005 -1.48029 0.9486225 -0.9466275 1.4832825000000003 -2.2304100000000004 1.486275 -3.57105V53.12685H22.613424750000004v94.28868750000001c-0.005087250000000001 0.6773025 0.13077225 1.3486200000000002 0.399 1.97106" stroke-width="0.5"></path><path stroke="#120071" stroke-linecap="round" stroke-linejoin="round" d="M186.77988 46.30395000000001c0.0009975000000000001 -0.43580775000000005 -0.08379 -0.8676255 -0.2503725 -1.2705157500000002 -0.16658250000000002 -0.4027905 -0.41097 -0.768873 -0.7191975 -1.0771005000000002 -0.3082275 -0.30812775000000003 -0.6733125000000001 -0.5524155 -1.0763025 -0.71869875 -0.40299000000000007 -0.166383 -0.8349075 -0.25137000000000004 -1.270815 -0.2503725H14.7480375c-0.4359075 -0.0009975000000000001 -0.8676255 0.0839895 -1.2705157500000002 0.2503725 -0.40289025 0.16628325 -0.768873 0.410571 -1.0771005000000002 0.71869875 -0.3082275 0.3082275 -0.55251525 0.6743100000000001 -0.7187985 1.0771005000000002 -0.16628325 0.40289025 -0.25137000000000004 0.834708 -0.25027275000000004 1.2705157500000002v3.5062125c-0.0010972500000000001 0.4359075 0.0839895 0.8676255 0.25027275000000004 1.2705157500000002 0.16628325 0.40289025 0.410571 0.768873 0.7187985 1.0771005000000002 0.3082275 0.3082275 0.67421025 0.5524155 1.0771005000000002 0.7187985 0.40289025 0.16628325 0.83460825 0.25137000000000004 1.2705157500000002 0.25027275000000004h168.715155c0.4359075 0.0010972500000000001 0.8678250000000001 -0.0839895 1.270815 -0.25027275000000004 0.40299000000000007 -0.166383 0.7680750000000001 -0.410571 1.0763025 -0.7187985 0.3082275 -0.3082275 0.5526150000000001 -0.67421025 0.7191975 -1.0771005000000002 0.16658250000000002 -0.40289025 0.25137000000000004 -0.83460825 0.2503725 -1.2705157500000002V46.30395000000001Z" stroke-width="0.5"></path><path stroke="#120071" stroke-linecap="round" stroke-linejoin="round" d="m99.105615 155.24292000000003 0 17.2657275" stroke-width="0.5"></path><path stroke="#120071" stroke-linecap="round" stroke-linejoin="round" d="M95.06873250000001 176.5265775c0 0.798 0.2368065 1.5790425000000001 0.68039475 2.2423800000000003 0.44358825 0.6643350000000001 1.07400825 1.1820375 1.8116595000000002 1.4872725000000002 0.7376512500000001 0.30523500000000003 1.549317 0.385035 2.33285325 0.22942500000000002 0.7830375 -0.15561 1.502235 -0.5396475000000001 2.0668200000000003 -1.1042325 0.564585 -0.564585 0.9486225 -1.2837825 1.1042325 -2.0668200000000003 0.15561 -0.784035 0.07581 -1.5950025 -0.22942500000000002 -2.3331525 -0.30523500000000003 -0.7371525 -0.8229375 -1.3675725 -1.4872725000000002 -1.81146 -0.6633375 -0.44388750000000005 -1.44438 -0.6802950000000001 -2.2423800000000003 -0.6802950000000001 -0.5304705000000001 -0.0009975000000000001 -1.0559535 0.1027425 -1.5462247500000001 0.30523500000000003 -0.49027125 0.20249250000000002 -0.9358545 0.4997475 -1.3109145000000002 0.8748075000000001s-0.6724147500000001 0.819945 -0.8748075000000001 1.310715c-0.20249250000000002 0.4897725 -0.30613275 1.015455 -0.30493575000000006 1.5461250000000002Z" stroke-width="0.5"></path><path stroke="#120071" stroke-linecap="round" stroke-linejoin="round" d="M75.22536525 180.56346v-25.32054h-6.026895000000001v25.32054" stroke-width="0.5"></path><path stroke="#120071" stroke-linecap="round" stroke-linejoin="round" d="M92.5662045 94.654371c0.25645725 -0.20977425 0.5236875000000001 -0.40777800000000003 0.80089275 -0.59301375 1.69864275 -1.1349555 3.69563775 -1.7407372500000002 5.738517750000001 -1.7407372500000002 2.739135 0 5.36655 1.0882725 7.303695 3.02531775 1.9371450000000001 1.9370452500000002 3.0254175 4.564659750000001 3.0254175 7.30379475 0 2.0428800000000003 -0.6054825 4.039875 -1.7406375000000003 5.7386175 -1.135155 1.6987425000000003 -2.7481125 3.022425 -4.6353825 3.8044650000000004 -1.88727 0.7820400000000001 -3.96456375 0.9865275 -5.9681422500000005 0.5875275 -2.00367825 -0.399 -3.8441655000000003 -1.382535 -5.288745 -2.826915 -1.44447975 -1.44438 -2.4283140000000003 -3.2847675000000005 -2.82681525 -5.288745 -0.20508600000000002 -1.0314150000000002 -0.25047225 -2.0817825 -0.13965000000000002 -3.1161900000000005m0.30832725 -1.62792c0.11361525 -0.41496 0.253365 -0.823536 0.41914950000000006 -1.22363325 0.45196725000000004 -1.0912650000000002 1.08518025 -2.0907600000000004 1.8673200000000003 -2.95928325" stroke-width="0.5"></path><path stroke="#120071" stroke-linecap="round" stroke-linejoin="round" d="M63.399105000000006 115.01175c2.7368407500000003 7.9231425 8.031072 14.71113 15.04918275 19.294642500000002 7.018110750000001 4.5835125 15.36140025 6.7022025 23.71566225 6.0239025 8.35506 -0.6792975000000001 16.24728 -4.11768 22.4327775 -9.773505 6.186495 -5.6568225000000005 10.3151475 -13.2098925 11.7375825 -21.4711875 1.4214375000000001 -8.260297500000002 0.05586000000000001 -16.759795500000003 -3.8832675 -24.159051s-10.227367500000001 -13.278221250000001 -17.874202500000003 -16.711317c-7.646835000000001 -3.43309575 -16.218552 -4.225310250000001 -24.365234250000004 -2.25185625 -8.146782 1.97335425 -15.405689250000002 6.600357750000001 -20.63398575 13.15233675" stroke-width="0.5"></path><path stroke="#120071" stroke-linecap="round" stroke-linejoin="round" d="m61.390239750000006 100.6786725 -0.056857500000000005 2.2553475" stroke-width="0.5"></path><path stroke="#120071" stroke-linecap="round" stroke-linejoin="round" d="M83.1665625 84.6448575c4.008852750000001 -3.5477085 9.08692575 -5.656423500000001 14.42973525 -5.9919825 5.34270975 -0.335559 10.64442225 1.12128975 15.066339750000001 4.1396250000000006 4.420920000000001 3.0183352500000002 7.70868 7.425589500000001 9.341587500000001 12.5236125 1.633905 5.0982225 1.5191925 10.595445 -0.325185 15.62085 -1.8433800000000002 5.025405 -5.311687500000001 9.292710000000001 -9.855300000000002 12.1246125 -4.5426150000000005 2.8309050000000004 -9.901185 4.06581 -15.224842500000001 3.5082075 -5.324256 -0.5566050000000001 -10.310160000000002 -2.874795 -14.167891500000001 -6.5864925 -3.8578312500000003 -3.7116975 -6.366843 -8.604435 -7.1297310000000005 -13.903155000000002" stroke-width="0.5"></path><path stroke="#120071" stroke-linecap="round" stroke-linejoin="round" d="M62.261955 81.2713125 40.013715 68.23498500000001" stroke-width="0.5"></path><path stroke="#120071" stroke-linecap="round" stroke-linejoin="round" d="m76.438425 89.59146000000001 -4.70022 -2.767065" stroke-width="0.5"></path><path stroke="#120071" stroke-linecap="round" stroke-linejoin="round" d="m91.86576000000001 98.5938975 -8.377005 -4.8897450000000005" stroke-width="0.5"></path><path stroke="#120071" stroke-linecap="round" stroke-linejoin="round" d="M53.695425 69.0659025 35.349405000000004 58.414597500000006l4.66431 9.8203875 -10.918635 0.9446325 18.402877500000002 10.575495 10.802925 -0.7960050000000001 -4.6054575 -9.893205Z" stroke-width="0.5"></path><path stroke="#120071" stroke-linecap="round" stroke-linejoin="round" d="m35.197785 72.68583 10.727115 -0.947625 -4.5485999999999995 -9.817395000000001" stroke-width="0.5"></path><path stroke="#120071" stroke-linecap="round" stroke-linejoin="round" d="m41.45211 76.2678525 10.727115 -0.8907675 -4.5296475 -9.817395000000001" stroke-width="0.5"></path><path stroke="#120071" stroke-linecap="round" stroke-linejoin="round" d="m99.105615 102.80135250000001 -12.9445575 -1.5730575 5.704702500000001 -2.6343975 -0.8149575 -5.837370000000001 8.0548125 10.044825000000001Z" stroke-width="0.5"></path><path stroke="#120071" stroke-linecap="round" stroke-linejoin="round" d="m60.461467500000005 33.11301 9.893205 -9.7984425 6.4628025000000004 6.5386125 11.0114025 -10.9256175" stroke-width="0.5"></path><path stroke="#120071" stroke-linecap="round" stroke-linejoin="round" d="M82.1431275 18.927562500000004h5.6857500000000005v5.6947275" stroke-width="0.5"></path><path stroke="#120071" stroke-linecap="round" stroke-linejoin="round" d="M37.4531325 103.199355c6.3111825 -4.6812675 13.2477975 -5.2119375 28.144462500000003 1.5351525" stroke-width="0.5"></path><path stroke="#120071" stroke-linecap="round" stroke-linejoin="round" d="M42.286119750000005 97.02084c5.022412500000001 -2.2553475 3.2169375000000002 -4.601467500000001 -2.29425 -11.21988 -3.6418725 -4.3750350000000005 -15.69267 4.2064575 -5.704702500000001 9.665775 1.4214375000000001 0.7770525 3.9989775000000005 1.7625825 3.904215 3.7905" stroke-width="0.5"></path><path stroke="#120071" stroke-linecap="round" stroke-linejoin="round" d="M45.22455525 94.1949225c-0.20748 0.9147075000000001 -2.2024800000000004 0.9426375 -4.454835 0.8169525 1.2243315000000001 1.73774475 2.5863180000000003 3.37424325 4.0727925 4.893735" stroke-width="0.5"></path><path stroke="#120071" stroke-linecap="round" stroke-linejoin="round" d="M62.05347750000001 103.16145s4.6313925000000005 -5.0593200000000005 12.28122 -13.607895000000001c0.9975 -1.111215 9.533107500000002 6.4628025000000004 8.547577500000001 7.581 0 0 -6.1176675000000005 7.2627975000000005 -10.4049225 12.28122 -3.7107000000000006 4.343115 -5.8383675 6.3371175 -10.651305 5.344605 -3.87957675 -0.9625875 -7.701498 -2.144625 -11.447310000000002 -3.53913" stroke-width="0.5"></path><path stroke="#120071" stroke-linecap="round" stroke-linejoin="round" d="M82.19998500000001 95.4477825c1.65594975 -2.4178402500000002 3.5253645 -4.682265 5.586 -6.766042500000001 1.76228325 -1.6286182500000002 3.7031190000000005 -3.0527490000000004 5.7855 -4.245360000000001 3.0673125000000003 -1.7496150000000001 3.0673125000000003 -2.7610799999999998 -0.6443850000000001 -1.781535 -3.8735917500000006 1.303533 -7.55157375 3.1283595 -10.9326 5.424405" stroke-width="0.5"></path><path stroke="#120071" stroke-linecap="round" stroke-linejoin="round" d="M83.780025 86.91816c-1.8543525 0.5236875000000001 -0.06284250000000001 -3.6239175 0.049875 -4.7181750000000005 0.17057250000000002 -1.49625 0.29925 -3.1680600000000005 -1.933155 0.34114500000000003 -1.80318075 2.6023777500000005 -3.75867975 5.0958285000000005 -5.856322500000001 7.467285" stroke-width="0.5"></path><path stroke="#120071" stroke-linecap="round" stroke-linejoin="round" d="M90.8233725 86.19896250000001c0.8528625000000001 -0.22743000000000002 2.65335 -0.584535 3.1840200000000003 -0.6822900000000001 2.4089625000000003 -0.44289 2.3650725 0.2384025 2.008965 0.416955 -1.3795425000000001 0.6902699999999999 -3.6907500000000004 1.6728075000000002 -4.9466025 2.388015 -2.004975 1.1441325 -5.970037500000001 3.2408775000000003 -7.182 4.8707925" stroke-width="0.5"></path><path stroke="#120071" stroke-linecap="round" stroke-linejoin="round" d="M91.18347000000001 88.2458325c0.416955 -0.0189525 0.7581 -0.0189525 0.947625 -0.037905 2.4448725000000002 -0.056857500000000005 2.29425 0.628425 1.9142025000000003 0.7581 -1.474305 0.5037375000000001 -3.92217 1.0443825 -5.268795 1.5351525 -1.6249275 0.6494722500000001 -3.1858155000000004 1.4489684999999999 -4.662315 2.388015" stroke-width="0.5"></path><path stroke="#120071" stroke-linecap="round" stroke-linejoin="round" d="M80.09925 100.43229000000001c-1.7057250000000002 -3.8284050000000005 -4.7570775 -6.178515 -8.4717675 -7.880250000000001" stroke-width="0.5"></path><path stroke="#120071" stroke-linecap="round" stroke-linejoin="round" d="M54.4345725 112.65665249999999c0.0947625 1.1371499999999999 -4.85184 14.498662500000002 -4.85184 14.498662500000002 -0.28428749999999997 1.21296 -17.170965 -3.146115 -16.8866775 -4.3401225000000005 3.3735450000000005 -10.651305 5.6857500000000005 -24.448725000000003 6.368040000000001 -28.95942 -3.3915 -1.175055 -2.523675 -3.6708000000000003 -0.5496225000000001 -2.7481125 1.0603425 0.49875 1.781535 -0.2084775 -0.13266750000000002 -2.42592 0.6634372500000001 -0.88029375 1.2111645 -1.8420832500000002 1.629915 -2.8618275000000004" stroke-width="0.5"></path><path stroke="#120071" stroke-linecap="round" stroke-linejoin="round" d="M47.0051925 99.69314250000001c3.86860425 -3.9135915000000003 7.405240500000001 -8.141994 10.573500000000001 -12.641317500000001 0.7112175000000001 -1.0104674999999999 9.7605375 5.558070000000001 9.059295 6.5765175000000005 -1.596 2.3201850000000004 -3.904215 5.192985000000001 -6.557565 8.831865" stroke-width="0.5"></path><path stroke="#120071" stroke-linecap="round" stroke-linejoin="round" d="M71.24544000000002 85.78500000000001c0.22912575 -0.3397485 0.33476100000000003 -0.7478257500000001 0.29925 -1.1561025 -0.185535 -0.9147075000000001 -2.4638250000000004 -1.197 -4.434885 0.28428749999999997 -1.0613400000000002 0.798 -1.1181975 1.8573450000000002 0.8907675 1.402485" stroke-width="0.5"></path><path stroke="#120071" stroke-linecap="round" stroke-linejoin="round" d="M70.75566750000002 83.9705475c0.43989750000000005 -1.4902650000000002 -1.885275 -2.1835275000000003 -4.039875 -0.6902699999999999 -1.0613400000000002 0.7391475000000001 -0.9286725000000001 1.5162 0.8149575 1.3456275" stroke-width="0.5"></path><path stroke="#120071" stroke-linecap="round" stroke-linejoin="round" d="M66.507315 93.00291000000001c1.22203725 -1.73096175 2.65444725 -3.3034207500000003 4.2642127499999996 -4.6812675 2.511705 -2.4937500000000004 -0.3720675 -3.74262 -3.070305 -1.8004875 -0.798 0.5715675 -0.0189525 1.6488675000000002 2.29425 0.720195" stroke-width="0.5"></path><path stroke="#120071" stroke-linecap="round" stroke-linejoin="round" d="M58.168215000000004 86.976015c1.781535 -2.4827775 6.2553225 -8.9465775 6.6523275 -8.64234 0.49376250000000005 0.3780525 -0.5117175 4.283265 -0.5117175 4.283265s1.197 3.3545925000000003 -0.9097200000000001 4.207455" stroke-width="0.5"></path><path stroke="#120071" stroke-linecap="round" stroke-linejoin="round" d="M64.308825 82.61694c4.434885 -3.7525950000000003 9.4164 -5.2518375 8.793960000000002 -4.6054575 -1.2179475000000002 1.2648300000000001 -5.022412500000001 4.0897499999999996 -6.5765175000000005 5.4014625" stroke-width="0.5"></path><path stroke="#120071" stroke-linecap="round" stroke-linejoin="round" d="M69.42590025000001 88.45431c-0.07411425 -0.3465315 -0.268926 -0.6554572500000001 -0.54952275 -0.871815" stroke-width="0.5"></path><path stroke="#120071" stroke-linecap="round" stroke-linejoin="round" d="M64.157205 97.02084c0.056857500000000005 -1.9142025000000003 -6.9176625 -7.296712500000001 -8.86977 -6.766042500000001" stroke-width="0.5"></path><path stroke="#120071" stroke-linecap="round" stroke-linejoin="round" d="M28.867550250000004 180.56346c2.5775400000000004 -6.21642 4.510695 -10.99245 7.3725225000000005 -18.1754475" stroke-width="0.5"></path><path stroke="#120071" stroke-linecap="round" stroke-linejoin="round" d="M32.696154750000005 122.81519250000001c-1.9900125000000002 1.8762975000000002 -6.9176625 5.7855 -7.012425 14.02485 -0.055460999999999996 3.2718 -0.6246345 6.513675000000001 -1.6867725000000002 9.6089175 -3.772545 11.181975000000001 -7.562047500000001 21.340515 -12.7929375 34.11450000000001" stroke-width="0.5"></path><path stroke="#120071" stroke-linecap="round" stroke-linejoin="round" d="M49.961782500000005 130.718385c-0.13266750000000002 -1.402485 -0.26533500000000004 -2.5935 -0.37905 -3.5441175" stroke-width="0.5"></path><path stroke="#120071" stroke-linecap="round" stroke-linejoin="round" d="M53.58171 180.56346c-0.48608175000000003 -7.8642900000000004 -1.1138085000000002 -16.873710000000003 -1.76188425 -25.32054" stroke-width="0.5"></path><path stroke="#120071" stroke-linecap="round" stroke-linejoin="round" d="M31.539952500000002 139.4554875c0.20748 0.8149575 0.49306425000000004 1.6089675 0.8528625000000001 2.3690625 1.5259755000000002 3.134145 2.50661775 6.505695 2.8997325000000003 9.969015 0.9815400000000001 9.4193925 1.596 17.73954 2.1416325 28.788847500000003" stroke-width="0.5"></path><path stroke="#120071" stroke-linecap="round" stroke-linejoin="round" d="M33.567870000000006 120.01022250000001c-0.26533500000000004 1.0423875 16.6782 5.4772725 16.9575 4.4538375" stroke-width="0.5"></path><path stroke="#120071" stroke-linecap="round" stroke-linejoin="round" d="m43.57479 126.5298825 1.6758 24.883635m1.9630800000000002 29.1499425 -1.7063234999999999 -25.3365" stroke-width="0.5"></path><path stroke="#120071" stroke-linecap="round" stroke-linejoin="round" d="m79.18643775000001 150.8648925 -6.330135 -20.146507500000002h-27.7275075l6.330135 20.146507500000002" stroke-width="0.5"></path><path stroke="#120071" stroke-linecap="round" stroke-linejoin="round" d="M97.34293275 151.41451500000002c-0.0007980000000000001 -0.3461325 -0.13875225000000002 -0.6783000000000001 -0.383838 -0.9236850000000001 -0.24508575000000002 -0.24538500000000002 -0.57725325 -0.38304000000000005 -0.9238845000000001 -0.38403750000000003h-17.095155000000002" stroke-width="0.5"></path><path stroke="#120071" stroke-linecap="round" stroke-linejoin="round" d="m53.58171 115.85962500000001 -3.2029725 -4.62441" stroke-width="0.5"></path><path stroke="#120071" stroke-linecap="round" stroke-linejoin="round" d="M34.5534 166.652325v-18.933547500000003" stroke-width="0.5"></path><path stroke="#120071" stroke-linecap="round" stroke-linejoin="round" d="M162.5017275 83.52666c-0.3581025 -0.185535 -0.6533625000000001 -0.47301450000000006 -0.847875 -0.82622925 -0.1945125 -0.35321475 -0.28029750000000003 -0.75620475 -0.24538500000000002 -1.15799775 0.03391500000000001 -0.401793 0.18753 -0.7844340000000001 0.4389 -1.0993447500000002 0.2523675 -0.3150105 0.5915175 -0.548226 0.9755550000000001 -0.6701205 0.385035 -0.12199425000000001 0.7970025000000001 -0.12718125 1.1840325 -0.0149625 0.38703000000000004 0.11211900000000001 0.7331625 0.33665625000000005 0.9925125 0.6451830000000001 0.25935 0.308427 0.4219425 0.687078 0.4668300000000001 1.0878735000000002 0.044887500000000004 0.4007955 -0.030922500000000002 0.8057805 -0.2164575 1.16378325 -0.249375 0.47939850000000006 -0.6783000000000001 0.84039375 -1.1940075 1.00378425 -0.51471 0.16349025 -1.0743075 0.11600925000000001 -1.554105 -0.13196925Z" stroke-width="0.5"></path><path stroke="#120071" stroke-linecap="round" stroke-linejoin="round" d="M153.7456725 88.20792750000001c-0.3581025 -0.185535 -0.6533625000000001 -0.47311425 -0.847875 -0.82622925 -0.1945125 -0.35321475 -0.28029750000000003 -0.75620475 -0.24538500000000002 -1.15799775 0.03391500000000001 -0.401793 0.18653250000000002 -0.7844340000000001 0.4389 -1.0993447500000002 0.25137000000000004 -0.3150105 0.5915175 -0.548226 0.9755550000000001 -0.6701205 0.385035 -0.12199425000000001 0.7970025000000001 -0.12718125 1.1840325 -0.0149625 0.38703000000000004 0.11211900000000001 0.7331625 0.33665625000000005 0.9925125 0.6451830000000001 0.25935 0.308427 0.4219425 0.687078 0.4668300000000001 1.0878735000000002 0.044887500000000004 0.4007955 -0.030922500000000002 0.8057805 -0.2164575 1.16378325 -0.249375 0.47939850000000006 -0.6792975000000001 0.84039375 -1.1940075 1.00378425 -0.51471 0.16339050000000002 -1.0743075 0.11600925000000001 -1.554105 -0.13196925Z" stroke-width="0.5"></path><path stroke="#120071" stroke-linecap="round" stroke-linejoin="round" d="M162.4259175 94.2348225c-0.3581025 -0.185535 -0.6533625000000001 -0.47311425 -0.847875 -0.8263290000000001 -0.1945125 -0.353115 -0.28029750000000003 -0.756105 -0.24538500000000002 -1.157898 0.03391500000000001 -0.40189275 0.18753 -0.7844340000000001 0.4389 -1.0993447500000002 0.25137000000000004 -0.3150105 0.5915175 -0.548226 0.9755550000000001 -0.6701205 0.385035 -0.12199425000000001 0.7970025000000001 -0.12718125 1.1840325 -0.0149625 0.38703000000000004 0.11211900000000001 0.7331625 0.33665625000000005 0.9925125 0.6451830000000001 0.25935 0.308427 0.4219425 0.68697825 0.4668300000000001 1.0878735000000002 0.044887500000000004 0.4007955 -0.030922500000000002 0.8057805 -0.2164575 1.16378325 -0.249375 0.47939850000000006 -0.6783000000000001 0.84039375 -1.1940075 1.00378425 -0.51471 0.16339050000000002 -1.0743075 0.11600925000000001 -1.554105 -0.13196925Z" stroke-width="0.5"></path><path stroke="#120071" stroke-linecap="round" stroke-linejoin="round" d="m161.573055 91.5056625 -5.07927 -4.1505975" stroke-width="0.5"></path><path stroke="#120071" stroke-linecap="round" stroke-linejoin="round" d="m161.76258 82.882275 -5.192985000000001 2.7481125" stroke-width="0.5"></path><path stroke="#120071" stroke-linecap="round" stroke-linejoin="round" d="M161.0613375 114.45714000000001c0 0.4758075 -0.14064749999999998 0.94164 -0.40598249999999997 1.3376475 -0.2643375 0.39501000000000003 -0.640395 0.7042349999999999 -1.0802925 0.88578 -0.4389 0.1825425 -0.9236850000000001 0.23042250000000003 -1.390515 0.13765500000000003 -0.4668300000000001 -0.0927675 -0.8957550000000001 -0.32219250000000005 -1.2319125000000002 -0.6593475000000001 -0.33715500000000004 -0.33615750000000005 -0.5655825 -0.7650825000000001 -0.6593475000000001 -1.2319125000000002 -0.0927675 -0.4668300000000001 -0.044887500000000004 -0.951615 0.13765500000000003 -1.390515 0.181545 -0.43989750000000005 0.49077000000000004 -0.815955 0.88578 -1.0802925 0.39600750000000007 -0.2643375 0.86184 -0.40598249999999997 1.3376475 -0.40598249999999997 0.6384000000000001 0.0009975000000000001 1.2498675 0.2543625 1.7007375000000002 0.70623 0.45186750000000003 0.45087000000000005 0.7052325 1.0623375 0.70623 1.7007375000000002Z" stroke-width="0.5"></path><path stroke="#120071" stroke-linecap="round" stroke-linejoin="round" d="M151.60404000000003 125.6580675s1.781535 -5.7326325 7.05033 -5.647845c5.2867500000000005 0.085785 7.0692825 5.647845 7.0692825 5.647845" stroke-width="0.5"></path><path stroke="#120071" stroke-linecap="round" stroke-linejoin="round" d="m142.772175 133.3906875 -6.384 0.0947625c-0.37107 0.004987500000000001 -0.7371525 0.0827925 -1.0773000000000001 0.22942500000000002 -0.34114500000000003 0.1466325 -0.6493725 0.35910000000000003 -0.9087225000000001 0.6244350000000001 -0.25835250000000004 0.26533500000000004 -0.46184250000000004 0.5795475 -0.5994975 0.9246825000000001 -0.13765500000000003 0.3441375 -0.205485 0.712215 -0.20049750000000002 1.083285 0.004987500000000001 0.37107 0.0827925 0.7371525 0.22942500000000002 1.0782975 0.1466325 0.34014750000000005 0.35910000000000003 0.648375 0.6244350000000001 0.9077250000000001 0.26533500000000004 0.25835250000000004 0.5795475 0.46184250000000004 0.9246825000000001 0.5994975 0.3441375 0.13765500000000003 0.712215 0.205485 1.083285 0.20049750000000002l3.56307 -0.056857500000000005c0.37107 -0.004987500000000001 0.7391475000000001 0.06284250000000001 1.083285 0.20049750000000002 0.34513499999999997 0.13765500000000003 0.6593475000000001 0.34114500000000003 0.9246825000000001 0.5994975 0.26533500000000004 0.25935 0.4778025 0.5675775 0.6244350000000001 0.9087225000000001 0.1466325 0.34014750000000005 0.2244375 0.70623 0.22942500000000002 1.0773000000000001 0.004987500000000001 0.37107 -0.06284250000000001 0.7391475000000001 -0.20049750000000002 1.083285 -0.13765500000000003 0.34513499999999997 -0.34114500000000003 0.6593475000000001 -0.5994975 0.9246825000000001 -0.25935 0.26533500000000004 -0.5675775 0.4778025 -0.9077250000000001 0.6244350000000001 -0.34114500000000003 0.1466325 -0.7072275 0.2244375 -1.0782975 0.22942500000000002l-6.384 0.0947625" stroke-width="0.5"></path><path stroke="#120071" stroke-linecap="round" stroke-linejoin="round" d="m138.1288125 131.3438175 0.22743000000000002 15.522097500000001" stroke-width="0.5"></path><path stroke="#120071" stroke-linecap="round" stroke-linejoin="round" d="M156.98655 130.339335c-1.929165 2.9805300000000003 -4.3820175 5.587995 -7.239855 7.694715" stroke-width="0.5"></path><path stroke="#120071" stroke-linecap="round" stroke-linejoin="round" d="m151.52823 138.223575 -1.781535 -0.189525 0.26533500000000004 -1.6867725000000002" stroke-width="0.5"></path><path stroke="#120071" stroke-linecap="round" stroke-linejoin="round" d="M147.88935 67.53075000000001c2.7042225 2.2971427500000003 4.97154 5.064507000000001 6.6902325000000005 8.1685275" stroke-width="0.5"></path><path stroke="#120071" stroke-linecap="round" stroke-linejoin="round" d="m154.9965375 73.9746 -0.416955 1.74363 -1.629915 -0.4738125" stroke-width="0.5"></path><path stroke="#120071" stroke-linecap="round" stroke-linejoin="round" d="M158.65437 106.8950925V96.64179" stroke-width="0.5"></path><path stroke="#120071" stroke-linecap="round" stroke-linejoin="round" d="m157.15712249999999 105.35994 1.4972475 1.5351525 1.554105 -1.5730575" stroke-width="0.5"></path><path stroke="#120071" stroke-linecap="round" stroke-linejoin="round" d="M135.75975 70.4683875c-0.26533500000000004 -3.1650675 -0.3600975 -3.25983 -1.7246775 -6.178515 -0.2124675 -0.65805075 -0.26533500000000004 -1.357398 -0.153615 -2.0399872500000003 0.1107225 -0.68258925 0.38403750000000003 -1.3286700000000002 0.7950075000000001 -1.8846765 0.4119675 -0.55590675 0.94962 -1.00577925 1.570065 -1.31201175 0.620445 -0.30633225000000003 1.3047300000000002 -0.4602465 1.9959975 -0.4490745 0.688275 -0.0189525 1.3715625 0.12777975 1.9910100000000002 0.42782775 0.620445 0.30004800000000004 1.159095 0.744534 1.5710625 1.29625125 0.412965 0.5516175000000001 0.68628 1.1943067500000002 0.7989975000000001 1.8738037500000002 0.11172000000000001 0.679497 0.05985 1.37605125 -0.153615 2.03100975 -1.3456275 2.9376375 -1.5162 3.2977350000000003 -1.7246775 6.2353725H135.75975Z" stroke-width="0.5"></path><path stroke="#120071" stroke-linecap="round" stroke-linejoin="round" d="M138.2425275 70.4683875V63.171675c0.0029925000000000004 -0.273714 0.11471250000000001 -0.5350590000000001 0.3102225 -0.7268782500000001 0.19551000000000002 -0.19181925 0.45885000000000004 -0.29845200000000005 0.7321650000000001 -0.29655675000000004h0.492765c0.27132000000000006 -0.0029925000000000004 0.5316675000000001 0.10074750000000002 0.7271775 0.2886765 0.1945125 0.187929 0.3082275 0.4450845 0.31521000000000005 0.715806 -0.0029925000000000004 0.2747115 -0.11371500000000001 0.5372535 -0.309225 0.7307685 -0.1945125 0.19341525 -0.45885000000000004 0.30214275 -0.7331625 0.3026415h-3.0513525c-0.2703225 0.00488775 -0.5316675000000001 -0.09725625 -0.72618 -0.284088 -0.19551000000000002 -0.18683175 -0.309225 -0.44328900000000004 -0.31620750000000003 -0.7134119999999999 0.0029925000000000004 -0.273714 0.11471250000000001 -0.5350590000000001 0.3102225 -0.7268782500000001 0.19551000000000002 -0.19181925 0.45885000000000004 -0.29845200000000005 0.7321650000000001 -0.29655675000000004h1.0423875" stroke-width="0.5"></path><path stroke="#120071" stroke-linecap="round" stroke-linejoin="round" d="M140.7063525 74.73270000000001H135.75975v-2.5775400000000004h4.9466025v2.5775400000000004Z" stroke-width="0.5"></path><path stroke="#120071" stroke-linecap="round" stroke-linejoin="round" d="m73.06488 180.56346 0 -25.32054" stroke-width="0.5"></path><path stroke="#120071" d="M107.12252250000002 151.41451500000002H38.855517750000004c-0.50762775 0 -0.9945075000000001 0.20149500000000004 -1.3535077500000001 0.5605950000000001 -0.35900025 0.35910000000000003 -0.56069475 0.8458800000000001 -0.56069475 1.3536075s0.2016945 0.9945075000000001 0.56069475 1.3536075c0.35900025 0.35910000000000003 0.8458800000000001 0.5605950000000001 1.3535077500000001 0.5605950000000001h68.26700475000001c0.5077275 0 0.9945075000000001 -0.20149500000000004 1.3536075 -0.5605950000000001 0.35910000000000003 -0.35910000000000003 0.5605950000000001 -0.8458800000000001 0.5605950000000001 -1.3536075s-0.20149500000000004 -0.9945075000000001 -0.5605950000000001 -1.3536075c-0.35910000000000003 -0.35910000000000003 -0.8458800000000001 -0.5605950000000001 -1.3536075 -0.5605950000000001Z" stroke-width="0.5"></path></g></g></svg>