<svg xmlns="http://www.w3.org/2000/svg" fill="none" viewBox="-0.25 -0.25 200 200" id="Marketing-Marketing-Target-01--Streamline-Bangalore.svg"><desc>Marketing Marketing Target 01 Streamline Illustration: https://streamlinehq.com</desc><g><g><path fill="#72d4a8" d="M134.92584000000002 93.89367750000001a231.03496500000003 231.03496500000003 0 0 0 -25.1878725 5.2308900000000005l-0.049875 -1.0723125 -20.9305425 2.9865150000000003c-2.9256675 3.285765 -4.26531 11.835337500000001 -0.3182025 17.4831825l-2.8279125 14.4328275 -21.037275 -7.20195c-4.794982500000001 4.908697500000001 -6.384 10.1395875 -6.728137500000001 17.019345l29.8501875 11.29569a10.7021775 10.7021775 0 0 0 14.17647 -7.391475000000001l5.2308900000000005 -20.582415 -9.48024 -2.4039750000000004c8.969520000000001 1.18902 22.800855000000002 -3.6538425 29.9299875 -6.447840000000001 -0.416955 7.1450925000000005 -0.7581 16.716105 -1.3456275 27.291600000000003a27.8651625 27.8651625 0 0 0 16.3939125 1.0423875c1.629915 -12.773985 3.2408775000000003 -27.177885 3.7715475000000005 -41.39625a10.0099125 10.0099125 0 0 0 -11.447310000000002 -10.28622Z" stroke-width="0.5"></path><path fill="#72d4a8" d="m158.5596075 67.3222725 0.26533500000000004 3.0134475000000003 3.1271625 -1.74363 -3.3924975 -1.2698175Z" stroke-width="0.5"></path></g><g><path fill="#120071" d="M151.90728000000001 63.569677500000004c-2.65335 -6.483750000000001 -6.67128 -13.759515 -9.7984425 -20.165460000000003a86.58399750000001 86.58399750000001 0 0 1 -4.378027500000001 -10.196445 62.7876375 62.7876375 0 0 1 -2.6343975 -10.632352500000001 1.159095 1.159095 0 0 0 -0.43690500000000004 -0.7830375 1.1541075 1.1541075 0 0 0 -1.2977475 -0.077805 1.1501175000000001 1.1501175000000001 0 0 0 -0.5396475000000001 1.183035c0.3501225 1.87929 0.7989975000000001 3.740625 1.3456275 5.5720350000000005a73.18956750000001 73.18956750000001 0 0 0 6.6902325000000005 15.578955c3.3915 6.29223 7.6757625 13.380465000000001 10.573500000000001 19.7295525a0.25935 0.25935 0 0 0 0.4797975 -0.009975000000000001 0.25935 0.25935 0 0 0 -0.0039900000000000005 -0.19850250000000003Z" stroke-width="0.5"></path><path fill="#6153bd" d="m88.75755000000001 101.03877000000001 -2.236395 -9.1919625a17.376450000000002 17.376450000000002 0 0 0 0.4359075 23.84025c-2.008965 -5.41842 -0.5496225000000001 -12.013890000000002 1.8004875 -14.648287500000002Z" stroke-width="0.5"></path><path fill="#6153bd" d="M115.7269575 97.62732000000001c-2.008965 0.4738125 -3.9989775000000005 0.98553 -5.985 1.5162 -0.15162 -3.10821 -0.26533500000000004 -7.5999525000000006 -0.32219250000000005 -9.775500000000001a17.245777500000003 17.245777500000003 0 0 1 6.307192500000001 8.2593Z" stroke-width="0.5"></path><path fill="#6153bd" d="m98.1011325 69.918765 -2.5585875000000002 -2.160585c0.696255 0.1566075 1.4094675 0.21945 2.1226800000000003 0.189525 0.081795 0.6693225 0.22743000000000002 1.3296675 0.4359075 1.97106Z" stroke-width="0.5"></path><path fill="#6153bd" d="m88.492215 90.42537 -0.98553 5.4772725 -1.2887700000000002 -5.3067 2.2742999999999998 -0.17057250000000002Z" stroke-width="0.5"></path><path fill="#6153bd" d="m96.1679775 123.44062500000001 10.954545 2.65335 0.7391475000000001 -2.9376375c-3.8852625 0.6822900000000001 -8.11167 1.0613400000000002 -11.693692500000001 0.28428749999999997Z" stroke-width="0.5"></path><path fill="#6153bd" d="m116.4092475 84.15209250000001 -7.088235 1.2698175 -0.056857500000000005 -2.42592 7.1450925000000005 1.1561025Z" stroke-width="0.5"></path><path fill="#120071" d="M153.57510000000002 75.71823c-0.60648 6.936615 -2.5585875000000002 15.730575 -3.9989775000000005 22.6861425 -0.7581 3.6388800000000003 -1.6109625 7.694715 -2.160585 11.3904525a35.981820000000006 35.981820000000006 0 0 0 0.189525 11.826360000000001 0.94164 0.94164 0 0 0 0.44688000000000005 0.608475 0.9585975 0.9585975 0 0 0 0.75012 0.08977500000000001 0.9845325 0.9845325 0 0 0 0.6822900000000001 -1.197 34.0297125 34.0297125 0 0 1 -0.492765 -11.144070000000001c0.4359075 -3.6907500000000004 1.1561025 -7.7136675 1.8004875 -11.3525475 1.226925 -7.025392500000001 2.9156925 -15.8333175 3.313695 -22.8696825a0.26733 0.26733 0 0 0 -0.5306700000000001 -0.037905Z" stroke-width="0.5"></path><path fill="#6153bd" d="M99.9205725 60.40461a19.9470075 19.9470075 0 0 0 -0.7581 -1.5351525c-4.1286525 -7.790475 -7.12614 -1.1371499999999999 -6.6523275 2.1226800000000003 0.0189525 0.5875275 -0.2862825 0.76209 -1.2698175 0.15162 -2.032905 -1.2618375 -3.1810275000000003 2.0817825 0.5496225000000001 3.5062125 0.177555 0.12269250000000001 0.31620750000000003 0.293265 0.399 0.492765 0.720195 2.236395 0.9097200000000001 3.6907500000000004 0.5306700000000001 5.07927 -0.29925 -2.9925 -3.5790300000000004 -5.043360000000001 -6.026895000000001 -8.67825 -2.743125 -4.0767825 4.0897499999999996 -11.238832500000001 7.694715 -11.485215 3.604965 -0.2463825 3.7895025 4.489747500000001 5.5331325 10.346070000000001Z" stroke-width="0.5"></path><path fill="#6153bd" d="M139.75872750000002 146.107815a27.690600000000003 27.690600000000003 0 0 1 -10.7839725 -0.69825c-0.22743000000000002 1.6488675000000002 -0.4359075 3.1840200000000003 -0.5496225000000001 4.8707925 3.9102 4.282267500000001 8.752065 11.2168875 16.943535 17.436300000000003 -1.9161975000000002 -9.8562975 -5.3475975 -16.488675 -5.60994 -21.6088425Z" stroke-width="0.5"></path><path fill="#6153bd" d="M57.90288 126.56778750000001c-5.48625 2.475795 -13.4353275 4.8049575 -22.13652 10.821877500000001 3.82641 0.8049825 19.387410000000003 0.7271775 22.4587125 1.3645800000000001a22.3769175 22.3769175 0 0 1 3.9989775000000005 -10.2533025c-1.4972475 -0.7012425 -2.7481125 -1.2887700000000002 -4.32117 -1.933155Z" stroke-width="0.5"></path><path fill="#6153bd" d="m50.70093000000001 58.8126 -9.229867500000001 -6.9934725 -5.590987500000001 -16.772962500000002 9.1919625 6.860805 5.6288925 16.905630000000002Z" stroke-width="0.5"></path><path fill="#6153bd" d="m31.937955000000002 44.78775 -17.682682500000002 -0.492765L4.987500000000001 37.4152275l17.81535 0.5685749999999999 9.135105 6.8039475000000005Z" stroke-width="0.5"></path><path fill="#6153bd" d="M83.7351375 81.3092175a0.94164 0.94164 0 1 1 -1.8753 0.17057250000000002 0.94164 0.94164 0 0 1 1.8753 -0.17057250000000002Z" stroke-width="0.5"></path><path fill="#6153bd" d="M140.45997000000003 69.009045a0.9426375 0.9426375 0 1 1 -1.8762975000000002 0.17057250000000002 0.9426375 0.9426375 0 0 1 1.8762975000000002 -0.17057250000000002Z" stroke-width="0.5"></path><path fill="#6153bd" d="M168.68024250000002 138.39414750000003v8.452815000000001l-8.490720000000001 2.88078 18.289162500000003 4.4538375 -9.7984425 -15.787432500000001Z" stroke-width="0.5"></path></g><g><path stroke="#120071" stroke-linecap="round" stroke-linejoin="round" d="M99.42780750000001 73.36812c3.6199275 9.1919625 4.131645000000001 16.318102500000002 4.396980000000001 25.5669225" stroke-width="0.5"></path><path stroke="#120071" stroke-linecap="round" stroke-linejoin="round" d="M135.342795 67.5497025a22.342005 22.342005 0 0 1 2.5017300000000002 12.736080000000001" stroke-width="0.5"></path><path stroke="#120071" stroke-linecap="round" stroke-linejoin="round" d="M41.831160000000004 130.6236225a63.60459000000001 63.60459000000001 0 0 1 106.323525 -67.9068075" stroke-width="0.5"></path><path stroke="#120071" stroke-linecap="round" stroke-linejoin="round" d="M142.2983625 67.79608499999999c0.98553 -0.28428749999999997 1.9580925000000002 -1.0593450000000002 2.9186850000000004 -3.3545925000000003 0.6104700000000001 -1.4573475000000002 0.871815 -1.4753025000000002 3.449355 -1.7625825 3.0324 -0.3381525 2.7700575 -0.149625 3.449355 5.022412500000001 0.16658250000000002 1.270815 -1.995 1.8004875 -3.10821 -2.1226800000000003 0.8907675 3.0134475000000003 -0.13266750000000002 5.344605 -2.1037275 6.384" stroke-width="0.5"></path><path stroke="#120071" stroke-linecap="round" stroke-linejoin="round" d="M86.9570625 115.71000000000001a17.374455 17.374455 0 0 1 -0.4359075 -23.84025" stroke-width="0.5"></path><path stroke="#120071" stroke-linecap="round" stroke-linejoin="round" d="M109.41577500000001 89.36403a17.575950000000002 17.575950000000002 0 0 1 6.3111825 8.263290000000001" stroke-width="0.5"></path><path stroke="#120071" stroke-linecap="round" stroke-linejoin="round" d="M131.4196275 158.50275000000002a63.6554625 63.6554625 0 0 1 -72.15516000000001 -5.615925 63.635512500000004 63.635512500000004 0 0 1 -13.203907500000001 -14.669235" stroke-width="0.5"></path><path stroke="#120071" stroke-linecap="round" stroke-linejoin="round" d="M156.20850000000002 74.96013a63.6953625 63.6953625 0 0 1 -15.315615 76.7676" stroke-width="0.5"></path><path stroke="#120071" stroke-linecap="round" stroke-linejoin="round" d="M65.805075 126.169785a40.65411 40.65411 0 0 1 -5.386500000000001 -33.6785925" stroke-width="0.5"></path><path stroke="#120071" stroke-linecap="round" stroke-linejoin="round" d="M126.776265 133.35278250000002a40.380795 40.380795 0 0 1 -23.8611975 10.5186375 1.8334050000000002 1.8334050000000002 0 0 1 -0.32219250000000005 0.0189525" stroke-width="0.5"></path><path stroke="#120071" stroke-linecap="round" stroke-linejoin="round" d="M133.12535250000002 81.15759750000001a40.3418925 40.3418925 0 0 1 5.6288925 12.8877" stroke-width="0.5"></path><path stroke="#120071" stroke-linecap="round" stroke-linejoin="round" d="M100.8681975 63.076912500000006a40.3418925 40.3418925 0 0 1 21.1320375 6.89871" stroke-width="0.5"></path><path stroke="#120071" stroke-linecap="round" stroke-linejoin="round" d="M73.10278500000001 72.7426875a40.049625 40.049625 0 0 1 15.901147500000002 -8.3391" stroke-width="0.5"></path><path stroke="#120071" stroke-linecap="round" stroke-linejoin="round" d="m22.850730000000002 37.9957725 47.674515 35.429205" stroke-width="0.5"></path><path stroke="#120071" stroke-linecap="round" stroke-linejoin="round" d="m154.10577 135.9303225 24.372915000000003 18.2512575" stroke-width="0.5"></path><path stroke="#120071" stroke-linecap="round" stroke-linejoin="round" d="m98.1011325 69.918765 -2.5585875000000002 -2.160585c0.6952575 0.16857750000000002 1.410465 0.2394 2.124675 0.209475" stroke-width="0.5"></path><path stroke="#120071" stroke-linecap="round" stroke-linejoin="round" d="M99.9205725 60.40461c2.80497 6.29223 -0.016957500000000004 7.468282500000001 -2.2533525 7.563045000000001a9.606922500000001 9.606922500000001 0 0 0 0.819945 2.89275 3.9281550000000003 3.9281550000000003 0 0 0 4.0109475 2.4738c4.179525000000001 -0.3740625 39.080055 -6.89871 39.080055 -6.89871 2.100735 4.125660000000001 3.1241700000000003 8.3640375 2.372055 12.772987500000001L109.326 85.42191s0.109725 4.794982500000001 0.3600975 12.66027" stroke-width="0.5"></path><path stroke="#120071" stroke-linecap="round" stroke-linejoin="round" d="m86.217915 90.59594249999999 2.2742999999999998 -0.17057250000000002 -0.98553 5.4772725" stroke-width="0.5"></path><path stroke="#120071" stroke-linecap="round" stroke-linejoin="round" d="m63.986632500000006 90.27375 21.6248025 -6.6523275a18.436792500000003 18.436792500000003 0 0 0 -3.3545925000000003 -13.645800000000001l-22.326045000000004 6.747090000000001c-4.5885 1.49625 -7.19397 4.339125 -6.822900000000001 8.547577500000001a7.9111725 7.9111725 0 0 0 8.5854825 7.20195l24.524535 -1.8762975000000002L88.7775 101.11458" stroke-width="0.5"></path><path stroke="#120071" stroke-linecap="round" stroke-linejoin="round" d="M130.490955 116.0681025c-0.7581 0.32219250000000005 -1.7246775 0.69825 -2.9376375 1.175055" stroke-width="0.5"></path><path stroke="#120071" stroke-linecap="round" stroke-linejoin="round" d="M88.7775 101.11458c-2.767065 3.10821 -4.343115 11.6956875 -0.34114500000000003 17.417347499999998 3.9441150000000005 5.639865 11.082225 5.8922325 17.91909 4.8687975 7.658805 -1.1461275000000002 16.04379 -4.1416200000000005 21.19887 -6.157567500000001 -0.416955 7.1450925000000005 -0.7581 16.716105 -1.3456275 27.291600000000003a27.8651625 27.8651625 0 0 0 16.3939125 1.0423875c1.629915 -12.773985 3.205965 -27.197835 3.7525950000000003 -41.411212500000005a9.969015 9.969015 0 0 0 -3.3067125 -7.810425 9.96303 9.96303 0 0 0 -8.121645 -2.4428775 229.814025 229.814025 0 0 0 -25.1878725 5.2308900000000005l-0.056857500000000005 -1.0613400000000002L88.7775 101.11458Z" stroke-width="0.5"></path><path stroke="#120071" stroke-linecap="round" stroke-linejoin="round" d="M109.73796750000001 99.14352c-1.326675 0.3600975 -2.6343975 0.720195 -3.94212 1.09725" stroke-width="0.5"></path><path stroke="#120071" stroke-linecap="round" stroke-linejoin="round" d="m88.4353575 118.5319275 -2.8428750000000003 14.422852500000001 -21.018322500000004 -7.20195c-4.794982500000001 4.908697500000001 -6.384 10.1395875 -6.728137500000001 17.019345l29.8501875 11.3146425a10.7021775 10.7021775 0 0 0 14.17647 -7.391475000000001l5.9760225 -23.541000000000004" stroke-width="0.5"></path><path stroke="#120071" stroke-linecap="round" stroke-linejoin="round" d="m96.11112000000001 123.4216725 10.99245 2.6723025" stroke-width="0.5"></path><path stroke="#120071" stroke-linecap="round" stroke-linejoin="round" d="m116.4092475 84.15209250000001 -7.088235 1.2698175 -0.056857500000000005 -2.42592 7.1450925000000005 1.1561025Z" stroke-width="0.5"></path><path stroke="#120071" stroke-linecap="round" stroke-linejoin="round" d="m94.93606500000001 75.71823 63.755212500000006 -6.818910000000001" stroke-width="0.5"></path><path stroke="#120071" stroke-linecap="round" stroke-linejoin="round" d="m158.5596075 67.3222725 0.26533500000000004 3.0134475000000003 3.1271625 -1.74363 -3.3924975 -1.2698175Z" stroke-width="0.5"></path><path stroke="#120071" stroke-linecap="round" stroke-linejoin="round" d="M91.241325 61.124805c-2.0339025000000004 -1.2618375 -3.1820250000000003 2.0817825 0.548625 3.5062125 0.177555 0.12269250000000001 0.31620750000000003 0.293265 0.399 0.492765 0.720195 2.236395 0.9097200000000001 3.6907500000000004 0.5306700000000001 5.07927 -0.29925 -2.9925 -3.5790300000000004 -5.043360000000001 -6.026895000000001 -8.67825 -2.743125 -4.0767825 4.0897499999999996 -11.2488075 7.694715 -11.485215 3.604965 -0.2364075 3.7715475000000005 4.510695 5.53413 10.367017500000001a19.9470075 19.9470075 0 0 0 -0.7581 -1.5351525c-4.0189275 -7.581 -6.964545 -1.48029 -6.68325 1.8573450000000002 0.06284250000000001 0.748125 -0.053865 1.1321625 -1.2398925 0.39600750000000007Z" stroke-width="0.5"></path><path stroke="#120071" stroke-linecap="round" stroke-linejoin="round" d="M128.97675 145.40657249999998a27.690600000000003 27.690600000000003 0 0 0 10.7839725 0.69825c0.17057250000000002 3.33564 1.5341550000000002 6.841852500000001 2.5206825000000004 10.0258725 1.7955 5.7855 3.3625725 11.0812275 3.89025 17.057250000000003a70.40355 70.40355 0 0 1 -10.651305 -9.9121575c-2.8239225 -3.1840200000000003 -5.07927 -6.102705 -7.182 -8.3391a57.48891750000001 57.48891750000001 0 0 1 0.6384000000000001 -9.530115v0Z" stroke-width="0.5"></path><path stroke="#120071" stroke-linecap="round" stroke-linejoin="round" d="M128.444085 150.29631750000001c1.995 2.1795375000000003 4.12965 4.929645000000001 6.783 7.9031925a71.399055 71.399055 0 0 0 10.15854 9.533107500000002" stroke-width="0.5"></path><path stroke="#120071" stroke-linecap="round" stroke-linejoin="round" d="M31.407285 136.631565a70.952175 70.952175 0 0 1 12.736080000000001 -7.0313775000000005c3.9072075 -1.69575 7.3725225000000005 -2.9376375 10.1745 -4.2264075000000005a51.8131425 51.8131425 0 0 1 7.9031925 3.1271625 22.379910000000002 22.379910000000002 0 0 0 -3.9959850000000006 10.2513075c-3.0134475000000003 -0.6254325000000001 -6.384 -0.4558575 -9.40044 -0.5117175 -5.189992500000001 -0.0947625 -12.34107 -0.4219425 -17.417347499999998 -1.6089675Z" stroke-width="0.5"></path><path stroke="#120071" stroke-linecap="round" stroke-linejoin="round" d="m91.71414 70.33572000000001 44.917425 -37.393282500000005" stroke-width="0.5"></path><path stroke="#120071" stroke-linecap="round" stroke-linejoin="round" d="m149.140215 103.99536 -57.575700000000005 -23.1828975" stroke-width="0.5"></path><path stroke="#120071" stroke-linecap="round" stroke-linejoin="round" d="M26.36592 27.882120000000004 31.937955000000002 44.78775l-17.682682500000002 -0.492765" stroke-width="0.5"></path><path stroke="#120071" stroke-linecap="round" stroke-linejoin="round" d="m23.750475 51.307410000000004 17.701635 0.5875275 -5.5720350000000005 -16.8487725" stroke-width="0.5"></path><path stroke="#120071" stroke-linecap="round" stroke-linejoin="round" d="m116.61772500000001 173.5699875 0.9286725000000001 10.9355925" stroke-width="0.5"></path><path stroke="#120071" stroke-linecap="round" stroke-linejoin="round" d="m122.5498575 178.55449500000003 -10.9355925 0.947625" stroke-width="0.5"></path><path stroke="#120071" stroke-linecap="round" stroke-linejoin="round" d="M19.45125 92.90814750000001a2.8159425000000002 2.8159425000000002 0 1 1 -3.0513525 -2.5585875000000002 2.80497 2.80497 0 0 1 3.0513525 2.5585875000000002v0Z" stroke-width="0.5"></path><path stroke="#120071" stroke-linecap="round" stroke-linejoin="round" d="m73.82298 17.8183425 3.8473575 4.5296475 3.3924975 -7.35357" stroke-width="0.5"></path><path stroke="#120071" stroke-linecap="round" stroke-linejoin="round" d="m186.4197825 90.63384750000002 0.32219250000000005 3.8284050000000005" stroke-width="0.5"></path><path stroke="#120071" stroke-linecap="round" stroke-linejoin="round" d="m183.44424 98.40437250000001 -3.8284050000000005 0.32219250000000005" stroke-width="0.5"></path><path stroke="#120071" stroke-linecap="round" stroke-linejoin="round" d="m194.51250000000002 97.43779500000001 -3.8284050000000005 0.32219250000000005" stroke-width="0.5"></path><path stroke="#120071" stroke-linecap="round" stroke-linejoin="round" d="m187.70855250000002 105.5305125 -0.32219250000000005 -3.8284050000000005" stroke-width="0.5"></path><path stroke="#120071" stroke-linecap="round" stroke-linejoin="round" d="M190.684095 97.7599875a3.6458625 3.6458625 0 0 1 -3.94212 -3.2967375000000003 3.648855 3.648855 0 0 1 -3.2977350000000003 3.94212 3.6458625 3.6458625 0 0 1 3.94212 3.2977350000000003 3.648855 3.648855 0 0 1 3.2977350000000003 -3.9431175v0Z" stroke-width="0.5"></path><path stroke="#120071" stroke-linecap="round" stroke-linejoin="round" d="M100.20486000000001 72.81750000000001a6.134625000000001 6.134625000000001 0 0 1 -4.738125 1.3077225000000001" stroke-width="0.5"></path><path stroke="#120071" stroke-linecap="round" stroke-linejoin="round" d="M75.77508750000001 71.9466825c3.1650675 3.5441175 4.359075000000001 8.07975 3.5820225000000003 13.607895000000001" stroke-width="0.5"></path><path stroke="#120071" stroke-linecap="round" stroke-linejoin="round" d="m178.47868499999998 154.18158000000003 -18.289162500000003 -4.4538375 8.490720000000001 -2.88078v-8.452815000000001l9.7984425 15.787432500000001Z" stroke-width="0.5"></path><path stroke="#120071" stroke-linecap="round" stroke-linejoin="round" d="M85.80096 81.25236000000001c2.88078 -0.189525 8.263290000000001 -0.6443850000000001 8.379000000000001 -0.6633375 1.4593425000000002 -0.11371500000000001 1.3456275 -2.4827775 -0.4359075 -2.4827775 0 0 0.492765 -0.034912500000000006 0.720195 -0.056857500000000005 1.49625 -0.14763 1.3276725 -2.587515 -0.5117175 -2.5585875000000002 -0.09975 0 -0.37905 -0.0189525 -0.37905 -0.0189525 0.29925 -0.0189525 0.5685749999999999 -0.037905 0.8528625000000001 -0.07581 1.4503650000000001 -0.1995 1.3147050000000002 -2.4747975 -0.2703225 -2.6304075a2.4927525000000004 2.4927525000000004 0 0 0 -0.5446350000000001 0.0149625c0.15162 -0.0189525 0.32219250000000005 -0.053865 0.4738125 -0.07581 1.4453775000000002 -0.21346500000000002 1.175055 -2.6932500000000004 -0.5685749999999999 -2.539635 -0.6443850000000001 0.056857500000000005 -1.1371499999999999 0.09975 -1.7955 0.17057250000000002 -0.17057250000000002 -1.4782950000000001 -0.6443850000000001 -1.5411375 -2.4827775 -1.5162 -2.29425 0.030922500000000002 -2.539635 0.037905 -3.2029725 1.2698175a5.3735325 5.3735325 0 0 1 -2.1945 2.4827775" stroke-width="0.5"></path><path stroke="#120071" stroke-linecap="round" stroke-linejoin="round" d="M151.4713725 72.647925c-2.160585 0.20748 -2.6713050000000003 -2.3610825 -0.60648 -2.7102075 1.5361500000000001 -0.25935 2.6334000000000004 -0.385035 3.86631 -0.5496225000000001 2.064825 -0.27531000000000005 2.5226775 2.4738 0.8528625000000001 2.8239225 -1.0224374999999999 0.2144625 -2.1226800000000003 0.24538500000000002 -4.1126925000000005 0.4359075Z" stroke-width="0.5"></path><path stroke="#120071" stroke-linecap="round" stroke-linejoin="round" d="M151.50927750000002 63.70234500000001c0.7391475000000001 -0.15162 1.2887700000000002 -0.2463825 2.008965 -0.37905 1.9521075 -0.3600975 2.5017300000000002 2.35011 0.9286725000000001 2.7860175000000003a16.927575 16.927575 0 0 1 -2.4767925 0.432915" stroke-width="0.5"></path><path stroke="#120071" stroke-linecap="round" stroke-linejoin="round" d="M151.50927750000002 75.6613725c-2.1037275 0.1486275 -2.539635 -2.3521050000000003 -0.5306700000000001 -2.6343975 1.49625 -0.2104725 2.5585875000000002 -0.29925 3.7525950000000003 -0.416955 1.995 -0.189525 2.394 2.4548475 0.7581 2.7481125 -0.9845325 0.1765575 -2.0658225000000003 0.16758 -3.9800250000000004 0.30324Z" stroke-width="0.5"></path><path stroke="#120071" stroke-linecap="round" stroke-linejoin="round" d="M151.9800975 66.61903500000001c0.7890225000000001 -0.11271750000000001 1.4673225 -0.16957500000000003 2.2393875000000003 -0.29925 2.084775 -0.32219250000000005 2.6164425000000002 2.44986 0.9286725000000001 2.8618275000000004 -1.0224374999999999 0.249375 -2.1416325 0.29925 -4.1505975 0.5496225000000001a1.3965 1.3965 0 0 1 -1.2508650000000001 -2.3690625" stroke-width="0.5"></path><path stroke="#120071" stroke-linecap="round" stroke-linejoin="round" d="M144.17466000000002 77.348145c3.5062125 -0.6443850000000001 8.4717675 -1.21296 10.897687500000002 -1.9142025000000003" stroke-width="0.5"></path><path stroke="#120071" stroke-dasharray="3.2 5.29" stroke-linecap="round" stroke-linejoin="round" d="m95.239305 100.16695500000002 0.8149575 8.263290000000001" stroke-width="0.5"></path><path stroke="#120071" stroke-dasharray="3.2 5.29" stroke-linecap="round" stroke-linejoin="round" d="M96.05925 108.42825a4.414935000000001 4.414935000000001 0 0 0 5.2308900000000005 3.904215" stroke-width="0.5"></path><path stroke="#120071" stroke-dasharray="3.2 5.29" stroke-linecap="round" stroke-linejoin="round" d="m101.28515250000001 112.33446 29.831235 -5.7426075" stroke-width="0.5"></path><path stroke="#120071" stroke-dasharray="3.2 5.29" stroke-linecap="round" stroke-linejoin="round" d="M132.95478000000003 106.5918525a4.4139375 4.4139375 0 0 1 3.0154425000000002 2.3999850000000005 4.40895 4.40895 0 0 1 0.4319175 1.9301625000000002" stroke-width="0.5"></path><path stroke="#120071" stroke-dasharray="3.2 5.29" stroke-linecap="round" stroke-linejoin="round" d="m136.36623 111.14045250000001 -1.6867725000000002 35.156887499999996" stroke-width="0.5"></path><path stroke="#120071" stroke-dasharray="3.2 5.29" stroke-linecap="round" stroke-linejoin="round" d="m97.74103500000001 123.70596000000002 -3.4304025 15.1430475" stroke-width="0.5"></path><path stroke="#120071" stroke-dasharray="3.2 5.29" stroke-linecap="round" stroke-linejoin="round" d="M94.3106325 138.852a5.5451025000000005 5.5451025000000005 0 0 1 -2.64936 3.5939925000000006 5.552085 5.552085 0 0 1 -4.438875 0.48079500000000003" stroke-width="0.5"></path><path stroke="#120071" stroke-dasharray="3.2 5.29" stroke-linecap="round" stroke-linejoin="round" d="m87.24135 142.923795 -27.935985000000002 -8.7371025" stroke-width="0.5"></path><path stroke="#120071" stroke-linecap="round" stroke-linejoin="round" d="m45.07203750000001 41.90697 -27.860175 -20.8287975 5.647845 16.905630000000002L4.987500000000001 37.4152275l27.935985000000002 20.7150825 17.777445 0.6822900000000001 -5.6288925 -16.905630000000002Z" stroke-width="0.5"></path><path stroke="#120071" stroke-linecap="round" stroke-linejoin="round" d="M57.90288 126.6056925c-2.7291600000000003 1.2319125000000002 -6.066795 2.4388875 -9.7984425 4.055835a69.76914000000001 69.76914000000001 0 0 0 -12.30516 6.7431" stroke-width="0.5"></path></g></g></svg>