<svg xmlns="http://www.w3.org/2000/svg" fill="none" viewBox="-0.25 -0.25 200 200" id="Promotion-1--Streamline-Bangalore.svg"><desc>Promotion 1 Streamline Illustration: https://streamlinehq.com</desc><g id="promotion-1--work-promotion"><g id="arrow"><path id="arrow_2" stroke="#72d4a8" stroke-linecap="round" stroke-linejoin="round" d="M55.095915000000005 115.32895500000001V166.429683" stroke-width="0.5"></path><path id="arrow_3" stroke="#72d4a8" stroke-linecap="round" stroke-linejoin="round" d="M59.69708325 47.33227275L30.150435 73.43026425000001H55.095915000000005V96.03880125" stroke-width="0.5"></path><path id="arrow_4" stroke="#72d4a8" stroke-linecap="round" stroke-linejoin="round" d="M128.00269125 39.5538675L98.25245325 13.274630250000001L75.26317050000002 33.58213425" stroke-width="0.5"></path><path id="arrow_5" stroke="#72d4a8" stroke-linecap="round" stroke-linejoin="round" d="M141.409989 96.84837225V73.4301645H166.355469L140.5583235 50.64357375" stroke-width="0.5"></path><path id="arrow_6" stroke="#72d4a8" stroke-linecap="round" stroke-linejoin="round" d="M141.409989 166.429683V111.82513650000001" stroke-width="0.5"></path></g><g id="funnel"><path id="vector" stroke="#120071" stroke-linecap="round" stroke-linejoin="round" d="M46.5088365 101.36994L66.2645235 133.48574925C81.153009 137.89449975000002 115.55049975000001 137.72971275000003 129.16757175 133.1540805L147.409353 101.36994" stroke-width="0.5"></path><path id="vector_2" fill="#72d4a8" d="M66.26562075000001 133.48265700000002L76.20690525 149.64245625C90.70327350000001 151.382595 105.36043875 151.30479 119.83735575 149.41013850000002L129.16866900000002 133.15108800000002C115.55049975000001 137.72961300000003 81.15709875 137.89549725 66.26562075000001 133.48265700000002Z" stroke-width="0.5"></path><path id="vector_3" stroke="#120071" stroke-linecap="round" stroke-linejoin="round" d="M66.26562075000001 133.48265700000002L76.20690525 149.64245625C90.70327350000001 151.382595 105.36043875 151.30479 119.83735575 149.41013850000002L129.16866900000002 133.15108800000002C115.55049975000001 137.72961300000003 81.15709875 137.89549725 66.26562075000001 133.48265700000002Z" stroke-width="0.5"></path><path id="vector_4" stroke="#120071" stroke-linecap="round" stroke-linejoin="round" d="M76.20690525 149.64554850000002L98.711004 186.22536975000003L119.83735575 149.413131C105.36043875 151.30688475000002 90.70327350000001 151.38568725 76.20690525 149.64554850000002Z" stroke-width="0.5"></path><path id="vector_5" fill="#6153bd" d="M110.89606500000001 92.189349C110.77836 92.58545625000001 110.65756275000001 92.94276075 110.5327755 93.24979125000002C109.22455425000001 96.47620500000001 117.85771725000001 104.32303875000001 116.98151325 107.3754885C116.695929 108.37248975 114.63738825 108.808497 111.75291750000001 108.87193800000001C96.784632 109.213881 77.440314 102.5655435 72.65700225 98.62661550000001C70.680456 96.99829650000001 68.76216375 96.53356125 68.06511075 97.173258C67.3956885 97.7875185 69.7509855 101.035179 80.97595275 107.439927C82.05893850000001 108.05408775000001 81.76617225000001 110.20370025000001 79.86124650000001 109.34794500000001C72.0500235 105.828765 64.11700575 99.7454115 65.27470425 95.7781545C65.532957 94.98284775 66.00587175000001 94.27442325 66.64127925000001 93.73088550000001C54.41212875 95.47102425000001 46.50474675 98.243775 46.50474675 101.364753C46.50474675 106.63843575 69.09173775000001 110.91402 96.95550375 110.91402S147.4063605 106.63843575 147.4063605 101.364753C147.41045025 97.01156325000001 131.98052175 93.333681 110.89616475 92.189349Z" stroke-width="0.5"></path><path id="vector_6" stroke="#120071" stroke-linecap="round" stroke-linejoin="round" d="M110.89606500000001 92.189349C131.98251675 93.33378075 147.41045025 97.01056575 147.41045025 101.36994C147.41045025 106.64362275 124.822362 110.919207 96.95959350000001 110.919207S46.5088365 106.643523 46.5088365 101.36994C46.5088365 98.248962 54.4162185 95.47820625 66.645369 93.7360725" stroke-width="0.5"></path></g><g id="hands 1"><path id="vector_7" fill="#6153bd" d="M12.48700425 155.69508675C12.645706500000001 153.27116175000003 11.328308250000001 148.370145 12.48700425 145.99938674999999C12.589347750000002 145.7844255 12.715332 145.562382 12.85348575 145.33305675000003C11.5903515 143.53456425 10.570806750000001 141.9899355 9.829764 140.82914475L2.50681725 144.98812125C4.246058250000001 150.23407350000002 7.59785775 154.79633925000002 12.083715000000002 158.02385025C12.286506750000001 157.2612615 12.421368750000001 156.48221400000003 12.48700425 155.69508675Z" stroke-width="0.5"></path><path id="vector_8" stroke="#120071" stroke-linecap="round" stroke-linejoin="round" d="M12.85348575 145.33205925000001C11.5903515 143.53356675 10.570806750000001 141.988938 9.829764 140.82814725L2.50681725 144.98712375000002C4.246058250000001 150.233076 7.59785775 154.79534175 12.083715000000002 158.02275300000002" stroke-width="0.5"></path><path id="vector_9" stroke="#120071" stroke-linecap="round" stroke-linejoin="round" d="M38.99556675 146.8633215C42.083727 145.63500000000002 45.2037075 144.3811425 45.5404635 143.20389300000002C46.102455000000006 141.239616 44.546554500000006 141.03383175000002 44.546554500000006 141.03383175000002C45.78924000000001 140.48211450000002 49.271612250000004 139.22416725000002 48.5652825 137.05001625C48.408675 136.56782475 47.8558605 136.257702 47.425938 135.99057150000002C48.4160565 135.593367 49.338943500000006 135.0457395 50.1620805 134.36714025C50.42212875 134.13572025000002 50.613948 133.83786675000002 50.71659075 133.506198C50.819233499999996 133.17353175 50.82890925 132.81941925 50.74452075 132.48156600000002C50.660132250000004 132.1438125 50.48497125 131.83568475 50.23779075 131.59109775C49.990809750000004 131.34641100000002 49.681385250000005 131.1734445 49.343232750000006 131.09154974999998C48.2217435 130.99938075 47.095965 131.20825725 46.08300375 131.6985285C46.90135275000001 131.29623675000002 47.65266975 130.769058 48.3103215 130.13654325000002C49.1701665 128.83041675 48.4403955 126.4668405 45.23951775 127.092273C41.94956325 127.9112205 38.724047250000005 128.969568 35.588904750000005 130.25933550000002" stroke-width="0.5"></path><path id="vector_10" stroke="#120071" stroke-linecap="round" stroke-linejoin="round" d="M34.69634175 128.9849295C34.85095425 128.868222 34.979931 128.764881 35.07918225 128.67789900000002C35.59628625 128.21924850000002 35.959875 127.61127225000001 36.12077175 126.93875775000001S36.232192500000004 125.55991350000001 35.97892725 124.91612700000002C35.47638675 123.95383875 34.2316065 123.45030075 30.853672500000002 125.70524925000001S22.83267525 128.87640150000001 20.559273 130.22252775C18.285771000000004 131.56855425 16.69206525 136.38258900000002 15.2272365 138.3203325C13.939863 139.847505 12.438326250000001 141.18026475 10.769409000000001 142.27651725" stroke-width="0.5"></path><path id="vector_11" fill="#6153bd" d="M5.5315365000000005 168.26199075C8.1665325 170.36960850000003 11.191551 171.9356835 14.43332625 172.87233600000002C17.67500175 173.80789125 21.069594 174.09457275000003 24.422391 173.715822C25.177498500000002 171.47813025000002 26.05080975 169.282533 27.038733750000002 167.13701025C21.001863750000002 165.4347765 15.09426975 163.30361775 9.360939 160.759893L5.5315365000000005 168.26199075Z" stroke-width="0.5"></path><path id="vector_12" stroke="#120071" stroke-linecap="round" stroke-linejoin="round" d="M5.5315365000000005 168.26199075C8.1665325 170.36960850000003 11.191551 171.9356835 14.43332625 172.87233600000002C17.67500175 173.80789125 21.069594 174.09457275000003 24.422391 173.715822C25.177498500000002 171.47813025000002 26.05080975 169.282533 27.038733750000002 167.13701025C21.001863750000002 165.4347765 15.09426975 163.30361775 9.360939 160.759893L5.5315365000000005 168.26199075Z" stroke-width="0.5"></path><path id="vector_13" stroke="#120071" stroke-linecap="round" stroke-linejoin="round" d="M40.490021250000005 143.10464175C39.8758605 141.159816 38.46629325 141.8395125 38.46629325 141.8395125C39.20025375 140.69508075 41.416399500000004 137.72971275000003 39.63117375 136.30169175000003C39.1620495 136.047828 38.62210275 135.95675625 38.095722 136.04274075C38.703598500000005 135.16653675 39.17312175 134.201256 39.487833 133.18280850000002C39.83795550000001 131.80296675 38.4478395 130.23070725 37.007649 130.89703725C36.020523 131.43648525 35.195690250000006 132.2307945 34.618536750000004 133.19707275000002C35.08077825 132.410943 35.41853175 131.55828000000002 35.61962775 130.66880925C35.61962775 129.93075900000002 35.3555895 128.66553000000002 33.090267000000004 128.66553000000002S20.76396 144.04837650000002 20.76396 144.04837650000002S23.34549 138.19953525 23.767233 136.72443225C23.94648375 136.05610725 23.9162595 135.34878 23.68065 134.69870925C23.4450405 134.04873825 23.015417250000002 133.48574925 22.44983475 133.08754725C21.500913 132.56146575 20.1836145 132.8245065 18.60307575 136.56782475S13.649889750000002 143.63082300000002 12.4900965 146.000484C11.330303250000002 148.370145 12.648798750000001 153.2680695 12.4900965 155.69608425C12.255584250000002 157.67881500000001 11.734989 159.617556 10.94447025 161.45185875C16.18154475 163.69364025000002 21.558568500000003 165.59347875 27.041726250000004 167.139105C29.94066075 160.85305950000003 32.84877225 157.193631 33.936845250000005 154.69499325C35.356587000000005 151.42558725 41.10009225 145.04956725 40.490021250000005 143.10464175Z" stroke-width="0.5"></path><path id="vector_14" stroke="#120071" stroke-linecap="round" stroke-linejoin="round" d="M34.61953425 133.19298300000003L30.351132 140.91313425" stroke-width="0.5"></path><path id="vector_15" stroke="#120071" stroke-linecap="round" stroke-linejoin="round" d="M38.09681925 136.03865100000002L33.85185825000001 143.819151" stroke-width="0.5"></path><path id="vector_16" stroke="#120071" stroke-linecap="round" stroke-linejoin="round" d="M38.46629325 141.83532300000002L35.83149675000001 146.3146965" stroke-width="0.5"></path><path id="vector_17" stroke="#120071" stroke-linecap="round" stroke-linejoin="round" d="M46.0870935 131.70162075000002L39.063097500000005 134.33532" stroke-width="0.5"></path><path id="vector_18" stroke="#120071" stroke-linecap="round" stroke-linejoin="round" d="M47.42603775 135.99057150000002L40.5350085 138.45230175" stroke-width="0.5"></path><path id="vector_19" stroke="#120071" stroke-linecap="round" stroke-linejoin="round" d="M44.546554500000006 141.03393150000002L40.777600500000005 142.5692835" stroke-width="0.5"></path><path id="vector_20" stroke="#120071" stroke-linecap="round" stroke-linejoin="round" d="M23.8695765 110.95601475000001L25.76632275 118.22778975000001" stroke-width="0.5"></path><path id="vector_21" stroke="#120071" stroke-linecap="round" stroke-linejoin="round" d="M44.108452500000006 112.88757375000002L40.14708075 119.27496525000001" stroke-width="0.5"></path><path id="vector_22" stroke="#120071" stroke-linecap="round" stroke-linejoin="round" d="M8.52663 122.25260250000001L15.066539250000002 125.95502325000001" stroke-width="0.5"></path></g><g id="hands 2"><path id="vector_23" fill="#6153bd" d="M189.6692385 120.65370975000002C188.92919325000003 121.81041075000002 187.90865100000002 123.35613675 186.64551675 125.15762175C186.7836705 125.386947 186.90756000000002 125.60909025000001 187.01189850000003 125.8240515C188.17169175 128.19471 186.8542935 133.091637 187.01189850000003 135.51965175C187.07743425 136.30687875 187.21259550000002 137.0878215 187.4152875 137.8515075C191.90074575 134.622999 195.25304400000002 130.06073325 196.99318275 124.81577850000001L189.6692385 120.65370975000002Z" stroke-width="0.5"></path><path id="vector_24" stroke="#120071" stroke-linecap="round" stroke-linejoin="round" d="M187.4152875 137.84841525000002C191.90074575 134.61990675 195.25304400000002 130.05764100000002 196.99318275 124.81268625000001L189.6692385 120.65370975000002C188.92919325000003 121.81041075000002 187.90865100000002 123.35613675 186.64551675 125.15762175" stroke-width="0.5"></path><path id="vector_25" stroke="#120071" stroke-linecap="round" stroke-linejoin="round" d="M188.72849625 122.09908725000001C187.06007775 121.00183725000001 185.55844125000002 119.67007500000001 184.271766 118.14280275000002C182.80593975000002 116.205159 181.21113675 111.38703450000001 178.93873200000002 110.044998C176.66632725000002 108.70306125 172.02416175 107.78486250000002 168.64632749999998 105.52881675C165.26839350000003 103.272771 164.02261575 103.77850350000001 163.52007525000002 104.74069200000001C163.267209 105.38457825 163.21803225000002 106.08981075 163.3787295 106.76232525C163.5395265 107.43483975000001 163.90281600000003 108.0418185 164.41982025 108.5014665C164.52216375000003 108.587451 164.64904575 108.6897945 164.80365825 108.808497" stroke-width="0.5"></path><path id="vector_26" stroke="#120071" stroke-linecap="round" stroke-linejoin="round" d="M163.9090005 110.08499775000001C159.04070175 108.1974285 153.263481 106.19524650000001 152.19585675000002 106.898484C150.30419775000001 108.14525925000001 150.7791075 109.34595000000002 151.18548900000002 109.96110825000001C151.842642 110.59372275000001 152.593959 111.1209015 153.41290650000002 111.5230935C152.39954625000001 111.03381975 151.27356825 110.82504300000001 150.15168 110.91711225C149.81382675 110.999007 149.503704 111.17097600000001 149.25702225 111.41666025C149.0103405 111.661347 148.83428175 111.96947475 148.75029225 112.30722825000001C148.6664025 112.64398425 148.67557950000003 112.9981965 148.77792300000002 113.33086275000001C148.88136375000002 113.66352900000001 149.072784 113.9613825 149.3327325 114.19270275C150.15676725 114.8703045 151.07905575 115.41793200000001 152.068875 115.816134C151.63995000000003 116.08336425000002 151.08623775 116.39348700000001 150.92963025 116.87557875C150.2233005 119.04972975000001 153.70567275000002 120.30777675000002 154.94935575000002 120.85949400000001C154.94935575000002 120.85949400000001 153.39235800000003 121.064181 153.9543495 123.02855775C154.2911055 124.20670500000001 157.411086 125.45657250000001 160.499346 126.68898375" stroke-width="0.5"></path><path id="vector_27" fill="#6153bd" d="M193.96736625 148.0834635C191.33256975 150.19008374999999 188.3078505 151.757256 185.06607525 152.69281125C181.82430000000002 153.62946375 178.42890975000003 153.9160455 175.0766115 153.53829225C174.32220225 151.30070025 173.45008800000002 149.10400575 172.46336100000002 146.95958025000002C178.50063000000003 145.25624925 184.40792475 143.1250905 190.14215325 140.582463L193.96736625 148.0834635Z" stroke-width="0.5"></path><path id="vector_28" stroke="#120071" stroke-linecap="round" stroke-linejoin="round" d="M193.96736625 148.0834635C191.33256975 150.19008374999999 188.3078505 151.757256 185.06607525 152.69281125C181.82430000000002 153.62946375 178.42890975000003 153.9160455 175.0766115 153.53829225C174.32220225 151.30070025 173.45008800000002 149.10400575 172.46336100000002 146.95958025000002C178.50063000000003 145.25624925 184.40792475 143.1250905 190.14215325 140.582463L193.96736625 148.0834635Z" stroke-width="0.5"></path><path id="vector_29" stroke="#120071" stroke-linecap="round" stroke-linejoin="round" d="M187.01189850000003 135.51665925C186.8542935 133.09273425 188.17169175 128.19161775 187.01189850000003 125.82095925000002S182.48045550000003 120.12962325000001 180.89891925000003 116.38839975C179.31748275 112.64707650000001 178.00108200000003 112.38403575000001 177.05216025000001 112.90812225C176.48717625 113.3062245 176.05725375000003 113.868216 175.82184375 114.51818700000001C175.586334 115.16925525 175.555611 115.87548525 175.734762 116.54391000000001C176.156505 118.0200105 178.73913224999998 123.86895150000001 178.73913224999998 123.86895150000001S168.6738585 108.48201525 166.40863575000003 108.48201525C164.143413 108.48201525 163.879275 109.746147 163.879275 110.48419725000001C164.07887475 111.37366800000001 164.41563075 112.226331 164.8793685 113.01146325C164.3020155 112.0461825 163.4780805 111.25287075 162.49125375000003 110.71342275C161.05006575000002 110.04709275 159.66104700000002 111.61935225 160.01007225 112.999194C160.32428475 114.0176415 160.79410725000002 114.98292225000002 161.40218325 115.85912625C160.876002 115.77314175000001 160.33555650000002 115.86431325000001 159.86673150000001 116.11807725C158.08160550000002 117.5511855 160.2976515 120.51146625000001 161.03260950000004 121.65589800000001C161.03260950000004 121.65589800000001 159.62004975000002 120.97001700000001 159.00898125 122.92002975C158.397813 124.87004250000001 164.14131824999998 131.2460625 165.56006250000002 134.5134735C166.6481355 137.01211125 169.55215725000002 140.6704425 172.4551815 146.9574855C177.93863850000002 145.41086174999998 183.31566225000003 143.51202075 188.55353475 141.270339C187.76431275000002 139.43703374999998 187.2453135 137.49829275 187.01189850000003 135.5165595Z" stroke-width="0.5"></path><path id="vector_30" stroke="#120071" stroke-linecap="round" stroke-linejoin="round" d="M164.8793685 113.01355800000002L169.14886800000002 120.73560450000001" stroke-width="0.5"></path><path id="vector_31" stroke="#120071" stroke-linecap="round" stroke-linejoin="round" d="M161.40218325 115.86122100000001L165.64714425 123.641721" stroke-width="0.5"></path><path id="vector_32" stroke="#120071" stroke-linecap="round" stroke-linejoin="round" d="M161.03370675 121.657893L163.66850325000001 126.13726650000001" stroke-width="0.5"></path><path id="vector_33" stroke="#120071" stroke-linecap="round" stroke-linejoin="round" d="M153.41290650000002 111.5230935L160.435905 114.15789000000001" stroke-width="0.5"></path><path id="vector_34" stroke="#120071" stroke-linecap="round" stroke-linejoin="round" d="M152.07296475 115.8131415L158.96499150000002 118.27487175" stroke-width="0.5"></path><path id="vector_35" stroke="#120071" stroke-linecap="round" stroke-linejoin="round" d="M154.95344550000002 120.85640175L158.72130225 122.39185350000001" stroke-width="0.5"></path><path id="vector_36" stroke="#120071" stroke-linecap="round" stroke-linejoin="round" d="M175.63042350000003 90.77838525L173.73258 98.05016025" stroke-width="0.5"></path><path id="vector_37" stroke="#120071" stroke-linecap="round" stroke-linejoin="round" d="M155.3915475 92.71014375L159.35192175 99.096438" stroke-width="0.5"></path><path id="vector_38" stroke="#120071" stroke-linecap="round" stroke-linejoin="round" d="M190.97227275 102.07517250000001L184.43246325 105.77759325" stroke-width="0.5"></path></g><g id="person"><path id="vector_39" stroke="#120071" stroke-linecap="round" stroke-linejoin="round" d="M86.74708875 79.2308265C90.586566 72.537402 91.26835725000001 70.28953575 94.72409625 68.78181450000001C89.44013925 64.6780995 84.27089475000001 58.48013325 80.56029450000001 53.529939750000004C77.00071575000001 56.382291 73.1871735 58.902375 69.16754775000001 61.058670750000005C73.9600365 66.6495585 81.984126 74.59893525 86.74708875 79.2308265Z" stroke-width="0.5"></path><path id="vector_40" stroke="#120071" stroke-linecap="round" stroke-linejoin="round" d="M80.56029450000001 53.52934125C77.00091525 56.38189200000001 73.18737300000001 58.90207575 69.16754775000001 61.057972500000005C67.82601 59.51932875000001 66.581529 57.898491 65.441586 56.20503525C69.50530125 53.9896875 73.360539 51.411549 76.960317 48.50234025C77.88150825000001 49.853553749999996 79.10982975 51.5936925 80.56029450000001 53.52934125Z" stroke-width="0.5"></path><path id="vector_41" stroke="#120071" stroke-linecap="round" stroke-linejoin="round" d="M54.3527775 37.3992675C55.28115075 37.3070985 55.8298755 38.239661250000005 56.42658 38.78928375C57.189468000000005 39.60444075 58.093602 40.274760750000006 59.09519175 40.767924750000006C59.9846625 41.01161400000001 57.40413 37.67148525 56.806428000000004 36.93144C55.94149575 36.000772500000004 55.23516600000001 34.934844 54.71516925 33.77564925C54.462303 33.0457785 55.307784 32.413263750000006 55.964937000000006 32.41625625C57.571011750000004 32.421443249999996 59.894588250000005 36.3060075 61.6971705 37.912082250000005C62.432128500000005 38.566143 62.024749500000006 37.93662075 61.98893925 37.765749C61.89577275 37.336824 60.268251750000005 34.2096615 59.634639750000005 33.0816885C58.889407500000004 31.750923750000002 57.43385550000001 30.203302500000003 58.733897250000005 29.17757325C60.157728750000004 28.051595250000002 61.3368735 30.37417425 61.96849050000001 31.281101250000003L65.85824175 36.8434605C64.3924155 31.334367750000002 63.901047000000005 30.305646 63.5038425 28.165210500000004C63.24289650000001 26.7639225 64.59301275000001 26.567415 65.57774475 27.111950250000003C66.358089 27.65179725 66.9504045 28.421967000000002 67.271799 29.314729500000002C68.79907125000001 32.332366500000006 71.2045425 38.424897 71.28843225 38.674671000000004C71.28843225 38.674671000000004 71.7675315 33.26901900000001 73.9037775 33.00697575C76.0400235 32.7449325 75.38596275 35.318283 75.29898075000001 36.015336000000005C75.21199874999999 36.712389 74.731902 39.19776 75.29898075000001 40.723935000000004C75.8660595 42.25011000000001 75.08092725 45.6505875 75.08092725 45.6505875S75.76980075 46.74793725 76.9684965 48.50234025C73.36841925 51.411549 69.5127825 53.9896875 65.448768 56.20503525C60.79742550000001 49.51679775 57.591460500000004 43.73229525000001 57.591460500000004 43.73229525000001C56.985479250000004 43.105167 56.39176725 42.46646775 55.810424250000004 41.816097750000004C55.19516625000001 41.131314 51.69035025 37.66131075 54.3527775 37.3992675Z" stroke-width="0.5"></path><path id="vector_42" stroke="#120071" stroke-linecap="round" stroke-linejoin="round" d="M71.28125025000001 38.67457125000001L71.09910675 40.1567565S68.46431025000001 41.7842775 69.217722 47.19202425" stroke-width="0.5"></path><path id="vector_43" stroke="#120071" stroke-linecap="round" stroke-linejoin="round" d="M122.87753625 51.775437000000004C126.43761375 54.62738925 130.2505575 57.14707425 134.270283 59.3031705C135.61221975 57.76492575 136.857 56.14458675 137.99724225 54.45123075C133.93352700000003 52.235484 130.077591 49.65744525 126.47751375 46.74853575C125.55422775000001 48.0996495 124.32690375 49.841883 122.87753625 51.775437000000004Z" stroke-width="0.5"></path><path id="vector_44" stroke="#120071" stroke-linecap="round" stroke-linejoin="round" d="M149.08505325 35.64456525C148.1576775 35.5534935 147.60895275000001 36.484959 147.01125075000002 37.03567875C146.248662 37.850536500000004 145.34373 38.520657 144.342639 39.01332225C143.45316825 39.25691175 146.03469825000002 35.916882750000006 146.63140275 35.176837500000005C147.49643475 34.246668750000005 148.20366225 33.18093975 148.723659 32.02204425C148.97652525 31.2921735 148.13004675 30.659559 147.47289375 30.66165375C145.86681900000002 30.6677385 143.54424 34.551405 141.74066025000002 36.157379999999996C141.00669975 36.8115405 141.41308125000003 36.18301575 141.44988899999998 36.01204425C141.54205800000003 35.582121750000006 143.1705765 32.4560565 143.8041885 31.32698625C144.54942075 29.99632125 146.00597025000002 28.449597750000002 144.70503075000002 27.422970750000005C143.28219675 26.29699275 142.10295225000002 28.620569250000003 141.4704375 29.527496250000002C140.44680300000002 30.995317500000002 139.48152225 32.504136 138.462975 33.976047C138.3606315 34.11938775 137.80891425000002 35.12147625 137.58577350000002 35.08975575C137.10368175000002 35.0212275 138.632949 30.278813250000002 138.78446925 29.81717025C139.24401749999998 28.7082495 139.62995025 27.570600750000004 139.94216775 26.4116055C140.2032135 25.010317500000003 138.853995 24.812712750000003 137.8682655 25.357248000000002C137.08832025 25.897793250000003 136.496703 26.667663750000003 136.17520875000002 27.560127C135.26628675 29.35552725 134.48324925 31.215465750000003 133.71138375 33.07221225C133.12595100000001 34.3265685 132.60695175 35.61144825 132.1585755 36.921065999999996C132.1585755 36.921065999999996 131.67847875 31.514316750000003 129.54223274999998 31.253271C127.40598675000001 30.99222525 128.0600475 33.56358075 128.1470295 34.261731000000005C128.23411125 34.959781500000005 128.71410825 37.444155 128.1470295 38.97033C127.57995075000001 40.496505 128.365083 43.8969825 128.365083 43.8969825S127.67720700000001 44.993235000000006 126.478611 46.74873525C130.0785885 49.65774450000001 133.9345245 52.2356835 137.99833950000001 54.45143025C142.64040525 47.763093000000005 145.84946250000002 41.97769275 145.84946250000002 41.97769275C146.4543465 41.351262750000004 147.047061 40.710468750000004 147.62950125000003 40.062492750000004C148.243662 39.376711500000006 151.74748050000002 35.907606 149.08505325 35.64456525Z" stroke-width="0.5"></path><path id="vector_45" stroke="#120071" stroke-linecap="round" stroke-linejoin="round" d="M132.157578 36.921265500000004L132.338724 38.40345075S134.97661275000002 40.030971750000006 134.22120600000002 45.43662375" stroke-width="0.5"></path><path id="vector_46" stroke="#120071" stroke-linecap="round" stroke-linejoin="round" d="M96.28099425 68.30999700000001C94.757313 68.60994525 93.35004 69.33572625000001 92.22236625000001 70.40325075000001C89.51894175000001 72.75755025 84.89732475000001 84.87817275 80.27580750000001 87.40653600000002C75.65419050000001 89.93479950000001 66.498936 91.59204600000001 65.278794 95.77765575000001C64.12109550000001 99.7454115 72.05411325000001 105.828765 79.86533625 109.34794500000001C81.770262 110.2067925 82.06302825 108.05718 80.98004250000001 107.439927C69.75507525 101.03418150000002 67.39977825000001 97.78592250000001 68.06920050000001 97.17275925000001C68.76625349999999 96.53306250000001 70.68454575 96.99779775 72.661092 98.62661550000001C77.4445035 102.56544375000001 96.78872175000001 109.213881 111.75700725 108.87193800000001C114.641478 108.80540475000001 116.70001875000001 108.37248975 116.98560300000001 107.3754885C117.85771725000001 104.32303875000001 109.22455425000001 96.47570625 110.53686525 93.24929250000001C111.84907650000001 90.02287875000002 112.804083 81.21575175000001 112.804083 81.21575175000001S127.13466675000001 67.64057475000001 134.27437275 59.303270250000004C130.25464725 57.14687475 126.4417035 54.62718975 122.88162600000001 51.775636500000005C119.230377 56.64393525 114.1644735 62.728286250000004 108.96759825000001 66.82880925C108.96759825000001 66.82880925 105.6153 67.13593949999999 102.35197875000001 67.50750825" stroke-width="0.5"></path><path id="vector_47" fill="#6153bd" d="M94.97796 79.999899C95.45965275 79.999899 95.85007425 79.60937775 95.85007425 79.12778475C95.85007425 78.64599225 95.45965275 78.25567050000001 94.97796 78.25567050000001C94.49626725 78.25567050000001 94.10584575000001 78.64599225 94.10584575000001 79.12778475C94.10584575000001 79.60937775 94.49626725 79.999899 94.97796 79.999899Z" stroke-width="0.5"></path><path id="vector_48" fill="#6153bd" d="M92.13019725 84.70859775000001C92.61179025000001 84.70859775000001 93.0023115 84.3180765 93.0023115 83.8364835C93.0023115 83.35479075 92.61179025000001 82.96436925000002 92.13019725 82.96436925000002S91.25808300000001 83.35479075 91.25808300000001 83.8364835C91.25808300000001 84.3180765 91.64860425 84.70859775000001 92.13019725 84.70859775000001Z" stroke-width="0.5"></path><path id="vector_49" fill="#6153bd" d="M107.17628775000001 57.41181075000001C111.03122625 58.5674145 109.84589700000001 54.089138250000005 105.1291185 51.3878085C103.15556475000001 50.25574575 99.72955125 50.173851 98.43260175 52.3633635C98.02013550000001 53.319966 97.97754225000001 54.395570250000006 98.312802 55.381998C102.159561 53.4821595 104.51904750000001 56.227479 102.6437475 60.43962225C104.75954475 59.98615875 104.99804700000001 61.925897250000006 102.955965 62.90863425C102.55467075000001 63.10893225 102.1134765 63.217959 101.66520000000001 63.227934000000005L102.38988375000001 67.79119725000001C104.2928145 68.162766 107.23972875 67.39608750000001 107.346162 65.52288225000001C107.35952850000001 64.89655200000001 107.26127475000001 64.27281525 107.05758525000002 63.680400000000006C107.02377000000001 63.5780565 106.85898300000001 62.850280500000004 106.73718825 62.81447025C106.73718825 62.81447025 109.13448000000001 63.51052575 108.96041625000001 61.24520325C108.78645225000001 58.9799805 106.3041735 57.150765 107.17628775000001 57.41181075000001Z" stroke-width="0.5"></path><path id="vector_50" stroke="#120071" stroke-linecap="round" stroke-linejoin="round" d="M107.17628775000001 57.41181075000001C111.03122625 58.5674145 109.84589700000001 54.089138250000005 105.1291185 51.3878085C103.15556475000001 50.25574575 99.72955125 50.173851 98.43260175 52.3633635C98.02013550000001 53.319966 97.97754225000001 54.395570250000006 98.312802 55.381998C102.159561 53.4821595 104.51904750000001 56.227479 102.6437475 60.43962225C104.75954475 59.98615875 104.99804700000001 61.925897250000006 102.955965 62.90863425C102.55467075000001 63.10893225 102.1134765 63.217959 101.66520000000001 63.227934000000005L102.38988375000001 67.79119725000001C104.2928145 68.162766 107.23972875 67.39608750000001 107.346162 65.52288225000001C107.35952850000001 64.89655200000001 107.26127475000001 64.27281525 107.05758525000002 63.680400000000006C107.02377000000001 63.5780565 106.85898300000001 62.850280500000004 106.73718825 62.81447025C106.73718825 62.81447025 109.13448000000001 63.51052575 108.96041625000001 61.24520325C108.78645225000001 58.9799805 106.3041735 57.150765 107.17628775000001 57.41181075000001Z" stroke-width="0.5"></path><path id="vector_51" stroke="#120071" stroke-linecap="round" stroke-linejoin="round" d="M101.66829225000001 63.22783425C101.41542600000001 63.23521575000001 101.1646545 63.1830465 100.93532925000001 63.07531650000001C99.8200245 64.42862475000001 98.3149965 65.405676 96.62493225 65.8739025L95.40678525 74.48551950000001C95.38104975 74.66397225 95.39561325 74.846016 95.449578 75.01798500000001C95.503443 75.19005375 95.595213 75.34775850000001 95.71830450000002 75.479628C95.84119650000001 75.61139775000001 95.99231775000001 75.71404050000001 96.16019700000001 75.77977575000001C96.32807625000001 75.84541125 96.50862375000001 75.87254325 96.68837325000001 75.8592765C97.49894175000001 75.79214475 98.2990365 75.63094875 99.07239825 75.37917975C100.27558275 74.9814765 101.297721 74.16751649999999 101.9538765 73.08373275000001C102.6110295 71.99994900000002 102.85970625000002 70.71746325000001 102.65501925000001 69.46679775000001L101.6681925 63.227934000000005Z" stroke-width="0.5"></path><path id="vector_52" stroke="#120071" stroke-linecap="round" stroke-linejoin="round" d="M104.300994 60.90146475C104.07885075 60.43982175 103.408431 60.27603225000001 102.64683975000001 60.43982175C103.57730775 58.34966025 103.535313 56.331019500000004 102.355071 55.34838225C100.71727575000001 53.98599675 97.51649775000001 55.1324235 95.20618800000001 57.9074685C92.89587825 60.68241375 92.3523405 64.039899 93.99113325 65.4022845C95.5818465 66.72586725000001 98.64447075000001 65.67769425 100.93532925000001 63.073620749999996C102.2854455 63.76867875000001 104.871165 62.0857965 104.300994 60.90146475Z" stroke-width="0.5"></path><path id="vector_53" stroke="#120071" stroke-linecap="round" stroke-linejoin="round" d="M97.22782125 76.09398825000001L98.09584575000001 81.41674800000001S105.97769175 75.85239375 107.05040325000002 67.00835925" stroke-width="0.5"></path><path id="vector_54" fill="#72d4a8" d="M96.07521000000001 75.7447635C91.3492545 78.07861425 84.836976 80.193414 79.75271850000001 79.4430945C72.661092 78.39701625000001 69.75407775000001 76.42037025 69.75407775000001 76.42037025L61.44230925 75.20022825000001S64.81306125 80.83829775 67.3126965 83.0472615C69.87996225 85.3155765 91.20182400000002 84.33493425 97.481685 75.76321725000001C97.02193725000001 75.90097200000001 96.53116725000001 75.894588 96.07521000000001 75.74486325000001Z" stroke-width="0.5"></path><path id="vector_55" stroke="#120071" stroke-linecap="round" stroke-linejoin="round" d="M96.07521000000001 75.7447635C91.3492545 78.07861425 84.836976 80.193414 79.75271850000001 79.4430945C72.661092 78.39701625000001 69.75407775000001 76.42037025 69.75407775000001 76.42037025L61.44230925 75.20022825000001S64.81306125 80.83829775 67.3126965 83.0472615C69.87996225 85.3155765 91.20182400000002 84.33493425 97.481685 75.76321725000001C97.02193725000001 75.90097200000001 96.53116725000001 75.894588 96.07521000000001 75.74486325000001Z" stroke-width="0.5"></path><path id="vector_56" stroke="#120071" stroke-linecap="round" stroke-linejoin="round" d="M94.47531975000001 68.89263675S91.5068595 73.11096450000001 93.28789575 77.01089025" stroke-width="0.5"></path></g></g></svg>