<svg xmlns="http://www.w3.org/2000/svg" fill="none" viewBox="-0.25 -0.25 200 200" id="Success-2--Streamline-Bangalore.svg"><desc>Success 2 Streamline Illustration: https://streamlinehq.com</desc><g id="success-2--interface-success"><g id="hand"><path id="vector" stroke="#120071" stroke-linecap="round" stroke-linejoin="round" d="M63.35721 120.45111750000001c-7.458307500000001 4.24935 -14.8019025 9.097199999999999 -22.12455 13.300665l18.942525 38.616217500000005c7.2189075 -3.002475 14.788935000000002 -5.4313875000000005 19.8113475 -5.200965000000001 0.9725625 0.044887500000000004 1.9351500000000001 0.05985 2.8867650000000005 0.04389" stroke-width="0.5"></path><path id="vector_2" stroke="#120071" stroke-linecap="round" stroke-linejoin="round" d="M122.96781 144.048975c14.06475 0.9875250000000001 18.3111075 -6.184500000000001 17.386425 -11.815387500000002 -0.5416425 -3.29175 -3.5181825000000004 -6.463800000000001 -7.4882325000000005 -9.30069" stroke-width="0.5"></path><path id="vector_3" fill="#6153bd" d="M41.231662500000006 133.7517825c-7.8204 4.4887500000000005 -14.681205 9.03336 -18.934545 13.092187500000001 8.640345000000002 15.600900000000001 10.9615275 19.6317975 19.38342 34.632202500000005a168.0418425 168.0418425 0 0 1 18.495645000000003 -9.107175000000002l-18.94452 -38.617215Z" stroke-width="0.5"></path><path id="vector_4" stroke="#120071" stroke-linecap="round" stroke-linejoin="round" d="M41.231662500000006 133.7517825c-7.8204 4.4887500000000005 -14.681205 9.03336 -18.934545 13.092187500000001 8.640345000000002 15.600900000000001 10.9615275 19.6317975 19.38342 34.632202500000005a168.0418425 168.0418425 0 0 1 18.495645000000003 -9.107175000000002l-18.94452 -38.617215Z" stroke-width="0.5"></path><path id="vector_5" stroke="#120071" stroke-linecap="round" stroke-linejoin="round" d="M113.83170750000001 136.240545c0.1905225 -1.143135 0.35511 -4.5715425000000005 5.580015 -6.1037025a30.85866 30.85866 0 0 1 11.6976825 -0.6902699999999999" stroke-width="0.5"></path><path id="vector_6" fill="#72d4a8" d="M135.33680999999999 183.46818000000002c-7.251825 -3.034395 -13.1859525 -8.841840000000001 -17.25675 -15.699652500000001 -0.48378750000000004 0.26134500000000005 -0.983535 0.492765 -1.49625 0.6912675 -2.4867675 0.9576 -11.780475000000001 2.176545 -15.5859375 2.372055 -9.7326075 0.49875 -11.4842175 -10.573500000000001 -2.1895124999999998 -12.815880000000002 -3.0603300000000004 -0.9266775 -6.174525000000001 -2.4398850000000003 -7.491225 -5.314680000000001a7.024395 7.024395 0 0 1 1.94313 -8.112667499999999c1.885275 -1.5371475 3.7386300000000006 -0.29925 -3.25185 -1.8154500000000002a65.74722000000001 65.74722000000001 0 0 1 -4.995480000000001 20.240272500000003c-3.9351375 8.86578 -10.839832500000002 16.739047499999998 -19.7175825 20.454735000000003 -1.1511149999999999 0.48079500000000003 -5.11119 1.62792 -5.11119 3.62292 0 4.0987275 17.968965 7.421400000000001 40.13541 7.421400000000001 22.166445000000003 0 40.13541 -3.3226725 40.13541 -7.421400000000001 -0.006982500000000001 -1.9551 -3.8164350000000002 -3.0792825 -5.118172500000001 -3.62292Z" stroke-width="0.5"></path><path id="vector_7" stroke="#120071" stroke-linecap="round" stroke-linejoin="round" d="M94.97696250000001 143.69386500000002c-1.7955 -0.2882775 -3.49125 -0.5985 -4.9765275 -0.9206925000000001a65.74722000000001 65.74722000000001 0 0 1 -4.9944825 20.240272500000003c-3.9351375 8.8667775 -10.839832500000002 16.740045000000002 -19.7175825 20.454735000000003 -1.1511149999999999 0.48079500000000003 -5.11119 1.6289175 -5.11119 3.62292 0 4.0987275 17.968965 7.421400000000001 40.13541 7.421400000000001 22.166445000000003 0 40.13541 -3.3226725 40.13541 -7.421400000000001 0 -1.9551 -3.8094525000000004 -3.078285 -5.11119 -3.62292 -7.250827500000001 -3.034395 -13.1859525 -8.8428375 -17.25675 -15.699652500000001" stroke-width="0.5"></path><path id="vector_8" stroke="#120071" stroke-linecap="round" stroke-linejoin="round" d="M112.49406 159.99900000000002c-4.389 0.45486000000000004 -9.44034 -0.6902699999999999 -13.692682500000002 -1.9840275000000003 -9.2957025 2.2423800000000003 -7.543095000000001 13.314630000000001 2.1895124999999998 12.815880000000002 3.8054625 -0.1995 13.09917 -1.414455 15.5859375 -2.372055a10.938585 10.938585 0 0 0 5.927145 -5.08725 9.905175 9.905175 0 0 0 -1.1221875000000001 -9.79146c-1.72767 3.1550925 -4.646355000000001 5.98101 -8.887725000000001 6.4189125Z" stroke-width="0.5"></path><g id="group"><path id="vector_9" stroke="#120071" stroke-linecap="round" stroke-linejoin="round" d="M114.18981000000001 138.94576500000002a6.4488375 6.4488375 0 0 1 -2.29425 4.758075c-1.8673200000000003 1.51221 -4.458825 1.0613400000000002 -6.3191625 0.399 -5.6338799999999996 -2.0219325 -10.6542975 -0.86982 -12.323115 0.49077000000000004a7.0224 7.0224 0 0 0 -1.9441275000000002 8.112667499999999c1.4084699999999999 3.0723000000000003 4.869795 4.5885 8.1246375 5.4992175 4.2463575 1.18503 8.67825 2.25435 13.0602675 1.7955 8.017905 -0.8309175 11.3086575 -10.192455 10.7660175 -14.18046a32.792812500000004 32.792812500000004 0 0 0 -0.2922675 -1.7705625c-3.0433725000000003 -0.2743125 -7.1051925 -1.4393925 -8.778 -5.1042075Z" stroke-width="0.5"></path></g><path id="vector_10" stroke="#120071" stroke-linecap="round" stroke-linejoin="round" d="M82.25584500000001 141.5861475a49.535849999999996 49.535849999999996 0 0 1 7.7445900000000005 1.187025" stroke-width="0.5"></path><path id="vector_11" stroke="#120071" stroke-linecap="round" stroke-linejoin="round" d="M110.64369750000002 132.6565275c1.183035 0.28129499999999996 3.6548400000000005 2.2094625 3.5461125000000004 6.2892375000000005" stroke-width="0.5"></path><path id="vector_12" stroke="#120071" stroke-linecap="round" stroke-linejoin="round" d="M82.25584500000001 141.5861475c0.69825 9.775500000000001 -1.1102175 12.086707500000001 -5.6857500000000005 15.6457875" stroke-width="0.5"></path></g><g id="goblet"><path id="vector_13" fill="#72d4a8" d="M28.658175000000004 103.56444a4.8678 4.8678 0 0 1 -4.845855 -4.84785V80.57805a4.8807675 4.8807675 0 0 1 4.845855 -4.84785l8.08773 -0.09177a14.8019025 14.8019025 0 0 0 -14.323102500000001 -11.07225 11.106165 11.106165 0 0 0 -11.396437500000001 11.07225v28.017780000000002a11.1091575 11.1091575 0 0 0 11.07225 11.07225h15.162a11.074245000000001 11.074245000000001 0 0 0 11.07225 -11.07225l-19.674690000000002 -0.09177Z" stroke-width="0.5"></path><path id="vector_14" stroke="#120071" stroke-linecap="round" stroke-linejoin="round" d="M28.658175000000004 103.56444a4.8678 4.8678 0 0 1 -4.845855 -4.84785V80.57805a4.8807675 4.8807675 0 0 1 4.845855 -4.84785l8.08773 -0.09177a14.8019025 14.8019025 0 0 0 -14.323102500000001 -11.07225 11.106165 11.106165 0 0 0 -11.396437500000001 11.07225v28.017780000000002a11.1091575 11.1091575 0 0 0 11.07225 11.07225h15.162a11.074245000000001 11.074245000000001 0 0 0 11.07225 -11.07225l-19.674690000000002 -0.09177Z" stroke-width="0.5"></path><path id="vector_15" fill="#72d4a8" d="M170.84082750000002 103.56444a4.8687975 4.8687975 0 0 0 4.846852500000001 -4.84785V80.57805a4.8827625 4.8827625 0 0 0 -4.846852500000001 -4.84785l-8.0867325 -0.09177a14.800905 14.800905 0 0 1 14.323102500000001 -11.07225 11.10816 11.10816 0 0 1 11.396437500000001 11.07225v28.017780000000002a11.1091575 11.1091575 0 0 1 -11.07225 11.07225h-15.162a11.0752425 11.0752425 0 0 1 -11.07225 -11.07225l19.6736925 -0.09177Z" stroke-width="0.5"></path><path id="vector_16" stroke="#120071" stroke-linecap="round" stroke-linejoin="round" d="M170.84082750000002 103.56444a4.8687975 4.8687975 0 0 0 4.846852500000001 -4.84785V80.57805a4.8827625 4.8827625 0 0 0 -4.846852500000001 -4.84785l-8.0867325 -0.09177a14.800905 14.800905 0 0 1 14.323102500000001 -11.07225 11.10816 11.10816 0 0 1 11.396437500000001 11.07225v28.017780000000002a11.1091575 11.1091575 0 0 1 -11.07225 11.07225h-15.162a11.0752425 11.0752425 0 0 1 -11.07225 -11.07225l19.6736925 -0.09177Z" stroke-width="0.5"></path><path id="vector_17" stroke="#120071" stroke-linecap="round" stroke-linejoin="round" d="m83.87778 30.423750000000002 -18.383925 -17.155005000000003" stroke-width="0.5"></path><path id="vector_18" stroke="#120071" stroke-linecap="round" stroke-linejoin="round" d="m135.386685 12.6552825 -17.156002500000003 18.383925" stroke-width="0.5"></path><path id="vector_19" stroke="#120071" stroke-linecap="round" stroke-linejoin="round" d="M102.01931250000001 29.240715V4.987500000000001" stroke-width="0.5"></path><path id="vector_20" stroke="#120071" stroke-linecap="round" stroke-linejoin="round" d="M99.75 67.5836175c-35.979825000000005 0 -65.14772250000001 -5.314680000000001 -65.14772250000001 -11.87025 0 43.100977500000006 29.167897500000002 78.0414075 65.14772250000001 78.0414075 35.979825000000005 0 65.14772250000001 -34.94043 65.14772250000001 -78.0414075 0 6.55557 -29.167897500000002 11.87025 -65.14772250000001 11.87025Z" stroke-width="0.5"></path><path id="vector_21" fill="#72d4a8" d="M99.75 67.58262c35.979825000000005 0 65.14772250000001 -5.314680000000001 65.14772250000001 -11.87025s-29.167897500000002 -11.87025 -65.14772250000001 -11.87025c-35.979825000000005 0 -65.14772250000001 5.314680000000001 -65.14772250000001 11.87025s29.1669 11.87025 65.14772250000001 11.87025Z" stroke-width="0.5"></path><path id="vector_22" stroke="#120071" stroke-linecap="round" stroke-linejoin="round" d="M99.75 67.58262c35.979825000000005 0 65.14772250000001 -5.314680000000001 65.14772250000001 -11.87025s-29.167897500000002 -11.87025 -65.14772250000001 -11.87025c-35.979825000000005 0 -65.14772250000001 5.314680000000001 -65.14772250000001 11.87025s29.1669 11.87025 65.14772250000001 11.87025Z" stroke-width="0.5"></path><path id="vector_23" fill="#6153bd" d="M99.75 64.56219c32.927475 0 59.62057500000001 -3.96207 59.62057500000001 -8.849820000000001S132.677475 46.86255 99.75 46.86255c-32.927475 0 -59.62057500000001 3.96207 -59.62057500000001 8.849820000000001s26.693100000000005 8.849820000000001 59.62057500000001 8.849820000000001Z" stroke-width="0.5"></path><path id="vector_24" stroke="#120071" stroke-linecap="round" stroke-linejoin="round" d="M99.75 64.56219c32.927475 0 59.62057500000001 -3.96207 59.62057500000001 -8.849820000000001S132.677475 46.86255 99.75 46.86255c-32.927475 0 -59.62057500000001 3.96207 -59.62057500000001 8.849820000000001s26.693100000000005 8.849820000000001 59.62057500000001 8.849820000000001Z" stroke-width="0.5"></path><path id="vector_25" stroke="#120071" stroke-linecap="round" stroke-linejoin="round" d="M89.56851750000001 77.33617500000001h20.127555" stroke-width="0.5"></path><path id="vector_26" stroke="#120071" stroke-linecap="round" stroke-linejoin="round" d="M89.56851750000001 106.5978375h20.127555" stroke-width="0.5"></path><path id="vector_27" stroke="#120071" stroke-linecap="round" stroke-linejoin="round" d="M99.63229500000001 77.33617500000001v29.261662500000003" stroke-width="0.5"></path></g><g id="elements"><g id="group_2"><path id="vector_28" stroke="#120071" stroke-linecap="round" stroke-linejoin="round" d="M156.457875 144.34323750000001h11.809402500000001" stroke-width="0.5"></path><path id="vector_29" stroke="#120071" stroke-linecap="round" stroke-linejoin="round" d="M162.363075 150.2484375v-11.810400000000001" stroke-width="0.5"></path></g><g id="group_3"><path id="vector_30" stroke="#120071" stroke-linecap="round" stroke-linejoin="round" d="m19.3804275 32.992312500000004 8.35107 8.35107" stroke-width="0.5"></path><path id="vector_31" stroke="#120071" stroke-linecap="round" stroke-linejoin="round" d="m19.3804275 41.343382500000004 8.35107 -8.35107" stroke-width="0.5"></path></g><g id="group_4"><path id="vector_32" stroke="#120071" stroke-linecap="round" stroke-linejoin="round" d="m181.84923750000002 182.47866000000002 4.259325 4.259325" stroke-width="0.5"></path><path id="vector_33" stroke="#120071" stroke-linecap="round" stroke-linejoin="round" d="m181.84923750000002 186.737985 4.259325 -4.259325" stroke-width="0.5"></path></g><path id="vector_34" stroke="#120071" stroke-linecap="round" stroke-linejoin="round" d="m149.176125 40.14239250000001 3.6518475 6.022905000000001 4.293240000000001 -8.99745" stroke-width="0.5"></path><g id="group_5"><path id="vector_35" stroke="#120071" stroke-linecap="round" stroke-linejoin="round" d="M13.468245000000001 183.7225425h6.441855" stroke-width="0.5"></path><path id="vector_36" stroke="#120071" stroke-linecap="round" stroke-linejoin="round" d="M16.6891725 186.94347000000002v-6.441855" stroke-width="0.5"></path></g></g></g></svg>