<svg width="622" height="380" viewBox="0 0 622 380" fill="none" xmlns="http://www.w3.org/2000/svg">
<path fill-rule="evenodd" clip-rule="evenodd" d="M436.856 317.101C293.731 430.201 293.76 549.089 308.834 591.034L285.402 599.452C266.222 546.083 271.103 416.371 421.418 297.589C565.115 184.037 597.827 47.5763 596.81 -4.07658L621.702 -4.57634C622.874 54.9335 586.601 198.769 436.856 317.101Z" fill="url(#paint0_linear_8_418)"/>
<path fill-rule="evenodd" clip-rule="evenodd" d="M400.005 295.314C256.52 408.699 256.304 528.128 271.583 570.644L250.495 578.22C231.52 525.422 236.155 396.252 386.111 277.754C530.111 163.963 563 27.1333 561.976 -24.9125L584.378 -25.3623C585.542 33.7547 549.448 177.222 400.005 295.314Z" fill="url(#paint1_linear_8_418)"/>
<path fill-rule="evenodd" clip-rule="evenodd" d="M363.927 274.505C220.441 387.89 220.225 507.319 235.505 549.835L214.416 557.411C195.441 504.613 200.076 375.443 350.033 256.944C494.032 143.153 526.922 6.32381 525.897 -45.722L548.3 -46.1718C549.463 12.9452 513.369 156.412 363.927 274.505Z" fill="url(#paint2_linear_8_418)"/>
<path fill-rule="evenodd" clip-rule="evenodd" d="M327.076 252.719C183.232 366.388 182.77 486.359 198.255 529.446L179.509 536.18C160.74 483.953 165.129 355.324 314.726 237.11C459.028 123.08 492.095 -14.1179 491.063 -66.5566L510.977 -66.9564C512.133 -8.23232 476.216 134.866 327.076 252.719Z" fill="url(#paint3_linear_8_418)"/>
<path fill-rule="evenodd" clip-rule="evenodd" d="M290.998 231.91C147.153 345.579 146.691 465.549 162.176 508.637L143.43 515.371C124.661 463.144 129.05 334.515 278.647 216.301C422.949 102.271 456.017 -34.9274 454.984 -87.3661L474.898 -87.7659C476.054 -29.0418 440.138 114.057 290.998 231.91Z" fill="url(#paint4_linear_8_418)"/>
<path fill-rule="evenodd" clip-rule="evenodd" d="M254.147 210.125C109.943 324.078 109.235 444.589 124.925 488.248L108.523 494.14C89.959 442.485 94.1031 314.397 243.341 196.467C387.945 82.1977 421.19 -55.3691 420.15 -108.201L437.575 -108.55C438.723 -50.2191 402.985 92.5104 254.147 210.125Z" fill="url(#paint5_linear_8_418)"/>
<path fill-rule="evenodd" clip-rule="evenodd" d="M218.069 189.315C73.8643 303.268 73.1568 423.78 88.8471 467.438L72.4447 473.331C53.8805 421.675 58.0247 293.587 207.262 175.657C351.866 61.3881 385.112 -76.1787 384.072 -129.01L401.496 -129.36C402.644 -71.0287 366.906 71.7008 218.069 189.315Z" fill="url(#paint6_linear_8_418)"/>
<path fill-rule="evenodd" clip-rule="evenodd" d="M181.218 167.529C36.6538 281.766 35.7008 402.818 51.5964 447.048L37.5372 452.099C19.1783 401.015 23.0769 273.468 171.955 155.822C316.861 41.3138 350.285 -96.6218 349.237 -149.846L364.172 -150.146C365.313 -92.2075 329.753 50.1532 181.218 167.529Z" fill="url(#paint7_linear_8_418)"/>
<path fill-rule="evenodd" clip-rule="evenodd" d="M145.139 146.719C0.575063 260.956 -0.377875 382.009 15.5177 426.239L1.45846 431.289C-16.9004 380.205 -13.0018 252.658 135.876 135.012C280.783 20.5043 314.206 -117.431 313.159 -170.656L328.094 -170.955C329.234 -113.017 293.674 29.3437 145.139 146.719Z" fill="url(#paint8_linear_8_418)"/>
<path fill-rule="evenodd" clip-rule="evenodd" d="M108.289 124.934C-36.6348 239.455 -37.8332 361.049 -21.7324 405.85L-33.4484 410.059C-51.602 359.546 -47.9488 232.54 100.57 115.178C245.778 0.431344 279.38 -137.873 278.325 -191.49L290.771 -191.74C291.904 -134.195 256.521 7.79755 108.289 124.934Z" fill="url(#paint9_linear_8_418)"/>
<path fill-rule="evenodd" clip-rule="evenodd" d="M35.3592 82.3395C-109.924 197.145 -111.368 319.28 -95.0615 364.652L-104.434 368.019C-122.383 318.077 -118.975 191.613 29.184 74.5347C174.695 -40.4511 208.475 -179.124 207.412 -233.134L217.369 -233.334C218.494 -176.181 183.29 -34.5581 35.3592 82.3395Z" fill="url(#paint10_linear_8_418)"/>
<path fill-rule="evenodd" clip-rule="evenodd" d="M-37.5703 39.7433C-183.213 154.833 -184.902 277.509 -168.391 323.452L-175.42 325.978C-193.163 276.607 -190.001 150.684 -42.2016 33.8898C103.612 -81.335 137.57 -220.377 136.499 -274.78L143.967 -274.93C145.084 -218.17 110.058 -76.9152 -37.5703 39.7433Z" fill="url(#paint11_linear_8_418)"/>
<path fill-rule="evenodd" clip-rule="evenodd" d="M-110.499 -2.85137C-256.501 112.522 -258.436 235.739 -241.719 282.254L-246.406 283.938C-263.944 235.138 -261.027 109.756 -113.587 -6.75369C32.5292 -122.217 66.6651 -261.628 65.5864 -316.424L70.5648 -316.524C71.6744 -260.157 36.8264 -119.271 -110.499 -2.85137Z" fill="url(#paint12_linear_8_418)"/>
<path fill-rule="evenodd" clip-rule="evenodd" d="M72.2098 104.125C-72.7136 218.646 -72.2955 358.221 -56.1947 403.022L-67.9107 407.231C-86.0643 356.718 -84.0276 211.731 64.4908 94.3687C209.7 -20.3782 243.302 -158.683 242.246 -212.3L254.692 -212.55C255.825 -155.004 220.443 -13.0119 72.2098 104.125Z" fill="url(#paint13_linear_8_418)"/>
<path fill-rule="evenodd" clip-rule="evenodd" d="M-0.719237 61.5299C-146.002 176.335 -147.446 298.47 -131.14 343.842L-140.513 347.209C-158.461 297.267 -155.053 170.803 -6.89441 53.7251C138.617 -61.2607 172.397 -199.934 171.333 -253.944L181.29 -254.144C182.415 -196.991 147.211 -55.3677 -0.719237 61.5299Z" fill="url(#paint14_linear_8_418)"/>
<path fill-rule="evenodd" clip-rule="evenodd" d="M-73.649 18.9338C-219.291 134.023 -220.981 256.699 -204.469 302.643L-211.499 305.168C-229.242 255.797 -226.08 129.874 -78.2804 13.0803C67.5333 -102.144 101.491 -241.186 100.42 -295.589L107.888 -295.739C109.005 -238.979 73.9791 -97.7248 -73.649 18.9338Z" fill="url(#paint15_linear_8_418)"/>
<path fill-rule="evenodd" clip-rule="evenodd" d="M-146.577 -23.6626C-292.578 91.7109 -294.513 214.928 -277.797 261.443L-282.483 263.126C-300.021 214.327 -297.104 88.9449 -149.664 -27.565C-3.54814 -143.029 30.5877 -282.439 29.5091 -337.235L34.4875 -337.335C35.5971 -280.968 0.749022 -140.082 -146.577 -23.6626Z" fill="url(#paint16_linear_8_418)"/>
<defs>
<linearGradient id="paint0_linear_8_418" x1="435.018" y1="271.706" x2="-167.817" y2="-22.1897" gradientUnits="userSpaceOnUse">
<stop stop-color="#6C1DEC"/>
<stop offset="0.446179" stop-color="#62DAFC"/>
<stop offset="0.810777" stop-color="#0EE094"/>
<stop offset="1" stop-color="#0EE094"/>
</linearGradient>
<linearGradient id="paint1_linear_8_418" x1="435.018" y1="271.706" x2="-167.817" y2="-22.1897" gradientUnits="userSpaceOnUse">
<stop stop-color="#6C1DEC"/>
<stop offset="0.446179" stop-color="#62DAFC"/>
<stop offset="0.810777" stop-color="#0EE094"/>
<stop offset="1" stop-color="#0EE094"/>
</linearGradient>
<linearGradient id="paint2_linear_8_418" x1="435.018" y1="271.706" x2="-167.817" y2="-22.1897" gradientUnits="userSpaceOnUse">
<stop stop-color="#6C1DEC"/>
<stop offset="0.446179" stop-color="#62DAFC"/>
<stop offset="0.810777" stop-color="#0EE094"/>
<stop offset="1" stop-color="#0EE094"/>
</linearGradient>
<linearGradient id="paint3_linear_8_418" x1="435.018" y1="271.706" x2="-167.817" y2="-22.1897" gradientUnits="userSpaceOnUse">
<stop stop-color="#6C1DEC"/>
<stop offset="0.446179" stop-color="#62DAFC"/>
<stop offset="0.810777" stop-color="#0EE094"/>
<stop offset="1" stop-color="#0EE094"/>
</linearGradient>
<linearGradient id="paint4_linear_8_418" x1="435.018" y1="271.706" x2="-167.817" y2="-22.1897" gradientUnits="userSpaceOnUse">
<stop stop-color="#6C1DEC"/>
<stop offset="0.446179" stop-color="#62DAFC"/>
<stop offset="0.810777" stop-color="#0EE094"/>
<stop offset="1" stop-color="#0EE094"/>
</linearGradient>
<linearGradient id="paint5_linear_8_418" x1="435.018" y1="271.706" x2="-167.817" y2="-22.1897" gradientUnits="userSpaceOnUse">
<stop stop-color="#6C1DEC"/>
<stop offset="0.446179" stop-color="#62DAFC"/>
<stop offset="0.810777" stop-color="#0EE094"/>
<stop offset="1" stop-color="#0EE094"/>
</linearGradient>
<linearGradient id="paint6_linear_8_418" x1="435.018" y1="271.706" x2="-167.817" y2="-22.1897" gradientUnits="userSpaceOnUse">
<stop stop-color="#6C1DEC"/>
<stop offset="0.446179" stop-color="#62DAFC"/>
<stop offset="0.810777" stop-color="#0EE094"/>
<stop offset="1" stop-color="#0EE094"/>
</linearGradient>
<linearGradient id="paint7_linear_8_418" x1="435.018" y1="271.706" x2="-167.817" y2="-22.1897" gradientUnits="userSpaceOnUse">
<stop stop-color="#6C1DEC"/>
<stop offset="0.446179" stop-color="#62DAFC"/>
<stop offset="0.810777" stop-color="#0EE094"/>
<stop offset="1" stop-color="#0EE094"/>
</linearGradient>
<linearGradient id="paint8_linear_8_418" x1="435.018" y1="271.706" x2="-167.817" y2="-22.1897" gradientUnits="userSpaceOnUse">
<stop stop-color="#6C1DEC"/>
<stop offset="0.446179" stop-color="#62DAFC"/>
<stop offset="0.810777" stop-color="#0EE094"/>
<stop offset="1" stop-color="#0EE094"/>
</linearGradient>
<linearGradient id="paint9_linear_8_418" x1="435.018" y1="271.706" x2="-167.817" y2="-22.1897" gradientUnits="userSpaceOnUse">
<stop stop-color="#6C1DEC"/>
<stop offset="0.446179" stop-color="#62DAFC"/>
<stop offset="0.810777" stop-color="#0EE094"/>
<stop offset="1" stop-color="#0EE094"/>
</linearGradient>
<linearGradient id="paint10_linear_8_418" x1="435.018" y1="271.706" x2="-167.817" y2="-22.1897" gradientUnits="userSpaceOnUse">
<stop stop-color="#6C1DEC"/>
<stop offset="0.446179" stop-color="#62DAFC"/>
<stop offset="0.810777" stop-color="#0EE094"/>
<stop offset="1" stop-color="#0EE094"/>
</linearGradient>
<linearGradient id="paint11_linear_8_418" x1="435.018" y1="271.706" x2="-167.817" y2="-22.1897" gradientUnits="userSpaceOnUse">
<stop stop-color="#6C1DEC"/>
<stop offset="0.446179" stop-color="#62DAFC"/>
<stop offset="0.810777" stop-color="#0EE094"/>
<stop offset="1" stop-color="#0EE094"/>
</linearGradient>
<linearGradient id="paint12_linear_8_418" x1="435.018" y1="271.706" x2="-167.817" y2="-22.1897" gradientUnits="userSpaceOnUse">
<stop stop-color="#6C1DEC"/>
<stop offset="0.446179" stop-color="#62DAFC"/>
<stop offset="0.810777" stop-color="#0EE094"/>
<stop offset="1" stop-color="#0EE094"/>
</linearGradient>
<linearGradient id="paint13_linear_8_418" x1="435.018" y1="271.706" x2="-167.817" y2="-22.1897" gradientUnits="userSpaceOnUse">
<stop stop-color="#6C1DEC"/>
<stop offset="0.446179" stop-color="#62DAFC"/>
<stop offset="0.810777" stop-color="#0EE094"/>
<stop offset="1" stop-color="#0EE094"/>
</linearGradient>
<linearGradient id="paint14_linear_8_418" x1="435.018" y1="271.706" x2="-167.817" y2="-22.1897" gradientUnits="userSpaceOnUse">
<stop stop-color="#6C1DEC"/>
<stop offset="0.446179" stop-color="#62DAFC"/>
<stop offset="0.810777" stop-color="#0EE094"/>
<stop offset="1" stop-color="#0EE094"/>
</linearGradient>
<linearGradient id="paint15_linear_8_418" x1="435.018" y1="271.706" x2="-167.817" y2="-22.1897" gradientUnits="userSpaceOnUse">
<stop stop-color="#6C1DEC"/>
<stop offset="0.446179" stop-color="#62DAFC"/>
<stop offset="0.810777" stop-color="#0EE094"/>
<stop offset="1" stop-color="#0EE094"/>
</linearGradient>
<linearGradient id="paint16_linear_8_418" x1="435.018" y1="271.706" x2="-167.817" y2="-22.1897" gradientUnits="userSpaceOnUse">
<stop stop-color="#6C1DEC"/>
<stop offset="0.446179" stop-color="#62DAFC"/>
<stop offset="0.810777" stop-color="#0EE094"/>
<stop offset="1" stop-color="#0EE094"/>
</linearGradient>
</defs>
</svg>
