<svg viewBox="0 0 373 357" xmlns="http://www.w3.org/2000/svg" fill-rule="evenodd" clip-rule="evenodd" stroke-miterlimit="10"><path d="M159.074 37.793c19.648-3.037 84.48-13.053 132.513 29.879 49.24 44.007 51.677 117.593 31.057 164.538-26.736 60.867-99.911 94.408-173.638 74.836-60.358-16.025-123.512-68.292-131.743-130.282C6.48 95.572 96.515 47.463 159.074 37.797v-.004z" fill="#f0edf9" fill-rule="nonzero" stroke="#fff" stroke-width=".75"/><path d="M63.275 100.57c-10.454 22.492-9.542 48.931 2.042 70.849 3.195 6.048 7.327 11.658 12.047 16.604 2.869 3.002 8.355 3.105 11.203 0 2.959-3.225 3.058-8 0-11.203a68.553 68.553 0 0 1-3.349-3.76c-.265-.326-.531-.651-.788-.981.595.78.625.814.09.107-.488-.681-.985-1.353-1.46-2.042a68.496 68.496 0 0 1-5.058-8.677c-.369-.754-.707-1.52-1.062-2.278-.356-.818-.339-.767.056.158a71.816 71.816 0 0 1-2.15-5.91 73.157 73.157 0 0 1-2.36-9.789c-.068-.399-.591-3.153-.175-1.011-.159-.814-.198-1.679-.27-2.505a69.85 69.85 0 0 1-.283-5.032c-.073-3.366.128-6.702.48-10.047.115-.912.103-.831-.035.235a67.936 67.936 0 0 1 1.829-8.595 65.595 65.595 0 0 1 2.458-7.13c-.766 1.889.317-.655.471-.989 1.743-3.752 1.182-8.715-2.844-10.839-3.498-1.85-8.976-1.169-10.839 2.843l-.003-.008z" fill="#fff" fill-rule="nonzero"/><path d="M76.212 112.008c6.385.074 12.586-1.58 18.153-4.689 3.914-2.188 5.546-7.884 3.075-11.717-2.552-3.961-7.533-5.413-11.717-3.074-.441.248-.89.479-1.34.723-.66.356-.827.386-.034.069-1.058.423-2.15.771-3.255 1.053-.493.124-.985.236-1.486.334-.193.038-1.756.215-.741.133 1.015-.081-.578.004-.754.013-.633.03-1.263.03-1.901.021-4.48-.051-8.77 3.975-8.565 8.565.206 4.591 3.764 8.51 8.565 8.565v.004z" fill="#fff" fill-rule="nonzero"/><path d="M84.425 108.878c8.454-.591 16.523-2.809 24.706-4.827 1.958-.483 3.923-.942 5.902-1.332a92.335 92.335 0 0 1 2.389-.436c.531-.09 1.062-.171 1.598-.248-.942.128-.904.128.124.008 1.872-.146 3.726-.299 5.606-.274 1.066.013 2.124.094 3.19.167 1.023.111 1.058.111.103 0 .527.086 1.053.184 1.576.3 4.381.886 9.46-1.259 10.535-5.983.972-4.265-1.285-9.588-5.983-10.535-9.16-1.85-18.209-.835-27.245 1.255-3.923.908-7.807 1.987-11.725 2.921-1.953.466-3.919.899-5.893 1.259-.326.06-3.563.526-1.688.299a61.052 61.052 0 0 1-3.195.296c-4.458.312-8.783 3.717-8.565 8.565.198 4.372 3.778 8.899 8.565 8.565z" fill="#fff" fill-rule="nonzero"/><path d="M116.052 97.898l-2.904 1.246c-1.691.724.998-.398-.869.364a208.32 208.32 0 0 1-5.139 2.056c-3.191 1.212-6.432 2.316-9.734 3.181a67.93 67.93 0 0 1-4.989 1.118c-.386.073-.775.141-1.165.201 1.002-.115.989-.115-.03 0-.775.056-1.546.06-2.321.103-1.02-.073-1.023-.038-.013.095a9.09 9.09 0 0 1-1.122-.262c-.685-.214-.506-.107.54.313a9.007 9.007 0 0 1-1.071-.596c.818.686.998.818.531.399a6.605 6.605 0 0 1-.634-.651c.711.95.831 1.032.356.239.458 1.14.569 1.251.333.339-1.49-7.319-12.179-8.201-15.652-2.047-9.524 16.869-9.657 37.844-.557 54.906 2.112 3.957 7.936 5.512 11.718 3.075 4.025-2.595 5.331-7.486 3.074-11.717-.432-.814-.835-1.636-1.242-2.463-.407-.826-.236-.513.034.155a73.981 73.981 0 0 1-.505-1.281 48.239 48.239 0 0 1-1.713-5.597 48.942 48.942 0 0 1-.565-2.698c-.082-.454-.146-.908-.223-1.362-.214-1.25.116 1.49.043.227-.115-1.957-.304-3.889-.278-5.854.021-1.679-.15-3.897.372-5.503-.201.616-.201 1.267-.008.231.085-.454.158-.904.248-1.358.175-.903.381-1.798.608-2.689.488-1.901 1.157-3.717 1.808-5.567.411-1.173-.613 1.259-.06.141.201-.411.381-.835.582-1.251a50.28 50.28 0 0 1 1.452-2.745L71.304 110.6c1.148 5.64 5.773 9.691 10.959 11.613 5.186 1.923 10.754.981 15.863-.051 9.246-1.871 17.947-5.76 26.568-9.473 4.133-1.777 5.366-8.158 3.075-11.716-2.766-4.292-7.298-4.977-11.717-3.075z" fill="#fff" fill-rule="nonzero"/><path d="M72.752 166.979c.646.633 1.242 1.297 1.854 1.961 1.516 1.645-1.088-1.747.102.145.403.639 2.557 3.333 2.343 4.099-.535-1.324-.603-1.486-.21-.484l.231.634c.296.848.553 1.713.767 2.587.073.308.557 1.862.403 1.982-.184-1.507-.214-1.708-.099-.608.039.45.069.9.081 1.349.33 6.852 6 10.616 12.467 9.499 17.545-3.037 34.483-8.81 50.413-16.749 4.621-2.304 6.283-9.212 3.534-13.477-3.05-4.728-8.535-5.995-13.477-3.533a179.755 179.755 0 0 1-5.636 2.698c-.947.432-1.902.843-2.853 1.272-1.023.437-.954.415.198-.073-.48.201-.964.398-1.443.595a174.313 174.313 0 0 1-11.73 4.296 174.957 174.957 0 0 1-24.24 5.982l12.467 9.499c-.467-9.666-4.3-18.787-11.246-25.597-3.683-3.61-10.308-3.948-13.931 0-3.623 3.948-3.931 10.077 0 13.931l.005-.008z" fill="#fff" fill-rule="nonzero"/><path d="M131.37 177.372l53.438-17.884c3.884-1.302 7.55-5.07 7.233-9.498l-1.923-26.761c-.369-5.126-4.266-10.099-9.85-9.85-5.019.227-10.244 4.346-9.85 9.85l1.923 26.761 7.233-9.498-53.437 17.883c-4.878 1.632-8.577 6.865-6.877 12.115 1.571 4.853 6.886 8.63 12.115 6.878l-.005.004z" fill="#fff" fill-rule="nonzero"/><path d="M152.792 115.293c-.356.313-.716.617-1.071.929-1.734 1.53 1.139-.771.042 0-.774.544-1.537 1.101-2.337 1.611-1.803 1.156-3.688 2.106-5.624 3.019-1.225.578 1.675-.595.386-.18-.45.146-.887.334-1.332.488-1.006.347-2.025.66-3.054.934-.916.239-1.836.449-2.766.629-.141.026-2.415.356-.792.163 1.623-.193-.677.056-.805.068-5.114.48-10.103 4.185-9.85 9.85.218 4.925 4.355 10.368 9.85 9.85 11.794-1.109 22.393-5.558 31.288-13.426 3.871-3.426 3.756-10.483 0-13.93-4.128-3.791-9.798-3.654-13.932 0l-.003-.005z" fill="#fff" fill-rule="nonzero"/><path d="M163.318 127.46l-28.064 6.231c-5.036 1.118-8.462 7.233-6.877 12.115 1.713 5.289 6.719 8.077 12.115 6.878l28.063-6.231c5.036-1.118 8.462-7.233 6.878-12.116-1.713-5.288-6.719-8.077-12.115-6.877z" fill="#fff" fill-rule="nonzero"/><path d="M126.904 138.145l-31.58 4.449 12.467 9.499c-.128-6.947-.613-13.991-.313-20.933.112-2.561-.556 1.469-.013-.415l.15-.651c.33-1.024.219-.861-.325.479.137-.304.3-.599.479-.878.42-.66.206-.402-.642.771a8.75 8.75 0 0 1 .827-.818l-1.08.831c-.205-.047 2.947-1.088.887-.617-1.645.377.445-.119.801-.227 1.289-.385 2.599-.612 3.918-.839 2.185-.377-2.368.201-.192.034.569-.043 1.147-.064 1.713-.116 1.083.056.762.013-.96-.132l-4.179-3.242c-.39-.578-.84-4.099-.848-1.867-.065.715-.022.39.128-.972-.081.45-.18.894-.291 1.336-.167.668-.394 1.31-.604 1.961-.664 2.09 1.032-1.717-.107.154a41.841 41.841 0 0 0-1.037 1.773c-.976 1.816 1.212-1.186-.102.197-.552.582-1.075 1.173-1.671 1.718-1.824 1.666 1.23-.575-.432.355-.6.334-1.156.728-1.769 1.045a14.8 14.8 0 0 1-.92.454c-.668.308-.411.197.775-.334-.236-.069-1.696.544-1.962.617-.312.081-1.683.603-2.013.419 1.491-.188 1.68-.231.579-.137-.459.026-.912.034-1.371.026-5.151.008-10.089 4.526-9.849 9.85.24 5.323 4.329 9.858 9.849 9.849 8.06-.012 16.094-3.156 21.786-8.92 5.793-5.863 9.987-15.147 8.363-23.486-1.182-6.063-6.368-9.652-12.239-10.273-3.272-.343-6.826.39-10.017 1.079-7.944 1.718-15.186 7.306-16.701 15.653-.793 4.368-.639 8.667-.558 13.074l.24 13.177c.056 3.144 1.418 5.833 3.88 7.735 2.69 2.077 5.332 2.222 8.587 1.764l31.579-4.45c2.265-.321 4.792-2.655 5.889-4.526 1.233-2.111 1.759-5.225.993-7.589-.767-2.364-2.248-4.68-4.527-5.888-2.505-1.324-4.809-1.384-7.588-.994v.005zM317.981 218.677c-14.865 19.318-23.623 42.439-26.612 66.533-.295 2.372 1.336 5.507 2.946 7.118 1.748 1.746 4.608 3.061 7.118 2.946 2.509-.116 5.301-.972 7.117-2.946 1.928-2.099 2.6-4.313 2.947-7.118.312-2.522-.356 2.287.025-.223.111-.723.219-1.443.334-2.166a125.607 125.607 0 0 1 2.523-11.79c1.404-5.307 3.182-10.488 5.237-15.576.715-1.773-.54 1.195-.017.047.304-.664.587-1.336.891-2.004a124.399 124.399 0 0 1 5.511-10.719 126.707 126.707 0 0 1 9.353-13.948c1.478-1.919 1.623-5.546 1.015-7.756-.642-2.334-2.449-4.865-4.624-6.012-2.334-1.234-5.166-1.855-7.756-1.015-2.664.86-4.322 2.428-6.013 4.624l.005.005zM294.949 168.641c-6.449-1.375-13.46-2.489-19.858-.219-8.128 2.882-12.937 9.255-15.67 17.199-1.833 5.322-2.873 11.035-3.729 16.586-1.033 6.68-1.756 13.391-1.945 20.153-.176 6.385 5.739 12.497 12.205 12.205 6.467-.291 12.017-5.362 12.205-12.205.133-4.856.518-9.691 1.161-14.505l-.437 3.246c.801-5.76 1.888-11.515 3.495-17.113.295-1.027.814-2.068 1.036-3.108-.582 2.715-.801 1.768-.133.569l.325-.553c.699-1.045.433-.736-.8.926.389-.24.788-.806 1.105-1.131.997-1.032-2.313 1.734-.6.591.87-.424.78-.399-.266.081-1.062.429-1.138.492-.226.193.646-.085 1.288-.274 1.936-.364l-3.247.437c1.829-.176 3.619-.09 5.439.124l-3.246-.437a68.76 68.76 0 0 1 4.753.861c6.227 1.328 13.491-1.842 15.015-8.527 1.396-6.136-1.846-13.588-8.526-15.014l.008.005z" fill="#fff" fill-rule="nonzero"/><path d="M258.941 185.256c-11.754 24.141-20.281 49.754-24.791 76.238-.847 4.976.189 9.597 4.373 12.83 3.854 2.98 9.271 3.434 13.554.955 23.4-13.554 40.885-36.787 47.9-62.868 2.026-7.536 3.148-15.408 3.409-23.206.218-6.389-5.769-12.492-12.206-12.206-6.796.305-11.974 5.362-12.205 12.206a90.726 90.726 0 0 1-.749 8.959l.437-3.246a91.034 91.034 0 0 1-5.101 19.854c-.304.8-.659 1.584-.95 2.389 1.37-3.781.338-.818-.052.03a93.944 93.944 0 0 1-10.111 17.135c-1.94 2.607 1.289-1.56-.052.076-.543.664-1.078 1.332-1.631 1.988a92.226 92.226 0 0 1-6.586 7.023 88.152 88.152 0 0 1-3.807 3.447c-.651.557-1.311 1.101-1.975 1.641-2.531 2.038 1.645-1.182-.064.06-2.779 2.016-5.61 3.922-8.582 5.643l17.931 13.786a271.646 271.646 0 0 1 9.027-37.129 270.603 270.603 0 0 1 7.276-20.004c.197-.484 1.508-2.706.446-1.092-1.063 1.614.265-.617.466-1.079a277.176 277.176 0 0 1 5.114-11.101c1.451-2.984 2.137-6.111 1.228-9.404-.779-2.83-2.967-5.901-5.61-7.293-5.481-2.895-13.716-1.751-16.697 4.377l.008-.009z" fill="#fff" fill-rule="nonzero"/><path d="M283.973 183.633a63.702 63.702 0 0 1 3.816 3.91 55.918 55.918 0 0 1 1.554 1.816c1.863 2.261-1.379-1.957-.012-.051 1.995 2.787 3.837 5.64 5.408 8.689.415.809.818 1.627 1.195 2.458.42.912.81 2.83-.141-.411.51 1.734 1.306 3.404 1.845 5.143a63.162 63.162 0 0 1 2.206 9.991l-.437-3.246c.115.904.214 1.808.3 2.715.569 6.107 4.214 11.13 10.582 11.987 6.308.848 11.259-2.964 13.392-8.741l1.956-5.302c1.782-4.83-1.143-11.425-5.61-13.785-4.723-2.496-10.959-2.128-14.791 1.91l-13.867 14.603 20.397 5.388-1.678-6.274c-1.576-5.884-7.486-9.537-13.392-8.741-2.561.343-5.207 1.397-7.006 3.358-2.33 2.539-3.169 5.229-3.576 8.629l-.077.638.437-3.246c-.231 1.486-.732 2.827-1.109 4.265.745-2.848.942-2.047.488-1.186-.197.373-.373.754-.569 1.127a33.368 33.368 0 0 1-1.29 2.192 48.727 48.727 0 0 1-1.267 1.871c-.253.356-.518.699-.767 1.054-.753 1.07 1.007-1.319.912-1.169-.912 1.469-2.235 2.784-3.323 4.124-2.634 3.251-5.319 6.527-7.468 10.128-2.257 3.777-3.983 7.91-5.52 12.021-2.634 7.058-4.172 14.45-6.146 21.704a116.852 116.852 0 0 1-3.336 10.359c-.724 1.94.236-.672.377-.843-.244.295-.467 1.053-.612 1.362a56.978 56.978 0 0 1-1.157 2.337 42.851 42.851 0 0 1-2.737 4.545c-.218.312-.483.77-.762 1.053.54-.552 1.756-2.184.484-.69a34.72 34.72 0 0 1-3.661 3.714c-.377.325-1.581 1.267-.018.076 1.739-1.327-.042.009-.321.202-1.425.98-2.937 1.708-4.458 2.509 3.341-1.755.754-.364-.368-.051a24.9 24.9 0 0 1-2.801.595l3.247-.436c-.639.081-1.272.145-1.915.188l11.768 15.451 10.034-40.354c1.538-6.184-1.987-13.524-8.526-15.014-6.54-1.491-13.366 1.896-15.015 8.526l-10.034 40.354c-1.794 7.22 3.606 16.013 11.769 15.451 9.721-.672 18.371-4.754 25.335-11.558 6.963-6.805 10.916-14.985 13.948-23.734 2.672-7.709 4.201-15.746 6.544-23.554a88.13 88.13 0 0 1 1.902-5.7c.175-.466.368-.929.539-1.396.45-1.259-.548 1.251-.514 1.191.569-1.101 1.023-2.27 1.589-3.375a46.351 46.351 0 0 1 2.83-4.775c.488-.719 1.011-1.417 1.521-2.119.89-1.221-1.654 2.085-.703.907.348-.428.686-.865 1.032-1.293 2.981-3.696 6.12-7.323 8.681-11.336 3.195-5.006 4.758-10.282 5.452-16.115l-23.973 3.246 1.678 6.274c2.334 8.72 14.06 12.064 20.398 5.387l13.867-14.603-20.398-11.875-1.958 5.301 23.974 3.246c-1.7-18.294-9.43-35.561-22.881-48.272-4.642-4.389-12.715-4.95-17.263 0-4.368 4.758-4.955 12.578 0 17.263v-.013z" fill="#fff" fill-rule="nonzero"/><path d="M240.934 261.502c-4.154-.12-8.291-.433-12.415-.964l3.246.437c-5.91-.805-11.755-2.043-17.443-3.858a89.716 89.716 0 0 1-4.034-1.396c-.608-.227-1.207-.471-1.811-.698-2.42-.909 2.231 1.014.047.025a102.831 102.831 0 0 1-7.82-3.922c-4.972-2.788-9.704-5.991-14.286-9.379a281.67 281.67 0 0 1-1.833-1.37c-.351-.266-2.081-1.722-.583-.438 1.499 1.285-.552-.432-.874-.684-.501-.395-.997-.789-1.498-1.182a717.834 717.834 0 0 1-7.122-5.748l-11.876 20.398 69.792 17.785c6.18 1.576 13.533-2.012 15.015-8.526 1.482-6.514-1.906-13.328-8.526-15.015l-69.792-17.785c-5.058-1.289-11.246.805-13.786 5.61a14.488 14.488 0 0 0-1.666 6.158c-.124 2.737 1.388 6.852 3.576 8.629 11.572 9.413 23.297 19.152 36.864 25.584 14.719 6.977 30.569 10.278 46.82 10.745 6.39.18 12.497-5.743 12.206-12.205-.305-6.767-5.362-12.008-12.206-12.206l.005.005z" fill="#fff" fill-rule="nonzero"/><path d="M236.318 237.524l-5.139 10.659c-1.444 2.998-2.142 6.103-1.23 9.405.78 2.831 2.968 5.901 5.61 7.293 5.46 2.886 13.739 1.76 16.698-4.377l5.139-10.659c1.443-2.997 2.141-6.102 1.229-9.405-.779-2.83-2.968-5.901-5.61-7.293-5.46-2.886-13.739-1.76-16.697 4.377z" fill="#fff" fill-rule="nonzero"/><path d="M239.02 262.714l-12.244-2.767c-6.214-1.404-13.503 1.893-15.014 8.527-1.414 6.201 1.862 13.511 8.526 15.014l12.244 2.767c6.213 1.405 13.503-1.893 15.014-8.527 1.414-6.201-1.863-13.511-8.526-15.014zM249.987 116.102l-.445 19.353c-.146 6.385 5.717 12.496 12.205 12.205 6.488-.291 12.047-5.362 12.205-12.205l.445-19.353c.146-6.384-5.717-12.496-12.205-12.204-6.488.291-12.047 5.361-12.205 12.204z" fill="#fff" fill-rule="nonzero"/><path d="M250.415 128.869c-4.539 9.233-3.567 20.988 4.386 28.192 7.596 6.882 19.704 8.393 28.401 2.573 7.349-4.916 11.01-13.19 12.899-21.571 1.473-6.539.985-13.661-4.047-18.658-1.601-1.593-3.469-2.895-5.477-3.906-.596-.3-1.542-1.032-2.176-1.152 1.594 1.34 1.94 1.584 1.045.736 1.914 4.214 2.613 5.315 2.103 3.302-1.392-6.24-8.955-10.483-15.015-8.526-6.548 2.12-10.017 8.329-8.526 15.014 1.045 4.69 4.531 8.514 8.599 10.873.857.497 1.816 1.015 2.732 1.392.784.497.707.399-.227-.291-.886-.75-.993-.81-.325-.184l-1.195-1.452c-.732-1.97-.959-2.338-.689-1.105l-.437-3.246c.068.895.03 1.734-.086 2.625l.437-3.246c-.304 1.713-.779 3.396-1.28 5.062-.245.818-.527 1.619-.793 2.428-.522 1.584.458-.869.527-1.148-.124.485-.45.977-.677 1.414-.286.548-1.854 2.8-.531 1.109 1.726-2.21-2.158 1.683.06.008 2.219-1.674-2.603 1.131.065-.034 1.974-.86-.792.034-1.486.129l3.246-.437c-1.032.085-2.021.06-3.05-.069l3.246.437c-.501-.09-.997-.188-1.49-.334-.449-.133-1.884-.698.035.077 2.308.934-.035.073-.141-.257.149.458 2.513 1.82.869.553-.942-.728 1.378 2.149.809 1.105-.098-.18-.831-1.041-.736-1.26.012-.034 1.019 2.998.573 1.29-.15-.579-.295-1.127-.407-1.713l.437 3.246a13.698 13.698 0 0 1-.025-3.504l-.437 3.246c.235-1.331 1.524-3.819-.154-.406 2.813-5.722 1.734-13.469-4.377-16.697-5.499-2.904-13.691-1.74-16.697 4.376l.012.009z" fill="#fff" fill-rule="nonzero"/><path d="M271.832 161.775l.788 1.975a8.558 8.558 0 0 0 2.03 3.858 8.617 8.617 0 0 0 3.186 2.925 8.436 8.436 0 0 0 4.218 1.345c1.508.338 3.015.27 4.527-.201l2.711-1.144a11.42 11.42 0 0 0 4.073-4.073l1.143-2.71c.54-2.013.54-4.022 0-6.035l-.788-1.974a8.548 8.548 0 0 0-2.03-3.858 8.626 8.626 0 0 0-3.186-2.925 8.436 8.436 0 0 0-4.219-1.345c-1.507-.338-3.015-.269-4.526.202l-2.711 1.143a11.429 11.429 0 0 0-4.073 4.073l-1.143 2.71a11.44 11.44 0 0 0 0 6.034z" fill="#fff" fill-rule="nonzero"/><path d="M273.113 147.181c-1.422 8.565-1.148 17.28 2.016 25.459 1.983 5.127 6.244 8.595 11.983 7.824 5.43-.728 9.302-5.241 9.469-10.723l.115-3.863c.176-5.717-5.148-11.178-10.92-10.92-6.064.27-10.737 4.796-10.92 10.92l-.116 3.863 21.451-2.903a38.77 38.77 0 0 1-1.43-4.386 33.695 33.695 0 0 1-.694-3.392c-.128-.839-.082-.505.141.994-.535-.467-.197-3.876-.179-4.613.016-.642.051-1.28.098-1.923.226-2.92-.33 1.74.043-.531.496-2.98.48-5.712-1.101-8.415-1.328-2.265-3.923-4.423-6.527-5.019-5.272-1.199-12.432 1.602-13.434 7.628h.005zM128.064 232.698l7.452-1.049 2.069-.292.826-.115c.929-.129.552-.078-1.131.154.155.051 1.024-.175 1.105-.034l-1.833-.257c-2.745-.703-3.893-2.835-3.434-6.398-1.987-6.419-1.127-7.19-2.578-3.747-.382.903-.716 1.627-.917 2.565-.612 2.882-.372 5.542.767 8.248 2.291 5.43 8.834 8.933 14.62 6.916 5.383-1.876 9.528-7.563 7.627-13.434-1.721-5.323-7.657-9.64-13.434-7.627l-.463.162h5.808l3.541 2.052 2.81 4.818c.466 1.704.342 3.276-.381 4.723-.343.793-.395.917-.163.381.492-1.165 1.165-2.304 1.438-3.55.707-3.212.574-6.783-1.104-9.696-2.257-3.914-5.889-6.171-10.308-6.762-3.332-.449-6.54.249-9.846.716l-8.278 1.165c-2.51.355-5.31 2.942-6.527 5.019-1.37 2.342-1.948 5.79-1.1 8.415.848 2.625 2.492 5.19 5.019 6.526 2.78 1.469 5.332 1.533 8.415 1.101z" fill="#fff" fill-rule="nonzero"/><path d="M148.094 241.957c5.712 0 11.185-5.024 10.92-10.921-.266-5.896-4.797-10.92-10.92-10.92-5.713 0-11.187 5.024-10.921 10.92.265 5.897 4.797 10.921 10.921 10.921z" fill="#fff" fill-rule="nonzero"/><path d="M151.254 243.537c5.713 0 11.186-5.023 10.92-10.921-.265-5.896-4.796-10.92-10.92-10.92-5.713 0-11.186 5.024-10.921 10.92.266 5.898 4.797 10.921 10.921 10.921z" fill="#fff" fill-rule="nonzero"/><path d="M153.22 232.458l12.723-4.497c5.374-1.897 9.533-7.546 7.627-13.434-1.717-5.302-7.665-9.665-13.434-7.627l-12.723 4.497c-5.375 1.897-9.533 7.545-7.627 13.434 1.717 5.301 7.665 9.666 13.434 7.627z" fill="#fff" fill-rule="nonzero"/><path d="M174.298 222.351l3.16-.787c2.266-.566 4.463-2.334 5.632-4.33a7.006 7.006 0 0 0 1.118-3.503 7.196 7.196 0 0 0-.167-3.756c-.737-2.278-2.15-4.479-4.33-5.631-2.18-1.152-4.728-1.585-7.259-.951l-3.16.788c-2.265.565-4.462 2.334-5.631 4.33a6.998 6.998 0 0 0-1.119 3.502 7.185 7.185 0 0 0 .168 3.756c.736 2.279 2.149 4.48 4.329 5.632 2.18 1.152 4.728 1.584 7.259.95z" fill="#fff" fill-rule="nonzero"/><path d="M184.825 220.017c7.164 0 7.177-11.134 0-11.134-7.178 0-7.178 11.134 0 11.134zM168.286 201.393c-26.325-1.512-53.057 5.683-75.064 20.204-2.506 1.653-3.571 4.921-1.996 7.619 1.456 2.493 5.097 3.662 7.619 1.996a114.222 114.222 0 0 1 69.441-18.684c3.006.171 5.567-2.682 5.567-5.568 0-3.156-2.553-5.396-5.567-5.567z" fill="#fff" fill-rule="nonzero"/><path d="M100.087 232.227l10.646 3.605c2.848.964 6.086-1.108 6.848-3.888.835-3.045-1.032-5.88-3.889-6.848l-10.646-3.605c-2.848-.964-6.086 1.109-6.848 3.888-.835 3.045 1.032 5.88 3.889 6.848z" fill="#fff" fill-rule="nonzero"/><path d="M105.179 235.13c10.941 4.176 23.262 4.476 34.435 1.02 2.873-.887 4.703-3.885 3.889-6.848-.814-2.964-3.966-4.78-6.848-3.889-9.468 2.93-19.267 2.51-28.517-1.019-2.809-1.07-6.107 1.187-6.848 3.889-.86 3.134 1.066 5.773 3.889 6.847zM90.828 230.582c5.511 0 5.52-8.565 0-8.565s-5.52 8.565 0 8.565zM198.722 196.776l10.281 3.122c5.285 1.606 7.546-6.659 2.279-8.261l-10.283-3.121c-5.284-1.607-7.545 6.659-2.277 8.26z" fill="#fff" fill-rule="nonzero"/><path d="M203.064 198.108c2.963 2.334 6.265 4.578 10.248 3.7 3.477-.767 6.265-3.755 6.111-7.417-.338-8.188-12.081-8.985-17.999-8.206-2.291.305-4.283 1.752-4.283 4.283 0 2.077 1.974 4.587 4.283 4.282 2.809-.372 6.706-.676 9.31.664 1.31.677.137.621.158-.766 0-.249.647-1.345.664-1.225.03.172-2.094-1.105-2.437-1.375-1.816-1.43-4.286-1.773-6.055 0-1.486 1.487-1.829 4.617 0 6.056v.004zM134.034 177.762c-.214 3.563.107 7.092.822 10.586.463 2.266 3.143 3.576 5.268 2.99 2.355-.647 3.456-2.994 2.989-5.268-.566-2.753-.685-5.507-.518-8.312.141-2.313-2.069-4.283-4.283-4.283-2.432 0-4.141 1.966-4.282 4.283l.004.004z" fill="#fff" fill-rule="nonzero"/><path d="M140.509 191.492c2.844.278 5.614.968 8.321 1.875 2.193.737 4.681-.848 5.267-2.989.643-2.338-.792-4.526-2.988-5.267-3.453-1.161-6.977-1.824-10.6-2.18-2.304-.227-4.283 2.132-4.283 4.283 0 2.505 1.971 4.055 4.283 4.282v-.004z" fill="#fff" fill-rule="nonzero"/><path d="M136.051 185.458l-6.295 2.325c-2.095.775-3.748 2.938-2.989 5.268.663 2.055 3.019 3.82 5.267 2.989l6.295-2.325c2.094-.776 3.747-2.938 2.99-5.268-.664-2.056-3.02-3.82-5.268-2.989z" fill="#fff" fill-rule="nonzero"/><path d="M125.255 191.577l-5.109 2.27c-2.321 1.032-1.165 4.977 1.298 4.788 11.468-.87 22.774-3.084 33.699-6.69 3.126-1.032 1.786-5.995-1.367-4.954-10.488 3.46-21.318 5.67-32.332 6.505l1.297 4.788 5.109-2.27c3.015-1.34.407-5.769-2.595-4.437zM26.466 207.923l3.486-1.43c1.238-.509 2.257-1.73 1.795-3.16-.386-1.195-1.829-2.343-3.161-1.794l-3.486 1.43c-1.238.509-2.257 1.73-1.794 3.16.385 1.195 1.828 2.343 3.16 1.794z" fill="#fff" fill-rule="nonzero"/><path d="M25.82 209.118c3.306 0 3.31-5.139 0-5.139-3.311 0-3.311 5.139 0 5.139zM188.627 294.4c10.424-7.567 24.586-9.404 36.462-4.171l1.297-4.788c-6.607.583-12.886 2.57-18.556 6.03-2.817 1.717-.24 6.167 2.595 4.436 4.869-2.967 10.27-4.821 15.961-5.327 2.236-.197 3.872-3.653 1.298-4.788-13.494-5.948-29.64-4.548-41.647 4.172-2.651 1.923-.09 6.384 2.595 4.436h-.005z" fill="#fff" fill-rule="nonzero"/><path d="M219.059 285.621a171.561 171.561 0 0 0-22.612 2.698c-3.289.613-1.837 5.426 1.366 4.955 2.022-.3 3.285-2.591 2.643-4.514-.643-1.923-2.604-2.702-4.493-2.762-.223 0-.445 0-.664.012-.976-.081-.972.651.018 2.193.308.099 1.113-.188 1.43-.227a58.458 58.458 0 0 1 3.987-.346c2.668-.146 5.332-.095 7.996.093 3.301.237 3.284-4.902 0-5.139-2.93-.209-5.863-.243-8.797-.046-2.308.154-5.288.098-7.361 1.258-1.868 1.046-2.84 3.285-1.713 5.264.483.848 1.379 1.495 2.286 1.811.583.202 1.212.266 1.824.292l.665-.022c1.37.215 1.644-.728.817-2.822l1.367 4.955a161.67 161.67 0 0 1 21.245-2.514c3.289-.172 3.311-5.311 0-5.139h-.004z" fill="#fff" fill-rule="nonzero"/><path d="M207.719 288.477l-6.146 1.049c-1.37.232-2.137 1.919-1.794 3.161.398 1.447 1.786 2.03 3.161 1.795l6.145-1.05c1.37-.231 2.137-1.918 1.794-3.16-.398-1.448-1.786-2.03-3.16-1.795z" fill="#fff" fill-rule="nonzero"/><path d="M209.907 293.612c1.811 3.803-.616 7.679-4.522 8.496l3.16 3.161 3.456-9.357-4.954-1.366-2.167 6.723 5.049.686.231-8.973c.068-2.603-3.499-3.426-4.788-1.297l-3.897 6.436 4.788 1.298.458-4.574c.304-3.031-4.154-3.263-5.049-.684l-3.34 9.644 5.049.685 1.087-9.576c.292-2.565-3.661-3.456-4.787-1.298l-4.48 8.595 4.698.613-3.833-13.764c-.754-2.715-5.242-2.282-5.049.685l.45 6.886c.137 2.073 2.796 3.581 4.385 1.816l1.01-1.118-3.635-3.636c-1.743 2.219-.844 5.637 2.39 5.683 3.018.043 4.488-2.878 4.929-5.421l-5.049-.685.693 5.853c.261 2.223 3.572 3.876 4.788 1.299l1.041-2.202c1.404-2.972-3.024-5.584-4.437-2.595l-1.041 2.201 4.788 1.297-.693-5.853c-.309-2.592-4.506-3.807-5.049-.686-.056.395-.138.784-.231 1.165-.322.527-.202.651.354.369l1.538 1.181.12.518-.754 1.816.248-.312c1.988-2.531-1.37-6.145-3.635-3.636l-1.011 1.118 4.385 1.815-.449-6.886-5.05.685 3.834 13.764c.569 2.052 3.653 2.613 4.698.613l4.479-8.595-4.788-1.298-1.088 9.576c-.342 3.028 4.154 3.259 5.049.685l3.341-9.644-5.049-.685-.459 4.573c-.265 2.66 3.559 3.323 4.788 1.298l3.897-6.437-4.788-1.297-.231 8.972c-.077 2.976 4.18 3.379 5.049.685l2.167-6.723c1.028-3.187-3.824-4.425-4.954-1.367l-3.456 9.357c-.729 1.97 1.413 3.525 3.16 3.161 7.388-1.542 10.745-9.43 7.593-16.042-1.422-2.985-5.854-.381-4.437 2.595v.004zM181.655 297.569l.737.099 1.139-8.411-12.209 1.173c-2.304.223-4.283 1.812-4.283 4.283 0 2.145 1.966 4.505 4.283 4.282l12.209-1.173c2.116-.205 3.94-1.474 4.205-3.713.223-1.88-.933-4.406-3.066-4.698l-.736-.098c-2.287-.313-4.6.552-5.267 2.988-.549 2.001.684 4.956 2.988 5.268z" fill="#fff" fill-rule="nonzero"/><path d="M168.242 297.265c4.134 0 4.142-6.424 0-6.424-4.14 0-4.14 6.424 0 6.424z" fill="#fff" fill-rule="nonzero"/><path d="M168.803 298.216c2.544 1.897 4.039 4.972 5.602 7.64 1.816 3.092 3.812 6.124 6.767 8.243 7.378 5.281 17.961 2.309 25.399-1.272 2.231-1.074 1.949-4.398 0-5.545-6.017-3.551-11.182-8.304-15.126-14.077-2.086-3.053-6.547-1.139-5.871 2.476 1.152 6.149 3.85 11.683 7.7 16.582l4.544-4.545-11.084-11.37c-2.62-2.688-6.68.72-5.044 3.894l5.109 9.905 5.044-3.893-14.77-12.621c-3.126-2.672-7.691 1.851-4.544 4.545l14.771 12.62c2.753 2.351 6.766-.557 5.044-3.893l-5.109-9.906-5.044 3.894 11.083 11.37c2.967 3.045 7.023-1.384 4.544-4.545-3.157-4.017-5.109-8.753-6.047-13.746l-5.871 2.475c4.573 6.69 10.444 12.261 17.43 16.38v-5.545c-5.949 2.865-15.126 5.61-20.257-.051-1.94-2.141-3.208-4.853-4.702-7.307-1.717-2.813-3.67-5.275-6.321-7.254-1.401-1.045-3.576-.219-4.394 1.152-.977 1.627-.231 3.362 1.152 4.394h-.005z" fill="#fff" fill-rule="nonzero"/><path d="M250.595 111.833c-.848 6.27-1.469 12.552-1.73 18.873-.235 5.666-.48 11.481.441 17.104.822 5.028 3.281 9.653 7.649 12.437 5.113 3.258 11.382 3.25 17.22 3.002 4.941-.21 4.968-7.923 0-7.709-4.39.189-9.477.612-13.327-1.948-3.084-2.052-3.996-5.915-4.274-9.401-.792-9.987.115-20.41 1.455-30.311.279-2.06-.496-4.137-2.693-4.741-1.795-.492-4.462.617-4.741 2.694z" fill="#fbceab" fill-rule="nonzero"/><path d="M256.334 115.233c-.9 12.617-.304 25.186 1.507 37.695.416 2.865 4.047 4.436 6.587 3.738 3.075-.844 4.154-3.712 3.738-6.586-1.665-11.52-1.953-23.245-1.122-34.851.206-2.886-2.608-5.353-5.353-5.353-3.071 0-5.147 2.458-5.353 5.353l-.004.004z" fill="#fbceab" fill-rule="nonzero"/><path d="M254.676 134.993c-.484 4.993-.179 9.892.608 14.843.574 3.601 5.367 5.002 8.18 3.328l1.281-.763c6.154-3.662.556-13.293-5.619-9.614l-1.28.762 8.179 3.327c-.625-3.918-.595-7.939-.21-11.883.291-2.998-2.767-5.568-5.567-5.568-3.251 0-5.276 2.562-5.567 5.568h-.005z" fill="#fbceab" fill-rule="nonzero"/><path d="M263.683 115.242l1.092 38.028c.179 6.326 9.023 7.495 10.937 1.482a103.482 103.482 0 0 0 4.775-35.249l-8.376 4.809c.466.317 1.348 1.066 2.021 1.957-.386-.51.514.917.496.882 0-.008.699 1.5.459.879.222.569.347 1.164.522 1.751.283.959.111-.146.15.925a17.42 17.42 0 0 1 0 1.516c-.034.394-.021.402.039.03-.069.402-.15.797-.257 1.19-.643 2.681.62 5.52 3.224 6.57 2.309.929 5.846.3 6.951-2.279l4.71-10.972-10.376-2.808.326 6.308c.124 2.462 1.64 4.697 4.085 5.37 2.236.612 5.238-.36 6.287-2.557l2.445-5.104-10.175-1.332c.142.351.248.714.33 1.083-.056-.548-.065-.48-.03.206-.077 1.083.283-.176-.142.754-.209.637-.239.719-.089.243-.369.553-.399.642-.09.27a7.14 7.14 0 0 1-.797.797c.291-.248.282-.275-.026-.069-3.139 1.88-6.111 3.272-7.13 7.161-1.13 4.303 2.737 7.687 6.847 6.847l3.859-.788-6.847-3.888c2.685 6.873 4.638 14.085 5.469 21.425l10.376-2.809-.758-1.157c-1.649-2.509-4.925-3.571-7.619-1.995-2.497 1.46-3.657 5.092-1.996 7.618l.759 1.157c1.365 2.076 3.819 3.237 6.286 2.556 2.171-.595 4.36-2.976 4.086-5.37-.951-8.385-2.792-16.518-5.867-24.384-1.152-2.951-3.632-4.544-6.848-3.889l-3.858.788 6.847 6.848c-.163.612-1.173 1.104-.235.681a24.943 24.943 0 0 0 2.013-1.05 13.53 13.53 0 0 0 4.698-4.41c2.179-3.354 2.826-7.794 1.498-11.589-.736-2.107-2.334-3.713-4.629-3.987-2.056-.244-4.587.647-5.546 2.659l-2.445 5.105 10.376 2.81-.325-6.308c-.124-2.463-1.641-4.698-4.086-5.371-2.166-.595-5.331.334-6.286 2.557l-4.711 10.971 10.175 4.292c2.017-8.399-1.434-16.899-8.552-21.7-3.469-2.338-8.535.741-8.377 4.809a93.998 93.998 0 0 1-4.377 32.291l10.938 1.481-1.092-38.028c-.086-3.007-2.496-5.567-5.567-5.567s-5.653 2.547-5.567 5.567v-.013z" fill="#fbceab" fill-rule="nonzero"/><path d="M275.575 141.498c-1.571 6.085-2.591 12.287-3.161 18.548-.273 2.997 2.754 5.567 5.568 5.567 3.237 0 5.293-2.561 5.567-5.567.48-5.272 1.439-10.458 2.762-15.585 1.795-6.942-8.941-9.905-10.736-2.959v-.004z" fill="#fbceab" fill-rule="nonzero"/><path d="M274.007 163.604l.013 1.328c.03 3.113 3.658 4.329 5.85 2.424.69-.6 1.469-.887 2.369-.934l-1.731-6.385-1.293.839c-2.754 1.786-1.807 6.441 1.731 6.385l6.389-.107c1.64-.025 3.769-.458 5.306.176l-1.512-.882.437.338c1.456 1.135 3.422 1.422 4.843 0 1.182-1.182 1.469-3.7 0-4.844-2.231-1.738-4.346-1.721-7.078-1.674l-8.39.137 1.73 6.385 1.293-.839c2.685-1.743 1.851-6.57-1.73-6.385-2.805.145-5.1 1.1-7.211 2.942l5.849 2.424-.013-1.328c-.038-4.407-6.89-4.419-6.852 0zM192.948 285.287l-2.659.968c-.946.343-1.683 1.323-1.344 2.372.299.929 1.357 1.713 2.372 1.345l2.659-.968c.947-.342 1.683-1.323 1.345-2.373-.3-.929-1.357-1.713-2.373-1.344z" fill="#fbceab" fill-rule="nonzero"/><path d="M189.449 286.859l-1.935 1.327c-.737.506-1.139 1.529-.617 2.343.471.732 1.555 1.156 2.343.617l1.936-1.328c.736-.505 1.138-1.529.616-2.343-.471-.732-1.554-1.156-2.343-.616z" fill="#fbceab" fill-rule="nonzero"/><path d="M186.996 289.034l-.848.484c-.583.334-.836 1.178-.463 1.756.373.578 1.135.818 1.756.463l.848-.484c.582-.335.835-1.178.463-1.757-.373-.577-1.136-.817-1.756-.462zM194.37 287.51c.608-1.037 1.838-1.268 2.934-1.486 1.156-.232 2.248-.48 3.293-1.046 1.456-.787.159-3.006-1.298-2.217-2.458 1.331-5.524.68-7.147 3.451-.84 1.43 1.383 2.723 2.218 1.298z" fill="#fbceab" fill-rule="nonzero"/><path d="M196.721 286.435c3.525-.869 7.173-.968 10.724-.142 2.599.608 7.096 1.743 7.609 4.844l2.373-2.373c-6.967-1.961-14.059-3.315-21.254-4.115l.514 3.785c3.841-.74 7.588-.278 11.203 1.179l.514-3.786-11.499.997c-1.794.155-2.762 2.591-.972 3.593 3.431 1.914 7.268 2.737 11.174 2.236 2.38-.304 2.552-3.936 0-3.854l-6.746.214c-2.479.077-2.483 3.777 0 3.854l13.538.428c2.479.077 2.479-3.777 0-3.854l-13.538-.428v3.854l6.746-.214v-3.854c-3.268.415-6.343-.099-9.229-1.709l-.973 3.593 11.499-.998c2.231-.192 2.535-2.972.514-3.786-4.257-1.713-8.762-2.043-13.25-1.177-2.304.445-1.473 3.563.513 3.785 6.849.767 13.598 2.116 20.227 3.979 1.529.428 2.603-.977 2.372-2.372-.689-4.15-5.297-6.086-8.868-7.157-4.626-1.383-9.534-1.391-14.205-.239-2.407.59-1.388 4.312 1.023 3.717h-.009z" fill="#fbceab" fill-rule="nonzero"/><path d="M193.724 291.912l11.862 14.847c.638.797 2.283 1.024 3.114.403 4.676-3.503 7.46-8.402 8.034-14.222.145-1.495-1.307-2.415-2.57-2.57-6.433-.775-8.565 5.512-8.993 10.664-.275 3.302 4.839 3.263 5.139 0a25.449 25.449 0 0 0-1.032-9.773c-.57-1.854-2.882-2.501-4.295-1.135-.759.732-1.654.527-2.309-.201-2.218-2.463-5.842 1.178-3.636 3.636l5.533 6.158c2.214 2.467 5.842-1.178 3.636-3.636l-5.533-6.158-3.636 3.636c2.54 2.814 6.904 2.787 9.576.201l-4.296-1.135c.853 2.784 1.114 5.508.848 8.407h5.139c.215-2.54.553-5.923 3.855-5.525l-2.57-2.569c-.376 3.828-2.402 7.473-5.49 9.786l3.113.402-11.862-14.847c-2.064-2.583-5.679 1.074-3.636 3.636l.009-.005zM119.003 229.037a16.102 16.102 0 0 1 11.297 2.235c3.314 2.085 5.815 5.246 8.946 7.588 2.933 2.193 6.672 3.761 10.389 2.947 3.961-.869 7.054-4.925 9.91-7.563 1.52-1.405.582-3.671-1.135-4.295a20.772 20.772 0 0 1-8.912-6.283c-2.201-2.651-3.781-5.79-6.248-8.231-5.015-4.959-14.796-5.426-17.944 1.966-.826 1.944.544 4.441 2.904 3.773 4.278-1.208 8.445 1.499 11.652 4.085 3.521 2.839 6.566 6.218 9.602 9.559l2.501-4.296c-9.631-3.438-17.991-10.05-28.582-10.35l.686 5.049c4.595-.909 10.102-.664 13.635 2.805 3.533 3.468 5.362 9.031 11.062 9.969 3.293.54 4.428-3.708 1.366-4.955l-12.754-5.19c-3.061-1.246-4.393 3.722-1.365 4.955l12.753 5.19 1.366-4.955c-2.895-.475-4.42-2.89-5.991-5.13-1.572-2.239-3.358-4.394-5.812-5.815-4.719-2.742-10.406-2.857-15.627-1.825-2.925.578-2.124 4.968.686 5.049 9.892.278 18.175 6.938 27.215 10.167 2.57.916 4.098-2.535 2.501-4.295-6.304-6.938-15.584-17.97-26.252-14.964l2.904 3.774c1.25-2.943 4.612-3.958 7.486-2.656 2.603 1.182 4.24 3.871 5.798 6.137 3.627 5.259 7.936 9.22 14.017 11.43l-1.135-4.295c-1.529 1.413-3.054 2.826-4.582 4.235-1.529 1.409-2.775 2.342-4.972 1.906-3.491-.694-6.15-3.743-8.638-6.056-5.666-5.259-12.304-7.965-20.081-6.616-3.25.565-1.876 5.515 1.366 4.954l-.012-.003z" fill="#fbceab" fill-rule="nonzero"/><path d="M90.49 57.775c5.182-3.551 4.492-11.884 4.419-17.104C94.288-3.345 108.639 1.276 47.134.154c-39.412-.72-44.573.951-45.99 7.85C.026 13.442.266 31.999.771 38.242c2.21 27.34-3.4 21.862 60.405 21.935 7.148.009.938-1.203 23.494 10.347 6.111 3.131 9.387 5.85 8.47.835-1.931-10.552-3.636-12.912-2.65-13.584z" fill="#fff" fill-rule="nonzero"/><path d="M47.129.154c61.506 1.118 47.142-3.503 47.776 40.517.073 5.224.762 13.558-4.42 17.104-.984.672.715 3.028 2.651 13.584.921 5.015-2.36 2.299-8.471-.835C62.109 58.97 68.319 60.186 61.172 60.177-2.633 60.104 2.977 65.582.767 38.242c-.505-6.243-.745-24.8.372-30.238C2.553 1.105 7.713-.566 47.125.154h.004zm43.635 70.704c-1.182-5.738-1.653-6.77-2.797-11.357-1.34-5.396 4.531.188 4.681-16.916.222-25.168 2.698-37.352-4.506-38.59-7.674-1.323-70.185-2.501-80.587-.013C2.116 5.284 2.48 9.905 2.454 18.748a288.137 288.137 0 0 0 2.116 33.67c1.173 8.393 19.378 5.087 45.416 5.541 4.882.086 9.773.047 14.659-.21 1.272-.069 24.796 12.411 26.123 13.109h-.004z" fill="#191919" fill-rule="nonzero"/><path d="M24.471 38.315c-9.872-.193-9.422-14.535.021-14.487 4.342.021 7.807 3.1 7.798 6.959a7.72 7.72 0 0 1-2.359 5.378 7.724 7.724 0 0 1-5.465 2.155l.005-.005zM47.061 23.656c10.685.214 9.79 14.621-.249 14.402a7.386 7.386 0 0 1-5.053-2.184 7.393 7.393 0 0 1-2.137-5.075c-.03-3.905 3.863-7.22 7.434-7.143h.005zM69.677 23.798c11.027.175 9.486 14.624-.146 14.324-9.82-.308-9.391-14.474.146-14.324zM370.847 53.886c-2.98-2.676-11.982-10.624-13.69-11.614 1.653-7.781 2.753-16.432 3.871-24.371.544-3.855-.146-4.326-3.006-1.594-5.825 5.546-11.306 11.302-16.715 17.447-1.482-.719-7.584-3.361-11.079-4.646-3.494-1.285-4.094-.831-3.374 3.374a108.05 108.05 0 0 0 3.52 14.347c-1.413 2.231-7.824 10.573-8.376 11.824-1.209 2.732-2.6 3.695 1.738 3.426a94.545 94.545 0 0 1 13.306.141c1.087 5.931 2.805 11.674 4.128 16.77 1.516 5.842 3.546 4.818 4.903-.381a244.136 244.136 0 0 1 5.82-19.186c6.3-.449 11.452-.428 17.846-1.413 2.706-.398 3.096-2.346 1.113-4.124h-.005zm-22.092 6.57a167.103 167.103 0 0 0-5.139 17.601c-5.594-17.224-2.712-17.755-7.782-18.466a74.225 74.225 0 0 0-11.712-.086c.736-1.413 5.19-7.327 7.233-10.064 2.8-3.743.441-3.657-2.094-18.025 12.222 4.445 11.575 6.467 14.594 2.998 3.854-4.424 10.492-11.302 14.231-14.796l-2.827 20.697c-.325 2.398-.873 2.839 1.298 4.522 4.214 3.255 8.192 7.152 12.154 10.626-16.252 2.792-18.025-.506-19.953 4.993h-.003zM34.068 222.36c-2.005-3.824-4.506-7.85-6.852-11.404 1.982-2.668 3.91-5.448 5.674-8.381 1.957-3.25.094-2.411-11.965-.03a141.512 141.512 0 0 0-7.204-12.608c-2.792-4.038-2.282-1.263-3.216 16.227-3.233 1.285-6.479 2.68-9.657 4.282-.582.296-1.263 1.191-.526 1.461a85.467 85.467 0 0 1 9.502 4.128c-.376 4.175-.488 8.364-.445 12.556.017 1.734-.146 2.993 2.15 1.19 3.049-2.406 6.072-6.166 8.92-9.417 2.129.925 10.026 3.504 11.957 3.923 2.762.595 2.852.33 1.666-1.927h-.004zm-15.066-2.557a74.2 74.2 0 0 1-8.184 8.733c-.3-3.996.133-8.121.197-12.39.013-.972-.356-1.242-1.191-1.679-1.961-1.032-6.56-2.882-7.541-3.216.903-.501 6.561-2.873 8.419-3.674 1.045-.446 1.024-.381 1.084-1.568.244-4.925.475-9.888 1.01-14.907 2.244 3.567 4.351 7.409 6.523 11.379a2.508 2.508 0 0 0 3.139 1.289c3.015-.626 6.034-1.234 9.1-1.743-.784 1.567-4.004 6.231-5.242 8.05-.698 1.029-.424 1.136.18 2.168a387.998 387.998 0 0 1 5.979 10.547 104.143 104.143 0 0 1-11.298-3.545 1.525 1.525 0 0 0-2.107.441c-.025.043-.051.081-.072.124l.004-.009zM74.525 298.666c-5.234 16.312 3.944 40.743 22.495 42.25 1.915 8.279 9.657 16.947 17.837 15.837 1.126-.154 1.006-2.111-.154-2.03-6.681.472-13.268-6.907-15.041-13.729a18.96 18.96 0 0 0 11.932-4.792c10.663-9.632-2.433-23.195-11.186-12.942a20.856 20.856 0 0 0-3.889 14.878c-16.817-2.253-23.532-23.88-19.532-38.625a1.331 1.331 0 0 0-2.467-.847h.005zm27.677 26.59c6.411-8.287 15.802 2.244 7.207 9.254a16.805 16.805 0 0 1-10.2 3.717 18.56 18.56 0 0 1 2.989-12.971h.004z" fill="#6f93fc" fill-rule="nonzero"/><path d="M344.977 218.099a17.263 17.263 0 0 0-14.196-7.799c-9.657.116-18.5 5.585-24.783 12.566-11.91 13.331-16.239 32.298-21.648 49.445-3.023 9.772-6.047 19.661-8.608 29.549-.814 3.366-.929 7.097 1.285 9.773 1.396 1.743 8.5 4.65 10.471 3.366 1.627-1.165 2.792-7.798 3.258-9.781 4.188-19.083 8.608-38.166 15.006-56.657 4.304-12.334 10.582-26.18 23.383-31.648.351-.116.698.351.351.582a40.149 40.149 0 0 0-15.472 15.712c-5.774 10.158-10.035 25.695-13.731 39.091-3.606 13.499-9.772 41.883-9.888 42.119a5.668 5.668 0 0 1 1.396-.231c7.448-1.628 14.432-5.354 21.409-8.502 6.629-2.907 37.925-17.566 37.925-18.149.583-20.71 5.118-45.724-3.837-65.385a21.146 21.146 0 0 0-2.321-4.06v.009z" fill="#191919" fill-rule="nonzero"/><path d="M115.55 226.938c0-.698 2.095-2.21 3.606-2.441a2.518 2.518 0 0 1-.115-1.285c-1.165-.466-7.563-3.143-9.657-3.841-4.073 1.863-7.096 3.366-8.843 4.304a1.416 1.416 0 0 0 0 2.565c1.743.698 5.237 2.209 10.239 3.837.116-.12 3.953-2.792 4.77-3.143v.004zM116.018 228.334c-.583.351-2.908 1.978-3.366 2.326a304.59 304.59 0 0 0 10.817 3.027c1.705.424 3.079-.274 7.447-1.863-2.103-2.681-13.386-1.396-14.898-3.49zM152.316 213.675c-.115 0-4.304 1.511-4.651 1.628.582.697 5.931 7.095 6.399 7.798a204.804 204.804 0 0 0 6.633-2.446c-.12-.115-8.261-6.864-8.381-6.98zM119.508 221.82a12.416 12.416 0 0 1 5.353-2.565 12.567 12.567 0 0 1-.698-2.326c-.231-.115-3.255-1.862-3.953-2.325-3.49 1.396-6.634 2.677-9.426 3.957 1.863.587 7.679 2.797 8.724 3.264v-.005zM160.924 209.486a998.063 998.063 0 0 1 7.909-2.094 97.144 97.144 0 0 0-7.446-3.143 6.047 6.047 0 0 0-3.491-.346c-1.863.346-3.721.697-5.469 1.049.698.346 6.398 3.254 8.492 4.534h.005zM134.749 210.652c.202 0 5.679-2.095 9.075.813 1.049.93 1.978 1.743 2.908 2.677.582-.231 3.255-1.285 4.072-1.512-1.165-.813-6.749-4.419-8.5-5.349-3.028.814-5.931 1.628-8.844 2.565.356.219 1.17.69 1.289.806zM152.667 211.932c1.743-.583 5.931-1.863 6.283-1.978-.232-.116-8.261-4.651-8.261-4.651-2.325.466-4.651 1.049-6.865 1.627a98.532 98.532 0 0 1 8.843 4.998v.004zM160.808 211.114c-.813.232-5.121 1.512-6.633 1.978 1.512 1.161 7.909 6.514 8.376 6.865a157.329 157.329 0 0 1 7.679-2.676c-.583-.467-6.865-4.54-9.426-6.167h.004zM162.902 210.536c.699.467 8.377 5.584 8.959 6.167 5.461-1.988 6.749-1.85 6.749-3.143a1.41 1.41 0 0 0-.697-1.397 68.312 68.312 0 0 0-6.626-3.606c-1.053.352-7.802 1.863-8.385 1.979zM125.092 215.654a10.013 10.013 0 0 1 3.838-1.397c.582-.235 3.957-2.676 4.303-2.792a10.512 10.512 0 0 1-1.627-.813c-3.49 1.16-6.865 2.325-9.888 3.605 1.16.373 2.286.84 3.374 1.397z" fill="#6f93fc" fill-rule="nonzero"/><path d="M254.462 124.676a.367.367 0 0 0-.411-.321.376.376 0 0 0-.291.205c-.462 2.095-.93 4.304-1.285 6.398-.231 1.397-1.285 4.54-.351 5.816.814 1.285 3.606 1.396 4.886 1.512a.72.72 0 0 0 .882-.509.719.719 0 0 0-.509-.883h-.026c-.813-.239-4.072-.471-4.072-1.52.235-3.49.933-7.096 1.168-10.702l.009.004zM256.659 146.268a7.578 7.578 0 0 0-2.209.934.443.443 0 0 0-.138.608c.081.125.626.719.776.719 1.772 1.135 2.933 1.56 4.629 1.029 1.473-.369 4.432-3.08 3.687-4.566-.779-.779-1.58-.235-6.749 1.281l.004-.005zM264.119 119.438c.685.596 1.05-.346.934-.929a2.426 2.426 0 0 0-.814-1.511 4.398 4.398 0 0 0-7.447 2.329.417.417 0 0 0 .428.407c.18 0 .334-.12.39-.291a3.26 3.26 0 0 1 3.028-2.094c1.978-.116 2.304 1.07 3.49 2.094l-.009-.005z" fill="#191919" fill-rule="nonzero"/><path d="M210.138 311.984c.232-1.284-3.023-4.77-3.49-5.353-2.103-2.745-9.991-12.573-12.912-14.659-.347-.232-.582.231-.466.467a31.667 31.667 0 0 0 4.188 5.584c3.606 4.535 7.331 8.843 10.702 13.614-2.21.583-4.304 1.161-6.514 1.863-13.901 4.128-14.509 4.613-15.593 3.837-6.354-4.402-15.579-17.19-20.589-24.085.231.351 6.98-1.743 7.678-1.974 3.374-.698 6.865-1.512 10.239-2.094a.362.362 0 0 0 .172-.488.358.358 0 0 0-.292-.205 89.515 89.515 0 0 0-19.314 3.366.76.76 0 0 0-.466 1.164c4.89 6.681 10.693 14.877 16.869 21.057 1.626 1.628 4.188 4.887 6.513 5.002a12.92 12.92 0 0 0 4.188-.929c20.942-6.317 18.321-5.4 19.079-6.163l.008-.004z" fill="#6f93fc" fill-rule="nonzero"/><path d="M187.45 308.84c-3.833-3.832-.42.793-12.681-14.191-.116-.116-.231-.232-.351-.232-.347 0-.347.583-.116.929a99.915 99.915 0 0 0 6.514 9.075c1.979 2.445 4.771 5.931 7.679 7.216.466.231.933-.466.698-.814-.583-.698-1.165-1.395-1.748-1.978l.005-.005zM180.589 294.186a38.41 38.41 0 0 0 6.514 8.377c1.863 1.978 4.535 5.7 7.216 6.517a.467.467 0 0 0 .582-.582c-1.165-3.143-4.886-5.121-7.096-7.447a75.438 75.438 0 0 1-6.513-7.216.397.397 0 0 0-.528-.175.396.396 0 0 0-.175.526z" fill="#6f93fc" fill-rule="nonzero"/><path d="M187.805 216.587c-2.831 1.551-2.351.369-21.648 8.261-1.512.583-3.144 1.285-4.65 1.863-.468.231-.232.929.231.814 6.864-2.442 13.729-4.887 20.594-7.448 2.566-.929 6.981-1.396 8.608-3.837 1.743-2.565-1.743-5.006-3.606-6.282-17.738-11.824-24.757-11.396-36.53-8.959a254.72 254.72 0 0 0-62.357 23.035c-1.16.583-2.326 1.632-1.979 3.028.231 1.396 1.743 1.978 2.908 2.566 3.709 1.588 14.132 6.735 24.316 10.119 5.653 1.799 9.152 2.244 20.128-1.979a.602.602 0 0 0 .407-.754.603.603 0 0 0-.754-.406c-13.802 3.85-12.278 5.837-40.024-6.634-1.161-.466-5.469-1.743-5.7-3.143-.351-2.21 6.633-4.188 8.025-4.886 16.056-7.217 32.23-13.73 49.446-18.034 6.282-1.512 12.796-3.366 19.314-2.565a42.261 42.261 0 0 1 16.518 6.397c1.284.814 6.085 3.56 7.447 4.771 1.867 1.743 1.045 3.122-.69 4.073h-.004zM192.572 144.452c-1.517-16.675-6.955-44.28-9.302-57.123-.583-3.26-1.161-6.75-3.255-9.542a9.323 9.323 0 0 0-7.331-3.366c-3.337.21-6.643.715-9.889 1.511-3.837.699-64.451 12.45-68.293 13.263a.667.667 0 0 0 .351 1.285c14.775-3.023 70.272-13.378 72.246-13.729 4.428-1.024 9.216-1.388 11.867 2.325 2.244 3.169 2.146 5.34 5.118 20.71 2.629 13.811 6.616 36.02 7.447 50.144.27 1.653.308 3.336.115 5.002-.346 1.743-1.627 2.21-3.143 2.677-92.044 28.765-93.992 30.406-99.239 31.065-1.674.158-4.235.197-5.583-.814-3.915-1.957-7.02-23.614-7.679-27.922-.352-2.184-3.448-24.693-3.957-29.202a270.884 270.884 0 0 1-1.978-28.504 11.529 11.529 0 0 1 .458-4.895c.813-1.628 2.676-1.863 4.303-2.326 2.497-.779 13.353-3.575 16.171-4.304a.297.297 0 1 0-.06-.591.138.138 0 0 0-.055.013 175.934 175.934 0 0 0-17.096 4.069 6.739 6.739 0 0 0-4.073 2.209 7.024 7.024 0 0 0-.929 4.073c0 19.901 1.872 31.45 4.886 53.634 1.062 8.064 3.015 23.635 6.398 31.528 1.418 3.541 3.584 5.151 8.377 4.886a41.433 41.433 0 0 0 8.377-1.859c6.749-2.209 13.494-4.188 20.243-6.282 6.505-2.094 64.331-20.826 67.937-21.867 1.743-.582 3.491-.933 5.118-1.626 4.445-2.746 2.968-5.487 2.445-14.433l.005-.009zM196.76 197.038c3.811 3.4 10.582 5.73 15.824 6.166 9.592 1.067 12.826-6.967 5.7-13.263a18.53 18.53 0 0 0-11.054-4.65c-8.209-.686-13.644 4.659-12.911 8.607a7.701 7.701 0 0 0 2.445 3.135l-.004.005zm-.698-5.576c1.67-3.229 5.391-4.06 8.843-4.651-1.512 1.285-4.188 3.837-3.606 6.051.699-.116 1.285-1.511 1.748-2.094 3.079-4.107 4.732-3.957 4.534-3.957 1.743-.583 5.585 1.285 7.097 2.209a12.53 12.53 0 0 1 5.7 6.052 4.683 4.683 0 0 1-.929 5.002c-4.651 4.535-15.234.115-19.777-2.792-1.512-.934-3.842-2.21-3.957-4.188a2.563 2.563 0 0 1 .347-1.632zM149.177 255.674c1.353-.519 4.865-2.163 5.7-2.442a3.677 3.677 0 0 0 1.859-1.049.714.714 0 0 0-.467-1.165 9.405 9.405 0 0 0-3.255 1.285 290.79 290.79 0 0 1-28.384 10.934c-9.692-3.731-59.566-17.743-75.972-23.734-.582-.236-.698.582-.231.814 20.423 8.072 71.997 23.249 75.046 24.084.351 10.938 1.285 21.987 2.094 32.924a49.525 49.525 0 0 0 1.05 9.426c.115.466.933.583 1.049 0 .253-2.75.214-5.52-.116-8.261-.235-2.793-2.329-30.95-2.676-33.969 1.533 0 24.136-8.779 24.303-8.843v-.004zM201.295 233.794c14.56-5.957 32.316-13.897 34.903-14.89a17.553 17.553 0 0 0 4.072-2.094.629.629 0 0 0-.467-1.049 14.456 14.456 0 0 0-3.722 1.396c-1.284.582-32.34 14.658-35.133 16.055-.235.12.004.818.347.582zM258.886 125.374c0 1.285.779 2.33 1.738 2.33.964 0 1.748-1.036 1.748-2.321v-.009c0-1.285-.779-2.33-1.739-2.33-.963 0-1.747 1.037-1.747 2.322v.008zM119.276 194.365a2.757 2.757 0 0 0-1.284 2.441 2.448 2.448 0 0 0 1.512 1.979c1.512.698 6.749.231 8.26.231a92.322 92.322 0 0 0 25.828-5.118c1.863-.698 5.469-1.395 5.002-4.072-.231-1.285-1.396-1.863-2.445-2.441a35.644 35.644 0 0 0-12.33-3.259c-.231-2.565-.466-5.118-.466-7.794a.696.696 0 0 0-.733-.664.698.698 0 0 0-.664.664c0 2.792.352 5.584.583 8.376a.673.673 0 0 0 .642.698h.056a33.166 33.166 0 0 1 11.053 2.792 59.12 59.12 0 0 1-11.284 3.491 102.515 102.515 0 0 1-16.055 2.094c-1.161.115-4.304-.231-3.953-.467a67.715 67.715 0 0 1 11.751-6.398c1.979-1.049 0-6.283-.351-8.026a.293.293 0 0 0-.373-.196.302.302 0 0 0-.209.316 18.46 18.46 0 0 1 .351 6.168c-1.139 1.524-7.525 3.344-14.886 9.189l-.005-.004zm8.502.583a80.207 80.207 0 0 0 25.129-4.887c1.01-.33 1.983-.758 2.908-1.284.698.351 1.285.813 1.285 1.395 0 .819-.587 1.089-6.75 3.144a88.842 88.842 0 0 1-25.827 4.419 26.675 26.675 0 0 1-4.305-.115 1.137 1.137 0 0 1-.98-1.28c.021-.163.081-.321.167-.463a3.992 3.992 0 0 1 1.045-.929h7.328z" fill="#191919" fill-rule="nonzero"/><path d="M61.57 106.06c1.207-3.477 2.677-6.98 6.166-8.728.468-.231.117-1.049-.351-.929-3.143.929-5.001 4.072-6.166 6.981a63.379 63.379 0 0 0-3.491 11.284 83.1 83.1 0 0 0 2.21 44.79c2.887 8.99 7.075 18.728 13.263 25.944a14.645 14.645 0 0 0 6.523 4.775.501.501 0 0 0 .621-.334.495.495 0 0 0-.27-.595 29.269 29.269 0 0 1-10.24-10.938 98.696 98.696 0 0 1-12.334-35.716 80.001 80.001 0 0 1 4.069-36.538v.004z" fill="#191919" fill-rule="nonzero"/><path d="M159.421 128.629a25.064 25.064 0 0 0 6.736-1.863 36.58 36.58 0 0 0-1.863-6.398c-1.169.467-5.661 1.55-6.513 1.978.06.163 1.64 6.172 1.64 6.283zM162.671 142.59c0 .308 4.141-.651 6.514-1.049a25.354 25.354 0 0 0-1.512-6.981c-1.417.471-3.43.75-6.749 1.743a63.902 63.902 0 0 1 1.747 6.283v.004zM118.463 153.18c.231 0 6.398-1.285 6.398-1.285a61.571 61.571 0 0 0-1.512-6.98c-1.049.347-5.584 1.397-6.749 1.743.582 1.516 1.863 6.403 1.863 6.518v.004z" fill="#6f93fc" fill-rule="nonzero"/><path d="M79.835 104.313c-.231 0-.347.231-.347.467 1.443 19.249 5.563 53.569 9.773 71.663 0 .235.231.235.466.235 15.602-3.468 72.284-19.262 92.258-26.058.467-.116 1.05-.351 1.512-.468.231-.115.582-.346.467-.697-2.917-23.931-7.97-47.566-10.822-64.105a.779.779 0 0 0-.814-.467c-27.335 4.972-63.676 12.226-92.493 19.43zM97.17 153.99a35.414 35.414 0 0 1 6.287-2.095c2.792-.697 5.7-1.395 8.501-1.862 1.049-.232 1.511 1.511.466 1.627-2.792.467-11.168 2.441-12.564 2.792a4.524 4.524 0 0 1-2.445.352c-.476 0-.476-.467-.245-.814zm22.689-35.018c-1.978.582-4.072.929-6.167 1.396-3.957.929-15.708 3.721-17.567 4.073-1.743.496-3.541.77-5.349.814-.351 0-.698-.583-.235-.814a34.316 34.316 0 0 1 5.931-1.628c11.623-2.727 20.467-5.178 23.036-5.349.933-.115 1.049 1.161.351 1.512v-.004zm1.285 9.657a.688.688 0 0 1 1.049.583 68.294 68.294 0 0 1-3.495 6.397c-.346.467-.697.814-1.285.583a8.774 8.774 0 0 1-2.325-1.743.481.481 0 0 1 .463-.814c.724.244 1.426.557 2.094.929.004-.115 3.148-5.584 3.494-5.931l.005-.004zm-26.762 11.52c-.48-1.161 5.658-2.026 11.516-3.491 1.4-.385 2.857-.539 4.304-.466a.735.735 0 0 1 .128 1.032l-.012.017c-.467.582-3.491.929-4.188 1.16-1.285.236-6.399 1.397-7.68 1.628-1.164 0-3.832.694-4.072.115l.004.005zm17.683-6.98a1.495 1.495 0 0 1 1.049-1.512c1.401-.587 2.904-.9 4.419-.93.348.116.348.467.116.582-.685.459-4.115 1.371-4.304 1.743 0 .117 1.512 6.052 1.512 6.052a47.89 47.89 0 0 0 6.865-1.978 7.172 7.172 0 0 0-.698-3.024c-.231-.698.814-1.05 1.165-.467a7.523 7.523 0 0 1 .929 3.837.64.64 0 0 1-.347.583 59.01 59.01 0 0 1-7.216 2.209c-.814.116-1.396.116-1.859-.582a26.693 26.693 0 0 1-1.627-6.518l-.004.005zm3.837 12.333c1.285-.347 6.514-1.512 7.679-1.863a.56.56 0 0 1 .697.231 44.986 44.986 0 0 1 2.095 8.261c0 1.049-8.146 2.677-8.501 2.566-.342-.15-.6-.45-.698-.814a66.534 66.534 0 0 1-1.396-7.216.631.631 0 0 1 .12-1.169l.004.004zm6.865-35.25c-22.723 4.33-29.301 6.6-33.515 6.866a.405.405 0 0 1-.223-.695 38.711 38.711 0 0 1 6.167-2.094c5.422-1.391 21.571-4.971 27.1-5.7.937 0 1.405 1.392.471 1.628v-.005zm18.612 33.623c.231-.929 1.511-.929 2.209-1.161a115.117 115.117 0 0 1 12.565-2.908c1.049-.231 1.512 1.512.467 1.628-10.86 2.068-11.04 2.817-14.432 3.143a.57.57 0 0 1-.775-.24.572.572 0 0 1-.034-.462zm-2.21-13.846c-.351 0-.582-.698-.231-.934.817-.684 14.658-3.537 15.357-3.254.698.231.698.929.115 1.396-.283.167-13.541 3.075-15.241 2.792zm17.451-7.216c-.107-.582-.116-1.049.467-1.284a25.174 25.174 0 0 1 7.216-1.863c.231-.231.813-.348 1.049 0a26.47 26.47 0 0 1 2.209 7.563.65.65 0 0 1-.351.582 22.252 22.252 0 0 1-6.749 2.094c-.582.116-1.396.351-1.863-.116a44.437 44.437 0 0 1-1.978-6.976zm3.49 12.33c4.673-1.285 5.409-.994 7.794-1.863a.56.56 0 0 1 .698.231 24.799 24.799 0 0 1 1.743 5.7c.381 2.681.964 3.503-1.395 3.85-8.142 1.524-6.793 2.633-8.142-2.094-.351-1.512-.582-3.028-.813-4.651a.713.713 0 0 1 .115-1.173zm8.261-26.993c-.159.047-30.684 6.783-33.275 6.629-.583 0-.583-.698-.115-.929 1.854-.766 31.005-7.087 33.159-7.216a.774.774 0 0 1 .235 1.516h-.004zm-1.396-8.146c-32.855 6.78-30.221 6.66-33.515 6.865a.407.407 0 0 1-.36-.445.378.378 0 0 1 .129-.252c5.747-2.707 29.506-7.298 33.275-7.794 1.054 0 1.525 1.413.471 1.631v-.005z" fill="#6f93fc" fill-rule="nonzero"/><path d="M126.141 91.517c3.122 0 2.497-3.529.467-3.957a1.993 1.993 0 0 0-.48 3.957h.013zM129.747 226.706a13.769 13.769 0 0 0-6.166-.231 40.037 40.037 0 0 0-6.514 1.045c-.467.116-.231.698.231.698a31.944 31.944 0 0 1 5.815-.466 18.202 18.202 0 0 1 6.168.351c5.023 1.674 4.736 8.23 10.355 12.214 2.445 1.743 5.931 3.143 8.843 1.863.933-.352-.698-.934-1.049-1.05-1.838-.552-3.628.424-7.217-2.441-5.19-4.158-5.327-10.441-10.466-11.983zM138.008 222.749a10.977 10.977 0 0 0-8.025-3.366c-2.908.232-5.7 1.743-8.501 2.677-.466.116-.231.814.231.698a50.261 50.261 0 0 1 8.026-1.863c2.792-.231 5.237 1.743 7.678 2.565.356.219.818-.363.587-.711h.004zM126.955 216.352a.396.396 0 0 0-.094.548.387.387 0 0 0 .441.146c1.923-.382 5.409-1.953 8.377-.814 1.819.651 3.207 3.366 4.419 3.366.232 0 .351-.232.351-.463 0-1.147-2.235-4.124-5.468-4.771a13.22 13.22 0 0 0-8.026 1.983v.005z" fill="#191919" fill-rule="nonzero"/><path d="M326.481 208.673c-.351-8.727-6.167-18.033-10.355-25.361a99.589 99.589 0 0 0-7.563-11.053c-1.07-1.379-6.514-9.888-8.261-8.844a15.416 15.416 0 0 0-2.094 1.748c-.582-3.143-2.013-6.304-2.793-9.426-.526-2.107-.697-4.419-1.048-6.629a38.661 38.661 0 0 1-.814-6.282 5.316 5.316 0 0 0 4.539-2.095c5.469-7.096 2.441-18.731-.934-26.063-2.094-4.651-5.583-10.582-10.47-12.796-7.619-3.568-14.244 1.122-29.433-3.028-1.628-.466-8.377-3.837-9.542-1.858-.814 1.395 1.165 3.138 1.743 4.419-1.396-.467-4.771-2.792-6.047-1.161-.814 1.05.115 3.491.467 4.536 1.16 3.49 2.676 6.166 6.051 7.909 7.135 3.808 16.196-.449 23.151 2.21a7.346 7.346 0 0 1 4.651 6.398c.347 1.863-.116 4.073.698 5.816.934 1.862 2.565 1.511 3.85 0 6.865-8.146 15.589 4.188 8.501 8.723a21.631 21.631 0 0 1-6.283 2.793c-.231.115-.231.582.116.582a12.67 12.67 0 0 0 3.028-.698c-.351 3.143 2.907 4.539 4.886 4.304a42.076 42.076 0 0 0 .934 12.098c.231.814 3.366 11.053 3.606 10.937a24.44 24.44 0 0 1-4.073 1.628 30.943 30.943 0 0 0-17.216.582c.347-.116-1.747-4.188-2.094-4.539-1.045-.814-7.096-.116-10.004-.582a15.646 15.646 0 0 1-12.796-10.005c-4.18-10.286-1.002-25.481-.351-37.578 0-.352-.583-.468-.583-.116-.604 4.098-2.908 15.383-2.908 25.13 0 16.602 7.255 25.887 23.268 24.431 1.284-.116 1.863-.467 2.676.352.933.813 1.049 2.44 1.285 3.489-1.049.583-2.21.934-3.367 1.512-11.147 5.383-17.031 19.863-21.057 30.599-8.269 22.449-8.993 26.714-18.731 46.537-5.281-3.066-18.625-8.029-24.898-10.119a148.34 148.34 0 0 0-27.579-6.398c-3.645-.407-9.303-1.73-14.077-1.049-1.242.355-2.45.822-3.606 1.396-3.101-2.48-9.974-6.895-13.961-12.213-1.358-1.743-2.826-4.728-5.931-6.283a8.388 8.388 0 0 0-6.981.231c-.235.112-.582.347-.467.583.296.882 2.111-.699 5.354.115 5.37 1.353 6.414 7.298 14.307 13.494a66.188 66.188 0 0 0 6.514 4.771c-4.205 2.968-9.383 10.321-7.096 14.89 0 .116 0 .231.115.231 16.852 13.323 33.125 26.106 52.757 34.62a15.211 15.211 0 0 1-3.774-.3c-3.442-.308-7.977 1.971-10.937 3.837a42.465 42.465 0 0 0-5.931 4.771c-.591.574-1.627 1.859-.698 2.677 1.512 1.165 10.102-2.903 10.355-2.441a8.2 8.2 0 0 0 5.122 3.721c1.743.467 6.595 1.482 8.026-.231.8-.951-1.166-.583-1.512-.583-3.996.365-8.189-.338-10.938-3.258.9-.446 3.024-.99 3.024-1.859-2.317-.771-4.591 1.704-13.062 3.679 1.687-1.071 3.443-4.604 10.038-7.751 5.315-2.54 9.392-.874 11.636-1.688a129.97 129.97 0 0 0 5.464 2.15c1.396.467 3.144 1.164 3.606 1.396.231.116 1.743 4.073 2.565 5.816a4.047 4.047 0 0 0-1.978 1.284c-1.979 1.863-.934 5.349-1.748 7.679-1.049 2.792-3.952 4.771-6.398 6.166-.231.117-.115.699.232.583 4.886-1.978 8.608-5.931 8.376-11.52-.116-1.863.814-2.445 1.978-3.143.09.21.21.403.352.583a1.21 1.21 0 0 0 1.34.132c3.49-1.413 9.957-4.111 12.154-5.019.351 0 .702.042 1.049.116 0 0-.929 5.117-1.284 7.678-.232 2.094-1.238 5.451-.699 7.447.125.463.814.583.93.116a24.045 24.045 0 0 0 1.049-5.349c.466-3.143 1.396-9.773 1.049-9.888 20.534.72 31.575-10.548 42.581-27.691 6.497-10.081 14.209-22.59 16.518-33.737.308-1.495.505-3.015.582-4.54a.536.536 0 0 0-.57-.497.54.54 0 0 0-.475.381 88.462 88.462 0 0 1-2.445 9.191c-3.02 9.442-9.071 18.894-12.797 25.014-5.815 9.301-12.102 19.083-21.639 25.014-10.47 6.514-23.267 6.398-34.902 3.49-25.695-6.488-47.364-23.553-68.409-38.859-1.396-1.05 1.863-7.794 2.677-8.844 3.019-4.53 8.231-7.215 9.597-7.147 14.368.724 31.108 3.979 51.831 12.265 4.419 1.743 8.728 3.957 13.147 5.816-.116 0-2.908 5.815-3.143 6.282-.351.814.231 2.21.929 1.161 8.218-12.702 17.931-40.179 21.524-50.028 3.559-10.103 9.083-26.18 18.848-32.577 9.061-6.163 23.904-7.242 31.994-.583a.33.33 0 0 0 .466-.022.325.325 0 0 0 0-.444 18.851 18.851 0 0 0-6.633-4.189c1.396.467 3.144-.814 4.188-1.511.351-.232 1.512-1.397 1.863-1.397.814 0 1.863 2.094 2.325 2.677a117.356 117.356 0 0 1 19.182 31.874c.813 1.979 2.676 8.377 3.144 8.96.111.235 1.275 1.395 1.16.235l-.013.017zm-96.1 79.462a82.4 82.4 0 0 1-10.47 3.722 4.827 4.827 0 0 0-.582-2.211 24.782 24.782 0 0 0-1.979-4.303 98.685 98.685 0 0 0 13.031 2.792z" fill="#191919" fill-rule="nonzero"/><path d="M131.139 130.663c-.916 5.015 2.36 2.299 8.471-.835 22.556-11.554 16.35-10.338 23.493-10.347 63.806-.073 58.196 5.405 60.405-21.934.506-6.244.745-24.801-.372-30.24-1.413-6.898-6.574-8.568-45.99-7.849-61.506 1.122-47.154-3.499-47.775 40.516-.073 5.226-.763 13.559 4.419 17.105.985.673-.72 3.032-2.651 13.584z" fill="#fff" fill-rule="nonzero"/><path d="M223.131 67.307c1.118 5.439.878 23.996.373 30.24-2.21 27.339 3.4 21.861-60.404 21.934-7.148.009-.939-1.207-23.494 10.347-6.112 3.131-9.392 5.85-8.471.835 1.935-10.556 3.636-12.911 2.651-13.584-5.178-3.546-4.493-11.884-4.42-17.105.634-44.019-13.729-39.399 47.776-40.516 39.412-.719 44.572.951 45.985 7.849h.004zm-63.496 49.751c4.882.256 9.772.295 14.659.209 26.037-.454 44.243 2.852 45.416-5.541a288.187 288.187 0 0 0 2.115-33.669c-.025-8.844.339-13.465-5.1-14.766-10.402-2.488-72.918-1.311-80.589.013-7.206 1.242-4.727 13.421-4.504 38.589.149 17.104 6.021 11.52 4.681 16.916-1.144 4.586-1.615 5.618-2.797 11.357 1.327-.698 24.851-13.173 26.123-13.108h-.004z" fill="#191919" fill-rule="nonzero"/><path d="M199.805 97.619a7.713 7.713 0 0 1-5.465-2.154 7.711 7.711 0 0 1-2.359-5.379c-.009-3.854 3.456-6.937 7.798-6.959 9.443-.047 9.897 14.295.021 14.488l.005.004zM184.649 90.104a7.382 7.382 0 0 1-7.191 7.258c-10.038.218-10.932-14.188-.248-14.401 3.572-.074 7.465 3.237 7.435 7.143h.004zM154.748 97.422c-9.631.3-11.177-14.149-.145-14.325 9.541-.15 9.97 14.017.145 14.325z" fill="#6f93fc" fill-rule="nonzero"/><path d="M243.752 315.877c1.927 0 1.931-2.998 0-2.998-1.932 0-1.932 2.998 0 2.998z" fill="#231f20" fill-rule="nonzero"/><path d="M243.752 315.877c1.927 0 1.931-2.998 0-2.998-1.932 0-1.932 2.998 0 2.998z" fill="#231f20" fill-rule="nonzero"/><path d="M243.161 102.218c.813 6.852 6.676 11.161 13.177 12.219 3.845.625 7.674.287 11.537.077 3.619-.197 6.69.278 7.777 4.231.762 2.779-.257 7.1 2.488 9.019 2.955 2.064 5.041-1.859 7.773-2.321 3.246-.548 6.081 1.721 6.406 4.963.356 3.559-2.882 6.026-6.192 5.841v4.283c1.105.055 2.047 1.109 2.934 1.687.972.634 2.051 1.122 3.22 1.208 2.321.175 4.531-.985 5.97-2.767 3.747-4.629.929-10.492.839-15.699-.047-2.754-4.329-2.762-4.282 0 .064 3.785 2.518 9.04.441 12.552-1.165 1.965-2.835 1.841-4.51.664-1.468-1.033-2.77-1.838-4.612-1.932-2.758-.141-2.745 4.133 0 4.282 5.358.296 10.214-3.815 10.479-9.232.266-5.418-3.906-9.876-9.186-10.197a9.92 9.92 0 0 0-3.789.526c-.75.262-2.968 1.046-3.246 1.881-.095.278.128.848.175.325.026-.3-.069-.706-.094-1.01-.065-.784-.099-1.564-.189-2.348-.18-1.571-.467-3.091-1.088-4.551-2.629-6.159-8.659-5.82-14.355-5.504-6.042.338-16.44-.201-17.386-8.209-.321-2.703-4.608-2.736-4.283 0l-.004.012z" fill="#623129" fill-rule="nonzero"/><path d="M244.48 103.803l5.468 1.623c1.016.3 2.459-.364 2.634-1.495.39-2.535.052-4.817-1.345-7.005l-2.928 2.928c6.063 2.673 12.414 4.386 19.026 4.964 3.328.292 6.621.172 9.948.056 3.135-.107 6.476-.176 9.341 1.293 5.246 2.69 7.734 9.43 9.177 14.758 1.328 4.907 3.4 14.902-3.665 16.436l2.419 3.143 1.901-4.299c1.105-2.497-2.582-4.681-3.696-2.163l-1.901 4.299c-.754 1.705.48 3.568 2.42 3.144 7.169-1.559 8.68-9.43 7.863-15.64-.912-6.925-3.281-14.543-7.979-19.879-5.117-5.816-12.154-5.447-19.249-5.246-8.052.227-16.068-1.319-23.439-4.57-1.785-.787-4.201.943-2.929 2.93.736 1.152 1.126 2.329.916 3.708l2.634-1.494-5.469-1.623c-2.646-.784-3.777 3.344-1.139 4.128l-.008.004z" fill="#623129" fill-rule="nonzero"/><path d="M243.169 103.409c1.507 2.403 1.889 5.413 3.901 7.516 2.168 2.27 5.281 2.668 8.257 2.886 2.75.202 2.737-4.081 0-4.282-2.291-.167-4.603-.386-5.854-2.556-1.053-1.825-1.477-3.928-2.604-5.727-1.46-2.329-5.169-.183-3.696 2.163h-.004z" fill="#623129" fill-rule="nonzero"/><path d="M250.334 113.276a33.945 33.945 0 0 0 10.895 1.704c2.753-.012 2.762-4.295 0-4.282a30.344 30.344 0 0 1-9.756-1.55c-2.625-.865-3.747 3.267-1.139 4.128z" fill="#623129" fill-rule="nonzero"/><path d="M249.101 106.775c7.815 5.636 17.883 3.567 26.529 6.758 2.592.955 3.705-3.182 1.14-4.128-8.244-3.045-18.111-.989-25.511-6.326-2.24-1.614-4.377 2.099-2.163 3.696h.005z" fill="#623129" fill-rule="nonzero"/><path d="M250.634 108.248c5.875.792 11.755 1.277 17.682 1.358 4.137.055 4.137-6.368 0-6.424-5.34-.073-10.68-.415-15.978-1.13-1.73-.232-3.43.415-3.953 2.244-.428 1.495.527 3.721 2.244 3.952h.005z" fill="#623129" fill-rule="nonzero"/><path d="M252.201 106.244a147.543 147.543 0 0 0 26.171 3.94c3.712.218 7.455.103 10.188 3.006 2.732 2.904 3.443 6.896 3.879 10.587l5.988-1.624c-4.801-8.157-11.118-15.853-21.165-16.812-2.925-.279-4.026 3.618-2.269 5.481a134.427 134.427 0 0 0 11.327 10.715c1.473 1.237 4.047 1.34 5.045-.651 2.496-4.98-.746-11.263-6.69-10.83-6.526.471-7.16 7.438-8.154 12.483-.736 3.734 3.679 5.319 5.871 2.476l2.66-3.453-3.627 1.478c1.293.189 2.522.322 3.829.257 4.115-.205 4.137-6.629 0-6.424-.703.035-1.422.073-2.121-.025-1.601-.236-2.655.214-3.627 1.477l-2.659 3.452 5.871 2.475.771-3.905c.193-.981.265-2.454.839-3.298.604-.891 2.09-.591 1.495.604l5.045-.651a133.944 133.944 0 0 1-11.327-10.715l-2.27 5.482c7.477.715 12.158 7.756 15.618 13.631 1.499 2.548 6.381 1.687 5.987-1.623-1.092-9.156-4.779-18.286-15.023-19.618-4.903-.639-9.876-.634-14.792-1.26-4.916-.624-10.149-1.635-15.142-2.852-4.017-.976-5.73 5.216-1.71 6.193l-.008.004z" fill="#623129" fill-rule="nonzero"/></svg>