<svg viewBox="0 0 418 319" xmlns="http://www.w3.org/2000/svg" fill-rule="evenodd" clip-rule="evenodd" stroke-miterlimit="10"><path d="M172.297 14.888c19.649-3.036 84.481-13.053 132.514 29.88 49.24 44.007 51.677 117.593 31.057 164.538-26.736 60.867-99.911 94.407-173.639 74.836-60.357-16.025-123.511-68.293-131.742-130.282-10.783-81.192 79.251-129.302 141.81-138.967v-.005z" fill="#f0edf9" fill-rule="nonzero" stroke="#fff" stroke-width=".75"/><path d="M257.421 75.944l-5.996 7.76c-1.717 2.227-.411 6.094 1.919 7.323 2.839 1.503 5.49.454 7.323-1.919l5.995-7.759c1.718-2.228.412-6.095-1.918-7.323-2.839-1.504-5.49-.455-7.323 1.918z" fill="#fcac67" fill-rule="nonzero"/><path d="M251.481 75.828l-3.058 10.082c-.839 2.766 1.002 5.832 3.739 6.586 2.737.754 5.743-.964 6.586-3.739l3.058-10.08c.839-2.767-1.002-5.833-3.739-6.587-2.736-.754-5.742.963-6.586 3.738zM271.125 80.376c1.379 0 1.379-2.141 0-2.141s-1.379 2.141 0 2.141z" fill="#fcac67" fill-rule="nonzero"/><path d="M268.589 76.398a53.404 53.404 0 0 1-11.614 15.104c-3.066 2.784 1.486 7.319 4.544 4.544a58.436 58.436 0 0 0 12.616-16.402c1.897-3.666-3.644-6.92-5.546-3.241v-.005z" fill="#fcac67" fill-rule="nonzero"/><path d="M247.383 90.753a162.63 162.63 0 0 0-.51 14.085c.038 4.586-.09 9.576 1.276 14.004 2.766 8.963 11.28 13.396 19.828 15.455 6.158 1.486 8.788-8.008 2.617-9.498-6.171-1.491-12.458-3.936-13.473-10.827-.518-3.528-.416-7.228-.407-10.791.009-4.15.193-8.291.514-12.428.206-2.655-2.411-4.925-4.925-4.925-2.839 0-4.715 2.261-4.925 4.925h.005z" fill="#fcac67" fill-rule="nonzero"/><path d="M273.913 77.289l-9.79 13.237c-.719.972-.788 1.174-1.465 1.876-.291.304.12.145-.539.445.518-.235-.694.137-.818.176-2.805.856-5.143 2.394-6.711 4.916-2.634 4.244-2.569 9.769-1.674 14.509.921 4.874 3.464 9.366 6.834 12.954 2.69 2.865 8.578 1.692 9.306-2.457l3.966-22.647-10.938-1.481-.398 20.993c-.051 2.745 2.154 5.151 4.826 5.469 2.925.346 5.071-1.332 6.108-3.987l7.635-19.546c1.092-2.801-1.203-6.111-3.888-6.848-3.153-.864-5.752 1.075-6.848 3.889l-7.636 19.545 10.938 1.482.398-20.993c.052-2.745-2.154-5.152-4.826-5.468-2.518-.3-5.623 1.224-6.107 3.987-1.324 7.549-2.643 15.096-3.966 22.645l9.306-2.458c-2.201-2.346-3.657-5.263-4.085-8.697.076.599-.022-.694-.03-.836a23.527 23.527 0 0 1-.014-1.327c.009-.441.027-.887.078-1.328.124-1.04-.163.608.081-.338.056-.218.201-1.31.111-.673.013-.085.335-.899.078-.346.158-.339.651-.378.227-.219-.536.201.685-.15.809-.188 4.835-1.465 7.211-5.221 10.073-9.088l8.565-11.58c1.79-2.419.398-6.213-1.996-7.618-2.831-1.658-5.825-.428-7.619 1.996l.009.004z" fill="#fcac67" fill-rule="nonzero"/><path d="M273.952 85.404l-1.893 19.721c-.291 3.032 2.582 5.764 5.382 6.099 3.324.393 5.577-1.512 6.814-4.45l5.002-11.863-12.197-1.648.626 8.847c.193 2.75 1.794 5.229 4.561 5.987 2.766.758 5.306-.642 7.01-2.852l4.582-5.949-11.348-4.783c-.677 2.929 0 5.739 2.231 7.82 1.036.968 2.347 1.709 3.726 2.051-.086-.021 4.064.497 4.042.231-.694-.06-1.263-.33-1.713-.809a2.042 2.042 0 0 1-.496-.904c-.176-.732-.06-1.443.342-2.136a1.71 1.71 0 0 1 .609-.583c.599-.171.543-.15-.168.06.57-.038.424-.043-.436-.013-.78-.025-1.127-.12-2.108-.325-3.28-.672-6.71.951-7.639 4.338-.844 3.07 1.036 6.963 4.338 7.64 3.301.676 6.514 1.169 9.721.163 3.43-1.08 6.381-3.765 7.344-7.285.909-3.319-.137-7.083-2.539-9.533-1.157-1.177-2.677-2.175-4.278-2.634-.942-.27-1.996-.368-2.968-.398l-.801.035c-2.214-.099-1.323.822 2.664 2.766v3.302l.111-.484c.694-2.998-.672-6.15-3.597-7.327-3.109-1.251-5.807.012-7.756 2.539l-4.582 5.948 11.572 3.135-.626-8.847c-.218-3.071-2.193-5.718-5.383-6.099-3.19-.381-5.576 1.512-6.813 4.45l-5.002 11.862 12.196 1.649 1.893-19.721c.321-3.344-3.084-6.209-6.21-6.209-3.623 0-5.888 2.856-6.209 6.209h-.004z" fill="#fcac67" fill-rule="nonzero"/><path d="M280.816 106.937l-10.941 15.421c-1.941 2.736-.489 6.908 2.226 8.496 3.114 1.82 6.549.514 8.497-2.227l10.942-15.421c1.939-2.736.488-6.908-2.227-8.496-3.114-1.82-6.548-.515-8.497 2.227z" fill="#fcac67" fill-rule="nonzero"/><path d="M272.302 108.286l-6.324 13.785c-1.397 3.045-.866 6.685 2.226 8.497 2.673 1.563 7.092.834 8.496-2.228l6.326-13.785c1.396-3.045.865-6.685-2.227-8.497-2.672-1.563-7.092-.834-8.497 2.228z" fill="#fcac67" fill-rule="nonzero"/><path d="M273.048 111.219l-4.689 14.123c-1.058 3.183 1.225 6.784 4.338 7.641 3.383.929 6.577-1.143 7.639-4.338l4.69-14.124c1.058-3.182-1.225-6.783-4.338-7.64-3.383-.929-6.578 1.143-7.64 4.338z" fill="#fcac67" fill-rule="nonzero"/><path d="M277.223 114.786c-8.941 9.734-7.597 24.158-6.457 36.325.312 3.34 2.628 6.209 6.209 6.209 3.118 0 6.522-2.852 6.21-6.209-.518-5.542-1.041-11.114-.698-16.685.231-3.773 1.152-8.278 3.516-10.856 2.364-2.578 2.44-6.338 0-8.784-2.301-2.299-6.506-2.479-8.784 0h.004z" fill="#fcac67" fill-rule="nonzero"/><path d="M262.654 134.297l.792 20.852c.129 3.353 2.763 6.21 6.21 6.21 3.264 0 6.339-2.844 6.21-6.21l-.792-20.852c-.129-3.353-2.763-6.209-6.21-6.209-3.264 0-6.338 2.843-6.21 6.209z" fill="#fcac67" fill-rule="nonzero"/><path d="M266.016 155.35c-6.668.763-19.036.107-18.115 9.966.754 8.068 11.481 9.186 17.819 9.117 6.339-.068 13.216-1.422 18.303-4.877 3.898-2.647 5.071-8.296 1.555-11.808-2.612-2.612-7.494-2.595-10.937-3.181l-1.649 12.196 22.967-1.041v-12.419l-6.026.613c-3.336.338-6.209 2.612-6.209 6.209 0 3.096 2.852 6.548 6.209 6.21l6.026-.613c3.336-.338 6.21-2.612 6.21-6.209 0-3.247-2.844-6.364-6.21-6.21l-22.967 1.041c-3.071.141-5.726 2.252-6.099 5.383-.333 2.8 1.362 6.286 4.45 6.814l4.034.689 1.615.274c.299.051 2.402.702 1.07-.009l-2.226-2.226-.57-1.919.848-3.135c.235-.509 1.923-1.212.643-.762-.455.163-.883.441-1.329.629.561-.235-.792.283-.903.321-.462.163-.929.313-1.396.455-1.97.59-3.554.929-5.195 1.057-1.944.15-3.927.146-5.867-.077.574.065-.475-.073-.531-.081a32.011 32.011 0 0 1-1.798-.373c-.381-.09-1.011-.398-1.392-.368-.651-.244-.484-.034.51.629.852.514 1.327 1.29 1.425 2.326l-.847 3.134c-.81 1.65-3.251 1.761-1.427 1.581.939-.094 1.872-.214 2.81-.321l5.216-.596c3.332-.381 6.209-2.582 6.209-6.209 0-3.062-2.856-6.595-6.209-6.21h-.017z" fill="#fcac67" fill-rule="nonzero"/><path d="M273.048 141.492l.531 11.092c.158 3.349 2.74 6.209 6.209 6.209 3.238 0 6.373-2.843 6.21-6.209l-.531-11.092c-.159-3.349-2.741-6.21-6.21-6.21-3.237 0-6.372 2.844-6.209 6.21z" fill="#fcac67" fill-rule="nonzero"/><path d="M236.749 165.264l-34.62 20.428c-6.877 4.06-.637 14.796 6.27 10.723l34.62-20.427c6.878-4.06.638-14.796-6.27-10.724zM274.521 189.704c-17.961 4.142-35.412 11.04-51.365 20.278-4.269 2.471-8.937 4.989-12.62 8.295-5.97 5.357-7.345 15.079-.466 20.389 4.984 3.85 10.967 3.002 16.851 2.754l15.348-.651 34.11-1.452c5.255-.223 10.317-4.471 10.065-10.064-.236-5.259-4.428-10.303-10.065-10.064-17.763.754-35.532 1.512-53.295 2.266-.993.043-1.992.103-2.985.128.021 0-1.156-.047-1.212.009.369-.368 2.741.77 2.809.818l1.765 4.269c1.927 1.868 2.334 3.752 1.225 5.649-.06.099-1.401 1.409-.609.835l.223-.227c.647-.565.629-.565-.055-.008-.737.556-.703.556.098 0l.629-.416a172.234 172.234 0 0 1 9.983-6.085 175.709 175.709 0 0 1 15.503-7.777c.458-.201.925-.398 1.383-.604 1.054-.471-.634.253-.668.278.818-.612 2.188-.903 3.143-1.28a177.647 177.647 0 0 1 25.554-7.931c5.134-1.182 8.655-7.358 7.027-12.381-1.738-5.37-6.877-8.295-12.381-7.028h.005z" fill="#fff" fill-rule="nonzero"/><path d="M236.827 214.8l.286 24.671c.065 5.375 4.681 10.531 10.278 10.278 5.516-.248 10.346-4.518 10.278-10.278l-.286-24.671c-.065-5.374-4.681-10.531-10.278-10.278-5.517.248-10.347 4.518-10.278 10.278z" fill="#fff" fill-rule="nonzero"/><path d="M216.065 252.297l3.67 44.269c.428 5.143 3.584 9.379 8.912 10.093 4.727.634 10.278-2.329 11.276-7.361l10.008-50.38-20.188-2.732 1.692 38.723c.223 5.139 3.739 9.4 8.911 10.094 4.951.664 9.97-2.381 11.277-7.362l8.496-32.35-20.188-2.732.21 34.748c.03 5.13 3.889 9.417 8.912 10.094 5.024.676 9.773-2.424 11.276-7.362l12.71-41.775-20.187-2.733-2.544 33.922c-.381 5.087 4.205 9.46 8.911 10.094 4.707.633 10.245-2.334 11.277-7.362l7.353-35.751-20.188-2.731-2.06 17.386-.981 8.283a1167.485 1167.485 0 0 1-.616 5.173c-.099.797-.056.463.136-1.002.15.128-.252 1.541-.286 1.721-.215 1.14-.596 2.227-.853 3.349-.274 1.182 1.032-1.858.12-.248-.278.497-.595.976-.874 1.469-.646 1.148 1.551-1.623.27-.424-.201.214-.411.415-.629.612-.583.519-.265.291.955-.681-.818.291-1.713 1.088-2.505 1.503-1.58.836 1.738-.594.535-.222-.48.15-.951.334-1.434.48-.981.295-1.979.531-2.985.732-.613.12-1.225.219-1.838.321-1.854.309 1.885-.205.574-.077-1.122.107-2.24.231-3.366.326-5.143.432-9.379 3.579-10.094 8.911-.608 4.527 2.3 10.553 7.362 11.276a905.338 905.338 0 0 1 65.055 11.773c5.238 1.148 11.366-1.567 12.642-7.177 1.182-5.191-1.563-11.414-7.177-12.642a904.26 904.26 0 0 0-65.056-11.773l-2.732 20.188c6.376-.536 12.514-1.375 18.355-4.107 6.39-2.994 10.839-8.737 12.847-15.422 1.893-6.299 2.06-13.331 2.831-19.845l2.355-19.87c.279-2.334-1.327-5.722-3.01-7.268-1.696-1.559-3.606-2.518-5.901-2.827-4.754-.638-10.244 2.334-11.276 7.362l-7.353 35.751 20.187 2.732 2.544-33.922c.381-5.088-4.205-9.46-8.912-10.094-5.096-.685-9.772 2.424-11.275 7.362l-12.711 41.776 20.188 2.732-.21-34.748c-.03-5.131-3.889-9.417-8.912-10.095-5.024-.676-9.97 2.382-11.276 7.362l-8.496 32.35 20.187 2.732-1.691-38.722c-.223-5.139-3.739-9.4-8.912-10.094-4.728-.633-10.278 2.33-11.276 7.362l-10.008 50.379 20.187 2.733-3.669-44.268c-.441-5.345-4.411-10.54-10.278-10.278-5.187.231-10.754 4.539-10.278 10.278l.004-.014z" fill="#fcac67" fill-rule="nonzero"/><path d="M276.409 266.366l81.33 7.605c2.89.27 6.501-1.533 8.479-3.511 2.081-2.082 3.644-5.491 3.512-8.48-.313-6.997-5.28-11.361-11.991-11.991l-81.33-7.605c-2.89-.27-6.5 1.533-8.478 3.511-2.082 2.081-3.645 5.49-3.513 8.48.313 6.997 5.281 11.361 11.991 11.991z" fill="#fcac67" fill-rule="nonzero"/><path d="M366.877 270.348c6.274 0 12.282-5.515 11.991-11.991-.291-6.475-5.267-11.991-11.991-11.991-6.273 0-12.282 5.516-11.991 11.991.291 6.497 5.268 11.991 11.991 11.991z" fill="#fcac67" fill-rule="nonzero"/><path d="M354.685 262.67a26.38 26.38 0 0 1 .813 3.644l-.428-3.186c.236 2.004.232 3.97.022 5.974l.428-3.186c-.308 2.283-1.199 4.334-1.653 6.548.518-2.531.698-1.593.21-.6a30.342 30.342 0 0 1-.801 1.525 32.752 32.752 0 0 1-1.648 2.625c-.498.72-1.692 1.807.436-.489-.313.335-.583.716-.882 1.067a42.658 42.658 0 0 1-2.116 2.283 42.656 42.656 0 0 1-2.274 2.124c-.42.364-.861.706-1.276 1.07-1.04.913 2.531-1.828.625-.484-1.597 1.127-3.211 2.202-4.92 3.148-.852.476-1.717.921-2.595 1.345-.339.163-1.14.694-1.473.681.243.008 2.65-1.058 1.066-.458-3.876 1.468-7.828 2.526-11.935 3.113l3.186-.428a53.334 53.334 0 0 1-13.619.03l3.186.428a49.63 49.63 0 0 1-11.896-3.186c-2.685-1.092-6.857-.189-9.242 1.207-2.488 1.456-4.861 4.308-5.512 7.165-.698 3.071-.548 6.514 1.208 9.242 1.756 2.727 4.111 4.265 7.165 5.511 12.312 5.015 26.829 5.255 39.523 1.521 13.605-4.005 26.65-12.878 33.703-25.413 4.942-8.784 6.749-19.438 3.825-29.198-1.799-6.004-8.492-10.402-14.75-8.377-6.068 1.966-10.303 8.317-8.376 14.749v.005z" fill="#fcac67" fill-rule="nonzero"/><path d="M286.722 283.547c.655-1.028.346-.664-.917 1.083.236-.27.489-.522.759-.758-1.756 1.285-2.138 1.593-1.136.929.309-.188.626-.359.951-.513-2.038.813-2.479 1.011-1.323.595.359-.12.719-.223 1.088-.317a22.64 22.64 0 0 1 2.274-.441l-3.186.428c4.728-.612 9.575-.286 14.328-.253l16.566.116 16.564.116c5.285.038 10.847-.42 16.098.214l-3.186-.428c.86.214.724.115-.411-.296-2.566-.921-4.347-2.873-5.349-5.858l-.428-3.186v.539l.428-3.186c-.304 1.246.034.788 1.015-1.375.48-1.362 1.349-2.381 2.604-3.062.706-.368 2.668-.89.779-.462-1.207.274-2.449.411-3.674.595l-8.78 1.324-17.558 2.646-35.116 5.298c-2.771.419-5.82 3.207-7.165 5.511-1.503 2.569-2.141 6.36-1.208 9.242.934 2.882 2.737 5.7 5.512 7.165 3.036 1.605 5.867 1.716 9.242 1.207l34.281-5.169 16.723-2.522 8.36-1.259c3.533-.531 6.933-.857 10.154-2.587 9.853-5.302 11.566-19.94 1.345-25.973-5.594-3.303-13.165-2.287-19.404-2.33-11.61-.082-23.22-.163-34.835-.249-12.898-.089-28.285-1.593-36.093 11.109-3.289 5.349-1.336 13.426 4.304 16.406 5.64 2.981 12.895 1.41 16.407-4.303l-.013.004z" fill="#fcac67" fill-rule="nonzero"/><path d="M148.333 196.205l3.045.609a9.083 9.083 0 0 0 4.783.213 8.93 8.93 0 0 0 4.458-1.422 9.068 9.068 0 0 0 3.366-3.087 9.013 9.013 0 0 0 2.146-4.077l.428-3.186a11.956 11.956 0 0 0-1.636-6.051l-1.875-2.428a11.957 11.957 0 0 0-5.294-3.084l-3.044-.608a9.087 9.087 0 0 0-4.784-.214 8.94 8.94 0 0 0-4.458 1.422 9.086 9.086 0 0 0-3.366 3.088 9.001 9.001 0 0 0-2.145 4.077l-.429 3.186a11.972 11.972 0 0 0 1.636 6.051l1.876 2.428a11.967 11.967 0 0 0 5.293 3.083z" fill="#fff" fill-rule="nonzero"/><path d="M159.133 196.937c6.274 0 12.282-5.515 11.991-11.991-.291-6.496-5.267-11.991-11.991-11.991-6.273 0-12.282 5.517-11.991 11.991.291 6.497 5.268 11.991 11.991 11.991z" fill="#fff" fill-rule="nonzero"/><path d="M153.403 203.195l.609.308a8.906 8.906 0 0 0 4.458 1.421 9.087 9.087 0 0 0 4.783-.214 9.05 9.05 0 0 0 4.077-2.145 9.033 9.033 0 0 0 3.088-3.366l1.207-2.865c.57-2.124.57-4.248 0-6.377l-1.207-2.865a12.052 12.052 0 0 0-4.304-4.304l-.609-.308a8.897 8.897 0 0 0-4.458-1.422 9.097 9.097 0 0 0-4.783.214 9.062 9.062 0 0 0-4.077 2.146 9.033 9.033 0 0 0-3.088 3.366l-1.207 2.865a12.1 12.1 0 0 0 0 6.376l1.207 2.865a12.063 12.063 0 0 0 4.304 4.305z" fill="#fff" fill-rule="nonzero"/><path d="M174.367 205.22a65.914 65.914 0 0 1 2.072 4.038c1.144 2.42-.942-2.591-.047-.068.252.715.518 1.421.758 2.141.946 2.882 1.588 5.841 1.996 8.847l-.429-3.186c.27 2.262.497 4.553.27 6.822l.429-3.186c-.202 1.383-1.234 2.908.466-.141-.604 1.045-.278.668.977-1.131a8.346 8.346 0 0 1 3.396-2.043l3.186-.428c-.39.082-.784.103-1.178.069l3.186.428c-.535-.081-2.222-.663-.291.09.626.146 1.16.454 1.606.917.788.667.951.779.488.334-.997-.951 1.405 2.338.433.556-.218-.398-.454-.787-.668-1.19-1.191-2.257-2.257-4.583-3.384-6.874l-6.83-13.943c-2.227-4.544-8.792-7.049-13.541-5.512-5.139 1.661-8.651 6.098-8.805 11.563l-.929 33.476c-.168 5.97 4.689 11.01 10.398 11.777 5.335.715 12.234-2.689 13.155-8.591.921-5.901.403-10.843-2.261-16.115-2.12-4.196-5.439-7.361-9.173-10.106-6.146-4.515-14.064-6.617-21.16-9.199-5.905-2.15-13.391 2.411-14.749 8.377-1.542 6.762 2.056 12.448 8.377 14.748 2.556.93 5.113 1.854 7.665 2.793 1.118.411 2.24.946 3.38 1.288-.951-.282-2.253-1.002-.549-.201.544.253 1.08.518 1.611.801 1.035.552 1.986 1.396 3.036 1.889-.411-.193-1.872-1.636-.81-.557.381.385.762.8 1.152 1.173 1.011.964-1.503-2.325-.462-.604.282.467.54.955.826 1.418.716 1.152-.745-2.702-.346-.767.128.63.312 1.238.415 1.876l-.428-3.186c.089.865.098 1.687.021 2.552l.428-3.186-.098.638 23.554 3.187.929-33.477-22.346 6.051c3.079 6.282 6.153 12.565 9.233 18.843 1.983 4.043 4.552 8.043 8.608 10.308 5.199 2.908 11.622 3.319 16.842.159 9.024-5.465 8.754-16.141 7.443-25.25-1.027-7.135-3.605-14.042-7.143-20.312-3.083-5.468-11.019-7.772-16.406-4.304-5.387 3.469-7.601 10.557-4.303 16.407v-.009z" fill="#fcac67" fill-rule="nonzero"/><path d="M155.48 226.487c6.274 0 12.283-5.516 11.991-11.991-.291-6.475-5.267-11.991-11.991-11.991-6.274 0-12.282 5.516-11.991 11.991.292 6.475 5.268 11.991 11.991 11.991z" fill="#fcac67" fill-rule="nonzero"/><path d="M132.436 216.676c-3.768 10.166-7.417 20.782-7.096 31.789.317 10.744 4.047 21.806 12.133 29.206l11.665-20.042-2.938-.903c-4.869-1.499-11.13.946-13.542 5.511a14.238 14.238 0 0 0-1.635 6.052c-.15 3.323 1.542 6.025 3.511 8.478 5.114 6.378 13.923 10 22.013 9.671 6.261-.253 12.291-5.332 11.991-11.991-.3-6.66-5.272-12.111-11.991-11.991l-4.797.085c-5.991.108-10.98 4.479-11.777 10.398-.766 5.709 2.762 11.721 8.591 13.156 22.68 5.576 47.069-4.287 59.664-23.896 2.595-4.035 1.875-9.679-.938-13.319-3.097-4.009-7.738-5.208-12.604-4.295-12.123 2.265-24.264 5.01-36.469 6.757l3.186-.428c-1.538.18-3.023.24-4.561.068l3.186.429c-.06-.013-2.077-.369-2.056-.51-.008.073 3.093 1.341 1.002.288-1.203-.605 2.125 1.986.793.607a8.945 8.945 0 0 1-.625-.637c-.612-.686-.304-.266.924 1.263-.183-.446-.573-.861-.813-1.281-1.173-2.073.459.805.287.925-.03.022-.904-3.319-.947-3.567l.429 3.186c-.253-1.978-.184-3.931.06-5.905l-.429 3.186c.561-3.67 1.731-7.165 2.951-10.664h-23.126c2.454 10.599 12.12 19.614 22.857 21.413 6.972 1.169 13.044.072 19.386-3.024 2.193-1.071 4.248-2.389 6.394-3.546.536-.287 1.088-.548 1.623-.834 1.803-.96-2.103.702-.711.321 1.208-.33 2.326-.677 3.576-.857l-3.186.428a14.597 14.597 0 0 1 3.237.026l-3.186-.428c.536.098 2.261.736.403-.103-1.953-.882-.043.055.287.261 5.331 3.323 13.438 1.315 16.406-4.304 2.968-5.619 1.388-12.86-4.304-16.406-7.443-4.638-16.119-3.413-23.721-.052-2.428 1.075-4.668 2.484-6.988 3.769a38.2 38.2 0 0 1-1.611.857c-.325.167-.651.321-.981.471-.834.381-.436.21 1.191-.514-1.191.141-2.385.719-3.606.886l3.186-.428a18.048 18.048 0 0 1-3.936-.038l3.187.428a18.854 18.854 0 0 1-2.215-.45c-.363-.098-.719-.235-1.083-.33-1.623-.428 1.233.587 1.281.583-.51.038-1.581-.797-2.013-1.058-.326-.197-.634-.42-.955-.621-1.615-1.006 1.803 1.649.856.655-.518-.544-1.092-1.049-1.614-1.588-.317-.326-1.221-1.5.047.12 1.267 1.618.355.462.129.06-.296-.528-1.431-2.87-.561-.814.869 2.056-.116-.664-.257-1.264-1.14-4.912-6.492-9.031-11.563-8.804-5.546.248-9.747 3.61-11.563 8.804-2.775 7.936-4.856 16.385-2.642 24.749 2.214 8.364 8.556 15.738 17.07 17.717 8.338 1.939 17.361-.938 25.588-2.476l22.564-4.218-13.541-17.614c-.441.685-.908 1.345-1.366 2.017-1.251 1.833 1.952-2.372.193-.27a40.696 40.696 0 0 1-4.454 4.553c-.75.655-3.126 2.12.072.038-1.19.775-2.299 1.654-3.516 2.394a44.788 44.788 0 0 1-3.734 2.047c-.934.454-3.58 1.191.082.034-.578.185-1.135.45-1.709.656-2.869 1.032-5.829 1.747-8.847 2.196l3.186-.428c-3.834.51-7.666.536-11.503.03l3.186.428a46.32 46.32 0 0 1-4.18-.817l-3.186 23.554 4.796-.087v-23.982a18.63 18.63 0 0 1-3.211-.141l3.186.429c-.857-.146-1.67-.369-2.506-.587-1.588-.411.771.462 1.062.514-.475-.082-1.023-.506-1.43-.741-.372-.214-.715-.479-1.088-.689-1.152-.66 1.799 1.665.909.684-.651-.719-1.362-1.348-1.975-2.115l-11.666 20.042 2.938.904c4.87 1.499 11.131-.947 13.541-5.512 2.412-4.565 2.146-10.852-1.875-14.531a24.38 24.38 0 0 1-1.807-1.802c-.215-.236-.42-.48-.617-.724-.578-.711-.274-.321.912 1.169-.497-1.263-1.597-2.603-2.24-3.828-1.066-2.03.883 2.552.219.509-.265-.817-.557-1.618-.788-2.445-.403-1.456-.686-2.938-.904-4.437l.428 3.186c-.471-3.7-.372-7.366.116-11.062l-.428 3.187c1.096-7.405 3.644-14.428 6.235-21.417 2.184-5.893-2.437-13.396-8.377-14.749-6.796-1.546-12.41 2.069-14.748 8.377l.021.013z" fill="#fcac67" fill-rule="nonzero"/><path d="M144.208 225.875c6.275 0 12.283-5.517 11.991-11.991-.291-6.476-5.267-11.991-11.991-11.991-6.273 0-12.282 5.515-11.991 11.991.292 6.474 5.268 11.991 11.991 11.991z" fill="#fcac67" fill-rule="nonzero"/><path d="M115.58 129.278c8.312.313 16.068-1.422 23.263-5.199 7.486-2.436 13.965-6.594 19.434-12.483 5.888-5.469 10.051-11.949 12.484-19.434 3.78-7.194 5.515-14.95 5.198-23.262l-2.158-16.051c-2.869-10.232-8.047-19.113-15.529-26.646L146.05 16.76c-9.417-5.46-19.575-8.21-30.478-8.244-8.312-.312-16.068 1.422-23.263 5.199-7.486 2.437-13.965 6.595-19.434 12.484-5.888 5.468-10.051 11.948-12.483 19.433-3.782 7.195-5.516 14.951-5.199 23.263l2.158 16.051c2.869 10.231 8.047 19.113 15.529 26.646l12.222 9.442c9.417 5.46 19.575 8.21 30.478 8.244zM247.053 71.075c8.514 0 16.668-7.486 16.273-16.274-.393-8.788-7.151-16.273-16.273-16.273-8.513 0-16.667 7.485-16.274 16.273.395 8.788 7.152 16.274 16.274 16.274z" fill="#fff" fill-rule="nonzero"/><path d="M246 73.811c8.513 0 16.667-7.485 16.273-16.273-.394-8.788-7.152-16.274-16.273-16.274-8.514 0-16.668 7.486-16.274 16.274.394 8.788 7.152 16.273 16.274 16.273zM54.161 186.732a346.032 346.032 0 0 0 54.931 1.264c2.887-.163 5.353-2.343 5.353-5.354 0-2.77-2.454-5.515-5.353-5.352a345.57 345.57 0 0 1-54.931-1.264c-2.883-.296-5.353 2.672-5.353 5.353 0 3.139 2.466 5.058 5.353 5.353z" fill="#fff" fill-rule="nonzero"/><path d="M109.477 186.578c6.891 0 6.9-10.706 0-10.706-6.898 0-6.898 10.706 0 10.706z" fill="#fff" fill-rule="nonzero"/><path d="M102.921 186.694l-.035 3.366c-.029 2.8 2.484 5.482 5.354 5.353 2.869-.129 5.323-2.351 5.353-5.353l.034-3.366c.03-2.801-2.484-5.482-5.353-5.354-2.869.129-5.323 2.352-5.353 5.354z" fill="#fff" fill-rule="nonzero"/><path d="M102.955 183.807c-15.297 1.893-31.074 1.504-45.694-1.237-4.128-.775-8.907 1.837-8.672 6.608l2.03 41.446c.176 3.576 3.028 7.023 6.852 6.852 3.563-.159 7.041-3.019 6.852-6.852l-2.03-41.446-8.672 6.607c16.286 3.054 32.881 3.761 49.334 1.726 3.546-.436 7.032-2.839 6.852-6.852-.15-3.336-3.04-7.323-6.852-6.852z" fill="#fff" fill-rule="nonzero"/><path d="M63.394 206.809l36.311-3.113c1.152-.099 2.647.038 3.756-.266-2.596-.415-3.957-1.534-4.09-3.358-.052-.51-.056-.411-.009.296 0 .702.039 1.405.056 2.107l.231 8.843.489 18.526c.093 3.58 3.083 7.02 6.852 6.852 3.768-.167 6.954-3.015 6.852-6.852l-.544-20.633c-.09-3.328.038-6.745-.317-10.055-.544-5.071-3.624-8.908-8.921-9.362-3.075-.265-6.351.373-9.421.639l-10.133.869-21.112 1.811c-3.563.305-7.028 2.934-6.852 6.852.154 3.452 3.027 7.182 6.852 6.852v-.008z" fill="#fff" fill-rule="nonzero"/><path d="M103.799 222.911l-40.572-.317 6.608 8.672c1.494-7.803 1.597-15.383.526-23.232-.458-3.362-4.539-5.311-7.52-4.908-3.216.432-6.102 3.31-5.94 6.728l.6 12.62c.137 2.912 2.021 5.923 5.032 6.608 3.011.685 6.231-.42 7.738-3.147l6.818-12.334-12.77-3.461.604 12.45c.381 7.828 10.924 9.165 13.459 1.82l4.737-13.721-13.46-1.821.296 16.005c.055 2.903 2.076 5.935 5.031 6.607 2.827.643 6.356-.373 7.739-3.148l10.132-20.363-12.77-3.46-.788 12.158c-.433 6.655 9.82 9.516 12.77 3.46l5.991-12.312-12.77-3.46-.283 17.207c-.046 2.886 2.15 5.953 5.033 6.608 2.766.63 6.444-.347 7.738-3.148l6.933-15.005-12.77-3.461-.866 8.042c-.363 3.375 2.887 6.321 5.94 6.729 3.319.445 6.621-1.593 7.521-4.908l1.545-5.713-13.215-3.644-1.563 8.522c-.642 3.511.963 7.558 4.788 8.428 3.357.766 7.738-1.015 8.427-4.788l1.563-8.523c.643-3.511-.963-7.558-4.788-8.427-3.605-.822-7.425 1.083-8.427 4.788l-1.546 5.712 13.459 1.821.866-8.043c.715-6.664-9.987-9.486-12.77-3.46l-6.934 15.005 12.77 3.461.283-17.208c.047-2.886-2.15-5.952-5.032-6.607-2.882-.656-6.385.364-7.738 3.148l-5.991 12.312 12.77 3.46.788-12.158c.432-6.689-9.777-9.469-12.771-3.461l-10.132 20.364 12.771 3.46-.296-16.003c-.064-3.423-2.561-6.275-5.94-6.729-3.49-.466-6.389 1.645-7.52 4.908l-4.736 13.722 13.459 1.819-.604-12.449c-.141-2.912-2.016-5.922-5.031-6.608-2.921-.663-6.231.42-7.739 3.148l-6.817 12.334 12.77 3.46-.599-12.621-13.46 1.821c-.078-.553.128 1.46.128 1.438.06.681.103 1.362.137 2.048.077 1.503.094 3.006.056 4.509a56.635 56.635 0 0 1-.253 4.094c-.158 1.61-.248 2.047-.595 3.859-.831 4.342 1.88 8.637 6.608 8.671l40.572.317c3.584.03 7.015-3.173 6.852-6.852-.167-3.734-3.01-6.822-6.852-6.852v.009zM82.134 183.452c3.584 0 7.019-3.152 6.852-6.852-.167-3.7-3.011-6.852-6.852-6.852-3.584 0-7.019 3.152-6.852 6.852.167 3.7 3.01 6.852 6.852 6.852zM57.124 280.596l44.418 1.538c.985.034 1.974.06 2.959.102.253.013 2.21.111.934.009 1.139.09.377.167-.15-.339-.74-.714-.471-1.794-.424-.441.107.501.095.356-.043-.436.026.385.035.775.03 1.16a21.75 21.75 0 0 1-.107 1.769c-.141 1.507-.368 3.006-.484 4.522-.565 7.379.326 14.938 2.347 22.046l6.608-8.671c-2.766.252-5.533.325-8.308.158a56.031 56.031 0 0 1-1.884-.15c-.15-.013-1.688-.193-.806-.073a45.388 45.388 0 0 1-3.717-.681c-2.71-.595-5.357-1.417-7.952-2.406-.711-.27-1.306-.544-2.514-1.14a51.187 51.187 0 0 1-6.325-3.708c-.463-.317-.921-.647-1.38-.977-1.755-1.267.917.801-.749-.582a57.265 57.265 0 0 1-5.186-4.835 61.456 61.456 0 0 1-2.45-2.796c-.226-.275-.621-.784-.18-.21a53.497 53.497 0 0 1-1.19-1.64 54.194 54.194 0 0 1-3.798-6.381l-7.739 10.063c2.69.583 6.334 1.683 8.227 2.519 1.756.774 5.036 2.56 7.224 4.029.66.441 1.307.9 1.941 1.371-.767-.57.534.437.744.612a48.366 48.366 0 0 1 3.495 3.221c1.032 1.049 1.995 2.158 2.942 3.289.497.595.077.068-.017-.048.325.408.638.827.955 1.238.668.861 1.323 1.739 2.102 2.506 3.243 3.19 7.649 4.787 12.146 3.669 4.124-1.023 6.912-4.774 8.188-8.607 2.411-7.229.026-15.76-5.995-20.415-7.375-5.696-16.351-4.917-25.036-3.636l3.644 13.216c.291-.107 2.202-.514 1.495-.467-1.191.073 1.837.219.655.034-1.07-.171 2.008.84.42.073.313.15 1.61 1.182.673.313.248.231 1.13 1.512.531.505.235.394.672 1.687.363.612.146.506.261 1.808.219.621.025.416.025.827-.005 1.242.125-.792.099-.788-.073.013-.856 3.473 1.11 7.593 4.788 8.429 3.679.834 7.512-1.063 8.428-4.788 1.431-5.799-.103-12.197-4.556-16.326-4.338-4.02-10.98-5.528-16.577-3.473-3.354 1.234-5.992 4.703-4.788 8.429 1.203 3.725 4.616 5.348 8.427 4.787 2.377-.351 6.784-.89 9.036-.428.639.129 1.242.317 1.868.484.757.278.809.283.163.008.389.18.766.378 1.139.587.265.154 1.631 1.246.676.394.236.21 1.323 1.396.617.471.244.343.466.702.668 1.075-.188-.569-.15-.463.111.326.03.12.317 2.089.24.967.03.476.038.951.026 1.427-.073.801-.069.946.012.441.057-.681-.299 1.186-.376 1.434.334-.723.325-.741-.035-.051l.416-.48c-.548.54-.506.527.128-.047.664-.441 1.409-.556 2.236-.355l.355.197c-.698-.433-.792-.476-.282-.133-.274-.232-1.461-1.597-1.268-1.362-1.662-2.013-4.06-5.083-6.411-7.285a59.717 59.717 0 0 0-8.059-6.299c-5.49-3.58-11.756-6.171-18.158-7.555-5.97-1.288-10.505 4.643-7.739 10.065 10.874 21.3 34.414 34.405 58.272 32.208 4.33-.398 7.918-4.064 6.608-8.672-2.081-7.318-2.416-13.909-1.503-21.759.402-3.452.334-7.079-1.362-10.214-2.351-4.338-6.719-6.004-11.422-6.325-7.931-.544-15.935-.565-23.879-.84l-24.538-.847c-3.585-.125-7.015 3.241-6.852 6.852.171 3.819 3.01 6.719 6.852 6.852l-.009-.005z" fill="#fff" fill-rule="nonzero"/><path d="M93.701 315.752c3.357 0 6.209-2.853 6.209-6.21 0-3.358-2.843-6.21-6.209-6.21-3.366 0-6.21 2.852-6.21 6.21 0 3.357 2.844 6.21 6.21 6.21zM117.949 306.92l5.905.964c1.871.305 4.008-.484 4.48-2.544.398-1.751-.531-4.15-2.544-4.479l-5.906-.964c-1.872-.303-4.008.484-4.479 2.544-.399 1.752.531 4.15 2.544 4.479zM245.64 7.022c4.411 0 4.415-6.852 0-6.852s-4.415 6.852 0 6.852zM221.688 242.876c-2.729 6.668 2.642 13.52 8.804 15.537 5.795 1.897 12.947.908 18.792-.257 12.026-2.394 23.391-11.194 23.708-24.312.167-6.89-10.539-6.89-10.707 0-.072 2.93-1.447 5.816-3.704 8.137-2.659 2.732-6.145 4.372-9.986 5.362-3.842.989-8.21 1.46-12.313 1.284-1.336-.055-3.061-.333-3.961-1.126-.026-.026-.638-.947-.484-.647-.098-.188-.176-.878-.116-.295-.115.368-.12.368-.017-.005.065-.286.167-.564.3-.83 1.097-2.677-1.186-5.884-3.739-6.586-3.066-.844-5.485 1.053-6.586 3.738h.009z" fill="#fff" fill-rule="nonzero"/><path d="M264.932 233.018c-18.406 6.582-37.917 8.783-57.334 6.513-2.877-.333-5.353 2.703-5.353 5.353 0 3.174 2.467 5.015 5.353 5.354 20.226 2.364 41.005-.039 60.178-6.895 2.719-.972 4.548-3.649 3.738-6.587-.724-2.629-3.85-4.719-6.586-3.738h.004z" fill="#fff" fill-rule="nonzero"/><path d="M261.207 133.951c-14.492-3.906-17.987-20.047-16.535-34.881a69.107 69.107 0 0 1 2.651-12.92.951.951 0 0 1 1.152-.699.957.957 0 0 1 .702 1.152 105.16 105.16 0 0 0-1.439 12.69c-.822 14.088 1.597 28.838 15.383 31.878a1.588 1.588 0 0 1 1.237 1.546c-.09 6.287.261 17.473.45 22.685a1.105 1.105 0 0 1-1.019 1.19h-.009c-1.495.154-2.98.403-4.441.741a.973.973 0 0 1-1.13-.762.964.964 0 0 1 .74-1.131c4.104-1.028 3.298-.827 3.538-.903-.66-7.071-1.221-13.37-1.276-20.582l-.004-.004z" fill="#191919" fill-rule="nonzero"/><path d="M257.031 108.324l3.829-.038a.961.961 0 0 1 .214 1.909c-1.769.493-3.568.87-5.387 1.131a1.497 1.497 0 0 1-1.585-1.357c-.124-1.439-.227-2.857-.244-4.283a42.057 42.057 0 0 1 1.071-9.931c.312-1.097 1.327-4.317 2.569-3.965 1.983.582-.706 6.012-.463 16.539l-.004-.005zM262.864 117.746c3.396 7.725 14.313 4.205 12.42-6.069a.976.976 0 0 0-1.131-.783.97.97 0 0 0-.797 1.011c.283 4.74-4.453 10.26-8.864 4.872a.948.948 0 0 0-1.628.969z" fill="#191919" fill-rule="nonzero"/><path d="M265.348 88.089c2.681-2.925 6.873-2.355 9.849.287a.96.96 0 0 0 1.401-1.314c-3.777-4.836-10.706-5.067-12.847 0-.502 1.164.706 1.995 1.597 1.027z" fill="#8e4e1b" fill-rule="nonzero"/><path d="M270.076 93.293a3.8 3.8 0 1 1 1.965 7.344 3.799 3.799 0 0 1-4.783-3.662 3.33 3.33 0 0 1 2.818-3.682z" fill="#191919" fill-rule="nonzero"/><path d="M176.516 50.746c-9.794-34.363-45.587-54.277-79.95-44.483-34.363 9.795-54.276 45.588-44.482 79.95.094.339.197.673.295 1.011 10.137 34.539 46.358 54.319 80.897 44.183l.072-.022c33.897-9.841 53.399-45.295 43.557-79.192a50.575 50.575 0 0 0-.432-1.422l.043-.021v-.004zm-17.092 58.306c-22.384 24.402-60.31 26.037-84.711 3.653-24.402-22.385-26.038-60.311-3.654-84.712C89.667 7.711 119.692 2.7 143.875 15.848c35.669 19.014 42.05 64.134 15.549 93.204z" fill="#191919" fill-rule="nonzero" stroke="#fff" stroke-width=".75"/><path d="M114.638 70.304c6.086.355 14.291-.279 21.288-.146a.96.96 0 0 1 .956.959.959.959 0 0 1-.896.951c-7.614.609-14.731 1.928-22.988 1.32a1.59 1.59 0 0 1-1.46-1.5c-.857-14.543-2.334-21.866-1.855-33.951a.953.953 0 0 1 .904-.99.952.952 0 0 1 .989.904c.026.227 2.18 15.773 3.062 32.449v.004zM63.582 71.765a52.354 52.354 0 0 0 8.578-.643.97.97 0 0 0 .835-1.088.965.965 0 0 0-.938-.839 18.053 18.053 0 0 0-8.864.698c-1.2.548-.908 1.854.389 1.872zM160.14 68.45c2.458.325 4.954.291 7.404-.103a.97.97 0 0 0 .835-1.088.965.965 0 0 0-.938-.839 13.873 13.873 0 0 0-7.631.163c-1.19.505-.964 1.756.33 1.867zM110.112 16.036c-.412-1.25-1.713-1.118-1.893.163a30.402 30.402 0 0 0 1.049 9.623c.402 1.349 1.91 1.01 1.914-.214a35.368 35.368 0 0 0-1.07-9.576v.004zM114.908 114.812a20.722 20.722 0 0 0 1.07 7.55.977.977 0 0 0 1.928-.266c.06-2.556-.321-5.1-1.131-7.524-.539-1.28-1.721-1.011-1.867.244v-.004z" fill="#191919" fill-rule="nonzero" stroke="#fff" stroke-width=".75"/><path d="M330.433 262.691a70.308 70.308 0 0 0-9.117-2.411l-.137-1.627a.97.97 0 0 0-1.94-.03c0 .055 0 .115.013.171v1.006c-6.077-1.336-24.016-5.995-36.851-8.286a76.008 76.008 0 0 0-16.804-1.542.96.96 0 0 0-.125 1.914c1.19.163 12.869 2.163 13.079 2.198 12.18 2.085 21.318 4.581 30.495 6.354 19.679 3.799 21.657 5.024 22.056 3.426a.985.985 0 0 0-.677-1.177l.008.004zM235.486 267.728c2.535.667 5.199.71 7.755.123 1.298-.346 4.998-1.563 4.338-2.942-.449-.985-1.361-.329-3.288.022a21.71 21.71 0 0 1-8.06-.33 26.624 26.624 0 0 1-6.625-2.758c-3.165-1.653-3.567-2.038-4.154-1.379-1.156 1.216 3.259 5.782 10.038 7.259l-.004.005zM230.471 279.003a21.549 21.549 0 0 0 7.199 1.358 18.528 18.528 0 0 0 7.259-1.028c1.537-.587 3.867-1.387 3.37-2.569-.351-.934-1.161-.51-3.105-.185a40.82 40.82 0 0 1-7.404.574 29.46 29.46 0 0 1-6.372-1.049c-2.917-.505-3.666-.917-4.095-.021-.526 1.1 2.347 2.586 3.148 2.916v.004zM176.045 233.215c.857 6.886 2.141 9.97 3.516 20.239a.965.965 0 0 1-.728 1.152.966.966 0 0 1-1.152-.729c0-.016-.009-.038-.013-.055a127.669 127.669 0 0 1-4.998-21.571 1.63 1.63 0 0 1 1.152-1.726 30.182 30.182 0 0 0 5.885-2.428 83.82 83.82 0 0 0 8.081-5.409.937.937 0 0 1 1.331 0 .969.969 0 0 1 0 1.362 26.638 26.638 0 0 1-13.078 9.173l.004-.008zM168.37 212.072a31.675 31.675 0 0 0 6.852-3.413 24.388 24.388 0 0 0 6.54-5.782c1.092-1.434 1.957-2.471 1.152-3.147-.813-.737-1.422.214-2.921 1.417-.856.716-4.398 3.452-6.501 4.793-5.746 3.567-10.025 4.402-9.562 5.995.338 1.208 3.216.462 4.44.133v.004zM171.929 222.705a22.845 22.845 0 0 0 6.908-3.391 23.34 23.34 0 0 0 6.189-6.026c1.092-1.498 1.901-2.441 1.07-3.148-.865-.693-1.482.253-2.9 1.5-6.059 5.404-8.333 6.543-12.239 8.166-2.813 1.285-3.657 1.482-3.477 2.355.193 1.264 3.302.801 4.441.549l.008-.005zM274.183 226.35a.944.944 0 0 0-.981-.908h-.03c-7.91.09-16.274-.467-28.992-.12-.069-3.576-.215-14.963-.258-17.083 28.71-8.437 30.153-7.327 29.943-9.091a.956.956 0 0 0-1.108-.763c-7.91.69-11.675 1.336-30.908 7.16a1.602 1.602 0 0 0-1.13 1.563c.185 3.598.116 6.703 1.46 18.274-4.428.18-20.684 1.263-24.838 1.212a.951.951 0 0 0-1.028.861.95.95 0 0 0 .861 1.027c2.33.403 4.685.669 7.044.792.558 2.617 3.619 15.696 4.575 19.632a.947.947 0 0 0 .213 1.327c.052.035.103.069.159.095 8.06 4.924 19.057 2.235 27.644-1.628a21.456 21.456 0 0 0 9.909-8.351.975.975 0 0 0-.737-1.499l1.071-10.963c2.077-.141 4.15-.326 6.222-.544a.955.955 0 0 0 .909-.993z" fill="#191919" fill-rule="nonzero"/><path d="M199.766 270.939c-14.158 14.492-47.086 24.41-62.786 8.184-10.064-10.363-11.331-28.813-9.545-43.21a73.05 73.05 0 0 1 4.753-19.169.943.943 0 0 0-.454-1.255.95.95 0 0 0-1.259.454c-8.809 17.383-9.764 44.607.266 60.422-.416-.012-2.934 0-3.855.039-5.477.475-4.792 3.212.189 3.212 1.91.043 3.819-.077 5.704-.369 15.828 19.816 51.3 11.336 68.37-6.971a.969.969 0 0 0-1.383-1.341v.004z" fill="#191919" fill-rule="nonzero"/><path d="M53.694 294.176c1.032.475 2.115.835 3.229 1.071 3.13.411 6.291.518 9.438.325a44.07 44.07 0 0 0 7.794-1.045.968.968 0 1 0-.123-1.927c-8.608-.531-5.474.115-16.617-.389-1.374-.087-2.184.102-3.353.102a.976.976 0 0 0-1.13.762.95.95 0 0 0 .758 1.101h.004z" fill="#191919" fill-rule="nonzero" stroke="#fff" stroke-width=".75"/><path d="M179.029 188.309a76.072 76.072 0 0 1-3.267 2.517c-1.782-5.601-4.552-10.937-5.597-16.543a1.647 1.647 0 0 0-1.357-1.298c-2.715-.389-20.814-2.569-27.147-3.413-.955-.12-1.191-.055-7.649 7.568a1.574 1.574 0 0 0-.145 1.811c2.406 4.004 3.211 8.552 11.438 22.74-3.854-.642-8.273-2.497-10.141-5.939a.947.947 0 0 0-1.246-.485.948.948 0 0 0-.484 1.247c1.126 3.426 3.996 6.393 9.361 7.896 7.658 2.069 16.604-.231 23.794-4.132a60.556 60.556 0 0 0 13.739-10.552.962.962 0 0 0-1.299-1.417zm-10.444 5.961c-1.071.509-1.76-.96-3.246-3.426a63.356 63.356 0 0 1-3.722-7.709c-4.179.536-16.839-2.218-17.451-2.326a.979.979 0 0 1-.903-1.01.967.967 0 0 1 1.005-.904c3.581-.3 7.182-.098 10.707.596 2.556.415 5.199.672 6.805 1.152.908-1.358 3.905-5.657 5.233-4.664.775.557.24 1.426-.827 3.657a28.32 28.32 0 0 1-1.52 2.445c1.319 3.306 1.726 3.744 3.212 7.529 1.152 3.088 1.671 4.189.702 4.651l.005.009z" fill="#191919" fill-rule="nonzero"/><path d="M82.246 169.379a7.353 7.353 0 0 1 7.361 7.345 7.35 7.35 0 0 1-7.344 7.362 7.352 7.352 0 0 1-7.362-7.345v-.021c.004-4.051 3.289-7.336 7.345-7.344v.003z" fill="#6f93fc" fill-rule="nonzero" stroke="#fff" stroke-width=".75"/><path d="M121.537 227.155c-.282-.026-3.64-.343-6.402-.428-.056-7.101-.462-49.891-.462-49.891a.937.937 0 0 0-.921-.947h-.026s-10.278-.214-22.629-.394a8.16 8.16 0 0 0-8.856-7.066 8.404 8.404 0 0 0-8.689 6.882c-13.147-.09-24.445-.06-24.445-.06-.869 0-1.571.707-1.571 1.576v60.238a1.517 1.517 0 0 0 1.503 1.533h50.979a95.79 95.79 0 0 1-6.638 17.575.968.968 0 0 0 .347 1.285.94.94 0 0 0 1.289-.317l.008-.013a61.06 61.06 0 0 0 8.244-18.543h10.454a1.525 1.525 0 0 0 1.482-1.529l-.048-7.404c2.634-.201 4.497-.45 6.402-.643a.928.928 0 0 0 .112-1.85h-.124l-.009-.004zm-43.57-54.713a6.179 6.179 0 0 1 4.282-2.112 6.183 6.183 0 0 1 4.176 2.232 5.871 5.871 0 0 1-4.176 9.914 5.98 5.98 0 0 1-5.862-6.098 6.015 6.015 0 0 1 1.58-3.941v.005zm-27.284 63.06V178.39c3.542 0 12.608 0 22.818-.06a8.863 8.863 0 0 0 8.745 7.375 8.967 8.967 0 0 0 8.856-7.559c10.115-.145 18.855-.325 21.678-.373-.043 2.981-.408 41.844-.454 48.919-2.827 0-5.649.052-8.454-.094a1.603 1.603 0 0 0-1.645 1.358 81.61 81.61 0 0 1-1.426 7.541H50.679l.004.005zm53.36 0a94.717 94.717 0 0 0 1.105-5.692c2.381.064 4.771.069 7.156 0-.017 2.479-.03 4.454-.043 5.704l-8.222-.012h.004z" fill="#191919" fill-rule="nonzero" stroke="#fff" stroke-width=".75"/><path d="M298.075 93.1c2.355-12.783 2.479-25.986-8.831-32.402-4.385-2.471-9.73-3.345-14.419-4.71-3.597-7.388-11.421-18.616-19.353-20.646a23.878 23.878 0 0 0-25.789 9.974c-7.301 10.86-5.109 25.948 7.161 31.416 9.271 4.132 22.465 2.839 32.512.741 2.175-.446 4.865 1.439 7.362 2.356a18.21 18.21 0 0 0 14.085 14.251c6.201 1.448 6.693 1.285 8.518 2.895a6.951 6.951 0 0 1 .557 10.197 15.35 15.35 0 0 1-9.833 3.854 1.658 1.658 0 0 0-1.477 1.276 100.815 100.815 0 0 1-5.799 16.248c-.222.278-.339.63-.325.986.025 7.794.475 15.579 1.357 23.317.047.578.51 1.037 1.092 1.071 2.06.068 4.111.266 6.15.596a.958.958 0 0 0 1.079-.827.957.957 0 0 0-.749-1.066 50.41 50.41 0 0 0-5.307-.925c-.312-5.996-.449-15.632-.449-21.738a106.959 106.959 0 0 0 5.841-15.815c16.702-1.958 16.814-17.482 6.626-21.058l-.009.009zm-64.238-27.858a6.25 6.25 0 0 1-.826-5.408c.188-.48.475-.891.989-.857.514.034.741.475.882.968.433 1.55.685 3.143.763 4.753.093 1.353-1.212 1.649-1.812.548l.004-.004zm19.118-21.738a.928.928 0 0 1-1.084.741h-.009c-.411.022-.779.103-1.173.142a15.983 15.983 0 0 0-11.229 5.883 25.86 25.86 0 0 0-2.998 3.91.954.954 0 0 1-1.246.515.955.955 0 0 1-.513-1.247c0-.008.008-.022.012-.03a16.675 16.675 0 0 1 2.445-5.019c2.887-4.081 8.733-7.405 13.019-6.561.69.133 1.362.326 2.017.578a.95.95 0 0 1 .754 1.092l.005-.004z" fill="#a5714d" fill-rule="nonzero"/><path d="M383.009 247.814c-2.736-14.621-6.394-28.997-13.412-42.324-13.734-26.081-40.307-45.943-69.634-50.714a2.326 2.326 0 0 0-2.239.904c-6.129 8.059-15.204 16.102-25.314 17.909-5.983 1.092-15.978.215-18.775-6.334a14.806 14.806 0 0 1-.535-8.513 2.341 2.341 0 0 0-2.899-2.694 137.729 137.729 0 0 0-46.008 21.387 84.954 84.954 0 0 0-14.44 12.364 12.992 12.992 0 0 1 4.548 11.683 9.843 9.843 0 0 1 2.569 10.706c6.296 10.324-6.663 19.044-14.457 23.506 6.685 12.916 22.581 36.937 22.83 37.592.115.253 2.03 42.08 2.286 41.956 11.991-1.217 24.124.265 36.175.021 17.438-.351 35.433-1.049 52.889-1.092.077 0 .137-.06.137-.137a.14.14 0 0 0-.095-.133c-12.007-3.186-28.709-8.535-38.169-16.209-8.925 3.456-19.64 1.812-28.32-1.747-6.291-2.612-11.084-9.396-1.482-11.576-4.193-3.661-8.822-10.758-.702-12.633-4.69-3.867-11.598-14.085-1.315-15.901-1.19-6.912-2.942-13.987-4.814-20.771-13.468-1.314-12.531-9.926-7.588-11.969 7.22-3.023 17.665-1.216 25.42-1.234-.702-3.927-1.335-7.896-1.751-11.888-.124-1.336-.556-3.412.368-4.564 1.974-2.489 6.437-2.922 9.255-3.722 8-2.304 16.821-6.171 25.314-5.353 3.537.33 6.95 3.023 3.661 6.333a17.779 17.779 0 0 1-7.669 3.393c-8.715 2.745-2.446 1.605-20.218 5.738a68.24 68.24 0 0 0 1.027 9.151c6.489-.295 12.993-.03 19.434.806a30.24 30.24 0 0 1 8 1.456c2.758 1.173 3.867 4.548.784 6.132a23.323 23.323 0 0 1-10.321 1.521s-.167 11.725-.449 17.07c13.061 2.304 25.93 5.469 38.97 7.922 3.705.698 7.383 2.613 11.148 2.116 20.071-2.694 40.431-2.733 60.648-3.662a5.501 5.501 0 0 0 5.148-6.501l-.005.005zm-145.506-77.419c-15.1 7.267-21.524 12.282-31.549 18.611a.933.933 0 0 1-1.302-.193.925.925 0 0 1 .129-1.245 42.726 42.726 0 0 1 4.093-3.889 98.957 98.957 0 0 1 10.878-7.319 75.559 75.559 0 0 1 17.048-7.734.952.952 0 0 1 .699 1.769h.004z" fill="#6f93fc" fill-rule="nonzero"/><path d="M416.563 312.419c-82.203.142-73.968.429-72.708 0 22.149-7.596 37.236-27.296 34.902-54.002a.988.988 0 0 0-1.049-.904.963.963 0 0 0-.883 1.029c2.412 41.055-36.576 63.303-76.361 50.118a216.486 216.486 0 0 1-30.311-13.225c-8.886-5.139-8.492-6.963-10.24-6.312-9.524 3.794-23.014 5.109-30.949-1.397a.957.957 0 0 0-1.349.112.951.951 0 0 0 .111 1.345c8.175 7.357 22.081 6.907 32.432 3.169 6.659 5.652 15.237 9.481 23.219 13.04a148.004 148.004 0 0 0 20.017 7.541c-14.792.107-167.973 1.499-182.931 1.637l-.078-5.966a42 42 0 0 0 11.833.214 1.626 1.626 0 0 0 .655-2.942 123.623 123.623 0 0 0-11.936-7.521c0-19.146.335-19.977-1.027-23.228a13.9 13.9 0 0 0-12.792-8.586H59.261c-2.556 0-2.128.428-4.685.428l-31.652-.428c-7.588-.047-13.781 6.064-13.828 13.652v36c-5.28.111-8.158.175-8.158.175a.946.946 0 1 0 .017 1.893l415.629-3.868a.99.99 0 0 0 .981-1.002.99.99 0 0 0-1.002-.98v.008zm-289.386-6.501c-8.642-.261-28.92-3.301-35.99-4.38.227 0 19.82-.822 27.314-.822a80.476 80.476 0 0 1 8.676 5.202zm-113.01-27.27c.021-1.084 2.513-1.362 3.597-1.461 1.276-.098 7.97.035 10.509.288 3.066.354 5.315.599 5.246 1.789-.056.938-.899.981-3.948 1.174-2.775.171-10.831-.056-11.867-.215-.36-.021-3.559-.453-3.537-1.575zm29.643 31.104c-.099 1.254-3.456 1.34-4.711 1.395-.719.039-1.422.082-2.141.065-1.555-.038-3.537-.626-3.516-1.606.034-1.615 3.563-1.615 4.565-1.645.493-.021.968-.038 1.461-.021 1.451.069 4.441.552 4.342 1.812zm-5.477-13.546c-2.596.171-9.032.36-12.133.39-1.533.025-8.595.359-8.659-1.285-.073-1.966 9.554-1.94 11.456-1.996 4.141-.132 7.755-.15 9.524-.124 6.462.103 7.302.202 7.34 1.255.043 1.118-1.644 1.306-7.524 1.76h-.004zm80.022 18.372c-15.34.15-65.881.411-69.804.411v-34.573c.013-5.91 4.796-10.702 10.706-10.727 51.51 0 49.236-.335 51.968.792a10.662 10.662 0 0 1 5.82 5.82c.634 1.516.921 3.152.844 4.788-3.692-.347-4.035-.428-7.178-.591a171.407 171.407 0 0 0-20.916.599.949.949 0 0 0-1.066.823.948.948 0 0 0 .822 1.066c5.1 1.374 7.109.78 13.263.681 8.805-.193 7.281.099 15.075-.519v14.347a248.788 248.788 0 0 0-36.616 2.552 1.283 1.283 0 0 0-1.388 1.173c-.055.635.36 1.209.977 1.359 3.379.697 6.886.749 9.653 1.314a239.968 239.968 0 0 0 27.952 4.467l-.112 6.218zM304.473 223.335c-.959-.766-1.889-1.893-2.672-2.552-1.007-.776-1.863-1.037-1.478-1.91.737-1.962 5.49 1.764 6.458 2.346.334.244.57.6.66 1.007 3.601 19.382 1.713 7.246 5.036 27.515a.975.975 0 0 1-1.893.449c-1.957-6.444-2.813-8.157-6.107-26.855h-.004z" fill="#191919" fill-rule="nonzero"/><path d="M205.787 236.015c-.18 1.187-.428 2.459-.617 4.852-.176 3.426.022 15.829.12 18.179.154 2.707.325 4.562.557 7.26a.946.946 0 0 0 1.889.09v-.09a179.01 179.01 0 0 0 .534-21.49 44.904 44.904 0 0 0-.616-8.779.95.95 0 0 0-.947-.946.932.932 0 0 0-.924.92l.004.004z" fill="#191919" fill-rule="nonzero"/></svg>