<svg viewBox="0 0 351 374" xmlns="http://www.w3.org/2000/svg" fill-rule="evenodd" clip-rule="evenodd" stroke-miterlimit="10"><path d="M146.465 28.205c19.648-3.036 84.481-13.053 132.514 29.879 49.24 44.007 51.677 117.594 31.056 164.538-26.736 60.867-99.91 94.408-173.638 74.837C76.039 281.434 12.885 229.166 4.654 167.176-6.129 85.984 83.907 37.875 146.465 28.209v-.004z" fill="#f0edf9" fill-rule="nonzero" stroke="#fff" stroke-width=".75"/><path d="M139.339 37.721c-16.783 22.89-26.256 50.649-28.033 78.901-.403 6.385 5.901 12.487 12.205 12.205 6.955-.313 11.777-5.366 12.205-12.205.201-3.173.505-6.334.912-9.486l-.437 3.246c1.521-11.271 4.39-22.329 8.608-32.894.223-.557.527-1.122.689-1.695-.92 3.25-.458 1.079-.076.218a136.55 136.55 0 0 1 5.7-11.49 137.78 137.78 0 0 1 9.305-14.483c1.76-2.403 1.988-6.66 1.229-9.405-.779-2.831-2.967-5.901-5.61-7.293-2.83-1.495-6.265-2.248-9.404-1.229-3.139 1.019-5.314 2.912-7.293 5.61z" fill="#fff" fill-rule="nonzero"/><path d="M155.274 60.191c.467.043.93.095 1.392.155l-3.927-.528c3.675.515 7.203 1.521 10.642 2.913l-3.529-1.491c6.081 2.57 11.58 6.201 16.809 10.201l-2.989-2.308c6.796 5.255 13.323 10.916 19.72 16.642 6.609 5.91 12.921 12.162 18.351 19.185l-2.308-2.989c3.914 5.148 7.255 10.647 9.811 16.59l-1.49-3.528c1.982 4.762 3.426 9.691 4.163 14.8l-.528-3.927c.536 4.12.588 8.235.082 12.359l.527-3.927-.103.729c-.574 4.11-.698 7.644 1.49 11.382 1.795 3.066 5.306 5.988 8.831 6.788 3.781.861 8.025.677 11.383-1.49 2.989-1.927 6.274-5.135 6.788-8.831.783-5.635 1.289-10.989.595-16.654-.69-5.615-1.675-11.028-3.645-16.347-3.948-10.65-9.622-19.781-16.822-28.525-5.883-7.152-12.688-13.473-19.66-19.541-7.439-6.476-14.946-12.981-23.006-18.681-3.918-2.775-8.038-5.254-12.445-7.177-6.698-2.917-12.839-4.612-20.128-5.353-3.541-.36-8.029 1.91-10.449 4.325-2.56 2.561-4.492 6.766-4.325 10.449.167 3.684 1.426 7.786 4.325 10.449 3.05 2.802 6.338 3.911 10.449 4.326l-.004.004z" fill="#fff" fill-rule="nonzero"/><path d="M238.851 137.006c-8.547-14.209-17.288-28.162-27.493-41.248-9.387-12.043-20.338-22.642-33.023-31.199-7.481-5.044-15.695-8.933-24.2-11.922-2.578-.908-6.283-.715-8.882 0-3.516.968-6.475 3.134-8.676 5.987-4.223 5.464-4.45 12.471-1.307 18.547 12.69 24.526 28.715 47.369 47.168 67.908a310.226 310.226 0 0 0 15.807 16.329l23.617-23.618-38.696-34.397c-6.719-5.97-13.31-12.496-20.95-17.289-9.156-5.742-21.644-8.68-32.067-4.766-4.167 1.563-7.666 3.713-9.983 7.674-2.094 3.581-2.98 8.857-1.683 12.869 1.298 4.013 3.812 7.94 7.674 9.983 3.863 2.043 8.715 3.241 12.869 1.683a18.777 18.777 0 0 1 3.418-.929l-4.441.595a21.127 21.127 0 0 1 4.963-.056l-4.441-.595c2.163.296 4.223.865 6.249 1.674l-3.992-1.683c2.972 1.285 5.662 3.02 8.235 4.976l-3.379-2.612c9.045 7.067 17.379 15.191 25.956 22.817l26.642 23.682c3.323 2.955 7.267 4.891 11.812 4.891 4.098 0 8.988-1.82 11.811-4.891 6.021-6.56 6.727-17.151 0-23.617a311.412 311.412 0 0 1-30.363-33.785l2.612 3.379a311.314 311.314 0 0 1-30.003-47.074l-18.86 24.535a93.705 93.705 0 0 1 5.224 2.017l-3.991-1.683c7.302 3.152 14.081 7.289 20.389 12.12l-3.379-2.612c9.37 7.275 17.472 15.939 24.723 25.305l-2.613-3.379c9.058 11.794 16.749 24.526 24.406 37.253 2.18 3.627 5.88 6.548 9.983 7.674 4.103 1.127 9.323.604 12.869-1.683 7.524-4.852 10.809-14.839 5.991-22.851l.004-.009z" fill="#fff" fill-rule="nonzero"/><path d="M137.557 38.886l-22.285 44.238c-2.026 4.021-2.908 8.424-1.683 12.869 1.065 3.875 4.063 8.072 7.674 9.983 7.588 4.008 18.654 2.337 22.851-5.992L166.4 55.746c2.026-4.022 2.908-8.423 1.683-12.869-1.066-3.876-4.064-8.073-7.674-9.982-7.589-4.009-18.655-2.339-22.852 5.991z" fill="#fff" fill-rule="nonzero"/><path d="M122.745 60.213c-12.75 25.373-22.137 52.422-27.203 80.378-.78 4.304-.805 9.011 1.683 12.869 2.488 3.858 5.704 6.077 9.983 7.674 28.114 10.505 59.265 14.406 89.101 11.1 9.456-1.044 18.851-2.544 28.094-4.822 8.487-2.094 14.388-12.124 11.665-20.543-2.848-8.801-11.452-13.905-20.543-11.665a187.716 187.716 0 0 1-19.802 3.76l4.44-.596a187.404 187.404 0 0 1-48.726-.055l4.441.595c-13.593-1.855-26.932-5.178-39.789-9.979l11.666 20.544a283.275 283.275 0 0 1 17.618-59.3l-1.683 3.992a290.268 290.268 0 0 1 7.901-17.088c2.026-4.026 2.908-8.419 1.683-12.869-1.066-3.875-4.064-8.072-7.674-9.982-7.585-4.008-18.663-2.343-22.852 5.991l-.003-.004z" fill="#fff" fill-rule="nonzero"/><path d="M194.022 138.496l-20.89 2.356c-4.565.514-8.441 1.52-11.811 4.891-2.895 2.895-5.079 7.648-4.891 11.811.189 4.162 1.61 8.8 4.891 11.811 3.28 3.01 7.186 4.54 11.811 4.891 24.029 1.833 47.934-7.182 65.882-22.946 1.987-1.743 3.602-4.856 4.295-7.37 1.002-3.636.609-7.443-.843-10.874-1.161-2.745-2.784-4.86-5.143-6.68-3.157-2.437-6.142-3.13-10.12-3.585-25.858-2.963-51.801-5.498-77.603-8.911l4.441.594c-1.837-.269-3.61-.646-5.34-1.335l3.991 1.683a13.713 13.713 0 0 1-2.3-1.323l3.379 2.612c-.484-.407-.9-.809-1.314-1.281l2.612 3.379a10.704 10.704 0 0 1-1.264-2.081l1.683 3.991a9.594 9.594 0 0 1-.462-1.717l.595 4.441a5.6 5.6 0 0 1-.03-1.165l-.595 4.441a7.003 7.003 0 0 1 .437-1.7c1.464-3.816.3-9.482-1.683-12.869-2.026-3.465-6-6.771-9.983-7.675-4.274-.972-9.075-.762-12.869 1.683-3.794 2.446-6.034 5.713-7.674 9.983-2.998 7.807.205 17.023 5.619 22.915 4.03 4.386 9.806 7.157 15.635 8.133 9.662 1.614 19.532 2.368 29.262 3.482l53.471 6.128-11.811-28.513a83.96 83.96 0 0 1-3.759 3.109l3.378-2.612a75.35 75.35 0 0 1-16.235 9.409l3.992-1.683a76.63 76.63 0 0 1-18.779 5.113l4.441-.595a74.659 74.659 0 0 1-15.297.42v33.403l20.89-2.356c4.565-.513 8.441-1.52 11.811-4.89 2.895-2.895 5.079-7.649 4.89-11.811-.188-4.163-1.61-8.801-4.89-11.811-3.054-2.801-7.503-5.379-11.811-4.891l-.009-.005zM186.999 48.072l12.423 5.944c4.116 1.97 8.334 2.934 12.87 1.683 3.875-1.066 8.072-4.064 9.982-7.674 2.047-3.876 3.075-8.574 1.683-12.869-1.276-3.945-3.794-8.124-7.675-9.983l-12.423-5.944c-4.116-1.97-8.334-2.933-12.869-1.683-3.875 1.066-8.072 4.064-9.982 7.674-2.047 3.876-3.075 8.574-1.683 12.869 1.276 3.945 3.794 8.124 7.674 9.983z" fill="#fff" fill-rule="nonzero"/><path d="M188.155 27.04l3.76 16.621c1.525 6.732 2.741 14.003 8.201 18.839 6.06 5.365 15.242 7.185 22.427 2.757 5.362-3.306 8.527-8.457 9.349-14.603.908-6.745-1.147-13.901-2.269-20.582l-30.526 12.869a44.719 44.719 0 0 1 4.715 8.36l-1.683-3.992a46.107 46.107 0 0 1 3.049 11.242l-.595-4.441a45.26 45.26 0 0 1-.039 11.64l.596-4.441a48.478 48.478 0 0 1-.784 4.047l32.808 4.441-.432-3.336c-.596-4.604-1.469-8.389-4.891-11.812-2.895-2.895-7.648-5.079-11.811-4.89-4.162.189-8.8 1.611-11.812 4.89-2.77 3.02-5.442 7.538-4.89 11.812l.432 3.336c.57 4.398 1.427 8.629 4.891 11.811 2.758 2.531 5.863 4.094 9.589 4.595 7.906 1.062 16.393-3.833 18.325-11.965 3.858-16.235 1.207-34.436-8.625-48.157-2.48-3.456-5.623-6.685-9.983-7.674-3.734-.852-7.327-.655-10.873.844-3.208 1.353-6.312 3.665-7.987 6.834-2.219 4.197-2.467 8.206-1.683 12.869.655 3.914 1.392 7.829 1.957 11.76l-.595-4.441c.068.732.081 1.431.013 2.163l.595-4.441c-.043.338-.12.672-.232.997l1.683-3.991c-.102.3-.252.578-.444.831l2.612-3.379-.317.326 3.378-2.613-.381.253 3.992-1.683a2.196 2.196 0 0 1-.929.236l4.44-.596-.445-.038 4.441.595-.42-.133 3.992 1.683-.39-.214 3.379 2.612a3.454 3.454 0 0 1-.699-.642l2.613 3.379a8.587 8.587 0 0 1-1.045-1.829l1.683 3.991c-1.43-3.901-2-8.273-2.916-12.324l-3.011-13.298c-1.932-8.53-12.235-14.354-20.543-11.665-8.938 2.891-13.734 11.404-11.665 20.543l-.005.004z" fill="#fff" fill-rule="nonzero"/><path d="M204.536 20.004c4.591 0 8.993-4.038 8.779-8.779-.214-4.758-3.858-8.779-8.779-8.779-4.591 0-8.993 4.038-8.78 8.779.215 4.758 3.859 8.779 8.78 8.779zM184.811 43.927c4.591 0 8.993-4.039 8.779-8.78-.214-4.741-3.859-8.779-8.779-8.779-4.592 0-8.993 4.038-8.78 8.779.215 4.741 3.859 8.78 8.78 8.78zM221.794 50.161c-.278-1.939.047.681.065.866a49.63 49.63 0 0 1 .012 8.051c-.017.214-.244 2.381-.102 1.238.141-1.144-.171 1.006-.21 1.22-.146.792-.313 1.58-.493 2.368-1.006 4.471 1.358 9.713 6.133 10.8 4.458 1.016 9.721-1.34 10.8-6.132 1.743-7.743 1.846-15.258.729-23.074-.656-4.561-6.686-7.464-10.801-6.133-4.998 1.619-6.831 5.91-6.133 10.801v-.005z" fill="#fff" fill-rule="nonzero"/><path d="M223.52 56.53a39.378 39.378 0 0 1-.107 3.554c-.013.18-.21 1.825-.064.796.163-1.147-.24 1.2-.232 1.174-.196.964-.479 1.906-.715 2.861-.377 1.529.63-1.096.111-.227-.239.407-.171.342.206-.193.313-.48.728-.856 1.242-1.134-3.815 2.543-5.824 7.862-3.148 12.012 2.454 3.803 7.923 5.871 12.013 3.147 7.045-4.693 8.329-14.115 8.257-21.99-.043-4.591-4.009-8.994-8.78-8.779-4.771.214-8.826 3.858-8.779 8.779h-.004zM109.4 161.824c-4.124 11.656-6.051 24.17-5.735 36.525.095 3.721 2.647 7.602 6.446 8.466 3.799.866 7.713-.646 9.914-4.034l20.77-31.964-16.046-6.767-6.318 21.267c-1.305 4.403 1.572 9.76 6.133 10.801 4.853 1.105 9.238-1.465 10.801-6.133.359-1.079.736-2.15 1.135-3.216.18-.471.36-.942.548-1.413.064-.163.689-1.636.283-.702-.463 1.057.385-.836.475-1.032.209-.459.424-.917.647-1.371a81.837 81.837 0 0 1 1.545-3.041c2.086-3.905 4.497-7.614 7.17-11.138l-16.047-6.767-3.897 13.649c-1.028 3.597.646 8.124 4.034 9.913 3.742 1.979 7.438 1.161 10.638-1.374l8.325-6.595-14.989-6.209-1.332 10.654c-.368 2.96 1.931 6.167 4.347 7.58 2.663 1.559 6.205 1.636 8.861 0l7.815-4.805-12.894-9.914-1.491 6.411c-1.987 8.561 8.193 14.633 14.672 8.544l3.974-3.734-14.672-8.544-.685 4.094c-.63 3.747.377 7.982 4.034 9.914 3.384 1.786 7.905 1.546 10.638-1.375l5.211-5.563-14.671-3.875c2.749 11.091 16.441 9.267 25.099 9.361l-7.58-13.211c-.304.454-.625.895-.937 1.345-.686.989 1.362-1.53-.052.008-.659.719-1.31 1.447-2.017 2.124-.39.377-.792.745-1.199 1.101-.193.171-1.623 1.374-.625.552.998-.822-.625.437-.69.484-.359.249-.724.492-1.087.732a40.264 40.264 0 0 1-2.835 1.671c-.321.171-2.63 1.627-2.968 1.451.184.094 1.563-.612.265-.119-.518.196-1.032.393-1.55.577a51.26 51.26 0 0 1-3.152 1.003c-2.321.655-4.685 1.126-7.066 1.511-.754.12-1.006.116-.103.022-.681.073-1.357.154-2.038.218a94.983 94.983 0 0 1-4.094.296c-5.349.278-10.702.153-16.051.034l4.432 16.359c1.821-.964 3.666-1.876 5.559-2.685-1.816.775 1.169-.428 1.486-.544a71.192 71.192 0 0 1 11.901-3.242c.368-.068 3.614-.553 1.482-.27 4.535-.595 9.01-3.61 8.779-8.779-.188-4.244-3.902-9.417-8.779-8.779-10.347 1.357-20.042 4.227-29.293 9.139-3.284 1.743-5.186 6.351-4.034 9.914 1.212 3.751 4.467 6.355 8.467 6.445 11.76.27 23.926.445 35.284-3.079 10.551-3.276 19.879-9.379 26.076-18.629 3.807-5.683-1.26-13.143-7.581-13.212l-8.787-.093c-.741-.009-2.814-.429-3.465-.082 1.328.21 1.653.244.981.098a5.813 5.813 0 0 1-.775-.218l1.173.458c1.298.844 2.201 1.966 2.703 3.366-1.564-6.308-10.197-8.646-14.672-3.875l-5.212 5.563 14.671 8.543.686-4.094c.629-3.747-.377-7.983-4.034-9.914s-7.696-1.392-10.638 1.375l-3.974 3.734 14.672 8.544 1.49-6.411c.809-3.486-.283-7.015-3.148-9.229-2.865-2.214-6.736-2.539-9.751-.685l-7.815 4.805 13.211 7.58 1.332-10.655c.424-3.383-2.557-6.826-5.396-8.021-3.503-1.478-6.732-.45-9.588 1.816l-8.325 6.594 14.671 8.544 3.897-13.648c1.208-4.223-1.135-8.689-5.083-10.355-4.334-1.829-8.278.051-10.963 3.593-5.975 7.876-10.433 16.744-13.571 26.11l16.932 4.668 6.317-21.267c1.251-4.205-1.165-8.702-5.083-10.355-4.12-1.738-8.557-.111-10.963 3.593l-20.77 31.965 16.359 4.432a97.902 97.902 0 0 1 .15-8.702 91.98 91.98 0 0 1 .338-3.944c.021-.201.359-2.805.077-.81a94.33 94.33 0 0 1 .3-1.956c.912-5.607 2.351-11.1 4.248-16.454 1.533-4.333-1.734-9.798-6.132-10.801-4.917-1.117-9.156 1.491-10.801 6.133v.005zM260.234 154.95c-2.249 6.368-.163 14.167 4.779 18.715 6.338 5.828 17.537 6.342 22.261-1.893 2.441-4.261 1.983-9.105-.266-13.332-.218-.406-2.124-2.694-1.987-3.168.377.659.54 1.37.492 2.132l-.197 1.315c-.509 2.047-2.119 2.844-4.83 2.389-1.983 1.799-3.67 2.021-5.071.677.557.009 1.974 2.347 2.364 2.826 1.143 1.388 2.398 2.475 3.85 3.551 3.448 2.548 8.244 3.502 12.356 2.171 4.359-1.414 7.635-6.145 6.132-10.801-1.413-4.359-6.12-7.648-10.8-6.132-2.206.715 3.408.535 1.759.12-1.079-.27 1.683.959-.046-.116.624.39.856.801.265.052-.343-.437-.745-.831-1.101-1.264-1.644-1.999-3.165-3.854-5.477-5.164-7.799-4.42-17.092 1.961-16.74 10.62.124 3.122 1.417 5.837 3.096 8.398.077.12 1.062 1.443.951 1.585l-.587-2.288.813-2.672c.942-1.691 3.041-2.372 4.823-1.888-.929-.253-.561-.124.111.159-1.688-.699.463.646.025.098-1.125-1.409.117-.013.06.214.014-.056-.518-.976-.582-1.015.437 1.117.549 1.362.343.736a4.323 4.323 0 0 1-.159-.564c-.368-.78-.03 1.995.022.308.013-.343.103-.839.038-1.169-.196 1.267-.209 1.567-.047.899.073-.287.163-.566.274-.835 1.529-4.339-1.734-9.799-6.132-10.801-4.912-1.117-9.16 1.491-10.8 6.133l.008.004z" fill="#fff" fill-rule="nonzero"/><path d="M277.925 174.478c-.539-2.796.085-4.835 1.867-6.123a3.243 3.243 0 0 1 1.229-.711c-.103.226-1.52.312-1.739.351-1.755.333-3.468.916-5.036 1.79-3.156 1.756-5.305 4.744-6.676 7.995-2.45 5.807-1.452 12.492-1.794 18.646a111.945 111.945 0 0 1-.549 6.407c-.025.214-.304 2.372-.145 1.229.158-1.144-.155 1.006-.188 1.22a113.52 113.52 0 0 1-1.179 6.326c-1.245 5.768-2.955 11.421-5.066 16.933-1.644 4.299 1.816 9.815 6.133 10.8 5.015 1.143 9.036-1.529 10.801-6.132 4.5-11.76 7.035-24.218 7.751-36.783.167-2.925.166-5.841.163-8.766 0-.767.025-1.529.047-2.295.043-1.653-.3.616.043-.305.068-.329.153-.655.261-.972-.48 1.015-.57 1.229-.27.647.63-.925.501-.835-.124-.013 1.336-1.751-1.367 1.375-1.221.586.03-.153 1.936-.419 2.073-.444 1.645-.322 3.259-.801 4.728-1.65 4.766-2.749 7.113-8.059 5.824-13.404-1.08-4.467-6.385-7.558-10.8-6.132-4.643 1.503-7.29 6.012-6.133 10.8z" fill="#fff" fill-rule="nonzero"/><path d="M260.508 210.546l-11.661 21.142c-2.219 4.021-1.113 9.76 3.147 12.012 4.261 2.253 9.645 1.144 12.013-3.147l11.661-21.143c2.219-4.021 1.114-9.76-3.148-12.012-4.26-2.253-9.644-1.144-12.012 3.148z" fill="#fff" fill-rule="nonzero"/><path d="M274.486 177.056l-1.289 8.578c-.565 3.769.338 7.961 4.034 9.914 3.178 1.679 8.184 1.726 10.638-1.375l2.279-2.873-14.989-6.21a87.728 87.728 0 0 1-.377 6.171c-.056.548-.026 1.298-.198 1.808.223-.669.18-1.203.022-.171a83.872 83.872 0 0 1-4.736 17.9c-.176.454-.365.899-.536 1.354-.377.989.587-1.285-.107.248-.856 1.88-1.738 3.739-2.71 5.559a84.239 84.239 0 0 1-6.84 10.723c-2.757 3.696-.719 9.966 3.148 12.012 4.604 2.433 9.066.792 12.012-3.147 11.25-15.066 17.37-33.708 17.88-52.457.094-3.486-2.283-6.71-5.396-8.021-2.933-1.238-7.439-.899-9.589 1.816l-2.278 2.874 14.672 8.543 1.289-8.578c.364-2.424.402-4.561-.886-6.766-1.067-1.82-3.153-3.559-5.247-4.034-4.175-.951-10.072 1.276-10.8 6.132h.004zM303.855 171.138c2.026-.398 4.103.107 6.15 1.417 2.535 1.619 6.141.527 7.619-1.995 1.571-2.69.544-5.996-1.996-7.619-4.445-2.839-9.61-3.546-14.732-2.539-2.951.578-4.642 4.107-3.888 6.847.847 3.084 3.888 4.472 6.847 3.889z" fill="#fff" fill-rule="nonzero"/><path d="M303.907 171.797c7.593 6.707 12.325 16.107 12.895 25.931.175 3.002 2.432 5.567 5.567 5.567 2.878 0 5.743-2.552 5.567-5.567-.75-12.886-6.441-25.22-16.158-33.806-2.253-1.991-5.653-2.218-7.871 0-2.03 2.03-2.261 5.876 0 7.871v.004z" fill="#fff" fill-rule="nonzero"/><path d="M318.737 171.232c-.342.107-.865-.381-1.07-.338l-.099-.197.33.569c-.167-.419.132.536.129.518.449 1.65.513 3.516.736 5.568l1.503 13.746c.27 2.476 1.542 4.668 4.085 5.371 2.377.651 5.041-.433 6.288-2.557 7.236-12.324 12.525-25.797 15.528-39.771.522-2.433-.347-4.994-2.557-6.287-1.957-1.144-5.242-1.036-6.745.869-2.449 3.105-5.041 5.478-8.338 7.401-2.886 1.683-6.706 3.091-9.708 3.494l2.809 10.377c-.754.376-.75-.146-.167.145-.158-.081-.874-.531-.981-.565a.723.723 0 0 1-.094-.386c.18.626.218.771.116.437-.39-.021.732-1.619-.231-.154-1.658 2.51-.498 6.158 1.995 7.619 2.719 1.593 5.957.518 7.619-1.996 2.629-3.987 2.132-9.674-1.281-13.061-3.417-3.393-8.436-3.735-12.599-1.65-2.18 1.092-3.182 4.026-2.556 6.288.586 2.141 2.988 4.406 5.37 4.085 10.115-1.353 19.519-6.043 25.922-14.158l-9.306-5.417c-2.814 13.104-7.619 25.558-14.407 37.111l10.377 2.81c-.711-6.518-1.289-13.066-2.171-19.562-.425-3.135-1.362-6.236-3.692-8.514-2.548-2.493-6.321-3.623-9.759-2.527-2.865.913-4.707 3.868-3.889 6.848.775 2.818 3.974 4.805 6.847 3.888l-.004-.004zM320.682 206.515c4.959 0 4.967-7.708 0-7.708-4.968 0-4.968 7.708 0 7.708z" fill="#fff" fill-rule="nonzero"/><path d="M342.878 142.36l-1.092 8.406h7.708l.356-3.087c.274-2.373-2.702-4.536-4.878-3.718l-2.75 1.036c-1.948.733-3.28 2.604-2.693 4.741.514 1.868 2.783 3.431 4.741 2.694l2.749-1.036-4.878-3.717-.355 3.087c-.24 2.073 1.944 3.855 3.854 3.855 2.304 0 3.584-1.782 3.854-3.855l1.092-8.406c.27-2.069-1.965-3.855-3.854-3.855-2.304 0-3.584 1.782-3.854 3.855zM240.517 156.098c5.589-4.462 13.61-3.718 18.638 1.16 3.228 3.135 7.978-.809 6.055-4.672-1.661-3.332-3.919-6.419-6.637-8.972a33.678 33.678 0 0 0-4.395-3.473c-.719-.479-1.468-.899-2.209-1.349-.167-.103-.72-.582-.878-.591-.09-.004.621.703-.231 1.529h-5.452c5.251 6.218 11.896 10.817 19.387 13.927 1.923.796 4.239-.861 4.74-2.694.609-2.219-.762-3.94-2.693-4.741-6.24-2.59-11.644-6.805-15.982-11.944-1.358-1.61-4.056-1.353-5.452 0-2.039 1.974-2.415 5.054-1.114 7.555 1.169 2.24 3.405 3.319 5.439 4.604 3.867 2.449 6.788 5.965 8.818 10.038l6.055-4.673c-8.277-8.029-20.641-8.26-29.541-1.16-1.626 1.302-1.357 4.094 0 5.452 1.611 1.61 3.821 1.302 5.452 0v.004z" fill="#fff" fill-rule="nonzero"/><path d="M108.843 163.181c-5.353 24.312-5.785 49.377-1.374 73.873.45 2.506 3.503 3.919 5.794 3.289 2.638-.723 3.743-3.28 3.289-5.794-4.099-22.753-3.593-46.289 1.375-68.863.548-2.484-.75-5.096-3.289-5.794-2.36-.647-5.246.797-5.795 3.289z" fill="#8d5f3f" fill-rule="nonzero"/><path d="M104.676 198.07c-3.31 25.4 1.015 51.288 11.628 74.533 1.494 3.272 6.479 4.325 9.374 2.459 3.374-2.176 4.055-5.876 2.458-9.375a97.092 97.092 0 0 1-3.114-7.572 127.043 127.043 0 0 1-2.65-8.004 131.11 131.11 0 0 1-3.897-17.575 61.248 61.248 0 0 1-.403-3.118 131.345 131.345 0 0 1-.801-13.382 130.048 130.048 0 0 1 1.114-17.966c.466-3.567-3.482-7.002-6.852-6.852-4.112.185-6.356 3.028-6.852 6.852h-.005z" fill="#8d5f3f" fill-rule="nonzero"/><path d="M112.445 265.481l7.396 16.994c1.434 3.297 6.518 4.299 9.374 2.457 3.422-2.205 3.996-5.845 2.458-9.374l-7.395-16.993c-1.435-3.297-6.519-4.299-9.375-2.458-3.422 2.206-3.996 5.845-2.458 9.374z" fill="#8d5f3f" fill-rule="nonzero"/><path d="M113.58 270.479c2.24 8.111 6.21 15.357 11.567 21.815 2.295 2.771 7.345 2.553 9.691 0 2.703-2.946 2.45-6.736 0-9.691-.959-1.157-1.379-1.713-2.441-3.341a48.123 48.123 0 0 1-2.416-4.132 64.452 64.452 0 0 1-1.134-2.317c-.535-1.131.017.193-.454-1.079a61.807 61.807 0 0 1-1.598-4.899c-.954-3.452-4.903-5.927-8.427-4.788-3.534 1.144-5.808 4.728-4.788 8.428v.004z" fill="#8d5f3f" fill-rule="nonzero"/><path d="M119.46 289.005a92.954 92.954 0 0 1 9.447 16.689c1.439 3.298 6.513 4.3 9.374 2.458 3.418-2.205 4-5.85 2.458-9.374a92.832 92.832 0 0 0-9.447-16.689c-2.073-2.912-6.072-4.587-9.375-2.458-2.89 1.863-4.68 6.252-2.457 9.374z" fill="#8d5f3f" fill-rule="nonzero"/><path d="M137.121 311.831c5.237 0 5.246-8.137 0-8.137-5.247 0-5.247 8.137 0 8.137z" fill="#8d5f3f" fill-rule="nonzero"/><path d="M142.212 301.069c-.608-6.407 1.473-12.522 6.095-17.053l-6.39-4.929c-2.219 4.946-3.409 10.102-3.293 15.545.115 5.444 8.248 5.246 8.136 0-.085-3.935.561-7.824 2.184-11.438.831-1.85.69-3.953-1.049-5.251-1.618-1.207-3.862-1.13-5.34.317-6.017 5.898-9.271 14.39-8.475 22.805.206 2.188 1.721 4.068 4.068 4.068 2.039 0 4.279-1.867 4.069-4.068l-.005.004z" fill="#8d5f3f" fill-rule="nonzero"/><path d="M145.407 277.211c-5.25-11.314-9.241-23.173-12.081-35.314-.659-2.817-3.876-4.483-6.586-3.738-2.882.792-4.398 3.76-3.739 6.587 3.053 13.061 7.516 25.708 13.16 37.87 1.217 2.621 4.998 3.28 7.323 1.918 2.69-1.571 3.144-4.693 1.919-7.323h.004z" fill="#8d5f3f" fill-rule="nonzero"/><path d="M120.273 254.467l12.616 35.579c.968 2.724 3.653 4.543 6.587 3.739 2.638-.724 4.71-3.846 3.738-6.587l-12.615-35.579c-.969-2.723-3.654-4.544-6.587-3.739-2.638.724-4.711 3.846-3.739 6.587z" fill="#8d5f3f" fill-rule="nonzero"/><path d="M143.064 285.626c6.891 0 6.9-10.706 0-10.706-6.898 0-6.898 10.706 0 10.706zM127.19 248.818l-8.073-57.647c-.484-3.451-5.062-5.64-8.167-4.637-3.785 1.225-5.156 4.466-4.638 8.167l8.073 57.646c.484 3.452 5.062 5.64 8.167 4.638 3.785-1.225 5.156-4.467 4.638-8.167z" fill="#8d5f3f" fill-rule="nonzero"/><path d="M110.959 186.902a361.063 361.063 0 0 0 7.695 57.527c.737 3.396 4.887 5.695 8.167 4.638 3.576-1.157 5.426-4.527 4.638-8.167-3.91-18.029-6.257-35.57-7.224-53.998-.18-3.46-2.925-6.805-6.638-6.638-3.439.154-6.835 2.925-6.638 6.638z" fill="#8d5f3f" fill-rule="nonzero"/><path d="M113.798 167.832l-.492 14.86c-.116 3.474 3.134 6.796 6.637 6.638 3.696-.167 6.514-2.916 6.639-6.638l.492-14.86c.115-3.473-3.135-6.797-6.638-6.638-3.696.167-6.514 2.916-6.638 6.638z" fill="#8d5f3f" fill-rule="nonzero"/><path d="M142.397 148.012c-.266 5.7-3.409 11.199-8.137 14.403-2.754 1.863-5.542 2.509-8.732 3.246-3.431.792-6.758 2.334-8.437 5.605-.98 1.91.172 5.165 2.776 4.835 8.179-1.044 15.284-5.344 19.78-12.312 2.249-3.486-3.31-6.706-5.545-3.242-3.144 4.874-8.437 8.39-14.235 9.131l2.775 4.835c1.61-3.14 6.547-2.822 9.49-3.876 3.13-1.122 5.952-2.835 8.424-5.057 4.984-4.493 7.952-10.883 8.265-17.563.192-4.133-6.231-4.124-6.424 0v-.005z" fill="#8d5f3f" fill-rule="nonzero"/><path d="M141.103 146.557c-2.985 8.56-10.624 14.744-19.464 16.38-4.06.75-2.338 6.942 1.709 6.192 11.092-2.051 20.261-10.286 23.948-20.864 1.366-3.91-4.839-5.593-6.193-1.708z" fill="#8d5f3f" fill-rule="nonzero"/><path d="M134.294 163.276l-7.181 2.976c-1.602.663-2.745 2.128-2.244 3.952.415 1.512 2.337 2.912 3.952 2.244l7.182-2.976c1.601-.664 2.745-2.128 2.244-3.952-.415-1.512-2.338-2.913-3.953-2.244zM155.745 288.178c.732 6.459 1.614 13.157 5.837 18.381 4.017 4.968 10.522 7.576 16.839 7.52 13.657-.128 24.582-11.699 24.299-25.262-.047-2.257-2.005-3.435-4.064-3.096l-3.777.616c-4.069.668-2.343 6.857 1.708 6.193l3.777-.617-4.064-3.096c.21 10.064-7.639 18.744-17.875 18.838-4.509.044-9.203-1.717-12.042-5.331-3.088-3.931-3.666-9.345-4.21-14.141-.197-1.721-1.336-3.212-3.212-3.212-1.584 0-3.408 1.478-3.212 3.212l-.004-.005z" fill="#8d5f3f" fill-rule="nonzero"/><path d="M171.972 275.473c-1.032 2.988-2.06 5.982-3.096 8.967-.206.595-.459 2.069-1.122 2.347-.741.308-2.36-.707-2.93-1.002-2.154-1.114-4.796.252-4.834 2.775-.125 8.787 5.404 16.522 13.472 19.733 1.623.647 3.511-.706 3.952-2.244.523-1.82-.637-3.31-2.244-3.952-5.408-2.154-8.834-7.824-8.757-13.537l-4.835 2.775c3.88 2.004 8.775 3.071 11.687-1.096 1.143-1.636 1.67-3.714 2.313-5.58l2.582-7.473c1.353-3.915-4.852-5.598-6.193-1.709l.005-.004z" fill="#8d5f3f" fill-rule="nonzero"/><path d="M155.981 296.217c-.407 13.22 12.217 20.817 23.917 22.068 5.958.634 12.021-.728 16.356-5.063 4.535-4.534 6.278-10.83 7.699-16.89 1.195-5.091-6.65-7.267-7.846-2.162-.993 4.244-1.926 8.882-4.736 12.355-2.809 3.473-6.634 4.06-10.749 3.696-7.584-.668-16.765-5.255-16.5-14 .163-5.238-7.974-5.233-8.137 0l-.004-.004z" fill="#8d5f3f" fill-rule="nonzero"/><path d="M188.703 290.8c-1.926 4.548-5.361 8.359-9.957 10.089-1.057.399-2.372.917-3.528.848-.852-.051-.711.013-.933-.638-1.003-2.895-1.179-5.979-2.613-8.831l-5.563 7.234c7.203 1.468 14.582 1.177 21.571-1.174l-5.563-7.233c-2.402 3.537-6.552 5.738-10.612 5.961-2.655.146-4.925 2.159-4.925 4.925 0 2.553 2.257 5.07 4.925 4.925 7.85-.432 14.706-4.346 19.117-10.839 2.377-3.503-1.58-8.573-5.563-7.233-5.302 1.781-10.831 2.291-16.333 1.174-4.3-.874-7.546 3.301-5.563 7.233.754 1.494.817 3.374 1.198 5.001.502 2.12 1.392 4.176 2.814 5.838 3.272 3.819 8.475 4.042 13.002 2.697 7.46-2.214 13.978-7.815 17.023-15.006 1.037-2.445.732-5.275-1.768-6.736-2.065-1.208-5.697-.694-6.737 1.769l.008-.004z" fill="#8d5f3f" fill-rule="nonzero"/><path d="M172.177 275.866l-3.952 15.73c-1.546 6.15 7.952 8.771 9.498 2.617l3.953-15.73c1.546-6.15-7.953-8.77-9.499-2.617z" fill="#8d5f3f" fill-rule="nonzero"/><path d="M184.455 281.914l2.844-.969-6.06-6.059-5.7 18.371c-1.696 5.457 6.094 8.429 9.002 3.795l2.236-3.559c3.378-5.383-5.139-10.334-8.506-4.972l-2.235 3.559 9.001 3.794 5.7-18.372c1.075-3.464-2.522-7.258-6.059-6.059l-2.844.967c-2.518.857-4.175 3.388-3.439 6.06.673 2.454 3.529 4.3 6.06 3.439v.005zM175.775 222.46c-6.694 2.526-11.572 7.416-14.026 14.145l9.499 2.616 2.968-8.903-9.499-2.617-7.16 22.878 9.498 2.616 2.034-9.953c1.268-6.196-7.515-8.676-9.498-2.616-1.491 4.552-3.006 9.096-4.471 13.657-1.465 4.561-1.811 9.284 1.507 13.04 2.399 2.715 6.078 3.927 9.559 4.449 4.458.673 9.117 1.289 13.546.09 8.355-2.269 13.173-10.428 14.449-18.526 1.336-8.479 2.145-19.644-5.675-25.301-3.867-2.796-9.113-3.036-13.066-.261-4.38 3.079-5.982 7.952-6.937 12.993-.454 2.402.463 4.848 2.852 5.811 2.176.874 4.985.193 6.149-2.017l8.454-16.025-9.001-1.177c1.361 7.361 2.881 14.907 6.817 21.395 3.747 6.171 10.051 11.284 17.589 11.074l-4.75-6.235c-.137.72.223.339-.424.788-.055.038-.805.236-1.057.278-1.628.258-3.384-.085-5.011-.183-4.142-.253-7.704.539-11.023 3.104-3.234 2.501-.617 8.942 3.482 8.407l3.789-.497-4.749-6.235.09-.339 1.769-1.768 1.186-.223 4.925 4.925-1.765-18.248c-.209-2.188-1.383-4.137-3.614-4.749-1.97-.54-4.646.317-5.563 2.261l-6.03 12.831 9.002 3.794 1.383-9.302c.39-2.629-.655-5.293-3.438-6.06-2.514-.689-5.422.849-6.06 3.439l-3.049 12.415 9.674 1.311.659-7.397c.433-4.881-7.002-6.689-9.177-2.483l-5.152 9.956 9.178 2.484.796-12.359c.154-2.415-1.991-4.565-4.27-4.834-2.607-.309-4.458 1.185-5.404 3.528l-2.737 6.78 9.674 1.31.125-5.739c.047-2.154-1.563-4.184-3.614-4.749-1.923-.527-4.711.295-5.564 2.261l-5.079 11.743c-1.516 3.507.253 7.13 4.253 7.408l8.103.57c2.655.189 4.924-2.398 4.924-4.925 0-2.822-2.261-4.736-4.924-4.925l-8.103-.569 4.252 7.408 5.079-11.743-9.177-2.483-.124 5.738c-.051 2.424 1.91 4.557 4.269 4.836 2.608.308 4.458-1.187 5.405-3.529l2.737-6.779-9.675-1.311-.796 12.359c-.313 4.848 6.972 6.745 9.177 2.484l5.152-9.956-9.177-2.484-.66 7.395c-.497 5.568 8.368 6.634 9.675 1.311l3.048-12.415-9.498-2.617-1.383 9.302c-.36 2.428.398 4.822 2.852 5.811 2.098.844 5.092.236 6.149-2.017l6.03-12.83-9.178-2.484 1.765 18.248c.257 2.642 2.047 4.937 4.925 4.924 3.084-.017 5.597-1.944 6.453-4.903.798-2.758-1.524-6.655-4.749-6.236l-3.789.498 3.481 8.406c.741-.574 2.745-.296 3.662-.244 2.454.137 4.796.381 7.245-.017 4.215-.685 8.309-3.7 9.144-8.073.578-3.027-1.332-6.33-4.749-6.235-4.771.133-8.129-4.15-10.171-8.15-2.694-5.267-3.675-11.331-4.741-17.091-.771-4.167-7.105-4.771-9.002-1.178l-8.453 16.025 9.001 3.795c.437-2.317 1.011-6.647 3.092-7.623.814-.381 1.268-.108 1.919.402.934.737 1.4 1.773 1.687 2.925.882 3.567.497 7.833.009 11.448-.411 3.048-1.247 6.222-3.153 8.693-1.905 2.471-4.222 3.43-7.185 3.469-2.964.038-6.702-.236-9.221-1.242-.741-.296-1.216-.463-1.331-.994-.283-1.328.667-3.147 1.062-4.368 1.396-4.286 2.805-8.569 4.21-12.851l-9.499-2.617-2.034 9.952c-1.264 6.18 7.588 8.715 9.498 2.617l7.16-22.877c.793-2.54-.937-5.371-3.439-6.06-2.685-.737-5.211.908-6.059 3.439l-2.968 8.903c-.84 2.522.972 5.379 3.439 6.06 2.741.754 5.143-.929 6.059-3.439 1.161-3.19 3.979-6.073 7.148-7.267 2.488-.939 4.192-3.324 3.439-6.06-.655-2.385-3.559-4.386-6.06-3.439l.005.022z" fill="#8d5f3f" fill-rule="nonzero"/><path d="M180.939 265.443c-.15 3.829-1.083 7.567-2.801 10.997l9.002 1.178-.21-.723c-1.768-6.073-11.275-3.491-9.498 2.616l.21.723c1.122 3.851 7.04 5.092 9.002 1.179 2.522-5.033 3.922-10.338 4.145-15.97.253-6.338-9.601-6.329-9.85 0z" fill="#8d5f3f" fill-rule="nonzero"/><path d="M181.902 262.39l-4.946 18.941c-1.601 6.137 7.898 8.758 9.499 2.617l4.946-18.942c1.602-6.137-7.897-8.757-9.499-2.616z" fill="#8d5f3f" fill-rule="nonzero"/><path d="M182.01 264.136c.222 7.628-2.279 15.126-7.345 20.886-1.756 1.996-1.965 4.998 0 6.964 1.79 1.79 5.203 2.004 6.964 0 6.766-7.696 10.526-17.572 10.23-27.85-.183-6.324-10.033-6.35-9.849 0z" fill="#8d5f3f" fill-rule="nonzero"/><path d="M182.631 266.385c-.531 4.137-1.884 8.227-3.769 11.935l9.178 2.484v-1.161c.021-6.337-9.828-6.346-9.846 0v1.161c-.017 4.707 6.912 6.942 9.174 2.484 2.736-5.383 4.346-10.933 5.112-16.908.339-2.642-2.505-4.924-4.924-4.924-2.942 0-4.587 2.274-4.925 4.924v.005z" fill="#8d5f3f" fill-rule="nonzero"/><path d="M184.018 264.03a66.358 66.358 0 0 1-7.105 17.074c-3.173 5.375 5.281 10.432 8.505 4.972a76.314 76.314 0 0 0 8.099-19.429c1.61-6.138-7.889-8.754-9.499-2.617z" fill="#8d5f3f" fill-rule="nonzero"/><path d="M185.085 265.049c-1.307 5.357-2.973 10.646-5.152 15.713-1.049 2.44-.724 5.28 1.768 6.736 2.077 1.216 5.679.689 6.737-1.769 2.527-5.871 4.633-11.854 6.145-18.068 1.512-6.213-7.995-8.783-9.498-2.616v.004z" fill="#8d5f3f" fill-rule="nonzero"/><path d="M185.448 265.075c-1.147 5.871-3.018 11.502-5.763 16.821-2.904 5.623 5.592 10.612 8.505 4.972 3.126-6.059 5.447-12.479 6.757-19.173.51-2.608-.741-5.314-3.439-6.059-2.415-.664-5.546.817-6.06 3.439z" fill="#8d5f3f" fill-rule="nonzero"/><path d="M186.72 265.143l-5.43 17.571c-1.875 6.069 7.632 8.668 9.499 2.617l5.43-17.571c1.876-6.069-7.631-8.668-9.499-2.617zM263.977 150.043c-3.991 4.757-5.965 11.262-3.889 17.339 1.971 5.76 6.557 10.141 12.437 11.769 7.712 2.132 11.005-9.846 3.301-11.975a10.279 10.279 0 0 1-1.182-.363c.536.218.471.167-.192-.163-.12-.081-1.473-1.127-.75-.476-.231-.205-1.52-1.824-1.044-1.083a11.203 11.203 0 0 1-.621-1.071c.158.45.171.471.025.06-.466-1.327-.496-1.953-.313-2.98-.15.835.656-1.961.198-.809.115-.296 1.237-1.975.809-1.465 2.154-2.57 2.518-6.266 0-8.783-2.214-2.214-6.617-2.583-8.783 0h.004z" fill="#8d5f3f" fill-rule="nonzero"/><path d="M273.813 148.415c-3.674 5.225-5.55 11.481-5.725 17.841-.094 3.353 2.92 6.209 6.21 6.209 3.289 0 6.115-2.843 6.209-6.209.116-4.09 1.422-7.858 4.034-11.572 1.932-2.745.497-6.903-2.226-8.496-3.101-1.815-6.561-.522-8.497 2.227h-.005z" fill="#8d5f3f" fill-rule="nonzero"/><path d="M277.844 150.124c-3.276 7.37-5.135 15.031-5.302 23.117-.09 4.402 4.021 6.595 7.859 5.986l.813-.128c3.315-.523 5.156-4.663 4.338-7.64-.972-3.533-4.312-4.861-7.64-4.338l-.814.128 7.859 5.987c.115-5.704 1.289-11.631 3.606-16.847 1.362-3.062.891-6.672-2.227-8.497-2.647-1.545-7.126-.852-8.497 2.227l.005.005z" fill="#8d5f3f" fill-rule="nonzero"/><path d="M285.351 157.104l-4.454 16.809c-.856 3.242 1.083 6.745 4.338 7.64 3.221.887 6.775-1.084 7.64-4.338l4.454-16.809c.856-3.242-1.084-6.745-4.338-7.64-3.255-.895-6.775 1.084-7.64 4.338z" fill="#8d5f3f" fill-rule="nonzero"/><path d="M270.122 176.757l-2.453 15.905c-.51 3.31.839 6.676 4.338 7.64 2.942.809 7.125-1.002 7.639-4.338l2.454-15.906c.51-3.31-.839-6.676-4.338-7.64-2.942-.809-7.126 1.003-7.64 4.339z" fill="#8d5f3f" fill-rule="nonzero"/><path d="M267 182.748c.154-1.152-.231 1.525-.27 1.773-.111.728-.231 1.456-.355 2.184a161.07 161.07 0 0 1-3.311 15.13 164.693 164.693 0 0 1-6.324 18.877c-1.029 2.548-2.095 4.942-3.611 8.094a162.809 162.809 0 0 1-4.586 8.839 164.578 164.578 0 0 1-11.182 17.349c-2.197 2.989-.595 8.012 2.535 9.67 3.683 1.948 7.323.654 9.67-2.536 17.156-23.322 27.733-50.752 31.571-79.376.492-3.678-3.602-7.22-7.066-7.066-4.248.188-6.54 3.122-7.066 7.066l-.005-.004z" fill="#8d5f3f" fill-rule="nonzero"/><path d="M278.28 177.099c-.162 3.127-.437 6.24-.805 9.345 0 .021-.149 1.195-.059.492.089-.702-.069.471-.069.493-.124.831-.249 1.665-.386 2.496a131.737 131.737 0 0 1-.839 4.617 134.087 134.087 0 0 1-4.964 18.081c-2.158 6.149-3.927 10.218-7.04 16.175a132.9 132.9 0 0 1-11.866 18.718c.299-.39-.48.609-.558.707-1.062 1.34-2.154 2.664-3.318 3.919-1.075 1.16-2.214 2.277-3.448 3.276.891-.72-.993.638-1.31.831-.287.171-.582.333-.878.492-.214.111-1.567.698-.454.257-3.426 1.353-6.197 4.788-4.934 8.693 1.076 3.323 5.011 6.39 8.694 4.934 6.873-2.72 11.828-7.516 16.316-13.259 4.377-5.602 8.398-11.438 11.897-17.631 6.792-12.021 11.884-25.134 14.895-38.611a145.595 145.595 0 0 0 3.263-24.021c.193-3.696-3.388-7.228-7.066-7.065-3.996.179-6.857 3.104-7.066 7.065l-.005-.004z" fill="#8d5f3f" fill-rule="nonzero"/><path d="M235.665 256.762a201.615 201.615 0 0 1-35.484 35.55c-3.29 2.556-2.887 8.556 0 11.202 3.486 3.199 7.695 2.728 11.202 0a201.379 201.379 0 0 0 35.485-35.549c2.535-3.268 3.422-8.059 0-11.203-2.835-2.604-8.492-3.498-11.203 0z" fill="#8d5f3f" fill-rule="nonzero"/><path d="M239.134 264.548l-25.935 21.558c-4.355 3.623-8.74 7.126-10.651 12.693-2.055 5.992-.085 13.426 5.577 16.736 11.327 6.621 21.506-4.047 28.713-11.665 6.707-7.088 12.788-14.839 18.12-23.015 6.141-9.421 11.113-19.502 15.186-29.977 1.503-3.872-1.653-8.861-5.533-9.747-4.544-1.036-8.137 1.387-9.747 5.533-.347.895-.703 1.782-1.062 2.673-.574 1.434-.155.393-.03.098a147.092 147.092 0 0 1-3.281 7.19 151.66 151.66 0 0 1-14.127 23.318c-.356.484-.711.964-1.076 1.44-.124.162-1.036 1.353-.471.624.566-.727-.359.455-.488.613-.296.377-.595.749-.899 1.122a149.181 149.181 0 0 1-10.299 11.498 137.75 137.75 0 0 1-4.382 4.236c-.342.317-.685.63-1.036.938-.167.145-1.319 1.032-.552.484.766-.549-.438.261-.621.372-.596.36-1.337.591-.279.253-.205.064-1.927.304-.681.244 1.482-.073-1.109.287.334.025 1.444-.261-1.019.009.305.147l.406.192c-.616-.372-.664-.381-.15-.03.292.411.707.93 1.016 1.332.77.998-.266-.96.046.304.373 1.511-.231-1.174-.034.3.176 1.315.462-1.516.051-.364-.376 1.062.258-.283.356-.531.394-1.007-.749.693.017-.078.668-.672 1.289-1.361 1.996-1.995 1.764-1.584 3.631-3.062 5.452-4.578l24.962-20.748c3.199-2.66 2.955-8.493 0-11.204-3.4-3.121-7.79-2.839-11.203 0v.009z" fill="#8d5f3f" fill-rule="nonzero"/><path d="M272.122 206.7a128.975 128.975 0 0 1-4.496 16.128 125.604 125.604 0 0 1-2.146 5.67c-.163.403-.856 2.017-.3.736a138.813 138.813 0 0 1-3.644 7.739 128.695 128.695 0 0 1-12.141 19.279c.976-1.297-.437.549-.514.648a129.834 129.834 0 0 1-5.559 6.5c-2.792 3.067-3.254 8.218 0 11.203 3.041 2.793 8.223 3.272 11.204 0 16.299-17.901 27.866-39.981 32.876-63.693.856-4.043-1.19-8.758-5.533-9.747-3.974-.904-8.83 1.199-9.747 5.532v.005z" fill="#8d5f3f" fill-rule="nonzero"/><path d="M257.219 248.643l-7.208 7.13c-2.95 2.921-3.138 8.321 0 11.203 3.178 2.917 8.056 3.113 11.204 0l7.207-7.13c2.951-2.921 3.139-8.322 0-11.203-3.177-2.917-8.055-3.114-11.203 0z" fill="#8d5f3f" fill-rule="nonzero"/><path d="M153.737 105.089l24.085 1.769c.441.03.852-.223 1.023-.63l9.105-22.389a1.018 1.018 0 0 1 1.935.159l5.795 23.455c.106.424.466.741.903.784l24.085 1.768c.565.048.99.549.938 1.118a1.038 1.038 0 0 1-.467.779L200.6 124.651a1.035 1.035 0 0 0-.471 1.105l5.794 23.456a1.02 1.02 0 0 1-1.653 1.023l-18.487-15.571a1.071 1.071 0 0 0-1.225-.077l-20.535 12.732a1.036 1.036 0 0 1-1.421-.373 1.028 1.028 0 0 1-.077-.89l9.104-22.389a1.119 1.119 0 0 0-.278-1.178l-18.488-15.571a1.08 1.08 0 0 1 .06-1.529c.218-.202.509-.304.809-.287l.005-.013z" fill="#6f93fc" fill-rule="nonzero"/><path d="M131.819 175.172a33.164 33.164 0 0 0 6.899-3.627 30.562 30.562 0 0 0 10.016-12.103c1.872-4.154 4.232-12.732.828-15.69a3.559 3.559 0 0 0-2.523-.827 4.205 4.205 0 0 0-2.994 2.248c-.981 1.735-.946 2.878-.831 3.037.198.196.591-.626 1.696-2.013 2.318-2.921 4.797-1.148 3.272 5.361a29.054 29.054 0 0 1-16.444 20.025c-3.11 1.332-4.763 2.082-6.188 5.559-2.75 6.693-1.74 14.286-.236 21.443.805 3.828 1.34 4.218 1.34.196 0-5.845-1.113-13.258 1.461-19.669a5.718 5.718 0 0 1 3.704-3.94zM131.07 233.628c-1.821-8.629-2.955-15.134-3.786-18.564-2.163-8.972-1.503 5.969.552 18.406 2.442 14.745 6.484 32.277 17.777 42.927.42.471.964.814 1.572.981-1.945-6.398-8.844-9.224-16.115-43.75zM119.442 284.44c-9.549-22.183-13.455-47.775-15.69-71.74-.528-5.679-1.046-6.308-1.302-.476-1.242 28.453 8.937 79.68 31.061 98.031 4.415 3.662 5.044 3.747 1.301-.552-4.256-3.657-11.944-17.293-15.374-25.267l.004.004zM259.137 167.211c1.179 5.602 3.744 5.931 5.91 8.317 1.769 1.657 1.392 4.179 1.144 6.346-3.353 29.489-16.663 49.262-31.455 74.773-6.531 11.258 1.769.394 8.951-10.445a183.008 183.008 0 0 0 20.731-40.204 119.86 119.86 0 0 0 5.045-25.229 12.623 12.623 0 0 0-.159-3.786 7.525 7.525 0 0 0 3.666 1.5c.668-.039.707-.275.274-.591-.475-.351-1.349-.896-2.402-1.735-3.576-2.843-8.124-4.964-9.186-9.82-1.148-5.242-1.735-13.16 3.156-16.95a7.104 7.104 0 0 1 3.627-.784c.904-.06 1.417-.038 1.499-.158.077-.077-.197-.274-.981-.471a7.964 7.964 0 0 0-4.098-.043c-5.306 1.383-7.417 11.276-5.722 19.28zM274.551 162.166c.256-.912.393-2.518.826-4.492.479-2.21 1.058-4.415 1.614-6.625a15.09 15.09 0 0 1 1.615-4.492c.274-.433.475-.711.394-.947-.09-.454-1.692-.553-3.191 1.225-2.706 3.203-4.933 11.871-2.603 15.37.612.921 1.087.861 1.34-.039h.005zM279.595 163.742c1.353 2.184 1.705-1.683 2.09-4.218.309-1.996.728-3.97 1.259-5.914.69-2.475 2.24-6.552.159-5.319a9.546 9.546 0 0 0-2.998 3.863c-2.215 4.569-1.803 9.499-.514 11.588h.004zM288.186 164.491c.368-1.245.608-2.526.711-3.824a36.072 36.072 0 0 1 1.494-4.809c1.974-5.893.313-7.062-2.719-1.615a12.072 12.072 0 0 0-1.893 5.953 8.59 8.59 0 0 0 1.105 4.334c.514.711.972.745 1.302-.039zM292.683 174.739c-.912-.757.09 20.034-9.624 48.05-10.033 28.958-32.281 71.548-56.091 89.123a51.878 51.878 0 0 0-5.362 3.94c-.12.236 1.738-.308 5.482-2.445 12.084-6.908 22.547-20.273 30.469-31.733a239.576 239.576 0 0 0 27.948-56.247 136.137 136.137 0 0 0 7.726-44.109 24.777 24.777 0 0 0-.545-6.582l-.003.003zM150.11 173.99c9.883 2.197 20.303 4.437 30.349 4.338 42.654-.432 56.594-21.828 67.959-23.614a11.432 11.432 0 0 1 4.493.198c.355.085 1.735.783 2.09.629.432-.236-3.152-1.966-3.469-2.09a11.932 11.932 0 0 0-6.27.078c-10.95 2.835-17.832 15.078-50.452 20.341-16.059 2.587-32.165.026-44.066-1.066-5.675-.519-6.309-.077-.634 1.186z" fill="#191919" fill-rule="nonzero"/><path d="M154.088 207.535c13.027-3.216 25.327-10.95 27.121-24.204.111-.468.124-.947.039-1.418-.082-.077-.261.197-.553.865a28.587 28.587 0 0 1-8.951 13.404c-13.215 10.899-35.06 11.314-52.032 9.696-.197-.022-21.472-2-21.678-2.09-.663-.287-.48-.514-.475-1.26.082-6.231.098-22.071.12-23.767 0-.471.274-1.85-.077-2.287-.159-.235-.771 1.306-1.225 4.493-.865 6.132-1.285 15.785-1.495 19.395-.081 1.417-.869 4.454.313 5.559.981.924 22.783 3.207 24.124 3.348a99.384 99.384 0 0 0 34.764-1.738l.005.004zM179.316 28.424c8.15-10.711 13.747-15.268 24.796-25.19a26.73 26.73 0 0 1 2.719 2.09 186.71 186.71 0 0 1 13.52 13.246c9.413 10.016 17.841 23.451 19.747 37.253a32.418 32.418 0 0 1-5.122 21.803c-1.114 1.794-.801 1.815.197.783a24.945 24.945 0 0 0 2.599-2.916 28.33 28.33 0 0 0 5.084-14.308 45.85 45.85 0 0 0-4.574-21.443c-6.518-14.766-17.657-27.579-30.432-37.759-1.687-1.349-3.888-3.023-5.833-1.143-8.457 8.175-17.408 16.171-23.454 26.372a17.28 17.28 0 0 0-2.356 4.886c.073.313 1.028-.938 3.105-3.666l.004-.008zM350.115 140.878a66.766 66.766 0 0 0-.514-4.771 8.622 8.622 0 0 0-.869-3.665 1.65 1.65 0 0 0-1.657-.711c-1.298.321-1.624 2.355-2.09 3.429a42.325 42.325 0 0 1-20.539 20.733c-7.996 3.913-16.085 5.64-24.243 2.958-.831-.273-2.326-1.374-3.144-1.177-.158.038.21.376 1.221 1.062 6.179 4.192 13.875 3.627 20.693 1.657a48.775 48.775 0 0 0 16.628-8.436c4.219-3.328 11.195-11.555 11.041-13.011a64.056 64.056 0 0 1-.634 17.263 115.076 115.076 0 0 1-16.436 39.181c-1.735 2.445-7.4 9.567-10.287 10.411a6.74 6.74 0 0 1 .197-2.758c1.538-11.302-3.078-25.532-13.914-30.826a26.905 26.905 0 0 0-6.072-2.051 6.863 6.863 0 0 0-2.163-.313c-.591.296 5.919 1.996 9.542 4.925a31.08 31.08 0 0 1 9.499 17.028c.504 2.487.714 5.027.629 7.566-.077 2.326-1.358 5.487-.514 7.688a2.85 2.85 0 0 0 2.09 1.849c1.82.326 3.747-1.417 5.083-2.445 13.623-10.483 28.097-42.564 26.436-65.595l.017.009z" fill="#191919" fill-rule="nonzero"/><path d="M99.735 156.175a23.699 23.699 0 0 1 4.65 2.047c3.409 1.405 5.76 2.129 5.439 2.129a34.93 34.93 0 0 0-4.651 10.213 66.406 66.406 0 0 0-1.854 27.04c.394 2.051.869 2.287 1.302.197.865-4.18 1.246-15.922 3.469-25.978 1.708-7.725 2.517-8.826 2.877-11.156 1.893.433 3.786 1.165 5.675 1.658 7.228 1.871 10.95 2.059 8.393.312-3.824-2.608-16.427-6.483-20.928-7.528a16.432 16.432 0 0 0 1.931-1.178 40.967 40.967 0 0 0 8.36-8.278c13.584-16.625 25.057-45.335 24.911-46.795-.175-.964-6.574 14.385-16.398 30.234-4.231 6.827-12.32 18.998-19.472 23.1-4.715 2.707-6.446-.167-6.977-5.52-2.076-20.877 19.053-79.393 40.992-105.838 3.769-4.539 10.921-12.312 14.784-7.841a10.8 10.8 0 0 1 1.734 5.91 74.394 74.394 0 0 1-1.695 19.472 225.929 225.929 0 0 1-8.279 29.76c-2.308 6.873-3.785 10.608-3.665 11.036.252 2.518 24.26-53.913 14.033-68.234a103.108 103.108 0 0 1 18.998 6.112 94.158 94.158 0 0 1 22.23 12.963 259.367 259.367 0 0 1 22.624 20.855 109.572 109.572 0 0 1 25.7 38.47c4.766 12.252 3.798 14.989 6.03 21.914a18.54 18.54 0 0 0 3.546 6.818 9.751 9.751 0 0 0 3.939 2.719 3.38 3.38 0 0 0 1.769.235c.12-.119-.278-.235-1.067-.629a10.906 10.906 0 0 1-3.233-2.638c-4.453-5.105-3.379-15.439-8.081-28.616a105.389 105.389 0 0 0-24.076-38.513 239.176 239.176 0 0 0-23.926-22.071 88.86 88.86 0 0 0-24.201-13.554 72.048 72.048 0 0 0-21.408-5.127 6.049 6.049 0 0 0-5.439-1.143c-18.83 4.368-50.987 72.503-54.357 108.716-.561 6.046-.942 16.367 4.77 18.448a5.2 5.2 0 0 0 1.542.27l.009.009z" fill="#191919" fill-rule="nonzero"/><path d="M125.121 70.756c3.251-6.008 12.586-23.22 16.715-28.577 1.85-2.402 3.075-3.627 3.113-3.824 0-.077-.235.077-.784.552a25.883 25.883 0 0 0-2.445 2.445c-4.552 5.105-10.522 15.546-17.344 27.554a220.273 220.273 0 0 0-18.758 42.572 170.287 170.287 0 0 0-5.682 27.078 11.596 11.596 0 0 0 .274 5.127c.407 1.259 1.85 4.098 3.584 3.349.078-.039-.197-.12-.783-.394a4.617 4.617 0 0 1-1.932-2.287 11.864 11.864 0 0 1-.081-6.227c3.751-24.312 12.504-45.904 24.123-67.364v-.004zM172.734 272.355c-.206.09-.411.188-.617.27a6.259 6.259 0 0 1-.706 1.199 4.852 4.852 0 0 1-.275.518h.017a37.979 37.979 0 0 0-3.939 11.631c-1.26-.278-2.527-.651-3.825-.831-.513-.072-3.708-.231-2.445.947 1.413 1.306 5.203 3.584 7.216 3.143 2.993-.638 3.404-7.053 3.983-9.379.48-1.931.801-3.576 1.006-4.804.022-.339.073-.668.155-.994a7.14 7.14 0 0 1-.57-1.705v.005zM196.112 285.918c-1.76.475-3.55.817-5.362 1.023.836-2.809 1.101-4.364 1.375-5.477.022 0 .043 0 .064.004.005-.295.052-.591.138-.874.017-.15.047-.3.085-.445a2.84 2.84 0 0 1 .017-.604v-.021a2.375 2.375 0 0 1-.796.574 2.482 2.482 0 0 1-1.345.711c-.15.081-.308.154-.48.205a2.433 2.433 0 0 1-.942.407c-.317.882-.955 2.917-1.302 4.175a17.828 17.828 0 0 0-.749 2.642c-.514 4.818 8.488.523 9.854-1.143.835-1.019.672-1.434-.553-1.177h-.004z" fill="#191919" fill-rule="nonzero"/><path d="M211.679 283.451a.346.346 0 0 0-.356-.159l-10.641 2.129a.36.36 0 0 0-.279.428c.981 3.118 6.78 23.331-20.064 27.082-26.174 3.658-24.105-22.877-23.373-27.87a1.18 1.18 0 0 0-.63-1.178l-5.126-2.878c-.514-.316-1.191-.599-1.572-.12-4.153 5.169-22.196 38.115-.865 92.276h56.64c0-.043 29.01-53.694 6.266-89.719v.009zm-61.291 79.389c-7.987-15.837-9.109-35.956-6.15-53.056a30.003 30.003 0 0 1 2.484-8.514c.359 1.859.386 3.769.077 5.636a149.582 149.582 0 0 0 3.55 50.178 33.564 33.564 0 0 1 1.375 8.317c-.428-.827-.899-1.696-1.336-2.561z" fill="#6f93fc" fill-rule="nonzero"/><path d="M173.492 238.99a.54.54 0 1 0-.959-.415 51.974 51.974 0 0 0-4.806 9.22 3.406 3.406 0 0 0 .93 4.026 5.159 5.159 0 0 0 3.807.779c.561-.073.955-.583.887-1.139a1.02 1.02 0 0 0-.913-.887 5.353 5.353 0 0 1-2.526-.616c-.784-.677.133-2.154.527-2.968a29.469 29.469 0 0 0 3.057-7.996l-.004-.004zM168.276 262.625a.937.937 0 0 0-.24 1.85 9.533 9.533 0 0 0 10.758-7.152 1.024 1.024 0 0 0-1.293-1.182 34.86 34.86 0 0 1-11.705.951 36.994 36.994 0 0 1-4.021-.231.453.453 0 0 0-.252.835 25.826 25.826 0 0 0 14.346.98 8.619 8.619 0 0 1-7.589 3.94l-.004.009z" fill="#191919" fill-rule="nonzero"/><path d="M227.845 224.887a6.682 6.682 0 0 0 1.217-6.063 8.435 8.435 0 0 0-4.716-4.951 7.765 7.765 0 0 0 .883-6.835 10.45 10.45 0 0 0-6.514-5.614 6.124 6.124 0 0 0-.741-6.608c-1.965-2.711-5.649-3.332-8.783-3.734a6.83 6.83 0 0 0-3.679-6.261 12.962 12.962 0 0 0-10.094-.287 8.633 8.633 0 0 0-7.421-5.298c-4.287-.407-8.051 1.854-11.528 4.158a7.637 7.637 0 0 0-7.05-.33 18.167 18.167 0 0 0-6.36 5.551c-2.526 2.899-3.669 2.527-7.19 4.137a13.7 13.7 0 0 0-7.546 12.629c-6.783 3.756-9.241 12.299-5.485 19.083.034.064.068.128.107.188-3.199 3.336-1.512 9.34 2.839 11.494a5.364 5.364 0 0 0 1.567 4.686 8.794 8.794 0 0 0 4.763 2.35 2.718 2.718 0 0 0 3.477 3.341 61.531 61.531 0 0 0-3.113 8.424c-2.655 10.132 3.824 16.153 13.879 18.14 1.354.317 2.737.497 4.129.531.016 0 .021.056.016.15.266-.086.561-.133.887-.133.398 0 .75.073 1.058.193a23.52 23.52 0 0 0 5.743-.514 10.905 10.905 0 0 0 5.717 9.563c6.527 3.417 15.635-4.612 15.597-14.342a1.186 1.186 0 0 0-1.332-.895c-.728.051-.946.6-.895 1.332.03 4.137-1.995 7.935-4.629 10.26a2.424 2.424 0 0 1-1.015.853c-.33.342-.763.599-1.302.71-.206.099-.411.198-.617.279a2.687 2.687 0 0 1-1.374.402c-.81.15-1.607.142-2.364-.06a8.345 8.345 0 0 1-5.457-7.07c-.085-.445-.03-.874-.12-1.319.913-.317 1.658-.509 2.566-.827.925-.458.561-2.097-.493-1.802-.586.068-1.194.282-1.64.368a15.342 15.342 0 0 1 11.233-10.852 19.6 19.6 0 0 1 2.887.082.615.615 0 0 0 .432-1.101c-4.244-3.264-15.391 3.105-16.924 12.286-11.948 2.171-26.269-2.175-23.798-14.063.976-5.371 7.027-18.209 9.965-27.944a16.035 16.035 0 0 0 7.961-5.631 7.544 7.544 0 0 0 8.93 1.443 11.214 11.214 0 0 0 6.573 7.357 8.83 8.83 0 0 0 4.304 10.394 4.839 4.839 0 0 0-.689 3.092c.205 1.765 1.524 2.801 2.817 3.983-.39-.343-4.548 2.741-.437 2.261 12.629-1.413 8.912 16.197-3.267 11.875-.407-.196-.497.514-.248.836a8.427 8.427 0 0 0 12.183-2.48c7.512 2.843 12.766-2.338 11.953-7.43 5.614-.095 10.089-4.728 9.995-10.343a10.137 10.137 0 0 0-1.854-5.678 11.305 11.305 0 0 0 4.573-4.043 6.89 6.89 0 0 0 1.101-4.055c.231-1.987 0-3.996-.69-5.876l.013.008z" fill="#191919" fill-rule="nonzero"/><path d="M153.034 249.52a.51.51 0 0 0-.016-1.01c-7.521-1.375-16.762 7.859-13.443 15.631 1.854 4.497 9.276 7.006 13.506 3.045.986-.887-.153-2.189-1.237-1.606a7.055 7.055 0 0 1-10.12-2.321c-3.04-5.597 5.114-13.379 11.31-13.734v-.005zM178.905 243.016a1.433 1.433 0 1 0 2.842.368 1.433 1.433 0 0 0-2.842-.368zM164.088 240.095a1.432 1.432 0 1 0 2.843.368 1.434 1.434 0 0 0-2.843-.368z" fill="#191919" fill-rule="nonzero"/><path d="M146.465 207.163c-3.332 2.676-6.081 6.342-6.179 10.8-.112 4.908 3.16 10.308 8.346 11.109 3.97.612 8.484-1.002 9.481-5.383.84-3.683-1.122-8.827-5.383-9.482-1.284-.257-.728.133 1.666 1.169.844.835 1.272 1.885 1.28 3.148l-.153.933c.252-.813.21-.728-.125.266-.8 1.387-.223.261.236-.184.544-.527 1.143-.998 1.734-1.474 3.156-2.539 2.84-8.295 0-10.902-3.353-3.075-7.533-2.707-10.903 0z" fill="#341c15" fill-rule="nonzero"/><path d="M148.983 236.875c4.034 0 7.897-3.546 7.709-7.709-.189-4.162-3.388-7.708-7.709-7.708-4.034 0-7.897 3.546-7.708 7.708.188 4.163 3.387 7.709 7.708 7.709z" fill="#341c15" fill-rule="nonzero"/><path d="M152.127 242.926c3.473 0 6.796-3.054 6.637-6.639-.158-3.584-2.916-6.637-6.637-6.637-3.474 0-6.797 3.053-6.639 6.637.159 3.585 2.917 6.639 6.639 6.639z" fill="#341c15" fill-rule="nonzero"/><path d="M155.475 247.054c5.238 0 5.247-8.137 0-8.137-5.246 0-5.246 8.137 0 8.137zM195.889 249.996c5.786 0 5.795-8.993 0-8.993-5.794 0-5.794 8.993 0 8.993z" fill="#341c15" fill-rule="nonzero"/><path d="M195.05 242.737c4.034 0 7.897-3.546 7.708-7.708-.188-4.163-3.387-7.709-7.708-7.709-4.034 0-7.897 3.546-7.709 7.709.189 4.162 3.388 7.708 7.709 7.708z" fill="#341c15" fill-rule="nonzero"/><path d="M189.816 232.288c4.48 0 8.772-3.94 8.565-8.565-.205-4.626-3.764-8.565-8.565-8.565-4.479 0-8.77 3.939-8.565 8.565.207 4.625 3.765 8.565 8.565 8.565z" fill="#341c15" fill-rule="nonzero"/><path d="M177.882 225.796c4.479 0 8.77-3.94 8.565-8.565-.206-4.626-3.765-8.565-8.565-8.565-4.48 0-8.771 3.939-8.565 8.565.205 4.625 3.764 8.565 8.565 8.565z" fill="#341c15" fill-rule="nonzero"/><path d="M164.481 228.939c4.48 0 8.771-3.94 8.565-8.565-.205-4.625-3.764-8.565-8.565-8.565-4.479 0-8.77 3.94-8.565 8.565.206 4.625 3.765 8.565 8.565 8.565z" fill="#341c15" fill-rule="nonzero"/><path d="M151.806 222.682l-.63 2.304c-.484 1.773-.214 3.858.711 5.443a5.337 5.337 0 0 0 1.82 1.983 5.295 5.295 0 0 0 2.402 1.263c1.808.411 3.837.322 5.444-.711 1.605-1.032 2.753-2.41 3.246-4.222l.629-2.304c.484-1.773.214-3.858-.711-5.443a5.345 5.345 0 0 0-1.82-1.983 5.294 5.294 0 0 0-2.403-1.263c-1.806-.411-3.837-.321-5.442.711-1.606 1.032-2.754 2.41-3.246 4.222z" fill="#341c15" fill-rule="nonzero"/><path d="M157.15 236.832c7.439 0 7.451-11.563 0-11.563-7.452 0-7.452 11.563 0 11.563z" fill="#341c15" fill-rule="nonzero"/><path d="M152.653 227.166l-2.325 8.843c-.766 2.921.968 6.411 4.038 7.114 3.071.702 6.287-.908 7.114-4.039l2.325-8.843c.766-2.921-.968-6.411-4.038-7.113-3.071-.703-6.287.907-7.114 4.038zM164.301 213.081c.703-.45 1.418-.839 2.176-1.191l-2.557 1.079a16.426 16.426 0 0 1 3.812-1.075l-2.848.381c.497-.06.985-.098 1.482-.123 2.826-.138 5.537-1.101 7.571-3.135 1.859-1.859 3.255-4.904 3.135-7.572-.249-5.567-4.715-10.997-10.706-10.706-4.548.218-9.01 1.37-12.874 3.85-2.325 1.495-4.175 3.691-4.92 6.398-.707 2.561-.385 5.974 1.079 8.248 3.037 4.707 9.606 7.075 14.647 3.841l.003.005z" fill="#341c15" fill-rule="nonzero"/><path d="M164.053 211.877l7.328-.436c2.844-.171 5.511-1.08 7.571-3.135 1.859-1.859 3.255-4.904 3.135-7.572-.248-5.516-4.719-11.066-10.706-10.706l-7.328.437c-2.843.171-5.511 1.079-7.571 3.135-1.859 1.858-3.255 4.903-3.135 7.571.248 5.516 4.72 11.066 10.706 10.706z" fill="#341c15" fill-rule="nonzero"/><path d="M170.439 209.205c6.055-1.379 11.802-6.925 12.821-13.164a8.143 8.143 0 0 0 .193-4.27 7.936 7.936 0 0 0-1.272-3.979c-1.298-2.222-3.846-4.338-6.398-4.92-2.741-.625-5.815-.488-8.248 1.079-2.202 1.417-4.479 3.705-4.92 6.398a7.794 7.794 0 0 1-.416 1.538l1.079-2.557a8.166 8.166 0 0 1-.963 1.649l1.674-2.167a8.229 8.229 0 0 1-1.371 1.332l2.168-1.675c-.442.309-.891.57-1.379.793l2.556-1.08a8.027 8.027 0 0 1-1.216.377c-2.552.583-5.1 2.698-6.398 4.921-1.298 2.223-1.91 5.679-1.08 8.248 1.851 5.721 7.315 8.813 13.17 7.477z" fill="#341c15" fill-rule="nonzero"/><path d="M187.354 202.225l4.595-3.161c2.326-1.597 4.15-3.606 4.921-6.398.707-2.561.386-5.974-1.079-8.248-1.465-2.274-3.67-4.3-6.398-4.921-2.728-.621-5.893-.543-8.248 1.08l-4.595 3.16c-2.326 1.598-4.15 3.606-4.921 6.398-.707 2.561-.386 5.974 1.079 8.248 1.465 2.274 3.671 4.3 6.398 4.921 2.728.621 5.893.544 8.248-1.079z" fill="#341c15" fill-rule="nonzero"/><path d="M203.804 204.28l1.464-1.044a8.101 8.101 0 0 0 3.002-2.759 8.024 8.024 0 0 0 1.914-3.64 8.129 8.129 0 0 0 .193-4.269 7.927 7.927 0 0 0-1.272-3.979l-1.674-2.167a10.712 10.712 0 0 0-4.724-2.753l-2.847-.382a10.658 10.658 0 0 0-5.405 1.461l-1.465 1.045a8.09 8.09 0 0 0-3.002 2.758 8.033 8.033 0 0 0-1.914 3.64 8.14 8.14 0 0 0-.193 4.269 7.933 7.933 0 0 0 1.272 3.979l1.674 2.167a10.73 10.73 0 0 0 4.724 2.754l2.848.381a10.658 10.658 0 0 0 5.405-1.461z" fill="#341c15" fill-rule="nonzero"/><path d="M208.446 206.82l1.049.197a6.015 6.015 0 0 0 3.16.141 5.878 5.878 0 0 0 2.947-.942 5.95 5.95 0 0 0 2.222-2.038 5.942 5.942 0 0 0 1.418-2.694l.283-2.107a7.872 7.872 0 0 0-1.084-4l-1.238-1.602a7.947 7.947 0 0 0-3.494-2.038l-1.049-.197a6.019 6.019 0 0 0-3.161-.142 5.884 5.884 0 0 0-2.946.942 5.98 5.98 0 0 0-2.223 2.039 5.936 5.936 0 0 0-1.417 2.694l-.283 2.107a7.866 7.866 0 0 0 1.084 3.999l1.237 1.602a7.943 7.943 0 0 0 3.495 2.039z" fill="#341c15" fill-rule="nonzero"/><path d="M214.522 215.346c.116.004.227.017.343.034l-2.107-.282c.287.051.553.132.822.24l-1.893-.797c.266.125.506.266.741.437l-1.601-1.238c.226.185.428.377.612.6l-1.238-1.602c.176.231.321.471.446.737a5.96 5.96 0 0 0 2.038 2.223 5.94 5.94 0 0 0 2.694 1.417 6.014 6.014 0 0 0 3.16.141 5.865 5.865 0 0 0 2.947-.942c1.691-1.092 3.181-2.715 3.64-4.736l.282-2.108a7.845 7.845 0 0 0-1.083-3.999c-.831-1.782-2.433-3.212-4.038-4.278-1.756-1.165-3.709-1.538-5.765-1.692a5.991 5.991 0 0 0-3.053.681 5.926 5.926 0 0 0-2.548 1.64c-1.375 1.375-2.407 3.628-2.321 5.602.085 1.974.766 4.175 2.321 5.601l1.601 1.238a7.913 7.913 0 0 0 4 1.083z" fill="#341c15" fill-rule="nonzero"/><path d="M218.706 228.198l.836.21a6.014 6.014 0 0 0 3.16.141 5.865 5.865 0 0 0 2.946-.942 5.956 5.956 0 0 0 2.223-2.039 5.943 5.943 0 0 0 1.418-2.693l.283-2.107a7.876 7.876 0 0 0-1.084-4l-1.238-1.601a7.938 7.938 0 0 0-3.495-2.039l-.834-.21a6.018 6.018 0 0 0-3.161-.142 5.88 5.88 0 0 0-2.947.943 5.968 5.968 0 0 0-2.222 2.039 5.923 5.923 0 0 0-1.417 2.693l-.283 2.107a7.857 7.857 0 0 0 1.084 4l1.237 1.601a7.94 7.94 0 0 0 3.494 2.039z" fill="#341c15" fill-rule="nonzero"/><path d="M219.97 239.212c4.818 0 9.43-4.235 9.207-9.207-.223-4.971-4.047-9.207-9.207-9.207-4.818 0-9.43 4.236-9.208 9.207.223 4.972 4.047 9.207 9.208 9.207z" fill="#341c15" fill-rule="nonzero"/><path d="M214.523 255.148c5.374 0 10.526-4.728 10.278-10.278-.249-5.568-4.518-10.278-10.278-10.278-5.375 0-10.527 4.728-10.278 10.278.248 5.55 4.518 10.278 10.278 10.278zM168.46 217.599c3.696 0 7.238-3.251 7.066-7.067-.171-3.815-3.104-7.065-7.066-7.065-3.696 0-7.237 3.25-7.066 7.065.171 3.816 3.105 7.067 7.066 7.067z" fill="#341c15" fill-rule="nonzero"/><path d="M176.421 216.793l14.064-1.879c2.899-.386 5.246-1.469 6.458-4.343 1.075-2.544.595-5.755-1.46-7.717-2.334-2.227-5.307-4.274-8.706-4.081-3.855.218-7.632 2.484-8.733 6.377-.998 3.533.24 7.207 2.886 9.674 1.388 1.293 2.938 2.051 4.698 2.698.471.197.373.15-.299-.141l.531.261c-1.983-2.052-3.238-6.3.642-8.09l8.565 11.096 10.163-9.345-12.064-4.997-.942 9.203c-.3 2.929 2.398 6.18 5.185 6.813 3.281.75 6.056-.595 7.979-3.246l4.882-6.727-13.169-3.568-1.927 15.738c-.355 2.917 2.442 6.188 5.187 6.814 3.344.762 5.973-.643 7.977-3.246l5.341-6.929-12.916-5.443-2.069 11.832c-.634 3.628.973 7.79 4.934 8.694 4.073.929 7.229-1.247 8.694-4.934l4.599-11.601-13.627-3.756-5.606 23.036c-.873 3.584 1.139 7.828 4.934 8.693 3.794.865 7.755-1.092 8.693-4.933l5.606-23.036c.873-3.584-1.14-7.828-4.934-8.693-4.072-.929-7.228 1.246-8.693 4.933l-4.6 11.601 13.628 3.756 2.068-11.832c.612-3.508-.651-6.882-4.09-8.338-3.507-1.482-6.638.055-8.822 2.89l-5.34 6.93 13.169 3.567 1.926-15.738c.356-2.917-2.44-6.189-5.185-6.814-3.281-.749-6.056.595-7.979 3.246l-4.882 6.728 13.169 3.567.942-9.203c.283-2.745-2.008-5.473-4.342-6.458-2.673-1.126-5.593-.492-7.718 1.461-3.387 3.113-6.775 6.231-10.162 9.344-2.591 2.386-2.612 6.612-.552 9.276 2.278 2.946 5.867 3.319 9.117 1.82 5.362-2.476 5.743-10.175 2.034-14.162-1.614-1.739-3.336-2.45-5.443-3.362-.758-.3-.745-.296.03.009 2.428 1.986 1.735 4.818-2.081 8.487-.963.219-1.893.189-2.796-.098-.553-.394-.514-.322.111.223l4.998-12.064-14.064 1.88c-3.649.488-7.255 2.899-7.066 7.066.154 3.409 3.143 7.589 7.066 7.066l-.009-.005zM194.694 248.882l-1.841 1.414c-1.109.852-.523 2.693.989 2.347 2.403-.549 4.733-.776 6.321 1.477 1.088 1.541 1.353 3.619.84 5.413-1.08 3.786-5.512 5.341-8.908 3.623-1.473-.745-2.775 1.473-1.298 2.219 5.071 2.56 11.628.042 12.822-5.752.54-2.617-.06-5.495-1.803-7.55-2.316-2.736-5.421-2.646-8.659-1.914l.989 2.346 1.842-1.413c1.293-.993.013-3.225-1.297-2.218l.003.008z" fill="#341c15" fill-rule="nonzero"/><path d="M203.482 262.895c2.925.312 6.068.488 8.595-1.294 2.103-1.481 3.203-3.832 3.328-6.354.081-1.654-2.489-1.65-2.57 0-.257 5.19-5.327 5.507-9.353 5.079-1.644-.177-1.631 2.397 0 2.569z" fill="#341c15" fill-rule="nonzero"/><path d="M201.624 250.699c-.146.145-.797-.044-.844.038-.103.18.591 1.057.733 1.233.547.664 1.288 1.251 2.154 1.439 1.863.411 3.905-.749 4.226-2.685.45-2.728-2.462-4.63-4.651-2.707l-1.862 1.636 4.372 3.375c-1.85-1.327-2.938-1.357-3.264-.085-1.019 2.26.648 4.564 3.144 4.089l1.494-.287-2.706-4.651c-1.837 1.538-2.698 3.632-2.865 5.983-.115 1.601 1.375 2.651 2.784 2.783 4.111.39 7.803-2.359 8.655-6.384h-5.37c.351.873.359 1.032-.574 1.212-3.512.681-2.026 6.046 1.481 5.37 3.508-.677 5.88-4.557 4.463-8.06-.925-2.287-4.737-2.977-5.37 0-.381 1.794-1.473 2.471-3.285 2.3l2.784 2.784c.063-.93.556-1.474 1.237-2.048 2.325-1.944-.248-5.122-2.707-4.651l-1.494.288 3.144 4.089c.972-2.154 1.473-4.715-.54-6.492-2.013-1.777-4.446-.955-5.811.959-1.928 2.707 2.124 5.345 4.371 3.375l1.863-1.636-4.65-2.707c.218-1.332 3.773.771 3.062-1.319-.158-.462-.557-.95-.899-1.297a4.77 4.77 0 0 0-2.211-1.272c-1.751-.432-3.537.132-4.787 1.404-2.514 2.557 1.418 6.497 3.935 3.936l-.012-.012z" fill="#341c15" fill-rule="nonzero"/></svg>