<svg width="40" height="40" fill="none" xmlns="http://www.w3.org/2000/svg"><g clip-path="url(#clip0_255_856)"><path d="M26.84 26.068c3.634 2.42 1.18 7.09-3.187 7.09H7.256c-4.367 0-6.82-4.67-3.186-7.09a20.47 20.47 0 0 1 11.384-3.436 20.47 20.47 0 0 1 11.385 3.436z" fill="#D7E0FF"/><path d="M13.663 22.709a20.445 20.445 0 0 0-9.593 3.36c-3.635 2.42-1.18 7.088 3.186 7.088h6.407" stroke="#6922EA" stroke-width="3" stroke-linecap="round"/><path d="M20.714 29.04c0-5.109 1.429-7.298 2.143-8.027h12.857c.715.73 2.143 2.918 2.143 8.026 0 5.837-5.628 7.99-8.485 8.72-2.857-.73-8.658-2.883-8.658-8.72zM15.46 17.06a7.43 7.43 0 1 0 0-14.86 7.43 7.43 0 0 0 0 14.86z" fill="#D7E0FF" stroke="#6922EA" stroke-width="3" stroke-linecap="round" stroke-linejoin="round"/></g><defs><clipPath id="clip0_255_856"><path fill="#fff" d="M0 0h40v40H0z"/></clipPath></defs></svg>