<?xml version="1.0" encoding="UTF-8" standalone="no"?>
<!DOCTYPE svg PUBLIC "-//W3C//DTD SVG 1.1//EN" "http://www.w3.org/Graphics/SVG/1.1/DTD/svg11.dtd">
<svg width="100%" height="100%" viewBox="0 0 1440 600" version="1.1" xmlns="http://www.w3.org/2000/svg" xmlns:xlink="http://www.w3.org/1999/xlink" xml:space="preserve" xmlns:serif="http://www.serif.com/" style="fill-rule:evenodd;clip-rule:evenodd;stroke-linejoin:round;stroke-miterlimit:2;">
    <g>
        <rect x="0" y="0" width="1440" height="600" style="fill:rgb(0,36,105);fill-opacity:0.8;"/>
        <path d="M569,266.5C514.323,62.675 477,-1.5 388,-51.5L845,-73L1206,222L1852,436.5C1830.67,527.833 1757.6,691 1636,613C1484,515.5 1492,509 1255,473C1055.28,442.663 653.5,581.5 569,266.5Z" style="fill:url(#_Linear1);fill-rule:nonzero;"/>
        <path d="M896.5,50C845.7,-35.2 806.333,-59.5 793,-61L1115,-102L1397,37L1669,77L1715,140.5L1706,481C1652.33,449.333 1543,388.5 1397,388.5C1248.39,388.5 1151.5,429.5 1018.5,388.5C919.214,357.893 960,156.5 896.5,50Z" style="fill:url(#_Radial2);fill-rule:nonzero;"/>
        <path d="M1192.5,121.5C1114.22,109.95 1078,-13.167 1075,-72L1732.5,-67L1703,145.5C1682.83,132.167 1628.8,118.1 1542,108.5C1433.5,96.5 1314.5,139.5 1192.5,121.5Z" style="fill:url(#_Linear3);fill-rule:nonzero;"/>
    </g>
    <defs>
        <linearGradient id="_Linear1" x1="0" y1="0" x2="1" y2="0" gradientUnits="userSpaceOnUse" gradientTransform="matrix(1262,1045,-1045,1262,350.5,-100)"><stop offset="0" style="stop-color:rgb(61,45,203);stop-opacity:0.5"/><stop offset="0.91" style="stop-color:rgb(98,54,175);stop-opacity:0.5"/><stop offset="1" style="stop-color:rgb(107,56,168);stop-opacity:0.5"/></linearGradient>
        <radialGradient id="_Radial2" cx="0" cy="0" r="1" gradientUnits="userSpaceOnUse" gradientTransform="matrix(187,-328,518.724,295.736,1245.5,174)"><stop offset="0" style="stop-color:rgb(107,56,168);stop-opacity:0.5"/><stop offset="1" style="stop-color:rgb(105,34,234);stop-opacity:0.5"/></radialGradient>
        <linearGradient id="_Linear3" x1="0" y1="0" x2="1" y2="0" gradientUnits="userSpaceOnUse" gradientTransform="matrix(1323,548.5,-548.5,1323,777,-148.5)"><stop offset="0" style="stop-color:rgb(105,34,234);stop-opacity:0.5"/><stop offset="1" style="stop-color:rgb(184,55,224);stop-opacity:0.5"/></linearGradient>
    </defs>
</svg>
