<svg xmlns="http://www.w3.org/2000/svg" fill="none" viewBox="-0.25 -0.25 200 200" id="School-2--Streamline-Bangalore.svg"><desc>School 2 Streamline Illustration: https://streamlinehq.com</desc><g id="school-2--infrastructure-school"><g id="circle"><path id="vector" fill="#ffe65c" d="M94.27871250000001 35.81025c-7.4714745 0.00129675 -14.857962000000002 1.58452875 -21.673580250000004 4.645656750000001 -6.8155185000000005 3.061128 -12.905754750000002 7.5307260000000005 -17.8698135 13.114631250000002 -4.963959 5.584005 -8.689422 12.15583425 -10.931103750000002 19.2830715 -2.24168175 7.12723725 -2.9487097500000004 14.64838725 -2.0748 22.0684905H53.6655l31.15392 -17.556h24.2542125l31.1828475 17.556h6.569535000000001c0.8748075000000001 -7.42010325 0.16758 -14.94125325 -2.0738025 -22.0684905 -2.2413825 -7.127337000000001 -5.9660475 -13.699266 -10.930605 -19.283271000000003 -4.96356 -5.58410475 -11.0532975 -10.053702750000001 -17.869215000000004 -13.114830750000001 -6.8159175 -3.0610282500000006 -14.202405 -4.644160500000001 -21.67368 -4.645257750000001Z" stroke-width="0.5"></path><path id="vector_2" fill="#ffe65c" d="M142.28838750000003 66.46841250000001c2.1456225 -0.9075255000000001 4.046857500000001 -2.30751675 5.5510875 -4.086558 1.5032325 -1.779141 2.5665675 -3.8872575 3.10422 -6.15387675 0.5376525000000001 -2.26661925 0.5336625 -4.62790125 -0.0109725 -6.89282475 -0.5446350000000001 -2.26482375 -1.6149525 -4.36954875 -3.1241700000000003 -6.143802000000001 -1.510215 -1.7741535000000002 -3.4164375 -3.1680600000000005 -5.564055000000001 -4.068603 -2.148615 -0.90064275 -4.478775000000001 -1.282785 -6.8019525000000005 -1.1153047500000002 -2.3231775000000003 0.16738050000000002 -4.574535000000001 0.8794957500000001 -6.5725275000000005 2.07879 -1.9969949999999999 1.19929425 -3.6827700000000005 2.8519522500000005 -4.9226624999999995 4.82420925 7.9510725 5.395278 14.2891875 12.845705250000002 18.3410325 21.55797Z" stroke-width="0.5"></path><path id="vector_3" fill="#6153bd" d="M136.5048825 67.63848000000002c1.9880175000000002 0.0026932500000000003 3.9550875 -0.3952095 5.7855 -1.1700675 -4.051845 -8.712264750000001 -10.38996 -16.162692 -18.3410325 -21.55797 -1.4054775000000002 2.2452727500000003 -2.1845250000000003 4.8257055 -2.2573425 7.473669 -0.0728175 2.6479635 0.564585 5.2669995 1.8453750000000002 7.5856882500000005 1.2817875 2.31868875 3.1590825 4.252542000000001 5.4393675 5.6009625000000005 2.280285 1.3484205 4.8787725 2.06233125 7.5281325 2.0677177500000004Z" stroke-width="0.5"></path></g><g id="details"><g id="group"><path id="vector_4" stroke="#120071" stroke-linecap="round" stroke-linejoin="round" d="m27.37938 66.5841225 4.359075000000001 4.359075000000001" stroke-width="0.5"></path><path id="vector_5" stroke="#120071" stroke-linecap="round" stroke-linejoin="round" d="m31.738455000000002 66.5841225 -4.359075000000001 4.359075000000001" stroke-width="0.5"></path></g><g id="group_2"><path id="vector_6" stroke="#120071" stroke-linecap="round" stroke-linejoin="round" d="m156.3092475 82.58202750000001 4.3600725 4.359075000000001" stroke-width="0.5"></path><path id="vector_7" stroke="#120071" stroke-linecap="round" stroke-linejoin="round" d="m160.66932 82.58202750000001 -4.3600725 4.359075000000001" stroke-width="0.5"></path></g><g id="group_3"><path id="vector_8" stroke="#120071" stroke-linecap="round" stroke-linejoin="round" d="M180.397875 58.691902500000005v4.6174275" stroke-width="0.5"></path><path id="vector_9" stroke="#120071" stroke-linecap="round" stroke-linejoin="round" d="M182.7070875 61.001115000000006h-4.618425" stroke-width="0.5"></path></g><g id="group_4"><path id="vector_10" stroke="#120071" stroke-linecap="round" stroke-linejoin="round" d="M9.491212500000001 115.9922925v4.618425" stroke-width="0.5"></path><path id="vector_11" stroke="#120071" stroke-linecap="round" stroke-linejoin="round" d="M11.799427500000002 118.301505H7.182" stroke-width="0.5"></path></g></g><g id="building"><path id="vector_12" fill="#6153bd" d="M109.0736325 77.3730825H84.81942000000001l31.210777500000003 17.556h24.2262825l-31.1828475 -17.556Zm-16.167479999999998 3.5112c0 -0.1322685 0.05256825 -0.2591505 0.146034 -0.35261625 0.0935655 -0.0935655 0.22044750000000002 -0.14613375 0.35271600000000003 -0.14613375h18.39789c0.13266750000000002 0 0.25935 0.05256825 0.353115 0.14613375 0.0927675 0.09346575000000001 0.145635 0.22034775000000004 0.145635 0.35261625 0 0.1322685 -0.052867500000000005 0.2591505 -0.145635 0.35271600000000003 -0.093765 0.09346575000000001 -0.22044750000000002 0.146034 -0.353115 0.146034H93.4049025c-0.1322685 0 -0.2591505 -0.05256825 -0.35271600000000003 -0.146034 -0.09346575000000001 -0.0935655 -0.146034 -0.22044750000000002 -0.146034 -0.35271600000000003Zm7.2867375 3.5102025c0 -0.1322685 0.052867500000000005 -0.2591505 0.145635 -0.35261625 0.093765 -0.0935655 0.22044750000000002 -0.14613375 0.353115 -0.14613375h16.847775000000002c0.13266750000000002 0 0.25935 0.05256825 0.353115 0.14613375 0.0927675 0.09346575000000001 0.145635 0.22034775000000004 0.145635 0.35261625 0 0.1322685 -0.052867500000000005 0.2591505 -0.145635 0.35271600000000003 -0.093765 0.09346575000000001 -0.22044750000000002 0.146034 -0.353115 0.146034h-16.847775000000002c-0.13266750000000002 0 -0.25935 -0.05256825 -0.353115 -0.146034 -0.0927675 -0.0935655 -0.145635 -0.22044750000000002 -0.145635 -0.35271600000000003Zm7.132125000000001 3.5112c0 -0.1322685 0.052867500000000005 -0.2591505 0.145635 -0.35261625 0.093765 -0.0935655 0.22044750000000002 -0.14613375 0.353115 -0.14613375h16.796902499999998c0.13266750000000002 0 0.25935 0.05256825 0.353115 0.14613375 0.0927675 0.09346575000000001 0.145635 0.22034775000000004 0.145635 0.35261625 0 0.1322685 -0.052867500000000005 0.2591505 -0.145635 0.35271600000000003 -0.093765 0.09346575000000001 -0.22044750000000002 0.146034 -0.353115 0.146034h-16.796902499999998c-0.13266750000000002 0 -0.25935 -0.05256825 -0.353115 -0.146034 -0.0927675 -0.0935655 -0.145635 -0.22044750000000002 -0.145635 -0.35271600000000003Zm23.1868875 4.0089525h-16.847775000000002c-0.13266750000000002 0 -0.25935 -0.05256825 -0.353115 -0.146034 -0.0927675 -0.0935655 -0.145635 -0.22044750000000002 -0.145635 -0.35271600000000003 0 -0.1322685 0.052867500000000005 -0.2591505 0.145635 -0.35261625 0.093765 -0.0935655 0.22044750000000002 -0.14613375 0.353115 -0.14613375h16.847775000000002c0.13266750000000002 0 0.25935 0.05256825 0.353115 0.14613375 0.0927675 0.09346575000000001 0.145635 0.22034775000000004 0.145635 0.35261625 0 0.1322685 -0.052867500000000005 0.2591505 -0.145635 0.35271600000000003 -0.093765 0.09346575000000001 -0.22044750000000002 0.146034 -0.353115 0.146034Z" stroke-width="0.5"></path><path id="vector_13" stroke="#120071" stroke-linecap="round" stroke-linejoin="round" d="M109.0736325 77.3730825H84.81942000000001l31.210777500000003 17.553007500000003h24.2262825l-31.1828475 -17.553007500000003Z" stroke-width="0.5"></path><path id="vector_14" stroke="#120071" stroke-linecap="round" stroke-linejoin="round" d="M116.0301975 159.06833250000003V94.92609L84.81942000000001 77.3730825 53.6655 94.92609v5.19498" stroke-width="0.5"></path><path id="vector_15" stroke="#120071" stroke-linecap="round" stroke-linejoin="round" d="M53.6655 124.20670500000001v14.4866925" stroke-width="0.5"></path><path id="vector_16" stroke="#120071" stroke-linecap="round" stroke-linejoin="round" d="M53.6655 102.33153v19.664715" stroke-width="0.5"></path><path id="vector_17" stroke="#120071" stroke-linecap="round" stroke-linejoin="round" d="M53.6655 159.06833250000003H21.55797V94.92609H53.6655" stroke-width="0.5"></path><path id="vector_18" stroke="#120071" stroke-linecap="round" stroke-linejoin="round" d="M53.428095 100.12107h-31.870125v2.2104600000000003h31.870125v-2.2104600000000003Z" stroke-width="0.5"></path><path id="vector_19" stroke="#120071" stroke-linecap="round" stroke-linejoin="round" d="M53.428095 121.99624500000002h-31.870125v2.2104600000000003h31.870125v-2.2104600000000003Z" stroke-width="0.5"></path><path id="vector_20" stroke="#120071" stroke-linecap="round" stroke-linejoin="round" d="M33.6486675 106.34547h-2.0149500000000002v11.956035000000002h2.0149500000000002v-11.956035000000002Z" stroke-width="0.5"></path><path id="vector_21" stroke="#120071" stroke-linecap="round" stroke-linejoin="round" d="M43.5897525 106.34547h-9.941085v11.956035000000002h9.941085v-11.956035000000002Z" stroke-width="0.5"></path><path id="vector_22" stroke="#120071" stroke-linecap="round" stroke-linejoin="round" d="M33.6486675 129.36178500000003h-2.0149500000000002v11.956035000000002h2.0149500000000002v-11.956035000000002Z" stroke-width="0.5"></path><path id="vector_23" stroke="#120071" stroke-linecap="round" stroke-linejoin="round" d="M43.5897525 129.36178500000003h-9.941085v11.956035000000002h9.941085v-11.956035000000002Z" stroke-width="0.5"></path><path id="vector_24" stroke="#120071" stroke-linecap="round" stroke-linejoin="round" d="M188.88660000000002 94.92609h-16.5235875v64.1422425h16.5235875V94.92609Z" stroke-width="0.5"></path><path id="vector_25" stroke="#120071" stroke-linecap="round" stroke-linejoin="round" d="M172.3630125 94.92609h-32.1065325v64.1422425h32.1065325V94.92609Z" stroke-width="0.5"></path><path id="vector_26" stroke="#120071" stroke-linecap="round" stroke-linejoin="round" d="M140.2554825 94.92609h-24.225285000000003v64.1422425h24.225285000000003V94.92609Z" stroke-width="0.5"></path><path id="vector_27" fill="#6153bd" d="M97.39091250000001 59.84202v3.8284050000000005c0 0.31750425000000004 -0.12608400000000003 0.6219412500000001 -0.35062125 0.8463787500000001 -0.2244375 0.22453725 -0.5288745 0.35062125 -0.8463787500000001 0.35062125H90.77250000000001v2.631405h9.985972499999999v-7.656810000000001h-3.36756Z" stroke-width="0.5"></path><path id="vector_28" stroke="#120071" stroke-linecap="round" stroke-linejoin="round" d="M97.39091250000001 59.84202v3.8284050000000005c0 0.31750425000000004 -0.12608400000000003 0.6219412500000001 -0.35062125 0.8463787500000001 -0.2244375 0.22453725 -0.5288745 0.35062125 -0.8463787500000001 0.35062125H90.77250000000001v2.631405h9.985972499999999v-7.656810000000001h-3.36756Z" stroke-width="0.5"></path><path id="vector_29" fill="#6153bd" d="M96.192915 56.01361500000001H86.20694250000001v7.656810000000001h9.985972499999999v-7.656810000000001Z" stroke-width="0.5"></path><path id="vector_30" stroke="#120071" stroke-linecap="round" stroke-linejoin="round" d="M96.192915 56.01361500000001H86.20694250000001v7.656810000000001h9.985972499999999v-7.656810000000001Z" stroke-width="0.5"></path><path id="vector_31" stroke="#120071" stroke-linecap="round" stroke-linejoin="round" d="M86.20694250000001 53.37123750000001v24.001845000000003" stroke-width="0.5"></path><path id="vector_32" stroke="#120071" stroke-linecap="round" stroke-linejoin="round" d="M83.56556250000001 96.404385c3.21504225 0 5.82141 -2.60636775 5.82141 -5.82141 0 -3.21504225 -2.60636775 -5.82141 -5.82141 -5.82141 -3.21504225 0 -5.82141 2.60636775 -5.82141 5.82141 0 3.21504225 2.60636775 5.82141 5.82141 5.82141Z" stroke-width="0.5"></path><path id="vector_33" fill="#6153bd" d="M83.4817725 91.50067500000002c0.3988005 0 0.72219 -0.3233895 0.72219 -0.72219 0 -0.39890025 -0.3233895 -0.72219 -0.72219 -0.72219 -0.39890025 0 -0.72219 0.32328975000000004 -0.72219 0.72219 0 0.3988005 0.32328975000000004 0.72219 0.72219 0.72219Z" stroke-width="0.5"></path><path id="vector_34" stroke="#120071" stroke-linecap="round" stroke-linejoin="round" d="M83.4817725 87.1017v3.676785h3.3745425" stroke-width="0.5"></path><path id="vector_35" stroke="#120071" stroke-linecap="round" stroke-linejoin="round" d="M116.03119500000001 100.12107H53.4290925v2.2104600000000003h62.6021025v-2.2104600000000003Z" stroke-width="0.5"></path><path id="vector_36" stroke="#120071" stroke-linecap="round" stroke-linejoin="round" d="M116.03119500000001 121.99624500000002H53.4290925v2.2104600000000003h62.6021025v-2.2104600000000003Z" stroke-width="0.5"></path><path id="vector_37" fill="#ffe65c" d="M140.2554825 100.12107h-24.225285000000003v2.2104600000000003h24.225285000000003v-2.2104600000000003Z" stroke-width="0.5"></path><path id="vector_38" stroke="#120071" stroke-linecap="round" stroke-linejoin="round" d="M140.2554825 100.12107h-24.225285000000003v2.2104600000000003h24.225285000000003v-2.2104600000000003Z" stroke-width="0.5"></path><path id="vector_39" stroke="#120071" stroke-linecap="round" stroke-linejoin="round" d="M172.3630125 100.12107h-32.1065325v2.2104600000000003h32.1065325v-2.2104600000000003Z" stroke-width="0.5"></path><path id="vector_40" stroke="#120071" stroke-linecap="round" stroke-linejoin="round" d="M172.3630125 121.99624500000002h-32.1065325v2.2104600000000003h32.1065325v-2.2104600000000003Z" stroke-width="0.5"></path><path id="vector_41" fill="#ffe65c" d="M188.88660000000002 100.12107h-16.5235875v2.2104600000000003h16.5235875v-2.2104600000000003Z" stroke-width="0.5"></path><path id="vector_42" stroke="#120071" stroke-linecap="round" stroke-linejoin="round" d="M188.88660000000002 100.12107h-16.5235875v2.2104600000000003h16.5235875v-2.2104600000000003Z" stroke-width="0.5"></path><path id="vector_43" fill="#ffe65c" d="M140.2554825 121.99624500000002h-24.225285000000003v2.2104600000000003h24.225285000000003v-2.2104600000000003Z" stroke-width="0.5"></path><path id="vector_44" stroke="#120071" stroke-linecap="round" stroke-linejoin="round" d="M140.2554825 121.99624500000002h-24.225285000000003v2.2104600000000003h24.225285000000003v-2.2104600000000003Z" stroke-width="0.5"></path><path id="vector_45" stroke="#120071" stroke-linecap="round" stroke-linejoin="round" d="M62.6978625 106.34547h-2.0149500000000002v11.956035000000002h2.0149500000000002v-11.956035000000002Z" stroke-width="0.5"></path><path id="vector_46" stroke="#120071" stroke-linecap="round" stroke-linejoin="round" d="M72.6389475 106.34547h-9.941085v11.956035000000002h9.941085v-11.956035000000002Z" stroke-width="0.5"></path><path id="vector_47" stroke="#120071" stroke-linecap="round" stroke-linejoin="round" d="M81.20547750000001 106.34547h-2.0149500000000002v11.956035000000002h2.0149500000000002v-11.956035000000002Z" stroke-width="0.5"></path><path id="vector_48" stroke="#120071" stroke-linecap="round" stroke-linejoin="round" d="M91.14756000000001 106.34547H81.206475v11.956035000000002h9.941085v-11.956035000000002Z" stroke-width="0.5"></path><path id="vector_49" stroke="#120071" stroke-linecap="round" stroke-linejoin="round" d="M99.24327000000001 106.34547h-2.0149500000000002v11.956035000000002h2.0149500000000002v-11.956035000000002Z" stroke-width="0.5"></path><path id="vector_50" stroke="#120071" stroke-linecap="round" stroke-linejoin="round" d="M109.18535250000001 106.34547h-9.941085v11.956035000000002h9.941085v-11.956035000000002Z" stroke-width="0.5"></path><path id="vector_51" fill="#ffe65c" d="M134.1208575 106.34547h-2.0149500000000002v11.956035000000002h2.0149500000000002v-11.956035000000002Z" stroke-width="0.5"></path><path id="vector_52" stroke="#120071" stroke-linecap="round" stroke-linejoin="round" d="M134.1208575 106.34547h-2.0149500000000002v11.956035000000002h2.0149500000000002v-11.956035000000002Z" stroke-width="0.5"></path><path id="vector_53" stroke="#120071" stroke-linecap="round" stroke-linejoin="round" d="M132.10690499999998 106.34547h-9.941085v11.956035000000002h9.941085v-11.956035000000002Z" stroke-width="0.5"></path><path id="vector_54" stroke="#120071" stroke-linecap="round" stroke-linejoin="round" d="M152.34618 106.34547h-2.0149500000000002v11.956035000000002h2.0149500000000002v-11.956035000000002Z" stroke-width="0.5"></path><path id="vector_55" stroke="#120071" stroke-linecap="round" stroke-linejoin="round" d="M162.2882625 106.34547h-9.941085v11.956035000000002h9.941085v-11.956035000000002Z" stroke-width="0.5"></path><path id="vector_56" fill="#ffe65c" d="M134.1208575 129.36178500000003h-2.0149500000000002v11.956035000000002h2.0149500000000002v-11.956035000000002Z" stroke-width="0.5"></path><path id="vector_57" stroke="#120071" stroke-linecap="round" stroke-linejoin="round" d="M134.1208575 129.36178500000003h-2.0149500000000002v11.956035000000002h2.0149500000000002v-11.956035000000002Z" stroke-width="0.5"></path><path id="vector_58" stroke="#120071" stroke-linecap="round" stroke-linejoin="round" d="M132.10690499999998 129.36178500000003h-9.941085v11.956035000000002h9.941085v-11.956035000000002Z" stroke-width="0.5"></path><path id="vector_59" fill="#ffe65c" d="M186.09958500000002 106.34547h-1.8453750000000002v11.956035000000002h1.8453750000000002v-11.956035000000002Z" stroke-width="0.5"></path><path id="vector_60" stroke="#120071" stroke-linecap="round" stroke-linejoin="round" d="M186.09958500000002 106.34547h-1.8453750000000002v11.956035000000002h1.8453750000000002v-11.956035000000002Z" stroke-width="0.5"></path><path id="vector_61" stroke="#120071" stroke-linecap="round" stroke-linejoin="round" d="M184.25421000000003 106.34547h-9.103185v11.956035000000002h9.103185v-11.956035000000002Z" stroke-width="0.5"></path><path id="vector_62" fill="#ffe65c" d="M186.09958500000002 129.36178500000003h-1.8453750000000002v11.956035000000002h1.8453750000000002v-11.956035000000002Z" stroke-width="0.5"></path><path id="vector_63" stroke="#120071" stroke-linecap="round" stroke-linejoin="round" d="M186.09958500000002 129.36178500000003h-1.8453750000000002v11.956035000000002h1.8453750000000002v-11.956035000000002Z" stroke-width="0.5"></path><path id="vector_64" stroke="#120071" stroke-linecap="round" stroke-linejoin="round" d="M184.25421000000003 129.36178500000003h-9.103185v11.956035000000002h9.103185v-11.956035000000002Z" stroke-width="0.5"></path><path id="vector_65" stroke="#120071" stroke-linecap="round" stroke-linejoin="round" d="M99.52955250000001 129.36178500000003h-2.0149500000000002v11.956035000000002h2.0149500000000002v-11.956035000000002Z" stroke-width="0.5"></path><path id="vector_66" stroke="#120071" stroke-linecap="round" stroke-linejoin="round" d="M108.58884750000001 141.31782h0.8817900000000001v-11.956035000000002h-9.941085v11.956035000000002h2.8069650000000004" stroke-width="0.5"></path><path id="vector_67" stroke="#120071" stroke-linecap="round" stroke-linejoin="round" d="M62.6978625 129.36178500000003h-2.0149500000000002v11.956035000000002h2.0149500000000002v-11.956035000000002Z" stroke-width="0.5"></path><path id="vector_68" stroke="#120071" stroke-linecap="round" stroke-linejoin="round" d="M72.6389475 129.36178500000003h-9.941085v11.956035000000002h9.941085v-11.956035000000002Z" stroke-width="0.5"></path><path id="vector_69" stroke="#120071" stroke-linecap="round" stroke-linejoin="round" d="M152.34618 129.36178500000003h-2.0149500000000002v11.956035000000002h2.0149500000000002v-11.956035000000002Z" stroke-width="0.5"></path><path id="vector_70" stroke="#120071" stroke-linecap="round" stroke-linejoin="round" d="M162.2882625 129.36178500000003h-9.941085v11.956035000000002h9.941085v-11.956035000000002Z" stroke-width="0.5"></path><path id="vector_71" stroke="#120071" stroke-linecap="round" stroke-linejoin="round" d="M91.04382000000001 148.92675000000003h-12.4488v-15.5739675c0 -1.6508625000000001 0.6557565 -3.233895 1.823031 -4.40097 1.16737425 -1.1680725 2.7505065 -1.82343 4.401369 -1.82343 1.6507627500000002 0 3.2339947500000004 0.6553575 4.40126925 1.82343 1.16737425 1.167075 1.8231307500000002 2.7501075000000004 1.8231307500000002 4.40097V148.92675000000003Z" stroke-width="0.5"></path><path id="vector_72" stroke="#120071" stroke-linecap="round" stroke-linejoin="round" d="M78.59502 134.15876250000002h12.269250000000001" stroke-width="0.5"></path><path id="vector_73" stroke="#120071" stroke-linecap="round" stroke-linejoin="round" d="M84.81942000000001 127.12838250000001v7.03038l-4.8608175000000005 -4.694235000000001" stroke-width="0.5"></path><path id="vector_74" stroke="#120071" stroke-linecap="round" stroke-linejoin="round" d="M84.81942000000001 141.37966500000002v7.54509" stroke-width="0.5"></path><path id="vector_75" stroke="#120071" stroke-linecap="round" stroke-linejoin="round" d="m89.5405875 129.29694750000002 -4.7211675 4.861815v5.7765225000000004" stroke-width="0.5"></path><path id="vector_76" stroke="#120071" stroke-linecap="round" stroke-linejoin="round" d="M89.00094000000001 141.37966500000002H80.6379c-0.19152000000000002 0 -0.3752595 -0.07581 -0.51062025 -0.21147000000000002 -0.1354605 -0.13566000000000003 -0.21156975000000003 -0.31920000000000004 -0.21156975000000003 -0.5107200000000001s0.07610925000000002 -0.37506 0.21156975000000003 -0.5107200000000001c0.13536075 -0.13566000000000003 0.31910025000000003 -0.21147000000000002 0.51062025 -0.21147000000000002h8.363040000000002c0.19152000000000002 0 0.3752595 0.07581 0.51062025 0.21147000000000002 0.1354605 0.13566000000000003 0.21156975000000003 0.31920000000000004 0.21156975000000003 0.5107200000000001s-0.07610925000000002 0.37506 -0.21156975000000003 0.5107200000000001c-0.13536075 0.13566000000000003 -0.31910025000000003 0.21147000000000002 -0.51062025 0.21147000000000002Z" stroke-width="0.5"></path><path id="vector_77" stroke="#120071" stroke-linecap="round" stroke-linejoin="round" d="M52.6281 144.837c-0.69615525 -0.26134500000000005 -1.278396 -0.7581 -1.64537625 -1.4054775000000002 -0.36698025 -0.6463800000000001 -0.49525875 -1.4014875 -0.3624915 -2.132655 0.13276725 -0.7321650000000001 0.5181015 -1.3935075000000001 1.088871 -1.8703125 0.5707695 -0.4758075 1.2906652500000002 -0.7371525 2.03420175 -0.7371525 0.7435365 0 1.46343225 0.26134500000000005 2.03420175 0.7371525 0.5707695 0.476805 0.95610375 1.1381475 1.088871 1.8703125 0.13266750000000002 0.7311675 0.0043890000000000005 1.486275 -0.3624915 2.132655 -0.36698025 0.6473775 -0.94932075 1.1441325 -1.64537625 1.4054775000000002" stroke-width="0.5"></path><path id="vector_78" stroke="#120071" stroke-linecap="round" stroke-linejoin="round" d="M54.146295 144.838995H49.9149v14.229337500000002h4.231395v-14.229337500000002Z" stroke-width="0.5"></path><path id="vector_79" stroke="#120071" stroke-linecap="round" stroke-linejoin="round" d="M57.4151025 144.838995h-3.2688075000000003v14.229337500000002h3.2688075000000003v-14.229337500000002Z" stroke-width="0.5"></path><path id="vector_80" fill="#ffe65c" d="M90.46926 155.68680750000001H54.146295v3.3815250000000003h36.322965v-3.3815250000000003Z" stroke-width="0.5"></path><path id="vector_81" stroke="#120071" stroke-linecap="round" stroke-linejoin="round" d="M90.46926 155.68680750000001H54.146295v3.3815250000000003h36.322965v-3.3815250000000003Z" stroke-width="0.5"></path><path id="vector_82" fill="#ffe65c" d="M93.74904 152.30628H57.4151025v3.3815250000000003h36.3339375v-3.3815250000000003Z" stroke-width="0.5"></path><path id="vector_83" stroke="#120071" stroke-linecap="round" stroke-linejoin="round" d="M93.74904 152.30628H57.4151025v3.3815250000000003h36.3339375v-3.3815250000000003Z" stroke-width="0.5"></path><path id="vector_84" fill="#ffe65c" d="M97.26123750000001 148.924755H60.938272500000004v3.3815250000000003h36.322965v-3.3815250000000003Z" stroke-width="0.5"></path><path id="vector_85" stroke="#120071" stroke-linecap="round" stroke-linejoin="round" d="M97.26123750000001 148.924755H60.938272500000004v3.3815250000000003h36.322965v-3.3815250000000003Z" stroke-width="0.5"></path><path id="vector_86" stroke="#120071" stroke-linecap="round" stroke-linejoin="round" d="M101.6342775 155.68680750000001H90.46926v3.3815250000000003h11.1650175v-3.3815250000000003Z" stroke-width="0.5"></path><path id="vector_87" stroke="#120071" stroke-linecap="round" stroke-linejoin="round" d="M101.6342775 152.30628h-7.88424v3.3815250000000003h7.88424v-3.3815250000000003Z" stroke-width="0.5"></path><path id="vector_88" stroke="#120071" stroke-linecap="round" stroke-linejoin="round" d="M101.63328000000001 148.924755h-4.3730400000000005v3.3815250000000003h4.3730400000000005v-3.3815250000000003Z" stroke-width="0.5"></path><path id="vector_89" stroke="#120071" stroke-linecap="round" stroke-linejoin="round" d="M104.3474775 144.837h2.2294125c0.696255 -0.26134500000000005 1.2787950000000001 -0.7581 1.645875 -1.4054775000000002 0.36708 -0.6463800000000001 0.49476000000000003 -1.4014875 0.3620925 -2.132655 -0.13266750000000002 -0.7321650000000001 -0.5177025000000001 -1.3935075000000001 -1.0882725 -1.8703125s-1.2907650000000002 -0.7371525 -2.0339025000000004 -0.7371525c-0.744135 0 -1.4643300000000001 0.2603475 -2.0349 0.7371525 -0.57057 0.476805 -0.955605 1.1381475 -1.0882725 1.8703125 -0.13266750000000002 0.7311675 -0.004987500000000001 1.486275 0.3620925 2.132655 0.36708 0.6473775 0.94962 1.1441325 1.645875 1.4054775000000002Z" stroke-width="0.5"></path><path id="vector_90" stroke="#120071" stroke-linecap="round" stroke-linejoin="round" d="M105.8656725 144.838995h-4.231395v14.229337500000002h4.231395v-14.229337500000002Z" stroke-width="0.5"></path><path id="vector_91" stroke="#120071" stroke-linecap="round" stroke-linejoin="round" d="M109.13448000000001 144.838995h-3.2688075000000003v14.229337500000002h3.2688075000000003v-14.229337500000002Z" stroke-width="0.5"></path><path id="base" stroke="#120071" stroke-linecap="round" stroke-linejoin="round" d="M194.51250000000002 159.06833250000003H6.400947525v4.6174275H194.51250000000002v-4.6174275Z" stroke-width="0.5"></path></g><g id="tree"><path id="vector_92" fill="#ffe65c" d="M15.8931675 141.0953775c0.07561050000000001 -0.58254 0.02623425 -1.1740575000000002 -0.144837 -1.7346525000000002 -0.17107125000000004 -0.5615924999999999 -0.45994725000000003 -1.0802925 -0.84737625 -1.5211875 -0.38732925 -0.44089500000000004 -0.8643337500000001 -0.7940100000000001 -1.3990935000000002 -1.0364025 -0.5347597500000001 -0.2423925 -1.1150054999999999 -0.36708 -1.7019345000000001 -0.36708s-1.16717475 0.1246875 -1.7019345000000001 0.36708c-0.534749775 0.2423925 -1.0117343250000002 0.5955075 -1.3991234250000002 1.0364025 -0.387379125 0.44089500000000004 -0.6762551250000001 0.959595 -0.8473563000000001 1.5211875 -0.17109120000000003 0.5605950000000001 -0.22046745 1.1521125 -0.14482702500000003 1.7346525000000002 -1.142606325 0.8588475 -1.9861721250000002 2.05485 -2.4113265750000004 3.41943 -0.425144475 1.3645800000000001 -0.4103316 2.82891 0.042343875 4.1845125 0.452675475 1.3556025 1.320281025 2.5346475 2.4800244 3.3705525 1.1597433750000001 0.8349075 2.5528818 1.28478 3.9821995500000003 1.28478 1.42931775 0 2.82242625 -0.4498725 3.9822195000000002 -1.28478 1.1596935000000002 -0.835905 2.027319 -2.0149500000000002 2.4799845000000005 -3.3705525 0.4526655 -1.3556025 0.46752825000000003 -2.8199325 0.04239375000000001 -4.1845125 -0.42523425000000004 -1.3645800000000001 -1.26872025 -2.5605825 -2.4113565 -3.41943Z" stroke-width="0.5"></path><path id="vector_93" stroke="#120071" stroke-linecap="round" stroke-linejoin="round" d="M15.8931675 141.0953775c0.07561050000000001 -0.58254 0.02623425 -1.1740575000000002 -0.144837 -1.7346525000000002 -0.17107125000000004 -0.5615924999999999 -0.45994725000000003 -1.0802925 -0.84737625 -1.5211875 -0.38732925 -0.44089500000000004 -0.8643337500000001 -0.7940100000000001 -1.3990935000000002 -1.0364025 -0.5347597500000001 -0.2423925 -1.1150054999999999 -0.36708 -1.7019345000000001 -0.36708s-1.16717475 0.1246875 -1.7019345000000001 0.36708c-0.534749775 0.2423925 -1.0117343250000002 0.5955075 -1.3991234250000002 1.0364025 -0.387379125 0.44089500000000004 -0.6762551250000001 0.959595 -0.8473563000000001 1.5211875 -0.17109120000000003 0.5605950000000001 -0.22046745 1.1521125 -0.14482702500000003 1.7346525000000002 -1.142606325 0.8588475 -1.9861721250000002 2.05485 -2.4113265750000004 3.41943 -0.425144475 1.3645800000000001 -0.4103316 2.82891 0.042343875 4.1845125 0.452675475 1.3556025 1.320281025 2.5346475 2.4800244 3.3705525 1.1597433750000001 0.8349075 2.5528818 1.28478 3.9821995500000003 1.28478 1.42931775 0 2.82242625 -0.4498725 3.9822195000000002 -1.28478 1.1596935000000002 -0.835905 2.027319 -2.0149500000000002 2.4799845000000005 -3.3705525 0.4526655 -1.3556025 0.46752825000000003 -2.8199325 0.04239375000000001 -4.1845125 -0.42523425000000004 -1.3645800000000001 -1.26872025 -2.5605825 -2.4113565 -3.41943Z" stroke-width="0.5"></path><path id="vector_94" stroke="#120071" stroke-linecap="round" stroke-linejoin="round" d="M11.799427500000002 139.93029750000002v19.138035000000002" stroke-width="0.5"></path><path id="vector_95" stroke="#120071" stroke-linecap="round" stroke-linejoin="round" d="m9.136102500000002 147.00855750000002 2.663325 3.3964875" stroke-width="0.5"></path><path id="vector_96" stroke="#120071" stroke-linecap="round" stroke-linejoin="round" d="m13.874227500000002 146.62252500000002 -2.0748 2.0837775" stroke-width="0.5"></path><path id="vector_97" fill="#ffe65c" d="M163.5411225 153.3526575c3.76257 0 6.8119275 -3.0493575 6.8119275 -6.8119275s-3.0493575 -6.8119275 -6.8119275 -6.8119275 -6.8119275 3.0493575 -6.8119275 6.8119275 3.0493575 6.8119275 6.8119275 6.8119275Z" stroke-width="0.5"></path><path id="vector_98" stroke="#120071" stroke-linecap="round" stroke-linejoin="round" d="M163.5411225 153.3526575c3.76257 0 6.8119275 -3.0493575 6.8119275 -6.8119275s-3.0493575 -6.8119275 -6.8119275 -6.8119275 -6.8119275 3.0493575 -6.8119275 6.8119275 3.0493575 6.8119275 6.8119275 6.8119275Z" stroke-width="0.5"></path><path id="vector_99" stroke="#120071" stroke-linecap="round" stroke-linejoin="round" d="M163.5411225 144.01905v15.0492825" stroke-width="0.5"></path><path id="vector_100" stroke="#120071" stroke-linecap="round" stroke-linejoin="round" d="m160.8768 147.00855750000002 2.6643225 3.3964875" stroke-width="0.5"></path><path id="vector_101" stroke="#120071" stroke-linecap="round" stroke-linejoin="round" d="m165.614925 146.62252500000002 -2.0738025 2.0837775" stroke-width="0.5"></path><path id="vector_102" fill="#ffe65c" d="M153.4883175 154.87384500000002c2.7540975000000003 0 4.9865025 -2.232405 4.9865025 -4.9865025 0 -2.7540975000000003 -2.232405 -4.9865025 -4.9865025 -4.9865025 -2.7540975000000003 0 -4.9865025 2.232405 -4.9865025 4.9865025 0 2.7540975000000003 2.232405 4.9865025 4.9865025 4.9865025Z" stroke-width="0.5"></path><path id="vector_103" stroke="#120071" stroke-linecap="round" stroke-linejoin="round" d="M153.4883175 154.87384500000002c2.7540975000000003 0 4.9865025 -2.232405 4.9865025 -4.9865025 0 -2.7540975000000003 -2.232405 -4.9865025 -4.9865025 -4.9865025 -2.7540975000000003 0 -4.9865025 2.232405 -4.9865025 4.9865025 0 2.7540975000000003 2.232405 4.9865025 4.9865025 4.9865025Z" stroke-width="0.5"></path><path id="vector_104" stroke="#120071" stroke-linecap="round" stroke-linejoin="round" d="M153.4883175 148.04097000000002v11.0273625" stroke-width="0.5"></path><path id="vector_105" stroke="#120071" stroke-linecap="round" stroke-linejoin="round" d="m151.538205 150.229485 1.9501125000000001 2.48577" stroke-width="0.5"></path><path id="vector_106" stroke="#120071" stroke-linecap="round" stroke-linejoin="round" d="m155.0065125 149.94619500000002 -1.5181950000000002 1.526175" stroke-width="0.5"></path></g></g></svg>