<svg xmlns="http://www.w3.org/2000/svg" fill="none" viewBox="-0.25 -0.25 200 200" id="Therapy-Counseling--Streamline-Bangalore.svg"><desc>Therapy Counseling Streamline Illustration: https://streamlinehq.com</desc><g id="therapy-counseling--health-wellness-med-therapy-counseling"><g id="person"><path id="Subtract" fill="#ffe65c" fill-rule="evenodd" d="M60.4147845 147.5232675c2.8191345 2.7660675 6.157966500000001 4.8837600000000005 9.78477675 6.2583150000000005 -9.980187 18.551505 -24.5809935 20.6193225 -39.08653875 17.477197500000003C13.998915000000002 167.5550625 0.5226790275000001 150.2235 12.815880000000002 135.6989025c3.6332940000000002 -4.293240000000001 6.5904825 -8.9266275 9.10907025 -13.751535 4.666305 7.683742500000001 11.27264775 14.0737275 19.219929750000002 18.486667500000003 6.2353725 3.4892550000000004 12.7701945 5.9760225 19.269904500000003 7.0892325000000005Zm-3.7918965000000004 -93.6279435 3.4994295 2.159787c-0.458052 0.8886727500000001 -0.9091215 1.7881185000000002 -1.350216 2.69574375 1.3456275 -1.07979375 2.840082 -1.9655737500000001 4.4402715 -2.6284125 0.1825425 -0.07561050000000001 0.36608250000000003 -0.14812875 0.5506200000000001 -0.21765450000000003l-0.8307180000000001 -5.837370000000001c-2.28696825 1.1410402499999999 -4.381818000000001 2.4222292500000004 -6.309387 3.8279062500000003ZM51.9408225 87.975111c-0.5122162499999999 -2.82083025 -0.46483500000000005 -5.886048000000001 0 -9.080541750000002v9.080541750000002Zm0 23.7977565c-0.02423925 -0.009975000000000001 -0.0484785 -0.0209475 -0.0728175 -0.031920000000000004 0.023740500000000005 0.08079750000000001 0.04797975 0.1605975 0.0728175 0.24039750000000001v-0.2084775Z" clip-rule="evenodd" stroke-width="0.5"></path><path id="Subtract_2" stroke="#120071" stroke-linecap="round" stroke-linejoin="round" d="M60.4147845 147.52227c2.8191345 2.7660675 6.157966500000001 4.8847575 9.78477675 6.259312500000001 -9.980187 18.551505 -24.5809935 20.618325000000002 -39.08653875 17.476200000000002 -17.1141075 -3.7037175 -30.5903434725 -21.035280000000004 -18.2971425 -35.559877500000006 3.6332940000000002 -4.293240000000001 6.5904825 -8.9266275 9.10907025 -13.7505375 4.666305 7.683742500000001 11.27264775 14.0737275 19.219929750000002 18.485670000000002 6.2353725 3.4892550000000004 12.7701945 5.97702 19.269904500000003 7.0892325000000005Z" stroke-width="0.5"></path><path id="vector" stroke="#120071" stroke-linecap="round" stroke-linejoin="round" d="M154.18956 98.76317325000001c2.9396325 5.179319250000001 6.697215000000001 10.509959250000001 11.872245 15.93236925 16.779945 17.5729575 19.237785000000002 36.59229 -0.1047375 50.4844725 -9.549067500000001 6.8578125000000005 -31.9509225 8.879745 -46.4086875 -11.5460625" stroke-width="0.5"></path><path id="vector_2" stroke="#120071" stroke-linecap="round" stroke-linejoin="round" d="M61.40320725 164.9296425c-0.4466805 6.18849 -0.96767475 12.094687500000001 -0.96767475 12.094687500000001h69.15168750000001s-0.6453825000000001 -7.315665 -1.1152050000000002 -14.194425" stroke-width="0.5"></path><path id="vector_3" stroke="#120071" stroke-linecap="round" stroke-linejoin="round" d="M60.223563750000004 147.33474c5.30340825 5.30271 12.496281 8.2822425 19.996383750000003 8.2822425h30.038715000000003c6.384 0 12.506655 -2.5366425 17.021340000000002 -7.05033 4.5136875000000005 -4.514685 7.05033 -10.63734 7.05033 -17.021340000000002v-33.416250000000005" stroke-width="0.5"></path><path id="Subtract_3" fill="#ffe65c" fill-rule="evenodd" d="M85.191288 55.73631c-8.92493175 3.0106545000000002 -16.76328675 10.8226755 -21.109893000000003 19.06112775 -0.592914 1.12468125 -1.1798430000000002 2.31021 -1.778742 3.5197785 -2.4915555 5.032686750000001 -5.188995 10.481430750000001 -9.38418075 13.688493 -0.37934925 -1.222935 -0.7068285000000001 -2.5418295 -0.97565475 -4.0194262499999995 -1.70373 -9.3535575 2.7501075000000004 -21.397372500000003 8.179499999999999 -31.930972500000003l-6.7478880000000006 -4.16466225c2.86531875 -3.0980355 6.210634500000001 -5.498619000000001 9.7429815 -6.806341500000001 0.7537110000000001 2.58023325 3.72376725 3.249855 7.5943665000000005 3.4925467500000003 4.6082505 0.19740525 10.597041 3.5478082500000006 14.479510500000002 7.1594565Z" clip-rule="evenodd" stroke-width="0.5"></path><path id="Subtract_4" stroke="#120071" stroke-linecap="round" stroke-linejoin="round" d="M85.191288 55.73631c-8.92493175 3.0106545000000002 -16.76328675 10.8226755 -21.109893000000003 19.06112775 -0.592914 1.12468125 -1.1798430000000002 2.31021 -1.77864225 3.51967875 -2.4915555 5.0327865 -5.18909475 10.4815305 -9.384280500000001 13.68859275 -0.37934925 -1.222935 -0.7068285000000001 -2.5418295 -0.97565475 -4.0194262499999995 -1.70373 -9.3535575 2.7501075000000004 -21.397372500000003 8.179499999999999 -31.930972500000003l-6.7478880000000006 -4.16466225c2.86531875 -3.0980355 6.210634500000001 -5.498619000000001 9.7429815 -6.806341500000001 0.7537110000000001 2.58023325 3.72376725 3.249855 7.5943665000000005 3.4925467500000003 4.6082505 0.19740525 10.597041 3.5478082500000006 14.479510500000002 7.1594565Z" stroke-width="0.5"></path><path id="vector_4" fill="#6153bd" d="M83.68227 100.23678000000001c-4.9326375 -5.901210000000001 -19.65075 -5.899215 -24.5913675 0h24.5913675Z" stroke-width="0.5"></path><path id="vector_5" stroke="#120071" stroke-linecap="round" stroke-linejoin="round" d="M83.68227 100.23678000000001c-4.9326375 -5.901210000000001 -19.65075 -5.899215 -24.5913675 0h24.5913675Z" stroke-width="0.5"></path><path id="vector_6" fill="#6153bd" d="M129.5981925 100.23678000000001c-4.9326375 -5.901210000000001 -19.65075 -5.899215 -24.592365 0h24.592365Z" stroke-width="0.5"></path><path id="vector_7" stroke="#120071" stroke-linecap="round" stroke-linejoin="round" d="M129.5981925 100.23678000000001c-4.9326375 -5.901210000000001 -19.65075 -5.899215 -24.592365 0h24.592365Z" stroke-width="0.5"></path><path id="vector_8" stroke="#120071" stroke-linecap="round" stroke-linejoin="round" d="M100.7475 102.77242500000001c-0.11670750000000002 8.064787500000001 1.885275 10.826865 1.2239325 14.184450000000002 -0.36907500000000004 1.873305 -1.92717 3.6837675 -3.8333925 3.5860125000000003" stroke-width="0.5"></path><path id="vector_9" stroke="#120071" stroke-linecap="round" stroke-linejoin="round" d="M102.10709250000001 127.1243925c-2.1057225 4.04586 -9.775500000000001 4.0897499999999996 -11.87025 0" stroke-width="0.5"></path><path id="vector_10" stroke="#120071" stroke-linecap="round" stroke-linejoin="round" d="M80.3396475 109.52550000000001c-0.38154375 0.9027375000000001 -1.0208415000000002 1.673805 -1.8379935 2.2154475000000002 -0.8171520000000001 0.5426400000000001 -1.775949 0.8309175 -2.7564915 0.8309175 -0.9805425 0 -1.9393395 -0.2882775 -2.7564915 -0.8309175 -0.8171520000000001 -0.5416425 -1.45644975 -1.31271 -1.8379935 -2.2154475000000002" stroke-width="0.5"></path><path id="vector_11" stroke="#120071" stroke-linecap="round" stroke-linejoin="round" d="M122.3723025 109.52550000000001c-0.3820425 0.9027375000000001 -1.0214400000000001 1.6728075000000002 -1.8383925 2.2144500000000003 -0.8169525 0.5426400000000001 -1.7755500000000002 0.8309175 -2.7550950000000003 0.8309175 -0.9805425 0 -1.93914 -0.2882775 -2.7560925 -0.8309175 -0.8169525 -0.5416425 -1.45635 -1.3117125 -1.8383925 -2.2144500000000003" stroke-width="0.5"></path></g><g id="hand 2"><path id="Subtract_5" fill="#6153bd" fill-rule="evenodd" d="M41.645625 22.4758695c-4.115385750000001 4.802763000000001 -7.936209750000001 9.85041225 -11.441325 15.115117500000002l29.919015 18.46173c1.5404392500000001 -2.9457172500000004 3.1614765 -5.8479434999999995 4.86091725 -8.7035865 -1.303134 -0.7316662500000001 -2.066421 -1.8844770000000002 -2.05295475 -3.7255627500000004 0.015062250000000001 -2.0961465 1.9887157500000001 -3.8906490000000002 4.054638 -5.092836L41.645625 22.4758695Zm4.4798722500000006 11.640825000000001c0 2.3667682500000002 -1.9185915 4.2853597500000005 -4.2853597500000005 4.2853597500000005 -2.3666685 0 -4.28526 -1.9185915 -4.28526 -4.2853597500000005 0 -2.3666685 1.9185915 -4.28526 4.28526 -4.28526 2.3667682500000002 0 4.2853597500000005 1.9185915 4.2853597500000005 4.28526Z" clip-rule="evenodd" stroke-width="0.5"></path><path id="Subtract_6" fill-rule="evenodd" stroke="#120071" stroke-linecap="round" stroke-linejoin="round" d="M41.645625 22.4758695c-4.115385750000001 4.802763000000001 -7.936209750000001 9.85041225 -11.441325 15.115117500000002l29.919015 18.46173c1.5404392500000001 -2.9457172500000004 3.1614765 -5.8479434999999995 4.86091725 -8.7035865 -1.303134 -0.7316662500000001 -2.066421 -1.8844770000000002 -2.05295475 -3.7255627500000004 0.015062250000000001 -2.0961465 1.9887157500000001 -3.8906490000000002 4.054638 -5.092836L41.645625 22.4758695Zm4.4798722500000006 11.640825000000001c0 2.3667682500000002 -1.9185915 4.2853597500000005 -4.2853597500000005 4.2853597500000005 -2.3666685 0 -4.28526 -1.9185915 -4.28526 -4.2853597500000005 0 -2.3666685 1.9185915 -4.28526 4.28526 -4.28526 2.3667682500000002 0 4.2853597500000005 1.9185915 4.2853597500000005 4.28526Z" clip-rule="evenodd" stroke-width="0.5"></path><path id="vector_12" stroke="#120071" stroke-linecap="round" stroke-linejoin="round" d="M75.37908 141.30585c0.9406425 -1.9680675000000003 0.3640875 -5.440365 -4.7411175000000005 -6.483750000000001 -1.8355995 -0.33416250000000003 -3.69543825 -0.5187 -5.5610625 -0.5496225000000001 0.63271425 -0.5196975 1.12567875 -1.18902 1.43430525 -1.94712 0.3086265 -0.7581 0.42323925 -1.5810375 0.33326475 -2.3949975 -1.197 -6.384 -12.179475000000002 -8.65032 -14.976465000000001 -18.1894125 5.4603150000000005 2.48577 9.053310000000002 -2.8378875000000003 6.8578125000000005 -7.295715 -3.0573375 -6.20933775 -5.544105 -9.64772025 -6.783 -16.45865025 -1.70373 -9.3535575 2.7501075000000004 -21.397372500000003 8.179499999999999 -31.930972500000003L30.204300000000003 37.59088725C4.4139774 76.55822475000001 14.421855 104.6976 17.9939025 114.028215c4.424511 11.218882500000001 12.60770175 20.55249 23.1509775 26.405820000000002 10.423875 5.83338 21.684652500000002 8.86578 32.21925 7.359555 2.5625775 -0.365085 4.0847625 -1.49625 4.259325 -2.96058 0.1051365 -0.7581 -0.06284250000000001 -1.5301650000000002 -0.47401200000000004 -2.1755475 -0.41106975000000007 -0.6463800000000001 -1.038597 -1.1251799999999998 -1.7703630000000001 -1.3516125v0Z" stroke-width="0.5"></path><path id="vector_13" stroke="#120071" stroke-linecap="round" stroke-linejoin="round" d="M25.78048725 94.31681700000001c3.145716 11.515938 9.17450625 22.0405605 17.517097500000002 30.5791605 5.237872500000001 5.356575 17.138047500000003 12.61638 21.779415 9.3765" stroke-width="0.5"></path><path id="vector_14" stroke="#120071" stroke-linecap="round" stroke-linejoin="round" d="M38.762949750000004 71.780499c-2.659335 29.133583500000004 6.312180000000001 35.364966 13.089195 39.9544635" stroke-width="0.5"></path><path id="vector_15" stroke="#120071" stroke-linecap="round" stroke-linejoin="round" d="M23.125042500000003 107.8666575c6.7879875 20.163465 23.465190000000003 29.50605 30.533475000000003 32.3678775 5.797470000000001 2.3481150000000004 18.842775000000003 4.8648075 21.7205625 1.071315" stroke-width="0.5"></path><path id="vector_16" stroke="#120071" stroke-linecap="round" stroke-linejoin="round" d="M41.840137500000004 38.40205425c2.3667682500000002 0 4.2853597500000005 -1.9185915 4.2853597500000005 -4.2853597500000005 0 -2.3666685 -1.9185915 -4.28526 -4.2853597500000005 -4.28526 -2.3666685 0 -4.28526 1.9185915 -4.28526 4.28526 0 2.3667682500000002 1.9185915 4.2853597500000005 4.28526 4.2853597500000005Z" stroke-width="0.5"></path><path id="vector_17" stroke="#120071" stroke-linecap="round" stroke-linejoin="round" d="m39.80025 36.15867675 4.0837650000000005 -4.0837650000000005" stroke-width="0.5"></path><path id="vector_18" stroke="#120071" stroke-linecap="round" stroke-linejoin="round" d="m39.634665000000005 31.9102245 4.4119425 4.4119425" stroke-width="0.5"></path></g><g id="hand 1"><path id="Subtract_7" fill="#ffe65c" fill-rule="evenodd" d="M185.44821750000003 98.4482625s-8.113665000000001 0.1765575 -18.0278175 0.26533500000000004l0.0009975000000000001 -39.590775c4.490745 0.25865175 9.122137500000001 0.177156 13.61388 0.09805425000000001 1.3456275 -0.02364075 2.679285 -0.047082 3.9929925 -0.06114675000000001l0.41994750000000003 39.2885325Zm-4.7291475 -7.343495250000001c0 2.3666685 -1.9181925000000002 4.28526 -4.28526 4.28526s-4.28526 -1.9185915 -4.28526 -4.28526c0 -2.3666685 1.9181925000000002 -4.28526 4.28526 -4.28526s4.28526 1.9185915 4.28526 4.28526Z" clip-rule="evenodd" stroke-width="0.5"></path><path id="vector_19" stroke="#120071" stroke-linecap="round" stroke-linejoin="round" d="M167.4204 98.7135975c9.9141525 -0.0887775 18.0278175 -0.26533500000000004 18.0278175 -0.26533500000000004l-0.41994750000000003 -39.2885325c-5.696722500000001 0.0608475 -11.770500000000002 0.29925 -17.6068725 -0.0369075l-0.0009975000000000001 39.590775Z" stroke-width="0.5"></path><path id="vector_20" stroke="#120071" stroke-linecap="round" stroke-linejoin="round" d="M176.43381000000002 95.39002725c2.3670675000000005 0 4.28526 -1.9185915 4.28526 -4.28526 0 -2.3666685 -1.9181925000000002 -4.28526 -4.28526 -4.28526s-4.28526 1.9185915 -4.28526 4.28526c0 2.3666685 1.9181925000000002 4.28526 4.28526 4.28526Z" stroke-width="0.5"></path><path id="vector_21" stroke="#120071" stroke-linecap="round" stroke-linejoin="round" d="M173.547045 91.1046675h5.7745275" stroke-width="0.5"></path><path id="vector_22" stroke="#120071" stroke-linecap="round" stroke-linejoin="round" d="M176.43381000000002 87.98458725v6.240360000000001" stroke-width="0.5"></path><path id="vector_23" stroke="#120071" stroke-linecap="round" stroke-linejoin="round" d="M144.930765 51.98162025c-8.8149075 -6.9894825 -14.635320000000002 -17.157 -24.6811425 -22.2252975 -10.0458225 -5.068297500000001 -24.03975 -5.72964 -34.571355000000004 -1.7645775 -6.3933765000000005 1.4258265 -12.20511075 4.75418475 -16.67022 9.5470725 -2.5595849999999998 1.0344075 -6.05682 3.29175 -6.07677 6.08475 -0.027930000000000003 3.8054625 3.2628225 4.670295 7.7805 4.953585 5.54211 0.237405 13.081215000000002 5.03538 16.5515175 9.363532500000002 3.4703025000000003 4.328152500000001 5.8283925000000005 9.422385 8.746080000000001 14.141557500000001 8.069775 13.052287500000002 21.197872500000003 23.4861375 36.356880000000004 25.8741525 5.301712500000001 0.83391 21.8282925 0.8758050000000001 35.050155 0.7581v-39.591772500000005c-8.2443375 -0.4817925 -16.173465 -2.1376425 -22.485645 -7.141102500000001Z" stroke-width="0.5"></path><path id="vector_24" stroke="#120071" stroke-linecap="round" stroke-linejoin="round" d="M111.674115 56.053315500000004c-8.4897225 -12.1804725 -22.073677500000002 -24.74997 -42.666067500000004 -18.5145975" stroke-width="0.5"></path><path id="vector_25" stroke="#120071" stroke-linecap="round" stroke-linejoin="round" d="M122.3723025 45.087199500000004c-5.0673 -8.185485 -18.89664 -16.141545 -28.1295 -17.3993925 -2.85913425 -0.19301625000000003 -5.730537750000001 -0.08967525 -8.568525000000001 0.3082275" stroke-width="0.5"></path></g><g id="elements"><g id="group"><path id="vector_26" stroke="#120071" stroke-linecap="round" stroke-linejoin="round" d="M141.246 30.297067500000004h9.015405000000001" stroke-width="0.5"></path><path id="vector_27" stroke="#120071" stroke-linecap="round" stroke-linejoin="round" d="M145.7517075 25.427472v9.740587500000002" stroke-width="0.5"></path></g><g id="group_2"><path id="vector_28" stroke="#120071" stroke-linecap="round" stroke-linejoin="round" d="M157.8773175 45.63801900000001h5.425402500000001" stroke-width="0.5"></path><path id="vector_29" stroke="#120071" stroke-linecap="round" stroke-linejoin="round" d="M160.5905175 42.7083615v5.863305" stroke-width="0.5"></path></g><g id="group_3"><path id="vector_30" stroke="#120071" stroke-linecap="round" stroke-linejoin="round" d="M184.99236 131.17125000000001H194.51250000000002" stroke-width="0.5"></path><path id="vector_31" stroke="#120071" stroke-linecap="round" stroke-linejoin="round" d="M189.75143250000002 126.03013500000002v10.2852225" stroke-width="0.5"></path></g><g id="group_4"><path id="vector_32" stroke="#120071" stroke-linecap="round" stroke-linejoin="round" d="m24.18129525 153.940185 5.174032500000001 5.17503" stroke-width="0.5"></path><path id="vector_33" stroke="#120071" stroke-linecap="round" stroke-linejoin="round" d="m24.18129525 159.115215 5.174032500000001 -5.17503" stroke-width="0.5"></path></g><path id="vector_34" stroke="#120071" stroke-linecap="round" stroke-linejoin="round" d="m13.072237500000002 57.6995895 -4.6074525 6.7480875000000005L4.987500000000001 60.1454595" stroke-width="0.5"></path></g></g></svg>