<svg xmlns="http://www.w3.org/2000/svg" fill="none" viewBox="-0.25 -0.25 200 200" id="Education-Online-Learning-02--Streamline-Bangalore.svg"><desc>Education Online Learning 02 Streamline Illustration: https://streamlinehq.com</desc><g><g><path fill="#948ae3" fill-rule="evenodd" d="M109.4945775 122.0770425c2.419935 -3.6219225 3.7116975 -7.879252500000001 3.7116975 -12.235335000000001 0.0009975000000000001 -2.89275 -0.5685749999999999 -5.7565725 -1.6748025000000002 -8.428875 -1.1062275000000001 -2.672103 -2.7281625 -5.1002175 -4.774035 -7.14539175 -2.0448749999999998 -2.0450745 -4.47279 -3.66730875 -7.145292 -4.77373575 -2.6723025 -1.10652675 -5.5364242500000005 -1.6756005 -8.4286755 -1.6748025000000002 -4.3556835000000005 0 -8.613612 1.29166275 -12.23523525 3.711498 -3.6216232500000003 2.419935 -6.44434875 5.859414750000001 -8.111171250000002 9.883429500000002 -1.66692225 4.023915 -2.10302925 8.4518175 -1.2532590000000001 12.724110000000001 0.8497702500000001 4.272292500000001 2.9472135 8.196457500000001 6.02719425 11.276737500000001 3.0799807500000003 3.0792825 7.004046000000001 5.177025 11.27603925 6.026895000000001 4.27199325 0.84987 8.70009525 0.412965 12.72420975 -1.2538575 4.02401475 -1.6668225 7.46339475 -4.4887500000000005 9.88332975 -8.110672500000002Zm-9.3874725 -13.566997500000001c-0.11670750000000002 -0.21346500000000002 -0.285285 -0.39401250000000004 -0.4897725 -0.5256825l-12.28122 -7.4862375000000005c-0.210273 -0.1206975 -0.448875 -0.1825425 -0.691068 -0.1785525 -0.242193 0.0029925000000000004 -0.47919900000000004 0.0708225 -0.68618025 0.19650750000000003 -0.20708100000000002 0.12568500000000002 -0.376656 0.3042375 -0.49106925000000007 0.5177025000000001 -0.11441325000000001 0.21346500000000002 -0.16947525 0.45386250000000006 -0.15960000000000002 0.696255v14.9156175c-0.010573500000000001 0.2423925 0.044089500000000004 0.48279 0.15840300000000002 0.6972524999999999 0.11421375000000002 0.21346500000000002 0.28388850000000004 0.39301500000000006 0.491169 0.5187 0.20718075 0.12568500000000002 0.444486 0.19351500000000002 0.68697825 0.19650750000000003 0.2423925 0.0029925000000000004 0.481194 -0.05985 0.6913672500000001 -0.1805475l12.28122 -7.4483325c0.2044875 -0.13167 0.37306500000000004 -0.31221750000000004 0.4897725 -0.5256825 0.11670750000000002 -0.21346500000000002 0.1785525 -0.452865 0.1785525 -0.6972524999999999 0 -0.24339 -0.061845000000000004 -0.48279 -0.1785525 -0.696255Z" clip-rule="evenodd" stroke-width="0.5"></path></g><g><path fill="#6153bd" d="M41.888017500000004 67.93773c0 0.40099500000000005 -0.11890200000000001 0.7931122500000001 -0.34174350000000003 1.1265765 -0.2228415 0.33356399999999997 -0.5395477500000001 0.59341275 -0.910119 0.746928 -0.37057125 0.15351525000000002 -0.77834925 0.19361475 -1.1716635000000002 0.11541075 -0.393414 -0.07830375 -0.7547085000000001 -0.27141975 -1.03829775 -0.5550090000000001 -0.283689 -0.28358925 -0.476805 -0.6449834999999999 -0.5550090000000001 -1.03829775 -0.07830375 -0.393414 -0.0381045 -0.801192 0.11541075 -1.1716635000000002 0.1534155 -0.37057125 0.413364 -0.6872775 0.7468282500000001 -0.910119 0.33356399999999997 -0.2228415 0.7255815000000001 -0.34174350000000003 1.12667625 -0.34174350000000003 0.5376525000000001 0.0004987500000000001 1.0531605000000002 0.214263 1.4334075000000002 0.59451 0.38014725 0.38014725 0.5940112500000001 0.8956552500000001 0.59451 1.4334075000000002Z" stroke-width="0.5"></path><path fill="#6153bd" d="M97.4188425 130.9547925c-4.0712962500000005 1.1880225000000002 -8.39745375 1.1880225000000002 -12.46875 0h-16.907625l-0.7581 2.312205h45.220665000000004v-2.312205H97.4188425Z" stroke-width="0.5"></path><path fill="#6153bd" d="m124.7104425 95.267235 10.4049225 53.029095000000005H137.655l-10.5186375 -53.502907500000006 -2.42592 0.4738125Z" stroke-width="0.5"></path><path fill="#6153bd" d="m113.736945 97.42782 -2.4448725000000002 0.4738125 9.9121575 50.39469750000001h2.5206825000000004l-9.9879675 -50.86851000000001Z" stroke-width="0.5"></path><path fill="#6153bd" d="M61.01109 92.87922 42.702975 148.29633h2.6154450000000002L63.361200000000004 93.65627250000001l-2.35011 -0.7770525Z" stroke-width="0.5"></path><path fill="#6153bd" d="m48.04758 88.595955 -16.07172 48.632115v5.586c-0.00189525 0.540645 0.07471275 1.0782975 0.22743000000000002 1.596L50.397690000000004 89.376l-2.35011 -0.7800450000000001Z" stroke-width="0.5"></path><path fill="#6153bd" d="M190.835715 59.97768000000001c1.8004875 -0.416955 3.676785 -3.1271625 3.676785 -3.1271625s-2.8618275000000004 -1.6488675000000002 -4.662315 -1.2319125000000002c-1.8004875 0.416955 -3.0393825000000003 1.7266725000000003 -2.767065 2.9186850000000004 0.277305 1.21296 1.9521075 1.8573450000000002 3.7525950000000003 1.44039Z" stroke-width="0.5"></path><path fill="#6153bd" d="m156.645405 80.598 18.7440225 2.6343975L164.9865 40.229175l-44.254087500000004 -6.2353725 4.987500000000001 20.6013675 4.5296475 -5.022412500000001c3.2408775000000003 -3.600975 12.58446 -0.45486000000000004 20.866702500000002 6.9934725 8.301195 7.4483325 12.394935 16.412865 9.177 19.994887500000004l-3.6478575 4.0368825Z" stroke-width="0.5"></path><path fill="#6153bd" d="m45.2994675 148.29633 15.294667500000001 -46.2630525 2.35011 0.7770525 -15.0293325 45.486000000000004h-2.6154450000000002Z" stroke-width="0.5"></path><path fill="#6153bd" d="m132.04506 106.941975 -2.42592 0.4738125L137.655 148.29633h2.5206825000000004l-8.1306225 -41.354355Z" stroke-width="0.5"></path><path fill="#6153bd" d="m145.46343000000002 104.30757750000001 -2.42592 0.4738125 7.35357 37.506997500000004v-12.849795l-4.927650000000001 -25.131015Z" stroke-width="0.5"></path><path fill="#6153bd" d="M150.39108000000002 77.5845525v9.6468225c0.23241750000000003 -0.0724185 0.4458825 -0.19541025 0.6254325000000001 -0.3600975 2.0279175 -2.2553475 0.9097200000000001 -6.254325 -0.6254325000000001 -9.286725Z" stroke-width="0.5"></path><path fill="#6153bd" d="M126.6825 58.5183375c-2.4827775 -0.37905 -4.7191725 0.22842750000000003 -5.9131800000000005 1.554105H131.67000000000002c-1.5900150000000002 -0.7258807500000001 -3.2658150000000004 -1.248072 -4.987500000000001 -1.554105Z" stroke-width="0.5"></path><path fill="#6153bd" d="M59.703367500000006 148.29633h2.6154450000000002l9.343582500000002 -28.27713c-0.5832382500000001 -1.1211900000000001 -1.0714147500000002 -2.288265 -1.4593425000000002 -3.49125l-10.499685 31.76838Z" stroke-width="0.5"></path></g><g><path stroke="#120071" d="M99.6173325 107.9843625c0.2044875 0.13167 0.37306500000000004 0.31221750000000004 0.4897725 0.5256825 0.11670750000000002 0.21346500000000002 0.1785525 0.452865 0.1785525 0.696255 0 0.2443875 -0.061845000000000004 0.48378750000000004 -0.1785525 0.6972524999999999 -0.11670750000000002 0.21346500000000002 -0.285285 0.39401250000000004 -0.4897725 0.5256825l-12.28122 7.4483325c-0.21017325 0.1206975 -0.44897475000000003 0.18354 -0.6913672500000001 0.1805475 -0.24249225000000002 -0.0029925000000000004 -0.4797975 -0.0708225 -0.68697825 -0.19650750000000003 -0.20728050000000003 -0.12568500000000002 -0.37695525 -0.30523500000000003 -0.491169 -0.5187 -0.1143135 -0.2144625 -0.1689765 -0.45486000000000004 -0.15840300000000002 -0.6972524999999999v-14.9156175c-0.009875250000000002 -0.2423925 0.045186750000000005 -0.48279 0.15960000000000002 -0.696255 0.11441325000000001 -0.21346500000000002 0.28398825 -0.3920175 0.49106925000000007 -0.5177025000000001 0.20698125 -0.12568500000000002 0.44398725 -0.19351500000000002 0.68618025 -0.19650750000000003 0.242193 -0.0039900000000000005 0.48079500000000003 0.057855000000000004 0.691068 0.1785525l12.28122 7.4862375000000005Z" stroke-width="0.5"></path><path stroke="#120071" stroke-linejoin="round" d="M190.835715 59.97768000000001c1.8004875 -0.416955 3.676785 -3.1271625 3.676785 -3.1271625s-2.8618275000000004 -1.6488675000000002 -4.662315 -1.2319125000000002c-1.8004875 0.416955 -3.0393825000000003 1.7266725000000003 -2.767065 2.9186850000000004 0.277305 1.21296 1.9521075 1.8573450000000002 3.7525950000000003 1.44039Z" stroke-width="0.5"></path><path stroke="#120071" stroke-linecap="round" stroke-linejoin="round" d="M149.33572500000002 75.7651125H31.97586" stroke-width="0.5"></path><path stroke="#120071" stroke-linecap="round" stroke-linejoin="round" d="M41.888017500000004 67.93773c0 0.40099500000000005 -0.11890200000000001 0.7931122500000001 -0.34174350000000003 1.1265765 -0.2228415 0.33356399999999997 -0.5395477500000001 0.59341275 -0.910119 0.746928 -0.37057125 0.15351525000000002 -0.77834925 0.19361475 -1.1716635000000002 0.11541075 -0.393414 -0.07830375 -0.7547085000000001 -0.27141975 -1.03829775 -0.5550090000000001 -0.283689 -0.28358925 -0.476805 -0.6449834999999999 -0.5550090000000001 -1.03829775 -0.07830375 -0.393414 -0.0381045 -0.801192 0.11541075 -1.1716635000000002 0.1534155 -0.37057125 0.413364 -0.6872775 0.7468282500000001 -0.910119 0.33356399999999997 -0.2228415 0.7255815000000001 -0.34174350000000003 1.12667625 -0.34174350000000003 0.5376525000000001 0.0004987500000000001 1.0531605000000002 0.214263 1.4334075000000002 0.59451 0.38014725 0.38014725 0.5940112500000001 0.8956552500000001 0.59451 1.4334075000000002Z" stroke-width="0.5"></path><path stroke="#120071" stroke-linecap="round" stroke-linejoin="round" d="M48.00967500000001 67.93773c0 0.4011945 -0.11900175 0.7934115 -0.341943 1.12687575 -0.22294125 0.33356399999999997 -0.5398470000000001 0.5935125 -0.9106177500000001 0.746928 -0.37067100000000003 0.1534155 -0.7786485 0.19341525 -1.1720625 0.114912 -0.393414 -0.07850325000000001 -0.7548082500000001 -0.2719185 -1.03829775 -0.55590675 -0.2834895 -0.28388850000000004 -0.47640600000000005 -0.64548225 -0.55431075 -1.0390957500000002 -0.07790475000000001 -0.39351375000000005 -0.037306500000000006 -0.8013915 0.11660775000000001 -1.171863 0.154014 -0.3704715 0.4143615 -0.687078 0.74822475 -0.9095205000000001 0.333963 -0.22244250000000002 0.72627975 -0.34084575 1.1274742500000001 -0.34024725000000006 0.53715375 0.00129675 1.0519635 0.21546 1.4315122500000002 0.59560725 0.37954875000000005 0.38004750000000004 0.592914 0.8951565 0.59341275 1.43231025v0Z" stroke-width="0.5"></path><path stroke="#120071" stroke-linecap="round" stroke-linejoin="round" d="M54.150285000000004 67.93773c0 0.40099500000000005 -0.11900175 0.7931122500000001 -0.34174350000000003 1.1265765 -0.2228415 0.33356399999999997 -0.5396475000000001 0.59341275 -0.910119 0.746928 -0.37057125 0.15351525000000002 -0.77834925 0.19361475 -1.1716635000000002 0.11541075 -0.393414 -0.07830375 -0.7548082500000001 -0.27141975 -1.0383975 -0.5550090000000001 -0.28358925 -0.28358925 -0.47670525 -0.6449834999999999 -0.5550090000000001 -1.03829775 -0.078204 -0.393414 -0.038004750000000004 -0.801192 0.11541075 -1.1716635000000002 0.15351525000000002 -0.37057125 0.41346375 -0.6872775 0.746928 -0.910119 0.33346425 -0.2228415 0.7255815000000001 -0.34174350000000003 1.12667625 -0.34174350000000003 0.5376525000000001 0.0004987500000000001 1.0531605000000002 0.214263 1.4333077500000002 0.59451 0.380247 0.38014725 0.5940112500000001 0.8956552500000001 0.59460975 1.4334075000000002Z" stroke-width="0.5"></path><path stroke="#120071" stroke-linecap="round" stroke-linejoin="round" d="M11.592945 89.581485v13.2098925" stroke-width="0.5"></path><path stroke="#120071" stroke-linecap="round" stroke-linejoin="round" d="M18.1973925 96.18693H4.987500000000001" stroke-width="0.5"></path><path stroke="#120071" stroke-linecap="round" stroke-linejoin="round" d="M165.3066975 130.40517c0.08778 0.381045 0.061845000000000004 0.7790475000000001 -0.0768075 1.1441325 -0.13765500000000003 0.365085 -0.381045 0.6822900000000001 -0.6992475 0.9087225000000001 -0.3182025 0.22743000000000002 -0.696255 0.35511 -1.0862775 0.36708 -0.39102000000000003 0.011970000000000001 -0.776055 -0.09177 -1.1072250000000001 -0.29825250000000003 -0.33117 -0.2064825 -0.59451 -0.5077275 -0.7551075 -0.863835 -0.1605975 -0.3561075 -0.21147000000000002 -0.7511175 -0.14763 -1.1371499999999999 0.0648375 -0.385035 0.241395 -0.7431375 0.508725 -1.027425 0.26832750000000005 -0.28428749999999997 0.6134625 -0.48378750000000004 0.9945075000000001 -0.5715675 0.5097225000000001 -0.117705 1.0463775 -0.027930000000000003 1.4902650000000002 0.249375 0.44388750000000005 0.277305 0.7600950000000001 0.7191975 0.8787975 1.22892v0Z" stroke-width="0.5"></path><path stroke="#120071" stroke-linecap="round" stroke-linejoin="round" d="M79.01596500000001 166.9266375c0.06922650000000001 0.301245 0.04748100000000001 0.6174525000000001 -0.062443500000000006 0.9067275000000001 -0.11002425 0.289275 -0.30333975 0.5396475000000001 -0.55550775 0.7182000000000001 -0.25216800000000006 0.17955000000000002 -0.5519167500000001 0.28029750000000003 -0.8613412500000001 0.289275 -0.30932475 0.009975000000000001 -0.61446 -0.0728175 -0.8768025 -0.237405 -0.26234250000000003 -0.16458750000000003 -0.47002200000000005 -0.40299000000000007 -0.5969040000000001 -0.6852825000000001 -0.12688200000000002 -0.2822925 -0.167181 -0.5955075 -0.11580975 -0.9007425000000001 0.05137125 -0.30523500000000003 0.1921185 -0.588525 0.4043865 -0.81396 0.21216825 -0.22543500000000002 0.4864807500000001 -0.3820425 0.78812475 -0.45186750000000003 0.40458600000000006 -0.0927675 0.8295210000000001 -0.0209475 1.18133925 0.1995 0.351918 0.22044750000000002 0.60179175 0.57057 0.69495825 0.9755550000000001v0Z" stroke-width="0.5"></path><path stroke="#120071" stroke-linecap="round" stroke-linejoin="round" d="M170.3101575 62.3846475c4.207455 -0.9665775 4.6054575 0.7581 8.812912500000001 -0.189525 4.28925 -0.9845325 3.8124450000000003 -2.7381375 8.2842375 -3.6907500000000004" stroke-width="0.5"></path><path stroke="#120071" stroke-linecap="round" stroke-linejoin="round" d="m125.73387750000002 54.59517 -5.0034600000000005 -20.6013675 44.254087500000004 6.2353725 10.4049225 43.0032225 -18.7440225 -2.6343975" stroke-width="0.5"></path><path stroke="#120071" stroke-linecap="round" stroke-linejoin="round" d="M120.76832250000001 60.0724425 130.26352500000002 49.575750000000006c3.221925 -3.5820225000000003 12.5685 -0.45486000000000004 20.866702500000002 6.9934725 8.298202500000002 7.4483325 12.394935 16.412865 9.177 19.994887500000004h-0.0189525l-8.31915 9.254805000000001" stroke-width="0.5"></path><path stroke="#120071" stroke-linecap="round" stroke-linejoin="round" d="M113.206275 109.84170750000001c0 4.3560825 -1.2917625 8.6134125 -3.7116975 12.235335000000001 -2.419935 3.6219225 -5.859315 6.44385 -9.88332975 8.110672500000002 -4.0241145000000005 1.6668225 -8.4522165 2.1037275 -12.72420975 1.2538575 -4.27199325 -0.84987 -8.1960585 -2.9476125000000004 -11.27603925 -6.026895000000001 -3.0799807500000003 -3.08028 -5.177424 -7.0044450000000005 -6.02719425 -11.276737500000001 -0.8497702500000001 -4.272292500000001 -0.41366325000000004 -8.700195 1.2532590000000001 -12.724110000000001 1.6668225 -4.02401475 4.489548 -7.4634945 8.111171250000002 -9.883429500000002 3.6216232500000003 -2.41983525 7.879551750000001 -3.711498 12.23523525 -3.711498 2.89225125 -0.0007980000000000001 5.756373000000001 0.56827575 8.4286755 1.6748025000000002 2.672502 1.106427 5.100417 2.72866125 7.145292 4.77373575 2.0458725 2.04517425 3.6678075000000003 4.47328875 4.774035 7.14539175 1.1062275000000001 2.6723025 1.6758 5.536125 1.6748025000000002 8.428875v0Z" stroke-width="0.5"></path><path stroke="#120071" stroke-linecap="round" stroke-linejoin="round" d="m59.286412500000004 30.6581625 -3.0324 6.784995h5.5151775l-3.0324 6.784995" stroke-width="0.5"></path><path stroke="#120071" stroke-linecap="round" stroke-linejoin="round" d="M150.39108000000002 87.23137500000001c5.021415 -1.953105 -0.2463825 -12.945555 -8.6273775 -20.44875 -5.303707500000001 -4.7481 -16.516605000000002 -11.688705 -20.99538 -6.7121775" stroke-width="0.5"></path><path stroke="#120071" stroke-linecap="round" stroke-linejoin="round" d="M67.2843675 133.2669975h45.220665000000004v-2.312205h-5.951085000000001" stroke-width="0.5"></path><path stroke="#120071" stroke-linecap="round" stroke-linejoin="round" d="M97.4188425 130.9547925h9.135105v-1.97106h-4.4917425" stroke-width="0.5"></path><path stroke="#120071" stroke-linecap="round" stroke-linejoin="round" d="M80.30473500000001 128.9837325H68.6868525l-0.6443850000000001 1.97106h16.905630000000002" stroke-width="0.5"></path><path stroke="#120071" stroke-linecap="round" stroke-linejoin="round" d="M70.75267500000001 122.7673125h2.5964925000000005" stroke-width="0.5"></path><path stroke="#120071" stroke-linecap="round" stroke-linejoin="round" d="M69.1417125 135.5792025h49.086975V133.266H69.084855c-3.0922500000000004 0 -3.33564 5.76156 -3.33564 7.524142500000001 0 1.7625825 0.2463825 7.505190000000001 3.33564 7.505190000000001h49.14383250000001v-2.3012325000000002h-49.086975c-0.3600975 -0.28428749999999997 -1.0613400000000002 -2.056845 -1.0613400000000002 -5.20296 0 -3.146115 0.6822900000000001 -4.9456050000000005 1.0613400000000002 -5.2119375Z" stroke-width="0.5"></path><path stroke="#120071" stroke-linecap="round" stroke-linejoin="round" d="M112.50503250000001 135.5792025v10.4049225" stroke-width="0.5"></path><path stroke="#120071" stroke-linecap="round" stroke-linejoin="round" d="M112.50503250000001 137.796645H68.36466" stroke-width="0.5"></path><path stroke="#120071" stroke-linecap="round" stroke-linejoin="round" d="M112.50503250000001 144.013065H68.36466" stroke-width="0.5"></path><path stroke="#120071" stroke-linecap="round" stroke-linejoin="round" d="M112.50503250000001 139.464465h-6.14061" stroke-width="0.5"></path><path stroke="#120071" stroke-linecap="round" stroke-linejoin="round" d="m45.2994675 148.29633 15.294667500000001 -46.2630525 2.35011 0.7770525 -15.0293325 45.486000000000004" stroke-width="0.5"></path><path stroke="#120071" stroke-linecap="round" stroke-linejoin="round" d="m60.935280000000006 108.87513 8.301195 2.7102075" stroke-width="0.5"></path><path stroke="#120071" stroke-linecap="round" stroke-linejoin="round" d="m63.20958 109.63323000000001 -12.773985 38.6631" stroke-width="0.5"></path><path stroke="#120071" stroke-linecap="round" stroke-linejoin="round" d="m56.38668 98.072205 -12.755032500000002 38.58729" stroke-width="0.5"></path><path stroke="#120071" stroke-linecap="round" stroke-linejoin="round" d="m69.312285 112.43820000000001 -11.8453125 35.85813" stroke-width="0.5"></path><path stroke="#120071" stroke-linecap="round" stroke-linejoin="round" d="m64.915305 110.20180500000001 -2.0658225000000003 6.254325" stroke-width="0.5"></path><path stroke="#120071" stroke-linecap="round" stroke-linejoin="round" d="m31.97586 129.305925 5.76156 -17.417347499999998 2.35011 0.7770525 -8.11167 24.56244" stroke-width="0.5"></path><path stroke="#120071" stroke-linecap="round" stroke-linejoin="round" d="m31.97586 116.70251250000001 3.7525950000000003 1.2508650000000001" stroke-width="0.5"></path><path stroke="#120071" stroke-linecap="round" stroke-linejoin="round" d="m33.71949 117.29004 -1.74363 5.268795" stroke-width="0.5"></path><path stroke="#120071" stroke-linecap="round" stroke-linejoin="round" d="m144.26942250000002 111.05466750000001 -10.99245 2.160585" stroke-width="0.5"></path><path stroke="#120071" stroke-linecap="round" stroke-linejoin="round" d="m144.288375 122.3882625 -2.160585 -10.916640000000001" stroke-width="0.5"></path><path stroke="#120071" stroke-linecap="round" stroke-linejoin="round" d="m142.4120775 148.29633 -6.97452 -35.49803250000001" stroke-width="0.5"></path><path stroke="#120071" stroke-linecap="round" stroke-linejoin="round" d="m140.1756825 148.29633 -8.1306225 -41.354355 -2.42592 0.4738125L137.655 148.29633" stroke-width="0.5"></path><path stroke="#120071" stroke-linecap="round" stroke-linejoin="round" d="m150.39108000000002 129.4385925 -4.927650000000001 -25.131015 -2.42592 0.4738125 7.35357 37.506997500000004" stroke-width="0.5"></path><path stroke="#120071" stroke-linecap="round" stroke-linejoin="round" d="m132.689445 148.29633 -9.097199999999999 -46.3009575" stroke-width="0.5"></path><path stroke="#120071" stroke-linecap="round" stroke-linejoin="round" d="m117.03468000000001 103.28414250000002 8.8508175 45.0121875" stroke-width="0.5"></path><path stroke="#120071" stroke-linecap="round" stroke-linejoin="round" d="m114.949905 103.7010975 10.99245 -2.160585" stroke-width="0.5"></path><path stroke="#120071" stroke-linecap="round" stroke-linejoin="round" d="m137.655 148.29633 -10.5186375 -53.502907500000006 -2.42592 0.4738125 10.4049225 53.029095000000005" stroke-width="0.5"></path><path stroke="#120071" stroke-linecap="round" stroke-linejoin="round" d="m123.7249125 148.29633 -9.9879675 -50.86851000000001 -2.4448725000000002 0.4738125 9.9121575 50.39469750000001" stroke-width="0.5"></path><path stroke="#120071" stroke-linecap="round" stroke-linejoin="round" d="m50.663025000000005 96.1959075 -16.791915 50.773747500000006" stroke-width="0.5"></path><path stroke="#120071" stroke-linecap="round" stroke-linejoin="round" d="M59.0210775 98.94402 48.388725 95.4378075" stroke-width="0.5"></path><path stroke="#120071" stroke-linecap="round" stroke-linejoin="round" d="M45.31842 148.29633 63.361200000000004 93.65627250000001l-2.35011 -0.7770525 -18.308115 55.41711" stroke-width="0.5"></path><path stroke="#120071" stroke-linecap="round" stroke-linejoin="round" d="m32.20329 144.4110675 18.194399999999998 -55.03806 -2.35011 -0.7770525 -16.07172 48.632115" stroke-width="0.5"></path><path stroke="#120071" stroke-linecap="round" stroke-linejoin="round" d="m62.31881250000001 148.29633 9.343582500000002 -28.27713" stroke-width="0.5"></path><path stroke="#120071" stroke-linecap="round" stroke-linejoin="round" d="m70.20305250000001 116.53194 -10.499685 31.764390000000002" stroke-width="0.5"></path><path stroke="#120071" stroke-linecap="round" stroke-linejoin="round" d="M106.5539475 128.9837325v-3.3735450000000005" stroke-width="0.5"></path><path stroke="#120071" stroke-linecap="round" stroke-linejoin="round" d="m130.4340975 148.29633 -6.709185000000001 -34.228215" stroke-width="0.5"></path><path stroke="#120071" stroke-linecap="round" stroke-linejoin="round" d="M150.39108000000002 77.615475v65.20358250000001c0.0009975000000000001 0.7191975 -0.13965000000000002 1.43241 -0.41496 2.0977425000000003 -0.2743125 0.6643350000000001 -0.6783000000000001 1.26882 -1.187025 1.7775450000000002 -0.508725 0.508725 -1.1132100000000003 0.9127125 -1.7775450000000002 1.187025 -0.6653325000000001 0.27531000000000005 -1.378545 0.4159575 -2.0977425000000003 0.41496H37.4531325c-0.7195965000000001 0.0009975000000000001 -1.43241 -0.13965000000000002 -2.09744325 -0.41496 -0.665133 -0.2743125 -1.2694185 -0.6783000000000001 -1.77824325 -1.187025 -0.50882475 -0.508725 -0.91221375 -1.1132100000000003 -1.18712475 -1.7775450000000002 -0.27481125000000006 -0.6653325000000001 -0.41565825000000006 -1.378545 -0.41446125 -2.0977425000000003V65.549715c-0.001197 -0.71969625 0.13965000000000002 -1.43241 0.41446125 -2.09744325 0.274911 -0.665133 0.6783000000000001 -1.2694185 1.18712475 -1.77824325 0.50882475 -0.50882475 1.1131102499999999 -0.91221375 1.77824325 -1.18712475 0.66503325 -0.27481125000000006 1.37784675 -0.41565825000000006 2.09744325 -0.41446125h94.16400000000002" stroke-width="0.5"></path></g></g></svg>