<svg xmlns="http://www.w3.org/2000/svg" fill="none" viewBox="-0.25 -0.25 200 200" id="Education-Online-Learning-01--Streamline-Bangalore.svg"><desc>Education Online Learning 01 Streamline Illustration: https://streamlinehq.com</desc><g><g><path fill="#948ae3" d="M182.576415 120.7024875c-0.628425 0.4598475 -1.3466250000000002 0.7800450000000001 -2.1077175 0.939645 -0.76209 0.1605975 -1.5481200000000002 0.1566075 -2.308215 -0.0109725 -1.1191950000000002 -0.0867825 -2.2433775000000002 0.0947625 -3.2787825 0.5306700000000001 -2.4139500000000003 1.1152050000000002 -4.406955 2.9755425000000004 -5.6857500000000005 5.3067 -0.49875 0.8748075000000001 -1.23291 2.1945 -2.1825300000000003 3.85833 -1.1211900000000001 -1.3316625 -2.3451225 -2.8618275000000004 -2.9925 -3.7635675 -3.5441175 1.3167000000000002 -6.685245 3.5301525000000002 -9.1161525 6.4248975 1.48827 2.4339 3.45933 5.4034575 5.539117500000001 8.179499999999999 -0.6693225 1.0324125 -1.37256 2.096745 -2.108715 3.192l-14.72709 -7.2588075000000005c-6.178515 -3.05235 -11.07225 2.5935 -9.875250000000001 8.03586 0 0 5.970037500000001 3.7525950000000003 10.821877500000001 6.766042500000001l-6.368040000000001 2.9565900000000003c-7.43337 -3.1770375000000004 -20.45673 -8.74209 -26.040735 -11.087212500000001l-2.563575 4.873785000000001 -18.9525 9.738592500000001c1.326675 6.4248975 5.174032500000001 12.053790000000001 9.6847275 16.640295l12.50466 -5.826397500000001 4.987500000000001 1.7516100000000001 2.51769 -5.25084 8.171520000000001 -3.8084550000000004s21.322560000000003 11.163022500000002 25.735500000000002 12.967500000000001c14.7360675 6.0139275 22.756965 4.9306425 27.006315000000004 1.1441325 7.346587500000001 -6.5465925 3.4124475 -21.1779225 3.4124475 -21.1779225 3.0792825 -4.8727875 0.14364 -23.275665 -2.0738025 -35.121975000000006Z" stroke-width="0.5"></path><path fill="#948ae3" d="M101.571435 19.361475000000002c-5.268795 -0.056857500000000005 -8.4717675 5.2308900000000005 -5.6857500000000005 9.286725l-1.09725 2.7860175000000003 2.793 -1.111215c4.341120000000001 2.9186850000000004 10.535595 0.13266750000000002 10.5924525 -4.8209175 0.030922500000000002 -3.3575850000000003 -2.92467 -6.102705 -6.6024525 -6.14061Z" stroke-width="0.5"></path></g><g><path fill="#6153bd" d="M179.45025 115.30102500000001c-0.82194 0.8289225 -1.7765475 1.514205 -2.8239225 2.0279175 0.0468825 0.6872775 0.053865 1.3775475000000001 0.0189525 2.0658225000000003l2.80497 -4.09374Z" stroke-width="0.5"></path><path fill="#6153bd" d="M117.24615000000001 112.571865c0.798 -0.32219250000000005 1.3456275 1.0613400000000002 0.5496225000000001 1.3835325 -0.7960050000000001 0.32219250000000005 -1.3456275 -1.0613400000000002 -0.5496225000000001 -1.3835325Z" stroke-width="0.5"></path><path fill="#6153bd" d="m83.528655 53.249542500000004 2.1984900000000005 1.9900125000000002 -0.492765 -2.0279175 -1.7057250000000002 0.037905Z" stroke-width="0.5"></path><path fill="#6153bd" d="M77.38804499999999 34.5424275c-3.1650675 3.33564 -3.49125 8.073765 -3.904215 12.641317500000001 0 0 7.553070000000001 4.476780000000001 7.6927200000000004 8.748075 -0.0668325 -3.0613275 -1.406475 -5.5650525 -1.93116 -5.696722500000001 -4.16955 -1.09725 -3.25983 -4.9077 -0.9286725000000001 -3.7336425 0.9027375000000001 0.4678275 1.5181950000000002 0.5506200000000001 1.30872 -0.44488500000000003 -0.7351575 -3.49125 1.29675 -9.9360975 6.882750000000001 -2.360085 -2.4043740000000002 -3.62481525 -5.50430475 -6.73621725 -9.120142500000002 -9.1540575Z" stroke-width="0.5"></path><path fill="#6153bd" d="M95.46873000000001 88.10319c0 0.23810325000000002 -0.094563 0.46643100000000004 -0.26294100000000004 0.634809 -0.16837800000000003 0.16837800000000003 -0.39670575 0.26294100000000004 -0.634809 0.26294100000000004 -0.23810325000000002 0 -0.46643100000000004 -0.094563 -0.634809 -0.26294100000000004 -0.16837800000000003 -0.16837800000000003 -0.26294100000000004 -0.39670575 -0.26294100000000004 -0.634809 0 -0.23810325000000002 0.094563 -0.46643100000000004 0.26294100000000004 -0.634809 0.16837800000000003 -0.16837800000000003 0.39670575 -0.26294100000000004 0.634809 -0.26294100000000004 0.23810325000000002 0 0.46643100000000004 0.094563 0.634809 0.26294100000000004 0.16837800000000003 0.16837800000000003 0.26294100000000004 0.39670575 0.26294100000000004 0.634809Z" stroke-width="0.5"></path><path fill="#6153bd" d="M87.6034425 82.379535c0 0.23810325000000002 -0.094563 0.46643100000000004 -0.26294100000000004 0.634809 -0.16837800000000003 0.16837800000000003 -0.39670575 0.26294100000000004 -0.634809 0.26294100000000004 -0.23810325000000002 0 -0.46643100000000004 -0.094563 -0.634809 -0.26294100000000004 -0.16837800000000003 -0.16837800000000003 -0.26294100000000004 -0.39670575 -0.26294100000000004 -0.634809 0 -0.23810325000000002 0.094563 -0.46643100000000004 0.26294100000000004 -0.634809 0.16837800000000003 -0.16837800000000003 0.39670575 -0.26294100000000004 0.634809 -0.26294100000000004 0.23810325000000002 0 0.46643100000000004 0.094563 0.634809 0.26294100000000004 0.16837800000000003 0.16837800000000003 0.26294100000000004 0.39670575 0.26294100000000004 0.634809Z" stroke-width="0.5"></path><path fill="#6153bd" d="M89.0059275 94.94604c0 0.23810325000000002 -0.094563 0.46643100000000004 -0.26294100000000004 0.634809 -0.16837800000000003 0.16837800000000003 -0.39670575 0.26294100000000004 -0.634809 0.26294100000000004 -0.23810325000000002 0 -0.46643100000000004 -0.094563 -0.634809 -0.26294100000000004 -0.16837800000000003 -0.16837800000000003 -0.26294100000000004 -0.39670575 -0.26294100000000004 -0.634809 0 -0.23810325000000002 0.094563 -0.46643100000000004 0.26294100000000004 -0.634809 0.16837800000000003 -0.16837800000000003 0.39670575 -0.26294100000000004 0.634809 -0.26294100000000004 0.23810325000000002 0 0.46643100000000004 0.094563 0.634809 0.26294100000000004 0.16837800000000003 0.16837800000000003 0.26294100000000004 0.39670575 0.26294100000000004 0.634809Z" stroke-width="0.5"></path><path fill="#6153bd" d="M40.5812925 72.48633000000001c-0.947625 -0.7770525 -2.1795375000000003 -1.7625825 -3.6199275 -3.1271625 2.639385 -0.98553 4.1505975 0.416955 3.6199275 3.1271625Z" stroke-width="0.5"></path><path fill="#6153bd" d="M30.0057975 77.2434075c-0.69825 2.7860175000000003 0.6254325000000001 4.4538375 3.3166875000000005 3.5820225000000003 -0.7391475000000001 -0.83391 -1.933155 -2.140635 -3.3166875000000005 -3.5820225000000003Z" stroke-width="0.5"></path><path fill="#6153bd" d="M145.42851750000003 72.67585500000001c-1.2887700000000002 1.0423875 -2.388015 1.9900125000000002 -3.070305 2.5775400000000004 0.41097 0.15850275000000003 0.85785 0.19820325 1.2907650000000002 0.11441325000000001 0.4319175 -0.08379 0.831915 -0.287679 1.1541075 -0.58822575 0.47481 -0.5931135000000001 0.6992475 -1.347822 0.6254325000000001 -2.1037275Z" stroke-width="0.5"></path><path fill="#6153bd" d="m39.8610975 129.1563 -8.3201475 -4.8149325c-0.1793505 -0.10074750000000002 -0.38214225 -0.153615 -0.5880262500000001 -0.15261750000000002 -0.20598375 0.0019950000000000002 -0.4079775 0.056857500000000005 -0.58603125 0.15960000000000002 -0.17815350000000002 0.10374 -0.32608275000000003 0.2523675 -0.42932400000000004 0.42992250000000004 -0.10324125 0.1785525 -0.15810375000000002 0.381045 -0.159201 0.58653v9.609915c-0.00069825 0.2064825 0.053067 0.4099725 0.15580950000000002 0.5895225 0.10284225 0.1785525 0.250971 0.3281775 0.429723 0.4319175 0.17865225 0.10374 0.38154375 0.1586025 0.58822575 0.1586025 0.20658225000000002 0.0009975000000000001 0.40967325000000004 -0.053865 0.58882425 -0.1566075l8.3201475 -4.8149325c0.177156 -0.10374 0.3241875 -0.25137000000000004 0.42633150000000003 -0.428925 0.10224375 -0.177555 0.156009 -0.37905 0.156009 -0.584535 0 -0.205485 -0.05376525000000001 -0.40698 -0.156009 -0.584535 -0.10214400000000001 -0.177555 -0.2491755 -0.325185 -0.42633150000000003 -0.428925Z" stroke-width="0.5"></path><path fill="#6153bd" d="m147.91129500000002 59.54177250000001 -0.9665775 0.8528625000000001c-0.1745625 0.16678199999999999 -0.27630750000000004 0.39560850000000003 -0.28329 0.6370035 -0.006982500000000001 0.24129525000000002 0.08079750000000001 0.4758075 0.24538500000000002 0.6526642500000001 0.16458750000000003 0.17685675000000003 0.3920175 0.2818935 0.6324150000000001 0.29236725 0.241395 0.01047375 0.476805 -0.07451325 0.656355 -0.2364075l3.5062125 -3.2977350000000003c-1.210965 0.528675 -2.4847725 0.898149 -3.7905 1.0992450000000002Z" stroke-width="0.5"></path><path fill="#6153bd" d="M177.30762000000001 33.915c-0.027930000000000003 -0.032718000000000004 -0.061845000000000004 -0.059251500000000006 -0.09975 -0.07810425 -0.0389025 -0.018753000000000002 -0.08079750000000001 -0.02942625 -0.12369000000000001 -0.031221750000000003 -0.0428925 -0.0017955 -0.08478750000000002 0.005286750000000001 -0.1246875 0.020847749999999998 -0.039900000000000005 0.015561 -0.0768075 0.0393015 -0.10673250000000001 0.06952575l-25.813305 22.87866c0.3441375 0.04179525 0.68628 0.10503675000000001 1.0224374999999999 0.189525 0.7391475000000001 0.22743000000000002 0.62643 0.5117175 0.6443850000000001 0.5306700000000001l24.58239 -23.123047500000002c0.06284250000000001 -0.058453500000000005 0.09975 -0.13915125000000003 0.1027425 -0.22453725 0.0039900000000000005 -0.08548575 -0.025935 -0.16887675000000002 -0.08379 -0.23231775000000002Z" stroke-width="0.5"></path><path fill="#6153bd" d="M193.98681750000003 92.633835c1.326675 2.5935 0.056857500000000005 5.8942275 -2.82492 7.3725225000000005 -2.8817775 1.4782950000000001 -6.3111825 0.5685749999999999 -7.637857500000001 -2.0279175 -1.326675 -2.5964925000000005 -0.0588525 -5.8982175 2.8239225 -7.3725225000000005 2.8977375 -1.482285 6.3111825 -0.5695725 7.638855 2.0279175Z" stroke-width="0.5"></path><path fill="#6153bd" d="M184.6422375 99.49464c-8.2563075 -5.621910000000001 -11.8273575 -0.46284000000000003 -13.250790000000002 3.3007275000000003 1.2339075000000002 -2.64936 3.5590800000000002 -3.1251675000000003 6.8258925 2.1196875 0.30723 -0.1905225 0.5715675 -0.4418925 0.7770525 -0.7391475000000001 1.5730575 -1.9142025000000003 3.904215 1.1371499999999999 1.2508650000000001 2.9565900000000003 -0.0408975 2.2613325 0.1266825 2.6613300000000004 1.326675 8.6612925 -0.416955 -7.694715 15.068235000000001 -8.149575 3.070305 -16.29915Z" stroke-width="0.5"></path><path fill="#6153bd" d="M77.27433 170.434845c-0.202692 0 -0.40089525 0.05985 -0.56947275 0.17256749999999998 -0.16867725 0.11172000000000001 -0.30014775 0.27231750000000005 -0.37775325 0.45885000000000004 -0.07770525 0.18753 -0.09805425000000001 0.39401250000000004 -0.05855325000000001 0.592515 0.03950100000000001 0.19850250000000003 0.1370565 0.381045 0.28039725000000004 0.5246850000000001 0.14334075 0.14364 0.325983 0.241395 0.52478475 0.28029750000000003 0.19880175000000003 0.039900000000000005 0.40488525000000003 0.0189525 0.5921160000000001 -0.057855000000000004 0.18723075000000003 -0.077805 0.34722975000000006 -0.209475 0.459648 -0.3780525 0.112518 -0.16857750000000002 0.17246775 -0.36708 0.17226825 -0.5695725 0.0004987500000000001 -0.13466250000000002 -0.025536000000000003 -0.26832750000000005 -0.0768075 -0.3920175 -0.051271500000000005 -0.1246875 -0.12658275000000002 -0.237405 -0.22174425 -0.33316500000000004 -0.09516150000000001 -0.0947625 -0.20817825 -0.17057250000000002 -0.3325665 -0.221445 -0.124488 -0.0508725 -0.25775400000000004 -0.077805 -0.39231675 -0.0768075Z" stroke-width="0.5"></path><path fill="#6153bd" d="M71.51277 176.50064250000003c0 0.20249250000000002 -0.0600495 0.39999750000000006 -0.17246775 0.5685749999999999 -0.11241825 0.16857750000000002 -0.27231750000000005 0.29925 -0.45934875000000003 0.37705500000000003 -0.18693150000000003 0.077805 -0.39271575000000003 0.09775500000000001 -0.5912182500000001 0.057855000000000004 -0.19860225 -0.0389025 -0.38094525 -0.13665750000000002 -0.5240865 -0.28029750000000003 -0.14314125 -0.1426425 -0.240597 -0.325185 -0.280098 -0.5236875000000001 -0.03950100000000001 -0.19850250000000003 -0.019152 -0.40398750000000005 0.058254 -0.5915175 0.07750575000000001 -0.18653250000000002 0.208677 -0.3461325 0.37695525 -0.45885000000000004 0.16827825 -0.11271750000000001 0.36618225 -0.17256749999999998 0.5685749999999999 -0.17256749999999998 0.13456275 -0.0009975000000000001 0.2679285 0.025935 0.39231675 0.0768075 0.12438825 0.0508725 0.237405 0.1266825 0.3325665 0.221445 0.09516150000000001 0.09576000000000001 0.17047275 0.2084775 0.22174425 0.33316500000000004 0.051271500000000005 0.12369000000000001 0.07730625 0.257355 0.0768075 0.3920175Z" stroke-width="0.5"></path><path fill="#6153bd" d="M85.32914250000002 176.1215925c0 0.20249250000000002 -0.0600495 0.39999750000000006 -0.17246775 0.5685749999999999 -0.112518 0.16857750000000002 -0.27231750000000005 0.29925 -0.45934875000000003 0.37705500000000003 -0.18693150000000003 0.077805 -0.39271575000000003 0.09775500000000001 -0.591318 0.057855000000000004 -0.19850250000000003 -0.0389025 -0.3808455 -0.13665750000000002 -0.5239867500000001 -0.28029750000000003 -0.14314125 -0.1426425 -0.240597 -0.325185 -0.280098 -0.5236875000000001 -0.03950100000000001 -0.19850250000000003 -0.01925175 -0.40398750000000005 0.058254 -0.5915175 0.07750575000000001 -0.18653250000000002 0.208677 -0.3461325 0.37695525 -0.45885000000000004 0.16827825 -0.11271750000000001 0.36618225 -0.17256749999999998 0.5685749999999999 -0.17256749999999998 0.13456275 -0.0009975000000000001 0.26782875 0.025935 0.39231675 0.0768075 0.12438825 0.0508725 0.237405 0.1266825 0.3325665 0.221445 0.09506175 0.09576000000000001 0.17047275 0.2084775 0.22174425 0.33316500000000004 0.051271500000000005 0.12369000000000001 0.07730625 0.257355 0.0768075 0.3920175Z" stroke-width="0.5"></path><path fill="#6153bd" d="M89.062785 167.44035000000002c0 0.20249250000000002 -0.0600495 0.39999750000000006 -0.17246775 0.5685749999999999 -0.11241825 0.16857750000000002 -0.27231750000000005 0.29925 -0.45934875000000003 0.37705500000000003 -0.18693150000000003 0.077805 -0.39271575000000003 0.09775500000000001 -0.591318 0.057855000000000004 -0.19850250000000003 -0.0389025 -0.3808455 -0.13665750000000002 -0.5239867500000001 -0.28029750000000003 -0.14314125 -0.1426425 -0.240597 -0.325185 -0.280098 -0.5236875000000001 -0.03950100000000001 -0.19850250000000003 -0.019152 -0.40398750000000005 0.058254 -0.5915175 0.07750575000000001 -0.18653250000000002 0.208677 -0.3461325 0.37695525 -0.45885000000000004 0.16827825 -0.11271750000000001 0.36618225 -0.17256749999999998 0.5685749999999999 -0.17256749999999998 0.13456275 -0.0009975000000000001 0.26782875 0.025935 0.39231675 0.0768075 0.12438825 0.0508725 0.237405 0.1266825 0.3325665 0.221445 0.09516150000000001 0.09576000000000001 0.17047275 0.2084775 0.22174425 0.33316500000000004 0.051271500000000005 0.12369000000000001 0.07730625 0.257355 0.0768075 0.3920175Z" stroke-width="0.5"></path><path fill="#6153bd" d="M96.0941625 173.4861975c0 0.20249250000000002 -0.0600495 0.39999750000000006 -0.17246775 0.5685749999999999 -0.11241825 0.16857750000000002 -0.27231750000000005 0.29925 -0.459249 0.37705500000000003 -0.18703125 0.077805 -0.3928155 0.09775500000000001 -0.591318 0.057855000000000004 -0.19860225 -0.0389025 -0.38094525 -0.13665750000000002 -0.5240865 -0.28029750000000003 -0.14314125 -0.1426425 -0.240597 -0.325185 -0.280098 -0.5236875000000001 -0.03950100000000001 -0.19850250000000003 -0.019152 -0.40398750000000005 0.058254 -0.5915175 0.07750575000000001 -0.18653250000000002 0.208677 -0.3461325 0.37695525 -0.45885000000000004 0.16827825 -0.11271750000000001 0.36618225 -0.17256749999999998 0.5685749999999999 -0.17256749999999998 0.27022275 0.0039900000000000005 0.528276 0.11271750000000001 0.719397 0.3042375 0.191121 0.1905225 0.30014775 0.448875 0.30403800000000003 0.7191975Z" stroke-width="0.5"></path><path fill="#6153bd" d="M144.5187975 152.92273500000002s7.5440925000000005 5.0034600000000005 10.02687 5.5151775l-13.059270000000001 -4.1126925000000005 3.0324 -1.402485Z" stroke-width="0.5"></path><path fill="#6153bd" d="M112.8302175 173.33457750000002c0 0.20249250000000002 -0.05985 0.39999750000000006 -0.17256749999999998 0.5685749999999999 -0.11271750000000001 0.16857750000000002 -0.27231750000000005 0.29925 -0.45885000000000004 0.37705500000000003 -0.18753 0.077805 -0.39301500000000006 0.09775500000000001 -0.5915175 0.057855000000000004 -0.19850250000000003 -0.0389025 -0.381045 -0.13665750000000002 -0.5236875000000001 -0.28029750000000003 -0.14364 -0.1426425 -0.241395 -0.325185 -0.28029750000000003 -0.5236875000000001 -0.039900000000000005 -0.19850250000000003 -0.019950000000000002 -0.40398750000000005 0.057855000000000004 -0.5915175 0.077805 -0.18653250000000002 0.2084775 -0.3461325 0.37705500000000003 -0.45885000000000004 0.16857750000000002 -0.11271750000000001 0.36608250000000003 -0.17256749999999998 0.5685749999999999 -0.17256749999999998 0.13466250000000002 0 0.26733 0.025935 0.3920175 0.0768075 0.1246875 0.05187 0.237405 0.1266825 0.33216750000000006 0.22244250000000002 0.09576000000000001 0.0947625 0.17057250000000002 0.20748 0.22244250000000002 0.33216750000000006 0.0508725 0.1246875 0.0768075 0.257355 0.0768075 0.3920175Z" stroke-width="0.5"></path><path fill="#6153bd" d="M106.271655 176.85675000000003c0 0.20249250000000002 -0.05985 0.39999750000000006 -0.17256749999999998 0.5685749999999999 -0.11271750000000001 0.16857750000000002 -0.27231750000000005 0.29925 -0.45885000000000004 0.37705500000000003 -0.18753 0.077805 -0.39301500000000006 0.09775500000000001 -0.5915175 0.057855000000000004 -0.19850250000000003 -0.0389025 -0.381045 -0.13665750000000002 -0.5236875000000001 -0.28029750000000003 -0.14364 -0.1426425 -0.241395 -0.325185 -0.28029750000000003 -0.5236875000000001 -0.039900000000000005 -0.19850250000000003 -0.019950000000000002 -0.40398750000000005 0.057855000000000004 -0.5915175 0.077805 -0.18653250000000002 0.2084775 -0.3461325 0.37705500000000003 -0.45885000000000004 0.16857750000000002 -0.11271750000000001 0.36608250000000003 -0.17256749999999998 0.5685749999999999 -0.17256749999999998 0.2703225 0.0019950000000000002 0.5296725000000001 0.1107225 0.7211925 0.3022425 0.19152000000000002 0.19152000000000002 0.3002475 0.45087000000000005 0.3022425 0.7211925Z" stroke-width="0.5"></path><path fill="#6153bd" d="m158.96160000000003 140.07294000000002 1.4972475 2.0279175 6.5386125 -10.802925 -8.03586 8.775007500000001Z" stroke-width="0.5"></path><path fill="#6153bd" d="M135.5393025 63.73227000000001c-0.5795475 0.6094725 -1.0044825 1.2658274999999999 -0.5536125000000001 3.21993 0.9286725000000001 -0.8528625000000001 2.1945 -2.1226800000000003 3.5062125 -3.49125 -1.0473750000000002 -0.39600750000000007 -2.1785400000000004 -0.540645 -2.9526000000000003 0.27132000000000006Z" stroke-width="0.5"></path></g><g><path stroke="#120071" stroke-linecap="round" stroke-linejoin="round" d="M4.987500000000001 180.13952250000003h189.13198500000001" stroke-width="0.5"></path><path stroke="#120071" stroke-linecap="round" stroke-linejoin="round" d="m134.568735 125.004705 -5.2498425 -11.902170000000002c-0.0408975 -0.09177 -0.11271750000000001 -0.16658250000000002 -0.20249250000000002 -0.21147000000000002 -0.08977500000000001 -0.044887500000000004 -0.1925175 -0.056857500000000005 -0.2902725 -0.034912500000000006l-21.9858975 5.53413c-0.057855000000000004 0.015960000000000002 -0.11172000000000001 0.0428925 -0.1586025 0.08079750000000001 -0.0468825 0.0389025 -0.08478750000000002 0.085785 -0.11172000000000001 0.13965000000000002 -0.0269325 0.053865 -0.041895 0.11271750000000001 -0.04389 0.17256749999999998 -0.0029925000000000004 0.05985 0.007980000000000001 0.1197 0.029925 0.17556l7.506187500000001 18.2333025c0.045885 0.09576000000000001 0.1246875 0.17157 0.22244250000000002 0.21346500000000002 0.09775500000000001 0.041895 0.20748 0.0468825 0.3082275 0.013965000000000002l7.922145 -2.7291600000000003" stroke-width="0.5"></path><path stroke="#120071" stroke-linejoin="round" d="m147.91129500000002 59.54177250000001 -0.9665775 0.8528625000000001c-0.1745625 0.16678199999999999 -0.27630750000000004 0.39560850000000003 -0.28329 0.6370035 -0.006982500000000001 0.24129525000000002 0.08079750000000001 0.4758075 0.24538500000000002 0.6526642500000001 0.16458750000000003 0.17685675000000003 0.3920175 0.2818935 0.6324150000000001 0.29236725 0.241395 0.01047375 0.476805 -0.07451325 0.656355 -0.2364075l3.5062125 -3.2977350000000003c-1.210965 0.528675 -2.4847725 0.898149 -3.7905 1.0992450000000002Z" stroke-width="0.5"></path><path stroke="#120071" stroke-linejoin="round" d="M177.30762000000001 33.915c-0.027930000000000003 -0.032718000000000004 -0.061845000000000004 -0.059251500000000006 -0.09975 -0.07810425 -0.0389025 -0.018753000000000002 -0.08079750000000001 -0.02942625 -0.12369000000000001 -0.031221750000000003 -0.0428925 -0.0017955 -0.08478750000000002 0.005286750000000001 -0.1246875 0.020847749999999998 -0.039900000000000005 0.015561 -0.0768075 0.0393015 -0.10673250000000001 0.06952575l-25.813305 22.87866c0.3441375 0.04179525 0.68628 0.10503675000000001 1.0224374999999999 0.189525 0.7391475000000001 0.22743000000000002 0.62643 0.5117175 0.6443850000000001 0.5306700000000001l24.58239 -23.123047500000002c0.06284250000000001 -0.058453500000000005 0.09975 -0.13915125000000003 0.1027425 -0.22453725 0.0039900000000000005 -0.08548575 -0.025935 -0.16887675000000002 -0.08379 -0.23231775000000002Z" stroke-width="0.5"></path><path stroke="#120071" stroke-linecap="round" stroke-linejoin="round" d="M176.62533000000002 117.32894250000001c1.0613400000000002 -0.49077000000000004 2.0199375 -1.179045 2.8239225 -2.0279175l-2.80497 4.0897499999999996" stroke-width="0.5"></path><path stroke="#120071" stroke-linecap="round" stroke-linejoin="round" d="M169.5181425 154.0409325c5.0034600000000005 2.5206825000000004 15.124095000000002 1.781535 15.124095000000002 1.781535" stroke-width="0.5"></path><path stroke="#120071" stroke-linecap="round" stroke-linejoin="round" d="M129.5463225 127.69596c-2.29425 -0.60648 -7.581 -2.82492 -10.499685 -3.9610725 -1.3645800000000001 -0.5306700000000001 -0.4359075 2.29425 7.73262 5.6857500000000005" stroke-width="0.5"></path><path stroke="#120071" stroke-linecap="round" stroke-linejoin="round" d="M128.4849825 129.66702c-2.4069675 -0.28428749999999997 -5.647845 -0.9865275 -8.64234 -1.554105 -1.402485 -0.26533500000000004 -1.3077225000000001 1.7625825 6.4628025000000004 4.0189275" stroke-width="0.5"></path><path stroke="#120071" stroke-linecap="round" stroke-linejoin="round" d="M137.525325 134.56275000000002c-0.72219 -2.1156975 -1.18104 -4.312192500000001 -1.3645800000000001 -6.539610000000001 -0.6054825 -4.794982500000001 -1.74363 -3.4114500000000003 -1.995 -1.89525 -0.1466325 0.947625 -0.15960000000000002 1.91121 -0.037905 2.8618275000000004" stroke-width="0.5"></path><path stroke="#120071" stroke-linecap="round" stroke-linejoin="round" d="M99.1265625 174.81387c-4.2264075000000005 2.7291600000000003 -7.581 4.5256575 -10.1745 5.041365000000001 -1.6243290000000001 0.27231750000000005 -3.28925625 0.17556 -4.8707925 -0.28428749999999997 -6.734122500000001 -1.7585925 -21.29463 3.0314025000000004 -21.17094 -1.3456275 0.034912500000000006 -1.23291 4.678275000000001 -4.119675 10.102680000000001 -7.1271375 4.4887500000000005 -2.4877650000000004 12.50865 -5.723655000000001 18.4407825 -8.5854825 1.6926577500000002 4.58052 4.3036140000000005 8.76603 7.672770000000001 12.30117Z" stroke-width="0.5"></path><path stroke="#120071" stroke-linecap="round" stroke-linejoin="round" d="M116.2795725 171.420375c-1.3835325 4.11369 -3.0922500000000004 7.936110000000001 -5.5530825 8.4159075 -1.6249275 0.277305 -3.2907525 0.17955000000000002 -4.871790000000001 -0.2862825 -4.207455 -1.1142075 -12.0986775 0.7790475000000001 -16.93755 0.309225" stroke-width="0.5"></path><path stroke="#120071" stroke-linecap="round" stroke-linejoin="round" d="m143.2300275 132.49194000000003 -10.274250000000002 -23.975910000000002c-0.17556 -0.4099725 -0.49077000000000004 -0.7451325000000001 -0.8897700000000001 -0.94563 -0.399 -0.20149500000000004 -0.855855 -0.2543625 -1.2897675 -0.15162l-29.35842 6.97452c-0.2663325 0.05985 -0.5157075000000001 0.1765575 -0.7321650000000001 0.34314 -0.2164575 0.16658250000000002 -0.39401250000000004 0.37705500000000003 -0.5196975 0.6194475 -0.1266825 0.241395 -0.19850250000000003 0.5077275 -0.21147000000000002 0.7800450000000001 -0.0129675 0.27231750000000005 0.03391500000000001 0.5446350000000001 0.13665750000000002 0.7970025000000001L110.991825 144.23850000000002" stroke-width="0.5"></path><path stroke="#120071" stroke-linecap="round" stroke-linejoin="round" d="M193.98681750000003 92.633835c1.326675 2.5935 0.056857500000000005 5.8942275 -2.82492 7.3725225000000005 -2.8817775 1.4782950000000001 -6.3111825 0.5685749999999999 -7.637857500000001 -2.0279175 -1.326675 -2.5964925000000005 -0.0588525 -5.8982175 2.8239225 -7.3725225000000005 2.8977375 -1.482285 6.3111825 -0.5695725 7.638855 2.0279175Z" stroke-width="0.5"></path><path stroke="#120071" stroke-linecap="round" stroke-linejoin="round" d="m120.35436000000001 166.70120250000002 -2.539635 5.2498425 -4.9845075 -1.74363 7.524142500000001 -3.5062125Z" stroke-width="0.5"></path><path stroke="#120071" stroke-linecap="round" stroke-linejoin="round" d="m109.56939 149.6439525 2.5785375 -4.8707925" stroke-width="0.5"></path><path stroke="#120071" stroke-linecap="round" stroke-linejoin="round" d="M145.8075675 72.37261500000001v33.92597250000001c-0.0029925000000000004 2.6573400000000005 -0.8379 5.24685 -2.388015 7.4054400000000005 -1.5501150000000001 2.1585900000000002 -3.7376325 3.7775325 -6.254325 4.6293975000000005" stroke-width="0.5"></path><path stroke="#120071" stroke-linecap="round" stroke-linejoin="round" d="M100.90809750000001 118.987785H42.26806500000001c-3.3687570000000004 -0.0019950000000000002 -6.59876175 -1.3426350000000002 -8.979894 -3.7256625 -2.3811322500000003 -2.3830275 -3.71858025 -5.613930000000001 -3.718281 -8.982487500000001V76.8075" stroke-width="0.5"></path><path stroke="#120071" stroke-linecap="round" stroke-linejoin="round" d="M29.5788675 60.43254v-5.837370000000001c0.00209475 -3.3690562500000003 1.3419367500000001 -6.59936025 3.72496425 -8.9808915C35.68685925 43.23274725 38.917961250000005 41.895 42.287017500000005 41.895h31.7653875" stroke-width="0.5"></path><path stroke="#120071" stroke-linecap="round" stroke-linejoin="round" d="M85.2154275 41.895h47.89396500000001c3.36756 0.00029925 6.597465000000001 1.33834575 8.979495000000002 3.7198770000000003 2.3810325000000003 2.38153125 3.7186800000000004 5.61143625 3.7186800000000004 8.9792955v2.0279175" stroke-width="0.5"></path><path stroke="#120071" stroke-linecap="round" stroke-linejoin="round" d="M30.574372500000003 80.598c6.255921000000001 6.057418500000001 12.94485675 11.65089975 20.013840000000002 16.736055 1.8894645 1.36388175 4.23867675 1.9317585000000002 6.542502750000001 1.5814365 2.30372625 -0.350322 4.378027500000001 -1.59091275 5.776622250000001 -3.4547415000000004 3.3070117500000005 -4.35717975 6.2788635 -8.95884675 8.88972 -13.765500000000001" stroke-width="0.5"></path><path stroke="#120071" stroke-linecap="round" stroke-linejoin="round" d="M85.23438 53.2116375c-0.56667975 0.0572565 -1.13705025 0.0700245 -1.7057250000000002 0.037905l2.2064700000000004 1.995" stroke-width="0.5"></path><path stroke="#120071" stroke-linecap="round" stroke-linejoin="round" d="M104.96393250000001 80.1620925c3.7226700000000004 3.4159387500000005 7.722645 6.51596925 11.960025000000002 9.267772500000001 1.5082200000000001 0.9988965000000001 3.27579 1.53305775 5.0842575000000005 1.53644925 1.8084675000000001 0.0033915 3.5790300000000004 -0.524286 5.0902425000000004 -1.5174967500000003 6.747090000000001 -4.4099475 10.008915000000002 -7.0393575 17.44428 -14.431830000000001" stroke-width="0.5"></path><path stroke="#120071" stroke-linecap="round" stroke-linejoin="round" d="M135.29391750000002 63.93975c-5.879265 5.386500000000001 -6.3630525 5.947095 -13.574977500000001 10.711155 0 0 -14.364 -11.8453125 -20.6592225 -13.94904 -3.8316967500000003 -1.1056290000000002 -7.837656750000001 -1.477896 -11.8074075 -1.09725 -1.8583425 0.14364 -2.9236725000000003 -2.368065 -3.525165 -4.378027500000001 -0.21845250000000002 -0.73017 -0.492765 -2.008965 -0.492765 -2.008965 2.65335 -0.28428749999999997 6.8917275 -1.8284175 1.21296 -9.515152500000001 -5.635875 -7.626885000000001 -7.654815000000001 -1.0802925 -6.882750000000001 2.4169425 0.093765 0.4259325 0.0189525 0.7720650000000001 -0.43092 0.7291725 -0.40308975 -0.10773 -0.7955062500000001 -0.25226775 -1.1720625 -0.4319175 -2.0319075 -0.7690725 -2.6762925 2.4438750000000002 0.6354075 3.6638175000000004 0.5216925 0.1925175 0.5985 0.1426425 0.85785 0.32219250000000005 1.8174450000000002 1.2378975 2.6244225 7.9550625 0.039900000000000005 9.921135 -2.360085 1.7955 -7.60095 1.649865 -13.3665 6.08475 -6.9934725 5.386500000000001 -11.52312 14.782950000000001 -11.52312 14.782950000000001 -7.092225000000001 -5.1600675 -9.4293675 -6.56754 -14.3490375 -11.339580000000002" stroke-width="0.5"></path><path stroke="#120071" stroke-linecap="round" stroke-linejoin="round" d="M81.14064 56.035560000000004c0.0189525 -4.32117 -7.694715 -8.851815 -7.694715 -8.851815 0.416955 -4.5675525 0.7391475000000001 -9.305677500000002 3.904215 -12.641317500000001 3.6143415000000005 2.41823925 6.712975500000001 5.529741 9.1161525 9.1540575" stroke-width="0.5"></path><path stroke="#120071" stroke-linecap="round" stroke-linejoin="round" d="M103.769925 71.3302275c1.7057250000000002 7.429380000000001 1.21296 16.5076275 0.2084775 25.719540000000002L77.55861750000001 99.001875c-1.1181975 -7.562047500000001 -3.7336425 -12.867750000000001 -7.05033 -20.1664575" stroke-width="0.5"></path><path stroke="#120071" stroke-linecap="round" stroke-linejoin="round" d="M71.17162499999999 119.00175c0 -8.301195 6.384 -19.994887500000004 6.384 -19.994887500000004" stroke-width="0.5"></path><path stroke="#120071" stroke-linecap="round" stroke-linejoin="round" d="m110.34744 112.268625 -6.3690375 -15.237810000000001" stroke-width="0.5"></path><path stroke="#120071" stroke-linecap="round" stroke-linejoin="round" d="M25.5509625 59.484915c-1.47460425 -1.16737425 -3.10032975 -2.1300615000000005 -4.8328875 -2.8618275000000004 -0.49875 -0.16658250000000002 -1.3117125 0.19351500000000002 1.0044825 2.4638250000000004 1.5511125000000001 1.5191925 4.3600725 4.5485999999999995 5.6857500000000005 6.045847500000001" stroke-width="0.5"></path><path stroke="#120071" stroke-linecap="round" stroke-linejoin="round" d="M152.6444325 59.7771825c1.3117125 -0.5985 5.081265 -1.1211900000000001 6.56355 -1.44837 4.4887500000000005 -1.023435 4.510695 0.11371500000000001 0.9286725000000001 1.9521075 -1.6149525 0.810369 -3.1800300000000004 1.7157 -4.68825 2.711205" stroke-width="0.5"></path><path stroke="#120071" stroke-linecap="round" stroke-linejoin="round" d="M155.775585 58.973197500000005c1.430415 -1.5423345000000002 2.9635725 -2.98601625 4.5885 -4.32117 3.2239200000000006 -2.4229275 2.9974875 -3.537135 -1.2508650000000001 -1.7625825 -0.6842850000000001 0.285684 -2.1316575 1.0623375 -3.5680575 1.87480125" stroke-width="0.5"></path><path stroke="#120071" stroke-linecap="round" stroke-linejoin="round" d="M148.3472025 56.623087500000004c1.6548525 -1.89255675 3.4144425000000003 -3.69084975 5.2697925 -5.386500000000001 3.5441175 -2.9565900000000003 4.0707975 -1.9551 1.7057250000000002 1.3077225000000001 -0.27132000000000006 0.39510975000000004 -0.532665 0.796803 -0.784035 1.20488025" stroke-width="0.5"></path><path stroke="#120071" stroke-linecap="round" stroke-linejoin="round" d="M153.92023500000002 65.05695c0 -0.189525 -0.45486000000000004 -4.6433625 -2.1037275 -6.6902325000000005" stroke-width="0.5"></path><path stroke="#120071" stroke-linecap="round" stroke-linejoin="round" d="M88.11316500000001 59.31534c-2.0817825 2.0947500000000003 -5.0643075 2.1855225 -8.5785 0.9725625" stroke-width="0.5"></path><path stroke="#120071" stroke-linecap="round" stroke-linejoin="round" d="m79.49277 60.31782750000001 0.45386250000000006 5.4972225 5.53413 -4.965555 5.951085000000001 3.5062125 -3.3545925000000003 -5.0034600000000005" stroke-width="0.5"></path><path stroke="#120071" stroke-linecap="round" stroke-linejoin="round" d="m75.20850750000001 62.00559750000001 15.313620000000002 18.4407825 2.6713050000000003 -20.97144" stroke-width="0.5"></path><path stroke="#120071" stroke-linecap="round" stroke-linejoin="round" d="M36.961365 69.3591675c4.5336375 -1.69575 5.0283975000000005 3.45135 0.89775 8.196457500000001 -4.1306475 4.7451075 -9.094207500000001 4.6553325 -7.852320000000001 -0.31221750000000004" stroke-width="0.5"></path><path stroke="#120071" stroke-linecap="round" stroke-linejoin="round" d="M33.322485 80.8443825c-2.535246 -2.91579225 -5.2702912500000005 -5.651535750000001 -8.185485 -8.18748 -4.28925 -3.5301525000000002 -2.44587 -3.0014775 -0.49875 -2.5585875000000002 1.5761497500000001 0.45815175 3.1774365 0.8245335 4.79598 1.09725 -3.205965 -9.6149025 -3.8453625000000002 -11.458282500000001 -4.322167500000001 -13.1719875 -1.3635825000000001 -4.909695 0.0668325 -4.957575 2.3511075000000003 -0.871815 0.4917675 0.8807925000000001 1.6239299999999999 2.6373900000000003 2.1226800000000003 3.3915 2.10143325 3.21803475 4.576131 6.176220750000001 7.3725225000000005 8.812912500000001 1.4433825000000002 1.3605900000000002 2.6723025 2.35011 3.6199275 3.1271625" stroke-width="0.5"></path><path stroke="#120071" stroke-linecap="round" stroke-linejoin="round" d="M134.96673750000002 66.9711525c2.40996 -2.2134525 7.0214025 -7.1720250000000005 8.983485 -9.3765 0.277305 -0.313215 0.6194475 -0.56328825 1.00149 -0.73326225 0.38304000000000005 -0.16997400000000001 0.7970025000000001 -0.25605825 1.2159525000000002 -0.25226775 1.9790400000000001 -0.088977 3.9610725 0.031720500000000006 5.914177500000001 0.3600975 1.230915 0.3820425 0.399 1.0423875 -0.2463825 1.402485 -1.6867725000000002 0.72907275 -3.4782825 1.18951875 -5.3076975 1.3645800000000001 1.49625 2.539635 -1.197 5.951085000000001 -2.1795375000000003 7.164045000000001" stroke-width="0.5"></path><path stroke="#120071" stroke-linecap="round" stroke-linejoin="round" d="M142.34324999999998 75.27234750000001c7.98 -7.094220000000001 12.327105000000001 -9.01341 16.54653 -10.4807325 3.8094525000000004 -1.3256775 3.94212 -2.4448725000000002 -0.6443850000000001 -2.04687 -1.5361500000000001 0.0516705 -3.0643200000000004 0.25206825 -4.561567500000001 0.5985" stroke-width="0.5"></path><path stroke="#120071" stroke-linecap="round" stroke-linejoin="round" d="M31.540950000000002 124.34136750000002c-0.1793505 -0.10074750000000002 -0.38214225 -0.153615 -0.5880262500000001 -0.15261750000000002 -0.20598375 0.0019950000000000002 -0.4079775 0.056857500000000005 -0.58603125 0.15960000000000002 -0.17815350000000002 0.10374 -0.32608275000000003 0.2523675 -0.42932400000000004 0.42992250000000004 -0.10324125 0.1785525 -0.15810375000000002 0.381045 -0.159201 0.58653v9.590962500000002c-0.00069825 0.2064825 0.053067 0.4099725 0.15580950000000002 0.5895225 0.10284225 0.1785525 0.250971 0.3281775 0.429723 0.4319175 0.17865225 0.10374 0.38154375 0.1586025 0.58822575 0.1586025 0.20658225000000002 0.0009975000000000001 0.40967325000000004 -0.053865 0.58882425 -0.1566075l8.3201475 -4.79598c0.177156 -0.10374 0.3241875 -0.25137000000000004 0.42633150000000003 -0.428925 0.10224375 -0.177555 0.156009 -0.37905 0.156009 -0.584535 0 -0.205485 -0.05376525000000001 -0.40698 -0.156009 -0.584535 -0.10214400000000001 -0.177555 -0.2491755 -0.325185 -0.42633150000000003 -0.428925l-8.3201475 -4.8149325Z" stroke-width="0.5"></path><path stroke="#120071" stroke-linecap="round" stroke-linejoin="round" d="M50.257042500000004 134.14080750000002c0.005985000000000001 0.26733 -0.041496 0.532665 -0.13955025000000001 0.7810425000000001s-0.24478650000000002 0.47481 -0.4315185 0.6653325000000001c-0.18663225 0.19152000000000002 -0.40967325000000004 0.34314 -0.65585625 0.4458825 -0.24608325 0.10374 -0.5105205 0.15760500000000002 -0.77755125 0.15760500000000002 -0.26703075 0 -0.531468 -0.053865 -0.77755125 -0.15760500000000002 -0.246183 -0.1027425 -0.46922400000000003 -0.2543625 -0.65585625 -0.4458825 -0.186732 -0.1905225 -0.33346425 -0.416955 -0.4315185 -0.6653325000000001 -0.09805425000000001 -0.2483775 -0.14553525 -0.5137125 -0.13955025000000001 -0.7810425000000001v-7.942095c-0.005985000000000001 -0.26733 0.041496 -0.532665 0.13955025000000001 -0.7810425000000001s0.24478650000000002 -0.47481 0.4315185 -0.6653325000000001c0.18663225 -0.19152000000000002 0.40967325000000004 -0.34314 0.65585625 -0.44688000000000005 0.24608325 -0.1027425 0.5105205 -0.1566075 0.77755125 -0.1566075 0.26703075 0 0.531468 0.053865 0.77755125 0.1566075 0.246183 0.10374 0.46922400000000003 0.25536000000000003 0.65585625 0.44688000000000005 0.186732 0.1905225 0.33346425 0.416955 0.4315185 0.6653325000000001 0.09805425000000001 0.2483775 0.14553525 0.5137125 0.13955025000000001 0.7810425000000001v7.942095Z" stroke-width="0.5"></path><path stroke="#120071" stroke-linecap="round" stroke-linejoin="round" d="M57.15675 134.14080750000002c0.005985000000000001 0.26733 -0.041496 0.532665 -0.13955025000000001 0.7810425000000001s-0.24478650000000002 0.47481 -0.4315185 0.6653325000000001c-0.186732 0.19152000000000002 -0.40967325000000004 0.34314 -0.65585625 0.4458825 -0.24608325 0.10374 -0.5105205 0.15760500000000002 -0.77755125 0.15760500000000002 -0.26703075 0 -0.531468 -0.053865 -0.77755125 -0.15760500000000002 -0.246183 -0.1027425 -0.46922400000000003 -0.2543625 -0.655956 -0.4458825 -0.18663225 -0.1905225 -0.3333645 -0.416955 -0.43141875 -0.6653325000000001 -0.09805425000000001 -0.2483775 -0.14553525 -0.5137125 -0.13955025000000001 -0.7810425000000001v-7.942095c-0.005985000000000001 -0.26733 0.041496 -0.532665 0.13955025000000001 -0.7810425000000001s0.24478650000000002 -0.47481 0.43141875 -0.6653325000000001c0.186732 -0.19152000000000002 0.409773 -0.34314 0.655956 -0.44688000000000005 0.24608325 -0.1027425 0.5105205 -0.1566075 0.77755125 -0.1566075 0.26703075 0 0.531468 0.053865 0.77755125 0.1566075 0.246183 0.10374 0.46912425 0.25536000000000003 0.65585625 0.44688000000000005 0.186732 0.1905225 0.33346425 0.416955 0.4315185 0.6653325000000001 0.09805425000000001 0.2483775 0.14553525 0.5137125 0.13955025000000001 0.7810425000000001v7.942095Z" stroke-width="0.5"></path><path stroke="#120071" stroke-linecap="round" stroke-linejoin="round" d="M101.571435 19.361475000000002c-5.268795 -0.056857500000000005 -8.4717675 5.2308900000000005 -5.6857500000000005 9.286725l-1.09725 2.7860175000000003 2.793 -1.111215c4.341120000000001 2.9186850000000004 10.535595 0.13266750000000002 10.5924525 -4.8209175 0.030922500000000002 -3.3575850000000003 -2.92467 -6.102705 -6.6024525 -6.14061Z" stroke-width="0.5"></path><path stroke="#120071" stroke-linecap="round" stroke-linejoin="round" d="M160.96059000000002 76.9022625V88.9371" stroke-width="0.5"></path><path stroke="#120071" stroke-linecap="round" stroke-linejoin="round" d="M166.9785075 82.92018h-12.0348375" stroke-width="0.5"></path><path stroke="#120071" stroke-linecap="round" stroke-linejoin="round" d="M85.48575000000001 60.847500000000004s4.0209225 14.218365 5.022412500000001 19.596885c1.0443825 5.782607250000001 1.4826840000000001 11.65848075 1.3077225000000001 17.53206" stroke-width="0.5"></path><path stroke="#120071" stroke-linecap="round" stroke-linejoin="round" d="M181.59088500000001 115.79379000000002c-0.416955 -7.694715 15.06225 -8.14359 3.070305 -16.29915 -8.0967075 -5.5071975 -11.684715 -0.66234 -13.167 3.0772875" stroke-width="0.5"></path><path stroke="#120071" stroke-linecap="round" stroke-linejoin="round" d="M182.54250000000002 120.72144c-0.8049825 -4.28925 -1.5860250000000002 -8.0448375 -1.8383925 -9.3814875 -0.325185 -1.3715625 -0.4718175 -2.7800325 -0.4359075 -4.189500000000001 2.65335 -1.8194400000000002 0.32219250000000005 -4.8707925 -1.2508650000000001 -2.9565900000000003 -0.21546 0.2942625 -0.4897725 0.540645 -0.8049825 0.724185 -5.586 -8.977500000000001 -8.5635375 -1.1181975 -7.680750000000001 5.9022075 0.5316675000000001 4.2284025000000005 2.5087125 7.9131675 6.097717500000001 6.50769 0.1107225 1.4753025000000002 0.013965000000000002 2.9585850000000002 -0.2862825 4.406955" stroke-width="0.5"></path><path stroke="#120071" stroke-linecap="round" stroke-linejoin="round" d="m154.5456675 158.41896 -13.059270000000001 -4.09374" stroke-width="0.5"></path><path stroke="#120071" stroke-linecap="round" stroke-linejoin="round" d="m137.54427750000002 134.576715 5.6857500000000005 -2.084775 13.9879425 5.0982225" stroke-width="0.5"></path><path stroke="#120071" stroke-linecap="round" stroke-linejoin="round" d="M166.9815 131.31588750000003c-1.197 -1.4214375000000001 -2.2174425 -2.7291600000000003 -2.9565900000000003 -3.7525950000000003 -3.5441175 1.3157025 -6.685245 3.5301525000000002 -9.1161525 6.4248975 1.5730575 2.5406325 3.3735450000000005 5.2318875 5.5530825 8.112667499999999" stroke-width="0.5"></path><path stroke="#120071" stroke-linecap="round" stroke-linejoin="round" d="M156.4409175 127.35481500000002c-1.2857775 -2.6643225 -2.2593375000000004 -5.4692925 -2.8997325000000003 -8.3580525 -0.452865 -1.46034 -0.7461300000000001 -2.9655675 -0.871815 -4.4887500000000005 -0.35211749999999997 -4.189500000000001 0.720195 -4.0368825 2.0658225000000003 -0.28428749999999997 3.29973 9.209917500000001 6.405945 11.7315975 7.880250000000001 13.9300875" stroke-width="0.5"></path><path stroke="#120071" stroke-linecap="round" stroke-linejoin="round" d="M152.83994250000003 115.755885c-1.0144575 -1.1880225000000002 -2.1895124999999998 -2.228415 -3.49125 -3.0922500000000004 -0.37705500000000003 -0.21147000000000002 -1.1142075 -0.045885 0.4359075 2.1416325 0.3381525 0.476805 1.689765 2.5186875 2.14263 3.25983 0.979545 1.4693175000000003 1.8593400000000002 3.002475 2.6343975 4.5885" stroke-width="0.5"></path><path stroke="#120071" stroke-linecap="round" stroke-linejoin="round" d="M155.49329250000002 125.1752775c0.37905 1.9521075 -3.3545925000000003 -0.22743000000000002 -5.0423625 -0.9665775 -1.5152025 -0.6633375 -3.4663125000000004 -0.8169525 0 2.1416325 2.11071 1.9231800000000001 3.9191775 4.15359 5.364555 6.61542" stroke-width="0.5"></path><path stroke="#120071" stroke-linecap="round" stroke-linejoin="round" d="m129.641085 137.45550000000003 -18.65325 6.783 25.7754 11.030355c0.4389 0.18653250000000002 0.9107175000000001 0.27930000000000005 1.3875225 0.27231750000000005 0.476805 -0.005985000000000001 0.9466275 -0.11172000000000001 1.3795425000000001 -0.3102225l4.987500000000001 -2.312205" stroke-width="0.5"></path><path stroke="#120071" stroke-linecap="round" stroke-linejoin="round" d="M179.77144500000003 135.865485s-8.738100000000001 15.407385000000001 -9.438345 16.65825c-3.7386300000000006 6.68325 -10.04283 9.035355000000001 -18.678187500000003 4.67229 -2.004975 -1.01346 -4.2663075 -2.4348975 -17.955000000000002 -11.04033 -1.197 -5.4583200000000005 3.6907500000000004 -11.087212500000001 9.875250000000001 -8.03586l14.72709 7.2588075000000005c1.4214375000000001 -2.1037275 2.7171900000000004 -4.1087025 3.89025 -5.970037500000001 3.49125 -5.560065 5.81742 -9.913155000000001 6.97452 -11.922120000000001 1.2758025 -2.3331525 3.2698050000000003 -4.1944875 5.6857500000000005 -5.3067 3.573045 -1.4653275000000001 4.5436125 0.7391475000000001 7.694715 -1.4593425000000002 2.236395 11.84631 5.174032500000001 30.2491875 2.1037275 35.11998 0 0 9.801435000000001 36.4396725 -30.418762500000003 20.03379 -4.4159325 -1.8014850000000002 -25.735500000000002 -12.967500000000001 -25.735500000000002 -12.967500000000001l-28.183365000000002 13.13508c-4.510695 -4.5885 -8.379000000000001 -10.216395000000002 -9.70368 -16.641292500000002l25.3365 -13.03932" stroke-width="0.5"></path><path stroke="#120071" stroke-linecap="round" stroke-linejoin="round" d="M178.027815 138.89788500000003s2.1276675000000003 13.439317500000001 0.004987500000000001 16.94553c0 0 3.42741 23.84025 -15.394417500000001 15.406387500000001 -13.418370000000001 -6.0099375 -26.264174999999998 -12.083715000000002 -31.898055000000003 -14.745045000000001 -0.9336600000000002 -0.44488500000000003 -1.9521075 -0.6802950000000001 -2.9865150000000003 -0.6902699999999999 -1.0334100000000002 -0.009975000000000001 -2.056845 0.2064825 -2.998485 0.6334125L95.1615 169.828365" stroke-width="0.5"></path><path stroke="#120071" stroke-linecap="round" stroke-linejoin="round" d="m94.17996000000001 111.77586000000001 -1.0423875 7.2209025" stroke-width="0.5"></path><path stroke="#120071" stroke-linecap="round" stroke-linejoin="round" d="M12.8527875 78.28579500000001c0 0.41984775 -0.124488 0.8302192500000001 -0.3577035 1.17934425 -0.23331525 0.34902525 -0.5647845 0.62114325 -0.95271225 0.78174075 -0.387828 0.16069725 -0.81465825 0.202692 -1.22642625 0.12079725000000001 -0.41170815 -0.08189475000000002 -0.7899402 -0.284088 -1.0867962000000002 -0.580944 -0.296865975 -0.296856 -0.49902929999999995 -0.67500825 -0.580934025 -1.08677625 -0.08190472500000001 -0.411768 -0.039870075 -0.8385982500000001 0.12078727500000001 -1.22642625 0.160667325 -0.38792775000000007 0.43273545 -0.719397 0.7818105750000001 -0.95271225 0.34906515 -0.23321550000000002 0.759446625 -0.3577035 1.179294375 -0.3577035 0.278901 -0.00039900000000000005 0.55510875 0.054264 0.812763 0.16079700000000002 0.25775400000000004 0.10653300000000002 0.49186725000000003 0.26284125 0.689073 0.46004700000000004s0.353514 0.431319 0.46004700000000004 0.689073c0.10653300000000002 0.25775400000000004 0.161196 0.5338620000000001 0.16079700000000002 0.812763Z" stroke-width="0.5"></path><path stroke="#120071" stroke-linecap="round" stroke-linejoin="round" d="m166.99746000000002 131.29793250000003 -8.03586 8.775007500000001" stroke-width="0.5"></path><path stroke="#120071" stroke-linecap="round" stroke-linejoin="round" d="M139.98915000000002 137.26797c-0.26533500000000004 -0.189525 -0.5117175 -0.37905 -0.6443850000000001 -0.4738125 -0.708225 -0.6104700000000001 -1.310715 -1.3336575 -1.781535 -2.1416325l-0.60648 -1.0423875c-0.6443850000000001 -1.09725 -2.882775 -5.0593200000000005 -3.89025 -5.876272500000001 -0.4179525 -0.34014750000000005 -6.2932275 -2.76507 -9.097199999999999 -3.9800250000000004 -2.14263 -0.9276750000000001 -3.5441175 -0.6254325000000001 1.0802925 2.388015" stroke-width="0.5"></path><path stroke="#120071" stroke-linecap="round" stroke-linejoin="round" d="M138.4919025 63.464940000000006c-0.476805 -0.26164424999999997 -1.0204425 -0.37436175000000005 -1.5620850000000002 -0.32368875 -0.5416425 0.050673 -1.055355 0.26244225 -1.4753025000000002 0.6079762500000001 -1.5770475 1.6309125 -0.13167 5.520165 2.3311575 8.361045 1.6688175 1.9241775 5.328645 4.51269 7.017412500000001 2.6693100000000003 0.472815 -0.59361225 0.6972524999999999 -1.34792175 0.6254325000000001 -2.1037275" stroke-width="0.5"></path><path stroke="#120071" stroke-linecap="round" stroke-linejoin="round" d="M127.25307000000001 131.90341500000002c-1.8383925 0.4179525 -3.5241675 0.8598450000000001 -6.384 1.270815 -1.3456275 0.1925175 -0.399 1.7027325000000002 7.239855 2.2174425 1.1181975 0.0748125 1.3077225000000001 0.7770525 1.5351525 2.0658225000000003 0.5775525 3.2708025000000003 1.0763025 4.406955 3.94212 6.08475" stroke-width="0.5"></path></g></g></svg>