<svg xmlns="http://www.w3.org/2000/svg" fill="none" viewBox="-0.25 -0.25 200 200" id="Job-Interview--Streamline-Bangalore.svg"><desc>Job Interview Streamline Illustration: https://streamlinehq.com</desc><g id="job-interview--work-job-interview"><g id="clipboard"><path id="Vector" stroke="#120071" stroke-linecap="round" stroke-linejoin="round" d="M75.41898 79.40000250000001V11.013397500000002h98.9011275v110.624745" stroke-width="0.5"></path><path id="Vector_2" stroke="#120071" stroke-linecap="round" stroke-linejoin="round" d="M150.1806075 11.014395v-0.9625875A5.0643075 5.0643075 0 0 0 145.1163 4.987500000000001h-40.49850000000001a5.0633099999999995 5.0633099999999995 0 0 0 -5.0643075 5.0643075v0.9625875" stroke-width="0.5"></path><path id="Vector_3" stroke="#120071" stroke-linecap="round" stroke-linejoin="round" d="M117.54540000000001 30.699060000000003h12.482715" stroke-width="0.5"></path><path id="Vector_4" stroke="#120071" stroke-linecap="round" stroke-linejoin="round" d="M117.54540000000001 26.4936h25.5489675" stroke-width="0.5"></path><path id="Vector_5" stroke="#120071" stroke-linecap="round" stroke-linejoin="round" d="M117.54540000000001 34.9254675h12.482715" stroke-width="0.5"></path><path id="Vector_6" stroke="#120071" stroke-linecap="round" stroke-linejoin="round" d="M117.54540000000001 38.681055h12.482715" stroke-width="0.5"></path><path id="Vector_7" stroke="#120071" stroke-linecap="round" stroke-linejoin="round" d="M93.19842000000001 51.76626h12.4817175" stroke-width="0.5"></path><path id="Vector_8" stroke="#120071" stroke-linecap="round" stroke-linejoin="round" d="M93.19842000000001 55.9926675h12.4817175" stroke-width="0.5"></path><path id="Vector_9" stroke="#120071" stroke-linecap="round" stroke-linejoin="round" d="M117.54540000000001 51.76626h12.482715" stroke-width="0.5"></path><path id="Vector_10" stroke="#120071" stroke-linecap="round" stroke-linejoin="round" d="M117.54540000000001 55.9926675h12.482715" stroke-width="0.5"></path><path id="Vector_11" stroke="#120071" stroke-linecap="round" stroke-linejoin="round" d="M117.54540000000001 59.749252500000004h12.482715" stroke-width="0.5"></path><path id="Vector_12" stroke="#120071" stroke-linecap="round" stroke-linejoin="round" d="M99.089655 23.331525000000003a11.880225000000001 11.880225000000001 0 1 0 0.0019950000000000002 23.760450000000002 11.880225000000001 11.880225000000001 0 0 0 -0.0019950000000000002 -23.760450000000002v0Z" stroke-width="0.5"></path><path id="Vector_13" stroke="#120071" stroke-linecap="round" stroke-linejoin="round" d="M107.5704 43.528905a11.866260000000002 11.866260000000002 0 0 0 -13.077225 -2.635395 11.87025 11.87025 0 0 0 -3.880275 2.635395 11.8772325 11.8772325 0 0 0 16.9575 0v0Z" stroke-width="0.5"></path><path id="Vector_14" stroke="#120071" stroke-linecap="round" stroke-linejoin="round" d="M98.68267500000002 37.429192500000006a1.6688175 1.6688175 0 1 0 0 -3.337635 1.6688175 1.6688175 0 0 0 0 3.337635Z" stroke-width="0.5"></path></g><g id="elements"><path id="Vector_15" stroke="#120071" stroke-linecap="round" stroke-linejoin="round" d="m24.9724125 160.6663275 6.5785125 6.5785125" stroke-width="0.5"></path><path id="Vector_16" stroke="#120071" stroke-linecap="round" stroke-linejoin="round" d="m24.9724125 167.24483999999998 6.5785125 -6.5785125" stroke-width="0.5"></path><path id="Vector_17" stroke="#120071" stroke-linecap="round" stroke-linejoin="round" d="m176.8238325 114.21375 2.87679 4.7451075 3.3815250000000003 -7.088235" stroke-width="0.5"></path><path id="Vector_18" stroke="#120071" stroke-linecap="round" stroke-linejoin="round" d="M138.790155 39.10998h9.3036825" stroke-width="0.5"></path><path id="Vector_19" stroke="#120071" stroke-linecap="round" stroke-linejoin="round" d="M143.442495 43.760325v-9.302685" stroke-width="0.5"></path><path id="Vector_20" stroke="#120071" stroke-linecap="round" stroke-linejoin="round" d="M156.4987725 51.875985h5.07528" stroke-width="0.5"></path><path id="Vector_21" stroke="#120071" stroke-linecap="round" stroke-linejoin="round" d="M159.03741000000002 54.413625v-5.07528" stroke-width="0.5"></path></g><g id="person 1"><path id="Vector_22" fill="#6153bd" d="M86.0553225 98.0632275v1.49625a14.142555000000002 14.142555000000002 0 0 1 5.3815124999999995 2.8797825c2.1216825 2.064825 2.3491125 5.7565725 2.6653200000000004 8.955555 1.3326600000000002 13.443307500000001 2.052855 18.359984999999998 2.1555975000000003 31.896060000000002H86.0553225v8.816902500000001h12.768v-54.04455h-12.768Z" stroke-width="0.5"></path><path id="Vector_23" stroke="#120071" stroke-linecap="round" stroke-linejoin="round" d="M86.0553225 143.29486500000002v8.816902500000001h12.7630125V98.0632275H86.0553225v1.50024" stroke-width="0.5"></path><path id="Vector_24" stroke="#120071" stroke-linecap="round" stroke-linejoin="round" d="M46.452577500000004 119.4596025c-0.983535 0.10074750000000002 -1.9740525000000002 0.13665750000000002 -2.962575 0.10673250000000001l3.1850175000000003 25.555950000000003a0.640395 0.640395 0 0 0 1.2748050000000002 -0.1246875l-1.4972475 -25.537995000000002Z" stroke-width="0.5"></path><path id="Vector_25" stroke="#120071" stroke-linecap="round" stroke-linejoin="round" d="m67.38012750000001 142.71432000000001 -11.4642675 -26.533500000000004a22.073677500000002 22.073677500000002 0 0 1 -2.822925 1.5092174999999999L66.23400000000001 143.2938675a0.648375 0.648375 0 0 0 0.8538600000000001 0.2643375 0.6453825000000001 0.6453825000000001 0 0 0 0.2962575 -0.843885h-0.0039900000000000005Z" stroke-width="0.5"></path><path id="Vector_26" stroke="#120071" stroke-linecap="round" stroke-linejoin="round" d="m32.3898225 116.16087 -11.4303525 26.563425a0.6433875 0.6433875 0 1 0 1.1521125 0.5775525l13.1001675 -25.625775000000004a22.05273 22.05273 0 0 1 -2.8219275 -1.5152025v0Z" stroke-width="0.5"></path><g id="Group"><path id="Vector_27" fill="#6153bd" d="M33.5449275 88.96503000000001c0.22044750000000002 -0.6154575 0.45486000000000004 -1.21695 0.69825 -1.7955 -7.792470000000001 -2.3201850000000004 -8.8887225 -6.625395000000001 -8.8767525 -11.359530000000001 0 -1.82343 0 -4.06581 0.0668325 -6.455820000000001a4.570545 4.570545 0 0 0 -3.2708025000000003 4.3820175v15.228832500000001h11.3824725Z" stroke-width="0.5"></path><path id="Vector_28" fill="#6153bd" d="M54.14031000000001 113.80776750000001c-15.0492825 0.720195 -22.0078425 -7.439355000000001 -22.24425 -15.744540000000002h-9.727620000000002a22.006845000000002 22.006845000000002 0 0 0 37.260615 15.361500000000001c-1.873305 0.181545 -3.7057125 0.30723 -5.288745 0.38304000000000005Z" stroke-width="0.5"></path></g><path id="Vector_29" stroke="#120071" stroke-linecap="round" stroke-linejoin="round" d="M22.16844 98.0632275a22.0038525 22.0038525 0 0 0 13.61388 19.849252500000002 22.009837500000003 22.009837500000003 0 0 0 23.647732500000004 -4.4877525" stroke-width="0.5"></path><path id="Vector_30" stroke="#120071" stroke-linecap="round" stroke-linejoin="round" d="M25.43625 69.35617500000001a4.570545 4.570545 0 0 0 -3.2718 4.3820175v15.22584" stroke-width="0.5"></path><path id="Vector_31" fill="#948ae3" d="M96.62184 145.8933525a4.059825000000001 4.059825000000001 0 0 1 -1.6079700000000001 -2.5935H86.39347500000001s-1.155105 7.144095 -1.2498675 8.005935000000001c-0.23241750000000003 0.9765525 19.987905 1.12917 20.2023675 0.149625 0.5167050000000001 -2.3670675000000005 -5.0184225 -2.990505 -8.7251325 -5.56206Z" stroke-width="0.5"></path><path id="Vector_32" stroke="#120071" stroke-linecap="round" stroke-linejoin="round" d="M96.62184 145.8933525a4.059825000000001 4.059825000000001 0 0 1 -1.6079700000000001 -2.5935H86.39347500000001s-1.155105 7.144095 -1.2498675 8.005935000000001c-0.23241750000000003 0.9765525 19.987905 1.12917 20.2023675 0.149625 0.5167050000000001 -2.3670675000000005 -5.0184225 -2.990505 -8.7251325 -5.56206Z" stroke-width="0.5"></path><path id="Vector_33" stroke="#120071" stroke-linecap="round" stroke-linejoin="round" d="M82.3935 123.9294c0.6304200000000001 5.632882500000001 1.3017375 11.033347500000001 2.3550975000000003 19.365465000000004H96.25875c-0.09975 -13.536075 -0.8229375 -18.45375 -2.1555975000000003 -31.896060000000002 -0.31620750000000003 -3.1989825 -0.5436375000000001 -6.8907300000000005 -2.6653200000000004 -8.955555 -2.1496125 -2.0947500000000003 -6.465795000000001 -3.477285 -11.6398275 -4.396980000000001" stroke-width="0.5"></path><path id="Vector_34" fill="#948ae3" d="M83.68027500000001 147.16317a4.10172 4.10172 0 0 1 -1.6119600000000003 -4.00596h-8.387977500000002c-1.2299175000000002 7.64085 -1.3566000000000003 8.3221425 -1.4763000000000002 9.4134075 -0.23241750000000003 0.9745575000000001 19.9869075 1.131165 20.2023675 0.1486275 0.5157075000000001 -2.36208 -5.0184225 -2.9845200000000003 -8.72613 -5.556075000000001Z" stroke-width="0.5"></path><path id="Vector_35" stroke="#120071" stroke-linecap="round" stroke-linejoin="round" d="M83.68027500000001 147.16317a4.10172 4.10172 0 0 1 -1.6119600000000003 -4.00596h-8.387977500000002c-1.2299175000000002 7.64085 -1.3566000000000003 8.3221425 -1.4763000000000002 9.4134075 -0.23241750000000003 0.9745575000000001 19.9869075 1.131165 20.2023675 0.1486275 0.5157075000000001 -2.36208 -5.0184225 -2.9845200000000003 -8.72613 -5.556075000000001Z" stroke-width="0.5"></path><path id="Vector_36" stroke="#120071" stroke-linecap="round" stroke-linejoin="round" d="M31.8990525 98.0632275c0.23341500000000004 8.305185000000002 7.191975 16.464735 22.24425 15.744540000000002a87.74508750000001 87.74508750000001 0 0 0 13.832332500000001 -1.6528575c1.32468 13.5270975 1.96707 16.448774999999998 3.80646 31.002299999999998H83.29125c-0.09975 -13.536075 -0.8249325 -18.45375 -2.156595 -31.8950625 -0.31620750000000003 -3.1989825 -0.5436375000000001 -6.8907300000000005 -2.6653200000000004 -8.955555 -2.0339025000000004 -1.981035 -6.0079425 -3.3256650000000003 -10.8119025 -4.243365" stroke-width="0.5"></path><path id="Vector_37" stroke="#120071" stroke-linecap="round" stroke-linejoin="round" d="M34.23819 87.1705275c-0.2384025 0.57855 -0.472815 1.179045 -0.69825 1.7955l40.449622500000004 -0.0149625 1.596 -9.545077500000001a49.422135000000004 49.422135000000004 0 0 0 -6.423900000000001 -2.0947500000000003c-2.1097125000000005 -5.9600625 -4.393987500000001 -16.169475000000002 -5.7126825000000006 -22.743000000000002a6.118665000000001 6.118665000000001 0 0 0 -4.0897499999999996 -4.60845c-2.7241725 -0.891765 -5.474280000000001 -1.49625 -8.3560575 -2.26632l-9.3874725 0.149625a95.5894275 95.5894275 0 0 0 -10.892700000000001 2.9057175C25.27266 52.73184 25.3873725 68.06142 25.366425 75.81c-0.011970000000000001 4.734135000000001 1.0842825 9.039344999999999 8.871765 11.3605275Z" stroke-width="0.5"></path><path id="Vector_38" stroke="#120071" stroke-linecap="round" stroke-linejoin="round" d="M36.135435 61.50186c2.26632 4.975530000000001 0.048877500000000004 8.765032500000002 0.7670775000000001 14.184450000000002 2.9526000000000003 0.12269250000000001 11.4243675 2.3072175 14.581455000000002 3.7186800000000004" stroke-width="0.5"></path><path id="Vector_39" stroke="#120071" stroke-linecap="round" stroke-linejoin="round" d="M58.447515 61.50186c1.1421375 2.5725525000000005 2.3092125 5.2867500000000005 2.068815 8.089725 -0.24039750000000001 2.802975 -2.332155 6.3760200000000005 -0.13266750000000002 11.804415" stroke-width="0.5"></path><path id="Vector_40" fill="#6153bd" d="M51.483967500000006 79.401c-2.0628300000000004 -0.33416250000000003 -3.67878 9.001439999999999 -1.5511125000000001 9.5590425 2.192505 0.16458750000000003 3.6019725000000005 -9.222885000000002 1.5511125000000001 -9.5590425Z" stroke-width="0.5"></path><path id="Vector_41" stroke="#120071" stroke-linecap="round" stroke-linejoin="round" d="M51.483967500000006 79.401c-2.0628300000000004 -0.33416250000000003 -3.67878 9.001439999999999 -1.5511125000000001 9.5590425 2.192505 0.16458750000000003 3.6019725000000005 -9.222885000000002 1.5511125000000001 -9.5590425Z" stroke-width="0.5"></path><path id="Vector_42" fill="#948ae3" d="M69.7860975 87.275265c0.56658 -0.4319175 0.798 -1.143135 -0.12369000000000001 -1.596a0.6054825 0.6054825 0 0 0 0.29925 -0.2543625c0.29925 -0.6104700000000001 -0.47481 -1.2478725 -2.2453725 -1.88328 -1.0792950000000001 -0.389025 -2.1356475 -0.7810425000000001 -3.2079600000000004 -1.14513 -0.9685725000000001 -0.6683250000000001 -2.02692 -1.366575 -2.9795325000000004 -2.0578425000000005a1.5331575 1.5331575 0 0 0 -1.16508 -0.3241875 21.41034 21.41034 0 0 0 -6.051832500000001 1.9351500000000001 37.9848 37.9848 0 0 1 -4.460820000000001 -0.736155c-0.8209425 2.036895 -1.3575975 5.648842500000001 -0.49077000000000004 7.251825 4.3500975 0.82593 4.1426175 0.289275 11.3206275 0.4159575 4.28127 0.0748125 8.472765 0.0428925 8.899695000000001 0a0.82992 0.82992 0 0 0 0.205485 -1.6059750000000002Z" stroke-width="0.5"></path><path id="Vector_43" stroke="#120071" stroke-linecap="round" stroke-linejoin="round" d="M69.7860975 87.275265c0.56658 -0.4319175 0.798 -1.143135 -0.12369000000000001 -1.596a0.6054825 0.6054825 0 0 0 0.29925 -0.2543625c0.29925 -0.6104700000000001 -0.47481 -1.2478725 -2.2453725 -1.88328 -1.0792950000000001 -0.389025 -2.1356475 -0.7810425000000001 -3.2079600000000004 -1.14513 -0.9685725000000001 -0.6683250000000001 -2.02692 -1.366575 -2.9795325000000004 -2.0578425000000005a1.5331575 1.5331575 0 0 0 -1.16508 -0.3241875 21.41034 21.41034 0 0 0 -6.051832500000001 1.9351500000000001 37.9848 37.9848 0 0 1 -4.460820000000001 -0.736155c-0.8209425 2.036895 -1.3575975 5.648842500000001 -0.49077000000000004 7.251825 4.3500975 0.82593 4.1426175 0.289275 11.3206275 0.4159575 4.28127 0.0748125 8.472765 0.0428925 8.899695000000001 0a0.82992 0.82992 0 0 0 0.205485 -1.6059750000000002v0Z" stroke-width="0.5"></path><path id="Vector_44" stroke="#120071" stroke-linecap="round" stroke-linejoin="round" d="M61.152735 81.67729500000002a29.097075000000004 29.097075000000004 0 0 1 3.3506025000000004 0.716205" stroke-width="0.5"></path><path id="Vector_45" stroke="#120071" stroke-linecap="round" stroke-linejoin="round" d="M62.257965000000006 83.61543750000001a28.794832500000002 28.794832500000002 0 0 1 7.4044425 2.060835" stroke-width="0.5"></path><path id="Vector_46" stroke="#120071" stroke-linecap="round" stroke-linejoin="round" d="M62.382652500000006 85.85382750000001c2.5286625000000003 0.0708225 5.0283975000000005 0.5506200000000001 7.4034450000000005 1.4214375000000001" stroke-width="0.5"></path><path id="Vector_47" fill="#6153bd" d="M75.5895525 79.401c-1.2299175000000002 -0.1995 -2.1895124999999998 3.2458650000000002 -2.38203 4.518675000000001 -0.399 2.5935 -0.0668325 4.8109425 0.7870275000000001 5.0264025h0.2822925c0.8329125000000001 -0.1995 1.7246775 -2.0997375000000003 2.144625 -4.502715 0.22942500000000002 -1.3097175 0.38603250000000006 -4.842862500000001 -0.831915 -5.0423625Z" stroke-width="0.5"></path><path id="Vector_48" stroke="#120071" stroke-linecap="round" stroke-linejoin="round" d="M75.5895525 79.401c-1.2299175000000002 -0.1995 -2.1895124999999998 3.2458650000000002 -2.38203 4.518675000000001 -0.399 2.5935 -0.0668325 4.8109425 0.7870275000000001 5.0264025h0.2822925c0.8329125000000001 -0.1995 1.7246775 -2.0997375000000003 2.144625 -4.502715 0.22942500000000002 -1.3097175 0.38603250000000006 -4.842862500000001 -0.831915 -5.0423625Z" stroke-width="0.5"></path><path id="Vector_49" fill="#948ae3" d="M91.408905 82.45335c-5.1171750000000005 -0.6832875 -6.564547500000001 0.5226900000000001 -0.6374025000000001 -1.23291a0.9755550000000001 0.9755550000000001 0 0 0 -0.3142125 -1.9152c-1.5162 -0.037905 -3.0324 0.05985 -4.530645 0.2922675 -1.72368 0.237405 -2.1156975 0.55461 -3.6777825 -0.1925175 -2.124675 -1.01745 -0.5566050000000001 -3.2099550000000003 -0.1825425 -4.9346325 0.15561 -0.728175 -1.0374 -1.1371499999999999 -1.49625 -0.51471a15.271725000000002 15.271725000000002 0 0 0 -2.8578375000000005 5.245852500000001c-0.44787750000000004 1.442385 -2.611455 1.51221 -3.4114500000000003 1.29675 -1.596 3.1052175 -1.6688175 8.11566 -0.3062325 8.4588 5.6209125 -0.041895 11.7276075 -0.061845000000000004 14.7280875 -0.5755574999999999a0.82194 0.82194 0 0 0 -0.0907725 -1.63989c-0.6723150000000001 -0.09975 -0.827925 0.06982500000000001 1.3645800000000001 -0.492765a0.9077250000000001 0.9077250000000001 0 0 0 0.38304000000000005 -1.6059750000000002c0.38603250000000006 -0.05985 0.7670775000000001 -0.121695 1.14114 -0.18653250000000002a1.003485 1.003485 0 1 0 -0.11172000000000001 -2.00298Z" stroke-width="0.5"></path><path id="Vector_50" stroke="#120071" stroke-linecap="round" stroke-linejoin="round" d="M91.408905 82.45335c-5.1171750000000005 -0.6832875 -6.564547500000001 0.5226900000000001 -0.6374025000000001 -1.23291a0.9755550000000001 0.9755550000000001 0 0 0 -0.3142125 -1.9152c-1.5162 -0.037905 -3.0324 0.05985 -4.530645 0.2922675 -1.72368 0.237405 -2.1156975 0.55461 -3.6777825 -0.1925175 -2.124675 -1.01745 -0.5566050000000001 -3.2099550000000003 -0.1825425 -4.9346325 0.15561 -0.728175 -1.0374 -1.1371499999999999 -1.49625 -0.51471a15.271725000000002 15.271725000000002 0 0 0 -2.8578375000000005 5.245852500000001c-0.44787750000000004 1.442385 -2.611455 1.51221 -3.4114500000000003 1.29675 -1.596 3.1052175 -1.6688175 8.11566 -0.3062325 8.4588 5.6209125 -0.041895 11.7276075 -0.061845000000000004 14.7280875 -0.5755574999999999a0.82194 0.82194 0 0 0 -0.0907725 -1.63989c-0.6723150000000001 -0.09975 -0.827925 0.06982500000000001 1.3645800000000001 -0.492765a0.9077250000000001 0.9077250000000001 0 0 0 0.38304000000000005 -1.6059750000000002c0.38603250000000006 -0.05985 0.7670775000000001 -0.121695 1.14114 -0.18653250000000002a1.003485 1.003485 0 1 0 -0.11172000000000001 -2.00298v0Z" stroke-width="0.5"></path><path id="Vector_51" stroke="#120071" stroke-linecap="round" stroke-linejoin="round" d="m86.916165 82.22991000000002 -3.1451175 0.297255" stroke-width="0.5"></path><path id="Vector_52" stroke="#120071" stroke-linecap="round" stroke-linejoin="round" d="m90.379485 84.63588 -6.1416075 0.209475" stroke-width="0.5"></path><path id="Vector_53" stroke="#120071" stroke-linecap="round" stroke-linejoin="round" d="m88.18997250000001 86.676765 -4.2693 0.1386525" stroke-width="0.5"></path><path id="Vector_54" stroke="#120071" stroke-linecap="round" stroke-linejoin="round" d="M81.3491175 80.6408925a5.6189175 5.6189175 0 0 1 -3.4563375 4.32915 3.83838 3.83838 0 0 1 2.2513575 3.313695" stroke-width="0.5"></path><path id="Vector_55" stroke="#120071" stroke-linecap="round" stroke-linejoin="round" d="M34.23819 87.1705275c3.608955 1.0753050000000002 8.6553075 1.7246775 15.694665 1.7955" stroke-width="0.5"></path><path id="Vector_56" fill="#6153bd" d="M37.43418 35.483070000000005a4.621417500000001 4.621417500000001 0 0 0 3.2189325 8.66229c2.394 -0.8877750000000001 2.7211800000000004 -5.940112500000001 2.7211800000000004 -5.940112500000001s-3.5481075 -3.6109500000000003 -5.940112500000001 -2.7231750000000003Z" stroke-width="0.5"></path><path id="Vector_57" stroke="#120071" stroke-linecap="round" stroke-linejoin="round" d="M37.43418 35.483070000000005a4.621417500000001 4.621417500000001 0 0 0 3.2189325 8.66229c2.394 -0.8877750000000001 2.7211800000000004 -5.940112500000001 2.7211800000000004 -5.940112500000001s-3.5481075 -3.6109500000000003 -5.940112500000001 -2.7231750000000003Z" stroke-width="0.5"></path><path id="Vector_58" fill="#6153bd" d="M50.990205 35.660625c0 2.80896 -1.55211 4.3640625 -4.8747825 4.3640625 -3.3226725 0 -6.014925000000001 -2.276295 -6.014925000000001 -5.08725 0 -2.8109550000000003 2.6932500000000004 -5.08725 6.014925000000001 -5.08725 3.32367 0 4.8747825 3.0014775 4.8747825 5.810437500000001Z" stroke-width="0.5"></path><path id="Vector_59" stroke="#120071" stroke-linecap="round" stroke-linejoin="round" d="M50.990205 35.660625c0 2.80896 -1.55211 4.3640625 -4.8747825 4.3640625 -3.3226725 0 -6.014925000000001 -2.276295 -6.014925000000001 -5.08725 0 -2.8109550000000003 2.6932500000000004 -5.08725 6.014925000000001 -5.08725 3.32367 0 4.8747825 3.0014775 4.8747825 5.810437500000001Z" stroke-width="0.5"></path><path id="Vector_60" fill="#948ae3" d="M49.385227500000006 41.895c2.793 -0.7541100000000001 3.6309000000000005 -6.549585 0.548625 -9.9101625a6.078765000000001 6.078765000000001 0 0 1 -5.2867500000000005 2.9526000000000003 8.039850000000001 8.039850000000001 0 0 0 -0.027930000000000003 0.891765 1.1062275000000001 1.1062275000000001 0 0 0 -1.1700675 -0.0269325c-0.69825 0.5187 -0.29925 2.1466200000000004 0.9316650000000001 2.8708050000000003a23.1649425 23.1649425 0 0 1 -2.7600825 9.1700175c0.428925 2.9376375 3.0184349999999998 10.07475 5.7326325 10.10667 3.0812775 0.029925 3.904215 -6.596467500000001 3.6548400000000005 -10.256295C50.274 46.6032 49.6755 43.38327 49.385227500000006 41.895Z" stroke-width="0.5"></path><path id="Vector_61" stroke="#120071" stroke-linecap="round" stroke-linejoin="round" d="M49.385227500000006 41.895c2.793 -0.7541100000000001 3.6309000000000005 -6.549585 0.548625 -9.9101625a6.078765000000001 6.078765000000001 0 0 1 -5.2867500000000005 2.9526000000000003 8.039850000000001 8.039850000000001 0 0 0 -0.027930000000000003 0.891765 1.1062275000000001 1.1062275000000001 0 0 0 -1.1700675 -0.0269325c-0.69825 0.5187 -0.29925 2.1466200000000004 0.9316650000000001 2.8708050000000003a23.1649425 23.1649425 0 0 1 -2.7600825 9.1700175c0.428925 2.9376375 3.0184349999999998 10.07475 5.7326325 10.10667 3.0812775 0.029925 3.904215 -6.596467500000001 3.6548400000000005 -10.256295C50.274 46.6032 49.6755 43.38327 49.385227500000006 41.895Z" stroke-width="0.5"></path><path id="Vector_62" fill="#6153bd" d="M45.724402500000004 39.8152125c0.7072275 2.4139500000000003 2.3690625 4.0688025 4.0338899999999995 3.91419 -0.13167 -0.6114675 -0.25536000000000003 -1.23291 -0.37306500000000004 -1.8324075 -1.5052275 0.40299000000000007 -2.85684 -0.7351575 -3.660825 -2.0817825Z" stroke-width="0.5"></path><path id="Vector_63" stroke="#120071" stroke-linecap="round" stroke-linejoin="round" d="M45.724402500000004 39.8152125c0.7072275 2.4139500000000003 2.3690625 4.0688025 4.0338899999999995 3.91419 -0.13167 -0.6114675 -0.25536000000000003 -1.23291 -0.37306500000000004 -1.8324075 -1.5052275 0.40299000000000007 -2.85684 -0.7351575 -3.660825 -2.0817825Z" stroke-width="0.5"></path><path id="Vector_64" stroke="#120071" stroke-linecap="round" stroke-linejoin="round" d="M98.818335 88.9640325H16.417852500000002v9.099195h82.40048250000001v-9.099195Z" stroke-width="0.5"></path></g><g id="person 2"><path id="Vector_65" stroke="#120071" stroke-linecap="round" stroke-linejoin="round" d="M155.56212 163.43439a41.456100000000006 41.456100000000006 0 0 1 -2.9545950000000003 0.3561075l3.201975 25.6646775a0.6254325000000001 0.6254325000000001 0 0 0 0.2244375 0.44688000000000005 0.6384000000000001 0.6384000000000001 0 0 0 1.0493700000000001 -0.572565l-1.5211875 -25.895100000000003Z" stroke-width="0.5"></path><path id="Vector_66" stroke="#120071" stroke-linecap="round" stroke-linejoin="round" d="M165.032385 160.49775000000002c-0.9566025 0.4797975 -1.9401375 0.90573 -2.94462 1.2748050000000002L175.36050000000003 187.62975a0.6443850000000001 0.6443850000000001 0 0 0 1.1501175000000001 -0.5795475L165.032385 160.49775000000002Z" stroke-width="0.5"></path><path id="Vector_67" stroke="#120071" stroke-linecap="round" stroke-linejoin="round" d="m140.30037 163.32765750000002 -10.2114075 23.730525a0.6433875 0.6433875 0 0 0 0.7790475000000001 0.899745 0.6433875 0.6433875 0 0 0 0.37306500000000004 -0.32219250000000005l12.2303475 -23.926035000000002a60.199125 60.199125 0 0 1 -3.1710525 -0.3820425Z" stroke-width="0.5"></path><path id="Vector_68" stroke="#120071" stroke-linecap="round" stroke-linejoin="round" d="M128.15381250000002 153.7995375a5.3216625 5.3216625 0 0 0 1.183035 6.577515000000001 5.338620000000001 5.338620000000001 0 0 0 2.108715 1.1201925000000001c13.2278475 3.5082075 29.4192675 4.3062075 39.4142175 -5.041365000000001 7.0952175 -6.637365 9.3765 -16.8687225 9.059295 -26.504572500000002a9.3715125 9.3715125 0 0 0 -4.815930000000001 -7.92414 9.3595425 9.3595425 0 0 0 -9.27276 0.09975" stroke-width="0.5"></path><path id="Vector_69" fill="#6153bd" d="m123.229155 181.93701750000002 -3.29175 0.0089775 -0.1825425 4.5416175 -16.358999999999998 0.041895s0 -0.18453750000000002 -0.006982500000000001 -0.5276775c-3.3645675000000006 1.1900175000000002 -6.1216574999999995 2.124675 -5.985 3.81444 0.0927675 1.1181975 26.024775 0.720195 25.909065000000002 -0.399 0.0229425 -0.65436 -0.0389025 -4.79199 -0.08379 -7.4802525Z" stroke-width="0.5"></path><path id="Vector_70" stroke="#120071" stroke-linecap="round" stroke-linejoin="round" d="M103.3838925 186.00183c-3.3645675000000006 1.1900175000000002 -6.1216574999999995 2.124675 -5.985 3.81444 0.0927675 1.1181975 26.024775 0.720195 25.909065000000002 -0.399 0.025935 -0.6583500000000001 -0.03591 -4.79598 -0.08079750000000001 -7.48125l-3.29175 0.0089775" stroke-width="0.5"></path><path id="Vector_71" stroke="#120071" stroke-linecap="round" stroke-linejoin="round" d="M135.62807999999998 131.83359c-7.6039425000000005 1.542135 -14.635320000000002 3.2698050000000003 -18.4328025 4.9077a13.304655 13.304655 0 0 0 -6.6303825000000005 6.122655" stroke-width="0.5"></path><path id="Vector_72" stroke="#120071" stroke-linecap="round" stroke-linejoin="round" d="m119.93241750000001 181.945995 3.6977325 -0.009975000000000001 1.131165 -28.14945" stroke-width="0.5"></path><path id="Vector_73" fill="#948ae3" d="M149.5362225 70.35966c-0.19152000000000002 -2.1785400000000004 -1.14114 -3.82641 -2.4767925 -3.99798 -1.74363 -0.221445 -3.4822725 2.1546000000000003 -3.88227 5.305702500000001 -0.39999750000000006 3.1511025 0.6892725 5.885250000000001 2.4329025 6.107692500000001 0.424935 0.045885 0.8538600000000001 -0.044887500000000004 1.222935 -0.2603475l0.5316675000000001 9.449317500000001a17.657745000000002 17.657745000000002 0 0 1 7.337610000000001 -4.4279025l-5.1660525 -12.1764825Z" stroke-width="0.5"></path><path id="Vector_74" stroke="#120071" stroke-linecap="round" stroke-linejoin="round" d="M149.5362225 70.35966c-0.19152000000000002 -2.1785400000000004 -1.14114 -3.82641 -2.4767925 -3.99798 -1.74363 -0.221445 -3.4822725 2.1546000000000003 -3.88227 5.305702500000001 -0.39999750000000006 3.1511025 0.6892725 5.885250000000001 2.4329025 6.107692500000001 0.424935 0.045885 0.8538600000000001 -0.044887500000000004 1.222935 -0.2603475l0.5316675000000001 9.449317500000001a17.657745000000002 17.657745000000002 0 0 1 7.337610000000001 -4.4279025l-5.1660525 -12.1764825Z" stroke-width="0.5"></path><path id="Vector_75" fill="#6153bd" d="m146.832 77.5147275 0.085785 1.5132075a5.8224075 5.8224075 0 0 0 2.2742999999999998 -4.3181775c0.03391500000000001 -0.2962575 -0.8807925000000001 2.032905 -2.360085 2.80497Z" stroke-width="0.5"></path><path id="Vector_76" stroke="#120071" stroke-linecap="round" stroke-linejoin="round" d="m146.832 77.5147275 0.085785 1.5132075a5.8224075 5.8224075 0 0 0 2.2742999999999998 -4.3181775c0.03391500000000001 -0.2962575 -0.8807925000000001 2.032905 -2.360085 2.80497Z" stroke-width="0.5"></path><path id="Vector_77" fill="#6153bd" d="M149.55517500000002 68.62101750000001c-0.16359 -1.3965 -0.6802950000000001 -3.509205 -1.4074725000000001 -3.9211725000000004 -5.0443575 -2.854845 -6.4488375 0.31920000000000004 -5.0064525 1.9770450000000002 1.2119625 1.3965 2.6433750000000003 4.195485000000001 4.4298975 5.12316 0.47481 -0.576555 1.0054800000000002 -2.2473675 1.8004875 -1.4194425000000002 0.18653250000000002 0.61845 0.15561 1.28079 -0.08778 1.8782925000000001 0.1187025 0.017955 0.7810425000000001 0 0.89775 0a33.5130075 33.5130075 0 0 1 -0.62643 -3.6378825Z" stroke-width="0.5"></path><path id="Vector_78" stroke="#120071" stroke-linecap="round" stroke-linejoin="round" d="M149.55517500000002 68.62101750000001c-0.16359 -1.3965 -0.6802950000000001 -3.509205 -1.4074725000000001 -3.9211725000000004 -5.0443575 -2.854845 -6.4488375 0.31920000000000004 -5.0064525 1.9770450000000002 1.2119625 1.3965 2.6433750000000003 4.195485000000001 4.4298975 5.12316 0.47481 -0.576555 1.0054800000000002 -2.2473675 1.8004875 -1.4194425000000002 0.18653250000000002 0.61845 0.15561 1.28079 -0.08778 1.8782925000000001 0.1187025 0.017955 0.7810425000000001 0 0.89775 0a33.5130075 33.5130075 0 0 1 -0.62643 -3.6378825v0Z" stroke-width="0.5"></path><path id="Vector_79" stroke="#120071" stroke-linecap="round" stroke-linejoin="round" d="M137.6759475 101.79387750000001c-1.13316 -2.5935 -2.2024800000000004 -5.386500000000001 -3.3226725 -7.964040000000001" stroke-width="0.5"></path><path id="Vector_80" fill="#6153bd" d="m124.501965 100.1081025 3.4154400000000003 -1.973055c0.13765500000000003 0.317205 0.2743125 0.6384000000000001 0.41097 0.9605925000000001a20.88765 20.88765 0 0 0 1.65585 -0.8628375c2.8628250000000004 -1.6528575 4.8189225 -3.6239175 4.3690500000000005 -4.402965 -0.4498725 -0.7790475000000001 -3.134145 -0.0708225 -5.99697 1.5830325 -2.8628250000000004 1.653855 -4.81992 3.6239175 -4.371045 4.402965a0.692265 0.692265 0 0 0 0.5167050000000001 0.2922675Z" stroke-width="0.5"></path><path id="Vector_81" stroke="#120071" stroke-linecap="round" stroke-linejoin="round" d="M128.32837500000002 99.09564a20.88765 20.88765 0 0 0 1.65585 -0.8628375c2.8628250000000004 -1.6528575 4.8189225 -3.6239175 4.3690500000000005 -4.402965 -0.4498725 -0.7790475000000001 -3.134145 -0.0708225 -5.99697 1.5830325 -2.8628250000000004 1.653855 -4.81992 3.6239175 -4.371045 4.402965a0.692265 0.692265 0 0 0 0.5167050000000001 0.2922675" stroke-width="0.5"></path><path id="Vector_82" fill="#948ae3" d="m125.9214075 99.28815750000001 1.995 -1.15311c0.13765500000000003 0.317205 0.2743125 0.636405 0.4099725 0.959595a19.7295525 19.7295525 0 0 0 4.446855 -2.8039725l-1.16109 -3.0184349999999998c-1.4693175000000003 -5.109195000000001 -4.5136875000000005 -14.22834 -5.891235 -16.61436 -0.420945 -0.7291725 -1.7955 -0.44289 -1.7057250000000002 0.35910000000000003 0.313215 2.9526000000000003 1.4373975 3.591 1.1401425 5.9002125 -1.8214350000000001 1.8683175 -4.788 1.4014875 -7.3106775 0.7251825000000001a28.051695000000002 28.051695000000002 0 0 0 -4.909695 -0.9077250000000001 1.05735 1.05735 0 0 0 -0.5985 2.0179425c6.331132500000001 2.6992350000000003 4.706205000000001 1.1301675 -0.8598450000000001 1.242885a1.083285 1.083285 0 0 0 -0.38603250000000006 2.1316575c0.399 0.117705 0.8059800000000001 0.23541 1.2209400000000001 0.35112a0.97755 0.97755 0 0 0 -0.2563575 1.466325 0.97755 0.97755 0 0 0 0.46383750000000007 0.309225c2.32617 0.89775 2.16657 0.688275 1.42443 0.708225 -1.1660775 0.031920000000000004 -1.4214375000000001 1.4413875 -0.31620750000000003 1.7516100000000001a73.54368 73.54368 0 0 0 10.636342500000001 2.0947500000000003c0.45486000000000004 1.187025 1.2628350000000002 3.3984825 1.657845 4.478775000000001Z" stroke-width="0.5"></path><path id="Vector_83" stroke="#120071" stroke-linecap="round" stroke-linejoin="round" d="M128.3273775 99.0946425a19.7295525 19.7295525 0 0 0 4.446855 -2.8039725l-1.16109 -3.0184349999999998c-1.4693175000000003 -5.109195000000001 -4.5136875000000005 -14.22834 -5.891235 -16.61436 -0.420945 -0.7291725 -1.7955 -0.44289 -1.7057250000000002 0.35910000000000003 0.313215 2.9526000000000003 1.4373975 3.591 1.1401425 5.9002125 -1.8214350000000001 1.8683175 -4.788 1.4014875 -7.3106775 0.7251825000000001a28.051695000000002 28.051695000000002 0 0 0 -4.909695 -0.9077250000000001 1.05735 1.05735 0 0 0 -0.5985 2.0179425c6.331132500000001 2.6992350000000003 4.706205000000001 1.1301675 -0.8598450000000001 1.242885a1.083285 1.083285 0 0 0 -0.38603250000000006 2.1316575c0.399 0.117705 0.8059800000000001 0.23541 1.2209400000000001 0.35112a0.97755 0.97755 0 0 0 -0.2563575 1.466325 0.97755 0.97755 0 0 0 0.46383750000000007 0.309225c2.32617 0.89775 2.16657 0.688275 1.42443 0.708225 -1.1660775 0.031920000000000004 -1.4214375000000001 1.4413875 -0.31620750000000003 1.7516100000000001a73.54368 73.54368 0 0 0 10.636342500000001 2.0947500000000003 503.2856325000001 503.2856325000001 0 0 1 1.653855 4.4817675" stroke-width="0.5"></path><path id="Vector_84" stroke="#120071" stroke-linecap="round" stroke-linejoin="round" d="M165.2747775 100.1360325c-1.175055 -9.426375 -3.1291575000000003 -11.29569 -10.573500000000001 -17.59989 -12.307155 3.4014750000000005 -19.551000000000002 24.605332500000003 -20.5036125 29.249692500000002 -2.3850225000000003 -3.591 -4.2503475 -8.970517500000001 -6.28425 -13.64979l-10.368015000000002 5.985c1.2119625 5.7186675 5.9441025 25.64772 18.0677175 23.951970000000003 -0.0089775 2.793 0.023940000000000003 5.5032075 0.07182 8.0667825 12.60042 -2.1945 26.1135525 -4.133640000000001 30.082605000000004 -5.4094425 0.0039900000000000005 -7.15407 0.38403750000000003 -23.55696 -0.492765 -30.5943225Z" stroke-width="0.5"></path><path id="Vector_85" stroke="#120071" stroke-linecap="round" stroke-linejoin="round" d="M135.6171075 128.07301500000003c2.37804 -0.33316500000000004 5.7206625 -0.8109675 8.016907500000002 -3.764565 5.174032500000001 -6.6563175 6.5206575 -17.502135 7.35357 -24.9165525" stroke-width="0.5"></path><path id="Vector_86" fill="#6153bd" d="M121.9194375 99.72007500000001c2.8628250000000004 -1.653855 5.548095000000001 -2.3630775 5.997967500000001 -1.5840300000000003 0.4498725 0.7790475000000001 -1.5062250000000001 2.7501075000000004 -4.3690500000000005 4.402965 -2.8628250000000004 1.6528575 -5.5490925 2.3610825 -5.998965000000001 1.582035 -0.4498725 -0.7790475000000001 1.5072225 -2.74911 4.3700475 -4.4019675000000005Z" stroke-width="0.5"></path><path id="Vector_87" stroke="#120071" stroke-linecap="round" stroke-linejoin="round" d="M121.9194375 99.72007500000001c2.8628250000000004 -1.653855 5.548095000000001 -2.3630775 5.997967500000001 -1.5840300000000003 0.4498725 0.7790475000000001 -1.5062250000000001 2.7501075000000004 -4.3690500000000005 4.402965 -2.8628250000000004 1.6528575 -5.5490925 2.3610825 -5.998965000000001 1.582035 -0.4498725 -0.7790475000000001 1.5072225 -2.74911 4.3700475 -4.4019675000000005Z" stroke-width="0.5"></path><path id="Vector_88" fill="#948ae3" d="M123.34885500000001 89.13759750000001c0.82593 -2.3201850000000004 0.385035 -5.4373724999999995 -0.25137000000000004 -8.084737500000001 -0.1995 -0.8099700000000001 -1.7805375 -0.8728125 -1.995 -0.07880250000000001 -0.69825 3.00048 0.2244375 3.9471075 -0.9027375000000001 5.985 -2.6383875000000003 1.3306650000000002 -5.6149275 0.1995 -8.247330000000002 -1.1201925000000001a31.977855 31.977855 0 0 0 -5.033385000000001 -2.0947500000000003c-1.3965 -0.4179525 -2.4937500000000004 1.0124625 -1.3855275 1.7955 1.20897 0.8528625000000001 2.1496125 1.3236825 3.5102025 2.148615a40.553362500000006 40.553362500000006 0 0 0 -4.901715 -1.1620875000000002c-1.5531075 -0.28329 -2.579535 1.3516125 -1.322685 2.0777925a1.1142075 1.1142075 0 0 0 -0.399 1.98303c0.5506200000000001 0.309225 1.1132100000000003 0.59451 1.68777 0.8568525 -1.197 -0.1266825 -1.9152 1.1800425 -0.8738100000000001 1.74363 3.337635 1.8064725000000001 10.1455725 3.9760350000000004 13.579965000000001 5.266800000000001 0.399 0.149625 1.4493675000000001 4.171545000000001 1.9650750000000001 5.95308a17.468220000000002 17.468220000000002 0 0 0 7.934115 -4.1496c-0.399 -1.0603425 -3.7476075000000004 -10.0418325 -3.3645675000000006 -11.12013Z" stroke-width="0.5"></path><path id="Vector_89" stroke="#120071" stroke-linecap="round" stroke-linejoin="round" d="M123.34885500000001 89.13759750000001c0.82593 -2.3201850000000004 0.385035 -5.4373724999999995 -0.25137000000000004 -8.084737500000001 -0.1995 -0.8099700000000001 -1.7805375 -0.8728125 -1.995 -0.07880250000000001 -0.69825 3.00048 0.2244375 3.9471075 -0.9027375000000001 5.985 -2.6383875000000003 1.3306650000000002 -5.6149275 0.1995 -8.247330000000002 -1.1201925000000001a31.977855 31.977855 0 0 0 -5.033385000000001 -2.0947500000000003c-1.3965 -0.4179525 -2.4937500000000004 1.0124625 -1.3855275 1.7955 1.20897 0.8528625000000001 2.1496125 1.3236825 3.5102025 2.148615a40.553362500000006 40.553362500000006 0 0 0 -4.901715 -1.1620875000000002c-1.5531075 -0.28329 -2.579535 1.3516125 -1.322685 2.0777925a1.1142075 1.1142075 0 0 0 -0.399 1.98303c0.5506200000000001 0.309225 1.1132100000000003 0.59451 1.68777 0.8568525 -1.197 -0.1266825 -1.9152 1.1800425 -0.8738100000000001 1.74363 3.337635 1.8064725000000001 10.1455725 3.9760350000000004 13.579965000000001 5.266800000000001 0.399 0.149625 1.4493675000000001 4.171545000000001 1.9650750000000001 5.95308a17.468220000000002 17.468220000000002 0 0 0 7.934115 -4.1496c-0.399 -1.0603425 -3.7476075000000004 -10.0418325 -3.3645675000000006 -11.12013Z" stroke-width="0.5"></path><path id="Vector_90" stroke="#120071" stroke-linecap="round" stroke-linejoin="round" d="m109.0467 87.68922750000002 2.9156925 0.9077250000000001" stroke-width="0.5"></path><path id="Vector_91" fill="#6153bd" d="m119.20823250000001 186.48861 -12.454785000000001 0.031920000000000004c-0.349125 0.34014750000000005 -0.74214 0.6314175000000001 -1.16907 0.86583 -5.2288950000000005 2.9845200000000003 -12.4318425 3.7525950000000003 -12.212392500000002 6.4588125 0.0907725 1.1211900000000001 26.02278 0.7231875 25.9080675 -0.399 0.0209475 -0.612465 -0.027930000000000003 -4.2862575 -0.07182 -6.9575625Z" stroke-width="0.5"></path><path id="Vector_92" stroke="#120071" stroke-linecap="round" stroke-linejoin="round" d="m119.20823250000001 186.48861 -12.454785000000001 0.031920000000000004c-0.349125 0.34014750000000005 -0.74214 0.6314175000000001 -1.16907 0.86583 -5.2288950000000005 2.9845200000000003 -12.4318425 3.7525950000000003 -12.212392500000002 6.4588125 0.0907725 1.1211900000000001 26.02278 0.7231875 25.9080675 -0.399 0.0209475 -0.612465 -0.027930000000000003 -4.2862575 -0.07182 -6.9575625Z" stroke-width="0.5"></path><path id="Vector_93" stroke="#120071" stroke-linecap="round" stroke-linejoin="round" d="M113.316 141.291885c-6.4897350000000005 2.7999825 -8.179499999999999 8.927624999999999 -8.9146575 13.589940000000002 -1.3595925 8.663287500000001 -1.0104674999999999 31.650675000000003 -1.0104674999999999 31.650675000000003l16.358999999999998 -0.041895 1.3167000000000002 -32.75790000000001s31.42125 0.827925 37.2536325 -3.1860150000000003c4.9306425 -3.3915 7.451325 -9.6368475 7.451325 -19.8133425 -6.9426000000000005 2.2264200000000005 -43.05309750000001 6.501705 -52.455532500000004 10.558537500000002Z" stroke-width="0.5"></path><path id="Vector_94" stroke="#120071" stroke-linecap="round" stroke-linejoin="round" d="M104.10807750000001 91.444815c1.4713125000000002 0.6683250000000001 1.197 0.5316675000000001 6.990480000000001 2.26233" stroke-width="0.5"></path><path id="Vector_95" stroke="#120071" stroke-linecap="round" stroke-linejoin="round" d="M111.38982750000001 91.21938a57.066975000000006 57.066975000000006 0 0 1 -8.5675275 -2.6134500000000003" stroke-width="0.5"></path></g></g></svg>