<svg xmlns="http://www.w3.org/2000/svg" fill="none" viewBox="-0.25 -0.25 200 200" id="Leave-A-Review--Streamline-Bangalore.svg"><desc>Leave A Review Streamline Illustration: https://streamlinehq.com</desc><g id="leave-a-review--e-commerce-leave-a-review"><g id="elements"><g id="group"><path id="vector" stroke="#120071" stroke-linecap="round" stroke-linejoin="round" d="M171.990945 102.3983625h10.938585" stroke-width="0.5"></path><path id="vector_2" stroke="#120071" stroke-linecap="round" stroke-linejoin="round" d="M177.4602375 107.86765500000001V96.92907" stroke-width="0.5"></path></g><g id="group_2"><path id="vector_3" stroke="#120071" stroke-linecap="round" stroke-linejoin="round" d="m22.0248 156.7680975 7.734615 7.734615" stroke-width="0.5"></path><path id="vector_4" stroke="#120071" stroke-linecap="round" stroke-linejoin="round" d="m22.0248 164.5027125 7.734615 -7.734615" stroke-width="0.5"></path></g><g id="group_3"><path id="vector_5" stroke="#120071" stroke-linecap="round" stroke-linejoin="round" d="m30.280110000000004 47.4161625 3.9451125000000005 3.9451125000000005" stroke-width="0.5"></path><path id="vector_6" stroke="#120071" stroke-linecap="round" stroke-linejoin="round" d="m30.280110000000004 51.361275000000006 3.9451125000000005 -3.9451125000000005" stroke-width="0.5"></path></g><path id="vector_7" stroke="#120071" stroke-linecap="round" stroke-linejoin="round" d="m135.88244250000002 15.144045000000002 3.3815250000000003 5.5780199999999995 3.9770325000000004 -8.333115" stroke-width="0.5"></path><g id="group_4"><path id="vector_8" stroke="#120071" stroke-linecap="round" stroke-linejoin="round" d="M188.54645250000002 80.04339H194.51250000000002" stroke-width="0.5"></path><path id="vector_9" stroke="#120071" stroke-linecap="round" stroke-linejoin="round" d="M191.5289775 83.02691250000001v-5.9660475" stroke-width="0.5"></path></g></g><g id="chat box"><path id="vector_10" stroke="#120071" stroke-linecap="round" stroke-linejoin="round" d="M41.5309125 80.04339H4.987500000000001v49.8819825l5.1121875 -5.826397500000001h31.431225000000005V80.04339Z" stroke-width="0.5"></path><path id="vector_11" stroke="#120071" stroke-linecap="round" stroke-linejoin="round" d="M16.145535000000002 102.3983625h25.385377500000004" stroke-width="0.5"></path><path id="vector_12" stroke="#120071" stroke-linecap="round" stroke-linejoin="round" d="M16.145535000000002 108.7045575h25.385377500000004" stroke-width="0.5"></path><path id="vector_13" stroke="#120071" stroke-linecap="round" stroke-linejoin="round" d="M16.121595 95.8398h25.4093175" stroke-width="0.5"></path></g><g id="phone"><path id="vector_14" stroke="#120071" stroke-linecap="round" stroke-linejoin="round" d="M152.19755250000003 164.82789750000003c3.142125 -0.5835375 5.9820075 -2.2493625 8.0248875 -4.7072025 2.0428800000000003 -2.45784 3.162075 -5.5530825 3.162075 -8.7490725v-112.61775000000002c0 -3.628905 -1.4413875 -7.109082750000001 -4.007955 -9.675151500000002 -2.56557 -2.565969 -6.045847500000001 -4.007556 -9.6747525 -4.007556H60.34875c-1.7969962500000003 -0.00029925 -3.5764365000000002 0.35341425000000004 -5.236775250000001 1.0409910000000002 -1.6602390000000002 0.6874770000000001 -3.168858 1.69525125 -4.439673 2.96586675 -1.27071525 1.2706155000000001 -2.27878875 2.7790350000000004 -2.9665650000000006 4.439274 -0.6876765 1.66013925 -1.0416892500000001 3.4395795000000002 -1.0416892500000001 5.23657575v112.61775000000002c0 1.797495 0.35401275 3.5760375 1.0416892500000001 5.236875 0.6877762500000001 1.65984 1.69584975 3.1680600000000005 2.9665650000000006 4.438875 1.270815 1.270815 2.779434 2.27829 4.439673 2.9655675 1.6603387500000002 0.688275 3.439779 1.04139 5.236775250000001 1.04139h29.5728825" stroke-width="0.5"></path><path id="vector_15" fill="#6153bd" d="M46.6640475 151.3716225v-112.61775000000002c0 -1.7969962500000003 0.35401275 -3.5764365000000002 1.0416892500000001 -5.23657575 0.6877762500000001 -1.6602390000000002 1.69584975 -3.1686585000000003 2.9665650000000006 -4.439274 1.270815 -1.2706155000000001 2.779434 -2.27838975 4.439673 -2.96586675 1.6603387500000002 -0.6875767500000001 3.439779 -1.04129025 5.236775250000001 -1.0409910000000002h-5.13513c-3.628905 0 -7.1091825 1.4415870000000002 -9.675151500000002 4.007556 -2.565969 2.56606875 -4.007556 6.0462465000000005 -4.007556 9.675151500000002v112.61775000000002c0 1.7964975 0.35391300000000003 3.5760375 1.04148975 5.2358775 0.6876765 1.65984 1.6955505 3.1690575 2.9660662500000003 4.438875 1.2706155000000001 1.270815 2.77893525 2.2792875 4.43897475 2.9665650000000006 1.6600395 0.6872775 3.4393800000000003 1.04139 5.23617675 1.04139H60.34875c-1.7969962500000003 0 -3.5764365000000002 -0.353115 -5.236775250000001 -1.04139 -1.6602390000000002 -0.6872775 -3.168858 -1.6947525 -4.439673 -2.9655675 -1.27071525 -1.270815 -2.27878875 -2.7790350000000004 -2.9665650000000006 -4.438875 -0.6876765 -1.6608375000000002 -1.0416892500000001 -3.4393800000000003 -1.0416892500000001 -5.236875Z" stroke-width="0.5"></path><path id="vector_16" stroke="#120071" stroke-linecap="round" stroke-linejoin="round" d="M46.6640475 151.3716225v-112.61775000000002c0 -1.7969962500000003 0.35401275 -3.5764365000000002 1.0416892500000001 -5.23657575 0.6877762500000001 -1.6602390000000002 1.69584975 -3.1686585000000003 2.9665650000000006 -4.439274 1.270815 -1.2706155000000001 2.779434 -2.27838975 4.439673 -2.96586675 1.6603387500000002 -0.6875767500000001 3.439779 -1.04129025 5.236775250000001 -1.0409910000000002h-5.13513c-3.628905 0 -7.1091825 1.4415870000000002 -9.675151500000002 4.007556 -2.565969 2.56606875 -4.007556 6.0462465000000005 -4.007556 9.675151500000002v112.61775000000002c0 1.7964975 0.35391300000000003 3.5760375 1.04148975 5.2358775 0.6876765 1.65984 1.6955505 3.1690575 2.9660662500000003 4.438875 1.2706155000000001 1.270815 2.77893525 2.2792875 4.43897475 2.9665650000000006 1.6600395 0.6872775 3.4393800000000003 1.04139 5.23617675 1.04139H60.34875c-1.7969962500000003 0 -3.5764365000000002 -0.353115 -5.236775250000001 -1.04139 -1.6602390000000002 -0.6872775 -3.168858 -1.6947525 -4.439673 -2.9655675 -1.27071525 -1.270815 -2.27878875 -2.7790350000000004 -2.9665650000000006 -4.438875 -0.6876765 -1.6608375000000002 -1.0416892500000001 -3.4393800000000003 -1.0416892500000001 -5.236875Z" stroke-width="0.5"></path><path id="vector_17" stroke="#120071" stroke-linecap="round" stroke-linejoin="round" d="M163.38451500000002 41.9937525H46.6640475v58.133302500000006h116.72046750000001V41.9937525Z" stroke-width="0.5"></path><path id="vector_18" fill="#948ae3" d="M46.6640475 100.12805250000001V148.12875h43.257585v-23.720550000000003h62.275920000000006v23.720550000000003h11.1869625v-48.00069750000001H46.6640475Zm21.1320375 33.541935c-2.5450215000000003 0 -5.03288625 -0.7551075 -7.14898275 -2.168565 -2.1160965000000003 -1.414455 -3.7653630000000002 -3.42342 -4.7393220000000005 -5.7745275 -0.97385925 -2.3521050000000003 -1.2287205 -4.9386225 -0.7321650000000001 -7.435365 0.49645575000000003 -2.495745 1.72198425 -4.788997500000001 3.521574 -6.588487500000001 1.7995897500000002 -1.79949 4.09244325 -3.02442 6.588487500000001 -3.521175 2.496144 -0.496755 5.0833597500000005 -0.241395 7.43466675 0.7321650000000001 2.3513070000000003 0.97356 4.36097025 2.623425 5.77482675 4.739122500000001 1.41395625 2.116695 2.1686647500000005 4.6044599999999996 2.1686647500000005 7.1490825000000005 0 3.4124475 -1.35570225 6.685245 -3.7688542500000004 9.099195 -2.413152 2.4129525000000003 -5.686149 3.768555 -9.09889575 3.768555Zm27.159930000000003 -16.632315000000002c-0.89924625 0 -1.77824325 -0.2663325 -2.52596925 -0.7660800000000001 -0.7477260000000001 -0.4997475 -1.3304655 -1.2099675 -1.674603 -2.040885 -0.34403775 -0.8309175 -0.434112 -1.7446275000000002 -0.25865175 -2.6264175 0.17536050000000003 -0.8817900000000001 0.608475 -1.6927575000000001 1.2442815 -2.3281650000000003 0.6358065 -0.6354075 1.4459760000000002 -1.06932 2.3279655000000004 -1.2438825000000002 0.88188975 -0.17556 1.7960985 -0.085785 2.6269162500000003 0.25835250000000004 0.8307180000000001 0.3441375 1.54083825 0.9266775 2.04038625 1.6748025000000002 0.49964775000000006 0.7471275 0.7662795 1.6269225 0.7662795 2.5256700000000003 0 1.2059775000000001 -0.4789995 2.36208 -1.3316625 3.2149425000000003s-2.0091645000000002 1.3316625 -3.2149425000000003 1.3316625Zm11.818380000000001 0c-0.8987475 0 -1.7785425 -0.2663325 -2.5256700000000003 -0.7660800000000001 -0.748125 -0.4997475 -1.3306650000000002 -1.2099675 -1.6748025000000002 -2.040885 -0.3441375 -0.8309175 -0.43391250000000003 -1.7446275000000002 -0.25835250000000004 -2.6264175 0.1745625 -0.8817900000000001 0.608475 -1.6927575000000001 1.2438825000000002 -2.3281650000000003 0.6354075 -0.6354075 1.446375 -1.06932 2.3281650000000003 -1.2438825000000002 0.8817900000000001 -0.17556 1.7955 -0.085785 2.6264175 0.25835250000000004s1.5411375 0.9266775 2.040885 1.6748025000000002c0.4997475 0.7471275 0.7660800000000001 1.6269225 0.7660800000000001 2.5256700000000003 0 0.5975025 -0.117705 1.1880225000000002 -0.3461325 1.73964 -0.22842750000000003 0.5516175000000001 -0.5625899999999999 1.05336 -0.98553 1.4753025000000002 -0.4219425 0.42294000000000004 -0.9236850000000001 0.7571025 -1.4753025000000002 0.98553 -0.5516175000000001 0.22842750000000003 -1.1421375 0.3461325 -1.73964 0.3461325Zm11.7595275 -0.047880000000000006c-0.8987475 0 -1.7785425 -0.2663325 -2.5256700000000003 -0.7660800000000001 -0.748125 -0.4997475 -1.3306650000000002 -1.2099675 -1.6748025000000002 -2.040885 -0.3441375 -0.8309175 -0.43391250000000003 -1.7446275000000002 -0.25835250000000004 -2.6264175 0.1745625 -0.8817900000000001 0.608475 -1.6927575000000001 1.2438825000000002 -2.3281650000000003 0.6354075 -0.6354075 1.446375 -1.06932 2.3281650000000003 -1.2438825000000002 0.8817900000000001 -0.17556 1.7955 -0.085785 2.6264175 0.25835250000000004s1.5411375 0.9266775 2.040885 1.6748025000000002c0.4997475 0.7471275 0.7660800000000001 1.6269225 0.7660800000000001 2.5256700000000003 0 1.2059775000000001 -0.4788 2.36208 -1.3316625 3.2149425000000003s-2.008965 1.3316625 -3.2149425000000003 1.3316625Zm11.87025 0.047880000000000006c-0.8987475 0 -1.7785425 -0.2663325 -2.5256700000000003 -0.7660800000000001 -0.748125 -0.4997475 -1.3306650000000002 -1.2099675 -1.6748025000000002 -2.040885 -0.3441375 -0.8309175 -0.43391250000000003 -1.7446275000000002 -0.25835250000000004 -2.6264175 0.1745625 -0.8817900000000001 0.608475 -1.6927575000000001 1.2438825000000002 -2.3281650000000003 0.6354075 -0.6354075 1.446375 -1.06932 2.3281650000000003 -1.2438825000000002 0.8817900000000001 -0.17556 1.7955 -0.085785 2.6264175 0.25835250000000004s1.5411375 0.9266775 2.040885 1.6748025000000002c0.4997475 0.7471275 0.7660800000000001 1.6269225 0.7660800000000001 2.5256700000000003 0 0.5975025 -0.117705 1.18902 -0.3461325 1.7406375000000003 -0.22842750000000003 0.5526150000000001 -0.5635875 1.05336 -0.9865275 1.4763000000000002 -0.42294000000000004 0.4219425 -0.9246825000000001 0.7571025 -1.4763000000000002 0.9845325 -0.5526150000000001 0.22842750000000003 -1.1441325 0.3461325 -1.741635 0.34513499999999997h0.0039900000000000005Zm12.144562500000001 -0.047880000000000006c-0.8987475 0 -1.7785425 -0.2663325 -2.5256700000000003 -0.7660800000000001 -0.748125 -0.4997475 -1.3306650000000002 -1.2099675 -1.6748025000000002 -2.040885 -0.3441375 -0.8309175 -0.43391250000000003 -1.7446275000000002 -0.25835250000000004 -2.6264175 0.1745625 -0.8817900000000001 0.608475 -1.6927575000000001 1.2438825000000002 -2.3281650000000003 0.6354075 -0.6354075 1.446375 -1.06932 2.3281650000000003 -1.2438825000000002 0.8817900000000001 -0.17556 1.7955 -0.085785 2.6264175 0.25835250000000004s1.5411375 0.9266775 2.040885 1.6748025000000002c0.4997475 0.7471275 0.7660800000000001 1.6269225 0.7660800000000001 2.5256700000000003 0 0.5975025 -0.117705 1.18902 -0.34713 1.741635 -0.22842750000000003 0.5516175000000001 -0.5635875 1.05336 -0.9865275 1.4753025000000002 -0.42294000000000004 0.4219425 -0.9246825000000001 0.7571025 -1.4772975000000002 0.98553 -0.5526150000000001 0.22743000000000002 -1.1441325 0.34513499999999997 -1.741635 0.3441375h0.005985000000000001Z" stroke-width="0.5"></path><path id="vector_19" stroke="#120071" stroke-linecap="round" stroke-linejoin="round" d="M152.19755250000003 148.13074500000002h11.1869625v-48.0026925H46.6640475v48.0026925h43.257585" stroke-width="0.5"></path><path id="vector_20" stroke="#120071" stroke-linecap="round" stroke-linejoin="round" d="M94.2667425 33.5329575h20.769945" stroke-width="0.5"></path><path id="vector_21" stroke="#120071" stroke-linecap="round" stroke-linejoin="round" d="M67.79608499999999 75.11973c7.105591500000001 0 12.865755 -5.760163500000001 12.865755 -12.865755 0 -7.105591500000001 -5.760163500000001 -12.865755 -12.865755 -12.865755 -7.105591500000001 0 -12.865755 5.760163500000001 -12.865755 12.865755 0 7.105591500000001 5.760163500000001 12.865755 12.865755 12.865755Z" stroke-width="0.5"></path><path id="vector_22" fill="#6153bd" d="M55.64653500000001 66.455445c0.8572515 2.48766525 2.45734125 4.65224025 4.5843105 6.201258 2.12696925 1.54901775 4.6780755 2.40786525 7.30878225 2.46033375 2.6307067500000003 0.05256825 5.214132 -0.7036365000000001 7.40115075 -2.16657 2.1871185000000004 -1.46283375 3.87239475 -3.5617732500000003 4.828299 -6.01322925 -7.139107500000001 -3.3027225000000002 -16.77396 -3.2867625 -24.1225425 -0.4817925Z" stroke-width="0.5"></path><path id="vector_23" stroke="#120071" stroke-linecap="round" stroke-linejoin="round" d="M55.64653500000001 66.455445c0.8572515 2.48766525 2.45734125 4.65224025 4.5843105 6.201258 2.12696925 1.54901775 4.6780755 2.40786525 7.30878225 2.46033375 2.6307067500000003 0.05256825 5.214132 -0.7036365000000001 7.40115075 -2.16657 2.1871185000000004 -1.46283375 3.87239475 -3.5617732500000003 4.828299 -6.01322925 -7.139107500000001 -3.3027225000000002 -16.77396 -3.2867625 -24.1225425 -0.4817925Z" stroke-width="0.5"></path><path id="vector_24" fill="#6153bd" d="M67.7073075 61.713330000000006c1.54083825 0 2.7900075 -1.24916925 2.7900075 -2.7900075 0 -1.54083825 -1.24916925 -2.7900075 -2.7900075 -2.7900075 -1.54083825 0 -2.7900075 1.24916925 -2.7900075 2.7900075 0 1.54083825 1.24916925 2.7900075 2.7900075 2.7900075Z" stroke-width="0.5"></path><path id="vector_25" stroke="#120071" stroke-linecap="round" stroke-linejoin="round" d="M67.7073075 61.713330000000006c1.54083825 0 2.7900075 -1.24916925 2.7900075 -2.7900075 0 -1.54083825 -1.24916925 -2.7900075 -2.7900075 -2.7900075 -1.54083825 0 -2.7900075 1.24916925 -2.7900075 2.7900075 0 1.54083825 1.24916925 2.7900075 2.7900075 2.7900075Z" stroke-width="0.5"></path><path id="vector_26" fill="#6153bd" d="M94.95601500000001 58.4824275c2.5110067500000004 0 4.5466050000000005 -2.0355982500000005 4.5466050000000005 -4.5466050000000005 0 -2.5110067500000004 -2.0355982500000005 -4.5466050000000005 -4.5466050000000005 -4.5466050000000005 -2.5110067500000004 0 -4.5466050000000005 2.0355982500000005 -4.5466050000000005 4.5466050000000005 0 2.5110067500000004 2.0355982500000005 4.5466050000000005 4.5466050000000005 4.5466050000000005Z" stroke-width="0.5"></path><path id="vector_27" stroke="#120071" stroke-linecap="round" stroke-linejoin="round" d="M94.95601500000001 58.4824275c2.5110067500000004 0 4.5466050000000005 -2.0355982500000005 4.5466050000000005 -4.5466050000000005 0 -2.5110067500000004 -2.0355982500000005 -4.5466050000000005 -4.5466050000000005 -4.5466050000000005 -2.5110067500000004 0 -4.5466050000000005 2.0355982500000005 -4.5466050000000005 4.5466050000000005 0 2.5110067500000004 2.0355982500000005 4.5466050000000005 4.5466050000000005 4.5466050000000005Z" stroke-width="0.5"></path><path id="vector_28" fill="#6153bd" d="M106.77439500000001 58.4824275c2.5107075 0 4.5466050000000005 -2.0355982500000005 4.5466050000000005 -4.5466050000000005 0 -2.5110067500000004 -2.0358975 -4.5466050000000005 -4.5466050000000005 -4.5466050000000005s-4.5466050000000005 2.0355982500000005 -4.5466050000000005 4.5466050000000005c0 2.5110067500000004 2.0358975 4.5466050000000005 4.5466050000000005 4.5466050000000005Z" stroke-width="0.5"></path><path id="vector_29" stroke="#120071" stroke-linecap="round" stroke-linejoin="round" d="M106.77439500000001 58.4824275c2.5107075 0 4.5466050000000005 -2.0355982500000005 4.5466050000000005 -4.5466050000000005 0 -2.5110067500000004 -2.0358975 -4.5466050000000005 -4.5466050000000005 -4.5466050000000005s-4.5466050000000005 2.0355982500000005 -4.5466050000000005 4.5466050000000005c0 2.5110067500000004 2.0358975 4.5466050000000005 4.5466050000000005 4.5466050000000005Z" stroke-width="0.5"></path><path id="vector_30" fill="#6153bd" d="M118.5339225 58.433550000000004c2.5107075 0 4.5466050000000005 -2.0355982500000005 4.5466050000000005 -4.5466050000000005 0 -2.5110067500000004 -2.0358975 -4.5466050000000005 -4.5466050000000005 -4.5466050000000005s-4.5466050000000005 2.0355982500000005 -4.5466050000000005 4.5466050000000005c0 2.5110067500000004 2.0358975 4.5466050000000005 4.5466050000000005 4.5466050000000005Z" stroke-width="0.5"></path><path id="vector_31" stroke="#120071" stroke-linecap="round" stroke-linejoin="round" d="M118.5339225 58.433550000000004c2.5107075 0 4.5466050000000005 -2.0355982500000005 4.5466050000000005 -4.5466050000000005 0 -2.5110067500000004 -2.0358975 -4.5466050000000005 -4.5466050000000005 -4.5466050000000005s-4.5466050000000005 2.0355982500000005 -4.5466050000000005 4.5466050000000005c0 2.5110067500000004 2.0358975 4.5466050000000005 4.5466050000000005 4.5466050000000005Z" stroke-width="0.5"></path><path id="vector_32" stroke="#120071" stroke-linecap="round" stroke-linejoin="round" d="M130.4001825 58.4824275c2.5107075 0 4.5466050000000005 -2.0355982500000005 4.5466050000000005 -4.5466050000000005 0 -2.5110067500000004 -2.0358975 -4.5466050000000005 -4.5466050000000005 -4.5466050000000005s-4.5466050000000005 2.0355982500000005 -4.5466050000000005 4.5466050000000005c0 2.5110067500000004 2.0358975 4.5466050000000005 4.5466050000000005 4.5466050000000005Z" stroke-width="0.5"></path><path id="vector_33" stroke="#120071" stroke-linecap="round" stroke-linejoin="round" d="M142.544745 58.433550000000004c2.5107075 0 4.5466050000000005 -2.0355982500000005 4.5466050000000005 -4.5466050000000005 0 -2.5110067500000004 -2.0358975 -4.5466050000000005 -4.5466050000000005 -4.5466050000000005s-4.5466050000000005 2.0355982500000005 -4.5466050000000005 4.5466050000000005c0 2.5110067500000004 2.0358975 4.5466050000000005 4.5466050000000005 4.5466050000000005Z" stroke-width="0.5"></path><path id="vector_34" stroke="#120071" stroke-linecap="round" stroke-linejoin="round" d="M67.79608499999999 107.939475c-2.5450215000000003 0 -5.03288625 0.7551075 -7.14898275 2.168565 -2.1159967500000003 1.414455 -3.7653630000000002 3.42342 -4.73922225 5.7745275 -0.9739590000000001 2.3521050000000003 -1.22882025 4.9386225 -0.73226475 7.435365 0.49645575000000003 2.495745 1.72198425 4.788997500000001 3.521574 6.588487500000001 1.7995897500000002 1.79949 4.09244325 3.02442 6.588487500000001 3.521175 2.496144 0.496755 5.0834595 0.241395 7.43466675 -0.7321650000000001 2.3513070000000003 -0.97356 4.36097025 -2.623425 5.7749265 -4.739122500000001 1.4138565 -2.116695 2.168565 -4.6044599999999996 2.168565 -7.1490825000000005 0 -3.4124475 -1.35570225 -6.685245 -3.7688542500000004 -9.099195 -2.413152 -2.4129525000000003 -5.686149 -3.768555 -9.09889575 -3.768555Z" stroke-width="0.5"></path><path id="vector_35" stroke="#120071" stroke-linecap="round" stroke-linejoin="round" d="M64.8125625 120.80423250000001h5.9660475" stroke-width="0.5"></path><path id="vector_36" stroke="#120071" stroke-linecap="round" stroke-linejoin="round" d="M67.79608499999999 123.787755v-5.967045000000001" stroke-width="0.5"></path><path id="vector_37" stroke="#120071" stroke-linecap="round" stroke-linejoin="round" d="M94.95601500000001 117.03767250000001c2.5110067500000004 0 4.5466050000000005 -2.0358975 4.5466050000000005 -4.5466050000000005s-2.0355982500000005 -4.5466050000000005 -4.5466050000000005 -4.5466050000000005c-2.5110067500000004 0 -4.5466050000000005 2.0358975 -4.5466050000000005 4.5466050000000005s2.0355982500000005 4.5466050000000005 4.5466050000000005 4.5466050000000005Z" stroke-width="0.5"></path><path id="vector_38" stroke="#120071" stroke-linecap="round" stroke-linejoin="round" d="M106.77439500000001 117.03767250000001c2.5107075 0 4.5466050000000005 -2.0358975 4.5466050000000005 -4.5466050000000005s-2.0358975 -4.5466050000000005 -4.5466050000000005 -4.5466050000000005 -4.5466050000000005 2.0358975 -4.5466050000000005 4.5466050000000005 2.0358975 4.5466050000000005 4.5466050000000005 4.5466050000000005Z" stroke-width="0.5"></path><path id="vector_39" stroke="#120071" stroke-linecap="round" stroke-linejoin="round" d="M118.5339225 107.89658250000001c-0.8987475 0 -1.7785425 0.2663325 -2.5256700000000003 0.7660800000000001 -0.748125 0.4997475 -1.3306650000000002 1.2099675 -1.6748025000000002 2.040885 -0.3441375 0.8309175 -0.43391250000000003 1.7446275000000002 -0.25835250000000004 2.6264175 0.1745625 0.8817900000000001 0.608475 1.6927575000000001 1.2438825000000002 2.3281650000000003 0.6354075 0.6354075 1.446375 1.06932 2.3281650000000003 1.2438825000000002 0.8817900000000001 0.17556 1.7955 0.085785 2.6264175 -0.25835250000000004s1.5411375 -0.9266775 2.040885 -1.6748025000000002c0.4997475 -0.7471275 0.7660800000000001 -1.6269225 0.7660800000000001 -2.5256700000000003 0 -1.2059775000000001 -0.4797975 -2.36208 -1.3316625 -3.2149425000000003 -0.8528625000000001 -0.851865 -2.008965 -1.3316625 -3.2149425000000003 -1.3316625Z" stroke-width="0.5"></path><path id="vector_40" stroke="#120071" stroke-linecap="round" stroke-linejoin="round" d="M130.4001825 117.03767250000001c2.5107075 0 4.5466050000000005 -2.0358975 4.5466050000000005 -4.5466050000000005s-2.0358975 -4.5466050000000005 -4.5466050000000005 -4.5466050000000005 -4.5466050000000005 2.0358975 -4.5466050000000005 4.5466050000000005 2.0358975 4.5466050000000005 4.5466050000000005 4.5466050000000005Z" stroke-width="0.5"></path><path id="vector_41" stroke="#120071" stroke-linecap="round" stroke-linejoin="round" d="M142.54275 107.89658250000001c-0.8987475 0 -1.7785425 0.2663325 -2.5256700000000003 0.7660800000000001 -0.748125 0.4997475 -1.3306650000000002 1.2099675 -1.6748025000000002 2.040885 -0.3441375 0.8309175 -0.43391250000000003 1.7446275000000002 -0.25835250000000004 2.6264175 0.1745625 0.8817900000000001 0.608475 1.6927575000000001 1.2438825000000002 2.3281650000000003 0.6354075 0.6354075 1.446375 1.06932 2.3281650000000003 1.2438825000000002 0.8817900000000001 0.17556 1.7955 0.085785 2.6264175 -0.25835250000000004s1.5411375 -0.9266775 2.040885 -1.6748025000000002c0.4997475 -0.7471275 0.7660800000000001 -1.6269225 0.7660800000000001 -2.5256700000000003 0 -1.2059775000000001 -0.4788 -2.36208 -1.3316625 -3.2149425000000003s-2.008965 -1.3316625 -3.2149425000000003 -1.3316625Z" stroke-width="0.5"></path><path id="vector_42" stroke="#120071" stroke-linecap="round" stroke-linejoin="round" d="M91.9724925 112.4910675h5.967045000000001" stroke-width="0.5"></path><path id="vector_43" stroke="#120071" stroke-linecap="round" stroke-linejoin="round" d="M94.95601500000001 115.47459v-5.9660475" stroke-width="0.5"></path><path id="vector_44" stroke="#120071" stroke-linecap="round" stroke-linejoin="round" d="M103.7908725 112.4910675h5.967045000000001" stroke-width="0.5"></path><path id="vector_45" stroke="#120071" stroke-linecap="round" stroke-linejoin="round" d="M106.77439500000001 115.47459v-5.9660475" stroke-width="0.5"></path><path id="vector_46" stroke="#120071" stroke-linecap="round" stroke-linejoin="round" d="M115.55040000000001 112.4910675h5.9660475" stroke-width="0.5"></path><path id="vector_47" stroke="#120071" stroke-linecap="round" stroke-linejoin="round" d="M118.5339225 115.47459v-5.9660475" stroke-width="0.5"></path><path id="vector_48" stroke="#120071" stroke-linecap="round" stroke-linejoin="round" d="M127.41666000000001 112.4910675h5.9660475" stroke-width="0.5"></path><path id="vector_49" stroke="#120071" stroke-linecap="round" stroke-linejoin="round" d="M130.4001825 115.47459v-5.9660475" stroke-width="0.5"></path><path id="vector_50" stroke="#120071" stroke-linecap="round" stroke-linejoin="round" d="M139.5612225 112.4910675h5.967045000000001" stroke-width="0.5"></path><path id="vector_51" stroke="#120071" stroke-linecap="round" stroke-linejoin="round" d="M142.544745 115.47459v-5.9660475" stroke-width="0.5"></path><path id="vector_52" stroke="#120071" stroke-linecap="round" stroke-linejoin="round" d="M89.92163250000002 65.3013375v22.16046h55.850025l6.425895000000001 7.3246425V65.3013375H89.92163250000002Z" stroke-width="0.5"></path><path id="vector_53" stroke="#120071" stroke-linecap="round" stroke-linejoin="round" d="M99.50262000000001 73.932705h43.3722975" stroke-width="0.5"></path><path id="vector_54" stroke="#120071" stroke-linecap="round" stroke-linejoin="round" d="M99.50262000000001 79.29726h43.3722975" stroke-width="0.5"></path></g><g id="rate"><path id="vector_55" stroke="#120071" stroke-linecap="round" stroke-linejoin="round" d="M89.92163250000002 124.410195v55.3762125h55.850025l6.425895000000001 7.3246425v-62.700855H89.92163250000002Z" stroke-width="0.5"></path><path id="vector_56" fill="#6153bd" d="m121.5164475 128.68049249999999 7.4802525 15.1570125 16.7270775 2.42991 -12.103665000000001 11.79843 2.85684 16.65825 -14.960505 -7.8652875 -14.960505 7.8652875 2.8578375000000005 -16.65825 -12.103665000000001 -11.79843 16.726080000000003 -2.42991 7.4802525 -15.1570125Z" stroke-width="0.5"></path><path id="vector_57" stroke="#120071" stroke-linecap="round" stroke-linejoin="round" d="m121.5164475 128.68049249999999 7.4802525 15.1570125 16.7270775 2.42991 -12.103665000000001 11.79843 2.85684 16.65825 -14.960505 -7.8652875 -14.960505 7.8652875 2.8578375000000005 -16.65825 -12.103665000000001 -11.79843 16.726080000000003 -2.42991 7.4802525 -15.1570125Z" stroke-width="0.5"></path><path id="vector_58" stroke="#120071" stroke-linecap="round" stroke-linejoin="round" d="m186.215295 168.84084000000001 6.8578125000000005 -2.88078 -18.36597 -18.36597v26.0816325l7.341600000000001 -3.08427v-5.9181675l4.1665575 4.167555Z" stroke-width="0.5"></path></g></g></svg>