<svg xmlns="http://www.w3.org/2000/svg" fill="none" viewBox="-1.25 -1.25 1000 1000" id="Leave-A-Review--Streamline-Bangalore.svg" height="1000" width="1000"><desc>Leave A Review Streamline Illustration: https://streamlinehq.com</desc><g id="leave-a-review--e-commerce-leave-a-review"><g id="elements"><g id="group"><path id="vector" stroke="#120071" stroke-linecap="round" stroke-linejoin="round" d="M859.9547249999999 511.9918125h54.692924999999995" stroke-width="2.5"></path><path id="vector_2" stroke="#120071" stroke-linecap="round" stroke-linejoin="round" d="M887.3011875 539.338275V484.64534999999995" stroke-width="2.5"></path></g><g id="group_2"><path id="vector_3" stroke="#120071" stroke-linecap="round" stroke-linejoin="round" d="m110.12399999999998 783.8404875 38.673075 38.673075" stroke-width="2.5"></path><path id="vector_4" stroke="#120071" stroke-linecap="round" stroke-linejoin="round" d="m110.12399999999998 822.5135624999999 38.673075 -38.673075" stroke-width="2.5"></path></g><g id="group_3"><path id="vector_5" stroke="#120071" stroke-linecap="round" stroke-linejoin="round" d="m151.40055 237.08081249999998 19.7255625 19.7255625" stroke-width="2.5"></path><path id="vector_6" stroke="#120071" stroke-linecap="round" stroke-linejoin="round" d="m151.40055 256.806375 19.7255625 -19.7255625" stroke-width="2.5"></path></g><path id="vector_7" stroke="#120071" stroke-linecap="round" stroke-linejoin="round" d="m679.4122125 75.720225 16.907625 27.890099999999997 19.8851625 -41.665575" stroke-width="2.5"></path><g id="group_4"><path id="vector_8" stroke="#120071" stroke-linecap="round" stroke-linejoin="round" d="M942.7322625 400.21695H972.5625" stroke-width="2.5"></path><path id="vector_9" stroke="#120071" stroke-linecap="round" stroke-linejoin="round" d="M957.6448874999999 415.13456249999996v-29.8302375" stroke-width="2.5"></path></g></g><g id="chat box"><path id="vector_10" stroke="#120071" stroke-linecap="round" stroke-linejoin="round" d="M207.65456249999997 400.21695H24.9375v249.4099125l25.560937499999998 -29.1319875h157.156125V400.21695Z" stroke-width="2.5"></path><path id="vector_11" stroke="#120071" stroke-linecap="round" stroke-linejoin="round" d="M80.72767499999999 511.9918125h126.9268875" stroke-width="2.5"></path><path id="vector_12" stroke="#120071" stroke-linecap="round" stroke-linejoin="round" d="M80.72767499999999 543.5227875h126.9268875" stroke-width="2.5"></path><path id="vector_13" stroke="#120071" stroke-linecap="round" stroke-linejoin="round" d="M80.607975 479.19899999999996h127.04658749999999" stroke-width="2.5"></path></g><g id="phone"><path id="vector_14" stroke="#120071" stroke-linecap="round" stroke-linejoin="round" d="M760.9877625 824.1394875000001c15.710624999999999 -2.9176874999999995 29.910037499999998 -11.246812499999999 40.1244375 -23.536012500000002 10.2144 -12.2892 15.810374999999999 -27.7654125 15.810374999999999 -43.745362500000006v-563.08875c0 -18.144524999999998 -7.2069375 -35.54541375 -20.039775 -48.3757575 -12.82785 -12.829844999999999 -30.2292375 -20.037779999999998 -48.3737625 -20.037779999999998H301.74375c-8.98498125 -0.0014962499999999998 -17.8821825 1.7670712499999999 -26.18387625 5.204955 -8.301195 3.437385 -15.844289999999999 8.47625625 -22.198365 14.82933375 -6.35357625 6.3530775 -11.39394375 13.895175 -14.832825 22.196369999999998 -3.4383825 8.30069625 -5.20844625 17.1978975 -5.20844625 26.182878749999997v563.08875c0 8.987475 1.7700637499999998 17.880187499999998 5.20844625 26.184375 3.4388812499999997 8.299199999999999 8.47924875 15.840300000000001 14.832825 22.194375 6.354075 6.354075 13.89717 11.391449999999999 22.198365 14.8278375 8.30169375 3.4413749999999994 17.198895 5.20695 26.18387625 5.20695h147.8644125" stroke-width="2.5"></path><path id="vector_15" fill="#6153bd" d="M233.3202375 756.8581125v-563.08875c0 -8.98498125 1.7700637499999998 -17.8821825 5.20844625 -26.182878749999997 3.4388812499999997 -8.301195 8.47924875 -15.8432925 14.832825 -22.196369999999998 6.354075 -6.3530775 13.89717 -11.39194875 22.198365 -14.82933375 8.30169375 -3.43788375 17.198895 -5.20645125 26.18387625 -5.204955h-25.675649999999997c-18.144524999999998 0 -35.5459125 7.207935 -48.3757575 20.037779999999998 -12.829844999999999 12.830343749999999 -20.037779999999998 30.231232499999997 -20.037779999999998 48.3757575v563.08875c0 8.9824875 1.769565 17.880187499999998 5.20744875 26.179387499999997 3.4383825 8.299199999999999 8.4777525 15.8452875 14.83033125 22.194375 6.3530775 6.354075 13.894676249999998 11.396437500000001 22.19487375 14.832825 8.3001975 3.4363874999999995 17.1969 5.20695 26.18088375 5.20695H301.74375c-8.98498125 0 -17.8821825 -1.765575 -26.18387625 -5.20695 -8.301195 -3.4363874999999995 -15.844289999999999 -8.4737625 -22.198365 -14.8278375 -6.35357625 -6.354075 -11.39394375 -13.895175 -14.832825 -22.194375 -3.4383825 -8.3041875 -5.20844625 -17.1969 -5.20844625 -26.184375Z" stroke-width="2.5"></path><path id="vector_16" stroke="#120071" stroke-linecap="round" stroke-linejoin="round" d="M233.3202375 756.8581125v-563.08875c0 -8.98498125 1.7700637499999998 -17.8821825 5.20844625 -26.182878749999997 3.4388812499999997 -8.301195 8.47924875 -15.8432925 14.832825 -22.196369999999998 6.354075 -6.3530775 13.89717 -11.39194875 22.198365 -14.82933375 8.30169375 -3.43788375 17.198895 -5.20645125 26.18387625 -5.204955h-25.675649999999997c-18.144524999999998 0 -35.5459125 7.207935 -48.3757575 20.037779999999998 -12.829844999999999 12.830343749999999 -20.037779999999998 30.231232499999997 -20.037779999999998 48.3757575v563.08875c0 8.9824875 1.769565 17.880187499999998 5.20744875 26.179387499999997 3.4383825 8.299199999999999 8.4777525 15.8452875 14.83033125 22.194375 6.3530775 6.354075 13.894676249999998 11.396437500000001 22.19487375 14.832825 8.3001975 3.4363874999999995 17.1969 5.20695 26.18088375 5.20695H301.74375c-8.98498125 0 -17.8821825 -1.765575 -26.18387625 -5.20695 -8.301195 -3.4363874999999995 -15.844289999999999 -8.4737625 -22.198365 -14.8278375 -6.35357625 -6.354075 -11.39394375 -13.895175 -14.832825 -22.194375 -3.4383825 -8.3041875 -5.20844625 -17.1969 -5.20844625 -26.184375Z" stroke-width="2.5"></path><path id="vector_17" stroke="#120071" stroke-linecap="round" stroke-linejoin="round" d="M816.922575 209.96876249999997H233.3202375v290.6665125h583.6023375V209.96876249999997Z" stroke-width="2.5"></path><path id="vector_18" fill="#948ae3" d="M233.3202375 500.6402625V740.64375h216.287925v-118.60275h311.3796v118.60275h55.9348125v-240.0034875H233.3202375Zm105.66018749999999 167.70967499999998c-12.7251075 0 -25.164431249999996 -3.7755375 -35.74491375 -10.842825 -10.580482499999999 -7.072274999999999 -18.826815 -17.1171 -23.69661 -28.872637499999996 -4.86929625 -11.760525 -6.1436025 -24.693112499999998 -3.660825 -37.176825 2.48227875 -12.478724999999999 8.60992125 -23.9449875 17.607870000000002 -32.942437500000004 8.997948749999999 -8.99745 20.462216249999997 -15.1221 32.942437500000004 -17.605874999999997 12.48072 -2.483775 25.416798749999998 -1.206975 37.17333375 3.660825 11.756535000000001 4.8678 21.80485125 13.117125 28.87413375 23.6956125 7.069781249999999 10.583474999999998 10.84332375 23.022299999999998 10.84332375 35.7454125 0 17.0622375 -6.778511249999999 33.426224999999995 -18.844271250000002 45.495974999999994 -12.06576 12.0647625 -28.430744999999998 18.842775 -45.49447875 18.842775Zm135.79965 -83.161575c-4.49623125 0 -8.89121625 -1.3316625 -12.62984625 -3.8304 -3.73863 -2.4987375 -6.6523275 -6.0498375 -8.373015 -10.204424999999999 -1.72018875 -4.1545875 -2.1705599999999996 -8.7231375 -1.29325875 -13.132087499999999 0.8768025 -4.40895 3.042375 -8.4637875 6.2214075 -11.640825 3.1790325 -3.1770375 7.22988 -5.3466000000000005 11.6398275 -6.219412500000001 4.40944875 -0.8777999999999999 8.9804925 -0.42892499999999995 13.13458125 1.2917625 4.1535899999999994 1.7206874999999997 7.704191249999999 4.6333875 10.20193125 8.3740125 2.49823875 3.7356374999999997 3.8313975 8.1346125 3.8313975 12.62835 0 6.0298875 -2.3949975 11.8104 -6.658312499999999 16.0747125s-10.0458225 6.658312499999999 -16.0747125 6.658312499999999Zm59.0919 0c-4.4937375 0 -8.8927125 -1.3316625 -12.62835 -3.8304 -3.7406249999999996 -2.4987375 -6.653325 -6.0498375 -8.3740125 -10.204424999999999 -1.7206874999999997 -4.1545875 -2.1695625 -8.7231375 -1.2917625 -13.132087499999999 0.8728124999999999 -4.40895 3.042375 -8.4637875 6.219412500000001 -11.640825 3.1770375 -3.1770375 7.231875 -5.3466000000000005 11.640825 -6.219412500000001 4.40895 -0.8777999999999999 8.9775 -0.42892499999999995 13.132087499999999 1.2917625s7.7056875 4.6333875 10.204424999999999 8.3740125c2.4987375 3.7356374999999997 3.8304 8.1346125 3.8304 12.62835 0 2.9875125 -0.588525 5.9401125 -1.7306624999999998 8.6982 -1.1421375 2.7580875000000002 -2.81295 5.2668 -4.92765 7.3765125000000005 -2.1097124999999997 2.1147 -4.618425 3.7855125 -7.3765125000000005 4.92765 -2.7580875000000002 1.1421375 -5.7106875 1.7306624999999998 -8.6982 1.7306624999999998Zm58.79763749999999 -0.2394c-4.4937375 0 -8.8927125 -1.3316625 -12.62835 -3.8304 -3.7406249999999996 -2.4987375 -6.653325 -6.0498375 -8.3740125 -10.204424999999999 -1.7206874999999997 -4.1545875 -2.1695625 -8.7231375 -1.2917625 -13.132087499999999 0.8728124999999999 -4.40895 3.042375 -8.4637875 6.219412500000001 -11.640825 3.1770375 -3.1770375 7.231875 -5.3466000000000005 11.640825 -6.219412500000001 4.40895 -0.8777999999999999 8.9775 -0.42892499999999995 13.132087499999999 1.2917625s7.7056875 4.6333875 10.204424999999999 8.3740125c2.4987375 3.7356374999999997 3.8304 8.1346125 3.8304 12.62835 0 6.0298875 -2.3939999999999997 11.8104 -6.658312499999999 16.0747125s-10.044825 6.658312499999999 -16.0747125 6.658312499999999Zm59.35125 0.2394c-4.4937375 0 -8.8927125 -1.3316625 -12.62835 -3.8304 -3.7406249999999996 -2.4987375 -6.653325 -6.0498375 -8.3740125 -10.204424999999999 -1.7206874999999997 -4.1545875 -2.1695625 -8.7231375 -1.2917625 -13.132087499999999 0.8728124999999999 -4.40895 3.042375 -8.4637875 6.219412500000001 -11.640825 3.1770375 -3.1770375 7.231875 -5.3466000000000005 11.640825 -6.219412500000001 4.40895 -0.8777999999999999 8.9775 -0.42892499999999995 13.132087499999999 1.2917625s7.7056875 4.6333875 10.204424999999999 8.3740125c2.4987375 3.7356374999999997 3.8304 8.1346125 3.8304 12.62835 0 2.9875125 -0.588525 5.945099999999999 -1.7306624999999998 8.7031875 -1.1421375 2.763075 -2.8179374999999998 5.2668 -4.932637499999999 7.3815 -2.1147 2.1097124999999997 -4.6234125 3.7855125 -7.3815 4.9226624999999995 -2.763075 1.1421375 -5.7206624999999995 1.7306624999999998 -8.708174999999999 1.7256749999999998h0.01995Zm60.7228125 -0.2394c-4.4937375 0 -8.8927125 -1.3316625 -12.62835 -3.8304 -3.7406249999999996 -2.4987375 -6.653325 -6.0498375 -8.3740125 -10.204424999999999 -1.7206874999999997 -4.1545875 -2.1695625 -8.7231375 -1.2917625 -13.132087499999999 0.8728124999999999 -4.40895 3.042375 -8.4637875 6.219412500000001 -11.640825 3.1770375 -3.1770375 7.231875 -5.3466000000000005 11.640825 -6.219412500000001 4.40895 -0.8777999999999999 8.9775 -0.42892499999999995 13.132087499999999 1.2917625s7.7056875 4.6333875 10.204424999999999 8.3740125c2.4987375 3.7356374999999997 3.8304 8.1346125 3.8304 12.62835 0 2.9875125 -0.588525 5.945099999999999 -1.73565 8.708174999999999 -1.1421375 2.7580875000000002 -2.8179374999999998 5.2668 -4.932637499999999 7.3765125000000005 -2.1147 2.1097124999999997 -4.6234125 3.7855125 -7.3864875 4.92765 -2.763075 1.13715 -5.7206624999999995 1.7256749999999998 -8.708174999999999 1.7206874999999997h0.029925Z" stroke-width="2.5"></path><path id="vector_19" stroke="#120071" stroke-linecap="round" stroke-linejoin="round" d="M760.9877625 740.653725h55.9348125v-240.01346249999997H233.3202375v240.01346249999997h216.287925" stroke-width="2.5"></path><path id="vector_20" stroke="#120071" stroke-linecap="round" stroke-linejoin="round" d="M471.3337125 167.6647875h103.84972499999999" stroke-width="2.5"></path><path id="vector_21" stroke="#120071" stroke-linecap="round" stroke-linejoin="round" d="M338.98042499999997 375.59865c35.5279575 0 64.328775 -28.8008175 64.328775 -64.328775 0 -35.5279575 -28.8008175 -64.328775 -64.328775 -64.328775 -35.5279575 0 -64.328775 28.8008175 -64.328775 64.328775 0 35.5279575 28.8008175 64.328775 64.328775 64.328775Z" stroke-width="2.5"></path><path id="vector_22" fill="#6153bd" d="M278.232675 332.277225c4.2862575000000005 12.43832625 12.286706249999998 23.26120125 22.921552499999997 31.00629 10.634846249999999 7.74508875 23.3903775 12.039326249999998 36.54391125 12.30166875 13.153533750000001 0.26284124999999997 26.070659999999997 -3.5181825 37.00575375 -10.83285 10.9355925 -7.314168749999999 19.361973749999997 -17.808866249999998 24.141495 -30.06614625 -35.6955375 -16.5136125 -83.8698 -16.4338125 -120.6127125 -2.4089625Z" stroke-width="2.5"></path><path id="vector_23" stroke="#120071" stroke-linecap="round" stroke-linejoin="round" d="M278.232675 332.277225c4.2862575000000005 12.43832625 12.286706249999998 23.26120125 22.921552499999997 31.00629 10.634846249999999 7.74508875 23.3903775 12.039326249999998 36.54391125 12.30166875 13.153533750000001 0.26284124999999997 26.070659999999997 -3.5181825 37.00575375 -10.83285 10.9355925 -7.314168749999999 19.361973749999997 -17.808866249999998 24.141495 -30.06614625 -35.6955375 -16.5136125 -83.8698 -16.4338125 -120.6127125 -2.4089625Z" stroke-width="2.5"></path><path id="vector_24" fill="#6153bd" d="M338.53653749999995 308.56665c7.704191249999999 0 13.9500375 -6.24584625 13.9500375 -13.9500375 0 -7.704191249999999 -6.24584625 -13.9500375 -13.9500375 -13.9500375 -7.704191249999999 0 -13.9500375 6.24584625 -13.9500375 13.9500375 0 7.704191249999999 6.24584625 13.9500375 13.9500375 13.9500375Z" stroke-width="2.5"></path><path id="vector_25" stroke="#120071" stroke-linecap="round" stroke-linejoin="round" d="M338.53653749999995 308.56665c7.704191249999999 0 13.9500375 -6.24584625 13.9500375 -13.9500375 0 -7.704191249999999 -6.24584625 -13.9500375 -13.9500375 -13.9500375 -7.704191249999999 0 -13.9500375 6.24584625 -13.9500375 13.9500375 0 7.704191249999999 6.24584625 13.9500375 13.9500375 13.9500375Z" stroke-width="2.5"></path><path id="vector_26" fill="#6153bd" d="M474.780075 292.4121375c12.55503375 0 22.733024999999998 -10.17799125 22.733024999999998 -22.733024999999998 0 -12.55503375 -10.17799125 -22.733024999999998 -22.733024999999998 -22.733024999999998 -12.55503375 0 -22.733024999999998 10.17799125 -22.733024999999998 22.733024999999998 0 12.55503375 10.17799125 22.733024999999998 22.733024999999998 22.733024999999998Z" stroke-width="2.5"></path><path id="vector_27" stroke="#120071" stroke-linecap="round" stroke-linejoin="round" d="M474.780075 292.4121375c12.55503375 0 22.733024999999998 -10.17799125 22.733024999999998 -22.733024999999998 0 -12.55503375 -10.17799125 -22.733024999999998 -22.733024999999998 -22.733024999999998 -12.55503375 0 -22.733024999999998 10.17799125 -22.733024999999998 22.733024999999998 0 12.55503375 10.17799125 22.733024999999998 22.733024999999998 22.733024999999998Z" stroke-width="2.5"></path><path id="vector_28" fill="#6153bd" d="M533.871975 292.4121375c12.5535375 0 22.733024999999998 -10.17799125 22.733024999999998 -22.733024999999998 0 -12.55503375 -10.179487499999999 -22.733024999999998 -22.733024999999998 -22.733024999999998s-22.733024999999998 10.17799125 -22.733024999999998 22.733024999999998c0 12.55503375 10.179487499999999 22.733024999999998 22.733024999999998 22.733024999999998Z" stroke-width="2.5"></path><path id="vector_29" stroke="#120071" stroke-linecap="round" stroke-linejoin="round" d="M533.871975 292.4121375c12.5535375 0 22.733024999999998 -10.17799125 22.733024999999998 -22.733024999999998 0 -12.55503375 -10.179487499999999 -22.733024999999998 -22.733024999999998 -22.733024999999998s-22.733024999999998 10.17799125 -22.733024999999998 22.733024999999998c0 12.55503375 10.179487499999999 22.733024999999998 22.733024999999998 22.733024999999998Z" stroke-width="2.5"></path><path id="vector_30" fill="#6153bd" d="M592.6696125 292.16774999999996c12.5535375 0 22.733024999999998 -10.17799125 22.733024999999998 -22.733024999999998 0 -12.55503375 -10.179487499999999 -22.733024999999998 -22.733024999999998 -22.733024999999998s-22.733024999999998 10.17799125 -22.733024999999998 22.733024999999998c0 12.55503375 10.179487499999999 22.733024999999998 22.733024999999998 22.733024999999998Z" stroke-width="2.5"></path><path id="vector_31" stroke="#120071" stroke-linecap="round" stroke-linejoin="round" d="M592.6696125 292.16774999999996c12.5535375 0 22.733024999999998 -10.17799125 22.733024999999998 -22.733024999999998 0 -12.55503375 -10.179487499999999 -22.733024999999998 -22.733024999999998 -22.733024999999998s-22.733024999999998 10.17799125 -22.733024999999998 22.733024999999998c0 12.55503375 10.179487499999999 22.733024999999998 22.733024999999998 22.733024999999998Z" stroke-width="2.5"></path><path id="vector_32" stroke="#120071" stroke-linecap="round" stroke-linejoin="round" d="M652.0009125 292.4121375c12.5535375 0 22.733024999999998 -10.17799125 22.733024999999998 -22.733024999999998 0 -12.55503375 -10.179487499999999 -22.733024999999998 -22.733024999999998 -22.733024999999998s-22.733024999999998 10.17799125 -22.733024999999998 22.733024999999998c0 12.55503375 10.179487499999999 22.733024999999998 22.733024999999998 22.733024999999998Z" stroke-width="2.5"></path><path id="vector_33" stroke="#120071" stroke-linecap="round" stroke-linejoin="round" d="M712.723725 292.16774999999996c12.5535375 0 22.733024999999998 -10.17799125 22.733024999999998 -22.733024999999998 0 -12.55503375 -10.179487499999999 -22.733024999999998 -22.733024999999998 -22.733024999999998s-22.733024999999998 10.17799125 -22.733024999999998 22.733024999999998c0 12.55503375 10.179487499999999 22.733024999999998 22.733024999999998 22.733024999999998Z" stroke-width="2.5"></path><path id="vector_34" stroke="#120071" stroke-linecap="round" stroke-linejoin="round" d="M338.98042499999997 539.697375c-12.7251075 0 -25.164431249999996 3.7755375 -35.74491375 10.842825 -10.57998375 7.072274999999999 -18.826815 17.1171 -23.69611125 28.872637499999996 -4.869795 11.760525 -6.144101249999999 24.693112499999998 -3.6613237499999998 37.176825 2.48227875 12.478724999999999 8.60992125 23.9449875 17.607870000000002 32.942437500000004 8.997948749999999 8.99745 20.462216249999997 15.1221 32.942437500000004 17.605874999999997 12.48072 2.483775 25.417297499999997 1.206975 37.17333375 -3.660825 11.756535000000001 -4.8678 21.80485125 -13.117125 28.874632499999997 -23.6956125 7.0692825 -10.583474999999998 10.842825 -23.022299999999998 10.842825 -35.7454125 0 -17.0622375 -6.778511249999999 -33.426224999999995 -18.844271250000002 -45.495974999999994 -12.06576 -12.0647625 -28.430744999999998 -18.842775 -45.49447875 -18.842775Z" stroke-width="2.5"></path><path id="vector_35" stroke="#120071" stroke-linecap="round" stroke-linejoin="round" d="M324.06281249999995 604.0211625h29.8302375" stroke-width="2.5"></path><path id="vector_36" stroke="#120071" stroke-linecap="round" stroke-linejoin="round" d="M338.98042499999997 618.938775v-29.835225" stroke-width="2.5"></path><path id="vector_37" stroke="#120071" stroke-linecap="round" stroke-linejoin="round" d="M474.780075 585.1883625c12.55503375 0 22.733024999999998 -10.179487499999999 22.733024999999998 -22.733024999999998s-10.17799125 -22.733024999999998 -22.733024999999998 -22.733024999999998c-12.55503375 0 -22.733024999999998 10.179487499999999 -22.733024999999998 22.733024999999998s10.17799125 22.733024999999998 22.733024999999998 22.733024999999998Z" stroke-width="2.5"></path><path id="vector_38" stroke="#120071" stroke-linecap="round" stroke-linejoin="round" d="M533.871975 585.1883625c12.5535375 0 22.733024999999998 -10.179487499999999 22.733024999999998 -22.733024999999998s-10.179487499999999 -22.733024999999998 -22.733024999999998 -22.733024999999998 -22.733024999999998 10.179487499999999 -22.733024999999998 22.733024999999998 10.179487499999999 22.733024999999998 22.733024999999998 22.733024999999998Z" stroke-width="2.5"></path><path id="vector_39" stroke="#120071" stroke-linecap="round" stroke-linejoin="round" d="M592.6696125 539.4829125c-4.4937375 0 -8.8927125 1.3316625 -12.62835 3.8304 -3.7406249999999996 2.4987375 -6.653325 6.0498375 -8.3740125 10.204424999999999 -1.7206874999999997 4.1545875 -2.1695625 8.7231375 -1.2917625 13.132087499999999 0.8728124999999999 4.40895 3.042375 8.4637875 6.219412500000001 11.640825 3.1770375 3.1770375 7.231875 5.3466000000000005 11.640825 6.219412500000001 4.40895 0.8777999999999999 8.9775 0.42892499999999995 13.132087499999999 -1.2917625s7.7056875 -4.6333875 10.204424999999999 -8.3740125c2.4987375 -3.7356374999999997 3.8304 -8.1346125 3.8304 -12.62835 0 -6.0298875 -2.3989875 -11.8104 -6.658312499999999 -16.0747125 -4.2643125 -4.259325 -10.044825 -6.658312499999999 -16.0747125 -6.658312499999999Z" stroke-width="2.5"></path><path id="vector_40" stroke="#120071" stroke-linecap="round" stroke-linejoin="round" d="M652.0009125 585.1883625c12.5535375 0 22.733024999999998 -10.179487499999999 22.733024999999998 -22.733024999999998s-10.179487499999999 -22.733024999999998 -22.733024999999998 -22.733024999999998 -22.733024999999998 10.179487499999999 -22.733024999999998 22.733024999999998 10.179487499999999 22.733024999999998 22.733024999999998 22.733024999999998Z" stroke-width="2.5"></path><path id="vector_41" stroke="#120071" stroke-linecap="round" stroke-linejoin="round" d="M712.71375 539.4829125c-4.4937375 0 -8.8927125 1.3316625 -12.62835 3.8304 -3.7406249999999996 2.4987375 -6.653325 6.0498375 -8.3740125 10.204424999999999 -1.7206874999999997 4.1545875 -2.1695625 8.7231375 -1.2917625 13.132087499999999 0.8728124999999999 4.40895 3.042375 8.4637875 6.219412500000001 11.640825 3.1770375 3.1770375 7.231875 5.3466000000000005 11.640825 6.219412500000001 4.40895 0.8777999999999999 8.9775 0.42892499999999995 13.132087499999999 -1.2917625s7.7056875 -4.6333875 10.204424999999999 -8.3740125c2.4987375 -3.7356374999999997 3.8304 -8.1346125 3.8304 -12.62835 0 -6.0298875 -2.3939999999999997 -11.8104 -6.658312499999999 -16.0747125s-10.044825 -6.658312499999999 -16.0747125 -6.658312499999999Z" stroke-width="2.5"></path><path id="vector_42" stroke="#120071" stroke-linecap="round" stroke-linejoin="round" d="M459.8624625 562.4553374999999h29.835225" stroke-width="2.5"></path><path id="vector_43" stroke="#120071" stroke-linecap="round" stroke-linejoin="round" d="M474.780075 577.37295v-29.8302375" stroke-width="2.5"></path><path id="vector_44" stroke="#120071" stroke-linecap="round" stroke-linejoin="round" d="M518.9543625 562.4553374999999h29.835225" stroke-width="2.5"></path><path id="vector_45" stroke="#120071" stroke-linecap="round" stroke-linejoin="round" d="M533.871975 577.37295v-29.8302375" stroke-width="2.5"></path><path id="vector_46" stroke="#120071" stroke-linecap="round" stroke-linejoin="round" d="M577.752 562.4553374999999h29.8302375" stroke-width="2.5"></path><path id="vector_47" stroke="#120071" stroke-linecap="round" stroke-linejoin="round" d="M592.6696125 577.37295v-29.8302375" stroke-width="2.5"></path><path id="vector_48" stroke="#120071" stroke-linecap="round" stroke-linejoin="round" d="M637.0833 562.4553374999999h29.8302375" stroke-width="2.5"></path><path id="vector_49" stroke="#120071" stroke-linecap="round" stroke-linejoin="round" d="M652.0009125 577.37295v-29.8302375" stroke-width="2.5"></path><path id="vector_50" stroke="#120071" stroke-linecap="round" stroke-linejoin="round" d="M697.8061124999999 562.4553374999999h29.835225" stroke-width="2.5"></path><path id="vector_51" stroke="#120071" stroke-linecap="round" stroke-linejoin="round" d="M712.723725 577.37295v-29.8302375" stroke-width="2.5"></path><path id="vector_52" stroke="#120071" stroke-linecap="round" stroke-linejoin="round" d="M449.6081625 326.5066875v110.8023h279.250125l32.129475 36.6232125V326.5066875H449.6081625Z" stroke-width="2.5"></path><path id="vector_53" stroke="#120071" stroke-linecap="round" stroke-linejoin="round" d="M497.51309999999995 369.66352499999994h216.8614875" stroke-width="2.5"></path><path id="vector_54" stroke="#120071" stroke-linecap="round" stroke-linejoin="round" d="M497.51309999999995 396.48629999999997h216.8614875" stroke-width="2.5"></path></g><g id="rate"><path id="vector_55" stroke="#120071" stroke-linecap="round" stroke-linejoin="round" d="M449.6081625 622.050975v276.8810625h279.250125l32.129475 36.6232125v-313.50427499999995H449.6081625Z" stroke-width="2.5"></path><path id="vector_56" fill="#6153bd" d="m607.5822375 643.4024625 37.401262499999994 75.7850625 83.6353875 12.14955 -60.518325 58.992149999999995 14.284199999999998 83.29124999999999 -74.80252499999999 -39.3264375 -74.80252499999999 39.3264375 14.2891875 -83.29124999999999 -60.518325 -58.992149999999995 83.6304 -12.14955 37.401262499999994 -75.7850625Z" stroke-width="2.5"></path><path id="vector_57" stroke="#120071" stroke-linecap="round" stroke-linejoin="round" d="m607.5822375 643.4024625 37.401262499999994 75.7850625 83.6353875 12.14955 -60.518325 58.992149999999995 14.284199999999998 83.29124999999999 -74.80252499999999 -39.3264375 -74.80252499999999 39.3264375 14.2891875 -83.29124999999999 -60.518325 -58.992149999999995 83.6304 -12.14955 37.401262499999994 -75.7850625Z" stroke-width="2.5"></path><path id="vector_58" stroke="#120071" stroke-linecap="round" stroke-linejoin="round" d="m931.076475 844.2042 34.2890625 -14.403899999999998 -91.82985 -91.82985v130.40816249999997l36.708 -15.42135v-29.5908375l20.8327875 20.837775Z" stroke-width="2.5"></path></g></g></svg>