<svg xmlns="http://www.w3.org/2000/svg" fill="none" viewBox="-0.25 -0.25 200 200" id="Marketing-Filling-Survey-01--Streamline-Bangalore.svg"><desc>Marketing Filling Survey 01 Streamline Illustration: https://streamlinehq.com</desc><g><g><path fill="#948ae3" d="M93.75303000000001 24.339 46.65507 46.304947500000004l6.44385 13.835325 47.116912500000005 -21.965947500000002 -6.4628025000000004 -13.835325Z" stroke-width="0.5"></path><path fill="#948ae3" d="m74.18916225000001 89.89739325 -14.13906375 6.595869 6.83237625 14.64619275 14.1391635 -6.595470000000001 -6.832476 -14.64659175Z" stroke-width="0.5"></path><path fill="#948ae3" d="m148.677375 20.62431 -31.5559125 69.2713875 5.2119375 2.35011 31.5559125 -69.252435 -5.2119375 -2.3690625Z" stroke-width="0.5"></path><path fill="#948ae3" d="m166.64434500000002 28.73598 -31.574865000000003 69.252435 -5.2119375 -2.35011 31.5559125 -69.252435 5.2308900000000005 2.35011Z" stroke-width="0.5"></path></g><g><path fill="#6153bd" d="m156.22047 12.323115 -4.396980000000001 9.7226325 11.97798 5.4014625 4.378027500000001 -9.7226325 -11.959027500000001 -5.4014625Z" stroke-width="0.5"></path><path fill="#6153bd" d="M72.60204000000002 29.56989c-0.36179325000000007 -0.7078260000000001 -0.9238845000000001 -1.293558 -1.6161495000000001 -1.684179 -0.692265 -0.39062100000000005 -1.48428 -0.5689740000000001 -2.27719275 -0.51281475 -0.79291275 0.056259 -1.5518107500000002 0.3445365 -2.1821310000000005 0.8289225 -0.6302205000000001 0.484386 -1.104033 1.143534 -1.3623855 1.89534975 -0.25835250000000004 0.751716 -0.28977375 1.56298275 -0.09037350000000001 2.33245425 0.19930050000000002 0.7694715 0.62074425 1.4633325000000001 1.2115635 1.9950997500000003 0.5909190000000001 0.53176725 1.32517875 0.8778997500000001 2.1114082499999998 0.9953055000000001 0.7862295 0.11740575 1.589616 0.0009975000000000001 2.3100105 -0.3349605 0.48697950000000007 -0.23730525000000002 0.92238825 -0.56827575 1.2811890000000001 -0.9739590000000001 0.3589005 -0.405783 0.6342105 -0.87829875 0.81026925 -1.390515 0.17605874999999999 -0.512316 0.24927525000000003 -1.05425775 0.2156595 -1.5949027500000001 -0.033715499999999995 -0.540645 -0.173565 -1.06932 -0.41186775000000003 -1.5558007500000002Z" stroke-width="0.5"></path><path fill="#6153bd" d="M21.372435 101.7220575c-0.09186975 -0.189525 -0.23770425000000003 -0.34713 -0.41914950000000006 -0.452865 -0.18144525 -0.10673250000000001 -0.39032175 -0.1566075 -0.6002955 -0.14364 -0.209874 0.011970000000000001 -0.411369 0.0867825 -0.578949 0.21346500000000002 -0.16767975000000002 0.1266825 -0.2938635 0.3002475 -0.36279075000000005 0.4997475 -0.06882750000000001 0.19850250000000003 -0.07730625 0.412965 -0.0241395 0.616455 0.053067 0.20349 0.16528574999999998 0.38603250000000006 0.322392 0.5256825 0.157206 0.14064749999999998 0.35221725000000004 0.23042250000000003 0.56049525 0.25935 0.20827800000000002 0.028927500000000002 0.42044625 -0.004987500000000001 0.609672 -0.09675750000000001 0.25316550000000004 -0.12369000000000001 0.4470795 -0.34314 0.5394479999999999 -0.6094725 0.09226875000000001 -0.2663325 0.07551075 -0.5576025000000001 -0.046683 -0.8119649999999999Z" stroke-width="0.5"></path><path fill="#6153bd" d="m122.40921 107.40780750000002 -3.33564 2.5017300000000002 -0.416955 -4.1885025 3.7525950000000003 1.6867725000000002Z" stroke-width="0.5"></path></g><g><path stroke="#120071" stroke-linecap="round" stroke-linejoin="round" d="m180.8018625 87.1665375 4.77603 10.2533025" stroke-width="0.5"></path><path stroke="#120071" stroke-linecap="round" stroke-linejoin="round" d="M188.326005 89.91465000000001 178.05375 94.67172750000002" stroke-width="0.5"></path><path stroke="#120071" stroke-linecap="round" stroke-linejoin="round" d="M120.74139000000001 191.89905000000002c0.0947625 0.41097 0.065835 0.8398950000000001 -0.08379 1.2339075000000002 -0.1486275 0.39401250000000004 -0.4119675 0.7351575 -0.7541100000000001 0.979545 -0.34314 0.2443875 -0.7511175 0.3820425 -1.1720625 0.39501000000000003 -0.420945 0.013965000000000002 -0.8369025 -0.09875250000000001 -1.1940075 -0.321195 -0.357105 -0.22344000000000003 -0.640395 -0.5466300000000001 -0.81396 -0.9306675000000001 -0.173565 -0.38403750000000003 -0.22942500000000002 -0.8109675 -0.15960000000000002 -1.226925 0.06882750000000001 -0.41496 0.25935 -0.8009925000000001 0.5476275 -1.1082225 0.2882775 -0.30723 0.6613425 -0.5216925 1.071315 -0.6174525000000001 0.27231750000000005 -0.06284250000000001 0.5556075 -0.07182 0.831915 -0.025935 0.27630750000000004 0.045885 0.540645 0.145635 0.77805 0.2942625 0.237405 0.14763 0.44388750000000005 0.34114500000000003 0.60648 0.5695725 0.1625925 0.22743000000000002 0.27930000000000005 0.4857825 0.34214250000000007 0.7581v0Z" stroke-width="0.5"></path><path stroke="#120071" stroke-linecap="round" stroke-linejoin="round" d="M102.75546750000001 6.201467475c0.06882750000000001 0.301673925 0.047880000000000006 0.6170934 -0.06284250000000001 0.9063983250000001 -0.109725 0.28930492500000005 -0.30324 0.53950785 -0.5556075 0.7189581 -0.25137000000000004 0.17945025 -0.5516175000000001 0.280098 -0.8608425000000001 0.289225125 -0.309225 0.009127125 -0.61446 -0.07368532500000001 -0.8768025 -0.23797357500000002 -0.26234250000000003 -0.164278275 -0.4698225 -0.402640875 -0.5965050000000001 -0.6849632999999999 -0.12718125 -0.28232242500000004 -0.16748025 -0.595916475 -0.11620875000000001 -0.9011415 0.05137125 -0.30521505 0.19201875000000002 -0.588355425 0.40448625000000005 -0.8136208500000001 0.2124675 -0.22526542500000002 0.48678 -0.38254125000000005 0.7880250000000001 -0.451937325 0.40398750000000005 -0.089545575 0.827925 -0.016528575000000004 1.179045 0.203300475s0.6014925 0.5688543 0.6972524999999999 0.971754525v0Z" stroke-width="0.5"></path><path stroke="#120071" stroke-linecap="round" stroke-linejoin="round" d="m96.99380775000002 31.2566625 19.78650975 -9.229867500000001 15.806385 33.9060225" stroke-width="0.5"></path><path stroke="#120071" stroke-linecap="round" stroke-linejoin="round" d="m143.54124750000003 79.41496500000001 28.8267525 61.8420075 -86.68873500000001 40.42668 -55.6076325 -119.23117500000001 19.8053625 -9.229867500000001" stroke-width="0.5"></path><path stroke="#120071" stroke-linecap="round" stroke-linejoin="round" d="M100.2158325 38.174325 53.09892 60.1402725l-6.44385 -13.835325L93.75303000000001 24.339l6.4628025000000004 13.835325Z" stroke-width="0.5"></path><path stroke="#120071" stroke-linecap="round" stroke-linejoin="round" d="M72.60194025000001 29.56989c0.31151925 0.7318657500000001 0.40069575 1.5391425 0.25645725 2.3212822500000003 -0.14433825 0.78213975 -0.51560775 1.5044295 -1.0676242500000002 2.0769945 -0.55211625 0.57246525 -1.2604410000000001 0.9698692500000001 -2.03679525 1.1425365 -0.77635425 0.17256749999999998 -1.586424 0.11281725000000001 -2.3290627500000003 -0.1717695 -0.7426387500000001 -0.2846865 -1.38502875 -0.781641 -1.8471705 -1.4289187500000002 -0.462042 -0.6472777500000001 -0.723387 -1.41635025 -0.75141675 -2.21115825 -0.027930000000000003 -0.794808 0.17865225 -1.5803392500000002 0.5941110000000001 -2.25843975 0.41545875 -0.67820025 1.0213402500000002 -1.2191445 1.74213375 -1.555302 0.49406175 -0.220248 1.026627 -0.34114500000000003 1.56737175 -0.35560875000000003 0.5407447500000001 -0.014463750000000001 1.0790955000000002 0.077805 1.5841297500000002 0.27132000000000006 0.505134 0.19361475 0.967176 0.484785 1.3596922500000002 0.85695225 0.392616 0.37216725 0.70792575 0.8180497500000001 0.92817375 1.3121114999999999v0Z" stroke-width="0.5"></path><path stroke="#120071" stroke-linecap="round" stroke-linejoin="round" d="M118.44813750000002 55.81910250000001 54.8994075 85.44186 48.209175 71.11377l63.54873 -29.641710000000003 6.6902325000000005 14.3470425Z" stroke-width="0.5"></path><path stroke="#120071" stroke-linecap="round" stroke-linejoin="round" d="m81.01695000000001 104.54598000000001 -14.139562500000002 6.595470000000001 -6.822900000000001 -14.6502825 14.139562500000002 -6.595470000000001 6.822900000000001 14.6502825Z" stroke-width="0.5"></path><path stroke="#120071" stroke-linecap="round" stroke-linejoin="round" d="m125.631135 71.22748500000002 -7.2588075000000005 15.920100000000001 -25.3394925 11.8074075 -6.841852500000001 -14.6502825 37.393282500000005 -17.4552525 2.04687 4.378027500000001Z" stroke-width="0.5"></path><path stroke="#120071" stroke-linecap="round" stroke-linejoin="round" d="m92.93797275000001 130.09395 -14.138565 6.595470000000001 -6.841852500000001 -14.669235 14.138565 -6.5765175000000005 6.841852500000001 14.6502825Z" stroke-width="0.5"></path><path stroke="#120071" stroke-linecap="round" stroke-linejoin="round" d="m136.5667275 94.70963250000001 5.76156 12.35703 -37.393282500000005 17.417347499999998 -6.82299975 -14.6502825 20.032892250000003 -9.343582500000002" stroke-width="0.5"></path><path stroke="#120071" stroke-linecap="round" stroke-linejoin="round" d="m104.8402425 155.64291749999998 -14.13866475 6.5765175000000005 -6.841852500000001 -14.651280000000002 14.1575175 -6.595470000000001 6.82299975 14.670232500000001Z" stroke-width="0.5"></path><path stroke="#120071" stroke-linecap="round" stroke-linejoin="round" d="m154.24941 132.59568000000002 -37.393282500000005 17.437297500000003 -6.841852500000001 -14.651280000000002 37.393282500000005 -17.436300000000003 6.841852500000001 14.6502825Z" stroke-width="0.5"></path><path stroke="#120071" stroke-linecap="round" stroke-linejoin="round" d="m58.6520025 99.33404250000001 13.96899 5.6667975 3.48726 -16.82982" stroke-width="0.5"></path><path stroke="#120071" stroke-linecap="round" stroke-linejoin="round" d="m87.271275 112.1080275 -9.6468225 27.9170325" stroke-width="0.5"></path><path stroke="#120071" stroke-linecap="round" stroke-linejoin="round" d="m96.21685500000001 131.38272 -27.537982500000002 -10.632352500000001" stroke-width="0.5"></path><path stroke="#120071" stroke-linecap="round" stroke-linejoin="round" d="m99.173445 137.637045 -9.6468225 27.91803" stroke-width="0.5"></path><path stroke="#120071" stroke-linecap="round" stroke-linejoin="round" d="m108.1379775 156.91273500000003 -27.556935000000003 -10.63335" stroke-width="0.5"></path><path stroke="#120071" stroke-linecap="round" stroke-linejoin="round" d="m166.64434500000002 28.73598 -31.574865000000003 69.252435 -17.9480175 -8.0927175 31.5559125 -69.2713875 17.96697 8.11167Z" stroke-width="0.5"></path><path stroke="#120071" stroke-linecap="round" stroke-linejoin="round" d="m168.1794975 17.7245775 -4.378027500000001 9.7226325 -11.97798 -5.4014625 4.396980000000001 -9.7226325 11.959027500000001 5.4014625Z" stroke-width="0.5"></path><path stroke="#120071" stroke-linecap="round" stroke-linejoin="round" d="m135.06948 97.988415 -15.995910000000002 11.921122500000001 -1.9521075 -20.013840000000002" stroke-width="0.5"></path><path stroke="#120071" stroke-linecap="round" stroke-linejoin="round" d="m118.656615 105.72103500000001 3.7525950000000003 1.6867725000000002" stroke-width="0.5"></path><path stroke="#120071" stroke-linecap="round" stroke-linejoin="round" d="M153.88931250000002 22.974420000000002 122.33340000000001 92.24580750000001" stroke-width="0.5"></path><path stroke="#120071" stroke-linecap="round" stroke-linejoin="round" d="m161.41345500000003 26.385870000000004 -31.5559125 69.252435" stroke-width="0.5"></path><path stroke="#120071" stroke-linecap="round" stroke-linejoin="round" d="M18.45375 98.15898750000001c-0.5685749999999999 -1.21296 -0.5306700000000001 -2.312205 0 -5.041365000000001 1.1301675 -5.811435 -2.2513575 -7.8453375 -5.041365000000001 -6.633375000000001 -0.448077 0.1913205 -0.85376025 0.46942350000000005 -1.1938080000000002 0.8183490000000001 -0.34004775 0.34882575000000005 -0.60757725 0.7615912499999999 -0.7873267500000001 1.2143565 -0.17964975000000002 0.452865 -0.2679285 0.9367522500000001 -0.259749 1.4238315000000001 0.008179500000000001 0.48707925 0.11281725000000001 0.9677745 0.30772875 1.4142555 0.0939645 0.21256725 0.20827800000000002 0.41565825000000006 0.34114500000000003 0.60648" stroke-width="0.5"></path><path stroke="#120071" stroke-linejoin="round" d="M21.372435 101.7220575c0.09157050000000001 0.189525 0.12508650000000002 0.40099500000000005 0.09615900000000001 0.6094725 -0.028927500000000002 0.2084775 -0.11890200000000001 0.40299000000000007 -0.258552 0.5605950000000001 -0.13965000000000002 0.1566075 -0.322791 0.26932500000000004 -0.52618125 0.32219250000000005 -0.20339025000000002 0.052867500000000005 -0.4179525 0.044887500000000004 -0.61655475 -0.023940000000000003 -0.198702 -0.06882750000000001 -0.37246650000000003 -0.19551000000000002 -0.49944825000000004 -0.36309 -0.12698175 -0.16758 -0.20139525 -0.3680775 -0.21396375 -0.57855 -0.012568500000000002 -0.209475 0.03740625 -0.41895 0.14344050000000003 -0.5994975 0.106134 -0.181545 0.26363925 -0.3281775 0.4526655 -0.41994750000000003 0.25406325 -0.12269250000000001 0.54633075 -0.13965000000000002 0.81286275 -0.0468825 0.266532 0.09177 0.48568275000000005 0.2862825 0.60957225 0.5396475000000001Z" stroke-width="0.5"></path></g></g></svg>