<svg xmlns="http://www.w3.org/2000/svg" fill="none" viewBox="-0.25 -0.25 200 200" id="Task-List--Streamline-Bangalore.svg"><desc>Task List Streamline Illustration: https://streamlinehq.com</desc><g id="task-list--work-task-list"><g id="tablet"><path id="Vector" fill="#948ae3" d="m156.81498000000002 187.3454625 -66.1871175 2.3251725a6.0717825 6.0717825 0 0 1 -6.16056 -4.6513425L67.19559000000001 88.32463500000001a4.235385000000001 4.235385000000001 0 0 1 0.09975 -1.9541025l-1.426425 4.4887500000000005a4.3690500000000005 4.3690500000000005 0 0 0 -0.17157 2.25834L82.992 189.8072925A5.9600625 5.9600625 0 0 0 88.87725 194.51250000000002l66.3267675 -1.7795400000000001a4.160572500000001 4.160572500000001 0 0 0 4.126657499999999 -3.2428725000000003l1.3027350000000002 -4.1146875000000005a4.7052075 4.7052075 0 0 1 -3.81843 1.9700625000000003Z" stroke-width="0.5"></path><path id="Vector_2" stroke="#120071" stroke-linecap="round" stroke-linejoin="round" d="m156.81498000000002 187.3454625 -66.1871175 2.3251725a6.0717825 6.0717825 0 0 1 -6.16056 -4.6513425L67.19559000000001 88.32463500000001a4.235385000000001 4.235385000000001 0 0 1 0.09975 -1.9541025l-1.426425 4.4887500000000005a4.3690500000000005 4.3690500000000005 0 0 0 -0.17157 2.25834L82.992 189.8072925A5.9600625 5.9600625 0 0 0 88.87725 194.51250000000002l66.3267675 -1.7795400000000001a4.160572500000001 4.160572500000001 0 0 0 4.126657499999999 -3.2428725000000003l1.3027350000000002 -4.1146875000000005a4.7052075 4.7052075 0 0 1 -3.81843 1.9700625000000003Z" stroke-width="0.5"></path><path id="Vector_3" stroke="#120071" stroke-linecap="round" stroke-linejoin="round" d="m80.36658 82.992 -8.738100000000001 0.30723c-2.9256675 0.09975 -4.909695 2.3521050000000003 -4.43289 5.024407500000001l17.271712500000003 96.69366000000001a6.074775 6.074775 0 0 0 6.16056 4.65234l66.1871175 -2.3251725c2.92467 -0.09975 4.909695 -2.3521050000000003 4.4318925 -5.024407500000001l-16.4757075 -92.238825" stroke-width="0.5"></path><path id="Vector_4" stroke="#120071" stroke-linecap="round" stroke-linejoin="round" d="M127.35481500000002 183.717555c1.0264275 -2.1984900000000005 -0.2364075 -4.958572500000001 -2.8199325 -6.163552500000001 -2.583525 -1.2039825000000002 -5.5091925 -0.39800250000000004 -6.5346225 1.8014850000000002 -1.02543 2.1994875 0.237405 4.958572500000001 2.8199325 6.163552500000001 2.583525 1.20498 5.5091925 0.39800250000000004 6.5346225 -1.8014850000000002Z" stroke-width="0.5"></path><path id="Vector_5" stroke="#120071" stroke-linecap="round" stroke-linejoin="round" d="m150.69831 145.77265500000001 -68.47638 2.40597 -4.953585 -27.4821225 68.47638 -2.40597 4.953585 27.4821225Z" stroke-width="0.5"></path><path id="Vector_6" stroke="#120071" stroke-linecap="round" stroke-linejoin="round" d="m122.6176875 130.2984375 -37.06311 1.06932" stroke-width="0.5"></path><path id="Vector_7" stroke="#120071" stroke-linecap="round" stroke-linejoin="round" d="m116.2077525 136.18568249999998 -29.42226 1.0344075" stroke-width="0.5"></path><path id="Vector_8" stroke="#120071" stroke-linecap="round" stroke-linejoin="round" d="m140.64051750000002 127.187235 -8.778997500000001 0.3082275 1.5551025 8.628375 8.778997500000001 -0.3082275 -1.5551025 -8.628375Z" stroke-width="0.5"></path><path id="Vector_9" stroke="#120071" stroke-linecap="round" stroke-linejoin="round" d="m155.651895 173.2547775 -68.4773775 2.40597 -4.9525875 -27.4821225 68.47638 -2.40597 4.953585 27.4821225Z" stroke-width="0.5"></path><path id="Vector_10" stroke="#120071" stroke-linecap="round" stroke-linejoin="round" d="m118.9369125 154.07883750000002 -29.42226 1.0334100000000002" stroke-width="0.5"></path><path id="Vector_11" stroke="#120071" stroke-linecap="round" stroke-linejoin="round" d="m119.9304225 159.214965 -29.42226 1.0344075" stroke-width="0.5"></path><path id="Vector_12" stroke="#120071" stroke-linecap="round" stroke-linejoin="round" d="m120.91196250000002 164.7939825 -29.42226 1.0334100000000002" stroke-width="0.5"></path><path id="Vector_13" stroke="#120071" stroke-linecap="round" stroke-linejoin="round" d="m144.842985 154.7471625 -8.778997500000001 0.3082275 1.5551025 8.628375 8.778997500000001 -0.3082275 -1.5551025 -8.628375Z" stroke-width="0.5"></path><path id="Vector_14" fill="#948ae3" d="M140.79114 90.80841000000001 72.31875000000001 93.21437999999999 77.26834500000001 120.6975l68.47638 -2.40597 -4.953585 -27.48312Zm-10.5485625 17.47221L128.687475 99.65025000000001l8.778 -0.309225 1.5551025 8.6293725 -8.778 0.3102225Z" stroke-width="0.5"></path><path id="Vector_15" stroke="#120071" stroke-linecap="round" stroke-linejoin="round" d="m145.74472500000002 118.29053250000001 -68.47638 2.40597 -4.953585 -27.481125000000002 68.47638 -2.4069675 4.953585 27.4821225Z" stroke-width="0.5"></path><path id="Vector_16" stroke="#120071" stroke-linecap="round" stroke-linejoin="round" d="m125.36580000000001 99.3440175 -45.583755000000004 1.6009875" stroke-width="0.5"></path><path id="Vector_17" stroke="#120071" stroke-linecap="round" stroke-linejoin="round" d="m110.4422025 106.2806325 -29.42226 1.0344075" stroke-width="0.5"></path><path id="Vector_18" stroke="#120071" stroke-linecap="round" stroke-linejoin="round" d="m137.4664725 99.3440175 -8.778997500000001 0.309225 1.5551025 8.6273775 8.779995 -0.3082275 -1.5561 -8.628375Z" stroke-width="0.5"></path></g><g id="paper"><path id="Vector_19" fill="#6153bd" d="M74.6519025 92.35852500000001c9.523132500000001 -4.6563300000000005 14.234325 -19.7973825 4.1416200000000005 -33.8880675 -6.315172500000001 -8.8179 -10.3291125 -13.659765000000002 -13.92111 -17.3565l-13.3665 6.8657925A57.63555 57.63555 0 0 1 70.224 60.690892500000004c16.269225 17.0522625 9.6089175 28.5354825 4.4279025 31.6676325Z" stroke-width="0.5"></path><path id="Vector_20" stroke="#120071" stroke-linecap="round" stroke-linejoin="round" d="M74.6519025 92.35852500000001c9.523132500000001 -4.6563300000000005 14.234325 -19.7973825 4.1416200000000005 -33.8880675 -6.315172500000001 -8.8179 -10.3291125 -13.659765000000002 -13.92111 -17.3565l-13.3665 6.8657925A57.63555 57.63555 0 0 1 70.224 60.690892500000004c16.269225 17.0522625 9.6089175 28.5354825 4.4279025 31.6676325Z" stroke-width="0.5"></path><path id="Vector_21" stroke="#120071" stroke-linecap="round" stroke-linejoin="round" d="M163.27877999999998 51.54282C160.0638375 33.97086 148.92675000000003 17.1500175 134.46300000000002 4.987500000000001c0 0 -53.059020000000004 15.444292500000001 -82.0573425 24.624285 10.089712500000001 9.382485 13.282710000000002 10.562527500000002 26.3868675 28.8586725 10.8129 15.097162500000001 4.6333874999999995 31.399305000000002 -6.250335000000001 34.720980000000004l67.269405 -2.3491125c10.1415825 -0.935655 17.0841825 -4.9725375000000005 20.9804175 -12.654285 3.8962350000000003 -7.6817475 4.1944875 -17.29665 2.4867675 -26.645220000000002Z" stroke-width="0.5"></path></g><g id="stylus"><path id="Vector_22" stroke="#120071" stroke-linecap="round" stroke-linejoin="round" d="M32.3758575 116.2875525c-0.9675750000000001 -1.1082225 -3.35559 -0.6054825 -5.333632500000001 1.1221875000000001 -1.9780425000000001 1.72767 -2.793 4.02591 -1.8294150000000002 5.134132500000001l2.29425 2.631405 7.164045000000001 -6.2563200000000005 -2.2952475000000003 -2.631405Z" stroke-width="0.5"></path><path id="Vector_23" stroke="#120071" stroke-linecap="round" stroke-linejoin="round" d="m67.01205000000002 159.45935250000002 -8.052817500000002 -12.7310925 -24.285135 -27.8093025 -7.164045000000001 6.2563200000000005 24.285135 27.8093025 11.5301025 9.6947025 3.6867600000000005 -3.21993Z" stroke-width="0.5"></path><path id="Vector_24" stroke="#120071" stroke-linecap="round" stroke-linejoin="round" d="m70.93422 165.65881500000003 -3.92217 -6.1994625 -3.6907500000000004 3.21993 5.6149275 4.7211675c0.70623 0.59052 2.4847725 -0.9665775 1.9979925000000003 -1.741635Z" stroke-width="0.5"></path></g><g id="elements"><g id="Group"><path id="Vector_25" stroke="#120071" stroke-linecap="round" stroke-linejoin="round" d="m166.3341225 167.5311225 6.852825 6.852825" stroke-width="0.5"></path><path id="Vector_26" stroke="#120071" stroke-linecap="round" stroke-linejoin="round" d="m166.3341225 174.3839475 6.852825 -6.852825" stroke-width="0.5"></path></g><g id="Group_2"><path id="Vector_27" stroke="#120071" stroke-linecap="round" stroke-linejoin="round" d="m46.83262500000001 175.24878 3.4952400000000003 3.4952400000000003" stroke-width="0.5"></path><path id="Vector_28" stroke="#120071" stroke-linecap="round" stroke-linejoin="round" d="m46.83262500000001 178.74402 3.4952400000000003 -3.4952400000000003" stroke-width="0.5"></path></g><path id="Vector_29" stroke="#120071" stroke-linecap="round" stroke-linejoin="round" d="m31.4142675 107.02975500000001 2.99649 4.9426125 3.5231700000000004 -7.383495000000001" stroke-width="0.5"></path><g id="Group_3"><path id="Vector_30" stroke="#120071" stroke-linecap="round" stroke-linejoin="round" d="M135.9363075 65.09685h9.69171" stroke-width="0.5"></path><path id="Vector_31" stroke="#120071" stroke-linecap="round" stroke-linejoin="round" d="M140.7821625 69.9437025v-9.69171" stroke-width="0.5"></path></g><g id="Group_4"><path id="Vector_32" stroke="#120071" stroke-linecap="round" stroke-linejoin="round" d="M111.33995250000001 76.70675250000001h5.2867500000000005" stroke-width="0.5"></path><path id="Vector_33" stroke="#120071" stroke-linecap="round" stroke-linejoin="round" d="M113.98332750000002 79.35012750000001v-5.2867500000000005" stroke-width="0.5"></path></g></g><g id="check"><path id="Vector_34" fill="#6153bd" d="m159.88329 114.37534500000001 -17.89515 17.89515 -9.075255000000002 -9.0762525 -14.8098825 14.810880000000001 23.885137500000003 23.885137500000003 32.70603 -32.7050325 -14.810880000000001 -14.8098825Z" stroke-width="0.5"></path><path id="Vector_35" stroke="#120071" stroke-linecap="round" stroke-linejoin="round" d="m159.88329 114.37534500000001 -17.89515 17.89515 -9.075255000000002 -9.0762525 -14.8098825 14.810880000000001 23.885137500000003 23.885137500000003 32.70603 -32.7050325 -14.810880000000001 -14.8098825Z" stroke-width="0.5"></path></g></g></svg>