<svg xmlns="http://www.w3.org/2000/svg" fill="none" viewBox="-0.25 -0.25 200 200" id="Documents-4--Streamline-Bangalore.svg"><desc>Documents 4 Streamline Illustration: https://streamlinehq.com</desc><g id="documents-4--work-documents"><g id="document 2"><path id="vector" stroke="#120071" stroke-linecap="round" stroke-linejoin="round" d="m26.0876175 170.37699 -9.6627825 0.8678250000000001 -8.52264 -94.964793 22.9355175 -2.0578425000000005" stroke-width="0.5"></path><path id="vector_2" stroke="#120071" stroke-linecap="round" stroke-linejoin="round" d="m95.335065 150.96963000000002 1.7655750000000001 22.844745000000003 -70.32774 5.4353775 -7.391475000000001 -95.63491350000001 12.4956825 -0.96558" stroke-width="0.5"></path><path id="vector_3" stroke="#120071" stroke-linecap="round" stroke-linejoin="round" d="m28.977375000000002 91.6832175 3.9780300000000004 -0.30723" stroke-width="0.5"></path><path id="vector_4" stroke="#120071" stroke-linecap="round" stroke-linejoin="round" d="m29.830237500000003 102.7215525 4.482765 -0.34713" stroke-width="0.5"></path><path id="vector_5" stroke="#120071" stroke-linecap="round" stroke-linejoin="round" d="m30.683100000000003 113.75889000000001 5.080267500000001 -0.3920175" stroke-width="0.5"></path><path id="vector_6" stroke="#120071" stroke-linecap="round" stroke-linejoin="round" d="m31.53696 124.79722500000001 5.4912375 -0.424935" stroke-width="0.5"></path><path id="vector_7" stroke="#120071" stroke-linecap="round" stroke-linejoin="round" d="m32.3898225 135.83556 5.99697 -0.46383750000000007" stroke-width="0.5"></path><path id="vector_8" stroke="#120071" stroke-linecap="round" stroke-linejoin="round" d="m33.242685 146.87289750000002 6.501705 -0.49875" stroke-width="0.5"></path><path id="vector_9" stroke="#120071" stroke-linecap="round" stroke-linejoin="round" d="M34.096545000000006 157.91123249999998 86.583 153.85440000000003" stroke-width="0.5"></path><path id="vector_10" stroke="#120071" stroke-linecap="round" stroke-linejoin="round" d="m29.4033075 97.20258450000001 4.2303975 -0.32718" stroke-width="0.5"></path><path id="vector_11" stroke="#120071" stroke-linecap="round" stroke-linejoin="round" d="m30.2571675 108.2397225 4.993485000000001 -0.38603250000000006" stroke-width="0.5"></path><path id="vector_12" stroke="#120071" stroke-linecap="round" stroke-linejoin="round" d="m31.110030000000002 119.2780575 5.239867500000001 -0.40498500000000004" stroke-width="0.5"></path><path id="vector_13" stroke="#120071" stroke-linecap="round" stroke-linejoin="round" d="m31.962892500000002 130.3163925 5.7426075 -0.4418925" stroke-width="0.5"></path><path id="vector_14" stroke="#120071" stroke-linecap="round" stroke-linejoin="round" d="m32.817750000000004 141.35472750000002 6.248340000000001 -0.48378750000000004" stroke-width="0.5"></path><path id="vector_15" stroke="#120071" stroke-linecap="round" stroke-linejoin="round" d="m33.669615 152.392065 6.7540725 -0.5216925" stroke-width="0.5"></path><path id="vector_16" stroke="#120071" stroke-linecap="round" stroke-linejoin="round" d="M67.253445 161.6438775s0.58653 -1.633905 1.995 -1.474305c1.4084699999999999 0.15960000000000002 -0.7461300000000001 6.1216574999999995 1.45635 5.1680475 2.2024800000000004 -0.95361 2.7511050000000004 -7.6637925000000005 4.27728 -6.138615000000001 1.526175 1.5251775 -0.57855 8.292217500000001 2.040885 5.914177500000001 2.619435 -2.37804 1.9241775 -5.5311375 5.47029 -4.383015 3.5461125000000004 1.1481225000000002 -0.7451325000000001 5.635875 -0.8069775000000001 3.2309025 -0.061845000000000004 -2.4049725 4.189500000000001 -5.1241575 4.096732500000001 -5.069295" stroke-width="0.5"></path></g><g id="book"><path id="vector_17" fill="#6153bd" fill-rule="evenodd" d="m33.872107500000006 98.80845975000001 1.0763025 8.71206525 41.44014 45.78525 35.112 -4.335135 0.564585 -4.4817675L99.84975 45.48609975l-39.894015 4.927650000000001 -26.083627500000002 48.39471Z" clip-rule="evenodd" stroke-width="0.5"></path><path id="vector_18" fill="#6153bd" fill-rule="evenodd" d="m112.575855 140.4669525 1.8184425 -14.411880000000002 -10.015897500000001 -81.1256775 -3.5421225000000005 0.43690500000000004 11.739577500000001 95.10065250000001Z" clip-rule="evenodd" stroke-width="0.5"></path><path id="vector_19" fill="#6153bd" fill-rule="evenodd" d="m35.6556375 113.24916750000001 5.482260000000001 44.41169250000001 31.5778575 -3.8982300000000003 -37.060117500000004 -40.5134625Z" clip-rule="evenodd" stroke-width="0.5"></path><path id="vector_20" fill="#6153bd" fill-rule="evenodd" d="m56.28294 50.86761225 -27.904065000000003 3.4443675000000002 4.787002500000001 38.768835 23.117062500000003 -42.21320250000001Z" clip-rule="evenodd" stroke-width="0.5"></path><path id="vector_21" fill-rule="evenodd" stroke="#120071" stroke-linecap="round" stroke-linejoin="round" d="m33.1658775 93.080715 0.70623 5.727645L59.955735000000004 50.413650000000004l-3.6727950000000003 0.45386250000000006 -23.117062500000003 42.21320250000001Z" clip-rule="evenodd" stroke-width="0.5"></path><path id="vector_22" stroke="#120071" stroke-linecap="round" stroke-linejoin="round" d="m76.38855000000001 153.30876750000002 -41.3693175 -45.710437500000005" stroke-width="0.5"></path><path id="vector_23" stroke="#120071" stroke-linecap="round" stroke-linejoin="round" d="m72.71775000000001 153.76263 -37.062112500000005 -40.5134625" stroke-width="0.5"></path><path id="vector_24" stroke="#120071" stroke-linecap="round" stroke-linejoin="round" d="m111.50354250000001 148.9736325 -70.365645 8.6872275L28.378875 54.31188l75.999525 -9.382485 10.015897500000001 81.1256775" stroke-width="0.5"></path></g><g id="document 1"><path id="vector_25" fill="#ffc25b" fill-rule="evenodd" d="m190.30305 87.9042885 -10.93659 -1.3167000000000002 3.9481050000000004 -9.9939525 6.988485000000001 11.310652500000002Z" clip-rule="evenodd" stroke-width="0.5"></path><path id="vector_26" stroke="#120071" stroke-linecap="round" stroke-linejoin="round" d="m182.47367250000002 149.9671425 7.8293775000000005 -62.06265450000001 -10.93659 -1.3167000000000002 3.9481050000000004 -9.9939525 -61.699365 -7.7805 -12.004912500000001 95.16768450000001 69.982605 8.827875 2.22243 -17.6148525" stroke-width="0.5"></path><path id="vector_27" stroke="#120071" stroke-linecap="round" stroke-linejoin="round" d="m128.45306250000002 83.955585 52.6350825 6.6403575" stroke-width="0.5"></path><path id="vector_28" stroke="#120071" stroke-linecap="round" stroke-linejoin="round" d="m161.31869250000003 99.260028 17.980935000000002 2.2685145" stroke-width="0.5"></path><path id="vector_29" stroke="#120071" stroke-linecap="round" stroke-linejoin="round" d="m159.933165 110.2446975 17.980935000000002 2.2733025000000002" stroke-width="0.5"></path><path id="vector_30" stroke="#120071" stroke-linecap="round" stroke-linejoin="round" d="m158.5476375 121.22817 17.980935000000002 2.2683150000000003" stroke-width="0.5"></path><path id="vector_31" stroke="#120071" stroke-linecap="round" stroke-linejoin="round" d="m122.91095250000001 127.89147 52.2320925 6.589485" stroke-width="0.5"></path><path id="vector_32" stroke="#120071" stroke-linecap="round" stroke-linejoin="round" d="m121.525425 138.87593999999999 52.2320925 6.588487500000001" stroke-width="0.5"></path><path id="vector_33" stroke="#120071" stroke-linecap="round" stroke-linejoin="round" d="m120.1398975 149.85941250000002 52.2320925 6.589485" stroke-width="0.5"></path><path id="vector_34" stroke="#120071" stroke-linecap="round" stroke-linejoin="round" d="m127.75980000000001 89.44772025 52.2320925 6.588487500000001" stroke-width="0.5"></path><path id="vector_35" stroke="#120071" stroke-linecap="round" stroke-linejoin="round" d="m160.62543 104.75246250000001 17.980935000000002 2.2683150000000003" stroke-width="0.5"></path><path id="vector_36" stroke="#120071" stroke-linecap="round" stroke-linejoin="round" d="m159.23990250000003 115.73693250000001 17.980935000000002 2.2673175000000003" stroke-width="0.5"></path><path id="vector_37" stroke="#120071" stroke-linecap="round" stroke-linejoin="round" d="m123.6032175 122.4002325 52.2320925 6.588487500000001" stroke-width="0.5"></path><path id="vector_38" stroke="#120071" stroke-linecap="round" stroke-linejoin="round" d="m122.21769 133.383705 52.2320925 6.588487500000001" stroke-width="0.5"></path><path id="vector_39" stroke="#120071" stroke-linecap="round" stroke-linejoin="round" d="m120.83216250000001 144.368175 52.2320925 6.588487500000001" stroke-width="0.5"></path><path id="vector_40" fill="#ffc25b" d="m127.25606250000001 94.14434925 -2.9516025000000004 23.08983075 31.3324725 4.00596 2.9526000000000003 -23.08983075 -31.333470000000002 -4.00596Z" stroke-width="0.5"></path><path id="vector_41" stroke="#120071" stroke-linecap="round" stroke-linejoin="round" d="m127.25606250000001 94.14434925 -2.9516025000000004 23.08983075 31.3324725 4.00596 2.9526000000000003 -23.08983075 -31.333470000000002 -4.00596Z" stroke-width="0.5"></path><path id="vector_42" stroke="#120071" stroke-linecap="round" stroke-linejoin="round" d="m183.31456500000002 76.593636 6.988485000000001 11.310652500000002" stroke-width="0.5"></path></g><g id="tick"><path id="vector_43" fill="#ffc25b" d="M166.59048 55.000155c13.810387500000001 0 25.0063275 -11.195740500000001 25.0063275 -25.0063275C191.5968075 16.1832405 180.40086750000003 4.987500000000001 166.59048 4.987500000000001c-13.810387500000001 0 -25.0063275 11.195740500000001 -25.0063275 25.0063275 0 13.810587000000002 11.19594 25.0063275 25.0063275 25.0063275Z" stroke-width="0.5"></path><path id="vector_44" stroke="#120071" stroke-linecap="round" stroke-linejoin="round" d="M166.59048 55.000155c13.810387500000001 0 25.0063275 -11.195740500000001 25.0063275 -25.0063275C191.5968075 16.1832405 180.40086750000003 4.987500000000001 166.59048 4.987500000000001c-13.810387500000001 0 -25.0063275 11.195740500000001 -25.0063275 25.0063275 0 13.810587000000002 11.19594 25.0063275 25.0063275 25.0063275Z" stroke-width="0.5"></path><path id="vector_45" stroke="#120071" stroke-linecap="round" stroke-linejoin="round" d="m152.8678725 29.99372775 9.675749999999999 13.167 17.77146 -26.323027500000002" stroke-width="0.5"></path></g><g id="details"><g id="group"><path id="vector_46" stroke="#120071" stroke-linecap="round" stroke-linejoin="round" d="M9.675759975000002 20.78041875H22.743000000000002" stroke-width="0.5"></path><path id="vector_47" stroke="#120071" stroke-linecap="round" stroke-linejoin="round" d="M16.209375 14.245098v13.06725" stroke-width="0.5"></path></g><g id="group_2"><path id="vector_48" stroke="#120071" stroke-linecap="round" stroke-linejoin="round" d="m114.83419500000001 42.187267500000004 6.073777500000001 6.471780000000001" stroke-width="0.5"></path><path id="vector_49" stroke="#120071" stroke-linecap="round" stroke-linejoin="round" d="m121.106475 42.386967000000006 -6.4707825 6.072780000000001" stroke-width="0.5"></path></g><g id="group_3"><path id="vector_50" stroke="#120071" stroke-linecap="round" stroke-linejoin="round" d="m101.3090925 181.35148500000003 6.073777500000001 6.4707825" stroke-width="0.5"></path><path id="vector_51" stroke="#120071" stroke-linecap="round" stroke-linejoin="round" d="m107.5813725 181.54998750000001 -6.4707825 6.073777500000001" stroke-width="0.5"></path></g><g id="group_4"><path id="vector_52" stroke="#120071" stroke-linecap="round" stroke-linejoin="round" d="M17.7225825 186.6152925 25.137 194.51250000000002" stroke-width="0.5"></path><path id="vector_53" stroke="#120071" stroke-linecap="round" stroke-linejoin="round" d="m25.3773975 186.85868250000001 -7.8972075 7.411425" stroke-width="0.5"></path></g></g><g id="pen"><path id="vector_54" fill="#6153bd" d="m165.76056 161.6339025 -0.5226900000000001 -1.1231849999999999 9.6966975 -4.506705 1.00947 -1.48827 8.859795 -4.11768 -0.57855 -1.2458775000000002 -23.1110775 10.743075 1.87929 4.043865 14.251282500000002 -6.624397500000001 -1.7885175 -0.18753 -9.6957 4.506705Z" stroke-width="0.5"></path><path id="vector_55" fill="#6153bd" d="m160.20648 160.3172025 -1.2369 0.5755574999999999 1.8802875000000001 4.043865 1.2378975 -0.5755574999999999 -1.881285 -4.043865Z" stroke-width="0.5"></path><g id="group_5"><path id="vector_56" fill="#6153bd" d="m141.40260750000002 169.7874675 -10.659285 4.9545825 1.3206900000000001 2.8418775000000003 10.659285 -4.9545825 -1.3206900000000001 -2.8418775000000003Z" stroke-width="0.5"></path><path id="vector_57" fill="#6153bd" d="m159.2498775 161.4922575 -16.943535 7.8752625 1.3206900000000001 2.8418775000000003 16.943535 -7.8752625 -1.3206900000000001 -2.8418775000000003Z" stroke-width="0.5"></path></g><path id="vector_58" stroke="#120071" stroke-linecap="round" stroke-linejoin="round" d="m186.103575 153.19605 -1.87929 -4.043865 -25.254705 11.73858 1.87929 4.043865 25.254705 -11.73858Z" stroke-width="0.5"></path><path id="vector_59" stroke="#120071" stroke-linecap="round" stroke-linejoin="round" d="m186.10557 153.1970475 -1.3017375 -2.798985 -8.859795 4.11768 -1.00947 1.48827 -9.6966975 4.506705 0.5226900000000001 1.1231849999999999 9.6957 -4.506705 1.7885175 0.18753 8.860792499999999 -4.11768Z" stroke-width="0.5"></path><path id="vector_60" stroke="#120071" stroke-linecap="round" stroke-linejoin="round" d="m159.250875 161.49125999999998 -28.507552500000003 13.250790000000002 1.3206900000000001 2.84088 28.507552500000003 -13.250790000000002 -1.3206900000000001 -2.84088Z" stroke-width="0.5"></path><path id="vector_61" stroke="#120071" stroke-linecap="round" stroke-linejoin="round" d="m131.9123925 177.25974000000002 -1.0184475 -2.192505 -4.2663075 1.258845 -3.1271625 3.5112 4.6992225 -0.12768000000000002 3.712695 -2.44986Z" stroke-width="0.5"></path><path id="vector_62" stroke="#120071" stroke-linecap="round" stroke-linejoin="round" d="m127.71591000000001 177.8771925 3.6877575000000005 -1.713705" stroke-width="0.5"></path></g></g></svg>