<svg xmlns="http://www.w3.org/2000/svg" fill="none" viewBox="-0.25 -0.25 200 200" id="Product-Bring-Solutions-To-Problems-01--Streamline-Bangalore.svg"><desc>Product Bring Solutions To Problems 01 Streamline Illustration: https://streamlinehq.com</desc><g><g><path fill="#ffc25b" d="m153.7855725 122.07804 -34.0755975 5.07927c-1.64388 -7.36155 -2.51769 -11.030355 -3.0922500000000004 -13.66575 -2.4039750000000004 -10.948560000000002 -11.9171325 -14.705145000000002 -14.55153 -15.537060000000002 -0.33117 1.985025 -11.89419 8.860792499999999 -17.1420375 5.717670000000001C65.713305 128.7543075 53.865 145.146225 28.47663 169.17600000000002c-3.904215 3.6199275 7.467285 16.05177 11.3904525 12.4887 24.432765 -21.893130000000003 37.42221 -33.8751 55.850025 -56.304885l-3.5620725 -11.826360000000001 15.275715000000002 26.2452225c1.0852800000000002 1.8613350000000002 2.7161925 3.3446175000000005 4.6712925 4.2503475 1.9560975000000003 0.9047325 4.1416200000000005 1.187025 6.2633025 0.8099700000000001l38.2830525 -6.89871c3.4314 -0.5595975000000001 0.6513675000000001 -16.496655 -2.8628250000000004 -15.862245Z" stroke-width="0.5"></path><path fill="#ffc25b" d="m68.3516925 39.20175 -5.723655000000001 -26.588362500000002 -8.812912500000001 1.89525c-0.45705450000000003 0.10643325000000001 -0.8745082500000001 0.3405465 -1.20368325 0.6749085 -0.32927475 0.33446175 -0.5568045 0.7555065 -0.6560557499999999 1.2141570000000002 -0.09925125000000001 0.4586505 -0.066234 0.936054 0.09526125 1.3767495 0.1613955 0.44059575 0.4446855 0.8263290000000001 0.81685275 1.1122125 0.8484735000000001 0.6537615 1.4924595 1.53644925 1.8560482500000002 2.5439242500000003 0.36358875 1.00757475 0.43171800000000005 2.09804175 0.196308 3.14302275 -0.23541 1.0448812500000002 -0.76458375 2.0007855 -1.52507775 2.7550950000000003 -0.76059375 0.75420975 -1.72078725 1.2754035000000001 -2.7676635000000003 1.502235 -1.0468762500000002 0.22673175 -2.13674475 0.149625 -3.14122725 -0.22234275 -1.0044825 -0.37196775000000004 -1.88178375 -1.0232355000000002 -2.5284630000000003 -1.8770955 -0.646779 -0.8538600000000001 -1.0360035 -1.8747015 -1.12188825 -2.9424255 -0.08588475 -1.0676242500000002 0.1350615 -2.1376425 0.6370035 -3.08397075 0.21925050000000001 -0.41356350000000003 0.3166065 -0.8807925000000001 0.2806965 -1.34752275 -0.03581025 -0.46673025 -0.20349 -0.9136102500000001 -0.48348825000000006 -1.2887700000000002 -0.27989850000000005 -0.37515975 -0.66064425 -0.6630382499999999 -1.0978485 -0.830319 -0.4371045 -0.167181 -0.9128122500000001 -0.20688150000000002 -1.37166225 -0.11441325000000001l-8.225385000000001 1.7625825L39.3015 45.4750275c0.13575975 0.6283252500000001 0.5155080000000001 1.17695025 1.055754 1.52527725 0.540246 0.34822725000000004 1.19670075 0.46772775 1.825026 0.33206775l13.512135 -2.8997325000000003c0.1266825 -1.3705650000000003 0.37306500000000004 -4.17354 1.023435 -5.041365000000001 0.7391475000000001 -0.9845325 1.2698175 2.29425 1.629915 4.4538375l8.149575 -1.7625825c0.627627 -0.13665750000000002 1.17535425 -0.51680475 1.522983 -1.0568512500000002 0.34762875 -0.5400465 0.4668300000000001 -1.1960025 0.33136950000000004 -1.82392875Z" stroke-width="0.5"></path></g><g><path fill="#6153bd" d="M92.28770250000001 65.84796750000001 90.47325000000001 67.91379c-0.06832875000000001 -0.47471025 -0.194313 -0.93934575 -0.37506 -1.3835325 0.74942175 -0.15890175 1.4824845 -0.38732925 2.1895124999999998 -0.6822900000000001Z" stroke-width="0.5"></path><path fill="#6153bd" d="M105.47764500000001 83.87179499999999c-0.57057 1.540539 -1.039395 3.116988 -1.402485 4.7191725 2.35011 0.093765 2.5017300000000002 0.1506225 4.738125 0.1506225l-3.33564 -4.869795Z" stroke-width="0.5"></path><path fill="#6153bd" d="M97.65525000000001 122.949855c-0.6443850000000001 0.8149575 -1.3077225000000001 1.6109625 -1.933155 2.4069675l-3.5620725 -11.826360000000001 5.4952275 9.4193925Z" stroke-width="0.5"></path><path fill="#6153bd" d="M99.48865500000001 54.2689875c-6.022905000000001 -6.89871 -9.702682500000002 -3.7146900000000005 -11.708655 0.22743000000000002 2.1226800000000003 -4.01793 5.476275 -2.80497 6.234375 1.629915 0.07581 0.5117175 0.3600975 0.4738125 0.416955 0.4359075 0.30353925000000004 -0.08049825 0.58742775 -0.22234275 0.83391 -0.416955 1.7625825 -1.2319125000000002 2.9755425000000004 1.8573450000000002 0.34114500000000003 2.7481125 -0.34234200000000004 1.9152 -0.53874975 3.853542 -0.5875275 5.7984675 0 0 10.9326 -3.0463649999999998 4.4697975 -10.4228775Z" stroke-width="0.5"></path><path fill="#6153bd" d="M106.463175 52.582215c-2.236395 2.3311575 -5.73762 2.6104575000000003 -7.827382500000001 0.60648 -2.0897625000000004 -2.0039775 -1.97106 -5.5151775 0.26533500000000004 -7.846335 2.236395 -2.3311575 5.73762 -2.6104575000000003 7.827382500000001 -0.60648 2.0897625000000004 2.0039775 1.97106 5.5151775 -0.26533500000000004 7.846335Z" stroke-width="0.5"></path><path fill="#6153bd" d="M27.93 172.792935C16.412865 181.84425000000002 9.3765 185.59285500000001 9.5630325 187.101075c0.399 3.2408775000000003 12.3001725 -2.0658225000000003 18.269212500000002 -1.5730575 1.4137567500000001 0.1486275 2.8430745 0.019950000000000002 4.207455 -0.37905 1.5351525 -0.4738125 2.6932500000000004 -1.7625825 4.16955 -3.25983 -3.7904002500000002 -1.90323 -6.74040675 -5.1441075000000005 -8.279250000000001 -9.0962025Z" stroke-width="0.5"></path><path fill="#6153bd" d="M165.7845 124.6366275c-4.1984775 -2.910705 -5.985 -1.89525 -9.83535 -0.8907675 1.8024825 3.7256625 2.543625 7.87626 2.1416325 11.995935000000001 4.869795 -0.6812925000000001 10.631355 -1.3835325 14.194425 -1.596 5.174032500000001 -0.29925 9.702682500000002 -0.7571025 10.0637775 -1.6109625 1.2907650000000002 -2.9895075 -11.676735 -4.449847500000001 -16.564485 -7.898205000000001Z" stroke-width="0.5"></path><path fill="#6153bd" d="m148.6863525 71.1905775 -4.0169325 0.399c0.9097200000000001 -2.6144475000000003 2.6334000000000004 -2.8059675000000004 4.0169325 -0.399Z" stroke-width="0.5"></path><path fill="#6153bd" d="M149.44545 82.7156925c-0.8907675 1.97106 -2.312205 2.04687 -3.525165 0.28428749999999997l3.525165 -0.28428749999999997Z" stroke-width="0.5"></path><path fill="#6153bd" d="M123.4436175 34.180335c-0.08478750000000002 0.0181545 -0.17256749999999998 0.0193515 -0.257355 0.0033915 -0.08478750000000002 -0.015960000000000002 -0.16658250000000002 -0.04877775 -0.2384025 -0.09635850000000001 -0.0728175 -0.04768050000000001 -0.13466250000000002 -0.10922625000000001 -0.1825425 -0.18104625 -0.048877500000000004 -0.07191975 -0.081795 -0.15271725000000003 -0.09875250000000001 -0.23770425000000003l-1.6109625 -7.880250000000001c-0.034912500000000006 -0.16837800000000003 -0.0019950000000000002 -0.34383825 0.09177 -0.48777750000000003 0.0947625 -0.14393925000000002 0.2423925 -0.24458700000000003 0.4099725 -0.27979875000000004 0.16857750000000002 -0.03521175 0.3441375 -0.0019950000000000002 0.488775 0.092169 0.14364 0.094164 0.2443875 0.24169425 0.27930000000000005 0.41007225l1.6109625 7.880250000000001c0.021945 0.08349075 0.0269325 0.170772 0.013965000000000002 0.256158 -0.0129675 0.085386 -0.04389 0.167181 -0.0907725 0.240198 -0.045885 0.07291725 -0.10673250000000001 0.13556025 -0.1785525 0.18383925 -0.07182 0.048378750000000005 -0.15261750000000002 0.08129625 -0.237405 0.09685725Z" stroke-width="0.5"></path><path fill="#6153bd" d="m80.04438750000001 81.10473000000002 -2.9925 7.295715c0.6822900000000001 0.056857500000000005 1.3835325 0.0947625 2.0658225000000003 0.13266750000000002 -0.3796485 -2.5142985 -0.05905200000000001 -5.0844570000000004 0.9266775 -7.4283825000000006Z" stroke-width="0.5"></path><path fill="#6153bd" d="M6.51168 108.545955c-0.16524585 0.1586025 -0.3857931 0.24738000000000002 -0.615128325 0.24738000000000002 -0.22934520000000003 -0.0009975000000000001 -0.449563275 -0.08977500000000001 -0.61424055 -0.249375 -0.16466730000000002 -0.15960000000000002 -0.26092605 -0.37705500000000003 -0.26846715 -0.60648 -0.007551075000000001 -0.22942500000000002 0.074204025 -0.45186750000000003 0.228018525 -0.62244 0.16524585 -0.1586025 0.385783125 -0.24738000000000002 0.615128325 -0.24738000000000002 0.22934520000000003 0.0009975000000000001 0.449563275 0.08977500000000001 0.6142305750000001 0.249375 0.16467727499999998 0.15960000000000002 0.26092605 0.37705500000000003 0.26847712500000004 0.60648 0.007551075000000001 0.22942500000000002 -0.074204025 0.45186750000000003 -0.228018525 0.62244Z" stroke-width="0.5"></path><path fill="#6153bd" d="M92.230845 78.0912825c0.018653250000000003 0.20239275 -0.023142 0.40568325000000005 -0.11999925000000002 0.58423575 -0.09685725 0.17865225 -0.24448725000000002 0.32448675 -0.42423675000000005 0.41914950000000006 -0.1797495 0.09466275 -0.38353875000000004 0.13396425 -0.58563225 0.11281725000000001 -0.2020935 -0.021047250000000003 -0.39331425000000003 -0.10164525 -0.5496225000000001 -0.23142000000000001 -0.15630825 -0.1298745 -0.27062175 -0.30304050000000005 -0.32847675 -0.49785225 -0.057855000000000004 -0.19471200000000002 -0.05665800000000001 -0.40229175 0.0033915 -0.5963055 0.0600495 -0.1941135 0.17635800000000001 -0.36608250000000003 0.33416250000000003 -0.49406175 0.15770475 -0.12797925000000002 0.34992300000000004 -0.20638275 0.552216 -0.2252355 0.134463 -0.0129675 0.27022275 0.00069825 0.399399 0.040398750000000004 0.12917625000000002 0.03980025 0.24927525000000003 0.10463775 0.35321475 0.19102125 0.1039395 0.08628374999999999 0.18972450000000002 0.19241775 0.252567 0.312018 0.06274275 0.1197 0.10114650000000001 0.25067175 0.11301675 0.38523450000000004Z" stroke-width="0.5"></path><path fill="#6153bd" d="M90.56302500000001 85.008945c0.018653250000000003 0.20229300000000003 -0.023142 0.40558350000000004 -0.11999925000000002 0.58423575 -0.09685725 0.1785525 -0.24448725000000002 0.324387 -0.42423675000000005 0.41914950000000006 -0.1797495 0.09466275 -0.38353875000000004 0.13396425 -0.58563225 0.11281725000000001 -0.2020935 -0.021147000000000003 -0.39331425000000003 -0.10164525 -0.5496225000000001 -0.23142000000000001 -0.15630825 -0.1298745 -0.27062175 -0.30304050000000005 -0.32847675 -0.49785225 -0.057855000000000004 -0.19471200000000002 -0.05665800000000001 -0.40229175 0.0033915 -0.59640525 0.0600495 -0.19401375 0.17635800000000001 -0.36598275 0.33416250000000003 -0.493962 0.15770475 -0.128079 0.34992300000000004 -0.20638275 0.552216 -0.2252355 0.13456275 -0.013167 0.2703225 0.0004987500000000001 0.3995985 0.0400995 0.12917625000000002 0.03970050000000001 0.24927525000000003 0.104538 0.35321475 0.1909215 0.10403925000000001 0.0863835 0.18982425 0.1925175 0.252567 0.31221750000000004 0.06274275 0.11979975000000001 0.10104675 0.25077150000000004 0.11281725000000001 0.38543400000000005Z" stroke-width="0.5"></path><path fill="#6153bd" d="M90.56302500000001 92.7405675c0.018653250000000003 0.20229300000000003 -0.023142 0.40558350000000004 -0.11999925000000002 0.58423575 -0.09685725 0.1785525 -0.24448725000000002 0.32448675 -0.42423675000000005 0.41914950000000006 -0.1797495 0.09466275 -0.38353875000000004 0.13396425 -0.58563225 0.11281725000000001 -0.2020935 -0.021047250000000003 -0.39331425000000003 -0.10164525 -0.5496225000000001 -0.23142000000000001 -0.15630825 -0.1298745 -0.27062175 -0.30304050000000005 -0.32847675 -0.49785225 -0.057855000000000004 -0.19471200000000002 -0.05665800000000001 -0.40229175 0.0033915 -0.59640525 0.0600495 -0.19401375 0.17635800000000001 -0.36598275 0.33416250000000003 -0.493962 0.15770475 -0.128079 0.34992300000000004 -0.20638275 0.552216 -0.2252355 0.134463 -0.01306725 0.27022275 0.00069825 0.399399 0.040398750000000004s0.24927525000000003 0.10463775 0.35321475 0.1909215c0.1039395 0.0863835 0.18972450000000002 0.19241775 0.252567 0.31211775 0.06274275 0.1197 0.10114650000000001 0.25067175 0.11301675 0.38523450000000004Z" stroke-width="0.5"></path></g><g><path stroke="#120071" stroke-linecap="round" stroke-linejoin="round" d="M41.59575 180.12655500000002 66.83250000000001 189.94395l6.95457 -17.909115c0.40488525000000003 -0.9865275 1.08059175 -1.8373950000000001 1.94921475 -2.4558450000000005 0.8685232500000001 -0.61845 1.89435225 -0.97755 2.95868475 -1.0374 1.06443225 -0.05985 2.12397675 0.18354 3.0559410000000002 0.7012425 0.932064 0.5177025000000001 1.6984432500000002 1.2887700000000002 2.2106595 2.2234275 1.1683717500000002 2.1456225 2.9253682500000004 3.9121950000000005 5.064108000000001 5.093235 2.1388395 1.1800425 4.5703455 1.725675 7.008435 1.5710625 2.4380895000000002 -0.15561 4.781217 -1.003485 6.753274500000001 -2.4448725000000002 1.973055 -1.4413875 3.4922475 -3.4164375 4.3800225 -5.691735 0.8877750000000001 -2.276295 1.1072250000000001 -4.7590725 0.6314175000000001 -7.1550675 -0.4758075 -2.395995 -1.625925 -4.606455 -3.3146925 -6.3710325 -1.689765 -1.7655750000000001 -3.848355 -3.010455 -6.221208 -3.5900025 -2.373252 -0.5795475 -4.862712750000001 -0.468825 -7.175217000000001 0.31920000000000004 -1.01036775 0.3481275 -2.09883975 0.40199250000000003 -3.1386337500000003 0.15561 -1.03989375 -0.2463825 -1.9884165000000003 -0.7830375 -2.7350452499999998 -1.5471225 -0.7467285000000001 -0.7650825000000001 -1.2608400000000002 -1.725675 -1.48258425 -2.771055 -0.22174425 -1.0453800000000002 -0.14194425000000002 -2.132655 0.23012325 -3.134145l4.70022 -12.06975" stroke-width="0.5"></path><path stroke="#120071" stroke-linecap="round" stroke-linejoin="round" d="m26.202330000000003 174.1385625 -17.681685 -6.882750000000001c-0.676594275 -0.26334 -1.294705125 -0.6573525000000001 -1.819011075 -1.159095 -0.524315925 -0.5027400000000001 -0.9445527 -1.1032350000000002 -1.2367104750000002 -1.76757 -0.292157775 -0.6643350000000001 -0.45052087500000004 -1.3805399999999999 -0.466022025 -2.10672 -0.015511125 -0.7251825000000001 0.112128975 -1.4473725000000002 0.375628575 -2.1236775000000003l20.5814175 -52.897425000000005c0.26324025000000006 -0.6773025 0.6574522500000001 -1.29675 1.1600925000000002 -1.8214350000000001 0.5027400000000001 -0.5246850000000001 1.104033 -0.94563 1.76946525 -1.2378975 0.6654322500000001 -0.2922675 1.3819365000000001 -0.4498725 2.1085155 -0.46483500000000005 0.72667875 -0.0149625 1.4490682500000003 0.11371500000000001 2.12597175 0.3780525l39.7005 15.4263375" stroke-width="0.5"></path><path stroke="#120071" stroke-linecap="round" stroke-linejoin="round" d="M166.55856 73.23944250000001c0.117705 0.451668 0.2962575 0.88528125 0.5306700000000001 1.2887700000000002" stroke-width="0.5"></path><path stroke="#120071" stroke-linecap="round" stroke-linejoin="round" d="M166.5056925 70.6060425c0.16758 -0.79829925 0.50673 -1.5507135 0.99351 -2.20517325 0.48678 -0.65445975 1.1102175 -1.195404 1.8264225 -1.5853267500000001 2.144625 -1.1684715 3.9121950000000005 -2.925468 5.0922375 -5.064108000000001 1.1800425 -2.13873975 1.7246775 -4.570046250000001 1.570065 -7.007836500000001 -0.15561 -2.4377902500000004 -1.003485 -4.7806185 -2.4448725000000002 -6.752576250000001 -1.4413875 -1.9720575000000002 -3.4164375 -3.4913497500000004 -5.691735 -4.37892525 -2.276295 -0.8875755000000001 -4.758075 -1.10652675 -7.15407 -0.6311182500000001 -2.395995 0.47540850000000007 -4.606455 1.62542625 -6.3710325 3.3145927500000005 -1.7645775 1.6892662500000002 -3.0094575 3.8473575 -3.5890050000000002 6.22041 -0.57855 2.3730525 -0.468825 4.86211425 0.31920000000000004 7.174419 0.349125 1.01036775 0.40299000000000007 2.09903925 0.15760500000000002 3.1391325 -0.2463825 1.04009325 -0.7830375 1.9888155 -1.5481200000000002 2.7356437500000004 -0.7650825000000001 0.7467285000000001 -1.725675 1.26074025 -2.7720525 1.4821852500000001 -1.0453800000000002 0.22134525 -2.132655 0.14094675 -3.134145 -0.231819l-19.178932500000002 -7.447335000000001 -4.987500000000001 12.829845" stroke-width="0.5"></path><path stroke="#120071" stroke-linecap="round" stroke-linejoin="round" d="m144.9537075 140.049 12.867750000000001 4.987500000000001c0.6773025 0.2643375 1.3994925 0.39301500000000006 2.1256725 0.3780525 0.72618 -0.0149625 1.4433825000000002 -0.173565 2.108715 -0.46583250000000004 0.6653325000000001 -0.2922675 1.2658274999999999 -0.712215 1.7685675 -1.2369 0.5027400000000001 -0.5256825 0.8967525000000001 -1.1441325 1.1600925000000002 -1.8214350000000001l2.90472 -7.47327m0.6014925 -58.232055c0.432915 0.33765375000000003 0.911715 0.61196625 1.4214375000000001 0.8149575l12.489697500000002 4.8328875c0.6773025 0.2631405 1.2957525 0.6573525000000001 1.8204375000000002 1.15999275s0.94563 1.1038335000000001 1.2378975 1.7691660000000002c0.2922675 0.6653325000000001 0.4498725 1.38183675 0.46483500000000005 2.108316 0.0149625 0.72647925 -0.11371500000000001 1.448769 -0.3780525 2.1255727500000003l-14.7520275 37.9478925" stroke-width="0.5"></path><path stroke="#120071" stroke-linecap="round" stroke-linejoin="round" d="M102.543 95.79192c1.2787950000000001 0.09775500000000001 2.4887625000000004 0.61835025 3.4383825000000003 1.4796915000000002s1.5860250000000002 2.01445125 1.8084675000000001 3.2773860000000004" stroke-width="0.5"></path><path stroke="#120071" stroke-linecap="round" stroke-linejoin="round" d="M81.37106250000001 72.25391250000001c2.3922045 -2.4138502500000003 5.6420595 -3.78321825 9.040342500000001 -3.8094525000000004" stroke-width="0.5"></path><path stroke="#120071" stroke-linecap="round" stroke-linejoin="round" d="M97.3091175 48.261045 67.83997500000001 36.8147325" stroke-width="0.5"></path><path stroke="#120071" stroke-linecap="round" stroke-linejoin="round" d="m112.66064250000001 72.50029500000001 6.19647 -15.8432925 -11.8253625 -4.6054575" stroke-width="0.5"></path><path stroke="#120071" stroke-linecap="round" stroke-linejoin="round" d="M77.523705 113.35989000000001 35.943915000000004 97.194405c-1.3655775 -0.5348595 -2.46352575 -1.589217 -3.05324775 -2.9320515 -0.589722 -1.3427347500000002 -0.6230385 -2.8646205 -0.09286725000000001 -4.231993500000001l5.53413 -14.346045c0.357105 -1.0025872500000002 0.42633150000000003 -2.085174 0.199899 -3.1251675000000003 -0.2264325 -1.03989375 -0.7395465 -1.9956982500000002 -1.4811877500000001 -2.7590850000000002 -0.7416412500000001 -0.763287 -1.6822837500000003 -1.3037325 -2.715195 -1.5600900000000002 -1.0330110000000001 -0.2563575 -2.11719375 -0.21835275 -3.1296562500000005 0.109725 -2.3068185000000003 0.7791472500000001 -4.78809975 0.883785 -7.152274500000001 0.30174375000000003 -2.3642745 -0.582141 -4.513288500000001 -1.82672175 -6.194774250000001 -3.58770825 -1.68148575 -1.7609865000000002 -2.8255185 -3.965262 -3.2977350000000003 -6.3538755 -0.47231625 -2.3886135000000004 -0.25316550000000004 -4.86231375 0.63171675 -7.1307285 0.8847825 -2.2683150000000003 2.3984887500000003 -4.2371805 4.36336425 -5.675076750000001 1.9648755 -1.437996 4.299225 -2.285472 6.7289355 -2.4427777500000003 2.4298102500000005 -0.1574055 4.8540345 0.381843 6.9878865 1.5543045000000002 2.13395175 1.17256125 3.88895325 2.9296575 5.05902075 5.064906000000001 2.2034775 4.046857500000001 8.42289 3.99 10.1745 -0.5496225000000001l0.7581 -1.9521075" stroke-width="0.5"></path><path stroke="#120071" stroke-linecap="round" stroke-linejoin="round" d="M90.0932025 66.53325000000001c0.7548082500000001 -0.15181950000000002 1.490664 -0.38603250000000006 2.1945 -0.69825L90.47325000000001 67.89483750000001" stroke-width="0.5"></path><path stroke="#120071" stroke-linecap="round" stroke-linejoin="round" d="M103.6203 72.348675c-2.1186900000000004 -0.04528650000000001 -4.209849 -0.49555800000000005 -6.1595625 -1.326675 -1.266825 -0.6872775 -2.5007325000000002 -1.933155 -2.4448725000000002 -6.330135 0.050274000000000006 -1.9448257500000001 0.24668175 -3.88316775 0.5875275 -5.7984675 2.6343975 -0.871815 1.4453775000000002 -3.94611 -0.34114500000000003 -2.7481125 -0.6573525000000001 0.44089500000000004 -1.1341575000000002 0.7152075 -1.2508650000000001 0 -0.72219 -4.4598225000000005 -4.111695 -5.647845 -6.234375 -1.629915l-0.6633375 1.5351525c-1.5361500000000001 4.3231649999999995 -1.7655750000000001 11.226862500000001 2.9795325000000004 10.479735000000002 0.18533550000000001 0.436107 0.3114195 0.894957 0.37506 1.3645800000000001 0.0249375 0.4738125 -0.49376250000000005 3.0124500000000003 -1.0613400000000002 3.33564 -1.1580975 0.6603450000000001 -3.1650675 1.2887700000000002 -6.766042500000001 1.1181975" stroke-width="0.5"></path><path stroke="#120071" stroke-linecap="round" stroke-linejoin="round" d="M145.89036000000002 83.0468625c10.3630275 -0.9067275000000001 12.375982500000001 -1.5321600000000002 19.05225 -2.5296600000000002 0.6822900000000001 -0.0947625 1.4792925000000001 -0.2443875 2.388015 -0.4359075 3.3565875000000003 -0.71022 3.600975 -1.7955 -0.32219250000000005 -1.74363 -1.9920075000000002 0.026334 -3.9770325000000004 -0.23541 -5.8942275 -0.7770525" stroke-width="0.5"></path><path stroke="#120071" stroke-linecap="round" stroke-linejoin="round" d="M162.54063000000002 77.90474999999999c0.0189525 0.0947625 2.5027275 -0.66234 5.5151775 -1.596 3.3735450000000005 -1.04139 3.581025 -2.4129525000000003 -0.5117175 -1.8383925 -2.0628300000000004 0.39231675 -4.1785275 0.43082025 -6.254325 0.11371500000000001" stroke-width="0.5"></path><path stroke="#120071" stroke-linecap="round" stroke-linejoin="round" d="M160.5705675 72.25391250000001s7.4084325 -2.05086 7.8642900000000004 -2.1945c3.49125 -1.1301675 4.01793 0.133665 1.0423875 1.7246775 -2.7291600000000003 1.4593425000000002 -6.368040000000001 2.9925 -6.368040000000001 2.9925" stroke-width="0.5"></path><path stroke="#120071" stroke-linecap="round" stroke-linejoin="round" d="M144.61056750000003 71.59656s4.74012 -0.4797975 4.778025 -0.4797975c1.3835325 -0.0947625 3.1511025 -1.155105 3.3545925000000003 -2.3690625 0.349125 -2.08278 0.4917675 -5.1680475 1.5351525 -5.0034600000000005 1.6089675 0.25536000000000003 0.97356 4.752090000000001 2.0279175 6.2353725 0.3620925 0.5097225000000001 2.1416325 0 2.8239225 -0.28428749999999997 1.1191950000000002 -0.4698225 4.8687975 -2.0877675 5.229892500000001 -2.2553475 3.3585825000000002 -1.5491175 3.7954875000000006 -0.1625925 1.1371499999999999 1.5351525 -1.3196925 0.79969575 -2.5226775 1.7771460000000001 -3.5760375 2.90472" stroke-width="0.5"></path><path stroke="#120071" stroke-linecap="round" stroke-linejoin="round" d="M159.9261825 70.77561750000001c1.2488700000000001 2.38073325 1.6169475 5.12565375 1.04139 7.7515725" stroke-width="0.5"></path><path stroke="#120071" stroke-linecap="round" stroke-linejoin="round" d="M158.125695 72.272865c-0.2463825 3.070305 -1.596 5.192985000000001 -4.47279 5.76156" stroke-width="0.5"></path><path stroke="#120071" stroke-linecap="round" stroke-linejoin="round" d="M104.07516000000001 88.5909675c0.36309 -1.6021845000000001 0.831915 -3.1786335 1.402485 -4.7191725l3.309705 4.8328875" stroke-width="0.5"></path><path stroke="#120071" stroke-linecap="round" stroke-linejoin="round" d="m95.710125 125.33188500000001 -3.5550900000000003 -11.8014225 5.4952275 9.4193925" stroke-width="0.5"></path><path stroke="#120071" stroke-linecap="round" stroke-linejoin="round" d="M84.9341325 103.65720750000001c-19.5579825 25.5090675 -30.623250000000002 41.446125 -56.45850000000001 65.51580000000001 -3.89025 3.6279075 7.4363625 16.0407975 11.371500000000001 12.4887l6.783 -6.120660000000001C65.037 158.90175000000002 76.917225 147.871395 91.47075000000001 130.49295c0 0 5.5331325 -6.728137500000001 6.1775174999999996 -7.543095000000001l9.7984425 16.80987c1.0822875 1.8643275000000001 2.7122025 3.3506025000000004 4.6683 4.256332500000001 1.957095 0.9047325 4.1446125 1.1860275 6.266295 0.8039850000000001l38.304 -6.882750000000001c3.4304025 -0.5715675 0.5895225 -16.472715 -2.8997325000000003 -15.86025l-34.0755975 5.07927s-2.6503575 -11.67075 -3.0922500000000004 -13.683705000000002c-0.7880250000000001 -3.6628200000000004 -2.5545975000000003 -7.044345000000001 -5.1101925 -9.7844775 -2.5565925000000003 -2.7401325 -5.8064475 -4.73603025 -9.406425 -5.7765225000000004" stroke-width="0.5"></path><path stroke="#120071" stroke-linecap="round" stroke-linejoin="round" d="M87.78 54.49641750000001c2.008965 -3.94212 5.6857500000000005 -7.1251425 11.7116475 -0.22743000000000002 6.4428525 7.3725225000000005 -4.47279 10.441830000000001 -4.47279 10.441830000000001" stroke-width="0.5"></path><path stroke="#120071" stroke-linecap="round" stroke-linejoin="round" d="M106.463175 52.582215c-2.236395 2.3311575 -5.73762 2.6104575000000003 -7.827382500000001 0.60648 -2.0897625000000004 -2.0039775 -1.97106 -5.5151775 0.26533500000000004 -7.846335 2.236395 -2.3311575 5.73762 -2.6104575000000003 7.827382500000001 -0.60648 2.0897625000000004 2.0039775 1.97106 5.5151775 -0.26533500000000004 7.846335Z" stroke-width="0.5"></path><path stroke="#120071" stroke-linecap="round" stroke-linejoin="round" d="M36.20925 181.8891375c-1.4782950000000001 1.49625 -2.6373900000000003 2.77704 -4.16955 3.25983 -1.3645800000000001 0.39800250000000004 -2.7936982500000003 0.52668 -4.207455 0.37905 -5.971035 -0.4758075 -17.86722 4.8129375 -18.269212500000002 1.5730575 -0.11271750000000001 -0.9097200000000001 3.5441175 -3.600975 7.8652875 -6.483750000000001 2.7291600000000003 -1.8194400000000002 6.860805 -4.964557500000001 10.4986875 -7.826385" stroke-width="0.5"></path><path stroke="#120071" stroke-linecap="round" stroke-linejoin="round" d="M155.9461575 123.74586000000001c2.4069675 -0.6254325000000001 4.263315 -1.3236825 6.025897500000001 -0.9097200000000001 1.3735575 0.349125 2.6663175000000003 0.9585975 3.8094525000000004 1.7955 4.90371 3.4294050000000005 17.842282500000003 4.90371 16.564485 7.902195 -0.36309 0.851865 -4.8877500000000005 1.30872 -10.0637775 1.6109625 -3.56307 0.209475 -9.32463 0.9097200000000001 -14.194425 1.596" stroke-width="0.5"></path><path stroke="#120071" stroke-linecap="round" stroke-linejoin="round" d="M146.522775 69.5067975c0.71022 -0.0588525 1.48029 0.49875 2.1635775 1.68378" stroke-width="0.5"></path><path stroke="#120071" stroke-linecap="round" stroke-linejoin="round" d="M149.44545 82.7156925c-0.416955 0.9097200000000001 -0.98553 1.4782950000000001 -1.629915 1.5351525" stroke-width="0.5"></path><path stroke="#120071" stroke-linecap="round" stroke-linejoin="round" d="M123.955335 33.4032825c0.027930000000000003 0.167979 -0.009975000000000001 0.34044675 -0.10573500000000001 0.48099450000000005 -0.09675750000000001 0.14054775 -0.2443875 0.23830275 -0.41097 0.27261675 -0.16658250000000002 0.034314000000000004 -0.34014750000000005 0.0026932500000000003 -0.484785 -0.0883785 -0.14364 -0.09107175 -0.2463825 -0.2344125 -0.28728 -0.39989775l-1.6109625 -7.880250000000001c-0.034912500000000006 -0.16847775 -0.0019950000000000002 -0.343938 0.09177 -0.48787725 0.0947625 -0.14393925000000002 0.2423925 -0.24458700000000003 0.41097 -0.279699 0.16758 -0.03521175 0.34314 -0.00209475 0.48777750000000003 0.09206924999999999 0.14364 0.09426375000000001 0.2443875 0.24169425 0.27930000000000005 0.41017200000000004l1.629915 7.880250000000001Z" stroke-width="0.5"></path><path stroke="#120071" stroke-linecap="round" stroke-linejoin="round" d="m120.75236250000002 21.065205 0.947625 4.586505" stroke-width="0.5"></path><path stroke="#120071" stroke-linecap="round" stroke-linejoin="round" d="M118.42120500000001 9.67573005c-1.1261775 0.23064195 -2.1585900000000002 0.7900399499999999 -2.9665650000000006 1.6073914500000002 -0.8089725000000001 0.8174512500000001 -1.3566000000000003 1.8561480000000001 -1.5740550000000002 2.98481925 -0.21845250000000002 1.12867125 -0.09675750000000001 2.296644 0.349125 3.3561885 0.4458825 1.0595445000000001 1.1960025 1.9630800000000002 2.1555975000000003 2.5964925000000005 0.9585975 0.6333127500000001 2.084775 0.9679740000000001 3.233895 0.96168975 1.1501175000000001 -0.006284250000000001 2.2713075000000003 -0.35331450000000003 3.2239200000000006 -0.9972007500000001 0.9526125 -0.6437865 1.6917600000000002 -1.5555014999999999 2.1266700000000003 -2.6199337500000004 0.43391250000000003 -1.0643325 0.5426400000000001 -2.233602 0.31221750000000004 -3.3597795 -0.15261750000000002 -0.7480252500000001 -0.45186750000000003 -1.45864425 -0.8787975 -2.091159 -0.4279275 -0.63251475 -0.9755550000000001 -1.17455625 -1.6129575 -1.595202 -0.6374025000000001 -0.42064575000000004 -1.3506150000000001 -0.7116863250000001 -2.100735 -0.8563737 -0.7491225 -0.144687375 -1.5201900000000002 -0.1402485 -2.2683150000000003 0.01306725Z" stroke-width="0.5"></path><path stroke="#120071" stroke-linecap="round" stroke-linejoin="round" d="m188.14446000000004 116.0321925 -2.2174425 -0.6633375" stroke-width="0.5"></path><path stroke="#120071" stroke-linecap="round" stroke-linejoin="round" d="m190.835715 114.5538975 0.6443850000000001 -2.2174425" stroke-width="0.5"></path><path stroke="#120071" stroke-linecap="round" stroke-linejoin="round" d="m188.9594175 120.9219375 0.6633375 -2.1984900000000005" stroke-width="0.5"></path><path stroke="#120071" stroke-linecap="round" stroke-linejoin="round" d="m192.31401 117.2451525 2.1984900000000005 0.6443850000000001" stroke-width="0.5"></path><path stroke="#120071" stroke-linecap="round" stroke-linejoin="round" d="M192.318 117.2451525c-0.5526150000000001 -0.1625925 -1.01745 -0.5366550000000001 -1.294755 -1.04139s-0.34314 -1.0982475 -0.18354 -1.65186c-0.1625925 0.5526150000000001 -0.5366550000000001 1.01745 -1.04139 1.294755s-1.0982475 0.34314 -1.65186 0.18354c0.5526150000000001 0.1625925 1.01745 0.5366550000000001 1.294755 1.04139s0.34314 1.0982475 0.18354 1.65186c0.1625925 -0.5526150000000001 0.5366550000000001 -1.01745 1.04139 -1.294755s1.0982475 -0.34314 1.65186 -0.18354v0Z" stroke-width="0.5"></path><path stroke="#120071" stroke-linecap="round" stroke-linejoin="round" d="M51.446062500000004 54.36375c-1.13824725 -2.731554 -1.9770450000000002 -5.578419 -2.5017300000000002 -8.490720000000001" stroke-width="0.5"></path><path stroke="#120071" stroke-linecap="round" stroke-linejoin="round" d="m55.6535175 44.4136875 -13.4931825 2.8997325000000003c-0.6283252500000001 0.13566000000000003 -1.28478 0.0161595 -1.825026 -0.33216750000000006 -0.540246 -0.34832700000000005 -0.91999425 -0.8969520000000001 -1.055754 -1.5251775l-5.704702500000001 -26.58936 8.225385000000001 -1.7625825c0.45894975000000005 -0.09466275 0.9352560000000001 -0.056059500000000005 1.372959 0.1111215 0.43770300000000006 0.16728075 0.8184487500000001 0.45615675 1.0973497500000002 0.832713 0.278901 0.3764565 0.44438625000000004 0.8249325 0.476805 1.292361 0.03241875 0.4674285 -0.06952575 0.9343582500000001 -0.29376375 1.345827 -0.50204175 0.9451312500000001 -0.723786 2.01385275 -0.6390982500000001 3.0806790000000004 0.08458800000000001 1.0668262499999999 0.47211675000000003 2.0873685 1.1169007499999999 2.94152775 0.644784 0.8540595 1.5199905 1.5064245 2.5227772500000003 1.8800880000000002 1.00278675 0.37376325 2.09145825 0.45336375000000007 3.1379355 0.2296245 1.0465769999999999 -0.223839 2.007369 -0.74184075 2.7696585000000002 -1.493058 0.76218975 -0.7512172500000001 1.29405675 -1.70442825 1.53305775 -2.74761375 0.23900100000000002 -1.0430857500000001 0.175161 -2.1328545 -0.18403875 -3.140928 -0.35910000000000003 -1.00817325 -0.9985972500000001 -1.8927562500000001 -1.8432802500000003 -2.5498095000000003 -0.37057125 -0.28498575000000004 -0.6526642500000001 -0.6693225 -0.8132617500000001 -1.10832225 -0.1605975 -0.43899975 -0.193116 -0.91460775 -0.093765 -1.37146275 0.09925125000000001 -0.45675525 0.326382 -0.8760045000000001 0.65465925 -1.20867075 0.32837700000000003 -0.332766 0.744534 -0.56528325 1.1999925000000002 -0.67061925l8.812912500000001 -1.9142025000000003L68.3516925 39.20175c0.13566000000000003 0.6282255000000001 0.0161595 1.28468025 -0.33216750000000006 1.82492625 -0.34822725000000004 0.540246 -0.89685225 0.91999425 -1.5251775 1.05585375l-8.1685275 1.7625825" stroke-width="0.5"></path><path stroke="#120071" stroke-linecap="round" stroke-linejoin="round" d="M55.084942500000004 51.93783c-1.0802925 -1.326675 -1.44039 -4.5296475 0.45486000000000004 -5.985 0 0 0.2523675 -5.35857 1.175055 -6.57552 0.9226875000000001 -1.21695 1.4393925 3.824415 1.8383925 5.73762 0.26234250000000003 1.2518624999999999 0.947625 4.1505975 1.629915 6.5386125" stroke-width="0.5"></path><path stroke="#120071" stroke-linecap="round" stroke-linejoin="round" d="m77.0578725 88.3785 3.0054675 -7.281750000000001c-0.98463225 2.344125 -1.31221125 4.912089000000001 -0.947625 7.4283825000000006" stroke-width="0.5"></path><path stroke="#120071" stroke-linecap="round" stroke-linejoin="round" d="M146.522775 69.5067975c-16.600395 2.1595875 -33.55989 3.581025 -42.902475 2.8418775000000003 -7.505190000000001 1.8573450000000002 -14.554522500000001 2.0658225000000003 -20.97942 0 -3.3166875000000005 -0.15162 -7.960050000000001 -1.023435 -14.497665000000001 -3.2029725l-5.3635575 -17.0941575c-0.5685749999999999 -1.8573450000000002 -13.72161 2.160585 -13.153035000000001 4.01793l8.6991975 26.9494575c6.45611925 3.30302175 13.5454515 5.18330925 20.789895 5.51418 0.45486000000000004 3.25983 2.0279175 7.8652875 5.818417500000001 15.124095000000002 4.0747875 2.42592 12.867750000000001 -1.0423875 17.057250000000003 -5.4014625 0.7391475000000001 -3.4114500000000003 1.402485 -6.8039475000000005 2.084775 -9.664777500000001 14.702152500000002 0.497952 29.404305000000004 -0.9615900000000001 43.7214225 -4.3401225000000005 -3.90621 0.33715500000000004 -5.25483 -14.407890000000002 -1.2748050000000002 -14.7440475Z" stroke-width="0.5"></path><path stroke="#120071" stroke-linecap="round" stroke-linejoin="round" d="M33.117000000000004 164.73812250000003c-2.9755425000000004 2.5935 8.279250000000001 15.461250000000001 11.238832500000001 12.886702500000002" stroke-width="0.5"></path><path stroke="#120071" stroke-linecap="round" stroke-linejoin="round" d="M146.8489575 123.1204275c2.6154450000000002 -0.4738125 5.53413 15.59691 2.9186850000000004 16.070722500000002" stroke-width="0.5"></path><path stroke="#120071" stroke-linecap="round" stroke-linejoin="round" d="M135.3078825 168.09271500000003 128.14383750000002 186.5325" stroke-width="0.5"></path><path stroke="#120071" stroke-linecap="round" stroke-linejoin="round" d="m140.95473 180.884655 -18.4587375 -7.144095" stroke-width="0.5"></path><path stroke="#120071" stroke-linecap="round" stroke-linejoin="round" d="M7.099217475 104.320545c0.37905 -1.0802925 1.0613400000000002 -1.7246775 3.032390025 -3.070305 4.1725425000000005 -2.84886 3.3915 -6.1156725000000005 0.9286725000000001 -7.088235 -0.43530900000000006 -0.16807875000000003 -0.90223875 -0.23870175000000002 -1.367841825 -0.20688150000000002 -0.46559310000000004 0.031920000000000004 -0.9185279250000001 0.16548525 -1.3269044250000002 0.3914190000000001 -0.40837650000000003 0.225834 -0.7622595750000001 0.5384504999999999 -1.036711725 0.9159045 -0.274462125 0.377454 -0.46281007500000004 0.8104687500000001 -0.55179705 1.2686205000000002" stroke-width="0.5"></path><path stroke="#120071" stroke-linecap="round" stroke-linejoin="round" d="M38.48355 175.161c19.311600000000002 -18.0916575 37.680762 -37.16286 55.035067500000004 -57.139792500000006" stroke-width="0.5"></path><path stroke="#120071" stroke-linecap="round" stroke-linejoin="round" d="M97.65525000000001 101.5724325s10.136595000000002 4.47279 11.087212500000001 12.602415c0.528675 4.5296475 3.525165 13.8921825 5.1171750000000005 18.667215 0.27531000000000005 0.827925 0.8309175 1.5351525 1.5710625 1.9979925000000003 0.740145 0.46383750000000007 1.6179450000000002 0.6553575 2.4837750000000005 0.5416425l32.426730000000006 -4.245360000000001" stroke-width="0.5"></path></g></g></svg>