<svg xmlns="http://www.w3.org/2000/svg" fill="none" viewBox="-0.25 -0.25 200 200" id="Work-Being-Creative-01--Streamline-Bangalore.svg"><desc>Work Being Creative 01 Streamline Illustration: https://streamlinehq.com</desc><g><g><path fill="#ffc25b" d="M135.49242 56.703885c-0.5316675000000001 -3.4573350000000005 -3.4573350000000005 -7.028385000000001 -6.192480000000001 -8.7570525 -0.285285 -0.189525 -0.5695725 -0.361095 -0.8548575 -0.5316675000000001 -6.192480000000001 4.28925 -17.5151025 11.226862500000001 -30.812775000000002 13.335577500000001 -1.02543 0.17057250000000002 -2.2792875 -0.0768075 -3.058335 0.62643 -2.44986 2.1845250000000003 -2.9436225 9.821385000000001 -9.003435 9.9919575 -0.8369025 2.128665 -1.596 4.179525000000001 -2.4129525000000003 5.927145 0.9905175 -1.3875225 8.229375000000001 -0.07182 10.0677675 0.34214250000000007 1.8034800000000002 0.399 9.5829825 2.5186875 9.251812500000002 4.179525000000001 1.3675725 -2.9456175 0.835905 -5.927145 -0.056857500000000005 -9.043335 10.846815000000001 -2.088765 25.873155 -9.763530000000001 33.0721125 -16.070722500000002Z" stroke-width="0.5"></path><path fill="#ffc25b" d="M40.6251825 88.75156500000001a13.530090000000001 13.530090000000001 0 1 1 0.37905 -19.130055000000002 13.520115 13.520115 0 0 1 -0.37905 19.130055000000002Z" stroke-width="0.5"></path><path fill="#ffc25b" d="M186.02277750000002 141.922305c1.3675725 -4.730145 5.927145 -3.2867625 8.43486 -6.136620000000001 0.4558575 4.351095 -1.9381425 8.720145 -6.269287500000001 8.928622500000001l-2.1655725 -2.7920025Z" stroke-width="0.5"></path></g><g><path fill="#6153bd" d="M82.9291575 151.286835c-1.7286675000000002 1.0074750000000001 -4.957575 -1.0822875 -8.490720000000001 -5.0722875a8.631367500000001 8.631367500000001 0 0 0 1.139145 3.91419c2.394 4.482765 2.280285 15.539055 4.939620000000001 14.763000000000002 0.7411425 -0.22842750000000003 1.6149525 -3.99 2.394 -8.301195a50.94033 50.94033 0 0 1 1.596 -6.155572500000001c-0.33017250000000004 0.16857750000000002 -1.2468750000000002 0.6314175000000001 -1.5780450000000001 0.851865Z" stroke-width="0.5"></path><path fill="#6153bd" d="M93.9854475 56.0205975a9.7585425 9.7585425 0 0 0 1.5201900000000002 2.8109550000000003c1.6708125 -0.2463825 3.5281575000000003 -0.7531125000000001 3.8742900000000002 -1.5191925 0.05985 -0.129675 0.11172000000000001 -0.26234250000000003 0.15261750000000002 -0.399 -0.43690500000000004 1.386525 -2.9635725 0.4558575 -5.5470975000000005 -0.8927625Z" stroke-width="0.5"></path><path fill="#6153bd" d="M96.22683 45.819165c-3.3625725 -3.533145 -14.323102500000001 -0.7600950000000001 -21.750487500000002 4.61643 -7.46529 5.394480000000001 -5.31867 10.447815 4.3500975 8.1306225 -0.5695725 0.17057250000000002 -6.763050000000001 2.0319075 -10.808910000000001 6.68325 -5.9460975000000005 6.83886 -0.7790475000000001 9.46029 5.885250000000001 8.0927175 7.9590525 -1.633905 14.797912500000002 -8.1685275 17.115105000000003 -12.690195000000001a33.915 33.915 0 0 0 2.148615 -8.298202500000002c-2.77305 -2.260335 -1.0822875 -4.312192500000001 0.43690500000000004 -2.7540975000000003 0.8169525 0.835905 1.7286675000000002 0.43690500000000004 0.72219 -2.29425 1.0144575 -0.6294225 2.232405 -0.8309175 1.901235 -1.486275Z" stroke-width="0.5"></path><path fill="#6153bd" d="M121.58727 156.26436a76.31573250000001 76.31573250000001 0 0 1 0.15162 -13.5450525 19.1889075 19.1889075 0 0 1 -10.998435 -0.17057250000000002c0.07581 3.154095 -0.911715 4.7490975 -0.0947625 6.7061925a9.4114125 9.4114125 0 0 0 2.05086 2.92467c3.5720475 3.6099525000000003 6.6303825000000005 14.2472925 8.966527500000002 12.728100000000001 0.6463800000000001 -0.41994750000000003 0.399 -4.274287500000001 -0.07581 -8.6433375Z" stroke-width="0.5"></path><path fill="#6153bd" d="M85.85482499999999 76.6887975c-0.17057250000000002 0.8817900000000001 -0.4389 1.741635 -0.798 2.5645725 -3.0962400000000003 -1.5391425 -2.37405 -2.54562 0.798 -2.5645725Z" stroke-width="0.5"></path><path fill="#6153bd" d="M102.49611750000001 81.795c-0.0768075 0.361095 -0.5895225 0.5895225 -1.44438 0.69825 0.32319000000000003 -0.588525 0.608475 -1.1211900000000001 0.8548575 -1.6528575 0.43690500000000004 0.36907500000000004 0.6453825000000001 0.692265 0.5895225 0.9546075Z" stroke-width="0.5"></path><path fill="#6153bd" d="m111.00579000000002 110.9389575 -1.995 5.717670000000001c-0.07581 -2.22243 -0.15162 -4.406955 -0.1905225 -6.553575l2.1855225 0.835905Z" stroke-width="0.5"></path><path fill="#6153bd" d="M42.7837725 151.3057875c-5.101215 -8.732115 -11.87025 -16.169475000000002 -15.068235000000001 -14.9375625 -4.328152500000001 1.66782 1.5441300000000002 15.042300000000001 4.911690000000001 20.883660000000003 5.6608125000000005 9.8024325 12.4996725 16.450770000000002 15.352522500000001 14.916615000000002 4.1466075 -2.31021 -2.627415 -16.46673 -5.1959775 -20.8627125Z" stroke-width="0.5"></path><path fill="#6153bd" d="M77.8578675 130.7333475c-5.6229075 -9.7266225 -12.442815000000001 -16.29915 -15.2547675 -14.66325 -2.8299075000000005 1.6329075000000002 -0.5506200000000001 10.8278625 5.053335 20.553487500000003s12.442815000000001 16.280197500000003 15.253770000000001 14.66325c2.8309050000000004 -1.6329075000000002 0.5516175000000001 -10.8278625 -5.052337500000001 -20.553487500000003Z" stroke-width="0.5"></path></g><g><path stroke="#120071" stroke-linecap="round" stroke-linejoin="round" d="M84.50620500000001 150.43197750000002a51.6734925 51.6734925 0 0 0 -1.596 6.155572500000001c-0.77007 4.31319 -1.6508625000000001 8.07975 -2.394 8.301195 -2.6543475 0.798 -2.5545975000000003 -10.274250000000002 -4.939620000000001 -14.763000000000002a8.588475 8.588475 0 0 1 -1.139145 -3.91419" stroke-width="0.5"></path><path stroke="#120071" stroke-linecap="round" stroke-linejoin="round" d="M150.2524275 78.9491325a4.917675 4.917675 0 0 0 -7.48125 -1.0643325 4.89972 4.89972 0 0 0 -2.9386350000000006 -3.1890075 4.89174 4.89174 0 0 0 -5.735625000000001 1.7127075000000003 4.937625000000001 4.937625000000001 0 0 0 -0.8049825 1.7605875 4.902712500000001 4.902712500000001 0 0 0 -7.4323725 1.929165 4.902712500000001 4.902712500000001 0 0 0 -0.33715500000000004 2.87679 4.958572500000001 4.958572500000001 0 0 0 -3.81843 0.5516175000000001 4.9047075 4.9047075 0 0 0 -0.8169525 7.731622500000001 4.9067025 4.9067025 0 0 0 -3.0792825 5.1151800000000005c0.07880250000000001 0.7112175000000001 0.313215 1.3965 0.6852825000000001 2.0079675a4.80396 4.80396 0 0 0 5.1480974999999995 2.2034775l26.5185375 -16.25925c0.6673275000000001 -0.40199250000000003 1.4782950000000001 -3.1391325 0.0927675 -5.376525Z" stroke-width="0.5"></path><path stroke="#120071" stroke-linecap="round" stroke-linejoin="round" d="M130.135845 86.4902325a3.7476075000000004 3.7476075000000004 0 0 1 -1.3286700000000002 6.2603100000000005 3.74661 3.74661 0 0 1 -2.5087125 -0.009975000000000001" stroke-width="0.5"></path><path stroke="#120071" stroke-linecap="round" stroke-linejoin="round" d="M141.9512325 83.14761a3.764565 3.764565 0 0 1 -6.9336225 1.462335 3.8084550000000004 3.8084550000000004 0 0 1 -0.399 -0.911715" stroke-width="0.5"></path><path stroke="#120071" stroke-linecap="round" stroke-linejoin="round" d="M142.76818500000002 77.8848a6.1316325 6.1316325 0 0 0 -1.2538575 1.6728075000000002" stroke-width="0.5"></path><path stroke="#120071" stroke-linecap="round" stroke-linejoin="round" d="M122.61669000000002 90.938085a6.6383625 6.6383625 0 0 0 -1.7326575000000002 0.321195" stroke-width="0.5"></path><path stroke="#120071" stroke-linecap="round" stroke-linejoin="round" d="M133.2889425 78.170085a5.695725 5.695725 0 0 0 -0.0608475 1.8802875000000001" stroke-width="0.5"></path><path stroke="#120071" stroke-linecap="round" stroke-linejoin="round" d="M127.40169750000001 83.8568325a5.8573200000000005 5.8573200000000005 0 0 0 -1.8822825 -0.8807925000000001" stroke-width="0.5"></path><path stroke="#120071" stroke-linecap="round" stroke-linejoin="round" d="M157.0154775 89.92861500000001c-1.4094675 -2.3211825 -4.3181775 -2.735145 -4.8249075 -2.3550975000000003l-26.538487500000002 16.280197500000003c-0.7590975000000001 0.4558575 -1.8014850000000002 3.2139450000000003 -0.3600975 5.5461a4.9126875 4.9126875 0 0 0 3.4573350000000005 2.28228 4.892737500000001 4.892737500000001 0 0 0 3.97005 -1.18503 4.8877500000000005 4.8877500000000005 0 0 0 9.47625 -0.361095 4.902712500000001 4.902712500000001 0 0 0 7.8074325 -4.7490975 4.9047075 4.9047075 0 0 0 5.500215000000001 -2.3949975 4.900717500000001 4.900717500000001 0 0 0 -0.94164 -5.92515 4.9146825 4.9146825 0 0 0 2.9017275 -2.9934975 4.9126875 4.9126875 0 0 0 -0.44787750000000004 -4.1446125Z" stroke-width="0.5"></path><path stroke="#120071" stroke-linecap="round" stroke-linejoin="round" d="M141.1532325 104.46119250000001a3.7555875000000003 3.7555875000000003 0 0 0 -4.9166775000000005 -2.4528525 3.75459 3.75459 0 0 0 -1.6368975000000001 1.198995 3.89025 3.89025 0 0 0 -0.7790475000000001 1.8423825" stroke-width="0.5"></path><path stroke="#120071" stroke-linecap="round" stroke-linejoin="round" d="M149.49333000000001 95.46075a3.764565 3.764565 0 0 0 -3.81843 6.288240000000001" stroke-width="0.5"></path><path stroke="#120071" stroke-linecap="round" stroke-linejoin="round" d="M154.56462000000002 97.0717125a6.1296375 6.1296375 0 0 1 -2.0897625000000004 0.38004750000000004" stroke-width="0.5"></path><path stroke="#120071" stroke-linecap="round" stroke-linejoin="round" d="M133.770735 109.12650000000001c-0.28428749999999997 0.50673 -0.6384000000000001 0.9705675 -1.051365 1.3795425000000001" stroke-width="0.5"></path><path stroke="#120071" stroke-linecap="round" stroke-linejoin="round" d="M150.006045 105.39186000000001a5.835375 5.835375 0 0 1 -1.7127075000000003 -0.8119649999999999" stroke-width="0.5"></path><path stroke="#120071" stroke-linecap="round" stroke-linejoin="round" d="M142.25247750000003 108.1060575a6.4189125 6.4189125 0 0 1 -0.053865 2.0349" stroke-width="0.5"></path><path stroke="#120071" stroke-linecap="round" stroke-linejoin="round" d="m125.6520825 103.85371500000001 -2.8299075000000005 1.7087175000000001" stroke-width="0.5"></path><path stroke="#120071" stroke-linecap="round" stroke-linejoin="round" d="m123.6391275 100.585905 -2.793 1.6907625000000002" stroke-width="0.5"></path><path stroke="#120071" stroke-linecap="round" stroke-linejoin="round" d="M108.91702500000001 114.01624500000001 78.75063 132.32835" stroke-width="0.5"></path><path stroke="#120071" stroke-linecap="round" stroke-linejoin="round" d="m108.30855000000001 109.8935775 -31.477110000000003 19.130055000000002" stroke-width="0.5"></path><path stroke="#120071" stroke-linecap="round" stroke-linejoin="round" d="M135.09342 57.0460275a35.209755 35.209755 0 0 1 33.890062500000006 17.723580000000002c10.09071 17.3415375 4.8049575 39.738405 -11.797432500000001 50.0176425 -10.3849725 6.4298850000000005 -13.266750000000002 3.030405 -33.4332075 8.778" stroke-width="0.5"></path><path stroke="#120071" stroke-linecap="round" stroke-linejoin="round" d="M83.12766 151.139205c9.22488 -4.8109425 17.469217500000003 -9.0164025 25.9599375 -12.484710000000002" stroke-width="0.5"></path><path stroke="#120071" stroke-linecap="round" stroke-linejoin="round" d="M84.18301500000001 99.8826675c-6.4009575000000005 5.129145 -13.411387500000002 10.1256225 -21.5988675 16.1664825" stroke-width="0.5"></path><path stroke="#120071" stroke-linecap="round" stroke-linejoin="round" d="M111.69007500000001 70.058415c-3.9810225000000004 5.985 -8.4478275 11.6338425 -13.35453 16.887675" stroke-width="0.5"></path><path stroke="#120071" stroke-linecap="round" stroke-linejoin="round" d="M128.42613 47.4341175c3.2099550000000003 1.8044775 6.477765 5.5091925 7.06629 9.2697675 -7.199955 6.307192500000001 -22.2252975 13.9819575 -33.0721125 16.070722500000002 0.8927625 3.1161900000000005 1.42443 6.098715 0.056857500000000005 9.043335 0.33117 -1.6588425000000002 -7.3346175 -3.7515975000000004 -9.251812500000002 -4.179525000000001 -1.87131 -0.4179525 -9.085230000000001 -1.7166975000000002 -10.0677675 -0.34214250000000007 0.8169525 -1.7476200000000002 1.5770475 -3.7994775000000005 2.4129525000000003 -5.927145 6.0598125000000005 -0.17057250000000002 6.5436 -7.818405 9.003435 -9.9919575 0.7750575000000001 -0.6842850000000001 1.995 -0.45486000000000004 3.058335 -0.62643 13.289692500000001 -2.1615824999999997 24.620295 -9.0423375 30.812775000000002 -13.335577500000001l-0.0189525 0.0189525Z" stroke-width="0.5"></path><path stroke="#120071" stroke-linecap="round" stroke-linejoin="round" d="M84.24486 80.6778A29.426250000000003 29.426250000000003 0 0 1 99.71808000000001 84.78750000000001" stroke-width="0.5"></path><path stroke="#120071" stroke-linecap="round" stroke-linejoin="round" d="M99.444765 57.1158525c-0.6194475 1.083285 -3.0134475000000003 0.181545 -5.4593175 -1.09725a9.7425825 9.7425825 0 0 0 1.5201900000000002 2.8109550000000003" stroke-width="0.5"></path><path stroke="#120071" stroke-linecap="round" stroke-linejoin="round" d="M96.92807250000001 60.821565c-1.3236825 -0.325185 -0.96957 -0.96957 -1.4224350000000001 -1.9900125000000002 3.57105 -0.5276775 4.189500000000001 -1.18503 4.0428675 -2.9745450000000004 -0.2144625 -2.599485 -1.7406375000000003 -8.263290000000001 -3.3216750000000004 -10.037842500000002" stroke-width="0.5"></path><path stroke="#120071" stroke-linecap="round" stroke-linejoin="round" d="M102.4203075 72.7746075c-1.1022375 0.209475 -2.1655725 0.361095 -3.154095 0.45685500000000007" stroke-width="0.5"></path><path stroke="#120071" stroke-linecap="round" stroke-linejoin="round" d="M94.32759 47.30145c1.0064775 2.735145 0.09975 3.134145 -0.72219 2.29425 -1.5201900000000002 -1.5570975 -3.2099550000000003 0.49875 -0.43690500000000004 2.7540975000000003a33.915997499999996 33.915997499999996 0 0 1 -2.1466200000000004 8.301195c-2.3171925 4.5216675 -9.156052500000001 11.05629 -17.115105000000003 12.690195000000001 -6.6682875 1.3675725 -11.835337500000001 -1.2538575 -5.885250000000001 -8.0927175 4.04586 -4.6543350000000006 10.239337500000001 -6.51567 10.808910000000001 -6.68325 -9.6687675 2.3171925 -11.8133925 -2.73315 -4.3500975 -8.1306225 7.429380000000001 -5.3735325 18.387915000000003 -8.149575 21.750487500000002 -4.61643 0.321195 0.65037 -0.9266775 0.8797950000000001 -1.90323 1.4832825000000003Z" stroke-width="0.5"></path><path stroke="#120071" stroke-linecap="round" stroke-linejoin="round" d="M85.5705375 71.36913000000001a40.2820425 40.2820425 0 0 1 3.8563350000000005 -7.7505749999999995 17.527072500000003 17.527072500000003 0 0 0 1.5760500000000002 -2.92467" stroke-width="0.5"></path><path stroke="#120071" stroke-linecap="round" stroke-linejoin="round" d="M98.3644725 86.916165a52.836577500000004 52.836577500000004 0 0 0 3.5520975000000004 -6.062805000000001" stroke-width="0.5"></path><path stroke="#120071" stroke-linecap="round" stroke-linejoin="round" d="M139.63404000000003 46.50345c2.8678125000000003 -0.6842850000000001 5.2288950000000005 0.608475 5.033385000000001 1.709715a1.5900150000000002 1.5900150000000002 0 0 1 -0.7590975000000001 1.0633350000000001" stroke-width="0.5"></path><path stroke="#120071" stroke-linecap="round" stroke-linejoin="round" d="M139.36770750000002 44.75583c3.02043 -0.72219 6.0219075 0.798 4.730145 2.394" stroke-width="0.5"></path><path stroke="#120071" stroke-linecap="round" stroke-linejoin="round" d="M135.16923000000003 55.336312500000005a15.432322500000001 15.432322500000001 0 0 1 6.649335000000001 -4.44486" stroke-width="0.5"></path><path stroke="#120071" stroke-linecap="round" stroke-linejoin="round" d="M139.5193275 48.55431000000001c2.793 -0.5695725 4.63239 0.5316675000000001 4.5216675 1.6149525 -0.13665750000000002 1.3296675 -2.793 3.34362 -5.0343824999999995 2.0518575" stroke-width="0.5"></path><path stroke="#120071" stroke-linecap="round" stroke-linejoin="round" d="M137.16423 43.748355c0.037905 -0.037905 1.197 -1.65186 0.6842850000000001 -2.1655725 -0.43690500000000004 -0.43690500000000004 -6.7440975000000005 4.7490975 -8.510670000000001 6.401955" stroke-width="0.5"></path><path stroke="#120071" stroke-linecap="round" stroke-linejoin="round" d="M140.79213750000002 44.5653075c5.01543 -2.4119550000000003 6.362055000000001 -5.3216625 5.41443 -4.788a96.48418500000001 96.48418500000001 0 0 1 -9.7266225 4.21743 28.406805000000002 28.406805000000002 0 0 0 -7.1610525 3.99" stroke-width="0.5"></path><path stroke="#120071" stroke-linecap="round" stroke-linejoin="round" d="M121.73889 142.7193075a77.07882000000001 77.07882000000001 0 0 0 -0.15162 13.5450525c0.48378750000000004 4.3680525 0.7211925 8.224387499999999 0.07581 8.6433375 -2.33814 1.5171975 -5.4014625 -9.111165000000002 -8.966527500000002 -12.728100000000001a9.334605000000002 9.334605000000002 0 0 1 -2.05086 -2.92467c-0.8189475 -1.9600875000000002 0.173565 -3.5580825000000003 0.093765 -6.7221525" stroke-width="0.5"></path><path stroke="#120071" stroke-linecap="round" stroke-linejoin="round" d="M77.8578675 130.7333475c5.6109375 9.721635000000001 7.885237500000001 18.923572500000002 5.052337500000001 20.548500000000004 -2.80896 1.6179450000000002 -9.649815 -4.9386225 -15.253770000000001 -14.66325 -5.603955000000001 -9.7246275 -7.881247500000001 -18.913597499999998 -5.053335 -20.550495 2.8279125 -1.6368975000000001 9.6388425 4.9346325 15.2547675 14.665245Z" stroke-width="0.5"></path><path stroke="#120071" stroke-linecap="round" stroke-linejoin="round" d="M49.025130000000004 166.81392c-1.42044 -8.8408425 -9.95904 -23.549977500000004 -16.891665000000003 -28.861665000000002 -3.581025 -2.7740475000000004 -6.1455975 -2.2832775 -5.8523325 2.3690625 0.5566050000000001 8.827875 10.3869675 25.85919 17.7245775 30.856665000000003 4.07379 2.77305 5.8254 0.65436 5.01942 -4.3640625Z" stroke-width="0.5"></path><path stroke="#120071" stroke-linecap="round" stroke-linejoin="round" d="m48.1682775 172.06875000000002 5.639865 -3.2628225a2.8358925 2.8358925 0 0 0 0.6842850000000001 -3.6857625c2.2443750000000002 3.3805275 6.6483375 -0.109725 4.881765000000001 -3.0393825000000003 1.6388925 2.793 6.791977500000001 0.9895200000000001 4.6732875 -3.2478599999999997a3.3316500000000002 3.3316500000000002 0 0 0 4.1974800000000005 0.911715c2.29425 -1.4643300000000001 1.4433825000000002 -4.312192500000001 0.019950000000000002 -8.947575A63.131775000000005 63.131775000000005 0 0 0 55.8410475 129.17625a24.842737500000002 24.842737500000002 0 0 0 -4.5356325 -4.20546c-2.6583375 -1.6488675000000002 -5.648842500000001 -0.412965 -4.62042 4.0727925 -0.8458800000000001 -1.4094675 -1.8383925 -2.3311575 -3.51519 -1.881285a2.850855 2.850855 0 0 0 -1.88328 1.6937550000000001 2.8428750000000003 2.8428750000000003 0 0 0 0.2124675 2.523675s-1.9680675000000003 -2.4877650000000004 -4.1984775 -0.7211925a2.8239225 2.8239225 0 0 0 -0.6463800000000001 3.7416225 2.7521025 2.7521025 0 0 0 -2.7550950000000003 -1.3735575 2.7521025 2.7521025 0 0 0 -1.0244324999999999 0.3481275l-5.308695 3.054345" stroke-width="0.5"></path><path stroke="#120071" stroke-linecap="round" stroke-linejoin="round" d="M186.02277750000002 141.922305a56.04753 56.04753 0 0 0 -6.7241475 4.3690500000000005c-6.270285 4.842862500000001 -12.3859575 10.922625 -11.571 11.9869575 0.8149575 1.0643325 8.22738 -3.3027225000000002 14.5126275 -8.149575a54.210135 54.210135 0 0 0 5.927145 -5.41443" stroke-width="0.5"></path><path stroke="#120071" stroke-linecap="round" stroke-linejoin="round" d="M186.02277750000002 141.922305c1.3675725 -4.730145 5.927145 -3.2867625 8.43486 -6.136620000000001 0.4558575 4.351095 -1.9381425 8.720145 -6.269287500000001 8.928622500000001l-2.1655725 -2.7920025Z" stroke-width="0.5"></path><path stroke="#120071" stroke-linecap="round" stroke-linejoin="round" d="m180.086655 145.6958475 2.934645 3.8054625" stroke-width="0.5"></path><path stroke="#120071" stroke-linecap="round" stroke-linejoin="round" d="m190.48758750000002 50.9293575 -2.4887625000000004 5.575027500000001h4.558575l-2.507715 5.5760250000000005" stroke-width="0.5"></path><path stroke="#120071" stroke-linecap="round" stroke-linejoin="round" d="m101.90659500000001 188.6342325 -10.1056725 0.30324" stroke-width="0.5"></path><path stroke="#120071" stroke-linecap="round" stroke-linejoin="round" d="m97.0058775 193.8391875 -0.3042375 -10.10667" stroke-width="0.5"></path><path stroke="#120071" stroke-linecap="round" stroke-linejoin="round" d="M85.85482499999999 76.6887975c-0.17057250000000002 0.8817900000000001 -0.4389 1.741635 -0.798 2.5645725 -3.0962400000000003 -1.5391425 -2.37405 -2.54562 0.798 -2.5645725Z" stroke-width="0.5"></path><path stroke="#120071" stroke-linecap="round" stroke-linejoin="round" d="M102.477165 81.8179425c-0.09177 0.3441375 -0.5795475 0.5685749999999999 -1.40448 0.6802950000000001" stroke-width="0.5"></path><path stroke="#120071" stroke-linecap="round" stroke-linejoin="round" d="M85.85482499999999 76.6887975a8.86578 8.86578 0 0 1 -3.0772875 5.527147500000001c-7.46529 5.927145 -7.581 14.22834 -2.1276675000000003 20.44077" stroke-width="0.5"></path><path stroke="#120071" stroke-linecap="round" stroke-linejoin="round" d="m27.233745000000003 136.63655250000002 -8.416905000000002 4.7720400000000005" stroke-width="0.5"></path><path stroke="#120071" stroke-linecap="round" stroke-linejoin="round" d="m47.782245 172.2772275 -7.5560625 4.4079524999999995" stroke-width="0.5"></path><path stroke="#120071" stroke-linecap="round" stroke-linejoin="round" d="m36.57832500000001 178.98342 -5.603955000000001 3.26781" stroke-width="0.5"></path><path stroke="#120071" stroke-linecap="round" stroke-linejoin="round" d="m14.903647500000002 143.85945 -5.717670000000001 3.2488575" stroke-width="0.5"></path><path stroke="#120071" stroke-linecap="round" stroke-linejoin="round" d="m32.64618 157.251885 -18.407865 10.884720000000002" stroke-width="0.5"></path><path stroke="#120071" stroke-linecap="round" stroke-linejoin="round" d="M10.5725025 170.4358425 4.987500000000001 173.6837025" stroke-width="0.5"></path><path stroke="#120071" stroke-linecap="round" stroke-linejoin="round" d="M40.6251825 88.75156500000001a13.530090000000001 13.530090000000001 0 1 1 0.37905 -19.130055000000002 13.520115 13.520115 0 0 1 -0.37905 19.130055000000002Z" stroke-width="0.5"></path><path stroke="#120071" stroke-linecap="round" stroke-linejoin="round" d="M44.765805 79.80000000000001c4.1984775 1.995 6.68325 3.89025 6.326145 5.08725 -0.6393975000000001 2.1615824999999997 -10.0877175 1.3296675 -21.1240575 -1.8623325000000002S10.4937 75.49080000000001 11.123122500000001 73.32622500000001c0.35910000000000003 -1.2359025000000001 3.5520975000000004 -1.5012375 8.279250000000001 -0.911715" stroke-width="0.5"></path><path stroke="#120071" stroke-linecap="round" stroke-linejoin="round" d="M81.396 93.9176175c0.5506200000000001 3.4573350000000005 2.4937500000000004 6.62739 5.1101925 7.447335000000001 8.1705225 2.555595 22.32006 8.7570525 22.32006 8.7570525 0.1765575 9.78348 1.0623375 20.548500000000004 0.11471250000000001 31.8003a19.3904025 19.3904025 0 0 0 14.22834 0.32219250000000005c0.798 -10.6183875 1.3097175 -20.800867500000003 1.1201925000000001 -30.204300000000003a16.42284 16.42284 0 0 0 -5.831385 -12.2522925 98.82631500000001 98.82631500000001 0 0 0 -24.43476 -14.835817500000001" stroke-width="0.5"></path><path stroke="#120071" stroke-linecap="round" stroke-linejoin="round" d="m108.821265 110.122005 2.1845250000000003 0.8169525 -1.9940025000000001 5.717670000000001" stroke-width="0.5"></path><path stroke="#120071" stroke-linecap="round" stroke-linejoin="round" d="M109.3349775 134.4181125a25.8382425 25.8382425 0 0 0 14.342055 0.7032375" stroke-width="0.5"></path><path stroke="#120071" stroke-linecap="round" stroke-linejoin="round" d="M105.1554525 5.6608125000000005v3.1730475" stroke-width="0.5"></path><path stroke="#120071" stroke-linecap="round" stroke-linejoin="round" d="M111.32898000000002 11.834340000000001h-3.1730475" stroke-width="0.5"></path><path stroke="#120071" stroke-linecap="round" stroke-linejoin="round" d="M105.1554525 18.008865v-3.1730475" stroke-width="0.5"></path><path stroke="#120071" stroke-linecap="round" stroke-linejoin="round" d="M98.981925 11.834340000000001h3.174045" stroke-width="0.5"></path><path stroke="#120071" stroke-linecap="round" stroke-linejoin="round" d="M108.1559325 11.834340000000001a2.9915025 2.9915025 0 0 1 -3.00048 -3.00048 2.98851 2.98851 0 0 1 -1.8503625000000001 2.77305 2.9925 2.9925 0 0 1 -1.14912 0.22743000000000002 2.9925 2.9925 0 0 1 2.9994825000000005 3.0014775 2.9925 2.9925 0 0 1 3.00048 -3.0014775v0Z" stroke-width="0.5"></path></g></g></svg>