<svg xmlns="http://www.w3.org/2000/svg" fill="none" viewBox="-0.25 -0.25 200 200" id="Working-Together--Streamline-Bangalore.svg"><desc>Working Together Streamline Illustration: https://streamlinehq.com</desc><g id="working-together--work-working-together"><g id="puzzle 1"><path id="Vector" fill="#ffc25b" d="M97.88667000000001 120.11097000000001c-2.9655675 -2.28228 -6.747090000000001 -0.39102000000000003 -9.7106625 1.3206900000000001 -5.9600625 3.4393800000000003 -10.573500000000001 6.43587 -10.573500000000001 6.43587 -0.5246850000000001 -4.7191725 -5.65383 -4.771042500000001 -10.415895 -3.7266600000000003 -6.72315 1.474305 -9.0323625 2.5206825000000004 -15.754515000000001 3.9959850000000006a18.958485 18.958485 0 0 0 -5.258820000000001 -6.5745225000000005l-1.0543575 -2.53365a16.464735 16.464735 0 0 1 -2.9925 -0.5316675000000001c-5.6298900000000005 -1.8174450000000002 -12.02586 -2.73315 -17.767470000000003 -1.4493675000000001 -1.286775 0.2882775 -3.3216750000000004 0.8758050000000001 -6.21243 1.6608375000000002l5.1720375 22.783897500000002c3.77055 -0.58653 10.133602500000002 2.8319025 21.520065000000002 3.573045 18.5924025 1.2079725000000001 40.485532500000005 -8.664285 50.96626500000001 -15.570975 4.7530875 -3.134145 4.5875025 -7.455315000000001 2.0817825 -9.383482500000001Z" stroke-width="0.5"></path><path id="Vector_2" stroke="#120071" stroke-linecap="round" stroke-linejoin="round" d="M45.116925 119.0286825a16.5535125 16.5535125 0 0 1 -2.9925 -0.5316675000000001c-11.19594 -3.6149400000000003 -16.5195975 -1.8134550000000003 -23.9799 0.21147000000000002" stroke-width="0.5"></path><path id="Vector_3" stroke="#120071" stroke-linecap="round" stroke-linejoin="round" d="m47.4540675 94.8024 46.302952499999996 -19.26771" stroke-width="0.5"></path><path id="Vector_4" stroke="#120071" stroke-linecap="round" stroke-linejoin="round" d="m50.735842500000004 102.68664000000001 25.5190425 -10.6183875" stroke-width="0.5"></path><path id="Vector_5" stroke="#120071" stroke-linecap="round" stroke-linejoin="round" d="m53.89692 110.285595 25.570912500000002 -10.639335" stroke-width="0.5"></path><path id="Vector_6" stroke="#120071" stroke-linecap="round" stroke-linejoin="round" d="m56.947275000000005 117.61323 46.271032500000004 -19.254742500000003" stroke-width="0.5"></path><path id="Vector_7" stroke="#120071" stroke-linecap="round" stroke-linejoin="round" d="m23.313570000000002 141.49238250000002 -5.1720375 -22.783897500000002c-3.25185 0.8827875000000001 -7.581 2.0139525000000003 -13.1540325 3.2468625 1.0763025 5.7465975 3.26781 15.391425 4.682265 21.9120825 5.370540000000001 -1.0633350000000001 7.351575 -1.3974975 13.643805000000002 -2.3750475Z" stroke-width="0.5"></path><path id="Vector_8" stroke="#120071" stroke-linecap="round" stroke-linejoin="round" d="M17.355502500000004 138.76721250000003a2.264325 2.264325 0 1 0 0 -4.526655000000001 2.264325 2.264325 0 0 0 0 4.526655000000001Z" stroke-width="0.5"></path><path id="Vector_9" stroke="#120071" stroke-linecap="round" stroke-linejoin="round" d="M97.88667000000001 120.11097000000001c-2.9655675 -2.28228 -6.747090000000001 -0.39102000000000003 -9.7106625 1.3206900000000001 -5.9600625 3.4393800000000003 -10.573500000000001 6.43587 -10.573500000000001 6.43587 -0.5246850000000001 -4.7191725 -5.65383 -4.7720400000000005 -10.415895 -3.7266600000000003 -6.7221525 1.474305 -9.0323625 2.5206825000000004 -15.754515000000001 3.9959850000000006 -5.4972225 -11.281725000000002 -19.3465125 -12.818872500000001 -27.07614 -11.089207500000002 -1.2857775 0.2882775 -3.3216750000000004 0.8758050000000001 -6.21243 1.6608375000000002l5.1720375 22.783897500000002c3.7715475000000005 -0.58653 10.133602500000002 2.8319025 21.520065000000002 3.573045 18.5924025 1.2079725000000001 40.485532500000005 -8.664285 50.96626500000001 -15.570975 4.75608 -3.1351425 4.590495000000001 -7.455315000000001 2.084775 -9.383482500000001Z" stroke-width="0.5"></path><path id="Vector_10" stroke="#120071" stroke-linecap="round" stroke-linejoin="round" d="M77.6055 127.86753c0.361095 3.2368875000000004 -2.5286625000000003 5.155080000000001 -5.590987500000001 6.266295 -1.3216875000000001 0.4788 -1.2279225000000002 0.4159575 -17.5250775 5.0563275" stroke-width="0.5"></path><path id="Vector_11" stroke="#120071" stroke-linecap="round" stroke-linejoin="round" d="m98.45325000000001 120.62967 11.991945000000001 -4.987500000000001 -6.95457 -16.718100000000003a5.623905000000001 5.623905000000001 0 0 0 -8.129625 -2.6423775000000003c-5.40645 3.341625 -4.494735 3.6598275000000005 -6.940605000000001 4.677277500000001a8.787975000000001 8.787975000000001 0 0 1 -10.093702500000001 -2.4438750000000002 8.791965000000001 8.791965000000001 0 0 1 -1.7326575000000002 -3.2418750000000003 8.660295000000001 8.660295000000001 0 0 1 3.7775325 -9.887220000000001c2.9705550000000005 -1.8324075 3.624915 -0.784035 9.4832325 -2.208465a5.64186 5.64186 0 0 0 3.9022200000000002 -7.643842500000001l-6.9825 -16.783935000000003L29.8851 82.42242750000001l16.286182500000002 39.139905" stroke-width="0.5"></path></g><g id="puzzle 2"><path id="Vector_12" stroke="#120071" stroke-linecap="round" stroke-linejoin="round" d="M157.96809000000002 111.454665a264.487125 264.487125 0 0 0 2.388015 6.4308825c4.8109425 12.53658 0.26932500000000004 25.1539575 0.05985 26.234250000000003" stroke-width="0.5"></path><path id="Vector_13" stroke="#120071" stroke-linecap="round" stroke-linejoin="round" d="M178.27619250000004 111.454665H194.51250000000002V49.8380925h-61.61757v18.178440000000002a5.647845 5.647845 0 0 1 -1.9880175000000002 4.287255 5.639865 5.639865 0 0 1 -4.5515925 1.270815 28.470645000000005 28.470645000000005 0 0 1 -5.07129 -1.1600925000000002 8.7929625 8.7929625 0 1 0 -0.253365 16.558500000000002 36.195285000000005 36.195285000000005 0 0 1 5.3695425000000006 -1.183035 5.621910000000001 5.621910000000001 0 0 1 6.494722500000001 5.5650525v18.1036275h34.7738475" stroke-width="0.5"></path><path id="Vector_14" stroke="#120071" stroke-linecap="round" stroke-linejoin="round" d="M132.797175 68.0165325h50.05455" stroke-width="0.5"></path><path id="Vector_15" stroke="#120071" stroke-linecap="round" stroke-linejoin="round" d="M110.445195 76.55712749999999h72.40653" stroke-width="0.5"></path><path id="Vector_16" stroke="#120071" stroke-linecap="round" stroke-linejoin="round" d="M110.43921 84.78750000000001h72.412515" stroke-width="0.5"></path><path id="Vector_17" stroke="#120071" stroke-linecap="round" stroke-linejoin="round" d="M132.797175 92.72361000000001h50.05455" stroke-width="0.5"></path><path id="Vector_18" fill="#6153bd" d="m183.5549625 160.4189475 -22.983397500000002 4.1984775a278.2496325 278.2496325 0 0 1 2.6842725 13.279717500000002c5.7855 -0.82992 15.51711 -2.6104575000000003 22.0916325 -3.7456125 -0.8329125000000001 -5.41044 -1.083285 -7.4044425 -1.7925075 -13.7325825Zm-5.236875 8.00394a2.2593375000000004 2.2593375000000004 0 0 1 -2.0907600000000004 -1.3974975 2.2653225 2.2653225 0 0 1 0.4897725 -2.4668175 2.2653225 2.2653225 0 0 1 3.8643150000000004 1.6009875c0 0.600495 -0.2384025 1.1760525000000002 -0.6633375 1.5999900000000002a2.2593375000000004 2.2593375000000004 0 0 1 -1.5999900000000002 0.6633375Z" stroke-width="0.5"></path><path id="Vector_19" stroke="#120071" stroke-linecap="round" stroke-linejoin="round" d="m183.5549625 160.4189475 -22.983397500000002 4.1984775a278.2496325 278.2496325 0 0 1 2.6842725 13.279717500000002c5.7855 -0.8309175 15.51711 -2.6094600000000003 22.0916325 -3.7456125 -0.8329125000000001 -5.41044 -1.083285 -7.4044425 -1.7925075 -13.7325825Z" stroke-width="0.5"></path><path id="Vector_20" stroke="#120071" stroke-linecap="round" stroke-linejoin="round" d="M178.3180875 168.4228875a2.264325 2.264325 0 1 0 0 -4.526655000000001 2.264325 2.264325 0 0 0 0 4.526655000000001Z" stroke-width="0.5"></path><path id="Vector_21" stroke="#120071" stroke-linecap="round" stroke-linejoin="round" d="M181.79238 111.45366750000001h-3.517185c-1.8882675000000002 -5.9919825 -5.6318850000000005 -6.7421025000000006 -8.0987025 -5.17902 -5.2059525 3.29973 -1.0753050000000002 12.314137500000001 1.2319125000000002 25.4851275 -11.505165000000002 5.012437500000001 -13.6308375 18.7839225 -12.231345000000001 26.5803825 0.23341500000000004 1.29675 0.73416 3.3545925000000003 1.3965 6.277267500000001l22.983397500000002 -4.1984775c-0.4259325 -3.7905 3.0603300000000004 -10.027867500000001 4.4887500000000005 -21.3465 0.7491225 -5.993977500000001 -2.32218 -18.0876675 -6.2533275 -27.61878Z" stroke-width="0.5"></path><path id="Vector_22" stroke="#120071" stroke-linecap="round" stroke-linejoin="round" d="M178.27519500000002 111.45366750000001c0.42294000000000004 1.3416375 0.3620925 1.2378975 4.3062075 17.725575" stroke-width="0.5"></path></g><g id="line"><path id="Vector_23" stroke="#120071" stroke-linecap="round" stroke-linejoin="round" d="M145.8973425 47.620650000000005a37.15488 37.15488 0 0 0 -72.20403750000001 16.572465" stroke-width="0.5"></path><path id="Vector_24" fill="#6153bd" d="M146.5437225 47.527882500000004a2.31021 2.31021 0 1 0 -0.0019950000000000002 4.62042 2.31021 2.31021 0 0 0 0.0019950000000000002 -4.62042Z" stroke-width="0.5"></path><path id="Vector_25" stroke="#120071" stroke-linecap="round" stroke-linejoin="round" d="M146.5437225 47.527882500000004a2.31021 2.31021 0 1 0 -0.0019950000000000002 4.62042 2.31021 2.31021 0 0 0 0.0019950000000000002 -4.62042v0Z" stroke-width="0.5"></path></g><g id="elements"><path id="Vector_26" stroke="#120071" stroke-linecap="round" stroke-linejoin="round" d="m179.72556 41.127922500000004 2.8728000000000002 4.739122500000001 3.37953 -7.079257500000001" stroke-width="0.5"></path><g id="Group"><path id="Vector_27" stroke="#120071" stroke-linecap="round" stroke-linejoin="round" d="m135.6609975 129.4764975 6.5705325 6.5705325" stroke-width="0.5"></path><path id="Vector_28" stroke="#120071" stroke-linecap="round" stroke-linejoin="round" d="m135.6609975 136.04703 6.5705325 -6.5705325" stroke-width="0.5"></path></g><g id="Group_2"><path id="Vector_29" stroke="#120071" stroke-linecap="round" stroke-linejoin="round" d="m40.660095000000005 155.4354375 3.3516 3.3516" stroke-width="0.5"></path><path id="Vector_30" stroke="#120071" stroke-linecap="round" stroke-linejoin="round" d="m40.660095000000005 158.7870375 3.3516 -3.3516" stroke-width="0.5"></path></g><g id="Group_3"><path id="Vector_31" stroke="#120071" stroke-linecap="round" stroke-linejoin="round" d="M33.043185 63.07791h9.292710000000001" stroke-width="0.5"></path><path id="Vector_32" stroke="#120071" stroke-linecap="round" stroke-linejoin="round" d="M37.68954 67.724265v-9.292710000000001" stroke-width="0.5"></path></g><g id="Group_4"><path id="Vector_33" stroke="#120071" stroke-linecap="round" stroke-linejoin="round" d="M56.344785 38.7877875h5.068297500000001" stroke-width="0.5"></path><path id="Vector_34" stroke="#120071" stroke-linecap="round" stroke-linejoin="round" d="M58.87943250000001 41.3214375v-5.0673" stroke-width="0.5"></path></g></g></g></svg>