<svg xmlns="http://www.w3.org/2000/svg" fill="none" viewBox="-0.25 -0.25 200 200" id="Being-At-Peace-02--Streamline-Bangalore.svg"><desc>Being At Peace 02 Streamline Illustration: https://streamlinehq.com</desc><g id="being-at-peace-02--health-wellness-being-at-peace"><g id="color2"><path id="vector" fill="#fa8a8a" d="m72.23097000000001 140.32331250000001 -8.7151575 5.4692925c-2.7441225 1.7266725000000003 -8.16354 4.821915 -10.918635 7.59297h35.60277l0.5985 -0.4458825 -4.189500000000001 -7.1740200000000005c-4.2104475 -1.65585 -8.345085000000001 -3.4563375 -12.377977500000002 -5.442360000000001Z" stroke-width="0.5"></path><path id="vector_2" fill="#fa8a8a" d="M146.90282249999998 153.38557500000002c-2.7550950000000003 -2.771055 -8.1745125 -5.866297500000001 -10.918635 -7.59297 -3.4722975000000003 -2.1855225 -7.4642925 -4.68825 -7.4642925 -4.68825l-7.987979999999999 -5.0024625 -9.829365 16.835805 0.5985 0.4458825 35.6017725 0.0019950000000000002Z" stroke-width="0.5"></path><path id="Subtract" fill="#fa8a8a" fill-rule="evenodd" d="M153.19405500000002 91.6273575c1.6129575 -7.918554 1.44438 -16.09675725 -0.49376250000000005 -23.94209475 -1.9381425 -7.845437250000001 -5.595975000000001 -15.161601000000001 -10.710157500000001 -21.418619250000003 -5.1141825 -6.257118 -11.556037500000002 -11.29838325 -18.858735 -14.758810500000001 -7.3026975 -3.4603275 -15.283695 -5.253234 -23.36544 -5.2486455 -8.080947 0.00448875 -16.05984975 1.806273 -23.35875675 5.27487975S62.672127 40.05112125 57.56502675 46.313925000000005c-5.10710025 6.262803750000001 -8.75735175 13.583057250000001 -10.686417 21.43058925 -1.9289655 7.847631750000001 -2.08846575 16.02593475 -0.46692975000000003 23.94269325l25.39585125 -14.5956195c5.93761875 -3.2418750000000003 11.97249375 -5.234481000000001 17.761485 -5.527147500000001C78.8793075 67.57434075 78.6131745 58.000635 89.42886750000001 53.7901875c0.078603 -1.626324 0.538251 -3.2113515 1.341837 -4.62750225 0.803586 -1.416051 1.928766 -2.62352475 3.28466775 -3.5249655 1.3559017500000001 -0.90144075 2.9046202500000002 -1.47161175 4.52136825 -1.6647277500000002 1.6171470000000001 -0.19301625000000003 3.2560395000000004 -0.0033915 4.7862045 0.553413 1.9161975000000002 0.7155067500000001 3.5820225000000003 1.9741522500000002 4.7929875 3.62182275 1.2119625 1.6476705 1.9161975000000002 3.6129450000000003 2.0279175 5.654927250000001 10.29819 4.003965000000001 11.0233725 13.5370725 -0.24339 17.7624825 -0.0269325 0.008179500000000001 -0.053865 0.01625925 -0.08079750000000001 0.02423925 6.22041 0.28787850000000004 12.4398225 2.480583 17.801385 5.5017112500000005l25.533007500000004 14.5357695Z" clip-rule="evenodd" stroke-width="0.5"></path></g><g id="color1"><path id="vector_3" fill="#6153bd" d="M110.18385 53.803155000000004c-0.11172000000000001 -2.04198225 -0.815955 -4.00725675 -2.0279175 -5.654927250000001 -1.2119625 -1.6476705 -2.87679 -2.9063160000000003 -4.7929875 -3.62182275 -1.5301650000000002 -0.5568045 -3.1690575 -0.74642925 -4.786304250000001 -0.553413 -1.6166482500000001 0.193116 -3.1654665 0.763287 -4.52136825 1.6647277500000002 -1.3559017500000001 0.90144075 -2.480982 2.1089145 -3.28466775 3.5249655 -0.803586 1.4161507500000001 -1.263234 3.00117825 -1.34173725 4.62750225 -10.8158925 4.2104475 -10.549560000000001 13.784452500000002 0.14064749999999998 17.7744525 3.99798 -2.8169399999999998 6.7301325 -7.0623000000000005 7.410427500000001 -14.49168 -0.24209325 -0.2627415 -0.45575775 -0.550221 -0.6374025000000001 -0.85785 -0.7244842499999999 -1.2606405 -1.0727115 -2.70252675 -1.00338525 -4.15488675 0.06922650000000001 -1.45236 0.5531137500000001 -2.85454575 1.39440525 -4.0405732500000004 0.41186775000000003 -0.6385995 1.012263 -1.1332597500000001 1.7178945 -1.4154525000000002 0.7056315000000001 -0.2822925 1.481088 -0.337953 2.2202355000000003 -0.15960000000000002 1.89525 0.5157075000000001 3.2388825 2.4628275 3.5102025 5.0822625 0.13566000000000003 1.00917075 0.0588525 2.0355982500000005 -0.22543500000000002 3.0133477500000003 -0.28428749999999997 0.97764975 -0.77007 1.885275 -1.4254275 2.6644222500000003 0.19152000000000002 3.1231725 0.572565 6.2932275 2.2403850000000003 9.053310000000002 1.2937575 2.1418320000000004 3.062325 3.95778075 5.169045000000001 5.3076975 11.2667625 -4.22541 10.54158 -13.7585175 0.24339 -17.7624825Z" stroke-width="0.5"></path><path id="vector_4" fill="#6153bd" d="M82.01844000000001 89.00293500000001c-0.45486000000000004 1.4753025000000002 -1.7506125 5.4194175 -2.280285 5.959065000000001 -0.03341625 0.03441375000000001 -0.053366250000000004 0.0796005 -0.05615925000000001 0.1274805 -0.002793 0.047880000000000006 0.01167075 0.09516150000000001 0.0408975 0.13316625 0.029127 0.038004750000000004 0.071022 0.064239 0.11800425 0.07391475s0.09576000000000001 0.00209475 0.13765500000000003 -0.0213465l2.3281650000000003 -1.31959275c0.03042375 -0.01765575 0.05566050000000001 -0.0428925 0.07321650000000002 -0.07341600000000001 0.017456250000000003 -0.030523500000000002 0.026633250000000004 -0.065037 0.0265335 -0.10024875000000001v-4.720070250000001c-0.0014962500000000002 -0.046683 -0.019152 -0.09137100000000001 -0.050174250000000004 -0.1262835 -0.030922500000000002 -0.034912500000000006 -0.07321650000000002 -0.057855000000000004 -0.119301 -0.06493725 -0.04618425 -0.006982500000000001 -0.09326625000000001 0.0024937500000000003 -0.133266 0.026633250000000004 -0.039900000000000005 0.0241395 -0.07012425 0.06154575 -0.08528625000000001 0.10563525Z" stroke-width="0.5"></path><path id="vector_5" fill="#6153bd" d="M119.75187000000001 94.94604c-0.5296725000000001 -0.5396475000000001 -1.825425 -4.4887500000000005 -2.280285 -5.959065000000001 -0.013965000000000002 -0.045486000000000006 -0.04389 -0.08448825 -0.08478750000000002 -0.10982475000000001 -0.039900000000000005 -0.0253365 -0.0887775 -0.03541125 -0.13566000000000003 -0.02822925 -0.0468825 0.007082250000000001 -0.08977500000000001 0.030922500000000002 -0.1206975 0.067032 -0.031920000000000004 0.0361095 -0.048877500000000004 0.082194 -0.048877500000000004 0.1298745V93.765c0 0.03521175 0.0089775 0.06972525 0.0269325 0.10024875000000001 0.016957500000000004 0.03042375 0.041895 0.055760250000000004 0.0728175 0.07331625l2.3291625000000002 1.3196925c0.041895 0.0233415 0.0907725 0.03102225 0.13765500000000003 0.02144625 0.0468825 -0.009576 0.0887775 -0.035610750000000004 0.117705 -0.07351575 0.028927500000000002 -0.037805250000000006 0.04389 -0.08488725 0.0408975 -0.13266750000000002 -0.0019950000000000002 -0.04768050000000001 -0.021945 -0.09296700000000001 -0.0548625 -0.1274805Z" stroke-width="0.5"></path><path id="vector_6" fill="#6153bd" d="m68.4474525 142.69736250000003 3.9830175 -2.4937500000000004c-4.03299225 -1.7935050000000001 -7.78359225 -4.163565 -11.134095000000002 -7.0373625 -0.037206750000000004 -0.03391500000000001 -0.08588475 -0.052867500000000005 -0.13635825 -0.05187 -0.05037375000000001 0 -0.09885225 0.0189525 -0.1354605 0.053865 -0.036708000000000005 0.034912500000000006 -0.0588525 0.081795 -0.0620445 0.13266750000000002 -0.00329175 0.049875 0.01266825 0.09975 0.044588249999999996 0.1386525l7.4403525 9.2577975Z" stroke-width="0.5"></path><path id="vector_7" fill="#6153bd" d="m131.0525475 142.69736250000003 -3.9830175 -2.4937500000000004c4.0328925 -1.7935050000000001 7.7834925 -4.163565 11.134095000000002 -7.0373625 0.0369075 -0.03391500000000001 0.085785 -0.052867500000000005 0.13665750000000002 -0.05187 0.049875 0 0.09875250000000001 0.0189525 0.13466250000000002 0.053865 0.0369075 0.034912500000000006 0.0588525 0.081795 0.06284250000000001 0.13266750000000002 0.0029925000000000004 0.049875 -0.0129675 0.09975 -0.044887500000000004 0.1386525l-7.4403525 9.2577975Z" stroke-width="0.5"></path><path id="vector_8" fill="#6153bd" d="M49.575750000000006 108.25269c0.03002475 -0.03391500000000001 0.04748100000000001 -0.077805 0.049476 -0.12269250000000001 0.0019950000000000002 -0.045885 -0.011571 -0.0907725 -0.0385035 -0.1266825 -0.026832750000000002 -0.0369075 -0.06543600000000001 -0.06284250000000001 -0.109326 -0.0748125 -0.04389 -0.011970000000000001 -0.09047325 -0.007980000000000001 -0.132069 0.009975000000000001 -3.96606 1.7426325000000003 -6.800955 6.0648 -6.8628 8.85381 -0.00089775 0.03591 0.007680750000000001 0.0708225 0.02483775 0.101745 0.01725675 0.030922500000000002 0.042294000000000005 0.056857500000000005 0.0728175 0.0748125 0.03042375 0.017955 0.06513675000000001 0.027930000000000003 0.10064775000000001 0.027930000000000003 0.03541125 0 0.07022400000000001 -0.0089775 0.10094700000000001 -0.0269325 0.9236850000000001 -0.5157075000000001 1.84507575 -1.0344075 2.7640725 -1.5561 0.04438875 -0.0249375 0.0776055 -0.065835 0.0927675 -0.11471250000000001 0.7930125000000001 -2.603475 2.1356475 -5.0064525 3.9371325 -7.046340000000001Z" stroke-width="0.5"></path><path id="vector_9" fill="#6153bd" d="M157.00650000000002 116.61972000000002c-0.17157 -2.793 -2.9705550000000005 -6.9735225 -6.855817500000001 -8.67825 -0.041895 -0.017955 -0.08778 -0.021945 -0.13167 -0.009975000000000001 -0.04389 0.0109725 -0.0827925 0.037905 -0.109725 0.0748125 -0.0269325 0.03591 -0.0408975 0.08079750000000001 -0.0389025 0.1266825 0.0019950000000000002 0.044887500000000004 0.019950000000000002 0.0887775 0.049875 0.12269250000000001 1.6628325000000002 1.881285 2.9356425 4.0727925 3.74661 6.4488375 1.16109 0.6643350000000001 2.2792875 1.3047300000000002 3.33963 1.9152Z" stroke-width="0.5"></path></g><g id="line"><path id="vector_10" stroke="#120071" stroke-linecap="round" stroke-linejoin="round" d="M110.18385 53.803155000000004c-0.11172000000000001 -2.04198225 -0.815955 -4.00725675 -2.0279175 -5.654927250000001 -1.210965 -1.6476705 -2.87679 -2.9063160000000003 -4.7929875 -3.62182275 -1.5301650000000002 -0.5568045 -3.1690575 -0.74642925 -4.7862045 -0.553413 -1.616748 0.193116 -3.1654665 0.763287 -4.5214680000000005 1.6647277500000002 -1.3559017500000001 0.90144075 -2.480982 2.1089145 -3.284568 3.5249655 -0.803586 1.4161507500000001 -1.263234 3.00117825 -1.341837 4.62750225 -10.8158925 4.2104475 -10.549560000000001 13.784452500000002 0.14064749999999998 17.7744525 3.99798 -2.8169399999999998 6.7301325 -7.0623000000000005 7.410427500000001 -14.49168 -0.24199350000000003 -0.2627415 -0.455658 -0.550221 -0.6374025000000001 -0.85785 -0.7244842499999999 -1.2606405 -1.0727115 -2.70252675 -1.00338525 -4.15488675 0.06932625 -1.45236 0.5532135 -2.85454575 1.39440525 -4.0405732500000004 0.4119675 -0.6385995 1.012263 -1.1332597500000001 1.7178945 -1.4154525000000002 0.7056315000000001 -0.2822925 1.481088 -0.337953 2.2202355000000003 -0.15960000000000002 1.89525 0.5157075000000001 3.2388825 2.4628275 3.5102025 5.0822625 0.13566000000000003 1.00917075 0.0588525 2.0355982500000005 -0.22543500000000002 3.0133477500000003 -0.28428749999999997 0.97764975 -0.77007 1.885275 -1.4254275 2.6644222500000003 0.19152000000000002 3.1231725 0.572565 6.2932275 2.2403850000000003 9.053310000000002 1.2937575 2.1418320000000004 3.062325 3.95778075 5.169045000000001 5.3076975 11.2667625 -4.22541 10.54158 -13.7585175 0.24339 -17.7624825Z" stroke-width="0.5"></path><path id="vector_11" stroke="#120071" stroke-miterlimit="10" d="M104.1818925 51.530949750000005c-0.27132000000000006 -2.619435 -1.6159500000000002 -4.566555 -3.5102025 -5.0822625 -0.7391475000000001 -0.17845275000000002 -1.514604 -0.12269250000000001 -2.2202355000000003 0.15950024999999998s-1.305927 0.7768530000000001 -1.7178945 1.4155522500000002c-0.8411917500000001 1.18592775 -1.3250790000000001 2.5881135 -1.39440525 4.0404735 -0.06932625 1.45245975 0.278901 2.89424625 1.00338525 4.154986500000001 1.0483725 1.7665725 3.1002300000000003 2.8428750000000003 4.9984725 1.8762975000000002 2.3092125 -1.179045 3.0912525000000004 -4.14561 2.84088 -6.564547500000001Z" stroke-width="0.5"></path><path id="vector_12" stroke="#120071" stroke-linecap="round" stroke-linejoin="round" d="M66.0035775 103.21232250000001c5.5780199999999995 -3.305715 10.9116525 -6.44873775 16.205385 -9.430265250000001 0.0249375 1.6368975000000001 0.205485 12.414785250000001 0.636405 14.027742750000002 2.6369910000000005 1.298745 5.367846750000001 2.3969925 8.169525 3.285765 6.91866 2.2264200000000005 10.945567500000001 2.4508575 19.768455000000003 -0.736155 2.0777925 -0.728175 4.1097 -1.582035 6.08475 -2.5565925000000003 -0.007980000000000001 -0.7311675 0.2663325 -6.51567 0.4079775 -14.03672025 2.7251700000000003 1.5491175 8.967525 5.1441075000000005 16.381942499999997 9.41630025" stroke-width="0.5"></path><path id="vector_13" stroke="#120071" stroke-linecap="round" stroke-linejoin="round" d="M153.9292125 114.85215000000001c6.8757675 3.9510975 12.181470000000001 6.9825 13.176975000000002 7.499205l0.17157 0.08977500000000001 9.765525 -17.38044s-33.9459225 -19.06023 -41.39625 -23.375415000000004c-7.0932225 -4.106707500000001 -10.330110000000001 -5.985 -13.1181225 -7.11417 -4.0209225 -1.62921675 -8.265285 -2.64108075 -12.58845 -3.0014775 -6.6283875 2.08986225 -13.740063750000001 2.08986225 -20.36895 0 -5.8575195 0.49655550000000004 -11.55194775 2.1842257500000004 -16.73406 4.95957 -1.0613400000000002 0.572565 -3.166065 1.7955 -6.352080000000001 3.6388800000000003 -18.0776925 10.47375 -27.431250000000002 15.702645000000002 -44.0166825 24.8926125l9.765525 17.38044c4.506705 -2.3431275000000005 8.87775 -4.7431125000000005 13.212885000000002 -7.199955" stroke-width="0.5"></path><path id="vector_14" stroke="#120071" stroke-linecap="round" stroke-linejoin="round" d="M153.19405500000002 91.6273575c1.6129575 -7.918554 1.44438 -16.09675725 -0.49376250000000005 -23.94209475 -1.9381425 -7.845437250000001 -5.595975000000001 -15.161601000000001 -10.710157500000001 -21.418619250000003 -5.1141825 -6.257118 -11.556037500000002 -11.29838325 -18.858735 -14.758810500000001 -7.3026975 -3.4603275 -15.283695 -5.253234 -23.36544 -5.2486455 -8.080847250000001 0.00448875 -16.05984975 1.806273 -23.35875675 5.27487975S62.67222675000001 40.05112125 57.565126500000005 46.313925000000005c-5.10710025 6.262803750000001 -8.757451500000002 13.583057250000001 -10.686417 21.43058925 -1.92906525 7.847631750000001 -2.0885655 16.02593475 -0.46702950000000004 23.94269325" stroke-width="0.5"></path><path id="vector_15" stroke="#120071" stroke-linecap="round" stroke-linejoin="round" d="M48.0795 132.25653c-3.02252475 -0.44688000000000005 -6.1098870000000005 -0.039900000000000005 -8.91276225 1.17705 -2.802975 1.2159525000000002 -5.2095435000000005 3.1929975 -6.9474877500000005 5.7057 -2.03480025 2.93265 -3.0702052500000003 6.4428525 -2.9526000000000003 10.0099125 0.11750550000000001 3.56706 1.38183675 7.0014525 3.6052642500000003 9.793455 2.22352725 2.7920025 5.2877475 4.7929875 8.738100000000001 5.7057 3.45045225 0.9127125 7.103297250000001 0.6892725 10.41659325 -0.6374025000000001 0.7040355 3.2269125 2.2190385000000004 6.221407500000001 4.4019675000000005 8.700195 2.182929 2.47779 4.9617645 4.359075000000001 8.07386475 5.4653025 3.11210025 1.1062275000000001 6.454822500000001 1.40049 9.712358250000001 0.8548575 3.25753575 -0.5446350000000001 6.3223545 -1.91121 8.904881999999999 -3.97005 0.019551 -0.0129675 0.04159575 -0.021945 0.0648375 -0.025935 1.54941675 3.4144425000000003 4.047855 6.3111825 7.197561 8.345085000000001 3.14960625 2.032905 6.817713 3.1191825 10.566916500000001 3.126165 2.4747975 -0.0009975000000000001 4.9266525 -0.476805 7.221900000000001 -1.402485 2.8708050000000003 -1.16907 5.4214125 -3.0034725000000004 7.443345 -5.352585 2.0219325 -2.3481150000000004 3.4563375 -5.1441075000000005 4.18551 -8.1565575 0.013965000000000002 -0.0019950000000000002 0.027930000000000003 -0.0009975000000000001 0.0408975 0.0039900000000000005 0.013965000000000002 0.004987500000000001 0.0249375 0.013965000000000002 0.03391500000000001 0.0249375 2.228415 2.9186850000000004 5.236875 5.1480974999999995 8.67825 6.4298850000000005 3.4413750000000003 1.2817875 7.1750175 1.5650775000000001 10.770007500000002 0.815955 3.59499 -0.7491225 6.905692500000001 -2.4987375 9.54807 -5.0483475 2.6433750000000003 -2.5496100000000004 4.5116925 -5.7944775 5.3894925 -9.36054 2.8438725000000002 0.8758050000000001 5.8722825 0.963585 8.7610425 0.2523675 2.8897575 -0.71022 5.532135 -2.192505 7.64484 -4.2882525000000005 2.3590875000000002 -2.29824 3.9780300000000004 -5.248845 4.6513425 -8.472765 0.6723150000000001 -3.2239200000000006 0.36708 -6.57552 -0.8758050000000001 -9.625875 -1.242885 -3.0493575 -3.36756 -5.659815000000001 -6.102705 -7.495215000000001 -2.735145 -1.8344025000000002 -5.955075 -2.8119525000000003 -9.24882 -2.8069650000000004 -3.126165 0.0229425 -7.4942175 1.7157 -9.46428 2.4937500000000004" stroke-width="0.5"></path><path id="vector_16" stroke="#120071" stroke-linecap="round" stroke-linejoin="round" d="m159.609975 102.560955 14.5206075 7.6817475" stroke-width="0.5"></path><path id="vector_17" stroke="#120071" stroke-linecap="round" stroke-linejoin="round" d="m39.8351625 102.5080875 -14.460757500000001 7.7236425" stroke-width="0.5"></path><path id="vector_18" stroke="#120071" stroke-linecap="round" stroke-linejoin="round" d="M104.771415 66.26202975000001c-1.66782 -2.7600825 -2.0488649999999997 -5.930137500000001 -2.2403850000000003 -9.053310000000002 -0.34513499999999997 0.359499 -0.7471275 0.6592477500000001 -1.1900175000000002 0.8867775000000001 -0.7351575 0.343938 -1.5650775000000001 0.43072050000000006 -2.35619475 0.246183 -0.790818 -0.18453750000000002 -1.49654925 -0.629622 -2.0038777500000005 -1.263633 -0.6812925000000001 7.429380000000001 -3.4134450000000003 11.67075 -7.411425 14.4906825 6.629185500000001 2.0897625000000004 13.740562500000001 2.0897625000000004 20.369947500000002 0 -2.10672 -1.349418 -3.8752874999999998 -3.16516725 -5.1680475 -5.3067v0Z" stroke-width="0.5"></path><path id="vector_19" stroke="#120071" stroke-linecap="round" stroke-linejoin="round" d="M86.43636750000002 96.83929499999999c2.0204362500000004 1.64976525 4.450545750000001 2.7204817500000003 7.0313775000000005 3.098235" stroke-width="0.5"></path><path id="vector_20" stroke="#120071" stroke-linecap="round" stroke-linejoin="round" d="M113.0636325 96.83929499999999c-2.0199375 1.64976525 -4.450845 2.7204817500000003 -7.0313775000000005 3.098235" stroke-width="0.5"></path><path id="vector_21" stroke="#120071" stroke-linecap="round" stroke-linejoin="round" d="M99.30910500000002 121.3648275c-9.310665 -6.342105 -17.3565 -11.819377500000002 -23.241750000000003 -14.722102500000002 -4.9126875 -2.4209325 -17.193907499999998 -7.2747675 -25.115055 -0.07182 -7.587982500000001 6.8997075 -9.231862500000002 19.22781 -0.11471250000000001 29.053185000000003 3.91708275 4.05783 8.6225895 7.271775000000001 13.827345000000001 9.44433l7.563045000000001 -4.7451075c11.975985000000001 5.901210000000001 24.8976 10.15056 37.723455 13.898167500000001l10.8857175 -18.646267500000004c-7.344592500000001 -4.5515925 -14.36001 -9.327622500000002 -21.528045000000002 -14.210385Z" stroke-width="0.5"></path><path id="vector_22" stroke="#120071" stroke-linecap="round" stroke-linejoin="round" d="M72.23097000000001 140.32331250000001c-8.786977499999999 -4.25733 -12.876727500000001 -7.8094275 -16.7051325 -13.877220000000001" stroke-width="0.5"></path><path id="vector_23" stroke="#120071" stroke-linecap="round" stroke-linejoin="round" d="M52.5971775 153.38557500000002h35.60277" stroke-width="0.5"></path><path id="vector_24" stroke="#120071" stroke-linecap="round" stroke-linejoin="round" d="m72.23097000000001 140.32331250000001 -1.2508650000000001 0.7830375s-3.99 2.5007325000000002 -7.4642925 4.68825c-3.4742925000000002 2.1875175000000002 -11.23185 6.5625525 -12.450795 9.7006875h34.3070175l3.4254150000000005 -2.5536000000000003 -4.189500000000001 -7.1740200000000005c-4.20945 -1.657845 -8.3440875 -3.4583325000000005 -12.37698 -5.444355000000001Z" stroke-width="0.5"></path><path id="vector_25" stroke="#120071" stroke-linecap="round" stroke-linejoin="round" d="m99.75 121.665075 0.44089500000000004 -0.29925c9.310665 -6.342105 17.3565 -11.819377500000002 23.241750000000003 -14.722102500000002 4.9126875 -2.4209325 17.193907499999998 -7.2747675 25.115055 -0.07182 7.587982500000001 6.8997075 9.231862500000002 19.22781 0.11471250000000001 29.053185000000003 -3.9171825000000005 4.05783 -8.622390000000001 7.271775000000001 -13.827345000000001 9.44433" stroke-width="0.5"></path><path id="vector_26" stroke="#120071" stroke-linecap="round" stroke-linejoin="round" d="M127.26903 140.32331250000001c8.786977499999999 -4.25733 12.876727500000001 -7.8094275 16.7051325 -13.877220000000001" stroke-width="0.5"></path><path id="vector_27" stroke="#120071" stroke-linecap="round" stroke-linejoin="round" d="M135.9841875 145.792605c-3.4722975000000003 -2.1855225 -7.4642925 -4.68825 -7.4642925 -4.68825l-7.987979999999999 -5.0024625 -9.829365 16.835805 3.4254150000000005 2.5536000000000003h34.3070175c-1.218945 -3.13614 -8.9784975 -7.513170000000001 -12.450795 -9.698692500000002Z" stroke-width="0.5"></path><path id="vector_28" stroke="#120071" stroke-linecap="round" stroke-linejoin="round" d="M146.90282249999998 153.38557500000002h-35.60277" stroke-width="0.5"></path><path id="vector_29" stroke="#120071" stroke-linecap="round" stroke-linejoin="round" d="M99.75 151.11327c-3.39549 1.0852800000000002 -6.796965 2.1216825 -10.204425 3.10821l-4.9366275 -8.4558075" stroke-width="0.5"></path><path id="vector_30" stroke="#120071" stroke-linecap="round" stroke-linejoin="round" d="M109.9644 114.7633725v-4.11369" stroke-width="0.5"></path><path id="vector_31" stroke="#120071" stroke-linecap="round" stroke-linejoin="round" d="M89.53560000000002 110.5998075v4.163565" stroke-width="0.5"></path><path id="vector_32" stroke="#120071" stroke-linecap="round" stroke-linejoin="round" d="M23.714565000000004 107.2781325c-4.66032 0.24339 -5.725650000000001 -0.09975 -10.3590375 3.3296550000000003 -1.7191912500000002 1.1211900000000001 -3.13304775 2.651355 -4.114677525 4.4538375 -0.8748075000000001 1.8723075 -0.0907725 2.372055 0.9974900250000001 1.9790400000000001 0.49585725 -0.205485 0.9634852500000001 -0.4738125 1.3915125000000002 -0.798l4.4099475 -2.826915 0.0468825 0.027930000000000003c-0.07581 1.995 -2.2124550000000003 4.103715 -4.4737875 6.339112500000001 -1.7022636750000002 1.5640800000000001 -3.23247855 3.3047175 -4.564550025 5.1939825 -0.8553762 1.28079 -1.4571081000000001 2.7141975 -1.7725575 4.22142 -0.0278901 0.12269250000000001 -0.031092075 0.2503725 -0.009426375 0.37506 0.021675675000000002 0.1246875 0.0677901 0.24339 0.13568992500000002 0.3501225 0.06788985 0.10573500000000001 0.15622845000000002 0.19850250000000003 0.259878675 0.2703225 0.10366020000000001 0.07182 0.22058715 0.12269250000000001 0.344027775 0.149625 0.11826360000000001 0.031920000000000004 0.24329025 0.029925 0.36007755 -0.007980000000000001 0.11678730000000001 -0.0369075 0.220357725 -0.10673250000000001 0.29827245 -0.20149500000000004 0.209475 -0.18653250000000002 0.43491 -0.39102000000000003 0.6174525000000001 -0.5685749999999999 -0.179619825 0.33117 -0.321803475 0.6812925000000001 -0.4239375 1.043385 -0.113485575 0.23541 -0.15825337500000003 0.49775250000000004 -0.12913635 0.7571025 0.029127 0.25935 0.130941825 0.504735 0.29372385 0.7092225 0.219639525 0.209475 0.5024607 0.33915000000000006 0.804114675 0.3700725 0.301653975 0.030922500000000002 0.605093475 -0.0389025 0.8627078250000001 -0.19850250000000003 0.43409205 -0.25137000000000004 0.830109525 -0.5625899999999999 1.1760525000000002 -0.9256800000000001 -0.18950505 0.34314 -0.344227275 0.7042349999999999 -0.46184250000000004 1.0782975 -0.06953572499999999 0.1446375 -0.10563525 0.30324 -0.10563525 0.46483500000000005 0 0.1605975 0.036099525 0.31920000000000004 0.10563525 0.46383750000000007 0.0799197 0.141645 0.18750007500000002 0.2663325 0.316357125 0.365085 0.12885705 0.09975 0.2763474 0.17256749999999998 0.43375290000000005 0.21346500000000002 0.45186750000000003 0.07980000000000001 0.9171015 0.027930000000000003 1.3404405000000001 -0.149625 0.42343875000000003 -0.1765575 0.7873267500000001 -0.47082 1.048572 -0.847875 0.13466250000000002 -0.11371500000000001 0.28319025 -0.2104725 0.4418925 -0.28728 -0.19740525 0.189525 -0.3409455 0.4279275 -0.415758 0.6902699999999999 -0.0748125 0.26334 -0.0784035 0.5416425 -0.010174500000000001 0.8059800000000001 0.07401450000000001 0.22244250000000002 0.22264200000000003 0.412965 0.42074550000000005 0.5386500000000001 0.19820325 0.12568500000000002 0.43361325 0.1785525 0.6665295 0.1506225 0.32408775000000006 -0.011970000000000001 0.6462802500000001 -0.053865 0.9625875 -0.1246875 0.11371500000000001 -0.021945 0.2264325 -0.04389 0.3381525 -0.06284250000000001 4.8259050000000006 -0.819945 7.5520725 -4.097729999999999 10.439835 -7.5680325 1.75609875 -2.27031 3.760974 -4.336132500000001 5.97702 -6.1595625l-7.64883 -13.61388Z" stroke-width="0.5"></path><path id="vector_33" stroke="#120071" stroke-linecap="round" stroke-linejoin="round" d="M22.3948725 124.3772775c-1.65914175 3.00048 -4.2100485 5.4114375 -7.299705 6.89871 -0.7305690000000001 0.40299000000000007 -1.4352030000000002 0.851865 -2.1097125000000005 1.3426350000000002" stroke-width="0.5"></path><path id="vector_34" stroke="#120071" stroke-linecap="round" stroke-linejoin="round" d="M19.950000000000003 120.767325c-2.0382915 3.2289075000000005 -4.65543225 6.05283 -7.7196525000000005 8.330122500000002 -0.78852375 0.572565 -1.52308275 1.2159525000000002 -2.1945 1.9221825000000001 -0.273923475 0.4279275 -0.48929370000000005 0.8907675 -0.6403850249999999 1.37655" stroke-width="0.5"></path><path id="vector_35" stroke="#120071" stroke-linecap="round" stroke-linejoin="round" d="M17.172960000000003 119.1822975c-1.7865225 2.7012300000000002 -4.022319 5.076277500000001 -6.6104325 7.0224 -1.785525 1.4433825000000002 -3.192 2.583525 -3.704715 4.40097" stroke-width="0.5"></path><path id="vector_36" stroke="#120071" stroke-linecap="round" stroke-linejoin="round" d="M175.785435 107.2781325c4.66032 0.24339 5.725650000000001 -0.09975 10.3590375 3.3296550000000003 1.7186925000000002 1.1211900000000001 3.1331475 2.651355 4.1146875000000005 4.4538375 0.8748075000000001 1.8723075 0.0907725 2.372055 -0.9975 1.9790400000000001 -0.4957575 -0.205485 -0.963585 -0.4738125 -1.3915125000000002 -0.798l-4.4099475 -2.826915 -0.0468825 0.027930000000000003c0.07581 1.995 2.2124550000000003 4.103715 4.4737875 6.339112500000001 1.7027325000000002 1.5640800000000001 3.2328975000000004 3.3047175 4.56456 5.1939825 0.855855 1.28079 1.4573475000000002 2.7141975 1.7725575 4.22142 0.027930000000000003 0.12269250000000001 0.030922500000000002 0.2503725 0.0089775 0.37506 -0.0209475 0.1246875 -0.06783000000000002 0.24339 -0.13566000000000003 0.3501225 -0.06783000000000002 0.10573500000000001 -0.15561 0.19850250000000003 -0.25935 0.2703225 -0.10374 0.07182 -0.22044750000000002 0.12269250000000001 -0.3441375 0.149625 -0.1187025 0.031920000000000004 -0.24339 0.029925 -0.3600975 -0.007980000000000001 -0.11670750000000002 -0.0369075 -0.22044750000000002 -0.10673250000000001 -0.29825250000000003 -0.20149500000000004 -0.209475 -0.18653250000000002 -0.43491 -0.39102000000000003 -0.6174525000000001 -0.5685749999999999 0.17955000000000002 0.33117 0.32219250000000005 0.6812925000000001 0.4239375 1.043385 0.11371500000000001 0.23541 0.1586025 0.49775250000000004 0.1286775 0.7571025 -0.028927500000000002 0.25935 -0.13067250000000002 0.504735 -0.293265 0.7092225 -0.21945 0.209475 -0.5027400000000001 0.33915000000000006 -0.8039850000000001 0.3700725 -0.3022425 0.030922500000000002 -0.6054825 -0.0389025 -0.8628375 -0.19850250000000003 -0.43391250000000003 -0.25137000000000004 -0.82992 -0.5625899999999999 -1.1760525000000002 -0.9256800000000001 0.189525 0.34314 0.3441375 0.7042349999999999 0.46184250000000004 1.0782975 0.06982500000000001 0.1446375 0.10573500000000001 0.30324 0.10573500000000001 0.46483500000000005 0 0.1605975 -0.03591 0.31920000000000004 -0.10573500000000001 0.46383750000000007 -0.07980000000000001 0.141645 -0.18753 0.2663325 -0.31620750000000003 0.365085 -0.1286775 0.09975 -0.27630750000000004 0.17256749999999998 -0.43391250000000003 0.21346500000000002 -0.45186750000000003 0.07980000000000001 -0.9167025000000001 0.027930000000000003 -1.34064 -0.149625 -0.42294000000000004 -0.1765575 -0.7870275000000001 -0.47082 -1.0483725 -0.847875 -0.13466250000000002 -0.11371500000000001 -0.28329 -0.2104725 -0.4418925 -0.28728 0.19750500000000001 0.189525 0.34114500000000003 0.4279275 0.4159575 0.6902699999999999 0.0748125 0.26334 0.077805 0.5416425 0.009975000000000001 0.8059800000000001 -0.073815 0.22244250000000002 -0.22244250000000002 0.412965 -0.420945 0.5386500000000001 -0.19750500000000001 0.12568500000000002 -0.43391250000000003 0.1785525 -0.6663300000000001 0.1506225 -0.3241875 -0.011970000000000001 -0.6463800000000001 -0.053865 -0.9625875 -0.1246875 -0.11371500000000001 -0.021945 -0.2264325 -0.04389 -0.3381525 -0.06284250000000001 -4.8259050000000006 -0.819945 -7.5520725 -4.097729999999999 -10.439835 -7.5680325 -1.7565975 -2.27031 -3.7605750000000002 -4.336132500000001 -5.97702 -6.1595625l7.64883 -13.61388Z" stroke-width="0.5"></path><path id="vector_37" stroke="#120071" stroke-linecap="round" stroke-linejoin="round" d="M177.1051275 124.3772775c1.6588425000000002 3.00048 4.2104475 5.4114375 7.299705 6.89871 0.73017 0.40299000000000007 1.4354025000000001 0.851865 2.1097125000000005 1.3426350000000002" stroke-width="0.5"></path><path id="vector_38" stroke="#120071" stroke-linecap="round" stroke-linejoin="round" d="M179.55 120.767325c2.0378925000000003 3.2289075000000005 4.6553325 6.05283 7.7196525000000005 8.330122500000002 0.7880250000000001 0.572565 1.5231824999999999 1.2159525000000002 2.1945 1.9221825000000001 0.2743125 0.4279275 0.4897725 0.8907675 0.640395 1.37655" stroke-width="0.5"></path><path id="vector_39" stroke="#120071" stroke-linecap="round" stroke-linejoin="round" d="M182.32704 119.1822975c1.7865225 2.7012300000000002 4.021920000000001 5.076277500000001 6.6104325 7.0224 1.785525 1.4433825000000002 3.192 2.583525 3.704715 4.40097" stroke-width="0.5"></path><path id="vector_40" stroke="#120071" stroke-linecap="round" stroke-linejoin="round" d="M15.6477825 95.27331975000001v11.50107525" stroke-width="0.5"></path><path id="vector_41" stroke="#120071" stroke-linecap="round" stroke-linejoin="round" d="M21.398370000000003 101.0238075H9.897224925" stroke-width="0.5"></path><path id="vector_42" stroke="#120071" stroke-linecap="round" stroke-linejoin="round" d="M25.703580000000002 63.4120725v6.637365" stroke-width="0.5"></path><path id="vector_43" stroke="#120071" stroke-linecap="round" stroke-linejoin="round" d="M29.0222625 66.73085475h-6.637365" stroke-width="0.5"></path><path id="vector_44" stroke="#120071" stroke-linecap="round" stroke-linejoin="round" d="M45.280515 31.60878v8.4438375" stroke-width="0.5"></path><path id="vector_45" stroke="#120071" stroke-linecap="round" stroke-linejoin="round" d="M49.501935 35.8311975h-8.4438375" stroke-width="0.5"></path><path id="vector_46" stroke="#120071" stroke-linecap="round" stroke-linejoin="round" d="M69.647445 44.14436250000001v8.321145000000001" stroke-width="0.5"></path><path id="vector_47" stroke="#120071" stroke-linecap="round" stroke-linejoin="round" d="M73.8080175 48.30493500000001h-8.321145000000001" stroke-width="0.5"></path><path id="vector_48" stroke="#120071" stroke-linecap="round" stroke-linejoin="round" d="M154.3282125 12.93957v18.723075" stroke-width="0.5"></path><path id="vector_49" stroke="#120071" stroke-linecap="round" stroke-linejoin="round" d="M163.69074750000001 22.30120725H144.966675" stroke-width="0.5"></path><path id="vector_50" stroke="#120071" stroke-linecap="round" stroke-linejoin="round" d="M167.87226750000002 46.288089750000005h11.4662625" stroke-width="0.5"></path><path id="vector_51" stroke="#120071" stroke-linecap="round" stroke-linejoin="round" d="M173.60490000000001 52.020722250000006v-11.465265" stroke-width="0.5"></path><path id="vector_52" stroke="#120071" stroke-linecap="round" stroke-linejoin="round" d="M163.1361375 79.68239475v5.7745275" stroke-width="0.5"></path><path id="vector_53" stroke="#120071" stroke-linecap="round" stroke-linejoin="round" d="M166.0239 82.57015725000001h-5.775525" stroke-width="0.5"></path><path id="vector_54" stroke="#120071" stroke-linecap="round" stroke-linejoin="round" d="m178.0846725 95.66334225 10.651305 10.65020775" stroke-width="0.5"></path><path id="vector_55" stroke="#120071" stroke-linecap="round" stroke-linejoin="round" d="m178.0846725 106.31355 10.651305 -10.65020775" stroke-width="0.5"></path><path id="vector_56" stroke="#120071" stroke-linecap="round" stroke-linejoin="round" d="m184.8437325 152.04792750000001 4.396980000000001 4.3979775" stroke-width="0.5"></path><path id="vector_57" stroke="#120071" stroke-linecap="round" stroke-linejoin="round" d="m184.8437325 156.445905 4.396980000000001 -4.3979775" stroke-width="0.5"></path><path id="vector_58" stroke="#120071" stroke-linecap="round" stroke-linejoin="round" d="m42.42168 169.00742250000002 4.451842500000001 4.451842500000001" stroke-width="0.5"></path><path id="vector_59" stroke="#120071" stroke-linecap="round" stroke-linejoin="round" d="m42.42168 173.45926500000002 4.451842500000001 -4.451842500000001" stroke-width="0.5"></path></g></g></svg>