<svg xmlns="http://www.w3.org/2000/svg" fill="none" viewBox="-0.25 -0.25 200 200" id="Customer-Service-Support-Faq--Streamline-Bangalore.svg"><desc>Customer Service Support FAQ Streamline Illustration: https://streamlinehq.com</desc><g><g><path fill="#fa8a8a" d="M103.08564 22.9315275c-0.5057325 1.545327 -0.6443850000000001 3.1874115 -0.40498500000000004 4.7957805 0.24039750000000001 1.6082692500000002 0.851865 3.138534 1.7865225 4.4689995l-2.0259225 5.196975 5.2119375 -2.0668200000000003c1.669815 1.0930605000000002 3.5620725 1.7997892500000001 5.539117500000001 2.0686155 1.9770450000000002 0.268926 3.99 0.09306675 5.8902375000000005 -0.5145105000000001 -4.007955 -5.9796135 -9.5271225 -10.792152000000002 -15.9969075 -13.94904Z" stroke-width="0.5"></path><path fill="#fa8a8a" d="M75.35713500000001 53.180715000000006c-0.45486000000000004 -0.07581 -0.947625 -0.189525 -1.5162 -0.29925l1.5162 0.29925Z" stroke-width="0.5"></path><path fill="#fa8a8a" d="M54.206145 9.0962025c0.5890237500000001 1.2710145000000002 0.7879252500000001 2.68816275 0.5714677499999999 4.07229375 -0.21655725 1.38403125 -0.8385982500000001 2.67280125 -1.7876197500000002 3.7033185000000004 -0.9489217500000001 1.0304175 -2.18223075 1.7563980000000001 -3.54381825 2.08587225 -1.3615875000000002 0.32947425 -2.79030675 0.24777900000000003 -4.1055105 -0.2348115 -1.315104 -0.48259050000000003 -2.4575407499999997 -1.34433075 -3.2828722500000005 -2.47629375 -0.8253315000000001 -1.131963 -1.2964507500000002 -2.4832762500000003 -1.35370725 -3.8829682500000002 -0.0572565 -1.3996920000000002 0.3018435 -2.78496015 1.03191375 -3.9805536750000003 0.73007025 -1.195593525 1.79839275 -2.1478170000000003 3.0697065 -2.736212325 1.70402925 -0.788673375 3.65154825 -0.868353675 5.414330250000001 -0.22152480000000002 1.7627820000000003 0.646828875 3.1965885000000003 1.9672196250000002 3.9861097500000002 3.6708798Z" stroke-width="0.5"></path><g><path fill="#fa8a8a" d="m98.553 110.1908325 7.088235 4.77603 13.03932 9.9500625c2.344125 -1.7067225000000001 4.4777775 -3.6857625 6.35607 -5.895225000000001 1.3945049999999999 -1.6608375000000002 2.599485 -3.4722975000000003 3.591 -5.400465 0 0 -3.5221725000000004 -4.30521 -8.379000000000001 -9.362535 -5.1700425 -5.386500000000001 -13.153035000000001 -13.001415000000001 -19.369455 -15.275715000000002 -6.613724250000001 3.9606735000000004 -13.284306 5.70420375 -19.9549875 5.041365000000001 -2.4145485 13.01538 -3.85922775 26.192355 -4.322167500000001 39.4221975 4.98720075 1.14114 10.14627075 1.3216875000000001 15.200902500000002 0.5306700000000001L95.46075 117.335925c0.61954725 -2.539635 1.66512675 -4.95558 3.0922500000000004 -7.1450925000000005Z" stroke-width="0.5"></path><path stroke="#120071" stroke-linecap="round" stroke-linejoin="round" d="M100.87917000000002 88.98298500000001c6.21642 2.2742999999999998 14.1994125 9.889215 19.369455 15.275715000000002 4.8568275 5.0573250000000005 8.379000000000001 9.362535 8.379000000000001 9.362535 -0.991515 1.9281675000000003 -2.196495 3.7396275 -3.591 5.400465 -1.8782925000000001 2.2094625 -4.011945000000001 4.1885025 -6.35607 5.895225000000001l-13.03932 -9.9500625 -7.088235 -4.77603c-1.4271232500000002 2.1895124999999998 -2.47270275 4.6054575 -3.0922500000000004 7.1450925000000005l-3.6578325 16.641292500000002c-5.05463175 0.7910175 -10.21370175 0.6104700000000001 -15.200902500000002 -0.5306700000000001 0.46293975000000004 -13.2298425 1.9076190000000002 -26.4068175 4.322167500000001 -39.4221975 6.670681500000001 0.66283875 13.34126325 -1.0806915 19.9549875 -5.041365000000001Zm0 0c-6.614422500000001 3.9610725 -13.285702500000001 5.704702500000001 -19.956982500000002 5.041365000000001" stroke-width="0.5"></path></g></g><g><path fill="#6153bd" d="M98.553 110.1908325c-1.4193427500000002 2.1935025 -2.46432375 4.60845 -3.0922500000000004 7.1450925000000005l-0.6443850000000001 -9.8363475 3.736635 2.691255Z" stroke-width="0.5"></path><path fill="#6153bd" d="m152.571615 101.7380175 -4.8877500000000005 3.2977350000000003c2.3142 3.0014775 4.404960000000001 6.16854 6.254325 9.47625l1.5351525 -1.0044825c1.7057250000000002 -1.1371499999999999 3.5820225000000003 -1.3077225000000001 5.6288925 -1.49625 3.772545 -0.3600975 10.274250000000002 -2.04687 16.1106225 -4.0747875 -6.18051 -2.7870150000000002 -16.321095 -5.137125000000001 -24.6412425 -6.198465000000001Z" stroke-width="0.5"></path><path fill="#6153bd" d="M99.8068575 163.58102250000002c-2.95549275 1.4812875 -6.06290475 2.6373900000000003 -9.267772500000001 3.449355l0.5306700000000001 1.5551025c0.98553 3.0134475000000003 0.9286725000000001 6.57552 1.1181975 9.7226325 0.17645775000000002 4.04586 0.6068790000000001 8.077755000000002 1.2887700000000002 12.06975 5.0034600000000005 -8.18748 7.164045000000001 -15.598905 9.3814875 -21.0382725l-3.0513525 -5.7585675Z" stroke-width="0.5"></path><path fill="#6153bd" d="M102.592875 97.094655c0 0.23670675000000002 -0.06982500000000001 0.46812675000000004 -0.20149500000000004 0.66503325 -0.13167 0.19680675 -0.31920000000000004 0.35022225000000007 -0.5376525000000001 0.44089500000000004 -0.21845250000000002 0.09057300000000001 -0.45885000000000004 0.11421375000000002 -0.6912675 0.0680295 -0.23241750000000003 -0.04618425 -0.4458825 -0.16009875 -0.6134625 -0.32757900000000006 -0.16658250000000002 -0.16738050000000002 -0.28129499999999996 -0.38064600000000004 -0.32718 -0.612864 -0.045885 -0.232218 -0.021945 -0.47291475000000005 0.06783000000000002 -0.6915667500000001 0.0907725 -0.21875175 0.2443875 -0.40568325000000005 0.44089500000000004 -0.5372535 0.19750500000000001 -0.13147050000000002 0.428925 -0.2016945 0.6653325000000001 -0.2016945 0.15760500000000002 -0.0010972500000000001 0.313215 0.029127 0.45885000000000004 0.088977 0.1466325 0.059750250000000005 0.27830250000000006 0.14792924999999998 0.39002250000000005 0.25925025 0.11172000000000001 0.11132100000000002 0.1995 0.243789 0.25935 0.38942400000000005 0.05985 0.14573475000000002 0.08977500000000001 0.3018435 0.0887775 0.45934875000000003Z" stroke-width="0.5"></path><path fill="#6153bd" d="M84.88725 98.2886625c0 0.23670675000000002 -0.07022400000000001 0.46812675000000004 -0.2016945 0.66503325 -0.13157025 0.19680675 -0.31850175 0.35022225000000007 -0.5372535 0.44079525 -0.218652 0.09067275 -0.45934875000000003 0.1143135 -0.6915667500000001 0.06812925 -0.232218 -0.04618425 -0.44548350000000003 -0.1601985 -0.612864 -0.32757900000000006 -0.16738050000000002 -0.16738050000000002 -0.28139475 -0.38064600000000004 -0.32757900000000006 -0.612864 -0.04618425 -0.232218 -0.0225435 -0.47291475000000005 0.0680295 -0.6915667500000001 0.09067275 -0.21875175 0.24408825 -0.40568325000000005 0.44089500000000004 -0.5372535 0.1969065 -0.13147050000000002 0.42832650000000005 -0.2016945 0.66503325 -0.2016945 0.15750525 -0.0010972500000000001 0.313614 0.029127 0.45934875000000003 0.088977 0.145635 0.059750250000000005 0.278103 0.14792924999999998 0.38942400000000005 0.25925025 0.11132100000000002 0.11132100000000002 0.1995 0.24368925 0.25925025 0.38942400000000005 0.05985 0.14573475000000002 0.09007425000000001 0.3018435 0.088977 0.45934875000000003Z" stroke-width="0.5"></path><path fill="#6153bd" d="M92.9271 114.4740975c-0.0269325 0.2344125 -0.12289200000000002 0.45685500000000007 -0.27560925000000003 0.636405 -0.15271725000000003 0.1805475 -0.35540925 0.31221750000000004 -0.58254 0.37705500000000003 -0.22713075000000002 0.065835 -0.46852575 0.06284250000000001 -0.6938610000000001 -0.0089775 -0.2252355 -0.07182 -0.42423675000000005 -0.2084775 -0.5718667500000001 -0.39301500000000006 -0.14763 -0.18453750000000002 -0.237405 -0.408975 -0.25785375000000005 -0.6443850000000001 -0.02044875 -0.23541 0.029326500000000002 -0.4718175 0.14294175 -0.6792975000000001 0.11361525 -0.20748 0.28608300000000003 -0.37605750000000004 0.49565775 -0.4857825 0.20957475000000003 -0.1087275 0.44678025000000005 -0.153615 0.6817912500000001 -0.1286775 0.3150105 0.0389025 0.60219075 0.1995 0.80049375 0.44787750000000004 0.198303 0.24738000000000002 0.29186850000000003 0.5625899999999999 0.26084625 0.8787975Z" stroke-width="0.5"></path><path fill="#6153bd" d="M81.5366475 128.079c-0.0269325 0.2344125 -0.12289200000000002 0.45685500000000007 -0.27560925000000003 0.636405 -0.15261750000000002 0.1805475 -0.35540925 0.31221750000000004 -0.58254 0.37705500000000003 -0.22713075000000002 0.065835 -0.46852575 0.06284250000000001 -0.6938610000000001 -0.0089775 -0.2252355 -0.07182 -0.42423675000000005 -0.2084775 -0.5718667500000001 -0.39301500000000006 -0.14763 -0.18453750000000002 -0.237405 -0.408975 -0.25785375000000005 -0.6443850000000001 -0.02044875 -0.23541 0.029326500000000002 -0.4718175 0.14294175 -0.6792975000000001 0.11361525 -0.20748 0.28608300000000003 -0.37605750000000004 0.49565775 -0.4857825 0.20957475000000003 -0.1087275 0.44678025000000005 -0.153615 0.6817912500000001 -0.1286775 0.15700650000000002 0.016957500000000004 0.30912525 0.0648375 0.447678 0.14064749999999998 0.13845300000000002 0.07581 0.26054700000000003 0.1785525 0.35919975 0.3022425 0.09865275000000001 0.12269250000000001 0.17186925000000003 0.2643375 0.21555975 0.4159575 0.0436905 0.15162 0.05695725 0.31122 0.0389025 0.4678275Z" stroke-width="0.5"></path><path fill="#6153bd" d="M109.6053 111.2142675c0 0.2364075 -0.06982500000000001 0.4678275 -0.20149500000000004 0.6653325000000001 -0.13167 0.19650750000000003 -0.31920000000000004 0.3501225 -0.5376525000000001 0.44089500000000004 -0.21845250000000002 0.08977500000000001 -0.45885000000000004 0.11371500000000001 -0.6912675 0.06783000000000002 -0.23241750000000003 -0.045885 -0.4458825 -0.1605975 -0.6134625 -0.32718 -0.16658250000000002 -0.16758 -0.28129499999999996 -0.381045 -0.32718 -0.6134625 -0.045885 -0.23241750000000003 -0.021945 -0.472815 0.06783000000000002 -0.6912675 0.0907725 -0.21845250000000002 0.2443875 -0.40598249999999997 0.44089500000000004 -0.5376525000000001 0.19750500000000001 -0.13167 0.428925 -0.20149500000000004 0.6653325000000001 -0.20149500000000004 0.15760500000000002 -0.0009975000000000001 0.313215 0.028927500000000002 0.45885000000000004 0.0887775 0.1466325 0.05985 0.27830250000000006 0.14763 0.39002250000000005 0.25935 0.11172000000000001 0.11172000000000001 0.1995 0.24339 0.25935 0.39002250000000005 0.05985 0.145635 0.08977500000000001 0.301245 0.0887775 0.45885000000000004Z" stroke-width="0.5"></path><path fill="#6153bd" d="M123.44162250000001 112.408275c0 0.2364075 -0.06982500000000001 0.4678275 -0.20149500000000004 0.6653325000000001 -0.13167 0.19650750000000003 -0.31920000000000004 0.3501225 -0.5376525000000001 0.44089500000000004 -0.21845250000000002 0.08977500000000001 -0.45885000000000004 0.11371500000000001 -0.6912675 0.06783000000000002 -0.23241750000000003 -0.045885 -0.4458825 -0.1605975 -0.6134625 -0.32718 -0.16658250000000002 -0.16758 -0.28129499999999996 -0.381045 -0.32718 -0.6134625 -0.045885 -0.23241750000000003 -0.021945 -0.472815 0.06783000000000002 -0.6912675 0.0907725 -0.21945 0.2443875 -0.40598249999999997 0.44089500000000004 -0.5376525000000001 0.19750500000000001 -0.13167 0.428925 -0.20149500000000004 0.6653325000000001 -0.20149500000000004 0.15760500000000002 -0.0009975000000000001 0.313215 0.028927500000000002 0.45885000000000004 0.0887775 0.1466325 0.05985 0.27830250000000006 0.14763 0.39002250000000005 0.25935 0.11172000000000001 0.11172000000000001 0.1995 0.24339 0.25935 0.39002250000000005 0.05985 0.145635 0.08977500000000001 0.301245 0.0887775 0.45885000000000004Z" stroke-width="0.5"></path><path fill="#6153bd" d="M71.64244500000001 44.821665c-0.9097200000000001 -0.11271750000000001 -1.4782950000000001 0.871815 -1.7625825 1.89525 0.69426 0.0031920000000000004 1.3749540000000002 0.19261725000000002 1.97106 0.548625 1.0423875 0.6074775 1.89525 1.0802925 2.6932500000000004 1.4792925000000001 -0.7411425 -2.2353975000000004 -1.8593400000000002 -3.7895025 -2.9017275 -3.9231675Z" stroke-width="0.5"></path><path fill="#6153bd" d="M70.4105325 54.62110500000001c0.8149575 2.4448725000000002 2.084775 4.055835 3.2029725 3.86631 0.5875275 -0.0947625 1.0423875 -0.6633375 1.3456275 -1.5351525 -1.1181975 -0.6254325000000001 -3.0513525 -1.5730575 -4.5485999999999995 -2.3311575Z" stroke-width="0.5"></path><path fill="#6153bd" d="M90.95604 47.6655375c0.0947625 -1.0802925 -1.2887700000000002 -1.596 -2.1416325 -0.4738125 0.0189525 -1.043385 -1.6488675000000002 -1.4224350000000001 -2.5775400000000004 -0.0947625 -0.0947625 -1.1191950000000002 -1.995 -1.0423875 -2.767065 0.1506225 -0.0947625 -0.9845325 -1.74363 -0.58653 -2.160585 0.8528625000000001 -0.2463825 0.871815 -0.4738125 1.7067225000000001 -0.6822900000000001 2.4837750000000005 2.312205 0.07581 4.5485999999999995 -0.0768075 5.3067 -0.037905 0.32219250000000005 0.0189525 0.608475 0.5107200000000001 -1.17306 1.0224374999999999 0.13316625 0.14433825 0.29695575 0.25705574999999997 0.47919900000000004 0.329973 0.182343 0.073017 0.378651 0.10423875 0.57465975 0.09167025 0.195909 -0.01266825 0.386631 -0.06882750000000001 0.55810125 -0.16458750000000003s0.31929975 -0.22852725000000002 0.432915 -0.38872575000000004c-0.087381 0.34264125000000006 -0.15072225000000003 0.6909682500000001 -0.189525 1.0423875 0.32219250000000005 0.18852750000000001 0.32219250000000005 0.399 -0.037905 0.5875275 0 0.69825 0.2084775 1.0044825 0.6822900000000001 0.189525 0.8907675 -1.4782950000000001 2.6343975 -0.13266750000000002 1.1371499999999999 1.781535 -0.25286625 0.40907475000000004 -0.3820425 0.8826877500000001 -0.37196775000000004 1.3634827500000002 0.01007475 0.48089475 0.1590015 0.94852275 0.42882525000000005 1.3467247500000001 1.038996 -2.8510545 2.426718 -5.562558750000001 4.131645000000001 -8.072767500000001 1.2887700000000002 -2.29425 -0.30324 -3.0922500000000004 -1.629915 -2.0099625000000003Z" stroke-width="0.5"></path><path fill="#6153bd" d="m105.0756525 80.1880275 -5.932132500000001 -0.416955 -0.39800250000000004 -2.1226800000000003 6.330135 2.539635Z" stroke-width="0.5"></path><path fill="#6153bd" d="m67.5676575 59.28342000000001 -6.254325 0.83391L71.2215 61.78515c-2.1186900000000004 -1.402485 -3.6727950000000003 -2.5017300000000002 -3.6538425 -2.5017300000000002Z" stroke-width="0.5"></path><path fill="#6153bd" d="m84.79647750000001 60.7806675 -1.6528575 2.539635c0.08089725 -0.6477765 0.12658275000000002 -1.29944325 0.13665750000000002 -1.9521075 -0.0189525 0.0189525 0.871815 -0.321195 1.5162 -0.5875275Z" stroke-width="0.5"></path><path fill="#6153bd" d="M163.715685 46.357815c0.05586000000000001 0.13875225000000002 0.06982500000000001 0.29117025 0.039900000000000005 0.43780275 -0.029925 0.14673225 -0.10374 0.2810955 -0.209475 0.386232 -0.10673250000000001 0.1051365 -0.2423925 0.17625825 -0.39002250000000005 0.2044875 -0.1466325 0.0281295 -0.29925 0.011970000000000001 -0.43690500000000004 -0.04638375 -0.13765500000000003 -0.05835375000000001 -0.25536000000000003 -0.15630825 -0.3381525 -0.28149450000000004 -0.081795 -0.12518625 -0.1246875 -0.2719185 -0.12369000000000001 -0.42174300000000003 0.0009975000000000001 -0.14972475000000002 0.0468825 -0.29575875 0.13067250000000002 -0.41964825000000006 0.08379 -0.12388950000000001 0.20349 -0.2200485 0.34214250000000007 -0.27620775 0.09177 -0.0385035 0.1905225 -0.058254 0.2902725 -0.0580545 0.09975 0.00019950000000000002 0.19850250000000003 0.02024925 0.2902725 0.05915175 0.09177 0.03880275 0.1745625 0.0955605 0.2443875 0.1669815s0.1246875 0.15610875000000002 0.1605975 0.24887625000000002Z" stroke-width="0.5"></path><path fill="#6153bd" d="M133.24006500000002 136.91485500000002c0.7291725 1.482285 1.0024875 3.1481100000000004 0.7850325 4.786005 -0.217455 1.6368975000000001 -0.9157050000000001 3.174045 -2.00697 4.414935000000001 -1.0902675 1.24089 -2.5246725000000003 2.13066 -4.1206725 2.555595 -1.596 0.4259325 -3.2827725 0.36907500000000004 -4.846852500000001 -0.16359s-2.934645 -1.5171975 -3.9391275 -2.82891c-1.003485 -1.3117125 -1.5969975 -2.8917525000000004 -1.7027325000000002 -4.54062 -0.10673250000000001 -1.6488675000000002 0.27830250000000006 -3.29175 1.1062275000000001 -4.7211675 0.827925 -1.430415 2.060835 -2.5825275000000003 3.54312 -3.3117 1.9880175000000002 -0.9765525 4.282267500000001 -1.1241825 6.3790125 -0.4099725 2.096745 0.71421 3.824415 2.232405 4.8029625000000005 4.219425000000001Z" stroke-width="0.5"></path></g><g><path stroke="#120071" stroke-linecap="round" stroke-linejoin="round" d="M93.68520000000001 125.40969000000001c2.3118060000000002 6.2353725 2.445471 13.069245 0.37905 19.389405" stroke-width="0.5"></path><path stroke="#120071" stroke-linecap="round" stroke-linejoin="round" d="M85.990485 157.2508875c-3.9107985000000003 3.569055 -8.716454250000002 6.0099375 -13.904850750000001 7.063297500000001 -5.188496250000001 1.05336 -10.565619750000002 0.6792975000000001 -15.55850625 -1.08129 -4.9928865 -1.7605875 -9.41470425 -4.842862500000001 -12.79443375 -8.9186475 -3.3797295000000003 -4.0747875 -5.59068825 -8.990467500000001 -6.397566 -14.2233525 -0.80687775 -5.2318875 -0.1793505 -10.58547 1.8156495000000001 -15.489180000000001 1.9950997500000003 -4.9047075 5.28305925 -9.176002500000001 9.5135565 -12.359025 4.230497250000001 -3.1830225 9.245229 -5.15907 14.510034000000001 -5.717670000000001 5.264805 -0.5586000000000001 10.58257725 0.32219250000000005 15.38673675 2.5466175" stroke-width="0.5"></path><path stroke="#120071" stroke-linecap="round" stroke-linejoin="round" d="M109.1314875 68.45643c2.0708100000000003 -4.8318900000000005 2.336145 -12.369000000000002 -0.7581 -19.1988825 -2.82891 -6.2305845 -8.009924999999999 -11.087811 -14.409585750000002 -13.510040250000001 -6.3997605 -2.4222292500000004 -13.49826975 -2.2124550000000003 -19.74381675 0.58343775 -4.640769000000001 2.103927 -8.56782675 5.5147785 -11.3006775 9.8154" stroke-width="0.5"></path><path stroke="#120071" stroke-linecap="round" stroke-linejoin="round" d="M103.42678500000001 90.1390875c0.3820425 -3.3488070000000003 0.9815400000000001 -6.669185250000001 1.7955 -9.9400875" stroke-width="0.5"></path><path stroke="#120071" stroke-linecap="round" stroke-linejoin="round" d="m114.4381875 121.6760475 -1.1371499999999999 0.5117175" stroke-width="0.5"></path><path stroke="#120071" stroke-linecap="round" stroke-linejoin="round" d="M113.3010375 122.18776500000001c-0.508725 0.23341500000000004 -1.0583475 0.365085 -1.6179450000000002 0.38603250000000006 -0.5595975000000001 0.019950000000000002 -1.1181975 -0.06982500000000001 -1.6428825 -0.26533500000000004s-1.0054800000000002 -0.4917675 -1.4154525000000002 -0.8738100000000001c-0.4099725 -0.3820425 -0.740145 -0.8408925 -0.971565 -1.3506150000000001 -0.7610925000000001 -1.6748025000000002 -1.43241 -3.389505 -2.008965 -5.136127500000001" stroke-width="0.5"></path><path stroke="#120071" stroke-linecap="round" stroke-linejoin="round" d="M121.296 81.34413c-1.2897675 5.386500000000001 -2.6543475 14.06475 -1.043385 22.91457" stroke-width="0.5"></path><path stroke="#120071" stroke-linecap="round" stroke-linejoin="round" d="M125.01468000000001 69.3851025c2.208465 -9.0997935 1.197 -18.68367375 -2.8618275000000004 -27.122025000000004 -4.6692975 -9.851709000000001 -13.045305 -17.457646500000003 -23.299605000000003 -21.159369 -10.25479875 -3.7017225000000002 -21.55707225 -3.1989825 -31.4425965 1.39859475S49.85814225 35.41942950000001 46.081607250000005 45.64679700000001c-3.77643525 10.227367500000001 -3.3562882500000004 21.53313225 1.16897025 31.451973000000002 0.23201850000000002 0.5095230000000001 0.5623905 0.9682732500000001 0.9720637500000001 1.34991675 0.40967325000000004 0.38154375 0.8906677500000001 0.6785992500000001 1.41535275 0.87390975 0.5246850000000001 0.19531050000000003 1.08278625 0.28518525 1.642284 0.26443725 0.55949775 -0.020748 1.1094195000000002 -0.15181950000000002 1.6181445 -0.38553375l6.29223 -2.88078c0.5093235 -0.232218 0.9678742500000002 -0.5626897500000001 1.349418 -0.9723630000000001 0.38144400000000006 -0.40967325000000004 0.6783997500000001 -0.8906677500000001 0.8738100000000001 -1.415253 0.19541025 -0.5245852500000001 0.28548450000000003 -1.08258675 0.264936 -1.64198475 -0.02044875 -0.55949775 -0.15112125 -1.10931975 -0.3844365 -1.61824425 -0.2834895 -0.577752 -0.53037075 -1.1727607500000001 -0.7391475000000001 -1.781535" stroke-width="0.5"></path><path stroke="#120071" stroke-linecap="round" stroke-linejoin="round" d="m98.553 110.1908325 7.088235 4.77603 13.03932 9.9500625c2.344125 -1.7067225000000001 4.4777775 -3.6857625 6.35607 -5.895225000000001 1.3945049999999999 -1.6608375000000002 2.599485 -3.4722975000000003 3.591 -5.400465 0 0 -3.5221725000000004 -4.30521 -8.379000000000001 -9.362535 -5.1700425 -5.386500000000001 -13.153035000000001 -13.001415000000001 -19.369455 -15.275715000000002" stroke-width="0.5"></path><path stroke="#120071" stroke-linecap="round" stroke-linejoin="round" d="m95.46673500000001 117.3169725 -0.6443850000000001 -9.817395000000001 3.7336425 2.691255" stroke-width="0.5"></path><path stroke="#120071" stroke-linecap="round" stroke-linejoin="round" d="M80.9301675 94.02435000000001c-2.4145485 13.01538 -3.85922775 26.192355 -4.322167500000001 39.4221975 4.98720075 1.14114 10.14627075 1.3216875000000001 15.200902500000002 0.5306700000000001l3.6578325 -16.641292500000002c0.61954725 -2.539635 1.665027 -4.95558 3.0922500000000004 -7.1450925000000005" stroke-width="0.5"></path><path stroke="#120071" stroke-linecap="round" stroke-linejoin="round" d="M147.6629175 105.0168c2.3211825 2.99649 4.4119425 6.16455 6.254325 9.47625" stroke-width="0.5"></path><path stroke="#120071" stroke-linecap="round" stroke-linejoin="round" d="M128.21765249999999 114.39828750000001c3.4304025 -1.554105 12.9066525 -5.818417500000001 19.445265 -9.3814875l7.3725225000000005 -4.9466025c8.225385000000001 0.6443850000000001 21.0382725 3.56307 24.847725 6.822900000000001 -6.00096 2.54562 -12.320122500000002 4.2663075 -18.782925 5.1171750000000005 -1.97106 0.0229425 -3.90621 0.5366550000000001 -5.6288925 1.49625l-1.5351525 0.98553c-6.822900000000001 4.4159325 -15.407385000000001 9.576 -20.658225 12.66027 -1.5989925 0.9426375 -3.4503525 1.3675725 -5.2997175 1.214955 -1.8503625000000001 -0.15261750000000002 -3.6069600000000004 -0.8758050000000001 -5.029395 -2.0678175l-2.9196825000000004 -2.42592" stroke-width="0.5"></path><path stroke="#120071" stroke-linecap="round" stroke-linejoin="round" d="m22.573425 98.55399750000001 5.4772725 11.409405000000001" stroke-width="0.5"></path><path stroke="#120071" stroke-linecap="round" stroke-linejoin="round" d="m31.02624 101.5105875 -11.409405000000001 5.4772725" stroke-width="0.5"></path><path stroke="#120071" stroke-linecap="round" stroke-linejoin="round" d="M90.53908500000001 167.03037750000001c3.20486775 -0.8119649999999999 6.31227975 -1.9680675000000003 9.267772500000001 -3.449355" stroke-width="0.5"></path><path stroke="#120071" stroke-linecap="round" stroke-linejoin="round" d="m78.1251975 133.74978750000002 -0.22743000000000002 2.8428750000000003c-0.154812 2.0658225000000003 0.23052225 4.1366325 1.1181975 6.0079425l10.0258725 20.99937c0.80448375 1.6129575 1.4824845 3.285765 2.0279175 5.0034600000000005 0.9975 2.9925 0.9286725000000001 6.558562500000001 1.1181975 9.72363 0.18244275000000001 4.04586 0.612864 8.0767575 1.2887700000000002 12.06975 0.2503725 1.3635825000000001 0.5496225000000001 2.7291600000000003 0.9286725000000001 4.1126925000000005 5.5530825 -8.6612925 7.410427500000001 -16.526580000000003 9.6089175 -21.833280000000002 -0.2922675 -1.1361525000000001 -0.6783000000000001 -2.2463699999999998 -1.1561025 -3.3176850000000004 -3.02841 -5.717670000000001 -3.309705 -5.959065000000001 -3.9800250000000004 -8.64234 -4.442865 -18.1914075 -8.150572499999999 -22.824795 -8.43486 -23.159955l0.15261750000000002 -3.4114500000000003" stroke-width="0.5"></path><path stroke="#120071" stroke-linecap="round" stroke-linejoin="round" d="M136.15875 77.78106c2.6284125 -1.55959125 5.0862525000000005 -3.3889065000000005 7.3346175 -5.4583200000000005" stroke-width="0.5"></path><path stroke="#120071" stroke-linecap="round" stroke-linejoin="round" d="M147.264915 74.36961c-0.6822900000000001 0.2463825 -1.3456275 0.4359075 -1.9900125000000002 0.6443850000000001" stroke-width="0.5"></path><path stroke="#120071" stroke-linecap="round" stroke-linejoin="round" d="M140.593635 79.7710725c2.27031 -1.33994175 4.02591 -3.40177425 4.987500000000001 -5.856322500000001" stroke-width="0.5"></path><path stroke="#120071" stroke-linecap="round" stroke-linejoin="round" d="M130.6814775 71.3561625c2.1226800000000003 0.26533500000000004 8.622390000000001 0.851865 11.864265000000001 -1.5730575 4.0548375000000005 -3.0333975 4.601467500000001 -2.1675675 1.5730575 1.8004875 -0.18852750000000001 0.24738000000000002 -0.399 0.492765 -0.6443850000000001 0.7581 1.82343 -0.1929165 3.6338925 -0.49665525000000005 5.420415 -0.9097200000000001 3.8084550000000004 -0.85785 4.51668 0.011970000000000001 0.5117175 2.0279175 -0.6952575 0.34633200000000003 -1.410465 0.6501705000000001 -2.1416325 0.9097200000000001 1.023435 -0.056857500000000005 2.1416325 -0.18852750000000001 3.3735450000000005 -0.37905 3.5550900000000003 -0.5496225000000001 3.8433675000000003 0.17157 1.8004875 1.1740575000000002 -2.90871 1.2442815 -5.987992500000001 2.043279 -9.135105 2.37006" stroke-width="0.5"></path><path stroke="#120071" stroke-linecap="round" stroke-linejoin="round" d="M144.1188 79.52469c1.4593425000000002 0 3.904215 1.38453 -0.416955 1.5351525 -4.3401225000000005 0.15261750000000002 -11.0114025 -0.0947625 -13.816372500000002 -0.22743000000000002" stroke-width="0.5"></path><path stroke="#120071" stroke-linecap="round" stroke-linejoin="round" d="M149.36664750000003 76.322715c3.3186825 -0.34214250000000007 2.9615775 0.9316650000000001 -0.56658 2.140635 -2.651355 0.8560545 -5.420415 1.297149 -8.2064325 1.3077225000000001" stroke-width="0.5"></path><path stroke="#120071" stroke-linecap="round" stroke-linejoin="round" d="M54.206145 9.0962025c0.5890237500000001 1.2710145000000002 0.7879252500000001 2.68816275 0.5714677499999999 4.07229375 -0.21655725 1.38403125 -0.8385982500000001 2.67280125 -1.7876197500000002 3.7033185000000004 -0.9489217500000001 1.0304175 -2.18223075 1.7563980000000001 -3.54381825 2.08587225 -1.3615875000000002 0.32947425 -2.79030675 0.24777900000000003 -4.1055105 -0.2348115 -1.315104 -0.48259050000000003 -2.4575407499999997 -1.34433075 -3.2828722500000005 -2.47629375 -0.8253315000000001 -1.131963 -1.2964507500000002 -2.4832762500000003 -1.35370725 -3.8829682500000002 -0.0572565 -1.3996920000000002 0.3018435 -2.78496015 1.03191375 -3.9805536750000003 0.73007025 -1.195593525 1.79839275 -2.1478170000000003 3.0697065 -2.736212325 1.70402925 -0.788673375 3.65154825 -0.868353675 5.414330250000001 -0.22152480000000002 1.7627820000000003 0.646828875 3.1965885000000003 1.9672196250000002 3.9861097500000002 3.6708798v0Z" stroke-width="0.5"></path><path stroke="#120071" stroke-linecap="round" stroke-linejoin="round" d="m45.753330000000005 7.693717500000001 2.0279175 4.378027500000001 4.283265 -1.9900125000000002" stroke-width="0.5"></path><path stroke="#120071" stroke-linecap="round" stroke-linejoin="round" d="M125.01468000000001 69.3851025c0.9167025000000001 4.04855325 0.6673275000000001 8.274063000000002 -0.720195 12.186457500000001" stroke-width="0.5"></path><path stroke="#120071" stroke-linecap="round" stroke-linejoin="round" d="m71.1506775 44.857575000000004 -17.569965000000003 2.7511050000000004c-1.48477875 0.22942500000000002 -2.8679122500000003 0.8951565 -3.97334175 1.91270625 -1.1054295 1.01745 -1.88337975 2.34063375 -2.234799 3.8013727500000005 -0.351519 1.460739 -0.26064675 2.9930985 0.260946 4.40206725 0.5216925 1.40896875 1.45046475 2.631006 2.6684122500000003 3.51070125L76.3237125 80.69775000000001l4.606455 13.326600000000001" stroke-width="0.5"></path><path stroke="#120071" stroke-linecap="round" stroke-linejoin="round" d="M74.95913250000001 56.95725c-0.29925 0.871815 -0.7581 1.438395 -1.3456275 1.5351525 -2.16258 0.3581025 -3.591 -4.6293975000000005 -3.9231675 -7.0224 -0.313215 -2.2772925 -0.129675 -6.905692500000001 1.9521075 -6.643350000000001 1.043385 0.13167 2.160585 1.68777 2.8997325000000003 3.9241650000000003" stroke-width="0.5"></path><path stroke="#120071" stroke-linecap="round" stroke-linejoin="round" d="M69.86091 46.717912500000004c0.6947587500000001 0.00069825 1.376151 0.19072200000000003 1.97106 0.5496225000000001 2.0694135000000005 1.2442815 4.238078250000001 2.3155965000000003 6.483750000000001 3.2029725 1.95500025 0.7340602500000001 3.99129675 1.2304162500000002 6.0648 1.4782950000000001 0.67032 0.0947625 2.2453725 0.36608250000000003 2.4269175 0.7590975000000001 0.241395 0.520695 -1.7476200000000002 0.81396 -2.3132025 0.8897700000000001 -1.2315135 0.16129575000000002 -2.4765930000000003 0.193116 -3.7146900000000005 0.0947625 -1.8185422500000001 0.004987500000000001 -3.63359325 -0.159999 -5.4214125 -0.492765 -0.12478725 0.3828405 -0.11810400000000001 0.796404 0.0189525 1.175055 0.4857825 0.9137100000000001 1.6608375000000002 2.1266700000000003 1.9341525000000002 2.6343975 0.62643 1.1660775 1.2777975 2.50572 -1.6688175 0.3600975 -0.71421 -0.520695 -4.175535 -2.2214325 -5.2308900000000005 -2.7481125" stroke-width="0.5"></path><path stroke="#120071" stroke-linecap="round" stroke-linejoin="round" d="M86.612925 52.523362500000005c0.03860325 -0.35989800000000005 0.102942 -0.7166040000000001 0.1925175 -1.067325 -0.11371500000000001 0.16029825000000003 -0.26174400000000003 0.29316525 -0.43331400000000003 0.389025 -0.17157 0.09585975000000001 -0.36239175 0.15211875 -0.55850025 0.16488675 -0.19610850000000002 0.01266825 -0.392616 -0.0185535 -0.5751585 -0.09137100000000001 -0.1825425 -0.07291725 -0.34643175000000004 -0.18563475 -0.47989725000000005 -0.32987325" stroke-width="0.5"></path><path stroke="#120071" stroke-linecap="round" stroke-linejoin="round" d="M86.596965 53.07398250000001c0 0.69825 0.209475 0.9975 0.6822900000000001 0.1825425 0.871815 -1.49625 2.6154450000000002 -0.15162 1.1371499999999999 1.781535 -0.25306575 0.40348875000000006 -0.38343900000000003 0.87171525 -0.3752595 1.34792175 0.00807975 0.47620650000000003 0.154413 0.9397447500000001 0.42114450000000003 1.33435575 0.99680175 -2.7706560000000002 2.340933 -5.40375675 3.999975 -7.83636 1.4673225 -2.4119550000000003 -0.09975 -3.36357 -1.5062250000000001 -2.1945 0.0947625 -1.0802925 -1.2887700000000002 -1.596 -2.1416325 -0.4738125 0.0189525 -1.0423875 -1.6488675000000002 -1.4214375000000001 -2.5775400000000004 -0.0947625 -0.0947625 -1.1181975 -1.995 -1.0423875 -2.767065 0.15162 -0.0947625 -0.98553 -1.7486175 -0.5895225 -2.160585 0.8528625000000001 -0.249375 0.8708175 -0.4738125 1.7057250000000002 -0.6822900000000001 2.4827775" stroke-width="0.5"></path><path stroke="#120071" stroke-linecap="round" stroke-linejoin="round" d="M88.45431 57.76722c-1.0802925 3.5441175 -0.8907675 7.2588075000000005 3.5441175 9.02139 -3.2408775000000003 2.2742999999999998 -7.5999525000000006 2.1416325 -11.106165 0.32219250000000005 1.933155 0.27231750000000005 2.3690625 -3.8054625 2.3690625 -5.723655000000001 -0.49725375000000005 0.15112125 -1.01555475 0.221445 -1.5351525 0.2084775 -2.4448725000000002 0 -3.0513525 -2.2174425 -1.8194400000000002 -7.960050000000001" stroke-width="0.5"></path><path stroke="#120071" stroke-linecap="round" stroke-linejoin="round" d="m99.14352 79.7710725 -0.39800250000000004 -2.1226800000000003 6.330135 2.539635" stroke-width="0.5"></path><path stroke="#120071" stroke-linecap="round" stroke-linejoin="round" d="m71.22549 61.78515 -9.93111 -1.66782 6.254325 -0.83391" stroke-width="0.5"></path><path stroke="#120071" stroke-linecap="round" stroke-linejoin="round" d="M80.89725 67.1108025c-0.12388950000000001 -0.014763000000000002 -0.24498600000000004 -0.046683 -0.3600975 -0.0947625 -3.6318975 -1.4782950000000001 -9.995947500000002 -5.59398 -12.983460000000001 -7.73262l6.0648 -0.798" stroke-width="0.5"></path><path stroke="#120071" stroke-linecap="round" stroke-linejoin="round" d="M75.35713500000001 53.199667500000004c-0.45486000000000004 -0.07581 -0.947625 -0.2084775 -1.5162 -0.32219250000000005" stroke-width="0.5"></path><path stroke="#120071" stroke-linecap="round" stroke-linejoin="round" d="m78.20400000000001 50.413650000000004 2.42592 0.189525c2.312205 0.07581 4.5476025 -0.056857500000000005 5.3067 -0.037905 0.32219250000000005 0.007980000000000001 0.608475 0.4917675 -1.17306 1.003485l-0.9975 0.2822925" stroke-width="0.5"></path><path stroke="#120071" stroke-linecap="round" stroke-linejoin="round" d="M64.819545 45.94086c-0.7400452500000001 2.2417815 -0.9420390000000001 4.626305250000001 -0.589722 6.960654750000001 0.35231700000000005 2.3343495 1.24896975 4.55308875 2.6176395 6.47666775" stroke-width="0.5"></path><path stroke="#120071" stroke-linecap="round" stroke-linejoin="round" d="M83.261325 61.3871475s0.9097200000000001 -0.34114500000000003 1.5351525 -0.60648l-1.6528575 2.539635" stroke-width="0.5"></path><path stroke="#120071" stroke-linecap="round" stroke-linejoin="round" d="M115.06362000000001 14.8956675c-5.647845 -0.056857500000000005 -10.4428275 3.33564 -11.97798 8.03586 -0.504735 1.5455265000000002 -0.64239 3.1874115 -0.40299000000000007 4.795481250000001 0.24039750000000001 1.60806975 0.8508675 3.13823475 1.7845275 4.46929875l-2.0259225 5.177025 5.2119375 -2.0658225000000003c1.669815 1.0930605000000002 3.5620725 1.7997892500000001 5.539117500000001 2.0686155 1.9770450000000002 0.268926 3.99 0.09306675 5.8902375000000005 -0.5145105000000001 2.312205 -0.66184125 4.3560825 -2.0370945 5.839365000000001 -3.92945175 1.48428 -1.89235725 2.332155 -4.205061000000001 2.423925 -6.6081382500000005 0.056857500000000005 -6.2353725 -5.4393675 -11.371500000000001 -12.282217500000002 -11.4283575Z" stroke-width="0.5"></path><path stroke="#120071" stroke-linecap="round" stroke-linejoin="round" d="M161.63091 43.666560000000004c-0.399 -0.8907675 -0.3600975 -1.7067225000000001 0.07581 -3.7156875000000005 0.9226875000000001 -4.2523425 -1.5191925 -5.82141 -3.6199275 -4.965555 -0.3700725 0.15431325 -0.70224 0.3880275 -0.9725625 0.6846840000000001s-0.4718175 0.64887375 -0.5915175 1.0320135 -0.15261750000000002 0.7878255 -0.09875250000000001 1.185429c0.053865 0.39760350000000005 0.1945125 0.7784490000000001 0.4119675 1.1158035000000002" stroke-width="0.5"></path><path stroke="#120071" stroke-linecap="round" stroke-linejoin="round" d="M163.715685 46.357815c0.05586000000000001 0.13875225000000002 0.06982500000000001 0.29117025 0.039900000000000005 0.43780275 -0.029925 0.14673225 -0.10374 0.2810955 -0.209475 0.386232 -0.10673250000000001 0.1051365 -0.2423925 0.17625825 -0.39002250000000005 0.2044875 -0.1466325 0.0281295 -0.29925 0.011970000000000001 -0.43690500000000004 -0.04638375 -0.13765500000000003 -0.05835375000000001 -0.25536000000000003 -0.15630825 -0.3381525 -0.28149450000000004 -0.081795 -0.12518625 -0.1246875 -0.2719185 -0.12369000000000001 -0.42174300000000003 0.0009975000000000001 -0.14972475000000002 0.0468825 -0.29575875 0.13067250000000002 -0.41964825000000006 0.08379 -0.12388950000000001 0.20349 -0.2200485 0.34214250000000007 -0.27620775 0.09177 -0.0385035 0.1905225 -0.058254 0.2902725 -0.0580545 0.09975 0.00019950000000000002 0.19850250000000003 0.02024925 0.2902725 0.05915175 0.09177 0.03880275 0.1745625 0.0955605 0.2443875 0.1669815s0.1246875 0.15610875000000002 0.1605975 0.24887625000000002v0Z" stroke-width="0.5"></path><path stroke="#120071" stroke-linecap="round" stroke-linejoin="round" d="m80.53216499999999 67.01604 6.6902325000000005 13.1719875 4.77603 -13.3994175" stroke-width="0.5"></path><path stroke="#120071" stroke-linecap="round" stroke-linejoin="round" d="M91.9984275 66.78861c1.75809375 0.63610575 3.6080572500000003 0.9817395 5.4772725 1.023435 3.56307 0.173565 32.978347500000005 1.9142025000000003 32.978347500000005 1.9142025000000003 0.9306675000000001 5.8982175 0.33715500000000004 8.758049999999999 -0.98553 12.186457500000001l-30.324 -2.1416325 1.74363 9.2119125" stroke-width="0.5"></path><path stroke="#120071" stroke-linecap="round" stroke-linejoin="round" d="m90.59594249999999 93.3231075 -3.3735450000000005 -13.13508" stroke-width="0.5"></path><path stroke="#120071" stroke-linecap="round" stroke-linejoin="round" d="M133.24006500000002 136.91485500000002c0.7291725 1.482285 1.0024875 3.1481100000000004 0.7850325 4.786005 -0.217455 1.6368975000000001 -0.9157050000000001 3.174045 -2.00697 4.414935000000001 -1.0902675 1.24089 -2.5246725000000003 2.13066 -4.1206725 2.555595 -1.596 0.4259325 -3.2827725 0.36907500000000004 -4.846852500000001 -0.16359s-2.934645 -1.5171975 -3.9391275 -2.82891c-1.003485 -1.3117125 -1.5969975 -2.8917525000000004 -1.7027325000000002 -4.54062 -0.10673250000000001 -1.6488675000000002 0.27830250000000006 -3.29175 1.1062275000000001 -4.7211675 0.827925 -1.430415 2.060835 -2.5825275000000003 3.54312 -3.3117 1.9880175000000002 -0.9765525 4.282267500000001 -1.1241825 6.3790125 -0.4099725 2.096745 0.71421 3.824415 2.232405 4.8029625000000005 4.219425000000001v0Z" stroke-width="0.5"></path></g></g></svg>