<svg xmlns="http://www.w3.org/2000/svg" fill="none" viewBox="-0.25 -0.25 200 200" id="Education-Student-Active-01--Streamline-Bangalore.svg"><desc>Education Student Active 01 Streamline Illustration: https://streamlinehq.com</desc><g><g><path fill="#fa8a8a" d="m96.41436000000002 125.838615 -4.4538375 5.7994650000000005 6.9176625 5.3256525 4.4538375 -5.818417500000001 -6.9176625 -5.3067Z" stroke-width="0.5"></path><path fill="#fa8a8a" d="m152.9496675 65.1517125 -0.2463825 13.4373225 3.5820225000000003 -2.35011c2.5585875000000002 -1.685775 7.7934675 1.7406375000000003 11.67075 7.638855 3.8772825 5.8982175 4.965555 12.053790000000001 2.4069675 13.740562500000001l-2.88078 1.89525L178.5525 104.13900000000001l0.5306700000000001 -28.0497 -26.133502500000002 -10.937587500000001Z" stroke-width="0.5"></path><path fill="#fa8a8a" d="m68.8763775 174.205395 -6.045847500000001 3.221925 1.20897 -6.595470000000001c0.43989750000000005 2.6723025 1.9181925000000002 3.9610725 4.836877500000001 3.3735450000000005Z" stroke-width="0.5"></path><path fill="#fa8a8a" d="M90.8991825 34.126470000000005c-0.3600975 -4.434885 -0.716205 -4.478775000000001 -2.4069675 -8.64234 -1.5341550000000002 -3.7755375000000004 1.6109625 -7.9031925 5.856322500000001 -7.922145 4.245360000000001 -0.0189525 7.395465 4.071795 5.875275 7.8652875 -1.6847775 4.2034650000000005 -2.1037275 4.6054575 -2.4069675 8.6991975h-6.9176625Z" stroke-width="0.5"></path></g><g><path fill="#6153bd" d="m52.468500000000006 63.6734175 -0.7581 -1.4782950000000001L17.157 79.7451375a0.7451325000000001 0.7451325000000001 0 0 1 -0.947625 -0.22743000000000002 19.58691 19.58691 0 0 1 -2.9186850000000004 -5.7855 0.72618 0.72618 0 0 1 0.37905 -0.8907675l34.5484125 -17.5450275 -0.720195 -1.3835325L12.2263575 71.82000000000001a1.6139550000000003 1.6139550000000003 0 0 0 -0.798 1.933155 24.496605000000002 24.496605000000002 0 0 0 3.7146900000000005 7.3725225000000005 1.6179450000000002 1.6179450000000002 0 0 0 2.0279175 0.4738125L52.468500000000006 63.6734175Z" stroke-width="0.5"></path><path fill="#6153bd" d="M163.4114475 181.938015H30.97038a1.8753 1.8753 0 1 1 0 -3.7525950000000003h132.4410675a1.8753 1.8753 0 1 1 0 3.7525950000000003Z" stroke-width="0.5"></path><path fill="#6153bd" d="M61.276425 131.7897c-0.5685749999999999 -2.35011 -0.6633375 -4.8877500000000005 0.0947625 -6.5386125 1.7955 0.5496225000000001 2.92068 1.3965 3.0134475000000003 2.7481125 0.09775500000000001 1.438395 -1.1561025 2.7291600000000003 -3.10821 3.7905Z" stroke-width="0.5"></path><path fill="#6153bd" d="M42.323925 134.57571750000002c-2.5017300000000002 -0.492765 -4.263315 -1.4792925000000001 -4.4887500000000005 -3.0922500000000004 -0.18852750000000001 -1.3276725 0.871815 -2.539635 2.6723025 -3.56307a524.22615 524.22615 0 0 0 1.8164475 6.65532Z" stroke-width="0.5"></path><path fill="#6153bd" d="M95.71311750000001 82.7017275c0.2942625 0.9975 0.44688000000000005 2.03091 0.45486000000000004 3.0713025000000003v0.056857500000000005c0.13266750000000002 1.0044825 0.6822900000000001 1.0613400000000002 2.1416325 -0.11471250000000001a4.0448625 4.0448625 0 0 0 -2.5964925000000005 -3.0134475000000003Z" stroke-width="0.5"></path><path fill="#6153bd" d="M82.0294125 81.924675a4.0338899999999995 4.0338899999999995 0 1 0 1.1371499999999999 7.9031925 33.915 33.915 0 0 1 2.1795375000000003 -6.178515 4.0149375 4.0149375 0 0 0 -3.3166875000000005 -1.7246775Z" stroke-width="0.5"></path><path fill="#6153bd" d="M19.883167500000003 146.68636500000002a1.222935 1.222935 0 0 1 -0.25536000000000003 1.8782925000000001 1.218945 1.218945 0 0 1 -1.3625850000000002 -0.05985 1.22493 1.22493 0 0 1 -0.45785250000000005 -1.28478c0.05985 -0.23541 0.189525 -0.44787750000000004 0.3700725 -0.6094725a1.1900175000000002 1.1900175000000002 0 0 1 0.8678250000000001 -0.3201975 1.2039825000000002 1.2039825000000002 0 0 1 0.8379 0.39600750000000007Z" stroke-width="0.5"></path><path fill="#6153bd" d="M119.4795525 88.52014500000001a6.033877500000001 6.033877500000001 0 0 0 -1.1371499999999999 -11.6557875 6.042855 6.042855 0 0 0 0.8069775000000001 -6.4149225 6.053827500000001 6.053827500000001 0 0 0 -5.450340000000001 -3.4782825 6.094725 6.094725 0 0 0 -1.781535 0.2663325 6.0278925 6.0278925 0 0 0 -7.08225 -7.015417500000001 6.0298875 6.0298875 0 0 0 -3.341625 1.897245 6.04485 6.04485 0 0 0 -11.7315975 0 6.0308850000000005 6.0308850000000005 0 0 0 -10.423875 5.118172500000001 6.034875 6.034875 0 0 0 -6.44385 9.60792 6.033877500000001 6.033877500000001 0 0 0 -1.1371499999999999 11.6557875 6.041857500000001 6.041857500000001 0 0 0 3.7336425 11.07225 6.1994625 6.1994625 0 0 0 5.4952275 8.6612925c3.166065 -0.6822900000000001 5.818417500000001 -0.8907675 6.653325000000001 -1.197 1.785525 -0.6314175000000001 2.3471175000000004 -3.4852650000000005 2.50572 -5.7855l2.57355 -3.591a16.029825000000002 16.029825000000002 0 0 1 -2.5585875000000002 0.5296725000000001c-3.35559 0.416955 -8.6233875 -0.093765 -7.088235 -7.8642900000000004a4.494735 4.494735 0 0 1 -5.2817625 -5.859315 4.4957325 4.4957325 0 0 1 7.7834925 -1.2857775c4.434885 -9.267772500000001 8.5096725 -5.590987500000001 10.006920000000001 -1.023435a4.4887500000000005 4.4887500000000005 0 0 1 3.146115 3.25983c2.88078 -1.7625825 5.060317500000001 3.277785 -0.5496225000000001 6.21642 -1.1181975 0.5875275 -1.3456275 1.8563475 -0.9097200000000001 9.1341075 0.22743000000000002 4.03788 3.8094525000000004 6.89871 7.088235 7.487235000000001 0.720195 0.13266750000000002 1.554105 0.28329 2.42592 0.472815a6.0478425 6.0478425 0 0 0 0.26533500000000004 -1.5720600000000002 6.042855 6.042855 0 0 0 9.071265 -3.8603250000000005 6.04086 6.04086 0 0 0 -0.39301500000000006 -3.75858 6.035872500000001 6.035872500000001 0 0 0 6.44385 -6.026895000000001 5.930137500000001 5.930137500000001 0 0 0 -2.6892600000000004 -4.9904925Z" stroke-width="0.5"></path><path fill="#6153bd" d="M191.76438750000003 92.34954750000001c1.175055 0.037905 2.7481125 -1.326675 2.7481125 -1.326675s-1.49625 -1.4792925000000001 -2.65335 -1.5171975c-1.175055 -0.037905 -2.1416325 0.5685749999999999 -2.160585 1.3466250000000002 -0.0189525 0.7960050000000001 0.9097200000000001 1.4593425000000002 2.0658225000000003 1.4972475Z" stroke-width="0.5"></path><path stroke="#120071" stroke-linejoin="round" d="M191.76438750000003 92.34954750000001c1.175055 0.037905 2.7481125 -1.326675 2.7481125 -1.326675s-1.49625 -1.4792925000000001 -2.65335 -1.5171975c-1.175055 -0.037905 -2.1416325 0.5685749999999999 -2.160585 1.3466250000000002 -0.0189525 0.7960050000000001 0.9097200000000001 1.4593425000000002 2.0658225000000003 1.4972475Z" stroke-width="0.5"></path><path fill="#6153bd" d="M163.94211750000002 95.85975a27.03225 27.03225 0 0 1 -8.5854825 -13.021365000000001 27.0332475 27.0332475 0 0 1 8.5854825 13.021365000000001Z" stroke-width="0.5"></path><path fill="#6153bd" d="m114.040185 143.0285325 -1.66782 6.709185000000001 -0.7581 -11.5041675c0.6822900000000001 1.44039 1.5162 3.0513525 2.42592 4.794982500000001Z" stroke-width="0.5"></path><path fill="#6153bd" d="M97.589415 117.61323a0.9875250000000001 0.9875250000000001 0 0 1 -1.17705 0.9665775 0.98553 0.98553 0 0 1 0.19152000000000002 -1.9521075 0.9825375000000001 0.9825375000000001 0 0 1 0.69825 0.2862825 0.9825375000000001 0.9825375000000001 0 0 1 0.28728 0.6992475Z" stroke-width="0.5"></path><path fill="#6153bd" d="M82.92018 130.80417a0.9885225000000001 0.9885225000000001 0 0 1 -0.608475 0.9107175000000001 0.9845325 0.9845325 0 1 1 -0.37705500000000003 -1.8962475 0.9825375000000001 0.9825375000000001 0 0 1 0.69825 0.2862825 0.9865275 0.9865275 0 0 1 0.28728 0.6992475Z" stroke-width="0.5"></path><path fill="#6153bd" d="M95.3340675 160.69725a0.9885225000000001 0.9885225000000001 0 0 1 -0.608475 0.9107175000000001 0.9845325 0.9845325 0 1 1 -0.37705500000000003 -1.8962475 0.9825375000000001 0.9825375000000001 0 0 1 0.69825 0.2862825 0.9845325 0.9845325 0 0 1 0.28728 0.6992475Z" stroke-width="0.5"></path></g><g><path stroke="#120071" stroke-linecap="round" stroke-linejoin="round" d="M101.49363000000001 62.1193125a6.0298875 6.0298875 0 0 1 10.423875 5.118172500000001 6.034875 6.034875 0 0 1 6.44385 9.60792 6.0318825 6.0318825 0 0 1 1.1371499999999999 11.6557875 6.0478425 6.0478425 0 0 1 2.7102075 5.0423625h-0.0149625a6.04485 6.04485 0 0 1 -1.913205 4.4119425 6.04485 6.04485 0 0 1 -4.530645 1.6149525c0.4119675 0.9186975000000001 0.588525 1.925175 0.512715 2.9296575a6.041857500000001 6.041857500000001 0 0 1 -6.00894 5.580015 5.941110000000001 5.941110000000001 0 0 1 -3.1840200000000003 -0.9097200000000001 6.2353725 6.2353725 0 0 1 -0.26533500000000004 1.5730575 53.056027500000006 53.056027500000006 0 0 0 -2.42592 -0.4738125c-3.2847675000000005 -0.5536125000000001 -6.844845 -3.4683075 -7.088235 -7.48125 -0.44089500000000004 -7.281750000000001 -0.209475 -8.548575000000001 0.9097200000000001 -9.135105 5.8922325 -3.0922500000000004 3.1840200000000003 -8.472765 0.11371500000000001 -5.914177500000001 -1.4782950000000001 1.2319125000000002 -2.1276675000000003 0.9486225 -2.1416325 0.0389025 -0.08977500000000001 -5.479267500000001 -5.2997175 -14.898660000000001 -11.1291075 -1.4274225 -5.829390000000001 13.4712375 1.0423875 14.328090000000001 5.1171750000000005 13.835325 0.0189525 0.17057250000000002 0.5366550000000001 7.78848 -2.5206825000000004 8.8508175 -0.8329125000000001 0.289275 -3.49125 0.49376250000000005 -6.653325000000001 1.197a6.2054475 6.2054475 0 0 1 -5.4952275 -8.663287500000001 6.041857500000001 6.041857500000001 0 0 1 -3.7336425 -11.07225 6.0328800000000005 6.0328800000000005 0 0 1 1.1371499999999999 -11.6557875 6.034875 6.034875 0 0 1 6.4248975 -9.6089175 6.0308850000000005 6.0308850000000005 0 0 1 10.423875 -5.1171750000000005 6.05682 6.05682 0 0 1 11.75055 0.0029925000000000004v0Z" stroke-width="0.5"></path><path stroke="#120071" stroke-linecap="round" stroke-linejoin="round" d="M180.7340325 154.570605a2.0638275 2.0638275 0 0 1 -3.5261625000000003 1.46034 2.0598375 2.0598375 0 0 1 -0.44787750000000004 -2.2513575 2.0668200000000003 2.0668200000000003 0 0 1 1.9082175000000001 -1.2748050000000002 2.0698125000000003 2.0698125000000003 0 0 1 2.0658225000000003 2.0658225000000003v0Z" stroke-width="0.5"></path><path stroke="#120071" stroke-linecap="round" stroke-linejoin="round" d="M163.4114475 181.91906250000002a1.8753 1.8753 0 1 0 0 -3.7525950000000003H30.97038a1.8753 1.8753 0 1 0 0 3.7525950000000003h132.4410675Z" stroke-width="0.5"></path><path stroke="#120071" stroke-linecap="round" stroke-linejoin="round" d="m52.468500000000006 63.6734175 -0.7581 -1.4782950000000001L17.157 79.7451375a0.7451325000000001 0.7451325000000001 0 0 1 -0.947625 -0.22743000000000002 19.58691 19.58691 0 0 1 -2.9186850000000004 -5.7855 0.72618 0.72618 0 0 1 0.37905 -0.8907675l34.5484125 -17.5450275 -0.720195 -1.3835325L12.2263575 71.82000000000001a1.6139550000000003 1.6139550000000003 0 0 0 -0.798 1.933155 24.496605000000002 24.496605000000002 0 0 0 3.7146900000000005 7.3725225000000005 1.6179450000000002 1.6179450000000002 0 0 0 2.0279175 0.4738125L52.468500000000006 63.6734175Z" stroke-width="0.5"></path><path stroke="#120071" stroke-linecap="round" stroke-linejoin="round" d="m48.616155 63.76818 -3.5062125 -6.89871" stroke-width="0.5"></path><path stroke="#120071" stroke-linecap="round" stroke-linejoin="round" d="M47.8011975 62.176170000000006 27.729502500000002 72.37261500000001" stroke-width="0.5"></path><path stroke="#120071" stroke-linecap="round" stroke-linejoin="round" d="M46.607189999999996 59.8071075 14.254275 76.23892500000001" stroke-width="0.5"></path><path stroke="#120071" stroke-linecap="round" stroke-linejoin="round" d="M47.8011975 62.176170000000006c4.4159325 -2.236395 6.51966 0.5496225000000001 8.3580525 -0.37905" stroke-width="0.5"></path><path stroke="#120071" stroke-linecap="round" stroke-linejoin="round" d="M13.723605 74.98806 46.000710000000005 58.6131" stroke-width="0.5"></path><path stroke="#120071" stroke-linecap="round" stroke-linejoin="round" d="m146.9985825 179.0761875 11.5799775 -56.08443750000001a7.24185 7.24185 0 0 0 -1.37256 -5.901210000000001 7.25781 7.25781 0 0 0 -5.37453 -2.7979875000000005l-36.5593725 -1.7745525" stroke-width="0.5"></path><path stroke="#120071" stroke-linecap="round" stroke-linejoin="round" d="m151.0544175 159.422445 -6.178515 -0.45486000000000004" stroke-width="0.5"></path><path stroke="#120071" stroke-linecap="round" stroke-linejoin="round" d="m114.040185 143.0285325 -2.8498575 11.477235" stroke-width="0.5"></path><path stroke="#120071" stroke-linecap="round" stroke-linejoin="round" d="M79.20150000000001 170.1735c-0.720195 -0.13266750000000002 -3.4583325000000005 -0.5985 -5.07927 -0.8907675" stroke-width="0.5"></path><path stroke="#120071" stroke-linecap="round" stroke-linejoin="round" d="M78.10425000000001 174.1106325c0.492765 0.1107225 3.4304025 0.6633375 3.8094525000000004 0.6822900000000001" stroke-width="0.5"></path><path stroke="#120071" stroke-linecap="round" stroke-linejoin="round" d="M72.276855 155.1441675a4.1545875 4.1545875 0 0 0 -3.0972375000000003 -0.5316675000000001 4.6972274999999994 4.6972274999999994 0 0 0 -2.7102075 1.781535 4.389 4.389 0 0 0 0.7581 5.9131800000000005 6.7680375 6.7680375 0 0 0 2.1945 1.2698175c-1.1181975 2.5935 1.995 5.3635575 4.70022 5.704702500000001 -1.5351525 1.7246775 1.21296 4.264312500000001 3.9800250000000004 4.8328875 -1.66782 0.6822900000000001 -0.399 3.449355 2.3690625 4.0897499999999996" stroke-width="0.5"></path><path stroke="#120071" stroke-linecap="round" stroke-linejoin="round" d="M84.4174275 159.574065a54.333825000000004 54.333825000000004 0 0 1 -15.54105 -2.3311575" stroke-width="0.5"></path><path stroke="#120071" stroke-linecap="round" stroke-linejoin="round" d="M87.68025000000002 157.6598625c-1.0423875 -0.5306700000000001 -1.1181975 -1.0423875 -1.5730575 -1.7246775" stroke-width="0.5"></path><path stroke="#120071" stroke-linecap="round" stroke-linejoin="round" d="M67.30332 117.61323c0.2463825 -0.5117175 0.50673 -1.0074750000000001 0.7581 -1.4782950000000001 2.6024775 -4.879770000000001 8.301195 -6.9176625 12.9066525 -7.922145" stroke-width="0.5"></path><path stroke="#120071" stroke-linecap="round" stroke-linejoin="round" d="M63.66444 126.483c0.29925 -0.98553 0.8528625000000001 -2.5017300000000002 1.5351525 -4.16955" stroke-width="0.5"></path><path stroke="#120071" stroke-linecap="round" stroke-linejoin="round" d="M119.93441250000001 154.1726025c-3.3166875000000005 -6.368040000000001 -6.3490875 -11.75055 -8.3391 -15.96" stroke-width="0.5"></path><path stroke="#120071" stroke-linecap="round" stroke-linejoin="round" d="M106.78137750000002 108.74346000000001a22.546492500000003 22.546492500000003 0 0 1 5.837370000000001 1.9900125000000002c15.19392 8.9425875 29.84919 38.321955 31.176862500000002 43.19175 2.6134500000000003 9.589965000000001 2.7481125 21.68166 -8.983485 24.3160575" stroke-width="0.5"></path><path stroke="#120071" stroke-linecap="round" stroke-linejoin="round" d="m73.9935525 171.43833 -11.181975000000001 5.98899 2.388015 -13.001415000000001 1.79949 -2.35011" stroke-width="0.5"></path><path stroke="#120071" stroke-linecap="round" stroke-linejoin="round" d="m70.373625 157.64091000000002 20.468700000000002 -26.836740000000002 9.1540575 6.9934725 -16.6782 21.75747" stroke-width="0.5"></path><path stroke="#120071" stroke-linecap="round" stroke-linejoin="round" d="m91.96052250000001 131.63808 4.4538375 -5.7994650000000005 6.9176625 5.3067 -4.4538375 5.818417500000001" stroke-width="0.5"></path><path stroke="#120071" stroke-linecap="round" stroke-linejoin="round" d="M42.323925 134.57571750000002c-0.9097200000000001 -3.25983 -2.6862675 -9.685725000000001 -3.25983 -12.319125 -0.69825 -3.1860150000000003 -1.4753025000000002 -6.3690375 -2.29425 -9.55206a62.104350000000004 62.104350000000004 0 0 1 -0.851865 -3.904215c-1.0503675 -5.5710375 0.44289 -6.6483375 2.86083 -0.60648a33.36338250000001 33.36338250000001 0 0 0 4.9476 8.490720000000001" stroke-width="0.5"></path><path stroke="#120071" stroke-linecap="round" stroke-linejoin="round" d="M52.1602725 114.12597000000001c-0.0189525 -0.189525 -0.13266750000000002 -1.023435 -0.28428749999999997 -2.1945" stroke-width="0.5"></path><path stroke="#120071" stroke-linecap="round" stroke-linejoin="round" d="M51.875985 111.9085275a27.52701 27.52701 0 0 0 2.1795375000000003 -7.35357c0.89775 -5.155080000000001 3.2239200000000006 -5.3635575 3.0513525 0.7581 -0.0189525 0.6633375 -0.0887775 7.429380000000001 -0.11371500000000001 9.438345 -0.015960000000000002 1.2319125000000002 0.34214250000000007 4.2403725 1.3645800000000001 4.4887500000000005 0.4179525 0.0867825 0.8458800000000001 0.10573500000000001 1.2698175 0.056857500000000005 3.2408775000000003 -0.26234250000000003 8.3181525 -2.93664 9.55206 -0.9286725000000001 0.9077250000000001 1.4782950000000001 -3.6827700000000005 3.704715 -6.67128 5.53413 -2.1266700000000003 1.29675 -1.8383925 5.3256525 -1.2319125000000002 7.880250000000001" stroke-width="0.5"></path><path stroke="#120071" stroke-linecap="round" stroke-linejoin="round" d="M37.8321825 131.48646000000002c2.04687 17.303632500000003 4.00596 29.542957500000004 7.880250000000001 38.037667500000005 2.5246725000000003 5.532135 8.1685275 8.67825 15.4083825 8.67825" stroke-width="0.5"></path><path stroke="#120071" stroke-linecap="round" stroke-linejoin="round" d="M64.3856325 128.22663c0.6852825000000001 7.0413525 2.80896 20.852737500000003 3.3346425 25.206825000000002" stroke-width="0.5"></path><path stroke="#120071" stroke-linecap="round" stroke-linejoin="round" d="M46.683 111.8327175a17.3993925 17.3993925 0 0 0 1.6109625 2.8997325000000003" stroke-width="0.5"></path><path stroke="#120071" stroke-linecap="round" stroke-linejoin="round" d="M42.2670675 114.7125c-0.17057250000000002 -0.17057250000000002 -0.62643 -4.64436 -1.0802925 -9.4393425 -0.5516175000000001 -5.818417500000001 1.41246 -6.990480000000001 3.1271625 -0.37905a43.241625000000006 43.241625000000006 0 0 0 2.3690625 6.9376125c0 -0.3600975 0.0189525 -6.6523275 0.5107200000000001 -11.598930000000001 0.5506200000000001 -5.53413 2.7211800000000004 -5.5530825 3.2987325000000003 0.4917675 0.05586000000000001 0.5875275 0.9286725000000001 7.506187500000001 1.3835325 11.182972500000002" stroke-width="0.5"></path><path stroke="#120071" stroke-linecap="round" stroke-linejoin="round" d="M53.695425 117.8975175c-4.378027500000001 2.2473675 -6.9475875 5.615925 -5.970037500000001 10.499685" stroke-width="0.5"></path><path stroke="#120071" stroke-linecap="round" stroke-linejoin="round" d="M61.371187500000005 125.25108750000001c1.7955 0.5496225000000001 2.92068 1.3965 3.0134475000000003 2.7481125 0.4418925 6.446842500000001 -25.63575 9.975000000000001 -26.5524525 3.49125 -0.18852750000000001 -1.3276725 0.871815 -2.539635 2.6723025 -3.56307" stroke-width="0.5"></path><path stroke="#120071" stroke-linecap="round" stroke-linejoin="round" d="M15.5999025 143.72977500000002c-0.98553 -1.1371499999999999 -1.2698175 -2.35011 -1.49625 -5.496225 -0.4817925 -6.672277500000001 -4.762065000000001 -7.880250000000001 -7.524142500000001 -5.647845a4.2284025000000005 4.2284025000000005 0 0 0 -0.13266750000000002 6.500707500000001" stroke-width="0.5"></path><path stroke="#120071" stroke-linecap="round" stroke-linejoin="round" d="M19.883167500000003 146.68636500000002a1.222935 1.222935 0 0 1 -0.25536000000000003 1.8782925000000001 1.218945 1.218945 0 0 1 -1.3625850000000002 -0.05985 1.22493 1.22493 0 0 1 -0.45785250000000005 -1.28478c0.05985 -0.23541 0.189525 -0.44787750000000004 0.3700725 -0.6094725a1.1900175000000002 1.1900175000000002 0 0 1 0.8678250000000001 -0.3201975 1.2039825000000002 1.2039825000000002 0 0 1 0.8379 0.39600750000000007v0Z" stroke-width="0.5"></path><path stroke="#120071" stroke-linecap="round" stroke-linejoin="round" d="M88.07925 106.8093075c3.146115 1.0802925 7.581 0.9286725000000001 12.81189 0" stroke-width="0.5"></path><path stroke="#120071" stroke-linecap="round" stroke-linejoin="round" d="m85.5924825 107.41678500000002 -2.4827775 5.496225 9.874252499999999 -5.344605 7.012425 6.178515 2.80497 -5.9131800000000005" stroke-width="0.5"></path><path stroke="#120071" stroke-linecap="round" stroke-linejoin="round" d="m90.148065 101.2392675 2.5935 -3.5830200000000003c-0.84189 0.2543625 -1.70373 0.43092 -2.5775400000000004 0.5296725000000001" stroke-width="0.5"></path><path stroke="#120071" stroke-linecap="round" stroke-linejoin="round" d="M92.9839575 107.568405a153.99804 153.99804 0 0 0 -6.0648 28.390845000000002" stroke-width="0.5"></path><path stroke="#120071" stroke-linecap="round" stroke-linejoin="round" d="M178.781925 90.53010750000001c2.7291600000000003 0.0947625 2.7102075 1.21296 5.4393675 1.2887700000000002 2.8358925 0.09975 2.7660675 -1.1132100000000003 5.8523325 -0.9336600000000002" stroke-width="0.5"></path><path stroke="#120071" stroke-linecap="round" stroke-linejoin="round" d="m152.70328500000002 78.58903500000001 0.2463825 -13.4373225 26.135497500000003 10.93659 -0.5306700000000001 28.0497 -11.06826 -4.6254075" stroke-width="0.5"></path><path stroke="#120071" stroke-linecap="round" stroke-linejoin="round" d="M155.356635 82.834395a27.029257500000003 27.029257500000003 0 0 0 8.5854825 13.025355000000001" stroke-width="0.5"></path><path stroke="#120071" stroke-linecap="round" stroke-linejoin="round" d="M160.511715 88.56503250000002c-2.3271675000000003 -3.4812750000000006 -8.113665000000001 -9.7445775 -11.561025 -7.4922225000000005 -2.5585875000000002 1.685775 -1.4782950000000001 7.8453375 2.4069675 13.740562500000001 3.8852625 5.895225000000001 9.1161525 9.32463 11.67075 7.637857500000001 3.4443675000000002 -2.2353975000000004 0.015960000000000002 -10.093702500000001 -2.5166925000000004 -13.8861975Z" stroke-width="0.5"></path><path stroke="#120071" stroke-linecap="round" stroke-linejoin="round" d="m148.95069 81.07281 7.3346175 -4.833885c2.5585875000000002 -1.6867725000000002 7.7934675 1.741635 11.67075 7.638855 3.8772825 5.89722 4.965555 12.053790000000001 2.4069675 13.740562500000001l-7.3346175 4.8328875" stroke-width="0.5"></path><path stroke="#120071" stroke-linecap="round" stroke-linejoin="round" d="M90.8991825 34.126470000000005c-0.3600975 -4.434885 -0.716205 -4.478775000000001 -2.4069675 -8.64234 -1.5341550000000002 -3.7755375000000004 1.6109625 -7.9031925 5.856322500000001 -7.922145 4.245360000000001 -0.0189525 7.395465 4.071795 5.875275 7.8652875 -1.6847775 4.2034650000000005 -2.1037275 4.6054575 -2.4069675 8.6991975h-6.9176625Z" stroke-width="0.5"></path><path stroke="#120071" stroke-linecap="round" stroke-linejoin="round" d="M94.35751499999999 34.126470000000005v-10.1745a1.44438 1.44438 0 0 1 1.4503650000000001 -1.4214375000000001h0.6633375a1.426425 1.426425 0 0 1 1.4593425000000002 1.402485 1.4613375000000002 1.4613375000000002 0 0 1 -1.4593425000000002 1.4314125000000002h-4.245360000000001a1.41645 1.41645 0 0 1 -1.4593425000000002 -1.3965 1.45236 1.45236 0 0 1 1.4593425000000002 -1.42443h1.4782950000000001" stroke-width="0.5"></path><path stroke="#120071" stroke-linecap="round" stroke-linejoin="round" d="M97.79789250000002 40.0586025h-6.89871v-3.600975h6.89871v3.600975Z" stroke-width="0.5"></path><path stroke="#120071" stroke-linecap="round" stroke-linejoin="round" d="M124.1418675 154.02098250000003c-10.108665 0.36608250000000003 -21.200865000000004 0.8907675 -35.744415000000004 0.8907675 -2.29425 7.164045000000001 -2.29425 18.49764 1.2698175 23.2547175" stroke-width="0.5"></path><path stroke="#120071" stroke-linecap="round" stroke-linejoin="round" d="M64.34673 178.1664675c3.2418750000000003 0 8.9645325 -1.74363 11.580975 -4.908697500000001" stroke-width="0.5"></path><path stroke="#120071" stroke-linecap="round" stroke-linejoin="round" d="M71.3022975 154.70327250000003c-2.4827775 -11.333595 -1.7246775 -21.37842 0.8907675 -29.167897500000002" stroke-width="0.5"></path><path stroke="#120071" stroke-linecap="round" stroke-linejoin="round" d="m73.330215 158.3800575 19.748504999999998 -25.889115" stroke-width="0.5"></path><path stroke="#120071" stroke-linecap="round" stroke-linejoin="round" d="m80.30473500000001 159.4034925 17.66373 -23.159955" stroke-width="0.5"></path><path stroke="#120071" stroke-linecap="round" stroke-linejoin="round" d="m65.19959250000001 164.425905 1.0613400000000002 3.2029725 3.3545925000000003 0.32219250000000005 1.0613400000000002 3.2029725 3.3166875000000005 0.28428749999999997" stroke-width="0.5"></path><path stroke="#120071" stroke-linecap="round" stroke-linejoin="round" d="M64.02453750000001 170.83185c0.4359075 2.6723025 1.933155 3.94212 4.85184 3.3735450000000005" stroke-width="0.5"></path><path stroke="#120071" stroke-linecap="round" stroke-linejoin="round" d="m112.372365 149.7377175 -0.7581 -11.52312" stroke-width="0.5"></path><path stroke="#120071" stroke-linecap="round" stroke-linejoin="round" d="M69.426 163.5730425a50.620132500000004 50.620132500000004 0 0 0 6.500707500000001 1.5351525" stroke-width="0.5"></path><path stroke="#120071" stroke-linecap="round" stroke-linejoin="round" d="M54.832575 114.163875a21.516075 21.516075 0 0 0 -7.131127500000001 0.7720650000000001 22.828785 22.828785 0 0 0 -5.35857 2.563575" stroke-width="0.5"></path><path stroke="#120071" d="M77.8020075 85.95856500000001a4.239375 4.239375 0 1 0 8.47875 0 4.239375 4.239375 0 1 0 -8.47875 0" stroke-width="0.5"></path><path fill="#120071" d="M86.2638 86.154075a0.3740625 0.3740625 0 0 0 0 0.748125v-0.748125Zm3.8493525 0.748125a0.3740625 0.3740625 0 0 0 0 -0.748125v0.748125Zm-3.848355 0h3.848355v-0.748125H86.2638v0.748125Z" stroke-width="0.5"></path><path stroke="#120071" d="M90.104175 86.505195a4.239375 4.239375 0 1 0 8.47875 0 4.239375 4.239375 0 1 0 -8.47875 0" stroke-width="0.5"></path></g></g></svg>