<svg xmlns="http://www.w3.org/2000/svg" fill="none" viewBox="-0.25 -0.25 200 200" id="Siblings--Streamline-Bangalore.svg"><desc>Siblings Streamline Illustration: https://streamlinehq.com</desc><g id="siblings--people-siblings"><g id="bubble"><path id="vector" fill="#fa8a8a" d="M126.52888500000002 52.630095000000004c0 -8.4438375 -7.933117500000001 -15.28968 -17.71959 -15.28968 -9.78637275 0 -17.71949025 6.848835 -17.71949025 15.28968 0 7.355565 6.02091 13.496175000000001 14.04170775 14.9625l3.6777825 6.3690375 3.676785 -6.3690375c8.021895 -1.4653275000000001 14.042805 -7.606935000000001 14.042805 -14.9625Z" stroke-width="0.5"></path><path id="vector_2" stroke="#120071" stroke-linecap="round" stroke-linejoin="round" d="M126.52888500000002 52.630095000000004c0 -8.4438375 -7.933117500000001 -15.28968 -17.71959 -15.28968 -9.78637275 0 -17.71949025 6.848835 -17.71949025 15.28968 0 7.355565 6.02091 13.496175000000001 14.04170775 14.9625l3.6777825 6.3690375 3.676785 -6.3690375c8.021895 -1.4653275000000001 14.042805 -7.606935000000001 14.042805 -14.9625Z" stroke-width="0.5"></path><path id="vector_3" stroke="#120071" stroke-linecap="round" stroke-linejoin="round" d="M108.809295 44.10137025v12.107655000000001" stroke-width="0.5"></path><path id="vector_4" stroke="#120071" stroke-linecap="round" stroke-linejoin="round" d="M108.809295 58.683822750000004v1.0164525" stroke-width="0.5"></path></g><g id="doll"><path id="vector_5" stroke="#120071" stroke-linecap="round" stroke-linejoin="round" d="m100.73952000000001 116.270595 -7.212822750000001 13.94904c-0.366681 0.9615900000000001 -0.33625725 2.0299125000000005 0.08468775 2.9695575 0.42084525 0.939645 1.1976982500000002 1.6728075000000002 2.1596872499999997 2.0398875 0.9618892500000001 0.36708 2.03001225 0.33615750000000005 2.9695575 -0.08478750000000002 0.9394455 -0.420945 1.67270775 -1.1979975 2.0397877500000003 -2.1595875l3.549105 -14.0847c-1.3645800000000001 -0.620445 -2.5865175000000002 -1.5152025 -3.5900025 -2.6294100000000005Z" stroke-width="0.5"></path><path id="vector_6" stroke="#120071" stroke-linecap="round" stroke-linejoin="round" d="m124.007205 129.75280500000002 -7.698705 -12.8906925c-1.0773000000000001 1.0284225 -2.3550975000000003 1.8244275 -3.7525950000000003 2.3391375000000005l4.3690500000000005 13.724602500000001c0.20049750000000002 0.476805 0.49476000000000003 0.9077250000000001 0.8648325 1.2698175 0.36907500000000004 0.361095 0.8079750000000001 0.6443850000000001 1.2887700000000002 0.8349075 0.48079500000000003 0.189525 0.9955050000000001 0.28029750000000003 1.51221 0.26932500000000004 0.5167050000000001 -0.011970000000000001 1.0264275 -0.12768000000000002 1.498245 -0.33915000000000006 0.4718175 -0.2104725 0.8967525000000001 -0.51471 1.2488700000000001 -0.8927625 0.353115 -0.37705500000000003 0.6274275 -0.82194 0.8059800000000001 -1.3077225000000001 0.1785525 -0.484785 0.25835250000000004 -1.0004925 0.23541 -1.5171975 -0.023940000000000003 -0.5167050000000001 -0.1506225 -1.023435 -0.3720675 -1.4902650000000002Z" stroke-width="0.5"></path><path id="vector_7" stroke="#120071" stroke-linecap="round" stroke-linejoin="round" d="m100.64775000000002 95.06175 -7.830375 -11.8333425c-0.485184 -0.6591480000000001 -1.10213775 -1.2101670000000002 -1.8116595000000002 -1.6180447500000001 -0.7096215 -0.40777800000000003 -1.49625 -0.663537 -2.3100105 -0.75101775" stroke-width="0.5"></path><path id="vector_8" stroke="#120071" stroke-linecap="round" stroke-linejoin="round" d="m90.25868775 91.795935 9.95215725 10.57749" stroke-width="0.5"></path><path id="vector_9" stroke="#120071" stroke-linecap="round" stroke-linejoin="round" d="m117.6621075 102.7155675 10.6802325 -11.351550000000001" stroke-width="0.5"></path><path id="vector_10" stroke="#120071" stroke-linecap="round" stroke-linejoin="round" d="M130.68846 80.99001750000001c-1.6608375000000002 -0.4917675 -3.8313975000000005 0.3640875 -5.311687500000001 2.2383900000000003l-8.612415 13.014382500000002" stroke-width="0.5"></path><path id="vector_11" stroke="#120071" stroke-linecap="round" stroke-linejoin="round" d="M102.8751675 99.9096c-1.95909 1.2787950000000001 -3.4535445000000005 3.1560900000000003 -4.259724 5.352585 -0.8061795 2.196495 -0.88129125 4.5954825 -0.21416325000000003 6.837862500000001 0.66702825 2.2423800000000003 2.0409847500000002 4.2104475 3.91628475 5.6089425 1.8753 1.3994925 4.152592500000001 2.1546000000000003 6.492727500000001 2.1546000000000003s4.6174275 -0.7551075 6.492727500000001 -2.1546000000000003c1.8753 -1.398495 3.2488575 -3.3665625 3.9161850000000005 -5.6089425s0.592515 -4.641367499999999 -0.2144625 -6.837862500000001c-0.8059800000000001 -2.196495 -2.3002350000000003 -4.07379 -4.259325 -5.352585" stroke-width="0.5"></path><path id="vector_12" fill="#fa8a8a" d="M116.6676 113.1673725c0.6952575 -4.339125 -2.2593375000000004 -8.420895 -6.598462500000001 -9.1161525 -4.339125 -0.6952575 -8.419897500000001 2.2593375000000004 -9.115155 6.598462500000001 -0.6952575 4.339125 2.25834 8.419897500000001 6.597465000000001 9.115155 4.339125 0.6952575 8.420895 -2.25834 9.1161525 -6.597465000000001Z" stroke-width="0.5"></path><path id="vector_13" stroke="#120071" stroke-linecap="round" stroke-linejoin="round" d="M116.6676 113.1673725c0.6952575 -4.339125 -2.2593375000000004 -8.420895 -6.598462500000001 -9.1161525 -4.339125 -0.6952575 -8.419897500000001 2.2593375000000004 -9.115155 6.598462500000001 -0.6952575 4.339125 2.25834 8.419897500000001 6.597465000000001 9.115155 4.339125 0.6952575 8.420895 -2.25834 9.1161525 -6.597465000000001Z" stroke-width="0.5"></path><path id="vector_14" stroke="#120071" stroke-linecap="round" stroke-linejoin="round" d="M105.3629325 86.81142750000001c-0.0508725 -0.6109687500000001 -0.27331500000000003 -1.195005 -0.6413925 -1.6854757500000002s-0.8668275000000001 -0.867426 -1.438395 -1.087674c-0.572565 -0.22034775000000004 -1.195005 -0.2751105 -1.7964975 -0.15800400000000003 -0.60249 0.11710650000000002 -1.159095 0.4011945 -1.6069725000000001 0.819945 -0.447678 0.4187505 -0.76857375 0.95510625 -0.9257797500000001 1.5477210000000001 -0.15710625 0.59261475 -0.14433825 1.21744875 0.037107 1.8030810000000002 0.1813455 0.58563225 0.5239867500000001 1.108422 0.98842275 1.50831975 0.46483500000000005 0.39999750000000006 1.0324125 0.66104325 1.6388925 0.753312 0.843885 -1.5359505000000002 2.1555975000000003 -2.76257625 3.744615 -3.501225Z" stroke-width="0.5"></path><path id="vector_15" fill="#fa8a8a" d="M102.26469750000001 89.314155c0.5556075 -0.7337610000000001 1.2299175000000002 -1.3693680000000001 1.995 -1.8802875000000001 -0.029925 -0.325185 -0.1506225 -0.635607 -0.3481275 -0.8955555000000001 -0.19750500000000001 -0.26004825 -0.46383750000000007 -0.459249 -0.77007 -0.5749590000000001 -0.30523500000000003 -0.11561025000000001 -0.636405 -0.14304150000000002 -0.9566025 -0.07920150000000001 -0.321195 0.06393975 -0.616455 0.21655725 -0.8538600000000001 0.44059575 -0.2384025 0.22393875000000002 -0.4079775 0.5103210000000001 -0.49077000000000004 0.82622925 -0.0827925 0.31600800000000007 -0.0748125 0.648774 0.0229425 0.96049275 0.09675750000000001 0.3118185 0.28029750000000003 0.58982175 0.5276775 0.8024887500000001 0.2483775 0.21266700000000002 0.5506200000000001 0.3513195 0.8738100000000001 0.400197Z" stroke-width="0.5"></path><path id="vector_16" stroke="#120071" stroke-linecap="round" stroke-linejoin="round" d="M102.26469750000001 89.314155c0.5556075 -0.7337610000000001 1.2299175000000002 -1.3693680000000001 1.995 -1.8802875000000001 -0.029925 -0.325185 -0.1506225 -0.635607 -0.3481275 -0.8955555000000001 -0.19750500000000001 -0.26004825 -0.46383750000000007 -0.459249 -0.77007 -0.5749590000000001 -0.30523500000000003 -0.11561025000000001 -0.636405 -0.14304150000000002 -0.9566025 -0.07920150000000001 -0.321195 0.06393975 -0.616455 0.21655725 -0.8538600000000001 0.44059575 -0.2384025 0.22393875000000002 -0.4079775 0.5103210000000001 -0.49077000000000004 0.82622925 -0.0827925 0.31600800000000007 -0.0748125 0.648774 0.0229425 0.96049275 0.09675750000000001 0.3118185 0.28029750000000003 0.58982175 0.5276775 0.8024887500000001 0.2483775 0.21266700000000002 0.5506200000000001 0.3513195 0.8738100000000001 0.400197Z" stroke-width="0.5"></path><path id="vector_17" stroke="#120071" stroke-linecap="round" stroke-linejoin="round" d="M118.33741500000001 85.45482750000001c-0.3481275 -0.60179175 -0.8787975 -1.07700075 -1.5152025 -1.3564005 -0.636405 -0.2794995 -1.3456275 -0.34862624999999997 -2.024925 -0.19750500000000001 -0.6783000000000001 0.15122100000000002 -1.2907650000000002 0.5148097500000001 -1.7486175 1.03809825 -0.45785250000000005 0.52318875 -0.736155 1.1788455 -0.7960050000000001 1.8714097500000002 1.5890175 0.73904775 2.9017275 1.9659727500000002 3.7456125 3.5022225000000002 0.5246850000000001 -0.08029875 1.0224374999999999 -0.28737975000000004 1.4493675000000001 -0.6031882500000001 0.42693000000000003 -0.3158085 0.77007 -0.7308682500000001 1.0004925 -1.20926925 0.23042250000000003 -0.4784010000000001 0.34014750000000005 -1.0056795 0.321195 -1.5363495 -0.0189525 -0.53057025 -0.16758 -1.048572 -0.4319175 -1.509018Z" stroke-width="0.5"></path><path id="vector_18" fill="#fa8a8a" d="M115.43768250000001 89.4268725c0.33017250000000004 -0.031221750000000003 0.6443850000000001 -0.15610875000000002 0.90573 -0.35979825000000004 0.26234250000000003 -0.20378925000000003 0.4598475 -0.47790225000000003 0.57057 -0.79031925 0.11172000000000001 -0.312417 0.13167 -0.649971 0.056857500000000005 -0.973161 -0.073815 -0.32319000000000003 -0.2384025 -0.61854975 -0.47481 -0.8512665000000001 -0.2364075 -0.23271675000000003 -0.5336625 -0.39311475 -0.85785 -0.46244100000000005 -0.3241875 -0.069426 -0.66234 -0.044688 -0.9725625 0.071022 -0.31122 0.11580975 -0.5815425 0.3178035 -0.7820400000000001 0.58244025 -0.1995 0.264537 -0.3201975 0.5806447499999999 -0.3461325 0.9112162500000001 0.7311675 0.51700425 1.37256 1.1493195 1.9002375 1.8723075Z" stroke-width="0.5"></path><path id="vector_19" stroke="#120071" stroke-linecap="round" stroke-linejoin="round" d="M115.43768250000001 89.4268725c0.33017250000000004 -0.031221750000000003 0.6443850000000001 -0.15610875000000002 0.90573 -0.35979825000000004 0.26234250000000003 -0.20378925000000003 0.4598475 -0.47790225000000003 0.57057 -0.79031925 0.11172000000000001 -0.312417 0.13167 -0.649971 0.056857500000000005 -0.973161 -0.073815 -0.32319000000000003 -0.2384025 -0.61854975 -0.47481 -0.8512665000000001 -0.2364075 -0.23271675000000003 -0.5336625 -0.39311475 -0.85785 -0.46244100000000005 -0.3241875 -0.069426 -0.66234 -0.044688 -0.9725625 0.071022 -0.31122 0.11580975 -0.5815425 0.3178035 -0.7820400000000001 0.58244025 -0.1995 0.264537 -0.3201975 0.5806447499999999 -0.3461325 0.9112162500000001 0.7311675 0.51700425 1.37256 1.1493195 1.9002375 1.8723075Z" stroke-width="0.5"></path><path id="vector_20" stroke="#120071" stroke-linecap="round" stroke-linejoin="round" d="M108.809295 102.4502325c4.5276525 0 8.1984525 -3.67050075 8.1984525 -8.1984525 0 -4.527852 -3.6708000000000003 -8.1984525 -8.1984525 -8.1984525s-8.1984525 3.6706005000000004 -8.1984525 8.1984525c0 4.52795175 3.6708000000000003 8.1984525 8.1984525 8.1984525Z" stroke-width="0.5"></path><path id="vector_21" fill="#6153bd" d="M111.14444250000001 95.366985c-1.498245 -0.6034875000000001 -3.1720500000000005 -0.6034875000000001 -4.670295 0 -0.09975 0.0389025 -0.0089775 0.09975 1.14114 2.088765 0.121695 0.20937525 0.29526 0.3832395 0.504735 0.5041365 0.209475 0.12079725000000001 0.44787750000000004 0.18443775 0.6892725 0.18443775 0.2423925 0 0.4797975 -0.0636405 0.6892725 -0.18443775 0.209475 -0.120897 0.38403750000000003 -0.29476125 0.504735 -0.5041365 1.14513 -1.98303 1.24089 -2.0488649999999997 1.14114 -2.088765Z" stroke-width="0.5"></path><path id="vector_22" stroke="#120071" stroke-linecap="round" stroke-linejoin="round" d="M111.14444250000001 95.366985c-1.498245 -0.6034875000000001 -3.1720500000000005 -0.6034875000000001 -4.670295 0 -0.09975 0.0389025 -0.0089775 0.09975 1.14114 2.088765 0.121695 0.20937525 0.29526 0.3832395 0.504735 0.5041365 0.209475 0.12079725000000001 0.44787750000000004 0.18443775 0.6892725 0.18443775 0.2423925 0 0.4797975 -0.0636405 0.6892725 -0.18443775 0.209475 -0.120897 0.38403750000000003 -0.29476125 0.504735 -0.5041365 1.14513 -1.98303 1.24089 -2.0488649999999997 1.14114 -2.088765Z" stroke-width="0.5"></path><path id="vector_23" stroke="#120071" stroke-linecap="round" stroke-linejoin="round" d="M104.80034250000001 93.13956750000001v1.2339075000000002" stroke-width="0.5"></path><path id="vector_24" stroke="#120071" stroke-linecap="round" stroke-linejoin="round" d="M112.8182475 93.13956750000001v1.2339075000000002" stroke-width="0.5"></path><path id="vector_25" stroke="#120071" stroke-linecap="round" stroke-linejoin="round" d="M108.809295 98.14611975000001v4.30511025" stroke-width="0.5"></path></g><g id="details"><path id="vector_26" stroke="#120071" stroke-linecap="round" stroke-linejoin="round" d="M185.80332750000002 98.71768725000001c1.0503675 0 1.901235 -0.8512665000000001 1.901235 -1.901235 0 -1.05006825 -0.8508675 -1.901235 -1.901235 -1.901235s-1.901235 0.85116675 -1.901235 1.901235c0 1.0499685 0.8508675 1.901235 1.901235 1.901235Z" stroke-width="0.5"></path><path id="vector_27" stroke="#120071" stroke-linecap="round" stroke-linejoin="round" d="M26.61639225 102.1011075c1.05006825 0 1.901235 -0.8508675 1.901235 -1.901235 0 -1.0499685 -0.85116675 -1.901235 -1.901235 -1.901235s-1.901235 0.8512665000000001 -1.901235 1.901235c0 1.0503675 0.85116675 1.901235 1.901235 1.901235Z" stroke-width="0.5"></path><path id="vector_28" stroke="#120071" stroke-linecap="round" stroke-linejoin="round" d="M15.613967250000002 69.47896725c1.0499685 0 1.901235 -0.8512665000000001 1.901235 -1.901235 0 -1.05006825 -0.8512665000000001 -1.901235 -1.901235 -1.901235 -1.05006825 0 -1.901235 0.85116675 -1.901235 1.901235 0 1.0499685 0.85116675 1.901235 1.901235 1.901235Z" stroke-width="0.5"></path><path id="vector_29" stroke="#120071" stroke-linecap="round" stroke-linejoin="round" d="M132.8859525 32.348925c1.0503675 0 1.901235 -0.85116675 1.901235 -1.901235 0 -1.0499685 -0.8508675 -1.901235 -1.901235 -1.901235s-1.901235 0.8512665000000001 -1.901235 1.901235c0 1.05006825 0.8508675 1.901235 1.901235 1.901235Z" stroke-width="0.5"></path><path id="vector_30" stroke="#120071" stroke-linecap="round" stroke-linejoin="round" d="M80.1201975 32.348925c1.05006825 0 1.901235 -0.85116675 1.901235 -1.901235 0 -1.0499685 -0.85116675 -1.901235 -1.901235 -1.901235 -1.0499685 0 -1.901235 0.8512665000000001 -1.901235 1.901235 0 1.05006825 0.8512665000000001 1.901235 1.901235 1.901235Z" stroke-width="0.5"></path></g><g id="person 2"><path id="vector_31" stroke="#120071" stroke-linecap="round" stroke-linejoin="round" d="M140.422065 131.1882075c-3.110205 3.02442 -7.6209 4.2034650000000005 -9.859290000000001 4.621417500000001l0.3820425 5.37453 9.7984425 -3.684765c-0.10773 -2.34612 -0.22344000000000003 -4.553587500000001 -0.321195 -6.3111825Z" stroke-width="0.5"></path><g id="group"><path id="vector_32" fill="#6153bd" d="M135.1782075 144.62553c-0.034912500000000006 -0.15960000000000002 -0.10773 -0.3082275 -0.21346500000000002 -0.4319175 -0.1047375 -0.1246875 -0.2394 -0.221445 -0.39102000000000003 -0.2822925 -0.15162 -0.05985 -0.31521000000000005 -0.0827925 -0.4778025 -0.0648375 -0.16159500000000002 0.016957500000000004 -0.317205 0.073815 -0.45186750000000003 0.165585 -0.13566000000000003 0.09177 -0.24538500000000002 0.21546 -0.32219250000000005 0.35910000000000003 -0.07581 0.1446375 -0.11571000000000001 0.30523500000000003 -0.11571000000000001 0.4678275 0 0.16359 0.0408975 0.3241875 0.117705 0.4678275 0.07581 0.14364 0.18753 0.26733 0.32219250000000005 0.3581025 0.165585 0.1087275 0.3600975 0.165585 0.5576025000000001 0.16458750000000003 0.19850250000000003 -0.0019950000000000002 0.39102000000000003 -0.061845000000000004 0.5556075 -0.17256749999999998 0.16359 -0.11172000000000001 0.29127 -0.26932500000000004 0.36608250000000003 -0.452865 0.073815 -0.1825425 0.0927675 -0.38403750000000003 0.052867500000000005 -0.57855Z" stroke-width="0.5"></path><path id="vector_33" fill="#6153bd" d="M139.17219749999998 141.1891425c-0.0408975 -0.1925175 -0.13765500000000003 -0.36907500000000004 -0.27830250000000006 -0.50673 -0.14064749999999998 -0.13765500000000003 -0.31920000000000004 -0.23042250000000003 -0.512715 -0.26733 -0.19351500000000002 -0.03591 -0.39301500000000006 -0.0149625 -0.57456 0.061845000000000004 -0.181545 0.077805 -0.33615750000000005 0.2064825 -0.44388750000000005 0.37107 -0.10773 0.16458750000000003 -0.165585 0.357105 -0.16359 0.5536125000000001 0.0009975000000000001 0.19750500000000001 0.0608475 0.389025 0.17057250000000002 0.5526150000000001 0.1107225 0.16359 0.2663325 0.2902725 0.448875 0.3640875 0.1825425 0.0748125 0.38304000000000005 0.093765 0.5755574999999999 0.0548625 0.129675 -0.025935 0.25137000000000004 -0.077805 0.361095 -0.15162 0.1087275 -0.073815 0.20249250000000002 -0.16857750000000002 0.2743125 -0.27830250000000006 0.0728175 -0.109725 0.12269250000000001 -0.23341500000000004 0.1466325 -0.36309 0.0249375 -0.1286775 0.0229425 -0.26234250000000003 -0.0039900000000000005 -0.39102000000000003Z" stroke-width="0.5"></path><path id="vector_34" fill="#6153bd" d="m140.74725 137.49939 -9.7984425 3.684765c0.4418925 6.1994625 0.5386500000000001 6.21642 0.2144625 7.06629 1.05735 -0.40698 2.1954975 -0.564585 3.32367 -0.46084500000000006 1.9541025 0.22842750000000003 4.538625 -2.5306575000000002 6.5306325 -3.2249175 -0.0708225 -2.288265 -0.17057250000000002 -4.74411 -0.2703225 -7.065292500000001Zm-4.87578 8.427877500000001c-0.181545 0.27231750000000005 -0.42693000000000003 0.4957575 -0.7152075 0.65037 -0.28728 0.15561 -0.6094725 0.237405 -0.9366525 0.2384025 -0.32718 0.0019950000000000002 -0.6493725 -0.0768075 -0.9386475 -0.22942500000000002 -0.289275 -0.15261750000000002 -0.5366550000000001 -0.3740625 -0.720195 -0.6453825000000001 -0.18453750000000002 -0.2703225 -0.29825250000000003 -0.5815425 -0.33316500000000004 -0.9067275000000001 -0.034912500000000006 -0.32618250000000004 0.0109725 -0.65436 0.13266750000000002 -0.9576 0.12269250000000001 -0.3042375 0.317205 -0.572565 0.5675775 -0.7830375 0.2503725 -0.2104725 0.548625 -0.3561075 0.8688225 -0.4239375 0.38703000000000004 -0.077805 0.7880250000000001 -0.039900000000000005 1.1541075 0.1087275 0.365085 0.149625 0.6783000000000001 0.40398750000000005 0.899745 0.73017 0.221445 0.32718 0.34114500000000003 0.712215 0.3441375 1.1062275000000001 0.0029925000000000004 0.39501000000000003 -0.1107225 0.7820400000000001 -0.32718 1.1122125h0.0039900000000000005Zm3.99 -3.4363875c-0.217455 0.32917500000000005 -0.5276775 0.5855325 -0.8907675 0.7381500000000001 -0.36309 0.15261750000000002 -0.764085 0.1945125 -1.1511149999999999 0.1197 -0.38703000000000004 -0.0748125 -0.7431375 -0.26234250000000003 -1.023435 -0.5396475000000001s-0.472815 -0.6304200000000001 -0.5526150000000001 -1.0164525c-0.07880250000000001 -0.38603250000000006 -0.0428925 -0.7870275000000001 0.10573500000000001 -1.15311 0.14763 -0.365085 0.40099500000000005 -0.6783000000000001 0.7271775 -0.899745 0.32618250000000004 -0.221445 0.71022 -0.34114500000000003 1.1042325 -0.34513499999999997 0.39401250000000004 -0.0029925000000000004 0.7810425000000001 0.1107225 1.1102175 0.32618250000000004 0.44289 0.2922675 0.7521150000000001 0.7471275 0.8588475 1.266825 0.10673250000000001 0.5196975 0.0029925000000000004 1.0603425 -0.2882775 1.5032325Z" stroke-width="0.5"></path></g><path id="vector_35" stroke="#120071" stroke-linecap="round" stroke-linejoin="round" d="M130.9448175 141.18415500000003c0.44089500000000004 6.2004600000000005 0.5386500000000001 6.21642 0.2144625 7.06629 1.05735 -0.40698 2.1954975 -0.564585 3.32367 -0.46084500000000006 1.9541025 0.22842750000000003 4.538625 -2.5306575000000002 6.5306325 -3.2249175 -0.0648375 -2.288265 -0.16359 -4.7431125000000005 -0.2703225 -7.065292500000001l-9.7984425 3.684765Z" stroke-width="0.5"></path><path id="vector_36" stroke="#120071" stroke-linecap="round" stroke-linejoin="round" d="M131.26102500000002 131.3298525c-0.33416250000000003 0.07581 -0.6822900000000001 0.07581 -1.0164525 0l0.3182025 4.474785c2.2383900000000003 -0.4179525 6.749085 -1.596 9.859290000000001 -4.621417500000001 -0.0668325 -1.2059775000000001 -0.15261750000000002 -2.6603325 -0.221445 -3.7905 -1.6388925 1.98303 -6.43587 3.3595800000000002 -8.939595 3.9371325Z" stroke-width="0.5"></path><path id="vector_37" stroke="#120071" stroke-linecap="round" stroke-linejoin="round" d="M134.68743750000002 157.59502500000002c2.0817825 -1.0932600000000001 4.097729999999999 -2.308215 6.0368699999999995 -3.6378825 0.285285 -0.8349075 0.40199250000000003 -1.7186925000000002 0.34114500000000003 -2.599485 -3.684765 2.7361425 -15.7734675 8.96553 -15.7734675 8.96553 -0.7012425 -0.6573525000000001 -1.5551025 -1.1301675 -2.4837750000000005 -1.3755525000000002 -1.9700625000000003 2.767065 -3.0683100000000003 5.0443575 -1.3965 5.311687500000001 0.51471 0.081795 4.4358825 -1.8753 8.615407500000002 -4.11369" stroke-width="0.5"></path><path id="vector_38" fill="#fa8a8a" d="M134.48295 147.7896c-1.1281725 -0.10374 -2.26632 0.053865 -3.32367 0.46084500000000006 -0.5466300000000001 1.434405 -5.2269000000000005 6.310185 -8.35107 10.69719 0.9286725000000001 0.24538500000000002 1.7825325 0.7182000000000001 2.4837750000000005 1.3755525000000002 0 0 12.0887025 -6.2293875000000005 15.7734675 -8.96553 0.0548625 -1.725675 0.023940000000000003 -4.14561 -0.05187 -6.792975 -1.9920075000000002 0.69426 -4.57653 3.4533450000000006 -6.5306325 3.2249175Z" stroke-width="0.5"></path><path id="vector_39" stroke="#120071" stroke-linecap="round" stroke-linejoin="round" d="M134.48295 147.7896c-1.1281725 -0.10374 -2.26632 0.053865 -3.32367 0.46084500000000006 -0.5466300000000001 1.434405 -5.2269000000000005 6.310185 -8.35107 10.69719 0.9286725000000001 0.24538500000000002 1.7825325 0.7182000000000001 2.4837750000000005 1.3755525000000002 0 0 12.0887025 -6.2293875000000005 15.7734675 -8.96553 0.0548625 -1.725675 0.023940000000000003 -4.14561 -0.05187 -6.792975 -1.9920075000000002 0.69426 -4.57653 3.4533450000000006 -6.5306325 3.2249175Z" stroke-width="0.5"></path><g id="group_2"><path id="vector_40" fill="#6153bd" d="M183.478155 47.989725c-1.1211900000000001 -1.829016 -2.8817775 -3.176838 -4.940617500000001 -3.78252 0.0508725 1.3965 0.0668325 3.557085 0.006982500000000001 4.850842500000001 1.925175 1.3895175000000002 2.499735 4.303215000000001 1.5640800000000001 7.2318750000000005l3.8333925 -1.34064s1.2598425 -3.8443650000000003 -0.46383750000000007 -6.959557500000001Z" stroke-width="0.5"></path><path id="vector_41" fill="#6153bd" d="M177.5180925 43.718430000000005c-3.062325 -1.596 -7.962045000000001 1.4274225 -8.52264 2.05086 -0.10773 0.1197 -0.5985 1.3256775 0.06783000000000002 3.4663125000000004 0.9645825 -0.835905 1.953105 -0.1625925 2.08278 1.2628350000000002 1.9441275000000002 -1.909215 4.424910000000001 -2.715195 6.421905 -1.9650750000000001 0.04389 -1.49625 0.005985000000000001 -3.7176825 -0.049875 -4.8149325Z" stroke-width="0.5"></path></g><path id="vector_42" stroke="#120071" stroke-linecap="round" stroke-linejoin="round" d="M183.478155 47.989725c-1.2239325 -1.9558980000000001 -3.162075 -3.3583830000000003 -5.4024600000000005 -3.9102 -2.9825250000000003 -2.3531025000000003 -8.47875 1.027425 -9.07725 1.689765 -0.10773 0.1197 -0.5985 1.3256775 0.06783000000000002 3.4663125000000004 0.9645825 -0.835905 1.953105 -0.16159500000000002 2.08278 1.2628350000000002 2.1506100000000004 -2.112705 4.95957 -2.874795 7.0413525 -1.6728075000000002 2.208465 1.2758025 2.9127 4.3620675 1.9211850000000001 7.4642925l3.8333925 -1.34064s1.25685 -3.8443650000000003 -0.4668300000000001 -6.959557500000001Z" stroke-width="0.5"></path><path id="vector_43" fill="#fa8a8a" d="M134.3981625 79.89984975c0.9316650000000001 0.294861 1.8443775 0.64568175 2.73315 1.0503675 0 0 10.44582 -3.78252 20.18541 -8.0288775 1.9241775 -3.5480077500000005 4.338127500000001 -6.807339 7.1710275 -9.681735l-30.0895875 16.660245000000003Z" stroke-width="0.5"></path><path id="vector_44" stroke="#120071" stroke-linecap="round" stroke-linejoin="round" d="M134.3981625 79.89984975c0.9316650000000001 0.294861 1.8443775 0.64568175 2.73315 1.0503675 0 0 10.44582 -3.78252 20.18541 -8.0288775 1.9241775 -3.5480077500000005 4.338127500000001 -6.807339 7.1710275 -9.681735l-30.0895875 16.660245000000003Z" stroke-width="0.5"></path><path id="vector_45" fill="#fa8a8a" d="M172.2153825 64.86742500000001c-0.5196975 0.69755175 -1.2239325 1.23560325 -2.0339025000000004 1.5531075 -1.8164475 0.84099225 -3.8074575000000004 1.237698 -5.808442500000001 1.1571 -2.1895124999999998 -0.289275 0.7321650000000001 -4.80396 0.6324150000000001 -4.8328875 -8.1665325 8.024688000000001 -12.839820000000001 18.94621575 -13.005405000000001 30.3948225 0 0 10.4907075 -0.5985 17.5869225 -2.793 0 0.0019950000000000002 -2.3790375 -8.072767500000001 2.6284125 -25.479142500000002Z" stroke-width="0.5"></path><path id="vector_46" stroke="#120071" stroke-linecap="round" stroke-linejoin="round" d="M165.00545250000002 62.74275c-8.167530000000001 8.024289 -12.8408175 18.946116 -13.005405000000001 30.3948225 0 0 10.4907075 -0.5985 17.5869225 -2.793 0 0 -2.3790375 -8.0747625 2.6284125 -25.481137500000003" stroke-width="0.5"></path><path id="vector_47" stroke="#120071" stroke-linecap="round" stroke-linejoin="round" d="M168.14259 57.99465000000001c-1.6359 2.2074675000000004 -6.492727500000001 9.222885000000002 -3.7695525 9.5829825 2.000985 0.080598 3.991995 -0.31600800000000007 5.808442500000001 -1.1571 1.8413850000000003 -0.7581 2.3750475 -2.0558475 3.35559 -3.7486050000000004 -2.8199325 0.4698225 -5.1480974999999995 -1.374555 -5.394480000000001 -4.677277500000001Z" stroke-width="0.5"></path><path id="vector_48" stroke="#120071" stroke-linecap="round" stroke-linejoin="round" d="M168.112665 50.991302250000004c0.5526150000000001 -2.5545975000000003 2.8159425000000002 -2.8837725 3.0333975 -0.492765 2.1506100000000004 -2.112705 4.95957 -2.874795 7.0413525 -1.6728075000000002 2.6932500000000004 1.5551025 3.150105 5.8024575 1.0224374999999999 9.4892175 -2.1276675000000003 3.6867600000000005 -6.035872500000001 5.4134325 -8.728125 3.85833 -2.44986 -1.414455 -3.04836 -5.0593200000000005 -1.5331575 -8.47875 -0.7371525 -0.26932500000000004 -1.1102175 -1.4354025000000001 -0.835905 -2.703225Z" stroke-width="0.5"></path><path id="vector_49" fill="#6153bd" d="M168.72612750000002 60.249c0.424935 3.10821 2.0239275 4.1406225 3.501225 4.603462500000001 0.48079500000000003 -0.699048 0.9186975000000001 -1.42732275 1.3097175 -2.180535 -0.9576 0.19700625000000002 -1.9541025 0.06493725 -2.826915 -0.37476075 -0.8728125 -0.43979775000000004 -1.5720600000000002 -1.1614890000000002 -1.9840275000000003 -2.04816675Z" stroke-width="0.5"></path><path id="vector_50" stroke="#120071" stroke-linecap="round" stroke-linejoin="round" d="M168.72612750000002 60.249c0.424935 3.10821 2.0239275 4.1406225 3.501225 4.603462500000001 0.48079500000000003 -0.699048 0.9186975000000001 -1.42732275 1.3097175 -2.180535 -0.9576 0.19700625000000002 -1.9541025 0.06493725 -2.826915 -0.37476075 -0.8728125 -0.43979775000000004 -1.5720600000000002 -1.1614890000000002 -1.9840275000000003 -2.04816675Z" stroke-width="0.5"></path><path id="vector_51" stroke="#120071" stroke-linecap="round" stroke-linejoin="round" d="M137.1313125 80.94622725s-4.159575 -1.9630800000000002 -7.139107500000001 -1.7805375c-0.1286775 0.009177000000000001 -0.25137000000000004 0.056857500000000005 -0.35211749999999997 0.13675725 -0.10074750000000002 0.07989975 -0.17556 0.188328 -0.21346500000000002 0.31122 -0.037905 0.12289200000000002 -0.0389025 0.25446225 -0.0009975000000000001 0.37755375 0.0369075 0.1230915 0.1107225 0.23201850000000002 0.21147000000000002 0.3126165 0.8408925 0.71271375 1.89126 1.13286075 2.9925 1.197 0 0 -4.905705 3.0333975 -6.3201600000000004 4.8279000000000005 -1.414455 1.7945025000000001 1.6139550000000003 0.8847825 1.6139550000000003 0.8847825 -2.6583375 1.4792925000000001 -2.76507 3.56706 0.3441375 2.1615824999999997 0 0 -1.8493650000000001 1.258845 -1.3057275 1.9890150000000002 0.5436375000000001 0.73017 2.284275 -0.520695 2.284275 -0.520695s-0.9286725000000001 1.7306625000000002 0.0548625 1.63191c0.9665775 -0.09975 5.2308900000000005 -3.4154400000000003 8.372017500000002 -3.89025 -0.0648375 -1.28079 0.34214250000000007 -6.074775 -0.5416425 -7.638855Z" stroke-width="0.5"></path><path id="vector_52" fill="#fa8a8a" d="M176.0388 71.45501475c-0.2882775 -4.694235000000001 -1.7765475 -6.616417500000001 -3.1131975 -7.726635000000001 -0.468825 1.011864 -1.2339075000000002 1.8574447500000002 -2.1945 2.4249225 -8.838847500000002 5.826397500000001 -33.59979 14.792925 -33.59979 14.792925 0.7531125000000001 1.3306650000000002 0.57456 5.5091925 0.5526150000000001 6.134625000000001 -0.0329175 0.9905175 -0.23541 3.9650625 1.41246 3.8613225 7.2857400000000005 -0.62533275 14.467740000000001 -2.135049 21.388395000000003 -4.4957325 8.660295000000001 -3.2139450000000003 15.908130000000002 -9.246825 15.5540175 -14.9914275Z" stroke-width="0.5"></path><path id="vector_53" stroke="#120071" stroke-linecap="round" stroke-linejoin="round" d="M176.0388 71.45501475c-0.2882775 -4.694235000000001 -1.7765475 -6.616417500000001 -3.1131975 -7.726635000000001 -0.468825 1.011864 -1.2339075000000002 1.8574447500000002 -2.1945 2.4249225 -8.838847500000002 5.826397500000001 -33.59979 14.792925 -33.59979 14.792925 0.7531125000000001 1.3306650000000002 0.57456 5.5091925 0.5526150000000001 6.134625000000001 -0.0329175 0.9905175 -0.23541 3.9650625 1.41246 3.8613225 7.2857400000000005 -0.62533275 14.467740000000001 -2.135049 21.388395000000003 -4.4957325 8.660295000000001 -3.2139450000000003 15.908130000000002 -9.246825 15.5540175 -14.9914275Z" stroke-width="0.5"></path><path id="vector_54" stroke="#120071" stroke-linecap="round" stroke-linejoin="round" d="m127.921395 87.21541500000001 3.4643175 -1.7745525" stroke-width="0.5"></path><path id="vector_55" stroke="#120071" stroke-linecap="round" stroke-linejoin="round" d="m128.2655325 89.3769975 3.4643175 -1.785525" stroke-width="0.5"></path><path id="vector_56" stroke="#120071" stroke-linecap="round" stroke-linejoin="round" d="m129.24408000000003 90.8453175 2.9815275 -1.51221" stroke-width="0.5"></path><path id="vector_57" stroke="#120071" stroke-linecap="round" stroke-linejoin="round" d="m181.7973675 72.54428475 3.29175 7.375515000000001" stroke-width="0.5"></path><path id="vector_58" stroke="#120071" stroke-linecap="round" stroke-linejoin="round" d="m184.84173750000002 67.33932975 6.741105 4.993485000000001" stroke-width="0.5"></path><path id="vector_59" stroke="#120071" stroke-linecap="round" stroke-linejoin="round" d="m187.1659125 62.712825 7.346587500000001 0.09177" stroke-width="0.5"></path><g id="group_3"><path id="vector_60" fill="#6153bd" d="M147.33873 156.0798225c-0.205485 0.0009975000000000001 -0.40598249999999997 0.0648375 -0.5735625 0.18453750000000002 -0.16758 0.1187025 -0.2942625 0.28728 -0.36309 0.48079500000000003 -0.06783000000000002 0.1945125 -0.0748125 0.40498500000000004 -0.0189525 0.60249 0.0548625 0.19750500000000001 0.17057250000000002 0.3740625 0.33017250000000004 0.5037375000000001s0.3561075 0.2064825 0.5605950000000001 0.221445c0.205485 0.013965000000000002 0.4099725 -0.03591 0.5855325 -0.1426425 0.1765575 -0.10673250000000001 0.31521000000000005 -0.2643375 0.39700500000000005 -0.452865 0.0827925 -0.18852750000000001 0.1047375 -0.39800250000000004 0.06384000000000001 -0.5994975 -0.0468825 -0.22543500000000002 -0.17057250000000002 -0.4279275 -0.349125 -0.5735625 -0.1785525 -0.1446375 -0.40199250000000003 -0.2244375 -0.6324150000000001 -0.2244375Z" stroke-width="0.5"></path><path id="vector_61" fill="#6153bd" d="M147.2778825 151.25691c0.1586025 -0.03591 0.3062325 -0.109725 0.42992250000000004 -0.21546s0.21945 -0.24039750000000001 0.27930000000000005 -0.3920175c0.05985 -0.1506225 0.081795 -0.31521000000000005 0.06384000000000001 -0.476805 -0.017955 -0.16159500000000002 -0.07581 -0.31620750000000003 -0.16758 -0.45087000000000005 -0.0907725 -0.13466250000000002 -0.2144625 -0.2443875 -0.3581025 -0.3201975 -0.1446375 -0.07581 -0.3042375 -0.11571000000000001 -0.4678275 -0.11571000000000001 -0.1625925 0 -0.32319000000000003 0.0408975 -0.4668300000000001 0.11670750000000002 -0.14364 0.0768075 -0.2663325 0.18753 -0.357105 0.32219250000000005 -0.1087275 0.165585 -0.16458750000000003 0.3600975 -0.1625925 0.5586000000000001 0.0019950000000000002 0.19850250000000003 0.061845000000000004 0.3920175 0.173565 0.5556075 0.11172000000000001 0.16359 0.26932500000000004 0.29127 0.45386250000000006 0.365085 0.18354 0.0748125 0.385035 0.0927675 0.5795475 0.052867500000000005Z" stroke-width="0.5"></path><path id="vector_62" fill="#6153bd" d="M150.53073 152.85789750000004c-0.08778 0.13765500000000003 -0.141645 0.2942625 -0.1546125 0.45685500000000007 -0.013965000000000002 0.1625925 0.0129675 0.325185 0.077805 0.4758075 0.06384000000000001 0.149625 0.16359 0.28129499999999996 0.29127 0.38403750000000003 0.1266825 0.101745 0.277305 0.17157 0.43690500000000004 0.20149500000000004 0.1605975 0.030922500000000002 0.32618250000000004 0.021945 0.4817925 -0.025935 0.15561 -0.047880000000000006 0.297255 -0.133665 0.412965 -0.249375 0.11471250000000001 -0.11571000000000001 0.1995 -0.257355 0.24738000000000002 -0.412965 0.047880000000000006 -0.1566075 0.05586000000000001 -0.32219250000000005 0.0249375 -0.4817925 -0.0408975 -0.19351500000000002 -0.13765500000000003 -0.37107 -0.27930000000000005 -0.5097225000000001 -0.14064749999999998 -0.1386525 -0.31920000000000004 -0.23241750000000003 -0.5137125 -0.26932500000000004 -0.1945125 -0.037905 -0.39600750000000007 -0.015960000000000002 -0.5775525 0.05985 -0.1825425 0.0768075 -0.3381525 0.2064825 -0.44787750000000004 0.37107Z" stroke-width="0.5"></path><path id="vector_63" fill="#6153bd" d="M145.04448 146.1138c-2.54562 12.257280000000002 -2.48577 12.279225 -2.5865175000000002 12.263265 6.8019525000000005 3.9022200000000002 7.469280000000001 0.8059800000000001 10.297192500000001 2.5107075 0.798 -3.49125 1.6648275000000001 -7.48125 2.4668175 -11.214892500000001l-10.1774925 -3.5590800000000002Zm0.361095 3.062325c0.1905225 -0.28728 0.452865 -0.5196975 0.7600950000000001 -0.6753075000000001 0.30723 -0.15561 0.6493725 -0.22942500000000002 0.99351 -0.21346500000000002 0.3441375 0.015960000000000002 0.6783000000000001 0.1206975 0.96957 0.3042375 0.2922675 0.18354 0.5316675000000001 0.4389 0.69426 0.74214 0.16359 0.30324 0.24538500000000002 0.6443850000000001 0.2384025 0.9885225000000001 -0.006982500000000001 0.3441375 -0.10374 0.6812925000000001 -0.27930000000000005 0.97755 -0.1765575 0.2962575 -0.4259325 0.5416425 -0.7251825000000001 0.712215 -0.29925 0.17157 -0.6374025000000001 0.26234250000000003 -0.9815400000000001 0.26334 -0.3600975 -0.0009975000000000001 -0.71421 -0.09975 -1.023435 -0.285285 -0.309225 -0.18453750000000002 -0.5625899999999999 -0.4498725 -0.7331625 -0.7680750000000001 -0.17157 -0.317205 -0.253365 -0.6743100000000001 -0.2384025 -1.0344075 0.015960000000000002 -0.3600975 0.12768000000000002 -0.71022 0.325185 -1.011465Zm3.6039675 9.00543c-0.181545 0.27231750000000005 -0.42693000000000003 0.4957575 -0.7152075 0.65037 -0.2882775 0.1546125 -0.6094725 0.2364075 -0.9366525 0.237405 -0.32718 0.0019950000000000002 -0.6493725 -0.077805 -0.9386475 -0.23042250000000003 -0.289275 -0.15261750000000002 -0.5366550000000001 -0.3740625 -0.720195 -0.6443850000000001 -0.18354 -0.2703225 -0.29825250000000003 -0.58254 -0.33316500000000004 -0.9077250000000001 -0.034912500000000006 -0.325185 0.0109725 -0.65436 0.133665 -0.9576 0.121695 -0.30324 0.317205 -0.5715675 0.5675775 -0.7820400000000001 0.2503725 -0.2104725 0.548625 -0.3561075 0.8688225 -0.4239375 0.38703000000000004 -0.07880250000000001 0.7890225000000001 -0.0408975 1.155105 0.10773 0.365085 0.149625 0.6792975000000001 0.40398750000000005 0.9007425000000001 0.73017 0.221445 0.32718 0.34114500000000003 0.712215 0.34513499999999997 1.1072250000000001 0.0029925000000000004 0.39501000000000003 -0.1107225 0.7830375 -0.32718 1.1132100000000003Zm2.7620775 -2.8149450000000003c-0.38603250000000006 0.07880250000000001 -0.7870275000000001 0.041895 -1.1521125 -0.10773 -0.365085 -0.1486275 -0.6783000000000001 -0.40199250000000003 -0.8987475 -0.728175 -0.221445 -0.32718 -0.34014750000000005 -0.7112175000000001 -0.34314 -1.1052300000000002 -0.0019950000000000002 -0.39501000000000003 0.11172000000000001 -0.7810425000000001 0.3281775 -1.1102175 0.2164575 -0.32917500000000005 0.52668 -0.58653 0.8897700000000001 -0.740145 0.36309 -0.1546125 0.7630875 -0.19650750000000003 1.1501175000000001 -0.12269250000000001 0.38703000000000004 0.073815 0.744135 0.2603475 1.02543 0.5366550000000001 0.28129499999999996 0.27630750000000004 0.4738125 0.6294225 0.55461 1.015455 0.10673250000000001 0.5196975 0.0029925000000000004 1.0593450000000002 -0.2882775 1.502235 -0.29127 0.44289 -0.7471275 0.7521150000000001 -1.2658274999999999 0.8598450000000001Z" stroke-width="0.5"></path></g><path id="vector_64" stroke="#120071" stroke-linecap="round" stroke-linejoin="round" d="M145.5701625 159.84738c-1.0733100000000002 -0.408975 -2.1137025000000005 -0.9007425000000001 -3.1122 -1.470315 0.09975 0.015960000000000002 0.0408975 -0.005985000000000001 2.5865175000000002 -12.263265l10.1745 3.5590800000000002c-0.798 3.7386300000000006 -1.6708125 7.718655000000001 -2.4668175 11.214892500000001 -2.4029775 -1.4503650000000001 -3.1471125 0.5077275 -7.182 -1.0403925Z" stroke-width="0.5"></path><path id="vector_65" stroke="#120071" stroke-linecap="round" stroke-linejoin="round" d="m147.69683250000003 133.347795 -0.89775 4.295235c3.2249175 1.66782 6.8099325 2.5146975 10.439835 2.4678150000000003l0.847875 -4.0897499999999996c-0.1087275 -0.0109725 -7.51716 -0.452865 -10.38996 -2.6733000000000002Z" stroke-width="0.5"></path><path id="vector_66" stroke="#120071" stroke-linecap="round" stroke-linejoin="round" d="M146.80407 137.64303c3.2249175 1.6668225 6.8099325 2.5146975 10.439835 2.4678150000000003 -0.5226900000000001 2.5027275 -1.2398925 5.915175 -2.0219325 9.562035000000002l-10.1745 -3.5590800000000002 1.7565975 -8.470770000000002Z" stroke-width="0.5"></path><path id="vector_67" fill="#fa8a8a" d="M133.78071000000003 157.57208250000002c2.9057175 0.0947625 5.8044525 0.3640875 8.67825 0.8049825 0.9984974999999999 0.5695725 2.0388900000000003 1.0613400000000002 3.1122 1.470315 4.0568325000000005 1.5551025 4.7690475 -0.4159575 7.182 1.0403925 -0.798 3.5221725000000004 -1.5291675 6.549585 -2.0378925000000003 8.334112500000002 -3.712695 -1.454355 -12.227355 -4.977525000000001 -16.372965 -8.23935 0.1586025 -1.167075 -0.0369075 -2.3550975000000003 -0.5615924999999999 -3.4104525000000003Z" stroke-width="0.5"></path><path id="vector_68" stroke="#120071" stroke-linecap="round" stroke-linejoin="round" d="M133.78071000000003 157.57208250000002c2.9057175 0.0947625 5.8044525 0.3640875 8.67825 0.8049825 0.9984974999999999 0.5695725 2.0388900000000003 1.0613400000000002 3.1122 1.470315 4.0568325000000005 1.5551025 4.7690475 -0.4159575 7.182 1.0403925 -0.798 3.5221725000000004 -1.5291675 6.549585 -2.0378925000000003 8.334112500000002 -3.712695 -1.454355 -12.227355 -4.977525000000001 -16.372965 -8.23935 0.1586025 -1.167075 -0.0369075 -2.3550975000000003 -0.5615924999999999 -3.4104525000000003Z" stroke-width="0.5"></path><path id="vector_69" stroke="#120071" stroke-linecap="round" stroke-linejoin="round" d="M133.78071000000003 157.57208250000002c0.5246850000000001 1.0543575 0.7211925 2.2423800000000003 0.5635875 3.4104525000000003 4.14561 3.261825 12.66027 6.783 16.372965 8.23935 -0.11371500000000001 0.5994975 -0.32718 1.1760525000000002 -0.6314175000000001 1.7047275000000002 -0.9486225 0.52668 -16.127580000000002 -6.7460925000000005 -20.238277500000002 -10.962525000000001 -1.89525 -1.94313 0.6453825000000001 -2.4309075 3.9331425 -2.392005Z" stroke-width="0.5"></path><path id="vector_70" stroke="#120071" stroke-linecap="round" stroke-linejoin="round" d="M169.58697 90.34866225000002c0.6194475 3.52307025 0.9097200000000001 7.09631475 0.8668275000000001 10.67315025 -0.26533500000000004 4.24137 -5.8323825000000005 18.4268175 -5.9660475 20.1495 -0.133665 1.7226825000000001 -0.8598450000000001 14.452777500000002 -6.39597 14.849782500000002 0 0 -7.5002025 -0.4319175 -10.3949475 -2.6693100000000003 -0.8379 -2.1466200000000004 -0.8379 -4.530645 0 -6.678262500000001 1.4134575 -3.5800275000000004 5.7855 -18.6263175 5.7855 -18.6263175 -1.8104625 0.784035 -3.6029700000000005 1.6139550000000003 -5.378520000000001 2.475795 -3.3625725 1.6309125 -7.587982500000001 2.2034775 -7.2747675 6.872775 0.23341500000000004 3.4653150000000004 1.89525 8.5615425 -1.66383 10.934595 -1.969065 1.4553525 -5.586 2.4688125000000003 -7.906185000000001 3.0034725000000004 -0.58254 0.13466250000000002 -1.1940075 0.037905 -1.7057250000000002 -0.2703225 -0.5117175 -0.3082275 -0.883785 -0.8019900000000001 -1.0383975 -1.3795425000000001 -0.9665775 -3.6029700000000005 -2.703225 -11.013397500000002 -1.9880175000000002 -15.405390000000002 0.9725625 -5.9660475 3.99 -10.559535 7.251825 -12.1695 3.261825 -1.609965 18.2193375 -8.96144025 18.2193375 -8.96144025s10.494697500000001 -0.6074775 17.5889175 -2.798985Z" stroke-width="0.5"></path><path id="vector_71" stroke="#120071" stroke-linecap="round" stroke-linejoin="round" d="m156.59154 97.6143525 -3.1072125000000006 10.428862500000001" stroke-width="0.5"></path><path id="vector_72" fill="#6153bd" d="M148.10580750000003 110.523c1.7755500000000002 -0.86184 3.5680575 -1.69575 5.378520000000001 -2.475795l2.064825 -6.9176625 -7.443345 9.3934575Z" stroke-width="0.5"></path><path id="vector_73" stroke="#120071" stroke-linecap="round" stroke-linejoin="round" d="M148.10580750000003 110.523c1.7755500000000002 -0.86184 3.5680575 -1.69575 5.378520000000001 -2.475795l2.064825 -6.9176625 -7.443345 9.3934575Z" stroke-width="0.5"></path></g><g id="person 1"><path id="vector_74" fill="#6153bd" d="M51.39718500000001 46.641105c2.4708075 0 4.4737875 -2.00298 4.4737875 -4.4737875 0 -2.4708075 -2.00298 -4.4737875 -4.4737875 -4.4737875 -2.4708075 0 -4.4737875 2.00298 -4.4737875 4.4737875 0 2.4708075 2.00298 4.4737875 4.4737875 4.4737875Z" stroke-width="0.5"></path><path id="vector_75" stroke="#120071" stroke-linecap="round" stroke-linejoin="round" d="M51.39718500000001 46.641105c2.4708075 0 4.4737875 -2.00298 4.4737875 -4.4737875 0 -2.4708075 -2.00298 -4.4737875 -4.4737875 -4.4737875 -2.4708075 0 -4.4737875 2.00298 -4.4737875 4.4737875 0 2.4708075 2.00298 4.4737875 4.4737875 4.4737875Z" stroke-width="0.5"></path><path id="vector_76" fill="#6153bd" d="M34.4726025 52.69483275c2.4708075 0 4.4737875 -2.00298 4.4737875 -4.4737875 0 -2.4708075 -2.00298 -4.4737875 -4.4737875 -4.4737875 -2.4708075 0 -4.4737875 2.00298 -4.4737875 4.4737875 0 2.4708075 2.00298 4.4737875 4.4737875 4.4737875Z" stroke-width="0.5"></path><path id="vector_77" stroke="#120071" stroke-linecap="round" stroke-linejoin="round" d="M34.4726025 52.69483275c2.4708075 0 4.4737875 -2.00298 4.4737875 -4.4737875 0 -2.4708075 -2.00298 -4.4737875 -4.4737875 -4.4737875 -2.4708075 0 -4.4737875 2.00298 -4.4737875 4.4737875 0 2.4708075 2.00298 4.4737875 4.4737875 4.4737875Z" stroke-width="0.5"></path><g id="group_4"><path id="vector_78" fill="#6153bd" d="M41.52792 49.99270500000001c-0.47510925000000004 -1.8237292500000002 -0.44688000000000005 -3.7422210000000002 0.081795 -5.5510875 -1.7596897500000002 0.04139625 -3.438981 0.7451325000000001 -4.70251425 1.9704615 -1.263633 1.22542875 -2.0185410000000004 2.8822762500000003 -2.11400175 4.639871250000001 -0.09546075 1.757595 0.47560800000000003 3.4864620000000004 1.5989925 4.8414660000000005 1.1233845000000002 1.355004 2.7165915 2.2364947500000003 4.4614185 2.46831375 -1.73166 -3.1929975 -1.4214375000000001 -6.7730250000000005 0.6743100000000001 -8.369025Z" stroke-width="0.5"></path><path id="vector_79" fill="#6153bd" d="M42.91853475 43.7832675c-0.7538107500000001 1.80038775 -0.9230865 3.79199625 -0.48378750000000004 5.69373 1.88328 -0.7590975000000001 4.24935 -0.0089775 6.097717500000001 1.8054750000000002 0.1995 -2.252355 2.32617 -1.9062225000000002 2.8388850000000003 0.46184250000000004 0.2563575 1.1860275 -0.0927675 2.2772925 -0.7830375 2.5266675 0.13875225000000002 0.31311525 0.26064675 0.6334125 0.365085 0.959595 1.5179955 -1.06542975 2.5505077500000004 -2.69035725 2.87050575 -4.51717875 0.319998 -1.8268215 -0.09885225 -3.705912 -1.164282 -5.2239075 -1.0655295 -1.5179955 -2.69035725 -2.5506075 -4.51717875 -2.87050575 -1.8268215 -0.319998 -3.705912 0.09885225 -5.2239075 1.164282Z" stroke-width="0.5"></path></g><path id="vector_80" stroke="#120071" stroke-linecap="round" stroke-linejoin="round" d="M42.110659500000004 44.4476025c-1.8016845000000001 -0.08718150000000001 -3.5672595 0.5252835 -4.92794925 1.7095155000000002 -1.3605900000000002 1.18413225 -2.210859 2.8483612500000004 -2.3731522500000004 4.644759 -0.1621935 1.7964975 0.37605750000000004 3.5861122500000002 1.5024345000000001 4.9948815 1.126377 1.4088690000000001 2.7536985000000005 2.32786575 4.541817000000001 2.5649715000000004 -1.83939 -3.3915 -1.374555 -7.221900000000001 1.0872750000000002 -8.644335000000002 1.9491150000000002 -1.1251799999999998 4.5775275 -0.4119675 6.59148 1.5650775000000001 0.1995 -2.252355 2.32617 -1.9062225000000002 2.8388850000000003 0.46184250000000004 0.2563575 1.1860275 -0.0927675 2.2772925 -0.7830375 2.5266675 0.13875225000000002 0.31311525 0.26054700000000003 0.6334125 0.365085 0.959595 0.7861297500000001 -0.553413 1.44966675 -1.2630345 1.94921475 -2.08447575 0.49954800000000005 -0.82144125 0.8243340000000001 -1.7370465000000002 0.9540090000000001 -2.6896590000000002 0.129675 -0.9526125 0.06144600000000001 -1.9216837500000001 -0.20039775 -2.8467652500000002 -0.26174400000000003 -0.9250815 -0.71151675 -1.7862232500000002 -1.3211887500000001 -2.5296600000000002 -0.60957225 -0.743337 -1.3659765 -1.3530090000000001 -2.2219312500000004 -1.7909115000000002 -0.855855 -0.43780275 -1.7929065000000002 -0.6944595000000001 -2.7525015 -0.7538107500000001 -0.95949525 -0.05935125 -1.9209855 0.07980000000000001 -2.8243215 0.40887525 -0.903336 0.3289755 -1.7291662500000002 0.84079275 -2.4257205 1.503432Z" stroke-width="0.5"></path><path id="vector_81" fill="#fa8a8a" d="M61.822157250000004 72.91725c9.7425825 4.247355000000001 20.18541 8.0288775 20.18541 8.0288775 0.8891715 -0.40468575 1.80178425 -0.75540675 2.73315 -1.0503675L54.65112975 63.2415c2.8331992500000003 2.8722015 5.2473487500000005 6.129438 7.1710275 9.675749999999999Z" stroke-width="0.5"></path><path id="vector_82" stroke="#120071" stroke-linecap="round" stroke-linejoin="round" d="M61.822157250000004 72.91725c9.7425825 4.247355000000001 20.18541 8.0288775 20.18541 8.0288775 0.8891715 -0.40468575 1.80178425 -0.75540675 2.73315 -1.0503675L54.65112975 63.2415c2.8331992500000003 2.8722015 5.2473487500000005 6.129438 7.1710275 9.675749999999999Z" stroke-width="0.5"></path><path id="vector_83" fill="#fa8a8a" d="M67.1387325 93.13956750000001c-0.16388925000000001 -11.44940475 -4.83717675 -22.372029750000003 -13.005405000000001 -30.3968175 1.3157025 2.3231775000000003 2.1835275000000003 4.6274025000000005 0.6324150000000001 4.8328875 -2.0004862500000002 0.080598 -3.9914962500000004 -0.31600800000000007 -5.808442500000001 -1.1571 -0.80687775 -0.31910025000000003 -1.5081202500000002 -0.8582490000000002 -2.0239275 -1.5561h-0.009975000000000001c5.0074499999999995 17.406375 2.627415 25.481137500000003 2.627415 25.481137500000003 5.688543 1.81195875 11.61798225 2.75459625 17.587920000000004 2.7959925Z" stroke-width="0.5"></path><path id="vector_84" stroke="#120071" stroke-linecap="round" stroke-linejoin="round" d="M54.1333275 62.74275c8.1681285 8.02478775 12.841416 18.94741275 13.005405000000001 30.3968175 -5.969738250000001 -0.040398750000000004 -11.89927725 -0.9820387500000001 -17.587920000000004 -2.793 0 0 2.3800350000000003 -8.0747625 -2.627415 -25.481137500000003" stroke-width="0.5"></path><path id="vector_85" stroke="#120071" stroke-linecap="round" stroke-linejoin="round" d="M51.3283575 58.467465c-0.3241875 3.2458650000000002 -2.8558425 4.9745325000000005 -5.8383675 4.011945000000001 1.0643325 1.8363975000000001 1.596 3.1720500000000005 3.4673100000000003 3.9411225 1.81694625 0.841092 3.80795625 1.237698 5.808442500000001 1.1571 2.6713050000000003 -0.3541125 -1.8294150000000002 -6.9296325 -3.4373850000000004 -9.1101675Z" stroke-width="0.5"></path><path id="vector_86" fill="#6153bd" d="M50.2370925 61.28729775c-0.56787675 0.6693225 -1.3306650000000002 1.1445315 -2.181732 1.3591935000000002 -0.85116675 0.21456225000000004 -1.748019 0.15790425 -2.5653705 -0.1621935 0.4227405 0.79849875 0.8875755000000001 1.5739552500000002 1.39251 2.3231775000000003 0.8311170000000001 -0.2168565 1.5854265 -0.6611429999999999 2.1779414999999998 -1.2829845 0.59261475 -0.6218414999999999 1.0000935 -1.3965 1.1766510000000001 -2.237193Z" stroke-width="0.5"></path><path id="vector_87" stroke="#120071" stroke-linecap="round" stroke-linejoin="round" d="M50.2370925 61.28729775c-0.56787675 0.6693225 -1.3306650000000002 1.1445315 -2.181732 1.3591935000000002 -0.85116675 0.21456225000000004 -1.748019 0.15790425 -2.5653705 -0.1621935 0.4227405 0.79849875 0.8875755000000001 1.5739552500000002 1.39251 2.3231775000000003 0.8311170000000001 -0.2168565 1.5854265 -0.6611429999999999 2.1779414999999998 -1.2829845 0.59261475 -0.6218414999999999 1.0000935 -1.3965 1.1766510000000001 -2.237193Z" stroke-width="0.5"></path><path id="vector_88" stroke="#120071" stroke-linecap="round" stroke-linejoin="round" d="M91.21748475000001 87.21541500000001s3.02841 0.9107175000000001 1.6139550000000003 -0.8847825 -6.3201600000000004 -4.8279000000000005 -6.3201600000000004 -4.8279000000000005c1.100841 -0.06413925 2.15110875 -0.4841865 2.9925 -1.197 0.10034850000000001 -0.08049825 0.17406375 -0.189525 0.2116695 -0.3126165 0.037506000000000005 -0.1230915 0.037107 -0.25466175 -0.001197 -0.377454 -0.03840375 -0.12289200000000002 -0.11281725000000001 -0.23132025 -0.21376425 -0.31131975 -0.10084725 -0.07989975 -0.22344000000000003 -0.12758025000000003 -0.35181825000000005 -0.13675725 -2.9795325000000004 -0.1825425 -7.139107500000001 1.7805375 -7.139107500000001 1.7805375 -0.7860300000000001 2.0668200000000003 -0.49875 6.8348700000000004 -0.5396475000000001 7.637857500000001 3.1411275 0.4778025 7.4054400000000005 3.7974825 8.372017500000002 3.89025 0.983535 0.09975 0.0548625 -1.63191 0.0548625 -1.63191s1.7406375000000003 1.2518624999999999 2.284275 0.520695c0.5436375000000001 -0.7311675 -1.30872 -1.9890150000000002 -1.30872 -1.9890150000000002 3.1122 1.4084699999999999 3.00048 -0.6822900000000001 0.34513499999999997 -2.160585Z" stroke-width="0.5"></path><path id="vector_89" stroke="#120071" stroke-linecap="round" stroke-linejoin="round" d="m91.68231975 87.45272025 -3.9291525000000003 -2.0119575" stroke-width="0.5"></path><path id="vector_90" stroke="#120071" stroke-linecap="round" stroke-linejoin="round" d="m91.338282 89.60432775000001 -3.9291525000000003 -2.012955" stroke-width="0.5"></path><path id="vector_91" stroke="#120071" stroke-linecap="round" stroke-linejoin="round" d="m89.89479975 90.8453175 -2.9815275 -1.51221" stroke-width="0.5"></path><path id="vector_92" fill="#fa8a8a" d="M48.407677500000005 66.1532025c-0.9531112500000001 -0.5615924999999999 -1.7135055000000001 -1.3990935000000002 -2.180535 -2.40198 -2.1845250000000003 1.9231800000000001 -2.9316525 4.52067 -3.1271625 7.703692500000001 -0.3541125 5.744602500000001 6.8937225 11.777482500000001 15.5540175 14.9914275 6.92075475 2.36078325 14.10295425 3.8703997500000002 21.388395000000003 4.4957325 1.64787 0.09975 1.4453775000000002 -2.8708050000000003 1.41246 -3.8613225 -0.021945 -0.6254325000000001 -0.07182 -4.4887500000000005 0.5526150000000001 -6.134625000000001 0 0 -24.759945000000002 -8.966527500000002 -33.59979 -14.792925Z" stroke-width="0.5"></path><path id="vector_93" stroke="#120071" stroke-linecap="round" stroke-linejoin="round" d="M48.407677500000005 66.1532025c-0.9531112500000001 -0.5615924999999999 -1.7135055000000001 -1.3990935000000002 -2.180535 -2.40198 -2.1845250000000003 1.9231800000000001 -2.9316525 4.52067 -3.1271625 7.703692500000001 -0.3541125 5.744602500000001 6.8937225 11.777482500000001 15.5540175 14.9914275 6.92075475 2.36078325 14.10295425 3.8703997500000002 21.388395000000003 4.4957325 1.64787 0.09975 1.4453775000000002 -2.8708050000000003 1.41246 -3.8613225 -0.021945 -0.6254325000000001 -0.07182 -4.4887500000000005 0.5526150000000001 -6.134625000000001 0 0 -24.759945000000002 -8.966527500000002 -33.59979 -14.792925Z" stroke-width="0.5"></path><path id="vector_94" stroke="#120071" stroke-linecap="round" stroke-linejoin="round" d="M51.371449500000004 51.74421525c-0.5177025000000001 -2.394 -2.6363925 -2.6992350000000003 -2.8388850000000003 -0.46184250000000004 -2.012955 -1.9760475000000002 -4.642365 -2.6932500000000004 -6.59148 -1.5650775000000001 -2.519685 1.4553525 -2.9476125000000004 5.4313875000000005 -0.955605 8.87775s5.648842500000001 5.0673 8.1685275 3.6119475000000003c2.29425 -1.3236825 2.8538475000000005 -4.73613 1.434405 -7.9391025 0.6902699999999999 -0.2463825 1.039395 -1.3376475 0.7830375 -2.523675Z" stroke-width="0.5"></path><path id="vector_95" stroke="#120071" stroke-linecap="round" stroke-linejoin="round" d="m37.80435225 69.03388275 -3.664815 7.19796" stroke-width="0.5"></path><path id="vector_96" stroke="#120071" stroke-linecap="round" stroke-linejoin="round" d="m34.782825 65.860935 -7.653817500000001 3.4343925000000004" stroke-width="0.5"></path><path id="vector_97" stroke="#120071" stroke-linecap="round" stroke-linejoin="round" d="m32.847774750000006 60.86535525 -7.341600000000001 -0.285285" stroke-width="0.5"></path><path id="vector_98" stroke="#120071" stroke-linecap="round" stroke-linejoin="round" d="M49.55091225 90.34856250000001c5.68864275 1.8108615 11.618082000000001 2.7525015 17.587920000000004 2.793 -2.5625775 11.6099025 -6.45183 15.261750000000001 -6.45183 15.261750000000001s3.44736 12.991439999999999 3.9770325000000004 16.61436c0.238602 2.4368925000000004 0.207879 4.892737500000001 -0.09177 7.3226475 -0.1466325 1.42842 -0.9077250000000001 1.402485 -2.2503599999999997 1.913205 -2.1705600000000005 0.8528625000000001 -4.443663 1.4174475000000002 -6.761055 1.6797900000000001 -0.567378 0.09775500000000001 -1.1511149999999999 0.006982500000000001 -1.661835 -0.25835250000000004 -0.51062025 -0.2663325 -0.91999425 -0.692265 -1.16508 -1.21296 -0.9821385000000001 -1.6548525 -1.5013372500000002 -3.5421225000000005 -1.5032325 -5.4663 0.067032 -3.3486075000000004 -0.38014725 -6.6862425000000005 -1.3256775 -9.89919 -0.61845 -2.29425 -4.5954825 -15.995910000000002 -4.15359 -19.972942500000002 0.4418925 -3.9770325000000004 3.7994775000000005 -8.775007500000001 3.7994775000000005 -8.775007500000001Z" stroke-width="0.5"></path><path id="vector_99" stroke="#120071" stroke-linecap="round" stroke-linejoin="round" d="m57.8591895 97.5265725 2.8278127500000005 10.870755" stroke-width="0.5"></path><g id="group_5"><path id="vector_100" fill="#6153bd" d="M58.499584500000005 149.4584175c-0.56658 0.093765 -1.1405415 0.165585 -1.7216850000000001 0.2144625 0.40398750000000005 1.89525 2.068815 9.4672725 2.4668175 11.214892500000001 0.49366275000000004 -0.31920000000000004 1.0580482500000001 -0.512715 1.64388 -0.5625899999999999l-2.3890125 -10.866765000000001Z" stroke-width="0.5"></path><path id="vector_101" fill="#6153bd" d="M67.9399245 159.201c0.5426400000000001 -0.2523675 1.0792950000000001 -0.528675 1.6019850000000002 -0.8289225 -0.09975 0.013965000000000002 -0.0408975 -0.005985000000000001 -2.5865175000000002 -12.263265 -0.504735 0.33715500000000004 -1.025829 0.6533625000000001 -1.5630825 0.94962l2.547615 12.1425675Z" stroke-width="0.5"></path><path id="vector_102" fill="#6153bd" d="M61.51602450000001 148.72725c-0.66503325 0.21147000000000002 -1.3440315 0.39102000000000003 -2.036895 0.5396475000000001l2.4398850000000003 11.096190000000002c0.6802950000000001 0.1047375 1.37006625 0.133665 2.056845 0.0867825l-2.4598350000000004 -11.722620000000001Z" stroke-width="0.5"></path><path id="vector_103" fill="#6153bd" d="M64.47441 147.54222000000001c-0.6542602500000001 0.321195 -1.3243807500000002 0.608475 -2.0079675 0.86184l2.4937500000000004 11.8951875c0.700644 -0.16658250000000002 1.384929 -0.39501000000000003 2.0448749999999998 -0.6832875l-2.5306575000000002 -12.073739999999999Z" stroke-width="0.5"></path></g><path id="vector_104" stroke="#120071" stroke-linecap="round" stroke-linejoin="round" d="M66.95529225 146.1138c-3.0355920000000003 2.0279175 -6.536418000000001 3.2528475 -10.1745 3.5590800000000002 0.40398750000000005 1.89525 2.068815 9.4672725 2.4668175 11.214892500000001 2.4009825 -1.44837 3.1570875000000003 0.49875 7.182 -1.0403925 1.0731105 -0.4099725 2.1132037500000003 -0.9017400000000001 3.1112025000000005 -1.470315 -0.09875250000000001 0.013965000000000002 -0.039900000000000005 -0.005985000000000001 -2.5855200000000003 -12.263265Z" stroke-width="0.5"></path><path id="vector_105" stroke="#120071" stroke-linecap="round" stroke-linejoin="round" d="M62.32190475 134.24754000000001c-2.1705600000000005 0.8528625000000001 -4.443663 1.4174475000000002 -6.761055 1.6797900000000001 -0.5923155 0.044887500000000004 -1.186626 -0.05586000000000001 -1.7306625000000002 -0.2942625l0.9266775 4.4777775c3.6295035 0.0468825 7.214718 -0.7999950000000001 10.4388375 -2.4678150000000003l-0.9097200000000001 -4.3790249999999995c-0.3561075 0.5296725000000001 -1.0144575 0.62244 -1.9640775000000001 0.983535Z" stroke-width="0.5"></path><path id="vector_106" stroke="#120071" stroke-linecap="round" stroke-linejoin="round" d="M65.19560249999999 137.64303c-3.22421925 1.6668225 -6.809334 2.5146975 -10.4388375 2.4678150000000003 0.5216925 2.5027275 1.238895 5.915175 2.0209349999999997 9.562035000000002 3.6379822500000003 -0.3062325 7.13880825 -1.5311625 10.1745 -3.5590800000000002l-1.7565975 -8.470770000000002Z" stroke-width="0.5"></path><path id="vector_107" fill="#fa8a8a" d="M78.2189625 157.57208250000002c-2.90621625 0.0947625 -5.80415325 0.36309 -8.67825 0.8049825 -0.99779925 0.5695725 -2.03799225 1.0603425 -3.1112025000000005 1.470315 -4.0568325000000005 1.5551025 -4.7700450000000005 -0.4159575 -7.182 1.0403925 0.798 3.5221725000000004 1.5291675 6.549585 2.0378925000000003 8.334112500000002 3.712695 -1.454355 12.227355 -4.977525000000001 16.372965 -8.23935 -0.15790425 -1.167075 0.037306500000000006 -2.3550975000000003 0.5605950000000001 -3.4104525000000003Z" stroke-width="0.5"></path><path id="vector_108" stroke="#120071" stroke-linecap="round" stroke-linejoin="round" d="M78.2189625 157.57208250000002c-2.90621625 0.0947625 -5.80415325 0.36309 -8.67825 0.8049825 -0.99779925 0.5695725 -2.03799225 1.0603425 -3.1112025000000005 1.470315 -4.0568325000000005 1.5551025 -4.7700450000000005 -0.4159575 -7.182 1.0403925 0.798 3.5221725000000004 1.5291675 6.549585 2.0378925000000003 8.334112500000002 3.712695 -1.454355 12.227355 -4.977525000000001 16.372965 -8.23935 -0.15790425 -1.167075 0.037306500000000006 -2.3550975000000003 0.5605950000000001 -3.4104525000000003Z" stroke-width="0.5"></path><path id="vector_109" stroke="#120071" stroke-linecap="round" stroke-linejoin="round" d="M78.2189625 157.57208250000002c-0.524286 1.055355 -0.7205940000000001 2.2423800000000003 -0.5635875 3.4104525000000003 -4.14561 3.261825 -12.66027 6.783 -16.372965 8.23935 0.11441325000000001 0.5994975 0.32777850000000003 1.175055 0.6314175000000001 1.7047275000000002 0.9486225 0.52668 16.127580000000002 -6.7460925000000005 20.238277500000002 -10.962525000000001 1.89525 -1.94313 -0.6443850000000001 -2.4309075 -3.9331425 -2.392005Z" stroke-width="0.5"></path><path id="vector_110" stroke="#120071" stroke-linecap="round" stroke-linejoin="round" d="M46.949532000000005 107.67713250000001c-1.29675 1.1042325 -1.197 7.507185 -6.7141725 8.29521 -1.5062250000000001 0.21546 -3.45534 0.43989750000000005 -4.24137 1.953105 -1.49625 2.87679 -0.285285 7.755562500000001 1.6648275000000001 10.198440000000002 1.9770450000000002 2.4767925 10.411905 -1.2857775 12.918622500000001 -6.218415 -0.70224 -3.3725475 -2.1236775000000003 -7.553070000000001 -3.6279075 -14.22834Z" stroke-width="0.5"></path><path id="vector_111" stroke="#120071" stroke-linecap="round" stroke-linejoin="round" d="M7.491304800000001 141.020565c0.04389 -4.04586 2.08677 -12.77598 2.8748149499999998 -16.001895 -0.9884826 0.21845250000000002 -1.9518282 0.5376525000000001 -2.8748149499999998 0.95361 -1.0603425 0.86184 -3.4254150000000005 19.964962500000002 -2.1216825 20.857725000000002 0.971565 0.6643350000000001 2.4937500000000004 -1.3396425 4.102717500000001 -3.9720450000000005 -0.13363507500000002 -0.45685500000000007 -0.38835667500000004 -0.8688225 -0.73713255 -1.1920125000000001 -0.348775875 -0.32319000000000003 -0.7786086000000001 -0.5466300000000001 -1.24390245 -0.6453825000000001Z" stroke-width="0.5"></path><path id="vector_112" fill="#fa8a8a" d="M15.53307 128.29446000000002c0.4279275 -2.1356475 1.0224374999999999 -3.596985 1.147125 -4.8787725 -2.3770425 0.5755574999999999 -4.6293975000000005 1.14114 -6.3141750000000005 1.6029825 -0.788015025 3.225915 -2.8308950250000002 11.956035000000002 -2.874785025 16.001895 0.466022025 0.09875250000000001 0.89669265 0.321195 1.24621665 0.6443850000000001 0.349533975 0.3241875 0.6048441 0.736155 0.73880835 1.1930100000000001 2.3391275250000003 -3.8363850000000004 4.8468425250000005 -9.008422500000002 6.051822525 -9.210915 -0.23471175000000002 -1.7765475 -0.233016 -3.5760375 0.004987500000000001 -5.352585Z" stroke-width="0.5"></path><path id="vector_113" stroke="#120071" stroke-linecap="round" stroke-linejoin="round" d="M15.53307 128.29446000000002c0.4279275 -2.1356475 1.0224374999999999 -3.596985 1.147125 -4.8787725 -2.3770425 0.5755574999999999 -4.6293975000000005 1.14114 -6.3141750000000005 1.6029825 -0.788015025 3.225915 -2.8308950250000002 11.956035000000002 -2.874785025 16.001895 0.466022025 0.09875250000000001 0.89669265 0.321195 1.24621665 0.6443850000000001 0.349533975 0.3241875 0.6048441 0.736155 0.73880835 1.1930100000000001 2.3391275250000003 -3.8363850000000004 4.8468425250000005 -9.008422500000002 6.051822525 -9.210915 -0.23471175000000002 -1.7765475 -0.233016 -3.5760375 0.004987500000000001 -5.352585Z" stroke-width="0.5"></path><g id="group_6"><path id="vector_114" fill="#6153bd" d="m27.043222500000002 126.6076875 -11.6198775 2.4279150000000005c-0.06124650000000001 0.6314175000000001 -0.08458800000000001 1.266825 -0.06982500000000001 1.901235l12.147555000000002 -2.78103c-0.180348 -0.5077275 -0.33316500000000004 -1.0244324999999999 -0.45785250000000005 -1.5481200000000002Z" stroke-width="0.5"></path><path id="vector_115" fill="#6153bd" d="m26.64412275 124.08900000000001 -10.636342500000001 2.22243c-0.13765500000000003 0.508725 -0.27930000000000005 1.0613400000000002 -0.408975 1.669815l11.2428225 -2.3481150000000004c-0.093765 -0.5356575 -0.1566075 -1.05336 -0.19750500000000001 -1.5441300000000002Z" stroke-width="0.5"></path><path id="vector_116" fill="#6153bd" d="M26.58936 123.07953c-0.018354000000000002 -0.6653325000000001 -0.00069825 -1.3316625 0.052867500000000005 -1.995 -3.2009775 0.73017 -6.783 1.5630825 -9.962032500000001 2.332155 -0.07610925000000002 0.6134625 -0.20179425 1.218945 -0.37605750000000004 1.8124575l10.2852225 -2.1496125Z" stroke-width="0.5"></path><path id="vector_117" fill="#6153bd" d="M15.390427500000001 131.9522925c0.030922500000000002 0.572565 0.07880250000000001 1.14513 0.133665 1.69575 1.6189425000000002 -0.27231750000000005 11.38746 -2.80896 13.01538 -3.2319000000000004 -0.24678150000000001 -0.4279275 -0.46952325000000006 -0.8688225 -0.6673275000000001 -1.3206900000000001l-12.4817175 2.85684Z" stroke-width="0.5"></path></g><path id="vector_118" stroke="#120071" stroke-linecap="round" stroke-linejoin="round" d="M26.642427 121.0835325c-3.2009775 0.73017 -6.783 1.5630825 -9.962032500000001 2.332155 -0.1246875 1.2817875 -0.7191975 2.743125 -1.147125 4.8787725 -0.2394 1.7755500000000002 -0.2423925 3.5760375 -0.0089775 5.352585 1.6189425000000002 -0.27231750000000005 11.3864625 -2.80896 13.01538 -3.2319000000000004 -1.5438307500000001 -2.8538475000000005 -2.2041757500000005 -6.101707500000001 -1.897245 -9.3316125Z" stroke-width="0.5"></path><path id="vector_119" stroke="#120071" stroke-linecap="round" stroke-linejoin="round" d="m32.13057225 119.84264250000001 -5.48625 1.24089c-0.30752925000000003 3.229905 0.35211749999999997 6.477765 1.89525 9.3316125 1.09725 -0.28428749999999997 3.4114500000000003 -0.86583 5.434380000000001 -1.3715625 -1.42073925 -2.84886 -2.05694475 -6.024900000000001 -1.8433800000000002 -9.200940000000001Z" stroke-width="0.5"></path><path id="vector_120" stroke="#120071" stroke-linecap="round" stroke-linejoin="round" d="M37.658617500000005 128.1238875c-0.950418 -1.2857775 -1.62682275 -2.7531 -1.9871197500000002 -4.3111950000000006 -0.36029700000000003 -1.5570975 -0.39690525 -3.1730475 -0.10763025 -4.7451075l-3.4314 0.7750575000000001c-0.21406350000000002 3.1760400000000004 0.42224175 6.352080000000001 1.8433800000000002 9.200940000000001l3.6827700000000005 -0.919695Z" stroke-width="0.5"></path></g></g></svg>