<svg xmlns="http://www.w3.org/2000/svg" fill="none" viewBox="-0.25 -0.25 200 200" id="Users-People-Get-Inspired-01--Streamline-Bangalore.svg"><desc>Users People Get Inspired 01 Streamline Illustration: https://streamlinehq.com</desc><g><g><path fill="#fa8a8a" d="M109.240215 179.887155c4.7032125 0.325185 5.2867500000000005 -6.7780125 0.5985 -7.261800000000001l-44.95134 -6.19647c-0.47770275 -0.101745 -0.9709665000000001 -0.10673250000000001 -1.450764 -0.0149625 -0.4797975 0.0907725 -0.936453 0.277305 -1.34313375 0.548625 -0.40668075000000004 0.2703225 -0.75520725 0.6194475 -1.025031 1.0264275 -0.26992350000000004 0.40698 -0.455658 0.863835 -0.5465302500000001 1.3436325 -0.0907725 0.4797975 -0.08468775 0.97356 0.0177555 1.4513625 0.10254300000000001 0.476805 0.29944950000000004 0.9296700000000001 0.5791485000000001 1.3296675 0.279699 0.40099500000000005 0.63670425 0.7411425 1.0498687500000001 1.00149s0.874209 0.4359075 1.35610125 0.5157075000000001c-0.50184225 -0.027930000000000003 -1.004283 0.045885 -1.476699 0.217455 -0.47251575 0.17157 -0.90523125 0.43690500000000004 -1.27211175 0.7810425000000001 -0.36688050000000005 0.34314 -0.6603450000000001 0.7581 -0.8625382500000001 1.2179475000000002 -0.20219325 0.4598475 -0.30892575 0.9566025 -0.3138135 1.4593425000000002 0.0005985 0.8947575000000001 0.32917500000000005 1.757595 0.9234855 2.42592 0.5943105000000001 0.6693225 1.4131582500000002 1.0962525 2.301432 1.2019875000000002 -0.48468525 -0.0508725 -0.974757 -0.004987500000000001 -1.4413875 0.13566000000000003 -0.46673025 0.14064749999999998 -0.90064275 0.37306500000000004 -1.2764010000000001 0.6832875 -0.37575825 0.3102225 -0.6858810000000001 0.6932625 -0.9121140000000001 1.1241825 -0.22623300000000002 0.4319175 -0.3640875 0.9047325 -0.40548375 1.390515 -0.04139625 0.4857825 0.014463750000000001 0.9745575000000001 0.164388 1.438395 0.14992425 0.46383750000000007 0.3908205 0.8927625 0.708624 1.2618375 0.3178035 0.3700725 0.70613025 0.6723150000000001 1.1423370000000002 0.8897700000000001 0.436107 0.217455 0.9112162500000001 0.3461325 1.39759725 0.3780525l44.907450000000004 6.2014575c5.1191699999999996 0.57057 5.7665475 -6.3670425 1.3965 -7.2169125 4.5356325 0.10374 5.073285 -6.6124275 0.73416 -7.333620000000001Z" stroke-width="0.5"></path><path fill="#fa8a8a" fill-rule="evenodd" d="M48.17925 72.81750000000001c11.505464250000001 -2.2493625 23.1828975 -3.50651175 34.9035225 -3.7575825000000003 -0.7701697500000001 5.009943750000001 -1.0607415 10.081932000000002 -0.8678250000000001 15.147037500000001 -0.4255335 -0.005386500000000001 -0.851067 -0.01087275 -1.2767002500000002 -0.016359000000000002l-0.00648375 -0.00009975000000000001 -0.00648375 -0.00009975000000000001c-10.2062205 -0.13196925 -20.487453 -0.26483625000000005 -31.798404750000003 1.627521 -1.8910605 -4.07289225 -2.2281157499999997 -8.69650425 -0.947625 -13.0004175Zm4.7598705 2.2381905c0.17765475000000003 -0.1777545 0.27750450000000004 -0.4187505 0.27750450000000004 -0.6701205 0 -0.25127025000000003 -0.09984975 -0.492366 -0.27750450000000004 -0.67002075 -0.1777545 -0.1777545 -0.4187505 -0.27760425 -0.6701205 -0.27760425 -0.25137000000000004 0 -0.492366 0.09984975 -0.6701205 0.27760425 -0.17765475000000003 0.17765475000000003 -0.27750450000000004 0.4187505 -0.27750450000000004 0.67002075 0 0.25137000000000004 0.09984975 0.492366 0.27750450000000004 0.6701205 0.1777545 0.17765475000000003 0.4187505 0.27750450000000004 0.6701205 0.27750450000000004 0.25137000000000004 0 0.492366 -0.09984975 0.6701205 -0.27750450000000004ZM66.1791375 80.98004250000001c0 0.25137000000000004 -0.09984975 0.492366 -0.27760425 0.6701205 -0.17765475000000003 0.17765475000000003 -0.41865075 0.27750450000000004 -0.67002075 0.27750450000000004 -0.25137000000000004 0 -0.492366 -0.09984975 -0.67002075 -0.27750450000000004 -0.1777545 -0.1777545 -0.27760425 -0.4187505 -0.27760425 -0.6701205 0 -0.25127025000000003 0.09984975 -0.492366 0.27760425 -0.67002075 0.17765475000000003 -0.1777545 0.41865075 -0.27760425 0.67002075 -0.27760425 0.25137000000000004 0 0.492366 0.09984975 0.67002075 0.27760425 0.1777545 0.17765475000000003 0.27760425 0.4187505 0.27760425 0.67002075Zm13.89687075 -8.122842c0.1777545 -0.1777545 0.27760425 -0.4187505 0.27760425 -0.6701205 0 -0.25127025000000003 -0.09984975 -0.492366 -0.27760425 -0.67002075 -0.17765475000000003 -0.1777545 -0.41865075 -0.27760425 -0.67002075 -0.27760425 -0.25137000000000004 0 -0.492366 0.09984975 -0.67002075 0.27760425 -0.1777545 0.17765475000000003 -0.27760425 0.4187505 -0.27760425 0.67002075 0 0.25137000000000004 0.09984975 0.492366 0.27760425 0.6701205 0.17765475000000003 0.17765475000000003 0.41865075 0.27750450000000004 0.67002075 0.27750450000000004 0.25137000000000004 0 0.492366 -0.09984975 0.67002075 -0.27750450000000004Z" clip-rule="evenodd" stroke-width="0.5"></path><path fill="#fa8a8a" fill-rule="evenodd" d="M100.34650500000001 67.63848000000002c0 0.947625 0.5695725 1.4972475 2.1037275 1.5351525 1.1900175000000002 0.0189525 2.6343975 0.07581 4.2264075000000005 0.15261750000000002 -2.9745450000000004 4.438775250000001 -5.3396175 9.257199 -7.03038 14.326095l-12.943560000000002 -0.28428749999999997c-0.48279 -3.9331425 0.1506225 -10.6622775 0.5496225000000001 -14.346045l4.8318900000000005 0.11371500000000001c0.61136775 0.034713 1.2219375000000001 -0.0819945 1.7773455000000002 -0.33994800000000003 0.55550775 -0.25785375000000005 1.03869675 -0.64887375 1.4066745 -1.138347v-0.0189525h5.078272500000001Zm-6.2605095 13.064058000000001c0.17765475000000003 -0.1777545 0.27750450000000004 -0.4187505 0.27750450000000004 -0.6701205 0 -0.25127025000000003 -0.09984975 -0.492366 -0.27750450000000004 -0.67002075 -0.1777545 -0.1777545 -0.4187505 -0.27760425 -0.6701205 -0.27760425 -0.25137000000000004 0 -0.492366 0.09984975 -0.6701205 0.27760425 -0.17765475000000003 0.17765475000000003 -0.27750450000000004 0.4187505 -0.27750450000000004 0.67002075 0 0.25137000000000004 0.09984975 0.492366 0.27750450000000004 0.6701205 0.1777545 0.17765475000000003 0.4187505 0.27750450000000004 0.6701205 0.27750450000000004 0.25137000000000004 0 0.492366 -0.09984975 0.6701205 -0.27750450000000004Z" clip-rule="evenodd" stroke-width="0.5"></path><path fill="#fa8a8a" fill-rule="evenodd" d="M110.485095 69.5367225c8.680245000000001 0.5685749999999999 29.8481925 2.5017300000000002 38.413725 5.874277500000001 0.9875250000000001 4.47747825 0.5915175 9.149469 -1.1371499999999999 13.396425 -16.221345000000003 -3.3326475 -27.4023225 -4.586505 -41.824177500000005 -4.5296475l-1.326675 4.5885c-3.0134475000000003 -2.2174425 2.9186850000000004 -14.478712500000002 5.874277500000001 -19.329555000000003Zm5.04735 4.268103000000001c0.177555 -0.1777545 0.277305 -0.4187505 0.277305 -0.6701205 0 -0.25127025000000003 -0.09975 -0.49226625 -0.277305 -0.67002075 -0.177555 -0.1777545 -0.41895 -0.27760425 -0.67032 -0.27760425 -0.25137000000000004 0 -0.492765 0.09984975 -0.67032 0.27760425 -0.177555 0.1777545 -0.277305 0.4187505 -0.277305 0.67002075 0 0.25137000000000004 0.09975 0.492366 0.277305 0.6701205 0.177555 0.1777545 0.41895 0.27750450000000004 0.67032 0.27750450000000004 0.25137000000000004 0 0.492765 -0.09975 0.67032 -0.27750450000000004Zm14.283202500000002 8.8619895c0 0.25137000000000004 -0.09975 0.492366 -0.277305 0.6701205 -0.177555 0.17765475000000003 -0.41895 0.27750450000000004 -0.67032 0.27750450000000004 -0.25137000000000004 0 -0.492765 -0.09984975 -0.67032 -0.27750450000000004 -0.177555 -0.1777545 -0.277305 -0.4187505 -0.277305 -0.6701205 0 -0.25127025000000003 0.09975 -0.492366 0.277305 -0.67002075 0.177555 -0.1777545 0.41895 -0.27760425 0.67032 -0.27760425 0.25137000000000004 0 0.492765 0.09984975 0.67032 0.27760425 0.177555 0.17765475000000003 0.277305 0.4187505 0.277305 0.67002075Zm15.754515000000001 -4.541817000000001c0.177555 -0.1777545 0.277305 -0.4187505 0.277305 -0.6701205 0 -0.25127025000000003 -0.09975 -0.492366 -0.277305 -0.67002075 -0.177555 -0.1777545 -0.41895 -0.27760425 -0.67032 -0.27760425 -0.25137000000000004 0 -0.492765 0.09984975 -0.67032 0.27760425 -0.177555 0.17765475000000003 -0.277305 0.4187505 -0.277305 0.67002075 0 0.25137000000000004 0.09975 0.492366 0.277305 0.6701205 0.177555 0.1777545 0.41895 0.27750450000000004 0.67032 0.27750450000000004 0.25137000000000004 0 0.492765 -0.09975 0.67032 -0.27750450000000004Z" clip-rule="evenodd" stroke-width="0.5"></path></g><g><path fill="#6153bd" d="m98.81235000000001 64.56817500000001 -2.7860175000000003 1.781535c0.26383875 -0.5709690000000001 0.46712925 -1.1680725 0.60648 -1.781535 0.7258807500000001 0.042294000000000005 1.4536567500000002 0.042294000000000005 2.1795375000000003 0Z" stroke-width="0.5"></path><path fill="#6153bd" d="M126.4421025 58.220085000000005c6.0079425 -13.625850000000002 -16.1086275 -2.1945 -16.1086275 -2.1945 3.525165 -6.670282500000001 -6.2912325000000004 -5.1540825 -10.536592500000001 -1.933155 4.32117 -2.93664 5.07927 1.326675 3.8852625 3.7525950000000003 -0.2084775 0.5117175 0.037905 0.7581 1.0802925 0.492765 2.1795375000000003 -0.5496225000000001 2.2383900000000003 2.89275 -1.4782950000000001 2.9565900000000003 -0.3062325 0.1426425 -0.572565 0.3573045 -0.7770525 0.6254325000000001 -1.1371499999999999 2.48178 -2.1795375000000003 4.4717925 -2.1795375000000003 5.7416100000000005 0 0.9665775 0.5685749999999999 1.5162 2.1037275 1.5351525 12.5395725 0.38732925 25.035255 1.67310675 37.39029 3.8473575 1.7635800000000001 -0.6322155 3.369555 -1.6363987500000001 4.710195000000001 -2.9445202500000005 1.34064 -1.3081215 2.3840250000000003 -2.8893585 3.0593325000000005 -4.63647975 7.4283825000000006 -17.7225825 -21.148995000000003 -7.242847500000001 -21.148995000000003 -7.242847500000001Z" stroke-width="0.5"></path><path fill="#6153bd" d="M84.1441125 143.30883c-2.2207342500000005 2.61744 -5.2011645 4.478775000000001 -8.5276275 5.3256525 1.3456275 2.4249225 2.008965 6.670282500000001 2.5935 9.437347500000001 0.9949065 5.359567500000001 2.5510065 10.599435 4.642365 15.633817500000001 4.16955 -9.3765 4.662315 -17.4153525 6.026895000000001 -22.987387500000004 -1.3643805 -2.6004825000000005 -2.9485102500000004 -5.07927 -4.7351325 -7.40943Z" stroke-width="0.5"></path><path fill="#6153bd" d="M144.72927 110.39133000000001c-2.7840225000000003 1.48029 -5.434380000000001 3.1989825 -7.9211475 5.136127500000001 2.4079650000000004 2.3670675000000005 4.1466075 5.328645 5.041365000000001 8.584485 5.735625000000001 -2.8678125000000003 15.46923 -2.8538475000000005 25.791360000000005 -7.3146675000000005 -9.3236325 -4.264312500000001 -17.358495 -4.965555 -22.911577500000003 -6.405945Z" stroke-width="0.5"></path><path fill="#6153bd" d="m118.93791000000002 122.12193 -8.508675 7.068285 -2.8618275000000004 -2.5007325000000002c3.9471075 -1.0982475 7.76055 -2.6304075 11.3705025 -4.5675525Z" stroke-width="0.5"></path><path fill="#6153bd" d="M83.177535 119.8665825c0.26533500000000004 1.1181975 0.5875275 2.2553475 0.9665775 3.3915 5.16675075 -0.8907675 10.210809000000001 -2.3870175 15.028335000000002 -4.4558325 -4.908697500000001 1.97106 -10.7939475 1.88727 -15.994912500000002 1.0643325Z" stroke-width="0.5"></path></g><g><path stroke="#120071" stroke-linecap="round" stroke-linejoin="round" d="m84.6408675 169.15206 25.183882500000003 3.4383825000000003c4.8378749999999995 0.4997475 3.97005 7.8573075 -0.798 7.2588075000000005 4.7630625 0.5476275 3.904215 7.7805 -0.8109675 7.323645 4.7750325 0.6034875000000001 3.876285 7.795462500000001 -0.7860300000000001 7.3246425l-45.368295 -6.27228c-0.47989725000000005 -0.048877500000000004 -0.9454305000000001 -0.1925175 -1.36966725 -0.4219425 -0.42413700000000004 -0.23042250000000003 -0.79869825 -0.5416425 -1.102038 -0.9167025000000001 -0.30324 -0.37506 -0.5292735 -0.8069775000000001 -0.66503325 -1.2698175 -0.13575975 -0.46284000000000003 -0.1785525 -0.947625 -0.1258845 -1.4274225 0.052668 -0.4797975 0.1996995 -0.943635 0.43271550000000003 -1.366575 0.23291625000000002 -0.4219425 0.5472285 -0.7950075000000001 0.9246825000000001 -1.095255 0.377454 -0.3002475 0.81066825 -0.5226900000000001 1.2746055 -0.6553575 0.46393725 -0.13167 0.9495202500000001 -0.17057250000000002 1.4286195 -0.11471250000000001 -0.483588 -0.047880000000000006 -0.9530115000000001 -0.1905225 -1.38103875 -0.420945 -0.42802725 -0.22942500000000002 -0.8060797500000001 -0.5426400000000001 -1.112412 -0.919695 -0.30633225000000003 -0.37705500000000003 -0.5348595 -0.8119649999999999 -0.67221525 -1.2777975 -0.13735575 -0.46583250000000004 -0.1809465 -0.9546075 -0.12817875 -1.4373975 0.05276775 -0.48378750000000004 0.20079675000000002 -0.951615 0.43560825 -1.37655 0.23471175000000002 -0.4259325 0.55151775 -0.7999950000000001 0.9321637500000001 -1.1022375 0.38054625000000003 -0.3022425 0.81725175 -0.52668 1.28478 -0.6583500000000001 0.46762800000000004 -0.13266750000000002 0.9568020000000002 -0.17057250000000002 1.4392927500000001 -0.11271750000000001 -0.49067025000000003 -0.057855000000000004 -0.96448275 -0.21546 -1.3927095000000003 -0.46184250000000004 -0.42822675000000004 -0.2463825 -0.8019900000000001 -0.5775525 -1.0986465 -0.9725625 -0.2966565 -0.39600750000000007 -0.5101215 -0.8468775000000001 -0.6274275 -1.326675 -0.11720625 -0.4797975 -0.13595925 -0.9785475 -0.0548625 -1.466325 0.080997 -0.48777750000000003 0.26004825 -0.95361 0.52638075 -1.3695675 0.26623275 -0.416955 0.61416075 -0.7740600000000001 1.0227367500000002 -1.0523625 0.40857600000000005 -0.27830250000000006 0.8692215 -0.4698225 1.354206 -0.564585 0.48498450000000004 -0.0947625 0.9841335000000001 -0.0907725 1.4673225 0.0129675l16.0008975 2.1845250000000003" stroke-width="0.5"></path><path stroke="#120071" stroke-linecap="round" stroke-linejoin="round" d="M143.5731675 55.2824475c-2.9037225 -8.73061875 -8.196457500000001 -16.4725155 -15.27771 -22.34749125 -7.081252500000001 -5.874876 -15.667732500000001 -9.6476205 -24.783885 -10.89020625 -25.9998375 -3.56706 -49.282485 14.138565 -52.076482500000004 39.5299275 -0.38074575 3.5223720000000003 -0.35530950000000006 7.0768635 0.07581 10.593449999999999" stroke-width="0.5"></path><path stroke="#120071" stroke-linecap="round" stroke-linejoin="round" d="M145.5821325 74.347665c0.20748 -1.9361475000000001 0.289275 -3.8836665000000004 0.24538500000000002 -5.8303875000000005" stroke-width="0.5"></path><path stroke="#120071" stroke-linecap="round" stroke-linejoin="round" d="M142.044 87.68025000000002c-0.2543625 0.5963055 -0.5586000000000001 1.1702670000000002 -0.9097200000000001 1.7157 -8.2992 13.66575 -13.095180000000001 21.64575 -16.468725000000003 29.526000000000003" stroke-width="0.5"></path><path stroke="#120071" stroke-linecap="round" stroke-linejoin="round" d="m87.52464 157.70475 27.376387500000003 3.744615c0.7770525 -4.2064575 2.5935 -16.8846825 3.2787825 -20.20137" stroke-width="0.5"></path><path stroke="#120071" stroke-linecap="round" stroke-linejoin="round" d="M63.54075 136.7143575c-0.037905 2.6094600000000003 -1.226925 14.373975000000002 -1.3256775 17.510115l15.633817500000001 2.0658225000000003" stroke-width="0.5"></path><path stroke="#120071" stroke-linecap="round" stroke-linejoin="round" d="M55.07397 84.97901999999999c2.0837775 6.3291375 3.7136925 11.3126475 4.9456050000000005 15.709627500000002" stroke-width="0.5"></path><path stroke="#120071" stroke-linecap="round" stroke-linejoin="round" d="m94.37746500000002 59.508855000000004 -11.180977500000001 -1.5351525c-1.42253475 -0.22413825 -2.8755930000000003 -0.15850275000000003 -4.27219275 0.1929165 -1.3965 0.351519 -2.7075142500000005 0.9815400000000001 -3.8544397500000005 1.8523575 -1.14702525 0.8708175 -2.1061215000000004 1.9643767500000002 -2.8199325 3.215142 -0.71371125 1.2506655 -1.16737425 2.6328015000000002 -1.3336575 4.0632165 -0.08039850000000001 0.79391025 -0.075411 1.59410475 0.0149625 2.3870175" stroke-width="0.5"></path><path stroke="#120071" stroke-linecap="round" stroke-linejoin="round" d="m88.560045 157.8444 2.5765425000000004 -22.1913825" stroke-width="0.5"></path><path stroke="#120071" stroke-linecap="round" stroke-linejoin="round" d="M83.0827725 69.040965s-2.5935 15.1230975 0.9097200000000001 26.626267500000004c-0.552216 1.37844525 -0.946428 2.8150447499999998 -1.175055 4.282267500000001" stroke-width="0.5"></path><path stroke="#120071" stroke-linecap="round" stroke-linejoin="round" d="M82.17305250000001 84.2019675c-10.631355 -0.13266750000000002 -21.281662500000003 -0.3600975 -33.0880725 1.609965 -1.8806865000000001 -4.07408925 -2.210859 -8.694309750000002 -0.9286725000000001 -12.9944325 14.449485750000001 -2.84018175 29.169693000000002 -4.067007 43.89 -3.6578325 1.933155 0.08079750000000001 3.2009775 -1.1381475 3.9800250000000004 -2.80497 0.26343975000000003 -0.5711685000000001 0.4666305 -1.168272 0.60648 -1.781535 -2.6932500000000004 -0.22743000000000002 -6.384 -1.7027325000000002 1.2698175 -8.925630000000002 0.59361225 -0.56288925 1.22702475 -1.0821877500000001 1.89525 -1.554105" stroke-width="0.5"></path><path stroke="#120071" stroke-linecap="round" stroke-linejoin="round" d="M148.89882 75.42696000000001c-8.520645 -3.3216750000000004 -29.247697500000005 -5.2867500000000005 -38.432677500000004 -5.874277500000001 -2.9555925000000003 4.85184 -8.887725000000001 17.11311 -5.874277500000001 19.329555000000003l1.3456275 -4.6054575c14.421855 -0.056857500000000005 25.6028325 1.197 41.824177500000005 4.5296475 1.7516100000000001 -4.23548475 2.148615 -8.90917125 1.1371499999999999 -13.3794675Z" stroke-width="0.5"></path><path stroke="#120071" stroke-linecap="round" stroke-linejoin="round" d="M103.72204500000001 57.755250000000004c1.1361525000000001 -2.4388875 0.3461325 -6.5725275000000005 -3.9251625000000003 -3.6688050000000003 4.245360000000001 -3.2209275 14.06475 -4.7371275 10.536592500000001 1.933155 0 0 22.1155725 -11.42736 16.1086275 2.1945 31.122 -11.406412500000002 24.010822500000003 10.93659 13.3794675 14.8198575 -12.3540375 -2.1871185000000004 -24.84972 -3.47928 -37.39029 -3.86631 -1.5351525 -0.0209475 -2.1037275 -0.5685749999999999 -2.1037275 -1.5351525 0 -1.2698175 1.0733100000000002 -3.2458650000000002 2.1795375000000003 -5.7416100000000005 0.205485 -0.26772900000000005 0.4718175 -0.48229125 0.7770525 -0.6254325000000001 3.716685 -0.0668325 3.656835 -3.5082075 1.4782950000000001 -2.9565900000000003 -1.0284225 0.2663325 -1.2518624999999999 -0.09675750000000001 -1.0403925 -0.5536125000000001Z" stroke-width="0.5"></path><path stroke="#120071" stroke-linecap="round" stroke-linejoin="round" d="M157.710735 79.74813c1.554105 0.54633075 3.078285 1.17256125 4.5675525 1.8762975000000002 8.87775 4.28127 3.0124500000000003 3.2787825 0.4738125 2.29425" stroke-width="0.5"></path><path stroke="#120071" stroke-linecap="round" stroke-linejoin="round" d="M161.501235 88.0104225c1.0703175 0.71490825 2.0718075000000002 1.526973 2.9925 2.42592 2.1795375000000003 2.1795375000000003 0.9486225 2.48178 -1.155105 1.44039 -1.7246775 -0.8538600000000001 -3.77055 -1.689765 -5.932132500000001 -2.5017300000000002 -2.88876 -1.1892195 -5.923155 -1.985025 -9.023385 -2.36607" stroke-width="0.5"></path><path stroke="#120071" stroke-linecap="round" stroke-linejoin="round" d="M161.61495000000002 89.50767c-0.0468825 -2.6227267500000004 -0.9895200000000001 -5.150591250000001 -2.6723025 -7.1630475" stroke-width="0.5"></path><path stroke="#120071" stroke-linecap="round" stroke-linejoin="round" d="M162.90372000000002 89.03385750000001c0.8528625000000001 0.4359075 1.9321575000000002 0.9296700000000001 3.050355 1.4593425000000002 2.0458725 0.9685725000000001 2.9176875 0.6643350000000001 0.9665775 -1.09725 -1.8423825 -1.66053825 -3.9331425 -3.02232525 -6.19647 -4.035885" stroke-width="0.5"></path><path stroke="#120071" stroke-linecap="round" stroke-linejoin="round" d="M164.002965 87.1386075c7.40943 3.8473575 8.5595475 2.7002325 2.4628275 -1.197 -2.3830275 -1.44048975 -4.902712500000001 -2.64008325 -7.523145 -3.581025" stroke-width="0.5"></path><path stroke="#120071" stroke-linecap="round" stroke-linejoin="round" d="M152.23446 83.61444c1.0004925 0.22842750000000003 2.0498625 0.09286725000000001 2.9595825000000002 -0.38234175 0.9097200000000001 -0.47530875 1.6209375000000001 -1.259244 2.004975 -2.21115825 0.716205 -1.3855275 0.189525 -2.04687 0.98553 -3.0134475000000003 1.2319125000000002 -1.49625 0.9905175 -2.2254225 -0.7770525 -1.4593425000000002 -1.15311 0.49875 -3.8473575 1.8573450000000002 -5.9121825 1.2508650000000001 -0.86583 -0.241395 -1.7356500000000001 -0.4738125 -2.2683150000000003 -0.6094725" stroke-width="0.5"></path><path stroke="#120071" stroke-linecap="round" stroke-linejoin="round" d="M39.23267250000001 76.57907250000001c-1.6049775000000002 0.47760300000000006 -3.18072825 1.0484722499999999 -4.7191725 1.709715 -9.040342500000001 3.9231675 -3.146115 3.146115 -0.5685749999999999 2.2742999999999998" stroke-width="0.5"></path><path stroke="#120071" stroke-linecap="round" stroke-linejoin="round" d="M35.0052675 84.6947325c-1.0982475 0.6725145 -2.13115875 1.44627525 -3.0852675 2.3112075 -2.256345 2.1037275 -1.0623375 2.4438750000000002 1.0802925 1.49625 1.7615850000000002 -0.77805 3.848355 -1.510215 6.025897500000001 -2.236395 6.483750000000001 -2.1615824999999997 9.47625 -2.0079675 9.47625 -2.0079675" stroke-width="0.5"></path><path stroke="#120071" stroke-linecap="round" stroke-linejoin="round" d="M34.834694999999996 86.1909825c0.15890175 -2.619435 1.2067755 -5.1062025 2.9705550000000005 -7.0493325" stroke-width="0.5"></path><path stroke="#120071" stroke-linecap="round" stroke-linejoin="round" d="M33.58383 85.6603125c-0.871815 0.399 -1.97106 0.8528625000000001 -3.10821 1.326675 -2.084775 0.8708175 -2.9396325 0.5476275 -0.9286725000000001 -1.1371499999999999 1.9015342500000003 -1.591212 4.0510470000000005 -2.8598325 6.3630525 -3.7555875000000003" stroke-width="0.5"></path><path stroke="#120071" stroke-linecap="round" stroke-linejoin="round" d="M32.5414425 83.7092025c-7.581 3.5241675 -8.6652825 2.304225 -2.4069675 -1.3077225000000001 2.44477275 -1.33355775 5.0139337500000005 -2.4253215000000004 7.670775000000001 -3.25983" stroke-width="0.5"></path><path stroke="#120071" stroke-linecap="round" stroke-linejoin="round" d="M47.7014475 74.726715c-2.10273 0.5107200000000001 -6.9715275000000005 -0.76209 -8.09172 -1.3077225000000001 -1.7216850000000001 -0.8398950000000001 -2.0059725000000004 -0.13566000000000003 -0.83391 1.42044 0.7411425 0.9845325 0.23042250000000003 1.5531075 0.6443850000000001 2.767065 0.41994750000000003 1.230915 1.49625 3.1271625 3.9800250000000004 2.65335" stroke-width="0.5"></path><path stroke="#120071" stroke-linecap="round" stroke-linejoin="round" d="m84.1441125 143.28987750000002 1.1181975 1.5162" stroke-width="0.5"></path><path stroke="#120071" stroke-linecap="round" stroke-linejoin="round" d="M85.26231 144.80607750000001c1.35709875 1.8743025000000002 2.5673655 3.8513475000000006 3.6199275 5.9121825 -1.3645800000000001 5.5720350000000005 -1.8573450000000002 13.6068975 -6.026895000000001 22.987387500000004 -2.0909595000000003 -5.0343824999999995 -3.64695975 -10.274250000000002 -4.642365 -15.633817500000001 -0.6633375 -3.0922500000000004 -1.1561025 -6.614422500000001 -2.5935 -9.418395" stroke-width="0.5"></path><path stroke="#120071" stroke-linecap="round" stroke-linejoin="round" d="M136.80812250000002 115.54641000000001c2.48976 -1.9341525000000002 5.13912 -3.652845 7.9211475 -5.136127500000001 5.5530825 1.4214375000000001 13.587945000000001 2.1226800000000003 22.911577500000003 6.384 -5.052337500000001 2.040885 -10.3051725 3.5461125000000004 -15.671722500000001 4.4887500000000005 -4.2553350000000005 0.863835 -6.483750000000001 1.00947 -10.1296125 2.8279125" stroke-width="0.5"></path><path stroke="#120071" stroke-linecap="round" stroke-linejoin="round" d="m49.2366 142.9108275 -12.356032500000001 -19.803367500000004" stroke-width="0.5"></path><path stroke="#120071" stroke-linecap="round" stroke-linejoin="round" d="m35.45913 129.19021500000002 1.4214375000000001 -6.082755000000001 6.0837525 1.4214375000000001" stroke-width="0.5"></path><path stroke="#120071" stroke-linecap="round" stroke-linejoin="round" d="M178.68915750000002 70.9551675c0 0.6034875000000001 -0.1785525 1.193409 -0.51471 1.69525125 -0.33516 0.5017425 -0.8109675 0.8928622500000001 -1.3685700000000003 1.1237835 -0.5576025000000001 0.231021 -1.171065 0.29136975000000004 -1.7635800000000001 0.17366475 -0.5915175 -0.117705 -1.135155 -0.40837650000000003 -1.5620850000000002 -0.8351070000000002 -0.42693000000000003 -0.4267305 -0.7172025 -0.9704677500000001 -0.8349075 -1.5622845 -0.117705 -0.5919165000000001 -0.057855000000000004 -1.20547875 0.173565 -1.7630812500000002 0.23042250000000003 -0.5575027499999999 0.6214425 -1.03410825 1.1241825 -1.3693680000000001 0.5017425 -0.33525975 1.0912650000000002 -0.51421125 1.6947525 -0.51421125 0.40099500000000005 -0.00029925 0.798 0.07850325000000001 1.1680725 0.23171925000000002 0.3700725 0.153216 0.7072275 0.37795275000000006 0.9905175 0.66144225 0.28329 0.28338975000000005 0.5077275 0.6198465 0.6613425 0.9901185000000001 0.15261750000000002 0.37037175000000006 0.23142000000000001 0.767277 0.23142000000000001 1.1680725Z" stroke-width="0.5"></path><path stroke="#120071" stroke-linecap="round" stroke-linejoin="round" d="M131.009655 180.433785c0 0.39700500000000005 -0.117705 0.7860300000000001 -0.3381525 1.1162025 -0.221445 0.33017250000000004 -0.53466 0.5875275 -0.9017400000000001 0.740145 -0.36708 0.15162 -0.7710675 0.19152000000000002 -1.16109 0.11371500000000001 -0.39002250000000005 -0.0768075 -0.7471275 -0.26832750000000005 -1.0284225 -0.5496225000000001 -0.28129499999999996 -0.28129499999999996 -0.472815 -0.6384000000000001 -0.5496225000000001 -1.0284225 -0.077805 -0.39002250000000005 -0.037905 -0.7940100000000001 0.11371500000000001 -1.16109 0.15261750000000002 -0.36708 0.4099725 -0.6802950000000001 0.740145 -0.9017400000000001 0.33017250000000004 -0.22044750000000002 0.7191975 -0.3381525 1.1162025 -0.3381525 0.2643375 -0.0019950000000000002 0.52668 0.048877500000000004 0.7710675 0.149625 0.2443875 0.09975 0.4668300000000001 0.24738000000000002 0.6533625000000001 0.43491 0.18753 0.18653250000000002 0.33516 0.408975 0.43491 0.6533625000000001 0.10074750000000002 0.2443875 0.15162 0.50673 0.149625 0.7710675Z" stroke-width="0.5"></path><path stroke="#120071" stroke-linecap="round" stroke-linejoin="round" d="m46.5642975 32.5035375 6.8039475000000005 3.9989775000000005" stroke-width="0.5"></path><path stroke="#120071" stroke-linecap="round" stroke-linejoin="round" d="m81.5665725 4.987500000000001 2.3690625 7.466287500000001" stroke-width="0.5"></path><path stroke="#120071" stroke-linecap="round" stroke-linejoin="round" d="m124.8500925 14.8418025 3.7715475000000005 -6.840855" stroke-width="0.5"></path><path stroke="#120071" stroke-linecap="round" stroke-linejoin="round" d="m153.996045 42.2451225 7.088235 -3.4304025" stroke-width="0.5"></path><path stroke="#120071" stroke-linecap="round" stroke-linejoin="round" d="m24.86568 49.446075 -0.7950075000000001 7.295715" stroke-width="0.5"></path><path stroke="#120071" stroke-linecap="round" stroke-linejoin="round" d="m28.1065575 53.5009125 -7.295715 -0.7950075000000001" stroke-width="0.5"></path><path stroke="#120071" stroke-linecap="round" stroke-linejoin="round" d="M106.65768750000001 69.32625c-2.9745450000000004 4.4390745 -5.3396175 9.257897250000001 -7.03038 14.327092500000001l-12.924607500000002 -0.285285c-0.60648 -4.85184 0.5306700000000001 -14.346045 0.5306700000000001 -14.346045" stroke-width="0.5"></path><path stroke="#120071" stroke-linecap="round" stroke-linejoin="round" d="m87.119655 86.66479500000001 0.720195 7.581 4.509697500000001 3.1451175 4.77603 -3.2209275 1.6867725000000002 -7.3346175 -11.692695 -0.17057250000000002Z" stroke-width="0.5"></path><path stroke="#120071" stroke-linecap="round" stroke-linejoin="round" d="M95.2303275 67.6574325h5.078272500000001" stroke-width="0.5"></path><path stroke="#120071" stroke-linecap="round" stroke-linejoin="round" d="m118.93791000000002 122.12193 -8.508675 7.068285 -2.846865 -2.5047225" stroke-width="0.5"></path><path stroke="#120071" stroke-linecap="round" stroke-linejoin="round" d="m104.591865 88.8822375 -1.8383925 6.330135s11.161027500000001 15.744540000000002 -1.49625 22.643250000000002c-3.0094575 1.6408875 -7.296712500000001 2.7560925 -12.967500000000001 2.527665 -5.43687375 -0.29925 -10.792750500000002 -1.4513625 -15.8712225 -3.4154400000000003 4.154388 7.9391025 8.833062 15.592920000000001 14.0049 22.91058 -1.435602 2.8867650000000005 -3.671997 5.29872 -6.441855 6.9475875 -2.498538 1.4094675 -5.272785 2.2593375000000004 -8.13162 2.4937500000000004 -7.14120225 -10.348065000000002 -13.67901675 -21.099120000000003 -19.580925 -32.2002975 -0.8757052500000001 -1.63191 -1.3369492500000002 -3.4543425 -1.34313375 -5.3067 -0.006284250000000001 -1.8513600000000001 0.44279025000000005 -3.676785 1.307523 -5.314680000000001 0.8646330000000001 -1.637895 2.11859025 -3.038385 3.6514485000000003 -4.077780000000001 1.53285825 -1.039395 3.2977350000000003 -1.685775 5.1392197500000005 -1.88328 9.60792 -1.02543 20.694135 -1.21296 29.127000000000002 0.22743000000000002" stroke-width="0.5"></path><path stroke="#120071" stroke-linecap="round" stroke-linejoin="round" d="M72.4185 116.9678475c-1.0613400000000002 -1.9521075 -1.89525 -3.8094525000000004 -1.89525 -3.8094525000000004" stroke-width="0.5"></path><path stroke="#120071" stroke-linecap="round" stroke-linejoin="round" d="M83.177535 119.8665825c1.9862220000000002 8.6413425 6.9930735 16.289175 14.118615 21.56595 1.9405365 1.4733075000000002 4.207455 2.4568425 6.6084375 2.8698075 2.4009825 0.4119675 4.865805 0.24039750000000001 7.186987500000001 -0.500745 11.3246175 -3.6448650000000002 21.966945 -9.139095000000001 31.49706 -16.25925 -0.983535 -6.19647 -3.4064625000000004 -10.590457500000001 -8.6233875 -14.38395 -7.9151625 5.012437500000001 -17.40039 11.198932500000002 -26.382877500000003 13.5270975 -2.56158 -2.5885125 -4.6533375 -5.6009625000000005 -6.184500000000001 -8.9046825" stroke-width="0.5"></path><path stroke="#120071" stroke-linecap="round" stroke-linejoin="round" d="M99.17244750000002 118.80225c-4.817526 2.068815 -9.861584250000002 3.56307 -15.028335000000002 4.4538375" stroke-width="0.5"></path><path stroke="#120071" stroke-linecap="round" stroke-linejoin="round" d="M96.6328125 64.56817500000001c0.7258807500000001 0.04219425 1.4536567500000002 0.04219425 2.1795375000000003 0l-2.7860175000000003 1.781535" stroke-width="0.5"></path></g></g></svg>