<svg width="79" height="58" viewBox="0 0 79 58" fill="none" xmlns="http://www.w3.org/2000/svg">
<rect x="30" y="14" width="49" height="33" rx="10" fill="#3D2DCB"/>
<rect x="2" y="2" width="66" height="36" rx="8" fill="#255ED3" stroke="white" stroke-width="4"/>
<path d="M19.242 14.148H28.278V16.524H22.068V19.494H27.45V21.69H22.068V27H19.242V14.148ZM32.1675 22.032H35.4975L33.8775 17.316H33.8415L32.1675 22.032ZM32.4375 14.148H35.3355L40.1415 27H37.2075L36.2355 24.138H31.4295L30.4215 27H27.5775L32.4375 14.148ZM49.7098 23.58C49.9498 23.256 50.1418 22.854 50.2858 22.374C50.4298 21.894 50.5018 21.312 50.5018 20.628C50.5018 20.064 50.4358 19.518 50.3038 18.99C50.1838 18.462 49.9858 17.994 49.7098 17.586C49.4338 17.166 49.0738 16.836 48.6298 16.596C48.1858 16.344 47.6458 16.218 47.0098 16.218C46.3738 16.218 45.8338 16.344 45.3898 16.596C44.9458 16.836 44.5858 17.166 44.3098 17.586C44.0338 17.994 43.8298 18.462 43.6978 18.99C43.5778 19.518 43.5178 20.064 43.5178 20.628C43.5178 21.168 43.5778 21.696 43.6978 22.212C43.8298 22.716 44.0338 23.172 44.3098 23.58C44.5858 23.988 44.9458 24.318 45.3898 24.57C45.8338 24.81 46.3738 24.93 47.0098 24.93C47.3098 24.93 47.5378 24.918 47.6938 24.894C47.8498 24.87 47.9998 24.822 48.1438 24.75L46.9378 23.652L48.2518 22.248L49.7098 23.58ZM50.1238 26.55C49.2718 27.042 48.2338 27.288 47.0098 27.288C46.0258 27.288 45.1378 27.12 44.3458 26.784C43.5658 26.436 42.9058 25.962 42.3658 25.362C41.8258 24.762 41.4118 24.06 41.1238 23.256C40.8358 22.44 40.6918 21.564 40.6918 20.628C40.6918 19.668 40.8358 18.78 41.1238 17.964C41.4118 17.136 41.8258 16.416 42.3658 15.804C42.9058 15.192 43.5658 14.712 44.3458 14.364C45.1378 14.016 46.0258 13.842 47.0098 13.842C48.0058 13.842 48.8938 14.016 49.6738 14.364C50.4538 14.712 51.1138 15.192 51.6538 15.804C52.1938 16.416 52.6078 17.136 52.8958 17.964C53.1838 18.78 53.3278 19.668 53.3278 20.628C53.3278 21.564 53.1838 22.434 52.8958 23.238C52.6078 24.042 52.1938 24.75 51.6538 25.362L53.2558 26.82L51.9418 28.188L50.1238 26.55Z" fill="white"/>
<path d="M9.99959 47.194L11.3711 35.1459L27.0221 35.1459L9.99959 47.194Z" fill="#255ED3"/>
<path d="M72.0229 57.194L70.6514 45.1459L55.0003 45.1459L72.0229 57.194Z" fill="#3D2DCB"/>
</svg>
