<svg xmlns="http://www.w3.org/2000/svg" fill="none" viewBox="-0.25 -0.25 200 200" id="Astronaut-3--Streamline-Bangalore.svg"><desc>Astronaut 3 Streamline Illustration: https://streamlinehq.com</desc><g id="astronaut-3--science-technology-astronaut"><g id="stars"><path id="vector" stroke="#120071" stroke-linecap="round" stroke-linejoin="round" d="M22.8736725 71.6234925a2.5964925000000005 2.5964925000000005 0 1 0 0 -5.192985000000001 2.5964925000000005 2.5964925000000005 0 0 0 0 5.192985000000001Z" stroke-width="0.5"></path><path id="vector_2" stroke="#120071" stroke-linecap="round" stroke-linejoin="round" d="M192.57934500000002 96.7365525a1.933155 1.933155 0 1 0 0 -3.86631 1.933155 1.933155 0 0 0 0 3.86631Z" stroke-width="0.5"></path><path id="vector_3" stroke="#120071" stroke-linecap="round" stroke-linejoin="round" d="M137.63405250000002 179.90211750000003c5.8613100000000005 0 10.6134 -4.752090000000001 10.6134 -10.6134s-4.752090000000001 -10.6134 -10.6134 -10.6134 -10.6134 4.752090000000001 -10.6134 10.6134 4.752090000000001 10.6134 10.6134 10.6134Z" stroke-width="0.5"></path><path id="vector_4" stroke="#120071" stroke-linecap="round" stroke-linejoin="round" d="M145.0833825 161.74562250000002c3.6907500000000004 -1.2319125000000002 6.384 -1.458345 6.97452 -0.37905 1.0184475 1.8603375000000002 -4.6054575 6.936615 -12.5685 11.3146425s-15.261750000000001 6.425895000000001 -16.281195 4.5485999999999995c-0.588525 -1.0802925 1.0423875 -3.221925 4.055835 -5.6857500000000005" stroke-width="0.5"></path><path id="vector_5" stroke="#120071" stroke-linecap="round" stroke-linejoin="round" d="m19.121077500000002 149.33073750000003 0.798 3.070305a2.9855175 2.9855175 0 0 1 -1.0912650000000002 3.134145 2.9735475 2.9735475 0 0 1 -1.0503675 0.5057325l-3.070305 0.798" stroke-width="0.5"></path><path id="vector_6" stroke="#120071" stroke-linecap="round" stroke-linejoin="round" d="m26.627265 153.74667000000002 -3.0713025000000003 0.798a2.9895075 2.9895075 0 0 1 -2.264325 -0.31521000000000005 2.9925 2.9925 0 0 1 -1.374555 -1.8264225l-0.798 -3.070305" stroke-width="0.5"></path><path id="vector_7" stroke="#120071" stroke-linecap="round" stroke-linejoin="round" d="m22.210335 161.27181 -0.798 -3.070305a2.9855175 2.9855175 0 0 1 1.0912650000000002 -3.134145 2.97255 2.97255 0 0 1 1.0503675 -0.5057325l3.0713025000000003 -0.798" stroke-width="0.5"></path><path id="vector_8" stroke="#120071" stroke-linecap="round" stroke-linejoin="round" d="m14.6861925 156.836925 3.070305 -0.798a2.990505 2.990505 0 0 1 2.264325 0.31620750000000003 2.97654 2.97654 0 0 1 1.374555 1.8264225" stroke-width="0.5"></path><path id="vector_9" stroke="#120071" stroke-linecap="round" stroke-linejoin="round" d="m93.47373 20.5834125 0.7581 2.9565900000000003a2.882775 2.882775 0 0 1 -2.0628300000000004 3.5062125l-2.9565900000000003 0.7581" stroke-width="0.5"></path><path id="vector_10" stroke="#120071" stroke-linecap="round" stroke-linejoin="round" d="m100.69563 24.8287725 -2.9575875 0.7581a2.882775 2.882775 0 0 1 -3.5062125 -2.0658225000000003l-0.7581 -2.9565900000000003" stroke-width="0.5"></path><path id="vector_11" stroke="#120071" stroke-linecap="round" stroke-linejoin="round" d="m96.4492725 32.04967500000001 -0.7581 -2.9565900000000003A2.8817775 2.8817775 0 0 1 97.75500000000001 25.585875l2.9575875 -0.7581" stroke-width="0.5"></path><path id="vector_12" stroke="#120071" stroke-linecap="round" stroke-linejoin="round" d="m89.22837 27.804315 2.9565900000000003 -0.7581a2.8817775 2.8817775 0 0 1 3.5062125 2.064825" stroke-width="0.5"></path></g><g id="character"><path id="vector_13" stroke="#120071" stroke-linecap="round" stroke-linejoin="round" d="M186.03375 121.453605a13.216875 13.216875 0 0 0 1.3875225 -2.1057225c0.2463825 -0.5695725 -0.056857500000000005 -0.8907675 -0.6633375 -0.5306700000000001 -1.596 0.8887725000000001 -5.971035 4.57653 -8.308177500000001 5.875275 1.0862775 0.101745 6.6204075 -2.7371400000000006 7.5839925 -3.2388825Z" stroke-width="0.5"></path><path id="vector_14" stroke="#120071" stroke-linecap="round" stroke-linejoin="round" d="M183.67167 130.62462c-0.6304200000000001 -0.3780525 -1.6568475 -1.2179475000000002 -1.4753025000000002 -1.909215 -2.5466175 1.21296 -4.1765325 2.2264200000000005 -7.1550675 1.8304125 2.012955 0.6274275 6.06081 1.909215 7.872270000000001 2.33415 3.5820225000000003 0.8528625000000001 6.2732775 1.0423875 0.7581 -2.2553475Z" stroke-width="0.5"></path><path id="vector_15" stroke="#120071" stroke-linecap="round" stroke-linejoin="round" d="M187.71054750000002 122.953845a17.914102500000002 17.914102500000002 0 0 0 3.59898 -2.9805300000000003c0.45486000000000004 -0.588525 0.031920000000000004 -1.039395 -0.5685749999999999 -0.815955 -2.9127 1.0872750000000002 -8.42688 4.621417500000001 -12.10167 5.5510875 2.99649 0.2244375 6.042855 -0.70224 9.071265 -1.7546025Z" stroke-width="0.5"></path><path id="vector_16" stroke="#120071" stroke-linecap="round" stroke-linejoin="round" d="M169.30467750000003 65.7103125c1.1072250000000001 -2.4528525 -1.5780450000000001 -2.8169399999999998 -2.3132025 -1.8753a1.3645800000000001 1.3645800000000001 0 0 0 -0.576555 -1.737645 1.3655775 1.3655775 0 0 0 -1.7865225 0.39301500000000006 1.4393925 1.4393925 0 0 0 -2.7341475 -0.835905l-0.720195 1.8194400000000002c-1.09725 -0.399 -1.402485 0.0947625 -2.1416325 1.629915 -1.023435 2.1226800000000003 -1.1371499999999999 2.3311575 -0.32219250000000005 3.600975a7.702695000000001 7.702695000000001 0 0 1 1.197 2.7860175000000003 3.0553425000000005 3.0553425000000005 0 0 1 -0.3501225 1.96707c2.0947500000000003 0 7.046340000000001 1.89525 8.3181525 3.1351425 0.16758 -0.44787750000000004 0.34114500000000003 -0.8927625 0.5226900000000001 -1.3306650000000002 0.399 -0.98553 2.9186850000000004 -5.2308900000000005 3.221925 -8.31915 0.0189525 -0.057855000000000004 0.057855000000000004 -0.133665 0.07581 -0.189525a1.3077225000000001 1.3077225000000001 0 0 0 -2.3910074999999997 -1.043385Z" stroke-width="0.5"></path><path id="vector_17" stroke="#120071" stroke-linecap="round" stroke-linejoin="round" d="M164.9655525 73.60253250000001c0.919695 -4.43688 -1.7905125 -6.5765175000000005 -3.5830200000000003 -7.20993a7.2358649999999995 7.2358649999999995 0 0 0 1.7057250000000002 0.399" stroke-width="0.5"></path><path id="vector_18" stroke="#120071" stroke-linecap="round" stroke-linejoin="round" d="m170.9804775 68.13922500000001 14.0936775 6.7161675" stroke-width="0.5"></path><path id="vector_19" stroke="#120071" stroke-linecap="round" stroke-linejoin="round" d="m133.90041 50.463525000000004 29.731485000000003 14.171482500000002" stroke-width="0.5"></path><path id="vector_20" stroke="#120071" stroke-linecap="round" stroke-linejoin="round" d="M163.827405 74.48532c-2.5585875000000002 -0.947625 -4.77603 -1.29675 -4.965555 -0.8049825l-0.7431375 2.024925c2.798985 -0.1995 7.394467500000001 1.4643300000000001 9.247822500000002 3.449355l0.7630875 -2.0538525c0.17057250000000002 -0.5107200000000001 -1.7466225 -1.66782 -4.3022175 -2.6154450000000002Z" stroke-width="0.5"></path><path id="vector_21" stroke="#120071" stroke-linecap="round" stroke-linejoin="round" d="m159.22095000000002 75.7112475 0.815955 -2.224425" stroke-width="0.5"></path><path id="vector_22" stroke="#120071" stroke-linecap="round" stroke-linejoin="round" d="m160.81296 75.94366500000001 0.7920150000000001 -2.1575925" stroke-width="0.5"></path><path id="vector_23" stroke="#120071" stroke-linecap="round" stroke-linejoin="round" d="m162.347115 76.350645 0.7750575000000001 -2.1147" stroke-width="0.5"></path><path id="vector_24" stroke="#120071" stroke-linecap="round" stroke-linejoin="round" d="m163.8044625 76.88829750000001 0.7740600000000001 -2.1117075" stroke-width="0.5"></path><path id="vector_25" stroke="#120071" stroke-linecap="round" stroke-linejoin="round" d="m165.20794500000002 77.563605 0.7950075000000001 -2.1506100000000004" stroke-width="0.5"></path><path id="vector_26" stroke="#120071" stroke-linecap="round" stroke-linejoin="round" d="m166.55756250000002 78.43143 0.81396 -2.2403850000000003" stroke-width="0.5"></path><g id="group"><path id="vector_27" stroke="#120071" stroke-linecap="round" stroke-linejoin="round" d="M166.991475 63.834015c-0.6374025000000001 1.406475 -1.8084675000000001 4.710195000000001 -3.3346425 3.9231675 -1.4254275 -0.7351575 0.309225 -3.8393775000000003 0.971565 -5.266800000000001" stroke-width="0.5"></path><path id="vector_28" stroke="#120071" stroke-linecap="round" stroke-linejoin="round" d="M165.75756750000002 66.45345c-0.11172000000000001 0.2922675 -0.22942500000000002 0.5985 -0.3481275 0.8877750000000001a1.354605 1.354605 0 0 0 -0.10673250000000001 1.0723125 1.3476225 1.3476225 0 0 0 2.5426275 0.06384000000000001c0.7740600000000001 -1.5780450000000001 1.282785 -2.38203 1.4593425000000002 -2.767065" stroke-width="0.5"></path><path id="vector_29" stroke="#120071" stroke-linecap="round" stroke-linejoin="round" d="M167.6368575 68.81553000000001a1.3216875000000001 1.3216875000000001 0 0 0 1.6139550000000003 1.8653250000000001 1.3147050000000002 1.3147050000000002 0 0 0 0.7551075 -0.70623c0.5256825 -0.9975 1.4613375000000002 -2.7301575000000002 1.6867725000000002 -3.221925" stroke-width="0.5"></path></g><path id="vector_30" stroke="#120071" stroke-linecap="round" stroke-linejoin="round" d="M130.97773500000002 102.572925c6.2643 -1.785525 13.398420000000002 -4.5466050000000005 18.104625 -7.693717500000001 1.8573450000000002 -4.738125 4.965555 -12.830842500000001 6.8039475000000005 -17.8353 0.9097200000000001 -3.56307 13.190940000000001 0.6354075 12.243314999999999 4.1705475000000005 -1.5850275 5.911185000000001 -3.9530925000000003 12.8527875 -6.254325 19.066215000000003a6.8757675 6.8757675 0 0 1 -3.1650675 3.89025 69.8978175 69.8978175 0 0 1 -12.9824625 6.330135" stroke-width="0.5"></path><path id="vector_31" fill="#a8e5f8" d="M64.26693 142.94175a259.96845 259.96845 0 0 0 27.20382 -7.6578075c-1.9062225000000002 -7.662795000000001 -5.3176725000000005 -14.8437975 -1.6688175 -22.759957500000002a2.3590875000000002 2.3590875000000002 0 0 1 4.283265 1.97106c-2.7321525 5.885250000000001 0.016957500000000004 12.111645 1.853355 19.240777500000004a356.6910375 356.6910375 0 0 0 13.0443075 -4.911690000000001c-2.1416325 -2.88078 -4.41693 -10.70916 -3.7905 -18.29016v-0.07581h0.07581a15.443295 15.443295 0 0 0 -10.573500000000001 -3.600975c-2.6224275 0.0947625 -5.4413625 0.048877500000000004 -7.99596 -0.047880000000000006a14.3310825 14.3310825 0 0 0 -5.1191699999999996 7.2308775 52.45653 52.45653 0 0 1 2.7580875000000002 -7.336612500000001c-3.49125 -0.1805475 -6.0368699999999995 -0.41496 -6.0368699999999995 -0.41496 -0.45486000000000004 -1.781535 -1.596 -14.056770000000002 -2.35011 -21.511087500000002 -0.09975 -0.943635 -1.0892700000000002 -1.596 -2.5486125000000004 -2.0059725000000004l0.08478750000000002 1.3426350000000002c0.037905 0.6443850000000001 -2.5585875000000002 1.326675 -5.818417500000001 1.5351525 -3.25983 0.2084775 -5.932132500000001 -0.13266750000000002 -5.971035 -0.7770525l-0.093765 -1.5042300000000002c-1.8174450000000002 0.64239 -3.030405 1.5441300000000002 -2.9386350000000006 2.659335 0.5985 7.2049425000000005 0.4857825 28.417777500000003 6.026895000000001 35.5179825l-1.42044 0.45486000000000004a171.88421250000002 171.88421250000002 0 0 1 -20.8108425 -14.043802500000002c-0.851865 -0.6443850000000001 -2.1945 -0.1995 -3.6727950000000003 0.8738100000000001l1.5880200000000002 1.2488700000000001c0.5117175 0.399 -0.7072275 2.80098 -2.7291600000000003 5.364555 -2.0219325 2.563575 -4.055835 4.32117 -4.5485999999999995 3.92217l-1.5780450000000001 -1.23291c-0.798 1.9022325000000002 -0.97356 3.5082075 -0.05187 4.20945a285.6590625 285.6590625 0 0 0 26.0138025 19.312597500000003 8.776005000000001 8.776005000000001 0 0 0 6.784995 1.286775Z" stroke-width="0.5"></path><path id="vector_32" stroke="#120071" stroke-linecap="round" stroke-linejoin="round" d="M95.925585 133.7517825a355.67159250000003 355.67159250000003 0 0 0 13.052287500000002 -4.927650000000001c-1.5810375 -2.1276675000000003 -3.2328975000000004 -6.951577500000001 -3.7386300000000006 -12.380970000000001" stroke-width="0.5"></path><path id="vector_33" stroke="#120071" stroke-linecap="round" stroke-linejoin="round" d="M84.3486 106.70656500000001c-3.5032200000000002 -0.181545 -6.0558225 -0.4179525 -6.0558225 -0.4179525 -0.45486000000000004 -1.781535 -1.596 -14.056770000000002 -2.35011 -21.511087500000002 -0.09975 -0.943635 -1.0892700000000002 -1.596 -2.5486125000000004 -2.0059725000000004l0.08478750000000002 1.3426350000000002c0.037905 0.6443850000000001 -2.5585875000000002 1.326675 -5.818417500000001 1.5351525 -3.25983 0.2084775 -5.932132500000001 -0.13266750000000002 -5.971035 -0.7770525l-0.093765 -1.5042300000000002c-1.8174450000000002 0.64239 -3.030405 1.5441300000000002 -2.9386350000000006 2.659335 0.5985 7.2049425000000005 0.4857825 28.417777500000003 6.026895000000001 35.5179825l-1.42044 0.45486000000000004a171.89219250000002 171.89219250000002 0 0 1 -20.8108425 -14.043802500000002c-0.851865 -0.6443850000000001 -2.1945 -0.1995 -3.6727950000000003 0.8738100000000001l1.5880200000000002 1.2488700000000001c0.5117175 0.399 -0.7072275 2.80098 -2.7291600000000003 5.364555 -2.0219325 2.563575 -4.055835 4.32117 -4.5485999999999995 3.92217l-1.5780450000000001 -1.23291c-0.798 1.9022325000000002 -0.97356 3.5082075 -0.05187 4.20945a285.75881250000003 285.75881250000003 0 0 0 26.0217825 19.312597500000003 8.7730125 8.7730125 0 0 0 6.783 1.2887700000000002 260.33952000000005 260.33952000000005 0 0 0 27.1968375 -7.646835000000001" stroke-width="0.5"></path><path id="vector_34" fill="#6153bd" d="M169.9111575 28.04172c-14.290185000000001 6.384 -1.09725 25.87116 -15.370477500000002 32.259150000000005l-17.607870000000002 -8.396955c14.291182500000001 -6.384 1.09725 -25.87116 15.371475 -32.2581525l17.6068725 8.3959575Z" stroke-width="0.5"></path><path id="vector_35" stroke="#120071" stroke-linecap="round" stroke-linejoin="round" d="M169.9111575 28.04172c-14.290185000000001 6.384 -1.09725 25.87116 -15.370477500000002 32.259150000000005l-17.607870000000002 -8.396955c14.291182500000001 -6.384 1.09725 -25.87116 15.371475 -32.2581525l17.6068725 8.3959575Z" stroke-width="0.5"></path><path id="vector_36" stroke="#120071" stroke-linecap="round" stroke-linejoin="round" d="m175.550025 122.323425 -2.0797875 -0.6683250000000001c0.33416250000000003 2.793 -1.1241825 7.458307500000001 -3.0234225 9.408420000000001l2.0797875 0.6603450000000001c0.28428749999999997 0.07581 0.7391475000000001 -0.492765 1.23291 -1.4593425000000002a22.946490000000004 22.946490000000004 0 0 0 1.9521075 -6.178515c0.14763 -1.0054800000000002 0.08478750000000002 -1.66782 -0.16159500000000002 -1.7625825Z" stroke-width="0.5"></path><path id="vector_37" stroke="#120071" stroke-linecap="round" stroke-linejoin="round" d="m173.51412750000003 122.7892575 2.264325 0.7052325" stroke-width="0.5"></path><path id="vector_38" stroke="#120071" stroke-linecap="round" stroke-linejoin="round" d="m173.351535 124.3832625 2.1785400000000004 0.6972524999999999" stroke-width="0.5"></path><path id="vector_39" stroke="#120071" stroke-linecap="round" stroke-linejoin="round" d="m173.01438000000002 125.930385 2.136645 0.6653325000000001" stroke-width="0.5"></path><path id="vector_40" stroke="#120071" stroke-linecap="round" stroke-linejoin="round" d="m172.54455750000002 127.4056875 2.1376425 0.6832875" stroke-width="0.5"></path><path id="vector_41" stroke="#120071" stroke-linecap="round" stroke-linejoin="round" d="m171.927105 128.85006750000002 2.1795375000000003 0.70224" stroke-width="0.5"></path><path id="vector_42" stroke="#120071" stroke-linecap="round" stroke-linejoin="round" d="m171.1301025 130.22163 2.2503599999999997 0.7191975" stroke-width="0.5"></path><path id="vector_43" stroke="#120071" stroke-linecap="round" stroke-linejoin="round" d="m78.29277750000001 106.26966 -2.42592 -0.26533500000000004" stroke-width="0.5"></path><path id="vector_44" stroke="#120071" stroke-linecap="round" stroke-linejoin="round" d="M81.20448 115.5154875c-5.74959 2.5047225 -14.088690000000001 5.2239075 -16.500645000000002 6.0119325" stroke-width="0.5"></path><path id="vector_45" stroke="#120071" stroke-linecap="round" stroke-linejoin="round" d="M105.23625000000001 116.4431625c0.5117175 5.43837 2.16657 10.264275 3.7575825000000003 12.3999225a105.924525 105.924525 0 0 1 3.33564 -0.7770525c7.968030000000001 -0.740145 13.4612625 -1.9441275000000002 22.44375 -6.728137500000001a212.19518250000002 212.19518250000002 0 0 0 33.641685 10.594447500000001c3.5720475 0.7860300000000001 7.221900000000001 -11.67075 3.6199275 -12.451792500000002 -12.675232500000002 -4.035885 -26.6382375 -8.67825 -38.73990750000001 -14.0448 -1.7446275000000002 -0.7740600000000001 -4.975530000000001 -1.9740525000000002 -6.860805 -1.7057250000000002 -0.8548575 0.121695 -2.4368925000000004 1.1162025 -4.6313925000000005 2.3072175" stroke-width="0.5"></path><path id="vector_46" stroke="#120071" stroke-linecap="round" stroke-linejoin="round" d="m60.969195000000006 122.77828500000001 2.29425 -0.77805" stroke-width="0.5"></path><path id="vector_47" stroke="#120071" stroke-linecap="round" stroke-linejoin="round" d="M73.2514125 80.512215c0 0.62643 -2.5935 1.3097175 -5.818417500000001 1.5171975 -3.25983 0.209475 -5.933130000000001 -0.13266750000000002 -5.971035 -0.7770525l-0.60648 -9.306675c-6.254325 -2.1795375000000003 -11.934090000000001 -8.279250000000001 -11.0114025 -13.228845000000002a3.7555875000000003 3.7555875000000003 0 0 1 5.6667975 -2.42592l16.830817500000002 10.367017500000001 0.9097200000000001 13.855275Z" stroke-width="0.5"></path><path id="vector_48" stroke="#120071" stroke-linecap="round" stroke-linejoin="round" d="M73.4788425 84.11418750000001c0.037905 0.6443850000000001 -2.5585875000000002 1.326675 -5.818417500000001 1.5361500000000001 -3.25983 0.20748 -5.933130000000001 -0.133665 -5.971035 -0.77805l-0.22743000000000002 -3.6199275c0.037905 0.6443850000000001 2.711205 0.9875250000000001 5.971035 0.77805 3.221925 -0.2084775 5.818417500000001 -0.891765 5.818417500000001 -1.5181950000000002l0.22743000000000002 3.6019725000000005Z" stroke-width="0.5"></path><path id="vector_49" stroke="#120071" stroke-linecap="round" stroke-linejoin="round" d="m72.20902500000001 81.23041500000001 0.22743000000000002 3.62292" stroke-width="0.5"></path><path id="vector_50" stroke="#120071" stroke-linecap="round" stroke-linejoin="round" d="m70.3327275 81.6902625 0.2463825 3.6179324999999998" stroke-width="0.5"></path><path id="vector_51" stroke="#120071" stroke-linecap="round" stroke-linejoin="round" d="m68.47538250000001 81.94462500000002 0.22743000000000002 3.6109500000000003" stroke-width="0.5"></path><path id="vector_52" stroke="#120071" stroke-linecap="round" stroke-linejoin="round" d="m66.6180375 82.0673175 0.22743000000000002 3.6199275" stroke-width="0.5"></path><path id="vector_53" stroke="#120071" stroke-linecap="round" stroke-linejoin="round" d="m64.74174 82.076295 0.22743000000000002 3.6109500000000003" stroke-width="0.5"></path><path id="vector_54" stroke="#120071" stroke-linecap="round" stroke-linejoin="round" d="m62.86544250000001 81.90572250000001 0.2463825 3.6309000000000005" stroke-width="0.5"></path><path id="vector_55" stroke="#120071" stroke-linecap="round" stroke-linejoin="round" d="M37.6386675 115.4436675c-2.0149500000000002 2.5536000000000003 -4.055835 4.320172500000001 -4.5485999999999995 3.92217l-2.8658175000000004 -2.236395c0.492765 0.399 2.539635 -1.3645800000000001 4.5485999999999995 -3.9231675 2.008965 -2.5585875000000002 3.221925 -4.9466025 2.7481125 -5.3635575l2.8428750000000003 2.236395c0.5157075000000001 0.39800250000000004 -0.7032375 2.80098 -2.7251700000000003 5.364555Z" stroke-width="0.5"></path><path id="vector_56" stroke="#120071" stroke-linecap="round" stroke-linejoin="round" d="M30.22425 117.12944250000001c0.492765 0.399 2.539635 -1.3645800000000001 4.5485999999999995 -3.9231675 2.008965 -2.5585875000000002 3.221925 -4.9466025 2.7481125 -5.3635575l-10.859782500000001 -8.528625000000002 -18.9525 5.6288925a3.7525950000000003 3.7525950000000003 0 0 0 -2.5137 2.4029775 3.7456125 3.7456125 0 0 0 0.5426400000000001 3.4343925000000004c3.074295 3.9969825 11.3904525 3.8284050000000005 17.1899175 0.60648l7.296712500000001 5.7426075Z" stroke-width="0.5"></path><path id="vector_57" stroke="#120071" stroke-linecap="round" stroke-linejoin="round" d="m37.373332500000004 109.11253500000001 2.8618275000000004 2.236395" stroke-width="0.5"></path><path id="vector_58" stroke="#120071" stroke-linecap="round" stroke-linejoin="round" d="m36.482565 110.7993075 2.8618275000000004 2.2553475" stroke-width="0.5"></path><path id="vector_59" stroke="#120071" stroke-linecap="round" stroke-linejoin="round" d="m35.421225 112.372365 2.8618275000000004 2.236395" stroke-width="0.5"></path><path id="vector_60" stroke="#120071" stroke-linecap="round" stroke-linejoin="round" d="m34.284075 113.83170750000001 2.8618275000000004 2.2553475" stroke-width="0.5"></path><path id="vector_61" stroke="#120071" stroke-linecap="round" stroke-linejoin="round" d="m33.033210000000004 115.2341925 2.8618275000000004 2.236395" stroke-width="0.5"></path><path id="vector_62" stroke="#120071" stroke-linecap="round" stroke-linejoin="round" d="m31.668630000000004 116.5229625 2.8618275000000004 2.2373925" stroke-width="0.5"></path><path id="vector_63" stroke="#120071" stroke-linecap="round" stroke-linejoin="round" d="M192.29505749999998 122.59275000000001c-3.4014750000000005 3.1012275000000002 -8.544585000000001 5.3715375 -12.43284 7.239855a8.4498225 8.4498225 0 0 1 -5.7246525 0.5496225000000001c-0.13266750000000002 -0.034912500000000006 -0.26533500000000004 -0.07581 -0.37905 -0.0947625a23.019307500000004 23.019307500000004 0 0 0 1.953105 -6.178515c5.08725 1.8174450000000002 10.292205000000001 -0.5985 15.86025 -2.4827775 0.8778 -0.3002475 1.3446300000000002 0.39301500000000006 0.7231875 0.9665775Z" stroke-width="0.5"></path><path id="vector_64" stroke="#120071" stroke-linecap="round" stroke-linejoin="round" d="M108.541965 115.4616225a30.937462500000002 30.937462500000002 0 0 0 3.7715475000000005 12.60441" stroke-width="0.5"></path><path id="vector_65" stroke="#120071" stroke-linecap="round" stroke-linejoin="round" d="m121.99425000000001 105.64422750000001 -2.4069675 6.29223 -2.1226800000000003 -8.56653a5.2039575 5.2039575 0 0 0 -6.2353725 -3.8284050000000005c-6.34809 1.4633325000000001 -13.7764725 3.4004775 -19.65075 4.927650000000001a14.222355 14.222355 0 0 0 -10.006920000000001 9.571012500000002 49.629615 49.629615 0 0 1 3.8473575 -9.495202500000001 13.8143775 13.8143775 0 0 1 8.5455825 -6.3490875c5.87328 -1.526175 13.3076475 -3.45933 19.65075 -4.927650000000001a5.22291 5.22291 0 0 1 6.2353725 3.8284050000000005l2.1436275 8.547577500000001Z" stroke-width="0.5"></path><path id="vector_66" fill="#6153bd" d="M88.220895 121.10946750000001a17.624827500000002 17.624827500000002 0 0 1 1.5760500000000002 -8.5854825 2.3590875000000002 2.3590875000000002 0 0 1 4.283265 1.97106 12.67623 12.67623 0 0 0 -1.147125 5.386500000000001c9.3765 -2.4937500000000004 18.65325 -5.2328850000000005 26.658187500000004 -7.922145l-2.1226800000000003 -8.56653a5.2259025 5.2259025 0 0 0 -6.2353725 -3.8284050000000005c-6.3470925000000005 1.46832 -13.7804625 3.40746 -19.65075 4.927650000000001a14.240310000000001 14.240310000000001 0 0 0 -10.6134 12.850792499999999c-0.0019950000000000002 1.8274200000000003 0.21945 3.6478575 0.6633375 5.420415a684.713925 684.713925 0 0 0 6.588487500000001 -1.653855Z" stroke-width="0.5"></path><path id="vector_67" stroke="#120071" stroke-linecap="round" stroke-linejoin="round" d="M88.220895 121.10946750000001a563.2832625000001 563.2832625000001 0 0 1 -6.5924775 1.649865 22.230285000000002 22.230285000000002 0 0 1 -0.6633375 -5.420415 14.242305000000002 14.242305000000002 0 0 1 10.6134 -12.850792499999999c5.874277500000001 -1.5201900000000002 13.3076475 -3.45933 19.65075 -4.927650000000001a5.2239075 5.2239075 0 0 1 6.2353725 3.8284050000000005l2.1226800000000003 8.56653c-7.997955000000001 2.6932500000000004 -17.279692500000003 5.425402500000001 -26.658187500000004 7.922145" stroke-width="0.5"></path><path id="vector_68" stroke="#120071" stroke-linecap="round" stroke-linejoin="round" d="m115.53543750000001 100.470195 2.1226800000000003 -6.500707500000001" stroke-width="0.5"></path><path id="vector_69" stroke="#120071" stroke-linecap="round" stroke-linejoin="round" d="M53.7103875 170.1984375c9.524130000000001 -9.47625 28.6950825 -3.3855150000000003 36.0297 -16.65825 8.732115 -15.803392500000001 -6.350085 -27.2866125 0.037905 -41.03316a2.34612 2.34612 0 0 1 1.32468 -1.2259275 2.3690625 2.3690625 0 0 1 1.8024825 0.06982500000000001 2.3590875000000002 2.3590875000000002 0 0 1 1.1561025 3.1271625c-5.1281475 11.329605 9.507172500000001 23.7654375 -0.2084775 41.3364 -8.5785 15.50913 -28.969395000000002 9.8942025 -36.825705 17.7026325" stroke-width="0.5"></path><path id="vector_70" stroke="#120071" stroke-linecap="round" stroke-linejoin="round" d="M88.90617750000001 125.69697000000001c-0.28428749999999997 -2.3690625 4.4159325 -2.9186850000000004 4.70022 -0.5496225000000001" stroke-width="0.5"></path><path id="vector_71" stroke="#120071" stroke-linecap="round" stroke-linejoin="round" d="M92.46825000000001 140.896875c-0.13266750000000002 -1.9521075 4.5885 -2.2742999999999998 4.7191725 -0.32219250000000005" stroke-width="0.5"></path><path id="vector_72" stroke="#120071" stroke-linecap="round" stroke-linejoin="round" d="M93.0378225 157.21597500000001c1.1371499999999999 -1.83939 -2.88078 -4.322167500000001 -4.01793 -2.4648225000000004" stroke-width="0.5"></path><path id="vector_73" stroke="#120071" stroke-linecap="round" stroke-linejoin="round" d="M79.031925 166.6353675c2.0658225000000003 -0.6254325000000001 0.6633375 -5.136127500000001 -1.3835325 -4.4887500000000005" stroke-width="0.5"></path><path id="vector_74" stroke="#120071" stroke-linecap="round" stroke-linejoin="round" d="M63.718305 169.97400000000002c2.160585 -0.7581 0.5875275 -5.2119375 -1.5740550000000002 -4.434885" stroke-width="0.5"></path><path id="vector_75" fill="#6153bd" d="M127.38075 124.7682975c2.5316549999999998 -0.9975 5.0004675 -2.1496125 7.391475000000001 -3.449355 -1.1561025 -0.4738125 -2.312205 -0.947625 -3.4683075 -1.44039a8.1665325 8.1665325 0 0 1 -3.9231675 4.8897450000000005Z" stroke-width="0.5"></path><path id="vector_76" stroke="#120071" stroke-linecap="round" stroke-linejoin="round" d="M127.38075 124.7682975c2.5316549999999998 -0.9975 5.0004675 -2.1496125 7.391475000000001 -3.449355 -1.1561025 -0.4738125 -2.312205 -0.947625 -3.4683075 -1.44039a8.1665325 8.1665325 0 0 1 -3.9231675 4.8897450000000005Z" stroke-width="0.5"></path><path id="vector_77" stroke="#120071" stroke-linecap="round" stroke-linejoin="round" d="M130.830105 100.90610250000002c0.17057250000000002 1.1860275 0.19650750000000003 2.3890125 0.07581 3.5820225000000003a10.7500575 10.7500575 0 0 0 -4.4887500000000005 -0.7770525 4.0747875 4.0747875 0 0 0 -0.5117175 0.11371500000000001c0.9097200000000001 -0.4738125 0.9815400000000001 -2.064825 0.4738125 -3.49125a5.392485 5.392485 0 0 0 -1.1561025 -2.1945c-3.5750400000000004 -1.0194450000000002 -2.667315 -4.330147500000001 -0.69825 -3.2408775000000003 0.9506175 0.52668 1.197 0.3600975 1.175055 -0.17057250000000002v-0.037905c-0.6254325000000001 -3.0134475000000003 1.3516125 -8.8049325 5.970037500000001 -1.97106 0.0369075 0.053865 0.36907500000000004 0.5476275 0.399 0.60648 4.162567500000001 6.405945 0.77007 7.467285 -1.238895 7.581Z" stroke-width="0.5"></path><path id="vector_78" fill="#6153bd" d="m130.9627725 102.2706825 -1.402485 -1.3456275c0.42294000000000004 0.0229425 0.8468775000000001 0.0229425 1.2698175 0 0.06982500000000001 0.4458825 0.11371500000000001 0.8947575000000001 0.13266750000000002 1.3456275Z" stroke-width="0.5"></path><path id="vector_79" stroke="#120071" stroke-linecap="round" stroke-linejoin="round" d="m130.9627725 102.2706825 -1.402485 -1.3456275c0.42294000000000004 0.0229425 0.8468775000000001 0.0229425 1.2698175 0 0.06982500000000001 0.4458825 0.11371500000000001 0.8947575000000001 0.13266750000000002 1.3456275Z" stroke-width="0.5"></path><path id="vector_80" fill="#a8e5f8" d="M132.08097 93.32610000000001a17.156002500000003 17.156002500000003 0 0 0 -0.399 -0.6074775c-4.614435 -6.8179125 -6.595470000000001 -1.023435 -5.970037500000001 1.97106 0 0.33615750000000005 0.044887500000000004 0.883785 -1.175055 0.209475 -1.9660725000000001 -1.0902675 -2.878785 2.172555 0.69825 3.2398800000000003a5.931135 5.931135 0 0 1 1.1561025 2.1945c0.12369000000000001 0.3441375 0.2124675 0.6992475 0.26533500000000004 1.0613400000000002 -0.8907675 -2.3311575 -6.0648 0.6633375 -6.0648 0.6633375 -5.136127500000001 2.42592 -10.1745 -3.9989775000000005 -4.4159325 -7.7505749999999995 -7.562047500000001 -3.6398775000000003 -2.4827775 -15.1450425 5.875275 -11.08821 1.8383925 -5.985 11.087212500000001 -3.7346400000000006 9.3765 2.8428750000000003 4.766055 -0.4319175 5.4293925 6.804945 0.6533625000000001 7.2627975000000005Z" stroke-width="0.5"></path><path id="vector_81" stroke="#120071" stroke-linecap="round" stroke-linejoin="round" d="M132.08097 93.32610000000001a17.156002500000003 17.156002500000003 0 0 0 -0.399 -0.6074775c-4.614435 -6.8179125 -6.595470000000001 -1.023435 -5.970037500000001 1.97106 0 0.33615750000000005 0.044887500000000004 0.883785 -1.175055 0.209475 -1.9660725000000001 -1.0902675 -2.878785 2.172555 0.69825 3.2398800000000003a5.931135 5.931135 0 0 1 1.1561025 2.1945c0.12369000000000001 0.3441375 0.2124675 0.6992475 0.26533500000000004 1.0613400000000002 -0.8907675 -2.3311575 -6.0648 0.6633375 -6.0648 0.6633375 -5.136127500000001 2.42592 -10.1745 -3.9989775000000005 -4.4159325 -7.7505749999999995 -7.562047500000001 -3.6398775000000003 -2.4827775 -15.1450425 5.875275 -11.08821 1.8383925 -5.985 11.087212500000001 -3.7346400000000006 9.3765 2.8428750000000003 4.766055 -0.4319175 5.4293925 6.804945 0.6533625000000001 7.2627975000000005Z" stroke-width="0.5"></path><path id="vector_82" stroke="#120071" stroke-linecap="round" stroke-linejoin="round" d="M138.50686500000003 92.2258575a14.029837500000001 14.029837500000001 0 0 1 -7.354567500000001 12.35703 1.06932 1.06932 0 0 0 -0.22743000000000002 -0.07581 10.096695 10.096695 0 0 0 -4.794982500000001 -0.720195 29.234730000000003 29.234730000000003 0 0 0 -4.3022175 2.2553475 14.0537775 14.0537775 0 1 1 16.6791975 -13.815375Z" stroke-width="0.5"></path></g></g></svg>