<svg xmlns="http://www.w3.org/2000/svg" fill="none" viewBox="-0.25 -0.25 200 200" id="Being-At-Peace-01--Streamline-Bangalore.svg"><desc>Being At Peace 01 Streamline Illustration: https://streamlinehq.com</desc><g id="being-at-peace-01--health-wellness-being-at-peace-cat"><g id="color2"><path id="vector" fill="#a8e5f8" d="M177.545025 166.440855c-1.2199425000000002 -0.46383750000000007 -3.2049675000000004 -1.3157025 -3.676785 -2.5426275 -0.5655825 -1.4693175000000003 0.5875275 -3.0922500000000004 2.1715575 -4.0029675000000005 2.5326525 -1.46034 4.6313925000000005 -0.1995 5.2618125000000004 -2.9506050000000004 0.039900000000000005 -0.6294225 0.23341500000000004 -1.238895 0.5625899999999999 -1.7765475 0.32917500000000005 -0.5386500000000001 0.7850325 -0.9875250000000001 1.326675 -1.3097175 0.57855 -0.381045 1.20897 -0.676305 1.8723075 -0.8768025 -0.9077250000000001 -2.332155 -2.308215 -4.441867500000001 -4.104712500000001 -6.184500000000001 -3.3087075 0.7850325 -4.499722500000001 4.940617500000001 -8.146582500000001 5.677770000000001 -1.1760525000000002 0.2124675 -2.3870175 0.09576000000000001 -3.5002275000000003 -0.33715500000000004 -1.1142075 -0.4319175 -2.0857725000000005 -1.1640825000000001 -2.8099575000000003 -2.1147 -1.74363 -2.3251725 -1.1421375 -6.3161700000000005 -7.5660375 -5.0403675 -2.31021 1.5999900000000002 -4.1974800000000005 3.736635 -5.500215000000001 6.226395 -1.3037325 2.48976 -1.98303 5.258820000000001 -1.981035 8.068777500000001l0 0.3142125c2.46582 -0.32618250000000004 1.995 -0.58254 6.539610000000001 -1.0453800000000002 2.663325 -0.27132000000000006 5.6857500000000005 -0.23142000000000001 7.7156625000000005 1.7955 1.8553500000000003 1.8473700000000002 -0.27930000000000005 4.4638124999999995 -1.3456275 8.088727500000001 -0.5077275 1.2768000000000002 -0.5526150000000001 2.691255 -0.12768000000000002 3.99798 0.3062325 1.2259275 0.08778 2.1186900000000004 -1.9152 2.9815275 3.796485 1.5321600000000002 8.01192 1.6767975000000002 11.904165 0.4099725 3.8932425000000004 -1.266825 7.2149175 -3.8653125000000004 9.382485 -7.3386075 -1.72767 -1.2468750000000002 -4.048852500000001 -1.2748050000000002 -6.062805000000001 -2.040885Z" stroke-width="0.5"></path><path id="vector_2" fill="#a8e5f8" d="M105.51654750000002 109.18635c-2.8598325 -3.3825225000000003 -17.218845 -23.30150025 -17.218845 -23.30150025l-3.3486075000000004 13.751535 -20.570445 9.552957750000001 -17.022337500000003 -0.7730625000000001s12.145560000000001 28.192342500000002 14.697165 32.30703c1.9481175000000002 3.1481100000000004 4.52466 5.8613100000000005 7.56853125 7.9690275 3.0439710000000004 2.10672 6.48983475 3.5640675 10.122330750000001 4.279275 3.632496 0.716205 7.373520000000001 0.6743100000000001 10.989258000000001 -0.121695 3.6157380000000003 -0.7950075000000001 7.0285845 -2.3281650000000003 10.024875000000002 -4.502715 2.99649 -2.1735525 5.5131825 -4.9426125 7.3904775 -8.133615 1.8782925000000001 -3.1910025 3.078285 -6.734122500000001 3.5241675 -10.40991 0.44688000000000005 -3.6747900000000002 0.13067250000000002 -7.402447500000001 -0.9286725000000001 -10.950555 -1.0593450000000002 -3.5471100000000004 -2.8388850000000003 -6.837862500000001 -5.2278975 -9.6667725Z" stroke-width="0.5"></path><path id="vector_3" fill="#a8e5f8" d="m162.76806 50.939332500000006 -13.073235 3.73892925 4.2423675 14.8326255 13.072237500000002 -3.73892925 -4.24137 -14.8326255Z" stroke-width="0.5"></path><path id="vector_4" fill="#a8e5f8" d="M45.3752775 154.766115c-2.6152455 -2.3231775000000003 -5.80554975 -3.9032175000000002 -9.238845000000001 -4.5755325l-6.5226525 11.864265000000001c1.4034825000000002 1.4643300000000001 3.0171382500000004 2.7122025 4.788 3.7017225000000002 8.46279 4.6533375 19.0352925 1.67181 19.0352925 1.67181 -1.5989925 -4.821915 -4.36895025 -9.17301 -8.061795000000002 -12.662265000000001Z" stroke-width="0.5"></path></g><g id="color1"><path id="vector_5" fill="#6153bd" d="M108.74944500000001 139.1362875c-9.43236 -0.399 -13.18296 -2.6423775000000003 -17.641785000000002 -1.3625850000000002 -6.4069425 1.8383925 -8.956552499999999 10.3470675 -5.43837 15.6856875 4.77174075 -0.12568500000000002 9.424180500000002 -1.5181950000000002 13.4800155 -4.035885 4.056034500000001 -2.5166925000000004 7.3687320000000005 -6.066795 9.600139500000001 -10.2872175Z" stroke-width="0.5"></path><path id="vector_6" fill="#6153bd" d="M83.827905 124.3772775c3.192 3.166065 7.0293825 1.3206900000000001 6.550582500000001 -3.150105l-6.550582500000001 3.150105Z" stroke-width="0.5"></path><path id="vector_7" fill="#6153bd" d="m167.0263875 65.82622200000002 -13.073235 3.73892925 0.3461325 1.209369 13.072237500000002 -3.73892925 -0.34513499999999997 -1.209369Z" stroke-width="0.5"></path><path id="vector_8" fill="#6153bd" d="M34.4047725 165.75657c-1.1867257500000001 -0.656355 -2.3017312500000005 -1.4354025000000001 -3.3266625000000003 -2.3231775000000003l2.2772925 4.601467500000001c0.21087150000000002 0.42693000000000003 0.5615924999999999 0.77007 0.993909 0.9705675 0.43231650000000005 0.20049750000000002 0.92019375 0.2463825 1.3826347500000002 0.13167 0.46244100000000005 -0.11571000000000001 0.87151575 -0.385035 1.15939425 -0.7650825000000001 0.28787850000000004 -0.37905 0.43720425000000007 -0.8458800000000001 0.42313950000000006 -1.322685 -1.0040835 -0.349125 -1.97734425 -0.7820400000000001 -2.9097075 -1.2927600000000001Z" stroke-width="0.5"></path><path id="vector_9" fill="#6153bd" d="M45.3752775 154.766115c0.4139625 -0.2264325 0.7387485 -0.5875275 0.92119125 -1.023435 0.18244275000000001 -0.43491 0.21176925 -0.919695 0.08329125000000001 -1.3735575 -0.12857775 -0.45386250000000006 -0.40747875 -0.851865 -0.7910175 -1.127175 -0.3836385 -0.2743125 -0.84917175 -0.4119675 -1.3206900000000001 -0.3880275l-4.953585 0.25835250000000004c2.2349985 0.819945 4.29234225 2.0598375 6.06081 3.6538425Z" stroke-width="0.5"></path><path id="vector_10" fill="#6153bd" d="m60.597127500000006 172.3251075 -0.6533625000000001 -1.3206900000000001 1.4653275000000001 -0.15561c0.6812925000000001 -0.0827925 1.3025355 -0.43092 1.72956525 -0.9685725000000001 0.42712950000000005 -0.5366550000000001 0.6258315 -1.2209400000000001 0.55331325 -1.90323 -0.07251825 -0.6822900000000001 -0.410571 -1.30872 -0.9410415000000001 -1.7446275000000002 -0.5304705000000001 -0.43491 -1.210965 -0.6443850000000001 -1.894452 -0.58254l-7.4164125 1.7785425 2.4718050000000003 7.215915000000001c0.30752925000000003 0.6214425 0.8494710000000001 1.0962525 1.50652425 1.3176975 0.65705325 0.22244250000000002 1.37545275 0.1745625 1.9971945000000002 -0.133665 0.62174175 -0.30723 1.09575375 -0.8488725 1.317897 -1.5062250000000001 0.22214325000000001 -0.6573525000000001 0.17416350000000003 -1.3755525000000002 -0.13336575000000003 -1.9969949999999999h-0.0029925000000000004Z" stroke-width="0.5"></path></g><g id="line"><path id="vector_11" stroke="#120071" stroke-linecap="round" stroke-linejoin="round" d="M79.5855375 152.94069000000002c10.408314 5.775525 22.4267925 7.968030000000001 34.204275 6.238365 11.776485 -1.7286675000000002 22.6582125 -7.2827475 30.967387500000005 -15.805387500000002 8.309175 -8.5236375 13.5849525 -19.54302 15.01437 -31.360402500000003 1.42842 -11.816385 -1.0683225 -23.776011 -7.10619 -34.03400175 -6.038865 -10.2580905 -15.282697500000001 -18.2456715 -26.308065 -22.731828 -11.026365 -4.4861565 -23.2208025 -5.22181275 -34.705818 -2.0935530000000004 -11.484816 3.1281600000000003 -21.622209 9.946571250000002 -28.84979475 19.4043675 -7.22758575 9.457896000000002 -11.144169750000001 21.030093 -11.14616475 32.93336025000001 0 1.0483725 0.029226750000000003 2.0897625000000004 0.08778 3.1241700000000003" stroke-width="0.5"></path><path id="vector_12" stroke="#120071" stroke-linecap="round" stroke-linejoin="round" d="M105.51654750000002 109.18635c-2.8598325 -3.3825225000000003 -17.218845 -23.3016 -17.218845 -23.3016l-3.3486075000000004 13.751535 -20.570445 9.553057500000001 -17.022337500000003 -0.7730625000000001s12.145560000000001 28.192342500000002 14.697165 32.30703c1.9481175000000002 3.1481100000000004 4.52466 5.8613100000000005 7.56853125 7.968030000000001 3.0439710000000004 2.1077175 6.48983475 3.565065 10.122330750000001 4.280272500000001 3.632496 0.7152075 7.373520000000001 0.6743100000000001 10.989258000000001 -0.121695 3.6157380000000003 -0.7950075000000001 7.0285845 -2.3281650000000003 10.024875000000002 -4.502715 2.99649 -2.1745500000000004 5.5131825 -4.9436100000000005 7.3904775 -8.133615 1.8782925000000001 -3.1910025 3.078285 -6.734122500000001 3.5241675 -10.40991 0.44688000000000005 -3.6747900000000002 0.13067250000000002 -7.402447500000001 -0.9286725000000001 -10.950555 -1.0593450000000002 -3.5471100000000004 -2.8388850000000003 -6.837862500000001 -5.2278975 -9.6667725v0Z" stroke-width="0.5"></path><path id="vector_13" stroke="#120071" stroke-linecap="round" stroke-linejoin="round" d="M94.21986000000001 63.50883h5.15109" stroke-width="0.5"></path><path id="vector_14" stroke="#120071" stroke-linecap="round" stroke-linejoin="round" d="M105.1754025 58.7318025h5.42241" stroke-width="0.5"></path><path id="vector_15" stroke="#120071" stroke-linecap="round" stroke-linejoin="round" d="M109.40580000000001 62.70993225h5.1500925" stroke-width="0.5"></path><path id="vector_16" stroke="#120071" stroke-linecap="round" stroke-linejoin="round" d="M123.5972325 60.8076h5.594977500000001" stroke-width="0.5"></path><path id="vector_17" stroke="#120071" stroke-linecap="round" stroke-linejoin="round" d="M67.79508750000001 126.61766250000001c0.47929875 0.955605 1.2146557500000001 1.7585925 2.1240765 2.3191875000000004 0.90942075 0.5615924999999999 1.9568955000000001 0.8588475 3.0255172500000005 0.8588475 1.06862175 0 2.1160965000000003 -0.297255 3.0255172500000005 -0.8588475 0.90942075 -0.5605950000000001 1.64477775 -1.3635825000000001 2.1240765 -2.3191875000000004" stroke-width="0.5"></path><path id="vector_18" stroke="#120071" stroke-linecap="round" stroke-linejoin="round" d="M94.70065500000001 115.99728c0.47929875 0.9546075 1.2146557500000001 1.757595 2.1240765 2.3191875000000004 0.90942075 0.5615924999999999 1.9568955000000001 0.85785 3.026016 0.85785 1.0683225 0 2.1156975 -0.2962575 3.0254175 -0.85785 0.9087225000000001 -0.5615924999999999 1.6448775000000002 -1.3645800000000001 2.1236775000000003 -2.3191875000000004" stroke-width="0.5"></path><path id="vector_19" stroke="#120071" stroke-linecap="round" stroke-linejoin="round" d="M83.827905 124.3772775c3.192 3.166065 7.0293825 1.3206900000000001 6.550582500000001 -3.150105l-6.550582500000001 3.150105Z" stroke-width="0.5"></path><path id="vector_20" stroke="#120071" stroke-linecap="round" stroke-linejoin="round" d="M86.4702825 128.17875c0.454461 0.43690500000000004 1.031814 0.7251825000000001 1.6544535000000002 0.8249325 0.62273925 0.09975 1.2610395 0.006982500000000001 1.8293152500000003 -0.2663325 0.5683755 -0.27331500000000003 1.03949475 -0.71421 1.3504155 -1.2628350000000002 0.310821 -0.548625 0.446481 -1.179045 0.38872575000000004 -1.8074700000000001" stroke-width="0.5"></path><path id="vector_21" stroke="#120071" stroke-linecap="round" stroke-linejoin="round" d="m89.9016825 128.7024375 -1.366575 -2.8428750000000003" stroke-width="0.5"></path><path id="vector_22" stroke="#120071" stroke-linecap="round" stroke-linejoin="round" d="M107.19135 108.14396250000001c2.3840250000000003 -3.2767875 4.662315 -6.62739 6.8338725 -10.0518075" stroke-width="0.5"></path><path id="vector_23" stroke="#120071" stroke-linecap="round" stroke-linejoin="round" d="m108.78535500000001 109.7439525 11.4183825 -6.7141725" stroke-width="0.5"></path><path id="vector_24" stroke="#120071" stroke-linecap="round" stroke-linejoin="round" d="M110.469135 111.49656c2.4708075 -0.4099725 4.937625000000001 -0.8428875 7.399455000000001 -1.29675" stroke-width="0.5"></path><path id="vector_25" stroke="#120071" stroke-linecap="round" stroke-linejoin="round" d="M92.02137 157.94415c-5.35059 -1.8024825 -8.366032500000001 -5.5510875 -7.880250000000001 -11.243820000000001 0.159999 -2.0059725000000004 0.9051315 -3.9211725000000004 2.1428295000000004 -5.508195000000001 1.23779775 -1.5860250000000002 2.913897 -2.775045 4.820718 -3.4184325 3.0922500000000004 -0.8867775000000001 6.3431025000000005 -0.023940000000000003 9.504180000000002 0.49875 15.1191075 2.4807825 24.929520000000004 0.4079775 34.820730000000005 -9.1440825 4.4598225000000005 -4.307205 10.767015 -16.44678 10.966515000000001 -22.2372675" stroke-width="0.5"></path><path id="vector_26" stroke="#120071" stroke-linecap="round" stroke-linejoin="round" d="M168.8458275 176.67221250000003c9.605925000000001 0 17.39241 -7.786485000000001 17.39241 -17.39241 0 -9.605925000000001 -7.786485000000001 -17.39241 -17.39241 -17.39241 -9.605925000000001 0 -17.39241 7.786485000000001 -17.39241 17.39241 0 9.605925000000001 7.786485000000001 17.39241 17.39241 17.39241Z" stroke-width="0.5"></path><path id="vector_27" stroke="#120071" stroke-linecap="round" stroke-linejoin="round" d="M166.50170250000002 150.024c0.724185 0.9506175 1.69575 1.681785 2.8099575000000003 2.1147 1.1132100000000003 0.432915 2.3241750000000003 0.5496225000000001 3.5002275000000003 0.33715500000000004 3.6448650000000002 -0.736155 4.83588 -4.8877500000000005 8.141595 -5.6767725 -2.88876 -2.8069650000000004 -6.6633000000000004 -4.5236625 -10.6782375 -4.8548325000000006 -4.01394 -0.33216750000000006 -8.0189025 0.74214 -11.329605 3.0373875 6.4129275 -1.2698175 5.81343 2.719185 7.5560625 5.0423625Z" stroke-width="0.5"></path><path id="vector_28" stroke="#120071" stroke-linecap="round" stroke-linejoin="round" d="M164.23837500000002 172.425855c-0.424935 -1.3067250000000001 -0.38004750000000004 -2.7211800000000004 0.12768000000000002 -3.99798 1.0663275 -3.624915 3.2009775 -6.2413575 1.3456275 -8.088727500000001 -2.03091 -2.0219325 -5.052337500000001 -2.0618325000000004 -7.7156625000000005 -1.7955 -4.5436125 0.46284000000000003 -4.0747875 0.7191975 -6.5346225 1.0453800000000002 0.0608475 3.4104525000000003 1.1241825 6.728137500000001 3.05634 9.540090000000001 1.9321575000000002 2.8109550000000003 4.6493475 4.99149 7.811422500000001 6.2712825 1.9979925000000003 -0.8568525 2.2144500000000003 -1.7496150000000001 1.909215 -2.9745450000000004Z" stroke-width="0.5"></path><path id="vector_29" stroke="#120071" stroke-linecap="round" stroke-linejoin="round" d="M183.190875 153.85839c-0.5426400000000001 0.32219250000000005 -0.9975 0.7710675 -1.326675 1.30872 -0.32917500000000005 0.5386500000000001 -0.5226900000000001 1.1481225000000002 -0.5625899999999999 1.7775450000000002 -0.6304200000000001 2.74911 -2.7291600000000003 1.4902650000000002 -5.2618125000000004 2.9506050000000004 -1.5840300000000003 0.9137100000000001 -2.7371400000000006 2.53365 -2.1715575 4.0029675000000005 0.4718175 1.226925 2.4568425 2.07879 3.676785 2.5426275 2.012955 0.7650825000000001 4.3321425 0.7930125000000001 6.0618075000000005 2.0349 1.430415 -2.2922550000000004 2.3052225 -4.885755 2.5575900000000003 -7.5750150000000005 0.25137000000000004 -2.6892600000000004 -0.12768000000000002 -5.400465 -1.1072250000000001 -7.9181550000000005 -0.6613425 0.20049750000000002 -1.2897675 0.4957575 -1.8663225 0.8758050000000001Z" stroke-width="0.5"></path><path id="vector_30" stroke="#120071" stroke-linecap="round" stroke-linejoin="round" d="M30.507540000000002 78.6219525c6.665295 -0.484785 16.0986525 0.06384000000000001 27.3983325 1.5650775000000001" stroke-width="0.5"></path><path id="vector_31" stroke="#120071" stroke-linecap="round" stroke-linejoin="round" d="M31.168882500000002 94.24389975c-7.9161600000000005 -4.5256575 -12.13758 -8.534609999999999 -11.371500000000001 -11.441325 0.49875 -1.91121 3.1201800000000004 -3.1750425 7.4463375 -3.82641" stroke-width="0.5"></path><path id="vector_32" stroke="#120071" stroke-linecap="round" stroke-linejoin="round" d="M55.81212 105.4926075c-6.9784102500000005 -2.639385 -13.8139785 -5.640862500000001 -20.478675000000003 -8.9944575" stroke-width="0.5"></path><path id="vector_33" stroke="#120071" stroke-linecap="round" stroke-linejoin="round" d="M168.651315 132.282465c-5.775525 -0.357105 -12.43284 -1.09725 -19.756485 -2.1945" stroke-width="0.5"></path><path id="vector_34" stroke="#120071" stroke-linecap="round" stroke-linejoin="round" d="M187.22177250000001 121.0376475c3.5680575 2.75709 5.2867500000000005 5.196975 4.778025 7.1421 -0.86184 3.2688075000000003 -7.900200000000001 4.642365 -19.1051175 4.301220000000001" stroke-width="0.5"></path><path id="vector_35" stroke="#120071" stroke-linecap="round" stroke-linejoin="round" d="M160.14264000000003 107.13150000000002c10.000935 4.0318950000000005 18.12657 7.98 23.68065 11.5360875" stroke-width="0.5"></path><path id="vector_36" stroke="#120071" stroke-linecap="round" stroke-linejoin="round" d="M159.25287 115.32696c19.803367500000004 8.0408475 14.985442500000001 10.551555 -6.213427500000001 7.3106775" stroke-width="0.5"></path><path id="vector_37" stroke="#120071" stroke-linecap="round" stroke-linejoin="round" d="M58.369710000000005 97.908615c-21.27468 -7.880250000000001 -25.9778925 -13.036327500000002 -3.8393775000000003 -10.1635275" stroke-width="0.5"></path><path id="vector_38" stroke="#120071" stroke-linecap="round" stroke-linejoin="round" d="M135.5931675 119.4376575c-5.155080000000001 -1.06932 -10.694197500000001 -2.308215 -16.503637500000004 -3.6987300000000003" stroke-width="0.5"></path><path id="vector_39" stroke="#120071" stroke-linecap="round" stroke-linejoin="round" d="M45.3712875 96.49625475C20.9644575 85.35517725000001 28.059675000000002 80.70782475 55.95975000000001 84.26989725" stroke-width="0.5"></path><path id="vector_40" stroke="#120071" stroke-linecap="round" stroke-linejoin="round" d="M62.3966175 103.341c-5.70171 -2.0668200000000003 -10.8119025 -4.094737500000001 -15.182947500000001 -6.0219075" stroke-width="0.5"></path><path id="vector_41" stroke="#120071" stroke-linecap="round" stroke-linejoin="round" d="M146.39908499999999 125.3259c-6.1316325 -1.0054800000000002 -12.8587725 -2.29425 -20.003865 -3.8393775000000003" stroke-width="0.5"></path><path id="vector_42" stroke="#120071" stroke-linecap="round" stroke-linejoin="round" d="M159.7995 111.630225c27.959925000000002 11.435340000000002 29.180865000000004 18.6123525 0.42693000000000003 15.594915" stroke-width="0.5"></path><path id="vector_43" stroke="#120071" stroke-linecap="round" stroke-linejoin="round" d="M165.34859250000002 39.34838250000001c-1.63191 -0.7850325 -3.8603250000000005 0.0189525 -5.1401175 1.3615875000000002 -0.8149575 0.8906677500000001 -1.430415 1.9448257500000001 -1.8064725000000001 3.0922500000000004 -0.22743000000000002 2.9186850000000004 -1.2478725 5.9121825 -1.5451275 8.827875l5.911185000000001 -1.69575c-0.5097225000000001 -2.5935 3.7775325 -4.746105 4.279275 -8.167530000000001 0.11371500000000001 -0.6761055 0.009975000000000001 -1.3708642500000001 -0.29526 -1.9848255000000001 -0.3042375 -0.6139612500000001 -0.7960050000000001 -1.1157037500000002 -1.4034825000000002 -1.433607v0Z" stroke-width="0.5"></path><path id="vector_44" stroke="#120071" stroke-linecap="round" stroke-linejoin="round" d="M164.14560749999998 42.156345c-2.846865 2.4988372500000002 -4.603462500000001 6.012431250000001 -4.893735 9.789465" stroke-width="0.5"></path><path id="vector_45" stroke="#120071" stroke-linecap="round" stroke-linejoin="round" d="M151.55217 43.777282500000005c1.7466225 2.87449575 2.97654 6.032780250000001 3.6338925 9.3316125l1.6708125 -0.4778025c0.31920000000000004 -3.1311525 1.47231 -6.350085 1.582035 -9.470265 0.313215 -8.896702500000002 -8.705182500000001 -10.603425000000001 -11.951047500000001 -5.27877 -0.32718 0.537453 -0.5835375 1.1152050000000002 -0.7610925000000001 1.7186925000000002l0.0668325 0.013965000000000002c2.3690625 0.62553225 4.4219175 2.10901425 5.7585675 4.162567500000001v0Z" stroke-width="0.5"></path><path id="vector_46" stroke="#120071" stroke-linecap="round" stroke-linejoin="round" d="M151.57611 38.616217500000005c0.6104700000000001 0.36857625 1.1082225 0.896553 1.44039 1.5271725 2.012955 3.3725475 1.8443775 7.3206525000000005 1.741635 11.2119" stroke-width="0.5"></path><path id="vector_47" stroke="#120071" stroke-linecap="round" stroke-linejoin="round" d="M151.55217 43.77718275c-1.3366500000000001 -2.05355325 -3.389505 -3.53703525 -5.7585675 -4.162567500000001 -1.1820375 -0.30144450000000006 -2.42592 -0.249375 -3.5790300000000004 0.14972475000000002 -1.1521125 0.39919950000000004 -2.16258 1.1278732500000002 -2.90472 2.0956477500000004 -0.776055 1.2167505 -1.15311 2.6451705000000003 -1.0792950000000001 4.0863585 0.073815 1.4411880000000001 0.5955075 2.82342375 1.4912625000000002 3.954489 3.76257 4.6533375 7.415415 1.45245975 9.975000000000001 4.77812475l5.48625 -1.5701647500000002c-0.656355 -3.2986327500000003 -1.885275 -6.4568175000000005 -3.6309000000000005 -9.3316125Z" stroke-width="0.5"></path><path id="vector_48" stroke="#120071" stroke-linecap="round" stroke-linejoin="round" d="M145.11031499999999 46.19432475c3.30372 1.4993422500000002 6.0558225 3.9953865 7.869277500000001 7.13811 0.061845000000000004 0.117705 0.1206975 0.2364075 0.177555 0.357105" stroke-width="0.5"></path><path id="vector_49" stroke="#120071" stroke-linecap="round" stroke-linejoin="round" d="m162.76806 50.939332500000006 -13.073235 3.73892925 4.2423675 14.8326255 13.072237500000002 -3.73892925 -4.24137 -14.8326255Z" stroke-width="0.5"></path><path id="vector_50" stroke="#120071" stroke-linecap="round" stroke-linejoin="round" d="m167.0263875 65.82622200000002 -13.073235 3.73892925 0.3461325 1.209369 13.072237500000002 -3.73892925 -0.34513499999999997 -1.209369Z" stroke-width="0.5"></path><path id="vector_51" stroke="#120071" stroke-linecap="round" stroke-linejoin="round" d="m151.1162625 54.27996 0.9067275000000001 3.1710525" stroke-width="0.5"></path><path id="vector_52" stroke="#120071" stroke-linecap="round" stroke-linejoin="round" d="m154.4937975 53.31438 0.9067275000000001 3.170055" stroke-width="0.5"></path><path id="vector_53" stroke="#120071" stroke-linecap="round" stroke-linejoin="round" d="m158.077815 52.28895000000001 0.9067275000000001 3.1710525" stroke-width="0.5"></path><path id="vector_54" stroke="#120071" stroke-linecap="round" stroke-linejoin="round" d="m161.35161000000002 51.35339475000001 0.9067275000000001 3.170055" stroke-width="0.5"></path><path id="vector_55" stroke="#120071" stroke-linecap="round" stroke-linejoin="round" d="M36.068602500000004 150.1766175c-4.4028652500000005 -0.8129625 -8.928423 -0.6743100000000001 -13.273732500000001 0.40398750000000005 1.417647 4.247355000000001 3.72616125 8.141595 6.7710300000000005 11.4243675l6.502702500000001 -11.828355000000002Z" stroke-width="0.5"></path><path id="vector_56" stroke="#120071" stroke-linecap="round" stroke-linejoin="round" d="M28.158427500000002 152.4409425c0.029526000000000004 0.3561075 0.1390515 0.7012425 0.320397 1.00947 0.18124575 0.3082275 0.42982275000000003 0.572565 0.726978 0.7710675 0.23830275 0.08977500000000001 0.49485975 0.1187025 0.747327 0.0867825 0.25246725000000003 -0.0329175 0.49316400000000005 -0.1266825 0.701043 -0.27331500000000003 0.41286525 -0.29825250000000003 0.767277 -0.67032 1.0453800000000002 -1.09725" stroke-width="0.5"></path><path id="vector_57" stroke="#120071" stroke-linecap="round" stroke-linejoin="round" d="M24.9903675 155.63793c0.46174275 0.7092225 1.1832345 1.20897 2.009364 1.3915125000000002 0.82622925 0.1825425 1.690962 0.03391500000000001 2.4085635 -0.41496" stroke-width="0.5"></path><path id="vector_58" stroke="#120071" stroke-linecap="round" stroke-linejoin="round" d="M34.4047725 165.75657c-1.1867257500000001 -0.656355 -2.3017312500000005 -1.4354025000000001 -3.3266625000000003 -2.3231775000000003l2.2772925 4.601467500000001c0.21087150000000002 0.42693000000000003 0.5615924999999999 0.77007 0.993909 0.9705675 0.43231650000000005 0.20049750000000002 0.92019375 0.2463825 1.3826347500000002 0.13167 0.46244100000000005 -0.11571000000000001 0.87151575 -0.385035 1.15939425 -0.7650825000000001 0.28787850000000004 -0.37905 0.43720425000000007 -0.8458800000000001 0.42313950000000006 -1.322685 -1.0040835 -0.349125 -1.97734425 -0.7820400000000001 -2.9097075 -1.2927600000000001v0Z" stroke-width="0.5"></path><path id="vector_59" stroke="#120071" stroke-linecap="round" stroke-linejoin="round" d="M45.3752775 154.766115c0.4139625 -0.2264325 0.7387485 -0.5875275 0.92119125 -1.023435 0.18244275000000001 -0.43491 0.21176925 -0.919695 0.08329125000000001 -1.3735575 -0.12857775 -0.45386250000000006 -0.40747875 -0.851865 -0.7910175 -1.127175 -0.3836385 -0.2743125 -0.84917175 -0.4119675 -1.3206900000000001 -0.3880275l-4.953585 0.25835250000000004c2.2349985 0.819945 4.29234225 2.0598375 6.06081 3.6538425v0Z" stroke-width="0.5"></path><path id="vector_60" stroke="#120071" stroke-linecap="round" stroke-linejoin="round" d="M45.3752775 154.766115c-2.6152455 -2.3231775000000003 -5.80554975 -3.9032175000000002 -9.238845000000001 -4.5755325l-6.5226525 11.864265000000001c1.4034825000000002 1.4643300000000001 3.0171382500000004 2.7122025 4.788 3.7017225000000002 8.46279 4.6533375 19.0352925 1.67181 19.0352925 1.67181 -1.5989925 -4.821915 -4.36895025 -9.17301 -8.061795000000002 -12.662265000000001v0Z" stroke-width="0.5"></path><path id="vector_61" stroke="#120071" stroke-linecap="round" stroke-linejoin="round" d="m60.597127500000006 172.3251075 -0.6533625000000001 -1.3206900000000001 1.4653275000000001 -0.15561c0.6812925000000001 -0.0827925 1.3025355 -0.43092 1.72956525 -0.9685725000000001 0.42712950000000005 -0.5366550000000001 0.6258315 -1.2209400000000001 0.55331325 -1.90323 -0.07251825 -0.6822900000000001 -0.410571 -1.30872 -0.9410415000000001 -1.7446275000000002 -0.5304705000000001 -0.43491 -1.210965 -0.6443850000000001 -1.894452 -0.58254l-7.4164125 1.7785425 2.4718050000000003 7.215915000000001c0.30752925000000003 0.6214425 0.8494710000000001 1.0962525 1.50652425 1.3176975 0.65705325 0.22244250000000002 1.37545275 0.1745625 1.9971945000000002 -0.133665 0.62174175 -0.30723 1.09575375 -0.8488725 1.317897 -1.5062250000000001 0.22214325000000001 -0.6573525000000001 0.17416350000000003 -1.3755525000000002 -0.13336575000000003 -1.9969949999999999h-0.0029925000000000004Z" stroke-width="0.5"></path><path id="vector_62" stroke="#120071" stroke-linecap="round" stroke-linejoin="round" d="M53.8380675 65.154705c5.40275925 0 9.7824825 -4.379823 9.7824825 -9.7824825 0 -5.40275925 -4.37972325 -9.7824825 -9.7824825 -9.7824825 -5.40275925 0 -9.7824825 4.37972325 -9.7824825 9.7824825 0 5.4026595 4.37972325 9.7824825 9.7824825 9.7824825Z" stroke-width="0.5"></path><path id="vector_63" stroke="#120071" stroke-linecap="round" stroke-linejoin="round" d="M39.7613475 55.582695h4.0668075" stroke-width="0.5"></path><path id="vector_64" stroke="#120071" stroke-linecap="round" stroke-linejoin="round" d="M63.62055 55.582695h4.0668075" stroke-width="0.5"></path><path id="vector_65" stroke="#120071" stroke-linecap="round" stroke-linejoin="round" d="M53.828092500000004 69.22849500000001v-4.0668075" stroke-width="0.5"></path><path id="vector_66" stroke="#120071" stroke-linecap="round" stroke-linejoin="round" d="M53.8380675 45.589740000000006v-4.0668075" stroke-width="0.5"></path><path id="vector_67" stroke="#120071" stroke-linecap="round" stroke-linejoin="round" d="m44.163315000000004 65.27241000000001 2.8757925 -2.8757925" stroke-width="0.5"></path><path id="vector_68" stroke="#120071" stroke-linecap="round" stroke-linejoin="round" d="m60.872437500000004 48.57136725 2.8757925 -2.8757925" stroke-width="0.5"></path><path id="vector_69" stroke="#120071" stroke-linecap="round" stroke-linejoin="round" d="m63.466935 65.3033325 -2.8757925 -2.8757925" stroke-width="0.5"></path><path id="vector_70" stroke="#120071" stroke-linecap="round" stroke-linejoin="round" d="m46.7578125 48.602289750000004 -2.8757925 -2.8757925" stroke-width="0.5"></path><path id="vector_71" stroke="#120071" stroke-linecap="round" stroke-linejoin="round" d="m55.409130000000005 137.780685 -12.610395 2.1855225" stroke-width="0.5"></path><path id="vector_72" stroke="#120071" stroke-linecap="round" stroke-linejoin="round" d="m57.3951525 140.9118375 -11.4562875 7.296712500000001" stroke-width="0.5"></path><path id="vector_73" stroke="#120071" stroke-linecap="round" stroke-linejoin="round" d="M59.45100000000001 144.93675000000002c-1.98702 3.0134475000000003 -4.10571 5.9361225 -6.35607 8.76603" stroke-width="0.5"></path><path id="vector_74" stroke="#120071" stroke-linecap="round" stroke-linejoin="round" d="M126.2745225 164.23638v9.709665000000001" stroke-width="0.5"></path><path id="vector_75" stroke="#120071" stroke-linecap="round" stroke-linejoin="round" d="M121.41969000000002 169.09121249999998h9.7106625" stroke-width="0.5"></path><path id="vector_76" stroke="#120071" stroke-linecap="round" stroke-linejoin="round" d="M140.8878975 153.3167475v5.64984" stroke-width="0.5"></path><path id="vector_77" stroke="#120071" stroke-linecap="round" stroke-linejoin="round" d="M138.0629775 156.14166749999998h5.64984" stroke-width="0.5"></path><path id="vector_78" stroke="#120071" stroke-linecap="round" stroke-linejoin="round" d="M189.65766750000003 90.2368425v9.7106625" stroke-width="0.5"></path><path id="vector_79" stroke="#120071" stroke-linecap="round" stroke-linejoin="round" d="M184.802835 95.09167500000001H194.51250000000002" stroke-width="0.5"></path><path id="vector_80" stroke="#120071" stroke-linecap="round" stroke-linejoin="round" d="M178.929555 81.52278224999999v6.7540725" stroke-width="0.5"></path><path id="vector_81" stroke="#120071" stroke-linecap="round" stroke-linejoin="round" d="M175.5530175 84.89931975h6.753075" stroke-width="0.5"></path><path id="vector_82" stroke="#120071" stroke-linecap="round" stroke-linejoin="round" d="M173.90814 58.5921525v6.0328800000000005" stroke-width="0.5"></path><path id="vector_83" stroke="#120071" stroke-linecap="round" stroke-linejoin="round" d="M170.89170000000001 61.608692250000004h6.0328800000000005" stroke-width="0.5"></path><path id="vector_84" stroke="#120071" stroke-linecap="round" stroke-linejoin="round" d="M159.2139675 22.827787500000003v6.0328800000000005" stroke-width="0.5"></path><path id="vector_85" stroke="#120071" stroke-linecap="round" stroke-linejoin="round" d="M156.1975275 25.84432725h6.0318825" stroke-width="0.5"></path><path id="vector_86" stroke="#120071" stroke-linecap="round" stroke-linejoin="round" d="M70.0254975 70.73871v6.0328800000000005" stroke-width="0.5"></path><path id="vector_87" stroke="#120071" stroke-linecap="round" stroke-linejoin="round" d="M67.00905750000001 73.75524975h6.0328800000000005" stroke-width="0.5"></path><path id="vector_88" stroke="#120071" stroke-linecap="round" stroke-linejoin="round" d="M9.545077500000001 86.17711725000001v9.1161525" stroke-width="0.5"></path><path id="vector_89" stroke="#120071" stroke-linecap="round" stroke-linejoin="round" d="M4.987500000000001 90.73459500000001h9.1161525" stroke-width="0.5"></path><path id="vector_90" stroke="#120071" stroke-linecap="round" stroke-linejoin="round" d="M27.905062500000003 128.4929625v6.0328800000000005" stroke-width="0.5"></path><path id="vector_91" stroke="#120071" stroke-linecap="round" stroke-linejoin="round" d="M24.8886225 131.5094025h6.0318825" stroke-width="0.5"></path><path id="vector_92" stroke="#120071" stroke-linecap="round" stroke-linejoin="round" d="M13.362510000000002 141.323805v5.7306375" stroke-width="0.5"></path><path id="vector_93" stroke="#120071" stroke-linecap="round" stroke-linejoin="round" d="M10.4966925 144.18962249999998h5.731635000000001" stroke-width="0.5"></path></g></g></svg>