<svg xmlns="http://www.w3.org/2000/svg" fill="none" viewBox="-0.25 -0.25 200 200" id="Business-Startup-New-Product-Launch-01--Streamline-Bangalore.svg"><desc>Business Startup New Product Launch 01 Streamline Illustration: https://streamlinehq.com</desc><g><g><path fill="#a8e5f8" d="m100.35648 94.1310825 -12.489697500000002 5.6468475c-0.11371500000000001 -0.2264325 -4.987500000000001 -11.029357500000001 -7.296712500000001 -15.237810000000001 -0.39151875 -0.703038 -0.941241 -1.30542825 -1.6057755 -1.7592907500000001 -0.6644347500000001 -0.45396225 -1.4254275 -0.7471275 -2.2226295000000005 -0.85615425 -0.49296449999999997 -0.05037375000000001 -0.9772507500000001 -0.16508625000000002 -1.44039 -0.34114500000000003 -0.29925 -0.11271750000000001 -0.28428749999999997 -1.1371499999999999 -0.28428749999999997 -1.5162 0 -0.548625 -6.595470000000001 -0.548625 -6.595470000000001 0 0 0 0.2902725 1.2857775 -0.32219250000000005 1.5162 -0.37236675 0.1298745 -0.7521150000000001 0.237405 -1.1371499999999999 0.32219250000000005 -1.7628817500000002 0.357504 -3.40237275 1.1677732500000002 -4.7570775 2.3511075000000003C55.5956625 90.16402500000001 50.6440725 94.66275000000002 44.4276525 99.65025000000001c-0.202692 0.16458750000000003 -0.34284075 0.39401250000000004 -0.39730425 0.6493725 -0.054463500000000005 0.25536000000000003 -0.019850250000000003 0.520695 0.09805425000000001 0.7541100000000001 1.0375995 2.1436275 2.586717 3.99798 4.510695 5.4014625 0.19750500000000001 0.13266750000000002 0.4315185 0.20049750000000002 0.6693225 0.19351500000000002 0.23780400000000002 -0.006982500000000001 0.46762800000000004 -0.08778 0.6573525000000001 -0.23142000000000001 4.5296475 -3.4114500000000003 10.1745 -8.017905 14.138565 -11.636835000000001 0.7419405 1.8272205000000001 1.2944557500000002 3.7257622500000003 1.6488675000000002 5.6658 0.83391 1.2887700000000002 12.1296 2.0668200000000003 12.58446 0.133665 -0.056857500000000005 0.4359075 -0.0947625 0.871815 -0.13266750000000002 1.2887700000000002l2.42592 4.5296475c0.7759552500000001 1.462335 2.08367775 2.5705575 3.6531442500000004 3.0952425000000003 1.5694665 0.5256825 3.28087725 0.428925 4.7807182500000005 -0.27132000000000006l14.896665 -6.7480875000000005c1.3416375 -0.572565 -2.2593375000000004 -8.94957 -3.604965 -8.343090000000002Z" stroke-width="0.5"></path><path fill="#a8e5f8" d="M120.735405 84.21693 129.58123500000002 70.8225c-3.8593275000000005 2.9555925000000003 -9.900187500000001 9.3854775 -14.7300825 15.582945 -1.2199425000000002 1.2718125 -3.6907500000000004 3.5121975 -5.15109 2.4937500000000004 -0.09975 -0.38094525 -0.32319000000000003 -0.7179007500000001 -0.6354075 -0.9580987500000001 -0.31221750000000004 -0.24009825 -0.6952575 -0.36977325 -1.0892700000000002 -0.36857625 0.065835 0.337554 0.10374 0.67979625 0.11371500000000001 1.023435 1.0613400000000002 0.4738125 0.5875275 1.97106 -0.69825 2.2752975 -0.1486275 0.05356575 -0.3082275 0.07511175 -0.46583250000000004 0.0632415 -0.15760500000000002 -0.011870250000000002 -0.31221750000000004 -0.05695725 -0.45087000000000005 -0.1322685 -0.13965000000000002 -0.0752115 -0.26234250000000003 -0.17905125 -0.35910000000000003 -0.30473625 -0.09576000000000001 -0.12558525 -0.165585 -0.270123 -0.20249250000000002 -0.42423675000000005 -0.0209475 -0.21117075000000002 0.0109725 -0.42443625 0.093765 -0.61994625 0.0827925 -0.19541025 0.21346500000000002 -0.36678075000000004 0.38004750000000004 -0.49825125000000003 0.11371500000000001 -0.399 0.17057250000000002 -0.798 0.28428749999999997 -1.1760525000000002 -1.44039 0.5506200000000001 -2.3311575 2.1226800000000003 -1.5351525 3.25983 0.277305 0.3393495 0.6463800000000001 0.5902207500000001 1.0643325 0.7217910000000001 0.4179525 0.13147050000000002 0.8648325 0.1378545 1.2857775 0.018354000000000002 1.3137075 -0.289275 2.7291600000000003 -0.6593475000000001 4.2044625 -1.0902675 -0.349125 0.504735 -0.6812925000000001 1.00079175 -0.9975 1.48827 -0.45486000000000004 0.69825 -0.8907675 1.4014875 -1.2887700000000002 2.0458725 -0.253365 0.39331425000000003 -0.4099725 0.8416905 -0.45486000000000004 1.3077225000000001 0.34114500000000003 -0.43341375000000004 0.8029875000000001 -0.75620475 1.326675 -0.9276750000000001 0.0887775 -0.15561 0.20748 -0.291669 0.3501225 -0.40029675000000003 0.141645 -0.108528 0.3042375 -0.1873305 0.4778025 -0.23151975000000002 0.173565 -0.044289 0.3541125 -0.053067 0.5306700000000001 -0.025935 0.177555 0.027231750000000002 0.34713 0.08977500000000001 0.49875 0.18393900000000002 0.9097200000000001 0.798 -0.26533500000000004 2.6154450000000002 -1.4782950000000001 2.2733025000000002 -0.3620925 0.27720525 -0.7740600000000001 0.48328875 -1.21296 0.6074775 0.83391 0.851865 2.3311575 0.5875275 3.2977350000000003 -0.492765 0.44488500000000003 -0.41555850000000005 0.7112175000000001 -0.9875250000000001 0.7431375 -1.59550125 0.031920000000000004 -0.6079762500000001 -0.173565 -1.2045810000000001 -0.572565 -1.6643287500000001 0.023940000000000003 -1.98702 1.995 -3.3386325 3.4483575 -4.0648125 7.581 -2.6304075 15.671722500000001 -6.323152500000001 19.768455000000003 -9.1081725l-15.391425 4.1326425Zm-2.6583375 2.8069650000000004c-0.0668325 0.059750250000000005 -0.145635 0.10563525 -0.23042250000000003 0.13516125 -0.08478750000000002 0.02942625 -0.1745625 0.041895 -0.2643375 0.03660825000000001 -0.08977500000000001 -0.005286750000000001 -0.177555 -0.02822925 -0.25835250000000004 -0.06743099999999999 -0.08079750000000001 -0.03920175 -0.153615 -0.0939645 -0.21346500000000002 -0.161196 -0.05985 -0.0672315 -0.10573500000000001 -0.14553525 -0.13466250000000002 -0.23042250000000003 -0.029925 -0.08498700000000001 -0.041895 -0.17486175 -0.0369075 -0.26463675 0.004987500000000001 -0.08977500000000001 0.027930000000000003 -0.177555 0.06783000000000002 -0.25845225 0.0389025 -0.080997 0.093765 -0.15331575 0.1605975 -0.21306600000000003 0.06783000000000002 -0.059750250000000005 0.145635 -0.10563525 0.23042250000000003 -0.13516125 0.08478750000000002 -0.02942625 0.1745625 -0.041895 0.2643375 -0.03660825000000001 0.08977500000000001 0.005286750000000001 0.177555 0.02822925 0.25935 0.06743099999999999 0.08079750000000001 0.03920175 0.15261750000000002 0.0939645 0.2124675 0.161196 0.05985 0.0672315 0.10573500000000001 0.14553525 0.13566000000000003 0.23042250000000003 0.028927500000000002 0.08498700000000001 0.041895 0.17486175 0.03591 0.26463675 -0.004987500000000001 0.08977500000000001 -0.027930000000000003 0.177555 -0.0668325 0.258552 -0.039900000000000005 0.08089725 -0.093765 0.153216 -0.16159500000000002 0.21296625Z" stroke-width="0.5"></path><path fill="#a8e5f8" d="M46.322902500000005 153.07335750000001c0.0037905 0.6443850000000001 -0.1837395 1.2758025 -0.5388495000000001 1.8144525 -0.35511 0.5376525000000001 -0.8617402500000001 0.9585975 -1.455951 1.20897s-1.249269 0.3182025 -1.8822825 0.19650750000000003c-0.6331132500000001 -0.12269250000000001 -1.215753 -0.42992250000000004 -1.6743037500000002 -0.8827875000000001s-0.77236425 -1.0324125 -0.90183975 -1.66383c-0.12937575 -0.6314175000000001 -0.06872775 -1.2877725 0.1745625 -1.8842775 0.24329025 -0.5975025 0.6581505000000001 -1.10922 1.19211225 -1.470315 0.53396175 -0.361095 1.163085 -0.5556075 1.8077692500000002 -0.5595975000000001 0.42812700000000004 -0.0029925000000000004 0.8524635 0.07980000000000001 1.24896975 0.24039750000000001 0.3964065 0.16159500000000002 0.7572022500000001 0.39999750000000006 1.06163925 0.7012425 0.30453675 0.3002475 0.54672975 0.6583500000000001 0.7128135000000001 1.05336 0.16608375000000003 0.39401250000000004 0.25286625 0.81795 0.25536000000000003 1.2458775000000002Z" stroke-width="0.5"></path><path fill="#a8e5f8" d="M54.77561775 161.29575c0.00389025 0.6443850000000001 -0.18344025000000003 1.2758025 -0.53835075 1.8144525 -0.35501025 0.5386500000000001 -0.8616405 0.959595 -1.4557515 1.2099675 -0.59421075 0.2503725 -1.249269 0.3182025 -1.882482 0.19650750000000003 -0.6331132500000001 -0.121695 -1.2158527500000003 -0.428925 -1.6744035000000002 -0.8827875000000001 -0.4586505 -0.452865 -0.77256375 -1.0314150000000002 -0.902139 -1.66383 -0.12957525 -0.6314175000000001 -0.06882750000000001 -1.286775 0.17436300000000002 -1.8842775 0.2431905 -0.5975025 0.65805075 -1.1082225 1.1920125000000001 -1.470315 0.5340615 -0.361095 1.1631847499999999 -0.5556075 1.8079687500000001 -0.5595975000000001 0.8644335000000001 -0.004987500000000001 1.695351 0.33316500000000004 2.31021 0.9406425 0.6149587500000001 0.6074775 0.96328575 1.434405 0.9685725000000001 2.2992375000000003Z" stroke-width="0.5"></path><path fill="#a8e5f8" d="M117.26709750000002 22.9634475c-5.4872475000000005 8.365434 -9.817395000000001 17.434404750000002 -12.873735000000002 26.96043H130.17375c-3.0872625000000005 -9.5195415 -7.427385 -18.58591875 -12.9066525 -26.96043Z" stroke-width="0.5"></path></g><g><path fill="#6153bd" d="m31.93805475 118.97681250000001 -2.8428750000000003 -1.2887700000000002c-3.4683075 1.197 -13.778467500000001 4.813935 -16.5455325 7.3346175 3.85124775 0.7391475000000001 7.775811750000001 1.02543 11.693692500000001 0.8528625000000001 2.9376375 -0.2264325 3.070305 -0.0748125 5.53413 0.9097200000000001 -0.40398750000000005 -1.6269225 0.8678250000000001 -6.425895000000001 2.160585 -7.80843Z" stroke-width="0.5"></path><path fill="#6153bd" d="M83.0528475 120.94787250000002c1.0802925 3.9810225000000004 2.1226800000000003 8.0548125 3.10821 12.187455h84.869295v-12.187455H83.0528475Z" stroke-width="0.5"></path><path fill="#6153bd" d="m91.65738225000001 166.927635 -1.1172000000000002 -4.26132c-2.581929 1.14513 -5.3647545 1.7685675 -8.1884775 1.8344025000000002l1.023435 4.908697500000001c-0.124488 1.6758 -0.06094725 3.361575 0.189525 5.02341 10.42986 -1.582035 18.57335025 -4.734135000000001 18.57335025 -4.927650000000001 -3.330054 -1.4234325 -6.87008175 -2.29425 -10.48063275 -2.5775400000000004Z" stroke-width="0.5"></path><path fill="#6153bd" d="M64.34673 63.69237c-0.5273782499999999 -0.6362055000000001 -1.178646 -1.1584965 -1.9142025000000003 -1.5351525 -1.6792912500000001 -0.7803442500000001 -3.5923965 -0.893361 -5.35188675 -0.31600800000000007 -1.7593905 0.57725325 -3.23379525 1.8016845000000001 -4.12436325 3.4252155 -2.2114575000000003 4.0747875 0.028927500000000002 9.1460775 2.312205 9.93111 0 0 -1.629915 1.4593425000000002 -1.2698175 4.8318900000000005 0.37905 3.6019725000000005 6.500707500000001 6.405945 10.878735 0.416955 2.88078 -3.92217 5.174032500000001 -4.283265 5.4014625 -3.4673100000000003 -0.24129525000000002 -0.86692725 -0.52598175 -1.7211862500000001 -0.8528625000000001 -2.5595849999999998 -1.6867725000000002 -0.22743000000000002 -1.326675 -2.2353975000000004 -0.11371500000000001 -1.7057250000000002 0.4778025 0.21346500000000002 0.7600950000000001 0.2503725 0.7391475000000001 -0.1506225 -0.07581 -2.767065 1.7955 -3.89025 3.56307 -1.7246775l0.5875275 0.8329125000000001c2.160585 -6.2154225 -2.9376375 -11.3705025 -9.855300000000002 -7.9790025Z" stroke-width="0.5"></path><path fill="#6153bd" d="M73.40602500000001 79.08279750000001c-0.005386500000000001 -0.25356449999999997 0.00728175 -0.50722875 0.037905 -0.7590975000000001 -0.3880275 -0.0269325 -0.7740600000000001 -0.07730625 -1.1561025 -0.1506225l1.1181975 0.9097200000000001Z" stroke-width="0.5"></path><path fill="#6153bd" d="m63.0581595 92.21688 -3.2977350000000003 6.34809c1.386525 -1.1780475000000001 -0.5855325 0.5576025000000001 4.359075000000001 -3.8084550000000004 -0.492765 -1.2698175 -0.9286725000000001 -2.1994875 -1.0613400000000002 -2.539635Z" stroke-width="0.5"></path><path fill="#6153bd" d="M69.50181 123.20421750000001c0.5685749999999999 2.1945 1.3456275 5.0403675 2.236395 8.24334 -0.5117175 -4.7750325 1.44039 -16.847775000000002 1.49625 -17.170965 -1.214955 3.1092075 -2.4438750000000002 6.0837525 -3.732645 8.927624999999999Z" stroke-width="0.5"></path><path fill="#6153bd" d="M117.6222075 86.18998500000001c-0.0608475 -0.00329175 -0.1206975 0.011870250000000002 -0.17256749999999998 0.043491 -0.05187 0.03162075 -0.0927675 0.078204 -0.11670750000000002 0.13356525 -0.0249375 0.05536125 -0.031920000000000004 0.11690700000000001 -0.0209475 0.17645775000000002s0.039900000000000005 0.11441325000000001 0.0827925 0.157206c0.0548625 0.060249000000000004 0.13266750000000002 0.09615900000000001 0.2144625 0.09975 0.081795 0.0034912500000000004 0.16159500000000002 -0.025536000000000003 0.221445 -0.08079750000000001 0.05985 -0.05536125 0.09576000000000001 -0.13236825000000002 0.09975 -0.21406350000000002 0.0039900000000000005 -0.081795 -0.025935 -0.16159500000000002 -0.08079750000000001 -0.22184399999999999 -0.061845000000000004 -0.05795475 -0.1426425 -0.09127125 -0.22743000000000002 -0.093765Z" stroke-width="0.5"></path></g><g><path stroke="#120071" stroke-linecap="round" stroke-linejoin="round" d="M104.38039500000001 49.9238775h25.765425" stroke-width="0.5"></path><path stroke="#120071" stroke-linecap="round" stroke-linejoin="round" d="M135.8595 133.1353275c-0.2663325 2.160585 -0.5506200000000001 4.322167500000001 -0.8528625000000001 6.483750000000001 -0.11471250000000001 0.7960050000000001 -0.5137125 1.5231824999999999 -1.1231849999999999 2.0478675 -0.6104700000000001 0.5246850000000001 -1.3895175000000002 0.8099700000000001 -2.1935025 0.8039850000000001h-28.60431c-0.8059800000000001 0.0019950000000000002 -1.5860250000000002 -0.2882775 -2.1954975 -0.815955 -0.6094725 -0.5276775 -1.0074750000000001 -1.2578475 -1.1211900000000001 -2.0558475 -0.29915025 -2.160585 -0.58742775 -4.301220000000001 -0.85276275 -6.461805" stroke-width="0.5"></path><path stroke="#120071" stroke-linecap="round" stroke-linejoin="round" d="M96.94503 105.6721575c0.09446325000000001 5.07927 0.34084575 10.1774925 0.7391475000000001 15.294667500000001" stroke-width="0.5"></path><path stroke="#120071" stroke-linecap="round" stroke-linejoin="round" d="M96.98303475 95.6472825c0.26463675 -12.162417750000001 1.8198390000000002 -24.262491750000002 4.63927275 -36.0965325 3.0772875 -13.001514750000002 8.369025 -25.376300250000003 15.64479 -36.582315 7.180005 11.0660655 12.4278525 23.272074000000003 15.518107500000001 36.0965325 4.9456050000000005 19.5111 5.885250000000001 40.71396000000001 4.263315 61.88889" stroke-width="0.5"></path><path stroke="#120071" stroke-linecap="round" stroke-linejoin="round" d="M110.696565 89.15246025c-1.0214400000000001 -1.1674740000000001 -1.7206875000000001 -2.5855200000000003 -2.02293 -4.11369 -0.34014750000000005 -1.7191912500000002 -0.1625925 -3.50072625 0.5097225000000001 -5.1191699999999996 0.6723150000000001 -1.6184437500000002 1.809465 -3.00117825 3.26781 -3.9732420000000004 1.458345 -0.9720637500000001 3.1720500000000005 -1.48996575 4.9246575 -1.4879707500000001 1.1640825000000001 0.001197 2.3151975000000005 0.23151975000000002 3.389505 0.677901 0.9087225000000001 0.37715475000000004 1.7466225 0.9023385 2.479785 1.5531075m2.9615775 6.02918925c-0.0648375 -0.9553057500000001 -0.28428749999999997 -1.89515025 -0.6513675000000001 -2.78252625 -0.2394 -0.5808442500000001 -0.5396475000000001 -1.1329605 -0.8947575000000001 -1.64777025" stroke-width="0.5"></path><path stroke="#120071" stroke-linecap="round" stroke-linejoin="round" d="M104.42229 142.4599575v5.386500000000001c-0.0019950000000000002 0.46284000000000003 0.08778 0.9216900000000001 0.26334 1.3506150000000001 0.17556 0.428925 0.43391250000000003 0.81795 0.7600950000000001 1.1461275000000002 0.32718 0.3281775 0.7152075 0.5895225 1.143135 0.7670775000000001 0.42693000000000003 0.1785525 0.88578 0.2703225 1.3486200000000002 0.2703225h18.72507c0.46284000000000003 0.0019950000000000002 0.9216900000000001 -0.08778 1.3496175000000001 -0.26334 0.4279275 -0.17556 0.815955 -0.43491 1.1441325 -0.7610925000000001 0.32718 -0.32718 0.5875275 -0.7152075 0.764085 -1.1421375 0.177555 -0.4279275 0.26832750000000005 -0.88578 0.26733 -1.3486200000000002v-5.386500000000001" stroke-width="0.5"></path><path stroke="#120071" stroke-linecap="round" stroke-linejoin="round" d="M82.56018225 119.18529c4.23169425 -3.800475 9.07615275 -6.856815 14.328090000000001 -9.040342500000001" stroke-width="0.5"></path><path stroke="#120071" stroke-linecap="round" stroke-linejoin="round" d="M113.605275 91.3424715c0.64239 0.300846 1.3206900000000001 0.52518375 2.02293 0.6656317500000001 1.7186925000000002 0.343539 3.501225 0.1697745 5.121165 -0.4993485000000001 1.6189425000000002 -0.669123 3.00447 -1.8035797500000001 3.9790275 -3.25983 0.588525 -0.8788972500000001 1.011465 -1.8511605 1.2558525 -2.86910925" stroke-width="0.5"></path><path stroke="#120071" stroke-linecap="round" stroke-linejoin="round" d="M70.52334975000001 127.01367c-0.5306700000000001 2.65335 -0.9665775 5.3635575 -1.326675 8.1306225 0.8528625000000001 -1.2508650000000001 1.7057250000000002 -2.4638250000000004 2.5585875000000002 -3.6578325" stroke-width="0.5"></path><path stroke="#120071" stroke-linecap="round" stroke-linejoin="round" d="M98.30961 77.830935c-5.247847500000001 4.26341475 -9.86736975 9.24652575 -13.72161 14.8019025" stroke-width="0.5"></path><path stroke="#120071" stroke-linecap="round" stroke-linejoin="round" d="M153.91425 120.94887c-4.6433625 -4.594485 -10.124625000000002 -8.25531 -16.14753 -10.78497" stroke-width="0.5"></path><path stroke="#120071" stroke-linecap="round" stroke-linejoin="round" d="m165.1550775 133.1353275 0.28428749999999997 2.084775c-0.4738125 -0.69825 -0.947625 -1.4034825000000002 -1.44039 -2.084775" stroke-width="0.5"></path><path stroke="#120071" stroke-linecap="round" stroke-linejoin="round" d="M136.42308749999998 77.86973775c13.494180000000002 11.0114025 21.871185 25.660787250000002 26.3250225 43.07913225" stroke-width="0.5"></path><path stroke="#120071" stroke-linecap="round" stroke-linejoin="round" d="M80.20987275 161.9431275c0.40498500000000004 1.4114625 11.52312 -1.023435 11.07225 -2.4448725000000002 -2.7102075 -18.933547500000003 -8.03586 -39.117960000000004 -13.2477975 -55.549777500000005 -1.1561025 1.0802925 -12.58446 0.45386250000000006 -12.546555 -0.798 -9.02937 4.9476 -10.02687 20.905604999999998 -10.02687 20.905604999999998l-19.86222 -5.6857500000000005c-1.8762975000000002 -0.5496225000000001 -5.272785 10.8129 -3.4114500000000003 11.4283575 7.474267500000001 2.4678150000000003 15.2926725 4.9545825 23.5579575 6.97452 1.700538 0.420945 3.4922475 0.26932500000000004 5.0987212500000005 -0.428925 1.6063740000000002 -0.6992475 2.9382360000000003 -1.9062225000000002 3.7900012500000004 -3.4373850000000004 1.72368 -3.1092075 3.33564 -6.3111825 4.8707925 -9.70368 2.2713075000000003 8.738100000000001 7.5201525 27.6257625 10.70517 38.73990750000001Z" stroke-width="0.5"></path><path stroke="#120071" stroke-linecap="round" stroke-linejoin="round" d="M73.44203475 78.34664250000002c-0.057456 0.441294 -0.037506000000000005 0.8891715 0.0588525 1.3236825" stroke-width="0.5"></path><path stroke="#120071" stroke-linecap="round" stroke-linejoin="round" d="M43.74546225 107.26516500000001c-2.172156 0.17556 -4.35658125 0.13067250000000002 -6.51966 -0.133665" stroke-width="0.5"></path><path stroke="#120071" stroke-linecap="round" stroke-linejoin="round" d="M35.86102275 109.86066c0.492765 -0.13266750000000002 1.0044825 -0.29925 1.4593425000000002 -0.45486000000000004" stroke-width="0.5"></path><path stroke="#120071" stroke-linecap="round" stroke-linejoin="round" d="M43.081925250000005 102.2607075c-1.596 1.2887700000000002 -4.16955 3.0373875 -6.368040000000001 2.9925 -3.6199275 -0.06882750000000001 -3.5820225000000003 0.708225 -0.17057250000000002 1.7057250000000002 0.20748 0.0608475 0.4359075 0.11371500000000001 0.6822900000000001 0.17057250000000002 -1.1389455 0.640395 -2.31629475 1.2099675 -3.525165 1.7057250000000002 -2.5805325000000003 1.0733100000000002 -2.61744 1.8463725 0.5306700000000001 1.3835325 0.550221 -0.085785 1.0946565 -0.2064825 1.629915 -0.3600975 -0.60648 0.37905 -1.3276725 0.776055 -2.1226800000000003 1.175055 -2.7501075000000004 1.3805399999999999 -2.0099625000000003 1.89525 0.5685749999999999 1.175055 1.8032805 -0.50673 3.54002775 -1.2259275 5.174032500000001 -2.1416325" stroke-width="0.5"></path><path stroke="#120071" stroke-linecap="round" stroke-linejoin="round" d="M39.86000025 111.54843000000001c-0.720195 0.45486000000000004 -1.7954002500000001 2.48577 0.8719147500000001 0.720195 2.0299125000000005 -1.3436325 4.81383525 -3.449355 6.65222775 -4.8707925" stroke-width="0.5"></path><path stroke="#120071" stroke-linecap="round" stroke-linejoin="round" d="M42.00183225000001 110.23971000000002c-1.8667215000000001 0.1566075 -3.7328445 -0.309225 -5.3067 -1.3256775" stroke-width="0.5"></path><path stroke="#120071" stroke-linecap="round" stroke-linejoin="round" d="M35.481972750000004 111.86962500000001c-2.0658225000000003 1.1760525000000002 -1.30872 1.7605875 1.2319125000000002 1.0044825 1.88936475 -0.5955075 3.6732937500000005 -1.4852775000000003 5.2867500000000005 -2.6343975" stroke-width="0.5"></path><path stroke="#120071" stroke-linecap="round" stroke-linejoin="round" d="M74.20203000000001 71.6713725c1.44039 2.42592 2.4039750000000004 6.483750000000001 -0.5306700000000001 6.672277500000001 -0.47111925000000004 -0.00947625 -0.9403432500000001 -0.060249000000000004 -1.402485 -0.15162l1.1371499999999999 0.9097200000000001" stroke-width="0.5"></path><path stroke="#120071" stroke-linecap="round" stroke-linejoin="round" d="M70.29791475 76.95912c0.32328975000000004 0.86413425 0.35271600000000003 1.810662 0.08379 2.6932500000000004" stroke-width="0.5"></path><path stroke="#120071" stroke-linecap="round" stroke-linejoin="round" d="m48.82463250000001 106.54397250000001 -1.023435 0.83391c-0.8907675 0.740145 -5.496225 -4.70022 -4.6054575 -5.4583200000000005l0.947625 -0.8897700000000001" stroke-width="0.5"></path><path stroke="#120071" stroke-linecap="round" stroke-linejoin="round" d="m43.404117750000005 103.151475 1.2887700000000002 -1.1371499999999999" stroke-width="0.5"></path><path stroke="#120071" stroke-linecap="round" stroke-linejoin="round" d="m44.048502750000004 104.17590750000001 1.3645800000000001 -1.0244324999999999" stroke-width="0.5"></path><path stroke="#120071" stroke-linecap="round" stroke-linejoin="round" d="m44.80660275 105.198345 1.402485 -1.0224374999999999" stroke-width="0.5"></path><path stroke="#120071" stroke-linecap="round" stroke-linejoin="round" d="m45.65946525 106.128015 1.3835325 -1.0423875" stroke-width="0.5"></path><path stroke="#120071" stroke-linecap="round" stroke-linejoin="round" d="m46.512327750000004 106.886115 1.3835325 -1.0423875" stroke-width="0.5"></path><path stroke="#120071" stroke-linecap="round" stroke-linejoin="round" d="M78.03053475 103.94847750000001c0.028029750000000003 -0.0229425 0.050972250000000004 -0.05187 0.0672315 -0.08478750000000002 0.016359000000000002 -0.0329175 0.0257355 -0.06783000000000002 0.027531 -0.1047375 0.00209475 -1.1152050000000002 0.07810425 -2.2304100000000004 0.22743000000000002 -3.33564" stroke-width="0.5"></path><path stroke="#120071" stroke-linecap="round" stroke-linejoin="round" d="M65.48378025000001 103.151475c0.22413825 -0.935655 0.3134145 -1.89924 0.26533500000000004 -2.86083" stroke-width="0.5"></path><path stroke="#120071" stroke-linecap="round" stroke-linejoin="round" d="m31.63481475 119.3379075 2.236395 0.776055" stroke-width="0.5"></path><path stroke="#120071" stroke-linecap="round" stroke-linejoin="round" d="m30.952425 120.94887 2.1984900000000005 0.776055" stroke-width="0.5"></path><path stroke="#120071" stroke-linecap="round" stroke-linejoin="round" d="m30.497565 122.57778750000001 2.1037275 0.70224" stroke-width="0.5"></path><path stroke="#120071" stroke-linecap="round" stroke-linejoin="round" d="m30.0995625 124.2276525 2.0658225000000003 0.6433875" stroke-width="0.5"></path><path stroke="#120071" stroke-linecap="round" stroke-linejoin="round" d="m29.70146025 125.97128250000002 2.1037275 0.548625" stroke-width="0.5"></path><path stroke="#120071" stroke-linecap="round" stroke-linejoin="round" d="m82.44646725 162.3401325 0.45486000000000004 2.1795375000000003" stroke-width="0.5"></path><path stroke="#120071" stroke-linecap="round" stroke-linejoin="round" d="m84.13314 162.1506075 0.4738125 2.1994875" stroke-width="0.5"></path><path stroke="#120071" stroke-linecap="round" stroke-linejoin="round" d="m85.8578175 161.828415 0.45486000000000004 2.160585" stroke-width="0.5"></path><path stroke="#120071" stroke-linecap="round" stroke-linejoin="round" d="m87.56354250000001 161.43041250000002 0.5117175 2.1236775000000003" stroke-width="0.5"></path><path stroke="#120071" stroke-linecap="round" stroke-linejoin="round" d="m89.21241 160.90074 0.5496225000000001 2.140635" stroke-width="0.5"></path><path stroke="#120071" stroke-linecap="round" stroke-linejoin="round" d="m34.401879750000006 119.20125 -1.68378 -0.5985c-0.2463825 -0.0748125 -0.5137125 0.073815 -0.7770525 0.361095 -1.5650775000000001 1.7027325000000002 -2.2792875 6.1934775 -2.2304100000000004 7.275765 0.019950000000000002 0.45087000000000005 0.11471250000000001 1.09725 0.5436375000000001 1.23291l1.3835325 0.34114500000000003" stroke-width="0.5"></path><path stroke="#120071" stroke-linecap="round" stroke-linejoin="round" d="m29.77746975 126.78225 -1.402485 -0.5496225000000001c-1.32398175 -0.47082 -2.7463170000000003 -0.59451 -4.131645000000001 -0.3600975 -4.650145500000001 0.20748 -9.306475500000001 -0.23241750000000003 -13.835325 -1.3077225000000001 2.29425 -2.7660675 10.9355925 -6.3670425 16.640295 -7.826385 2.5545975000000003 1.16907 1.454355 0.67032 4.8877500000000005 2.2174425" stroke-width="0.5"></path><path stroke="#120071" stroke-linecap="round" stroke-linejoin="round" d="M12.575382750000001 124.9997175c2.80497 -2.519685 13.06725 -6.120660000000001 16.5195975 -7.311675" stroke-width="0.5"></path><path stroke="#120071" stroke-linecap="round" stroke-linejoin="round" d="m90.65289975 160.2753075 0.34114500000000003 1.8184425c0.028927500000000002 0.1925175 -0.11471250000000001 0.3780525 -0.4738125 0.5875275 -2.57744025 1.135155 -5.3527845 1.753605 -8.1685275 1.8194400000000002 -0.4359075 -0.03591 -0.720195 -0.13266750000000002 -0.7770525 -0.29925l-0.416955 -1.8573450000000002" stroke-width="0.5"></path><path stroke="#120071" stroke-linecap="round" stroke-linejoin="round" d="m90.53998275000001 162.66631500000003 1.09725 4.279275c4.2762825 0.10773 10.411007249999999 2.25834 13.64589975 4.0897499999999996 -6.866091750000001 2.5625775 -13.979962500000001 4.404960000000001 -21.22689975 5.496225 -0.6473775 -1.458345 -0.82992 -5.3914875 -0.6822900000000001 -7.1271375l-1.023435 -4.908697500000001" stroke-width="0.5"></path><path stroke="#120071" stroke-linecap="round" stroke-linejoin="round" d="M83.56446525 174.45177750000002c6.36075825 -0.8987475 12.59433525 -2.5386375 18.57354975 -4.8877500000000005" stroke-width="0.5"></path><path stroke="#120071" stroke-linecap="round" stroke-linejoin="round" d="M74.2209825 71.6713725c2.1416325 -6.1974675 -2.9565900000000003 -11.351550000000001 -9.855300000000002 -7.98 0 0 -0.4359075 -0.47481 -0.4738125 -0.5117175 -0.42483525 -0.41286525 -0.9106177500000001 -0.7581 -1.44039 -1.023435 -1.6799895 -0.7750575000000001 -3.59109975 -0.885381 -5.34909375 -0.308826 -1.75809375 0.57665475 -3.23259825 1.797495 -4.1271562500000005 3.4170360000000004 -0.9460290000000001 1.8004875 -1.176252 3.89214525 -0.6443850000000001 5.855325000000001 0.29925 1.1381475 1.74363 3.6578325 2.9565900000000003 4.0747875 0 0 -1.62792 1.4593425000000002 -1.2698175 4.8328875 0.3820425 3.600975 6.494722500000001 6.401955 10.878735 0.4179525 2.87679 -3.9271575 5.174032500000001 -4.283265 5.4014625 -3.4683075 -0.2411955 -0.8666280000000001 -0.5258820000000001 -1.7205877500000002 -0.8528625000000001 -2.5585875000000002 -1.6867725000000002 -0.22743000000000002 -1.32468 -2.2403850000000003 -0.11371500000000001 -1.7057250000000002 0.40598249999999997 0.1785525 0.7371525 0.28129499999999996 0.720195 -0.15162 -0.1107225 -2.7660675 1.7955 -3.89025 3.56307 -1.7246775l0.5875275 0.8329125000000001 0.0189525 0.0019950000000000002Z" stroke-width="0.5"></path><path stroke="#120071" stroke-linecap="round" stroke-linejoin="round" d="M64.1003475 94.7375625c-3.9610725 3.6388800000000003 -9.61191 8.1346125 -14.1196125 11.6557875 -0.18822825 0.1466325 -0.41845125 0.22942500000000002 -0.6571530000000001 0.2364075 -0.238602 0.006982500000000001 -0.473214 -0.06284250000000001 -0.6695220000000001 -0.19850250000000003 -1.91919 -1.4084699999999999 -3.4672102500000004 -3.261825 -4.510695 -5.4014625 -0.11800425 -0.23241750000000003 -0.15261750000000002 -0.49875 -0.098154 -0.7541100000000001 0.05436375 -0.25536000000000003 0.19471200000000002 -0.48378750000000004 0.397404 -0.648375 6.1914825 -5.01543 11.1590325 -9.47625 17.777445 -15.38943 1.3610887500000002 -1.16258625 2.988909 -1.96996275 4.738125 -2.35011 1.127175 -0.2703225 1.3376475 -0.33715500000000004 1.46832 -0.69825 0.09246825000000002 -0.38074575 0.0959595 -0.7777507499999999 0.009975000000000001 -1.1600925000000002 0 -0.548625 6.595470000000001 -0.548625 6.595470000000001 0 -0.03391500000000001 0.46034625000000007 0.014364 0.9230865 0.1426425 1.366575 0.16458750000000003 0.33117 1.258845 0.4758075 1.5630825 0.5097225000000001 0.8012917500000001 0.09625875 1.5676710000000003 0.384237 2.23410075 0.839496 0.66642975 0.45525899999999997 1.21325925 1.06443225 1.5943042500000002 1.775949 2.3151975000000005 4.2543375 7.296712500000001 15.237810000000001 7.296712500000001 15.237810000000001l12.489697500000002 -5.6468475c1.3456275 -0.5875275 4.9466025 7.7695275 3.600975 8.357055l-14.896665 6.729135000000001c-1.497048 0.6992475 -3.2058652500000004 0.7960050000000001 -4.77233925 0.2703225 -1.56657375 -0.5256825 -2.8708050000000003 -1.633905 -3.64257075 -3.0952425000000003l-2.4069675 -4.4538375" stroke-width="0.5"></path><path stroke="#120071" stroke-linecap="round" stroke-linejoin="round" d="M110.0990625 94.39542000000002c-0.8528625000000001 0.22743000000000002 -1.8922575000000001 1.5900150000000002 -1.3835325 2.4069675 0.5526150000000001 0.8887725000000001 2.7341475 -0.90573 3.1650675 -1.5720600000000002 0.1466325 -0.24388875000000002 0.21147000000000002 -0.52857525 0.18453750000000002 -0.8120647500000001 -0.011970000000000001 -0.12458775 -0.041895 -0.24608325 -0.0867825 -0.36099525000000005" stroke-width="0.5"></path><path stroke="#120071" stroke-linecap="round" stroke-linejoin="round" d="M107.99533500000001 90.66277500000001c0.4718175 -4.52865 -0.819945 -4.398975 -1.2319125000000002 -3.2418750000000003 -0.293265 0.8229375 -0.3062325 1.77525075 -0.847875 2.6356942500000002" stroke-width="0.5"></path><path stroke="#120071" stroke-linecap="round" stroke-linejoin="round" d="M107.06566500000001 96.31062000000001c1.10922 -0.97764975 1.1231849999999999 -3.3338445 1.0304175 -4.67358675" stroke-width="0.5"></path><path stroke="#120071" stroke-linecap="round" stroke-linejoin="round" d="m109.7000625 94.56699 -0.6633375 -0.9665775" stroke-width="0.5"></path><path stroke="#120071" stroke-linecap="round" stroke-linejoin="round" d="M108.733485 96.84129000000001c-0.0189525 0 -0.037905 0.017955 -0.056857500000000005 0.017955 -1.326675 0.5685749999999999 -0.69825 2.2114575000000003 0.6254325000000001 1.74363 0.983535 -0.34513499999999997 1.66782 -0.6054825 2.4448725000000002 -0.9087225000000001 0.22044750000000002 -0.080598 0.40498500000000004 -0.23590875 0.5216925 -0.43880025000000006 0.0728175 -0.12777975 0.11670750000000002 -0.26922524999999997 0.129675 -0.41406225" stroke-width="0.5"></path><path stroke="#120071" stroke-linecap="round" stroke-linejoin="round" d="M108.3494475 98.55309975c-0.40698 0.66234 0.17955000000000002 1.54403025 1.1800425 1.20488025 0.947625 -0.32209275000000004 1.596 -0.58942275 2.3311575 -0.87171525 0.153615 -0.047580750000000005 0.293265 -0.133665 0.40398750000000005 -0.25017300000000003 0.1107225 -0.116508 0.1905225 -0.2595495 0.23042250000000003 -0.41535900000000003 0.039900000000000005 -0.15590925 0.0389025 -0.3193995 -0.0019950000000000002 -0.4749097500000001 -0.0408975 -0.15561 -0.121695 -0.298053 -0.23341500000000004 -0.41376300000000005" stroke-width="0.5"></path><path stroke="#120071" stroke-linecap="round" stroke-linejoin="round" d="M108.25967250000001 99.26611275c-0.34114500000000003 0.5686747500000001 0.056857500000000005 1.3826347500000002 1.023435 1.27091475 0.98553 -0.11571000000000001 1.685775 -0.25137000000000004 2.4638250000000004 -0.37905 0.177555 -0.017955 0.34713 -0.085785 0.488775 -0.19551000000000002 0.14064749999999998 -0.1107225 0.2483775 -0.25775400000000004 0.3102225 -0.4259325 0.0608475 -0.16807875000000003 0.073815 -0.3501225 0.03591 -0.525084 -0.0369075 -0.17506125 -0.12269250000000001 -0.33605775 -0.24738000000000002 -0.46453575" stroke-width="0.5"></path><path stroke="#120071" stroke-linecap="round" stroke-linejoin="round" d="M108.14595750000001 99.5505c-0.6842850000000001 0.51471 -1.5132075 0.7999950000000001 -2.3690625 0.8149575" stroke-width="0.5"></path><path stroke="#120071" stroke-linecap="round" stroke-linejoin="round" d="m101.05772250000001 94.3635 1.326675 -0.588525c0.8528625000000001 -0.37905 4.055835 6.936615 3.2029725 7.315665l-1.326675 0.6633375" stroke-width="0.5"></path><path stroke="#120071" stroke-linecap="round" stroke-linejoin="round" d="m101.7400125 95.19152475 1.4782950000000001 -0.7012425" stroke-width="0.5"></path><path stroke="#120071" stroke-linecap="round" stroke-linejoin="round" d="m102.47916000000001 96.42333750000002 1.4782950000000001 -0.6633375" stroke-width="0.5"></path><path stroke="#120071" stroke-linecap="round" stroke-linejoin="round" d="m103.00983000000001 97.50452775000001 1.4972475 -0.6254325000000001" stroke-width="0.5"></path><path stroke="#120071" stroke-linecap="round" stroke-linejoin="round" d="m103.578405 98.88716250000002 1.5162 -0.58653" stroke-width="0.5"></path><path stroke="#120071" stroke-linecap="round" stroke-linejoin="round" d="m104.05221750000001 100.3654575 1.5351525 -0.5306700000000001" stroke-width="0.5"></path><path stroke="#120071" stroke-linecap="round" stroke-linejoin="round" d="M4.987500000000001 176.5166025h189.525" stroke-width="0.5"></path><path stroke="#120071" stroke-linecap="round" stroke-linejoin="round" d="M171.03035250000002 176.5166025v-60.951240000000006" stroke-width="0.5"></path><path stroke="#120071" stroke-linecap="round" stroke-linejoin="round" d="M171.03035250000002 120.94787250000002H83.1665625" stroke-width="0.5"></path><path stroke="#120071" stroke-linecap="round" stroke-linejoin="round" d="M171.03035250000002 133.1353275H86.1610575" stroke-width="0.5"></path><path stroke="#120071" stroke-linecap="round" stroke-linejoin="round" d="M81.44178525 163.6488525c-2.042481 1.47231 -3.7069095000000005 3.4084575 -4.856628000000001 5.648842500000001 -1.14981825 2.2403850000000003 -1.7522085 4.7211675 -1.7577945000000001 7.2388575" stroke-width="0.5"></path><path stroke="#120071" stroke-linecap="round" stroke-linejoin="round" d="M159.88628250000002 176.53655250000003c0 -9.286725 -8.718150000000001 -19.1988825 -21.321562500000002 -13.645800000000001 -0.05586000000000001 -3.05634 -1.3037325 -5.971035 -3.477285 -8.119650000000002 -2.1745500000000004 -2.1496125 -5.1022125 -3.3645675000000006 -8.15955 -3.3855150000000003h-19.1230725c-3.0573375 0.0209475 -5.985997500000001 1.2359025000000001 -8.15964975 3.3855150000000003 -2.17405125 2.1496125 -3.42192375 5.0633099999999995 -3.477285 8.1206475 -1.6772962500000002 -0.7610925000000001 -3.4594297500000004 -1.2658274999999999 -5.2867500000000005 -1.49625" stroke-width="0.5"></path><path stroke="#120071" stroke-linecap="round" stroke-linejoin="round" d="M173.11512750000003 113.48058750000001c0 0.408975 -0.1206975 0.8079750000000001 -0.3481275 1.1481225000000002 -0.22743000000000002 0.33915000000000006 -0.5496225000000001 0.604485 -0.9266775 0.7600950000000001 -0.3780525 0.1566075 -0.7930125000000001 0.19750500000000001 -1.1940075 0.117705 -0.40099500000000005 -0.07980000000000001 -0.7690725 -0.27630750000000004 -1.05735 -0.5655825 -0.289275 -0.2882775 -0.4857825 -0.656355 -0.5655825 -1.05735 -0.07980000000000001 -0.40099500000000005 -0.0389025 -0.815955 0.117705 -1.1940075 0.15561 -0.37705500000000003 0.420945 -0.6992475 0.7600950000000001 -0.9266775 0.34014750000000005 -0.22743000000000002 0.7391475000000001 -0.3481275 1.1481225000000002 -0.3481275 0.5476275 0.0019950000000000002 1.0723125 0.21945 1.4593425000000002 0.60648 0.38703000000000004 0.38703000000000004 0.604485 0.911715 0.60648 1.4593425000000002v0Z" stroke-width="0.5"></path><path stroke="#120071" stroke-linecap="round" stroke-linejoin="round" d="M46.322902500000005 153.07335750000001c0.0037905 0.6443850000000001 -0.1837395 1.2758025 -0.5388495000000001 1.8144525 -0.35511 0.5376525000000001 -0.8617402500000001 0.9585975 -1.455951 1.20897s-1.249269 0.3182025 -1.8822825 0.19650750000000003c-0.6331132500000001 -0.12269250000000001 -1.215753 -0.42992250000000004 -1.6743037500000002 -0.8827875000000001s-0.77236425 -1.0324125 -0.90183975 -1.66383c-0.12937575 -0.6314175000000001 -0.06872775 -1.2877725 0.1745625 -1.8842775 0.24329025 -0.5975025 0.6581505000000001 -1.10922 1.19211225 -1.470315 0.53396175 -0.361095 1.163085 -0.5556075 1.8077692500000002 -0.5595975000000001 0.42812700000000004 -0.0029925000000000004 0.8524635 0.07980000000000001 1.24896975 0.24039750000000001 0.3964065 0.16159500000000002 0.7572022500000001 0.39999750000000006 1.06163925 0.7012425 0.30453675 0.3002475 0.54672975 0.6583500000000001 0.7128135000000001 1.05336 0.16608375000000003 0.39401250000000004 0.25286625 0.81795 0.25536000000000003 1.2458775000000002v0Z" stroke-width="0.5"></path><path stroke="#120071" stroke-linecap="round" stroke-linejoin="round" d="M54.77561775 161.29575c0.00389025 0.6443850000000001 -0.18344025000000003 1.2758025 -0.53835075 1.8144525 -0.35501025 0.5386500000000001 -0.8616405 0.959595 -1.4557515 1.2099675 -0.59421075 0.2503725 -1.249269 0.3182025 -1.882482 0.19650750000000003 -0.6331132500000001 -0.121695 -1.2158527500000003 -0.428925 -1.6744035000000002 -0.8827875000000001 -0.4586505 -0.452865 -0.77256375 -1.0314150000000002 -0.902139 -1.66383 -0.12957525 -0.6314175000000001 -0.06882750000000001 -1.286775 0.17436300000000002 -1.8842775 0.2431905 -0.5975025 0.65805075 -1.1082225 1.1920125000000001 -1.470315 0.5340615 -0.361095 1.1631847499999999 -0.5556075 1.8079687500000001 -0.5595975000000001 0.8644335000000001 -0.004987500000000001 1.695351 0.33316500000000004 2.31021 0.9406425 0.6149587500000001 0.6074775 0.96328575 1.434405 0.9685725000000001 2.2992375000000003Z" stroke-width="0.5"></path><path stroke="#120071" stroke-linecap="round" stroke-linejoin="round" d="m39.8790525 164.63438250000002 14.820855000000002 -15.010380000000001" stroke-width="0.5"></path><path stroke="#120071" stroke-linecap="round" stroke-linejoin="round" d="M156.30426 45.5169225v3.0134475000000003" stroke-width="0.5"></path><path stroke="#120071" stroke-linecap="round" stroke-linejoin="round" d="M153.461385 51.373245000000004h-3.0134475000000003" stroke-width="0.5"></path><path stroke="#120071" stroke-linecap="round" stroke-linejoin="round" d="M162.1605825 51.373245000000004h-3.0134475000000003" stroke-width="0.5"></path><path stroke="#120071" stroke-linecap="round" stroke-linejoin="round" d="M156.30426 57.248520000000006v-3.03230025" stroke-width="0.5"></path><path stroke="#120071" stroke-linecap="round" stroke-linejoin="round" d="M159.147135 51.37125c-0.37306500000000004 0.0004987500000000001 -0.7431375 -0.072618 -1.0882725 -0.2152605 -0.34513499999999997 -0.14274225000000001 -0.6593475000000001 -0.35211749999999997 -0.9226875000000001 -0.6161557500000001 -0.2643375 -0.264138 -0.4738125 -0.577752 -0.616455 -0.9228870000000001 -0.1426425 -0.34513499999999997 -0.2164575 -0.71510775 -0.21546 -1.08857175 0 0.373464 -0.0728175 0.74343675 -0.21546 1.08857175 -0.1426425 0.34513499999999997 -0.35211749999999997 0.658749 -0.616455 0.9228870000000001 -0.26334 0.26403825000000003 -0.5775525 0.47341350000000004 -0.9226875000000001 0.6161557500000001 -0.34513499999999997 0.1426425 -0.7152075 0.21575925 -1.0882725 0.2152605 0.37306500000000004 -0.0004987500000000001 0.7431375 0.07271775000000001 1.0882725 0.21536025000000003 0.34513499999999997 0.1426425 0.6593475000000001 0.35201775 0.9226875000000001 0.6161557500000001 0.2643375 0.26403825000000003 0.4738125 0.57765225 0.616455 0.9228870000000001 0.1426425 0.34513499999999997 0.21546 0.715008 0.21546 1.088472 -0.0009975000000000001 -0.373464 0.0728175 -0.743337 0.21546 -1.088472 0.1426425 -0.34523475000000003 0.35211749999999997 -0.65884875 0.616455 -0.9228870000000001 0.26334 -0.264138 0.5775525 -0.47351325000000005 0.9226875000000001 -0.6161557500000001 0.34513499999999997 -0.1426425 0.7152075 -0.21585900000000002 1.0882725 -0.21536025000000003v0Z" stroke-width="0.5"></path><path stroke="#120071" stroke-linecap="round" stroke-linejoin="round" d="M24.98228775 68.60206500000001v1.72368" stroke-width="0.5"></path><path stroke="#120071" stroke-linecap="round" stroke-linejoin="round" d="M23.35257225 71.95566h-1.74363" stroke-width="0.5"></path><path stroke="#120071" stroke-linecap="round" stroke-linejoin="round" d="M28.336980000000004 71.95566h-1.7246775" stroke-width="0.5"></path><path stroke="#120071" stroke-linecap="round" stroke-linejoin="round" d="M24.98228775 75.33020250000001V73.585575" stroke-width="0.5"></path><path stroke="#120071" stroke-linecap="round" stroke-linejoin="round" d="M26.61220275 71.95566c-0.214263 0 -0.42633150000000003 -0.04219425 -0.6242355 -0.12428850000000001 -0.197904 -0.0819945 -0.37765350000000003 -0.20219325 -0.52897425 -0.35381325 -0.15142049999999999 -0.15152025000000002 -0.27141975 -0.33146925 -0.35321475 -0.5294730000000001 -0.081795 -0.19800375000000003 -0.12378975 -0.41017200000000004 -0.1234905 -0.62433525 0 0.43231650000000005 -0.1717695 0.8468775000000001 -0.47740350000000004 1.1525115000000001s-0.720195 0.47740350000000004 -1.1525115000000001 0.47740350000000004c0.43231650000000005 0 0.8468775000000001 0.1717695 1.1525115000000001 0.47740350000000004s0.47740350000000004 0.720195 0.47740350000000004 1.1525115000000001c0.0007980000000000001 -0.43181775000000006 0.17286675 -0.84578025 0.4784010000000001 -1.1509155 0.30553425 -0.30523500000000003 0.71969625 -0.47670525 1.1515140000000001 -0.47700450000000005v0Z" stroke-width="0.5"></path><path stroke="#120071" stroke-linecap="round" stroke-linejoin="round" d="M189.0252525 122.55983250000001v7.391475000000001" stroke-width="0.5"></path><path stroke="#120071" stroke-linecap="round" stroke-linejoin="round" d="M192.71201250000001 126.24559500000001h-7.391475000000001" stroke-width="0.5"></path><path stroke="#120071" stroke-linecap="round" stroke-linejoin="round" d="M72.59096775 79.650375c0 5.137125000000001 2.8708050000000003 6.8618025 2.35011 13.6268475 -0.2423925 3.1471125 -0.96647775 6.2174175 -0.96647775 8.41491" stroke-width="0.5"></path><path stroke="#120071" stroke-linecap="round" stroke-linejoin="round" d="m59.76012525 98.56497 3.2977350000000003 -6.34809c1.2184462500000002 2.56646775 2.12277975 5.27069025 2.6932500000000004 8.053815 0.23142000000000001 1.44039 12.603412500000001 2.2553475 12.603412500000001 0.15261750000000002 0.3600975 -1.596 0.7182000000000001 -3.0922500000000004 0.947625 -4.322167500000001 1.0703175 -5.7436050000000005 0.2084775 -7.655812500000001 -1.2319125000000002 -9.875250000000001" stroke-width="0.5"></path><path stroke="#120071" stroke-linejoin="round" d="M120.735405 84.21693 129.58123500000002 70.8225c-3.8593275000000005 2.9555925000000003 -9.900187500000001 9.3854775 -14.7300825 15.582945 -1.2199425000000002 1.2718125 -3.6907500000000004 3.5121975 -5.15109 2.4937500000000004 -0.09975 -0.38094525 -0.32319000000000003 -0.7179007500000001 -0.6354075 -0.9580987500000001 -0.31221750000000004 -0.24009825 -0.6952575 -0.36977325 -1.0892700000000002 -0.36857625 0.065835 0.337554 0.10374 0.67979625 0.11371500000000001 1.023435 1.0613400000000002 0.4738125 0.5875275 1.97106 -0.69825 2.2752975 -0.1486275 0.05356575 -0.3082275 0.07511175 -0.46583250000000004 0.0632415 -0.15760500000000002 -0.011870250000000002 -0.31221750000000004 -0.05695725 -0.45087000000000005 -0.1322685 -0.13965000000000002 -0.0752115 -0.26234250000000003 -0.17905125 -0.35910000000000003 -0.30473625 -0.09576000000000001 -0.12558525 -0.165585 -0.270123 -0.20249250000000002 -0.42423675000000005 -0.0209475 -0.21117075000000002 0.0109725 -0.42443625 0.093765 -0.61994625 0.0827925 -0.19541025 0.21346500000000002 -0.36678075000000004 0.38004750000000004 -0.49825125000000003 0.11371500000000001 -0.399 0.17057250000000002 -0.798 0.28428749999999997 -1.1760525000000002 -1.44039 0.5506200000000001 -2.3311575 2.1226800000000003 -1.5351525 3.25983 0.277305 0.3393495 0.6463800000000001 0.5902207500000001 1.0643325 0.7217910000000001 0.4179525 0.13147050000000002 0.8648325 0.1378545 1.2857775 0.018354000000000002 1.3137075 -0.289275 2.7291600000000003 -0.6593475000000001 4.2044625 -1.0902675 -0.349125 0.504735 -0.6812925000000001 1.00079175 -0.9975 1.48827 -0.45486000000000004 0.69825 -0.8907675 1.4014875 -1.2887700000000002 2.0458725 -0.253365 0.39331425000000003 -0.4099725 0.8416905 -0.45486000000000004 1.3077225000000001 0.34114500000000003 -0.43341375000000004 0.8029875000000001 -0.75620475 1.326675 -0.9276750000000001 0.0887775 -0.15561 0.20748 -0.291669 0.3501225 -0.40029675000000003 0.141645 -0.108528 0.3042375 -0.1873305 0.4778025 -0.23151975000000002 0.173565 -0.044289 0.3541125 -0.053067 0.5306700000000001 -0.025935 0.177555 0.027231750000000002 0.34713 0.08977500000000001 0.49875 0.18393900000000002 0.9097200000000001 0.798 -0.26533500000000004 2.6154450000000002 -1.4782950000000001 2.2733025000000002 -0.3620925 0.27720525 -0.7740600000000001 0.48328875 -1.21296 0.6074775 0.83391 0.851865 2.3311575 0.5875275 3.2977350000000003 -0.492765 0.44488500000000003 -0.41555850000000005 0.7112175000000001 -0.9875250000000001 0.7431375 -1.59550125 0.031920000000000004 -0.6079762500000001 -0.173565 -1.2045810000000001 -0.572565 -1.6643287500000001 0.023940000000000003 -1.98702 1.995 -3.3386325 3.4483575 -4.0648125 7.581 -2.6304075 15.671722500000001 -6.323152500000001 19.768455000000003 -9.1081725l-15.391425 4.1326425Zm-2.6583375 2.8069650000000004c-0.0668325 0.059750250000000005 -0.145635 0.10563525 -0.23042250000000003 0.13516125 -0.08478750000000002 0.02942625 -0.1745625 0.041895 -0.2643375 0.03660825000000001 -0.08977500000000001 -0.005286750000000001 -0.177555 -0.02822925 -0.25835250000000004 -0.06743099999999999 -0.08079750000000001 -0.03920175 -0.153615 -0.0939645 -0.21346500000000002 -0.161196 -0.05985 -0.0672315 -0.10573500000000001 -0.14553525 -0.13466250000000002 -0.23042250000000003 -0.029925 -0.08498700000000001 -0.041895 -0.17486175 -0.0369075 -0.26463675 0.004987500000000001 -0.08977500000000001 0.027930000000000003 -0.177555 0.06783000000000002 -0.25845225 0.0389025 -0.080997 0.093765 -0.15331575 0.1605975 -0.21306600000000003 0.06783000000000002 -0.059750250000000005 0.145635 -0.10563525 0.23042250000000003 -0.13516125 0.08478750000000002 -0.02942625 0.1745625 -0.041895 0.2643375 -0.03660825000000001 0.08977500000000001 0.005286750000000001 0.177555 0.02822925 0.25935 0.06743099999999999 0.08079750000000001 0.03920175 0.15261750000000002 0.0939645 0.2124675 0.161196 0.05985 0.0672315 0.10573500000000001 0.14553525 0.13566000000000003 0.23042250000000003 0.028927500000000002 0.08498700000000001 0.041895 0.17486175 0.03591 0.26463675 -0.004987500000000001 0.08977500000000001 -0.027930000000000003 0.177555 -0.0668325 0.258552 -0.039900000000000005 0.08089725 -0.093765 0.153216 -0.16159500000000002 0.21296625Z" stroke-width="0.5"></path><path stroke="#120071" stroke-linecap="round" stroke-linejoin="round" d="M71.73820500000001 131.4475575c-0.8907675 -3.2029725 -1.66782 -6.04485 -2.236395 -8.24334 1.2887700000000002 -2.8428750000000003 2.5206825000000004 -5.819415 3.7336425 -8.927624999999999 -0.056857500000000005 0.32219250000000005 -2.008965 12.394935 -1.4972475 17.170965Z" stroke-width="0.5"></path><path stroke="#120071" stroke-linecap="round" stroke-linejoin="round" d="M103.12354500000001 94.28270250000001c0.8249325 -0.3197985 1.2957525 -2.26422525 2.0109600000000003 -3.28367025" stroke-width="0.5"></path></g></g></svg>