<svg xmlns="http://www.w3.org/2000/svg" fill="none" viewBox="-0.25 -0.25 200 200" id="Deadline--Streamline-Bangalore.svg"><desc>Deadline Streamline Illustration: https://streamlinehq.com</desc><g id="deadline--work-deadline"><g id="flame"><path id="Vector" stroke="#120071" stroke-linecap="round" stroke-linejoin="round" d="M119.26908 58.69589250000001c24.784882500000002 34.8436725 23.135017500000004 32.2122675 26.9325 38.7877875 13.190940000000001 22.862700000000004 12.3739875 56.9373 -18.8328 71.75616000000001 -38.7778125 18.4128525 -65.68936500000001 -19.709602500000003 -74.85439500000001 -37.026202500000004 -9.165030000000002 -17.3166 -10.414897500000002 -39.090030000000006 -1.474305 -56.524335 2.128665 -4.152592500000001 4.81194 -8.07975 6.105697500000001 -12.5685 3.628905 -12.5685 -4.1994750000000005 -27.179880000000004 2.05086 -38.67008250000001 0.399 5.8573200000000005 5.029395 4.7141850000000005 7.4423475 18.14253 -2.4528525 -20.249250000000004 -2.7141975 -20.791890000000002 -2.172555 -22.785892500000003 0.5985 -2.2014825 2.447865 -4.02591 2.523675 -6.306195000000001 0.07980000000000001 -2.43789 -1.917195 -4.5885 -1.8264225 -7.025392500000001 3.0872625000000005 1.9022325000000002 7.52913 5.4044550000000005 8.5336125 8.8887225 0.6603450000000001 2.29425 0.7551075 4.7091975 1.210965 7.0533225 1.0613400000000002 5.4533325 4.0668075 10.374 7.7805 14.509635 3.7136925 4.135635 6.7750200000000005 2.6613300000000004 12.035835 11.1370875 -3.7296525000000003 -8.9405925 -2.1216825 -12.45678 -1.2857775 -18.064725 3.16407 6.066795 3.3516 9.6408375 7.495215000000001 15.086190000000002a48.788722500000006 48.788722500000006 0 0 0 7.595962500000001 8.21541 39.952867499999996 39.952867499999996 0 0 1 12.131595 18.19839c0.7850325 -4.274287500000001 -1.8683175 -5.39049 -1.39251 -12.80391Z" stroke-width="0.5"></path></g><g id="effects"><path id="Vector_2" stroke="#120071" stroke-linecap="round" stroke-linejoin="round" d="m135.07746 66.8933475 10.7660175 15.9470325" stroke-width="0.5"></path><path id="Vector_3" stroke="#120071" stroke-linecap="round" stroke-linejoin="round" d="m83.2044675 4.987500000000001 10.76502 15.9470325" stroke-width="0.5"></path><path id="Vector_4" stroke="#120071" stroke-linecap="round" stroke-linejoin="round" d="m31.253670000000003 26.02278 10.7660175 15.9470325" stroke-width="0.5"></path><path id="Vector_5" stroke="#120071" stroke-linecap="round" stroke-linejoin="round" d="M25.87116 67.70232 36.63618 83.65035" stroke-width="0.5"></path><path id="Vector_6" stroke="#120071" stroke-linecap="round" stroke-linejoin="round" d="m37.7284425 140.003115 10.7660175 15.9470325" stroke-width="0.5"></path><path id="Vector_7" stroke="#120071" stroke-linecap="round" stroke-linejoin="round" d="m10.76901 19.40736 10.76502 15.9470325" stroke-width="0.5"></path></g><g id="clock"><path id="Vector_8" fill="#6153bd" d="M70.623 96.42333750000002A34.15739250000001 34.15739250000001 0 0 1 92.19892500000002 75.83992500000001a15.828330000000001 15.828330000000001 0 0 0 -14.054775000000001 -0.073815 6.824895 6.824895 0 0 0 -0.2264325 -0.389025c-1.29675 -2.128665 -3.0922500000000004 -3.4004775 -4.00197 -2.8438725000000002 -0.9097200000000001 0.5566050000000001 -0.5985 2.73315 0.69825 4.85982 0.09975 0.16159500000000002 0.1995 0.31920000000000004 0.29925 0.47082A15.840300000000001 15.840300000000001 0 0 0 70.623 96.42333750000002Z" stroke-width="0.5"></path><path id="Vector_9" stroke="#120071" stroke-linecap="round" stroke-linejoin="round" d="M70.623 96.42333750000002A34.15739250000001 34.15739250000001 0 0 1 92.19892500000002 75.83992500000001a15.828330000000001 15.828330000000001 0 0 0 -14.054775000000001 -0.073815 6.824895 6.824895 0 0 0 -0.2264325 -0.389025c-1.29675 -2.128665 -3.0922500000000004 -3.4004775 -4.00197 -2.8438725000000002 -0.9097200000000001 0.5566050000000001 -0.5985 2.73315 0.69825 4.85982 0.09975 0.16159500000000002 0.1995 0.31920000000000004 0.29925 0.47082A15.840300000000001 15.840300000000001 0 0 0 70.623 96.42333750000002v0Z" stroke-width="0.5"></path><path id="Vector_10" fill="#a8e5f8" d="M128.36628 150.5556675c-17.61186 10.743075 -41.63265750000001 3.4762875 -53.6525325 -16.229325a44.289 44.289 0 0 1 -6.050835 -30.914520000000003c-2.86482 11.696685000000002 -2.551605 10.312155 -2.86482 11.6996775 -1.995 8.8109175 -0.6054825 21.1998675 5.8643025 31.808280000000003 12.019875 19.7056125 36.0406725 26.9724 53.653529999999996 16.229325a34.878585 34.878585 0 0 0 15.3146175 -20.538525c0.2822925 -0.97755 0.21346500000000002 -0.9097200000000001 3.1710525 -13.005405000000001a34.9414275 34.9414275 0 0 1 -15.435315000000001 20.950492500000003Z" stroke-width="0.5"></path><path id="Vector_11" stroke="#120071" stroke-linecap="round" stroke-linejoin="round" d="M138.4938975 95.42484c-12.019875 -19.70661 -36.0406725 -26.9724 -53.653529999999996 -16.230322500000003a35.3703525 35.3703525 0 0 0 -16.176457499999998 24.2143125c-2.8658175000000004 11.700675 -2.5536000000000003 10.3151475 -2.8658175000000004 11.70267 -1.995 8.8109175 -0.6054825 21.1998675 5.8643025 31.808280000000003 12.019875 19.7056125 36.0406725 26.9724 53.653529999999996 16.229325a34.878585 34.878585 0 0 0 15.3146175 -20.538525c0.29925 -1.0214400000000001 0.2064825 -0.89775 3.591 -14.716117500000001 2.33814 -9.550065 0.7600950000000001 -21.8322825 -5.727645 -32.46962250000001Z" stroke-width="0.5"></path><path id="Vector_12" fill="#6153bd" d="M115.39678500000001 155.181075a35.840175 35.840175 0 0 1 -7.281750000000001 0.26334l1.4393925 7.367535a3.5979825000000005 3.5979825000000005 0 1 0 7.0623000000000005 -1.3795425000000001l-1.2199425000000002 -6.251332500000001Z" stroke-width="0.5"></path><path id="Vector_13" stroke="#120071" stroke-linecap="round" stroke-linejoin="round" d="M115.39678500000001 155.181075a35.840175 35.840175 0 0 1 -7.281750000000001 0.26334l1.4393925 7.367535a3.5979825000000005 3.5979825000000005 0 1 0 7.0623000000000005 -1.3795425000000001l-1.2199425000000002 -6.251332500000001Z" stroke-width="0.5"></path><path id="Vector_14" fill="#6153bd" d="m148.497825 139.05948 -6.2393625 -4.925655a36.003765 36.003765 0 0 1 -3.4523475 6.441855l5.2328850000000005 4.131645000000001a3.5959875 3.5959875 0 0 0 5.033385000000001 -0.6104700000000001 3.5999775 3.5999775 0 0 0 -0.57456 -5.037375Z" stroke-width="0.5"></path><path id="Vector_15" stroke="#120071" stroke-linecap="round" stroke-linejoin="round" d="m148.497825 139.05948 -6.2393625 -4.925655a36.003765 36.003765 0 0 1 -3.4523475 6.441855l5.2328850000000005 4.131645000000001a3.5959875 3.5959875 0 0 0 5.033385000000001 -0.6104700000000001 3.5999775 3.5999775 0 0 0 -0.57456 -5.037375v0Z" stroke-width="0.5"></path><path id="Vector_16" stroke="#120071" stroke-linecap="round" stroke-linejoin="round" d="M128.3672775 150.55467c17.61186 -10.7420775 22.1454975 -35.425215 10.1256225 -55.131825000000006 -12.019875 -19.7056125 -36.0406725 -26.9724 -53.6525325 -16.229325s-22.1454975 35.425215 -10.126619999999999 55.131825000000006c12.019875 19.7056125 36.0406725 26.9724 53.653529999999996 16.229325Z" stroke-width="0.5"></path><path id="Vector_17" fill="#6153bd" d="M109.4546775 110.82225 90.99294750000001 86.3835l13.2757275 27.597832500000003a3.0274125000000005 3.0274125000000005 0 0 0 3.062325 1.4194425000000002 3.022425 3.022425 0 0 0 1.985025 -1.2099675 3.0453675000000002 3.0453675000000002 0 0 0 0.5476275 -2.2593375000000004 3.0533475 3.0533475 0 0 0 -0.4079775 -1.1132100000000003l-0.0009975000000000001 0.0039900000000000005Z" stroke-width="0.5"></path><path id="Vector_18" stroke="#120071" stroke-linecap="round" stroke-linejoin="round" d="M109.4546775 110.82225 90.99294750000001 86.3835l13.2757275 27.597832500000003a3.0274125000000005 3.0274125000000005 0 0 0 3.062325 1.4194425000000002 3.022425 3.022425 0 0 0 1.985025 -1.2099675 3.0453675000000002 3.0453675000000002 0 0 0 0.5476275 -2.2593375000000004 3.0533475 3.0533475 0 0 0 -0.4079775 -1.1132100000000003l-0.0009975000000000001 0.0039900000000000005Z" stroke-width="0.5"></path><path id="Vector_19" fill="#6153bd" d="m108.34446000000001 98.45325000000001 -4.434885 13.6448025a3.0403800000000003 3.0403800000000003 0 0 0 2.70921 3.3825225000000003 3.026415 3.026415 0 0 0 2.2473675 -0.68628 3.0324 3.0324 0 0 0 1.0862775 -2.0837775L108.34446000000001 98.45325000000001Z" stroke-width="0.5"></path><path id="Vector_20" stroke="#120071" stroke-linecap="round" stroke-linejoin="round" d="m108.34446000000001 98.45325000000001 -4.434885 13.6448025a3.0403800000000003 3.0403800000000003 0 0 0 2.70921 3.3825225000000003 3.026415 3.026415 0 0 0 2.2473675 -0.68628 3.0324 3.0324 0 0 0 1.0862775 -2.0837775L108.34446000000001 98.45325000000001Z" stroke-width="0.5"></path><path id="Vector_21" stroke="#120071" stroke-linecap="round" stroke-linejoin="round" d="m78.405495 133.31787 6.962550000000001 -4.247355000000001" stroke-width="0.5"></path><path id="Vector_22" stroke="#120071" stroke-linecap="round" stroke-linejoin="round" d="m129.01565250000002 102.4482375 6.964545 -4.247355000000001" stroke-width="0.5"></path><path id="Vector_23" stroke="#120071" stroke-linecap="round" stroke-linejoin="round" d="m86.52315 81.9546 4.127655 6.766042500000001" stroke-width="0.5"></path><path id="Vector_24" stroke="#120071" stroke-linecap="round" stroke-linejoin="round" d="m127.02464250000001 148.3551825 -3.7097025 -6.080760000000001" stroke-width="0.5"></path></g><g id="chat bubble"><path id="Vector_25" stroke="#120071" stroke-linecap="round" stroke-linejoin="round" d="M76.9700925 166.3161675c5.933130000000001 11.2917 -5.528145 23.886135000000003 -17.6208375 18.68916l-6.7121775 5.0184225 1.2159525000000002 -9.5550525a13.580962500000002 13.580962500000002 0 1 1 23.117062500000003 -14.149537500000001v-0.0029925000000000004Z" stroke-width="0.5"></path><path id="Vector_26" stroke="#120071" stroke-linecap="round" stroke-linejoin="round" d="m61.922805000000004 166.54758750000002 4.00596 7.4882325000000005" stroke-width="0.5"></path><path id="Vector_27" stroke="#120071" stroke-linecap="round" stroke-linejoin="round" d="m67.12177500000001 176.26623 0.8528625000000001 1.5930075000000001" stroke-width="0.5"></path></g><g id="mobile phone"><path id="Vector_28" fill="#6153bd" d="m37.8321825 121.97130750000001 -17.02932 10.467765a2.89674 2.89674 0 0 0 3.9102 0.847875l12.109650000000002 -7.443345a2.8937475 2.8937475 0 0 0 1.00947 -3.8722950000000003Z" stroke-width="0.5"></path><path id="Vector_29" fill="#6153bd" d="M24.712065000000003 100.6248075a2.8917525000000004 2.8917525000000004 0 0 0 -3.9111975 -0.847875l-12.109650000000002 7.443345a2.89275 2.89275 0 0 0 -1.0104674999999999 3.8732925000000002l17.031315000000003 -10.4687625Z" stroke-width="0.5"></path><path id="Vector_30" stroke="#120071" stroke-linecap="round" stroke-linejoin="round" d="m20.799870000000002 99.7769325 -12.109650000000002 7.443345a2.8907550000000004 2.8907550000000004 0 0 0 -0.947625 3.9760350000000004l12.993435 21.141015a2.8907550000000004 2.8907550000000004 0 0 0 3.9770325000000004 0.9486225l12.109650000000002 -7.443345a2.8917525000000004 2.8917525000000004 0 0 0 0.947625 -3.9770325000000004L24.777900000000002 100.725555a2.8897575 2.8897575 0 0 0 -3.9770325000000004 -0.9486225Z" stroke-width="0.5"></path><path id="Vector_31" stroke="#120071" stroke-linecap="round" stroke-linejoin="round" d="M24.71406 100.62381 7.678755000000001 111.09456750000001l13.121115000000001 21.345502500000002 17.034307500000004 -10.470757500000001 -13.120117500000001 -21.345502500000002Z" stroke-width="0.5"></path><path id="Vector_32" stroke="#120071" stroke-linecap="round" stroke-linejoin="round" d="m26.6123025 124.4131875 -1.4433825000000002 -9.363532500000002 -5.54211 3.4064625000000004 1.2598425 -8.763037500000001" stroke-width="0.5"></path></g><g id="paper 1"><path id="Vector_33" stroke="#120071" stroke-linecap="round" stroke-linejoin="round" d="m177.2946525 95.3211 -17.019345 10.494697500000001 14.891677500000002 24.149475000000002 17.019345 -10.495695000000001 -14.891677500000002 -24.149475000000002Z" stroke-width="0.5"></path><path id="Vector_34" stroke="#120071" stroke-linecap="round" stroke-linejoin="round" d="m170.494695 111.72 7.48524 -4.6154325" stroke-width="0.5"></path><path id="Vector_35" stroke="#120071" stroke-linecap="round" stroke-linejoin="round" d="m172.2492975 114.56487000000001 7.48524 -4.6154325" stroke-width="0.5"></path><path id="Vector_36" stroke="#120071" stroke-linecap="round" stroke-linejoin="round" d="m174.07572000000002 117.52545 7.484242500000001 -4.6154325" stroke-width="0.5"></path></g><g id="paper 2"><path id="Vector_37" stroke="#120071" stroke-linecap="round" stroke-linejoin="round" d="m167.58 146.526765 -17.019345 10.495695000000001 14.891677500000002 24.149475000000002 17.020342499999998 -10.495695000000001 -14.892675 -24.149475000000002Z" stroke-width="0.5"></path><path id="Vector_38" stroke="#120071" stroke-linecap="round" stroke-linejoin="round" d="m160.7820375 162.9246675 7.48524 -4.6154325" stroke-width="0.5"></path><path id="Vector_39" stroke="#120071" stroke-linecap="round" stroke-linejoin="round" d="m162.53664 165.77053500000002 7.48524 -4.6154325" stroke-width="0.5"></path><path id="Vector_40" stroke="#120071" stroke-linecap="round" stroke-linejoin="round" d="m164.362065 168.73111500000002 7.48524 -4.6154325" stroke-width="0.5"></path></g><g id="earphone"><path id="Vector_41" stroke="#120071" stroke-linecap="round" stroke-linejoin="round" d="m145.1631825 50.038590000000006 -8.736105 -10.508662500000002a8.77002 8.77002 0 0 1 -3.37953 2.5137l8.87775 10.683225000000002a2.0947500000000003 2.0947500000000003 0 0 0 1.426425 0.7610925000000001 2.1017325000000002 2.1017325000000002 0 0 0 1.8074700000000001 -3.449355h0.0039900000000000005Z" stroke-width="0.5"></path><path id="Vector_42" fill="#6153bd" d="M136.392165 28.4217675a8.7231375 8.7231375 0 0 0 -9.289717500000002 -2.75709 8.72214 8.72214 0 0 0 -1.4792925000000001 16.045785 8.721142500000001 8.721142500000001 0 0 0 10.76901 -13.288695Zm-3.6777825 9.215902500000002a4.73613 4.73613 0 1 1 -6.054825000000001 -7.2857400000000005 4.73613 4.73613 0 0 1 6.054825000000001 7.2857400000000005Z" stroke-width="0.5"></path><path id="Vector_43" stroke="#120071" stroke-linecap="round" stroke-linejoin="round" d="M136.392165 28.4217675a8.7231375 8.7231375 0 0 0 -9.289717500000002 -2.75709 8.72214 8.72214 0 0 0 -1.4792925000000001 16.045785 8.721142500000001 8.721142500000001 0 0 0 10.76901 -13.288695v0Zm-3.6777825 9.215902500000002a4.73613 4.73613 0 1 1 -6.054825000000001 -7.2857400000000005 4.73613 4.73613 0 0 1 6.054825000000001 7.2857400000000005v0Z" stroke-width="0.5"></path></g><g id="elements"><path id="Vector_44" stroke="#120071" stroke-linecap="round" stroke-linejoin="round" d="m160.958595 88.67076750000001 3.277785 5.4054525 3.85434 -8.07576" stroke-width="0.5"></path><g id="Group"><path id="Vector_45" stroke="#120071" stroke-linecap="round" stroke-linejoin="round" d="M16.234312499999998 150.49482000000003h10.600432500000002" stroke-width="0.5"></path><path id="Vector_46" stroke="#120071" stroke-linecap="round" stroke-linejoin="round" d="M21.53403 155.79453750000002v-10.600432500000002" stroke-width="0.5"></path></g><g id="Group_2"><path id="Vector_47" stroke="#120071" stroke-linecap="round" stroke-linejoin="round" d="M82.20497250000001 191.621745h5.7825075" stroke-width="0.5"></path><path id="Vector_48" stroke="#120071" stroke-linecap="round" stroke-linejoin="round" d="M85.096725 194.51250000000002v-5.7825075" stroke-width="0.5"></path></g></g></g></svg>