<svg xmlns="http://www.w3.org/2000/svg" fill="none" viewBox="-0.25 -0.25 200 200" id="Interface-Success-01--Streamline-Bangalore.svg"><desc>Interface Success 01 Streamline Illustration: https://streamlinehq.com</desc><g><g><path fill="#a8e5f8" d="M142.8290325 136.5368025c-7.4014500000000005 -0.399 -20.212342500000002 -0.6753075000000001 -22.743000000000002 -0.9097200000000001 -1.3017375 -5.967045000000001 -3.3984825 -15.416362500000002 -4.2294 -19.85025 0.013965000000000002 -0.0089775 0.027930000000000003 -0.017955 0.0408975 -0.027930000000000003 5.136127500000001 -3.3166875000000005 9.741585 -12.394935 2.3690625 -25.1878725 -9.8243775 0.0827925 -18.83679 2.2872675000000005 -27.13998 7.391475000000001 0.2084775 1.8762975000000002 0.37905 3.4683075 0.4738125 4.510695 -23.595862500000003 10.67325 -28.144462500000003 13.816372500000002 -29.0162775 19.10412 -1.0124625 6.1755225000000005 4.3690500000000005 14.992425 20.1086025 40.975305000000006 5.985 1.3965 15.1011525 -2.024925 17.20887 -7.467285 -2.4079650000000004 -4.8648075 -10.763024999999999 -21.699615 -13.3994175 -26.4008325 7.1051925 -2.5935 15.361500000000001 -5.810437500000001 22.172430000000002 -9.0882225 -2.78502 2.679285 -8.3201475 8.317155 -10.3271175 10.699185000000002 2.9186850000000004 8.907675 6.330135 19.25175 10.0258725 20.961465 4.3161825 1.995 6.3051975 2.5775400000000004 34.43669250000001 2.5775400000000004 3.2289075000000005 -2.8957425000000003 2.50572 -13.093185 0.0189525 -17.2876725Z" stroke-width="0.5"></path><path fill="#a8e5f8" d="M53.9418075 27.7494525c-0.7770525 1.4214375000000001 -1.4782950000000001 2.80497 -2.1226800000000003 4.1126925000000005 -5.0982225 10.5186375 -6.102705 17.474205 -6.08475 22.66719 0.0189525 2.5585875000000002 0.26533500000000004 4.6812675 0.399 6.614422500000001v0.0189525c0.3600975 0.2084775 0.69825 0.416955 1.1181975 0.6633375 0.7581 -1.197 1.3835325 -0.9665775 3.2408775000000003 -0.056857500000000005 2.5585875000000002 1.2508650000000001 2.80497 1.3645800000000001 2.9925 3.1650675 0.0189525 0.22743000000000002 0.037905 0.4359075 0.07581 0.6443850000000001 1.781535 -1.0044825 3.8094525000000004 -2.008965 6.1216574999999995 -3.49125 4.378027500000001 -2.8239225 9.6468225 -7.4483325 15.654765000000001 -17.474205 0.7581 -1.2698175 1.5351525 -2.5935 2.312205 -4.0368825L53.9418075 27.7494525Zm7.656810000000001 20.7529875L60.3856575 54.264 57.755250000000004 48.995205000000006l-5.837370000000001 0.6633375 4.189500000000001 -4.1505975 -2.42592 -5.3635575 5.2308900000000005 2.6932500000000004 4.3401225000000005 -3.94212 -0.947625 5.818417500000001 5.1171750000000005 2.8997325000000003 -5.823405 0.8887725000000001Z" stroke-width="0.5"></path></g><g><path fill="#6153bd" d="M151.9262325 19.9410225c-0.0189525 0.947625 -0.0189525 1.8573450000000002 0 2.65335 1.2698175 -0.37905 1.8573450000000002 -0.83391 1.9521075 -1.2887700000000002 0.173565 -0.81795 -1.4174475000000002 -1.4713125000000002 -1.9521075 -1.3645800000000001Z" stroke-width="0.5"></path><path fill="#6153bd" d="M145.425525 138.09090750000001c-0.600495 -0.0149625 -1.1999925000000002 0.015960000000000002 -1.7955 0.0947625 1.66782 4.131645000000001 1.7625825 10.53759 0.399 13.87323 2.1945 2.9376375 8.67825 7.3725225000000005 13.72161 8.718150000000001 -0.36608250000000003 -7.922145 -8.83785 -19.464217500000004 -12.32511 -22.6861425Z" stroke-width="0.5"></path><path fill="#6153bd" d="M140.7821625 20.35787775c-0.3241875 -0.0089775 -1.596 0.24339 -1.596 1.1181975 0 0.4738125 0.5875275 1.0044825 2.0279175 1.3645800000000001 0.15561 -0.8525632500000001 0.0019950000000000002 -1.7326575000000002 -0.4319175 -2.4827775Z" stroke-width="0.5"></path><path fill="#6153bd" d="M119.15736000000001 73.21640025c0.26533500000000004 3.9231675 0.6822900000000001 8.604435 0.6822900000000001 11.8453125 1.44039 -5.060317500000001 3.2029725 -11.181975000000001 4.2264075000000005 -14.5744725l-4.908697500000001 2.7291600000000003Z" stroke-width="0.5"></path><path fill="#6153bd" d="M111.6332175 35.3115c0 -1.2887700000000002 -1.66782 -1.7246775 -2.5585875000000002 -0.32219250000000005 -0.07581 -1.21296 -2.04687 -1.49625 -3.0134475000000003 0.15162 -0.2084775 -1.3077225000000001 -2.42592 -1.023435 -3.2029725 0.45486000000000004 -0.22743000000000002 -1.1561025 -2.1226800000000003 -0.5117175 -2.4448725000000002 1.21296 -0.34114500000000003 1.8194400000000002 -0.6443850000000001 3.4683075 -0.8528625000000001 4.9466025 2.4488625 -0.7199955 4.9904925 -1.07759925 7.543095000000001 -1.0613400000000002 -0.5306700000000001 2.008965 -0.29925 4.7191725 0.5685749999999999 2.88078 0.8528625000000001 -1.8383925 3.0324 -0.45486000000000004 1.49625 1.9521075 -0.24738000000000002 0.49825125000000003 -0.349125 1.05665175 -0.2922675 1.6102642500000002 0.057855000000000004 0.55351275 0.2703225 1.0794945 0.61446 1.5168982500000001 0.22743000000000002 -3.9610725 3.2977350000000003 -9.097199999999999 4.245360000000001 -11.181975000000001 1.2897675 -2.8239225 -0.66234 -3.5820225000000003 -2.10273 -2.160585Z" stroke-width="0.5"></path><path fill="#6153bd" d="M96.54702750000001 124.84311000000001c0.5685749999999999 1.6867725000000002 1.175055 3.525165 1.7955 5.4393675 2.236395 -2.65335 8.6991975 -8.9266275 11.030355 -11.030355 -4.0698 1.9900125000000002 -8.5256325 3.904215 -12.825855 5.590987500000001Z" stroke-width="0.5"></path><path fill="#6153bd" d="M103.64025000000001 52.25503500000001c-0.0149625 0.864234 -0.09775500000000001 1.726074 -0.2463825 2.5775400000000004 1.3117125 -0.92438325 2.3311575 -2.2050735 2.9376375 -3.6907500000000004 -0.8668275000000001 0.440496 -1.7665725 0.8126632500000001 -2.691255 1.1132100000000003Z" stroke-width="0.5"></path><path fill="#6153bd" d="M99.0108525 156.75912c0.9027375000000001 0.700245 1.7286675000000002 1.494255 2.4638250000000004 2.3690625 -4.396980000000001 10.423875 -13.816372500000002 19.1988825 -17.5310625 21.53004 0.37097025 -6.120660000000001 1.63520175 -12.154537500000002 3.7525950000000003 -17.9101125 4.264312500000001 -0.5685749999999999 9.06129 -2.7291600000000003 11.3146425 -5.98899Z" stroke-width="0.5"></path><path fill="#6153bd" d="M88.98498000000001 79.70025000000001c-1.9521075 2.35011 -7.3725225000000005 8.1685275 -12.451792500000002 11.52312 4.5029145 -1.45465425 8.9034855 -3.20925675 13.1719875 -5.2518375 -0.26533500000000004 -2.236395 -0.5117175 -4.396980000000001 -0.720195 -6.2712825Z" stroke-width="0.5"></path><path fill="#6153bd" d="M56.1402975 67.644465c-0.416955 -0.2463825 -1.1371499999999999 0.056857500000000005 -1.66782 0.83391 0.436506 0.78373575 1.1419380000000001 1.382934 1.9860225000000002 1.6867725000000002 0.30723 -1.4782950000000001 0.09975 -2.2742999999999998 -0.3182025 -2.5206825000000004Z" stroke-width="0.5"></path><path fill="#6153bd" d="M51.53484 79.7551125c-0.871815 0.98553 -1.5361500000000001 1.2718125 -1.97106 1.1371499999999999 -0.6074775 -0.18753 -0.6822900000000001 -1.326675 -0.32219250000000005 -2.5206825000000004 0.7770525 0.45486000000000004 1.554105 0.9097200000000001 2.2932525 1.3835325Z" stroke-width="0.5"></path><path fill="#6153bd" d="M37.1877975 150.22050750000002c3.15060375 0 5.704702500000001 -2.5545975000000003 5.704702500000001 -5.704702500000001 0 -3.1511025 -2.5540987500000005 -5.704702500000001 -5.704702500000001 -5.704702500000001s-5.704702500000001 2.5536000000000003 -5.704702500000001 5.704702500000001c0 3.150105 2.5540987500000005 5.704702500000001 5.704702500000001 5.704702500000001Z" stroke-width="0.5"></path><path fill="#6153bd" d="M46.1333775 76.57099275c0.037905 -1.7246775 0.8528625000000001 -3.56307 2.1945 -6.0648 -0.27900075 -0.9248820000000001 -0.3497235 -1.9000380000000001 -0.20708100000000002 -2.8555432499999998 0.1426425 -0.9554055 0.49505925000000006 -1.8675195000000002 1.0320135 -2.67060675 -0.34004775 0.52578225 -0.73605525 1.0130610000000002 -1.18104 1.4533575 0.5685749999999999 1.1561025 -0.3600975 2.9186850000000004 -2.008965 2.084775l0.22743000000000002 0.3600975c2.008965 1.1371499999999999 0.6822900000000001 3.7146900000000005 -1.4593425000000002 2.6932500000000004l0.399 0.3600975c1.97106 1.0423875 0.7391475000000001 3.56307 -1.3835325 2.6343975 -0.9286725000000001 -0.416955 -1.6867725000000002 -0.720195 -2.312205 -0.98553 -1.629915 1.3077225000000001 -3.6578325 1.6109625 -7.0313775000000005 1.1371499999999999l14.63133 7.922145c-2.0857725000000005 -2.3730525 -2.9575875 -4.1545875 -2.9007300000000003 -6.06879Z" stroke-width="0.5"></path><path fill="#6153bd" d="m33.913005 74.45888625 -3.56307 4.662315 17.227822500000002 9.343582500000002 1.97106 -5.53413 -15.635812500000002 -8.4717675Z" stroke-width="0.5"></path></g><g><path stroke="#120071" stroke-linecap="round" stroke-linejoin="round" d="M51.53484 79.7551125c-1.7955 -1.175055 -3.86631 -2.2174425 -5.420415 -3.221925" stroke-width="0.5"></path><path stroke="#120071" stroke-linecap="round" stroke-linejoin="round" d="M99.484665 42.361830000000005 95.92159500000001 4.987500000000001 68.36466 74.08831500000001" stroke-width="0.5"></path><path stroke="#120071" stroke-linecap="round" stroke-linejoin="round" d="m101.1714375 60.215085 -0.7581 -8.1306225" stroke-width="0.5"></path><path stroke="#120071" stroke-linecap="round" stroke-linejoin="round" d="m141.028545 136.44204 25.9080675 -64.96917 -45.5049525 8.03586" stroke-width="0.5"></path><path stroke="#120071" stroke-linecap="round" stroke-linejoin="round" d="M113.92647000000001 152.96862000000002 117.88754250000001 194.51250000000002l16.2422925 -40.7289225" stroke-width="0.5"></path><path stroke="#120071" stroke-linecap="round" stroke-linejoin="round" d="m62.603100000000005 88.53012 -15.749527500000001 39.497009999999996 15.76848 -2.7860175000000003" stroke-width="0.5"></path><path stroke="#120071" stroke-linecap="round" stroke-linejoin="round" d="m51.838080000000005 31.900050000000004 -9.855300000000002 -5.3256525c-7.880250000000001 14.555520000000001 -0.6822900000000001 25.585875 3.7715475000000005 27.992842500000002" stroke-width="0.5"></path><path stroke="#120071" stroke-linecap="round" stroke-linejoin="round" d="m57.7702125 49.0141575 -5.837370000000001 0.6443850000000001 4.16955 -4.131645000000001 -2.42592 -5.3635575 5.2308900000000005 2.691255 4.3401225000000005 -3.9610725 -0.947625 5.7994650000000005 5.1171750000000005 2.9186850000000004 -5.818417500000001 0.8907675 -1.175055 5.76156 -2.65335 -5.2498425Z" stroke-width="0.5"></path><path stroke="#120071" stroke-linecap="round" stroke-linejoin="round" d="m75.40481550000001 44.638125 9.7896645 5.32355775C77.30625 64.51720275 64.13925 64.51720275 59.703367500000006 62.11023525" stroke-width="0.5"></path><path stroke="#120071" stroke-linecap="round" stroke-linejoin="round" d="M45.021165 166.21941c6.17502375 0 11.180977500000001 -5.005455 11.180977500000001 -11.180977500000001s-5.005953750000001 -11.180977500000001 -11.180977500000001 -11.180977500000001c-6.175123500000001 0 -11.180977500000001 5.005455 -11.180977500000001 11.180977500000001s5.005854 11.180977500000001 11.180977500000001 11.180977500000001Z" stroke-width="0.5"></path><path stroke="#120071" stroke-linecap="round" stroke-linejoin="round" d="M166.97451750000002 44.010697500000006c1.905225 0 3.449355 -1.5443295000000001 3.449355 -3.449355 0 -1.9050255 -1.5441300000000002 -3.449355 -3.449355 -3.449355 -1.905225 0 -3.449355 1.5443295000000001 -3.449355 3.449355 0 1.9050255 1.5441300000000002 3.449355 3.449355 3.449355Z" stroke-width="0.5"></path><path stroke="#120071" stroke-linecap="round" stroke-linejoin="round" d="M33.0182475 101.455725c0.97346025 0 1.7625825 -0.7890225000000001 1.7625825 -1.7625825 0 -0.97346025 -0.78912225 -1.7625825 -1.7625825 -1.7625825 -0.97346025 0 -1.7625825 0.78912225 -1.7625825 1.7625825 0 0.97356 0.78912225 1.7625825 1.7625825 1.7625825Z" stroke-width="0.5"></path><path stroke="#120071" stroke-linecap="round" stroke-linejoin="round" d="m123.1563375 14.880705 -1.7625825 7.05033 5.344605 -0.947625 -1.7625825 7.05033" stroke-width="0.5"></path><path stroke="#120071" stroke-linecap="round" stroke-linejoin="round" d="M44.71194 71.54868c2.144625 1.01745 3.4663125000000004 -1.5511125000000001 1.4593425000000002 -2.6932500000000004 -1.49625 -0.8508675 -2.5775400000000004 -1.38453 -3.7905 -2.008965 -0.36139425000000003 -0.208677 -0.78932175 -0.26992350000000004 -1.19470575 -0.1709715 -0.405384 0.098952 -0.7571025 0.350322 -0.9817395 0.7020405000000001 -0.22463700000000003 0.35161875 -0.3050355 0.77635425 -0.2244375 1.185828 0.080598 0.40947375 0.31600800000000007 0.77196525 0.65725275 1.012263 0.96558 0.6094725 2.10672 1.039395 4.0747875 1.973055Z" stroke-width="0.5"></path><path stroke="#120071" stroke-linecap="round" stroke-linejoin="round" d="M47.27052750000001 61.845000000000006c-0.7581 -0.45486000000000004 -1.3057275 -0.76209 -2.04687 -1.197 -0.3497235 -0.22842750000000003 -0.77455875 -0.31171875000000004 -1.184631 -0.232218 -0.4099725 0.07940100000000001 -0.77296275 0.3154095 -1.01196375 0.657951 -0.23900100000000002 0.3425415 -0.33535950000000003 0.76458375 -0.26842725 1.17695025 0.0668325 0.41226675 0.29156925 0.7822395000000001 0.6266295000000001 1.03171425 0.8105685 0.54094425 1.65934125 1.02233775 2.539635 1.44039" stroke-width="0.5"></path><path stroke="#120071" stroke-linecap="round" stroke-linejoin="round" d="M43.764315 74.5621275c2.1037275 0.9286725000000001 3.3346425 -1.5890175 1.3645800000000001 -2.6343975 -1.46034 -0.7750575000000001 -2.5426275 -1.2638325 -3.7146900000000005 -1.8194400000000002 -0.35361375 -0.198702 -0.77056875 -0.2523675 -1.163085 -0.1498245 -0.39251625 0.10254300000000001 -0.72987075 0.35341425000000004 -0.9410415000000001 0.6996465000000001 -0.2112705 0.34633200000000003 -0.27989850000000005 0.7610925000000001 -0.19142025 1.15700025 0.08847825000000001 0.39590775 0.32708025 0.7420402500000001 0.6656317500000001 0.96548025 0.947625 0.548625 2.04687 0.9286725000000001 3.9800250000000004 1.781535Z" stroke-width="0.5"></path><path stroke="#120071" stroke-linecap="round" stroke-linejoin="round" d="M45.885000000000005 64.80159c-0.7770525 -0.416955 -1.4633325000000001 -0.7311675 -2.2174425 -1.1371499999999999 -0.361893 -0.22463700000000003 -0.7970025000000001 -0.29974875 -1.21325925 -0.20937525 -0.41625675 0.09027375 -0.78114225 0.3389505 -1.01745 0.6933622500000001 -0.23620800000000003 0.35441175 -0.3253845 0.786828 -0.24867675 1.2057780000000002 0.07670775 0.41904975 0.3134145 0.79171575 0.659946 1.039395 0.9845325 0.6463800000000001 2.1077175 1.1102175 4.0897499999999996 2.1037275 1.65186 0.8269275 2.5775400000000004 -0.9286725000000001 2.008965 -2.084775" stroke-width="0.5"></path><path stroke="#120071" stroke-linecap="round" stroke-linejoin="round" d="M54.453525000000006 68.47837500000001c0.5496225000000001 -0.7770525 1.2658274999999999 -1.0733100000000002 1.6867725000000002 -0.83391 0.7511175 0.428925 0.81396 2.6154450000000002 -1.5162 7.2209025 -2.4837750000000005 4.908697500000001 -4.227405000000001 6.296220000000001 -5.07927 6.026895000000001 -0.588525 -0.18653250000000002 -0.6822900000000001 -1.3456275 -0.32219250000000005 -2.5206825000000004" stroke-width="0.5"></path><path stroke="#120071" stroke-linecap="round" stroke-linejoin="round" d="M56.45850000000001 70.16524725000001c-1.2887700000000002 -0.5306700000000001 -2.5935 -1.4772975000000002 -2.9565900000000003 -5.2308900000000005 -0.1765575 -1.7955 -0.43491 -1.9161975000000002 -2.9925 -3.1650675 -2.9925 -1.4613375000000002 -2.8239225 -1.19709975 -5.07927 4.11259275 -0.55461 1.3057275 1.4782950000000001 2.65335 3.8284050000000005 -1.1371499999999999 -1.8383925 2.8997325000000003 -1.49625 5.7855 0.189525 7.618905000000001" stroke-width="0.5"></path><path stroke="#120071" stroke-linecap="round" stroke-linejoin="round" d="M148.2285 12.7011675c-0.18753 2.3690625 -3.0613275 2.4448725000000002 -3.0513525 0.15162 0.006982500000000001 -1.7057250000000002 0.07980000000000001 -2.9187249 0.15162 -4.2833049 0.1197 -2.2742999999999998 3.1530975000000003 -2.2553475 3.221925 -0.37905 0.04389 1.1371499999999999 -0.14763 2.3311974 -0.32219250000000005 4.5107349Z" stroke-width="0.5"></path><path stroke="#120071" stroke-linecap="round" stroke-linejoin="round" d="M138.5836725 10.9595325c-0.0189525 -0.83391 -0.005985000000000001 -1.4424348750000002 -0.0189525 -2.238439875 -0.034912500000000006 -2.160585 3.0433725000000003 -2.25834 3.1840200000000003 -0.45486000000000004 0.0648375 0.9212311500000001 0.0648375 1.845823875 0 2.767114875" stroke-width="0.5"></path><path stroke="#120071" stroke-linecap="round" stroke-linejoin="round" d="M151.490325 13.250790000000002c-0.237405 2.3132025 -3.0234225 2.312205 -2.9376375 0.07581 0.06384000000000001 -1.6488675000000002 0.16758 -2.8239225 0.26533500000000004 -4.131645000000001 0.16458750000000003 -2.1945 3.10821 -2.1037275 3.10821 -0.29925 0 1.095255 -0.21945 2.252355 -0.4359075 4.355085Z" stroke-width="0.5"></path><path stroke="#120071" stroke-linecap="round" stroke-linejoin="round" d="M141.82455000000002 11.01449475c0.0189525 -0.8907675 0.093765 -1.648917375 0.11371500000000001 -2.501779875 0.053865 -2.312205 3.1411275 -2.35011 3.25983 -0.45486000000000004 0.0728175 1.1561025 -0.0947625 2.369112375 -0.2084775 4.588549875000001 0.006982500000000001 0.3309705 -0.09177 0.6555570000000001 -0.28329 0.92558025 -0.1925175 0.27002325 -0.46583250000000004 0.47101950000000004 -0.7810425000000001 0.5731635 -0.3142125 0.10214400000000001 -0.65436 0.0999495 -0.9675750000000001 -0.006084750000000001 -0.3142125 -0.106134 -0.584535 -0.31062150000000005 -0.7730625000000001 -0.5829390000000001" stroke-width="0.5"></path><path stroke="#120071" stroke-linecap="round" stroke-linejoin="round" d="M140.76321000000002 20.3579775c-0.947625 0.15162 -1.554105 0.60648 -1.554105 1.0802925 0 0.8528625000000001 1.8383925 1.873305 6.97452 1.781535 5.4583200000000005 -0.09975 7.5261375 -1.0613400000000002 7.7136675 -1.933155 0.13466250000000002 -0.6254325000000001 -0.6633375 -1.197 -1.8573450000000002 -1.3835325" stroke-width="0.5"></path><path stroke="#120071" stroke-linecap="round" stroke-linejoin="round" d="M141.23702250000002 22.821802500000004c0.17057250000000002 -1.3835325 -0.006982500000000001 -2.9466150000000004 -3.0513525 -4.908697500000001 -1.462335 -0.9426375 -1.4413875 -1.2319125000000002 -1.2508650000000001 -4.055835 0.22543500000000002 -3.33564 0.361095 -3.054345 6.0648 -2.767065 1.402485 0.0708225 1.554105 2.4827775 -2.88078 2.9376375 3.4114500000000003 -0.37905 5.7426075 1.175055 6.483750000000001 3.4683075" stroke-width="0.5"></path><path stroke="#120071" stroke-linecap="round" stroke-linejoin="round" d="M151.945185 22.57542c-0.11371500000000001 -3.904215 0.29925 -10.196445 0 -13.228845000000002" stroke-width="0.5"></path><path stroke="#120071" stroke-linecap="round" stroke-linejoin="round" d="M139.209105 21.4572225c0.037905 4.738125 0 16.867725 -0.32219250000000005 22.5345225 -1.49625 0.98553 -13.3036575 6.882750000000001 -18.364972500000004 9.229867500000001 -4.5815175 2.1256725 -8.454810000000002 1.685775 -10.259287500000001 -1.202985 -2.4937500000000004 -3.99 1.7645775 -10.7001825 3.49125 -14.546542500000001 1.2698175 -2.8239225 -0.6633375 -3.5820225000000003 -2.1037275 -2.160585 0 -1.2698175 -1.66782 -1.7246775 -2.5585875000000002 -0.32219250000000005 -0.0947625 -1.21296 -2.0658225000000003 -1.49625 -3.0134475000000003 0.15162 -0.22743000000000002 -1.2887700000000002 -2.42592 -1.0044825 -3.2029725 0.45486000000000004 -0.22743000000000002 -1.1371499999999999 -2.1097125000000005 -0.49875 -2.4448725000000002 1.21296 -3.0094575 15.322597500000002 -1.197 17.855249999999998 5.932132500000001 14.328090000000001 -0.60648 1.4855767500000001 -1.625925 2.76636675 -2.9376375 3.6907500000000004" stroke-width="0.5"></path><path stroke="#120071" stroke-linecap="round" stroke-linejoin="round" d="M153.8972925 21.305602500000003c0 26.704072500000002 0.2902725 28.0147875 -1.1181975 30.6461925 -1.8683175 3.49125 -5.5530825 5.6667975 -33.62173500000001 21.264705000000003 0.28428749999999997 3.9231675 0.6822900000000001 8.604435 0.6822900000000001 11.8453125" stroke-width="0.5"></path><path stroke="#120071" stroke-linecap="round" stroke-linejoin="round" d="M56.1402975 67.64436525c6.254325 3.7525950000000003 14.745045000000001 7.618905000000001 15.806385 8.11167 4.738125 -1.933155 20.409847499999998 -9.00543 26.83275 -13.228845000000002 3.7515975000000004 -2.46582 4.8328875 -7.562047500000001 4.85184 -10.2912075" stroke-width="0.5"></path><path stroke="#120071" stroke-linecap="round" stroke-linejoin="round" d="M98.78342250000001 62.54325000000001c2.4827775 2.6154450000000002 12.091695000000001 0.798 14.5744725 -8.2064325" stroke-width="0.5"></path><path stroke="#120071" stroke-linecap="round" stroke-linejoin="round" d="M99.56047500000001 41.75535c2.44986 -0.71630475 4.9904925 -1.07380875 7.543095000000001 -1.0613400000000002 -0.5306700000000001 2.0279175 -0.29925 4.7570775 0.5685749999999999 2.88078 0.8678250000000001 -1.8762975000000002 3.0413775000000003 -0.42992250000000004 1.49625 1.9521075 -0.25137000000000004 0.4973535 -0.35511 1.05645225 -0.297255 1.6107630000000002 0.056857500000000005 0.5544105 0.27231750000000005 1.0806915 0.6194475 1.5163995000000001" stroke-width="0.5"></path><path stroke="#120071" stroke-linecap="round" stroke-linejoin="round" d="M83.60247 129.7139025c8.56653 -3.070305 22.595370000000003 -8.257305 31.897057500000003 -13.7026575 5.27079 -3.0852675 10.348065000000002 -12.319125 2.7860175000000003 -25.45310775 1.4214375000000001 -4.987500000000001 4.3401225000000005 -15.275715000000002 5.7855 -20.0706975" stroke-width="0.5"></path><path stroke="#120071" stroke-linecap="round" stroke-linejoin="round" d="M100.90610250000002 98.27160525000001C69.1417125 112.41027 63.576660000000004 115.6331925 62.5841475 121.5643275c-0.8468775000000001 5.0613150000000005 1.3077225000000001 10.1395875 20.1086025 40.99725 5.2308900000000005 1.4214375000000001 15.048285000000002 -1.74363 17.20887 -7.48125 -5.647845 -11.471250000000001 -11.52312 -23.042250000000003 -13.3994175 -26.4008325" stroke-width="0.5"></path><path stroke="#120071" stroke-linecap="round" stroke-linejoin="round" d="M96.56598000000001 124.84311000000001c3.25983 9.514155 7.3346175 24.3160575 11.826360000000001 26.4008325s6.2353725 2.5017300000000002 34.41375 2.5775400000000004c2.8239225 -2.160585 2.9186850000000004 -12.641317500000001 0 -17.303632500000003 -7.48125 -0.416955 -20.0327925 -0.6633375 -22.705095 -0.9097200000000001 -1.3077225000000001 -6.0648 -3.3915 -15.561 -4.189500000000001 -19.8811725" stroke-width="0.5"></path><path stroke="#120071" stroke-linecap="round" stroke-linejoin="round" d="M99.0108525 156.75912c1.3416375 1.1122125 2.56158 2.364075 3.6388800000000003 3.7336425 -2.2742999999999998 6.3490875 -11.27175 18.364972500000004 -18.6682125 22.932525 -0.4359075 -4.908697500000001 1.3835325 -14.839807500000001 3.6957375000000003 -20.6771775" stroke-width="0.5"></path><path stroke="#120071" stroke-linecap="round" stroke-linejoin="round" d="M136.934805 136.2714675c2.5017300000000002 2.80497 3.7336425 12.375982500000001 -0.37905 17.5310625" stroke-width="0.5"></path><path stroke="#120071" stroke-linecap="round" stroke-linejoin="round" d="M79.2813 156.94864500000003c5.76156 1.2698175 14.862750000000002 -1.0423875 17.777445 -7.618905000000001" stroke-width="0.5"></path><path stroke="#120071" stroke-linecap="round" stroke-linejoin="round" d="M83.90571 180.6582225c3.676785 -2.312205 13.153035000000001 -11.106165 17.550015000000002 -21.546000000000003" stroke-width="0.5"></path><path stroke="#120071" stroke-linecap="round" stroke-linejoin="round" d="M143.62503750000002 138.1667175c1.139145 -0.13266750000000002 2.2912575000000004 -0.13266750000000002 3.4304025 0 3.2029725 2.5935 12.148552500000001 13.3236075 12.2622675 22.932525 -5.155080000000001 -0.69825 -12.830842500000001 -5.7805125 -15.294667500000001 -9.059295" stroke-width="0.5"></path><path stroke="#120071" stroke-linecap="round" stroke-linejoin="round" d="M145.425525 138.09090750000001c3.49125 3.221925 11.940075000000002 14.763000000000002 12.319125 22.6861425" stroke-width="0.5"></path><path stroke="#120071" stroke-linecap="round" stroke-linejoin="round" d="M88.5869775 75.756135c0.492765 5.8942275 2.5935 21.871185 2.9925 26.68512" stroke-width="0.5"></path><path stroke="#120071" stroke-linecap="round" stroke-linejoin="round" d="M118.285545 90.5580375c-10.727115 0.07581 -19.558980000000002 2.7291600000000003 -27.158932500000002 7.391475000000001" stroke-width="0.5"></path><path stroke="#120071" stroke-linecap="round" stroke-linejoin="round" d="M90.72861 155.4513975c-4.131645000000001 -8.016907500000002 -12.698175 -26.306070000000002 -14.5365675 -30.134475000000002 8.56653 -4.32117 30.342952500000003 -13.380465000000001 34.0955475 -15.7116225 3.7525950000000003 -2.3311575 5.2308900000000005 -5.3256525 1.2508650000000001 -18.6303075" stroke-width="0.5"></path><path stroke="#120071" stroke-linecap="round" stroke-linejoin="round" d="M49.56378000000001 80.89725C67.5117975 91.75204500000001 70.393575 92.92909500000002 74.88432 91.6951875c5.08435725 -1.5114120000000002 10.040336250000001 -3.42531525 14.820855000000002 -5.723655000000001" stroke-width="0.5"></path><path stroke="#120071" stroke-linecap="round" stroke-linejoin="round" d="M76.5331875 91.22137500000001c5.062312500000001 -3.3545925000000003 10.499685 -9.1919625 12.451792500000002 -11.521125000000001" stroke-width="0.5"></path><path stroke="#120071" stroke-linecap="round" stroke-linejoin="round" d="M98.3664675 130.28247750000003c2.236395 -2.65335 8.6991975 -8.907675 11.030355 -11.030355" stroke-width="0.5"></path><path stroke="#120071" stroke-linecap="round" stroke-linejoin="round" d="m26.2711575 47.024145000000004 0.6573525000000001 3.7156875000000005" stroke-width="0.5"></path><path stroke="#120071" stroke-linecap="round" stroke-linejoin="round" d="m34.7798325 52.97622750000001 -3.7156875000000005 0.6573525000000001" stroke-width="0.5"></path><path stroke="#120071" stroke-linecap="round" stroke-linejoin="round" d="m28.82775 61.48500225 -0.6573525000000001 -3.7156875000000005" stroke-width="0.5"></path><path stroke="#120071" stroke-linecap="round" stroke-linejoin="round" d="m20.319075 55.532720250000004 3.7176825 -0.6573525000000001" stroke-width="0.5"></path><path stroke="#120071" stroke-linecap="round" stroke-linejoin="round" d="M31.064145 53.63348025c-0.46134375000000005 0.08169525000000001 -0.9342585 0.0716205 -1.391712 -0.029725500000000002 -0.45735375000000006 -0.10124625000000001 -0.8903685 -0.291669 -1.27410675 -0.56049525 -0.38373825 -0.2687265 -0.7107187500000001 -0.61056975 -0.9621885000000001 -1.00577925 -0.2515695 -0.39530925 -0.4227405 -0.8362042500000001 -0.50363775 -1.2977475 0.08239350000000001 0.461643 0.0728175 0.934857 -0.028029750000000003 1.3928092500000002 -0.10094700000000001 0.45785250000000005 -0.29117025 0.89126625 -0.55989675 1.27550325 -0.2687265 0.384237 -0.6106695 0.7116165000000001 -1.00617825 0.9633855 -0.39550875 0.251769 -0.83680275 0.42303975 -1.29864525 0.503937 0.46144350000000006 -0.082194 0.93455775 -0.07251825 1.39221075 0.028428750000000003 0.45775275 0.10094700000000001 0.8909670000000001 0.29127 1.2750045 0.5599965 0.38403750000000003 0.2687265 0.7112175000000001 0.6106695 0.9628867500000001 1.0060785 0.2515695 0.395409 0.4227405 0.83660325 0.503538 1.2982462500000003 -0.08209425000000001 -0.46134375000000005 -0.0724185 -0.9342585 0.028428750000000003 -1.3919115 0.10084725 -0.45755325 0.29097075000000006 -0.8907675 0.55949775 -1.2748050000000002 0.268527 -0.38403750000000003 0.610071 -0.711417 1.0052805 -0.96328575 0.39510975000000004 -0.25186875000000003 0.83600475 -0.423339 1.297548 -0.5046352500000001v0Z" stroke-width="0.5"></path><path stroke="#120071" stroke-linecap="round" stroke-linejoin="round" d="m166.955565 103.27516500000002 0.94164 5.328645" stroke-width="0.5"></path><path stroke="#120071" stroke-linecap="round" stroke-linejoin="round" d="m179.1559875 111.8107725 -5.328645 0.94164" stroke-width="0.5"></path><path stroke="#120071" stroke-linecap="round" stroke-linejoin="round" d="m170.62137750000002 124.01119500000001 -0.9426375 -5.328645" stroke-width="0.5"></path><path stroke="#120071" stroke-linecap="round" stroke-linejoin="round" d="m158.4199575 115.4755875 5.3316375 -0.94164" stroke-width="0.5"></path><path stroke="#120071" stroke-linecap="round" stroke-linejoin="round" d="M173.82734250000001 112.7524125c-0.66234 0.117705 -1.34064 0.10374 -1.9969949999999999 -0.0408975 -0.656355 -0.1446375 -1.2777975 -0.4179525 -1.8284175 -0.8029875000000001 -0.5516175000000001 -0.385035 -1.0204425 -0.8758050000000001 -1.3815375 -1.442385 -0.361095 -0.5675775 -0.6074775 -1.1999925000000002 -0.7231875 -1.8623325000000002 0.117705 0.6613425 0.1047375 1.3396425 -0.039900000000000005 1.9969949999999999 -0.1446375 0.656355 -0.416955 1.2777975 -0.8019900000000001 1.8284175 -0.385035 0.5506200000000001 -0.8758050000000001 1.0204425 -1.442385 1.3815375 -0.56658 0.361095 -1.198995 0.60648 -1.8613350000000002 0.7231875 0.6613425 -0.117705 1.34064 -0.10374 1.9959975 0.0408975 0.656355 0.1446375 1.2777975 0.4179525 1.8284175 0.8029875000000001 0.5506200000000001 0.385035 1.0204425 0.8758050000000001 1.3805399999999999 1.442385 0.361095 0.5675775 0.60648 1.1999925000000002 0.72219 1.8623325000000002 -0.117705 -0.66234 -0.10374 -1.34064 0.0408975 -1.9969949999999999 0.1446375 -0.656355 0.4179525 -1.2777975 0.8029875000000001 -1.8284175 0.385035 -0.5516175000000001 0.8758050000000001 -1.0204425 1.442385 -1.3815375 0.5675775 -0.361095 1.1999925000000002 -0.6074775 1.8623325000000002 -0.7231875v0Z" stroke-width="0.5"></path><path stroke="#120071" stroke-linejoin="round" d="M53.9418075 27.7494525c-0.7770525 1.4214375000000001 -1.4782950000000001 2.80497 -2.1226800000000003 4.1126925000000005 -5.0982225 10.5186375 -6.102705 17.474205 -6.08475 22.66719 0.0189525 2.5585875000000002 0.26533500000000004 4.6812675 0.399 6.614422500000001v0.0189525c0.3600975 0.2084775 0.69825 0.416955 1.1181975 0.6633375 0.7581 -1.197 1.3835325 -0.9665775 3.2408775000000003 -0.056857500000000005 2.5585875000000002 1.2508650000000001 2.80497 1.3645800000000001 2.9925 3.1650675 0.0189525 0.22743000000000002 0.037905 0.4359075 0.07581 0.6443850000000001 1.781535 -1.0044825 3.8094525000000004 -2.008965 6.1216574999999995 -3.49125 4.378027500000001 -2.8239225 9.6468225 -7.4483325 15.654765000000001 -17.474205 0.7581 -1.2698175 1.5351525 -2.5935 2.312205 -4.0368825L53.9418075 27.7494525Zm7.656810000000001 20.7529875L60.3856575 54.264 57.755250000000004 48.995205000000006l-5.837370000000001 0.6633375 4.189500000000001 -4.1505975 -2.42592 -5.3635575 5.2308900000000005 2.6932500000000004 4.3401225000000005 -3.94212 -0.947625 5.818417500000001 5.1171750000000005 2.8997325000000003 -5.823405 0.8887725000000001Z" stroke-width="0.5"></path><path stroke="#120071" stroke-linejoin="round" d="M46.1333775 76.57099275c0.037905 -1.7246775 0.8528625000000001 -3.56307 2.1945 -6.0648 -0.27900075 -0.9248820000000001 -0.3497235 -1.9000380000000001 -0.20708100000000002 -2.8555432499999998 0.1426425 -0.9554055 0.49505925000000006 -1.8675195000000002 1.0320135 -2.67060675 -0.34004775 0.52578225 -0.73605525 1.0130610000000002 -1.18104 1.4533575 0.5685749999999999 1.1561025 -0.3600975 2.9186850000000004 -2.008965 2.084775l0.22743000000000002 0.3600975c2.008965 1.1371499999999999 0.6822900000000001 3.7146900000000005 -1.4593425000000002 2.6932500000000004l0.399 0.3600975c1.97106 1.0423875 0.7391475000000001 3.56307 -1.3835325 2.6343975 -0.9286725000000001 -0.416955 -1.6867725000000002 -0.720195 -2.312205 -0.98553 -1.629915 1.3077225000000001 -3.6578325 1.6109625 -7.0313775000000005 1.1371499999999999l14.63133 7.922145c-2.0857725000000005 -2.3730525 -2.9575875 -4.1545875 -2.9007300000000003 -6.06879Z" stroke-width="0.5"></path><path stroke="#120071" stroke-linejoin="round" d="m33.9279675 74.45888625 -3.56307 4.662315 17.227822500000002 9.343582500000002 1.97106 -5.53413 -15.635812500000002 -8.4717675Z" stroke-width="0.5"></path></g></g></svg>