<svg xmlns="http://www.w3.org/2000/svg" fill="none" viewBox="-0.25 -0.25 200 200" id="Time-In-For-Work--Streamline-Bangalore.svg"><desc>Time In For Work Streamline Illustration: https://streamlinehq.com</desc><g id="time-in-for-work--work-time-in-for"><g id="hourglass"><path id="Vector" stroke="#120071" stroke-linecap="round" stroke-linejoin="round" d="M97.53654750000001 115.12945500000001a335.80139249999996 335.80139249999996 0 0 0 -14.606392500000002 -16.0467825c10.99644 -9.775500000000001 43.87005 -40.79775 43.87005 -62.605095000000006 -0.0109725 2.9925 -21.23079 5.425402500000001 -47.40918 5.425402500000001s-47.39721 -2.4279150000000005 -47.4101775 -5.426400000000001c0 21.80535 32.8746075 52.837575 43.8710475 62.60709000000001a337.21983750000004 337.21983750000004 0 0 0 -14.60739 16.045785" stroke-width="0.5"></path><path id="Vector_2" stroke="#120071" stroke-linecap="round" stroke-linejoin="round" d="M37.742407500000006 148.57962c-3.51519 6.908685 -5.762557500000001 13.5530325 -5.762557500000001 19.25175" stroke-width="0.5"></path><path id="Vector_3" stroke="#120071" stroke-linecap="round" stroke-linejoin="round" d="M51.6096525 127.08748500000002a168.42189 168.42189 0 0 0 -10.7879625 15.89616" stroke-width="0.5"></path><path id="Vector_4" stroke="#120071" stroke-linecap="round" stroke-linejoin="round" d="M126.800205 167.833365c0 -11.584965000000002 -9.276750000000002 -27.074145 -19.628805000000003 -40.74588" stroke-width="0.5"></path><g id="Group"><path id="Vector_5" fill="#6153bd" d="M37.742407500000006 170.4298575c-3.636885 -0.7630875 -5.719665 -1.6368975000000001 -5.76156 -2.5665675v1.9002375c0 0.939645 2.0947500000000003 1.8224325000000001 5.76156 2.5935v-1.92717Z" stroke-width="0.5"></path><path id="Vector_6" fill="#6153bd" d="M79.38902999999999 173.26575c-15.8971575 0 -29.966895000000005 -0.89775 -38.56734 -2.2713075000000003v1.92717c8.600445 1.374555 22.669185 2.27031 38.569335 2.27031 26.17839 0 47.398207500000005 -2.4289125 47.40918 -5.425402500000001v-1.9301625000000002c0 2.9954925 -21.2268 5.4293925 -47.41117500000001 5.4293925Z" stroke-width="0.5"></path></g><path id="Vector_7" stroke="#120071" stroke-linecap="round" stroke-linejoin="round" d="M37.742407500000006 170.4298575c-3.636885 -0.7630875 -5.719665 -1.6368975000000001 -5.76156 -2.5665675v1.9002375c0 0.939645 2.0947500000000003 1.8224325000000001 5.76156 2.5935" stroke-width="0.5"></path><path id="Vector_8" stroke="#120071" stroke-linecap="round" stroke-linejoin="round" d="M40.821690000000004 172.91862c8.600445 1.374555 22.669185 2.27031 38.569335 2.27031 26.17839 0 47.398207500000005 -2.4289125 47.40918 -5.425402500000001v-1.9301625000000002c0 2.998485 -21.2268 5.4293925 -47.41117500000001 5.4293925 -15.8971575 0 -29.966895000000005 -0.89775 -38.56734 -2.2713075000000003" stroke-width="0.5"></path><path id="Vector_9" stroke="#120071" stroke-linecap="round" stroke-linejoin="round" d="M79.39102500000001 39.9768075c-26.1833775 0 -47.4101775 -2.4309075 -47.4101775 -5.428395v1.929165c0.0109725 2.9925 21.23079 5.425402500000001 47.4101775 5.425402500000001 26.1793875 0 47.398207500000005 -2.4289125 47.40918 -5.426400000000001v-1.9082175000000001c-0.0927675 2.98851 -21.28266 5.408445 -47.40918 5.408445Z" stroke-width="0.5"></path><path id="Vector_10" fill="#6153bd" d="M79.39102500000001 29.120017500000003c-26.1833775 0 -47.4101775 2.42991 -47.4101775 5.428395 0 2.998485 21.2268 5.428395 47.4101775 5.428395 26.1833775 0 47.4101775 -2.4309075 47.4101775 -5.428395 0 -2.9974875 -21.2258025 -5.428395 -47.4101775 -5.428395Z" stroke-width="0.5"></path><path id="Vector_11" stroke="#120071" stroke-linecap="round" stroke-linejoin="round" d="M79.39102500000001 29.120017500000003c-26.1833775 0 -47.4101775 2.42991 -47.4101775 5.428395 0 2.998485 21.2268 5.428395 47.4101775 5.428395 26.1833775 0 47.4101775 -2.4309075 47.4101775 -5.428395 0 -2.9974875 -21.2258025 -5.428395 -47.4101775 -5.428395Z" stroke-width="0.5"></path><path id="Vector_12" fill="#a8e5f8" d="M75.851895 99.08367v16.045785h7.08225V99.08267250000002A256.96398 256.96398 0 0 0 106.622775 75.11175c-12.967500000000001 0.217455 -19.6357875 5.41842 -31.50504 7.1670375A39.4022475 39.4022475 0 0 1 57.479940000000006 81.09675c7.2707775 7.8732675 14.312130000000002 14.377965 18.371955 17.98692Z" stroke-width="0.5"></path><path id="Vector_13" fill="#a8e5f8" d="M37.742407500000006 154.9446675a26.274150000000002 26.274150000000002 0 0 0 -5.762557500000001 12.8886975c0 0.9406425 2.088765 1.8244275 5.762557500000001 2.5935v-15.482197500000002Z" stroke-width="0.5"></path><path id="Vector_14" fill="#a8e5f8" d="M117.00675 155.07234750000003c-0.9645825 -10.651305 -7.54908 -13.256775 -17.8203375 -10.274250000000002a14.677215 14.677215 0 0 0 -1.28079 -4.44486 4.6583250000000005 4.6583250000000005 0 0 0 -4.768050000000001 -2.7381375 4.670295 4.670295 0 0 0 -1.8473700000000002 0.6114675 22.6282875 22.6282875 0 0 0 -8.365034999999999 6.33213v-17.4712125h-7.073272500000001v18.01086c-1.905225 -2.9795325000000004 -4.622415 -5.2867500000000005 -8.149575 -5.535127500000001a11.587957500000002 11.587957500000002 0 0 0 -9.44433 3.9351375c-4.0548375000000005 4.7191725 -2.6294100000000005 3.7116975 -7.906185000000001 4.412940000000001a19.122075000000002 19.122075000000002 0 0 0 -9.529117500000002 4.01793v19.062225c8.600445 1.374555 22.670182500000003 2.2713075000000003 38.56734 2.2713075000000003 26.184375000000003 0 47.41117500000001 -2.4309075 47.41117500000001 -5.4293925 -1.5341550000000002 -9.083235 -8.7909675 -3.7196775000000004 -9.794452500000002 -12.7610175Z" stroke-width="0.5"></path><path id="Vector_15" stroke="#120071" stroke-linecap="round" stroke-linejoin="round" d="M37.742407500000006 154.9446675a26.274150000000002 26.274150000000002 0 0 0 -5.762557500000001 12.8886975c0 0.9406425 2.088765 1.8244275 5.762557500000001 2.5935" stroke-width="0.5"></path><path id="Vector_16" stroke="#120071" stroke-linecap="round" stroke-linejoin="round" d="M82.93015500000001 115.12945500000001V99.08267250000002A256.957995 256.957995 0 0 0 106.622775 75.11175c-12.967500000000001 0.217455 -19.6357875 5.41842 -31.50504 7.1670375A39.4022475 39.4022475 0 0 1 57.479940000000006 81.09675c7.2707775 7.872270000000001 14.312130000000002 14.376967500000001 18.371955 17.984925v16.0467825" stroke-width="0.5"></path><path id="Vector_17" stroke="#120071" stroke-linecap="round" stroke-linejoin="round" d="M75.851895 127.08748500000002v18.01086c-1.905225 -2.9795325000000004 -4.622415 -5.2867500000000005 -8.149575 -5.535127500000001a11.587957500000002 11.587957500000002 0 0 0 -9.44433 3.9351375c-4.0548375000000005 4.7191725 -2.6294100000000005 3.7116975 -7.906185000000001 4.412940000000001a19.122075000000002 19.122075000000002 0 0 0 -9.529117500000002 4.01793" stroke-width="0.5"></path><path id="Vector_18" stroke="#120071" stroke-linecap="round" stroke-linejoin="round" d="M40.821690000000004 170.99145c8.600445 1.374555 22.670182500000003 2.2713075000000003 38.56734 2.2713075000000003 26.184375000000003 0 47.41117500000001 -2.4309075 47.41117500000001 -5.4293925 -1.5331575 -9.083235 -8.78997 -3.7196775000000004 -9.789465 -12.7610175 -0.9645825 -10.651305 -7.54908 -13.256775 -17.8203375 -10.274250000000002a14.673225000000002 14.673225000000002 0 0 0 -1.28079 -4.44486 4.6583250000000005 4.6583250000000005 0 0 0 -2.8329 -2.54163 4.6712925 4.6712925 0 0 0 -3.78252 0.41496 22.629285 22.629285 0 0 0 -8.365034999999999 6.33213v-17.4712125" stroke-width="0.5"></path><path id="Vector_19" fill="#a8e5f8" d="M90.0233775 73.37011500000001A89.02488000000001 89.02488000000001 0 0 0 57.479940000000006 81.09675c12.998422500000002 4.0648125 23.782395 -0.027930000000000003 33.189817500000004 -3.0324 5.7994650000000005 -1.8503625000000001 9.92313 -2.8428750000000003 15.953017500000001 -2.9496075 -4.179525000000001 -2.13066 -12.53259 -1.9760475000000002 -16.5993975 -1.745625Z" stroke-width="0.5"></path><path id="Vector_20" stroke="#120071" stroke-linecap="round" stroke-linejoin="round" d="M90.0233775 73.37011500000001A89.02488000000001 89.02488000000001 0 0 0 57.479940000000006 81.09675c12.998422500000002 4.0648125 23.782395 -0.027930000000000003 33.189817500000004 -3.0324 5.7994650000000005 -1.8503625000000001 9.92313 -2.8428750000000003 15.953017500000001 -2.9496075 -4.179525000000001 -2.13066 -12.53259 -1.9760475000000002 -16.5993975 -1.745625Z" stroke-width="0.5"></path></g><g id="post-it"><path id="Vector_21" stroke="#120071" stroke-linecap="round" stroke-linejoin="round" d="m163.8503475 57.755250000000004 -10.24632 -1.29675s-0.484785 1.8124575 -1.6129575 5.43837a27.307560000000002 27.307560000000002 0 0 1 -3.1391325 5.760562500000001l10.24632 1.29675a21.453232500000002 21.453232500000002 0 0 0 3.0154425000000002 -5.4692925 53.110890000000005 53.110890000000005 0 0 0 1.7366475000000001 -5.72964v0Z" stroke-width="0.5"></path><path id="Vector_22" stroke="#120071" stroke-linecap="round" stroke-linejoin="round" d="m159.206985 54.229087500000006 -1.214955 4.66431" stroke-width="0.5"></path><path id="Vector_23" stroke="#120071" stroke-linecap="round" stroke-linejoin="round" d="m182.65821000000003 44.428650000000005 -10.24632 -1.29675s-0.484785 1.8134550000000003 -1.6129575 5.4393675a27.307560000000002 27.307560000000002 0 0 1 -3.1391325 5.760562500000001l10.24632 1.29675a21.48615 21.48615 0 0 0 3.0154425000000002 -5.4692925 53.110890000000005 53.110890000000005 0 0 0 1.7366475000000001 -5.72964Z" stroke-width="0.5"></path><path id="Vector_24" stroke="#120071" stroke-linecap="round" stroke-linejoin="round" d="m178.01484750000003 40.907475 -1.214955 4.66431" stroke-width="0.5"></path><path id="Vector_25" stroke="#120071" stroke-linecap="round" stroke-linejoin="round" d="m180.3888975 66.80058000000001 -10.24632 -1.29675s-0.484785 1.8124575 -1.6129575 5.4373724999999995a27.322522499999998 27.322522499999998 0 0 1 -3.138135 5.76156l10.24632 1.29675a21.4991175 21.4991175 0 0 0 3.014445 -5.47029 53.0999175 53.0999175 0 0 0 1.7366475000000001 -5.7286425Z" stroke-width="0.5"></path><path id="Vector_26" stroke="#120071" stroke-linecap="round" stroke-linejoin="round" d="m175.74553500000002 63.276412500000006 -1.214955 4.6653075" stroke-width="0.5"></path></g><g id="table"><path id="Vector_27" stroke="#120071" stroke-linecap="round" stroke-linejoin="round" d="M180.94650000000001 122.311455v48.140347500000004a1.5501150000000001 1.5501150000000001 0 0 0 0.43690500000000004 1.1142075 1.5341550000000002 1.5341550000000002 0 0 0 1.1032350000000002 0.46483500000000005 1.5331575 1.5331575 0 0 0 1.1022375 -0.46483500000000005 1.526175 1.526175 0 0 0 0.43690500000000004 -1.1142075v-49.1119125l-3.0792825 0.971565Z" stroke-width="0.5"></path><path id="Vector_28" stroke="#120071" stroke-linecap="round" stroke-linejoin="round" d="M32.34294 127.08748500000002h133.47048750000002l22.223302500000003 -7.0114275v-4.9466025l-22.223302500000003 7.0114275H32.34294v4.9466025Z" stroke-width="0.5"></path><path id="Vector_29" stroke="#120071" stroke-linecap="round" stroke-linejoin="round" d="M118.07208 115.12945500000001H54.567240000000005l-22.224300000000003 7.0114275h133.47048750000002l22.223302500000003 -7.0114275H162.29325" stroke-width="0.5"></path><path id="Vector_30" stroke="#120071" stroke-linecap="round" stroke-linejoin="round" d="M157.6658475 127.08748500000002v50.796690000000005a1.5361500000000001 1.5361500000000001 0 0 0 1.54014 1.50024 1.5391425 1.5391425 0 0 0 1.5391425 -1.50024v-50.796690000000005h-3.0792825Z" stroke-width="0.5"></path><path id="Vector_31" stroke="#120071" stroke-linecap="round" stroke-linejoin="round" d="M37.742407500000006 127.08748500000002v50.796690000000005a1.5411375 1.5411375 0 0 0 3.0792825 0v-50.796690000000005h-3.0792825Z" stroke-width="0.5"></path></g><g id="laptop"><path id="Vector_32" stroke="#120071" stroke-linecap="round" stroke-linejoin="round" d="m174.8088825 87.6852375 -11.090205000000001 23.977905v0.62643c0 0.2344125 -0.023940000000000003 0.4678275 -0.06982500000000001 0.69825a5.107200000000001 5.107200000000001 0 0 0 3.0234225 -2.6992350000000003l9.721635000000001 -21.0123375 -1.5850275 -1.5910125000000002Z" stroke-width="0.5"></path><path id="Vector_33" stroke="#120071" stroke-linecap="round" stroke-linejoin="round" d="m129.12837000000002 111.66414 34.5903075 -0.0009975000000000001 11.090205000000001 -23.977905 -34.591305 -0.0009975000000000001 -11.089207500000002 23.9799Z" stroke-width="0.5"></path><path id="Vector_34" stroke="#120071" stroke-linecap="round" stroke-linejoin="round" d="M147.35469 116.79328500000001h-34.5903075v2.8638225h34.5903075l14.3430525 -4.16955a3.53514 3.53514 0 0 0 2.0209349999999997 -3.197985v-0.62643l-16.3639875 5.1301425Z" stroke-width="0.5"></path><path id="Vector_35" stroke="#120071" stroke-linecap="round" stroke-linejoin="round" d="M112.7643825 116.79328500000001h34.5903075l16.3639875 -5.1301425 -34.5903075 0.0009975000000000001 -16.3639875 5.129145Z" stroke-width="0.5"></path><g id="Group_2"><path id="Vector_36" stroke="#120071" stroke-linecap="round" stroke-linejoin="round" d="m159.5451375 96.29067 3.8254125 4.5485999999999995 -5.07927 3.8284050000000005" stroke-width="0.5"></path><path id="Vector_37" stroke="#120071" stroke-linecap="round" stroke-linejoin="round" d="m144.1497225 96.2996475 -4.881765000000001 3.4722975000000003 3.9111975 5.05533" stroke-width="0.5"></path><path id="Vector_38" stroke="#120071" stroke-linecap="round" stroke-linejoin="round" d="m150.5636475 94.52010750000001 1.98303 10.304175" stroke-width="0.5"></path></g></g><g id="elements"><path id="Vector_39" stroke="#120071" stroke-linecap="round" stroke-linejoin="round" d="m21.4233075 100.35548250000001 12.640320000000001 -1.825425" stroke-width="0.5"></path><path id="Vector_40" stroke="#120071" stroke-linecap="round" stroke-linejoin="round" d="m21.404355 92.7844575 12.678225000000001 1.5291675" stroke-width="0.5"></path><path id="Vector_41" stroke="#120071" stroke-linecap="round" stroke-linejoin="round" d="M20.0327925 134.058015h9.50817" stroke-width="0.5"></path><path id="Vector_42" stroke="#120071" stroke-linecap="round" stroke-linejoin="round" d="M24.786877500000003 138.81210000000002v-9.5091675" stroke-width="0.5"></path><path id="Vector_43" stroke="#120071" stroke-linecap="round" stroke-linejoin="round" d="M4.987500000000001 155.9282025h5.1860025" stroke-width="0.5"></path><path id="Vector_44" stroke="#120071" stroke-linecap="round" stroke-linejoin="round" d="M7.581 158.52170250000003v-5.187" stroke-width="0.5"></path><path id="Vector_45" stroke="#120071" stroke-linecap="round" stroke-linejoin="round" d="m187.78935 98.79240000000001 6.72315 6.72315" stroke-width="0.5"></path><path id="Vector_46" stroke="#120071" stroke-linecap="round" stroke-linejoin="round" d="m187.78935 105.51555 6.72315 -6.72315" stroke-width="0.5"></path><path id="Vector_47" stroke="#120071" stroke-linecap="round" stroke-linejoin="round" d="m39.4521225 22.47168 2.9396325 4.8488475 3.4573350000000005 -7.243845" stroke-width="0.5"></path></g></g></svg>