<svg xmlns="http://www.w3.org/2000/svg" fill="none" viewBox="-0.25 -0.25 200 200" id="Work-Work-From-Home-01--Streamline-Bangalore.svg"><desc>Work Work From Home 01 Streamline Illustration: https://streamlinehq.com</desc><g><g><path fill="#a8e5f8" d="m120.4890225 4.987500000000001 -0.2084775 19.02831 11.940075000000002 20.696130000000004 0.2084775 -19.02831L120.4890225 4.987500000000001Z" stroke-width="0.5"></path><path fill="#a8e5f8" d="m125.2311375 32.66982075 -6.254325 6.21642 -1.7246775 20.9046075 14.9914275 -14.9914275 -7.012425 -12.1296Z" stroke-width="0.5"></path><path fill="#a8e5f8" fill-rule="evenodd" d="M125.18625 90.160035C137.88243000000003 78.75571725 149.91826500000002 66.637788 161.2368975 53.865c-3.10821 -5.386500000000001 -7.05033 -9.177 -12.0348375 -11.030355 -14.546542500000001 16.473513 -30.329985 31.813068 -47.2106775 45.885000000000005 -2.8334985 5.762358 -4.89084225 8.505483 -11.53997775 8.77969575 -0.13266750000000002 3.81274425 -0.60837525 7.606236750000001 -1.4214375000000001 11.33389425 0 0 2.8397827500000004 4.981515 10.649210250000001 5.727645 7.447335000000001 0.712215 28.95942 -8.1306225 28.95942 -8.1306225 10.344075 2.7141975 20.378925000000002 6.4917300000000004 29.944950000000002 11.27175 3.4683075 -4.245360000000001 6.2353725 -8.6991975 6.4248975 -14.328090000000001 -10.2173925 -5.4680955 -21.0103425 -9.78377925 -32.181345 -12.867750000000001 -2.763075 -0.78553125 -5.30271 -0.79351125 -7.64085 -0.3461325Zm-26.3788875 17.758492500000003c0 0.2463825 -0.09785475000000002 0.48279 -0.27201825 0.656355 -0.17416350000000003 0.1745625 -0.4103715 0.27231750000000005 -0.65665425 0.27231750000000005s-0.48249075 -0.09775500000000001 -0.65665425 -0.27231750000000005c-0.17416350000000003 -0.173565 -0.27201825 -0.4099725 -0.27201825 -0.656355 0 -0.2463825 0.09785475000000002 -0.48279 0.27201825 -0.656355 0.17416350000000003 -0.1745625 0.4103715 -0.27231750000000005 0.65665425 -0.27231750000000005s0.48249075 0.09775500000000001 0.65665425 0.27231750000000005c0.17416350000000003 0.173565 0.27201825 0.4099725 0.27201825 0.656355Zm13.58196 -9.59664825c0.1745625 -0.17416350000000003 0.27231750000000005 -0.4103715 0.27231750000000005 -0.65665425s-0.09775500000000001 -0.48249075 -0.27231750000000005 -0.65665425c-0.173565 -0.17416350000000003 -0.4099725 -0.27201825 -0.656355 -0.27201825 -0.2463825 0 -0.48279 0.09785475000000002 -0.656355 0.27201825 -0.1745625 0.17416350000000003 -0.27231750000000005 0.4103715 -0.27231750000000005 0.65665425s0.09775500000000001 0.48249075 0.27231750000000005 0.65665425c0.173565 0.17416350000000003 0.4099725 0.27201825 0.656355 0.27201825 0.2463825 0 0.48279 -0.09785475000000002 0.656355 -0.27201825Zm16.81785 5.19966825c0 0.2463825 -0.09775500000000001 0.48279 -0.27231750000000005 0.656355 -0.173565 0.1745625 -0.4099725 0.27231750000000005 -0.656355 0.27231750000000005 -0.2463825 0 -0.48279 -0.09775500000000001 -0.656355 -0.27231750000000005 -0.1745625 -0.173565 -0.27231750000000005 -0.4099725 -0.27231750000000005 -0.656355 0 -0.2463825 0.09775500000000001 -0.48279 0.27231750000000005 -0.656355 0.173565 -0.1745625 0.4099725 -0.27231750000000005 0.656355 -0.27231750000000005 0.2463825 0 0.48279 0.09775500000000001 0.656355 0.27231750000000005 0.1745625 0.173565 0.27231750000000005 0.4099725 0.27231750000000005 0.656355Zm17.29665 -4.27099575c0.1745625 -0.17416350000000003 0.27231750000000005 -0.4103715 0.27231750000000005 -0.65665425s-0.09775500000000001 -0.48249075 -0.27231750000000005 -0.65665425c-0.173565 -0.17416350000000003 -0.4099725 -0.27201825 -0.656355 -0.27201825 -0.2463825 0 -0.48279 0.09785475000000002 -0.656355 0.27201825 -0.1745625 0.17416350000000003 -0.27231750000000005 0.4103715 -0.27231750000000005 0.65665425s0.09775500000000001 0.48249075 0.27231750000000005 0.65665425c0.173565 0.17416350000000003 0.4099725 0.27201825 0.656355 0.27201825 0.2463825 0 0.48279 -0.09785475000000002 0.656355 -0.27201825Zm10.0518075 12.951240750000002c0 0.2463825 -0.09775500000000001 0.48279 -0.27231750000000005 0.656355 -0.173565 0.1745625 -0.4099725 0.27231750000000005 -0.656355 0.27231750000000005 -0.2463825 0 -0.48279 -0.09775500000000001 -0.656355 -0.27231750000000005 -0.1745625 -0.173565 -0.27231750000000005 -0.4099725 -0.27231750000000005 -0.656355 0 -0.2463825 0.09775500000000001 -0.48279 0.27231750000000005 -0.656355 0.173565 -0.1745625 0.4099725 -0.27231750000000005 0.656355 -0.27231750000000005 0.2463825 0 0.48279 0.09775500000000001 0.656355 0.27231750000000005 0.1745625 0.173565 0.27231750000000005 0.4099725 0.27231750000000005 0.656355Zm-47.994712500000006 -23.052923250000003c0.1745625 -0.17416350000000003 0.27231750000000005 -0.4103715 0.27231750000000005 -0.65665425s-0.09775500000000001 -0.48249075 -0.27231750000000005 -0.65665425c-0.173565 -0.17416350000000003 -0.4099725 -0.27201825 -0.656355 -0.27201825 -0.2463825 0 -0.48279 0.09785475000000002 -0.656355 0.27201825 -0.1745625 0.17416350000000003 -0.27231750000000005 0.4103715 -0.27231750000000005 0.65665425s0.09775500000000001 0.48249075 0.27231750000000005 0.65665425c0.173565 0.17416350000000003 0.4099725 0.27201825 0.656355 0.27201825 0.2463825 0 0.48279 -0.09785475000000002 0.656355 -0.27201825Zm17.1400425 -4.59877425c0 0.24628275000000002 -0.09775500000000001 0.48249075 -0.27231750000000005 0.65665425 -0.173565 0.17416350000000003 -0.4099725 0.27201825 -0.656355 0.27201825 -0.2463825 0 -0.48279 -0.09785475000000002 -0.656355 -0.27201825 -0.1745625 -0.17416350000000003 -0.27231750000000005 -0.4103715 -0.27231750000000005 -0.65665425s0.09775500000000001 -0.48249075 0.27231750000000005 -0.65665425c0.173565 -0.17416350000000003 0.4099725 -0.27201825 0.656355 -0.27201825 0.2463825 0 0.48279 0.09785475000000002 0.656355 0.27201825 0.1745625 0.17416350000000003 0.27231750000000005 0.4103715 0.27231750000000005 0.65665425Zm3.233895 -14.63801325c0.1745625 -0.17416350000000003 0.27231750000000005 -0.4103715 0.27231750000000005 -0.65665425s-0.09775500000000001 -0.48249075 -0.27231750000000005 -0.65665425c-0.173565 -0.17416350000000003 -0.4099725 -0.27201825 -0.656355 -0.27201825 -0.2463825 0 -0.48279 0.09785475000000002 -0.656355 0.27201825 -0.1745625 0.17416350000000003 -0.27231750000000005 0.4103715 -0.27231750000000005 0.65665425s0.09775500000000001 0.48249075 0.27231750000000005 0.65665425c0.173565 0.17416350000000003 0.4099725 0.27201825 0.656355 0.27201825 0.2463825 0 0.48279 -0.09785475000000002 0.656355 -0.27201825Zm17.841285 -5.43268425c0 0.24628275000000002 -0.09775500000000001 0.48249075 -0.27231750000000005 0.65665425 -0.173565 0.17416350000000003 -0.4099725 0.27201825 -0.656355 0.27201825 -0.2463825 0 -0.48279 -0.09785475000000002 -0.656355 -0.27201825 -0.1745625 -0.17416350000000003 -0.27231750000000005 -0.4103715 -0.27231750000000005 -0.65665425s0.09775500000000001 -0.48249075 0.27231750000000005 -0.65665425c0.173565 -0.17416350000000003 0.4099725 -0.27201825 0.656355 -0.27201825 0.2463825 0 0.48279 0.09785475000000002 0.656355 0.27201825 0.1745625 0.17416350000000003 0.27231750000000005 0.4103715 0.27231750000000005 0.65665425Zm4.0727925 -15.543743250000002c0.1745625 -0.17416350000000003 0.27231750000000005 -0.4103715 0.27231750000000005 -0.65665425s-0.09775500000000001 -0.48249075 -0.27231750000000005 -0.65665425c-0.173565 -0.17416350000000003 -0.4099725 -0.27201825 -0.656355 -0.27201825 -0.2463825 0 -0.48279 0.09785475000000002 -0.656355 0.27201825 -0.1745625 0.17416350000000003 -0.27231750000000005 0.4103715 -0.27231750000000005 0.65665425s0.09775500000000001 0.48249075 0.27231750000000005 0.65665425c0.173565 0.17416350000000003 0.4099725 0.27201825 0.656355 0.27201825 0.2463825 0 0.48279 -0.09785475000000002 0.656355 -0.27201825Z" clip-rule="evenodd" stroke-width="0.5"></path></g><g><path fill="#6153bd" d="M99.67419000000001 72.23097000000001c-0.17057250000000002 0.32219250000000005 -0.9047325 1.629915 -1.64388 2.9925 -1.9142025000000003 -1.8743025000000002 -1.0663275 -3.257835 1.64388 -2.9925Z" stroke-width="0.5"></path><path fill="#6153bd" d="m105.95245500000001 75.03594000000001 -1.1152050000000002 3.2029725c0.9975 0.056857500000000005 2.2633275000000004 -0.15760500000000002 2.3171925 -1.1381475 -0.0508725 -0.40747875 -0.18354 -0.800394 -0.39002250000000005 -1.1553045 -0.2064825 -0.35481075 -0.48279 -0.66423525 -0.8119649999999999 -0.9095205000000001Z" stroke-width="0.5"></path><path fill="#6153bd" d="M94.12599525000002 59.4001275c0.28428749999999997 1.3645800000000001 0.5496225000000001 2.539635 0.69825 3.1840200000000003 0.83391 -0.4359075 1.3605900000000002 -0.9665775 1.3456275 -1.5351525 -0.0109725 -0.740145 -0.7740600000000001 -1.3077225000000001 -2.0438775000000002 -1.6488675000000002Z" stroke-width="0.5"></path><path fill="#6153bd" d="M87.64434000000001 63.28539000000001c-3.070305 -0.7391475000000001 -3.1650675 -2.5775400000000004 -0.189525 -3.6388800000000003 0.1470315 1.2071745 0.210273 2.42302725 0.189525 3.6388800000000003Z" stroke-width="0.5"></path><path fill="#6153bd" d="M184.49161500000002 115.74591000000001c-0.07581 -0.6822900000000001 -3.2029725 -2.0658225000000003 -6.841852500000001 -3.449355 -3.4114500000000003 -1.3077225000000001 -9.457297500000001 -4.189500000000001 -12.9824625 -5.951085000000001 -0.712215 3.1441200000000005 -2.0817825 6.101707500000001 -4.01793 8.67825 2.767065 1.326675 5.420415 2.8997325000000003 7.0313775000000005 3.0324 1.06533 0.06284250000000001 2.1336524999999997 -0.07880250000000001 3.146115 -0.416955 4.283265 -1.3625850000000002 13.910137500000001 0.5516175000000001 13.6647525 -1.893255Z" stroke-width="0.5"></path><path fill="#6153bd" d="M166.88175 26.422777500000002c-0.6822900000000001 -0.07581 -2.6932500000000004 2.7102075 -4.813935 5.970037500000001 -1.8573450000000002 2.8618275000000004 -6.2732775 8.547577500000001 -9.24882 12.243314999999999 2.555595 1.6609372500000001 4.7690475 3.7969837500000003 6.51966 6.29223 2.1226800000000003 -2.9565900000000003 5.704702500000001 -5.6667975 6.2732775 -7.581 0.27930000000000005 -1.0304175 0.3620925 -2.103927 0.2463825 -3.1650675 -0.4139625 -4.4717925 3.4713000000000003 -13.494180000000002 1.023435 -13.759515Z" stroke-width="0.5"></path><path fill="#6153bd" d="M73.56253275 71.18858250000001c0.5367547500000001 -0.35520975000000005 0.9391462500000001 -0.8799945 1.14283575 -1.49056425 0.2036895 -0.61056975 0.19700625000000002 -1.2718125 -0.0189525 -1.8781927500000002 -0.21585900000000002 -0.6062805 -0.6286245 -1.12288575 -1.1724615 -1.4673225 -0.5437372500000001 -0.344337 -1.1872245 -0.49665525000000005 -1.8277192500000001 -0.43271550000000003 0.35461125 -0.52199175 0.52697925 -1.146327 0.49047075000000007 -1.776348 -0.0365085 -0.62992125 -0.27999825 -1.23021675 -0.6925642500000001 -1.7076202500000002 -0.41256600000000004 -0.47750325000000005 -0.9711660000000001 -0.80548125 -1.5891172500000001 -0.9330615000000001 -0.6179512500000001 -0.1274805 -1.26074025 -0.047580750000000005 -1.8287167500000001 0.22752975 0.939645 -2.81295 -2.9565900000000003 -5.03937 -5.0034600000000005 -2.5585875000000002 -0.015860250000000003 -0.6957562500000001 -0.27501075 -1.36388175 -0.7323645 -1.8883672500000002 -0.45735375000000006 -0.5244855 -1.0840830000000001 -0.872214 -1.7711610000000002 -0.9825375000000001 -0.68717775 -0.11042325000000001 -1.39121325 0.02344125 -1.98991275 0.378252 -0.59859975 0.35481075 -1.05405825 0.90822375 -1.28707425 1.5639802500000002 -1.1261775 -2.9635725 -5.5530825 -2.1575925 -5.5530825 0.871815 -0.452067 -0.44318925 -1.03829775 -0.72408525 -1.667022 -0.798798 -0.6286245 -0.0748125 -1.264431 0.06074775 -1.8078690000000002 0.38553375s-0.9640837500000001 0.82044375 -1.1960025 1.40956725c-0.23201850000000002 0.5891235 -0.26224275 1.238496 -0.08618400000000001 1.846572 -0.58603125 -0.26244225 -1.2430845000000001 -0.320796 -1.8663225 -0.16588425 -0.6231382500000001 0.15491175000000001 -1.1764515 0.51421125 -1.5713617500000001 1.0204425 -0.39501000000000003 0.5063310000000001 -0.6089737500000001 1.1303670000000001 -0.60757725 1.77245775 0.00129675 0.6421905000000001 0.21785400000000002 1.2653287500000001 0.6148589999999999 1.769964 -0.67440975 -0.07790475000000001 -1.354605 0.08568525 -1.91988825 0.46174275 -0.5651835000000001 0.37605750000000004 -0.97884675 0.9403432500000001 -1.1674740000000001 1.5925087500000001 -0.18862725 0.65226525 -0.13994925000000003 1.35011625 0.13725600000000002 1.9698630000000001 0.27720525 0.61974675 0.7651822500000001 1.1211900000000001 1.3770487500000002 1.415253 -0.671118 0.09206924999999999 -1.28807175 0.41895 -1.7410365 0.9227872500000001 -0.45296475 0.5037375000000001 -0.71271375 1.15181325 -0.7331625 1.829016 -0.02044875 0.677103 0.1996995 1.3396425 0.6214425 1.8699135000000002 0.42174300000000003 0.53017125 1.017849 0.8937600000000001 1.682184 1.02612825 -2.567565 1.68777 -0.891765 5.69373 1.89525 5.2308900000000005 -0.35062125 0.5264805000000001 -0.518301 1.1537085 -0.47710425 1.7849265000000003 0.041097 0.6312180000000001 0.28877625 1.231314 0.7048335 1.70781975s0.9772507500000001 0.80288775 1.597197 0.9287722500000001c0.6198465 0.12598425 1.2640320000000003 0.04438875 1.83290625 -0.23201850000000002 -0.947625 2.8378875000000003 3.0573375 5.013435 5.0034600000000005 2.5206825000000004 0.0034912500000000004 0.6800955 0.24847725 1.3368495 0.6912675 1.8531555 0.44279025000000005 0.51620625 1.054557 0.8583487500000001 1.72617375 0.9653805000000001 0.6716167500000001 0.10703175000000001 1.35949275 -0.0281295 1.940736 -0.38114475000000003 0.581343 -0.353115 1.018248 -0.90124125 1.23281025 -1.54662375 0.15750525 0.43760325 0.41964825000000006 0.82992 0.7634865 1.14303525 0.34383825 0.31311525 0.75899775 0.53735325 1.209369 0.653163 0.45037125000000006 0.1159095 0.9222885000000001 0.11979975000000001 1.37445525 0.011571 0.45226650000000007 -0.10822875 0.8712165 -0.32548425 1.22024175 -0.63271425 -0.9197947500000001 -2.78930925 -1.6729072500000002 -5.6308875 -2.2553475 -8.5096725 -1.7496150000000001 -7.62888 -1.3236825 -4.83987 -2.160585 -8.18748 -2.388015 -0.5117175 -1.6488675000000002 -3.33564 0.0189525 -2.4448725000000002 0.798 0.4359075 1.0802925 0.37905 1.0802925 -0.13266750000000002 0.22752975 -4.207455 3.37364475 -5.5151775 5.70480225 -1.3645800000000001 1.8194400000000002 3.2408775000000003 3.03230025 9.1161525 -0.28438725000000004 9.9500625 -0.34523475000000003 0.096558 -0.70293825 0.14134575 -1.0613400000000002 0.13266750000000002 0 0.8768025 1.941135 3.6269100000000005 2.312205 4.0897499999999996 1.139145 -0.18703125 2.303427 -0.154812 3.4304025 0.0947625l2.8239225 -0.8528625000000001c0.09346575000000001 -0.33366375000000004 0.10593450000000001 -0.68478375 0.0365085 -1.02433275 -0.06932625 -0.33944925000000004 -0.218652 -0.6574522500000001 -0.4355085 -0.9277747500000001 0.672714 0.08109675 1.35231075 -0.07890225000000001 1.9181925000000002 -0.45146850000000005 0.5658817500000001 -0.37256625000000004 0.98144025 -0.9336600000000002 1.1728605 -1.583631 0.1913205 -0.64987125 0.14613375 -1.3466250000000002 -0.12758025000000003 -1.9664715000000001 -0.27361425 -0.61974675 -0.7581997500000001 -1.12248675 -1.3674727500000001 -1.4188440000000002 0.6707190000000001 -0.0887775 1.28867025 -0.41106975000000007 1.7453257500000001 -0.9102187500000001 0.45675525 -0.499149 0.7229880000000001 -1.143135 0.75201525 -1.8190410000000001 0.02902725 -0.675906 -0.1809465 -1.3404405000000001 -0.5931135000000001 -1.8768960000000001 -0.41216700000000006 -0.5364555 -1.00019325 -0.9106177500000001 -1.6608375000000002 -1.05665175Z" stroke-width="0.5"></path><path fill="#6153bd" d="M63.631422750000006 80.91121500000001c-0.8472765000000001 -0.06384000000000001 -1.67889225 -0.262143 -2.4638250000000004 -0.5875275l3.25983 2.42592c-0.38513475 -0.5536125000000001 -0.65585625 -1.178646 -0.7960050000000001 -1.8383925Z" stroke-width="0.5"></path><path fill="#6153bd" d="M90.44921025000001 97.53255750000001c-3.706311 0.30603300000000005 -7.427385 0.39471075 -11.144070000000001 0.26533500000000004l11.049307500000001 2.4448725000000002c0.07890225000000001 -0.9011415 0.110523 -1.80577425 0.0947625 -2.7102075Z" stroke-width="0.5"></path><path fill="#6153bd" d="M55.3682325 32.3738625c-0.0007980000000000001 1.2330097500000001 -0.36717975 2.43818925 -1.0527615 3.4631205 -0.6856815 1.0248315000000001 -1.65974025 1.82343 -2.7991845 2.29474875 -1.1394442500000002 0.47131875 -2.3930025 0.59421075 -3.6023715000000003 0.35321475 -1.20926925 -0.24109575 -2.31988575 -0.8352067500000001 -3.1915012500000004 -1.70742075 -0.8716155000000001 -0.872214 -1.4651280000000002 -1.9832295 -1.70542575 -3.19269825 -0.240198 -1.209369 -0.116508 -2.4629272500000003 0.355509 -3.60207225 0.47211675000000003 -1.139145 1.27131375 -2.112705 2.296644 -2.79768825 1.0252305000000002 -0.68498325 2.2306095000000004 -1.050567 3.463719 -1.050567 0.81944625 -0.00089775 1.6310122500000002 0.15989925 2.3882145 0.47311425 0.7572022500000001 0.31331475000000003 1.4450782500000001 0.77296275 2.0243265 1.3525102500000001 0.57924825 0.57964725 1.0383975 1.2678225 1.3512135 2.02522425 0.312816 0.75740175 0.47311425 1.5690675 0.47161800000000004 2.38851375Z" stroke-width="0.5"></path></g><g><path stroke="#120071" stroke-linecap="round" stroke-linejoin="round" d="M95.111625 124.91892c-0.2595495 -3.7077075 0.24358950000000001 -7.429380000000001 1.4782950000000001 -10.9355925" stroke-width="0.5"></path><path stroke="#120071" stroke-linecap="round" stroke-linejoin="round" d="m96.87430725 73.51974 -0.7012425 -12.470745" stroke-width="0.5"></path><path stroke="#120071" stroke-linecap="round" stroke-linejoin="round" d="m86.4882375 82.46532 -1.21296 -20.84775" stroke-width="0.5"></path><path stroke="#120071" stroke-linecap="round" stroke-linejoin="round" d="m64.4654325 82.8254175 -3.3735450000000005 -2.539635" stroke-width="0.5"></path><path stroke="#120071" stroke-linecap="round" stroke-linejoin="round" d="M61.0918875 80.2857825c7.505190000000001 2.8997325000000003 6.157567500000001 -5.3815124999999995 3.86631 -9.457297500000001 -2.3331525 -4.1496 -5.4772725 -2.8428750000000003 -5.704702500000001 1.3645800000000001 0 0.5117175 -0.2822925 0.564585 -1.0802925 0.13266750000000002 -1.6628325000000002 -0.89775 -2.4069675 1.933155 -0.0189525 2.4448725000000002 0.32219250000000005 1.3077225000000001 0.5915175 2.02692 0.9097200000000001 3.070305 0.3461325 1.1361525000000001 0.9975 3.96207 1.2508650000000001 5.1171750000000005 1.187025 5.4453525 2.31021 9.9321075 4.5885 13.4373225 6.230385000000001 9.593955000000001 14.17647 12.81189 24.126532500000003 12.46875 0.8130622500000001 -3.7276575000000003 1.2887700000000002 -7.5211500000000004 1.4214375000000001 -11.333595 7.05033 -0.5875275 8.795955 -2.11071 14.63133 -15.522097500000001 0.5855325 -1.3466250000000002 1.197 -2.7860175000000003 1.8762975000000002 -4.378027500000001" stroke-width="0.5"></path><path stroke="#120071" stroke-linecap="round" stroke-linejoin="round" d="M65.9437275 85.00495500000001c-1.0205422499999999 -1.20607725 -1.8049762500000002 -2.5935 -2.312205 -4.0897499999999996" stroke-width="0.5"></path><path stroke="#120071" stroke-linecap="round" stroke-linejoin="round" d="M96.87420750000001 73.51575000000001c-1.402485 3.4114500000000003 -4.61244 10.48971 -7.3725225000000005 12.375982500000001 -3.4762875 2.3760450000000004 -19.066215000000003 -0.60648 -19.066215000000003 -0.60648 -2.539635 -0.5306700000000001 -4.794982500000001 -0.8149575 -6.8039475000000005 0.7391475000000001" stroke-width="0.5"></path><path stroke="#120071" stroke-linecap="round" stroke-linejoin="round" d="m69.35527725 85.080765 16.981440000000003 -5.174032500000001" stroke-width="0.5"></path><path stroke="#120071" stroke-linecap="round" stroke-linejoin="round" d="M103.43177250000001 61.958715c1.3456275 -1.21296 4.189500000000001 -4.563562500000001 5.7994650000000005 -6.368040000000001 0.7411425 -0.831915 1.09725 1.402485 -3.2977350000000003 6.5765175000000005" stroke-width="0.5"></path><path stroke="#120071" stroke-linecap="round" stroke-linejoin="round" d="M104.83725 62.94225c1.5351525 -1.023435 3.51519 -2.647365 5.3635575 -4.0747875 0.8668275000000001 -0.6693225 1.5351525 0.60648 -2.9925 4.85184" stroke-width="0.5"></path><path stroke="#120071" stroke-linecap="round" stroke-linejoin="round" d="M105.95245500000001 75.03594000000001c1.49625 1.3965 1.254855 2.1795375000000003 1.0044825 2.5935 -1.386525 1.8493650000000001 -8.6732625 -0.7321650000000001 -9.843330000000002 -3.6678075000000003 -0.4738125 -1.187025 0.51471 -1.9321575000000002 2.5605825 -1.7336550000000002" stroke-width="0.5"></path><path stroke="#120071" stroke-linecap="round" stroke-linejoin="round" d="m104.83725 78.23891250000001 1.1181975 -3.2029725c0.98553 -3.0134475000000003 1.21296 -3.7525950000000003 0.6822900000000001 -5.6288925 -0.416955 -1.4782950000000001 -0.831915 -2.176545 0.0947625 -2.7291600000000003 5.03139 -2.998485 5.1560775 -4.3760325 4.16955 -4.0368825 -2.10273 0.724185 -3.4114500000000003 1.0044825 -4.813935 1.3645800000000001" stroke-width="0.5"></path><path stroke="#120071" stroke-linecap="round" stroke-linejoin="round" d="M100.03927500000002 68.53523249999999c-0.57027075 -1.92288075 -1.4458762500000002 -3.7416225 -2.59340025 -5.386500000000001 -0.6822900000000001 -0.947625 0 -1.8762975000000002 2.91858525 1.326675" stroke-width="0.5"></path><path stroke="#120071" stroke-linecap="round" stroke-linejoin="round" d="M87.45481500000001 59.6505c-2.9695575 1.0463775 -2.9077125 2.9176875 0.189525 3.6388800000000003 2.407167 0.53974725 4.92395925 0.2950605 7.182 -0.69825 2.124675 -1.1102175 1.596 -2.53764 -0.69825 -3.1840200000000003" stroke-width="0.5"></path><path stroke="#120071" stroke-linecap="round" stroke-linejoin="round" d="M90.54397275000001 56.5193475c-0.28428749999999997 -0.6822900000000001 -0.5117175 -1.2508650000000001 -0.7391475000000001 -1.7625825 -1.2763012500000002 -2.7277635 -2.8664160000000005 -5.2974232500000005 -4.738125 -7.656810000000001 -2.280285 -2.5526025000000003 -2.7620775 -1.8034800000000002 -1.3456275 1.0044825 2.3132025 4.5885 4.119675 10.0677675 3.9231675 15.1809525" stroke-width="0.5"></path><path stroke="#120071" stroke-linecap="round" stroke-linejoin="round" d="M85.7301375 47.89596c-0.135261 -1.2641317500000002 -0.08418900000000001 -2.5412310000000002 0.15162 -3.7905 0.0947625 -0.34114500000000003 0.584535 -0.66234 1.023435 1.4593425000000002 0.093765 0.45486000000000004 0.5316675000000001 2.4069675 0.720195 3.0922500000000004 0.32289075 1.4018865 0.7343595 2.7818280000000004 1.2319125000000002 4.131645000000001" stroke-width="0.5"></path><path stroke="#120071" stroke-linecap="round" stroke-linejoin="round" d="M89.80492500000001 54.756765c0.9286725000000001 1.2887700000000002 1.7386425 -2.124675 2.2553475 -3.525165 0.4698225 -1.2718125 1.49625 -2.5007325000000002 1.2698175 1.21296 -0.15760500000000002 2.6154450000000002 0.8229375 7.271775000000001 1.49625 10.1395875" stroke-width="0.5"></path><path stroke="#120071" stroke-linecap="round" stroke-linejoin="round" d="m102.19986000000002 95.88369 22.1554725 -5.510190000000001c2.7870150000000002 -0.6986490000000001 5.708692500000001 -0.65286375 8.4717675 0.13266750000000002 11.1710025 3.08397075 21.963952499999998 7.3996545000000005 32.181345 12.867750000000001 -0.189525 5.6288925 -2.9565900000000003 10.082730000000002 -6.4248975 14.328090000000001 -9.566025 -4.78002 -19.600875 -8.557552500000002 -29.944950000000002 -11.27175 0 0 -21.512085 8.8428375 -28.95942 8.1306225 -7.8094275 -0.7461300000000001 -10.67325 -5.7426075 -10.67325 -5.7426075" stroke-width="0.5"></path><path stroke="#120071" stroke-linecap="round" stroke-linejoin="round" d="M125.18625 90.160035C137.88243000000003 78.75571725 149.91826500000002 66.637788 161.2368975 53.865c-3.10821 -5.386500000000001 -7.05033 -9.177 -12.0348375 -11.030355 -14.546542500000001 16.473513 -30.329985 31.813068 -47.2106775 45.885000000000005" stroke-width="0.5"></path><path stroke="#120071" stroke-linecap="round" stroke-linejoin="round" d="M184.49161500000002 115.74591000000001c-0.07581 -0.6822900000000001 -3.2029725 -2.0658225000000003 -6.841852500000001 -3.449355 -3.4114500000000003 -1.3077225000000001 -9.457297500000001 -4.189500000000001 -12.9824625 -5.951085000000001 -0.712215 3.1441200000000005 -2.0817825 6.101707500000001 -4.01793 8.67825 2.767065 1.326675 5.420415 2.8997325000000003 7.0313775000000005 3.0324 1.06533 0.06284250000000001 2.1336524999999997 -0.07880250000000001 3.146115 -0.416955 4.283265 -1.3625850000000002 13.910137500000001 0.5516175000000001 13.6647525 -1.893255Z" stroke-width="0.5"></path><path stroke="#120071" stroke-linecap="round" stroke-linejoin="round" d="M166.88175 26.422777500000002c-0.6822900000000001 -0.07581 -2.6932500000000004 2.7102075 -4.813935 5.970037500000001 -1.8573450000000002 2.8618275000000004 -6.2732775 8.547577500000001 -9.24882 12.243314999999999 2.555595 1.6609372500000001 4.7690475 3.7969837500000003 6.51966 6.29223 2.1226800000000003 -2.9565900000000003 5.704702500000001 -5.6667975 6.2732775 -7.581 0.27930000000000005 -1.0304175 0.3620925 -2.103927 0.2463825 -3.1650675 -0.4139625 -4.4717925 3.4713000000000003 -13.494180000000002 1.023435 -13.759515Z" stroke-width="0.5"></path><path stroke="#120071" stroke-linecap="round" stroke-linejoin="round" d="M72.1791 84.2279025c0.062244 -0.494361 0.03002475 -0.9960037500000001 -0.0947625 -1.4782950000000001 -0.08169525000000001 -0.16857750000000002 -0.1821435 -0.32757900000000006 -0.29925 -0.4738125 0.673911 0.08408925 1.355802 -0.07411425 1.9237785000000003 -0.44638125 0.5679765 -0.372267 0.9851310000000001 -0.9343582500000001 1.17705 -1.5858255 0.19181925 -0.65146725 0.14573475000000002 -1.34991675 -0.1298745 -1.97056125 -0.275709 -0.6206445 -0.7629877500000001 -1.1231849999999999 -1.3749540000000002 -1.417647 0.6777015000000001 -0.08498700000000001 1.3029345 -0.4087755 1.7633805000000002 -0.913311 0.460446 -0.5044357500000001 0.7258807500000001 -1.15660125 0.7487235000000001 -1.8392902500000001 0.022842750000000002 -0.68258925 -0.19840275000000002 -1.3510140000000002 -0.6241357500000001 -1.88517525 -0.42573300000000003 -0.53416125 -1.02792375 -0.898947 -1.6984432500000002 -1.0290210000000002 0.49007175000000003 -0.32059650000000006 0.8706180000000001 -0.78333675 1.09056675 -1.3260764999999999 0.21994875000000003 -0.5428395 0.26882625000000004 -1.1398432500000002 0.14014875000000002 -1.71121125 -0.12857775 -0.571368 -0.42872550000000004 -1.0897687500000002 -0.8600445 -1.4858760000000002 -0.43141875 -0.39610725 -0.97346025 -0.65106825 -1.5537060000000003 -0.7306687500000001 -0.23122050000000002 -0.03301725 -0.46553325 -0.0393015 -0.69825 -0.0189525 0.25226775 -0.36079575 0.41476050000000003 -0.7766535 0.4738125 -1.21296 0.05216925 -0.37336425000000006 0.03022425 -0.753312 -0.06453824999999999 -1.11809775 -0.09486225000000001 -0.36478575 -0.26064675 -0.70732725 -0.48807675000000006 -1.0080735 -0.22733025 -0.30064650000000004 -0.51181725 -0.55351275 -0.83700225 -0.74403525 -0.325185 -0.19062225 -0.68478375 -0.31521000000000005 -1.05824775 -0.366681 -0.563787 -0.0799995 -1.1385465000000001 0.012568500000000002 -1.6488675000000002 0.26533500000000004 0.03481275 -0.11780475 0.06014925 -0.23830275 0.07581 -0.3600975 0.08608425 -0.6218414999999999 -0.034114500000000006 -1.25475525 -0.34204275 -1.80178425 -0.308028 -0.547029 -0.78672825 -0.9780487500000001 -1.3630837500000001 -1.22702475 -0.5762557500000001 -0.248976 -1.21824675 -0.3022425 -1.8276195000000002 -0.15152025000000002 -0.6094725 0.15072225000000003 -1.152711 0.4969545 -1.546524 0.98582925 0.0033915 -0.69396075 -0.24408825 -1.36567725 -0.6968535 -1.8915592500000002 -0.45276525000000006 -0.5258820000000001 -1.0802925 -0.8704185000000001 -1.7669715000000001 -0.97026825l-0.189525 -0.037905c-0.6697215000000001 -0.09097200000000001 -1.35011625 0.05665800000000001 -1.9218832500000003 0.41705475000000003 -0.571767 0.36039675000000004 -0.9984974999999999 0.9105179999999999 -1.20527925 1.5540052500000001 -0.22344000000000003 -0.5983005 -0.6398962499999999 -1.1051302500000002 -1.1836335000000002 -1.4401905000000002 -0.5437372500000001 -0.33506025 -1.1836335000000002 -0.47939850000000006 -1.8185422500000001 -0.4099725 -0.63490875 0.06932625 -1.2285210000000002 0.34832700000000005 -1.68707175 0.79291275 -0.45855075 0.44458575 -0.7559055000000001 1.02932025 -0.8448825 1.66173525 -0.015760500000000004 0.08748075000000001 -0.022044750000000002 0.17645775000000002 -0.0189525 0.26533500000000004 -0.4359075 -0.43421175000000006 -1.00149 -0.71430975 -1.6109625 -0.798 -0.37316475 -0.053067 -0.7531125000000001 -0.031720500000000006 -1.117998 0.06254325000000001 -0.36488550000000003 0.0943635 -0.7075267500000001 0.25984875 -1.008273 0.48707925 -0.30074625 0.2272305 -0.55351275 0.5116177500000001 -0.7439355000000001 0.8369025 -0.19042275 0.325185 -0.31471125 0.6848835 -0.3656835 1.0583475 -0.0548625 0.40149375000000004 -0.020847749999999998 0.8101695000000001 0.09975 1.197 -0.24608325 -0.114513 -0.50802675 -0.19122075000000002 -0.7770525 -0.22743000000000002 -0.37336425000000006 -0.05256825 -0.75341175 -0.030922500000000002 -1.118397 0.06354075000000001s-0.7078260000000001 0.26004825 -1.0087717500000002 0.48707925c-0.3010455 0.227031 -0.55431075 0.5112187499999999 -0.7454317500000001 0.836304 -0.191121 0.3249855 -0.31620750000000003 0.6844845 -0.36827699999999997 1.0579485 -0.051570750000000005 0.38413725000000004 -0.02623425 0.7746585 0.07461300000000001 1.14882075 0.10084725 0.374262 0.27521025 0.7245840000000001 0.5129145 1.03071675 -0.6757065 -0.080997 -1.35809625 0.08089725 -1.92547425 0.4566555s-0.98263725 0.9410415000000001 -1.1717632500000001 1.5948030000000002c-0.18902625 0.65366175 -0.13955025000000001 1.35330825 0.13965000000000002 1.9739527500000003 0.27920025 0.6206445 0.7699702500000001 1.1217885 1.38453 1.41395625 -0.6741105 0.08807925000000001 -1.2949545 0.413364 -1.7511112500000001 0.9175005 -0.4562565 0.5041365 -0.7180005 1.15420725 -0.738549 1.8338040000000002 -0.0205485 0.6795967500000001 0.20159475000000002 1.34433075 0.62652975 1.87500075 0.424935 0.53076975 1.02493125 0.8928622500000001 1.6925580000000002 1.02153975 -0.33964875000000005 0.22304100000000002 -0.627228 0.5167050000000001 -0.843087 0.861042 -0.21585900000000002 0.34423725000000005 -0.3549105 0.73106775 -0.40777800000000003 1.133958 -0.10204425 0.75101775 0.096558 1.5119107500000002 0.55251525 2.1172934999999997 0.45595725000000004 0.6053827500000001 1.13246175 1.006278 1.88238225 1.115604 0.23132025 0.037107 0.46702950000000004 0.037107 0.69825 0 -0.23830275 0.36628200000000005 -0.3936135 0.7802445 -0.45486000000000004 1.21296 -0.07182 0.517104 -0.0014962500000000002 1.04388375 0.20339025000000002 1.5240802500000001 0.2048865 0.48009675 0.5367547500000001 0.895356 0.9597945000000001 1.2011895 0.42303975 0.30593325 0.92139075 0.49077000000000004 1.4414872500000002 0.5348595 0.52019625 0.044089500000000004 1.042587 -0.054264 1.511013 -0.28458675 -0.034713 0.11142075 -0.0600495 0.22553475 -0.07581 0.34114500000000003 -0.05436375 0.37356375 -0.034114500000000006 0.7543095000000001 0.059550750000000006 1.12009275 0.093765 0.3656835 0.25905075 0.7092225 0.4864807500000001 1.0106670000000002 0.22733025 0.30144450000000006 0.5122162499999999 0.5547097500000001 0.8381992500000001 0.74523225 0.325983 0.19062225 0.6864795 0.31461150000000004 1.06064175 0.36488550000000003 0.49376250000000005 0.07231875 0.997899 0.01206975 1.460739 -0.17436300000000002 0.46293975000000004 -0.18653250000000002 0.86792475 -0.49256550000000004 1.1736585000000002 -0.886977 -0.00089775 0.68258925 0.241794 1.34313375 0.6844845 1.86263175 0.4426905 0.5195977500000001 1.0563525 0.86413425 1.730463 0.9714652500000001 0.6741105 0.10743075 1.3643805 -0.029326500000000002 1.9466212500000002 -0.3856335 0.58224075 -0.35620725 1.018248 -0.9086227500000001 1.22941875 -1.5576960000000002 0.15750525 0.4375035 0.4195485 0.82992 0.76338675 1.14303525 0.343938 0.31301550000000006 0.7590975000000001 0.5372535 1.2094687499999999 0.653163 0.45037125000000006 0.11580975 0.92218875 0.11979975000000001 1.37445525 0.011571 0.45226650000000007 -0.10822875 0.8712165 -0.32548425 1.22024175 -0.63271425" stroke-width="0.5"></path><path stroke="#120071" stroke-linecap="round" stroke-linejoin="round" d="m60.4475025 83.52666 4.01793 -0.7012425" stroke-width="0.5"></path><path stroke="#120071" stroke-linecap="round" stroke-linejoin="round" d="M169.405425 169.74158250000002c-1.4354025000000001 -0.488775 -2.7501075000000004 -1.2777975 -3.85833 -2.3132025 -1.1072250000000001 -1.0364025 -1.9820325000000003 -2.2952475000000003 -2.5665675 -3.6947400000000004l-2.4069675 -5.723655000000001 9.24882 -3.7146900000000005 0.871815 2.04687c0.935655 2.2314075000000004 2.6932500000000004 4.0169325 4.908697500000001 4.987500000000001l10.310160000000002 4.5485999999999995c0.13965000000000002 0.0588525 0.2663325 0.145635 0.3720675 0.2543625 0.10573500000000001 0.1087275 0.18753 0.2384025 0.2423925 0.37905 0.0548625 0.141645 0.08079750000000001 0.2922675 0.0768075 0.44388750000000005 -0.004987500000000001 0.15162 -0.039900000000000005 0.301245 -0.10374 0.4389 -0.8758050000000001 1.953105 -2.44986 3.509205 -4.412940000000001 4.36107 -1.9640775000000001 0.851865 -4.175535 0.939645 -6.2004600000000005 0.2443875l-6.481755000000001 -2.25834Z" stroke-width="0.5"></path><path stroke="#120071" stroke-linecap="round" stroke-linejoin="round" d="m160.57356000000001 158.009985 9.24882 -3.7146900000000005 -2.9565900000000003 -6.97452c-0.08478750000000002 -0.1925175 -0.24039750000000001 -0.34513499999999997 -0.43391250000000003 -0.4259325 -0.1945125 -0.081795 -0.4119675 -0.08478750000000002 -0.608475 -0.009975000000000001l-7.73262 3.0922500000000004c-0.09875250000000001 0.0408975 -0.18852750000000001 0.10074750000000002 -0.26334 0.17556 -0.07581 0.07581 -0.13566000000000003 0.165585 -0.17556 0.2643375 -0.0408975 0.09875250000000001 -0.0608475 0.2044875 -0.0608475 0.31122 0.0009975000000000001 0.10673250000000001 0.021945 0.21147000000000002 0.06384000000000001 0.3102225l2.9186850000000004 6.9715275000000005Z" stroke-width="0.5"></path><path stroke="#120071" stroke-linecap="round" stroke-linejoin="round" d="M95.05476750000001 77.61348000000001c1.240491 1.4294175000000002 2.7841222500000002 2.5642732500000003 4.518375750000001 3.32217375 1.73395425 0.7578007500000001 3.6162367500000006 1.1195940000000002 5.5074967500000005 1.0588462500000002" stroke-width="0.5"></path><path stroke="#120071" stroke-linecap="round" stroke-linejoin="round" d="M85.52166000000001 65.78712c1.73734575 0.7219905000000001 3.6098527500000004 1.06104075 5.4901402500000005 0.9941085000000001 1.8801877500000002 -0.06693225000000001 3.7238670000000003 -0.53835075 5.40555225 -1.382136" stroke-width="0.5"></path><path stroke="#120071" stroke-linecap="round" stroke-linejoin="round" d="m35.27848275 128.70942000000002 85.49482725000001 41.54388000000001" stroke-width="0.5"></path><path stroke="#120071" stroke-linecap="round" stroke-linejoin="round" d="M138.3422775 171.80740500000002c0.5037375000000001 -1.0383975 0.57456 -2.2334025 0.19850250000000003 -3.3246675000000003 -0.37705500000000003 -1.0902675 -1.171065 -1.98702 -2.2074675000000004 -2.4937500000000004l-7.012425 -3.3915c-1.0383975 -0.5037375000000001 -2.2334025 -0.57456 -3.3246675000000003 -0.19850250000000003 -1.0902675 0.37705500000000003 -1.98702 1.171065 -2.4937500000000004 2.2074675000000004l-9.8363475 20.241270000000004c-0.5037375000000001 1.0383975 -0.57456 2.2334025 -0.19850250000000003 3.3246675000000003 0.37705500000000003 1.0902675 1.171065 1.98702 2.2074675000000004 2.4937500000000004l7.012425 3.4114500000000003c1.0383975 0.5037375000000001 2.2334025 0.57456 3.3246675000000003 0.19850250000000003 1.0902675 -0.37705500000000003 1.98702 -1.171065 2.4937500000000004 -2.2074675000000004l9.8363475 -20.26122Z" stroke-width="0.5"></path><path stroke="#120071" stroke-linecap="round" stroke-linejoin="round" d="m32.492565 115.53743250000001 2.8997325000000003 -5.951085000000001c1.424031 -2.9286600000000003 3.952494 -5.1730350000000005 7.029881250000001 -6.2393625 3.077487 -1.06533 6.4521292500000005 -0.8668275000000001 9.38298375 0.5536125000000001l78.23592000000001 38.00475c2.9286600000000003 1.42443 5.1730350000000005 3.9520950000000004 6.2393625 7.03038 1.06533 3.0772875 0.8668275000000001 6.45183 -0.5536125000000001 9.382485l-2.8997325000000003 5.970037500000001" stroke-width="0.5"></path><path stroke="#120071" stroke-linecap="round" stroke-linejoin="round" d="m22.35307725 145.3307625 93.34096275 45.33438" stroke-width="0.5"></path><path stroke="#120071" stroke-linecap="round" stroke-linejoin="round" d="m168.59046750000002 67.15169999999999 1.5162 9.70368" stroke-width="0.5"></path><path stroke="#120071" stroke-linecap="round" stroke-linejoin="round" d="m174.2004075 71.24544000000002 -9.70368 1.5162" stroke-width="0.5"></path><path stroke="#120071" stroke-linecap="round" stroke-linejoin="round" d="M55.3682325 32.3738625c-0.0007980000000000001 1.2330097500000001 -0.36717975 2.43818925 -1.0527615 3.4631205 -0.6856815 1.0248315000000001 -1.65974025 1.82343 -2.7991845 2.29474875 -1.1394442500000002 0.47131875 -2.3930025 0.59421075 -3.6023715000000003 0.35321475 -1.20926925 -0.24109575 -2.31988575 -0.8352067500000001 -3.1915012500000004 -1.70742075 -0.8716155000000001 -0.872214 -1.4651280000000002 -1.9832295 -1.70542575 -3.19269825 -0.240198 -1.209369 -0.116508 -2.4629272500000003 0.355509 -3.60207225 0.47211675000000003 -1.139145 1.27131375 -2.112705 2.296644 -2.79768825 1.0252305000000002 -0.68498325 2.2306095000000004 -1.050567 3.463719 -1.050567 0.81944625 -0.00089775 1.6310122500000002 0.15989925 2.3882145 0.47311425 0.7572022500000001 0.31331475000000003 1.4450782500000001 0.77296275 2.0243265 1.3525102500000001 0.57924825 0.57964725 1.0383975 1.2678225 1.3512135 2.02522425 0.312816 0.75740175 0.47311425 1.5690675 0.47161800000000004 2.38851375v0Z" stroke-width="0.5"></path><path stroke="#120071" stroke-linecap="round" stroke-linejoin="round" d="M47.97975 21.7225575c0.79031925 1.333458 1.1899177500000002 2.8622265000000002 1.15311 4.4119425 -1.4154525000000002 -0.61874925 -2.6298090000000003 -1.62063825 -3.5062125 -2.89275 -0.7920150000000001 -1.33435575 -1.19271075 -2.8646205 -1.1561025 -4.4159325 1.4170485000000002 0.6193477500000001 2.6326020000000003 1.6227330000000002 3.509205 2.89674v0Z" stroke-width="0.5"></path><path stroke="#120071" stroke-linecap="round" stroke-linejoin="round" d="m90.33958500000001 100.2397725 -11.034345 -2.4608325000000004" stroke-width="0.5"></path><path stroke="#120071" stroke-linecap="round" stroke-linejoin="round" d="M90.44940975000002 97.53255750000001c-6.671679 0.596106 -13.3906395 0.39251625 -20.013840000000002 -0.60648" stroke-width="0.5"></path><path stroke="#120071" stroke-linecap="round" stroke-linejoin="round" d="m21.46221 87.52563750000002 0.4359075 2.42592" stroke-width="0.5"></path><path stroke="#120071" stroke-linecap="round" stroke-linejoin="round" d="m20.0028675 92.6428125 -2.42592 0.4359075" stroke-width="0.5"></path><path stroke="#120071" stroke-linecap="round" stroke-linejoin="round" d="m27.0152925 91.42985250000001 -2.42592 0.416955" stroke-width="0.5"></path><path stroke="#120071" stroke-linecap="round" stroke-linejoin="round" d="m23.1110775 96.9639825 -0.416955 -2.42592" stroke-width="0.5"></path><path stroke="#120071" stroke-linecap="round" stroke-linejoin="round" d="M24.5893725 91.8468075c-0.30134475 0.05326650000000001 -0.6102705 0.046483500000000004 -0.9090217500000001 -0.02004975 -0.29875125 -0.06653325 -0.581343 -0.19142025 -0.83161575 -0.36757875 -0.2503725 -0.17615850000000002 -0.46333875 -0.39999750000000006 -0.626829 -0.658749 -0.16349025 -0.2587515 -0.27421275 -0.5472285 -0.3257835 -0.8488725 0.05326650000000001 0.30134475 0.046483500000000004 0.6102705 -0.02004975 0.9090217500000001 -0.06653325 0.29875125 -0.19142025 0.581343 -0.36757875 0.8317155 -0.17605874999999999 0.25027275000000004 -0.39999750000000006 0.463239 -0.6586492500000001 0.62672925 -0.2587515 0.16349025 -0.5472285 0.27421275 -0.84897225 0.3257835 0.30144450000000006 -0.05326650000000001 0.61037025 -0.046483500000000004 0.9090217500000001 0.02004975 0.29875125 0.06653325 0.58144275 0.19142025 0.8317155 0.36757875s0.463239 0.39999750000000006 0.62672925 0.658749c0.16349025 0.2587515 0.27421275 0.5472285 0.3257835 0.8488725 -0.05326650000000001 -0.30134475 -0.046483500000000004 -0.6102705 0.02004975 -0.9090217500000001 0.06653325 -0.29875125 0.19142025 -0.581343 0.36757875 -0.8317155 0.17615850000000002 -0.25027275000000004 0.39999750000000006 -0.463239 0.658749 -0.62672925 0.2587515 -0.16349025 0.5472285 -0.27421275 0.8488725 -0.3257835v0Z" stroke-width="0.5"></path><path stroke="#120071" stroke-linecap="round" stroke-linejoin="round" d="M154.849905 115.89753c1.6658250000000001 7.0224 0.7600950000000001 14.409885000000001 -2.5536000000000003 20.821815 -3.313695 6.41193 -8.815904999999999 11.42337 -15.508132500000002 14.126595000000002" stroke-width="0.5"></path><path stroke="#120071" stroke-linecap="round" stroke-linejoin="round" d="M98.03031 75.225465c0.7391475000000001 -1.3645800000000001 1.629915 -2.9755425000000004 1.629915 -2.9755425000000004 0.416955 -0.8528625000000001 0.317205 -7.6209 0.9665775 -9.07725 0.16957500000000003 -0.37905 3.3386325 -4.0897499999999996 4.8328875 -5.8942275 1.2718125 -1.5331575 2.4448725000000002 -1.7057250000000002 -0.720195 3.3545925000000003" stroke-width="0.5"></path><path stroke="#120071" stroke-linecap="round" stroke-linejoin="round" d="M38.00475 123.061575c0.5033385 -1.0383975 0.57456 -2.2334025 0.19800375000000003 -3.3246675000000003 -0.37655625000000004 -1.0902675 -1.1702670000000002 -1.98702 -2.20696875 -2.4937500000000004l-6.9934725 -3.3915c-1.03829775 -0.5037375000000001 -2.2337017500000003 -0.57456 -3.32436825 -0.19850250000000003 -1.0906665 0.37705500000000003 -1.9876185 1.171065 -2.49404925 2.2074675000000004l-9.855300000000002 20.241270000000004c-0.5033385 1.0383975 -0.57456 2.2334025 -0.19800375000000003 3.3246675000000003 0.37655625000000004 1.0902675 1.1702670000000002 1.98702 2.20696875 2.4937500000000004l7.012425 3.4114500000000003c1.03829775 0.5037375000000001 2.2337017500000003 0.57456 3.32436825 0.19850250000000003 1.0906665 -0.37705500000000003 1.9876185 -1.171065 2.49404925 -2.2074675000000004L38.00475 123.061575Z" stroke-width="0.5"></path><path stroke="#120071" stroke-linejoin="round" d="m120.4890225 4.987500000000001 -0.2084775 19.02831 11.940075000000002 20.696130000000004 0.2084775 -19.02831L120.4890225 4.987500000000001Z" stroke-width="0.5"></path><path stroke="#120071" stroke-linejoin="round" d="m125.2311375 32.66982075 -6.254325 6.21642 -1.7246775 20.9046075 14.9914275 -14.9914275 -7.012425 -12.1296Z" stroke-width="0.5"></path></g></g></svg>