<svg xmlns="http://www.w3.org/2000/svg" fill="none" viewBox="-0.25 -0.25 200 200" id="Bandaid-On-Heart-01--Streamline-Bangalore.svg"><desc>Bandaid On Heart 01 Streamline Illustration: https://streamlinehq.com</desc><g id="bandaid-on-heart-01--health-wellness-bandaid-on-heart"><g id="color2"><path id="vector" fill="#70a4ff" d="M79.9605975 83.76606000000001c-0.7271775 -1.8244275 -1.49625 -4.322167500000001 -0.98553 -6.2393625 1.9338532500000003 -1.6810867500000002 3.8972325000000003 -3.4007767500000003 5.8902375000000005 -5.15907 -2.887563 -3.2053665000000002 -5.60106225 -6.563450250000001 -8.1286275 -10.0597875C75.17259750000001 63.6405 69.17862000000001 68.8275 69.17862000000001 68.8275c-3.99 -0.9765525 -14.552527500000002 -5.368545 -19.899127500000002 -7.6318725 -0.7365539999999999 -0.671118 -1.55420475 -1.2474735 -2.4339 -1.7157 -3.76656 -1.8822825 -8.504685 -0.353115 -8.927624999999999 0.11271750000000001 -0.8349075 0.9186975000000001 -2.1555975000000003 4.638375000000001 -0.97755 9.2418375 1.032213 3.404268 2.5677645 6.634971 4.555582500000001 9.5849775 1.1421375 1.6715107500000002 2.0553487500000003 3.4885567500000003 2.715195 5.4024600000000005 0.64239 2.1945 0.4389 4.4318925 0.41994750000000003 8.016907500000002 1.039395 -0.29925 10.620382500000002 -3.30372 12.219375000000001 -3.8084550000000004 2.9105055 2.328564 6.01402725 4.40525925 9.276750000000002 6.2074425 2.1336524999999997 1.191015 3.7416225 0.7182000000000001 5.874277500000001 -0.11371500000000001 3.5720475 -1.3875225 7.182 -2.9466150000000004 11.918130000000001 -4.953585 -1.901235 -0.9186975000000001 -3.1670625 -3.45534 -3.9590775000000002 -5.4044550000000005Z" stroke-width="0.5"></path></g><g id="color1"><path id="vector_2" fill="#6153bd" d="M170.5515525 47.98274250000001h-15.563992500000001v15.562995h15.563992500000001V47.98274250000001Z" stroke-width="0.5"></path><path id="vector_3" fill="#6153bd" d="M170.5515525 82.55010750000001V70.80654c-4.343115 4.987500000000001 -9.1999425 9.945075000000001 -14.06475 14.5824525 1.8643275000000001 1.22742375 4.051845 1.8719085000000002 6.28425 1.8513600000000001 2.5944975 0.0632415 5.1221625 -0.82682775 7.104195000000001 -2.5017300000000002 0.26334 -0.18324075 0.4678275 -0.4389 0.588525 -0.7359555000000001s0.153615 -0.622839 0.0927675 -0.9378495000000001c-0.0029925000000000004 -0.1466325 -0.004987500000000001 -0.31620750000000003 -0.004987500000000001 -0.51471Z" stroke-width="0.5"></path><path id="vector_4" fill="#6153bd" d="M191.7444375 48.657052500000006c-0.7860300000000001 -0.8408925 -0.9825375000000001 -0.6743100000000001 -2.188515 -0.6743100000000001h-4.2303975c-0.6872775 2.0015835 -1.5321600000000002 3.94521225 -2.527665 5.8124325 -1.8543525 3.41035275 -3.9730425000000005 6.670482 -6.336120000000001 9.750562500000001H190.722c0.628425 -0.017955 1.4643300000000001 -1.187025 1.625925 -1.4214375000000001 3.0324 -4.4298975 2.1376425 -10.539585 -0.6034875000000001 -13.467247500000001Z" stroke-width="0.5"></path><path id="vector_5" fill="#6153bd" d="M130.7612775 172.98345750000001c2.42193 -0.30523500000000003 7.182 -3.1301550000000002 9.234855 -4.4039625000000004 4.56456 -2.8259175000000005 11.217885 -7.6199025 14.956515000000001 -11.565015 0.5985 -0.6334125 2.27031 -2.4269175 2.0708100000000003 -3.2737950000000002 -0.1546125 -0.65436 -1.1600925000000002 -0.46184250000000004 -1.8084675000000001 -0.27930000000000005 -4.534635000000001 1.2887700000000002 -12.386955 6.6662925 -16.14753 9.5091675 -1.985025 1.49625 -8.515657500000001 6.6633000000000004 -9.3366 9.010417499999999 -0.2882775 0.823935 0.2124675 1.1062275000000001 1.0304175 1.0024875Z" stroke-width="0.5"></path><path id="vector_6" fill="#6153bd" d="m41.311462500000005 50.882475 -0.7191975 -1.681785c-0.012369 -0.034912500000000006 -0.035511 -0.065037 -0.066234 -0.08588475 -0.030723000000000004 -0.020847749999999998 -0.0672315 -0.031221750000000003 -0.1043385 -0.02982525 -0.0129675 -0.0009975000000000001 -0.025935 -0.0009975000000000001 -0.0389025 0 -0.55012125 -0.02743125 -1.08458175 -0.19181925 -1.55500275 -0.4784010000000001 -0.47032125 -0.28658175 -0.8616405 -0.68618025 -1.13824725 -1.1624865 -0.02902725 -0.045685500000000004 -0.07341600000000001 -0.07970025 -0.12518625 -0.09585975000000001 -0.0516705 -0.0161595 -0.10753050000000001 -0.01346625 -0.1574055 0.00748125 -0.04997475 0.021047250000000003 -0.09087225 0.05915175 -0.1155105 0.10743075 -0.0245385 0.048279 -0.031221750000000003 0.10374 -0.01885275 0.15650775000000003 0.23531025 0.8824882500000001 0.7084245000000001 1.683381 1.36767225 2.31529725 0.6592477500000001 0.6320160000000001 1.47939225 1.0709160000000002 2.37095775 1.26872025l0.0408975 0.0109725c0.04319175 0.01047375 0.08847825000000001 0.008179500000000001 0.130473 -0.00648375 0.04199475 -0.0145635 0.07880250000000001 -0.04099725 0.10623375 -0.07600950000000001 0.0273315 -0.035112000000000004 0.04398975 -0.0772065 0.04797975 -0.1214955 0.0040897500000000005 -0.044289 -0.004788 -0.0887775 -0.0253365 -0.12817875Z" stroke-width="0.5"></path><path id="vector_7" fill="#6153bd" d="M73.2953025 24.656205c-0.36698025 -0.3022425 -0.8381992500000001 -0.447678 -1.3117125 -0.40498500000000004l-0.6324150000000001 0c-3.0353925000000004 4.79787525 -4.4426655 10.446618 -4.0129425 16.10763 2.308215 0.005985000000000001 4.3640625 0.011970000000000001 4.6812675 0.0109725 0.2495745 0.03321675 0.5033385 0.007980000000000001 0.7415415 -0.07351575 0.23810325000000002 -0.08149575 0.45416175000000003 -0.21715575 0.6310185 -0.39630675 1.3466250000000002 -1.16508 3.0673125000000003 -4.4638124999999995 2.85684 -8.197455 -0.1187025 -2.475795 -1.286775 -5.7286425 -2.9535975 -7.046340000000001Z" stroke-width="0.5"></path><path id="vector_8" fill="#6153bd" d="M36.9404175 68.83458225c-0.86792475 -2.9495077500000004 -0.6120660000000001 -6.115872 0.7182000000000001 -8.887725000000001 -0.0496755 -3.0901552500000005 -0.29895075000000004 -6.173826750000001 -0.7461300000000001 -9.231862500000002 -0.19152000000000002 -1.2738075 -0.4279275 -2.5625775 -0.7042349999999999 -3.8294025 -0.60338775 0.14573475000000002 -1.2387952500000001 0.07590975000000001 -1.79619825 -0.19730550000000002 -0.557403 -0.27321524999999997 -1.0016895000000001 -0.7327635000000001 -1.2561517500000001 -1.2989445000000002 -0.038004750000000004 -0.114912 -0.05216925 -0.23630775 -0.041695499999999996 -0.35690550000000004 0.01047375 -0.12049800000000001 0.04538625 -0.23770425000000003 0.10254300000000001 -0.344337 0.07231875 -0.12019875000000001 0.16807875000000003 -0.22473675 0.28149450000000004 -0.30732975 0.11341575 -0.082593 0.242193 -0.14154525 0.37885050000000003 -0.17346525000000002 0.624036 -0.136857 1.2766005 -0.03740625 1.8314100000000002 0.27930000000000005 -0.34204275 -1.12567875 -0.302043 -2.33285325 0.11371500000000001 -3.4333950000000004 0.27231750000000005 -0.5436375000000001 0.726978 -0.9742582500000001 1.2844807500000002 -1.2167505 0.5575027499999999 -0.24249225000000002 1.18253625 -0.28139475 1.76587425 -0.10992450000000001 0.5731635 0.1601985 1.1058285 0.44039625000000004 1.5624840000000002 0.8220397500000001 0.45675525 0.38154375 0.8272267500000001 0.855855 1.086876 1.3914127500000002 0.952014 -0.43301475 1.7992905000000001 -1.06662675 2.4837750000000005 -1.8573450000000002 0.3213945 -0.38114475000000003 0.5480265000000001 -0.83281275 0.66164175 -1.31819625 0.1135155 -0.4853835 0.1107225 -0.9907170000000001 -0.00827925 -1.47480375 -0.27979875000000004 -0.69056925 -0.7459305 -1.28986725 -1.3463257499999999 -1.7310615000000003 -0.60039525 -0.44119425000000007 -1.311513 -0.70692825 -2.05415175 -0.767676 -1.4510632500000002 -0.19680675 -2.9224755000000004 0.1677795 -4.11369 1.0194450000000002 -2.2034775 -0.121695 -4.7570775 -0.1765575 -6.59946 1.2319125000000002 -2.0319075 1.554105 -2.2314075000000004 4.3580775 -1.462335 6.6283875 0.47630625 1.279992 1.1042325 2.4982387500000005 1.8703125 3.628905 -4.60336275 -1.47221025 -9.5754015 -1.2983460000000002 -14.06475 0.4917675 -2.33903775 0.842688 -4.498725 2.1180915000000002 -6.366045 3.7595775000000002 -1.9004170500000002 1.7530065000000001 -3.3639191250000002 3.9267585 -4.273280025 6.3470925000000005 -0.975944025 2.5235752500000004 -1.39528305 5.2282965 -1.229319 7.928928000000001 0.16596405 2.70073125 0.9133010250000001 5.333732250000001 2.1909090000000004 7.7188545 0.7039357500000001 1.2931590000000002 1.592758125 2.47669275 2.6383875000000003 3.513195 1.160581275 1.0995442500000001 2.5174805250000003 1.97115975 3.9999650250000003 2.56956 1.9949002500000002 0.83221425 4.0975305 1.3779465 6.2453475 1.6209375000000001 4.570744500000001 0.5392485 9.203234250000001 0.15181950000000002 13.6208625 -1.139145 2.4446730000000003 -0.68618025 4.75059375 -1.7941035 6.8139225 -3.2737950000000002 -1.566075 -2.4855705 -2.77434675 -5.179319250000001 -3.5890050000000002 -8.001945000000001Z" stroke-width="0.5"></path><path id="vector_9" fill="#6153bd" d="M79.07781 77.19961725c0.43161825 -0.1733655 0.91301175 -0.17605874999999999 1.3465252500000002 -0.00748125 0.43341375000000004 0.16857750000000002 0.78652875 0.4957575 0.98762475 0.91520625l-2.60148 0.9785475c-0.032718000000000004 -0.6400957500000001 0.0580545 -1.2804907500000002 0.26733 -1.8862725Z" stroke-width="0.5"></path><path id="vector_10" fill="#6153bd" d="m85.13064 87.50079975000001 -2.27031 0.951615c0.31570875000000004 0.2862825 0.669123 0.527877 1.0503675 0.7182000000000001 1.1102175 -0.4279275 1.3835325 -1.17306 1.2199425000000002 -1.669815Z" stroke-width="0.5"></path><path id="vector_11" fill="#6153bd" d="M120.98677500000001 157.48230750000002c-0.798 0.5985 -1.8004875 1.8324075 -1.7007375000000002 2.6683125 0.7291725 1.18902 3.1151925000000005 0.6733125000000001 3.5301525000000002 0.49875l-1.8294150000000002 -3.1670625Z" stroke-width="0.5"></path><path id="vector_12" fill="#6153bd" d="M134.042055 153.53619750000001c0.6234375000000001 -0.9975 0.5276775 -1.6867725000000002 0.1466325 -2.1117075 -0.8548575 -0.34114500000000003 -1.8064725000000001 -0.34513499999999997 -2.6643225 -0.0109725 0.7960050000000001 0.7571025 1.6368975000000001 1.4653275000000001 2.51769 2.1226800000000003Z" stroke-width="0.5"></path></g><g id="line"><path id="vector_13" stroke="#120071" stroke-linecap="round" stroke-linejoin="round" d="M64.36867500000001 161.9610825s-7.420402500000001 11.4283575 -7.511175000000001 11.547060000000002c-0.64239 0.8568525 -0.69825 1.270815 1.0633350000000001 2.9017275 5.5221599999999995 5.1022125 22.338015 13.592932500000002 26.8397325 13.592932500000002l0.1586025 0c0.3501225 -0.016957500000000004 0.6523650000000001 -0.0508725 0.8129625 -0.28329 0.20748 -0.29925 0.08778 -0.8249325 -0.25935 -1.8842775 -0.714609 -1.8922575000000001 -1.76188425 -3.6418725 -3.0922500000000004 -5.1660525 -1.5072225 -1.929165 -2.7700575 -3.2698050000000003 -3.7845150000000003 -4.347105 -1.6329075000000002 -1.7336550000000002 -2.6184375 -2.7800325 -3.0613275 -4.566555 -0.3764565 -1.9211850000000001 -0.3082275 -3.9032175000000002 0.1995 -5.7944775" stroke-width="0.5"></path><path id="vector_14" stroke="#120071" stroke-linecap="round" stroke-linejoin="round" d="M156.4768275 153.30178500000002c-4.6513425 -0.7910175 -9.1121625 0.45486000000000004 -14.123602500000002 1.9221825000000001 -1.3196925 0.504735 -2.7560925 0.6244350000000001 -4.1416200000000005 0.34713 -2.4937500000000004 -0.5256825 -4.813935 -2.4039750000000004 -6.68325 -4.15758 -3.9321450000000002 1.1840325 -7.5460875000000005 3.2408775000000003 -10.573500000000001 6.0159225l8.701192500000001 15.084195000000001" stroke-width="0.5"></path><path id="vector_15" stroke="#120071" stroke-linecap="round" stroke-linejoin="round" d="M44.626155000000004 91.83882750000001c-0.15162 1.6239299999999999 -0.3620925 3.3545925000000003 -0.5595975000000001 4.9545825 -0.42473550000000004 3.0254175 -0.6963547500000001 6.0697875 -0.81396 9.122137500000001 -0.04389 1.917195 0.07690725000000001 3.83439 0.361095 5.7306375 0.11571000000000001 0.9186975000000001 0.31600800000000007 1.82343 0.5985 2.70522 0.5292735 1.52817 1.33874475 2.94462 2.3870175 4.1765325 1.49475375 1.6079700000000001 3.2404785000000005 2.962575 5.169045000000001 4.0109475 11.991945000000001 7.169032500000001 25.868167500000002 6.532627500000001 25.868167500000002 6.532627500000001 -0.41496 0.7750575000000001 -0.82064325 1.554105 -1.21695 2.3391375000000005 -2.0448749999999998 4.0249125 -3.93414 8.090722500000002 -5.6707875 11.884215000000001 -1.625925 3.5511000000000004 -6.892725 15.341550000000002 -7.352572500000001 16.564485 -0.25935 0.688275 0.3461325 1.3965 0.6713175000000001 1.7735550000000002C66.77863500000001 164.787 74.31375 168.1785 77.39702249999999 168.1785c0.367479 0.0089775 0.732963 -0.056857500000000005 1.0743075 -0.19351500000000002 0.3381525 -0.1446375 0.3381525 -0.1446375 4.0448625 -7.569030000000001 1.1361525000000001 -2.2772925 13.7744775 -27.516037500000003 14.250285 -28.4876025l1.4234325 0.399 1.17306 1.474305c3.4962375 4.389 6.2573175 7.8573075 13.932082500000002 18.200385 2.0259225 2.731155 4.043865 5.476275 5.990985 8.149575 -0.077805 -0.9645825 0.9107175000000001 -1.9600875000000002 1.5231824999999999 -2.575545 2.9456175 -2.7461175000000004 6.4588125 -4.809945 10.292205000000001 -6.043852500000001 0.84987 -0.2423925 2.2393875000000003 -0.6384000000000001 3.0872625000000005 -0.10673250000000001 -4.9166775000000005 -7.352572500000001 -12.0926925 -17.8103625 -17.031315000000003 -24.432765 -8.039850000000001 -10.782975 -14.174475000000001 -16.3460325 -47.08200000000001 -32.21925" stroke-width="0.5"></path><path id="vector_16" stroke="#120071" stroke-linecap="round" stroke-linejoin="round" d="M102.50709 24.908572500000002c1.1132100000000003 -0.9047325 0.9336600000000002 -1.1361525000000001 0.9336600000000002 -2.5885125v-12.06975c-1.885275 -0.41111962500000004 -3.80336775 -0.657103125 -5.731635000000001 -0.7351575 -3.1973865000000004 -0.122343375 -6.39148125 0.31654665000000004 -9.437347500000001 1.29675 -0.005985000000000001 5.3067 -0.0229425 10.192455 -0.013965000000000002 11.511149999999999 0.009975000000000001 1.621935 0.057855000000000004 1.6269225 0.20748 1.8383925 0.6526642500000001 0.7355565000000001 1.45046475 1.32817125 2.3431275000000005 1.7406375000000003 1.8572452500000003 0.9090217500000001 3.92645925 1.2966502500000001 5.9867955 1.1216887500000001s4.0340895 -0.90602925 5.711884500000001 -2.11519875v0Z" stroke-width="0.5"></path><path id="vector_17" stroke="#120071" stroke-linecap="round" stroke-linejoin="round" d="M191.7444375 48.657052500000006c-0.1825425 -0.26324025000000006 -0.43790250000000003 -0.4678275 -0.7351575 -0.5889240000000001 -0.2962575 -0.1210965 -0.6214425 -0.15351525000000002 -0.9366525 -0.093366 -0.14763 0 -0.317205 0.007980000000000001 -0.5167050000000001 0.007980000000000001h-19.00437V27.816285c-0.017955 -0.628425 -1.1860275 -1.4643300000000001 -1.4214375000000001 -1.625925 -4.4298975 -3.038385 -10.539585 -2.1436275 -13.46625 0.5985 -0.26334 0.18324075 -0.4678275 0.43870050000000005 -0.588525 0.7355565000000001 -0.1206975 0.296856 -0.15261750000000002 0.62244 -0.0927675 0.9372510000000001 0 0.1466325 0.005985000000000001 19.522072500000004 0.005985000000000001 19.522072500000004H134.8221c-0.628425 0.0189525 -1.4643300000000001 1.18503 -1.625925 1.42044 -3.0373875 4.4289000000000005 -2.14263 10.5385875 0.5985 13.46625 0.18354 0.2635395 0.4389 0.4682265 0.736155 0.589323 0.2962575 0.1210965 0.62244 0.1534155 0.93765 0.09296700000000001 0.1466325 0 19.519080000000002 -0.005985000000000001 19.519080000000002 -0.005985000000000001V83.7102c0.017955 0.628425 1.187025 1.4643300000000001 1.4214375000000001 1.625925 1.8802875000000001 1.2621367500000003 4.0987275 1.9259730000000002 6.3630525 1.9042275000000002 2.5944975 0.0632415 5.1221625 -0.82682775 7.104195000000001 -2.5017300000000002 0.26334 -0.18324075 0.4678275 -0.4389 0.588525 -0.7359555000000001s0.153615 -0.622839 0.0927675 -0.9378495000000001c0 -0.1466325 -0.005985000000000001 -19.519080000000002 -0.005985000000000001 -19.519080000000002H190.722c0.628425 -0.017955 1.4643300000000001 -1.187025 1.625925 -1.4214375000000001 3.0324 -4.4298975 2.1376425 -10.539585 -0.6034875000000001 -13.467247500000001Z" stroke-width="0.5"></path><path id="vector_18" stroke="#120071" stroke-linecap="round" stroke-linejoin="round" d="M170.5515525 47.98274250000001h-15.563992500000001v15.562995h15.563992500000001V47.98274250000001Z" stroke-width="0.5"></path><path id="vector_19" stroke="#120071" stroke-linecap="round" stroke-linejoin="round" d="M78.97506750000001 77.52669750000001c1.9338532500000003 -1.6810867500000002 3.8972325000000003 -3.4007767500000003 5.8902375000000005 -5.15907 -2.887563 -3.2053665000000002 -5.60106225 -6.563450250000001 -8.1286275 -10.0597875C75.17259750000001 63.6405 69.17862000000001 68.8275 69.17862000000001 68.8275c-4.809945 -1.175055 -19.7953875 -7.58898 -19.902120000000004 -7.6318725" stroke-width="0.5"></path><path id="vector_20" stroke="#120071" stroke-linecap="round" stroke-linejoin="round" d="M79.9605975 83.76615975c-0.7690725 -1.9301625000000002 -1.5900150000000002 -4.6134375 -0.8827875000000001 -6.566542500000001 -3.3316500000000002 1.310715 -7.99995 3.4363875 -9.792457500000001 4.0209225 -0.1286775 0.041895 -0.129675 0.0408975 -0.317205 -0.09975 -6.184500000000001 -4.7510925 -6.855817500000001 -5.408445 -8.4677775 -6.68325 0 -0.09975 0.09975 -2.9017275 0.0728175 -3.4154400000000003 -0.11271750000000001 -1.8324075 -1.2339075000000002 -2.9715525 -2.793 -3.999975 -2.26183125 -1.2482715000000002 -4.4454585 -2.6334000000000004 -6.5386125 -4.147605 -1.4413875 -1.1221875000000001 -2.7002325 -2.5486125000000004 -4.393987500000001 -3.3915 -3.76656 -1.8822825 -8.504685 -0.353115 -8.927624999999999 0.11271750000000001 -0.8349075 0.919695 -2.1555975000000003 4.638375000000001 -0.97755 9.2418375 1.03171425 3.403071 2.5665675 6.6327765 4.553587500000001 9.581985 1.1421375 1.6715107500000002 2.0553487500000003 3.488457 2.715195 5.4024600000000005 0.64239 2.1945 0.4389 4.4318925 0.41994750000000003 8.016907500000002 1.0822875 -0.313215 11.191950000000002 -3.47928 12.143565 -3.7805250000000004 1.3805399999999999 1.131165 7.908180000000001 5.376525 9.34857 6.184500000000001 2.1336524999999997 1.191015 3.7416225 0.7172025 5.874277500000001 -0.11371500000000001 3.57105 -1.390515 7.182 -2.9466150000000004 11.918130000000001 -4.953585 -1.897245 -0.9236850000000001 -3.1630725 -3.4603275 -3.9550875 -5.4094425Z" stroke-width="0.5"></path><path id="vector_21" stroke="#120071" stroke-linecap="round" stroke-linejoin="round" d="M130.7612775 172.98345750000001c2.42193 -0.30523500000000003 7.182 -3.1301550000000002 9.234855 -4.4039625000000004 4.56456 -2.8259175000000005 11.217885 -7.6199025 14.956515000000001 -11.565015 0.5985 -0.6334125 2.27031 -2.4269175 2.0708100000000003 -3.2737950000000002 -0.1546125 -0.65436 -1.1600925000000002 -0.46184250000000004 -1.8084675000000001 -0.27930000000000005 -4.534635000000001 1.2887700000000002 -12.386955 6.6662925 -16.14753 9.5091675 -1.985025 1.49625 -8.515657500000001 6.6633000000000004 -9.3366 9.010417499999999 -0.2882775 0.823935 0.2124675 1.1062275000000001 1.0304175 1.0024875Z" stroke-width="0.5"></path><path id="vector_22" stroke="#120071" stroke-linecap="round" stroke-linejoin="round" d="M73.2953025 24.656205c-0.36698025 -0.3022425 -0.8381992500000001 -0.447678 -1.3117125 -0.40498500000000004l-0.6324150000000001 0c-3.0353925000000004 4.79787525 -4.4426655 10.446618 -4.0129425 16.10763 2.308215 0.005985000000000001 4.3640625 0.011970000000000001 4.6812675 0.0109725 0.2495745 0.03321675 0.5033385 0.007980000000000001 0.7415415 -0.07351575 0.23810325000000002 -0.08149575 0.45416175000000003 -0.21715575 0.6310185 -0.39630675 1.3466250000000002 -1.16508 3.0673125000000003 -4.4638124999999995 2.85684 -8.197455 -0.1187025 -2.475795 -1.286775 -5.7286425 -2.9535975 -7.046340000000001Z" stroke-width="0.5"></path><path id="vector_23" stroke="#120071" stroke-linecap="round" stroke-linejoin="round" d="M36.9404175 68.83448250000001c-0.86792475 -2.9495077500000004 -0.6120660000000001 -6.115971750000001 0.7182000000000001 -8.887725000000001 -0.0496755 -3.0901552500000005 -0.29895075000000004 -6.1739265 -0.7461300000000001 -9.231862500000002 -0.19152000000000002 -1.2738075 -0.4279275 -2.5625775 -0.7042349999999999 -3.8294025 -0.60338775 0.14573475000000002 -1.2387952500000001 0.07590975000000001 -1.79619825 -0.19730550000000002 -0.557403 -0.27321524999999997 -1.0016895000000001 -0.7327635000000001 -1.2561517500000001 -1.2989445000000002 -0.038004750000000004 -0.114912 -0.05216925 -0.2364075 -0.041695499999999996 -0.35690550000000004 0.01047375 -0.12059775 0.04538625 -0.23770425000000003 0.10254300000000001 -0.344337 0.07231875 -0.1202985 0.16807875000000003 -0.22473675 0.28149450000000004 -0.30732975 0.11341575 -0.082593 0.242193 -0.14154525 0.37885050000000003 -0.17346525000000002 0.624036 -0.13695675000000002 1.2766005 -0.03740625 1.8314100000000002 0.27930000000000005 -0.34204275 -1.12567875 -0.302043 -2.33285325 0.11371500000000001 -3.4333950000000004 0.27231750000000005 -0.5436375000000001 0.726978 -0.9743580000000001 1.2844807500000002 -1.21685025 0.5575027499999999 -0.24249225000000002 1.18253625 -0.28139475 1.76587425 -0.10982475000000001 0.5731635 0.1601985 1.1058285 0.44039625000000004 1.5624840000000002 0.8220397500000001 0.45675525 0.38154375 0.8272267500000001 0.855855 1.086876 1.3914127500000002 0.952014 -0.4331145 1.7992905000000001 -1.06662675 2.4837750000000005 -1.8573450000000002 0.3213945 -0.38114475000000003 0.5480265000000001 -0.83281275 0.66164175 -1.31819625 0.1135155 -0.4853835 0.1107225 -0.9907170000000001 -0.00827925 -1.47480375 -0.27979875000000004 -0.69056925 -0.7459305 -1.28986725 -1.3463257499999999 -1.7310615000000003 -0.60039525 -0.44119425000000007 -1.311513 -0.70692825 -2.05415175 -0.767676 -1.4510632500000002 -0.19680675 -2.9224755000000004 0.1677795 -4.11369 1.0194450000000002 -2.2034775 -0.121695 -4.7570775 -0.1765575 -6.59946 1.2319125000000002 -2.0319075 1.554105 -2.2314075000000004 4.3580775 -1.462335 6.6283875 0.47630625 1.279992 1.1042325 2.4982387500000005 1.8703125 3.628905 -4.60336275 -1.47221025 -9.5754015 -1.2983460000000002 -14.06475 0.4917675 -2.33903775 0.842688 -4.498725 2.1180915000000002 -6.366045 3.7595775000000002 -1.9004170500000002 1.7530065000000001 -3.3639191250000002 3.9267585 -4.273280025 6.3470925000000005 -0.975944025 2.5235752500000004 -1.39528305 5.2282965 -1.229319 7.928928000000001 0.16596405 2.70073125 0.9133010250000001 5.333632500000001 2.1909090000000004 7.7188545 0.7039357500000001 1.29305925 1.592758125 2.4765930000000003 2.6383875000000003 3.513195 1.160581275 1.0995442500000001 2.5174805250000003 1.97115975 3.9999650250000003 2.56956 1.9949002500000002 0.8321145000000001 4.0975305 1.37784675 6.2453475 1.6209375000000001 4.570744500000001 0.53914875 9.203234250000001 0.15171975000000001 13.6208625 -1.139145 2.4446730000000003 -0.68618025 4.75059375 -1.7941035 6.8139225 -3.2737950000000002 -1.566075 -2.4855705 -2.77434675 -5.179419 -3.5890050000000002 -8.001945000000001v0Z" stroke-width="0.5"></path><path id="vector_24" stroke="#120071" stroke-linecap="round" stroke-linejoin="round" d="M37.658617500000005 59.94975c-0.0500745 -3.0900555 -0.29934974999999997 -6.173826750000001 -0.7461300000000001 -9.231862500000002 -0.19152000000000002 -1.2738075 -0.4279275 -2.5625775 -0.7042349999999999 -3.8294025 -0.60338775 0.14593425000000002 -1.238895 0.07630875000000001 -1.796298 -0.19700625000000002 -0.5575027499999999 -0.27321524999999997 -1.00178925 -0.7328632500000001 -1.2560520000000002 -1.29924375 -0.03840375 -0.115311 -0.05276775 -0.23730525000000002 -0.042294000000000005 -0.35840175 0.01047375 -0.1210965 0.04558575 -0.23880150000000003 0.10314150000000001 -0.34583325000000004 0.07231875 -0.12019875000000001 0.16807875000000003 -0.22463700000000003 0.28149450000000004 -0.30723 0.11341575 -0.082593 0.242193 -0.141645 0.37885050000000003 -0.173565 0.624036 -0.136857 1.2766005 -0.037306500000000006 1.8314100000000002 0.27930000000000005 -0.34204275 -1.12567875 -0.302043 -2.33285325 0.11371500000000001 -3.4333950000000004 0.27231750000000005 -0.5436375000000001 0.726978 -0.9742582500000001 1.2844807500000002 -1.2167505 0.5575027499999999 -0.24249225000000002 1.18253625 -0.28139475 1.76587425 -0.10992450000000001 0.6041857500000001 0.1717695 1.163085 0.47461050000000005 1.6368975000000001 0.8870767500000001 0.4738125 0.4123665 0.8508675 0.9241837500000001 1.1042325 1.49894325 0.28747950000000005 0.580944 0.5173035 1.18872075 0.68628 1.8144525 0.21396375 0.6791977499999999 0.35181825000000005 1.380141 0.41097 2.0897625000000004 0.04797975 0.48867525 -0.009376500000000001 0.9819390000000001 -0.1681785 1.44647475 -0.15880200000000003 0.46463550000000003 -0.41545875 0.8897700000000001 -0.752514 1.24677525 -0.373464 0.355509 -0.864234 0.56209125 -1.3795425000000001 0.580545 1.0004925 2.2707090000000005 2.2192380000000003 4.438775250000001 3.6388800000000003 6.473775000000001 0.6802950000000001 1.0364025 1.4254275 2.1296625 2.3870175 3.5032200000000002" stroke-width="0.5"></path><path id="vector_25" stroke="#120071" stroke-linecap="round" stroke-linejoin="round" d="M96.61186500000001 84.2797725c13.145055000000001 12.674235 26.63325 23.159955 30.407790000000002 25.604827500000003 0.031920000000000004 0.0209475 0.06982500000000001 0.031920000000000004 0.1087275 0.031920000000000004 0.0389025 0 0.0768075 -0.0109725 0.1087275 -0.031920000000000004 6.68325 -4.3261575 43.780275 -33.834202499999996 55.560750000000006 -56.089425 6.417915000000001 -12.125610000000002 5.4613125 -23.710575000000002 -2.7640725 -33.500040000000006 -2.8398825000000003 -3.46122525 -6.4308825 -6.23088375 -10.499685 -8.099101500000002 -4.0688025 -1.8682177500000001 -8.5096725 -2.7859975500000003 -12.985455000000002 -2.6838535500000003 -12.35703 0.50970255 -22.827787500000003 7.654795050000001 -27.325515 18.65323005 -1.067325 2.6144475000000003 -1.7605875 5.36585175 -2.0618325000000004 8.173515000000002h-0.065835c-0.301245 -2.8076632500000005 -0.9945075000000001 -5.5590675 -2.0618325000000004 -8.173515000000002 -4.497727500000001 -10.993447500000002 -14.9625 -18.138540000000003 -27.324517500000002 -18.648242550000003 -4.4761815 -0.1017051 -8.916951749999999 0.8162343000000001 -12.98595375 2.6844520500000004 -4.069002 1.8681180000000002 -7.65970275 4.637577 -10.500183750000001 8.098503000000001 -8.225385000000001 9.789465 -9.177 21.37443 -2.763075 33.500040000000006 3.4842675 6.5835 9.1859775 13.802407500000001 15.66075 20.81583" stroke-width="0.5"></path><path id="vector_26" stroke="#120071" stroke-linecap="round" stroke-linejoin="round" d="M82.85634 88.44234c2.4688125000000003 -1.0334100000000002 4.8877500000000005 -2.03091 7.4044425 -2.8448700000000002 3.60686025 -1.01934525 7.321151250000001 -1.6109625 11.066265 -1.7625825 1.9501125000000001 -0.15760500000000002 3.9670575 -0.321195 5.9660475 -0.6054825 1.89525 -0.2703225 1.76757 -1.3077225000000001 0.39301500000000006 -1.5181950000000002 -1.9042275000000002 -0.23880150000000003 -3.82242 -0.3441375 -5.7416100000000005 -0.31521000000000005 -0.9167025000000001 -0.007980000000000001 -2.793 -0.10773 -2.793 -0.10773 3.1989825 -0.61994625 6.3630525 -1.4131582500000002 9.47625 -2.3760450000000004 1.1261775 -0.37306500000000004 0.8598450000000001 -1.65585 -0.4698225 -1.6708125 -1.8344025000000002 -0.00748125 -3.6678075000000003 0.10922625000000001 -5.48625 0.349125 -2.08278 0.25536000000000003 -2.1117075 0.3501225 -4.271295 0.5715675 1.05735 -0.5526150000000001 2.160585 -1.0603425 3.2269125 -1.5511125000000001 1.8174450000000002 -0.8388975 3.6398775000000003 -1.6907625000000002 5.5431075000000005 -2.7830250000000003 1.8354000000000001 -1.0523625 1.258845 -1.995 -0.039900000000000005 -1.661835 -2.08677 0.5316675000000001 -3.6408750000000003 0.9645825 -5.1441075000000005 1.3835325 -1.3167000000000002 0.36708 -2.56158 0.71421 -4.111695 1.1122125 -0.1785525 0.045885 -0.145635 -0.0109725 -0.044887500000000004 -0.0827925 1.29675 -0.9236850000000001 6.69522 -4.7271525 7.43337 -6.1436025 0.22842750000000003 -0.43690500000000004 0.09975 -1.6508625000000001 -1.74363 -0.5985 -0.44089500000000004 0.2523675 -1.1072250000000001 0.6324150000000001 -2.1416325 1.197 -1.8264225 1.0044825 -3.2368875000000004 1.7516100000000001 -4.57254 2.42193 -0.764085 0.385035 -1.3895175000000002 0.6852825000000001 -1.9680675000000003 0.9486225 -0.24787875 0.141246 -0.5265802500000001 0.21964950000000003 -0.8117655 0.22822800000000001 -0.28518525 0.008578500000000001 -0.5680762500000001 -0.052867500000000005 -0.82403475 -0.1789515 -0.25585875 -0.12608400000000003 -0.47700450000000005 -0.31301550000000006 -0.643986 -0.54433575 -0.1669815 -0.23132025 -0.2747115 -0.5001464999999999 -0.31371375 -0.78273825 -0.019152 -1.07321025 0.059251500000000006 -2.1459217500000003 0.2344125 -3.2049675000000004 0.13117125000000002 -0.6995467500000001 0.18643275 -1.4112630000000002 0.16458750000000003 -2.1226800000000003 -0.04299225 -0.15411375 -0.12239325000000001 -0.295659 -0.2316195 -0.41266575000000005 -0.1091265 -0.11700675 -0.24488625 -0.20608350000000003 -0.39570825000000004 -0.2595495 -0.15092175 -0.05356575 -0.312417 -0.06992475 -0.47091975 -0.047880000000000006 -0.15850275000000003 0.022044750000000002 -0.30932475 0.08189475000000002 -0.43989750000000005 0.17446275 -0.293265 0.217455 -4.0269075 6.483750000000001 -4.1186774999999995 10.734097499999999 0 0 0 0.023940000000000003 -0.037905 0.037905l-8.1326175 3.0573375" stroke-width="0.5"></path><path id="vector_27" stroke="#120071" stroke-linecap="round" stroke-linejoin="round" d="M79.07781 77.1995175c0.43161825 -0.17346525000000002 0.91301175 -0.17605874999999999 1.3465252500000002 -0.00748125 0.43341375000000004 0.16857750000000002 0.78652875 0.4957575 0.98762475 0.91520625l-2.60148 0.9785475c-0.032718000000000004 -0.6400957500000001 0.0580545 -1.2804907500000002 0.26733 -1.8862725v0Z" stroke-width="0.5"></path><path id="vector_28" stroke="#120071" stroke-linecap="round" stroke-linejoin="round" d="m85.13064 87.50070000000001 -2.27031 0.951615c0.31570875000000004 0.28618275 0.669123 0.527877 1.0503675 0.7182000000000001 1.1102175 -0.4279275 1.3835325 -1.17306 1.2199425000000002 -1.669815Z" stroke-width="0.5"></path><path id="vector_29" stroke="#120071" stroke-linecap="round" stroke-linejoin="round" d="M49.1398425 90.43833750000002s-0.29925 3.022425 -0.44089500000000004 4.343115c-1.2678225 11.97 -2.032905 19.196887500000003 9.941085 24.8666775 5.471287500000001 2.5935 11.77848 3.5421225000000005 17.7784425 4.183515 0.8708175 0.093765 1.596 0.1605975 2.216445 0.217455 2.2383900000000003 0.20748 2.9925 0.277305 3.81444 0.9426375 0.6209437500000001 0.5167050000000001 1.043784 1.2319125000000002 1.1964015000000001 2.024925 0.15251775 0.7930125000000001 0.025536000000000003 1.6139550000000003 -0.359499 2.3241750000000003 -4.7650575 9.6907125 -11.1091575 23.834265 -15.307635000000001 33.193807500000005l-0.7571025 1.6887675000000002" stroke-width="0.5"></path><path id="vector_30" stroke="#120071" stroke-linecap="round" stroke-linejoin="round" d="M68.4813675 103.745985 91.371 116.17084500000001c2.7102075 1.4713125000000002 4.769247 3.9072075 5.7693405 6.8238975 1.0000935 2.9176875 0.8685232500000001 6.1037025 -0.3688755 8.928622500000001" stroke-width="0.5"></path><path id="vector_31" stroke="#120071" stroke-linecap="round" stroke-linejoin="round" d="M97.7939025 126.52689c2.4229275 0.75012 4.5446100000000005 2.2493625 6.06081 4.283265l18.774945 25.1878725" stroke-width="0.5"></path><path id="vector_32" stroke="#120071" stroke-linecap="round" stroke-linejoin="round" d="M120.98677500000001 157.48230750000002c-0.798 0.5985 -1.8004875 1.8324075 -1.7007375000000002 2.6683125 0.7291725 1.18902 3.1151925000000005 0.6733125000000001 3.5301525000000002 0.49875l-1.8294150000000002 -3.1670625Z" stroke-width="0.5"></path><path id="vector_33" stroke="#120071" stroke-linecap="round" stroke-linejoin="round" d="M134.042055 153.53619750000001c0.6234375000000001 -0.9975 0.5276775 -1.6867725000000002 0.1466325 -2.1117075 -0.8548575 -0.34114500000000003 -1.8064725000000001 -0.34513499999999997 -2.6643225 -0.0109725 0.7960050000000001 0.7571025 1.6368975000000001 1.4653275000000001 2.51769 2.1226800000000003Z" stroke-width="0.5"></path><path id="vector_34" stroke="#120071" stroke-linecap="round" stroke-linejoin="round" d="M34.87659 86.16215475000001v9.126127499999999" stroke-width="0.5"></path><path id="vector_35" stroke="#120071" stroke-linecap="round" stroke-linejoin="round" d="M30.314025 90.72462h9.126127499999999" stroke-width="0.5"></path><path id="vector_36" stroke="#120071" stroke-linecap="round" stroke-linejoin="round" d="m44.528400000000005 150.0708825 4.223415 4.223415" stroke-width="0.5"></path><path id="vector_37" stroke="#120071" stroke-linecap="round" stroke-linejoin="round" d="m48.75181500000001 150.0708825 -4.223415 4.223415" stroke-width="0.5"></path><path id="vector_38" stroke="#120071" stroke-linecap="round" stroke-linejoin="round" d="m29.731485000000003 163.524165 10.2213825 10.2213825" stroke-width="0.5"></path><path id="vector_39" stroke="#120071" stroke-linecap="round" stroke-linejoin="round" d="m29.731485000000003 173.74554750000001 10.2213825 -10.2213825" stroke-width="0.5"></path><path id="vector_40" stroke="#120071" stroke-linecap="round" stroke-linejoin="round" d="M145.54821750000002 130.9787325v6.473775000000001" stroke-width="0.5"></path><path id="vector_41" stroke="#120071" stroke-linecap="round" stroke-linejoin="round" d="M148.7841075 134.21562h-6.4727775" stroke-width="0.5"></path><path id="vector_42" stroke="#120071" stroke-linecap="round" stroke-linejoin="round" d="M153.37460249999998 96.58593v9.12912" stroke-width="0.5"></path><path id="vector_43" stroke="#120071" stroke-linecap="round" stroke-linejoin="round" d="M157.9391625 101.15049h-9.12912" stroke-width="0.5"></path><path id="vector_44" stroke="#120071" stroke-linecap="round" stroke-linejoin="round" d="M170.59544250000002 108.64869750000001v18.0278175" stroke-width="0.5"></path><path id="vector_45" stroke="#120071" stroke-linecap="round" stroke-linejoin="round" d="M179.6088525 117.663105h-18.0278175" stroke-width="0.5"></path></g></g></svg>