<svg xmlns="http://www.w3.org/2000/svg" fill="none" viewBox="-0.25 -0.25 200 200" id="Collaboration-2--Streamline-Bangalore.svg"><desc>Collaboration 2 Streamline Illustration: https://streamlinehq.com</desc><g id="collaboration-2--work-collaboration"><g id="hand 1"><path id="vector" stroke="#120071" stroke-linecap="round" stroke-linejoin="round" d="M109.50056250000002 46.34474775 87.371025 29.202710250000003l-21.1898925 27.35544 47.2226475 36.58032 21.1898925 -27.35544 -17.329567500000003 -13.423357500000002" stroke-width="0.5"></path><path id="vector_2" stroke="#120071" stroke-linecap="round" stroke-linejoin="round" d="m108.64371 32.893460250000004 -3.9680550000000006 -3.074295c-0.612465 -0.47481 -1.31271 -0.8241345000000001 -2.060835 -1.0282229999999999 -0.7471275 -0.2040885 -1.52817 -0.258951 -2.2962450000000003 -0.16129575000000002 -0.76917225 0.09765525000000001 -1.5112125 0.34583325000000004 -2.1842257500000004 0.73026975 -0.6729135 0.38453625 -1.2634335 0.8978497500000001 -1.73794425 1.5106140000000001l-2.579535 3.3296550000000003 13.2916875 10.296194999999999 2.579535 -3.3296550000000003c0.9585975 -1.23580275 1.386525 -2.8014787500000002 1.191015 -4.352890500000001 -0.19650750000000003 -1.55141175 -1.0004925 -2.9614777500000002 -2.2353975000000004 -3.9203745000000003Z" stroke-width="0.5"></path><path id="vector_3" stroke="#120071" stroke-linecap="round" stroke-linejoin="round" d="m129.665025 49.17675 -1.995 -1.5461250000000002c-3.3815250000000003 1.76028825 -6.853822500000001 3.338832 -10.403925000000001 4.7291475l10.872750000000002 8.419897500000001 2.5785375 -3.3296550000000003c0.9576 -1.2368002500000002 1.38453 -2.80307475 1.187025 -4.3544865 -0.19750500000000001 -1.5515115 -1.0024875 -2.9610787500000004 -2.2393875000000003 -3.9187785Z" stroke-width="0.5"></path><path id="vector_4" fill="#6153bd" d="m191.63371500000002 15.42045225 -46.647090000000006 0.9975c-0.6254325000000001 -0.008778000000000001 -1.2299175000000002 0.22563450000000002 -1.685775 0.6538612500000001 -0.4558575 0.42822675000000004 -0.7271775 1.0166520000000001 -0.7581 1.64138625l-0.45685500000000007 27.377385000000004c0.0089775 0.612465 0.25137000000000004 1.19849625 0.6773025 1.6381942500000002 0.42693000000000003 0.43969800000000003 1.0054800000000002 0.69974625 1.6169475 0.7268782500000001l47.10594 3.5201775c0.33117 0.035511 0.6673275000000001 0.0024937500000000003 0.98553 -0.09685725 0.3182025 -0.09945075 0.612465 -0.2631405 0.8648325 -0.48109425000000006 0.253365 -0.21785400000000002 0.45785250000000005 -0.48528375 0.60249 -0.785631 0.145635 -0.300447 0.22743000000000002 -0.6273277500000001 0.24039750000000001 -0.9605925000000001v-31.896060000000002c-0.011970000000000001 -0.321195 -0.0867825 -0.63690375 -0.221445 -0.9286725000000001 -0.13466250000000002 -0.29186850000000003 -0.32618250000000004 -0.5540115 -0.5625899999999999 -0.771267 -0.237405 -0.21725550000000002 -0.51471 -0.38533425 -0.8169525 -0.494361 -0.3022425 -0.10902675 -0.6234375000000001 -0.15690675 -0.9446325 -0.140847Z" stroke-width="0.5"></path><path id="vector_5" stroke="#120071" stroke-linecap="round" stroke-linejoin="round" d="m191.63371500000002 15.42045225 -46.647090000000006 0.9975c-0.6254325000000001 -0.008778000000000001 -1.2299175000000002 0.22563450000000002 -1.685775 0.6538612500000001 -0.4558575 0.42822675000000004 -0.7271775 1.0166520000000001 -0.7581 1.64138625l-0.45685500000000007 27.377385000000004c0.0089775 0.612465 0.25137000000000004 1.19849625 0.6773025 1.6381942500000002 0.42693000000000003 0.43969800000000003 1.0054800000000002 0.69974625 1.6169475 0.7268782500000001l47.10594 3.5201775c0.33117 0.035511 0.6673275000000001 0.0024937500000000003 0.98553 -0.09685725 0.3182025 -0.09945075 0.612465 -0.2631405 0.8648325 -0.48109425000000006 0.253365 -0.21785400000000002 0.45785250000000005 -0.48528375 0.60249 -0.785631 0.145635 -0.300447 0.22743000000000002 -0.6273277500000001 0.24039750000000001 -0.9605925000000001v-31.896060000000002c-0.011970000000000001 -0.321195 -0.0867825 -0.63690375 -0.221445 -0.9286725000000001 -0.13466250000000002 -0.29186850000000003 -0.32618250000000004 -0.5540115 -0.5625899999999999 -0.771267 -0.237405 -0.21725550000000002 -0.51471 -0.38533425 -0.8169525 -0.494361 -0.3022425 -0.10902675 -0.6234375000000001 -0.15690675 -0.9446325 -0.140847Z" stroke-width="0.5"></path><path id="vector_6" stroke="#120071" stroke-linecap="round" stroke-linejoin="round" d="M121.2072225 34.596492c-5.136127500000001 4.4308950000000005 -11.8792275 11.52711 -14.0358225 14.702152500000002 -2.156595 3.1750425 -2.116695 5.6857500000000005 2.4698100000000003 5.253832500000001 4.586505 -0.4319175 15.004395 -5.121165 20.4736875 -8.25531l12.033840000000001 -3.8972325000000003 0.357105 -21.392385c-5.4214125 -2.02482525 -11.0193825 -3.539928 -16.7210925 -4.5256575 -4.68825 -0.57855 -6.0578175000000005 0.030922500000000002 -9.102187500000001 2.3142 -4.187505000000001 3.415041 -7.765537500000001 7.5153645000000004 -10.582477500000001 12.1266075" stroke-width="0.5"></path></g><g id="blocks"><path id="vector_7" fill="#6153bd" d="M79.61646 149.4823575v-4.211445c0 -1.5640800000000001 -0.6214425 -3.0643200000000004 -1.72757025 -4.1705475000000005s-2.60636775 -1.72767 -4.17064725 -1.72767h-5.017425c-1.5640800000000001 0.0009975000000000001 -3.06382125 0.62244 -4.1697495 1.7286675000000002 -1.106028 1.1062275000000001 -1.72767 2.6054700000000004 -1.728468 4.16955v4.211445h-8.169525v34.603275h59.7432675v-34.603275H79.61646Z" stroke-width="0.5"></path><path id="vector_8" stroke="#120071" stroke-linecap="round" stroke-linejoin="round" d="M79.61646 149.4823575v-4.211445c0 -1.5640800000000001 -0.6214425 -3.0643200000000004 -1.72757025 -4.1705475000000005s-2.60636775 -1.72767 -4.17064725 -1.72767h-5.017425c-1.5640800000000001 0.0009975000000000001 -3.06382125 0.62244 -4.1697495 1.7286675000000002 -1.106028 1.1062275000000001 -1.72767 2.6054700000000004 -1.728468 4.16955v4.211445h-8.169525v34.603275h59.7432675v-34.603275H79.61646Z" stroke-width="0.5"></path><path id="vector_9" stroke="#120071" stroke-linecap="round" stroke-linejoin="round" d="M165.87228000000002 149.4823575v-4.211445c0 -1.5630825 -0.6214425 -3.0633225000000004 -1.7266725000000003 -4.16955 -1.1052300000000002 -1.1052300000000002 -2.6044725000000004 -1.72767 -4.1685525000000005 -1.7286675000000002h-5.020417500000001c-1.5640800000000001 0.0009975000000000001 -3.0633225000000004 0.6234375000000001 -4.16955 1.7286675000000002 -1.1052300000000002 1.1062275000000001 -1.7266725000000003 2.6054700000000004 -1.72767 4.16955v4.211445h-34.76088v34.603275h59.744265v-34.603275h-8.1705225Z" stroke-width="0.5"></path><path id="vector_10" fill="#70a4ff" d="M136.12483500000002 114.8850675v-4.211445c0 -1.5640800000000001 -0.6214425 -3.0633225000000004 -1.7266725000000003 -4.16955 -1.1062275000000001 -1.1062275000000001 -2.6054700000000004 -1.72767 -4.16955 -1.7286675000000002h-5.01942c-1.5640800000000001 0.0009975000000000001 -3.0633225000000004 0.62244 -4.16955 1.7286675000000002 -1.1062275000000001 1.1062275000000001 -1.72767 2.6054700000000004 -1.7286675000000002 4.16955v4.211445h-9.775500000000001v-4.211445c0 -1.5640800000000001 -0.620445 -3.0633225000000004 -1.7266725000000003 -4.16955 -1.1052300000000002 -1.1062275000000001 -2.6044725000000004 -1.72767 -4.1685525000000005 -1.7286675000000002h-5.02031775c-1.5640800000000001 0.0009975000000000001 -3.06382125 0.62244 -4.16984925 1.7286675000000002 -1.10592825 1.1062275000000001 -1.72757025 2.6054700000000004 -1.72836825 4.16955v4.211445h-8.1605475v34.603275h59.73319275v-34.603275h-8.169525Z" stroke-width="0.5"></path><path id="vector_11" stroke="#120071" stroke-linecap="round" stroke-linejoin="round" d="M136.12483500000002 114.8850675v-4.211445c0 -1.5640800000000001 -0.6214425 -3.0633225000000004 -1.7266725000000003 -4.16955 -1.1062275000000001 -1.1062275000000001 -2.6054700000000004 -1.72767 -4.16955 -1.7286675000000002h-5.01942c-1.5640800000000001 0.0009975000000000001 -3.0633225000000004 0.62244 -4.16955 1.7286675000000002 -1.1062275000000001 1.1062275000000001 -1.72767 2.6054700000000004 -1.7286675000000002 4.16955v4.211445h-9.775500000000001v-4.211445c0 -1.5640800000000001 -0.620445 -3.0633225000000004 -1.7266725000000003 -4.16955 -1.1052300000000002 -1.1062275000000001 -2.6044725000000004 -1.72767 -4.1685525000000005 -1.7286675000000002h-5.02031775c-1.5640800000000001 0.0009975000000000001 -3.06382125 0.62244 -4.16984925 1.7286675000000002 -1.10592825 1.1062275000000001 -1.72757025 2.6054700000000004 -1.72836825 4.16955v4.211445h-8.1605475v34.603275h59.73319275v-34.603275h-8.169525Z" stroke-width="0.5"></path><path id="vector_12" stroke="#120071" stroke-linecap="round" stroke-linejoin="round" d="M92.721615 114.8850675h16.8128625" stroke-width="0.5"></path><path id="vector_13" stroke="#120071" stroke-linecap="round" stroke-linejoin="round" d="M119.310975 114.8850675h16.813860000000002" stroke-width="0.5"></path><path id="vector_14" stroke="#120071" stroke-linecap="round" stroke-linejoin="round" d="M149.0594175 149.4823575h16.8128625" stroke-width="0.5"></path></g><g id="hand 2"><path id="vector_15" fill="#70a4ff" d="m30.42365025 56.97729975000001 -19.5111 28.176382500000003 21.519067500000002 14.90354775c4.9126875 -4.88765025 10.83285 -9.88412775 12.60042 -7.735512750000001 1.8044775 2.1945 -0.29925 8.65321275 -2.826915 14.50355025l17.996895000000002 12.4637625 19.5140925 -28.176282750000002 -49.29246 -34.1354475Z" stroke-width="0.5"></path><path id="vector_16" stroke="#120071" stroke-linecap="round" stroke-linejoin="round" d="m32.43161775 100.05723000000002 -21.519067500000002 -14.90354775 19.5140925 -28.176382500000003 49.2894675 34.1354475 -19.5140925 28.176282750000002 -17.996895000000002 -12.4637625" stroke-width="0.5"></path><path id="vector_17" stroke="#120071" stroke-linecap="round" stroke-linejoin="round" d="M26.890605 90.286917c3.1335465 0 5.67378 -2.5402335000000003 5.67378 -5.67378 0 -3.1335465 -2.5402335000000003 -5.67378 -5.67378 -5.67378 -3.1335465 0 -5.67378 2.5402335000000003 -5.67378 5.67378 0 3.1335465 2.5402335000000003 5.67378 5.67378 5.67378Z" stroke-width="0.5"></path><path id="vector_18" stroke="#120071" stroke-linecap="round" stroke-linejoin="round" d="M35.53982775 77.79821700000001c3.1335465 0 5.67378 -2.5402335000000003 5.67378 -5.67378 0 -3.1335465 -2.5402335000000003 -5.67378 -5.67378 -5.67378 -3.1335465 0 -5.67378 2.5402335000000003 -5.67378 5.67378 0 3.1335465 2.5402335000000003 5.67378 5.67378 5.67378Z" stroke-width="0.5"></path><path id="vector_19" stroke="#120071" stroke-linecap="round" stroke-linejoin="round" d="M63.73825500000001 97.32637425000001c3.1335465 0 5.67378 -2.5402335000000003 5.67378 -5.67378 0 -3.1335465 -2.5402335000000003 -5.67378 -5.67378 -5.67378 -3.1335465 0 -5.67378 2.5402335000000003 -5.67378 5.67378 0 3.1335465 2.5402335000000003 5.67378 5.67378 5.67378Z" stroke-width="0.5"></path><path id="vector_20" stroke="#120071" stroke-linecap="round" stroke-linejoin="round" d="M55.08883275 109.8157725c3.1335465 0 5.67378 -2.539635 5.67378 -5.67378 0 -3.1331475 -2.5402335000000003 -5.67348075 -5.67378 -5.67348075 -3.1335465 0 -5.67378 2.54033325 -5.67378 5.67348075 0 3.134145 2.5402335000000003 5.67378 5.67378 5.67378Z" stroke-width="0.5"></path><path id="vector_21" stroke="#120071" stroke-linecap="round" stroke-linejoin="round" d="M35.8611225 96.80637750000001c-0.43790250000000003 -0.9242835 -0.6178515 -1.9498132500000003 -0.520695 -2.96806125 0.0971565 -1.01814825 0.46772775 -1.9912095 1.07261175 -2.81604225 0.60478425 -0.82483275 1.4213377500000002 -1.47081375 2.36317725 -1.869714 0.9418395 -0.3988005 1.9739527500000003 -0.5356575 2.98721325 -0.39590775 1.0132605000000001 0.13965000000000002 1.9698630000000001 0.5506200000000001 2.768661 1.189419 0.79889775 0.638799 1.41016575 1.4816865000000001 1.7691660000000002 2.43938625 0.35910000000000003 0.95769975 0.45256575 1.9947007500000002 0.27062175 3.00117825 -0.18194400000000002 1.00657725 -0.6326145 1.945125 -1.3043310000000001 2.7164917500000003" stroke-width="0.5"></path><path id="vector_22" stroke="#120071" stroke-linecap="round" stroke-linejoin="round" d="M49.6385925 87.56184675c3.1334467500000005 0 5.67378 -2.5402335000000003 5.67378 -5.67378 0 -3.1335465 -2.54033325 -5.67378 -5.67378 -5.67378 -3.1335465 0 -5.67378 2.5402335000000003 -5.67378 5.67378 0 3.1335465 2.5402335000000003 5.67378 5.67378 5.67378Z" stroke-width="0.5"></path><path id="vector_23" stroke="#120071" stroke-linecap="round" stroke-linejoin="round" d="M39.401250000000005 131.7348375c-0.027730499999999998 -0.6324150000000001 -0.29615775 -1.2299175000000002 -0.7503195 -1.6708125 -0.45416175000000003 -0.44089500000000004 -1.059744 -0.6912675 -1.6925580000000002 -0.700245l-3.6688050000000003 0.05985c0.83391 -3.2458650000000002 2.29425 -7.635862500000001 3.89025 -12.41289 2.0448749999999998 -3.6149400000000003 11.044319999999999 -20.813835 7.8553125 -24.689122500000003 -1.76757 -2.148615 -7.6877325 2.846865 -12.60042 7.7356125l-11.213895 -7.76454c-8.09172 5.359567500000001 -14.643319950000002 12.0288525 -14.902669950000002 16.1186025 -0.3820425 5.993977500000001 2.8119525000000003 15.86025 4.78801995 21.376425l-2.37606495 0.0389025c-0.6444049500000001 0.030922500000000002 -1.25164305 0.31122 -1.694154 0.7800450000000001 -0.44251095 0.4698225 -0.6858510750000001 1.0922625000000001 -0.6788985000000001 1.737645l-1.0354050000000001 48.128377500000006c-0.01769565 0.33216750000000006 0.03094245 0.6643350000000001 0.14308140000000003 0.97755 0.11214892500000001 0.313215 0.28554435 0.600495 0.510071625 0.8468775000000001 0.22452727500000003 0.24538500000000002 0.49569765000000005 0.44289 0.7976708250000001 0.58254 0.30197317500000004 0.13965000000000002 0.6287043 0.217455 0.96113115 0.22942500000000002H40.624185000000004c0.34423725000000005 -0.013965000000000002 0.6820905 -0.09775500000000001 0.9925125 -0.24738000000000002 0.310422 -0.149625 0.5868292500000001 -0.361095 0.8121645000000001 -0.62244 0.22533525000000001 -0.2603475 0.39471075 -0.564585 0.49785225 -0.8937600000000001 0.10304175000000002 -0.3281775 0.13755525 -0.6743100000000001 0.10144575 -1.01745L39.401250000000005 131.7348375Z" stroke-width="0.5"></path><path id="vector_24" stroke="#120071" stroke-linecap="round" stroke-linejoin="round" d="M32.4317175 100.05723000000002c-2.8019775000000005 2.567565 -7.07427 7.539105 -7.07427 7.539105" stroke-width="0.5"></path><path id="vector_25" stroke="#120071" stroke-linecap="round" stroke-linejoin="round" d="m11.103172500000001 129.7877175 22.1873925 -0.3640875" stroke-width="0.5"></path></g><g id="details"><g id="group"><path id="vector_26" stroke="#120071" stroke-linecap="round" stroke-linejoin="round" d="M157.287795 72.38767725000001v-4.395982500000001" stroke-width="0.5"></path><path id="vector_27" stroke="#120071" stroke-linecap="round" stroke-linejoin="round" d="M157.287795 82.866315v-4.395982500000001" stroke-width="0.5"></path><path id="vector_28" stroke="#120071" stroke-linecap="round" stroke-linejoin="round" d="m154.6533975 76.95024225 -3.80646 2.1974925" stroke-width="0.5"></path><path id="vector_29" stroke="#120071" stroke-linecap="round" stroke-linejoin="round" d="m163.7286525 71.71037475000001 -3.80646 2.1974925" stroke-width="0.5"></path><path id="vector_30" stroke="#120071" stroke-linecap="round" stroke-linejoin="round" d="m159.92219250000002 76.95024225 3.80646 2.1974925" stroke-width="0.5"></path><path id="vector_31" stroke="#120071" stroke-linecap="round" stroke-linejoin="round" d="m150.8469375 71.71037475000001 3.80646 2.1974925" stroke-width="0.5"></path></g><path id="vector_32" stroke="#120071" stroke-linecap="round" stroke-linejoin="round" d="M174.22434750000002 114.10602c2.3570925000000003 0 4.2683025 -1.91121 4.2683025 -4.2683025s-1.91121 -4.2683025 -4.2683025 -4.2683025 -4.2683025 1.91121 -4.2683025 4.2683025 1.91121 4.2683025 4.2683025 4.2683025Z" stroke-width="0.5"></path><path id="vector_33" stroke="#120071" stroke-linecap="round" stroke-linejoin="round" d="M189.985845 158.3281875v8.644335000000002" stroke-width="0.5"></path><path id="vector_34" stroke="#120071" stroke-linecap="round" stroke-linejoin="round" d="M194.3080125 162.650355h-8.644335000000002" stroke-width="0.5"></path><path id="vector_35" stroke="#120071" stroke-linecap="round" stroke-linejoin="round" d="M25.1419875 36.161370000000005v8.748075" stroke-width="0.5"></path><path id="vector_36" stroke="#120071" stroke-linecap="round" stroke-linejoin="round" d="M29.516025000000003 40.53510825h-8.7490725" stroke-width="0.5"></path></g></g></svg>