<svg xmlns="http://www.w3.org/2000/svg" fill="none" viewBox="-0.25 -0.25 200 200" id="Collaboration-3--Streamline-Bangalore.svg"><desc>Collaboration 3 Streamline Illustration: https://streamlinehq.com</desc><g id="collaboration-3--work-collaboration"><g id="background"><path id="vector" fill="#70a4ff" fill-rule="evenodd" d="m154.28133000000003 103.821795 16.358999999999998 -7.5808005000000005 -15.170977500000001 -9.737595 13.703655 -11.7136425 -17.235802500000002 -5.2867500000000005 10.03485 -14.976465000000001 -18.021832500000002 -0.43790250000000003 5.621910000000001 -17.128072500000002 -17.4712125 4.4398725 0.7930125000000001 -18.0098625 -15.626835000000002 8.98947 -4.095735 -17.556 -12.6233625 12.8747325 -8.67825 -15.800400000000002 -8.67825 15.800400000000002 -12.621367500000002 -12.867750000000001 -4.095735 17.556 -15.629827500000001 -8.9944575 0.7920150000000001 18.0098625 -17.4712125 -4.4398725 5.621910000000001 17.128072500000002 -18.021832500000002 0.43790250000000003 10.03485 14.976465000000001 -17.236800000000002 5.2837575 13.704652500000002 11.7136425 -15.170977500000001 9.737595 16.358999999999998 7.5808005000000005 -11.9809725 13.46625 17.7944025 2.89275 -7.902195 16.203390000000002 17.91111 -2.0199375 -1.9152 10.48572 8.427877500000001 -2.01894s15.760500000000002 -31.847182500000002 23.9729175 -47.743143c4.8608175000000005 -9.4074225 1.9221825000000001 -5.9500875 0.40698 -24.314062500000002 -0.5586000000000001 -6.7720275 -3.89025 -24.210322500000004 -2.27031 -24.567427500000004 1.6199400000000002 -0.357105 3.4184325 4.17354 5.118172500000001 10.9515525 0.9398445000000001 3.895437 2.3848230000000004 7.651224 4.2982275 11.172 0 0 -1.49625 -10.2543 0.44688000000000005 -10.982475 1.94313 -0.728175 2.793 4.821915 4.096732500000001 9.015405000000001 1.3037325 4.19349 4.961565 11.7555375 3.772545 17.7106125 -1.18902 5.955075 -1.3276725 21.881958000000004 -3.1032225 31.048983 -1.3027350000000002 6.73113 -5.6049525000000004 28.367902500000003 -12.277230000000001 41.2476225L81.1167 169.07625000000002l10.75305 -14.476717500000001 10.748062500000001 14.476717500000001 6.447840000000001 -16.8348075 14.2572675 11.033347500000001 1.6668225 -17.955000000000002 16.704135 6.783L138.45300000000003 134.36325l17.914102500000002 2.0199375 -7.902195 -16.203390000000002 17.7944025 -2.89275 -11.97798 -13.465252500000002Zm-35.671597500000004 -26.646018c-1.4433825000000002 6.621405 -2.3630775 13.8223575 -2.3630775 13.8223575l-15.977955000000001 4.071795c-5.417422500000001 -8.647327500000001 -0.584535 -21.6986175 0.28728 -25.25271 1.0054800000000002 -4.094737500000001 0.9047325 -12.76002 3.1521000000000003 -13.347547500000001 2.2473675 -0.5875275 0.512715 9.4612875 0.512715 9.4612875s3.1730475 -13.6467975 5.187 -13.865250000000001c2.0139525000000003 -0.21845250000000002 0 10.1954475 0 10.1954475s4.1286525 -13.276725 6.597465000000001 -12.942562500000001c1.8154500000000002 0.24738000000000002 0.4259325 4.389 -0.4389 6.5725275000000005 0.69825 -1.5201900000000002 1.969065 -3.8114475000000003 3.253845 -3.8254125 2.2653225 -0.023940000000000003 -2.4149475 13.7425575 -3.0194325 21.280665 2.2094625 -3.8323950000000004 4.11768 -7.7056875 6.19647 -6.911677500000001 0.8209425 0.3062325 -2.74911 7.810425 -3.3875100000000002 10.741080000000002Z" clip-rule="evenodd" stroke-width="0.5"></path><path id="vector_2" stroke="#120071" stroke-linecap="round" stroke-linejoin="round" d="m43.36332 144.8499675 1.9152 -10.48572 -17.914102500000002 2.0199375 7.902195 -16.203390000000002 -17.7944025 -2.89275 11.9809725 -13.46625 -16.358999999999998 -7.5808005000000005 15.170977500000001 -9.737595L14.563500000000001 74.78875950000001l17.235802500000002 -5.2867500000000005 -10.0338525 -14.9734725 18.021832500000002 -0.43790250000000003 -5.621910000000001 -17.128072500000002 17.4712125 4.4398725 -0.7920150000000001 -18.0098625 15.6258375 8.98947 4.095735 -17.556L83.1915 27.6987795l8.67825 -15.800400000000002 8.67825 15.800400000000002 12.62037 -12.867750000000001 4.095735 17.556 15.626835000000002 -8.98947 -0.7930125000000001 18.0098625 17.4712125 -4.4398725 -5.621910000000001 17.128072500000002 18.021832500000002 0.43790250000000003 -10.03485 14.976465000000001 17.235802500000002 5.2867500000000005 -13.703655 11.7056625 15.170977500000001 9.737595 -16.358999999999998 7.5808005000000005 11.9809725 13.46625 -17.7944025 2.89275 7.902195 16.203390000000002L138.45300000000003 134.36325l3.2378850000000003 17.733555 -16.704135 -6.783 -1.6668225 17.955000000000002 -14.2572675 -11.033347500000001 -6.444847500000001 16.8407925L91.86975 154.5995325 81.1167 169.07625000000002l-4.863810000000001 -12.6971775" stroke-width="0.5"></path></g><g id="hand 1"><path id="vector_3" fill="#6153bd" fill-rule="evenodd" d="m51.79129725000001 142.8310275 -2.12876475 8.110672500000002 -4.10172 -6.617415 6.2304847500000005 -1.4932575000000001Z" clip-rule="evenodd" stroke-width="0.5"></path><path id="vector_4" stroke="#120071" stroke-linecap="round" stroke-linejoin="round" d="m51.79129725000001 142.8310275 -2.12876475 8.110672500000002 -4.10172 -6.617415" stroke-width="0.5"></path><path id="vector_5" stroke="#120071" stroke-linecap="round" stroke-linejoin="round" d="m10.198440000000002 152.79505500000002 41.59575 -9.964027500000002s15.760500000000002 -31.847182500000002 23.9729175 -47.743342500000004c4.8608175000000005 -9.408420000000001 1.9221825000000001 -5.949090000000001 0.40698 -24.314062500000002 -0.5586000000000001 -6.7720275 -3.89025 -24.210322500000004 -2.27031 -24.567427500000004 1.6199400000000002 -0.357105 3.41943 4.17354 5.118172500000001 10.9515525 0.9398445000000001 3.8953372500000003 2.3848230000000004 7.651224 4.2982275 11.172 0 0 -1.49625 -10.2543 0.44688000000000005 -10.982475 1.94313 -0.728175 2.793 4.821915 4.096732500000001 9.015405000000001 1.3037325 4.19349 4.961565 11.7555375 3.772545 17.7106125 -1.18902 5.955075 -1.3276725 21.8821575 -3.1032225 31.0491825 -1.7755500000000002 9.167025 -9.11316 45.9897375 -20.4258075 50.673 -11.3126475 4.6832625000000005 -51.202672500000006 13.460265 -51.202672500000006 13.460265" stroke-width="0.5"></path><path id="vector_6" stroke="#120071" stroke-linecap="round" stroke-linejoin="round" d="m82.64088000000001 77.17647525000001 0.676305 -8.8428375" stroke-width="0.5"></path></g><g id="hand 2"><path id="vector_7" fill="#6153bd" fill-rule="evenodd" d="m178.3938975 150.9417 -38.391780000000004 -8.110672500000002s-9.07725 -32.005785 -15.965985000000002 -48.5185995l-26.74896 6.877962c-0.0748125 5.905200000000001 11.4403275 61.12081500000001 22.334025 66.70581750000001 10.8936975 5.585002500000001 58.7717025 11.3605275 58.7717025 11.3605275l0.0009975000000000001 -28.315035Z" clip-rule="evenodd" stroke-width="0.5"></path><path id="vector_8" fill="#70a4ff" fill-rule="evenodd" d="M129.026625 165.984c-2.447865 -3.5301525000000002 -4.5316425 -2.8398825000000003 -2.2134525 -6.0019575000000005 2.31819 -3.162075 1.055355 -4.925655 -3.61893 -6.737115 -4.674285 -1.81146 -5.6109375 -2.144625 -7.514167500000001 -6.589485 -1.90323 -4.44486 -8.196457500000001 -1.5570975 -8.196457500000001 -1.5570975 3.676785 11.185965000000001 7.9530675 20.6572275 12.13758 22.80285 2.3112075 1.06932 4.72017 1.9152 7.191975 2.527665 0 0 4.6573275 -0.9186975000000001 2.2134525 -4.44486Z" clip-rule="evenodd" stroke-width="0.5"></path><path id="vector_9" fill="#70a4ff" fill-rule="evenodd" d="M128.40717750000002 130.1368425c1.881285 3.8742900000000002 3.1451175 7.1111775 10.188465 7.8413475 -1.89525 -6.4488375 -5.455327500000001 -18.296145 -9.177 -29.183857500000002 -3.9092025 1.2768000000000002 -6.866790000000001 4.2303975 -5.978017500000001 8.33511 1.29675 5.9620575 -4.37703 4.3101975 -3.2149425000000003 8.8508175s6.2992125 0.28428749999999997 8.181495 4.1565825Z" clip-rule="evenodd" stroke-width="0.5"></path><path id="vector_10" stroke="#120071" stroke-linecap="round" stroke-linejoin="round" d="m178.3938975 150.9417 -38.391780000000004 -8.110672500000002s-9.07725 -32.005785 -15.965985000000002 -48.5185995l-26.74896 6.877962c-0.0748125 5.905200000000001 11.4403275 61.12081500000001 22.334025 66.70581750000001 10.8936975 5.585002500000001 58.7717025 11.3605275 58.7717025 11.3605275" stroke-width="0.5"></path><path id="vector_11" stroke="#120071" stroke-linecap="round" stroke-linejoin="round" d="M115.80975 73.27236c0.6104700000000001 -7.48125 5.276775000000001 -21.2357775 3.014445 -21.2118375 -1.9221825000000001 0.019950000000000002 -3.8094525000000004 5.1421125000000005 -3.8094525000000004 5.1421125000000005s3.4643175 -7.553070000000001 0.9975 -7.8892275000000005c-2.4668175 -0.33615750000000005 -6.597465000000001 12.942562500000001 -6.597465000000001 12.942562500000001s2.0199375 -10.4188875 0 -10.1954475c-2.0199375 0.22344000000000003 -5.187 13.8702375 -5.187 13.8702375s1.7346525000000002 -10.048815000000001 -0.512715 -9.4612875c-2.2473675 0.5875275 -2.1466200000000004 9.25281 -3.1521000000000003 13.347547500000001 -0.871815 3.5540925000000003 -5.704702500000001 16.6053825 -0.28728 25.25271" stroke-width="0.5"></path><path id="vector_12" stroke="#120071" stroke-linecap="round" stroke-linejoin="round" d="M116.246655 90.99783525s0.919695 -7.2009525000000005 2.3630775 -13.8223575c0.6384000000000001 -2.9306550000000002 4.208452500000001 -10.4348475 3.3915 -10.7460675 -2.6613300000000004 -1.0164525 -5.045355 5.61792 -8.137605 10.024875000000002 -3.07629 4.383015 -10.636342500000001 7.064295 -9.64383 13.519117500000002" stroke-width="0.5"></path><path id="vector_13" stroke="#120071" stroke-linecap="round" stroke-linejoin="round" d="M115.01175 57.20283450000001c-1.2299175000000002 3.7755375000000004 -2.0558475 5.675775000000001 -3.521175 11.471250000000001l-1.7027325000000002 1.93116" stroke-width="0.5"></path><path id="vector_14" stroke="#120071" stroke-linecap="round" stroke-linejoin="round" d="M109.4127825 62.25606975000001c-2.7261675000000003 7.7296275 -0.94563 4.670295 -3.5720475 8.346082500000001" stroke-width="0.5"></path><path id="vector_15" stroke="#120071" stroke-linecap="round" stroke-linejoin="round" d="m101.9075925 71.4112245 1.3585950000000002 -2.1226800000000003 0.9546075 -3.3575850000000003" stroke-width="0.5"></path><path id="vector_16" stroke="#120071" stroke-linecap="round" stroke-linejoin="round" d="m99.2941425 100.67268750000001 -1.197 -5.050143 22.1674425 -5.647845 1.2209400000000001 4.9944825" stroke-width="0.5"></path><path id="vector_17" stroke="#120071" stroke-linecap="round" stroke-linejoin="round" d="M128.954805 108.94495500000001s-6.808935 2.2214325 -5.5171725 8.179499999999999c1.2917625 5.9580675 -4.37703 4.309200000000001 -3.2149425000000003 8.8508175 1.1620875000000002 4.5416175 6.302205 0.28129499999999996 8.184487500000001 4.1565825 1.8822825 3.8752874999999998 3.2358900000000004 7.09821 10.188465 7.8413475" stroke-width="0.5"></path><path id="vector_18" stroke="#120071" stroke-linecap="round" stroke-linejoin="round" d="M107.48361750000001 145.0933575s6.2932275 -2.8867650000000005 8.196457500000001 1.5570975c1.90323 4.443862500000001 2.84088 4.7770275 7.514167500000001 6.589485 4.6732875 1.8124575 5.9361225 3.5760375 3.61893 6.737115 -2.3171925 3.1610775 -0.2344125 2.4718050000000003 2.2134525 6.0019575000000005 2.447865 3.5301525000000002 -2.2134525 4.44486 -2.2134525 4.44486" stroke-width="0.5"></path></g><g id="star"><path id="vector_19" stroke="#120071" stroke-linecap="round" stroke-linejoin="round" d="m186.43275000000003 53.10181275000001 1.88328 6.206445 6.19647 1.90722 -5.320665 3.7097025 0.09975 6.483750000000001 -5.1720375 -3.9131925 -6.136620000000001 2.0997375000000003 2.1236775000000003 -6.128640000000001 -3.89025 -5.187 6.483750000000001 0.12568500000000002 3.732645 -5.303707500000001Z" stroke-width="0.5"></path><path id="vector_20" fill="#70a4ff" fill-rule="evenodd" d="M38.384797500000005 169.09121249999998 39.600750000000005 175.46025l5.9600625 2.5575900000000003 -5.6857500000000005 3.122175 -0.59052 6.4588125 -4.726155 -4.442865 -6.3291375 1.4373975 2.76507 -5.867295 -3.3186825 -5.5730325 6.4348725 0.815955 4.274287500000001 -4.877775Z" clip-rule="evenodd" stroke-width="0.5"></path><path id="vector_21" stroke="#120071" stroke-linecap="round" stroke-linejoin="round" d="M38.384797500000005 169.09121249999998 39.600750000000005 175.46025l5.9600625 2.5575900000000003 -5.6857500000000005 3.122175 -0.59052 6.4588125 -4.726155 -4.442865 -6.3291375 1.4373975 2.76507 -5.867295 -3.3186825 -5.5730325 6.4348725 0.815955 4.274287500000001 -4.877775Z" stroke-width="0.5"></path></g><g id="details"><g id="group"><path id="vector_22" stroke="#120071" stroke-linecap="round" stroke-linejoin="round" d="M159.72967500000001 18.75329925h8.110672500000002" stroke-width="0.5"></path><path id="vector_23" stroke="#120071" stroke-linecap="round" stroke-linejoin="round" d="M163.7895 13.338669750000001v10.823872500000002" stroke-width="0.5"></path></g><g id="group_2"><path id="vector_24" stroke="#120071" stroke-linecap="round" stroke-linejoin="round" d="M4.987500000000001 130.0151475h6.230385000000001" stroke-width="0.5"></path><path id="vector_25" stroke="#120071" stroke-linecap="round" stroke-linejoin="round" d="M8.102742375 125.96031v8.109675000000001" stroke-width="0.5"></path></g><g id="group_3"><path id="vector_26" stroke="#120071" stroke-linecap="round" stroke-linejoin="round" d="M110.75043000000001 183.545985h6.230385000000001" stroke-width="0.5"></path><path id="vector_27" stroke="#120071" stroke-linecap="round" stroke-linejoin="round" d="M113.8656225 179.4911475v8.110672500000002" stroke-width="0.5"></path></g></g></g></svg>