<svg xmlns="http://www.w3.org/2000/svg" fill="none" viewBox="-0.25 -0.25 200 200" id="Multitasking--Streamline-Bangalore.svg"><desc>Multitasking Streamline Illustration: https://streamlinehq.com</desc><g id="multitasking--work-multitasking"><g id="laptop"><path id="Vector" stroke="#120071" stroke-linecap="round" stroke-linejoin="round" d="m43.5039675 144.09286500000002 -19.8053625 -23.44125 -17.861235 -4.125660000000001a2.4329025 2.4329025 0 0 0 0.285285 2.7241725l17.530065000000004 20.748a4.8827625 4.8827625 0 0 0 2.64537 1.6069725000000001l12.0108975 2.715195a10.4268675 10.4268675 0 0 0 9.318645000000002 -2.4558450000000005l9.901185 -8.99745a6.1416075 6.1416075 0 0 0 2.1595875 -3.5221725000000004l-16.1844375 14.7480375Z" stroke-width="0.5"></path><path id="Vector_2" stroke="#120071" stroke-linecap="round" stroke-linejoin="round" d="m23.698605 120.65361000000001 -17.861235 -4.127655 19.652745000000003 23.2587075 18.013852500000002 4.3082025 -19.8053625 -23.439255000000003Z" stroke-width="0.5"></path><path id="Vector_3" stroke="#120071" stroke-linecap="round" stroke-linejoin="round" d="m31.790325000000003 113.27809500000001 -8.09172 7.375515000000001 4.95159 5.859315 8.09172 -7.3745175000000005 -4.95159 -5.8603125Z" stroke-width="0.5"></path><path id="Vector_4" stroke="#120071" stroke-linecap="round" stroke-linejoin="round" d="m39.882045 105.90457500000001 -8.09172 7.373520000000001 4.95159 5.8603125 8.09172 -7.3745175000000005 -4.95159 -5.859315Z" stroke-width="0.5"></path><path id="Vector_5" stroke="#120071" stroke-linecap="round" stroke-linejoin="round" d="m36.741915000000006 119.1384075 -8.09172 7.3745175000000005 4.95159 5.8603125 8.09172 -7.3745175000000005 -4.95159 -5.8603125Z" stroke-width="0.5"></path><path id="Vector_6" stroke="#120071" stroke-linecap="round" stroke-linejoin="round" d="m44.833635 111.76389 -8.09172 7.3745175000000005 4.95159 5.8603125 8.09172 -7.3745175000000005 -4.95159 -5.8603125Z" stroke-width="0.5"></path><path id="Vector_7" stroke="#120071" stroke-linecap="round" stroke-linejoin="round" d="m41.693505 124.99872 -8.09172 7.3745175000000005 4.95159 5.8603125 8.09172 -7.3745175000000005 -4.95159 -5.8603125Z" stroke-width="0.5"></path><path id="Vector_8" stroke="#120071" stroke-linecap="round" stroke-linejoin="round" d="m49.785225 117.62420250000001 -8.09172 7.3745175000000005 4.95159 5.8603125 8.09172 -7.3745175000000005 -4.95159 -5.8603125Z" stroke-width="0.5"></path><path id="Vector_9" stroke="#120071" stroke-linecap="round" stroke-linejoin="round" d="m46.645095000000005 130.8590325 -8.09172 7.3745175000000005 4.9505925 5.859315 8.0927175 -7.3745175000000005 -4.95159 -5.859315Z" stroke-width="0.5"></path><path id="Vector_10" stroke="#120071" stroke-linecap="round" stroke-linejoin="round" d="m54.73681500000001 123.484515 -8.09172 7.3745175000000005 4.95159 5.859315 8.09172 -7.3745175000000005 -4.95159 -5.859315Z" stroke-width="0.5"></path></g><g id="person"><path id="Vector_11" fill="#70a4ff" d="M45.386250000000004 59.8849125a32.5185 32.5185 0 0 0 -0.9346575000000001 -3.2319000000000004 15.961995 15.961995 0 0 0 -2.793 -3.6239175c-2.108715 -2.5306575000000002 -3.6428700000000003 -3.0593325000000005 -4.219425000000001 -2.5685625000000005 -1.83939 1.5620850000000002 3.96207 5.276775000000001 2.535645 6.1376175 -1.1600925000000002 0.69825 -9.14508 -2.5536000000000003 -11.7954375 -3.7107000000000006 -1.73964 -0.7600950000000001 -3.002475 0.69825 -1.7635800000000001 1.9521075a5.48625 5.48625 0 0 0 1.3815375 0.959595 8.4478275 8.4478275 0 0 0 -2.7381375 -0.9107175000000001c-1.0892700000000002 0.029925 -1.29675 1.410465 -0.5506200000000001 2.2124550000000003 0.4359075 0.428925 0.9336600000000002 0.7910175 1.4772975000000002 1.0733100000000002a5.590987500000001 5.590987500000001 0 0 0 -0.9037350000000001 -0.1805475c-1.0892700000000002 0.031920000000000004 -1.29675 1.410465 -0.5506200000000001 2.2134525 0.34114500000000003 0.3561075 0.7381500000000001 0.6533625000000001 1.1740575000000002 0.8817900000000001a1.354605 1.354605 0 0 0 0.1825425 1.7206875000000001c1.49625 1.5790425000000001 7.195965000000001 4.6633125 13.402410000000001 4.62441 2.200485 0.14364 3.8812725 0.8778 6.6403575 1.985025L49.376250000000006 61.525800000000004l-3.99 -1.641885Z" stroke-width="0.5"></path><path id="Vector_12" stroke="#120071" stroke-linecap="round" stroke-linejoin="round" d="M45.386250000000004 59.8849125a32.5185 32.5185 0 0 0 -0.9346575000000001 -3.2319000000000004 15.961995 15.961995 0 0 0 -2.793 -3.6239175c-2.108715 -2.5306575000000002 -3.6428700000000003 -3.0593325000000005 -4.219425000000001 -2.5685625000000005 -1.83939 1.5620850000000002 3.96207 5.276775000000001 2.535645 6.1376175 -1.1600925000000002 0.69825 -9.14508 -2.5536000000000003 -11.7954375 -3.7107000000000006 -1.73964 -0.7600950000000001 -3.002475 0.69825 -1.7635800000000001 1.9521075a5.48625 5.48625 0 0 0 1.3815375 0.959595 8.4478275 8.4478275 0 0 0 -2.7381375 -0.9107175000000001c-1.0892700000000002 0.029925 -1.29675 1.410465 -0.5506200000000001 2.2124550000000003 0.4359075 0.428925 0.9336600000000002 0.7910175 1.4772975000000002 1.0733100000000002a5.590987500000001 5.590987500000001 0 0 0 -0.9037350000000001 -0.1805475c-1.0892700000000002 0.031920000000000004 -1.29675 1.410465 -0.5506200000000001 2.2134525 0.34114500000000003 0.3561075 0.7381500000000001 0.6533625000000001 1.1740575000000002 0.8817900000000001a1.354605 1.354605 0 0 0 0.1825425 1.7206875000000001c1.49625 1.5790425000000001 7.195965000000001 4.6633125 13.402410000000001 4.62441 2.200485 0.14364 3.8812725 0.8778 6.6403575 1.985025L49.376250000000006 61.525800000000004l-3.99 -1.641885Z" stroke-width="0.5"></path><path id="Vector_13" stroke="#120071" stroke-linecap="round" stroke-linejoin="round" d="M27.7953375 55.799152500000005a24.31107 24.31107 0 0 0 6.9825 2.45385" stroke-width="0.5"></path><path id="Vector_14" stroke="#120071" stroke-linecap="round" stroke-linejoin="round" d="M25.984875000000002 58.174200000000006a38.02071 38.02071 0 0 0 8.279250000000001 2.74512" stroke-width="0.5"></path><path id="Vector_15" stroke="#120071" stroke-linecap="round" stroke-linejoin="round" d="M25.703580000000002 61.088895c0.8129625 -0.89775 3.904215 1.6797900000000001 8.153565 2.583525" stroke-width="0.5"></path><path id="Vector_16" fill="#70a4ff" d="M132.09294000000003 129.4755c-4.023915 -14.088690000000001 -14.0737275 -34.58631750000001 -16.349025 -41.44413H97.166475s1.9541025 16.873710000000003 3.89025 20.6731875c3.4503525 6.783 18.1714575 26.252205000000004 18.1714575 26.252205000000004 -8.049825 15.293670000000002 -19.403370000000002 33.008272500000004 -20.0447625 34.00776750000001 1.0782975 -1.5431325 8.7949575 2.50971 10.4428275 3.4663125000000004 1.6019850000000002 0.9296700000000001 8.46279 5.256825 8.279250000000001 7.102200000000001 3.1301550000000002 -9.809415 11.815387500000002 -26.2551975 14.2951725 -36.971340000000005 1.2279225000000002 -5.305702500000001 1.4473725000000002 -7.642845 -0.10773 -13.0862025Z" stroke-width="0.5"></path><path id="Vector_17" stroke="#120071" stroke-linecap="round" stroke-linejoin="round" d="M99.15150000000001 169.0114125s11.786460000000002 -18.31011 20.07369 -34.053652500000005c0 0 -14.721105 -19.4712 -18.1714575 -26.252205000000004 -1.933155 -3.800475 -3.89025 -20.674185 -3.89025 -20.674185h18.57744c2.2752975 6.8578125000000005 12.32511 27.356437500000002 16.349025 41.44413 1.5551025 5.444355000000001 1.3356525000000001 7.7805 0.10573500000000001 13.088197500000001 -2.5017300000000002 10.8099075 -11.317635000000001 27.4502025 -14.376967500000001 37.2276975" stroke-width="0.5"></path><path id="Vector_18" fill="#6153bd" d="M114.558885 179.6826675c1.596 0.5236875000000001 2.9136975 0.712215 3.2628225 0.10773 0.5795475 -1.003485 -1.9142025000000003 -3.1201800000000004 -4.3520925 -4.855830000000001a16.395907500000003 16.395907500000003 0 0 0 1.0892700000000002 4.7481Z" stroke-width="0.5"></path><path id="Vector_19" fill="#6153bd" d="M102.0711825 172.80490500000002a353.3075175 353.3075175 0 0 1 2.2653225 -2.9815275c-2.3650725 -0.991515 -4.68825 -1.6708125 -5.187 -0.8119649999999999 -0.46284000000000003 0.8039850000000001 1.04139 2.3231775000000003 2.9216775 3.7934925Z" stroke-width="0.5"></path><path id="Vector_20" stroke="#120071" stroke-linecap="round" stroke-linejoin="round" d="M114.558885 179.6826675c1.596 0.5236875000000001 2.9136975 0.712215 3.2628225 0.10773 0.9605925000000001 -1.6628325000000002 -6.5166675000000005 -6.384 -8.1984525 -7.3585575 -1.66383 -0.96558 -9.511162500000001 -5.08725 -10.47375 -3.4204275 -0.46483500000000005 0.8039850000000001 1.039395 2.3231775000000003 2.9196825000000004 3.7905" stroke-width="0.5"></path><path id="Vector_21" stroke="#120071" stroke-linecap="round" stroke-linejoin="round" d="M113.46762 174.9006525a47.546835 47.546835 0 0 0 -9.122137500000001 -5.08725c-1.2279225000000002 1.6009875 -3.9131925 5.1201675 -5.0303925000000005 6.8039475000000005 6.621405 6.438862500000001 13.744552500000001 11.2827225 20.366955 17.7225825 2.4747975 -3.0852675 -5.845350000000001 -11.9490525 -6.214425000000001 -19.43928Z" stroke-width="0.5"></path><path id="Vector_22" fill="#6153bd" d="M99.31509 176.615355c0.843885 -0.96957 6.08475 2.2124550000000003 11.710650000000001 7.10619 5.6259 4.893735 9.4991925 9.645825 8.656305000000001 10.616392500000002 -0.8428875 0.9705675 -6.08475 -2.2104600000000003 -11.7116475 -7.104195000000001s-9.4991925 -9.6488175 -8.6553075 -10.6183875Z" stroke-width="0.5"></path><path id="Vector_23" stroke="#120071" stroke-linecap="round" stroke-linejoin="round" d="M99.31509 176.615355c0.843885 -0.96957 6.08475 2.2124550000000003 11.710650000000001 7.10619 5.6259 4.893735 9.4991925 9.645825 8.656305000000001 10.616392500000002 -0.8428875 0.9705675 -6.08475 -2.2104600000000003 -11.7116475 -7.104195000000001s-9.4991925 -9.6488175 -8.6553075 -10.6183875Z" stroke-width="0.5"></path><path id="Vector_24" stroke="#120071" stroke-linecap="round" stroke-linejoin="round" d="M62.693872500000005 153.05340750000002c-2.4408825000000003 1.09725 -5.59398 2.5406325 -7.131127500000001 3.3595800000000002 -1.2039825000000002 0.452865 -0.05985 6.4767675 2.5575900000000003 13.452285000000002s5.725650000000001 12.286207500000002 6.920655 11.810400000000001c3.6907500000000004 -1.4753025000000002 0.44787750000000004 -13.485202500000002 3.8772825 -20.249250000000004 -2.392005 -2.97255 -4.779022500000001 -6.3032025 -6.2244 -8.373015Z" stroke-width="0.5"></path><path id="Vector_25" fill="#70a4ff" d="M92.94405750000001 87.9924675s-4.007955 10.598437500000001 -3.9022200000000002 14.463750000000001c0.18753 6.896715 5.068297500000001 28.582365000000003 5.068297500000001 28.582365000000003 -14.269237500000001 9.635850000000001 -32.8027875 20.00187 -32.8027875 20.00187s8.293215 12.339075 12.66825 15.824340000000001c6.9825 -6.800955 21.631785 -16.668225000000003 28.55244 -24.53052 3.4014750000000005 -3.8643150000000004 4.606455 -5.6857500000000005 5.552085 -10.747065 2.447865 -13.0981725 2.515695 -37.0920375 3.421425 -43.59075000000001l-18.55749 -0.0039900000000000005Z" stroke-width="0.5"></path><path id="Vector_26" stroke="#120071" stroke-linecap="round" stroke-linejoin="round" d="M92.94405750000001 87.9924675s-4.007955 10.598437500000001 -3.9022200000000002 14.463750000000001c0.18753 6.896715 5.068297500000001 28.582365000000003 5.068297500000001 28.582365000000003 -14.269237500000001 9.635850000000001 -32.8027875 20.00187 -32.8027875 20.00187s8.293215 12.339075 12.66825 15.824340000000001c6.9825 -6.800955 21.631785 -16.668225000000003 28.55244 -24.53052 3.4014750000000005 -3.8643150000000004 4.606455 -5.6857500000000005 5.552085 -10.747065 2.447865 -13.0981725 2.515695 -37.0920375 3.421425 -43.59075000000001l-18.55749 -0.0039900000000000005Z" stroke-width="0.5"></path><path id="Vector_27" stroke="#120071" stroke-linecap="round" stroke-linejoin="round" d="M83.867805 73.57161c-1.7955 3.2398800000000003 -3.54312 6.3371175 -5.1062025 8.977500000000001 -1.9082175000000001 1.69575 -14.8757175 13.536075 -20.394885000000002 18.562477500000004l4.32117 6.4009575000000005c13.382460000000002 -7.8313725000000005 21.013335 -10.6443225 26.8237725 -17.2637325a36.358875000000005 36.358875000000005 0 0 0 3.2039700000000004 -4.2294" stroke-width="0.5"></path><path id="Vector_28" fill="#70a4ff" d="m62.6878875 107.51454000000001 -4.32117 -6.4009575000000005c-4.779022500000001 3.7496025 -11.28372 5.479267500000001 -13.03134 7.1051925 -2.6663175000000003 2.47779 -3.3326475 5.8922325 -4.111695 7.7505749999999995 -0.8059800000000001 1.9211850000000001 -0.8149575 3.0084600000000004 -0.052867500000000005 3.33963a0.7511175 0.7511175 0 0 0 0.4179525 -0.057855000000000004c-0.2703225 1.0743075 -0.13566000000000003 1.7336550000000002 0.43092 1.9341525000000002a0.740145 0.740145 0 0 0 0.4598475 -0.015960000000000002c-0.309225 1.1042325 0.512715 1.5191925 1.3436325 1.438395a1.0543575 1.0543575 0 0 0 0.389025 1.1421375 1.0593450000000002 1.0593450000000002 0 0 0 1.2069750000000001 0.0329175c0.9336600000000002 -0.7172025 3.1032225 -4.74012 4.0029675000000005 -5.8303875000000005 1.197 -1.44837 2.29425 -1.5251775 6.307192500000001 -4.6583250000000005a7.6608 7.6608 0 0 1 -1.5471225 3.573045c-0.8738100000000001 1.0902675 -0.5576025000000001 1.8423825 -0.1995 2.284275 1.3236825 1.6249275 5.35458 -2.4987375 6.51168 -7.9630425 0.153615 -0.7072275 -0.24538500000000002 -1.6079700000000001 2.1935025 -3.6737925000000002Z" stroke-width="0.5"></path><path id="Vector_29" stroke="#120071" stroke-linecap="round" stroke-linejoin="round" d="m62.6878875 107.51454000000001 -4.32117 -6.4009575000000005c-4.779022500000001 3.7496025 -11.28372 5.479267500000001 -13.03134 7.1051925 -2.6663175000000003 2.47779 -3.3326475 5.8922325 -4.111695 7.7505749999999995 -0.8059800000000001 1.9211850000000001 -0.8149575 3.0084600000000004 -0.052867500000000005 3.33963a0.7511175 0.7511175 0 0 0 0.4179525 -0.057855000000000004c-0.2703225 1.0743075 -0.13566000000000003 1.7336550000000002 0.43092 1.9341525000000002a0.740145 0.740145 0 0 0 0.4598475 -0.015960000000000002c-0.309225 1.1042325 0.512715 1.5191925 1.3436325 1.438395a1.0543575 1.0543575 0 0 0 0.389025 1.1421375 1.0593450000000002 1.0593450000000002 0 0 0 1.2069750000000001 0.0329175c0.9336600000000002 -0.7172025 3.1032225 -4.74012 4.0029675000000005 -5.8303875000000005 1.197 -1.44837 2.29425 -1.5251775 6.307192500000001 -4.6583250000000005a7.6608 7.6608 0 0 1 -1.5471225 3.573045c-0.8738100000000001 1.0902675 -0.5576025000000001 1.8423825 -0.1995 2.284275 1.3236825 1.6249275 5.35458 -2.4987375 6.51168 -7.9630425 0.153615 -0.7072275 -0.24538500000000002 -1.6079700000000001 2.1935025 -3.6737925000000002Z" stroke-width="0.5"></path><path id="Vector_30" stroke="#120071" stroke-linecap="round" stroke-linejoin="round" d="M47.942842500000005 114.5538975c-1.3336575 0.9506175 -3.3815250000000003 6.25233 -4.119675 8.053815" stroke-width="0.5"></path><path id="Vector_31" stroke="#120071" stroke-linecap="round" stroke-linejoin="round" d="M46.59921000000001 113.11650000000002c-1.3366500000000001 0.951615 -3.3915 6.28425 -4.119675 8.053815" stroke-width="0.5"></path><path id="Vector_32" stroke="#120071" stroke-linecap="round" stroke-linejoin="round" d="M45.29448000000001 111.913515c-1.1341575000000002 0.8079750000000001 -2.5067175 4.389 -3.7057125 7.337610000000001" stroke-width="0.5"></path><path id="Vector_33" stroke="#120071" stroke-linecap="round" stroke-linejoin="round" d="M114.63270000000001 78.75462a36.778822500000004 36.778822500000004 0 0 0 8.67825 6.078765000000001c7.866285 3.9650625 12.248302500000001 3.142125 27.588855000000002 5.396475000000001l0.9975 -7.848330000000001c-6.999457500000001 -2.5935 -19.1011275 -7.854315 -21.502110000000002 -8.7111675 -3.6997275000000003 -2.8329 -8.189475000000002 -6.473775000000001 -12.60042 -10.096695" stroke-width="0.5"></path><path id="Vector_34" fill="#70a4ff" d="M165.61392750000002 81.30822c-1.09725 0.039900000000000005 -2.394 0.0508725 -4.0049624999999995 0.0089775 -1.197 -0.5685749999999999 0 -1.18902 0.8069775000000001 -3.6039675a9.705675000000001 9.705675000000001 0 0 0 0.6693225 -2.00298c0.18753 -0.871815 -1.2418875000000003 -1.3625850000000002 -1.7955 -0.6174525000000001 -1.8054750000000002 2.4388875 -4.0428675 3.4603275 -4.8279000000000005 5.985 -0.57456 1.8543525 -2.6822775 1.609965 -4.565557500000001 1.29675l-0.9975 7.8493275c0.82593 0.241395 1.6359 0.53466 2.42592 0.8768025a14.542552500000001 14.542552500000001 0 0 0 6.28425 2.1256725 801.5979825000001 801.5979825000001 0 0 0 6.00495 -11.918130000000001Z" stroke-width="0.5"></path><path id="Vector_35" stroke="#120071" stroke-linecap="round" stroke-linejoin="round" d="M165.61392750000002 81.30822c-1.09725 0.039900000000000005 -2.394 0.0508725 -4.0049624999999995 0.0089775 -1.197 -0.5685749999999999 0 -1.18902 0.8069775000000001 -3.6039675a9.705675000000001 9.705675000000001 0 0 0 0.6693225 -2.00298c0.18753 -0.871815 -1.2418875000000003 -1.3625850000000002 -1.7955 -0.6174525000000001 -1.8054750000000002 2.4388875 -4.0428675 3.4603275 -4.8279000000000005 5.985 -0.57456 1.8543525 -2.6822775 1.609965 -4.565557500000001 1.29675l-0.9975 7.8493275c0.82593 0.241395 1.6359 0.53466 2.42592 0.8768025a14.542552500000001 14.542552500000001 0 0 0 6.28425 2.1256725" stroke-width="0.5"></path><path id="Vector_36" stroke="#120071" stroke-linecap="round" stroke-linejoin="round" d="M161.289765 89.93859a4.5954825 4.5954825 0 0 0 -2.3291625000000002 -2.3730525 6.737115 6.737115 0 0 0 4.1416200000000005 -5.187" stroke-width="0.5"></path><path id="Vector_37" fill="#6153bd" d="M88.62588000000001 46.9613025a6.882750000000001 6.882750000000001 0 0 0 5.9600625 3.53913c1.09725 -0.5985 2.2443750000000002 -1.1012400000000002 3.4284075 -1.502235 0.48378750000000004 -0.15960000000000002 0.94962 -0.29925 1.4014875 -0.420945a6.882750000000001 6.882750000000001 0 0 0 0.46383750000000007 -9.420390000000001 5.57004 5.57004 0 0 0 2.220435 -7.391475000000001 6.210435 6.210435 0 0 0 5.22291 -3.0912525000000004 6.21642 6.21642 0 0 0 -2.040885 -8.365034999999999 6.211432500000001 6.211432500000001 0 0 0 -8.4398475 1.70373 9.233857500000001 9.233857500000001 0 0 0 -15.832320000000001 9.32862 8.689222500000001 8.689222500000001 0 1 0 7.6159125 15.619852500000002Z" stroke-width="0.5"></path><path id="Vector_38" stroke="#120071" stroke-linecap="round" stroke-linejoin="round" d="M88.62588000000001 46.9613025a6.882750000000001 6.882750000000001 0 0 0 5.9600625 3.53913c1.09725 -0.5985 2.2443750000000002 -1.1012400000000002 3.4284075 -1.502235 0.48378750000000004 -0.15960000000000002 0.94962 -0.29925 1.4014875 -0.420945a6.882750000000001 6.882750000000001 0 0 0 0.46383750000000007 -9.420390000000001 5.57004 5.57004 0 0 0 2.220435 -7.391475000000001 6.210435 6.210435 0 0 0 5.22291 -3.0912525000000004 6.21642 6.21642 0 0 0 -2.040885 -8.365034999999999 6.211432500000001 6.211432500000001 0 0 0 -8.4398475 1.70373 9.233857500000001 9.233857500000001 0 0 0 -15.832320000000001 9.32862 8.689222500000001 8.689222500000001 0 1 0 7.6159125 15.619852500000002v0Z" stroke-width="0.5"></path><path id="Vector_39" stroke="#120071" stroke-linecap="round" stroke-linejoin="round" d="M140.53079250000002 59.10786c-1.218945 -6.988485000000001 -3.277785 -12.39294 -7.559055000000001 -19.551000000000002l-7.5261375 2.4428775c2.200485 8.329125 1.995 7.680750000000001 3.5201775 13.38645 -6.3131775 -3.4264125 -15.052275 -6.022905000000001 -20.322067500000003 -7.124145a18.9874125 18.9874125 0 0 0 -10.629360000000002 0.7351575c-9.289717500000002 3.0493575 -20.196382500000002 15.9829425 -27.78237 18.262230000000002 -2.336145 -0.037905 -8.9246325 -1.5780450000000001 -20.8567275 -5.733630000000001l-3.4463625 7.89222C60.847500000000004 76.10925 62.8425 80.36857499999999 70.91427 79.4957625c8.179499999999999 -0.883785 13.540065 -6.4967175 19.7734425 -11.55105 0.8119649999999999 7.26579 1.69575 15.261750000000001 2.256345 20.049750000000003l22.7998575 0.037905c-0.35211749999999997 -4.133640000000001 -1.0463775 -7.925137500000001 -1.3965 -12.059775 -0.109725 -1.757595 0.6513675000000001 -2.8259175000000005 1.183035 -4.50471 0.847875 -2.68128 2.5206825000000004 -5.386500000000001 1.5032325 -8.122642500000001 10.82886 3.26781 11.1350925 3.581025 14.8058925 4.20546a7.30569 7.30569 0 0 0 8.4578025 -4.913685 7.3017 7.3017 0 0 0 0.23341500000000004 -3.529155v0Z" stroke-width="0.5"></path><path id="Vector_40" fill="#70a4ff" d="M106.411305 37.3134825c-0.1765575 -2.0378925000000003 -0.4458825 -2.6842725 -1.741635 -7.156065000000001 -6.174525000000001 0.7630875 -5.7386175 5.675775000000001 -5.7386175 5.675775000000001 -1.2837825 -2.9236725000000003 -4.3730400000000005 -0.97755 -2.80896 1.015455a2.7511050000000004 2.7511050000000004 0 0 0 1.961085 0.9316650000000001c0.1566075 4.41693 -0.520695 7.0972125 -0.8538600000000001 11.50317l7.6598025000000005 7.888230000000001c0.5376525000000001 -4.509697500000001 0.8887725000000001 -9.402435 0.8887725000000001 -9.402435 -0.744135 -2.543625 -1.7615850000000002 -6.4268925 -1.929165 -7.0593075 1.9261725 -0.149625 2.7531 -1.5790425000000001 2.5625775 -3.3964875Z" stroke-width="0.5"></path><path id="Vector_41" stroke="#120071" stroke-linecap="round" stroke-linejoin="round" d="M106.411305 37.3134825c-0.1765575 -2.0378925000000003 -0.4458825 -2.6842725 -1.741635 -7.156065000000001 -6.174525000000001 0.7630875 -5.7386175 5.675775000000001 -5.7386175 5.675775000000001 -1.2837825 -2.9236725000000003 -4.3730400000000005 -0.97755 -2.80896 1.015455a2.7511050000000004 2.7511050000000004 0 0 0 1.961085 0.9316650000000001c0.1566075 4.41693 -0.520695 7.0972125 -0.8538600000000001 11.50317l7.6598025000000005 7.888230000000001c0.5376525000000001 -4.509697500000001 0.8887725000000001 -9.402435 0.8887725000000001 -9.402435 -0.744135 -2.543625 -1.7615850000000002 -6.4268925 -1.929165 -7.0593075 1.9261725 -0.149625 2.7531 -1.5790425000000001 2.5625775 -3.3964875Z" stroke-width="0.5"></path><path id="Vector_42" fill="#6153bd" d="M100.78041750000001 38.9025a3.561075 3.561075 0 0 0 3.0683100000000003 1.8034800000000002c-0.009975000000000001 0 0.25935 0.9725625 0.37107 1.4014875 -1.7605875 0.039900000000000005 -3.4264125 -2.96457 -3.4393800000000003 -3.2049675000000004Z" stroke-width="0.5"></path><path id="Vector_43" stroke="#120071" stroke-linecap="round" stroke-linejoin="round" d="M100.78041750000001 38.9025a3.561075 3.561075 0 0 0 3.0683100000000003 1.8034800000000002c-0.009975000000000001 0 0.25935 0.9725625 0.37107 1.4014875 -1.7605875 0.039900000000000005 -3.4264125 -2.96457 -3.4393800000000003 -3.2049675000000004Z" stroke-width="0.5"></path><path id="Vector_44" fill="#70a4ff" d="M131.839575 30.056670000000004c-1.3256775 -3.3915 -4.357080000000001 -6.9755175000000005 -6.56355 -10.13061a0.983535 0.983535 0 0 0 -1.7805375 0.2064825 0.9865275 0.9865275 0 0 0 0.048877500000000004 0.73017c0.237405 0.77805 0.49875 0.85785 -1.230915 -1.226925a1.0822875 1.0822875 0 0 0 -1.095255 -0.420945 1.0842825 1.0842825 0 0 0 -0.8398950000000001 0.8209425c-0.26234250000000003 -0.389025 -0.5256825 -0.7680750000000001 -0.7860300000000001 -1.14114a1.2219375000000001 1.2219375000000001 0 0 0 -1.1341575000000002 -0.5795475l1.7216850000000001 4.231395a1.8942525000000001 1.8942525000000001 0 0 1 -0.71022 2.5326525l-2.998485 1.218945a52.090447499999996 52.090447499999996 0 0 1 3.8693025000000003 7.3685325c0 1.32468 -1.0753050000000002 0.5077275 -3.6039675 0.8059800000000001a9.6328575 9.6328575 0 0 0 -2.0947500000000003 0.249375c-0.8688225 0.1995 -0.69825 1.7047275000000002 0.2064825 1.885275 2.97654 0.59451 4.853835 2.1825300000000003 7.47327 1.8144525 1.7955 -0.25137000000000004 2.5935 1.5201900000000002 3.1271625 3.5750400000000004 1.1261775 0.07980000000000001 7.555065 -2.332155 7.5261375 -2.4438750000000002 -0.784035 -2.97654 0.6663300000000001 -4.881765000000001 -1.135155 -9.4962Z" stroke-width="0.5"></path><path id="Vector_45" stroke="#120071" stroke-linecap="round" stroke-linejoin="round" d="M116.47109250000001 26.30208a52.090447499999996 52.090447499999996 0 0 1 3.8693025000000003 7.3685325c0 1.32468 -1.0753050000000002 0.5077275 -3.6039675 0.8059800000000001a9.6328575 9.6328575 0 0 0 -2.0947500000000003 0.249375c-0.8688225 0.1995 -0.69825 1.7047275000000002 0.2064825 1.885275 2.97654 0.59451 4.853835 2.1825300000000003 7.47327 1.8144525 1.7955 -0.25137000000000004 2.5935 1.5201900000000002 3.1271625 3.5750400000000004 1.1261775 0.07980000000000001 7.555065 -2.332155 7.5261375 -2.4438750000000002 -0.7810425000000001 -2.9805300000000003 0.6693225 -4.8877500000000005 -1.1321625 -9.50019 -1.3256775 -3.3915 -4.357080000000001 -6.9755175000000005 -6.56355 -10.13061a0.983535 0.983535 0 0 0 -1.7805375 0.2064825 0.9865275 0.9865275 0 0 0 0.048877500000000004 0.73017c0.237405 0.77805 0.49875 0.85785 -1.230915 -1.226925a1.0822875 1.0822875 0 0 0 -1.095255 -0.420945 1.0842825 1.0842825 0 0 0 -0.8398950000000001 0.8209425c-0.26234250000000003 -0.389025 -0.5256825 -0.7680750000000001 -0.7860300000000001 -1.14114a1.2219375000000001 1.2219375000000001 0 0 0 -1.1341575000000002 -0.5795475" stroke-width="0.5"></path><path id="Vector_46" stroke="#120071" stroke-linecap="round" stroke-linejoin="round" d="m119.55636 25.0442325 1.9142025000000003 3.233895" stroke-width="0.5"></path><path id="Vector_47" stroke="#120071" stroke-linecap="round" stroke-linejoin="round" d="m120.37830000000001 20.039775000000002 3.36756 6.5465925" stroke-width="0.5"></path><path id="Vector_48" stroke="#120071" stroke-linecap="round" stroke-linejoin="round" d="m123.70795500000001 21.370440000000002 2.3331525 4.553587500000001" stroke-width="0.5"></path><path id="Vector_49" stroke="#120071" stroke-linecap="round" stroke-linejoin="round" d="M129.5602875 29.264655a4.6004700000000005 4.6004700000000005 0 0 0 -2.43789 4.1346375 6.7321275 6.7321275 0 0 0 -6.4568175000000005 -1.5321600000000002" stroke-width="0.5"></path></g><g id="elements"><g id="Group"><path id="Vector_50" stroke="#120071" stroke-linecap="round" stroke-linejoin="round" d="M160.42792500000002 154.897785h9.7844775" stroke-width="0.5"></path><path id="Vector_51" stroke="#120071" stroke-linecap="round" stroke-linejoin="round" d="M165.31966500000001 159.789525v-9.78348" stroke-width="0.5"></path></g><g id="Group_2"><path id="Vector_52" stroke="#120071" stroke-linecap="round" stroke-linejoin="round" d="m46.3268925 24.5195475 6.9176625 6.91866" stroke-width="0.5"></path><path id="Vector_53" stroke="#120071" stroke-linecap="round" stroke-linejoin="round" d="m46.3268925 31.4382075 6.9176625 -6.91866" stroke-width="0.5"></path></g><g id="Group_3"><path id="Vector_54" stroke="#120071" stroke-linecap="round" stroke-linejoin="round" d="m143.570175 125.7697875 3.5281575000000003 3.529155" stroke-width="0.5"></path><path id="Vector_55" stroke="#120071" stroke-linecap="round" stroke-linejoin="round" d="m143.570175 129.2989425 3.5281575000000003 -3.529155" stroke-width="0.5"></path></g><path id="Vector_56" stroke="#120071" stroke-linecap="round" stroke-linejoin="round" d="m173.742555 59.640525000000004 3.0254175 4.989495 3.557085 -7.453320000000001" stroke-width="0.5"></path></g><g id="documents"><path id="Vector_57" stroke="#120071" stroke-linecap="round" stroke-linejoin="round" d="m157.9491375 101.3849025 -0.8119649999999999 0.8129625c5.352585 2.515695 7.30569 6.454822500000001 10.451805 11.465265 1.04139 1.6588425000000002 3.4124475 5.63787 5.0633099999999995 6.6922274999999996a271.25615999999997 271.25615999999997 0 0 1 20.03778 -18.1545 12.996427500000001 12.996427500000001 0 0 0 -2.1236775000000003 -6.84684" stroke-width="0.5"></path><path id="Vector_58" stroke="#120071" stroke-linecap="round" stroke-linejoin="round" d="m158.10375000000002 99.87468750000001 -0.9705675 1.2059775000000001c14.1515325 5.253832500000001 11.5420725 6.940605000000001 19.222822500000003 14.1645 4.981515 -7.240852500000001 12.3081525 -17.426325 17.592907500000003 -24.44673 -1.1371499999999999 -0.8049825 -1.737645 -2.28627 -5.08725 -4.778025" stroke-width="0.5"></path><path id="Vector_59" stroke="#120071" stroke-linecap="round" stroke-linejoin="round" d="M185.3185425 73.9895625a47.52489 47.52489 0 0 0 -13.8542775 -4.892737500000001c-1.689765 4.0089525 -12.809895000000001 26.4207825 -15.09018 30.1245 7.790475 3.170055 16.1984025 3.1201800000000004 23.48913 7.317660000000001a1875.3149625 1875.3149625 0 0 1 12.867750000000001 -29.127000000000002 52.20915000000001 52.20915000000001 0 0 1 -7.412422500000001 -3.4224225Z" stroke-width="0.5"></path><path id="Vector_60" stroke="#120071" stroke-linecap="round" stroke-linejoin="round" d="m175.54404000000002 77.5965225 6.988485000000001 2.6932500000000004" stroke-width="0.5"></path><path id="Vector_61" stroke="#120071" stroke-linecap="round" stroke-linejoin="round" d="m173.539065 81.43191 6.9894825 2.6932500000000004" stroke-width="0.5"></path><path id="Vector_62" stroke="#120071" stroke-linecap="round" stroke-linejoin="round" d="m171.41838 84.97303500000001 6.9894825 2.6932500000000004" stroke-width="0.5"></path><path id="Vector_63" stroke="#120071" stroke-linecap="round" stroke-linejoin="round" d="m169.7745 88.883235 6.988485000000001 2.6932500000000004" stroke-width="0.5"></path></g><g id="cup"><path id="Vector_64" stroke="#120071" stroke-linecap="round" stroke-linejoin="round" d="M36.392790000000005 39.922942500000005a8.448825000000001 8.448825000000001 0 0 1 0.34513499999999997 1.5361500000000001 1.689765 1.689765 0 0 1 1.374555 3.054345 1.68777 1.68777 0 0 1 -1.5570975 0.11172000000000001 8.4737625 8.4737625 0 0 1 -0.5216925 1.49625c2.4348975 0.6154575 4.799970000000001 -0.8648325 4.8767775 -2.9117025 0.0768075 -2.04687 -2.1555975000000003 -3.632895 -4.5176775000000005 -3.2867625Z" stroke-width="0.5"></path><path id="Vector_65" stroke="#120071" stroke-linecap="round" stroke-linejoin="round" d="M36.1025175 39.151875000000004c0.0947625 0.6074775 -3.4812750000000006 1.7077200000000001 -7.991970000000001 2.4598350000000004 -4.510695 0.7521150000000001 -8.254312500000001 0.86982 -8.3580525 0.2643375a8.54259 8.54259 0 1 0 16.350022499999998 -2.7241725v0Z" stroke-width="0.5"></path><path id="Vector_66" stroke="#120071" stroke-linecap="round" stroke-linejoin="round" d="M27.744465 39.415215c4.514685 -0.7521150000000001 8.257305 -0.86982 8.3580525 -0.26334 0.10074750000000002 0.60648 -3.477285 1.7067225000000001 -7.991970000000001 2.4598350000000004 -4.514685 0.7531125000000001 -8.257305 0.8708175 -8.3580525 0.2643375 -0.10074750000000002 -0.60648 3.477285 -1.7087175000000001 7.991970000000001 -2.4608325000000004Z" stroke-width="0.5"></path><path id="Vector_67" fill="#6153bd" d="M26.315047500000002 37.5169725c-2.535645 -0.7182000000000001 -5.141115 -1.69575 -6.864795 -3.6907500000000004 -1.72368 -1.995 -3.08427 -5.1471 -1.3176975 -7.1071875 0.9256800000000001 -1.02543 2.7251700000000003 -0.408975 3.5511000000000004 0.939645 1.8802875000000001 3.0732975000000002 2.5017300000000002 6.959557500000001 4.6313925000000005 9.8582925Z" stroke-width="0.5"></path><path id="Vector_68" stroke="#120071" stroke-linecap="round" stroke-linejoin="round" d="M26.315047500000002 37.5169725c-2.535645 -0.7182000000000001 -5.141115 -1.69575 -6.864795 -3.6907500000000004 -1.72368 -1.995 -3.08427 -5.1471 -1.3176975 -7.1071875 0.9256800000000001 -1.02543 2.7251700000000003 -0.408975 3.5511000000000004 0.939645 1.8802875000000001 3.0732975000000002 2.5017300000000002 6.959557500000001 4.6313925000000005 9.8582925Z" stroke-width="0.5"></path><path id="Vector_69" fill="#6153bd" d="M26.034750000000003 24.368925c1.0703175 -0.17955000000000002 1.7705625 -1.3346550000000001 1.5630825 -2.5815300000000003 -0.20748 -1.2468750000000002 -1.2438825000000002 -2.1147 -2.3142 -1.9351500000000001 -1.0703175 0.177555 -1.7705625 1.3326600000000002 -1.5630825 2.579535 0.20748 1.2468750000000002 1.2438825000000002 2.1147 2.3142 1.9361475000000001Z" stroke-width="0.5"></path><path id="Vector_70" stroke="#120071" stroke-linecap="round" stroke-linejoin="round" d="M26.034750000000003 24.368925c1.0703175 -0.17955000000000002 1.7705625 -1.3346550000000001 1.5630825 -2.5815300000000003 -0.20748 -1.2468750000000002 -1.2438825000000002 -2.1147 -2.3142 -1.9351500000000001 -1.0703175 0.177555 -1.7705625 1.3326600000000002 -1.5630825 2.579535 0.20748 1.2468750000000002 1.2438825000000002 2.1147 2.3142 1.9361475000000001Z" stroke-width="0.5"></path><path id="Vector_71" fill="#6153bd" d="M18.67719 20.535532500000002a1.438395 1.438395 0 1 0 0 -2.87679 1.438395 1.438395 0 0 0 0 2.87679Z" stroke-width="0.5"></path><path id="Vector_72" stroke="#120071" stroke-linecap="round" stroke-linejoin="round" d="M18.67719 20.535532500000002a1.438395 1.438395 0 1 0 0 -2.87679 1.438395 1.438395 0 0 0 0 2.87679Z" stroke-width="0.5"></path></g><g id="chat bubble"><path id="Vector_73" stroke="#120071" stroke-linecap="round" stroke-linejoin="round" d="m17.36847 100.69164 -1.8483675000000002 7.194967500000001 5.859315 -4.8388725c10.1016825 3.7336425 21.554977500000003 -3.7905 20.131545 -13.0103925 -0.9905175 -6.4129275 -8.0029425 -10.639335 -15.66075 -9.44034 -11.29569 1.769565 -16.1186025 13.45428 -8.481742500000001 20.0946375Z" stroke-width="0.5"></path><g id="Group_4"><path id="Vector_74" stroke="#120071" stroke-linecap="round" stroke-linejoin="round" d="M27.2187825 86.07427500000001v8.0667825" stroke-width="0.5"></path><path id="Vector_75" stroke="#120071" stroke-linecap="round" stroke-linejoin="round" d="M27.2187825 95.66224500000001v1.66782" stroke-width="0.5"></path></g></g><g id="mobile phone"><path id="Vector_76" stroke="#120071" stroke-linecap="round" stroke-linejoin="round" d="M123.34985250000001 8.778a9.5590425 9.5590425 0 0 1 3.9151875 4.62441c0.7680750000000001 1.925175 0.8897700000000001 4.047855 0.3461325 6.04884" stroke-width="0.5"></path><path id="Vector_77" stroke="#120071" stroke-linecap="round" stroke-linejoin="round" d="M121.0965 12.194437500000001a5.1002175 5.1002175 0 0 1 2.2733025000000002 5.695725" stroke-width="0.5"></path><path id="Vector_78" stroke="#120071" stroke-linecap="round" stroke-linejoin="round" d="M125.7119325 4.987500000000001a14.548537500000002 14.548537500000002 0 0 1 6.4907325 16.2642375" stroke-width="0.5"></path><path id="Vector_79" stroke="#120071" stroke-linecap="round" stroke-linejoin="round" d="m112.14892500000002 7.08225 -6.8897325 2.802975a1.8962475 1.8962475 0 0 0 -0.71022 2.5316549999999998l5.754577500000001 14.146545000000001a1.89525 1.89525 0 0 0 2.276295 1.3186950000000002l6.8897325 -2.8019775000000005a1.8962475 1.8962475 0 0 0 0.71022 -2.5326525l-5.754577500000001 -14.1435525A1.8982425 1.8982425 0 0 0 112.14892500000002 7.08225v0Z" stroke-width="0.5"></path><path id="Vector_80" stroke="#120071" stroke-linecap="round" stroke-linejoin="round" d="m120.1797975 22.5504825 -9.875250000000001 4.015935" stroke-width="0.5"></path><path id="Vector_81" stroke="#120071" stroke-linecap="round" stroke-linejoin="round" d="m104.54897250000002 12.418875 9.875250000000001 -4.0149375" stroke-width="0.5"></path><path id="Vector_82" stroke="#120071" stroke-linecap="round" stroke-linejoin="round" d="m115.02372 25.7664225 1.2199425000000002 -0.49875" stroke-width="0.5"></path></g></g></svg>