<svg xmlns="http://www.w3.org/2000/svg" fill="none" viewBox="-0.25 -0.25 200 200" id="Product-We-Got-A-Problem-01--Streamline-Bangalore.svg"><desc>Product We Got A Problem 01 Streamline Illustration: https://streamlinehq.com</desc><g><g><path fill="#70a4ff" fill-rule="evenodd" d="M50.07450000000001 6.7640475 70.86240000000001 42.79275a3.5511000000000004 3.5511000000000004 0 0 1 -3.070305 5.322660000000001l-41.597745 0.0029925000000000004a3.5501025000000004 3.5501025000000004 0 0 1 -3.070305 -5.3256525L43.915935000000005 6.7640475a3.5580825000000003 3.5580825000000003 0 0 1 6.158565 0Zm-3.082275 32.1643875a1.3167000000000002 1.3167000000000002 0 1 0 0 -2.6334000000000004 1.3167000000000002 1.3167000000000002 0 0 0 0 2.6334000000000004Z" clip-rule="evenodd" stroke-width="0.5"></path><path fill="#70a4ff" d="M158.8329225 38.43168c-7.5041925 -1.4214375000000001 -14.66325 2.9925 -15.96 9.855300000000002 -0.44089500000000004 2.4039750000000004 -0.129675 4.8847575 0.891765 7.1051925l-3.2408775000000003 5.3067 6.14061 -1.2508650000000001a14.6433 14.6433 0 0 0 7.466287500000001 3.8284050000000005c7.5041925 1.4214375000000001 14.66325 -2.9925 15.96 -9.8543025 1.3067250000000001 -6.860805 -3.7336425 -13.5689925 -11.257785 -14.990430000000002Z" stroke-width="0.5"></path><path fill="#70a4ff" d="M64.5133125 84.17902500000001a1.2508650000000001 1.2508650000000001 0 1 0 0 -2.5017300000000002 1.2508650000000001 1.2508650000000001 0 0 0 0 2.5017300000000002Z" stroke-width="0.5"></path><path fill="#70a4ff" d="M75.7710975 93.731085a1.2508650000000001 1.2508650000000001 0 1 1 -1.2508650000000001 -1.2508650000000001 1.2608400000000002 1.2608400000000002 0 0 1 1.2508650000000001 1.2508650000000001Z" stroke-width="0.5"></path><path fill="#70a4ff" d="M87.46379250000001 84.633885a1.2508650000000001 1.2508650000000001 0 1 1 -1.2508650000000001 -1.2508650000000001 1.2628350000000002 1.2628350000000002 0 0 1 1.2508650000000001 1.2508650000000001Z" stroke-width="0.5"></path><path fill="#70a4ff" d="M100.31259 95.32209750000001a1.2498675 1.2498675 0 1 1 -1.2508650000000001 -1.2498675 1.2608400000000002 1.2608400000000002 0 0 1 1.2508650000000001 1.2498675Z" stroke-width="0.5"></path><path fill="#70a4ff" d="M111.2282325 84.633885a1.25685 1.25685 0 0 1 -0.7720650000000001 1.1561025 1.2518624999999999 1.2518624999999999 0 1 1 -0.4788 -2.4069675 1.2638325 1.2638325 0 0 1 1.2508650000000001 1.2508650000000001Z" stroke-width="0.5"></path><path fill="#70a4ff" d="M124.87303500000002 85.35408a1.25685 1.25685 0 0 1 -0.7720650000000001 1.1561025 1.2518624999999999 1.2518624999999999 0 1 1 -0.4788 -2.4069675 1.2628350000000002 1.2628350000000002 0 0 1 1.2508650000000001 1.2508650000000001Z" stroke-width="0.5"></path><path fill="#70a4ff" d="M138.72631500000003 84.633885a1.2508650000000001 1.2508650000000001 0 1 0 0 -2.5007325000000002 1.2508650000000001 1.2508650000000001 0 0 0 0 2.5007325000000002Z" stroke-width="0.5"></path><path fill="#70a4ff" d="M133.28694750000003 96.85725a1.25685 1.25685 0 0 1 -0.7720650000000001 1.1561025 1.2518624999999999 1.2518624999999999 0 1 1 -0.4788 -2.4069675 1.2398925 1.2398925 0 0 1 1.2508650000000001 1.2508650000000001Z" stroke-width="0.5"></path></g><g><path fill="#6153bd" d="M45.60071250000001 78.62694v6.1396125c0.871815 -0.3600975 1.7955 -0.7391475000000001 2.767065 -1.1371499999999999v-3.13614a8.9186475 8.9186475 0 0 1 -2.767065 -1.8663225Z" stroke-width="0.5"></path><path fill="#6153bd" d="M45.60071250000001 91.98745500000001v102.50609250000001h2.767065V90.26277750000001c-0.871815 0.5496225000000001 -1.8753 1.1940075 -2.767065 1.7246775Z" stroke-width="0.5"></path><path fill="#6153bd" d="m103.211325 70.932225 -1.5152025 2.160585 0.037905 -1.8383925 1.4772975000000002 -0.32219250000000005Z" stroke-width="0.5"></path><path fill="#6153bd" d="m141.49338000000003 77.10675 0.45486000000000004 -0.28428749999999997c0.09975 -0.05187 4.0249125 -1.41645 4.0897499999999996 -1.44039 -2.5745475 -1.28478 -4.8288975 -0.716205 -4.5446100000000005 1.7246775Z" stroke-width="0.5"></path><path fill="#6153bd" d="m149.7177675 82.70073000000001 -2.5935 0.9097200000000001c1.74363 0.720195 3.49125 0.62244 3.96207 -0.8369025l-1.3685700000000003 -0.0728175Z" stroke-width="0.5"></path><path fill="#6153bd" d="M94.77846000000001 191.66962500000002a27.8093025 27.8093025 0 0 0 -1.44039 -6.483750000000001 22.5105825 22.5105825 0 0 1 -12.374985 0c-5.36256 1.554105 -11.4842175 6.310185 -14.687190000000001 9.30468 10.764022500000001 0 17.8901625 -0.0947625 26.076645 -0.11371500000000001a2.42592 2.42592 0 0 0 2.3241750000000003 -1.6937550000000001 2.423925 2.423925 0 0 0 0.101745 -1.01346Z" stroke-width="0.5"></path><path fill="#6153bd" d="m154.853895 175.48518750000002 -3.525165 -1.89525c-1.402485 4.6054575 -3.070305 5.970037500000001 -7.410427500000001 8.812912500000001 2.1795375000000003 3.25983 1.66782 4.8707925 1.4214375000000001 5.81742 -2.29425 2.160585 -3.4483575 2.1516075000000003 -5.0403675 6.28425h7.98a5.6318850000000005 5.6318850000000005 0 0 0 5.174032500000001 -3.1371375c1.197 -2.5935 2.1945 -7.8453375 3.31569 -10.934595a3.9650625 3.9650625 0 0 0 -1.9152 -4.9476Z" stroke-width="0.5"></path><path fill="#6153bd" d="M157.29777 55.2784575a0.6573525000000001 0.6573525000000001 0 0 1 -0.6822900000000001 0.6254325000000001 0.6523650000000001 0.6523650000000001 0 0 1 -0.564585 -0.9306675000000001 0.6553575 0.6553575 0 0 1 1.2468750000000002 0.30523500000000003Z" stroke-width="0.5"></path><path fill="#6153bd" d="M45.619665000000005 78.1910325V48.1184025l2.767065 -0.0029925000000000004v30.246195c-1.685775 -0.30324 -2.5017300000000002 -0.32219250000000005 -2.767065 -0.17057250000000002Z" stroke-width="0.5"></path><path fill="#6153bd" d="M121.7458725 57.55575a2.59749 2.59749 0 0 0 1.8633300000000002 -2.8059675000000004 2.5984875 2.5984875 0 0 0 -2.4698100000000003 -2.2912575000000004 2.607465 2.607465 0 0 0 0.548625 -3.174045 2.603475 2.603475 0 0 0 -2.9555925000000003 -1.2797924999999999 2.6084625000000004 2.6084625000000004 0 0 0 -2.2344000000000004 -3.7176825 2.6124525000000003 2.6124525000000003 0 0 0 -1.6119600000000003 0.45785250000000005 2.6084625000000004 2.6084625000000004 0 0 0 -4.85184 -1.596 2.707215 2.707215 0 0 0 -2.6543475 -2.2144500000000003 2.711205 2.711205 0 0 0 -2.6713050000000003 2.1954975 2.6104575000000003 2.6104575000000003 0 0 0 -3.0643200000000004 -1.197 2.6164425000000002 2.6164425000000002 0 0 0 -1.8054750000000002 2.7511050000000004 2.6144475000000003 2.6144475000000003 0 0 0 -3.8852625 3.221925 2.6164425000000002 2.6164425000000002 0 0 0 -2.4638250000000004 4.434885 2.6054700000000004 2.6054700000000004 0 0 0 -0.6633375 5.097225000000001 2.603475 2.603475 0 0 0 0.6254325000000001 5.0982225 2.6084625000000004 2.6084625000000004 0 0 0 2.4448725000000002 4.434885 2.5935 2.5935 0 0 0 2.539635 3.6907500000000004c-1.1561025 -0.9286725000000001 -1.5730575 -2.9925 0.32219250000000005 -7.371525 3.3735450000000005 -7.78848 6.461805 -2.35011 6.423900000000001 0.8149575 0.056857500000000005 0.5685749999999999 0.37905 0.6822900000000001 1.2319125000000002 -0.0189525 1.781535 -1.4782950000000001 3.33564 1.629915 -0.056857500000000005 3.4104525000000003 -0.6443850000000001 0.34214250000000007 -1.0802925 1.09725 -0.5306700000000001 5.2867500000000005 0.03391500000000001 0.29925 0.08379 0.5975025 0.15162 0.8907675a2.6433750000000003 2.6433750000000003 0 0 0 3.8094525000000004 -1.9142025000000003 2.6154450000000002 2.6154450000000002 0 0 0 4.8877500000000005 -1.5162 2.6084625000000004 2.6084625000000004 0 0 0 3.9032175000000002 -3.1830225 2.6134500000000003 2.6134500000000003 0 0 0 2.4827775 -4.4159325 2.6104575000000003 2.6104575000000003 0 0 0 0.6842850000000001 -5.089245000000001Z" stroke-width="0.5"></path></g><g><path stroke="#120071" d="M64.5133125 84.17902500000001a1.2508650000000001 1.2508650000000001 0 1 0 0 -2.5017300000000002 1.2508650000000001 1.2508650000000001 0 0 0 0 2.5017300000000002Z" stroke-width="0.5"></path><path stroke="#120071" d="M75.7710975 93.731085a1.2508650000000001 1.2508650000000001 0 1 1 -1.2508650000000001 -1.2508650000000001 1.2608400000000002 1.2608400000000002 0 0 1 1.2508650000000001 1.2508650000000001Z" stroke-width="0.5"></path><path stroke="#120071" d="M87.46379250000001 84.633885a1.2508650000000001 1.2508650000000001 0 1 1 -1.2508650000000001 -1.2508650000000001 1.2628350000000002 1.2628350000000002 0 0 1 1.2508650000000001 1.2508650000000001Z" stroke-width="0.5"></path><path stroke="#120071" d="M100.31259 95.32209750000001a1.2498675 1.2498675 0 1 1 -1.2508650000000001 -1.2498675 1.2608400000000002 1.2608400000000002 0 0 1 1.2508650000000001 1.2498675Z" stroke-width="0.5"></path><path stroke="#120071" d="M111.2282325 84.633885a1.25685 1.25685 0 0 1 -0.7720650000000001 1.1561025 1.2518624999999999 1.2518624999999999 0 1 1 -0.4788 -2.4069675 1.2638325 1.2638325 0 0 1 1.2508650000000001 1.2508650000000001Z" stroke-width="0.5"></path><path stroke="#120071" d="M124.87303500000002 85.35408a1.25685 1.25685 0 0 1 -0.7720650000000001 1.1561025 1.2518624999999999 1.2518624999999999 0 1 1 -0.4788 -2.4069675 1.2628350000000002 1.2628350000000002 0 0 1 1.2508650000000001 1.2508650000000001Z" stroke-width="0.5"></path><path stroke="#120071" d="M138.72631500000003 84.633885a1.2508650000000001 1.2508650000000001 0 1 0 0 -2.5007325000000002 1.2508650000000001 1.2508650000000001 0 0 0 0 2.5007325000000002Z" stroke-width="0.5"></path><path stroke="#120071" d="M133.28694750000003 96.85725a1.25685 1.25685 0 0 1 -0.7720650000000001 1.1561025 1.2518624999999999 1.2518624999999999 0 1 1 -0.4788 -2.4069675 1.2398925 1.2398925 0 0 1 1.2508650000000001 1.2508650000000001Z" stroke-width="0.5"></path><path stroke="#120071" d="M157.29777 55.2784575a0.6573525000000001 0.6573525000000001 0 0 1 -0.6822900000000001 0.6254325000000001 0.6523650000000001 0.6523650000000001 0 0 1 -0.564585 -0.9306675000000001 0.6553575 0.6553575 0 0 1 1.2468750000000002 0.30523500000000003Z" stroke-width="0.5"></path><path stroke="#120071" stroke-linecap="round" stroke-linejoin="round" d="M45.60071250000001 78.1910325V48.11541" stroke-width="0.5"></path><path stroke="#120071" stroke-linecap="round" stroke-linejoin="round" d="M45.60071250000001 84.7665525v-6.120660000000001" stroke-width="0.5"></path><path stroke="#120071" stroke-linecap="round" stroke-linejoin="round" d="M45.60071250000001 194.51250000000002V92.0443125" stroke-width="0.5"></path><path stroke="#120071" stroke-linecap="round" stroke-linejoin="round" d="M48.38673000000001 90.3385875V194.51250000000002" stroke-width="0.5"></path><path stroke="#120071" stroke-linecap="round" stroke-linejoin="round" d="M48.38673000000001 80.5032375v3.1451175" stroke-width="0.5"></path><path stroke="#120071" stroke-linecap="round" stroke-linejoin="round" d="M48.38673000000001 48.11541v30.246195" stroke-width="0.5"></path><path stroke="#120071" stroke-linecap="round" stroke-linejoin="round" d="M149.016525 85.16455500000001A47.530875 47.530875 0 0 1 129.04258500000003 145.63500000000002" stroke-width="0.5"></path><path stroke="#120071" stroke-linecap="round" stroke-linejoin="round" d="M65.062935 79.5177075A47.51092500000001 47.51092500000001 0 0 1 90.99195 59.141775m51.776235 15.6816975a47.51092500000001 47.51092500000001 0 0 0 -19.2347925 -14.437815" stroke-width="0.5"></path><path stroke="#120071" stroke-linecap="round" stroke-linejoin="round" d="M87.1984575 148.1576775A47.51990250000001 47.51990250000001 0 0 1 58.054500000000004 104.34348750000001c0 -4.67229 0.6822900000000001 -9.32064 2.024925 -13.7964225" stroke-width="0.5"></path><path stroke="#120071" stroke-linecap="round" stroke-linejoin="round" d="M113.54043750000001 151.17112500000002a32.189325000000004 32.189325000000004 0 0 1 -7.98 0.6633375c-1.29675 0 -2.6004825000000005 -0.05187 -3.8842650000000005 -0.1546125" stroke-width="0.5"></path><path stroke="#120071" stroke-linecap="round" stroke-linejoin="round" d="M150.7032975 83.45883c-3.7146900000000005 3.7146900000000005 -8.6273775 9.093210000000001 -13.701660000000002 15.217860000000002a7.8064350000000005 7.8064350000000005 0 0 1 -10.6124025 1.3456275c-4.4538375 -3.2398800000000003 -7.467285 -5.5710375 -12.356032500000001 -9.15306" stroke-width="0.5"></path><path stroke="#120071" stroke-linecap="round" stroke-linejoin="round" d="m101.67318 73.12473000000001 1.538145 -2.192505" stroke-width="0.5"></path><path stroke="#120071" stroke-linecap="round" stroke-linejoin="round" d="M141.91432500000002 75.35414250000001a71.6095275 71.6095275 0 0 0 -11.148060000000001 12.1984275s-9.457297500000001 -7.9191525 -15.937057500000002 -11.863267500000001c-6.691230000000001 -4.0727925 -8.265285 2.65335 -9.002437500000001 -2.9376375 -0.5516175000000001 -4.189500000000001 -0.11371500000000001 -4.9476 0.5306700000000001 -5.2867500000000005 3.3915 -1.7875200000000002 1.8324075 -4.897725 0.056857500000000005 -3.4114500000000003 -1.0563525 0.8847825 -1.175055 0.49875 -1.2199425000000002 -0.3281775 -0.17556 -3.192 -3.1650675 -7.98 -6.4169175 -0.4678275 -4.5885 10.593449999999999 4.433887500000001 7.674765000000001 4.433887500000001 7.674765000000001" stroke-width="0.5"></path><path stroke="#120071" stroke-linecap="round" stroke-linejoin="round" d="M101.73303 71.24145c0.11271750000000001 1.6239299999999999 -0.15261750000000002 4.2403725 -1.7615850000000002 3.8603250000000005 -4.12965 -0.9755550000000001 -5.89722 -0.32718 -8.2443375 1.49625 -4.6683 3.628905 -14.15652 9.001439999999999 -14.15652 9.001439999999999 -5.6278950000000005 -3.3915 -9.702682500000002 -4.850842500000001 -14.951527500000001 -7.10619A17.7126075 17.7126075 0 0 0 58.054500000000004 89.65629750000001c7.48125 3.2029725 10.348065000000002 5.03937 16.203390000000002 7.902195a8.720145 8.720145 0 0 0 8.357055 -0.3600975c3.6797775 -2.2304100000000004 7.144095 -4.282267500000001 10.9156425 -6.27228" stroke-width="0.5"></path><path stroke="#120071" stroke-linecap="round" stroke-linejoin="round" d="M146.0409825 75.38606250000001c-2.2593375000000004 -1.1301675 -4.271295 -0.831915 -4.5416175 0.90573 -0.23241750000000003 1.49625 0.7830375 3.261825 1.7486175 4.4199225a9.280740000000002 9.280740000000002 0 0 0 5.3655525 3.30771 2.0518575 2.0518575 0 0 0 2.4698100000000003 -1.2458775000000002" stroke-width="0.5"></path><path stroke="#120071" stroke-linecap="round" stroke-linejoin="round" d="M92.35254 82.9850175a49.2765 49.2765 0 0 0 4.7191725 18.0417825c5.7855 1.5351525 10.479735000000002 1.175055 16.3360575 -0.60648a28.110547500000003 28.110547500000003 0 0 1 1.6867725000000002 -12.93957" stroke-width="0.5"></path><path stroke="#120071" stroke-linecap="round" stroke-linejoin="round" d="M147.12127500000003 83.61045a56.72583 56.72583 0 0 1 8.263290000000001 -2.48178 31.94793 31.94793 0 0 1 7.63686 -0.37905c3.7535925 0.221445 4.35309 -0.6274275 0.4738125 -1.9521075 -1.4234325 -0.48678 -8.698200000000002 -1.5162 -10.309162500000001 -1.74363 -2.5775400000000004 -0.3620925 -6.384 -0.7381500000000001 -8.907675 -0.8149575a4.72815 4.72815 0 0 0 -0.572565 0.03591" stroke-width="0.5"></path><path stroke="#120071" stroke-linecap="round" stroke-linejoin="round" d="M141.49338000000003 77.10675c0.053865 -0.03391500000000001 8.799945 -3.29175 12.2802225 -4.8877500000000005 4.038877500000001 -1.8553500000000003 2.9516025000000004 -0.420945 1.9142025000000003 0.8149575 -0.76209 0.9077250000000001 -4.5296475 3.4114500000000003 -2.5017300000000002 4.01793" stroke-width="0.5"></path><path stroke="#120071" stroke-linecap="round" stroke-linejoin="round" d="M149.69881500000002 82.69275c2.29425 -0.5496225000000001 6.822900000000001 -0.0728175 8.8308675 0.041895 1.629915 0.093765 3.9989775000000005 0.628425 5.818417500000001 0.798 0.416955 0.0389025 0.871815 -0.5685749999999999 -1.554105 -1.554105 -0.9107175000000001 -0.3680775 -2.515695 -1.0334100000000002 -3.2737950000000002 -1.266825" stroke-width="0.5"></path><path stroke="#120071" stroke-linecap="round" stroke-linejoin="round" d="M149.6020575 82.734645c1.88727 0.006982500000000001 3.7675575 0.21147000000000002 5.611935000000001 0.6104700000000001 1.49625 0.34114500000000003 4.003965000000001 1.2877725 5.6089425 1.7246775 0.399 0.1087275 0.947625 -0.416955 -1.2698175 -1.8004875a23.531025 23.531025 0 0 0 -0.8528625000000001 -0.5187" stroke-width="0.5"></path><path stroke="#120071" stroke-linecap="round" stroke-linejoin="round" d="M58.222080000000005 87.969525a52.80765 52.80765 0 0 0 -9.247822500000002 -0.5496225000000001c-2.5536000000000003 0.19551000000000002 -5.078272500000001 0.6783000000000001 -7.524142500000001 1.44039 -3.5999775 1.1191950000000002 -4.389 0.41097 -0.9286725000000001 -1.7955a129.601185 129.601185 0 0 1 18.079687500000002 -7.0114275 4.5984750000000005 4.5984750000000005 0 0 1 2.6723025 0.07581" stroke-width="0.5"></path><path stroke="#120071" stroke-linecap="round" stroke-linejoin="round" d="M50.204175 82.92816c1.8204375000000002 -1.0802925 -2.479785 -2.5935 -3.4284075 -3.29175 -1.2877725 -0.94962 -2.7082125 -2.0748 1.66782 -1.2508650000000001A85.790985 85.790985 0 0 0 59.55075000000001 79.89975" stroke-width="0.5"></path><path stroke="#120071" stroke-linecap="round" stroke-linejoin="round" d="M44.823660000000004 88.00743c-0.798 0.492765 -2.3860200000000003 1.65186 -2.8428750000000003 1.995 -2.0947500000000003 1.5491175 -1.5341550000000002 2.03091 -1.1371499999999999 1.89525 1.5760500000000002 -0.5386500000000001 3.9989775000000005 -1.6867725000000002 5.4583200000000005 -2.1416325 2.3690625 -0.7391475000000001 6.916665000000001 -2.312205 9.07725 -2.084775" stroke-width="0.5"></path><path stroke="#120071" stroke-linecap="round" stroke-linejoin="round" d="M46.169287499999996 89.788965c-0.32219250000000005 0.32219250000000005 -0.5685749999999999 0.5875275 -0.720195 0.720195 -1.8194400000000002 1.8573450000000002 -1.1780475000000001 2.2503599999999997 -0.8149575 2.04687 1.44837 -0.8149575 3.6588300000000005 -2.308215 5.041365000000001 -2.9925a31.730475000000002 31.730475000000002 0 0 1 5.248845 -1.933155" stroke-width="0.5"></path><path stroke="#120071" stroke-linecap="round" stroke-linejoin="round" d="M94.77846000000001 191.66962500000002a27.8093025 27.8093025 0 0 0 -1.44039 -6.483750000000001 22.5105825 22.5105825 0 0 1 -12.374985 0c-5.36256 1.554105 -11.4842175 6.310185 -14.687190000000001 9.30468 10.763024999999999 0 17.8901625 -0.0947625 26.076645 -0.11371500000000001 0.34314 0.0009975000000000001 0.6822900000000001 -0.0708225 0.9955050000000001 -0.21147000000000002a2.4249225 2.4249225 0 0 0 1.3296675 -1.482285c0.1047375 -0.32718 0.13965000000000002 -0.6723150000000001 0.09975 -1.01346v0Z" stroke-width="0.5"></path><path stroke="#120071" stroke-linecap="round" stroke-linejoin="round" d="M99.819825 155.52621c0.1246875 5.2917375 -4.095735 15.78444 -6.483750000000001 29.681610000000003" stroke-width="0.5"></path><path stroke="#120071" stroke-linecap="round" stroke-linejoin="round" d="m80.963085 185.18886750000001 6.16056 -31.825237500000004" stroke-width="0.5"></path><path stroke="#120071" stroke-linecap="round" stroke-linejoin="round" d="m107.9295 132.10690499999998 -7.447335000000001 23.30958a21.11508 21.11508 0 0 1 -14.270235 -2.539635l10.859782500000001 -51.8301" stroke-width="0.5"></path><path stroke="#120071" stroke-linecap="round" stroke-linejoin="round" d="m154.8728475 175.50414 -3.525165 -1.89525c-1.402485 4.6044599999999996 -3.0922500000000004 5.969040000000001 -7.429380000000001 8.811915 2.1795375000000003 3.25983 1.66782 4.8707925 1.4214375000000001 5.81742 -2.29425 2.160585 -3.4483575 2.132655 -5.0403675 6.2643h7.98a5.6318850000000005 5.6318850000000005 0 0 0 5.174032500000001 -3.1371375c1.197 -2.5935 2.1945 -7.8453375 3.31569 -10.934595a3.9431175 3.9431175 0 0 0 -1.8962475 -4.9266525v0Z" stroke-width="0.5"></path><path stroke="#120071" stroke-linecap="round" stroke-linejoin="round" d="M143.93725500000002 182.4218025 121.1014875 157.8045" stroke-width="0.5"></path><path stroke="#120071" stroke-linecap="round" stroke-linejoin="round" d="M131.03160000000003 150.0150225a55.638555000000004 55.638555000000004 0 0 1 8.6612925 8.9266275c3.4842675 4.7770275 11.65479 14.66325 11.65479 14.66325" stroke-width="0.5"></path><path stroke="#120071" stroke-linecap="round" stroke-linejoin="round" d="m103.211325 114.14093250000002 8.718150000000001 33.259642500000005a14.0537775 14.0537775 0 0 0 3.904215 6.613425l4.3441125000000005 4.135635a20.817825000000003 20.817825000000003 0 0 0 11.194942500000002 -8.6652825l-3.92217 -6.483750000000001 -2.4827775 -25.280640000000002c-0.911715 -9.4164 -6.532627500000001 -15.9091275 -11.5600275 -17.302635000000002" stroke-width="0.5"></path><path stroke="#120071" stroke-linecap="round" stroke-linejoin="round" d="M109.9773675 74.3247225a48.6809925 48.6809925 0 0 0 -7.523145 13.322610000000001c-2.5206825000000004 -4.1505975 -4.987500000000001 -12.967500000000001 -4.987500000000001 -12.967500000000001" stroke-width="0.5"></path><path stroke="#120071" stroke-linecap="round" stroke-linejoin="round" d="M26.118540000000003 194.51250000000002h150.73721250000003" stroke-width="0.5"></path><path stroke="#120071" stroke-linecap="round" stroke-linejoin="round" d="M158.8329225 38.43168c-7.5041925 -1.4214375000000001 -14.66325 2.9925 -15.96 9.855300000000002 -0.44089500000000004 2.4039750000000004 -0.129675 4.8847575 0.891765 7.1051925l-3.2408775000000003 5.3067 6.14061 -1.2508650000000001a14.6433 14.6433 0 0 0 7.466287500000001 3.8284050000000005c7.5041925 1.4214375000000001 14.66325 -2.9925 15.96 -9.8543025 1.3067250000000001 -6.860805 -3.7336425 -13.5689925 -11.257785 -14.990430000000002Z" stroke-width="0.5"></path><path stroke="#120071" stroke-linecap="round" stroke-linejoin="round" d="M156.6344325 52.398675000000004c0.0189525 -0.8528625000000001 0.3461325 -1.4753025000000002 1.402485 -2.88078 2.2792875 -3.0314025000000004 0.89775 -5.1201675 -1.0423875 -5.2119375a2.360085 2.360085 0 0 0 -2.4438750000000002 2.6932500000000004" stroke-width="0.5"></path><path stroke="#120071" stroke-linecap="round" stroke-linejoin="round" d="M148.41004500000003 144.25446000000002h4.09374" stroke-width="0.5"></path><path stroke="#120071" stroke-linecap="round" stroke-linejoin="round" d="M159.76159500000003 144.2355075h4.09374" stroke-width="0.5"></path><path stroke="#120071" stroke-linecap="round" stroke-linejoin="round" d="M156.13269 136.52184v4.09374" stroke-width="0.5"></path><path stroke="#120071" stroke-linecap="round" stroke-linejoin="round" d="M156.1516425 147.8743875v4.0927425" stroke-width="0.5"></path><path stroke="#120071" stroke-linecap="round" stroke-linejoin="round" d="m150.66539250000002 138.79614 2.8997325000000003 2.88078" stroke-width="0.5"></path><path stroke="#120071" stroke-linecap="round" stroke-linejoin="round" d="m158.7192075 146.8130475 2.8997325000000003 2.8797825" stroke-width="0.5"></path><path stroke="#120071" stroke-linecap="round" stroke-linejoin="round" d="m161.5999875 138.7771875 -2.8997325000000003 2.8997325000000003" stroke-width="0.5"></path><path stroke="#120071" stroke-linecap="round" stroke-linejoin="round" d="m153.5840775 146.8130475 -2.8997325000000003 2.8987350000000003" stroke-width="0.5"></path><path stroke="#120071" stroke-linecap="round" stroke-linejoin="round" d="M26.194350000000004 48.11541a3.5511000000000004 3.5511000000000004 0 0 1 -3.070305 -5.322660000000001L43.913940000000004 6.7640475a3.5580825000000003 3.5580825000000003 0 0 1 6.158565 0L70.86240000000001 42.79275a3.5501025000000004 3.5501025000000004 0 0 1 -3.070305 5.3256525l-41.597745 -0.0029925000000000004Z" stroke-width="0.5"></path><path stroke="#120071" stroke-linecap="round" stroke-linejoin="round" d="M76.566105 27.2886075a1.901235 1.901235 0 1 1 -3.7885050000000002 0.34014750000000005 1.901235 1.901235 0 0 1 3.7885050000000002 -0.34014750000000005v0Z" stroke-width="0.5"></path><path stroke="#120071" stroke-linecap="round" stroke-linejoin="round" d="M61.1497425 165.28974000000002v7.656810000000001" stroke-width="0.5"></path><path stroke="#120071" stroke-linecap="round" stroke-linejoin="round" d="M64.987125 169.118145h-7.674765000000001" stroke-width="0.5"></path><path stroke="#120071" stroke-linecap="round" stroke-linejoin="round" d="M105.97839 73.6424325a2.6084625000000004 2.6084625000000004 0 0 0 3.8094525000000004 -1.8762975000000002 2.6154450000000002 2.6154450000000002 0 0 0 4.8877500000000005 -1.5162 2.6084625000000004 2.6084625000000004 0 0 0 3.9032175000000002 -3.1830225 2.60148 2.60148 0 0 0 3.0453675000000002 -1.38453 2.631405 2.631405 0 0 0 -0.5625899999999999 -3.0314025000000004 2.5935 2.5935 0 0 0 2.5206825000000004 -2.6343975 2.6334000000000004 2.6334000000000004 0 0 0 -1.8383925 -2.4638250000000004 2.6383875000000003 2.6383875000000003 0 0 0 1.89525 -2.539635 2.5935 2.5935 0 0 0 -2.5017300000000002 -2.5575900000000003 2.6064675 2.6064675 0 0 0 0.6783000000000001 -2.88876 2.6104575000000003 2.6104575000000003 0 0 0 -2.4598350000000004 -1.65984 2.4738 2.4738 0 0 0 -0.6254325000000001 0.0947625 2.6104575000000003 2.6104575000000003 0 0 0 -3.8463600000000002 -3.25983 2.6094600000000003 2.6094600000000003 0 0 0 -4.85184 -1.596c-0.42294000000000004 -2.9136975 -4.869795 -2.9815275 -5.3256525 -0.0189525a2.6104575000000003 2.6104575000000003 0 0 0 -4.454835 -0.14064749999999998 2.6164425000000002 2.6164425000000002 0 0 0 -0.41496 1.6947525 2.6154450000000002 2.6154450000000002 0 0 0 -3.8852625 3.221925 2.6134500000000003 2.6134500000000003 0 0 0 -2.4638250000000004 4.434885 2.603475 2.603475 0 0 0 -0.6633375 5.097225000000001 2.60148 2.60148 0 0 0 0.6254325000000001 5.0982225 2.607465 2.607465 0 0 0 2.4448725000000002 4.434885 2.5935 2.5935 0 0 0 2.611455 3.6907500000000004" stroke-width="0.5"></path><path stroke="#120071" stroke-linecap="round" stroke-linejoin="round" d="m127.33686000000002 154.16562 -4.9466025 -5.8942275" stroke-width="0.5"></path><path stroke="#120071" stroke-linecap="round" stroke-linejoin="round" d="m95.043795 155.51124750000002 2.0279175 -7.35357" stroke-width="0.5"></path><path stroke="#120071" stroke-linecap="round" stroke-linejoin="round" d="M109.9773675 107.01579000000001c2.7102075 3.277785 5.723655000000001 4.6613175 8.963535 4.6234125" stroke-width="0.5"></path><path stroke="#120071" d="M45.675525 37.6127325a1.3167000000000002 1.3167000000000002 0 1 0 2.6334000000000004 0 1.3167000000000002 1.3167000000000002 0 1 0 -2.6334000000000004 0" stroke-width="0.5"></path><path stroke="#120071" stroke-linecap="round" d="M46.9732725 18.846764999999998V31.600800000000003" stroke-width="0.5"></path></g></g></svg>