<svg xmlns="http://www.w3.org/2000/svg" fill="none" viewBox="-0.25 -0.25 200 200" id="Remote-Team-2--Streamline-Bangalore.svg"><desc>Remote Team 2 Streamline Illustration: https://streamlinehq.com</desc><g id="remote-team-2--work-remote-team"><g id="bulb"><path id="vector" stroke="#120071" stroke-linecap="round" stroke-linejoin="round" d="M52.904407500000005 76.94705025c-0.1139145 -6.993572250000001 0.273714 -13.98644625 1.1600925000000002 -20.924557500000002 0.847875 -6.533625 0.7271775 -12.0468075 -3.4184325 -18.4707075 -2.78053125 -4.311893250000001 -6.8374635 -7.648431 -11.604915 -9.5442795 -4.7675512499999995 -1.8958485000000003 -10.0079175 -2.2564447500000004 -14.9902305 -1.0315147500000001 -4.98221325 1.22493 -9.45799575 3.9742395000000004 -12.802912500000001 7.86458925 -3.3449766 3.8903497500000004 -5.3923154250000005 8.727725999999999 -5.8565020500000005 13.83732 -0.69825 7.6139175 1.7546025 12.5555325 5.53411005 17.955000000000002 5.914576500000001 8.4334635 10.8701565 17.500339500000003 14.77497 27.03225" stroke-width="0.5"></path><path id="vector_2" stroke="#120071" stroke-linecap="round" stroke-linejoin="round" d="M55.40115 97.9355475c-0.21945 -0.8924632500000002 -0.4219425 -1.79021325 -0.6074775 -2.6932500000000004" stroke-width="0.5"></path><path id="vector_3" stroke="#120071" stroke-linecap="round" stroke-linejoin="round" d="M27.59484 105.0217875c-0.476805 0.385035 -0.8093715 0.919695 -0.94353525 1.5171975 -0.134064 0.5985 -0.061845000000000004 1.2239325 0.2048865 1.7755500000000002 0.26683125 0.5516175000000001 0.7124145 0.9965025000000001 1.264431 1.2628350000000002 0.5519167500000001 0.2663325 1.17774825 0.33715500000000004 1.7754502500000002 0.20249250000000002 -0.682689 0.18354 -1.2662265000000001 0.6274275 -1.62562575 1.2369 -0.359499 0.608475 -0.46633125000000003 1.3336575 -0.29755425 2.0209349999999997 0.16867725 0.68628 0.5994975 1.2797924999999999 1.2001920000000001 1.6528575 0.6006945 0.3720675 1.3235827500000001 0.4957575 2.0137530000000003 0.34214250000000007 -0.696255 0.17157 -1.2957525 0.6134625 -1.6665232500000002 1.226925 -0.37077075 0.61446 -0.48249075 1.3506150000000001 -0.31052175000000004 2.04687s0.6134625 1.2957525 1.22742375 1.6668225c0.6139612500000001 0.3700725 1.35011625 0.4817925 2.04637125 0.3102225l10.3031775 -2.5346475 0.399 1.629915c0.22034775000000004 0.8947575000000001 0.7871272500000001 1.6648275000000001 1.575651 2.1416325 0.78852375 0.476805 1.734054 0.6214425 2.6288115000000003 0.40099500000000005 0.8947575000000001 -0.22044750000000002 1.6652265000000002 -0.7870275000000001 2.1421312500000003 -1.5760500000000002 0.476805 -0.7880250000000001 0.620844 -1.7336550000000002 0.40049625000000005 -2.6284125l-0.399 -1.629915 7.2149175 -1.7745525 2.8718025000000003 -11.177985c-0.56648025 -0.28728 -1.21685025 -0.361095 -1.8334050000000002 -0.209475 0.69615525 -0.17157 1.295553 -0.6134625 1.6662240000000001 -1.226925 0.37067100000000003 -0.61446 0.48229125 -1.3506150000000001 0.31032225 -2.0464710000000004 -0.171969 -0.69615525 -0.6134625 -1.29545325 -1.227324 -1.66612425 -0.6138615 -0.37077075 -1.349817 -0.482391 -2.04597225 -0.310422l-8.985479999999999 2.2095622500000003" stroke-width="0.5"></path><path id="vector_4" stroke="#120071" stroke-linecap="round" stroke-linejoin="round" d="m29.896072500000002 109.77986250000001 27.885112499999998 -6.85482" stroke-width="0.5"></path><path id="vector_5" stroke="#120071" stroke-linecap="round" stroke-linejoin="round" d="M42.094500000000004 85.21423050000001c-3.9291525000000003 -17.4732075 -2.32617 -29.027250000000002 -1.3147050000000002 -32.52648 1.0543575 -3.648855 3.4124475 -3.6638175000000004 5.0004675 -2.5935 0.48448575000000005 0.376257 0.84817425 0.886179 1.0463775 1.466724 0.19810350000000002 0.580545 0.22194375000000002 1.2064762500000001 0.06852825 1.80038775 -0.15331575 0.5939115 -0.477204 1.13006775 -0.9316650000000001 1.542135 -0.454461 0.41206725000000005 -1.01954475 0.6820905 -1.62562575 0.77675325l-24.95346 6.126645000000001c-0.5808442500000001 0.197106 -1.20667575 0.21984900000000002 -1.800288 0.06543600000000001s-1.1289704999999999 -0.47919900000000004 -1.54014 -0.9343582500000001c-0.41106975000000007 -0.45525899999999997 -0.67999575 -1.0207417500000002 -0.7734615 -1.62702225 -0.09346575000000001 -0.60618075 -0.007381500000000001 -1.22642625 0.2475795 -1.7843280000000001 0.9127125 -1.6797900000000001 3.0084600000000004 -2.7600825 5.6348775 -0.0149625 2.6124525000000003 2.7291600000000003 9.809415 12.8468025 14.423850000000002 31.4062875" stroke-width="0.5"></path><path id="vector_6" stroke="#120071" stroke-linecap="round" stroke-linejoin="round" d="m58.319835000000005 108.36441 -27.132997500000002 6.6682875" stroke-width="0.5"></path><path id="vector_7" stroke="#120071" stroke-linecap="round" stroke-linejoin="round" d="m42.781777500000004 117.74889 6.7460925000000005 -1.661835" stroke-width="0.5"></path></g><g id="window"><path id="vector_8" stroke="#120071" stroke-linecap="round" stroke-linejoin="round" d="M89.513655 64.9753545v-36.569347500000006c0 -0.4315185 0.1713705 -0.8452815000000001 0.47650575000000006 -1.15041675 0.30513525 -0.30513525 0.7188982500000001 -0.47650575000000006 1.15041675 -0.47650575000000006h101.4527325c0.4319175 0 0.8448825 0.1713705 1.1501175000000001 0.47650575000000006 0.30523500000000003 0.30513525 0.476805 0.7188982500000001 0.476805 1.15041675v61.9676925c0 0.4315185 -0.17157 0.8452815000000001 -0.476805 1.15041675 -0.30523500000000003 0.30513525 -0.7182000000000001 0.47650575000000006 -1.1501175000000001 0.47650575000000006h-78.15213" stroke-width="0.5"></path><path id="vector_9" stroke="#120071" stroke-linecap="round" stroke-linejoin="round" d="M94.317615 92.003814h-2.3142" stroke-width="0.5"></path><path id="vector_10" fill="#6153bd" d="M153.36263250000002 48.57854925c0.04389 -0.1995 0.08778 -0.357105 0.12768000000000002 -0.476805 0.1107225 -0.06673275000000001 0.2264325 -0.12638325 0.34513499999999997 -0.1785525 -0.08778 -0.6470782500000001 -0.3241875 -1.2648300000000001 -0.692265 -1.8045772500000001 -0.36708 -0.53974725 -0.8548575 -0.9865275 -1.4254275 -1.305129 -0.5695725 -0.31850175 -1.2059775000000001 -0.50004675 -1.8583425 -0.5302709999999999 -0.6523650000000001 -0.03022425 -1.3027350000000002 0.09167025 -1.89924 0.35620725 -0.5226900000000001 0.4195485 -0.919695 0.9752557500000001 -1.1461275000000002 1.6059750000000002 -0.22743000000000002 0.6306195 -0.27531000000000005 1.3117125 -0.13965000000000002 1.9680675000000003 0.36907500000000004 -0.71690325 0.9316650000000001 -1.31600175 1.6239299999999999 -1.729665 0.4598475 -0.2575545 0.9725625 -0.40757850000000007 1.4992425 -0.43870050000000005 0.52668 -0.031122 1.05336 0.057456 1.54014 0.258951 0.48777750000000003 0.20159475000000002 0.9226875000000001 0.51101925 1.2738075 0.9049320000000001 0.3501225 0.39391275 0.6074775 0.86213925 0.7511175 1.3695675Z" stroke-width="0.5"></path><path id="vector_11" fill="#6153bd" d="M163.9441125 58.964419500000005c-0.45885000000000004 -2.27918775 -1.5391425 -4.38730425 -3.1201800000000004 -6.091732500000001 0.7032375 0.7873267500000001 1.486275 1.4993422500000002 2.3371425 2.124675 0.034912500000000006 0.023740500000000005 0.07581 0.03680775000000001 0.117705 0.037506000000000005 0.041895 0.00069825 0.08379 -0.0109725 0.1197 -0.03361575 0.034912500000000006 -0.022643250000000004 0.06384000000000001 -0.05516175 0.08079750000000001 -0.09366525 0.016957500000000004 -0.03840375 0.0229425 -0.08109675 0.015960000000000002 -0.12269250000000001 -0.2124675 -0.9577995000000001 -0.5526150000000001 -1.88298075 -1.00947 -2.7511050000000004 -0.8967525000000001 -2.0987400000000003 -2.08278 -4.06182 -3.5231700000000004 -5.8323825000000005 -2.4448725000000002 -2.7720525 -5.19498 -3.5341425 -7.48125 -3.2029725 1.155105 0.17925075000000001 2.2114575000000003 0.75540675 2.9865150000000003 1.62921675 0.776055 0.87390975 1.222935 1.9909102500000002 1.2648300000000001 3.1587832500000004 3.5042175 0.9426375 2.32617 7.08225 -1.0583475 7.071277500000001 -0.34014750000000005 -0.0097755 -0.6713175000000001 -0.10842825 -0.9605925000000001 -0.28608300000000003 -0.289275 -0.17765475000000003 -0.5276775 -0.42802725 -0.6902699999999999 -0.7263795 -0.855855 3.591 -1.0882725 6.960555 1.458345 9.631860000000001 0.5715675 -0.01965075 1.1441325 -0.01027425 1.7147025000000002 0.027930000000000003 -0.12568500000000002 -0.99341025 -0.40498500000000004 -1.9611847500000001 -0.827925 -2.86881 2.2772925 2.70921 2.50971 2.9925 2.5935 3.078285 0.2104725 0.03591 0.41994750000000003 0.07511175 0.6294225 0.117705 0.05187 -0.04528650000000001 0.0927675 -0.10164525 0.1197 -0.16478700000000002 0.027930000000000003 -0.06314175 0.039900000000000005 -0.13157025 0.037905 -0.200298 -0.015960000000000002 -1.4859757500000002 -0.289275 -2.95788675 -0.8059800000000001 -4.351095 1.3575975 0.8608425000000001 2.276295 2.4548475 3.8353875000000004 2.854845 -0.039900000000000005 -1.9912095 -0.6304200000000001 -3.93264375 -1.70373 -5.60994 3.4004775 3.3246675000000003 3.2718 3.32766 3.6069600000000004 3.1600800000000002 0.09775500000000001 -0.0516705 0.1765575 -0.13396425 0.2244375 -0.23431275000000001 0.0468825 -0.10044825 0.0608475 -0.21356475000000003 0.037905 -0.32229225Z" stroke-width="0.5"></path><path id="vector_12" stroke="#120071" stroke-linecap="round" stroke-linejoin="round" d="M153.02248500000002 53.8472445c-0.855855 3.591 -1.0872750000000002 6.960555 1.458345 9.631860000000001 0.5715675 -0.01965075 1.1441325 -0.01027425 1.7147025000000002 0.027930000000000003 -0.12568500000000002 -0.99341025 -0.40498500000000004 -1.9611847500000001 -0.827925 -2.86881 2.2772925 2.70921 2.50971 2.9925 2.5935 3.078285 0.2104725 0.03591 0.41994750000000003 0.07511175 0.6294225 0.117705 0.05187 -0.04528650000000001 0.0927675 -0.10164525 0.1197 -0.16478700000000002 0.027930000000000003 -0.06314175 0.039900000000000005 -0.13157025 0.037905 -0.200298 -0.015960000000000002 -1.4859757500000002 -0.289275 -2.95788675 -0.8059800000000001 -4.351095 1.3575975 0.8608425000000001 2.276295 2.4548475 3.8353875000000004 2.854845 -0.039900000000000005 -1.9912095 -0.6304200000000001 -3.93264375 -1.70373 -5.60994 3.4004775 3.3246675000000003 3.2718 3.32766 3.6069600000000004 3.1600800000000002 0.09875250000000001 -0.05187 0.177555 -0.13456275 0.2244375 -0.23541 0.0468825 -0.10084725 0.05985 -0.21436275000000002 0.0369075 -0.32319000000000003 -0.45885000000000004 -2.27918775 -1.5391425 -4.38730425 -3.1201800000000004 -6.091732500000001 0.7032375 0.7873267500000001 1.486275 1.4993422500000002 2.3371425 2.124675 0.034912500000000006 0.023740500000000005 0.07581 0.03680775000000001 0.117705 0.037506000000000005 0.041895 0.00069825 0.08379 -0.0109725 0.1197 -0.03361575 0.034912500000000006 -0.022643250000000004 0.06384000000000001 -0.05516175 0.08079750000000001 -0.09366525 0.016957500000000004 -0.03840375 0.0229425 -0.08109675 0.015960000000000002 -0.12269250000000001 -0.2124675 -0.9577995000000001 -0.5526150000000001 -1.88298075 -1.00947 -2.7511050000000004 -0.8967525000000001 -2.0987400000000003 -2.08278 -4.06182 -3.5231700000000004 -5.8323825000000005 -2.4448725000000002 -2.7720525 -5.19498 -3.5341425 -7.48125 -3.2029725" stroke-width="0.5"></path><path id="vector_13" stroke="#120071" stroke-linecap="round" stroke-linejoin="round" d="M147.9601725 44.6415165c-0.5226900000000001 0.41924925 -0.919695 0.9749565000000001 -1.147125 1.6057755 -0.2264325 0.63071925 -0.2743125 1.311912 -0.1386525 1.9682670000000002" stroke-width="0.5"></path><path id="vector_14" fill="#70a4ff" d="M114.44118 92.003415h66.3147975c-0.25137000000000004 -4.696230000000001 -4.7121900000000005 -16.1595 -11.27175 -22.326045000000004 -4.0897499999999996 -3.8513475000000006 -9.576 -6.393975 -15.008385 -6.198465000000001 -0.2463825 0.64667925 -0.6822900000000001 1.2039825000000002 -1.2508650000000001 1.599192 -0.5675775 0.3952095 -1.2418875000000003 0.6099712500000001 -1.9341525000000002 0.6162555000000001 -0.7271775 -0.053067 -1.4364000000000001 -0.25206825 -2.084775 -0.58523325 -0.6493725 -0.33316500000000004 -1.2239325 -0.7936110000000001 -1.6907625000000002 -1.35390675 -5.3735325 0.89775 -10.773000000000001 2.6703075000000003 -14.849782500000002 6.28425 -2.2633275000000004 2.1567945 -4.235385000000001 4.599672000000001 -5.867295 7.2667875 -1.689765 2.4512565 -3.178035 5.035978500000001 -4.44885 7.728630000000001 -0.24538500000000002 -2.93265 -0.5685749999999999 -6.105697500000001 -0.9067275000000001 -9.023385 0.009975000000000001 -0.057356250000000004 0.006982500000000001 -0.1163085 -0.0109725 -0.17186925000000003 -0.017955 -0.055460999999999996 -0.048877500000000004 -0.10573500000000001 -0.0907725 -0.14633325 -0.041895 -0.040698000000000005 -0.0927675 -0.07032374999999999 -0.149625 -0.08648325 -0.05586000000000001 -0.01625925 -0.11471250000000001 -0.018354000000000002 -0.17157 -0.006284250000000001l-13.815375 0.26832750000000005c-0.4788 1.9790400000000001 -0.82992 3.7905 -1.0882725 5.479267500000001 2.9476125000000004 3.4284075 5.731635000000001 6.99447 8.325135000000001 10.655295Z" stroke-width="0.5"></path><path id="vector_15" stroke="#120071" stroke-linecap="round" stroke-linejoin="round" d="M114.44118 92.003415h66.3147975c-0.25137000000000004 -4.696230000000001 -4.7121900000000005 -16.1595 -11.27175 -22.326045000000004 -4.0897499999999996 -3.8513475000000006 -9.576 -6.393975 -15.008385 -6.198465000000001 -0.2463825 0.64667925 -0.6822900000000001 1.2039825000000002 -1.2508650000000001 1.599192 -0.5675775 0.3952095 -1.2418875000000003 0.6099712500000001 -1.9341525000000002 0.6162555000000001 -0.7271775 -0.053067 -1.4364000000000001 -0.25206825 -2.084775 -0.58523325 -0.6493725 -0.33316500000000004 -1.2239325 -0.7936110000000001 -1.6907625000000002 -1.35390675 -5.3735325 0.89775 -10.773000000000001 2.6703075000000003 -14.849782500000002 6.28425 -2.2633275000000004 2.1567945 -4.235385000000001 4.599672000000001 -5.867295 7.2667875 -1.689765 2.4512565 -3.178035 5.035978500000001 -4.44885 7.728630000000001 -0.24538500000000002 -2.93265 -0.5685749999999999 -6.105697500000001 -0.9067275000000001 -9.023385 0.009975000000000001 -0.057356250000000004 0.006982500000000001 -0.1163085 -0.0109725 -0.17186925000000003 -0.017955 -0.055460999999999996 -0.048877500000000004 -0.10573500000000001 -0.0907725 -0.14633325 -0.041895 -0.040698000000000005 -0.0927675 -0.07032374999999999 -0.149625 -0.08648325 -0.05586000000000001 -0.01625925 -0.11471250000000001 -0.018354000000000002 -0.17157 -0.006284250000000001l-13.815375 0.26832750000000005c-0.4788 1.9790400000000001 -0.82992 3.7905 -1.0882725 5.479267500000001" stroke-width="0.5"></path><path id="vector_16" stroke="#120071" stroke-linecap="round" stroke-linejoin="round" d="m122.3543475 85.03298475 0.0389025 3.9032175000000002" stroke-width="0.5"></path><path id="vector_17" stroke="#120071" stroke-linecap="round" stroke-linejoin="round" d="M155.73169500000003 47.788529249999996c-0.019950000000000002 -0.7017412500000001 -0.18852750000000001 -1.39121325 -0.49376250000000005 -2.0235285000000003 -0.30523500000000003 -0.6322155 -0.740145 -1.19291025 -1.2768000000000002 -1.64537625 -0.5366550000000001 -0.45256575 -1.163085 -0.7866285000000001 -1.8373950000000001 -0.9805425 -0.6743100000000001 -0.193914 -1.382535 -0.24309075000000002 -2.0777925 -0.14453775000000002 -1.1102175 0.19620825000000003 -2.1436275 0.6976515000000001 -2.9845200000000003 1.4479710000000001s-1.45635 1.71998925 -1.7775450000000002 2.8003815c0.1197 -0.010773000000000001 0.24039750000000001 -0.007082250000000001 0.3600975 0.0109725 0.28129499999999996 -0.917301 0.8678250000000001 -1.7110117500000002 1.661835 -2.24946225 0.7940100000000001 -0.53835075 1.7486175 -0.7892220000000001 2.7042225 -0.7108185 0.9566025 0.07830375 1.8573450000000002 0.481194 2.5526025000000003 1.14163875 0.696255 0.6605445000000001 1.1461275000000002 1.5390427500000001 1.2738075 2.4899595000000003 0.5975025 -0.262542 1.266825 -0.31072125 1.89525 -0.13665750000000002Z" stroke-width="0.5"></path><path id="vector_18" stroke="#120071" stroke-linecap="round" stroke-linejoin="round" d="M146.7871125 48.0226425c-0.1386525 -0.233016 -0.33316500000000004 -0.42722925000000006 -0.56658 -0.5646847500000001 -0.23341500000000004 -0.13735575 -0.49775250000000004 -0.21356475000000003 -0.7690725 -0.22134525 -2.0259225 -0.009975000000000001 -3.1570875000000003 2.7281625 -2.37405 4.5485999999999995 0.217455 0.49196700000000004 0.600495 0.8923635 1.0822875 1.13206275 0.48079500000000003 0.23969925000000003 1.0314150000000002 0.30363900000000005 1.5551025 0.18064725 -0.22344000000000003 -1.7641785 0.1546125 -3.5520975000000004 1.0723125 -5.07528Z" stroke-width="0.5"></path><path id="vector_19" stroke="#120071" stroke-linecap="round" stroke-linejoin="round" d="M153.02248500000002 53.8472445c-0.855855 3.591 -1.0872750000000002 6.960555 1.458345 9.631860000000001 -0.2463825 0.64667925 -0.6822900000000001 1.2039825000000002 -1.2508650000000001 1.599192 -0.5675775 0.3952095 -1.2418875000000003 0.6099712500000001 -1.9341525000000002 0.6162555000000001 -0.7271775 -0.053067 -1.4364000000000001 -0.25206825 -2.084775 -0.58523325 -0.6493725 -0.33316500000000004 -1.2239325 -0.7936110000000001 -1.6907625000000002 -1.35390675 1.4922600000000001 -2.507715 2.2553475 -5.381612250000001 2.204475 -8.2992 -0.416955 0.27042225000000003 -0.9087225000000001 0.404187 -1.4054775000000002 0.38274075 -0.496755 -0.02144625 -0.9745575000000001 -0.197106 -1.366575 -0.5024407500000001 -2.5296600000000002 -1.8802875000000001 -1.043385 -7.608930000000001 1.3456275 -8.85381 0.4598475 -0.2575545 0.9725625 -0.40757850000000007 1.4992425 -0.43870050000000005 0.52668 -0.031122 1.05336 0.057456 1.54014 0.25905075 0.48777750000000003 0.20159475000000002 0.9226875000000001 0.5109195 1.2738075 0.9048322500000001 0.3501225 0.39391275 0.6074775 0.862239 0.7511175 1.3695675" stroke-width="0.5"></path><path id="vector_20" stroke="#120071" stroke-linecap="round" stroke-linejoin="round" d="M157.55113500000002 49.340340000000005c-0.165585 -0.36608250000000003 -0.40698 -0.6926640000000001 -0.7092225 -0.9578992500000001s-0.656355 -0.46303950000000005 -1.04139 -0.5800462500000001c-0.38403750000000003 -0.11710650000000002 -0.7890225000000001 -0.150822 -1.187025 -0.09885225 -0.399 0.05187 -0.7820400000000001 0.18822825 -1.1231849999999999 0.39989775 -0.468825 1.79619825 -0.6633375 3.6529447500000005 -0.576555 5.5071975 0.13665750000000002 0.35929950000000005 0.37705500000000003 0.67002075 0.6902699999999999 0.8928622500000001 0.313215 0.2228415 0.6852825000000001 0.34782825 1.06932 0.35900025 2.50971 0.007980000000000001 3.81045 -3.3705525 2.8777874999999997 -5.5221599999999995Z" stroke-width="0.5"></path><path id="vector_21" stroke="#120071" stroke-linecap="round" stroke-linejoin="round" d="M89.513655 36.60455925h104.7065775" stroke-width="0.5"></path><path id="vector_22" stroke="#120071" stroke-linecap="round" stroke-linejoin="round" d="M95.7829425 33.6327075c1.052163 0 1.905225 -0.853062 1.905225 -1.905225 0 -1.05226275 -0.853062 -1.905225 -1.905225 -1.905225 -1.05226275 0 -1.905225 0.85296225 -1.905225 1.905225 0 1.052163 0.85296225 1.905225 1.905225 1.905225Z" stroke-width="0.5"></path><path id="vector_23" stroke="#120071" stroke-linecap="round" stroke-linejoin="round" d="M101.786895 33.6327075c1.0523625 0 1.905225 -0.853062 1.905225 -1.905225 0 -1.05226275 -0.8528625000000001 -1.905225 -1.905225 -1.905225s-1.905225 0.85296225 -1.905225 1.905225c0 1.052163 0.8528625000000001 1.905225 1.905225 1.905225Z" stroke-width="0.5"></path><path id="vector_24" stroke="#120071" stroke-linecap="round" stroke-linejoin="round" d="M107.79184500000001 33.6327075c1.0523625 0 1.905225 -0.853062 1.905225 -1.905225 0 -1.05226275 -0.8528625000000001 -1.905225 -1.905225 -1.905225s-1.905225 0.85296225 -1.905225 1.905225c0 1.052163 0.8528625000000001 1.905225 1.905225 1.905225Z" stroke-width="0.5"></path><path id="vector_25" stroke="#120071" stroke-linecap="round" stroke-linejoin="round" d="M134.44704 81.64746975c-0.843885 2.89275 -2.008965 7.934115 -2.394 10.356045" stroke-width="0.5"></path><path id="vector_26" stroke="#120071" stroke-linecap="round" stroke-linejoin="round" d="M167.749575 81.16767225000001c0.9296700000000001 3.5497035000000006 1.5351525 7.17651375 1.809465 10.8358425" stroke-width="0.5"></path><g id="group"><path id="vector_27" stroke="#120071" stroke-linecap="round" stroke-linejoin="round" d="M120.95086500000001 75.59962725000001c-0.153615 -4.949595 -0.28029750000000003 -9.3316125 1.222935 -14.027842500000002 0.8209425 -2.567565 -2.44986 -3.29175 -3.89025 -0.8568525 -0.8049825 1.56936675 -1.48428 3.2004787500000003 -2.0299125000000005 4.877775 0 0 -1.5630825 -0.8189475 -5.305702500000001 -0.798 -9.0503175 0.045885 -7.0373625 4.3690500000000005 -0.9815400000000001 4.338127500000001 4.2782775 -0.021945 4.817925000000001 -0.9725625 4.9476 -1.5561 0.1446375 -0.6493725 -0.4099725 -0.9975 -1.171065 -1.18902 -0.9077250000000001 -0.202692 -1.8354000000000001 -0.29974875 -2.76507 -0.289275" stroke-width="0.5"></path><path id="vector_28" stroke="#120071" stroke-linecap="round" stroke-linejoin="round" d="M105.735 68.17044675000001c-0.9426375 0.04389 -2.3271675000000003 0.49875 -2.3271675000000003 1.5191925 0 0.7590975000000001 0.7152075 1.1521125 1.7127075000000003 1.3575975 1.95909 0.40398750000000005 9.093210000000001 0.5566050000000001 8.8927125 -1.5570975 -0.0887775 -0.2998485 -0.27830250000000006 -0.5600962500000001 -0.5356575 -0.7371525" stroke-width="0.5"></path><path id="vector_29" stroke="#120071" stroke-linecap="round" stroke-linejoin="round" d="M104.567925 70.90239975c-1.3735575 0.4778025 -1.4413875 2.308215 -0.04389 2.54163 2.48976 0.18643275 4.9924875 0.1051365 7.46529 -0.2423925 0.27531000000000005 -0.022443750000000002 0.5386500000000001 -0.12428850000000001 0.7581 -0.29316525 0.21945 -0.16887675000000002 0.385035 -0.39760350000000005 0.476805 -0.6584497500000001 0.0927675 -0.260946 0.10673250000000001 -0.54293925 0.041895 -0.8119649999999999 -0.06384000000000001 -0.26902575 -0.205485 -0.5136127500000001 -0.40598249999999997 -0.7042349999999999" stroke-width="0.5"></path><path id="vector_30" stroke="#120071" stroke-linecap="round" stroke-linejoin="round" d="M105.14148750000001 73.50467775000001c-1.8762975000000002 0.9286725000000001 -0.991515 2.3630775 0.5426400000000001 2.4049725 1.9790400000000001 -0.004788 3.9501000000000004 -0.264936 5.8623075 -0.7740600000000001 0.20049750000000002 -0.05256825 0.385035 -0.15471225 0.5356575 -0.29695575 0.15162 -0.14234325 0.2643375 -0.3201975 0.3281775 -0.517503 0.0648375 -0.19720574999999999 0.07880250000000001 -0.407379 0.0408975 -0.6114675 -0.037905 -0.20398875 -0.1266825 -0.3952095 -0.257355 -0.55610625" stroke-width="0.5"></path><path id="vector_31" stroke="#120071" stroke-linecap="round" stroke-linejoin="round" d="M115.60127250000001 68.74181475c-0.5835375 1.1937082500000002 -0.8169525 2.5282635000000004 -0.6743100000000001 3.8493525" stroke-width="0.5"></path></g></g><g id="bubble"><path id="vector_32" stroke="#120071" stroke-linecap="round" stroke-linejoin="round" d="M191.97585750000002 102.1509825h-59.420077500000005c-0.2942625 0 -0.58653 0.057855000000000004 -0.8588475 0.17057250000000002 -0.27231750000000005 0.11271750000000001 -0.5196975 0.27830250000000006 -0.728175 0.48678 -0.2084775 0.20748 -0.3740625 0.45486000000000004 -0.48678 0.7271775 -0.11271750000000001 0.27231750000000005 -0.17057250000000002 0.564585 -0.17057250000000002 0.8588475v14.99841l-7.1550675 3.3306525000000002 7.1550675 2.60148v12.8946825c0 0.29526 0.057855000000000004 0.58653 0.17057250000000002 0.8588475 0.11271750000000001 0.27231750000000005 0.27830250000000006 0.5196975 0.48678 0.728175 0.2084775 0.2084775 0.4558575 0.37306500000000004 0.728175 0.4857825 0.27231750000000005 0.11271750000000001 0.564585 0.17057250000000002 0.8588475 0.17057250000000002h59.420077500000005c0.2942625 0 0.58653 -0.057855000000000004 0.8588475 -0.17057250000000002 0.27231750000000005 -0.11271750000000001 0.5196975 -0.277305 0.728175 -0.4857825 0.2084775 -0.2084775 0.3740625 -0.4558575 0.48678 -0.728175 0.11271750000000001 -0.27231750000000005 0.17057250000000002 -0.5635875 0.17057250000000002 -0.8588475v-33.825224999999996c0 -0.2942625 -0.057855000000000004 -0.58653 -0.17057250000000002 -0.8588475 -0.11271750000000001 -0.27231750000000005 -0.27830250000000006 -0.5196975 -0.48678 -0.7271775 -0.2084775 -0.2084775 -0.4558575 -0.3740625 -0.728175 -0.48678 -0.27231750000000005 -0.11271750000000001 -0.564585 -0.17057250000000002 -0.8588475 -0.17057250000000002Z" stroke-width="0.5"></path><path id="vector_33" stroke="#120071" stroke-linecap="round" stroke-linejoin="round" d="M139.71982500000001 113.69106000000001h45.5408625" stroke-width="0.5"></path><path id="vector_34" stroke="#120071" stroke-linecap="round" stroke-linejoin="round" d="M185.26068750000002 119.163345H139.71982500000001" stroke-width="0.5"></path><path id="vector_35" stroke="#120071" stroke-linecap="round" stroke-linejoin="round" d="M139.71982500000001 124.633635h45.5408625" stroke-width="0.5"></path><path id="vector_36" stroke="#120071" stroke-linecap="round" stroke-linejoin="round" d="M185.26068750000002 130.10292750000002H139.71982500000001" stroke-width="0.5"></path></g><g id="details"><g id="group_2"><path id="vector_37" stroke="#120071" stroke-linecap="round" stroke-linejoin="round" d="M123.14436750000002 150.101805v4.3750350000000005" stroke-width="0.5"></path><path id="vector_38" stroke="#120071" stroke-linecap="round" stroke-linejoin="round" d="M123.14436750000002 158.9805525v4.3750350000000005" stroke-width="0.5"></path><path id="vector_39" stroke="#120071" stroke-linecap="round" stroke-linejoin="round" d="m117.40575000000001 160.04289 3.7895025 -2.188515" stroke-width="0.5"></path><path id="vector_40" stroke="#120071" stroke-linecap="round" stroke-linejoin="round" d="m125.09448 155.6030175 3.7895025 -2.1875175000000002" stroke-width="0.5"></path><path id="vector_41" stroke="#120071" stroke-linecap="round" stroke-linejoin="round" d="m128.8839825 160.04289 -3.7895025 -2.188515" stroke-width="0.5"></path><path id="vector_42" stroke="#120071" stroke-linecap="round" stroke-linejoin="round" d="M121.1952525 155.6030175 117.40575000000001 153.4155" stroke-width="0.5"></path></g><path id="vector_43" stroke="#120071" stroke-linecap="round" stroke-linejoin="round" d="M183.56294250000002 147.33075v6.5475900000000005" stroke-width="0.5"></path><path id="vector_44" stroke="#120071" stroke-linecap="round" stroke-linejoin="round" d="M186.83673750000003 150.604545h-6.5475900000000005" stroke-width="0.5"></path><path id="vector_45" stroke="#120071" stroke-linecap="round" stroke-linejoin="round" d="M74.05839 22.049737500000003v6.549585" stroke-width="0.5"></path><path id="vector_46" stroke="#120071" stroke-linecap="round" stroke-linejoin="round" d="M77.3331825 25.324729500000004h-6.549585" stroke-width="0.5"></path><path id="vector_47" stroke="#120071" stroke-linecap="round" stroke-linejoin="round" d="M58.38168 60.58406025000001c1.32657525 0 2.40198 -1.0754047500000001 2.40198 -2.40198 0 -1.32657525 -1.0754047500000001 -2.40198 -2.40198 -2.40198 -1.32657525 0 -2.40198 1.0754047500000001 -2.40198 2.40198 0 1.32657525 1.0754047500000001 2.40198 2.40198 2.40198Z" stroke-width="0.5"></path></g><g id="person"><path id="vector_48" fill="#6153bd" d="M101.8537275 165.76255500000002c-7.2943185 0.33516 -14.5784625 0.8448825 -21.8522325 1.5291675l-0.7770525 9.91515c3.192 0 26.180385 -0.0468825 30.7339725 0 -1.2768000000000002 -4.6473525 -4.14561 -8.6972025 -8.1046875 -11.444317500000002Z" stroke-width="0.5"></path><path id="vector_49" stroke="#120071" stroke-linecap="round" stroke-linejoin="round" d="M101.8537275 165.76255500000002c-7.2943185 0.33516 -14.5784625 0.8448825 -21.8522325 1.5291675l-0.7770525 9.91515c3.192 0 26.180385 -0.0468825 30.7339725 0 -1.2768000000000002 -4.6473525 -4.14561 -8.6972025 -8.1046875 -11.444317500000002Z" stroke-width="0.5"></path><path id="vector_50" fill="#6153bd" d="M44.259075 164.505705c-4.566555 2.6543475 -8.14758 8.369025 -9.3595425 12.7011675 4.5416175 -0.0468825 27.54297 0 30.7339725 0l-0.7730625000000001 -9.8562975c-6.9156675000000005 -0.5556075 -13.794028500000001 -1.5052275 -20.6013675 -2.8448700000000002Z" stroke-width="0.5"></path><path id="vector_51" stroke="#120071" stroke-linecap="round" stroke-linejoin="round" d="M44.259075 164.505705c-4.566555 2.6543475 -8.14758 8.369025 -9.3595425 12.7011675 4.5416175 -0.0468825 27.54297 0 30.7339725 0l-0.7730625000000001 -9.8562975c-6.9156675000000005 -0.5556075 -13.794028500000001 -1.5052275 -20.6013675 -2.8448700000000002Z" stroke-width="0.5"></path><path id="vector_52" fill="#70a4ff" d="M70.27088250000001 96.69256275000001c-2.9851185 -0.35620725 -5.940312 -0.9299692500000001 -8.841840000000001 -1.7166975000000002 -4.796977500000001 23.41541475 -13.167 45.96390225 -18.7200825 69.21762225 7.54339425 1.55211 15.177660750000001 2.62542 22.856715 3.2129475000000003 2.8378875000000003 -13.717620000000002 4.752090000000001 -27.421275 10.4448225 -40.19925 1.69575 13.5111375 3.1022250000000002 30.2152725 3.0752925 40.16932500000001 7.722645 -0.740145 15.45696075 -1.2857775 23.2028475 -1.6359 -0.3182025 -2.8309050000000004 -8.2523175 -55.07496750000001 -10.573500000000001 -70.05153225 -8.314162500000002 2.3830275 -14.6921775 1.9820325000000003 -21.444255000000002 1.003485Z" stroke-width="0.5"></path><path id="vector_53" stroke="#120071" stroke-linecap="round" stroke-linejoin="round" d="M70.27088250000001 96.69256275000001c-2.9851185 -0.35620725 -5.940312 -0.9299692500000001 -8.841840000000001 -1.7166975000000002 -4.796977500000001 23.41541475 -13.167 45.96390225 -18.7200825 69.21762225 7.54339425 1.55211 15.177660750000001 2.62542 22.856715 3.2129475000000003 2.8378875000000003 -13.717620000000002 4.752090000000001 -27.421275 10.4448225 -40.19925 1.69575 13.5111375 3.1022250000000002 30.2152725 3.0752925 40.16932500000001 7.722645 -0.740145 15.45696075 -1.2857775 23.2028475 -1.6359 -0.3182025 -2.8309050000000004 -8.2523175 -55.07496750000001 -10.573500000000001 -70.05153225 -8.314162500000002 2.3830275 -14.6921775 1.9820325000000003 -21.444255000000002 1.003485Z" stroke-width="0.5"></path><path id="vector_54" stroke="#120071" stroke-linecap="round" stroke-linejoin="round" d="M30.8616525 92.28141825c-1.36368225 0.45336375000000007 -2.759883 0.8024887500000001 -4.1765325 1.0443825 -0.27800325000000004 0.031720500000000006 -0.5497222500000001 0.10503675000000001 -0.8059800000000001 0.217455 -0.74214 0.38703000000000004 -1.0074750000000001 1.44837 -0.35112 1.89525 -0.8089725000000001 0.32219250000000005 -1.6199400000000002 0.6384000000000001 -2.423925 0.9675750000000001 -0.8628375 0.3561075 -1.8493650000000001 0.89775 -1.905225 1.8334050000000002 0.37905 0.5536125000000001 1.2159525000000002 0.4239375 1.8563475 0.23341500000000004 5.985 -1.7805375 5.9191650000000005 -1.9042275000000002 0.17556 0.3481275 -0.89775 0.35112 -1.9361475000000001 0.8907675 -1.995 1.8516592500000002 0.6613425 0.724185 1.8294150000000002 0.5396475000000001 2.7720525 0.2663325 1.41974175 -0.41097 2.81624175 -0.891765 4.189500000000001 -1.44268425l-3.9530925000000003 2.3783392500000002c-0.5985 0.35910000000000003 -1.2758025 0.85785 -1.24089 1.5561 1.669815 0.919695 3.7775325 -0.1386525 7.3425975 -1.4234325 -1.2102667500000002 0.7820400000000001 -2.1894127500000002 1.8743025000000002 -2.8358925 3.1630725 -0.29127 0.44787750000000004 0.013965000000000002 0.89775 0.798 0.5915175 2.69055675 -1.0503675 5.34789675 -2.180535 7.9720200000000006 -3.3915 -2.615844 -2.8611292500000003 -4.4780767500000005 -6.3283395 -5.41842 -10.08901425Z" stroke-width="0.5"></path><path id="vector_55" stroke="#120071" stroke-linecap="round" stroke-linejoin="round" d="M124.470045 104.81131500000001c-0.6783000000000001 -0.5635875 -1.3695675 -1.1152050000000002 -2.05485 -1.6767975000000002 0.16159500000000002 -0.093765 0.29925 -0.2244375 0.39999750000000006 -0.3820425 0.10074750000000002 -0.1566075 0.1625925 -0.33615750000000005 0.1805475 -0.5226900000000001 0.017955 -0.185535 -0.009975000000000001 -0.37306500000000004 -0.07880250000000001 -0.5466300000000001 -0.06982500000000001 -0.173565 -0.17955000000000002 -0.3281775 -0.321195 -0.45087000000000005 -0.6663300000000001 -0.58653 -2.1865200000000002 -0.9765525 -5.153085000000001 -3.2556405 -1.179045 2.542428 -5.19897 6.115473 -7.8632925 8.0795505 2.308215 2.1137025000000005 4.6852575000000005 4.152592500000001 7.13013 6.1156725000000005 0.25935 0.2084775 0.6802950000000001 0.399 0.8787975 0.133665 0.0389025 -0.0708225 0.06384000000000001 -0.1486275 0.0728175 -0.22842750000000003 0.0089775 -0.08079750000000001 0.0019950000000000002 -0.16159500000000002 -0.0209475 -0.2394 -0.22842750000000003 -1.4234325 -0.835905 -2.7600825 -1.7585925 -3.8683050000000003l2.707215 2.05884c1.1361525000000001 0.86583 2.4708075 1.7825325 3.8732925000000002 1.49625 0.23341500000000004 -0.656355 -0.25536000000000003 -1.3346550000000001 -0.7172025 -1.8583425l-3.0603300000000004 -3.4523475c1.147125 0.9346575000000001 2.3371425 1.8124575 3.569055 2.6324025 0.815955 0.5446350000000001 1.8703125 1.0703175 2.7231750000000003 0.576555 0.2344125 -0.9346575000000001 -0.5985 -1.7615850000000002 -1.3436325 -2.3630775 -4.807950000000001 -3.8673075 -4.90371 -3.7905 0.27331500000000003 -0.27331500000000003 0.55461 0.37605750000000004 1.3137075 0.75012 1.8423825 0.33615750000000005 0.2144625 -0.8957550000000001 -0.5625899999999999 -1.7157 -1.2787950000000001 -2.3112075Z" stroke-width="0.5"></path><path id="vector_56" stroke="#120071" stroke-linecap="round" stroke-linejoin="round" d="M117.31597500000001 98.2328025c1.5052275 1.825425 3.2159400000000002 3.4703025000000003 5.099220000000001 4.901715" stroke-width="0.5"></path><path id="vector_57" stroke="#120071" stroke-linecap="round" stroke-linejoin="round" d="M25.52802 95.4417975c2.7341475 -1.1900175000000002 5.097225000000001 -2.5166925000000004 5.4473475 -2.715195" stroke-width="0.5"></path><path id="vector_58" fill="#6153bd" d="M78.33168 42.84651525c-1.0240335 0.5740612500000001 -1.969464 1.2781965000000002 -2.81295 2.0947500000000003 1.08777375 -0.9311662500000001 1.84667175 -2.18781675 2.164575 -3.5840175000000003 -1.7630812500000002 0.7475265 -3.29574 1.950312 -4.44087 3.4852650000000005l0.955605 -2.0099625000000003c0.1546125 -0.325185 0.27830250000000006 -0.77805 -0.015960000000000002 -0.9845325 -0.2942625 -0.2064825 -0.6354075 0.027930000000000003 -0.8787975 0.2523675 -0.919695 0.8475757500000001 -1.644678 1.8844770000000002 -2.124675 3.0393825000000003 -0.016359000000000002 -0.3712695 0.019850250000000003 -0.74303775 0.10773 -1.1042325 0.09975 -0.9206925000000001 -0.5985 -1.3805399999999999 -1.3965 -0.5985 -0.6082755000000001 0.6875767500000001 -1.04139 1.5119107500000002 -1.26253575 2.40287775 -0.221046 0.8909670000000001 -0.22353975 1.822233 -0.00728175 2.71429725 0.450471 1.77864225 1.18902 3.4714995 2.1865200000000002 5.01144 0.592914 1.0922625000000001 1.2622365000000002 2.1412335 2.00298 3.1391325 0.8584485000000001 0.01845375 1.71560025 -0.07341600000000001 2.5506075 -0.27331500000000003 0.22762949999999998 -0.02763075 0.43969800000000003 -0.1294755 0.60358725 -0.28977375 0.16388925000000001 -0.16029825000000003 0.27042225000000003 -0.3700725 0.30314025 -0.59700375 0.2483775 -0.8471767500000001 0.41904975 -1.7153010000000002 0.5097225000000001 -2.5935 -0.53136825 -0.0034912500000000004 -1.04807325 -0.17486175 -1.47620025 -0.48967275000000005 -0.42812700000000004 -0.31471125 -0.7459305 -0.75680325 -0.9078247500000001 -1.26293475 -0.0484785 -0.30114525000000003 -0.008478750000000002 -0.6098715000000001 0.11521125000000002 -0.8886727500000001 0.12378975 -0.27880125000000006 0.3257835 -0.5157075000000001 0.58164225 -0.6817912500000001 0.25585875 -0.16608375000000003 0.5544105 -0.25426275000000004 0.859446 -0.25386375 0.3050355 0.00039900000000000005 0.603288 0.08947575 0.8586480000000001 0.25625775 -0.008578500000000001 -0.8487727500000001 0.06862800000000001 -1.6963485 0.23042250000000003 -2.5296600000000002 1.00079175 -0.9894202500000001 1.820238 -2.14671975 2.4209325 -3.41943 0.4778025 -0.9885225000000001 -0.249375 -1.3236825 -1.127175 -0.8349075Z" stroke-width="0.5"></path><path id="vector_59" stroke="#120071" stroke-linecap="round" stroke-linejoin="round" d="M78.33168 42.84651525c-1.0240335 0.5740612500000001 -1.969464 1.2781965000000002 -2.81295 2.0947500000000003 1.08777375 -0.9311662500000001 1.84667175 -2.18781675 2.164575 -3.5840175000000003 -1.7630812500000002 0.7475265 -3.29574 1.950312 -4.44087 3.4852650000000005l0.955605 -2.0099625000000003c0.1546125 -0.325185 0.27830250000000006 -0.77805 -0.015960000000000002 -0.9845325 -0.2942625 -0.2064825 -0.6354075 0.027930000000000003 -0.8787975 0.2523675 -0.919695 0.8475757500000001 -1.644678 1.8844770000000002 -2.124675 3.0393825000000003 -0.016359000000000002 -0.3712695 0.019850250000000003 -0.74303775 0.10773 -1.1042325 0.09975 -0.9206925000000001 -0.5985 -1.3805399999999999 -1.3965 -0.5985 -0.6082755000000001 0.6875767500000001 -1.04139 1.5119107500000002 -1.26253575 2.40287775 -0.221046 0.8909670000000001 -0.22353975 1.822233 -0.00728175 2.71429725 0.450471 1.77864225 1.18902 3.4714995 2.1865200000000002 5.01144 0.592914 1.0922625000000001 1.2622365000000002 2.1412335 2.00298 3.1391325 0.8584485000000001 0.01845375 1.71560025 -0.07341600000000001 2.5506075 -0.27331500000000003 0.22762949999999998 -0.02763075 0.43969800000000003 -0.1294755 0.60358725 -0.28977375 0.16388925000000001 -0.16029825000000003 0.27042225000000003 -0.3700725 0.30314025 -0.59700375 0.2483775 -0.8471767500000001 0.41904975 -1.7153010000000002 0.5097225000000001 -2.5935 -0.53136825 -0.0034912500000000004 -1.04807325 -0.17486175 -1.47620025 -0.48967275000000005 -0.42812700000000004 -0.31471125 -0.7459305 -0.75680325 -0.9078247500000001 -1.26293475 -0.0484785 -0.30114525000000003 -0.008478750000000002 -0.6098715000000001 0.11521125000000002 -0.8886727500000001 0.12378975 -0.27880125000000006 0.3257835 -0.5157075000000001 0.58164225 -0.6817912500000001 0.25585875 -0.16608375000000003 0.5544105 -0.25426275000000004 0.859446 -0.25386375 0.3050355 0.00039900000000000005 0.603288 0.08947575 0.8586480000000001 0.25625775 -0.008578500000000001 -0.8487727500000001 0.06862800000000001 -1.6963485 0.23042250000000003 -2.5296600000000002 1.00079175 -0.9894202500000001 1.820238 -2.14671975 2.4209325 -3.41943 0.4778025 -0.9885225000000001 -0.249375 -1.3236825 -1.127175 -0.8349075Z" stroke-width="0.5"></path><path id="vector_60" stroke="#120071" stroke-linecap="round" stroke-linejoin="round" d="M81.09675 53.639565000000005c-0.077406 -1.42273425 -0.40917450000000005 -2.82003225 -0.979545 -4.125660000000001 -0.49875 -1.2648300000000001 -1.1341575000000002 -2.7421275 -1.753605 -3.9600750000000002 -0.395409 0.5520165 -0.8369025 1.0695195000000002 -1.3196925 1.5471225 -0.16388925000000001 0.8331120000000001 -0.24309075000000002 1.6805880000000002 -0.2364075 2.5296600000000002 -0.25526025 -0.16748025 -0.5538120000000001 -0.25705574999999997 -0.859047 -0.2579535 -0.30533475 -0.00089775 -0.6042855 0.086982 -0.860643 0.25286625 -0.25625775 0.165984 -0.45875025 0.4027905 -0.5829390000000001 0.6816915 -0.12418875 0.27900075 -0.16458750000000003 0.5879265 -0.1163085 0.8894707500000001 0.16189425000000002 0.5061315 0.479598 0.94812375 0.9078247500000001 1.2628350000000002 0.42812700000000004 0.314811 0.9448320000000001 0.48618150000000004 1.47620025 0.4897725 -0.09067275 0.8781990000000001 -0.26134500000000005 1.7462235 -0.5097225000000001 2.5935 -0.032718000000000004 0.2268315 -0.139251 0.43660575 -0.30314025 0.5969040000000001 -0.16388925000000001 0.16029825000000003 -0.37605750000000004 0.262143 -0.60358725 0.28987350000000006 -0.711417 0.17326575 -1.44039 0.26403825000000003 -2.172555 0.2703225 0.0684285 1.04129025 0.08039850000000001 2.085573 0.03591 3.1281600000000003 2.04936375 -0.44548350000000003 4.171245750000001 -0.43800225000000004 6.2174175 0.021945 -0.653961 -0.40917450000000005 -1.195404 -0.975156 -1.57495275 -1.6467727500000002 -0.3796485 -0.671517 -0.585333 -1.42732275 -0.59859975 -2.19858975 2.4368925000000004 0.2124675 3.8573325 -0.11471250000000001 3.8333925 -2.3650725Z" stroke-width="0.5"></path><path id="vector_61" stroke="#120071" stroke-linecap="round" stroke-linejoin="round" d="M92.9271 67.86072300000001c-2.6949457500000005 -2.5756447500000004 -5.73971475 -4.7584740000000005 -9.044332500000001 -6.483750000000001 -3.3316500000000002 -1.7329567500000003 -7.1582595 -2.26622025 -10.83684 -1.510215 -5.7406125 1.4034825000000002 -9.6468225 6.512677500000001 -13.672732500000002 10.839832500000002 -6.9176625 7.4383575 -19.536037500000003 17.601885000000003 -28.809795000000005 20.130547500000002 0.9542085 5.28325875 3.71478975 10.0709595 7.8094275 13.543257 4.207455 -1.49625 19.1121 -9.2589945 23.665687500000004 -15.895362 -0.45515925 2.07729375 -1.0212405 4.12875225 -1.69575 6.1455975 3.23758575 0.9925125 6.5601585 1.6826827500000001 9.925125 2.0618325000000004 7.016415 1.01745 13.628842500000001 1.410465 22.43577 -1.29675 -0.409773 -2.605869 -1.1056290000000002 -5.1585712500000005 -2.0748 -7.6119225 5.679765000000001 6.5455950000000005 11.465265 12.995629500000001 17.3565 19.351699500000002 2.4937500000000004 -1.4872725000000002 9.449317500000001 -7.21791 9.775500000000001 -10.225572000000001 -6.959557500000001 -10.73679075 -15.309630000000002 -20.504709750000004 -24.83376 -29.049195Z" stroke-width="0.5"></path><path id="vector_62" stroke="#120071" stroke-linecap="round" stroke-linejoin="round" d="M63.706335 76.44849975000001c-0.19241775 4.05433875 -0.75061875 8.082942 -1.66782 12.036832500000001" stroke-width="0.5"></path><path id="vector_63" stroke="#120071" stroke-linecap="round" stroke-linejoin="round" d="M86.30270250000001 78.3227025c1.64996475 3.05564175 3.09614025 6.2170185 4.32915 9.4632825" stroke-width="0.5"></path><path id="vector_64" stroke="#120071" stroke-linecap="round" stroke-linejoin="round" d="M76.0095 127.2081825c-0.5935125 -4.68825 -1.2468750000000002 -9.1919625 -1.8633300000000002 -12.678225000000001" stroke-width="0.5"></path></g></g></svg>