<svg xmlns="http://www.w3.org/2000/svg" fill="none" viewBox="-0.25 -0.25 200 200" id="Support-2--Streamline-Bangalore.svg"><desc>Support 2 Streamline Illustration: https://streamlinehq.com</desc><g id="support-2--health-wellness-med-support"><g id="legs"><path id="Subtract" stroke="#120071" stroke-linecap="round" stroke-linejoin="round" d="M43.4181825 124.8860025c5.4313875000000005 -0.0428925 10.6463175 0.35511 15.861247500000001 0.7531125000000001 2.9915025 0.22842750000000003 5.9820075 0.45685500000000007 9.01341 0.60249 -1.2069750000000001 -4.56855 1.2159525000000002 -9.341587500000001 6.362055000000001 -11.757532500000002a27.704565000000002 27.704565000000002 0 0 0 -7.678755000000001 -2.8797825 1.9321575000000002 1.9321575000000002 0 0 0 -1.3506150000000001 0.60648c-2.6693100000000003 3.3226725 -7.4463375 5.2338825 -11.888205 6.7959675" stroke-width="0.5"></path><path id="vector" stroke="#120071" stroke-linecap="round" stroke-linejoin="round" d="M38.6082375 111.6810975c-8.87775 0.361095 -20.15748 -8.55855 -23.44125 -5.2867500000000005 -1.0723125 1.0703175 3.21993 6.9136725000000006 9.540090000000001 13.0064025s12.295185000000002 10.1455725 13.346550000000002 9.055305c1.94712 -1.5551025 6.0039525000000005 -5.260815 8.3391 -7.41342l-7.784490000000001 -9.3615375Z" stroke-width="0.5"></path><path id="Subtract_2" fill="#6153bd" fill-rule="evenodd" d="M87.0907275 70.45242750000001a8.2563075 8.2563075 0 0 0 -11.566012500000001 4.359075000000001c-0.9526125 2.5037249999999998 -2.0159475000000002 5.492235000000001 -3.1201800000000004 8.6832375 2.16657 -0.8728125 4.4289000000000005 -1.5162 6.8059425000000005 -1.8284175 7.754565 -1.0194450000000002 15.514117500000001 1.6448775000000002 22.788885 4.4179275 2.62143 0.9975 7.32165 2.6044725000000004 12.410895 4.34511a1392.33045 1392.33045 0 0 1 9.9121575 3.4174350000000002l1.40448 -2.58951c-2.88078 -1.4763000000000002 -11.1011775 -5.940112500000001 -19.321575000000003 -10.403925000000001 -8.218402500000002 -4.4638124999999995 -16.435807500000003 -8.925630000000002 -19.3145925 -10.4009325Zm-17.4871725 46.972275c-1.5830325 -0.6214425 -6.3770175 -2.9196825000000004 -7.1530725 -4.6712925 7.252822500000001 -5.208945000000001 14.96649 -10.6802325 19.126065 -13.443307500000001 1.147125 0.3920175 2.388015 0.911715 3.7057125 1.5191925 -1.25685 4.0109475 -2.6104575000000003 7.877257500000001 -4.243365 11.8692525 -0.9137100000000001 0.20748 -1.7885175 0.39600750000000007 -2.61744 0.5625899999999999 -3.5421225000000005 0.7092225 -6.28425 2.3411325 -8.067779999999999 4.44087a21.4432575 21.4432575 0 0 1 -0.75012 -0.277305Z" clip-rule="evenodd" stroke-width="0.5"></path><path id="Subtract_3" fill="#6153bd" fill-rule="evenodd" d="M67.9896 123.7428675c-0.027930000000000003 1.5052275 0.32219250000000005 3.0393825000000003 1.083285 4.5087 -2.7291600000000003 0.2443875 -6.174525000000001 0.3042375 -9.908167500000001 0.1266825 -8.765032500000002 -0.4159575 -15.818355000000002 -1.9790400000000001 -15.746535 -3.49125 0.07182 -1.51221 7.23786 -2.40198 16.005885 -1.9860225000000002 3.1630725 0.149625 6.102705 0.4498725 8.5655325 0.84189Z" clip-rule="evenodd" stroke-width="0.5"></path><path id="Subtract_4" stroke="#120071" stroke-linecap="round" stroke-linejoin="round" d="M67.9896 123.7428675c-0.027930000000000003 1.5052275 0.32219250000000005 3.0393825000000003 1.083285 4.5087 -2.7291600000000003 0.2443875 -6.174525000000001 0.3042375 -9.908167500000001 0.1266825 -8.765032500000002 -0.4159575 -15.818355000000002 -1.9790400000000001 -15.746535 -3.49125 0.07182 -1.51221 7.23786 -2.40198 16.005885 -1.9860225000000002 3.1630725 0.149625 6.102705 0.4498725 8.5655325 0.84189Z" stroke-width="0.5"></path><path id="vector_2" stroke="#120071" stroke-linecap="round" stroke-linejoin="round" d="M124.3832625 93.8677425c-8.0588025 -2.826915 -18.054750000000002 -6.1356225 -22.383900000000004 -7.7834925 -7.2747675 -2.77305 -15.03432 -5.4373724999999995 -22.788885 -4.418925 -8.2203975 1.0822875 -15.044295000000002 6.10869 -21.4253025 10.949557500000001l-21.482160000000004 16.29117 11.815387500000002 14.2213575c7.2109275 -5.268795 26.018790000000003 -18.8756925 33.458145 -23.817307500000002 4.794982500000001 1.637895 11.229855 5.5071975 18.020834999999998 8.72214" stroke-width="0.5"></path></g><g id="hand"><path id="vector_3" stroke="#120071" stroke-linecap="round" stroke-linejoin="round" d="M150.42300000000003 84.94311c-4.347105 4.66431 -13.10715 13.647795 -17.788417499999998 18.403875 4.526655000000001 0.26932500000000004 8.379000000000001 1.2768000000000002 11.180977500000001 3.2368875000000004 2.6683125 1.8653250000000001 14.494672500000002 11.7754875 22.018815000000004 21.30261a197.5239525 197.5239525 0 0 1 15.491175 22.39188 159.59601 159.59601 0 0 0 12.0268575 -16.9575c6.734122500000001 -25.174905000000003 -15.315615 -47.0869875 -42.9294075 -48.37775250000001Z" stroke-width="0.5"></path><path id="vector_4" stroke="#120071" stroke-linecap="round" stroke-linejoin="round" d="M160.531665 105.95844000000001a6.55956 6.55956 0 1 0 -9.276750000000002 -9.274755 6.55956 6.55956 0 0 0 9.276750000000002 9.274755Z" stroke-width="0.5"></path><path id="vector_5" stroke="#120071" stroke-linecap="round" stroke-linejoin="round" d="m152.8479225 98.27569500000001 6.091732500000001 6.0907350000000005" stroke-width="0.5"></path><path id="vector_6" stroke="#120071" stroke-linecap="round" stroke-linejoin="round" d="m152.8479225 104.36643000000001 6.091732500000001 -6.0907350000000005" stroke-width="0.5"></path><path id="vector_7" stroke="#120071" stroke-linecap="round" stroke-linejoin="round" d="M104.98887 106.73948250000001c-10.088715 2.3191875000000004 -19.8153375 5.1680475 -26.567415 6.521655000000001 -8.867775000000002 1.7755500000000002 -12.726105 9.3366 -9.0483225 15.5320725 -24.097605 -0.07980000000000001 -49.64358 -0.16159500000000002 -52.494435 -0.16159500000000002 -5.5331325 0 -11.8911975 3.4094550000000003 -11.8911975 8.034862500000001s4.51668 7.787482500000001 10.0178925 8.373015c-6.194475000000001 -0.1286775 -9.801435000000001 6.5146725 -5.7855 11.236837500000002 2.81295 3.3107025 9.61191 4.618425 13.3495425 4.642365 -0.3501225 4.33314 2.539635 8.419897500000001 6.2273925000000006 10.723125000000001 3.6877575000000005 2.3032275 8.07975 3.1570875000000003 12.360022500000001 3.89025 -1.4054775000000002 4.280272500000001 1.09725 11.39145 12.82386 14.93058 12.369000000000002 3.7306500000000002 62.964195000000004 11.333595 102.39038250000002 -14.407890000000002 9.697695 -6.331132500000001 17.797394999999998 -15.197910000000002 24.95745 -25.7803875a195.18481500000001 195.18481500000001 0 0 0 -15.495165000000002 -22.38789c-8.92962 -11.306662500000002 -21.6686925 -21.058222500000003 -21.9958725 -21.28665 -2.802975 -1.9560975000000003 -6.564547500000001 -2.94861 -10.913647500000002 -3.26382" stroke-width="0.5"></path><path id="vector_8" stroke="#120071" stroke-linecap="round" stroke-linejoin="round" d="m101.2931325 128.89894500000003 -31.92 -0.10573500000000001" stroke-width="0.5"></path><path id="vector_9" stroke="#120071" stroke-linecap="round" stroke-linejoin="round" d="M82.36158 163.4772825c-19.617832500000002 -0.23241750000000003 -40.41471 -1.3715625 -59.796135 -2.5585875000000002" stroke-width="0.5"></path><path id="vector_10" stroke="#120071" stroke-linecap="round" stroke-linejoin="round" d="M82.36158 178.8946425a386.2788825 386.2788825 0 0 1 -41.20872 -3.3585825000000002" stroke-width="0.5"></path><path id="vector_11" stroke="#120071" stroke-linecap="round" stroke-linejoin="round" d="M82.36158 147.15918s-39.64464 0.8289225 -67.3561875 -2.1196875" stroke-width="0.5"></path></g><g id="upper body"><path id="vector_12" fill="#6153bd" d="M101.4686925 12.155535c0.205485 0.428925 0.45386250000000006 0.83391 0.7411425 1.2119625a4.4239125 4.4239125 0 0 1 4.2673049999999995 -1.2797924999999999c2.108715 0.6683250000000001 2.4728025000000002 2.8378875000000003 2.8538475000000005 3.600975 0.07880250000000001 -0.0269325 0.16159500000000002 -0.0468825 0.2443875 -0.057855000000000004 -2.252355 -5.848342500000001 -3.0922500000000004 -8.93361 -5.5650525 -10.280235a1.6249275 1.6249275 0 0 0 -2.6164425000000002 1.1571c-0.321195 1.6797900000000001 0.7491225 3.37554 1.6608375000000002 4.8189225 -1.5162 -1.430415 -2.092755 -0.301245 -1.5860250000000002 0.8289225Z" stroke-width="0.5"></path><path id="vector_13" stroke="#120071" stroke-linecap="round" stroke-linejoin="round" d="M101.4686925 12.155535c0.205485 0.428925 0.45386250000000006 0.83391 0.7411425 1.2119625a4.4239125 4.4239125 0 0 1 4.2673049999999995 -1.2797924999999999c2.108715 0.6683250000000001 2.4728025000000002 2.8378875000000003 2.8538475000000005 3.600975 0.07880250000000001 -0.0269325 0.16159500000000002 -0.0468825 0.2443875 -0.057855000000000004 -2.252355 -5.848342500000001 -3.0922500000000004 -8.93361 -5.5650525 -10.280235a1.6249275 1.6249275 0 0 0 -2.6164425000000002 1.1571c-0.321195 1.6797900000000001 0.7491225 3.37554 1.6608375000000002 4.8189225 -1.5162 -1.430415 -2.092755 -0.301245 -1.5860250000000002 0.8289225Z" stroke-width="0.5"></path><path id="vector_14" stroke="#120071" stroke-linecap="round" stroke-linejoin="round" d="M109.10655 38.8077375c1.06932 -4.237380000000001 3.2747925 -9.3765 7.532122500000001 -9.142087499999999 -2.3999850000000005 -4.506705 -4.182517499999999 -7.8074325 -6.269287500000001 -11.920125a1.45635 1.45635 0 0 0 0.289275 -1.7306625000000002 1.2598425 1.2598425 0 0 0 -1.3276725 -0.32618250000000004c-0.381045 -0.7630875 -0.7451325000000001 -2.93265 -2.8538475000000005 -3.600975 -2.5565925000000003 -0.8079750000000001 -5.599965 1.6059750000000002 -6.794970000000001 5.3934825 -1.5431325 4.8877500000000005 2.188515 6.956565 5.31867 6.7680375 0.6473775 3.257835 2.7082125 13.400415 3.44736 18.762975 0.257355 -2.0897625000000004 0.5107200000000001 -3.620925 0.6583500000000001 -4.2044625Z" stroke-width="0.5"></path><path id="vector_15" fill="#6153bd" d="M109.34295750000001 18.544522500000003c-0.32618250000000004 2.65335 -1.596 5.480265 -4.3421175 5.7057l0.4418925 2.2144500000000003c3.070305 -0.58653 4.2663075 -4.8668024999999995 3.9002250000000003 -7.9201500000000005Z" stroke-width="0.5"></path><path id="vector_16" stroke="#120071" stroke-linecap="round" stroke-linejoin="round" d="M109.34295750000001 18.544522500000003c-0.32618250000000004 2.65335 -1.596 5.480265 -4.3421175 5.7057l0.4418925 2.2144500000000003c3.070305 -0.58653 4.2663075 -4.8668024999999995 3.9002250000000003 -7.9201500000000005Z" stroke-width="0.5"></path><path id="vector_17" fill="#6153bd" d="M136.03007250000002 42.797737500000004c5.6338799999999996 6.5745225000000005 20.548500000000004 18.703125 21.537022500000003 31.068135 1.9351500000000001 -2.6653200000000004 2.77704 -5.80545 0.7521150000000001 -10.6134 -2.2064700000000004 -5.240864999999999 -6.370035000000001 -9.3765 -10.531605 -13.250790000000002 -5.923155 -5.5151775 -12.202417500000001 -10.892700000000001 -19.181925000000003 -14.8996575a60.39264 60.39264 0 0 1 7.4243925 7.6957125Z" stroke-width="0.5"></path><path id="vector_18" stroke="#120071" stroke-linecap="round" stroke-linejoin="round" d="M136.03007250000002 42.797737500000004c5.6338799999999996 6.5745225000000005 20.548500000000004 18.703125 21.537022500000003 31.068135 1.9351500000000001 -2.6653200000000004 2.77704 -5.80545 0.7521150000000001 -10.6134 -2.2064700000000004 -5.240864999999999 -6.370035000000001 -9.3765 -10.531605 -13.250790000000002 -5.923155 -5.5151775 -12.202417500000001 -10.892700000000001 -19.181925000000003 -14.8996575a60.39264 60.39264 0 0 1 7.4243925 7.6957125Z" stroke-width="0.5"></path><path id="vector_19" fill="#70a4ff" d="M156.63044250000002 69.479865c-3.6458625 -11.067262500000002 -15.179955000000001 -20.356980000000004 -20.60037 -26.6821275 -3.54312 -4.135635 -7.295715 -8.59845 -13.504155 -11.6178825a13.542060000000001 13.542060000000001 0 0 0 -5.6089425 -1.49625c-4.4398725 -0.4778025 -6.7171650000000005 4.788 -7.810425 9.120142500000002 -0.48678 1.9261725 -2.1436275 14.27223 -1.2319125000000002 22.7240475 0.4897725 4.5426150000000005 1.310715 9.11316 0.7810425000000001 13.651785 -0.520695 4.458825 -1.0144575 8.1745125 -2.793 12.29718l18.214350000000003 6.453825c-0.21845250000000002 0.1995 -0.44289 0.41097 -0.6783000000000001 0.628425 2.2723050000000002 3.7057125 4.389 6.970530000000001 7.811422500000001 9.680737500000001 1.039395 -0.077805 15.261750000000001 -11.2009275 21.745500000000003 -19.16397 3.29574 -4.0528425 6.254325 -7.7695275 3.6747900000000002 -15.5959125Z" stroke-width="0.5"></path><path id="vector_20" stroke="#120071" stroke-linecap="round" stroke-linejoin="round" d="M156.63044250000002 69.479865c-3.6458625 -11.067262500000002 -15.179955000000001 -20.356980000000004 -20.60037 -26.6821275 -3.54312 -4.135635 -7.295715 -8.59845 -13.504155 -11.6178825a13.542060000000001 13.542060000000001 0 0 0 -5.6089425 -1.49625c-4.4398725 -0.4778025 -6.7171650000000005 4.788 -7.810425 9.120142500000002 -0.48678 1.9261725 -2.1436275 14.27223 -1.2319125000000002 22.7240475 0.4897725 4.5426150000000005 1.310715 9.11316 0.7810425000000001 13.651785 -0.520695 4.458825 -1.0144575 8.1745125 -2.793 12.29718l18.214350000000003 6.453825c-0.21845250000000002 0.1995 -0.44289 0.41097 -0.6783000000000001 0.628425 2.2723050000000002 3.7057125 4.389 6.970530000000001 7.811422500000001 9.680737500000001 1.039395 -0.077805 15.261750000000001 -11.2009275 21.745500000000003 -19.16397 3.29574 -4.0528425 6.254325 -7.7695275 3.6747900000000002 -15.5959125Z" stroke-width="0.5"></path><path id="vector_21" stroke="#120071" stroke-linecap="round" stroke-linejoin="round" d="M120.56483250000001 58.0116075c5.2867500000000005 6.614422500000001 10.859782500000001 13.4463 17.9220825 16.2742125a49.00518 49.00518 0 0 1 -6.868785000000001 11.371500000000001 69.252435 69.252435 0 0 1 -8.2194 8.9006925" stroke-width="0.5"></path><path id="vector_22" stroke="#120071" stroke-linecap="round" stroke-linejoin="round" d="M123.78975 95.18843250000002c-3.29175 2.8139475000000003 -7.362547500000001 6.1316325 -8.305185000000002 6.1535775 -3.1850175000000003 0.0728175 -7.0064400000000004 1.91121 -10.1745 3.7655625 -0.9675750000000001 0.56658 -0.5755574999999999 2.388015 0.49077000000000004 2.2673175000000003 3.6139425000000003 -0.4099725 5.386500000000001 -2.0718075000000002 7.850325000000001 -1.5690675a5.38251 5.38251 0 0 1 1.37655 2.172555c1.3815375 4.1486025 -1.0443825 7.9710225 -1.5191925 14.106645a1.406475 1.406475 0 0 0 2.6932500000000004 0.7770525c3.5471100000000004 -8.465782500000001 1.4653275000000001 -6.2652975 1.6608375000000002 1.1361525000000001 0.049875 1.889265 2.3271675000000003 2.28228 2.84088 0.49875 0.153615 -0.5316675000000001 0.3062325 -1.0753050000000002 0.45785250000000005 -1.629915a1.298745 1.298745 0 0 0 2.3630775 -0.29127c1.1501175000000001 -3.0493575 0.891765 -2.9236725000000003 0.9316650000000001 -1.90323 0.05985 1.5531075 1.91121 1.8762975000000002 2.3351475 0.40698 1.3037325 -4.52067 1.8174450000000002 -12.01788 2.4348975 -16.4258325 0.2822925 -0.45386250000000006 0.6384000000000001 -0.8568525 1.05336 -1.1920125000000001a34.2371925 34.2371925 0 0 1 -6.4897350000000005 -8.273265v0Z" stroke-width="0.5"></path><path id="vector_23" stroke="#120071" stroke-linecap="round" stroke-linejoin="round" d="M118.28355 117.4187175a48.0396 48.0396 0 0 0 1.9082175000000001 -7.1650425" stroke-width="0.5"></path><path id="vector_24" stroke="#120071" stroke-linecap="round" stroke-linejoin="round" d="M127.0086825 109.659165a50.283975 50.283975 0 0 1 -2.5645725 10.360035" stroke-width="0.5"></path><path id="vector_25" stroke="#120071" stroke-linecap="round" stroke-linejoin="round" d="M123.45658500000002 110.5080375a65.669415 65.669415 0 0 1 -2.29425 12.356032500000001" stroke-width="0.5"></path></g><g id="elements"><g id="group"><g id="group_2"><path id="vector_26" stroke="#120071" stroke-linecap="round" stroke-linejoin="round" d="M182.61033000000003 55.5238425h9.859290000000001" stroke-width="0.5"></path><path id="vector_27" stroke="#120071" stroke-linecap="round" stroke-linejoin="round" d="M187.539975 60.452490000000004V50.5932" stroke-width="0.5"></path></g><g id="group_3"><path id="vector_28" stroke="#120071" stroke-linecap="round" stroke-linejoin="round" d="M170.179485 72.7965525h5.3775225" stroke-width="0.5"></path><path id="vector_29" stroke="#120071" stroke-linecap="round" stroke-linejoin="round" d="M172.8677475 75.4858125v-5.378520000000001" stroke-width="0.5"></path></g></g><g id="group_4"><path id="vector_30" stroke="#120071" stroke-linecap="round" stroke-linejoin="round" d="m173.53108500000002 171.8243625 7.423395 7.4243925" stroke-width="0.5"></path><path id="vector_31" stroke="#120071" stroke-linecap="round" stroke-linejoin="round" d="m173.53108500000002 179.24875500000002 7.423395 -7.4243925" stroke-width="0.5"></path></g><path id="vector_32" stroke="#120071" stroke-linecap="round" stroke-linejoin="round" d="m19.0332975 92.79543000000001 3.2458650000000002 5.3535825 3.8174325000000002 -7.997955000000001" stroke-width="0.5"></path></g></g></svg>