<svg xmlns="http://www.w3.org/2000/svg" fill="none" viewBox="-0.25 -0.25 200 200" id="Time-Out-For-Work--Streamline-Bangalore.svg"><desc>Time Out For Work Streamline Illustration: https://streamlinehq.com</desc><g id="time-out-for-work--work-time-out-for"><g id="circle"><path id="Vector" stroke="#120071" stroke-linecap="round" stroke-linejoin="round" d="M162.89673750000003 32.80069275c-4.7830125 -7.965237 -11.4303525 -14.648487000000001 -19.369455 -19.47429225 -7.9391025 -4.82584515 -16.932562500000003 -7.649538225000001 -26.2053225 -8.2279386 -9.27276 -0.5784103500000001 -18.54721575 1.10580855 -27.024669000000003 4.90756035 -8.47745325 3.8018715000000003 -15.903641250000002 9.60722175 -21.639266250000002 16.916403000000003" stroke-width="0.5"></path><path id="Vector_2" stroke="#120071" stroke-linecap="round" stroke-linejoin="round" d="M132.7822125 116.37234000000001c12.2343375 -4.320172500000001 22.643250000000002 -12.658275 29.528992500000005 -23.6545155 6.8857425 -10.9962405 9.842332500000001 -24.001446 8.38698 -36.893834250000005" stroke-width="0.5"></path><path id="Vector_3" stroke="#120071" stroke-linecap="round" stroke-linejoin="round" d="M56.5991475 66.59798775c0.97166475 12.88141575 6.2648985 25.0572 15.021951 34.55349975 8.7570525 9.497197500000002 20.46461025 15.758505000000001 33.225129 17.769465" stroke-width="0.5"></path></g><g id="hand 2"><path id="Vector_4" fill="#6153bd" d="M106.6197825 46.84668975c-1.77156 0.49875 -3.4812750000000006 1.0842825 -5.12316 1.7246775 -1.8124575 7.1670375 1.9680675000000003 18.4148475 3.6269100000000005 22.1933775 2.260335 5.1461025000000005 7.6019475000000005 15.495165000000002 6.16854 29.318420250000003 0.41994750000000003 -0.5679765 0.9147075000000001 -1.0772002500000002 1.470315 -1.51410525 -0.2563575 -12.976477500000001 -3.501225 -24.487627500000002 -5.1600675 -30.274125 -1.1461275000000002 -4.00197 -2.9775375 -14.10066 -0.9825375000000001 -21.448245Z" stroke-width="0.5"></path><path id="Vector_5" stroke="#120071" stroke-linecap="round" stroke-linejoin="round" d="M101.49662250000002 48.57136725c-1.8124575 7.166040000000001 1.9680675000000003 18.4148475 3.6269100000000005 22.1933775 2.260335 5.1461025000000005 7.6019475000000005 15.495165000000002 6.16854 29.318420250000003" stroke-width="0.5"></path><path id="Vector_6" stroke="#120071" stroke-linecap="round" stroke-linejoin="round" d="M106.61280000000001 46.868634750000005c-1.985025 7.346587500000001 -0.15561 17.4293175 0.9895200000000001 21.4263 1.6588425000000002 5.7855 4.90371 17.298645 5.1600675 30.274125" stroke-width="0.5"></path><path id="Vector_7" stroke="#120071" stroke-linecap="round" stroke-linejoin="round" d="M112.74144000000001 45.48609975c-0.9975 7.9211475 1.5072225 18.543525000000002 1.8703125 22.848735 0.39600750000000007 9.86637225 0.10773 19.74820575 -0.8608425000000001 29.574877500000003" stroke-width="0.5"></path><path id="Vector_8" stroke="#120071" stroke-linecap="round" stroke-linejoin="round" d="M124.7942325 43.49109975c-0.44289 -1.8682177500000001 -1.5311625 -3.520377 -3.0713025000000003 -4.666305 -0.8169525 -0.517503 -1.7635800000000001 -0.7941097500000001 -2.7301575000000002 -0.798" stroke-width="0.5"></path><path id="Vector_9" stroke="#120071" stroke-linecap="round" stroke-linejoin="round" d="M133.208145 107.5833675c-1.4034825000000002 -34.76776275 -3.764565 -38.204150250000005 -3.764565 -57.411012750000005 0.056857500000000005 -1.74013875 -0.5576025000000001 -3.4354897500000003 -1.717695 -4.7337359999999995 -1.1600925000000002 -1.2982462500000003 -2.7760425 -2.0997375000000003 -4.5116925 -2.2377915 -2.6693100000000003 0.015960000000000002 -6.721155 2.6433750000000003 -6.7520775 6.445845 -0.10673250000000001 13.167 -0.46184250000000004 27.498082500000002 1.14513 47.2286325h-0.0408975c-1.8633300000000002 0.022743000000000003 -3.6598275000000005 0.7020405000000001 -5.0722875 1.9181925000000002 -1.41246 1.2158527500000003 -2.35011 2.89165275 -2.64936 4.73104275 -2.2513575 13.566 -9.66777 24.309075000000004 -14.79093 29.9838525 -7.0493325 7.810425 -7.158060000000001 28.358925000000003 -5.0004675 41.26059h31.961895000000002c0.5715675 -10.7261175 11.8592775 -50.67998250000001 11.1929475 -67.185615Z" stroke-width="0.5"></path><path id="Vector_10" stroke="#120071" stroke-linecap="round" stroke-linejoin="round" d="M117.60525000000001 96.8754045c1.7286675000000002 0.031221750000000003 3.39948 0.6304200000000001 4.7550825 1.7052262500000002 1.354605 1.0747065 2.31819 2.56487175 2.7421275 4.24166925 1.7955 7.0044450000000005 0.416955 14.3789625 -1.5590925 21.3066 -2.7221775000000004 9.544080000000001 -6.693225 18.687165000000004 -11.810400000000001 27.191850000000002" stroke-width="0.5"></path><path id="Vector_11" fill="#70a4ff" d="M90.05340225 174.77197500000003h31.96179525c-0.17256749999999998 6.968535 2.8658175000000004 16.758000000000003 3.3735450000000005 18.4268175L95.45286975 194.51250000000002c-2.4822787500000003 -6.374025 -4.291843500000001 -12.9904425 -5.399467500000001 -19.740525Z" stroke-width="0.5"></path><path id="Vector_12" stroke="#120071" stroke-linecap="round" stroke-linejoin="round" d="M90.05340225 174.77197500000003h31.96179525c-0.17256749999999998 6.968535 2.8658175000000004 16.758000000000003 3.3735450000000005 18.4268175L95.45286975 194.51250000000002c-2.4822787500000003 -6.374025 -4.291843500000001 -12.9904425 -5.399467500000001 -19.740525v0Z" stroke-width="0.5"></path><path id="Vector_13" stroke="#120071" stroke-linecap="round" stroke-linejoin="round" d="M100.17693 189.76839c2.82891 0 5.1221625 -2.2952475000000003 5.1221625 -5.12715 0 -2.8319025 -2.2932525 -5.12715 -5.1221625 -5.12715s-5.1221625 2.2952475000000003 -5.1221625 5.12715c0 2.8319025 2.2932525 5.12715 5.1221625 5.12715Z" stroke-width="0.5"></path><path id="Vector_14" stroke="#120071" stroke-linecap="round" stroke-linejoin="round" d="m98.13006000000001 182.59437 4.09374 4.09374" stroke-width="0.5"></path><path id="Vector_15" stroke="#120071" stroke-linecap="round" stroke-linejoin="round" d="m98.13006000000001 186.68811000000002 4.09374 -4.09374" stroke-width="0.5"></path></g><g id="elements"><path id="Vector_16" stroke="#120071" stroke-linecap="round" stroke-linejoin="round" d="M142.29537 121.6760475h11.350552500000001" stroke-width="0.5"></path><path id="Vector_17" stroke="#120071" stroke-linecap="round" stroke-linejoin="round" d="M147.97014750000002 127.35182250000001v-11.350552500000001" stroke-width="0.5"></path><path id="Vector_18" stroke="#120071" stroke-linecap="round" stroke-linejoin="round" d="M159.48229500000002 138.235545h6.1914825" stroke-width="0.5"></path><path id="Vector_19" stroke="#120071" stroke-linecap="round" stroke-linejoin="round" d="M162.57753750000003 141.3307875v-6.1914825" stroke-width="0.5"></path><path id="Vector_20" stroke="#120071" stroke-linecap="round" stroke-linejoin="round" d="m63.547533 162.039885 4.0927425 4.0927425" stroke-width="0.5"></path><path id="Vector_21" stroke="#120071" stroke-linecap="round" stroke-linejoin="round" d="m63.547533 166.1326275 4.0927425 -4.0927425" stroke-width="0.5"></path><path id="Vector_22" stroke="#120071" stroke-linecap="round" stroke-linejoin="round" d="m52.622015250000004 18.01494975 3.509205 5.787495 4.126657499999999 -8.646329999999999" stroke-width="0.5"></path></g><g id="hand 1"><path id="Vector_23" fill="#6153bd" d="M161.10423000000003 54.64305c-4.4658075 -1.3225852500000002 -8.744085 -3.2069625 -12.7350825 -5.607945 -4.774035 -3.05264925 -9.725625 -5.817320250000001 -14.829832500000002 -8.279250000000001 -4.7121900000000005 -1.54103775 -9.585975 -2.539635 -14.5245975 -2.97654 -0.006982500000000001 0.08079750000000001 -0.013965000000000002 0.16159500000000002 -0.021945 0.241395 0.9665775 0.0043890000000000005 1.913205 0.28099575000000004 2.7301575000000002 0.798 0.8329125000000001 0.5587995000000001 1.5231824999999999 1.3053285000000001 2.0149500000000002 2.1795375000000003 4.935630000000001 2.675295 9.5311125 5.937519 13.683705000000002 9.71565 3.3406275000000005 2.7820275000000003 13.9919325 10.120635000000002 21.480165 9.6149025 2.2334025 -0.15162 3.8703000000000003 -1.4613375000000002 3.6578325 -3.1491075000000004 -0.20049750000000002 -0.9796447500000001 -0.7112175000000001 -1.868916 -1.4553525 -2.5366425Z" stroke-width="0.5"></path><path id="Vector_24" stroke="#120071" stroke-linecap="round" stroke-linejoin="round" d="M123.73788 41.003235000000004c4.935630000000001 2.6751952500000002 9.530115 5.9374192500000005 13.683705000000002 9.71565 3.3406275000000005 2.7820275000000003 13.9919325 10.120635000000002 21.480165 9.6149025 2.2334025 -0.15162 3.8703000000000003 -1.4613375000000002 3.6578325 -3.1491075000000004 -0.1995 -0.9815400000000001 -0.71022 -1.8727065 -1.4553525 -2.54163" stroke-width="0.5"></path><path id="Vector_25" stroke="#120071" stroke-linecap="round" stroke-linejoin="round" d="M133.53931500000002 40.75994475c5.1042075 2.4620295 10.0557975 5.2267005 14.829832500000002 8.279250000000001 4.5476025 2.8458675 18.515595 9.5829825 26.367915000000004 5.6927325 0.7371525 -0.34423725000000005 1.3855275 -0.8543587500000001 1.893255 -1.4904645 0.5077275 -0.6362055000000001 0.8608425000000001 -1.38103875 1.0334100000000002 -2.176545 0.17157 -0.7955062500000001 0.15760500000000002 -1.6199400000000002 -0.041895 -2.4089625000000003 -0.1995 -0.78912225 -0.57855 -1.52128725 -1.1082225 -2.139438" stroke-width="0.5"></path><path id="Vector_26" stroke="#120071" stroke-linecap="round" stroke-linejoin="round" d="M172.59144 48.08558475c0.4797975 -0.035610750000000004 0.9576 -0.096957 1.4314125000000002 -0.18354 3.0094575 -0.5586000000000001 4.90371 -4.30521 3.7675575 -7.148085000000001 -0.96558 -2.4159450000000002 -3.5042175 -3.764565 -5.89722 -4.788 -3.9111975 -1.6561492500000001 -7.9530675 -2.9854177500000003 -12.0847125 -3.97404 -8.5535625 -2.61744 -16.0507725 -5.07927 -22.966440000000002 -6.96654" stroke-width="0.5"></path><path id="Vector_27" stroke="#120071" stroke-linecap="round" stroke-linejoin="round" d="M169.92612000000003 43.1388825c-3.36756 -2.8319025 -27.45519 -22.234275 -62.2230525 -23.64075 -16.5076275 -0.6653325000000001 -55.86 13.300665 -66.5861175 13.871235000000002V65.366175c12.902662500000002 2.1585900000000002 33.451162499999995 2.0488649999999997 41.261587500000005 -5.0084475 5.6747775 -5.12715 16.426830000000002 -12.484710000000002 29.9838525 -14.804895000000002 3.4373850000000004 -0.55461 6.2932275 -3.1680600000000005 6.6523275 -7.768530000000001 19.7295525 1.6079700000000001 35.112 13.402410000000001 47.13786 15.798405 0.7730625000000001 0.13436325 1.566075 0.10194450000000001 2.3251725 -0.09496200000000002 0.7600950000000001 -0.19700625000000002 1.46832 -0.5540115 2.07879 -1.0471755 0.6104700000000001 -0.49316400000000005 1.1082225 -1.1110155 1.46034 -1.81215825 0.35211749999999997 -0.7012425 0.5506200000000001 -1.4696167500000001 0.5815425 -2.2536517500000004 -0.041895 -1.0137592500000001 -0.3022425 -2.00647125 -0.7630875 -2.9102062500000003 -0.46184250000000004 -0.9037350000000001 -1.1132100000000003 -1.6970467500000002 -1.909215 -2.32567125v0Z" stroke-width="0.5"></path><path id="Vector_28" stroke="#120071" stroke-linecap="round" stroke-linejoin="round" d="M119.0147175 37.7843025c-0.2384025 -3.9331425 -3.2069625 -7.786485000000001 -10.6622775 -8.273265 -5.603955000000001 -0.36608250000000003 -11.19594 0.7890225000000001 -16.593412500000003 2.33016 -9.54497775 2.7259680000000004 -18.687763500000003 6.70150425 -27.190852500000002 11.8233675" stroke-width="0.5"></path><path id="Vector_29" fill="#70a4ff" d="M41.11695 65.366175V33.37236000000001c-6.968535 0.17256749999999998 -16.758000000000003 -2.8678125000000003 -18.427815000000002 -3.3765375l-1.3137075 29.9658975c6.3742245 2.4843735000000002 12.990642 4.295634000000001 19.741522500000002 5.4044550000000005Z" stroke-width="0.5"></path><path id="Vector_30" stroke="#120071" stroke-linecap="round" stroke-linejoin="round" d="M41.11695 65.366175V33.37236000000001c-6.968535 0.17256749999999998 -16.758000000000003 -2.8678125000000003 -18.427815000000002 -3.3765375l-1.3137075 29.9658975c6.3742245 2.4843735000000002 12.990642 4.295634000000001 19.741522500000002 5.4044550000000005v0Z" stroke-width="0.5"></path><path id="Vector_31" stroke="#120071" stroke-linecap="round" stroke-linejoin="round" d="M31.247685 60.359722500000004c2.831703 0 5.12715 -2.29554675 5.12715 -5.12715 0 -2.831703 -2.2954470000000002 -5.12715 -5.12715 -5.12715 -2.83160325 0 -5.12715 2.2954470000000002 -5.12715 5.12715 0 2.83160325 2.29554675 5.12715 5.12715 5.12715Z" stroke-width="0.5"></path></g></g></svg>