<svg xmlns="http://www.w3.org/2000/svg" fill="none" viewBox="-0.25 -0.25 200 200" id="Work-About-Us-About-Our-Team-01--Streamline-Bangalore.svg"><desc>Work About Us About Our Team 01 Streamline Illustration: https://streamlinehq.com</desc><g><g><path fill="#70a4ff" d="M176.37396 88.28673c-2.2683150000000003 0 -3.122175 -11.0433225 -0.8528625000000001 -11.21988 -12.269250000000001 1.3057275 -24.8666775 3.3126975000000005 -33.430215000000004 1.9521075 -3.006465 3.7074082500000003 -5.4593175 7.83147225 -7.281750000000001 12.243314999999999 -1.1571 -4.15269225 -1.5780450000000001 -8.47605675 -1.2438825000000002 -12.773985 -1.6289175 -0.13266750000000002 -19.4063625 -11.920125 -26.8916025 -16.2981525 -1.6229325000000001 1.0978485 -3.0054675 2.5138995 -4.063815 4.16226825 -1.0593450000000002 1.6482690000000002 -1.77156 3.4945417500000002 -2.0957475 5.42669925l26.234250000000003 15.96 2.0658225000000003 -2.9755425000000004c-0.48279 1.1881222500000002 -0.7531125000000001 2.45195475 -0.798 3.7336425 -0.07581 2.5775400000000004 0.7581 6.34809 3.8653125000000004 12.967500000000001 3.0324 0.9097200000000001 7.98 -0.492765 11.75055 -2.6723025 -0.17057250000000002 -2.3690625 0.98553 -5.268795 1.8573450000000002 -7.693717500000001 -0.6693225 -0.49027125 -1.37256 -0.93356025 -2.1037275 -1.326675 11.118135 0.7321650000000001 21.579915 -0.09675750000000001 32.9883225 -1.4852775000000003Z" stroke-width="0.5"></path><path fill="#70a4ff" d="M83.94760500000001 105.70308000000001c-5.762158500000001 -0.45087000000000005 -11.543469 -0.6094725 -17.3215875 -0.4738125 0.360696 -1.2279225000000002 0.5769540000000001 -2.4937500000000004 0.6443850000000001 -3.7715475000000005 -4.738125 1.2319125000000002 -9.32463 1.2698175 -15.4263375 0.399v-0.07581c-2.8348950000000004 1.8753 -5.309692500000001 8.524635 -3.5321475 13.412385L43.39125 125.58525000000002l-14.0238525 -8.947575c-4.2264075000000005 2.6343975 -6.3490875 6.0079425 -7.9031925 11.181975000000001l17.681685 12.109650000000002c1.1861272500000002 0.81396 2.5311562500000004 1.3675725 3.9465090000000003 1.6239299999999999 1.4154525000000002 0.257355 2.869209 0.21147000000000002 4.26560925 -0.13466250000000002 1.39640025 -0.34513499999999997 2.7038235 -0.9825375000000001 3.8361855000000005 -1.8703125 1.132362 -0.8867775000000001 2.064027 -2.0039775 2.73364875 -3.2767875l5.647845 -10.74507 -7.128135 -5.444355000000001c1.0454797500000002 0.6104700000000001 2.1679665 1.0773000000000001 3.337635 1.38852 5.818417500000001 1.6109625 14.327092500000001 0.9665775 20.049750000000003 0.26533500000000004 -1.6830817500000002 6.69522 -2.99878425 13.4772225 -3.9411225 20.3160825 3.60845625 2.4279150000000005 8.008628250000001 3.3835200000000003 12.299175 2.6723025 3.2053665000000002 -8.983485 5.91367875 -18.136544999999998 8.112667499999999 -27.4182825 0.32847675 -1.3206900000000001 0.36518475 -2.6972400000000003 0.10782975 -4.0338899999999995 -0.257355 -1.3356525000000001 -0.80268825 -2.6004825000000005 -1.5980947500000002 -3.704715 -0.7955062500000001 -1.1042325 -1.8218340000000002 -2.0219325 -3.0078615 -2.6892600000000004s-2.50322625 -1.0683225 -3.859926 -1.175055Z" stroke-width="0.5"></path><path fill="#70a4ff" d="M166.9366125 46.91442c-0.1426425 -0.1438395 -0.31221750000000004 -0.2579535 -0.4997475 -0.33585825 -0.18653250000000002 -0.07790475000000001 -0.38703000000000004 -0.11800425 -0.59052 -0.11800425 -0.20249250000000002 0 -0.40299000000000007 0.0400995 -0.5895225 0.11800425 -0.18753 0.07790475000000001 -0.357105 0.19201875000000002 -0.4997475 0.33585825l-0.399 0.399 -0.399 -0.399c-0.289275 -0.28897575000000003 -0.6812925000000001 -0.45136875000000004 -1.0902675 -0.45126900000000003 -0.408975 0.00009975000000000001 -0.8009925000000001 0.1625925 -1.0902675 0.45176775 -0.2882775 0.28917525 -0.45087000000000005 0.6812925000000001 -0.45087000000000005 1.09016775 0 0.4087755 0.1625925 0.80089275 0.45186750000000003 1.0898685000000001l2.5935 2.5775400000000004 2.5585875000000002 -2.5775400000000004c0.1446375 -0.14234325 0.25935 -0.3118185 0.3381525 -0.49884975000000004 0.077805 -0.18693150000000003 0.1187025 -0.38762850000000004 0.1187025 -0.59042025 0.0009975000000000001 -0.202692 -0.0389025 -0.4035885 -0.11670750000000002 -0.5909190000000001 -0.077805 -0.1873305 -0.19152000000000002 -0.3573045 -0.33516 -0.5003460000000001Z" stroke-width="0.5"></path><path fill="#70a4ff" d="m58.419585000000005 157.7815575 -2.6343975 -0.39800250000000004 -1.175055 -2.3690625 -1.175055 2.3690625 -2.6334000000000004 0.39800250000000004 1.9142025000000003 1.8383925 -0.45486000000000004 2.6154450000000002 2.3491125 -1.2319125000000002 2.35011 1.2319125000000002 -0.45486000000000004 -2.6154450000000002 1.9142025000000003 -1.8383925Z" stroke-width="0.5"></path></g><g><path fill="#6153bd" d="m137.58018750000002 74.71275000000001 -1.995 1.89525c0.18453750000000002 -0.5260815 0.29925 -1.07400825 0.34114500000000003 -1.629915 0.5595975000000001 -0.026832750000000002 1.1142075 -0.11580975 1.653855 -0.26533500000000004Z" stroke-width="0.5"></path><path fill="#6153bd" d="M145.88138250000003 89.8976925c-0.13266750000000002 0.37905 -0.26533500000000004 0.7770525 -0.416955 1.197 -0.6693225 -0.490371 -1.37256 -0.9336600000000002 -2.1037275 -1.326675 0.8528625000000001 0.034912500000000006 1.6867725000000002 0.09177 2.5206825000000004 0.129675Z" stroke-width="0.5"></path><path fill="#6153bd" d="M161.30772 58.437540000000006c-3.10422 -2.5775400000000004 -11.5221225 4.662315 -11.5221225 4.662315 1.5531075 -7.656810000000001 -9.817395000000001 -1.09725 -13.645800000000001 2.6343975 1.97106 -1.5730575 3.5441175 1.8373950000000001 3.3735450000000005 3.77055 0 0.4558575 0.2463825 0.5506200000000001 0.947625 0.057855000000000004 1.4593425000000002 -1.0613400000000002 2.5017300000000002 1.4593425000000002 -0.2463825 2.6334000000000004 -0.18453750000000002 0.19959975000000002 -0.3201975 0.4383015 -0.399 0.69825 -0.5037375000000001 1.43031525 -0.5366550000000001 2.9843205000000004 -0.0947625 4.434885 12.755032500000002 -2.611455 24.676155 -16.333065 21.5868975 -18.8916525Z" stroke-width="0.5"></path><path fill="#6153bd" d="m139.3996275 116.58081750000001 -1.5162 1.3077225000000001 -1.326675 -5.6288925 2.8428750000000003 4.32117Z" stroke-width="0.5"></path><path fill="#6153bd" d="M97.76298 28.3798725c-1.51909275 0 -3.004071 0.450471 -4.26720525 1.2944557500000002 -1.2630345 0.8439847500000001 -2.247567 2.0434785 -2.82891 3.4469610000000004 -0.581343 1.4034825000000002 -0.733362 2.9478120000000003 -0.43700475 4.43777775 0.29635725 1.4898660000000001 1.027824 2.85853575 2.10203175 3.93264375 1.07420775 1.07420775 2.4427777500000003 1.8056745 3.93264375 2.10203175 1.48996575 0.296457 3.03429525 0.14433825 4.438077000000001 -0.43700475 1.4034825000000002 -0.581343 2.6024775 -1.5658755000000002 3.4463625 -2.82891 0.843885 -1.26313425 1.294755 -2.7481125 1.294755 -4.26720525 0.0019950000000000002 -1.00917075 -0.19551000000000002 -2.0087655 -0.580545 -2.941428 -0.38603250000000006 -0.9327622500000001 -0.951615 -1.78023825 -1.6648275000000001 -2.4937500000000004 -0.71421 -0.7136115000000001 -1.5610875 -1.2792937500000001 -2.4937500000000004 -1.6646280000000002 -0.9326625000000001 -0.38533425 -1.93245675 -0.5827395000000001 -2.9416275 -0.580944Zm0.189525 12.35703c0 0.050274000000000006 -0.019950000000000002 0.09845325 -0.055460999999999996 0.134064 -0.035610750000000004 0.035511 -0.08379 0.055460999999999996 -0.134064 0.055460999999999996 -0.025236750000000002 0.0014962500000000002 -0.05057325000000001 -0.0024937500000000003 -0.074214 -0.01147125 -0.02364075 -0.0089775 -0.045087 -0.0229425 -0.06304200000000001 -0.04079775 -0.01785525 -0.017955 -0.031720500000000006 -0.039401250000000006 -0.04079775 -0.06304200000000001 -0.0089775 -0.02364075 -0.01286775 -0.04897725 -0.01147125 -0.074214v-5.951085000000001c0.00029925 -0.050174250000000004 0.020349000000000003 -0.09825375000000001 0.05586000000000001 -0.13376475000000002 0.03541125 -0.03541125 0.08349075 -0.055460999999999996 0.133665 -0.055760250000000004 0.025236750000000002 -0.0014962500000000002 0.05057325000000001 0.0024937500000000003 0.074214 0.01147125 0.02364075 0.0089775 0.045186750000000005 0.0229425 0.06304200000000001 0.04079775 0.01785525 0.017955 0.03182025 0.039401250000000006 0.04079775 0.06304200000000001 0.0089775 0.02364075 0.0129675 0.04897725 0.01147125 0.074214v5.951085000000001Zm-0.720195 -8.8308675c0.005985000000000001 -0.139251 0.06553575 -0.27082125 0.1661835 -0.36717975 0.10064775000000001 -0.09645825 0.23461200000000001 -0.1502235 0.37396275 -0.1502235 0.13935075 0 0.27341475000000004 0.05376525000000001 0.37396275 0.1502235 0.10064775000000001 0.09635850000000001 0.1601985 0.22792875 0.1661835 0.36717975 -0.005985000000000001 0.139251 -0.06553575 0.27082125 -0.1661835 0.36717975 -0.10054800000000001 0.09645825 -0.23461200000000001 0.1502235 -0.37396275 0.1502235 -0.13935075 0 -0.27331500000000003 -0.05376525000000001 -0.37396275 -0.1502235 -0.10064775000000001 -0.09635850000000001 -0.1601985 -0.22792875 -0.1661835 -0.36717975Z" stroke-width="0.5"></path><path fill="#6153bd" d="m52.3358325 120.01122000000001 7.239855 5.5151775 1.6867725000000002 -3.1840200000000003c-3.1151925000000005 -0.07980000000000001 -6.1699364999999995 -0.8778 -8.9266275 -2.3311575Z" stroke-width="0.5"></path><path fill="#6153bd" d="m58.590157500000004 78.241905 -2.2742999999999998 -1.5341550000000002c0.6538612500000001 0.078603 1.313109 0.10403925000000001 1.97106 0.07581 0.05196975 0.49505925000000006 0.15351525000000002 0.98363475 0.30324 1.458345Z" stroke-width="0.5"></path><path fill="#6153bd" d="M128.787225 84.761565c-0.48279 1.1881222500000002 -0.7531125000000001 2.45195475 -0.798 3.7336425l-1.2698175 -0.7770525 2.0678175 -2.9565900000000003Z" stroke-width="0.5"></path><path fill="#6153bd" d="M68.29383750000001 84.8942325c0.1689765 0.8261295000000001 0.289275 1.6614360000000001 0.3600975 2.5017300000000002 0.3600975 -0.17057250000000002 0.7581 -0.37905 1.1561025 -0.5875275l-1.5162 -1.9142025000000003Z" stroke-width="0.5"></path><path fill="#6153bd" d="M73.4668725 143.606085c-0.43491 1.2508650000000001 -0.98553 2.5017300000000002 -1.3635825000000001 3.5999775 0.29416275000000003 1.2608400000000002 0.75261375 2.47779 1.3635825000000001 3.6199275 1.9142025000000003 3.5441175 3.8284050000000005 10.499685 5.344605 12.243314999999999 0.83391 -2.4827775 1.7246775 -8.717152500000001 2.312205 -12.224362500000002 -2.95808625 -1.9441275000000002 -5.55009 -4.393987500000001 -7.656810000000001 -7.2388575Z" stroke-width="0.5"></path><path fill="#6153bd" d="M23.018310000000003 115.1404275c-1.29285975 -0.056857500000000005 -2.5874152500000003 0.0648375 -3.8473575 0.3600975 -3.94212 0.9097200000000001 -11.162015025 0.9097200000000001 -13.227837525 1.9142025000000003 2.160585 1.4782950000000001 7.940090025000001 3.9989775000000005 11.162015025 5.4772725 2.6635245 -2.3491125 5.724951750000001 -4.2044625 9.040342500000001 -5.4772725 -1.1181975 -0.7581 -2.1795375000000003 -1.6109625 -3.1271625 -2.2742999999999998Z" stroke-width="0.5"></path><path fill="#6153bd" d="M56.69490750000001 66.13425c-0.6254325000000001 -1.023435 -1.995 -0.9665775 -1.8573450000000002 -0.189525 -0.851865 -0.7581 -2.33016 -0.399 -2.160585 0.4738125 -1.0224374999999999 -0.83391 -2.216445 -0.17057250000000002 -1.97106 0.6254325000000001 -0.8897700000000001 -0.6822900000000001 -1.8563475 0 -1.5531075 0.8149575 -1.2698175 -0.5496225000000001 -2.3311575 0.399 -0.83391 1.89525 0.6443850000000001 0.6443850000000001 3.4483575 2.7281625 5.021415 5.36256 0.09675750000000001 -0.37895025000000004 0.08778 -0.7770525 -0.0257355 -1.1513145 -0.11361525 -0.37416225000000003 -0.32757900000000006 -0.71012025 -0.6186495 -0.9713655000000001 -1.554105 -1.175055 -0.492765 -2.5765425000000004 0.492765 -1.6109625 0.871815 0.8528625000000001 0.588525 -0.399 -0.037905 -1.5162 0.12977475 0.1119195 0.285684 0.18942525000000002 0.45326400000000006 0.2252355 0.16758 0.03591 0.341544 0.02902725 0.5057325 -0.019950000000000002 0.16428825000000002 -0.04897725 0.31351425000000005 -0.13845300000000002 0.434112 -0.2603475 0.12049800000000001 -0.12179475000000001 0.2084775 -0.2719185 0.255759 -0.4367055 0.12428850000000001 0.09386475000000001 0.26752950000000003 0.15960000000000002 0.419748 0.19241775 0.15231825000000002 0.03281775 0.30982350000000003 0.0321195 0.46184250000000004 -0.0021945000000000003 0.15191925 -0.034314000000000004 0.29456175 -0.10124625000000001 0.4179525 -0.196308 0.12339075000000001 -0.09506175 0.22453725 -0.21585900000000002 0.296457 -0.35401275 0.69825 0.4917675 1.6488675000000002 0.189525 1.6867725000000002 -0.5496225000000001 -0.420945 -0.72219 -0.8947575000000001 -1.5181950000000002 -1.3875225 -2.3311575Z" stroke-width="0.5"></path><path fill="#6153bd" d="m51.770250000000004 91.45080000000002 -1.382535 1.781535c-0.189525 -0.7381500000000001 -0.37905 -1.4593425000000002 -0.5875275 -2.1595875 0.6413925 0.11371500000000001 1.9700625000000003 0.3780525 1.9700625000000003 0.3780525Z" stroke-width="0.5"></path><path fill="#6153bd" d="M32.436705 86.77053000000001c-0.0065835 0.166383 -0.0772065 0.32378850000000003 -0.19730550000000002 0.43919925000000004 -0.11999925000000002 0.11541075 -0.280098 0.17984925 -0.44658075 0.17984925s-0.3265815 -0.06443850000000001 -0.44658075 -0.17984925c-0.11999925000000002 -0.11541075 -0.19072200000000003 -0.27281625000000004 -0.19730550000000002 -0.43919925000000004 0.0065835 -0.166383 0.07730625 -0.32378850000000003 0.19730550000000002 -0.43919925000000004 0.11999925000000002 -0.11541075 0.280098 -0.17984925 0.44658075 -0.17984925s0.3265815 0.06443850000000001 0.44658075 0.17984925c0.120099 0.11541075 0.19072200000000003 0.27281625000000004 0.19730550000000002 0.43919925000000004Z" stroke-width="0.5"></path><path fill="#6153bd" d="M41.07904500000001 81.08478c0 0.17087175000000002 -0.06783000000000002 0.33476100000000003 -0.188727 0.455658 -0.12079725000000001 0.12079725000000001 -0.28478625 0.188727 -0.455658 0.188727s-0.33476100000000003 -0.06792975 -0.455658 -0.188727c-0.12079725000000001 -0.120897 -0.188727 -0.28478625 -0.188727 -0.455658s0.06792975 -0.33476100000000003 0.188727 -0.455658c0.120897 -0.12079725000000001 0.28478625 -0.188727 0.455658 -0.188727s0.33486075000000004 0.06792975 0.455658 0.188727c0.120897 0.120897 0.188727 0.28478625 0.188727 0.455658Z" stroke-width="0.5"></path><path fill="#6153bd" d="M49.3612875 87.41491500000001c0 0.17087175000000002 -0.06792975 0.33476100000000003 -0.188727 0.455658 -0.12079725000000001 0.12079725000000001 -0.28478625 0.188727 -0.455658 0.188727s-0.33476100000000003 -0.06792975 -0.455658 -0.188727c-0.12079725000000001 -0.120897 -0.188727 -0.28478625 -0.188727 -0.455658s0.06792975 -0.33476100000000003 0.188727 -0.455658c0.120897 -0.12079725000000001 0.28478625 -0.188727 0.455658 -0.188727s0.33486075000000004 0.06792975 0.455658 0.188727c0.12079725000000001 0.120897 0.188727 0.28478625 0.188727 0.455658Z" stroke-width="0.5"></path><path fill="#6153bd" d="M60.65598 89.2154025c0 0.17087175000000002 -0.06792975 0.33476100000000003 -0.188727 0.455658 -0.120897 0.12079725000000001 -0.28478625 0.188727 -0.455658 0.188727s-0.33476100000000003 -0.06792975 -0.455658 -0.188727c-0.12079725000000001 -0.120897 -0.188727 -0.28478625 -0.188727 -0.455658s0.06792975 -0.33476100000000003 0.188727 -0.455658c0.120897 -0.12079725000000001 0.28478625 -0.188727 0.455658 -0.188727s0.33476100000000003 0.06792975 0.455658 0.188727c0.12079725000000001 0.120897 0.188727 0.28478625 0.188727 0.455658Z" stroke-width="0.5"></path><path fill="#6153bd" d="M66.53325000000001 79.3601025c0 0.17087175000000002 -0.06792975 0.33476100000000003 -0.188727 0.455658 -0.120897 0.12079725000000001 -0.28478625 0.188727 -0.455658 0.188727s-0.33476100000000003 -0.06792975 -0.455658 -0.188727c-0.12079725000000001 -0.120897 -0.188727 -0.28478625 -0.188727 -0.455658s0.06792975 -0.33476100000000003 0.188727 -0.455658c0.120897 -0.12079725000000001 0.28478625 -0.188727 0.455658 -0.188727s0.33476100000000003 0.06792975 0.455658 0.188727c0.12079725000000001 0.120897 0.188727 0.28478625 0.188727 0.455658Z" stroke-width="0.5"></path><path fill="#6153bd" d="M77.52270750000001 79.227435c0 0.17087175000000002 -0.06783000000000002 0.33476100000000003 -0.188727 0.455658 -0.12079725000000001 0.12079725000000001 -0.28478625 0.188727 -0.455658 0.188727s-0.33476100000000003 -0.06792975 -0.455658 -0.188727c-0.12079725000000001 -0.120897 -0.188727 -0.28478625 -0.188727 -0.455658s0.06792975 -0.33476100000000003 0.188727 -0.455658c0.120897 -0.12079725000000001 0.28478625 -0.188727 0.455658 -0.188727s0.33486075000000004 0.06792975 0.455658 0.188727c0.120897 0.120897 0.188727 0.28478625 0.188727 0.455658Z" stroke-width="0.5"></path><path fill="#6153bd" d="M81.2373975 70.49133c0 0.17087175000000002 -0.06783000000000002 0.33476100000000003 -0.188727 0.455658 -0.12079725000000001 0.12079725000000001 -0.28478625 0.188727 -0.455658 0.188727s-0.33476100000000003 -0.06792975 -0.455658 -0.188727c-0.12079725000000001 -0.120897 -0.188727 -0.28478625 -0.188727 -0.455658s0.06792975 -0.33476100000000003 0.188727 -0.455658c0.120897 -0.12079725000000001 0.28478625 -0.188727 0.455658 -0.188727s0.33486075000000004 0.06792975 0.455658 0.188727c0.120897 0.120897 0.188727 0.28478625 0.188727 0.455658Z" stroke-width="0.5"></path><path fill="#6153bd" d="M55.898902500000005 98.06522250000002c0 0.17087175000000002 -0.06792975 0.33486075000000004 -0.188727 0.455658 -0.12079725000000001 0.12079725000000001 -0.28478625 0.188727 -0.455658 0.188727s-0.33476100000000003 -0.06792975 -0.455658 -0.188727c-0.12079725000000001 -0.12079725000000001 -0.188727 -0.28478625 -0.188727 -0.455658s0.06792975 -0.33476100000000003 0.188727 -0.455658c0.120897 -0.12079725000000001 0.28478625 -0.188727 0.455658 -0.188727s0.33486075000000004 0.06792975 0.455658 0.188727c0.12079725000000001 0.120897 0.188727 0.28478625 0.188727 0.455658Z" stroke-width="0.5"></path><path fill="#6153bd" d="M65.88687000000002 97.4208375c0 0.17087175000000002 -0.06792975 0.33476100000000003 -0.188727 0.455658 -0.12079725000000001 0.12079725000000001 -0.28478625 0.188727 -0.455658 0.188727s-0.33476100000000003 -0.06792975 -0.455658 -0.188727c-0.12079725000000001 -0.120897 -0.188727 -0.28478625 -0.188727 -0.455658s0.06792975 -0.33486075000000004 0.188727 -0.455658c0.120897 -0.120897 0.28478625 -0.188727 0.455658 -0.188727s0.33486075000000004 0.06783000000000002 0.455658 0.188727c0.12079725000000001 0.12079725000000001 0.188727 0.28478625 0.188727 0.455658Z" stroke-width="0.5"></path><path fill="#6153bd" d="M176.6961525 78.166095c-0.6633375 0.037905 -1.8383925 0.0947625 -2.1037275 0.11371500000000001 0.492765 -1.5720600000000002 1.366575 -1.5920100000000001 2.1037275 -0.11371500000000001Z" stroke-width="0.5"></path><path fill="#6153bd" d="M177.30263250000002 87.263295c-0.4738125 1.2887700000000002 -1.2508650000000001 1.3456275 -1.9142025000000003 0.15162 0.5496225000000001 -0.03391500000000001 1.21296 -0.0947625 1.9142025000000003 -0.15162Z" stroke-width="0.5"></path><path fill="#6153bd" d="M107.580375 65.73525000000001c0 0.17087175000000002 -0.06783000000000002 0.33476100000000003 -0.18852750000000001 0.455658 -0.1206975 0.12079725000000001 -0.285285 0.188727 -0.4558575 0.188727 -0.17057250000000002 0 -0.33516 -0.06792975 -0.4558575 -0.188727 -0.1206975 -0.120897 -0.18852750000000001 -0.28478625 -0.18852750000000001 -0.455658s0.06783000000000002 -0.33476100000000003 0.18852750000000001 -0.455658c0.1206975 -0.12079725000000001 0.285285 -0.188727 0.4558575 -0.188727 0.17057250000000002 0 0.33516 0.06792975 0.4558575 0.188727 0.1206975 0.120897 0.18852750000000001 0.28478625 0.18852750000000001 0.455658Z" stroke-width="0.5"></path><path fill="#6153bd" d="M172.26126750000003 80.64887250000001c-0.006982500000000001 0.166383 -0.0768075 0.32378850000000003 -0.19750500000000001 0.43919925000000004 -0.1197 0.11541075 -0.28029750000000003 0.17984925 -0.4458825 0.17984925 -0.16658250000000002 0 -0.32718 -0.06443850000000001 -0.44688000000000005 -0.17984925 -0.1206975 -0.11541075 -0.1905225 -0.27281625000000004 -0.19750500000000001 -0.43919925000000004 0.006982500000000001 -0.166383 0.0768075 -0.32378850000000003 0.19750500000000001 -0.43919925000000004 0.1197 -0.11541075 0.28029750000000003 -0.17984925 0.44688000000000005 -0.17984925 0.165585 0 0.32618250000000004 0.06443850000000001 0.4458825 0.17984925 0.1206975 0.11541075 0.1905225 0.27281625000000004 0.19750500000000001 0.43919925000000004Z" stroke-width="0.5"></path><path fill="#6153bd" d="M157.11921750000002 123.1383825c-0.005985000000000001 -1.0892700000000002 -0.06882750000000001 -2.1775425 -0.189525 -3.25983l5.4772725 -5.07927 -5.2877475 8.3391Z" stroke-width="0.5"></path></g><g><path stroke="#120071" stroke-linecap="round" stroke-linejoin="round" d="M103.82778 148.912785c-7.4034450000000005 0.9246825000000001 -14.920405500000001 0.1266825 -21.96495 -2.3311575" stroke-width="0.5"></path><path stroke="#120071" stroke-linecap="round" stroke-linejoin="round" d="M141.7876425 120.19875c-4.5675525 10.69719 -12.864757500000001 19.371450000000003 -23.348482500000003 24.4098225" stroke-width="0.5"></path><path stroke="#120071" stroke-linecap="round" stroke-linejoin="round" d="M144.8200425 92.87223750000001c0.41994750000000003 2.2649235 0.6663300000000001 4.55847525 0.7391475000000001 6.860805" stroke-width="0.5"></path><path stroke="#120071" stroke-linecap="round" stroke-linejoin="round" d="M105.24921750000001 54.211132500000005c11.061277500000001 1.73854275 21.1579725 7.31396925 28.5215175 15.749527500000001" stroke-width="0.5"></path><path stroke="#120071" stroke-linecap="round" stroke-linejoin="round" d="M93.74505 53.7941775c2.15689425 -0.17326575 4.322766 -0.20498625 6.483750000000001 -0.0947625 0.37905 0.019950000000000002 0.7770525 0.037905 1.1561025 0.07581" stroke-width="0.5"></path><path stroke="#120071" stroke-linecap="round" stroke-linejoin="round" d="M59.935785 72.1581525c7.0569135 -9.11066625 17.16448125 -15.368881500000002 28.4656575 -17.624827500000002" stroke-width="0.5"></path><path stroke="#120071" stroke-linecap="round" stroke-linejoin="round" d="M49.986720000000005 103.80783000000001c-0.077406 -1.6039800000000002 -0.07112175000000001 -3.2109525 0.0189525 -4.813935 0.09097200000000001 -1.707321 0.26802825 -3.4088565 0.5306700000000001 -5.0982225" stroke-width="0.5"></path><path stroke="#120071" stroke-linecap="round" stroke-linejoin="round" d="M71.9885775 141.7676925c-5.486449500000001 -3.5181825000000004 -10.199736750000001 -8.1146625 -13.85328 -13.512135" stroke-width="0.5"></path><path stroke="#120071" stroke-linecap="round" stroke-linejoin="round" d="M135.93132 74.9631225c0.5516175000000001 -0.01665825 1.0982475 -0.099351 1.629915 -0.2463825l-1.97106 1.8762975000000002" stroke-width="0.5"></path><path stroke="#120071" stroke-linecap="round" stroke-linejoin="round" d="m185.31954 80.09925 3.7336425 -1.7057250000000002c2.368065 -1.0802925 2.394 -2.232405 -0.4359075 -1.326675 -0.17157 0.0548625 -4.378027500000001 1.3057275 -5.041365000000001 1.402485 -0.5117175 0.0748125 -1.3965 0.1506225 -1.49625 -0.189525 -0.38004750000000004 -1.29675 1.197 -4.799970000000001 0.0947625 -5.155080000000001 -0.7191975 -0.23042250000000003 -1.9481175000000002 2.0299125000000005 -2.7291600000000003 3.6578325 -0.5466300000000001 1.139145 -1.49625 1.326675 -2.7481125 1.3835325" stroke-width="0.5"></path><path stroke="#120071" stroke-linecap="round" stroke-linejoin="round" d="M184.63725 80.17506s5.6857500000000005 -0.69825 6.0648 -0.7581c2.9545950000000003 -0.42992250000000004 2.7481125 0.6852825000000001 0.22743000000000002 1.3835325 -2.4069675 0.6663300000000001 -5.3067 1.49625 -5.3067 1.49625" stroke-width="0.5"></path><path stroke="#120071" stroke-linecap="round" stroke-linejoin="round" d="M184.63725 82.2787875c1.8653250000000001 0.05566050000000001 3.7316475000000002 0.005087250000000001 5.590987500000001 -0.15162 2.9745450000000004 -0.23241750000000003 2.6523525 0.7581 0.13266750000000002 1.3835325 -1.554105 0.42473550000000004 -3.138135 0.7351575 -4.738125 0.9286725000000001" stroke-width="0.5"></path><path stroke="#120071" stroke-linecap="round" stroke-linejoin="round" d="M177.30263250000002 87.263295s4.1126925000000005 -0.26932500000000004 4.908697500000001 -0.34114500000000003c1.5341550000000002 -0.13965000000000002 3.110205 -0.38403750000000003 4.6433625 -0.5875275 0.5306700000000001 -0.0708225 1.1561025 -0.16758 1.8762975000000002 -0.29925 2.655345 -0.49875 3.050355 -1.48428 0.037905 -1.402485 -1.6169475 0.0385035 -3.2328975000000004 -0.11421375000000002 -4.813935 -0.45486000000000004" stroke-width="0.5"></path><path stroke="#120071" stroke-linecap="round" stroke-linejoin="round" d="M184.523535 79.26534000000001c0.2882775 2.3606835000000004 -0.2264325 4.74959625 -1.4593425000000002 6.783" stroke-width="0.5"></path><path stroke="#120071" stroke-linecap="round" stroke-linejoin="round" d="M182.28714000000002 79.227435c-0.44488500000000003 1.1761522500000001 -1.12917 2.2467690000000005 -2.0109600000000003 3.1441200000000005 -0.8807925000000001 0.8972512500000001 -1.9381425 1.6013865 -3.106215 2.0678175" stroke-width="0.5"></path><path stroke="#120071" stroke-linecap="round" stroke-linejoin="round" d="M145.8933525 89.90567250000001c-0.13266750000000002 0.37905 -0.26533500000000004 0.7770525 -0.416955 1.197 -0.98553 -0.6633375 -1.8214350000000001 -1.0922625000000001 -2.1037275 -1.326675 0.8528625000000001 0.034912500000000006 1.6867725000000002 0.09177 2.5206825000000004 0.129675Z" stroke-width="0.5"></path><path stroke="#120071" stroke-linecap="round" stroke-linejoin="round" d="m126.72140250000001 87.7371075 2.0658225000000003 -2.9755425000000004c-0.5366550000000001 1.17236175 -0.815955 2.446269 -0.81795 3.7356375" stroke-width="0.5"></path><path stroke="#120071" stroke-linecap="round" stroke-linejoin="round" d="M133.56525000000002 78.48828750000001c0.6852825000000001 0 1.5710625 -0.588525 2.0279175 -1.89525 0.18354 -0.52618125 0.29825250000000003 -1.074108 0.34114500000000003 -1.629915 -1.781535 0.0189525 -4.0698 -0.89775 -1.4782950000000001 -6.72714 0.5576025000000001 -1.25286 1.63989 -3.1690575 2.9845200000000003 -2.8757925 1.3077225000000001 0.2862825 2.2054725 2.60148 2.0947500000000003 4.0897499999999996 -0.044887500000000004 0.6393975000000001 0.399 0.48279 0.9246825000000001 0.1087275 1.46832 -1.0493700000000001 2.5017300000000002 1.458345 -0.2463825 2.6334000000000004 -0.1825425 0.20049750000000002 -0.31920000000000004 0.4389 -0.399 0.69825 -0.7092225 2.9925 -0.73416 5.4573225 2.2742999999999998 6.14061" stroke-width="0.5"></path><path stroke="#120071" stroke-linecap="round" stroke-linejoin="round" d="M136.15875 65.73525000000001c3.8284050000000005 -3.7336425 15.199905000000001 -10.2912075 13.645800000000001 -2.6343975 0 0 8.412915 -7.2388575 11.5221225 -4.662315 3.0922500000000004 2.5595849999999998 -8.812912500000001 16.2792 -21.5669475 18.894645" stroke-width="0.5"></path><path stroke="#120071" stroke-linecap="round" stroke-linejoin="round" d="M176.37396 88.28673c-2.2433775000000002 0 -3.1231725 -11.0433225 -0.8528625000000001 -11.21988 -12.1695 1.29675 -24.78987 3.3266625000000003 -33.430215000000004 1.9521075 -3.006465 3.7074082500000003 -5.4593175 7.83147225 -7.281750000000001 12.243314999999999 -1.1571 -4.15269225 -1.5780450000000001 -8.47605675 -1.2438825000000002 -12.773985 -1.6289175 -0.13266750000000002 -19.4063625 -11.920125 -26.8916025 -16.2981525 -1.6229325000000001 1.0978485 -3.0054675 2.5138995 -4.063815 4.16226825 -1.0593450000000002 1.6482690000000002 -1.77156 3.4945417500000002 -2.0957475 5.42669925l27.458182500000003 16.718100000000003c-0.006982500000000001 0.3062325 0 0.6274275 0.016957500000000004 0.9705675 0.14064749999999998 2.54163 1.1132100000000003 6.1615575 3.8513475000000006 11.98995 3.3865125000000003 1.0104674999999999 8.635357500000001 -0.84987 11.788455 -2.6723025 -0.1995 -2.7700575 1.414455 -6.2643 2.2673175000000003 -8.87775 10.1954475 0.46583250000000004 19.932045 -0.34214250000000007 30.477615 -1.6209375000000001Z" stroke-width="0.5"></path><path stroke="#120071" stroke-linecap="round" stroke-linejoin="round" d="m131.85653250000001 101.45772000000001 -16.3739625 17.530065000000004c-2.9575875 3.1590825 -5.1151800000000005 6.980505000000001 -6.2912325000000004 11.144070000000001l-6.1216574999999995 21.395377500000002c1.689765 1.4922600000000001 3.7146900000000005 2.5536000000000003 5.9042025 3.0922500000000004 2.188515 0.5386500000000001 4.4757825 0.5386500000000001 6.6642975 0l6.28425 -22.764945c18.5963925 -16.277205000000002 15.410377500000001 -13.4951775 17.4732075 -15.274717500000001l10.1395875 15.44529c0.5955075 0.90573 1.3805399999999999 1.6708125 2.3002350000000003 2.2443750000000002 0.9206925000000001 0.572565 1.953105 0.939645 3.0294075 1.0743075 1.0753050000000002 0.13566000000000003 2.16657 0.03591 3.1999800000000005 -0.2922675 1.0334100000000002 -0.32718 1.98303 -0.8748075000000001 2.7840225000000003 -1.6049775000000002l19.15998 -17.492160000000002c-0.5037375000000001 -2.172555 -1.51221 -4.195485000000001 -2.9436225 -5.905200000000001 -1.430415 -1.709715 -3.2448675000000002 -3.058335 -5.29473 -3.9361350000000006l-14.844795000000001 13.765500000000001s-2.5585875000000002 -16.88568 -13.322610000000001 -21.093135" stroke-width="0.5"></path><path stroke="#120071" stroke-linecap="round" stroke-linejoin="round" d="m137.8834275 117.88854 -1.326675 -5.6288925 2.8428750000000003 4.32117" stroke-width="0.5"></path><path stroke="#120071" stroke-linecap="round" stroke-linejoin="round" d="M104.26368750000002 152.4369525c-0.7471275 4.019925000000001 -1.8902625000000002 7.9550625 -3.4114500000000003 11.75055 -1.4433825000000002 3.257835 -2.5745475 6.1755225000000005 -2.160585 6.67128 1.4503650000000001 1.7346525000000002 6.384 -5.7585675 10.044825000000001 -7.6757625 0.871815 -0.432915 1.65186 -1.0314150000000002 2.29425 -1.7625825 1.2857775 -1.5181950000000002 0.5675775 -3.2787825 2.064825 -6.44385" stroke-width="0.5"></path><path stroke="#120071" stroke-linecap="round" stroke-linejoin="round" d="M179.23578750000001 113.62422750000002c3.138135 -2.6713050000000003 6.428887500000001 -5.1580725 9.855300000000002 -7.447335000000001 2.9745450000000004 -1.9720575000000002 5.4952275 -3.8284050000000005 5.4194175 -4.4538375 -0.26832750000000005 -2.236395 -8.488725 1.3875225 -12.583462500000001 1.0423875 -0.97356 -0.101745 -1.957095 -0.017955 -2.8997325000000003 0.2463825 -1.89525 0.572565 -2.1416325 2.3690625 -5.1171750000000005 4.245360000000001" stroke-width="0.5"></path><path stroke="#120071" stroke-linecap="round" stroke-linejoin="round" d="M100.11309000000001 60.02955c0 -4.189500000000001 3.257835 -11.999925 4.5296475 -12.640320000000001 0.03391500000000001 -0.015361500000000002 0.0708225 -0.02184525 0.10673250000000001 -0.0185535 0.0369075 0.00329175 0.07182 0.01605975 0.1027425 0.037107 0.029925 0.021147000000000003 0.053865 0.0496755 0.06982500000000001 0.082992 0.015960000000000002 0.0333165 0.0229425 0.07022400000000001 0.019950000000000002 0.10693200000000001 -0.4359075 4.474785 -3.3386325 12.11763 0.7072275 15.336562500000001" stroke-width="0.5"></path><path stroke="#120071" stroke-linecap="round" stroke-linejoin="round" d="M101.00385750000001 69.8658975c-1.4593425000000002 -0.98553 -3.5181825000000004 -2.6932500000000004 -3.449355 -4.359075000000001 0.1905225 -4.6044599999999996 0.16159500000000002 -6.766042500000001 0.17057250000000002 -8.5854825 0.006982500000000001 -1.3456275 1.06533 -1.38453 1.781535 0.947625 0.628425 2.0458725 1.2887700000000002 4.927650000000001 1.2887700000000002 4.927650000000001" stroke-width="0.5"></path><path stroke="#120071" stroke-linecap="round" stroke-linejoin="round" d="M104.05521 52.90341c0.399 -0.6633375 0.8309175 -1.3466250000000002 1.0044825 -1.6289175 1.266825 -2.060835 1.7755500000000002 -1.5561 1.66782 -1.175055 -0.4219425 1.4902650000000002 -1.44039 3.732645 -1.781535 5.1161775 -0.508725 2.0358975 -1.374555 4.877775 0.2394 7.295715" stroke-width="0.5"></path><path stroke="#120071" stroke-linecap="round" stroke-linejoin="round" d="M84.70570500000001 120.2985s-3.7715475000000005 0.8149575 -8.86977 1.44039" stroke-width="0.5"></path><path stroke="#120071" stroke-linecap="round" stroke-linejoin="round" d="M49.929862500000006 103.9025925c0.49256550000000004 -0.8209425 1.14283575 -1.5361500000000001 1.913205 -2.1037275v0.07581c6.102705 0.871815 10.68921 0.83391 15.427335 -0.399 -0.06743099999999999 1.2777975 -0.283689 2.543625 -0.6443850000000001 3.7715475000000005 5.76026325 -0.13266750000000002 11.534092500000002 0.0249375 17.3215875 0.4738125 1.3552035 0.1047375 2.6711055 0.5037375000000001 3.85603575 1.1700675 1.18493025 0.6653325000000001 2.21016075 1.582035 3.00417075 2.6852700000000005 0.7940100000000001 1.1032350000000002 1.3375477500000001 2.3670675000000005 1.592808 3.7017225000000002 0.25526025 1.3346550000000001 0.2160585 2.70921 -0.114912 4.0279050000000005 -2.1948990000000004 9.283732500000001 -4.90261275 18.4387875 -8.110672500000002 27.423270000000002 -4.290846 0.7112175000000001 -8.691417000000001 -0.2443875 -12.3001725 -2.6723025 0.94313625 -6.83886 2.259138 -13.6208625 3.94212 -20.3160825 -5.7226575 0.69825 -14.230335 1.3396425 -20.049750000000003 -0.26533500000000004 -3.4483575 -0.9506175 -6.259312500000001 -2.9356425 -7.48125 -6.3111825 -1.3955025 -3.8304 -0.1386525 -8.476754999999999 1.64388 -11.261775Z" stroke-width="0.5"></path><path stroke="#120071" stroke-linecap="round" stroke-linejoin="round" d="M66.64497 105.26717250000002c-0.947625 0.0189525 -1.8762975000000002 0.056857500000000005 -2.80497 0.0947625" stroke-width="0.5"></path><path stroke="#120071" stroke-linecap="round" stroke-linejoin="round" d="m61.246500000000005 122.34138 -7.32165 13.9300875c-0.66962175 1.27281 -1.60128675 2.39001 -2.73364875 3.2767875 -1.132362 0.8877750000000001 -2.43978525 1.5251775 -3.8361855000000005 1.8703125 -1.39640025 0.3461325 -2.85015675 0.3920175 -4.26560925 0.13466250000000002 -1.41535275 -0.2563575 -2.76038175 -0.8099700000000001 -3.9465090000000003 -1.6239299999999999l-17.6786925 -12.109650000000002c1.5561 -5.1800175 3.6817725 -8.5555575 7.9181550000000005 -11.1909525l13.989937500000002 8.956552499999999 4.927650000000001 -10.423875" stroke-width="0.5"></path><path stroke="#120071" stroke-linecap="round" stroke-linejoin="round" d="m52.354785 120.01122000000001 7.2209025 5.5151775" stroke-width="0.5"></path><path stroke="#120071" stroke-linecap="round" stroke-linejoin="round" d="m58.590157500000004 78.241905 -2.2742999999999998 -1.554105c0.6549585 0.07331625 1.3149045000000001 0.09226875000000001 1.973055 0.056857500000000005" stroke-width="0.5"></path><path stroke="#120071" stroke-linecap="round" stroke-linejoin="round" d="M62.83551750000001 78.7157175c-0.34114500000000003 0.2084775 -0.6822900000000001 0.399 -1.023435 0.60648 -0.3704715 0.2910705 -0.8289225 0.44777775000000003 -1.3000417499999999 0.44428650000000003 -0.471219 -0.0033915 -0.927276 -0.16678199999999999 -1.29345825 -0.463239 -0.580944 -0.72827475 -0.9065280000000001 -1.6272217500000001 -0.9266775 -2.5585875000000002 3.04836 -0.1785525 3.2348925 -2.228415 -0.2104725 -8.3001975 -0.03591 0.176757 -0.11810400000000001 0.34084575 -0.23810325000000002 0.47550825 -0.11999925000000002 0.13456275 -0.27361425 0.23501100000000003 -0.4450845 0.29087100000000005 -0.17157 0.05586000000000001 -0.35481075 0.0652365 -0.531069 0.027132 -0.17635800000000001 -0.038004750000000004 -0.3393495 -0.12219375 -0.47251575 -0.24388875000000002 -0.06812925 0.1418445 -0.16748025 0.26643225000000004 -0.29057175 0.36448650000000005 -0.1230915 0.09805425000000001 -0.26683125 0.1669815 -0.4203465 0.20159475000000002 -0.15351525000000002 0.034613250000000005 -0.312816 0.034114500000000006 -0.46613175 -0.0015960000000000002 -0.15331575 -0.035610750000000004 -0.296457 -0.1055355 -0.41895 -0.20438775 -0.04738125 0.16468725 -0.13536075 0.31471125 -0.25595850000000003 0.436506 -0.12049800000000001 0.12179475000000001 -0.26972399999999996 0.2112705 -0.43381275 0.2603475 -0.16418850000000001 0.049077 -0.33805275 0.056059500000000005 -0.5056327500000001 0.02044875 -0.16758 -0.0357105 -0.32348925 -0.112917 -0.4534635 -0.22453725 0.6443850000000001 1.1172000000000002 0.9097200000000001 2.368065 0.037905 1.5152025 -0.98553 -0.96558 -2.04687 0.45486000000000004 -0.4917675 1.6119600000000003 0.2910705 0.260946 0.50503425 0.5967045 0.6186495 0.970767s0.12249300000000002 0.7721647500000001 0.0257355 1.1509155c0.8991465000000001 1.31161275 1.2585457500000001 2.9190840000000002 1.003485 4.4887500000000005 -0.17057250000000002 0.798 -1.3077225000000001 1.4214375000000001 -2.6932500000000004 1.0613400000000002 1.6528575 2.9695575 5.0543325 5.7057 8.3620425 4.536630000000001 3.6398775000000003 -1.2817875 2.822925 -6.4667925 2.822925 -6.4667925Z" stroke-width="0.5"></path><path stroke="#120071" stroke-linecap="round" stroke-linejoin="round" d="M86.3835 63.14175c4.6812675 -3.5401275 4.865805 -11.025367500000002 4.865805 -16.392915000000002 0 -0.17057250000000002 0.24538500000000002 -0.399 0.3780525 -0.29925 1.1840325 0.77007 2.7590850000000002 8.7510675 2.3800350000000003 12.950542500000001" stroke-width="0.5"></path><path stroke="#120071" stroke-linecap="round" stroke-linejoin="round" d="M91.7550375 69.50580000000001c1.34293425 -0.5408445000000001 2.4553462500000003 -1.53265875 3.146115 -2.80497 1.4430832500000002 -3.2119500000000003 1.9482172500000001 -6.76654125 1.4573475000000002 -10.2533025 -0.257355 -1.514205 -1.043385 -1.3835325 -1.7246775 0.9097200000000001 -0.6074775 2.04687 -1.554105 4.794982500000001 -1.554105 4.794982500000001" stroke-width="0.5"></path><path stroke="#120071" stroke-linecap="round" stroke-linejoin="round" d="M86.3046975 63.091875c1.3047300000000002 -1.596 2.5326525 -4.4289000000000005 2.475795 -5.9241525 -0.15311625 -1.6763985000000001 -0.44478525 -3.3372360000000003 -0.871815 -4.965555 -0.085785 -0.399 0.4119675 -0.9296700000000001 1.8573450000000002 1.7955" stroke-width="0.5"></path><path stroke="#120071" stroke-linecap="round" stroke-linejoin="round" d="M68.653935 87.3959625c-0.0708225 -0.8402940000000001 -0.191121 -1.6756005 -0.3600975 -2.5017300000000002L69.78809249999999 86.7825" stroke-width="0.5"></path><path stroke="#120071" stroke-linecap="round" stroke-linejoin="round" d="M67.289355 101.4766725h0.0189525c0.8149575 -4.813935 1.7057250000000002 -9.6847275 1.3456275 -14.08071 7.5680325 -3.97005 17.186925000000002 -11.665762500000001 23.142 -16.9046325 0.6753075000000001 -0.6753075000000001 -1.689765 -3.6658125 -2.340135 -4.43289 -0.6673275000000001 -0.7870275000000001 -3.2767875 -3.684765 -4.1974800000000005 -3.2239200000000006 -6.956664750000001 5.980411500000001 -14.45726625 11.297286 -22.403850000000002 15.8811975" stroke-width="0.5"></path><path stroke="#120071" stroke-linecap="round" stroke-linejoin="round" d="M82.2608325 144.970665c-0.48837600000000003 1.9341525000000002 -0.86184 3.8962350000000003 -1.1181975 5.875275 -2.96566725 -1.9421325000000003 -5.5590675 -4.40097 -7.656810000000001 -7.2588075000000005 0.07590975000000001 -0.165585 0.139251 -0.33615750000000005 0.189525 -0.5117175" stroke-width="0.5"></path><path stroke="#120071" stroke-linecap="round" stroke-linejoin="round" d="M73.4668725 150.822c-0.6109687500000001 -1.1421375 -1.06941975 -2.3590875000000002 -1.3635825000000001 -3.6199275 -0.322392 0.76209 -0.49186725000000003 1.5800400000000001 -0.49875 2.4079650000000004 0.2384025 1.1800425 0.6537615 2.3171925 1.2319125000000002 3.3725475 1.9521075 3.6388800000000003 3.904215 11.257785 5.3067 11.163022500000002 0.2084775 -0.0189525 0.4359075 -0.416955 0.6633375 -1.0802925 -1.4922600000000001 -1.73964 -3.4064625000000004 -8.6952075 -5.3396175 -12.243314999999999Z" stroke-width="0.5"></path><path stroke="#120071" stroke-linecap="round" stroke-linejoin="round" d="M73.4668725 143.606085c-0.43491 1.2508650000000001 -0.98553 2.5017300000000002 -1.3635825000000001 3.5999775 0.29416275000000003 1.2608400000000002 0.75261375 2.47779 1.3635825000000001 3.6199275 1.9142025000000003 3.5441175 3.8284050000000005 10.499685 5.344605 12.243314999999999 0.83391 -2.4827775 1.7246775 -8.717152500000001 2.312205 -12.224362500000002 -2.95808625 -1.9441275000000002 -5.55009 -4.393987500000001 -7.656810000000001 -7.2388575v0Z" stroke-width="0.5"></path><path stroke="#120071" stroke-linecap="round" stroke-linejoin="round" d="M22.2791625 125.41268250000002c-1.6725082500000001 -0.943635 -3.400278 -1.785525 -5.174032500000001 -2.5206825000000004 2.65604325 -2.3451225 5.711685 -4.19349 9.02139 -5.4583200000000005 0.5117175 0.34114500000000003 0.5875275 0.4738125 1.0802925 0.7581" stroke-width="0.5"></path><path stroke="#120071" stroke-linecap="round" stroke-linejoin="round" d="M20.8387725 114.0411825c-1.2015885 -0.08977500000000001 -2.4098602500000004 0.005985000000000001 -3.5820225000000003 0.285285 -4.01793 0.9276750000000001 -11.901182475 0.776055 -12.169509975000002 2.1595875 -0.037905 0.2084775 0.28428749999999997 0.5306700000000001 0.8528625000000001 0.9286725000000001 2.0658225000000003 -1.0044825 9.285737475000001 -1.0044825 13.246809975000001 -1.89525 1.25974275 -0.2962575 2.5544977500000003 -0.4179525 3.8473575 -0.35910000000000003 -0.6485745 -0.5177025000000001 -1.3955025 -0.8987475 -2.1954975 -1.1191950000000002v0Z" stroke-width="0.5"></path><path stroke="#120071" stroke-linecap="round" stroke-linejoin="round" d="M23.018310000000003 115.1404275c-1.29285975 -0.056857500000000005 -2.5874152500000003 0.0648375 -3.8473575 0.3600975 -3.94212 0.9097200000000001 -11.162034975 0.9097200000000001 -13.227857475000002 1.9142025000000003 2.160585 1.4782950000000001 7.940109975 3.9989775000000005 11.162034975 5.4772725 2.6635245 -2.3491125 5.724951750000001 -4.2044625 9.040342500000001 -5.4772725 -1.1181975 -0.7581 -2.1795375000000003 -1.6109625 -3.1271625 -2.2742999999999998Z" stroke-width="0.5"></path><path stroke="#120071" stroke-linecap="round" stroke-linejoin="round" d="M10.984470000000002 88.02139500000001c-0.720195 0.2463825 -1.6498749750000001 0.528675 -2.5935099750000004 0.8149575 -1.7446275000000002 0.52668 -2.388015 0.2084775 -0.6443850000000001 -0.98553 1.6485882 -1.1193945 3.467619225 -1.9642770000000003 5.386509975 -2.5017300000000002" stroke-width="0.5"></path><path stroke="#120071" stroke-linecap="round" stroke-linejoin="round" d="M14.868735000000001 83.1506025c-0.526281 0.513912 -1.0025872500000002 1.0767015 -1.4224350000000001 1.6807875 -0.7535115 1.12887075 -1.26313425 2.4025785 -1.49625 3.7396275" stroke-width="0.5"></path><path stroke="#120071" stroke-linecap="round" stroke-linejoin="round" d="M10.321132500000001 86.39148000000002c-6.311192475 2.2174425 -7.1032074750000005 1.183035 -1.819449975 -1.2319125000000002 2.038700475 -0.87271275 4.160981475 -1.5351525 6.3341349750000004 -1.9770450000000002" stroke-width="0.5"></path><path stroke="#120071" stroke-linecap="round" stroke-linejoin="round" d="M22.681155 88.0583025c-2.6403825 -0.14763 -8.2742625 0.8369025 -12.360022500000001 2.1945 -1.781544975 0.5875275 -2.7341574750000004 0.1995 -0.758109975 -1.2887700000000002 0.832523475 -0.62234025 1.724687475 -1.16059125 2.663334975 -1.6069725000000001" stroke-width="0.5"></path><path stroke="#120071" stroke-linecap="round" stroke-linejoin="round" d="M11.741572500000002 83.9466075c-2.121692475 0.492765 -6.957572475 0.6743100000000001 0.5685749999999999 -1.7625825 1.175055 -0.38004750000000004 2.5935 -0.69825 3.9231675 -0.98553 0.07511175 -0.49416150000000003 -0.011371500000000001 -0.9992955000000001 -0.2463825 -1.44039 -0.798 -1.3366500000000001 -0.528675 -1.87929 0.7770525 -1.0802925 1.6571467500000001 1.1277735000000002 3.62481525 1.7108122500000003 5.6288925 1.66782" stroke-width="0.5"></path><path stroke="#120071" stroke-linecap="round" stroke-linejoin="round" d="M16.233315 81.19650000000001c-0.008379 0.5003460000000001 0.08658300000000001 0.9971010000000001 0.27900075 1.459143 0.19241775 0.46194225000000005 0.4782015 0.87929625 0.8393962500000001 1.225728 0.361095 0.34643175000000004 0.7899202500000001 0.61455975 1.25954325 0.78772575 0.46952325000000006 0.17306625 0.9697695 0.24728025000000003 1.4694172500000002 0.21815325000000002" stroke-width="0.5"></path><path stroke="#120071" stroke-linecap="round" stroke-linejoin="round" d="M58.07844 68.4634125c-0.037905 0.7391475000000001 -0.98553 1.0423875 -1.6867725000000002 0.5496225000000001 -0.07182 0.1382535 -0.1729665 0.25925025 -0.2962575 0.354312 -0.12339075000000001 0.09516150000000001 -0.266133 0.16229325000000003 -0.41805225 0.19650750000000003 -0.15201900000000002 0.034314000000000004 -0.309624 0.03501225 -0.46194225000000005 0.00209475 -0.15231825000000002 -0.03301725 -0.29555925000000005 -0.09875250000000001 -0.419748 -0.19281675 -0.04748100000000001 0.16458750000000003 -0.13556025 0.31451175000000003 -0.256158 0.43620675000000003 -0.12059775 0.121695 -0.26982375000000003 0.211071 -0.43401225 0.26004825 -0.16408875 0.04897725 -0.337953 0.05586000000000001 -0.5054332500000001 0.0201495 -0.16748025 -0.0357105 -0.3233895 -0.11301675 -0.45326400000000006 -0.22463700000000003 0.6254325000000001 1.1181975 0.9097200000000001 2.37006 0.037905 1.5162 -0.98553 -0.96558 -2.0428800000000003 0.4319175 -0.492765 1.6109625 0.29146950000000005 0.26084625 0.5057325 0.59680425 0.6194475 0.9710662500000001 0.11361525 0.37436175000000005 0.12219375 0.7726635 0.0249375 1.15161375 -1.5720600000000002 -2.6334000000000004 -4.37703 -4.7181750000000005 -5.021415 -5.36256 -1.49625 -1.49625 -0.4359075 -2.4448725000000002 0.83391 -1.89525 -0.29925 -0.8149575 0.6633375 -1.49625 1.5531075 -0.8149575 -0.2463825 -0.798 0.9486225 -1.4593425000000002 1.97106 -0.6254325000000001 -0.17057250000000002 -0.871815 1.3077225000000001 -1.2319125000000002 2.160585 -0.4738125 -0.13266750000000002 -0.7770525 1.2349050000000001 -0.835905 1.8573450000000002 0.189525 0.49875 0.8129625 1.3875225 2.3311575 1.3875225 2.3311575Z" stroke-width="0.5"></path><path stroke="#120071" stroke-linecap="round" stroke-linejoin="round" d="M50.3847225 93.23233499999999 51.770250000000004 91.45080000000002c-0.6812925000000001 -0.13167 -1.3256775 -0.26533500000000004 -1.9700625000000003 -0.3780525" stroke-width="0.5"></path><path stroke="#120071" stroke-linecap="round" stroke-linejoin="round" d="M51.654540000000004 80.64887250000001c-0.2463825 -0.0947625 -12.1695 -3.2029725 -28.9205175 -1.596 -0.90842325 3.392298 -0.8043840000000001 6.976315500000001 0.29925 10.310160000000002 8.9569515 -0.72827475 17.97225675 -0.15261750000000002 26.7639225 1.7087175000000001 1.0677240000000001 3.49095075 1.75370475 7.087337250000001 2.0458725 10.7261175" stroke-width="0.5"></path><path stroke="#120071" stroke-linecap="round" stroke-linejoin="round" d="M39.922942500000005 58.930305000000004c0.04438875 0.5135130000000001 -0.06443850000000001 1.028622 -0.31271625000000003 1.48029 -0.2483775 0.45156825 -0.62493375 0.81944625 -1.0822875 1.0571505 -0.45735375000000006 0.2376045 -0.9749565000000001 0.33426225000000004 -1.48717275 0.2779035 -0.512316 -0.0564585 -0.9964027500000001 -0.2635395 -1.3910137500000002 -0.5950087500000001 -0.39471075 -0.331569 -0.68219025 -0.77256375 -0.82622925 -1.2674235 -0.144039 -0.49485975 -0.13815375000000002 -1.0213402500000002 0.016957500000000004 -1.5128085 0.155211 -0.49156800000000006 0.45246600000000003 -0.92597925 0.8544585000000001 -1.24857075 0.40199250000000003 -0.32249174999999997 0.8906677500000001 -0.5187 1.4040810000000001 -0.5635875 0.68857425 -0.057855000000000004 1.37206125 0.15910125 1.901235 0.60358725 0.529074 0.444486 0.8608425000000001 1.08019275 0.9226875000000001 1.7684677500000001v0Z" stroke-width="0.5"></path><path stroke="#120071" stroke-linecap="round" stroke-linejoin="round" d="M143.81556 149.291835h-8.2064325" stroke-width="0.5"></path><path stroke="#120071" stroke-linecap="round" stroke-linejoin="round" d="M139.7128425 153.40353000000002v-8.224387499999999" stroke-width="0.5"></path><path stroke="#120071" stroke-linecap="round" stroke-linejoin="round" d="M28.728 78.65886c-0.9267772500000001 3.460128 -0.754509 7.1228482500000005 0.492765 10.4807325" stroke-width="0.5"></path><path stroke="#120071" stroke-linecap="round" stroke-linejoin="round" d="M81.69525000000002 65.829015c2.8486605000000003 1.90492575 5.16774825 4.5012187500000005 6.7401075 7.5460875000000005" stroke-width="0.5"></path><path stroke="#120071" stroke-linecap="round" stroke-linejoin="round" d="M176.6961525 78.166095c-0.6633375 0.037905 -1.8383925 0.0947625 -2.1037275 0.11371500000000001 0.492765 -1.5720600000000002 1.366575 -1.5920100000000001 2.1037275 -0.11371500000000001Z" stroke-width="0.5"></path><path stroke="#120071" stroke-linecap="round" stroke-linejoin="round" d="M177.30263250000002 87.263295c-0.4738125 1.2887700000000002 -1.2508650000000001 1.3456275 -1.9142025000000003 0.15162 0.5496225000000001 -0.03391500000000001 1.21296 -0.0947625 1.9142025000000003 -0.15162Z" stroke-width="0.5"></path><path stroke="#120071" stroke-linecap="round" stroke-linejoin="round" d="M140.84001750000002 100.14900000000002c7.6757625 5.386500000000001 9.775500000000001 12.035835 13.0004175 23.84025 0.11271750000000001 0.4119675 0.32917500000000005 0.7880250000000001 0.628425 1.0932600000000001 0.3002475 0.3042375 0.6723150000000001 0.52668 1.0822875 0.6473775 0.4099725 0.1197 0.843885 0.13266750000000002 1.2598425 0.037905 0.416955 -0.09576000000000001 0.8019900000000001 -0.29526 1.1191950000000002 -0.5815425l18.028815 -16.337055" stroke-width="0.5"></path><path stroke="#120071" stroke-linecap="round" stroke-linejoin="round" d="m111.02973000000001 154.957635 6.537615000000001 -25.05321 19.2168375 -16.6971525" stroke-width="0.5"></path><path stroke="#120071" stroke-linecap="round" stroke-linejoin="round" d="M62.02056 104.49012c-0.72508275 1.2279225000000002 -1.7035305 2.2872675000000005 -2.8702065000000005 3.10821 -1.166676 0.819945 -2.4948472500000003 1.382535 -3.8958360000000005 1.6488675000000002" stroke-width="0.5"></path><path stroke="#120071" stroke-linecap="round" stroke-linejoin="round" d="M72.91725 135.5891775c1.9182922500000001 1.3835325 4.103715 2.3531025000000003 6.417216750000001 2.846865 2.313402 0.492765 4.704210000000001 0.49875 7.020105750000001 0.016957500000000004" stroke-width="0.5"></path><path stroke="#120071" stroke-linecap="round" stroke-linejoin="round" d="M34.483575 119.8995c-3.7136925 2.5017300000000002 -6.08475 6.557565 -7.523145 11.67075" stroke-width="0.5"></path><path stroke="#120071" stroke-linecap="round" stroke-linejoin="round" d="m162.406965 114.7992825 -5.2867500000000005 8.3391c-0.005985000000000001 -1.0892700000000002 -0.06882750000000001 -2.1775425 -0.189525 -3.25983" stroke-width="0.5"></path><path stroke="#120071" stroke-linecap="round" stroke-linejoin="round" d="M86.389485 63.14175c2.715195 -2.04687 3.3765375 -5.08725 3.4713000000000003 -7.853317500000001 -0.19421325000000003 -1.9345515000000002 -0.5234880000000001 -3.85304325 -0.98553 -5.7416100000000005 -0.05985 -0.37905 0.4738125 -0.83391 1.554105 1.3456275l0.6254325000000001 1.3605900000000002" stroke-width="0.5"></path><path stroke="#120071" stroke-linejoin="round" d="M97.76298 28.3798725c-1.51909275 0 -3.004071 0.450471 -4.26720525 1.2944557500000002 -1.2630345 0.8439847500000001 -2.247567 2.0434785 -2.82891 3.4469610000000004 -0.581343 1.4034825000000002 -0.733362 2.9478120000000003 -0.43700475 4.43777775 0.29635725 1.4898660000000001 1.027824 2.85853575 2.10203175 3.93264375 1.07420775 1.07420775 2.4427777500000003 1.8056745 3.93264375 2.10203175 1.48996575 0.296457 3.03429525 0.14433825 4.438077000000001 -0.43700475 1.4034825000000002 -0.581343 2.6024775 -1.5658755000000002 3.4463625 -2.82891 0.843885 -1.26313425 1.294755 -2.7481125 1.294755 -4.26720525 0.0019950000000000002 -1.00917075 -0.19551000000000002 -2.0087655 -0.580545 -2.941428 -0.38603250000000006 -0.9327622500000001 -0.951615 -1.78023825 -1.6648275000000001 -2.4937500000000004 -0.71421 -0.7136115000000001 -1.5610875 -1.2792937500000001 -2.4937500000000004 -1.6646280000000002 -0.9326625000000001 -0.38533425 -1.93245675 -0.5827395000000001 -2.9416275 -0.580944Z" stroke-width="0.5"></path><path stroke="#120071" stroke-linejoin="round" d="M97.014855 31.889077500000003a0.748125 0.748125 0 1 0 1.49625 0 0.748125 0.748125 0 1 0 -1.49625 0" stroke-width="0.5"></path><path stroke="#120071" stroke-linecap="round" stroke-linejoin="round" d="M97.75500000000001 34.663125v6.172031250000001" stroke-width="0.5"></path></g></g></svg>