<svg xmlns="http://www.w3.org/2000/svg" fill="none" viewBox="-0.25 -0.25 200 200" id="Bandaid-On-Heart-4--Streamline-Bangalore.svg"><desc>Bandaid On Heart 4 Streamline Illustration: https://streamlinehq.com</desc><g id="bandaid-on-heart-4--health-wellness-bandaid-on-heart"><g id="heart"><path id="vector" fill="#e69ece" d="M139.0624725 19.491948c-19.784415 0.109725 -36.535432500000006 13.7565225 -42.403725 32.624235000000006 -6.5166675000000005 -20.948497500000002 -26.448712500000003 -35.4581325 -49.0480725 -32.1564075 -37.037175000000005 5.412435 -51.357255075000005 53.057025 -24.8487225 80.6879745l73.9656225 77.11872 36.9075 -38.783797500000006 -14.922600000000001 -14.3310825 -13.865250000000001 14.420857500000002c-3.118185 3.2398800000000003 -7.395066 5.108197500000001 -11.89049925 5.1939825 -4.495533 0.085785 -8.84114175 -1.6169475 -12.080922000000001 -4.7351325 -3.2396805 -3.1171875 -5.10809775 -7.394467500000001 -5.19428175 -11.8902 -0.08618400000000001 -4.4957325 1.6170472500000002 -8.8408425 4.734933000000001 -12.080722500000002l13.865250000000001 -14.421855 -14.417865 -13.867444500000001c-1.6083690000000002 -1.541337 -2.89703925 -3.384717 -3.7920960000000004 -5.4247042500000004 -0.8950567500000001 -2.0399872500000003 -1.3790437500000001 -4.23648225 -1.4242305 -6.4637002500000005 -0.045186750000000005 -2.227218 0.34932450000000004 -4.441468500000001 1.16099025 -6.516069 0.8116657500000001 -2.0746005000000003 2.024526 -3.9687532500000002 3.56915475 -5.5740300000000005 1.544529 -1.605177 3.39060225 -2.8900567500000003 5.432385 -3.7810237500000006 2.04178275 -0.8909670000000001 4.2391755 -1.37046525 6.4665930000000005 -1.4110635000000002 2.22731775 -0.04059825 4.440770250000001 0.35840175 6.513675000000001 1.174257 2.0734035 0.815955 3.9646635000000003 2.03260575 5.5666484999999994 3.58052625l14.418862500000001 13.865250000000001 13.865250000000001 -14.421855c1.54014 -1.61305725 3.3845175 -2.9061165000000004 5.425402500000001 -3.8050635 2.0418825000000003 -0.8988472500000001 4.2403725 -1.3859265 6.4707825 -1.43310825 2.2294125 -0.0472815 4.446855 0.34623225 6.5246475 1.157898 2.0777925 0.811566 3.9750375 2.0254237500000003 5.58201 3.571848 1.6069725000000001 1.5463245 2.8937475 3.3948915 3.7855125000000003 5.439567 0.8907675 2.0445757500000004 1.3705650000000003 4.24506075 1.4094675 6.4752712500000005 0.0389025 2.2302105 -0.36309 4.44615675 -1.1820375 6.52075725 -0.8189475 2.0746005000000003 -2.0398875 3.96715725 -3.5919975 5.568942750000001l-13.865250000000001 14.420059500000002s14.6742225 14.110635000000002 14.79093 14.229337500000002l14.269237500000001 -14.993622c27.816285 -29.351437500000003 7.683742500000001 -80.18104500000001 -32.197305 -79.95860250000001Z" stroke-width="0.5"></path><path id="vector_2" stroke="#120071" stroke-linecap="round" stroke-linejoin="round" d="m156.98854500000002 114.44417250000001 14.271232500000002 -14.993223c27.816285 -29.3494425 7.680750000000001 -80.17905 -32.197305 -79.9566075 -19.784415 0.109725 -36.535432500000006 13.7565225 -42.403725 32.624235000000006 -6.5166675000000005 -20.950492500000003 -26.448712500000003 -35.4601275 -49.0480725 -32.1584025 -37.037175000000005 5.4114375 -51.357255075000005 53.057025 -24.8487225 80.6875755l73.9656225 77.11872 36.9075 -38.783797500000006" stroke-width="0.5"></path><path id="vector_3" stroke="#120071" stroke-linecap="round" stroke-linejoin="round" d="M30.018765000000002 32.9364525c4.779621 0 8.65431 -3.874689 8.65431 -8.65431 0 -4.779621 -3.874689 -8.65431 -8.65431 -8.65431 -4.77972075 0 -8.65431 3.874689 -8.65431 8.65431 0 4.779621 3.87458925 8.65431 8.65431 8.65431Z" stroke-width="0.5"></path></g><g id="bandage"><g id="group"><path id="vector_4" stroke="#120071" stroke-linecap="round" stroke-linejoin="round" d="M107.60232 102.65871c1.0922625000000001 0 1.9770450000000002 -0.8847825 1.9770450000000002 -1.9770450000000002 0 -1.0917637500000001 -0.8847825 -1.9769452500000002 -1.9770450000000002 -1.9769452500000002s-1.9770450000000002 0.8851815000000001 -1.9770450000000002 1.9769452500000002c0 1.0922625000000001 0.8847825 1.9770450000000002 1.9770450000000002 1.9770450000000002Z" stroke-width="0.5"></path><path id="vector_5" stroke="#120071" stroke-linecap="round" stroke-linejoin="round" d="M112.9239825 97.337247c1.0922625000000001 0 1.9770450000000002 -0.8851815000000001 1.9770450000000002 -1.9770450000000002s-0.8847825 -1.9770450000000002 -1.9770450000000002 -1.9770450000000002 -1.9770450000000002 0.8851815000000001 -1.9770450000000002 1.9770450000000002 0.8847825 1.9770450000000002 1.9770450000000002 1.9770450000000002Z" stroke-width="0.5"></path><path id="vector_6" stroke="#120071" stroke-linecap="round" stroke-linejoin="round" d="M118.24664250000001 92.01468675000001c1.0922625000000001 0 1.9770450000000002 -0.8851815000000001 1.9770450000000002 -1.9770450000000002 0 -1.09196325 -0.8847825 -1.9771447500000001 -1.9770450000000002 -1.9771447500000001s-1.9770450000000002 0.8851815000000001 -1.9770450000000002 1.9771447500000001c0 1.0918635 0.8847825 1.9770450000000002 1.9770450000000002 1.9770450000000002Z" stroke-width="0.5"></path><path id="vector_7" stroke="#120071" stroke-linecap="round" stroke-linejoin="round" d="M118.24664250000001 102.65871c1.0922625000000001 0 1.9770450000000002 -0.8847825 1.9770450000000002 -1.9770450000000002 0 -1.0917637500000001 -0.8847825 -1.9769452500000002 -1.9770450000000002 -1.9769452500000002s-1.9770450000000002 0.8851815000000001 -1.9770450000000002 1.9769452500000002c0 1.0922625000000001 0.8847825 1.9770450000000002 1.9770450000000002 1.9770450000000002Z" stroke-width="0.5"></path><path id="vector_8" stroke="#120071" stroke-linecap="round" stroke-linejoin="round" d="M123.56830500000001 97.337247c1.0922625000000001 0 1.9770450000000002 -0.8851815000000001 1.9770450000000002 -1.9770450000000002s-0.8847825 -1.9770450000000002 -1.9770450000000002 -1.9770450000000002 -1.9770450000000002 0.8851815000000001 -1.9770450000000002 1.9770450000000002 0.8847825 1.9770450000000002 1.9770450000000002 1.9770450000000002Z" stroke-width="0.5"></path><path id="vector_9" stroke="#120071" stroke-linecap="round" stroke-linejoin="round" d="M123.56830500000001 107.98137c1.0922625000000001 0 1.9770450000000002 -0.8847825 1.9770450000000002 -1.9770450000000002s-0.8847825 -1.9770450000000002 -1.9770450000000002 -1.9770450000000002 -1.9770450000000002 0.8847825 -1.9770450000000002 1.9770450000000002 0.8847825 1.9770450000000002 1.9770450000000002 1.9770450000000002Z" stroke-width="0.5"></path><path id="vector_10" stroke="#120071" stroke-linecap="round" stroke-linejoin="round" d="M128.8899675 102.65871c1.0922625000000001 0 1.9770450000000002 -0.8847825 1.9770450000000002 -1.9770450000000002 0 -1.0917637500000001 -0.8847825 -1.9769452500000002 -1.9770450000000002 -1.9769452500000002s-1.9770450000000002 0.8851815000000001 -1.9770450000000002 1.9769452500000002c0 1.0922625000000001 0.8847825 1.9770450000000002 1.9770450000000002 1.9770450000000002Z" stroke-width="0.5"></path><path id="vector_11" stroke="#120071" stroke-linecap="round" stroke-linejoin="round" d="M112.9239825 107.98137c1.0922625000000001 0 1.9770450000000002 -0.8847825 1.9770450000000002 -1.9770450000000002s-0.8847825 -1.9770450000000002 -1.9770450000000002 -1.9770450000000002 -1.9770450000000002 0.8847825 -1.9770450000000002 1.9770450000000002 0.8847825 1.9770450000000002 1.9770450000000002 1.9770450000000002Z" stroke-width="0.5"></path><path id="vector_12" stroke="#120071" stroke-linecap="round" stroke-linejoin="round" d="M118.24664250000001 113.30303250000001c1.0922625000000001 0 1.9770450000000002 -0.8847825 1.9770450000000002 -1.9770450000000002s-0.8847825 -1.9770450000000002 -1.9770450000000002 -1.9770450000000002 -1.9770450000000002 0.8847825 -1.9770450000000002 1.9770450000000002 0.8847825 1.9770450000000002 1.9770450000000002 1.9770450000000002Z" stroke-width="0.5"></path></g><path id="vector_13" stroke="#120071" stroke-linecap="round" stroke-linejoin="round" d="m156.6284475 114.08706750000002 -14.430832500000001 -13.8722325 13.865250000000001 -14.419760250000001c1.5610875 -1.60028925 2.7900075 -3.4934445000000003 3.6159375000000002 -5.5706385 0.82593 -2.07709425 1.2319125000000002 -4.29713025 1.1960025 -6.5322285 -0.034912500000000006 -2.2349985 -0.512715 -4.44087 -1.40448 -6.490533 -0.891765 -2.0496630000000002 -2.180535 -3.902619 -3.792495 -5.4521355 -1.6109625 -1.54941675 -3.5121975 -2.7648705 -5.594977500000001 -3.5762370000000003 -2.08278 -0.81126675 -4.3062075 -1.20248625 -6.540607500000001 -1.1511149999999999 -2.2353975000000004 0.051471 -4.4378775 0.54453525 -6.4807575 1.45086375 -2.0428800000000003 0.90622875 -3.8872575 2.2078665 -5.425402500000001 3.8299012500000003l-13.865250000000001 14.421855 -14.418862500000001 -13.865250000000001c-1.5920100000000001 -1.59310725 -3.4862625000000005 -2.8525507500000002 -5.57173575 -3.704715 -2.0850742500000004 -0.8522640000000001 -4.319175 -1.2800917500000002 -6.5716297500000005 -1.2585457500000001 -2.252355 0.021546000000000003 -4.47787725 0.49206675000000005 -6.546293250000001 1.3839315 -2.068416 0.8919645 -3.93813 2.18741775 -5.49991575 3.8105497500000003 -1.56178575 1.623132 -2.7841222500000002 3.541524 -3.59568825 5.64275775 -0.8114662500000001 2.10123375 -1.1958030000000002 4.3432147500000005 -1.1305665 6.5947717500000005 0.06533625000000001 2.251557 0.57904875 4.46750325 1.511013 6.518163750000001 0.93196425 2.0507602499999997 2.2635270000000003 3.89493825 3.9166837500000002 5.42490375L94.285695 101.136525l-13.865250000000001 14.421855c-3.0977362500000005 3.2428725000000003 -4.784109750000001 7.5819975 -4.689846 12.065760000000001 0.09426375000000001 4.4837625 1.96138425 8.747077500000001 5.192685750000001 11.857282500000002 3.2312017500000003 3.110205 7.563244500000001 4.8129375 12.047406 4.73613 4.4841615 -0.0768075 8.75535675 -1.9281675000000003 11.87753175 -5.1471l13.865250000000001 -14.420857500000002 14.422852500000001 13.865250000000001c3.2398800000000003 3.1151925000000005 7.5839925 4.815930000000001 12.07773 4.72815 4.4937375 -0.08778 8.7690225 -1.957095 11.884215000000001 -5.196975 3.1151925000000005 -3.2398800000000003 4.815930000000001 -7.5839925 4.72815 -12.07773 -0.08778 -4.4937375 -1.957095 -8.7690225 -5.196975 -11.884215000000001l-0.0009975000000000001 0.0029925000000000004Z" stroke-width="0.5"></path><path id="vector_14" stroke="#120071" stroke-linecap="round" stroke-linejoin="round" d="m117.7758225 76.72470750000001 24.421792500000002 23.4901275" stroke-width="0.5"></path><path id="vector_15" stroke="#120071" stroke-linecap="round" stroke-linejoin="round" d="m94.285695 101.13852 24.42678 23.51307" stroke-width="0.5"></path></g><g id="details"><g id="group_2"><path id="vector_16" stroke="#120071" stroke-linecap="round" stroke-linejoin="round" d="M118.1708325 7.21190505V15.738555000000002" stroke-width="0.5"></path><path id="vector_17" stroke="#120071" stroke-linecap="round" stroke-linejoin="round" d="M122.43414750000001 11.47514025h-8.52663" stroke-width="0.5"></path></g><g id="group_3"><path id="vector_18" stroke="#120071" stroke-linecap="round" stroke-linejoin="round" d="M186.5195325 17.293458v-5.3984700000000005" stroke-width="0.5"></path><path id="vector_19" stroke="#120071" stroke-linecap="round" stroke-linejoin="round" d="M186.5195325 30.162105750000002v-5.3984700000000005" stroke-width="0.5"></path><path id="vector_20" stroke="#120071" stroke-linecap="round" stroke-linejoin="round" d="m183.28464 22.896216000000003 -4.674285 2.6992350000000003" stroke-width="0.5"></path><path id="vector_21" stroke="#120071" stroke-linecap="round" stroke-linejoin="round" d="m194.4297075 16.461642750000003 -4.675282500000001 2.6992350000000003" stroke-width="0.5"></path><path id="vector_22" stroke="#120071" stroke-linecap="round" stroke-linejoin="round" d="m189.754425 22.896216000000003 4.675282500000001 2.6992350000000003" stroke-width="0.5"></path><path id="vector_23" stroke="#120071" stroke-linecap="round" stroke-linejoin="round" d="m178.610355 16.461642750000003 4.674285 2.6992350000000003" stroke-width="0.5"></path></g><g id="group_4"><path id="vector_24" stroke="#120071" stroke-linecap="round" stroke-linejoin="round" d="M13.508244750000001 120.7763025v-5.3984700000000005" stroke-width="0.5"></path><path id="vector_25" stroke="#120071" stroke-linecap="round" stroke-linejoin="round" d="M13.508244750000001 133.64505v-5.3984700000000005" stroke-width="0.5"></path><path id="vector_26" stroke="#120071" stroke-linecap="round" stroke-linejoin="round" d="m10.27335225 126.37926 -4.6753224 2.6992350000000003" stroke-width="0.5"></path><path id="vector_27" stroke="#120071" stroke-linecap="round" stroke-linejoin="round" d="m21.4173225 119.945385 -4.674285 2.6982375000000003" stroke-width="0.5"></path><path id="vector_28" stroke="#120071" stroke-linecap="round" stroke-linejoin="round" d="m16.7430375 126.37926 4.674285 2.6992350000000003" stroke-width="0.5"></path><path id="vector_29" stroke="#120071" stroke-linecap="round" stroke-linejoin="round" d="m5.59802985 119.945385 4.6753224 2.6982375000000003" stroke-width="0.5"></path></g><g id="group_5"><path id="vector_30" stroke="#120071" stroke-linecap="round" stroke-linejoin="round" d="M119.5812975 192.37785000000002v-17.29665" stroke-width="0.5"></path><path id="vector_31" stroke="#120071" stroke-linecap="round" stroke-linejoin="round" d="M110.93397 183.729525h17.2956525" stroke-width="0.5"></path></g><g id="group_6"><path id="vector_32" stroke="#120071" stroke-linecap="round" stroke-linejoin="round" d="M186.16542 101.85572250000001v8.4159075" stroke-width="0.5"></path><path id="vector_33" stroke="#120071" stroke-linecap="round" stroke-linejoin="round" d="M190.3738725 106.0631775h-8.4159075" stroke-width="0.5"></path></g></g><g id="circle"><path id="vector_34" stroke="#120071" stroke-linecap="round" stroke-linejoin="round" d="M43.39354425 179.4711975c7.943990250000001 -4.2553350000000005 10.9339965 -14.1455475 6.67816275 -22.089637500000002s-14.14584675 -10.934595 -22.08993675 -6.678262500000001c-7.944090000000001 4.2553350000000005 -10.9339965 14.1455475 -6.67816275 22.089637500000002s14.14584675 10.934595 22.08993675 6.678262500000001Z" stroke-width="0.5"></path><path id="vector_35" stroke="#120071" stroke-linecap="round" stroke-linejoin="round" d="M30.39212925 166.005945c1.2355035 -6.1416075 -2.741928 -12.1226175 -8.883735000000001 -13.3575225 -6.14190675 -1.2359025000000001 -12.122388075000002 2.7421275 -13.357901550000001 8.883735000000001 -1.235513475 6.1416075 2.7418082999999998 12.1226175 8.88371505 13.3575225 6.141807 1.2359025000000001 12.12231825 -2.7421275 13.357921500000002 -8.883735000000001Z" stroke-width="0.5"></path><path id="vector_36" fill="#6153bd" d="M22.481555250000003 174.64230000000003c2.2006845 -0.6473775 4.152991500000001 -1.94712 5.598768000000001 -3.7286550000000003 1.4458762500000002 -1.7805375 2.316993 -3.9590775000000002 2.4984382500000004 -6.2453475 0.1813455 -2.2872675000000005 -0.335559 -4.5755325 -1.4824845 -6.561555 -1.1469255 -1.98702 -2.8698075 -3.5790300000000004 -4.9409167499999995 -4.565557500000001 -2.7475140000000002 2.7411300000000005 -4.42580775 6.373027500000001 -4.7327385 10.2413325 -0.306831 3.8693025000000003 0.7779502500000001 7.720650000000001 3.0589335 10.859782500000001Z" stroke-width="0.5"></path></g></g></svg>