<svg xmlns="http://www.w3.org/2000/svg" fill="none" viewBox="-0.25 -0.25 200 200" id="Bye-2--Streamline-Bangalore.svg"><desc>Bye 2 Streamline Illustration: https://streamlinehq.com</desc><g id="bye-2--people-bye"><g id="skateboard"><path id="vector" stroke="#120071" stroke-linecap="round" stroke-linejoin="round" d="M88.6408425 179.791395s-4.5885 -0.1995 -6.5745225000000005 -2.3840250000000003c-1.9860225000000002 -2.1845250000000003 -3.0992325000000003 -4.939620000000001 -5.70969 -3.6478575 -2.711205 1.34064 -0.919695 5.9241525 1.5321600000000002 8.0368575 3.2807775 2.8259175000000005 10.752052500000001 3.0174375 10.752052500000001 3.0174375h70.0334775c0.6573525000000001 -0.0129675 1.2837825 -0.28329 1.74363 -0.7531125000000001 0.4598475 -0.468825 0.7182000000000001 -1.1002425 0.7182000000000001 -1.757595 0 -0.6583500000000001 -0.25835250000000004 -1.2887700000000002 -0.7182000000000001 -1.7585925 -0.4598475 -0.4698225 -1.0862775 -0.740145 -1.74363 -0.7531125000000001H88.6408425Z" stroke-width="0.5"></path><path id="vector_2" fill="#6153bd" d="M93.427845 194.51250000000002c2.67798825 0 4.8488475 -2.1705600000000005 4.8488475 -4.8488475 0 -2.6782875 -2.17085925 -4.8488475 -4.8488475 -4.8488475 -2.6778885000000003 0 -4.8488475 2.1705600000000005 -4.8488475 4.8488475 0 2.6782875 2.1709590000000003 4.8488475 4.8488475 4.8488475Z" stroke-width="0.5"></path><path id="vector_3" fill="#6153bd" d="M145.5502125 194.51250000000002c2.6782875 0 4.8488475 -2.1705600000000005 4.8488475 -4.8488475 0 -2.6782875 -2.1705600000000005 -4.8488475 -4.8488475 -4.8488475 -2.6782875 0 -4.8488475 2.1705600000000005 -4.8488475 4.8488475 0 2.6782875 2.1705600000000005 4.8488475 4.8488475 4.8488475Z" stroke-width="0.5"></path><path id="vector_4" stroke="#120071" stroke-linecap="round" stroke-linejoin="round" d="M93.427845 194.51250000000002c2.67798825 0 4.8488475 -2.1705600000000005 4.8488475 -4.8488475 0 -2.6782875 -2.17085925 -4.8488475 -4.8488475 -4.8488475 -2.6778885000000003 0 -4.8488475 2.1705600000000005 -4.8488475 4.8488475 0 2.6782875 2.1709590000000003 4.8488475 4.8488475 4.8488475Z" stroke-width="0.5"></path><path id="vector_5" stroke="#120071" stroke-linecap="round" stroke-linejoin="round" d="M145.5502125 194.51250000000002c2.6782875 0 4.8488475 -2.1705600000000005 4.8488475 -4.8488475 0 -2.6782875 -2.1705600000000005 -4.8488475 -4.8488475 -4.8488475 -2.6782875 0 -4.8488475 2.1705600000000005 -4.8488475 4.8488475 0 2.6782875 2.1705600000000005 4.8488475 4.8488475 4.8488475Z" stroke-width="0.5"></path></g><g id="wind"><g id="group"><path id="vector_6" stroke="#120071" stroke-linecap="round" stroke-linejoin="round" d="M67.5098025 154.13968500000001h43.39125" stroke-width="0.5"></path><path id="vector_7" stroke="#120071" stroke-linecap="round" stroke-linejoin="round" d="M77.783055 160.5705675h38.46360000000001" stroke-width="0.5"></path></g><g id="group_2"><path id="vector_8" stroke="#120071" stroke-linecap="round" stroke-linejoin="round" d="M105.32403 87.00903225h-43.39125" stroke-width="0.5"></path><path id="vector_9" stroke="#120071" stroke-linecap="round" stroke-linejoin="round" d="M95.051775 93.43991475H56.588175" stroke-width="0.5"></path></g><g id="group_3"><path id="vector_10" stroke="#120071" stroke-linecap="round" stroke-linejoin="round" d="M55.2684825 147.70880250000002h-43.39125" stroke-width="0.5"></path><path id="vector_11" stroke="#120071" stroke-linecap="round" stroke-linejoin="round" d="M44.99523 154.13968500000001H6.531600075000001" stroke-width="0.5"></path><path id="vector_12" stroke="#120071" stroke-linecap="round" stroke-linejoin="round" d="M48.61416 141.27792000000002H20.94740025s-10.593449999999999 0.39401250000000004 -10.9236225 -9.1979475c-0.20942512500000002 -6.097717500000001 2.3092125 -9.737595 8.8109175 -9.482235000000001 4.0428675 0.15960000000000002 5.615925 2.024925 5.5181700000000005 4.28925 0.026334 0.53466 -0.06144600000000001 1.06932 -0.25745475 1.56807 -0.19610850000000002 0.49775250000000004 -0.49585725 0.9486225 -0.8795955000000001 1.322685 -0.3836385 0.3740625 -0.84238875 0.6613425 -1.345827 0.843885 -0.5033385 0.18354 -1.03989375 0.257355 -1.5739552500000002 0.2164575 -2.3331525 -0.041895 -2.4079650000000004 -3.2159400000000002 0.1286775 -3.0683100000000003" stroke-width="0.5"></path></g></g><g id="person"><path id="vector_13" fill="#6153bd" d="M125.68200750000001 37.69043775c2.1156975 0 3.8313975000000005 -1.7154007500000001 3.8313975000000005 -3.8313975000000005s-1.7157 -3.8313975000000005 -3.8313975000000005 -3.8313975000000005c-2.1156975 0 -3.8313975000000005 1.7154007500000001 -3.8313975000000005 3.8313975000000005s1.7157 3.8313975000000005 3.8313975000000005 3.8313975000000005Z" stroke-width="0.5"></path><path id="vector_14" fill="#6153bd" d="M133.8196125 40.427577750000005c2.1156975 0 3.8313975000000005 -1.7154007500000001 3.8313975000000005 -3.8313975000000005s-1.7157 -3.8313975000000005 -3.8313975000000005 -3.8313975000000005c-2.1156975 0 -3.8313975000000005 1.7154007500000001 -3.8313975000000005 3.8313975000000005s1.7157 3.8313975000000005 3.8313975000000005 3.8313975000000005Z" stroke-width="0.5"></path><path id="vector_15" stroke="#120071" stroke-linecap="round" stroke-linejoin="round" d="M125.68200750000001 37.69043775c2.1156975 0 3.8313975000000005 -1.7154007500000001 3.8313975000000005 -3.8313975000000005s-1.7157 -3.8313975000000005 -3.8313975000000005 -3.8313975000000005c-2.1156975 0 -3.8313975000000005 1.7154007500000001 -3.8313975000000005 3.8313975000000005s1.7157 3.8313975000000005 3.8313975000000005 3.8313975000000005Z" stroke-width="0.5"></path><path id="vector_16" stroke="#120071" stroke-linecap="round" stroke-linejoin="round" d="M133.8196125 40.427577750000005c2.1156975 0 3.8313975000000005 -1.7154007500000001 3.8313975000000005 -3.8313975000000005s-1.7157 -3.8313975000000005 -3.8313975000000005 -3.8313975000000005c-2.1156975 0 -3.8313975000000005 1.7154007500000001 -3.8313975000000005 3.8313975000000005s1.7157 3.8313975000000005 3.8313975000000005 3.8313975000000005Z" stroke-width="0.5"></path><path id="vector_17" fill="#6153bd" d="M127.00968 112.8721125c0.7880250000000001 -4.259325 1.7625825 -10.8039225 1.7725575 -10.888710000000001 0.016957500000000004 -0.13167 0.08478750000000002 -0.2503725 0.189525 -0.33117 0.1047375 -0.081795 0.2364075 -0.117705 0.3680775 -0.10074750000000002 0.13067250000000002 0.016957500000000004 0.2503725 0.08478750000000002 0.33117 0.18852750000000001 0.08079750000000001 0.1047375 0.11670750000000002 0.237405 0.10074750000000002 0.3680775 -0.053865 0.4279275 -1.338645 10.520632500000001 -2.2034775 13.765500000000001 -0.0548625 0.2084775 2.0947500000000003 11.371500000000001 1.6528575 15.1430475 -0.4738125 4.00197 -7.370527500000001 26.6561925 -7.370527500000001 26.6561925h17.923080000000002s5.691735 -16.358999999999998 6.12465 -40.882537500000005c0.432915 -24.52363725 -8.977500000000001 -35.69862975 -8.977500000000001 -35.69862975 0.29925 -0.89775 0.5935125 -1.8583425 0.8728125 -2.8578375000000005l-18.617340000000002 -0.045885c0.2922675 1.197 0.5196975 2.2144500000000003 0.6374025000000001 2.9037225 0 0 -8.279250000000001 4.059825000000001 -10.994445 15.68868 -2.4708075 10.57958475 -4.003965000000001 16.41396225 -6.2473425 25.21091475 -0.0269325 0.129675 -0.10374 0.24339 -0.21346500000000002 0.31620750000000003 -0.1107225 0.073815 -0.24538500000000002 0.09975 -0.37605750000000004 0.0728175 -0.129675 -0.025935 -0.24339 -0.1027425 -0.31620750000000003 -0.21346500000000002 -0.0728175 -0.1107225 -0.09975 -0.24538500000000002 -0.0728175 -0.37506l0.8678250000000001 -4.2463575c-4.3481025 0.30523500000000003 -18.684172500000003 1.3675725 -23.8053375 2.4398850000000003v17.419342500000003s34.5045225 -0.027930000000000003 39.516960000000005 -5.23887c4.3680525 -4.54062 7.422397500000001 -14.029837500000001 8.8368525 -19.293645Z" stroke-width="0.5"></path><path id="vector_18" stroke="#120071" stroke-linecap="round" stroke-linejoin="round" d="m137.7956475 78.23193 -18.617340000000002 -0.045885c0.2922675 1.197 0.5196975 2.2144500000000003 0.6374025000000001 2.9037225 0 0 -8.279250000000001 4.059825000000001 -10.994445 15.68868 -2.715195 11.628855 -5.08725 20.678175000000003 -5.08725 20.678175000000003s-19.00437 1.25685 -25.072162500000005 2.5266675v17.419342500000003s34.5045225 -0.027930000000000003 39.516960000000005 -5.23887c4.3660575 -4.538625 7.420402500000001 -14.027842500000002 8.8348575 -19.29165 0 0 2.6852700000000005 14.139562500000002 2.2114575000000003 18.14253 -0.4738125 4.0029675000000005 -7.370527500000001 26.6561925 -7.370527500000001 26.6561925h17.923080000000002s5.691735 -16.358999999999998 6.12465 -40.882537500000005c0.432915 -24.523537500000003 -8.977500000000001 -35.69853 -8.977500000000001 -35.69853 0.29925 -0.8907675 0.5915175 -1.8583425 0.8708175 -2.8578375000000005Z" stroke-width="0.5"></path><path id="vector_19" fill="#6153bd" d="M131.20716000000002 50.146220250000006c-0.6852825000000001 -0.667926 -1.0802925 -1.57954125 -1.09725 -2.53654275l-4.5885 -0.12768000000000002c-0.0748125 0.54533325 -0.27930000000000005 1.06463175 -0.5975025 1.5140055000000001 -0.3182025 0.44937375 -0.7391475000000001 0.8155560000000001 -1.22892 1.06742475 -1.70373 0.65037 -7.065292500000001 0.95769975 -12.93558 1.65993975 1.5012375 3.6279075 3.6159375000000002 9.644827500000002 4.8009675 13.1959275 0 0 1.1900175000000002 4.103715 2.3231775000000003 8.293215 6.7081875 -1.969065 14.648287500000002 -2.03898975 21.404355 -1.05645225 0.798 -3.6199275 1.29675 -6.52764 1.29675 -6.52764 0.48378750000000004 -3.6578325 0.9127125 -10.478637749999999 1.0912650000000002 -14.09756775 -3.6428700000000003 -0.029925 -8.85381 -0.16668225 -10.4687625 -1.38462975Z" stroke-width="0.5"></path><path id="vector_20" stroke="#120071" stroke-linecap="round" stroke-linejoin="round" d="M131.20716000000002 50.146220250000006c-0.6852825000000001 -0.667926 -1.0802925 -1.57954125 -1.09725 -2.53654275l-4.5885 -0.12768000000000002c-0.0748125 0.54533325 -0.27930000000000005 1.06463175 -0.5975025 1.5140055000000001 -0.3182025 0.44937375 -0.7391475000000001 0.8155560000000001 -1.22892 1.06742475 -1.70373 0.65037 -7.065292500000001 0.95769975 -12.93558 1.65993975 1.5012375 3.6279075 3.6159375000000002 9.644827500000002 4.8009675 13.1959275 0 0 1.1900175000000002 4.103715 2.3231775000000003 8.293215 6.7081875 -1.969065 14.648287500000002 -2.03898975 21.404355 -1.05645225 0.798 -3.6199275 1.29675 -6.52764 1.29675 -6.52764 0.48378750000000004 -3.6578325 0.9127125 -10.478637749999999 1.0912650000000002 -14.09756775 -3.6428700000000003 -0.029925 -8.85381 -0.16668225 -10.4687625 -1.38462975Z" stroke-width="0.5"></path><path id="vector_21" fill="#e69ece" d="M129.276 35.5479075c-3.4024725 -1.2777975 -6.138615000000001 2.6324025 -6.138615000000001 2.6324025 3.9730425000000005 1.2219375000000001 8.573512500000001 3.1281600000000003 8.593462500000001 3.1371375 0.4668300000000001 -2.1755475 -0.1805475 -4.9166775000000005 -2.4548475 -5.76954Z" stroke-width="0.5"></path><path id="vector_22" stroke="#120071" stroke-linecap="round" stroke-linejoin="round" d="M139.77369000000002 157.670835s5.691735 -16.358999999999998 6.12465 -40.882537500000005c0.432915 -24.52363725 -8.977500000000001 -35.69862975 -8.977500000000001 -35.69862975 1.5361500000000001 -5.073684 2.7580875000000002 -10.23724275 3.6598275000000005 -15.461250000000001 0 0 22.477665000000002 2.4938497500000003 29.3793675 1.22502975 7.232872500000001 -1.3336575 9.3296175 -23.621897250000004 9.702682500000002 -26.091707250000002 0.37306500000000004 -2.4698100000000003 1.16109 -9.634852500000001 1.16109 -9.634852500000001 1.8403875 -2.0578425000000005 1.09725 -5.6268975 1.09725 -5.6268975 1.0054800000000002 -1.8523575 1.1561025 -5.216925000000001 0.2423925 -5.535127500000001 -0.9137100000000001 -0.3182025 -1.5850275 0.6413925 -1.5850275 0.6413925 0.08478750000000002 -2.0777925 -1.629915 -1.6189425000000002 -1.629915 -1.6189425000000002s1.0802925 -9.402385125 -1.0364025 -8.92962c-2.116695 0.472815 -3.3915 10.0178925 -3.3915 10.0178925s-1.7077200000000001 -10.455745125 -3.64686 -9.675749999999999c-1.93914 0.7800450000000001 -0.2443875 10.0837275 -0.2443875 10.0837275 -1.374555 0.8355060000000001 -2.5216800000000004 1.9956982500000002 -3.3426225 3.3785325000000004 -0.847875 1.8633300000000002 2.80497 6.905692500000001 2.80497 6.905692500000001 -2.7291600000000003 13.444305 -3.4742925000000002 10.3111575 -5.9720325 23.0691825 0 0 -17.498145 -2.280285 -21.0342825 -2.3012325000000002 -3.5361375 -0.0209475 -10.036845 -0.005985000000000001 -11.87025 -1.3965 -1.8334050000000002 -1.390515 -0.9296700000000001 -6.307192500000001 -0.9296700000000001 -6.307192500000001 2.1615824999999997 -1.5062250000000001 2.4029775 -7.01442 -0.9975 -8.29122 -2.64537 -0.9925125 -5.1480974999999995 1.0403925 -6.691230000000001 3.4463625 -1.2578475 1.95909 -3.4244175 5.8254 -1.7665725 7.4603025 1.8443775 1.8314100000000002 4.8548325000000006 -0.06384000000000001 4.8548325000000006 -0.06384000000000001s-0.09975 2.9655675 -1.9860225000000002 3.6827700000000005c-1.8862725 0.7172025 -8.225385000000001 1.0184475 -14.788935000000002 1.89525l-17.8781925 2.364075s-1.159095 -7.281750000000001 -2.144625 -10.68921c-0.98553 -3.40746 -4.723162500000001 -14.1575175 -4.927650000000001 -17.607870000000002 0.79829925 -1.27650075 1.4873722500000002 -2.6182380000000003 2.0598375 -4.0109475 0.708225 -1.8743025000000002 0.46483500000000005 -3.110205 -0.21945 -3.89025s-2.5685625000000005 -2.4787875 -2.5685625000000005 -2.4787875 1.6588425000000002 -10.308115125 -0.29925 -10.209362625c-1.9580925000000002 0.09875250000000001 -3.581025 9.841285125 -3.581025 9.841285125S77.3890425 4.3360826249999995 75.796035 5.0183726250000005c-1.5930075000000001 0.6822900000000001 -1.1251799999999998 9.072212625 -1.1251799999999998 9.072212625 -0.20219325 -0.01346625 -0.4047855 0.0173565 -0.593712 0.09047325 -0.18892650000000002 0.07321650000000002 -0.35959875 0.18683175 -0.49984725 0.3329655 -0.14034825 0.146034 -0.246981 0.321195 -0.312417 0.5129145 -0.06543600000000001 0.19171950000000001 -0.08807925000000001 0.395409 -0.06633375000000001 0.59680425 0 0 -0.5506200000000001 -1.2239325 -1.596 -0.7531125000000001 -1.0453800000000002 0.47082 -0.9975 3.1670625 0.309225 6.4248975 0 0 -0.823935 3.8563350000000005 1.374555 5.711685 0 0 1.7725575 14.894670000000001 2.7241725 20.638275000000004 0.951615 5.7436050000000005 3.7206750000000004 18.1894125 8.05182 19.419330000000002 4.809945 1.3655775 31.499055000000002 -2.1456225 31.499055000000002 -2.1456225s3.6428700000000003 12.5685 4.2543375 16.1704725c0 0 -8.279250000000001 4.05992475 -10.994445 15.68877975 -2.715195 11.628855 -5.08725 20.678175000000003 -5.08725 20.678175000000003s-19.00437 1.25685 -25.072162500000005 2.5266675v17.419342500000003s34.5045225 -0.027930000000000003 39.516960000000005 -5.23887c4.3660575 -4.538625 7.420402500000001 -14.027842500000002 8.8348575 -19.29165 0 0 2.6852700000000005 14.139562500000002 2.2114575000000003 18.14253 -0.4738125 4.0029675000000005 -7.370527500000001 26.6561925 -7.370527500000001 26.6561925h17.91909Z" stroke-width="0.5"></path><path id="vector_23" fill="#e69ece" fill-rule="evenodd" d="M134.1846975 168.818895c-3.257835 0.4718175 -2.0558475 3.9191775 -7.12614 4.171545000000001 -5.3426100000000005 0.2663325 -7.36155 -2.2154475000000002 -7.36155 -2.2154475000000002 -0.6902699999999999 2.1266700000000003 -1.38852 4.3820175 -1.89525 6.2712825l32.5534125 0.24039750000000001c-1.7546025 -2.6683125 -4.160572500000001 -4.845855 -6.9894825 -6.3271425 -2.82891 -1.4812875 -5.987992500000001 -2.21844 -9.180990000000001 -2.140635Z" clip-rule="evenodd" stroke-width="0.5"></path><path id="vector_24" fill-rule="evenodd" stroke="#120071" stroke-linecap="round" stroke-linejoin="round" d="m134.1846975 168.818895 1.514205 -5.348595h-13.520115s-1.2259275 3.43539 -2.48178 7.304692500000001c0 0 2.01894 2.48178 7.36155 2.2154475000000002 5.070292500000001 -0.2523675 3.8683050000000003 -3.6997275000000003 7.12614 -4.171545000000001Z" clip-rule="evenodd" stroke-width="0.5"></path><path id="vector_25" fill-rule="evenodd" stroke="#120071" stroke-linecap="round" stroke-linejoin="round" d="M117.798765 177.046275c-0.285285 1.0603425 -0.5107200000000001 2.0039775 -0.64239 2.74512l34.575345 -0.0508725c-0.38304000000000005 -0.8588475 -0.8448825 -1.6797900000000001 -1.3795425000000001 -2.45385l-32.5534125 -0.24039750000000001Z" clip-rule="evenodd" stroke-width="0.5"></path><path id="vector_26" fill-rule="evenodd" stroke="#120071" stroke-linecap="round" stroke-linejoin="round" d="M134.1846975 168.818895c-3.257835 0.4718175 -2.0558475 3.9191775 -7.12614 4.171545000000001 -5.3426100000000005 0.2663325 -7.36155 -2.2154475000000002 -7.36155 -2.2154475000000002 -0.6902699999999999 2.1266700000000003 -1.38852 4.3820175 -1.89525 6.2712825l32.5534125 0.24039750000000001c-1.7546025 -2.6683125 -4.160572500000001 -4.845855 -6.9894825 -6.3271425 -2.82891 -1.4812875 -5.987992500000001 -2.21844 -9.180990000000001 -2.140635Z" clip-rule="evenodd" stroke-width="0.5"></path><path id="vector_27" stroke="#120071" stroke-linecap="round" stroke-linejoin="round" d="M141.66395250000002 157.670835h-22.3390125v5.7994650000000005h22.3390125v-5.7994650000000005Z" stroke-width="0.5"></path><path id="vector_28" stroke="#120071" stroke-linecap="round" stroke-linejoin="round" d="M78.65786250000001 117.6541275h-5.7994650000000005v22.3390125h5.7994650000000005v-22.3390125Z" stroke-width="0.5"></path><path id="vector_29" fill="#e69ece" d="M67.5098025 133.79667c-0.4718175 -3.1371375 -3.9191775 -1.0523625 -4.171545000000001 -6.0578175000000005 -0.2663325 -5.274780000000001 2.2104600000000003 -7.763542500000001 2.2104600000000003 -7.763542500000001 -2.1396375 -0.09975 -4.3999725 -0.1745625 -6.266295 -0.16458750000000003l-0.3102225 32.38683c3.2239200000000006 -2.9715525 8.5695225 -9.2817375 8.5376025 -18.4008825Z" stroke-width="0.5"></path><path id="vector_30" fill-rule="evenodd" stroke="#120071" stroke-linecap="round" stroke-linejoin="round" d="M65.5487175 119.97531000000001s-2.4767925 2.4937500000000004 -2.2104600000000003 7.763542500000001c0.2523675 5.005455 3.6997275000000003 2.92068 4.171545000000001 6.0578175000000005l5.348595 0.1446375v-13.520115l-7.309680000000001 -0.4458825Z" clip-rule="evenodd" stroke-width="0.5"></path><path id="vector_31" stroke="#120071" stroke-linecap="round" stroke-linejoin="round" d="M56.588175 154.13968500000001c0.8398950000000001 -0.5895225 1.63659825 -1.238895 2.3840250000000003 -1.9421325000000003l0.3102225 -32.38683c-0.9047325 0 -1.7157 0.030922500000000002 -2.3750475 0.081795l-0.31920000000000004 34.2471675Z" stroke-width="0.5"></path><path id="vector_32" stroke="#120071" stroke-linecap="round" stroke-linejoin="round" d="M67.5098025 133.79667c-0.4718175 -3.1371375 -3.9191775 -1.0523625 -4.171545000000001 -6.0578175000000005 -0.2663325 -5.274780000000001 2.2104600000000003 -7.763542500000001 2.2104600000000003 -7.763542500000001 -2.1396375 -0.09975 -4.3999725 -0.1745625 -6.266295 -0.16458750000000003l-0.3102225 32.38683c3.2239200000000006 -2.9715525 8.5695225 -9.2817375 8.5376025 -18.4008825Z" stroke-width="0.5"></path><path id="vector_33" stroke="#120071" stroke-linecap="round" stroke-linejoin="round" d="m134.6495325 172.53857250000001 2.5366425 -3.5261625000000003" stroke-width="0.5"></path><path id="vector_34" stroke="#120071" stroke-linecap="round" stroke-linejoin="round" d="m63.790125 135.21312 3.5261625000000003 1.633905" stroke-width="0.5"></path><path id="vector_35" stroke="#120071" stroke-linecap="round" stroke-linejoin="round" d="m137.655 172.6782225 2.2344000000000004 -3.1052175" stroke-width="0.5"></path><path id="vector_36" stroke="#120071" stroke-linecap="round" stroke-linejoin="round" d="m63.65047500000001 138.2535 3.1052175 1.438395" stroke-width="0.5"></path><path id="vector_37" stroke="#120071" stroke-linecap="round" stroke-linejoin="round" d="M71.845935 21.1280475s0.6054825 1.3685700000000003 1.7246775 0.9306675000000001c1.1191950000000002 -0.43790250000000003 0.33715500000000004 -4.9545825 -0.3720675 -6.4348725" stroke-width="0.5"></path><path id="vector_38" stroke="#120071" stroke-linecap="round" stroke-linejoin="round" d="M74.13320250000001 19.99788s0.65436 2.0159475000000002 2.040885 1.5620850000000002c1.386525 -0.45386250000000006 0.5396475000000001 -7.13811 -1.5032325 -7.469280000000001" stroke-width="0.5"></path><path id="vector_39" stroke="#120071" stroke-linecap="round" stroke-linejoin="round" d="M83.2343925 15.6238425s-5.37453 0.7800450000000001 -5.450340000000001 2.2353975000000004c-0.07581 1.4553525 4.15359 1.02543 4.15359 1.02543 -0.86184 0.69116775 -1.501038 1.620738 -1.83809325 2.67280125 -0.33705525 1.05206325 -0.35690550000000004 2.18003625 -0.05715675 3.24337125" stroke-width="0.5"></path><path id="vector_40" stroke="#120071" stroke-linecap="round" stroke-linejoin="round" d="M170.62636500000002 20.486655000000003s5.528145 0.843885 5.4034575 2.4319050000000004 -4.183515 0.9296700000000001 -4.183515 0.9296700000000001 4.312192500000001 2.5595849999999998 3.636885 7.373520000000001" stroke-width="0.5"></path><path id="vector_41" stroke="#120071" stroke-linecap="round" stroke-linejoin="round" d="M178.9515 18.98731275s-1.1541075 0.05187 -1.6189425000000002 2.90871c-0.40398750000000005 2.4937500000000004 -0.35910000000000003 4.183515 0.7740600000000001 4.40895 1.3027350000000002 0.25835250000000004 2.1815325 -2.36208 2.4747975 -5.698717500000001" stroke-width="0.5"></path><path id="vector_42" stroke="#120071" stroke-linecap="round" stroke-linejoin="round" d="M179.8761825 24.380795250000002s-0.9177000000000001 2.3151975000000005 0.28329 2.4029775c1.20099 0.08778 1.7625825 -1.2837825 1.7625825 -1.2837825" stroke-width="0.5"></path><path id="vector_43" fill="#e69ece" d="M123.1383825 38.180310000000006s-7.934115 -1.2119625 -7.581 0.173565c0.34014750000000005 1.3196925 12.244312500000001 1.88727 13.60191 1.9441275000000002 -1.673805 -0.6453825000000001 -3.93414 -1.4763000000000002 -6.02091 -2.1176925000000004Z" stroke-width="0.5"></path><path id="vector_44" stroke="#120071" stroke-linecap="round" stroke-linejoin="round" d="M123.1383825 38.180310000000006s-7.934115 -1.2119625 -7.581 0.173565c0.34014750000000005 1.3196925 12.244312500000001 1.88727 13.60191 1.9441275000000002 -1.673805 -0.6453825000000001 -3.93414 -1.4763000000000002 -6.02091 -2.1176925000000004Z" stroke-width="0.5"></path><path id="vector_45" fill="#6153bd" d="m129.1632825 40.29890025 -1.3556025 1.8663225s1.5790425000000001 -1.2369 2.3171925 -0.3780525c0.85785 0.9975 -0.847875 2.394 -0.847875 2.394l0.9975 -0.33915000000000006c0.77805 -0.63371175 1.294755 -1.5311625 1.454355 -2.5216800000000004l-2.56557 -1.0214400000000001Z" stroke-width="0.5"></path><path id="vector_46" stroke="#120071" stroke-linecap="round" stroke-linejoin="round" d="m129.1632825 40.29890025 -1.3556025 1.8663225s1.5790425000000001 -1.2369 2.3171925 -0.3780525c0.85785 0.9975 -0.847875 2.394 -0.847875 2.394l0.9975 -0.33915000000000006c0.77805 -0.63371175 1.294755 -1.5311625 1.454355 -2.5216800000000004l-2.56557 -1.0214400000000001Z" stroke-width="0.5"></path></g><g id="details"><g id="group_4"><path id="vector_47" stroke="#120071" stroke-linecap="round" stroke-linejoin="round" d="M32.41077 30.024750000000004h3.5261625000000003" stroke-width="0.5"></path><path id="vector_48" stroke="#120071" stroke-linecap="round" stroke-linejoin="round" d="M38.0915325 24.346980000000002v3.5271600000000003" stroke-width="0.5"></path><path id="vector_49" stroke="#120071" stroke-linecap="round" stroke-linejoin="round" d="M40.2461325 30.024750000000004h3.5261625000000003" stroke-width="0.5"></path><path id="vector_50" stroke="#120071" stroke-linecap="round" stroke-linejoin="round" d="M38.0915325 32.18224275v3.5281575000000003" stroke-width="0.5"></path></g><g id="group_5"><path id="vector_51" stroke="#120071" stroke-linecap="round" stroke-linejoin="round" d="M169.36851750000002 132.56775000000002h3.5271600000000003" stroke-width="0.5"></path><path id="vector_52" stroke="#120071" stroke-linecap="round" stroke-linejoin="round" d="M175.05027750000002 126.882v3.5271600000000003" stroke-width="0.5"></path><path id="vector_53" stroke="#120071" stroke-linecap="round" stroke-linejoin="round" d="M177.20388 132.56775000000002h3.5271600000000003" stroke-width="0.5"></path><path id="vector_54" stroke="#120071" stroke-linecap="round" stroke-linejoin="round" d="M175.05027750000002 134.7213525v3.5321475" stroke-width="0.5"></path></g></g><g id="star"><g id="group_6"><path id="vector_55" fill="#e69ece" fill-rule="evenodd" d="m36.3159825 76.76370975 2.4089625000000003 4.52466 5.04735 0.8927625 -3.5580825000000003 3.6907500000000004 0.71022 5.077275 -4.60845 -2.2443750000000002 -4.609447500000001 2.2443750000000002 0.71022 -5.077275 -3.5580825000000003 -3.6907500000000004 5.04735 -0.8927625 2.40996 -4.52466Z" clip-rule="evenodd" stroke-width="0.5"></path><path id="vector_56" stroke="#120071" stroke-linecap="round" stroke-linejoin="round" d="m36.3159825 76.76370975 2.4089625000000003 4.52466 5.04735 0.8927625 -3.5580825000000003 3.6907500000000004 0.71022 5.077275 -4.60845 -2.2443750000000002 -4.609447500000001 2.2443750000000002 0.71022 -5.077275 -3.5580825000000003 -3.6907500000000004 5.04735 -0.8927625 2.40996 -4.52466Z" stroke-width="0.5"></path></g><g id="group_7"><path id="vector_57" fill="#e69ece" fill-rule="evenodd" d="m187.86915000000002 52.7827125 1.64787 3.0922500000000004 3.45135 0.6114675 -2.4339 2.5226775 0.4857825 3.4713000000000003 -3.1511025 -1.5331575 -3.1511025 1.5341550000000002 0.4857825 -3.4713000000000003 -2.4329025 -2.5226775 3.45135 -0.6114675 1.6468725000000002 -3.0932475Z" clip-rule="evenodd" stroke-width="0.5"></path><path id="vector_58" stroke="#120071" stroke-linecap="round" stroke-linejoin="round" d="m187.86915000000002 52.7827125 1.64787 3.0922500000000004 3.45135 0.6114675 -2.4339 2.5226775 0.4857825 3.4713000000000003 -3.1511025 -1.5331575 -3.1511025 1.5341550000000002 0.4857825 -3.4713000000000003 -2.4329025 -2.5226775 3.45135 -0.6114675 1.6468725000000002 -3.0932475Z" stroke-width="0.5"></path></g></g></g></svg>