<svg xmlns="http://www.w3.org/2000/svg" fill="none" viewBox="-0.25 -0.25 200 200" id="Hr-Human-Resources-2--Streamline-Bangalore.svg"><desc>Hr Human Resources 2 Streamline Illustration: https://streamlinehq.com</desc><g id="hr-human-resources-2--work-hr-human-resources"><g id="board"><path id="vector" stroke="#120071" stroke-linecap="round" stroke-linejoin="round" d="M62.2709325 166.6972125H4.987500000000001" stroke-width="0.5"></path><path id="vector_2" stroke="#120071" stroke-linecap="round" stroke-linejoin="round" d="M164.86779750000002 166.6972125H83.44686000000002" stroke-width="0.5"></path><path id="vector_3" stroke="#120071" stroke-linecap="round" stroke-linejoin="round" d="M60.7228125 147.41753250000002H4.987500000000001" stroke-width="0.5"></path><path id="vector_4" stroke="#120071" stroke-linecap="round" stroke-linejoin="round" d="M126.4101825 147.41753250000002H82.8014775" stroke-width="0.5"></path><path id="vector_5" stroke="#120071" stroke-linecap="round" stroke-linejoin="round" d="M4.987500000000001 181.6637025h171.619875l-25.5110625 -32.52249" stroke-width="0.5"></path><path id="vector_6" stroke="#120071" stroke-linecap="round" stroke-linejoin="round" d="M4.987500000000001 191.18284500000001h171.619875v-9.5191425" stroke-width="0.5"></path><path id="vector_7" stroke="#120071" stroke-linecap="round" stroke-linejoin="round" d="m137.5752 181.6637025 -25.270665 -38.816715" stroke-width="0.5"></path><path id="vector_8" stroke="#120071" stroke-linecap="round" stroke-linejoin="round" d="m99.7849125 181.6637025 -19.294742250000002 -38.9054925" stroke-width="0.5"></path></g><g id="details"><g id="group"><path id="vector_9" stroke="#120071" stroke-linecap="round" stroke-linejoin="round" d="M151.6190025 68.34580725000001v11.616885000000002" stroke-width="0.5"></path><path id="vector_10" stroke="#120071" stroke-linecap="round" stroke-linejoin="round" d="M157.427445 74.15395050000001h-11.616885000000002" stroke-width="0.5"></path></g><g id="group_2"><path id="vector_11" stroke="#120071" stroke-linecap="round" stroke-linejoin="round" d="M21.96495 65.79120975000001v11.616885000000002" stroke-width="0.5"></path><path id="vector_12" stroke="#120071" stroke-linecap="round" stroke-linejoin="round" d="M27.7733925 71.59985175000001H16.1565075" stroke-width="0.5"></path></g><path id="vector_13" stroke="#120071" stroke-linecap="round" stroke-linejoin="round" d="M58.40761500000001 83.8189275c2.03340375 0 3.6817725 -1.6484685000000001 3.6817725 -3.6817725 0 -2.03340375 -1.6483687500000002 -3.6817725 -3.6817725 -3.6817725 -2.0333040000000002 0 -3.6817725 1.6483687500000002 -3.6817725 3.6817725 0 2.0333040000000002 1.6484685000000001 3.6817725 3.6817725 3.6817725Z" stroke-width="0.5"></path><path id="vector_14" stroke="#120071" stroke-linecap="round" stroke-linejoin="round" d="M110.692575 131.2640175c2.0339025000000004 0 3.6817725 -1.6488675000000002 3.6817725 -3.6817725 0 -2.0339025000000004 -1.64787 -3.6817725 -3.6817725 -3.6817725 -2.032905 0 -3.6817725 1.64787 -3.6817725 3.6817725 0 2.032905 1.6488675000000002 3.6817725 3.6817725 3.6817725Z" stroke-width="0.5"></path></g><g id="pawn 1"><path id="vector_15" fill="#6153bd" d="M36.880368000000004 83.11080225c-0.35910000000000003 0.12269250000000001 -0.8458800000000001 -0.24538500000000002 -1.1032350000000002 -0.8448825 -0.26334 -0.616455 -0.18354 -1.24089 0.1785525 -1.3965 0.1995 -0.085785 0.71022 0.35511 0.9336600000000002 0.5426400000000001 0.041895 -6.5835 4.8548325000000006 -4.774035 5.434380000000001 0.428925 0.7871272500000001 -0.8400945 1.3196925 -1.88617275 1.5360502500000002 -3.016839 0.21635775000000002 -1.13066625 0.10753050000000001 -2.29953675 -0.31391325 -3.3708517500000004 -0.42144375 -1.07121525 -1.1380477500000001 -2.000985 -2.06672025 -2.68128 -0.9287722500000001 -0.6802950000000001 -2.0313090000000003 -1.08318525 -3.1798305000000004 -1.16178825 -1.1485215 -0.07870275 -2.29574625 0.16997400000000001 -3.3085080000000002 0.71730225 -1.0128615 0.5472285 -1.8495645000000003 1.3705650000000003 -2.413152 2.374449 -0.5635875 1.00378425 -0.83081775 2.1468195000000003 -0.7706685 3.29643825 0.06014925 1.1496187500000001 0.44518425 2.2586392500000003 1.11031725 3.1981845 -1.52906775 0.47610675 -2.8087605 1.5359505000000002 -3.56157375 2.9495077500000004 -0.7528132500000001 1.4135572500000002 -0.91799925 3.06681375 -0.459648 4.60136775 0.4582515 1.534554 1.503033 2.8265160000000003 2.9077125 3.59568825 1.4046795 0.76917225 3.05604075 0.95361 4.59578175 0.51321375 0.6374025000000001 -10.48572 0.6074775 -9.2498175 0.48079500000000003 -9.745575Z" stroke-width="0.5"></path><path id="vector_16" stroke="#120071" stroke-linecap="round" stroke-linejoin="round" d="M36.880368000000004 83.11080225c-0.35910000000000003 0.12269250000000001 -0.8458800000000001 -0.24538500000000002 -1.1032350000000002 -0.8448825 -0.26334 -0.616455 -0.18354 -1.24089 0.1785525 -1.3965 0.1995 -0.085785 0.71022 0.35511 0.9336600000000002 0.5426400000000001 0.041895 -6.5835 4.8548325000000006 -4.774035 5.434380000000001 0.428925 0.7871272500000001 -0.8400945 1.3196925 -1.88617275 1.5360502500000002 -3.016839 0.21635775000000002 -1.13066625 0.10753050000000001 -2.29953675 -0.31391325 -3.3708517500000004 -0.42144375 -1.07121525 -1.1380477500000001 -2.000985 -2.06672025 -2.68128 -0.9287722500000001 -0.6802950000000001 -2.0313090000000003 -1.08318525 -3.1798305000000004 -1.16178825 -1.1485215 -0.07870275 -2.29574625 0.16997400000000001 -3.3085080000000002 0.71730225 -1.0128615 0.5472285 -1.8495645000000003 1.3705650000000003 -2.413152 2.374449 -0.5635875 1.00378425 -0.83081775 2.1468195000000003 -0.7706685 3.29643825 0.06014925 1.1496187500000001 0.4450845 2.2586392500000003 1.11031725 3.1981845 -1.52906775 0.47610675 -2.8087605 1.5359505000000002 -3.56157375 2.9495077500000004 -0.7528132500000001 1.4135572500000002 -0.91799925 3.06681375 -0.459648 4.60136775 0.4582515 1.534554 1.503033 2.8265160000000003 2.9077125 3.59568825 1.4046795 0.76917225 3.05604075 0.95361 4.59578175 0.51321375 0.6374025000000001 -10.48572 0.6074775 -9.2498175 0.48079500000000003 -9.745575Z" stroke-width="0.5"></path><path id="vector_17" fill="#e69ece" d="M49.7064225 93.8996625c-2.4472665 -1.3249792500000002 -5.126152500000001 -2.16746775 -7.8912225 -2.48178l0.2384025 2.116695c-0.2966565 0.429723 -0.7078260000000001 0.7677757500000001 -1.18692525 0.97565475 -0.4789995 0.207879 -1.0067767500000002 0.277305 -1.52328225 0.20039775 -0.57426075 -0.04319175 -1.1334592500000003 -0.20428800000000003 -1.6426830000000001 -0.473214 -0.50922375 -0.268926 -0.95750025 -0.6398962499999999 -1.3168995000000001 -1.0898685000000001l0.09975 -1.7047275000000002c-3.9363345000000005 0.451668 -7.62878025 2.1374429999999998 -10.5485625 4.815930000000001 -1.673805 1.5720600000000002 -2.8498575 3.4483575 -2.6154450000000002 5.845350000000001 0.5985 6.170535 5.6857500000000005 24.013815000000005 7.4593050000000005 29.899065 0.1566075 0.5216925 2.176545 1.2718125 2.639385 1.458345 3.9471075 1.3855275 8.212018500000001 1.5940050000000001 12.275235 0.5985 1.29625125 -0.38004750000000004 2.53355025 -0.93765 3.676785 -1.6568475l5.27877 -28.77588c0.22304100000000002 -1.9281675000000003 -0.12678224999999999 -3.87837975 -1.005879 -5.60844375 -0.878997 -1.730064 -2.2482652499999998 -3.1627732500000003 -3.9367335000000003 -4.119176250000001Z" stroke-width="0.5"></path><path id="vector_18" stroke="#120071" stroke-linecap="round" stroke-linejoin="round" d="M36.486555 91.44311925000001c-3.9375315000000004 0.45067050000000003 -7.631274 2.136645 -10.551555 4.815930000000001 -1.673805 1.5720600000000002 -2.8498575 3.4483575 -2.6154450000000002 5.84505075 0.5985 6.184500000000001 5.699715 24.0527175 7.4593050000000005 29.899065 0.1566075 0.5216925 2.176545 1.2718125 2.639385 1.458345 3.9471075 1.386525 8.212018500000001 1.5940050000000001 12.275235 0.5985 1.29625125 -0.37905 2.53355025 -0.9366525 3.676785 -1.6568475l5.27877 -28.77588c0.221445 -1.92717 -0.12957525 -3.876285 -1.0092705000000002 -5.605451250000001 -0.87969525 -1.7288670000000002 -2.2491630000000002 -3.16037925 -3.937332 -4.1158845 -2.4472665 -1.3248795000000002 -5.126152500000001 -2.16746775 -7.8912225 -2.48178" stroke-width="0.5"></path><path id="vector_19" stroke="#120071" stroke-linecap="round" stroke-linejoin="round" d="M40.24902525 86.6278875c-1.310715 0.209475 -2.6543475 -1.16109 -3.2767875 -3.192l-0.588525 9.7126575c0.35939925 0.44997225 0.80767575 0.8210422500000001 1.3168995000000001 1.08996825 0.50922375 0.268926 1.06842225 0.43002225 1.6426830000000001 0.47311425 0.509922 0.076209 1.0310160000000002 0.009376500000000001 1.5052275 -0.19301625000000003 0.4742115 -0.20229300000000003 0.88308675 -0.532266 1.18104 -0.9531112500000001 0.0708225 -0.09975 0.0668325 0.35511 -0.8079750000000001 -7.435365 -0.266133 0.26084625 -0.6053827500000001 0.43451100000000004 -0.9725625 0.49775250000000004Z" stroke-width="0.5"></path><path id="vector_20" fill="#6153bd" d="M38.964345 86.34968475000001c0.07461300000000001 0.59061975 0.3792495 1.1278732500000002 0.8475757500000001 1.4952525 0.46842600000000006 0.36737925000000005 1.06283625 0.53515875 1.6541542500000002 0.4668300000000001l-0.2443875 -2.1795375000000003c-0.29376375 0.290472 -0.67879875 0.4706205 -1.08996825 0.51022125 -0.41126925000000003 0.039600750000000004 -0.823536 -0.06374025 -1.16737425 -0.29276625Z" stroke-width="0.5"></path><path id="vector_21" stroke="#120071" stroke-linecap="round" stroke-linejoin="round" d="M38.964345 86.34968475000001c0.07461300000000001 0.59061975 0.3792495 1.1278732500000002 0.8475757500000001 1.4952525 0.46842600000000006 0.36737925000000005 1.06283625 0.53515875 1.6541542500000002 0.4668300000000001l-0.2443875 -2.1795375000000003c-0.29376375 0.290472 -0.67879875 0.4706205 -1.08996825 0.51022125 -0.41126925000000003 0.039600750000000004 -0.823536 -0.06374025 -1.16737425 -0.29276625Z" stroke-width="0.5"></path><path id="vector_22" stroke="#120071" stroke-linecap="round" stroke-linejoin="round" d="M42.272853 81.465027c-0.784035 -4.925655 -5.3426100000000005 -6.483750000000001 -5.386500000000001 -0.052867500000000005 -0.22344000000000003 -0.18753 -0.73416 -0.6274275 -0.9336600000000002 -0.5426400000000001 -0.3620925 0.15561 -0.4418925 0.7800450000000001 -0.1785525 1.3965 0.257355 0.5985 0.744135 0.9675750000000001 1.1032350000000002 0.8448825 0.5735625 2.208465 1.9890150000000002 3.7376325 3.3685575 3.517185 1.5361500000000001 -0.2443875 2.4468675 -2.555595 2.02692 -5.163060000000001Z" stroke-width="0.5"></path><path id="vector_23" stroke="#120071" stroke-linecap="round" stroke-linejoin="round" d="M40.084338 94.7216025v19.3465125" stroke-width="0.5"></path><path id="vector_24" stroke="#120071" stroke-linecap="round" stroke-linejoin="round" d="m30.668037750000003 93.08899425 9.4164 10.11135825 8.823885 -9.713355750000002" stroke-width="0.5"></path><path id="vector_25" fill="#e69ece" d="M58.38058275 149.6020575c-0.3740625 -3.33564 -2.44587 -6.373027500000001 -5.8902375000000005 -6.882750000000001 -3.0852675 2.3550975000000003 -7.998952500000001 2.67729 -12.2961825 2.67729 -3.876285 0 -9.056302500000001 -0.5576025000000001 -12.269250000000001 -2.6842725 -1.6566480000000001 0.24039750000000001 -3.1713517500000004 1.06932 -4.26680625 2.3351475 -1.0954545000000002 1.2658274999999999 -1.6983435 2.8837725 -1.69824375 4.5575775v0.6453825000000001c0 2.74911 8.179499999999999 4.9765275 18.276195 4.9765275 5.078272500000001 0 11.07225 -0.1995 15.7734675 -2.29425 1.6688175 -0.7371525 2.56956 -1.5790425000000001 2.3710575 -3.3306525000000002Z" stroke-width="0.5"></path><path id="vector_26" stroke="#120071" stroke-linecap="round" stroke-linejoin="round" d="M58.38058275 149.6020575c-0.3740625 -3.33564 -2.44587 -6.373027500000001 -5.8902375000000005 -6.882750000000001 -3.0852675 2.3550975000000003 -7.998952500000001 2.67729 -12.2961825 2.67729 -3.876285 0 -9.056302500000001 -0.5576025000000001 -12.269250000000001 -2.6842725 -1.6566480000000001 0.24039750000000001 -3.1713517500000004 1.06932 -4.26680625 2.3351475 -1.0954545000000002 1.2658274999999999 -1.6983435 2.8837725 -1.69824375 4.5575775v0.6453825000000001c0 2.74911 8.179499999999999 4.9765275 18.276195 4.9765275 5.078272500000001 0 11.07225 -0.1995 15.7734675 -2.29425 1.6688175 -0.7371525 2.56956 -1.5790425000000001 2.3710575 -3.3306525000000002Z" stroke-width="0.5"></path><path id="vector_27" stroke="#120071" stroke-linecap="round" stroke-linejoin="round" d="M53.72934 137.78667000000002c-2.7042225 -1.3486200000000002 -2.5007325000000002 -2.2134525 -3.7905 -3.3516 -0.30972375 0.40099500000000005 -0.66603075 0.764085 -1.0613400000000002 1.08129 -1.929165 1.5441300000000002 -6.2373675 1.7526075 -8.67825 1.7526075 -2.97255 0 -7.98 -0.492765 -9.83136 -2.7979875000000005 -0.9107175000000001 0.9755550000000001 -1.3446300000000002 2.3002350000000003 -2.56158 2.9037225 -0.8398950000000001 0.416955 -2.3291625000000002 0.48378750000000004 -2.3281650000000003 1.72767 0 2.394 2.8698075 4.078777500000001 4.805955 4.788 3.1925985000000003 1.0733100000000002 6.5477895 1.5830325 9.91515 1.5052275 5.4752775 0 11.9530425 -0.5216925 14.3709825 -5.108197500000001 0.64239 -1.2279225000000002 0.353115 -1.9062225000000002 -0.8408925 -2.5007325000000002Z" stroke-width="0.5"></path><path id="vector_28" fill="#e69ece" d="M49.376050500000005 132.39717750000003c-2.9286600000000003 1.83939 -6.821902500000001 2.874795 -12.340072500000002 1.9800375000000001 -1.2339075000000002 -0.17256749999999998 -2.44517175 -0.48079500000000003 -3.6119475000000003 -0.9186975000000001 -0.46284000000000003 -0.18653250000000002 -2.4827775 -0.9366525 -2.639385 -1.458345 -0.5386500000000001 -0.0369075 -0.955605 0.5506200000000001 -0.955605 1.09725 0 1.5870225 2.0199375 2.7042225 3.3835200000000003 3.1730475 4.0428675 1.3965 12.8587725 1.49625 15.66075 -0.7541100000000001 0.575358 -0.45087000000000005 1.0614397500000001 -1.0044825 1.4334075000000002 -1.633905 0.6304200000000001 -1.1231849999999999 -0.165585 -1.5311625 -0.9306675000000001 -1.4852775000000003Z" stroke-width="0.5"></path><path id="vector_29" stroke="#120071" stroke-linecap="round" stroke-linejoin="round" d="M49.376050500000005 132.39717750000003c-2.9286600000000003 1.83939 -6.821902500000001 2.874795 -12.340072500000002 1.9800375000000001 -1.2339075000000002 -0.17256749999999998 -2.44517175 -0.48079500000000003 -3.6119475000000003 -0.9186975000000001 -0.46284000000000003 -0.18653250000000002 -2.4827775 -0.9366525 -2.639385 -1.458345 -0.5386500000000001 -0.0369075 -0.955605 0.5506200000000001 -0.955605 1.09725 0 1.5870225 2.0199375 2.7042225 3.3835200000000003 3.1730475 4.0428675 1.3965 12.8587725 1.49625 15.66075 -0.7541100000000001 0.575358 -0.45087000000000005 1.0614397500000001 -1.0044825 1.4334075000000002 -1.633905 0.6304200000000001 -1.1231849999999999 -0.165585 -1.5311625 -0.9306675000000001 -1.4852775000000003Z" stroke-width="0.5"></path></g><g id="pawn 2"><path id="vector_30" fill="#6153bd" d="M88.48623 172.66725c-0.33615750000000005 -2.9755425000000004 -2.1695625 -5.4972225 -5.1221625 -5.9121825 -4.8328875 3.509205 -15.279705 2.36607 -18.9894075 1.011465 -0.70732725 -0.25835250000000004 -1.3826347500000002 -0.5975025 -2.012955 -1.0104674999999999 -1.4213377500000002 0.2064825 -2.720781 0.9177000000000001 -3.6607252500000005 2.00298 -0.9398445000000001 1.0862775 -1.45724775 2.4747975 -1.4574472500000002 3.9102 0 4.208452500000001 11.511149999999999 4.823910000000001 15.6797025 4.823910000000001 4.357080000000001 0 9.50019 -0.173565 13.532085000000002 -1.9660725000000001 1.42443 -0.6314175000000001 2.200485 -1.3536075 2.03091 -2.8598325Z" stroke-width="0.5"></path><path id="vector_31" stroke="#120071" stroke-linecap="round" stroke-linejoin="round" d="M88.48623 172.66725c-0.33615750000000005 -2.9755425000000004 -2.1695625 -5.4972225 -5.1221625 -5.9121825 -4.8328875 3.509205 -15.279705 2.36607 -18.9894075 1.011465 -0.70732725 -0.25835250000000004 -1.3826347500000002 -0.5975025 -2.012955 -1.0104674999999999 -1.4213377500000002 0.2064825 -2.720781 0.9177000000000001 -3.6607252500000005 2.00298 -0.9398445000000001 1.0862775 -1.45724775 2.4747975 -1.4574472500000002 3.9102 0 4.208452500000001 11.511149999999999 4.823910000000001 15.6797025 4.823910000000001 4.357080000000001 0 9.50019 -0.173565 13.532085000000002 -1.9660725000000001 1.42443 -0.6314175000000001 2.200485 -1.3536075 2.03091 -2.8598325Z" stroke-width="0.5"></path><path id="vector_32" stroke="#120071" stroke-linecap="round" stroke-linejoin="round" d="M84.4952325 162.5336475c-2.3072175 -1.1501175000000001 -2.1555975000000003 -1.90722 -3.2468625 -2.8737975 -1.67181 2.1945 -5.3755275000000005 2.4309075 -8.36703 2.4309075 -2.45784 0 -7.055317500000001 -0.5107200000000001 -8.468775 -2.364075 -0.7600950000000001 0.8379 -1.1371499999999999 1.945125 -2.1635775 2.45385 -0.720195 0.3581025 -1.995 0.41496 -1.995 1.482285 0 2.0538525 2.4628275 3.4992300000000003 4.123665000000001 4.106707500000001 4.3082025 1.5740550000000002 17.699640000000002 2.8618275000000004 20.837775 -3.0922500000000004 0.5526150000000001 -1.051365 0.3042375 -1.633905 -0.720195 -2.1436275Z" stroke-width="0.5"></path><path id="vector_33" fill="#e69ece" d="M81.0538575 157.76160750000003c-0.08708175000000001 -0.0408975 -0.18324075 -0.0588525 -0.27930000000000005 -0.052867500000000005 -1.1496187500000001 1.139145 -2.66123025 1.8403875 -4.27329 1.9820325000000003 -3.3498045000000003 0.5416425 -6.7804065 0.277305 -10.0079175 -0.77007 -0.7331625 -0.221445 -1.4154525000000002 -0.584535 -2.0079675 -1.0703175 -0.142044 0.04389 -0.26673150000000007 0.13167 -0.35630700000000004 0.249375 -0.08947575 0.1187025 -0.13935075 0.26234250000000003 -0.14244300000000001 0.41097 0 2.85684 5.965050000000001 3.5800275000000004 8.8927125 3.5800275000000004 3.192 0 7.2009525000000005 -0.26533500000000004 8.67825 -2.9057175 0.39401250000000004 -0.6992475 0.217455 -1.08129 -0.5037375000000001 -1.4234325Z" stroke-width="0.5"></path><path id="vector_34" stroke="#120071" stroke-linecap="round" stroke-linejoin="round" d="M81.0538575 157.76160750000003c-0.08708175000000001 -0.0408975 -0.18324075 -0.0588525 -0.27930000000000005 -0.052867500000000005 -1.1496187500000001 1.139145 -2.66123025 1.8403875 -4.27329 1.9820325000000003 -3.3498045000000003 0.5416425 -6.7804065 0.277305 -10.0079175 -0.77007 -0.7331625 -0.221445 -1.4154525000000002 -0.584535 -2.0079675 -1.0703175 -0.142044 0.04389 -0.26673150000000007 0.13167 -0.35630700000000004 0.249375 -0.08947575 0.1187025 -0.13935075 0.26234250000000003 -0.14244300000000001 0.41097 0 2.85684 5.965050000000001 3.5800275000000004 8.8927125 3.5800275000000004 3.192 0 7.2009525000000005 -0.26533500000000004 8.67825 -2.9057175 0.39401250000000004 -0.6992475 0.217455 -1.08129 -0.5037375000000001 -1.4234325Z" stroke-width="0.5"></path><path id="vector_35" fill="#6153bd" d="M72.84942 100.011345c-0.8873759999999999 0.0009975000000000001 -1.75550025 0.25935 -2.4991365 0.744135 -0.7435365 0.48378750000000004 -1.3306650000000002 1.1740575000000002 -1.6903635000000001 1.985025 -1.0335097500000001 0.2902725 -1.93285575 0.9326625000000001 -2.54153025 1.8164475 -0.6086745 0.8847825 -0.8880742500000001 1.9541025 -0.789621 3.0234225 0.09845325 1.0683225 0.5685749999999999 2.068815 1.3284705 2.826915 0.7598955000000001 0.7581 1.7615850000000002 1.2259275 2.83060575 1.3216875000000001 0.09975 -1.64787 0.1107225 -1.23291 -0.005985000000000001 -1.681785 -0.3481275 0.1187025 -0.8189475 -0.237405 -1.067325 -0.8169525 -0.25536000000000003 -0.5985 -0.1785525 -1.197 0.17256749999999998 -1.3516125 0.1925175 -0.081795 0.6872775 0.34314 0.9027375000000001 0.5256825 0.0408975 -6.346095 4.667302500000001 -4.6393725 5.25483 0.37605750000000004 0.9560040000000001 -0.4319175 1.734852 -1.179045 2.2067692500000002 -2.116695 0.47191725000000007 -0.9366525 0.608475 -2.00697 0.38673075 -3.0333975 -0.22164450000000002 -1.02543 -0.7880250000000001 -1.9441275000000002 -1.60487775 -2.6024775 -0.8167530000000001 -0.6583500000000001 -1.834602 -1.01745 -2.88387225 -1.0164525Z" stroke-width="0.5"></path><path id="vector_36" stroke="#120071" stroke-linecap="round" stroke-linejoin="round" d="M72.84942 100.011345c-0.8873759999999999 0.0009975000000000001 -1.75550025 0.25935 -2.4991365 0.744135 -0.7435365 0.48378750000000004 -1.3306650000000002 1.1740575000000002 -1.6903635000000001 1.985025 -1.0335097500000001 0.2902725 -1.93285575 0.9326625000000001 -2.54153025 1.8164475 -0.6086745 0.8847825 -0.8880742500000001 1.9541025 -0.789621 3.0234225 0.09845325 1.0683225 0.5685749999999999 2.068815 1.3284705 2.826915 0.7598955000000001 0.7581 1.7615850000000002 1.2259275 2.83060575 1.3216875000000001 0.09975 -1.64787 0.1107225 -1.23291 -0.005985000000000001 -1.681785 -0.3481275 0.1187025 -0.8189475 -0.237405 -1.067325 -0.8169525 -0.25536000000000003 -0.5985 -0.1785525 -1.197 0.17256749999999998 -1.3516125 0.1925175 -0.081795 0.6872775 0.34314 0.9027375000000001 0.5256825 0.0408975 -6.346095 4.667302500000001 -4.6393725 5.25483 0.37605750000000004 0.9560040000000001 -0.4319175 1.734852 -1.179045 2.2067692500000002 -2.116695 0.47191725000000007 -0.9366525 0.608475 -2.00697 0.38673075 -3.0333975 -0.22164450000000002 -1.02543 -0.7880250000000001 -1.9441275000000002 -1.60487775 -2.6024775 -0.8167530000000001 -0.6583500000000001 -1.834602 -1.01745 -2.88387225 -1.0164525Z" stroke-width="0.5"></path><path id="vector_37" fill="#6153bd" d="m63.84 119.53641 1.8653250000000001 11.4183825 2.32617 -1.596c0.065835 -0.044887500000000004 0.14354025 -0.06882750000000001 0.2232405 -0.06882750000000001 0.0796005 -0.0009975000000000001 0.15760500000000002 0.0229425 0.22373925 0.0668325 0.066234 0.044887500000000004 0.117705 0.10773 0.14772975000000002 0.181545 0.03002475 0.073815 0.037206750000000004 0.1546125 0.020748 0.23241750000000003l-1.143135 5.4313875000000005 4.67229 12.5555325v-26.455695c-0.60717825 -0.028927500000000002 -1.2020872500000002 -0.1805475 -1.7491162500000002 -0.4458825 -0.547029 -0.2643375 -1.0348065000000002 -0.6374025000000001 -1.4339062500000002 -1.0962525l0.09975 -1.649865c-1.8092655000000002 0.2264325 -3.57753375 0.7072275 -5.252835 1.426425Z" stroke-width="0.5"></path><path id="vector_38" fill="#6153bd" d="M72.1791 150.0469425c-5.53413 -14.871727500000002 -5.51418 -14.71911 -5.476275 -14.894670000000001l0.9615900000000001 -4.570545 -2.02293 1.386525c-0.05536125 0.037905 -0.11950050000000001 0.061845000000000004 -0.186333 0.06783000000000002 -0.0668325 0.006982500000000001 -0.1342635 -0.0029925000000000004 -0.19600875 -0.029925 -0.06174525 -0.025935 -0.1159095 -0.06783000000000002 -0.15730575000000002 -0.1206975 -0.041496 -0.052867500000000005 -0.06892725 -0.11471250000000001 -0.07980000000000001 -0.181545l-1.9301625000000002 -11.822370000000001c-1.537746 0.7461300000000001 -2.9543955000000004 1.7196900000000002 -4.2024675 2.8867650000000005 -1.6199400000000002 1.5211875 -2.75709 3.3366375000000006 -2.5306575000000002 5.655825 0.5246850000000001 5.386500000000001 4.606455 19.9709475 6.1116825 25.166925000000003 0.38603250000000006 1.3326600000000002 0.7800450000000001 3.0234225 1.7805375 4.039875 1.596 1.6199400000000002 5.719665 2.2194375 7.928130000000001 2.3142v-9.8981925Z" stroke-width="0.5"></path><path id="vector_39" fill="#6153bd" d="M72.97700025 121.20622500000002v26.5524525l4.67229 -12.5555325 -1.14114 -5.428395c-0.01665825 -0.077805 -0.009576 -0.15960000000000002 0.0205485 -0.23341500000000004 0.03002475 -0.073815 0.0815955 -0.13665750000000002 0.14792924999999998 -0.181545 0.0664335 -0.04389 0.1446375 -0.06783000000000002 0.2244375 -0.0668325 0.07989975 0 0.15780450000000001 0.0249375 0.22353975 0.06982500000000001l2.176545 1.49625 -0.6393975000000001 -11.777482500000001c-1.42991625 -0.48279 -2.906715 -0.81396 -4.4059575 -0.9885225000000001l0.23042250000000003 2.0488649999999997c-0.36259125000000003 0.520695 -0.89685225 0.89775 -1.5092174999999999 1.0643325Z" stroke-width="0.5"></path><path id="vector_40" fill="#6153bd" d="M76.91523000000001 151.52025c-0.221046 0.0009975000000000001 -0.43720425000000007 0.0668325 -0.6209437500000001 0.189525 -0.1837395 0.12269250000000001 -0.32688075 0.297255 -0.411369 0.5017425 -0.08448825 0.2044875 -0.10653300000000002 0.428925 -0.0632415 0.6463800000000001 0.043291500000000004 0.2164575 0.1498245 0.4159575 0.3062325 0.5715675 0.156408 0.1566075 0.3557085 0.26334 0.572565 0.3062325 0.2168565 0.0428925 0.44169300000000006 0.0209475 0.645981 -0.06384000000000001 0.20418825000000002 -0.08478750000000002 0.37885050000000003 -0.22842750000000003 0.50164275 -0.4119675 0.12279225 -0.18354 0.188328 -0.39999750000000006 0.188328 -0.6214425 -0.00019950000000000002 -0.2962575 -0.11820375 -0.580545 -0.32807775000000006 -0.7900200000000001 -0.209874 -0.2104725 -0.49446075 -0.3281775 -0.7911172500000001 -0.3281775Z" stroke-width="0.5"></path><path id="vector_41" fill="#6153bd" d="M81.88866525 120.4890225c-0.7790475000000001 -0.424935 -1.5854265 -0.7989975000000001 -2.4139500000000003 -1.1181975l0.6643350000000001 12.2463075c0.0041895 0.0748125 -0.012568500000000002 0.1486275 -0.0484785 0.2144625 -0.03581025 0.065835 -0.08927625 0.1197 -0.15431325 0.15561 -0.065037 0.0369075 -0.1390515 0.0548625 -0.21356475000000003 0.0508725 -0.07451325 -0.0029925000000000004 -0.1466325 -0.0269325 -0.20807850000000003 -0.06982500000000001l-2.02293 -1.3875225 0.9615900000000001 4.5715425000000005c0.037905 0.17556 0.057855000000000004 0.0209475 -5.476275 14.894670000000001v9.917145000000001c2.2463699999999998 0.0129675 5.511187500000001 -0.3042375 7.25781 -1.7166975000000002 1.382535 -1.1181975 1.3536075 -2.6433750000000003 1.661835 -4.256332500000001 0.27830250000000006 -1.4593425000000002 4.6313925000000005 -23.291625000000003 4.779022500000001 -24.09561 0.21496125000000002 -1.8643275000000001 -0.12438825 -3.7515975000000004 -0.97585425 -5.424405 -0.8513662500000001 -1.6728075000000002 -2.176944 -3.0573375 -3.81114825 -3.9820200000000003Zm-4.973535 34.0616325c-0.37895025000000004 0 -0.749322 -0.11271750000000001 -1.0643325 -0.32319000000000003 -0.31491075 -0.2104725 -0.5603955 -0.5097225000000001 -0.70533225 -0.8598450000000001 -0.144837 -0.3501225 -0.18264225000000003 -0.7351575 -0.10862775000000001 -1.1072250000000001 0.07411425 -0.3720675 0.25665675 -0.7132125 0.5246850000000001 -0.9805425 0.26802825 -0.26832750000000005 0.6094725 -0.45087000000000005 0.981141 -0.5246850000000001 0.3716685 -0.073815 0.7569030000000001 -0.03591 1.1070255 0.109725 0.35002275 0.1446375 0.6492727500000001 0.39002250000000005 0.85974525 0.7052325 0.21057225000000002 0.31521000000000005 0.32289075 0.68628 0.32289075 1.0643325 -0.0004987500000000001 0.508725 -0.202692 0.9955050000000001 -0.562191 1.3556025 -0.35939925 0.35910000000000003 -0.84677775 0.5605950000000001 -1.355004 0.5605950000000001Z" stroke-width="0.5"></path><path id="vector_42" stroke="#120071" stroke-linecap="round" stroke-linejoin="round" d="M69.096825 118.10998500000001c-3.808854 0.43690500000000004 -7.38199875 2.0678175 -10.207417500000002 4.6583250000000005 -1.6199400000000002 1.5211875 -2.75709 3.3366375000000006 -2.5306575000000002 5.655825 0.5256825 5.386500000000001 4.6054575 19.96596 6.1116825 25.166925000000003 0.81396 2.8119525000000003 1.1900175000000002 4.3979775 4.0229175 5.3296425 3.227511 1.0473750000000002 6.658113000000001 1.3117125 10.0079175 0.77007 1.3472235000000001 -0.1546125 2.63250225 -0.6513675000000001 3.7336425 -1.4433825000000002 1.382535 -1.1181975 1.3536075 -2.6433750000000003 1.661835 -4.256332500000001 0.27930000000000005 -1.46034 4.6313925000000005 -23.291625000000003 4.779022500000001 -24.09561 0.21476175 -1.8643275000000001 -0.12488700000000001 -3.7515975000000004 -0.9764527500000001 -5.424405 -0.85156575 -1.6728075000000002 -2.177343 -3.058335 -3.8115472500000003 -3.9820200000000003 -2.3678655 -1.282785 -4.9601685 -2.0977425000000003 -7.635862500000001 -2.4029775" stroke-width="0.5"></path><path id="vector_43" stroke="#120071" stroke-linecap="round" stroke-linejoin="round" d="M72.73760025 113.45166c-1.26882 0.1995 -2.56956 -1.1241825 -3.1710525 -3.0922500000000004l-0.57057 9.398445c0.34772850000000005 0.4359075 0.781641 0.7950075000000001 1.2746055 1.055355 0.49296449999999997 0.2603475 1.03430775 0.416955 1.5902145 0.45785250000000005 0.49326375 0.073815 0.9973005 0.009975000000000001 1.4561505000000001 -0.185535 0.45885000000000004 -0.19551000000000002 0.854658 -0.5137125 1.1433345000000001 -0.9206925000000001 0.0728175 -0.09975 0.061845000000000004 0.31521000000000005 -0.7820400000000001 -7.194967500000001 -0.25765425 0.2523675 -0.5855325 0.41994750000000003 -0.9406425 0.4817925Z" stroke-width="0.5"></path><path id="vector_44" fill="#6153bd" d="M71.4998025 113.1853275c0.34713 1.24488 1.0733100000000002 2.0678175 2.4169425 1.91121l-0.2384025 -2.124675c-0.28329 0.28129499999999996 -0.6545595000000001 0.4558575 -1.051365 0.49476000000000003 -0.39680550000000003 0.0389025 -0.7949077500000001 -0.0608475 -1.127175 -0.28129499999999996Z" stroke-width="0.5"></path><path id="vector_45" stroke="#120071" stroke-linecap="round" stroke-linejoin="round" d="M71.4998025 113.1853275c0.34713 1.24488 1.0733100000000002 2.0678175 2.4169425 1.91121l-0.2384025 -2.124675c-0.28329 0.28129499999999996 -0.6545595000000001 0.4558575 -1.051365 0.49476000000000003 -0.39680550000000003 0.0389025 -0.7949077500000001 -0.0608475 -1.127175 -0.28129499999999996Z" stroke-width="0.5"></path><path id="vector_46" stroke="#120071" stroke-linecap="round" stroke-linejoin="round" d="M74.6957925 108.45418500000001c-0.7531125000000001 -4.7271525 -5.1700425 -6.2992125 -5.2099425 -0.049875 -0.21546 -0.1825425 -0.71022 -0.608475 -0.9027375000000001 -0.5256825 -0.35112 0.1506225 -0.4279275 0.7551075 -0.17256749999999998 1.3516125 0.2483775 0.5795475 0.7191975 0.9366525 1.067325 0.8169525 0.55461 2.136645 1.925175 3.6169350000000002 3.25983 3.4044675 1.4832825000000003 -0.23541 2.360085 -2.4738 1.9580925000000002 -4.997475Z" stroke-width="0.5"></path></g><g id="pawn 4"><path id="vector_47" fill="#6153bd" d="M171.79443750000002 94.22574525c1.2628350000000002 -9.1839825 1.167075 -8.056707750000001 1.0383975 -8.554460250000002 -0.36608250000000003 0.1246875 -0.8608425000000001 -0.249375 -1.1211900000000001 -0.85785 -0.26733 -0.6254325000000001 -0.18653250000000002 -1.2609397500000001 0.181545 -1.41854475 0.1995 -0.0867825 0.7211925 0.3600975 0.947625 0.5516175000000001 0.0129675 -2.0678175 0.5985 -4.08965025 1.885275 -4.2891502500000005 -0.7231875 -0.438102 -1.5640800000000001 -0.64328775 -2.4079650000000004 -0.5878267500000001 -0.843885 0.055460999999999996 -1.6508625000000001 0.36897525000000003 -2.3112075 0.8979495000000001 -2.3271675000000003 1.7506125 -3.4244175 7.0972125 -0.656355 14.794920000000001 0.8029875000000001 -0.227829 1.6189425000000002 -0.40698 2.4438750000000002 -0.5366550000000001Z" stroke-width="0.5"></path><path id="vector_48" stroke="#120071" stroke-linecap="round" stroke-linejoin="round" d="M171.79443750000002 94.22574525c1.2628350000000002 -9.1839825 1.167075 -8.056707750000001 1.0383975 -8.554460250000002 -0.36608250000000003 0.1246875 -0.8608425000000001 -0.249375 -1.1211900000000001 -0.85785 -0.26733 -0.6254325000000001 -0.18653250000000002 -1.2609397500000001 0.181545 -1.41854475 0.1995 -0.0867825 0.7211925 0.3600975 0.947625 0.5516175000000001 0.0129675 -2.0678175 0.5985 -4.08965025 1.885275 -4.2891502500000005 -0.7231875 -0.438102 -1.5640800000000001 -0.64328775 -2.4079650000000004 -0.5878267500000001 -0.843885 0.055460999999999996 -1.6508625000000001 0.36897525000000003 -2.3112075 0.8979495000000001 -2.3271675000000003 1.7506125 -3.4244175 7.0972125 -0.656355 14.794920000000001 0.8029875000000001 -0.227829 1.6189425000000002 -0.40698 2.4438750000000002 -0.5366550000000001Z" stroke-width="0.5"></path><path id="vector_49" fill="#e69ece" d="M194.48556750000003 152.99156250000001c-0.3740625 -3.3346425 -2.4468675 -6.3720300000000005 -5.891235 -6.882750000000001 -3.08427 2.3550975000000003 -7.998952500000001 2.6762925 -12.2961825 2.6762925 -3.8752874999999998 0 -9.055305 -0.5576025000000001 -12.263265 -2.6842725 -1.6568475 0.24039750000000001 -3.1710525 1.06932 -4.2673049999999995 2.3351475 -1.095255 1.2658274999999999 -1.6987425000000003 2.8837725 -1.6987425000000003 4.5575775v0.6463800000000001c0 2.7481125 8.179499999999999 4.975530000000001 18.2771925 4.975530000000001 5.078272500000001 0 11.07225 -0.1995 15.77247 -2.29425 1.6648275000000001 -0.736155 2.5645725 -1.5780450000000001 2.3670675000000005 -3.3296550000000003Z" stroke-width="0.5"></path><path id="vector_50" stroke="#120071" stroke-linecap="round" stroke-linejoin="round" d="M194.48556750000003 152.99156250000001c-0.3740625 -3.3346425 -2.4468675 -6.3720300000000005 -5.891235 -6.882750000000001 -3.08427 2.3550975000000003 -7.998952500000001 2.6762925 -12.2961825 2.6762925 -3.8752874999999998 0 -9.055305 -0.5576025000000001 -12.263265 -2.6842725 -1.6568475 0.24039750000000001 -3.1710525 1.06932 -4.2673049999999995 2.3351475 -1.095255 1.2658274999999999 -1.6987425000000003 2.8837725 -1.6987425000000003 4.5575775v0.6463800000000001c0 2.7481125 8.179499999999999 4.975530000000001 18.2771925 4.975530000000001 5.078272500000001 0 11.07225 -0.1995 15.77247 -2.29425 1.6648275000000001 -0.736155 2.5645725 -1.5780450000000001 2.3670675000000005 -3.3296550000000003Z" stroke-width="0.5"></path><path id="vector_51" stroke="#120071" stroke-linecap="round" stroke-linejoin="round" d="M189.834225 141.176175c-2.70522 -1.3486200000000002 -2.5007325000000002 -2.2134525 -3.7905 -3.3516 -0.31221750000000004 0.40099500000000005 -0.67032 0.764085 -1.0683225 1.08129 -1.929165 1.5451275 -6.23637 1.753605 -8.6832375 1.753605 -2.97255 0 -7.98 -0.49875 -9.830362500000001 -2.7979875000000005 -0.9107175000000001 0.9745575000000001 -1.3456275 2.2992375000000003 -2.56158 2.902725 -0.8398950000000001 0.416955 -2.33016 0.48378750000000004 -2.3291625000000002 1.7286675000000002 0 2.394 2.8698075 4.078777500000001 4.805955 4.788 3.1929975 1.0733100000000002 6.549585 1.5830325 9.917145000000001 1.5062250000000001 5.476275 0 11.95404 -0.5216925 14.3709825 -5.108197500000001 0.6553575 -1.2299175000000002 0.36309 -1.9082175000000001 -0.8309175 -2.5027275Z" stroke-width="0.5"></path><path id="vector_52" fill="#e69ece" d="M184.9694175 135.29990250000003c-0.9266775 1.5461250000000002 -2.9845200000000003 2.1895124999999998 -4.76406 2.48178 -3.5161875 0.5675775 -7.1171625 0.2902725 -10.50567 -0.8089725000000001 -0.939645 -0.27132000000000006 -1.7925075 -0.7820400000000001 -2.4747975 -1.4832825000000003 -0.5376525000000001 -0.0369075 -1.29675 0.45186750000000003 -1.29675 0.9975 0 1.5880200000000002 2.0209349999999997 2.7042225 3.3835200000000003 3.1730475 2.2573425 0.712215 4.61643 1.0493700000000001 6.9825 0.9975 2.4418800000000003 0 6.749085 -0.2044875 8.6832375 -1.753605 0.5755574999999999 -0.4498725 1.0623375 -1.003485 1.4334075000000002 -1.6329075000000002 0.6304200000000001 -1.1211900000000001 -0.676305 -2.0169449999999998 -1.4413875 -1.97106Z" stroke-width="0.5"></path><path id="vector_53" stroke="#120071" stroke-linecap="round" stroke-linejoin="round" d="M184.9694175 135.29990250000003c-0.9266775 1.5461250000000002 -2.9845200000000003 2.1895124999999998 -4.76406 2.48178 -3.5161875 0.5675775 -7.1171625 0.2902725 -10.50567 -0.8089725000000001 -0.939645 -0.27132000000000006 -1.7925075 -0.7820400000000001 -2.4747975 -1.4832825000000003 -0.5376525000000001 -0.0369075 -1.29675 0.45186750000000003 -1.29675 0.9975 0 1.5880200000000002 2.0209349999999997 2.7042225 3.3835200000000003 3.1730475 2.2573425 0.712215 4.61643 1.0493700000000001 6.9825 0.9975 2.4418800000000003 0 6.749085 -0.2044875 8.6832375 -1.753605 0.5755574999999999 -0.4498725 1.0623375 -1.003485 1.4334075000000002 -1.6329075000000002 0.6304200000000001 -1.1211900000000001 -0.676305 -2.0169449999999998 -1.4413875 -1.97106Z" stroke-width="0.5"></path><path id="vector_54" stroke="#120071" stroke-linecap="round" stroke-linejoin="round" d="M171.79443750000002 94.22594475000001c-3.7635675 0.551418 -7.2747675 2.22332775 -10.07475 4.797975 -1.69575 1.5959002500000001 -2.89275 3.50312025 -2.6563425 5.937020250000001 0.5516175000000001 5.655825 4.834882500000001 20.9584725 6.415920000000001 26.416792500000003 0.8548575 2.9526000000000003 1.2488700000000001 4.61643 4.2224175 5.594977500000001 3.3885075 1.0992450000000002 6.9894825 1.37655 10.50567 0.8089725000000001 1.414455 -0.16359 2.763075 -0.6852825000000001 3.9191775 -1.5162 1.4503650000000001 -1.17306 1.42044 -2.7740475000000004 1.74363 -4.4678025 0.293265 -1.5321600000000002 4.861815 -24.447727500000003 5.0164275 -25.291612500000003 0.2264325 -1.9580925000000002 -0.129675 -3.93813 -1.023435 -5.6947275 -0.8937600000000001 -1.7566972500000002 -2.2852725 -3.2106532500000005 -4.0009725000000005 -4.18042275 -2.37006 -1.28487975 -4.95558 -2.12337825 -7.62888 -2.4738" stroke-width="0.5"></path><path id="vector_55" stroke="#120071" stroke-linecap="round" stroke-linejoin="round" d="M177.345525 88.6376505c-0.285285 0.31860150000000004 -0.6693225 0.53216625 -1.0912650000000002 0.60648 -1.3316625 0.2124675 -2.6932500000000004 -1.1800425 -3.3286575000000003 -3.24387l-1.3715625 9.975000000000001 4.53264 11.245017 2.48178 -10.961727000000002 -1.222935 -7.6209Z" stroke-width="0.5"></path><path id="vector_56" fill="#6153bd" d="M174.9615 88.96892025000001c0.40498500000000004 1.434405 1.3286700000000002 2.3690625 2.7560925 1.98303l-0.37107 -2.3142c-0.2902725 0.33426225000000004 -0.6912675 0.5520165 -1.1301675 0.61296375 -0.4389 0.0608475 -0.8847825 -0.0393015 -1.254855 -0.28179375Z" stroke-width="0.5"></path><path id="vector_57" stroke="#120071" stroke-linecap="round" stroke-linejoin="round" d="M174.9615 88.96892025000001c0.40498500000000004 1.434405 1.3286700000000002 2.3690625 2.7560925 1.98303l-0.37107 -2.3142c-0.2902725 0.33426225000000004 -0.6912675 0.5520165 -1.1301675 0.61296375 -0.4389 0.0608475 -0.8847825 -0.0393015 -1.254855 -0.28179375Z" stroke-width="0.5"></path><path id="vector_58" stroke="#120071" stroke-linecap="round" stroke-linejoin="round" d="M178.30911 83.999475c-0.798 -5.0024625 -5.426400000000001 -6.5835 -5.468295 -0.052867500000000005 -0.2264325 -0.1905225 -0.7451325000000001 -0.6384000000000001 -0.947625 -0.5516175000000001 -0.3680775 0.15760500000000002 -0.448875 0.798 -0.181545 1.418445 0.26134500000000005 0.608475 0.7551075 0.983535 1.1211900000000001 0.85785 0.5815425 2.2433775000000002 2.0199375 3.796485 3.421425 3.573045 1.5570975 -0.24738000000000002 2.4767925 -2.595495 2.05485 -5.244855Z" stroke-width="0.5"></path><path id="vector_59" fill="#6153bd" d="m172.3271025 82.7925 6.7191600000000005 -0.4817925c0.093765 -0.00688275 0.18453750000000002 -0.0365085 0.2643375 -0.08648325 0.07980000000000001 -0.049875 0.1466325 -0.11850300000000001 0.19351500000000002 -0.199899 0.0468825 -0.08129625 0.073815 -0.1729665 0.077805 -0.26703075 0.0039900000000000005 -0.0939645 -0.0149625 -0.18753 -0.05586000000000001 -0.272517 -0.62244 -1.3176975 -2.1456225 -3.7905 -4.5396225 -2.9117025 -0.8728125 0.2711205 -1.6209375000000001 0.8451817500000001 -2.108715 1.61884275 -0.48777750000000003 0.77356125 -0.6822900000000001 1.69584975 -0.5506200000000001 2.60058225Z" stroke-width="0.5"></path><path id="vector_60" stroke="#120071" stroke-linecap="round" stroke-linejoin="round" d="m172.3271025 82.7925 6.7191600000000005 -0.4817925c0.093765 -0.00688275 0.18453750000000002 -0.0365085 0.2643375 -0.08648325 0.07980000000000001 -0.049875 0.1466325 -0.11850300000000001 0.19351500000000002 -0.199899 0.0468825 -0.08129625 0.073815 -0.1729665 0.077805 -0.26703075 0.0039900000000000005 -0.0939645 -0.0149625 -0.18753 -0.05586000000000001 -0.272517 -0.62244 -1.3176975 -2.1456225 -3.7905 -4.5396225 -2.9117025 -0.8728125 0.2711205 -1.6209375000000001 0.8451817500000001 -2.108715 1.61884275 -0.48777750000000003 0.77356125 -0.6822900000000001 1.69584975 -0.5506200000000001 2.60058225Z" stroke-width="0.5"></path><path id="vector_61" fill="#6153bd" d="M165.5480925 104.58687750000001c0.43690500000000004 0 0.7910175 -0.3541125 0.7910175 -0.7910175 0 -0.43690500000000004 -0.3541125 -0.7910175 -0.7910175 -0.7910175 -0.43690500000000004 0 -0.7910175 0.3541125 -0.7910175 0.7910175 0 0.43690500000000004 0.3541125 0.7910175 0.7910175 0.7910175Z" stroke-width="0.5"></path><path id="vector_62" fill="#6153bd" d="M171.55404000000001 118.79028c0.43690500000000004 0 0.7910175 -0.3541125 0.7910175 -0.7910175 0 -0.43690500000000004 -0.3541125 -0.7910175 -0.7910175 -0.7910175 -0.43690500000000004 0 -0.7910175 0.3541125 -0.7910175 0.7910175 0 0.43690500000000004 0.3541125 0.7910175 0.7910175 0.7910175Z" stroke-width="0.5"></path><path id="vector_63" fill="#6153bd" d="M173.8851975 112.16688c0.43690500000000004 0 0.7910175 -0.3541125 0.7910175 -0.7910175 0 -0.43690500000000004 -0.3541125 -0.7910175 -0.7910175 -0.7910175 -0.43690500000000004 0 -0.7910175 0.3541125 -0.7910175 0.7910175 0 0.43690500000000004 0.3541125 0.7910175 0.7910175 0.7910175Z" stroke-width="0.5"></path><path id="vector_64" fill="#6153bd" d="M180.3729375 116.01324000000001c0.43690500000000004 0 0.7910175 -0.3541125 0.7910175 -0.7910175 0 -0.43690500000000004 -0.3541125 -0.7910175 -0.7910175 -0.7910175 -0.43690500000000004 0 -0.7910175 0.3541125 -0.7910175 0.7910175 0 0.43690500000000004 0.3541125 0.7910175 0.7910175 0.7910175Z" stroke-width="0.5"></path><path id="vector_65" fill="#6153bd" d="M185.2307625 110.5838475c0.43690500000000004 0 0.7910175 -0.3541125 0.7910175 -0.7910175 0 -0.43690500000000004 -0.3541125 -0.7910175 -0.7910175 -0.7910175 -0.43690500000000004 0 -0.7910175 0.3541125 -0.7910175 0.7910175 0 0.43690500000000004 0.3541125 0.7910175 0.7910175 0.7910175Z" stroke-width="0.5"></path><path id="vector_66" fill="#6153bd" d="M168.11865 126.06305250000001c0.43690500000000004 0 0.7910175 -0.3541125 0.7910175 -0.7910175 0 -0.43690500000000004 -0.3541125 -0.7910175 -0.7910175 -0.7910175 -0.43690500000000004 0 -0.7910175 0.3541125 -0.7910175 0.7910175 0 0.43690500000000004 0.3541125 0.7910175 0.7910175 0.7910175Z" stroke-width="0.5"></path><path id="vector_67" fill="#6153bd" d="M172.681215 131.9602725c0.43690500000000004 0 0.7910175 -0.3541125 0.7910175 -0.7910175 0 -0.43690500000000004 -0.3541125 -0.7910175 -0.7910175 -0.7910175 -0.43690500000000004 0 -0.7910175 0.3541125 -0.7910175 0.7910175 0 0.43690500000000004 0.3541125 0.7910175 0.7910175 0.7910175Z" stroke-width="0.5"></path><path id="vector_68" fill="#6153bd" d="M178.28816250000003 124.61468250000001c0.43690500000000004 0 0.7910175 -0.3541125 0.7910175 -0.7910175 0 -0.43690500000000004 -0.3541125 -0.7910175 -0.7910175 -0.7910175 -0.43690500000000004 0 -0.7910175 0.3541125 -0.7910175 0.7910175 0 0.43690500000000004 0.3541125 0.7910175 0.7910175 0.7910175Z" stroke-width="0.5"></path><path id="vector_69" fill="#6153bd" d="M182.76294750000002 130.84706250000002c0.43690500000000004 0 0.7910175 -0.3541125 0.7910175 -0.7910175 0 -0.43690500000000004 -0.3541125 -0.7910175 -0.7910175 -0.7910175 -0.43690500000000004 0 -0.7910175 0.3541125 -0.7910175 0.7910175 0 0.43690500000000004 0.3541125 0.7910175 0.7910175 0.7910175Z" stroke-width="0.5"></path><path id="vector_70" fill="#6153bd" d="M185.2307625 120.7643325c0.43690500000000004 0 0.7910175 -0.3541125 0.7910175 -0.7910175 0 -0.43690500000000004 -0.3541125 -0.7910175 -0.7910175 -0.7910175 -0.43690500000000004 0 -0.7910175 0.3541125 -0.7910175 0.7910175 0 0.43690500000000004 0.3541125 0.7910175 0.7910175 0.7910175Z" stroke-width="0.5"></path><path id="vector_71" fill="#6153bd" d="M165.93113250000002 112.9578975c0.43690500000000004 0 0.7910175 -0.3541125 0.7910175 -0.7910175 0 -0.43690500000000004 -0.3541125 -0.7910175 -0.7910175 -0.7910175 -0.43690500000000004 0 -0.7910175 0.3541125 -0.7910175 0.7910175 0 0.43690500000000004 0.3541125 0.7910175 0.7910175 0.7910175Z" stroke-width="0.5"></path><path id="vector_72" fill="#6153bd" d="M184.0577025 103.79486250000001c0.43690500000000004 0 0.7910175 -0.3541125 0.7910175 -0.7910175 0 -0.43690500000000004 -0.3541125 -0.7910175 -0.7910175 -0.7910175 -0.43690500000000004 0 -0.7910175 0.3541125 -0.7910175 0.7910175 0 0.43690500000000004 0.3541125 0.7910175 0.7910175 0.7910175Z" stroke-width="0.5"></path></g><g id="pawn 3"><path id="vector_73" fill="#6153bd" d="M141.56420250000002 86.99586525c-0.15261750000000002 -0.34304025 -0.399 -0.6362055000000001 -0.71022 -0.84597975 -0.31221750000000004 -0.20977425 -0.676305 -0.32757900000000006 -1.051365 -0.34004775 -0.6294225 0.001197 -1.2498675 0.14364 -1.8164475 0.416955 -1.9221825000000001 0.82194 -4.3161825 1.69575 -5.2039575 3.77454 -0.69825 1.6249275 0.44289 3.600975 1.4074725000000001 5.080267500000001 0.12768000000000002 0.270921 0.32917500000000005 0.49954800000000005 0.58254 0.658749 0.253365 0.15910125 0.5476275 0.24209325 0.8468775000000001 0.23900100000000002 0.11172000000000001 -1.8294150000000002 0.1206975 -1.402485 0 -1.8493650000000001 -0.3481275 0.1197 -0.819945 -0.237405 -1.0683225 -0.8169525 -0.2543625 -0.5985 -0.177555 -1.197 0.17256749999999998 -1.3516125 0.19351500000000002 -0.0827925 0.688275 0.34314 0.9037350000000001 0.5246850000000001 0.041895 -6.63936 5.0593200000000005 -4.4159325 5.2997175 0.9326625000000001 0.69426 -0.9047325 1.1221875000000001 -1.9856235 1.2349050000000001 -3.120579 0.11271750000000001 -1.1349555 -0.0947625 -2.2786890000000004 -0.5975025 -3.3023235Z" stroke-width="0.5"></path><path id="vector_74" stroke="#120071" stroke-linecap="round" stroke-linejoin="round" d="M141.56420250000002 86.99586525c-0.15261750000000002 -0.34304025 -0.399 -0.6362055000000001 -0.71022 -0.84597975 -0.31221750000000004 -0.20977425 -0.676305 -0.32757900000000006 -1.051365 -0.34004775 -0.6294225 0.001197 -1.2498675 0.14364 -1.8164475 0.416955 -1.9221825000000001 0.82194 -4.3161825 1.69575 -5.2039575 3.77454 -0.69825 1.6249275 0.44289 3.600975 1.4074725000000001 5.080267500000001 0.12768000000000002 0.270921 0.32917500000000005 0.49954800000000005 0.58254 0.658749 0.253365 0.15910125 0.5476275 0.24209325 0.8468775000000001 0.23900100000000002 0.11172000000000001 -1.8294150000000002 0.1206975 -1.402485 0 -1.8493650000000001 -0.3481275 0.1197 -0.819945 -0.237405 -1.0683225 -0.8169525 -0.2543625 -0.5985 -0.177555 -1.197 0.17256749999999998 -1.3516125 0.19351500000000002 -0.0827925 0.688275 0.34314 0.9037350000000001 0.5246850000000001 0.041895 -6.63936 5.0593200000000005 -4.4159325 5.2997175 0.9326625000000001 0.69426 -0.9047325 1.1221875000000001 -1.9856235 1.2349050000000001 -3.120579 0.11271750000000001 -1.1349555 -0.0947625 -2.2786890000000004 -0.5975025 -3.3023235Z" stroke-width="0.5"></path><path id="vector_75" fill="#6153bd" d="M154.60452 156.7321875c-0.33017250000000004 -2.874795 -2.1117075 -5.508195000000001 -5.133135 -5.9161725 -4.7650575 3.4264125 -15.0253425 2.4588375 -18.978435 1.015455 -0.708225 -0.25835250000000004 -1.3835325 -0.5975025 -2.0149500000000002 -1.00947 -1.4214375000000001 0.205485 -2.7211800000000004 0.9167025000000001 -3.660825 2.00298 -0.939645 1.0862775 -1.45635 2.4738 -1.45635 3.9102v0.5536125000000001c0 2.35809 7.019407500000001 4.2702975 15.6797025 4.2702975 4.357080000000001 0 9.4991925 -0.173565 13.532085000000002 -1.9660725000000001 1.4294175000000002 -0.6354075 2.2014825 -1.3575975 2.0319075 -2.86083Z" stroke-width="0.5"></path><path id="vector_76" stroke="#120071" stroke-linecap="round" stroke-linejoin="round" d="M154.60452 156.7321875c-0.33017250000000004 -2.874795 -2.1117075 -5.508195000000001 -5.133135 -5.9161725 -4.7650575 3.4264125 -15.0253425 2.4588375 -18.978435 1.015455 -0.708225 -0.25835250000000004 -1.3835325 -0.5975025 -2.0149500000000002 -1.00947 -1.4214375000000001 0.205485 -2.7211800000000004 0.9167025000000001 -3.660825 2.00298 -0.939645 1.0862775 -1.45635 2.4738 -1.45635 3.9102v0.5536125000000001c0 2.35809 7.019407500000001 4.2702975 15.6797025 4.2702975 4.357080000000001 0 9.4991925 -0.173565 13.532085000000002 -1.9660725000000001 1.4294175000000002 -0.6354075 2.2014825 -1.3575975 2.0319075 -2.86083Z" stroke-width="0.5"></path><path id="vector_77" stroke="#120071" stroke-linecap="round" stroke-linejoin="round" d="M150.61352250000002 146.5955925c-2.3092125 -1.1511149999999999 -2.1555975000000003 -1.90722 -3.2468625 -2.8737975 -1.67181 2.1945 -5.3755275000000005 2.42991 -8.3680275 2.42991 -2.4568425 0 -7.054320000000001 -0.5097225000000001 -8.4677775 -2.3630775 -0.7411425 0.798 -1.1281725 1.9401375 -2.1635775 2.45385 -0.7211925 0.357105 -1.995 0.41496 -1.995 1.482285 0 2.0538525 2.46183 3.4992300000000003 4.123665000000001 4.106707500000001 4.6054575 1.6827825 17.775450000000003 2.7171900000000004 20.837775 -3.0922500000000004 0.5516175000000001 -1.051365 0.3042375 -1.633905 -0.720195 -2.1436275Z" stroke-width="0.5"></path><path id="vector_78" fill="#e69ece" d="M146.91080250000002 141.76869c-0.688275 0.9047325 -1.9152 1.6179450000000002 -4.263315 2.0019825000000004 -3.3496050000000004 0.540645 -6.781005 0.277305 -10.0079175 -0.77007 -0.7461300000000001 -0.21945 -1.438395 -0.59052 -2.032905 -1.0902675 -0.1426425 0.04389 -0.26733 0.13067250000000002 -0.357105 0.2503725 -0.0887775 0.1187025 -0.1386525 0.26234250000000003 -0.141645 0.4119675 0 2.8558425 5.965050000000001 3.5790300000000004 8.891715 3.5790300000000004 3.192 0 7.2029475000000005 -0.26533500000000004 8.67825 -2.9057175 0.101745 -0.13965000000000002 0.1625925 -0.30523500000000003 0.17556 -0.4778025 0.0129675 -0.17256749999999998 -0.021945 -0.34513499999999997 -0.101745 -0.49875 -0.07980000000000001 -0.153615 -0.20049750000000002 -0.28129499999999996 -0.349125 -0.3700725 -0.1486275 -0.0887775 -0.31920000000000004 -0.133665 -0.4917675 -0.13067250000000002Z" stroke-width="0.5"></path><path id="vector_79" stroke="#120071" stroke-linecap="round" stroke-linejoin="round" d="M146.91080250000002 141.76869c-0.688275 0.9047325 -1.9152 1.6179450000000002 -4.263315 2.0019825000000004 -3.3496050000000004 0.540645 -6.781005 0.277305 -10.0079175 -0.77007 -0.7461300000000001 -0.21945 -1.438395 -0.59052 -2.032905 -1.0902675 -0.1426425 0.04389 -0.26733 0.13067250000000002 -0.357105 0.2503725 -0.0887775 0.1187025 -0.1386525 0.26234250000000003 -0.141645 0.4119675 0 2.8558425 5.965050000000001 3.5790300000000004 8.891715 3.5790300000000004 3.192 0 7.2029475000000005 -0.26533500000000004 8.67825 -2.9057175 0.101745 -0.13965000000000002 0.1625925 -0.30523500000000003 0.17556 -0.4778025 0.0129675 -0.17256749999999998 -0.021945 -0.34513499999999997 -0.101745 -0.49875 -0.07980000000000001 -0.153615 -0.20049750000000002 -0.28129499999999996 -0.349125 -0.3700725 -0.1486275 -0.0887775 -0.31920000000000004 -0.133665 -0.4917675 -0.13067250000000002Z" stroke-width="0.5"></path><path id="vector_80" stroke="#120071" stroke-linecap="round" stroke-linejoin="round" d="M152.817 113.9753475c0.21546 -1.8653250000000001 -0.1246875 -3.7525950000000003 -0.9755550000000001 -5.425402500000001 -0.851865 -1.6728075000000002 -2.1775425 -3.058335 -3.8124450000000003 -3.9820200000000003 -7.137112500000001 -3.9052125 -16.895655 -3.45135 -22.9993575 2.2792875 -1.6209375000000001 1.5221850000000001 -2.7580875000000002 3.337635 -2.5316549999999998 5.6568225000000005 0.52668 5.386500000000001 4.606455 19.96596 6.11268 25.165927500000002 0.81396 2.81295 1.18902 4.398975 4.0229175 5.330640000000001 3.2279100000000005 1.0473750000000002 6.6583125 1.3117125 10.0079175 0.77007 1.3476225 -0.1546125 2.6324025 -0.6523650000000001 3.7336425 -1.44438 1.382535 -1.1172000000000002 1.3536075 -2.6423775000000003 1.661835 -4.256332500000001 0.28428749999999997 -1.4593425000000002 4.63638 -23.290627500000003 4.78002 -24.094612500000004Z" stroke-width="0.5"></path><path id="vector_81" fill="#e69ece" d="M138.8829225 97.5313605c-1.2678225 0.1995 -2.5685625000000005 -1.1241825 -3.170055 -3.0922500000000004l-0.57057 9.398644500000001c0.34713 0.43491 0.7810425000000001 0.7940100000000001 1.2738075 1.0543575 0.492765 0.2603475 1.0344075 0.4159575 1.5900150000000002 0.45785250000000005 0.4997475 0.07581 1.0104674999999999 0.0089775 1.474305 -0.1925175 0.46383750000000007 -0.20049750000000002 0.86184 -0.528675 1.1481225000000002 -0.9446325l-0.8049825 -7.163247c-0.257355 0.25226775 -0.5855325 0.4203465 -0.9406425 0.4817925Z" stroke-width="0.5"></path><path id="vector_82" stroke="#120071" stroke-linecap="round" stroke-linejoin="round" d="M138.8829225 97.5313605c-1.2678225 0.1995 -2.5685625000000005 -1.1241825 -3.170055 -3.0922500000000004l-0.57057 9.398644500000001c0.34713 0.43491 0.7810425000000001 0.7940100000000001 1.2738075 1.0543575 0.492765 0.2603475 1.0344075 0.4159575 1.5900150000000002 0.45785250000000005 0.4997475 0.07581 1.0104674999999999 0.0089775 1.474305 -0.1925175 0.46383750000000007 -0.20049750000000002 0.86184 -0.528675 1.1481225000000002 -0.9446325l-0.8049825 -7.163247c-0.257355 0.25226775 -0.5855325 0.4203465 -0.9406425 0.4817925Z" stroke-width="0.5"></path><path id="vector_83" fill="#6153bd" d="M137.6639775 97.2762c0.6134625 2.0947500000000003 2.0388900000000003 2.02293 2.4069675 1.9680675000000003l-0.24738000000000002 -2.1945c-0.28029750000000003 0.27830250000000006 -0.6473775 0.45256575 -1.039395 0.49376250000000005 -0.39301500000000006 0.041196750000000004 -0.7880250000000001 -0.053166750000000006 -1.1201925000000001 -0.26733Z" stroke-width="0.5"></path><path id="vector_84" stroke="#120071" stroke-linecap="round" stroke-linejoin="round" d="M137.6639775 97.2762c0.6134625 2.0947500000000003 2.0388900000000003 2.02293 2.4069675 1.9680675000000003l-0.24738000000000002 -2.1945c-0.28029750000000003 0.27830250000000006 -0.6473775 0.45256575 -1.039395 0.49376250000000005 -0.39301500000000006 0.041196750000000004 -0.7880250000000001 -0.053166750000000006 -1.1201925000000001 -0.26733Z" stroke-width="0.5"></path><path id="vector_85" fill="#e69ece" d="M140.841015 92.53378575c-0.7521150000000001 -4.7271525 -5.169045000000001 -6.2992125 -5.208945000000001 -0.0508725 -0.21546 -0.181545 -0.71022 -0.60737775 -0.9037350000000001 -0.5245852500000001 -0.3501225 0.149625 -0.4279275 0.7550077500000001 -0.17256749999999998 1.3515127500000002 0.2483775 0.5795475 0.720195 0.935655 1.0683225 0.8169525 0.5536125000000001 2.136645 1.9241775 3.6169350000000002 3.2588325 3.4044675 1.48428 -0.2364075 2.3630775 -2.4698100000000003 1.9580925000000002 -4.997475Z" stroke-width="0.5"></path><path id="vector_86" stroke="#120071" stroke-linecap="round" stroke-linejoin="round" d="M140.841015 92.53378575c-0.7521150000000001 -4.7271525 -5.169045000000001 -6.2992125 -5.208945000000001 -0.0508725 -0.21546 -0.181545 -0.71022 -0.60737775 -0.9037350000000001 -0.5245852500000001 -0.3501225 0.149625 -0.4279275 0.7550077500000001 -0.17256749999999998 1.3515127500000002 0.2483775 0.5795475 0.720195 0.935655 1.0683225 0.8169525 0.5536125000000001 2.136645 1.9241775 3.6169350000000002 3.2588325 3.4044675 1.48428 -0.2364075 2.3630775 -2.4698100000000003 1.9580925000000002 -4.997475Z" stroke-width="0.5"></path><path id="vector_87" stroke="#120071" stroke-linecap="round" stroke-linejoin="round" d="M138.722325 105.36393000000001s0.9157050000000001 8.5874775 0.9157050000000001 13.426350000000001" stroke-width="0.5"></path><path id="vector_88" stroke="#120071" stroke-linecap="round" stroke-linejoin="round" d="M136.583685 108.65867250000001h4.5256575" stroke-width="0.5"></path><path id="vector_89" stroke="#120071" stroke-linecap="round" stroke-linejoin="round" d="M137.25201 111.37586250000001h3.8573325" stroke-width="0.5"></path><path id="vector_90" fill="#6153bd" d="M129.3847275 113.89854h5.544105v6.8199075l-2.7720525 1.8154500000000002 -2.7720525 -1.7665725v-6.868785000000001Z" stroke-width="0.5"></path><path id="vector_91" stroke="#120071" stroke-linecap="round" stroke-linejoin="round" d="M129.3847275 113.89854h5.544105v6.8199075l-2.7720525 1.8154500000000002 -2.7720525 -1.7665725v-6.868785000000001Z" stroke-width="0.5"></path></g><g id="hand"><path id="vector_92" stroke="#120071" stroke-linecap="round" stroke-linejoin="round" d="m61.73617275000001 39.03018 1.3167000000000002 -0.13566000000000003c2.7211800000000004 -1.9740525000000002 5.187 -3.4463625 6.63138 -3.4463625 3.5301525000000002 0 6.951577500000001 -0.9625875 10.3829775 -1.6658250000000001 2.85285 -0.5855325 5.736622500000001 -1.0334100000000002 8.59845 -1.596 0 0 -9.36453 -1.49625 -13.093185 -1.1072250000000001 -3.7286550000000003 0.389025 -13.149045000000001 1.7755500000000002 -18.1545 1.1820375 -5.005455 -0.5935125 -2.5506075 7.455315000000001 4.3181775 6.769035Z" stroke-width="0.5"></path><path id="vector_93" fill="#6153bd" d="M147.4075575 41.10887025c-0.9426375 1.65594975 -2.02692 3.2273115 -3.2408775000000003 4.696230000000001 7.6199025 5.394480000000001 9.136102500000002 3.2987325000000003 3.2408775000000003 -4.696230000000001Z" stroke-width="0.5"></path><path id="vector_94" fill="#6153bd" d="M125.51542500000001 19.251450750000004c-7.1610525 -5.253832500000001 -10.02687 -4.739122500000001 -5.17902 2.4588375 1.657845 -0.7800450000000001 3.37554 -1.5969975 5.17902 -2.4588375Z" stroke-width="0.5"></path><path id="vector_95" stroke="#120071" stroke-linecap="round" stroke-linejoin="round" d="M120.33640500000001 21.706398c-1.9840275000000003 -2.9456175 -2.8478625 -5.062312500000001 -2.1635775 -5.7465975 1.5162 -1.5162 10.0438275 4.554585 19.05225 13.559017500000001 14.296170000000002 14.296170000000002 18.85275 24.71805 6.9455925 16.286182500000002" stroke-width="0.5"></path><path id="vector_96" stroke="#120071" stroke-linecap="round" stroke-linejoin="round" d="M125.51542500000001 19.2515505c-11.9769825 5.751585 -19.991895000000003 9.3655275 -35.356387500000004 12.63633 -3.3496050000000004 0.7132125 -6.741105 1.210965 -10.091707500000002 1.89525 -3.4314 0.7032375 -6.852825 1.6658250000000001 -10.3829775 1.6658250000000001 -3.97404 0 -15.74853 11.185965000000001 -19.134045 13.2468 -3.3855150000000003 2.060835 0.8827875000000001 5.885250000000001 3.97404 5.15109 2.13514875 -0.4726155 4.1754352500000005 -1.301937 6.034875 -2.4528525 0 0 -10.7301075 10.204425 -11.252797500000002 11.5779825 -0.5226900000000001 1.3735575 1.44039 3.5321475 7.2298800000000005 2.256345S74.11425 55.220403000000005 74.11425 55.220403000000005l-1.9760475000000002 25.2177975c-0.1995 2.4528525 2.34213 2.3311575 4.2702975 1.1231849999999999 2.542428 -1.7329567500000003 4.371443999999999 -4.3277535 5.149095 -7.304692500000001 0.588525 -3.042375 3.8274075000000005 -13.05129 6.967537500000001 -14.523600000000002 3.14013 -1.47231 13.93308 -8.2423425 18.254250000000003 -7.555065 4.32117 0.6872775 2.9436225 6.475770000000001 -0.3920175 9.518145 -3.33564 3.042375 -13.5410625 7.94808 -15.8512725 16.877700000000004 -1.0124625 3.9131925 1.0344075 7.94808 3.49125 8.14359 2.4568425 0.19551000000000002 4.0229175 -5.1999675000000005 6.672277500000001 -6.475770000000001 2.64936 -1.2758025 20.606355 -12.9525375 26.4936 -17.7555 5.887245 -4.8029625000000005 16.69815 -14.876715 20.2223175 -21.372435 -6.32415 -8.203839 -13.6857 -15.552521250000002 -21.9001125 -21.862207500000004Z" stroke-width="0.5"></path><path id="vector_97" stroke="#120071" stroke-linecap="round" stroke-linejoin="round" d="M74.11425 55.22030325c5.04226275 -4.60615575 10.5429765 -8.68393575 16.4158575 -12.1695" stroke-width="0.5"></path><path id="vector_98" stroke="#120071" stroke-linecap="round" stroke-linejoin="round" d="m60.55912275000001 51.39289575000001 10.7959425 -10.126619999999999c2.7590850000000002 -2.587515 4.207455 -2.2314075000000004 16.089675 -5.9660475" stroke-width="0.5"></path><path id="vector_99" stroke="#120071" stroke-linecap="round" stroke-linejoin="round" d="m127.68 8.317045275 -9.507172500000001 7.6428549750000006c1.5162 -1.5162 10.0438275 4.554585 19.05225 13.559017500000001 9.008422500000002 9.0044325 15.0752175 17.53206 13.559017500000001 19.05225l9.305677500000002 -7.491225" stroke-width="0.5"></path></g></g></svg>