<svg xmlns="http://www.w3.org/2000/svg" fill="none" viewBox="-0.25 -0.25 200 200" id="Shopping-Payment-With-Card-01--Streamline-Bangalore.svg"><desc>Shopping Payment With Card 01 Streamline Illustration: https://streamlinehq.com</desc><g><g><path fill="#e69ece" d="M104.376405 80.1421425c-2.1954975 1.32477975 -4.6800705 2.09724375 -7.239855 2.2513575 0.59800125 1.6939545 1.0419885 3.43828275 1.326675 5.2119375l4.396980000000001 1.933155 2.6723025 -3.8852625c-0.24039750000000001 -1.864527 -0.62643 -3.7073085000000003 -1.1561025 -5.511187500000001Z" stroke-width="0.5"></path><path fill="#e69ece" d="M132.5966775 46.76679c-11.030355 13.759515 -20.1086025 18.9525 -26.1734025 21.018322500000004 1.629915 4.32117 2.8997325000000003 7.543095000000001 3.49125 11.4283575 0.0189525 0.037905 21.147000000000002 -8.2064325 30.931477500000003 -25.3365 -2.0239275 -3.10072875 -4.8837600000000005 -5.56575075 -8.249325 -7.110180000000001Z" stroke-width="0.5"></path><path fill="#e69ece" d="M101.53353 68.9980725c-1.0244324999999999 0.16708125000000001 -2.0754982500000003 0.042294000000000005 -3.0324 -0.3600975 -1.3835325 1.6109625 -3.7525950000000003 2.160585 -6.5386125 2.2553475 -0.41725425000000005 0.5854327500000001 -0.9533107500000001 1.07620275 -1.5730575 1.44039 1.35450525 2.146221 2.586717 4.36715475 3.6907500000000004 6.6523275 4.378027500000001 -0.26533500000000004 7.694715 -1.0613400000000002 9.9879675 -3.10821 -0.5994975 -2.3762445000000003 -1.4493675000000001 -4.68236475 -2.5346475 -6.8797575Z" stroke-width="0.5"></path><path fill="#e69ece" d="M54.531330000000004 92.745555c11.030355 -0.416955 25.1878725 -2.1945 35.8770825 -5.951085000000001 -1.4775967500000002 -4.13753025 -3.34990425 -8.123241 -5.590987500000001 -11.902170000000002 -8.195459999999999 3.0872625000000005 -14.6921775 3.0772875 -31.404292500000004 4.2264075000000005 3.9351375 -0.2164575 4.7850075 13.1161275 1.1181975 13.6268475Z" stroke-width="0.5"></path><path fill="#e69ece" d="m142.604595 43.39125 2.9376375 2.65335c0.27930000000000005 0.24857700000000002 0.6453825000000001 0.376257 1.0184475 0.3549105 0.37306500000000004 -0.0213465 0.72219 -0.18982425 0.971565 -0.46862550000000003L156.553635 35.910000000000004c0.12369000000000001 -0.13835325 0.21845250000000002 -0.29974875 0.28029750000000003 -0.4749097500000001 0.0608475 -0.17526075 0.0867825 -0.36079575 0.0768075 -0.5461312500000001 -0.0109725 -0.18533550000000001 -0.057855000000000004 -0.366681 -0.1386525 -0.5338620000000001 -0.08079750000000001 -0.16708125000000001 -0.19351500000000002 -0.3166065 -0.33216750000000006 -0.440097l-6.747090000000001 -6.08475c-0.1386525 -0.12378975 -0.3002475 -0.21915075 -0.47481 -0.28039725000000004 -0.17556 -0.061346250000000005 -0.361095 -0.08748075000000001 -0.5466300000000001 -0.07690725000000001 -0.185535 0.010573500000000001 -0.36608250000000003 0.05755575 -0.5336625 0.13845300000000002 -0.16758 0.08079750000000001 -0.31620750000000003 0.19381425000000002 -0.43989750000000005 0.3325665l-9.0223875 10.02687c-0.12369000000000001 0.13835325 -0.21945 0.29974875 -0.28029750000000003 0.47500950000000003 -0.061845000000000004 0.175161 -0.08778 0.36079575 -0.0768075 0.5461312500000001 0.009975000000000001 0.18533550000000001 0.056857500000000005 0.36678075000000004 0.13765500000000003 0.5338620000000001 0.08079750000000001 0.167181 0.1945125 0.31670625 0.33316500000000004 0.43999725l0.69825 0.6254325000000001c1.0523625 -1.5581947500000002 3.39549 -4.8327877500000005 4.152592500000001 -5.025405 0.532665 0.7458307500000001 -0.041895 2.77454625 -0.5566050000000001 4.590096000000001 -0.4319175 1.521786 -0.819945 2.8938472500000003 -0.4788 3.2352915Z" stroke-width="0.5"></path></g><g><path fill="#6153bd" d="M141.54525 155.839425c-3.4443675000000002 0.94962 -6.963547500000001 1.6029825 -10.5186375 1.9521075 3.8673075 5.4014625 3.1650675 6.614422500000001 4.5296475 9.1919625 6.274275 2.5775400000000004 20.128552499999998 4.908697500000001 26.85669 5.041365000000001 -5.0074499999999995 -6.21642 -14.782950000000001 -9.47625 -20.867700000000003 -16.185435Z" stroke-width="0.5"></path><path fill="#6153bd" d="M48.44757750000001 128.30044500000002c-4.2072555000000005 0.15162 -8.4179025 -0.185535 -12.547552500000002 -1.0044825 -3.9411225 8.528625000000002 -6.7460925000000005 19.1609775 -8.1685275 26.041732500000002 9.8183925 -4.610445 10.064775000000001 -14.685195 20.071695000000002 -15.693667500000002 -0.268527 -3.1291575000000003 -0.05117175 -6.2812575 0.6443850000000001 -9.343582500000002Z" stroke-width="0.5"></path><path fill="#6153bd" d="M55.384192500000005 80.5211925c-1.3077225000000001 0.17057250000000002 -2.5585875000000002 0.28428749999999997 -3.7525950000000003 0.3600975 0.9097200000000001 -2.1785400000000004 2.5017300000000002 -2.3690625 3.7525950000000003 -0.3600975Z" stroke-width="0.5"></path><path fill="#6153bd" d="M56.237055000000005 90.96402c-1.0044825 2.4827775 -2.7860175000000003 2.35011 -4.055835 -0.0947625 1.6488675000000002 0.0029925000000000004 3.10821 0.037905 4.055835 0.0947625Z" stroke-width="0.5"></path><path fill="#6153bd" d="M155.6628675 106.3335c-0.2882775 -0.6294225 -0.7571025 -1.159095 -1.3476225 -1.5231824999999999 -0.5895225 -0.36309 -1.2738075 -0.5426400000000001 -1.9660725000000001 -0.5167050000000001 -0.692265 0.0249375 -1.3605900000000002 0.25536000000000003 -1.9221825000000001 0.6613425 -0.5615924999999999 0.40598249999999997 -0.9895200000000001 0.96957 -1.230915 1.6189425000000002s-0.28428749999999997 1.3556025 -0.12369000000000001 2.028915c0.15960000000000002 0.6743100000000001 0.5167050000000001 1.28478 1.023435 1.7565975 0.5077275 0.47082 1.1441325 0.7810425000000001 1.8274200000000003 0.891765 0.6842850000000001 0.109725 1.3855275 0.013965000000000002 2.0149500000000002 -0.2743125 0.41895 -0.1905225 0.7960050000000001 -0.46184250000000004 1.1102175 -0.7989975000000001 0.3142125 -0.33715500000000004 0.5576025000000001 -0.7321650000000001 0.7182000000000001 -1.1640825000000001 0.1605975 -0.43092 0.23341500000000004 -0.8907675 0.21546 -1.3506150000000001 -0.016957500000000004 -0.4598475 -0.12568500000000002 -0.911715 -0.31920000000000004 -1.3296675Z" stroke-width="0.5"></path><path fill="#6153bd" d="M103.315065 106.80831c-0.98553 2.6154450000000002 -1.995 5.1171750000000005 -3.0922500000000004 7.543095000000001 0.73416 2.3281650000000003 1.7865225 5.101215 2.1945 6.08475 -0.69426 -5.933130000000001 0.9167025000000001 -13.603905000000001 0.89775 -13.627845Z" stroke-width="0.5"></path><path fill="#6153bd" d="M95.7530175 38.59726500000001c-3.0250185000000003 0.00309225 -5.925249750000001 1.206177 -8.064189 3.345216 -2.1390390000000004 2.13893925 -3.34212375 5.0391705 -3.345216 8.064189 -0.022344 1.7125080000000001 0.27680625000000003 3.4140435000000005 0.8817900000000001 5.0164275 -1.4853772500000002 -2.634996 -3.8401755000000004 -4.67199075 -6.6615045 -5.762557500000001 -2.821329 -1.090467 -5.93402775 -1.16677575 -8.805431250000002 -0.21575925 -2.8714035 0.9510165 -5.323059000000001 2.8702065000000005 -6.935717250000001 5.42929275 -1.6125585000000002 2.5590862500000005 -2.2858709999999998 5.5989675000000005 -1.9047262500000002 8.599647000000001 0.3812445 3.0006795 1.7933055000000002 5.77562475 3.9945885000000003 7.850225250000001 2.201283 2.07450075 5.05503075 3.31968 8.072967 3.5224717500000002 3.0179362500000004 0.20279175000000002 6.0126307500000005 -0.6493725 8.4717675 -2.41065825 2.459037 -1.7613855 4.2295995 -4.32246675 5.00894625 -7.24514175 1.6488675000000002 0.9097200000000001 3.86631 1.023435 5.2867500000000005 2.0279175 -0.23241750000000003 -0.46483500000000005 -1.1600925000000002 -2.1496125 -1.7057250000000002 -2.2174425 -3.6907500000000004 -0.22743000000000002 -3.56307 -3.5820225000000003 -1.4214375000000001 -2.9755425000000004 1.023435 0.28428749999999997 1.2698175 0.056857500000000005 1.09725 -0.45486000000000004 -1.2698175 -2.74911 -0.2463825 -9.4932075 5.192985000000001 -3.8294025 1.1797432500000002 1.13286075 2.18282925 2.4364935 2.9755425000000004 3.8673075 2.7900075 -0.531468 5.2817625 -2.084775 6.98649 -4.355982750000001 1.7057250000000002 -2.27120775 2.5027275 -5.0969257500000005 2.2344000000000004 -7.924539 -0.26733 -2.8275135000000002 -1.5810375 -5.4534322500000005 -3.6817725 -7.36404375 -2.1017325000000002 -1.91071125 -4.84056825 -2.96856 -7.680750000000001 -2.9667645000000005h0.0029925000000000004Z" stroke-width="0.5"></path><path fill="#6153bd" d="M96.22683 66.02253c-0.663537 0.18972450000000002 -1.3419367500000001 0.32319000000000003 -2.0279175 0.399l3.2029725 1.554105c-0.62652975 -0.47730375 -1.0469760000000001 -1.1759527500000002 -1.175055 -1.953105Z" stroke-width="0.5"></path><path fill="#6153bd" d="M189.49308 76.02945c0.2084775 0.47431125 0.5516175000000001 0.87630375 0.9885225000000001 1.155105 0.4359075 0.2787015 0.94563 0.42184275000000004 1.4633325000000001 0.41106975000000007 0.5177025000000001 -0.01067325 1.0214400000000001 -0.17466225000000002 1.4453775000000002 -0.47131875 0.424935 -0.29655675000000004 0.7521150000000001 -0.7124145 0.939645 -1.19490525 0.18852750000000001 -0.48249075 0.22942500000000002 -1.00996875 0.117705 -1.5157012500000002 -0.11172000000000001 -0.5057325 -0.3700725 -0.9670762500000001 -0.744135 -1.32557775 -0.3740625 -0.35850150000000003 -0.8458800000000001 -0.5981010000000001 -1.3556025 -0.68857425 -0.5097225000000001 -0.09037350000000001 -1.0354050000000001 -0.027531 -1.5092174999999999 0.1805475 -0.31521000000000005 0.1374555 -0.600495 0.33585825 -0.8388975 0.5838367500000001 -0.2384025 0.2479785 -0.4259325 0.540645 -0.5506200000000001 0.86114175 -0.12568500000000002 0.32059650000000006 -0.185535 0.66263925 -0.1785525 1.006677 0.007980000000000001 0.343938 0.08379 0.68298825 0.22244250000000002 0.9976995000000001Z" stroke-width="0.5"></path><path fill="#6153bd" d="M174.9186075 82.45434750000001c0.20748 0.47431125 0.5516175000000001 0.87630375 0.9885225000000001 1.15500525 0.4359075 0.27880125000000006 0.94563 0.4219425 1.4633325000000001 0.4111695 0.5177025000000001 -0.01067325 1.0214400000000001 -0.17466225000000002 1.4453775000000002 -0.47131875 0.424935 -0.29655675000000004 0.7521150000000001 -0.7124145 0.939645 -1.19490525 0.18852750000000001 -0.48249075 0.22942500000000002 -1.00996875 0.117705 -1.5157012500000002 -0.11172000000000001 -0.5057325 -0.3700725 -0.9670762500000001 -0.744135 -1.32557775 -0.3740625 -0.35850150000000003 -0.8458800000000001 -0.5981010000000001 -1.3556025 -0.68857425 -0.5097225000000001 -0.09037350000000001 -1.0354050000000001 -0.02763075 -1.5092174999999999 0.1805475 -0.31521000000000005 0.1374555 -0.600495 0.33585825 -0.8388975 0.5838367500000001 -0.2384025 0.2479785 -0.4259325 0.540645 -0.5506200000000001 0.86114175 -0.12568500000000002 0.32059650000000006 -0.185535 0.66263925 -0.1785525 1.00657725 0.007980000000000001 0.34403775 0.08379 0.683088 0.22244250000000002 0.99779925Z" stroke-width="0.5"></path></g><g><path stroke="#120071" stroke-linecap="round" stroke-linejoin="round" d="m55.118857500000004 146.45793749999999 4.4159325 9.62787c0.8783985000000001 1.91121 2.4794857500000003 3.3964875 4.451643 4.127655 1.9721572500000002 0.7321650000000001 4.1540887500000006 0.6523650000000001 6.066994500000001 -0.22344000000000003l42.188265 -19.3325475" stroke-width="0.5"></path><path stroke="#120071" stroke-linecap="round" stroke-linejoin="round" d="m131.47848 131.84456250000002 36.295035000000006 -16.6213425c1.91121 -0.8787975 3.3964875 -2.479785 4.127655 -4.451842500000001 0.7321650000000001 -1.9720575000000002 0.6523650000000001 -4.15359 -0.22344000000000003 -6.066795l-25.529017500000002 -55.7393025" stroke-width="0.5"></path><path stroke="#120071" stroke-linecap="round" stroke-linejoin="round" d="M138.33928500000002 38.9394075c-1.7645775 -0.45685500000000007 -3.6318975 -0.2894745 -5.2867500000000005 0.4738125l-25.9240275 11.86915275" stroke-width="0.5"></path><path stroke="#120071" stroke-linecap="round" stroke-linejoin="round" d="m45.377272500000004 79.55461500000001 19.347310500000003 -8.858797500000001" stroke-width="0.5"></path><path stroke="#120071" stroke-linecap="round" stroke-linejoin="round" d="m37.341412500000004 83.23140000000001 -2.0279175 0.9286725000000001c-1.9116090000000001 0.87829875 -3.3964875 2.4792862500000004 -4.1286525 4.451443500000001 -0.73226475 1.9721572500000002 -0.65186625 4.1542882500000005 0.22344000000000003 6.067194l15.428332500000002 33.65964" stroke-width="0.5"></path><path stroke="#120071" stroke-linecap="round" stroke-linejoin="round" d="m118.9508775 110.82225 10.76502 -4.927650000000001c0.41895 -0.1945125 0.7431375 -0.5466300000000001 0.9037350000000001 -0.9805425 0.15960000000000002 -0.432915 0.141645 -0.911715 -0.0508725 -1.3316625l-1.0423875 -2.312205c-0.1945125 -0.41895 -0.5466300000000001 -0.7431375 -0.9805425 -0.9037350000000001 -0.432915 -0.15960000000000002 -0.911715 -0.141645 -1.3316625 0.0508725l-11.0114025 5.041365000000001" stroke-width="0.5"></path><path stroke="#120071" stroke-linecap="round" stroke-linejoin="round" d="m101.7420075 118.71048 -4.7570775 2.1795375000000003" stroke-width="0.5"></path><path stroke="#120071" stroke-linecap="round" stroke-linejoin="round" d="M96.20787750000001 66.0414825c0.1298745 0.59460975 0.41087025 1.1457285000000001 0.815955 1.5999900000000002 0.40498500000000004 0.45436125000000005 0.9202935 0.7965037500000001 1.49625 0.99351 0.956403 0.404187 2.0079675 0.529074 3.0324 0.3600975 12.394935 -1.9211850000000001 23.192872500000004 -12.451792500000002 31.044195000000002 -22.2312825 3.36357 1.5442297500000002 6.222405000000001 4.0080547499999994 8.245335 7.1071875 -9.7804875 17.13306 -30.912525 25.3773975 -30.931477500000003 25.3365" stroke-width="0.5"></path><path stroke="#120071" stroke-linecap="round" stroke-linejoin="round" d="M94.17996000000001 66.42053250000001s9.13311 -0.41496 0.9097200000000001 -8.907675c-5.64585 -5.831385 -6.6503325 0.7311675 -5.42241 3.5501025000000004 0.3441375 0.7890225000000001 -0.293265 0.756105 -1.0593450000000002 0.5436375000000001 -2.144625 -0.5985 -2.2742999999999998 2.7481125 1.4214375000000001 2.9755425000000004 0.2966565 0.15700650000000002 0.555408 0.37695525 0.7581 0.6443850000000001 2.51769 3.6717975000000003 2.44587 5.8383675 -1.7057250000000002 7.80843 -10.707165 5.081265 -16.6782 4.738125 -35.66860500000001 6.08475" stroke-width="0.5"></path><path stroke="#120071" stroke-linecap="round" stroke-linejoin="round" d="m94.19881275 66.42053250000001 3.1840200000000003 1.554105" stroke-width="0.5"></path><path stroke="#120071" stroke-linecap="round" stroke-linejoin="round" d="M54.51237750000001 92.745555c11.030355 -0.416955 25.1878725 -2.1945 35.8770825 -5.951085000000001" stroke-width="0.5"></path><path stroke="#120071" stroke-linecap="round" stroke-linejoin="round" d="M55.384192500000005 80.5211925c-4.43857575 0.57465975 -8.928722250000002 0.63191625 -13.380465000000001 0.17057250000000002 -1.36527825 -0.19072200000000003 -2.7145965000000003 -0.48209175000000004 -4.0368825 -0.871815 -1.52188575 -0.41665575000000005 -3.0158415 -0.92937075 -4.47279 -1.5351525 -4.01793 -1.65186 -5.0034600000000005 -0.9097200000000001 -1.23291 1.97106 4.20974925 2.79050625 8.782389 4.99059225 13.589940000000002 6.5386125" stroke-width="0.5"></path><path stroke="#120071" stroke-linecap="round" stroke-linejoin="round" d="M56.23695525 90.96402c-2.9336475 -0.17556 -12.7989225 -0.1995 -15.7116225 0.07581 -5.118172500000001 0.492765 -3.3914002500000002 -0.6443850000000001 -1.7954002500000001 -1.6109625 1.155105 -0.69825 6.595470000000001 -2.0658225000000003 4.6054575 -3.49125" stroke-width="0.5"></path><path stroke="#120071" stroke-linecap="round" stroke-linejoin="round" d="M37.3065 79.6114725c-0.871815 -0.6443850000000001 -2.5765425000000004 -2.14263 -3.070305 -2.5775400000000004 -2.2693125 -1.995 -1.554105 -2.4847725 -1.1181975 -2.29425 1.7466225 0.7690725 4.434885 2.3311575 6.08475 3.0134475000000003 2.65335 1.09725 7.694715 3.2977350000000003 10.196445 3.2408775000000003" stroke-width="0.5"></path><path stroke="#120071" stroke-linecap="round" stroke-linejoin="round" d="M39.028185 77.69727c-0.32219250000000005 -0.399 -0.6054825 -0.7211925 -0.7581 -0.9097200000000001 -1.9002375 -2.3431275000000005 -1.1371499999999999 -2.7102075 -0.7391475000000001 -2.4448725000000002 1.596 1.0613400000000002 4.00197 3.026415 5.5151775 3.9610725 1.82093625 1.0719135 3.7369342500000005 1.973454 5.723655000000001 2.6932500000000004" stroke-width="0.5"></path><path stroke="#120071" stroke-linecap="round" stroke-linejoin="round" d="M51.631597500000005 80.88129c1.46832 -3.5191800000000004 4.44087 -1.5072225 5.1461025000000005 4.011945000000001 0.827925 6.483750000000001 -2.27829 10.4408325 -4.59648 5.9760225" stroke-width="0.5"></path><path stroke="#120071" stroke-linecap="round" stroke-linejoin="round" d="M142.604595 43.39125c-0.69825 -0.9286725000000001 0.947625 -4.5296475 1.1181975 -5.6288925 0.28428749999999997 -1.8383925 0.5177025000000001 -3.9002250000000003 -2.388015 0.3600975 -2.32617 3.2447677500000003 -4.8388725 6.3518805 -7.52514 9.305677500000002" stroke-width="0.5"></path><path stroke="#120071" stroke-linecap="round" stroke-linejoin="round" d="m142.604595 43.39125 2.9376375 2.65335c0.27930000000000005 0.24857700000000002 0.6453825000000001 0.37615725 1.0184475 0.3549105 0.37306500000000004 -0.0213465 0.72219 -0.18992400000000004 0.971565 -0.46862550000000003L156.553635 35.910000000000004c0.12369000000000001 -0.13835325 0.21845250000000002 -0.29974875 0.28029750000000003 -0.47500950000000003 0.0608475 -0.175161 0.0867825 -0.36079575 0.0768075 -0.5460315 -0.0109725 -0.18533550000000001 -0.057855000000000004 -0.36678075000000004 -0.1386525 -0.5338620000000001 -0.08079750000000001 -0.16708125000000001 -0.19351500000000002 -0.31670625 -0.33216750000000006 -0.440097l-6.747090000000001 -6.08475c-0.1386525 -0.12378975 -0.3002475 -0.21915075 -0.47481 -0.280497 -0.17556 -0.06124650000000001 -0.361095 -0.087381 -0.5466300000000001 -0.0768075 -0.185535 0.01047375 -0.36608250000000003 0.05755575 -0.5336625 0.13845300000000002 -0.16658250000000002 0.08079750000000001 -0.31620750000000003 0.19381425000000002 -0.43989750000000005 0.3325665l-9.0223875 10.02687c-0.12369000000000001 0.13835325 -0.21945 0.29974875 -0.28029750000000003 0.4749097500000001 -0.061845000000000004 0.17526075 -0.08778 0.36089550000000004 -0.0768075 0.546231 0.009975000000000001 0.18533550000000001 0.056857500000000005 0.36678075000000004 0.1386525 0.5338620000000001 0.08079750000000001 0.167181 0.19351500000000002 0.31670625 0.33216750000000006 0.43999725l0.69825 0.6254325000000001" stroke-width="0.5"></path><path stroke="#120071" stroke-linecap="round" stroke-linejoin="round" d="M140.4051075 53.2295925c2.9575875 -3.1650675 17.157 -10.8458175 15.2767125 -11.125117500000002 -2.2024800000000004 -0.3281775 -6.166545000000001 1.8603375000000002 -6.595470000000001 2.100735" stroke-width="0.5"></path><path stroke="#120071" stroke-linecap="round" stroke-linejoin="round" d="M152.29630500000002 42.7199325c0.44688000000000005 -0.29127 2.28228 -1.4772975000000002 3.80247 -2.3022299999999998 1.5201900000000002 -0.8249325 -1.781535 -0.8528625000000001 -3.7525950000000003 0.17057250000000002" stroke-width="0.5"></path><path stroke="#120071" stroke-linecap="round" stroke-linejoin="round" d="M144.9676725 45.52789500000001c-0.26533500000000004 -0.14763 -1.7735550000000002 -0.863835 -4.733137500000001 0.025935" stroke-width="0.5"></path><path stroke="#120071" stroke-linecap="round" stroke-linejoin="round" d="M160.23042 104.2497225c0.2882775 0.6294225 0.38403750000000003 1.3306650000000002 0.2743125 2.0149500000000002 -0.1107225 0.6832875 -0.420945 1.3196925 -0.891765 1.8274200000000003 -0.4718175 0.50673 -1.0822875 0.863835 -1.7565975 1.023435 -0.6733125000000001 0.1605975 -1.3795425000000001 0.117705 -2.028915 -0.12369000000000001 -0.6493725 -0.241395 -1.21296 -0.6693225 -1.6189425000000002 -1.230915 -0.40598249999999997 -0.5615924999999999 -0.636405 -1.2299175000000002 -0.6613425 -1.9221825000000001 -0.025935 -0.692265 0.153615 -1.37655 0.5167050000000001 -1.9660725000000001 0.3640875 -0.59052 0.8937600000000001 -1.0593450000000002 1.5231824999999999 -1.3476225 0.4179525 -0.19351500000000002 0.86982 -0.3022425 1.3296675 -0.31920000000000004 0.4598475 -0.017955 0.919695 0.0548625 1.3506150000000001 0.21546 0.4319175 0.1605975 0.8269275 0.40398750000000005 1.1640825000000001 0.7182000000000001 0.33715500000000004 0.3142125 0.608475 0.6912675 0.7989975000000001 1.1102175v0Z" stroke-width="0.5"></path><path stroke="#120071" stroke-linecap="round" stroke-linejoin="round" d="M155.6628675 106.3335c0.2882775 0.6294225 0.38403750000000003 1.3306650000000002 0.2743125 2.0149500000000002 -0.1107225 0.6832875 -0.420945 1.3196925 -0.891765 1.8274200000000003 -0.4718175 0.5077275 -1.0822875 0.863835 -1.7565975 1.023435 -0.6733125000000001 0.1605975 -1.3795425000000001 0.117705 -2.028915 -0.12369000000000001 -0.6493725 -0.241395 -1.21296 -0.6693225 -1.6189425000000002 -1.230915 -0.40598249999999997 -0.5615924999999999 -0.636405 -1.2299175000000002 -0.6613425 -1.9221825000000001 -0.025935 -0.692265 0.153615 -1.37655 0.5167050000000001 -1.9660725000000001 0.36309 -0.59052 0.8937600000000001 -1.0593450000000002 1.5231824999999999 -1.3476225 0.8458800000000001 -0.37905 1.8064725000000001 -0.41097 2.6742975 -0.08778 0.8688225 0.32219250000000005 1.5760500000000002 0.97356 1.969065 1.8124575v0Z" stroke-width="0.5"></path><path stroke="#120071" stroke-linecap="round" stroke-linejoin="round" d="M151.095315 108.438225c0.2882775 0.6294225 0.38403750000000003 1.3306650000000002 0.2743125 2.0149500000000002 -0.1107225 0.6832875 -0.420945 1.3196925 -0.891765 1.8274200000000003 -0.4718175 0.5077275 -1.0822875 0.863835 -1.7565975 1.023435 -0.6733125000000001 0.1605975 -1.3795425000000001 0.117705 -2.028915 -0.12369000000000001 -0.6493725 -0.241395 -1.21296 -0.6693225 -1.6189425000000002 -1.230915 -0.40598249999999997 -0.5615924999999999 -0.636405 -1.2299175000000002 -0.6613425 -1.9221825000000001 -0.025935 -0.692265 0.153615 -1.37655 0.5167050000000001 -1.9660725000000001 0.3640875 -0.59052 0.8937600000000001 -1.0593450000000002 1.5231824999999999 -1.3476225 0.4179525 -0.19351500000000002 0.86982 -0.3022425 1.3296675 -0.31920000000000004 0.4598475 -0.017955 0.919695 0.0548625 1.3506150000000001 0.21546 0.4319175 0.1605975 0.8269275 0.40398750000000005 1.1640825000000001 0.7182000000000001 0.33715500000000004 0.3142125 0.608475 0.6912675 0.7989975000000001 1.1102175v0Z" stroke-width="0.5"></path><path stroke="#120071" stroke-linecap="round" stroke-linejoin="round" d="M61.58166 99.25125c1.2141570000000002 -0.55291425 2.5980885000000002 -0.60219075 3.8485545 -0.13675725 1.2503662500000001 0.46533375000000005 2.2654222500000003 1.40757225 2.8227255 2.61953475l2.9755425000000004 6.51966c0.55291425 1.2139575000000002 0.602091 2.5984875 0.13675725 3.848355 -0.46533375000000005 1.2508650000000001 -1.4072730000000002 2.2653225 -2.61953475 2.822925l-9.32463 4.264312500000001c-1.21425675 0.5526150000000001 -2.5981882499999998 0.60249 -3.8485545 0.13665750000000002 -1.250466 -0.46483500000000005 -2.265522 -1.4074725000000001 -2.8227255 -2.619435l-2.9925 -6.51966c-0.553014 -1.2139575000000002 -0.60219075 -2.5984875 -0.136857 -3.848355 0.46533375000000005 -1.2508650000000001 1.4073727500000002 -2.2653225 2.6196345 -2.822925l9.341587500000001 -4.264312500000001Z" stroke-width="0.5"></path><path stroke="#120071" stroke-linecap="round" stroke-linejoin="round" d="M153.97609500000002 94.79242500000001c0.41895 -0.1945125 0.7431375 -0.54692925 0.9037350000000001 -0.9801435000000001 0.15960000000000002 -0.43321425 0.141645 -0.9121140000000001 -0.0508725 -1.3320615l-1.0423875 -2.312205c-0.1945125 -0.4187505 -0.5466300000000001 -0.7435365 -0.9805425 -0.903336 -0.432915 -0.1597995 -0.911715 -0.141645 -1.3316625 0.050473500000000004l-17.6268225 8.0548125c-0.41895 0.19461225000000001 -0.7431375 0.54692925 -0.9037350000000001 0.9802432500000001 -0.15960000000000002 0.43321425 -0.141645 0.9121140000000001 0.0508725 1.33196175l1.0423875 2.312205c0.1945125 0.41895 0.5466300000000001 0.7431375 0.9805425 0.9037350000000001 0.432915 0.15960000000000002 0.911715 0.141645 1.3316625 -0.0508725l17.6268225 -8.0548125Z" stroke-width="0.5"></path><path stroke="#120071" stroke-linecap="round" stroke-linejoin="round" d="M189.49308 76.02945c0.2084775 0.47431125 0.5516175000000001 0.87630375 0.9885225000000001 1.155105 0.4359075 0.2787015 0.94563 0.42184275000000004 1.4633325000000001 0.41106975000000007 0.5177025000000001 -0.01067325 1.0214400000000001 -0.17466225000000002 1.4453775000000002 -0.47131875 0.424935 -0.29655675000000004 0.7521150000000001 -0.7124145 0.939645 -1.19490525 0.18852750000000001 -0.48249075 0.22942500000000002 -1.00996875 0.117705 -1.5157012500000002 -0.11172000000000001 -0.5057325 -0.3700725 -0.9670762500000001 -0.744135 -1.32557775 -0.3740625 -0.35850150000000003 -0.8458800000000001 -0.5981010000000001 -1.3556025 -0.68857425 -0.5097225000000001 -0.09037350000000001 -1.0354050000000001 -0.027531 -1.5092174999999999 0.1805475 -0.31521000000000005 0.1374555 -0.600495 0.33585825 -0.8388975 0.5838367500000001 -0.2384025 0.2479785 -0.4259325 0.540645 -0.5506200000000001 0.86114175 -0.12568500000000002 0.32059650000000006 -0.185535 0.66263925 -0.1785525 1.006677 0.007980000000000001 0.343938 0.08379 0.68298825 0.22244250000000002 0.9976995000000001v0Z" stroke-width="0.5"></path><path stroke="#120071" stroke-linecap="round" stroke-linejoin="round" d="M174.9186075 82.45434750000001c0.20748 0.47431125 0.5516175000000001 0.87630375 0.9885225000000001 1.15500525 0.4359075 0.27880125000000006 0.94563 0.4219425 1.4633325000000001 0.4111695 0.5177025000000001 -0.01067325 1.0214400000000001 -0.17466225000000002 1.4453775000000002 -0.47131875 0.424935 -0.29655675000000004 0.7521150000000001 -0.7124145 0.939645 -1.19490525 0.18852750000000001 -0.48249075 0.22942500000000002 -1.00996875 0.117705 -1.5157012500000002 -0.11172000000000001 -0.5057325 -0.3700725 -0.9670762500000001 -0.744135 -1.32557775 -0.3740625 -0.35850150000000003 -0.8458800000000001 -0.5981010000000001 -1.3556025 -0.68857425 -0.5097225000000001 -0.09037350000000001 -1.0354050000000001 -0.02763075 -1.5092174999999999 0.1805475 -0.31521000000000005 0.1374555 -0.600495 0.33585825 -0.8388975 0.5838367500000001 -0.2384025 0.2479785 -0.4259325 0.540645 -0.5506200000000001 0.86114175 -0.12568500000000002 0.32059650000000006 -0.185535 0.66263925 -0.1785525 1.00657725 0.007980000000000001 0.34403775 0.08379 0.683088 0.22244250000000002 0.99779925v0Z" stroke-width="0.5"></path><path stroke="#120071" stroke-linecap="round" stroke-linejoin="round" d="m189.49308 76.02945 -9.779490000000001 4.3022175" stroke-width="0.5"></path><path stroke="#120071" stroke-linecap="round" stroke-linejoin="round" d="m193.473105 45.09897000000001 -5.3067 2.3311575 3.3735450000000005 24.94149" stroke-width="0.5"></path><path stroke="#120071" stroke-linecap="round" stroke-linejoin="round" d="m190.971375 68.183115 -19.445265 6.2732775 -7.770525 -7.618905000000001 25.510065000000004 -11.257785" stroke-width="0.5"></path><path stroke="#120071" stroke-linecap="round" stroke-linejoin="round" d="M100.2377775 114.38731500000002c1.09725 -2.42592 2.0947500000000003 -4.96356 3.0772875 -7.581 0.0189525 0.0189525 -1.596 7.694715 -0.8907675 13.6268475" stroke-width="0.5"></path><path stroke="#120071" stroke-linecap="round" stroke-linejoin="round" d="M84.7984725 74.8923c4.8328875 7.827382500000001 7.315665 17.398395 8.149575 18.914595000000002 4.813935 2.7102075 13.8542775 0.4359075 16.791915 -2.767065 1.3216875000000001 -10.4567925 0.09975 -14.207392500000001 -3.3166875000000005 -23.2547175" stroke-width="0.5"></path><path stroke="#120071" stroke-linecap="round" stroke-linejoin="round" d="M92.9480475 93.80689500000001c-3.9989775000000005 4.131645000000001 -8.4717675 -0.34114500000000003 -14.17647 29.925 -12.9445575 -0.07581 -17.6447775 1.0044825 -29.774377500000003 2.42592 -2.1416325 6.882750000000001 -1.5351525 14.271232500000002 1.0044825 21.9858975l32.5983 -10.70916c2.2895617500000003 -0.7551075 4.319574 -2.140635 5.856322500000001 -3.99798 4.77712725 -5.7845025 8.74099275 -12.194437500000001 11.781472500000001 -19.05225 4.079775 12.921615000000001 15.09018 32.5015425 22.2572175 43.8211725 10.9725 0 20.0906475 -1.8762975000000002 27.3315 -5.6857500000000005 -19.351499999999998 -14.9714775 -36.309 -51.6076575 -40.085535 -61.481910000000006" stroke-width="0.5"></path><path stroke="#120071" stroke-linecap="round" stroke-linejoin="round" d="M90.38946 72.3337125c1.35829575 2.148216 2.5983877500000006 4.36895025 3.7146900000000005 6.6523275 4.378027500000001 -0.26533500000000004 7.694715 -1.0613400000000002 9.9879675 -3.10821 -0.6014925 -2.3774415 -1.45236 -4.68455925 -2.539635 -6.882750000000001" stroke-width="0.5"></path><path stroke="#120071" stroke-linecap="round" stroke-linejoin="round" d="m105.5355 85.65732 -2.6723025 3.8852625 -4.400072250000001 -1.933155c-0.28438725000000004 -1.7750512500000002 -0.72847425 -3.520776 -1.326675 -5.2159275 2.5601835000000004 -0.15531075000000003 5.044457250000001 -0.9292710000000001 7.23995475 -2.2553475 0.5306700000000001 1.80637275 0.9186975000000001 3.6518475 1.159095 5.519167500000001v0Z" stroke-width="0.5"></path><path stroke="#120071" stroke-linecap="round" stroke-linejoin="round" d="M141.54525 155.839425c6.08475 6.709185000000001 15.86025 9.969015 20.867700000000003 16.185435 -6.728137500000001 -0.13266750000000002 -20.582415 -2.4638250000000004 -26.85669 -5.041365000000001 -1.3645800000000001 -2.5775400000000004 -0.6633375 -3.7905 -4.5296475 -9.1919625 3.5560875000000003 -0.3481275 7.075267500000001 -1.00149 10.5186375 -1.9521075v0Z" stroke-width="0.5"></path><path stroke="#120071" stroke-linecap="round" stroke-linejoin="round" d="M48.44757750000001 128.30044500000002c-4.20735525 0.15162 -8.41800225 -0.185535 -12.547552500000002 -1.0044825 -3.9411225 8.528625000000002 -6.7460925000000005 19.1609775 -8.1685275 26.041732500000002 9.8183925 -4.610445 10.064775000000001 -14.685195 20.071695000000002 -15.693667500000002 -0.26862675 -3.1291575000000003 -0.051271500000000005 -6.2812575 0.6443850000000001 -9.343582500000002v0Z" stroke-width="0.5"></path><path stroke="#120071" stroke-linecap="round" stroke-linejoin="round" d="M91.98147 70.91227500000001c2.7860175000000003 -0.0947625 5.155080000000001 -0.6443850000000001 6.5386125 -2.2553475" stroke-width="0.5"></path><path stroke="#120071" stroke-linecap="round" stroke-linejoin="round" d="M97.87559775000001 61.189642500000005c2.1257722500000003 -0.40668075000000004 4.09284225 -1.40996625 5.66988975 -2.8924507500000005 1.5770475 -1.4824845 2.6992350000000003 -3.383121 3.2368875000000004 -5.479866 0.5376525000000001 -2.096745 0.4668300000000001 -4.30311525 -0.20249250000000002 -6.3614565 -0.67032 -2.0582415000000003 -1.91121 -3.8835667500000004 -3.5800275000000004 -5.262610500000001 -1.66782 -1.3791435 -3.69424125 -2.255148 -5.84185875 -2.5256700000000003 -2.14751775 -0.27062175 -4.3277535 0.075411 -6.285945750000001 0.9975 -1.9582920000000001 0.92218875 -3.613743 2.382429 -4.77313725 4.21034775 -1.1592945 1.827819 -1.7747519999999999 3.94780575 -1.774353 6.112281 -0.0253365 1.7128072500000002 0.27630750000000004 3.41474175 0.8887725000000001 5.014432500000001 -1.4896665000000002 -2.631006 -3.8469585 -4.6629135 -6.6688860000000005 -5.74829325 -2.8219275 -1.0853797500000002 -5.9333295 -1.1569005 -8.8021395 -0.20219325 -2.86881 0.9546075 -5.31697425 2.8760917500000005 -6.925842 5.435976 -1.6089675 2.55988425 -2.2786890000000004 5.599067250000001 -1.894851 8.59815075 0.383838 2.9989837500000003 1.797495 5.771535 3.99927675 7.843741500000001 2.2017817500000003 2.07210675 5.054931 3.3150915000000003 8.07177 3.516387 3.0167392500000005 0.20129550000000002 6.00983775 -0.65146725 8.4673785 -2.4125535 2.4576405 -1.7611860000000001 4.2272055 -4.32126975 5.0061532500000006 -7.24274775 1.6488675000000002 0.9097200000000001 3.86631 1.023435 5.2867500000000005 2.0279175" stroke-width="0.5"></path><path stroke="#120071" stroke-linecap="round" stroke-linejoin="round" d="M35.93882775 44.644110000000005c0.2212455 0.4873785 0.29296575 1.02942 0.20618325 1.5574965 -0.08688225000000001 0.52817625 -0.32837700000000003 1.018647 -0.69396075 1.40956725 -0.36558375 0.39092025 -0.8388975 0.6646342500000001 -1.36009125 0.78652875 -0.5210940000000001 0.1218945 -1.0667265 0.08648325 -1.5677707500000002 -0.10164525 -0.50104425 -0.18822825 -0.9350565000000001 -0.520695 -1.24717425 -0.95550525 -0.312018 -0.43491 -0.4881765 -0.95251275 -0.5061315 -1.4873722500000002 -0.01785525 -0.53495925 0.12329100000000001 -1.0632352500000002 0.40558350000000004 -1.51789575 0.2822925 -0.45476025000000003 0.693063 -0.8155560000000001 1.1804415000000001 -1.0368015000000002 0.32328975000000004 -0.14872725 0.6729135 -0.231819 1.02852225 -0.24458700000000003 0.3557085 -0.012768000000000002 0.7104195000000001 0.045087 1.0435845000000001 0.1701735 0.33316500000000004 0.12508650000000002 0.6382005000000001 0.3150105 0.8975505000000001 0.5587995000000001 0.25935 0.24368925 0.4678275 0.5364555 0.613263 0.8612415v0Z" stroke-width="0.5"></path><path stroke="#120071" stroke-linecap="round" stroke-linejoin="round" d="M45.13089 48.0366075c0.22094625 0.48727875000000004 0.29256675000000004 1.0290210000000002 0.2056845 1.5568980000000001 -0.08688225000000001 0.52797675 -0.32837700000000003 1.018248 -0.6938610000000001 1.4088690000000001 -0.36558375 0.39072075 -0.838698 0.66423525 -1.3595925 0.7860300000000001 -0.52099425 0.12179475000000001 -1.0663275 0.0863835 -1.56717225 -0.101745 -0.5008447500000001 -0.18822825 -0.9346575000000001 -0.5205952500000001 -1.24657575 -0.9553057500000001 -0.31191825 -0.43461075 -0.48797700000000005 -0.952014 -0.50583225 -1.486674 -0.01785525 -0.5347597500000001 0.12319125 -1.0627365 0.405384 -1.51729725s0.69276375 -0.8151570000000001 1.1799427500000002 -1.0364025c0.32328975000000004 -0.14852775000000001 0.67281375 -0.23151975000000002 1.02832275 -0.24418800000000002 0.355509 -0.01266825 0.71012025 0.045186750000000005 1.0431855 0.17027325 0.33306525 0.12518625 0.6380009999999999 0.3150105 0.8972512500000001 0.55869975 0.25925025 0.24358950000000001 0.46772775 0.536256 0.613263 0.8608425000000001v0Z" stroke-width="0.5"></path><path stroke="#120071" stroke-linecap="round" stroke-linejoin="round" d="m34.9533975 55.598655 6.1974675 -16.3939125" stroke-width="0.5"></path><path stroke="#120071" stroke-linecap="round" stroke-linejoin="round" d="m99.18332025000001 155.0623725 4.26441225 9.267772500000001" stroke-width="0.5"></path><path stroke="#120071" stroke-linecap="round" stroke-linejoin="round" d="m105.94946250000001 157.56410250000002 -9.267772500000001 4.283265" stroke-width="0.5"></path><path stroke="#120071" stroke-linecap="round" stroke-linejoin="round" d="M137.7138525 72.6748575c0.576555 0.395808 1.0364025 0.9381487500000001 1.3326600000000002 1.57116225 0.2962575 0.6331132500000001 0.41895 1.3337572500000001 0.3541125 2.02981275" stroke-width="0.5"></path><path stroke="#120071" stroke-linecap="round" stroke-linejoin="round" d="M139.74177000000003 69.6255c1.0453800000000002 0.8564535000000001 1.885275 1.9357485000000003 2.4598350000000004 3.158883 0.5735625 1.2231345 0.8668275000000001 2.5592857500000004 0.85785 3.9103995" stroke-width="0.5"></path><path stroke="#120071" stroke-linecap="round" stroke-linejoin="round" d="M141.94425 66.212055c2.9925 2.925069 4.817925000000001 6.8390595 5.136127500000001 11.0114025" stroke-width="0.5"></path><path stroke="#120071" stroke-linecap="round" stroke-linejoin="round" d="m120.3533625 27.5858625 -3.2468625 1.47231c-0.20249250000000002 0.07850325000000001 -0.38703000000000004 0.19750500000000001 -0.5416425 0.3497235 -0.1546125 0.15221850000000003 -0.277305 0.334362 -0.35910000000000003 0.5354580000000001 -0.0827925 0.20109600000000002 -0.12269250000000001 0.41685525 -0.1187025 0.6340110000000001 0.004987500000000001 0.21715575 0.052867500000000005 0.4311195 0.1426425 0.628824 0.08977500000000001 0.19780425000000001 0.21945 0.37515975 0.38004750000000004 0.52119375 0.1605975 0.146034 0.349125 0.25785375000000005 0.55461 0.32837700000000003 0.205485 0.07052325000000001 0.42294000000000004 0.09845325 0.640395 0.0819945 0.2164575 -0.0165585 0.42693000000000003 -0.077007 0.6194475 -0.17785425l1.8194400000000002 -0.8269275c0.38004750000000004 -0.16209375 0.8089725000000001 -0.16917600000000002 1.1940075 -0.01965075 0.385035 0.1494255 0.6972524999999999 0.44358825 0.8688225 0.8197455 0.17157 0.37605750000000004 0.18852750000000001 0.80428425 0.048877500000000004 1.1932095 -0.13965000000000002 0.38892525000000006 -0.4259325 0.7077262500000001 -0.798 0.8884732500000001l-3.2688075000000003 1.49625" stroke-width="0.5"></path><path stroke="#120071" stroke-linecap="round" stroke-linejoin="round" d="m117.51048750000001 27.5858625 3.6199275 7.9231425" stroke-width="0.5"></path><path stroke="#120071" stroke-linecap="round" stroke-linejoin="round" d="M15.8672325 101.44575c-0.22054725 -0.4219425 -0.59421075 -0.744135 -1.04448225 -0.899745 -0.45027150000000005 -0.1546125 -0.9429367500000001 -0.13167 -1.3768492500000002 0.06384000000000001 -0.43391250000000003 0.19650750000000003 -0.7762545000000001 0.5516175000000001 -0.95670225 0.9925125 -0.180348 0.44089500000000004 -0.18523575 0.9346575000000001 -0.01346625 1.378545l0.83391 1.8573450000000002" stroke-width="0.5"></path><path stroke="#120071" stroke-linecap="round" stroke-linejoin="round" d="M26.3669175 109.499565c0.2922675 -0.11172000000000001 0.55850025 -0.2822925 0.78233925 -0.5017425 0.223839 -0.21845250000000002 0.400596 -0.48079500000000003 0.5192985 -0.77007 0.1187025 -0.2902725 0.17695650000000002 -0.600495 0.17107125000000004 -0.9137100000000001 -0.00588525 -0.313215 -0.07571024999999999 -0.6214425 -0.2052855 -0.90573 -0.1294755 -0.285285 -0.31590825 -0.540645 -0.5478270000000001 -0.7511175 -0.23191875000000003 -0.2104725 -0.5044357500000001 -0.3700725 -0.80069325 -0.4718175 -0.2962575 -0.10074750000000002 -0.6099712500000001 -0.13965000000000002 -0.9219892500000001 -0.11471250000000001 -0.312018 0.023940000000000003 -0.615657 0.11271750000000001 -0.8921640000000001 0.25935 -7.618905000000001 1.8194400000000002 -10.234350000000001 1.554105 -11.163022500000002 -0.492765 0.9286725000000001 2.04687 -0.60648 4.189500000000001 -6.974549925 8.7371025 -0.516415725 0.27331500000000003 -0.908951925 0.73416 -1.0974794250000002 1.286775 -0.188537475 0.5536125000000001 -0.158851875 1.1580975 0.082982025 1.689765 0.2418339 0.5316675000000001 0.677591775 0.951615 1.218336525 1.17306 0.5407447500000001 0.22244250000000002 1.14570855 0.22942500000000002 1.691410875 0.019950000000000002l18.137572425 -8.2443375Z" stroke-width="0.5"></path></g></g></svg>