<svg xmlns="http://www.w3.org/2000/svg" fill="none" viewBox="-0.25 -0.25 200 200" id="Work-Overworked-Employee-01--Streamline-Bangalore.svg"><desc>Work Overworked Employee 01 Streamline Illustration: https://streamlinehq.com</desc><g><g><path fill="#e69ece" d="m116.32047 101.691135 -9.775500000000001 -2.3311575 -42.384772500000004 -43.7832675c-6.55347525 3.2700045 -11.9542395 8.460396000000001 -15.482197500000002 14.878710000000002l17.8353 19.370452500000003 -20.5076025 -4.8877500000000005c-4.055835 6.29223 -5.7994650000000005 12.90765 -4.8877500000000005 19.920075l52.008652500000004 13.855275c4.3540875 4.7211675 6.444847500000001 7.393470000000001 10.594447500000001 9.775500000000001 4.264312500000001 2.4448725000000002 11.2029225 5.1600675 18.878685 3.1511025 0.9625875 -0.13067250000000002 -3.1710525 -21.017325000000003 -6.279262500000001 -29.948940000000004Z" stroke-width="0.5"></path><path fill="#e69ece" d="m141.01657500000002 31.3544175 -5.3635575 -11.238832500000001c-0.38304000000000005 -0.8065785 -0.9216900000000001 -1.5298657500000001 -1.5840300000000003 -2.1283657500000004 -0.6633375 -0.5985 -1.4373975 -1.0605419999999999 -2.27829 -1.3596922500000002 -0.84189 -0.29925 -1.7336550000000002 -0.429723 -2.62542 -0.38403750000000003 -0.891765 0.045685500000000004 -1.7655750000000001 0.266532 -2.5725525000000005 0.6501705000000001l-5.53413 2.6334000000000004 11.2009275 23.5220475 5.535127500000001 -2.6343975c0.8079750000000001 -0.3816435 1.5321600000000002 -0.91919625 2.132655 -1.581636 0.5994975 -0.6625395000000001 1.0623375 -1.4369985000000003 1.3615875000000002 -2.2788885000000003 0.29925 -0.84198975 0.428925 -1.73475225 0.38304000000000005 -2.6270160000000002 -0.0468825 -0.8923635 -0.26932500000000004 -1.76667225 -0.6553575 -2.5727520000000004Zm-6.766042500000001 1.4214375000000001c0 0.050274000000000006 -0.019950000000000002 0.09845325 -0.05586000000000001 0.13396425 -0.034912500000000006 0.035610750000000004 -0.08379 0.05556075 -0.133665 0.05556075s-0.09875250000000001 -0.019950000000000002 -0.133665 -0.05556075c-0.03591 -0.035511 -0.05586000000000001 -0.08369025000000001 -0.05586000000000001 -0.13396425V28.528500000000005l-2.8239225 1.2508650000000001c-0.028927500000000002 0.010374 -0.05985 0.013965000000000002 -0.08977500000000001 0.010573500000000001 -0.029925 -0.0034912500000000004 -0.05985 -0.013865249999999999 -0.085785 -0.030324 -0.0249375 -0.01645875 -0.0468825 -0.03860325 -0.06284250000000001 -0.0648375 -0.015960000000000002 -0.0261345 -0.0249375 -0.05556075 -0.027930000000000003 -0.0859845v-4.5276525c0 -0.050274000000000006 0.019950000000000002 -0.09845325 0.05586000000000001 -0.134064 0.034912500000000006 -0.035511 0.08379 -0.055460999999999996 0.133665 -0.055460999999999996s0.09875250000000001 0.019950000000000002 0.133665 0.055460999999999996c0.03591 0.035610750000000004 0.05586000000000001 0.08379 0.05586000000000001 0.134064V29.3265l2.82492 -1.2508650000000001c0.027930000000000003 -0.01147125 0.057855000000000004 -0.01566075 0.08778 -0.012369 0.029925 0.00329175 0.057855000000000004 0.01406475 0.0827925 0.0313215 0.0269325 0.015760500000000004 0.049875 0.037805250000000006 0.065835 0.064239 0.016957500000000004 0.026334 0.0269325 0.056358750000000006 0.028927500000000002 0.087381v4.5296475Z" stroke-width="0.5"></path></g><g><path fill="#6153bd" d="M156.33119250000001 82.45335c0.1107225 0.45974775 0.12269250000000001 0.9374505 0.037905 1.402485 1.310715 -0.5831385 2.5047225 -1.39859475 3.525165 -2.4069675 -1.1571 0.43660575 -2.3491125 0.7726635 -3.56307 1.0044825Z" stroke-width="0.5"></path><path fill="#6153bd" d="M118.97382000000002 98.92407c-2.1416325 -5.192985000000001 -6.539610000000001 -13.9500375 -10.3869675 -12.945555 -2.5206825000000004 0.6633375 -3.6199275 5.4583200000000005 -3.2408775000000003 12.1695l1.175055 1.21296 9.7804875 2.3311575c-0.36708 -1.1999925000000002 -0.8758050000000001 -2.3512072500000003 -1.5162 -3.4304025 1.3236825 0.24538500000000002 2.8199325 0.45386250000000006 4.1885025 0.66234Z" stroke-width="0.5"></path><path fill="#6153bd" d="M47.215764750000005 37.85512500000001c-1.629915 2.9007300000000003 -2.2742999999999998 13.324605000000002 -3.94212 18.934545 -0.64687875 2.06552325 -1.0663275 4.195485000000001 -1.2508650000000001 6.352080000000001 0.895356 1.477497 2.0362965 2.791404 3.3735450000000005 3.8852625 1.736448 -4.3193744999999995 4.24067175 -8.288626500000001 7.391475000000001 -11.7156375 -1.9371450000000001 -4.9865025 -1.4892675000000002 -10.651305 -5.5720350000000005 -17.45625Z" stroke-width="0.5"></path><path fill="#6153bd" d="M37.170840000000005 89.95854c-4.4079524999999995 -3.2698050000000003 -6.8079375 -8.0967075 -14.025847500000001 -11.788455 0.17057250000000002 3.3166875000000005 5.192985000000001 12.489697500000002 6.766042500000001 18.11859 0.54812625 2.09046075 1.3300665 4.1126925000000005 2.3311575 6.0278925 1.54682325 0.77007 3.21364575 1.2698175 4.9286475 1.4782950000000001 -0.827925 -4.574934000000001 -0.827925 -9.261388499999999 0 -13.836322500000001Z" stroke-width="0.5"></path><path fill="#6153bd" d="M140.92181250000002 82.415445c-0.5875275 5.53413 2.35011 6.6523275 5.3067 2.008965 -1.8573450000000002 -0.406581 -3.6458625 -1.0833847500000002 -5.3067 -2.008965Z" stroke-width="0.5"></path><path fill="#6153bd" d="M144.76917 73.16562750000001c0.947625 0.45486000000000004 2.5017300000000002 0.83391 2.88078 0.5685749999999999l0.5685749999999999 -1.3835325c-0.9097200000000001 -1.0992450000000002 -2.2932525 -0.43092 -3.449355 0.8149575Z" stroke-width="0.5"></path><path fill="#6153bd" d="M163.68975 69.84894c-0.8329125000000001 -3.08427 -3.1271625 -6.766042500000001 -8.3959575 -11.333595 -1.187025 4.528251 -2.104725 9.122736 -2.7481125 13.759515 2.4907575 -0.61874925 5.052337500000001 -0.9118147500000001 7.618905000000001 -0.871815 0.22743000000000002 -0.492765 0.7052325 0.029925 1.3077225000000001 1.7625825 0.019950000000000002 0.056857500000000005 0.07581 0.2084775 0.13266750000000002 0.399 0.121695 -0.04059825 0.25137000000000004 -0.05356575 0.37905 -0.037905 -0.056857500000000005 -0.7770525 -0.149625 -1.629915 -0.26533500000000004 -2.5585875000000002 -0.5586000000000001 -4.4737875 0.7471275 -5.09523 1.933155 -0.60648 0.0748125 0.28428749999999997 0.22743000000000002 1.0613400000000002 0.399 2.008965 -0.017955 -0.8520645 -0.1386525 -1.6988422500000002 -0.361095 -2.5216800000000004Z" stroke-width="0.5"></path><path fill="#6153bd" d="m161.14512750000003 102.070185 -0.947625 6.500707500000001s2.8239225 -3.600975 3.8094525000000004 -5.2867500000000005l-2.8618275000000004 -1.2139575000000002Z" stroke-width="0.5"></path><path fill="#6153bd" d="m61.829040000000006 149.75667 19.559977500000002 3.8094525000000004 -18.328065 -16.318102500000002 -19.559977500000002 -3.81045 18.328065 16.3191Z" stroke-width="0.5"></path><path fill="#6153bd" d="m81.35061375000001 153.5661225 18.2333025 -11.959027500000001 -21.379417500000002 -2.5964925000000005 -7.60095 4.9845075 10.747065 9.571012500000002Z" stroke-width="0.5"></path></g><g><path stroke="#120071" stroke-linejoin="round" d="m61.829040000000006 149.75667 19.559977500000002 3.8094525000000004 -18.328065 -16.318102500000002 -19.559977500000002 -3.81045 18.328065 16.3191Z" stroke-width="0.5"></path><path stroke="#120071" stroke-linejoin="round" d="m81.35061375000001 153.5661225 18.2333025 -11.959027500000001 -21.379417500000002 -2.5964925000000005 -7.60095 4.9845075 10.747065 9.571012500000002Z" stroke-width="0.5"></path><path stroke="#120071" stroke-linecap="round" stroke-linejoin="round" d="M78.261855 70.1332275c7.0968135000000006 -2.84796225 14.782451250000001 -3.9171825000000005 22.386892500000002 -3.1144942500000004 7.60494 0.8027880000000001 14.897662500000001 3.4530457500000002 21.2437575 7.719951750000001" stroke-width="0.5"></path><path stroke="#120071" stroke-linecap="round" stroke-linejoin="round" d="M56.8824375 87.53262c1.0434847500000002 -1.5549030000000001 2.17584675 -3.04836 3.3915 -4.47279" stroke-width="0.5"></path><path stroke="#120071" stroke-linecap="round" stroke-linejoin="round" d="M49.45206 107.0766375c-0.28917525 2.1296625 -0.43481025 4.2762825 -0.4359075 6.4248975 -0.015461250000000001 7.7156625000000005 1.8890655 15.313620000000002 5.5399155 22.107592500000003" stroke-width="0.5"></path><path stroke="#120071" stroke-linecap="round" stroke-linejoin="round" d="M141.3766725 123.75284250000001c-1.7196900000000002 7.654815000000001 -5.3376225 14.753025 -10.520632500000001 20.642265000000002 -5.184007500000001 5.88924 -11.76651 10.3789875 -19.14003 13.056277500000002 -7.3745175000000005 2.67729 -15.304443000000001 3.45534 -23.05870875 2.2633275000000004 -7.55536425 -1.1620875000000002 -14.707539 -4.1585775 -20.83179 -8.7231375" stroke-width="0.5"></path><path stroke="#120071" stroke-linecap="round" stroke-linejoin="round" d="M141.98315250000002 24.474660000000004c2.8997325000000003 -1.8194400000000002 6.767040000000001 -2.731155 10.064775000000001 -1.554105 5.4593175 1.9491150000000002 8.213415000000001 8.492715 6.860805 13.9300875 -1.2638325 5.081265 -5.2867500000000005 9.497197500000002 -8.017905 13.836322500000001 -4.603462500000001 7.317660000000001 -6.483750000000001 12.75603 -3.7715475000000005 21.114082500000002" stroke-width="0.5"></path><path stroke="#120071" stroke-linecap="round" stroke-linejoin="round" d="m137.4345525 23.830275 2.3311575 4.8707925 1.6488675000000002 -0.798c0.44688000000000005 -0.21715575 0.7900200000000001 -0.600894 0.9566025 -1.0687214999999999 0.16658250000000002 -0.46792725 0.1426425 -0.98243775 -0.065835 -1.4330085000000001l-0.69825 -1.4782950000000001c-0.217455 -0.4466805 -0.600495 -0.7902195000000001 -1.0683225 -0.9568020000000002 -0.4678275 -0.16658250000000002 -0.9825375000000001 -0.142842 -1.4334075000000002 0.0660345l-1.6708125 0.798Z" stroke-width="0.5"></path><path stroke="#120071" stroke-linecap="round" stroke-linejoin="round" d="m132.27847500000001 43.0491075 -11.2009275 -23.5220475 -11.107162500000001 5.288745 11.201925000000001 23.52105 11.106165 -5.2877475Z" stroke-width="0.5"></path><path stroke="#120071" stroke-linecap="round" stroke-linejoin="round" d="m141.03552750000003 31.3544175 -5.3635575 -11.257785c-0.38304000000000005 -0.8065785 -0.9216900000000001 -1.5298657500000001 -1.5840300000000003 -2.128266 -0.6633375 -0.5985 -1.4373975 -1.0605419999999999 -2.27829 -1.3597920000000001 -0.84189 -0.29925 -1.7336550000000002 -0.429723 -2.62542 -0.38403750000000003 -0.891765 0.045685500000000004 -1.7665725 0.26663175 -2.5725525000000005 0.6501705000000001l-5.53413 2.6523525 11.2009275 23.5220475 5.535127500000001 -2.6343975c0.8069775000000001 -0.3832395 1.5291675 -0.9216900000000001 2.1276675000000003 -1.584429 0.5985 -0.66283875 1.0603425 -1.4369985000000003 1.3595925 -2.27829 0.29925 -0.84139125 0.42992250000000004 -1.7334555 0.38403750000000003 -2.6252205 -0.044887500000000004 -0.8918647500000001 -0.2663325 -1.76587425 -0.6493725 -2.5723530000000006v0Z" stroke-width="0.5"></path><path stroke="#120071" stroke-linecap="round" stroke-linejoin="round" d="M130.9527975 25.0933095v4.426506l3.086265 -1.2468750000000002v4.519872" stroke-width="0.5"></path><path stroke="#120071" stroke-linecap="round" stroke-linejoin="round" d="m121.17231000000001 48.336855 -11.201925000000001 -23.52105 -11.10606525 5.2877475 11.20082775 23.52105 11.107162500000001 -5.2877475Z" stroke-width="0.5"></path><path stroke="#120071" stroke-linecap="round" stroke-linejoin="round" d="M90.4483125 41.6466225c-0.38343900000000003 -0.80647875 -0.6041857500000001 -1.6805880000000002 -0.6497715000000001 -2.57245275 -0.045486000000000006 -0.8918647500000001 0.08508675 -1.783929 0.3844365 -2.62532025 0.29925 -0.8412915000000001 0.76139175 -1.61545125 1.35989175 -2.27819025 0.5985 -0.6627390000000001 1.3216875000000001 -1.20108975 2.1283657500000004 -1.5843292500000001l5.192985000000001 -2.4827775 11.2009275 23.52105 -5.192985000000001 2.4827775c-0.8059800000000001 0.38353875000000004 -1.6807875 0.604485 -2.5725525000000005 0.6501705000000001 -0.891765 0.04558575 -1.78353 -0.08488725 -2.62472175 -0.38413725000000004 -0.8412915000000001 -0.29915025 -1.6153515 -0.76119225 -2.2779907500000003 -1.3596922500000002 -0.6627390000000001 -0.5985 -1.20099 -1.3216875000000001 -1.5840300000000003 -2.128266l-5.364555 -11.238832500000001Z" stroke-width="0.5"></path><path stroke="#120071" stroke-linecap="round" stroke-linejoin="round" d="M93.12161250000001 118.7114775 41.09700000000001 104.85620250000001c-0.9097200000000001 -7.012425 0.83391 -13.627845 4.8877500000000005 -19.920075l20.526555000000002 4.8877500000000005" stroke-width="0.5"></path><path stroke="#120071" stroke-linecap="round" stroke-linejoin="round" d="m116.3015175 101.691135 -9.761535 -2.3311575" stroke-width="0.5"></path><path stroke="#120071" stroke-linecap="round" stroke-linejoin="round" d="M121.665075 124.70046750000002c-3.2827725 0.62244 -6.673275000000001 0.32718 -9.79944 -0.8528625000000001 -4.0568325000000005 -1.45635 -7.680750000000001 -3.9121950000000005 -10.53759 -7.140105000000001L53.5268475 63.6405" stroke-width="0.5"></path><path stroke="#120071" stroke-linecap="round" stroke-linejoin="round" d="m41.150865 97.35101250000001 42.303975 10.878735" stroke-width="0.5"></path><path stroke="#120071" stroke-linecap="round" stroke-linejoin="round" d="M152.5406925 72.33171750000001c-1.2518624999999999 9.988965 1.1181975 11.5999275 7.3346175 9.11715" stroke-width="0.5"></path><path stroke="#120071" stroke-linecap="round" stroke-linejoin="round" d="M114.21375 107.301075 64.14723000000001 55.583692500000005c-6.547889250000001 3.2700045 -11.943965250000002 8.457603 -15.46923 14.871727500000002l48.91949475 53.12685c1.7687670000000002 1.941135 3.82730775 3.596985 6.10260525 4.908697500000001 4.27329 2.451855 11.214892500000001 5.1600675 18.897637500000002 3.1511025" stroke-width="0.5"></path><path stroke="#120071" stroke-linecap="round" stroke-linejoin="round" d="M150.3980625 84.4812675c6.596467500000001 3.3915 6.0278925 -1.6867725000000002 6.0278925 -1.6867725000000002l-0.039900000000000005 -0.353115" stroke-width="0.5"></path><path stroke="#120071" stroke-linecap="round" stroke-linejoin="round" d="M156.08481 84.613935c-0.947625 4.359075000000001 -19.086165 15.63681 -45.7543275 1.554105" stroke-width="0.5"></path><path stroke="#120071" stroke-linecap="round" stroke-linejoin="round" d="M105.34597500000001 98.1470175c-0.37905 -6.710182500000001 0.7191975 -11.50716 3.2408775000000003 -12.1695 3.8463600000000002 -1.0084724999999999 8.245335 7.7515725 10.3869675 12.945555 -1.2698175 -0.26533500000000004 -2.8239225 -0.492765 -4.189500000000001 -0.6633375" stroke-width="0.5"></path><path stroke="#120071" stroke-linecap="round" stroke-linejoin="round" d="M47.21566500000001 37.85512500000001c-0.5117175 -0.871815 -0.947625 -1.366575 -1.2698175 -1.326675 -2.0109600000000003 0.25137000000000004 -2.5186875 11.6577825 -4.2264075000000005 17.38044 -0.623637 1.93524975 -1.0002929999999999 3.94142175 -1.1211900000000001 5.971035 0.24907575 1.1724615 0.73366125 2.28218025 1.4243302500000001 3.261825 0.1713705 -2.15769225 0.5911185000000001 -4.28855175 1.25096475 -6.350085 1.6668225 -5.611935000000001 2.312205 -16.03581 3.94212 -18.936540000000004Z" stroke-width="0.5"></path><path stroke="#120071" stroke-linecap="round" stroke-linejoin="round" d="M52.78779975 55.311375000000005c-1.2887700000000002 -3.3166875000000005 -1.47231 -6.3690375 -2.312205 -9.514155 -0.74722725 -2.7742470000000004 -1.842582 -5.44285875 -3.25983 -7.942095 -1.629915 2.9007300000000003 -2.284275 13.3216125 -3.94212 18.934545 -0.648375 2.06512425 -1.06782375 4.1952855 -1.2508650000000001 6.352080000000001 0.895356 1.477497 2.0362965 2.791404 3.3735450000000005 3.8852625 1.7361487500000001 -4.319474250000001 4.2403725 -8.28872625 7.391475000000001 -11.7156375v0Z" stroke-width="0.5"></path><path stroke="#120071" stroke-linecap="round" stroke-linejoin="round" d="m45.396225 67.0250175 3.2787825 3.4304025" stroke-width="0.5"></path><path stroke="#120071" stroke-linecap="round" stroke-linejoin="round" d="m52.78770000000001 55.311375000000005 4.341120000000001 4.871790000000001" stroke-width="0.5"></path><path stroke="#120071" stroke-linecap="round" stroke-linejoin="round" d="M23.142 78.170085c-0.8907675 -0.4558575 -1.5351525 -0.6443850000000001 -1.781535 -0.4359075 -1.55211 1.3097175 4.075785000000001 11.205915000000001 5.704702500000001 16.943535 0.512715 1.9669702500000001 1.26373275 3.86401575 2.236395 5.648842500000001 0.83221425 0.8628375 1.831809 1.5461250000000002 2.9376375 2.008965 -1.00139025 -1.9152 -1.7833305000000002 -3.937332 -2.3311575 -6.0278925 -1.5600900000000002 -5.650837500000001 -6.5924775 -14.820855000000002 -6.766042500000001 -18.137542500000002Z" stroke-width="0.5"></path><path stroke="#120071" stroke-linecap="round" stroke-linejoin="round" d="M37.170840000000005 89.95854c-2.8618275000000004 -2.1226800000000003 -4.66431 -4.603462500000001 -7.032375 -6.8039475000000005 -2.112705 -1.94921475 -4.46231625 -3.624915 -6.9934725 -4.987500000000001 0.17057250000000002 3.3166875000000005 5.187 12.491692500000001 6.766042500000001 18.11859 0.5472285 2.0907600000000004 1.3292685000000002 4.1126925000000005 2.3311575 6.0278925 1.54682325 0.77007 3.21364575 1.2698175 4.9286475 1.4782950000000001 -0.82762575 -4.5739365 -0.82762575 -9.259393500000002 0 -13.833330000000002v0Z" stroke-width="0.5"></path><path stroke="#120071" stroke-linecap="round" stroke-linejoin="round" d="m37.1897925 103.79486250000001 3.904215 1.0613400000000002" stroke-width="0.5"></path><path stroke="#120071" stroke-linecap="round" stroke-linejoin="round" d="m37.170840000000005 89.95854 5.4772725 1.5730575" stroke-width="0.5"></path><path stroke="#120071" stroke-linecap="round" stroke-linejoin="round" d="M169.80642 126.33038250000001c0.5586000000000001 1.2069750000000001 0.7461300000000001 2.5526025000000003 0.540645 3.86631 -0.2064825 1.3137075 -0.798 2.5366425 -1.6987425000000003 3.51519 -0.9017400000000001 0.97755 -2.072805 1.6658250000000001 -3.365565 1.9780425000000001 -1.2927600000000001 0.31221750000000004 -2.64936 0.2344125 -3.8972325000000003 -0.2244375 -1.2478725 -0.45785250000000005 -2.3331525 -1.2768000000000002 -3.1161900000000005 -2.3511075000000003 -0.7830375 -1.0753050000000002 -1.2299175000000002 -2.35809 -1.2837825 -3.6867600000000005 -0.0548625 -1.3286700000000002 0.2862825 -2.6433750000000003 0.979545 -3.77853 0.6932625 -1.135155 1.7077200000000001 -2.0388900000000003 2.9146950000000005 -2.59749 0.8009925000000001 -0.3720675 1.66782 -0.58254 2.5506075 -0.6194475 0.8827875000000001 -0.03591 1.7635800000000001 0.101745 2.5935 0.40598249999999997 0.8289225 0.30523500000000003 1.5900150000000002 0.77007 2.2393875000000003 1.3695675 0.648375 0.5994975 1.17306 1.3206900000000001 1.5431325 2.1226800000000003v0Z" stroke-width="0.5"></path><path stroke="#120071" stroke-linecap="round" stroke-linejoin="round" d="m161.7895125 125.0037075 1.9142025000000003 4.1505975 4.0747875 -1.8762975000000002" stroke-width="0.5"></path><path stroke="#120071" stroke-linecap="round" stroke-linejoin="round" d="M148.218525 72.35067c-0.1745625 -0.21436275000000002 -0.40398750000000005 -0.37795275000000006 -0.6633375 -0.4738125 -1.69575 -0.6174525000000001 -4.283265 2.3690625 -5.7426075 6.61542s-1.2488700000000001 8.161545 0.4738125 8.756055000000002c1.139145 0.39301500000000006 2.6343975 -0.7770525 3.9610725 -2.8239225" stroke-width="0.5"></path><path stroke="#120071" stroke-linecap="round" stroke-linejoin="round" d="M147.55518750000002 71.8768575c-4.849845 -1.131165 -9.6388425 -2.5102087500000003 -14.3470425 -4.131645000000001 -5.420415 -1.877295 -14.481705000000002 0.9665775 -10.102680000000001 11.353545 2.1416325 5.07927 8.3391 10.897687500000002 13.3056525 13.911135" stroke-width="0.5"></path><path stroke="#120071" stroke-linecap="round" stroke-linejoin="round" d="m142.2863925 87.2483325 -13.4572725 -6.8039475000000005" stroke-width="0.5"></path><path stroke="#120071" stroke-linecap="round" stroke-linejoin="round" d="M153.6778425 81.84687000000001c-0.416955 0.5306700000000001 -0.8309175 1.0453800000000002 -1.2319125000000002 1.49625 -1.8443775 2.0777925 -6.672277500000001 1.7246775 -11.54307 -0.9097200000000001" stroke-width="0.5"></path><path stroke="#120071" stroke-linecap="round" stroke-linejoin="round" d="M147.612045 73.6962975c-0.37905 0.28428749999999997 -1.89525 -0.0947625 -2.8428750000000003 -0.5306700000000001" stroke-width="0.5"></path><path stroke="#120071" stroke-linecap="round" stroke-linejoin="round" d="M150.87187500000002 71.21352c0.0189525 -0.2084775 0.056857500000000005 -1.596 0.07581 -1.781535 0.0947625 -3.33564 -0.6723150000000001 -2.7640725 -1.8573450000000002 0.6633375 -1.0064775 2.7197835 -2.1575925 5.383607250000001 -3.449355 7.98" stroke-width="0.5"></path><path stroke="#120071" stroke-linecap="round" stroke-linejoin="round" d="M153.88632 64.52328750000001c-0.32219250000000005 -1.175055 -1.2678225 -0.18852750000000001 -2.04687 2.80497 -0.64239 2.4648225000000004 -1.1381475 4.5885 -1.6309125 6.1974675" stroke-width="0.5"></path><path stroke="#120071" stroke-linecap="round" stroke-linejoin="round" d="M152.46488250000002 73.03296c-1.0862775 0.02543625 -2.14263 0.35361375 -3.05235 0.947625" stroke-width="0.5"></path><path stroke="#120071" stroke-linecap="round" stroke-linejoin="round" d="m179.8901475 104.93700000000001 -13.3665 -6.9934725c1.0613400000000002 -5.819415 4.4159325 -11.5999275 9.177 -14.49966 0 0 10.9535475 7.128135 16.62234 12.831840000000001 5.59797 5.6318850000000005 1.09725 17.5649775 -12.37698 14.1575175 -4.4458575 -1.131165 -10.339087500000002 -4.6074525 -15.9390525 -7.1570625 -11.462272500000001 18.354 -32.824732499999996 25.3514625 -39.501000000000005 27.778380000000002 -0.6413925 0.23241750000000003 -1.2797924999999999 0.42693000000000003 -1.913205 0.592515 1.1181975 -0.15162 -4.79598 -29.060167500000002 -7.8094275 -33.38133750000001 7.467285 1.4782950000000001 30.343950000000003 4.245360000000001 45.544852500000005 -11.371500000000001" stroke-width="0.5"></path><path stroke="#120071" stroke-linecap="round" stroke-linejoin="round" d="M167.9301225 78.4922775s1.175055 -2.9396325 2.6932500000000004 -3.49125c1.629915 -0.588525 -1.2349050000000001 4.758075 -1.0802925 7.7336175 0.05586000000000001 1.0613400000000002 3.4693050000000003 2.7860175000000003 3.4693050000000003 2.7860175000000003" stroke-width="0.5"></path><path stroke="#120071" stroke-linecap="round" stroke-linejoin="round" d="M165.9211575 70.872375c-0.13266750000000002 -1.6867725000000002 0.1446375 -7.129132500000001 1.4214375000000001 -1.8573450000000002 0.24339 1.4170485000000002 0.40099500000000005 2.84736375 0.4738125 4.283265 0.27132000000000006 2.3894115 0.2264325 4.804159500000001 -0.13266750000000002 7.182" stroke-width="0.5"></path><path stroke="#120071" stroke-linecap="round" stroke-linejoin="round" d="M162.09375 74.9850675c-0.07581 -0.2084775 -0.5306700000000001 -1.49625 -0.5875275 -1.6867725000000002 -1.1371499999999999 -3.1271625 -1.653855 -2.312205 -1.4782950000000001 1.3077225000000001 0.14763 3.05235 -0.165585 7.506187500000001 -0.22743000000000002 8.700195 -0.22942500000000002 4.454835 1.7625825 5.7426075 7.8652875 10.385970000000002" stroke-width="0.5"></path><path stroke="#120071" stroke-linecap="round" stroke-linejoin="round" d="M164.59448250000003 76.08431250000001c-0.2463825 -2.1416325 -0.76209 -4.987500000000001 -0.9286725000000001 -5.60994 -1.1880225000000002 -4.4837625 -2.499735 -3.8473575 -1.933155 0.60648 0.32319000000000003 2.539635 0.3600975 4.4538375 0.5117175 6.1416075" stroke-width="0.5"></path><path stroke="#120071" stroke-linecap="round" stroke-linejoin="round" d="M163.70371500000002 70.60704000000001c-0.0189525 -8.67825 1.69575 -5.02341 2.160585 -0.189525 0.21147000000000002 2.1795375000000003 0.45486000000000004 3.7905 0.492765 5.07927" stroke-width="0.5"></path><path stroke="#120071" stroke-linecap="round" stroke-linejoin="round" d="M163.70571 69.930735c-0.798 -3.106215 -3.1022250000000002 -6.8079375 -8.416905000000002 -11.415390000000002 -1.187025 4.5281512500000005 -2.104725 9.122736 -2.7481125 13.759515 2.4907575 -0.618849 5.052337500000001 -0.9118147500000001 7.618905000000001 -0.871815" stroke-width="0.5"></path><path stroke="#120071" stroke-linecap="round" stroke-linejoin="round" d="M151.99107000000004 88.87725c1.1561025 1.0613400000000002 2.2742999999999998 1.995 5.6667975 0.5117175" stroke-width="0.5"></path><path stroke="#120071" stroke-linecap="round" stroke-linejoin="round" d="M159.8942625 81.4488675c-0.7770525 1.1371499999999999 -3.525165 2.4069675 -3.525165 2.4069675" stroke-width="0.5"></path><path stroke="#120071" stroke-linecap="round" stroke-linejoin="round" d="M187.94496 54.9512775c-0.17057250000000002 0.9665775 -5.344605 0.798 -11.561025 -0.37905 -6.21642 -1.17705 -11.107162500000001 -2.8997325000000003 -10.93659 -3.86631 0.17057250000000002 -0.9665775 5.344605 -0.798 11.5620225 0.37905 6.2174175 1.17705 11.106165 2.8997325000000003 10.9355925 3.86631Z" stroke-width="0.5"></path><path stroke="#120071" stroke-linecap="round" stroke-linejoin="round" d="M182.5055925 62.9691825c-0.8149575 0.492765 -4.08177 -3.6348900000000004 -7.296712500000001 -9.2498175 -3.2149425000000003 -5.6149275 -5.1560775 -10.5565425 -4.341120000000001 -11.049307500000001 0.8149575 -0.492765 4.075785000000001 3.6388800000000003 7.29771 9.24882 3.221925 5.60994 5.155080000000001 10.55754 4.3401225000000005 11.050305Z" stroke-width="0.5"></path><path stroke="#120071" stroke-linecap="round" stroke-linejoin="round" d="m4.987500000000001 122.3503575 9.837345000000001 8.490720000000001 2.5964925000000005 -17.75949" stroke-width="0.5"></path><path stroke="#120071" stroke-linecap="round" stroke-linejoin="round" d="M71.13471750000001 28.833735c-0.01306725 0.41067075000000003 -0.14763 0.8081745000000001 -0.386631 1.1423370000000002 -0.23900100000000002 0.33416250000000003 -0.571767 0.58982175 -0.95610375 0.73485825 -0.3844365 0.1450365 -0.8031870000000001 0.172767 -1.203384 0.07970025 -0.40009725 -0.09306675 -0.763686 -0.3026415 -1.0446817499999999 -0.60239025 -0.28099575000000004 -0.299649 -0.4668300000000001 -0.67600575 -0.5338620000000001 -1.08129 -0.06713175 -0.40528425 -0.01246875 -0.82144125 0.15690675 -1.1957032500000002 0.16947525 -0.374262 0.44608200000000003 -0.689871 0.7949077500000001 -0.9068272500000001 0.3489255 -0.217056 0.75420975 -0.32568375000000005 1.1648805 -0.31231725 0.27241725 0.008778000000000001 0.5405452500000001 0.07112175000000001 0.7889227500000001 0.18354 0.2483775 0.11231850000000002 0.47211675000000003 0.272517 0.6586492500000001 0.4714185 0.18643275 0.1989015 0.33186825000000003 0.432516 0.42802725 0.6875767500000001 0.09615900000000001 0.25506075 0.14114625 0.52668 0.13236825000000002 0.7990972500000001v0Z" stroke-width="0.5"></path><path stroke="#120071" stroke-linecap="round" stroke-linejoin="round" d="m106.00931250000001 174.60539250000002 8.112667499999999 8.680245000000001" stroke-width="0.5"></path><path stroke="#120071" stroke-linecap="round" stroke-linejoin="round" d="m114.4062675 174.88968 -8.6812425 8.11167" stroke-width="0.5"></path><path stroke="#120071" stroke-linecap="round" stroke-linejoin="round" d="M164.00795250000002 103.27117500000001c-0.9665775 -0.43989750000000005 -1.9231800000000001 -0.851865 -2.8628250000000004 -1.2199425000000002l-0.947625 6.51966" stroke-width="0.5"></path></g></g></svg>