<svg width="228" height="150" viewBox="0 0 228 150" fill="none" xmlns="http://www.w3.org/2000/svg">
<g clip-path="url(#clip0_209_1166)">
<path fill-rule="evenodd" clip-rule="evenodd" d="M203.102 81.9115C200.295 72.0798 190.101 67.0851 181.366 64.1656C177.779 62.9662 166.67 64.4102 165.07 59.589C164.132 56.7721 166.394 36.88 165.771 30.5281C163.43 6.55654 138.398 -0.253024 122.473 4.34718C110.261 7.86637 104.466 23.1188 99.2467 28.1688C95.3047 31.9799 86.6482 29.5339 81.0033 29.5339C69.5242 29.5339 57.6589 30.2914 48.9787 38.9789C46.8027 41.1567 45.3363 44.9205 44.6898 47.8479C43.8305 51.7221 42.5454 55.8726 43.5466 59.8652C45.1865 66.4144 50.3662 70.7226 55.9008 74.7705C54.797 72.3165 55.5539 68.9551 58.1792 67.7558C58.9676 66.4538 60.3473 65.5149 62.3341 65.5149C62.6652 65.5149 62.9727 65.5464 63.2723 65.5938C64.0212 65.0809 64.9515 64.7574 66.0947 64.7574C69.95 64.7574 71.5425 68.2608 70.8803 71.1724C71.6056 73.074 71.2587 75.4175 69.8554 76.8931C69.2246 78.2266 68.0342 79.2681 66.2839 79.5206C65.5744 79.9546 64.6914 80.2229 63.6428 80.2229C63.5088 80.2229 63.3748 80.215 63.2407 80.2071C66.3234 82.7005 69.0433 85.4149 70.7147 88.7605C73.072 93.4711 61.8374 97.2586 59.5589 98.7815C45.3915 108.211 43.9329 120.378 44.9736 127.685C46.8106 140.53 56.6497 151.309 69.5637 153.155C77.7156 154.323 86.0963 150.504 93.586 148.003C99.8459 145.912 109.078 138.439 116.181 141.99C122.552 145.178 128.914 153.021 133.912 158.016C138.454 162.561 149.152 161.788 154.789 161.164C157.667 160.841 161.435 159.697 163.942 158.016C185.592 143.513 163.927 125.531 164.226 122.524C164.723 117.6 175.13 119.841 182.525 117.372C196.716 112.637 207.328 96.6352 203.118 81.8799L203.102 81.9115Z" fill="#E6F2FC"/>
<path fill-rule="evenodd" clip-rule="evenodd" d="M118.429 49.7574C116.316 51.8011 111.664 50.4913 108.637 50.4913C102.479 50.4913 96.1091 50.8937 91.4497 55.557C90.2829 56.7248 89.4945 58.7448 89.1476 60.315C88.6824 62.3981 87.9965 64.6233 88.5326 66.7695C90.3223 73.9341 100.02 76.0962 103.11 82.2824C104.371 84.8074 98.3481 86.8431 97.1261 87.6558C89.526 92.7137 88.7376 99.2471 89.2974 103.169C90.2829 110.065 95.5651 115.849 102.495 116.835C106.871 117.459 111.365 115.415 115.385 114.073C118.744 112.953 123.703 108.945 127.511 110.846C130.932 112.558 134.346 116.764 137.027 119.447C139.463 121.885 145.202 121.475 148.23 121.136C149.775 120.962 151.793 120.346 153.142 119.447C164.762 111.659 153.134 102.009 153.291 100.399C153.559 97.7558 159.141 98.9551 163.115 97.6374C170.731 95.0967 173.135 88.8158 170.873 80.9015C169.367 75.6227 165.961 72.356 161.27 70.7937C159.346 70.1546 151.439 68.9079 150.579 66.3197C150.075 64.8048 150.012 56.9063 149.681 53.4976C148.419 40.636 138.643 35.8622 130.097 38.3319C123.545 40.2256 121.227 47.0431 118.429 49.7574Z" fill="#CAE8F9"/>
<path d="M68.8148 26.7722C69.5401 27.727 70.092 28.6738 70.4625 29.818L73.3717 26.9064C70.6281 25.8569 69.3746 22.7875 66.1027 22.6218C62.8309 22.4561 60.7574 25.5886 60.1976 28.4056C59.9217 29.8022 60.8362 31.5223 62.4761 31.404C64.5338 31.2541 66.5994 31.0962 68.6571 30.9463L66.9857 26.9064C65.5508 28.0268 63.2014 29.2262 62.8072 31.1199C62.413 33.0137 63.6587 34.4813 65.2355 35.294C68.3812 36.9195 72.268 35.7911 73.3244 32.2562C73.7817 30.7333 72.536 29.313 71.046 29.2577C70.0762 29.2183 69.2248 29.3445 68.3102 29.6838C65.4799 30.7412 66.7098 35.3177 69.5717 34.2525C70.0289 33.9921 70.5256 33.9053 71.0538 34L68.7754 31.0016C68.5546 31.7433 67.5612 30.8359 67.5061 31.4434L66.8123 33.1162C67.853 32.0431 69.1617 31.183 70.3364 30.2599C71.9368 29.0052 70.6045 26.0778 68.665 26.2199C66.6073 26.3698 64.5417 26.5276 62.484 26.6775L64.7625 29.6759C64.9044 28.9658 65.1015 27.7901 65.8899 27.5455C66.5679 27.3324 67.3957 28.2714 67.8766 28.6896C69.2011 29.8574 70.4547 30.8516 72.1182 31.4908C73.7817 32.1299 75.5477 30.1967 75.0273 28.5792C74.5307 27.0484 73.8763 25.6833 72.9066 24.3972C71.0854 22.0063 66.9778 24.3577 68.8227 26.788L68.8148 26.7722Z" fill="#835C3C"/>
<path d="M65.5896 36.1304L65.8104 42.9636C65.8419 43.9973 66.6934 44.9836 67.7813 44.9363C68.8693 44.8889 69.7917 44.0683 69.7523 42.9636L69.5316 36.1304C69.5 35.0967 68.6486 34.1104 67.5606 34.1578C66.4726 34.2051 65.5502 35.0257 65.5896 36.1304Z" fill="#835C3C"/>
<path d="M69.5004 42.8375L72.7407 42.9638L71.7473 39.2868C71.3216 39.5077 70.888 39.7128 70.4544 39.9022L70.9274 39.705C70.0207 40.0837 69.0904 40.3914 68.1365 40.6203C67.6634 40.7307 67.1983 41.1095 66.9618 41.5277C66.7252 41.9459 66.607 42.5771 66.7647 43.0506C67.1037 44.0921 68.1128 44.6839 69.1929 44.4314C70.7776 44.0527 72.3071 43.453 73.7498 42.7034L74.1519 42.3956C74.3411 42.2142 74.483 42.009 74.5619 41.7644C74.7275 41.3699 74.7984 40.8964 74.6644 40.4782C74.3884 39.626 73.6631 39.0658 72.7643 39.0264L69.524 38.9001C69.0274 38.8843 68.4755 39.1368 68.1286 39.4761C67.7817 39.8154 67.5294 40.3835 67.5531 40.8728C67.6004 41.9774 68.4203 42.8059 69.524 42.8454L69.5004 42.8375Z" fill="#835C3C"/>
<path d="M65.8025 39.0105C64.7461 38.9237 63.6818 39.0263 62.6411 39.2393C61.9788 39.3734 61.4348 39.9889 61.2614 40.6202C61.1668 40.9673 61.1668 41.3224 61.2614 41.6696C61.356 42.001 61.5216 42.293 61.766 42.5376C62.8145 43.4134 63.9183 44.234 65.0851 44.9442C65.5187 45.2046 66.1179 45.2756 66.6067 45.1414C67.064 45.0152 67.5607 44.6601 67.7814 44.234C68.0258 43.7764 68.1441 43.224 67.9785 42.7112C67.8129 42.1983 67.5212 41.8037 67.0719 41.5355C66.315 41.0699 65.5739 40.5649 64.8722 40.0205L65.2743 40.3282C65.0299 40.1388 64.7855 39.9416 64.549 39.7443L63.6818 43.0426C63.9025 42.9952 64.1233 42.9558 64.3519 42.9321L63.8316 43.0031C64.4859 42.9163 65.1403 42.9005 65.8025 42.9558C66.0706 42.9636 66.3308 42.9084 66.5594 42.7822C66.8038 42.7033 67.0167 42.5691 67.1901 42.3719C67.5291 42.0326 67.7893 41.4644 67.7656 40.9752C67.742 40.486 67.5764 39.9337 67.1901 39.5786L66.788 39.2709C66.4806 39.0894 66.1494 39.0026 65.7947 39.0026L65.8025 39.0105Z" fill="#835C3C"/>
<path d="M40.1404 46.8459C38.2797 47.4535 36.5137 47.8401 34.5506 47.9427C29.8597 48.1794 28.4327 55.2888 33.3996 56.4645C34.2984 56.6776 35.205 56.8906 36.1038 57.1037C36.498 57.1984 40.2113 58.1294 38.2719 57.2299C37.0026 56.6381 38.3665 57.7191 38.8474 58.5161C39.5885 59.7312 39.62 61.1358 40.2665 59.0526L43.2939 56.0227C38.3271 57.4824 33.6046 54.5392 29.1974 52.6928C27.0924 51.8091 24.3331 53.6634 23.86 55.7228C22.228 62.848 29.497 65.9411 35.3627 66.3593V57.6797C34.2589 57.7507 33.234 57.7586 32.1303 57.6797C27.187 57.3562 26.3356 64.939 30.9792 66.2015C36.8843 67.8112 42.001 66.3672 47.4724 64.0947C52.5576 61.9879 50.3264 53.5845 45.1703 55.7228C41.3939 57.293 37.3494 58.9343 33.2892 57.8296L32.1382 66.3514C33.2419 66.4224 34.2668 66.4224 35.3706 66.3514C40.9524 65.9727 40.9445 58.0742 35.3706 57.6718C34.3535 57.6402 33.3759 57.4193 32.4535 56.9932C31.4444 56.2041 31.3734 56.5434 32.2328 58.0269L26.8953 61.0568C30.6244 62.6192 34.5901 64.9627 38.7134 65.0731C41.6462 65.1442 46.4554 65.231 48.1978 62.3982C50.1766 59.1789 47.3384 55.5492 45.6039 52.9375C43.1914 49.2999 39.7462 49.0553 35.7096 48.1005L34.5585 56.6223C37.2785 56.4803 39.8644 56.0621 42.4504 55.2178C47.7326 53.4898 45.4699 45.11 40.1482 46.8459H40.1404Z" fill="#835C3C"/>
<path d="M31.3105 55.6674C30.9084 55.1546 30.5379 54.6259 30.191 54.0814C28.0071 50.8147 21.7236 51.659 22.1099 56.275C22.3386 58.9657 23.0797 60.891 24.9718 62.84C28.5196 66.4854 33.9516 61.8694 31.7835 57.577C31.0976 56.2198 30.1358 55.1624 29.7179 53.6869C29.2134 51.88 29.1188 49.8205 28.8349 47.9662C28.0387 42.7427 20.7933 44.6838 20.3203 49.1183C20.0443 51.6827 20.2887 54.113 20.9352 56.6143C22.2124 61.5459 29.1188 60.1887 29.4499 55.4623C29.915 48.8658 27.944 42.1667 29.0793 35.6254C30.0254 30.1888 21.7867 27.798 20.7145 33.3213C19.9734 37.1562 19.4767 41.0383 19.4373 44.9442C19.4057 48.1793 19.2008 52.1167 21.2033 54.8389C24.483 59.2813 32.0122 54.9573 28.693 50.4597C27.5341 48.8815 28.0702 45.4334 28.1411 43.5396C28.2358 40.8647 28.5669 38.253 29.0715 35.6333L20.7066 33.3292C19.4057 40.77 21.29 48.0215 20.7618 55.4781L29.2764 54.326C28.8192 52.5428 28.7719 50.9647 28.969 49.1419L20.4543 50.294C20.7933 52.4954 20.9273 54.8626 21.5738 56.9931C22.1415 58.871 23.4108 60.2597 24.278 61.9799L31.0897 56.7169L30.7665 56.2908L22.6855 58.4844C23.4581 59.6443 24.2938 60.7411 25.161 61.83C28.63 66.2013 34.7242 60.023 31.2947 55.6911L31.3105 55.6674Z" fill="#835C3C"/>
<path d="M33.8571 51.6511C32.3828 49.1735 32.7218 46.4039 32.4853 43.6343C32.2488 40.8647 31.0977 38.3634 31.0898 35.7438C31.0741 30.1572 22.4017 30.1493 22.4175 35.7438C22.4333 39.3024 23.7578 42.6875 23.9391 46.2698C24.1204 49.8521 24.5619 53.0004 26.3674 56.0304C29.2213 60.8279 36.719 56.4644 33.8571 51.6511Z" fill="#835C3C"/>
<path d="M20.6358 29.8653C20.7777 29.9205 20.9118 29.9757 21.0537 30.031L20.5806 29.8337C21.3848 30.1809 22.1417 30.6228 22.8354 31.1514L22.4334 30.8437C23.1272 31.3802 23.7421 31.9957 24.2782 32.6901L23.9707 32.2877C24.018 32.3508 24.0575 32.406 24.1048 32.4691C24.4201 32.8952 24.7512 33.2266 25.2795 33.3766C25.7525 33.5028 26.3832 33.4476 26.8011 33.1793C27.2189 32.911 27.5895 32.5007 27.7077 32.0036C27.826 31.5065 27.8181 30.8989 27.5106 30.4807C27.1243 29.9521 26.7144 29.4392 26.2571 28.9736C25.7998 28.5081 25.2874 28.0978 24.767 27.7032C23.8288 26.9931 22.7881 26.4802 21.6844 26.062C21.2271 25.8884 20.5728 26.0226 20.1628 26.2593C19.7528 26.496 19.3665 26.9694 19.2561 27.435C19.1379 27.94 19.1694 28.5081 19.4532 28.9578C19.7371 29.4076 20.1234 29.6759 20.6279 29.8653H20.6358Z" fill="#835C3C"/>
<path d="M18.9483 29.5497C20.194 30.1494 21.3766 30.8753 22.4725 31.7196L22.0704 31.4119C22.5119 31.7591 22.9455 32.1221 23.3634 32.5087C23.7418 32.8638 24.2306 33.0847 24.7588 33.0847C25.2397 33.0847 25.8231 32.8717 26.1543 32.5087C26.4854 32.1457 26.7534 31.6407 26.7298 31.1121C26.7061 30.5834 26.5406 30.0705 26.1543 29.7154C24.6011 28.2793 22.8509 27.0563 20.943 26.141C20.4542 25.9122 19.9575 25.7938 19.4214 25.9437C18.9641 26.07 18.4674 26.4251 18.2467 26.8512C18.0023 27.3088 17.884 27.8611 18.0496 28.374C18.1994 28.8396 18.499 29.3367 18.9562 29.5497H18.9483Z" fill="#835C3C"/>
<path d="M20.8009 26.8117C21.7391 27.8138 22.6537 28.8396 23.5209 29.9048C23.7259 30.1573 23.9309 30.4019 24.1358 30.6544C24.2462 30.7965 24.3645 30.9385 24.4749 31.0805C24.5222 31.1437 24.5773 31.2068 24.6246 31.2699C24.6641 31.3172 24.8375 31.5461 24.6562 31.3094C24.4512 31.0411 24.7035 31.3646 24.7271 31.3962C24.7744 31.4593 24.8217 31.5224 24.8769 31.5855C24.9715 31.7118 25.074 31.8459 25.1686 31.9722C25.3894 32.2641 25.6023 32.5561 25.8151 32.8559C26.1226 33.282 26.4695 33.6213 26.9898 33.7633C27.4629 33.8896 28.0936 33.8343 28.5114 33.5661C29.3392 33.0295 29.8596 31.7591 29.221 30.8675C27.4944 28.4688 25.6259 26.1726 23.5997 24.0185C22.8902 23.261 21.5184 23.2531 20.8088 24.0185C20.0677 24.8233 20.052 26.0069 20.8088 26.8117H20.8009Z" fill="#835C3C"/>
<path d="M22.8273 25.4861C23.3476 26.2041 23.7734 26.9695 24.1202 27.7822L23.9231 27.3088C24.2227 28.0268 24.4514 28.7685 24.6012 29.526C24.7667 30.3388 25.2477 31.0016 26.0203 31.3251C26.6746 31.6013 27.4236 31.5302 28.0938 31.3251C30.049 30.757 31.2868 29.1789 32.3905 27.5771C32.6664 27.1747 32.7138 26.5118 32.5876 26.0542C32.4615 25.5965 32.1067 25.0994 31.681 24.8785C30.6718 24.3498 29.6154 24.6812 28.9846 25.5886C28.756 25.9201 28.5195 26.2593 28.2751 26.575L28.5826 26.1725C28.2514 26.5986 27.8888 27.0011 27.463 27.3404L27.8651 27.0326C27.5655 27.2614 27.2502 27.4508 26.9033 27.6007L27.3763 27.4035C27.124 27.5061 26.8717 27.5771 26.6037 27.6165L27.124 27.5455C27.0294 27.5534 26.9506 27.5613 26.856 27.5613L27.3763 27.6323L27.2975 27.6165L27.7705 27.8138L27.6996 27.7822L28.1016 28.09L28.0386 28.0347L28.346 28.4371L28.2987 28.3661L28.4958 28.8396C28.3303 28.4371 28.2987 27.9716 28.1805 27.5534C28.0543 27.1115 27.8967 26.6854 27.7232 26.2593C27.3211 25.2809 26.8481 24.3577 26.2253 23.4976C25.9178 23.0716 25.5709 22.7323 25.0506 22.5902C24.5775 22.464 23.9468 22.5192 23.529 22.7875C22.7011 23.3241 22.1729 24.5944 22.8194 25.4861H22.8273Z" fill="#835C3C"/>
<path d="M29.3001 28.0583L27.3213 30.2992C26.935 30.7332 26.5329 31.1672 26.2254 31.6564C25.7524 32.3981 25.6026 33.2897 25.8154 34.1419C25.9258 34.5917 26.3042 35.1046 26.7221 35.3176C27.203 35.5701 27.7076 35.6411 28.2437 35.5149C28.6537 35.4202 29.0794 35.2466 29.4263 35.002C29.9545 34.639 30.262 34.3076 30.6404 33.7947C30.9242 33.4081 30.9636 32.7216 30.8375 32.2719C30.7114 31.8221 30.3566 31.3171 29.9309 31.0962C29.4736 30.8516 28.9217 30.7332 28.4093 30.8989L27.9362 31.0962C27.6366 31.2698 27.408 31.5065 27.2267 31.8063L27.1872 31.8616L27.4947 31.4591C27.3843 31.5933 27.2661 31.7195 27.1321 31.83L27.5341 31.5223C27.3922 31.6248 27.2503 31.7195 27.0926 31.7905L27.5657 31.5933C27.4474 31.6406 27.3213 31.6801 27.1951 31.7116L29.6234 33.0925C29.6076 33.053 29.5997 33.0057 29.5997 32.9662L29.6707 33.487C29.6628 33.4002 29.6707 33.3213 29.6707 33.2345L29.5997 33.7553C29.6155 33.6448 29.647 33.5422 29.6943 33.4397L29.4972 33.9131C29.584 33.7237 29.6943 33.5501 29.8205 33.3844L29.513 33.7869C29.9151 33.2897 30.3566 32.8163 30.7823 32.3429L32.1068 30.8516C32.4537 30.457 32.6823 29.9915 32.6823 29.4549C32.6823 28.9736 32.4695 28.3897 32.1068 28.0583C31.7442 27.7269 31.2396 27.4586 30.7114 27.4823C30.1831 27.506 29.6628 27.6717 29.3159 28.0583H29.3001Z" fill="#835C3C"/>
<path d="M93.3019 53.8526C95.8406 53.8526 95.8406 49.9073 93.3019 49.9073C90.7633 49.9073 90.7633 53.8526 93.3019 53.8526Z" fill="#835C3C"/>
<path d="M90.9841 57.0562L99.4909 60.7096L101.478 53.3556C97.5987 53.6712 93.7199 53.9868 89.8409 54.2945C87.1762 54.5076 84.5193 57.6007 86.4351 60.2282C89.7385 64.7495 95.3597 64.8363 100.547 65.1441L98.5606 57.7901C96.361 58.8395 93.9643 59.2656 91.5439 58.9184C89.1235 58.5712 86.5533 59.9047 86.5533 62.7217C86.5533 67.4876 92.4348 68.4187 96.1087 69.1051L97.1572 61.3566C95.5726 61.2304 93.9879 61.1514 92.3954 61.1041C88.5716 60.9936 86.916 66.6512 90.4086 68.4581C96.4713 71.5907 103.882 71.5828 109.614 67.6296C112.728 65.4834 114.392 62.9426 114.833 59.1709C115.401 54.2945 116.536 49.718 118.665 45.2756C120.793 40.8332 114.273 36.7617 111.861 41.2909C109.046 46.5697 110.45 57.0168 102.305 57.4429L105.096 58.5949C103.843 57.4113 114.557 46.1515 116.087 44.5813L109.898 39.7996C106.066 45.0862 103.133 50.7754 100.871 56.8905C99.1125 61.6564 106.728 63.7159 108.471 58.9894C110.489 53.5213 113.28 48.495 116.702 43.7843C119.366 40.1152 113.58 35.8543 110.513 39.0026C106.271 43.3503 102.353 48.0926 98.7735 53.0005C96.9365 55.5176 95.9747 57.719 97.1967 60.7411C98.0324 62.8164 99.483 64.8127 101.785 65.2545C105.845 66.0357 111.561 62.5639 113.926 59.5102C117.222 55.2572 116.26 49.7969 118.68 45.2677L111.877 41.283C109.275 46.7117 108.313 51.9274 107.115 57.7427C105.916 63.5581 98.6867 63.85 94.4058 61.6328L92.419 68.9868C94.0116 69.0341 95.5962 69.113 97.1809 69.2393C101.572 69.5786 102.605 62.3035 98.2295 61.4907C96.4713 61.1672 93.98 60.9147 92.5057 59.7785L94.4609 63.1872V62.7217C92.7974 63.9921 91.1339 65.2545 89.4704 66.5249C94.185 67.2035 98.2452 66.6591 102.566 64.6075C106.358 62.8006 104.15 57.4666 100.579 57.2535C99.3253 57.1746 94.051 57.3087 93.2783 56.2435L89.8725 62.1772C93.7514 61.8616 97.6303 61.546 101.509 61.2382C104.939 60.9621 107.454 55.5886 103.496 53.8842L94.9892 50.2309C90.3771 48.2504 86.3562 55.0441 91.0078 57.0405L90.9841 57.0562Z" fill="#835C3C"/>
<path d="M114.47 32.0511C114.1 33.0295 114.084 34.939 114.762 35.8465C114.927 36.0674 114.77 35.8543 114.825 35.6492C114.896 35.3415 114.675 36.1305 114.659 36.2015C114.47 36.888 114.32 37.6061 114.375 38.3241C114.557 40.5729 116.961 42.4351 119.122 41.0463C120.115 40.4072 121.069 39.9338 121.983 39.626C123.6 39.0816 124.656 37.4561 124.183 35.7439C123.749 34.1658 121.92 32.9901 120.304 33.5424C118.775 34.0632 117.3 34.726 115.937 35.6018L120.683 38.3241C120.667 38.1189 120.706 37.8743 120.643 38.1978C120.683 37.9848 120.777 37.7718 120.832 37.5587C121.006 36.9275 121.132 36.2489 121.093 35.6018C121.053 35.0101 120.935 34.434 120.746 33.8817C120.683 33.7002 120.635 33.4714 120.549 33.3057C120.383 32.998 120.612 33.6055 120.556 33.7397C121.164 32.1458 119.886 30.2757 118.357 29.8575C116.583 29.3683 115.085 30.4651 114.478 32.059L114.47 32.0511Z" fill="#835C3C"/>
<path d="M121.045 37.9373C125.105 37.9373 125.113 31.6249 121.045 31.6249C116.977 31.6249 116.977 37.9373 121.045 37.9373Z" fill="#835C3C"/>
<path d="M120.635 36.7064C124.695 36.7064 124.703 30.3939 120.635 30.3939C116.567 30.3939 116.567 36.7064 120.635 36.7064Z" fill="#835C3C"/>
<path d="M133.187 46.2225L133.321 47.2009L137.098 50.9805C137.783 49.9941 138.138 49.3471 139.179 49.4576C140.022 49.5444 141.284 50.9095 141.804 51.446L143.752 46.7353C139.762 46.9089 131.744 46.6643 132.667 52.8742C133.589 59.0841 140.645 57.3718 143.941 54.5865L139.605 51.2409C138.919 52.7006 138.17 54.1998 137.768 55.77C137.437 57.0483 137.72 58.4449 137.437 59.668C137.263 60.4176 134.236 62.7926 133.045 64.3944L138.091 65.0572L137.894 64.3076L135.237 67.8032C138.659 67.4165 141.946 66.7537 145.226 65.6885C148.506 64.6233 147.15 59.2577 143.759 60.3624C140.969 61.2777 138.162 61.9484 135.237 62.2798C133.471 62.4849 132.083 63.8815 132.58 65.7753L132.777 66.5249C133.424 69.0262 136.483 68.9867 137.823 67.1877C139.258 65.2545 141.938 64.4339 142.742 62.0746C143.018 61.2619 142.924 60.5202 142.963 59.6759C143.074 57.4192 143.413 56.1014 144.382 54.042C145.73 51.1777 142.49 48.6291 140.046 50.6964C139.273 50.9173 138.84 51.375 138.753 52.0773C138.343 52.8663 138.722 53.0083 139.888 52.5033C141.087 52.6691 142.561 52.3298 143.767 52.2824C146.125 52.1798 147.449 49.3235 145.715 47.5717C143.799 45.6307 140.779 43.4687 137.854 43.7685C135.332 44.0289 133.692 46.3014 132.344 48.2267C130.593 50.7201 133.881 53.0399 136.12 52.0062C139.076 50.6412 139.218 47.6033 138.525 44.7864C137.673 41.3382 132.351 42.798 133.203 46.254L133.187 46.2225Z" fill="#DA9361"/>
<path d="M143.365 64.1419C146.913 64.1419 146.921 58.6185 143.365 58.6185C139.809 58.6185 139.809 64.1419 143.365 64.1419Z" fill="#DA9361"/>
<path d="M152.66 85.4149C152.944 85.5885 153.157 86.8195 153.267 87.4507C153.527 88.9815 153.74 90.5201 153.969 92.0509C154.292 94.1577 156.941 95.3255 158.818 94.8047C161.072 94.1892 161.892 92.0667 161.569 89.952C160.923 85.7069 160.71 81.0436 156.634 78.5975C152.274 75.9778 148.308 82.7953 152.652 85.407L152.66 85.4149Z" fill="#DA9361"/>
<path d="M155.577 80.9883C155.617 81.7616 155.625 82.5348 155.593 83.3081C155.577 83.6948 155.538 84.0814 155.514 84.468C155.459 85.3281 155.601 84.0262 155.451 84.9572C155.128 86.9851 155.972 89.2971 158.203 89.8099C160.095 90.2439 162.712 89.2339 163.051 87.0561C163.367 85.0361 163.564 83.0398 163.461 80.9962C163.359 78.9525 161.719 76.9483 159.519 77.0509C157.47 77.1456 155.467 78.7868 155.577 80.9962V80.9883Z" fill="#DA9361"/>
<path d="M156.633 78.3291L156.728 82.6532C156.751 83.8841 156.436 85.8094 156.822 86.9772C156.672 88.2081 156.862 88.216 157.382 87.0088C156.877 87.3717 156.397 87.7662 155.947 88.1923C155.096 89.0287 154.386 89.9993 153.716 90.9856C150.846 95.1913 157.674 99.1366 160.52 94.9703C162.231 92.4611 164.501 91.7983 164.698 88.3659C164.895 84.9335 164.596 81.6511 164.517 78.337C164.407 73.2634 156.523 73.2476 156.633 78.337V78.3291Z" fill="#DA9361"/>
<path d="M162.72 89.1708C162.626 89.2655 162.531 89.3602 162.429 89.447C162.397 89.4707 162.113 89.7074 162.279 89.5812C162.444 89.4549 162.145 89.6758 162.113 89.6995C162.003 89.7784 161.892 89.8494 161.774 89.9283C161.38 90.1887 160.97 90.4333 160.584 90.7095C159.772 91.2776 159.031 91.9326 158.408 92.7137C157.091 94.3707 156.326 96.2724 156.098 98.3713C156.011 99.1919 156.886 99.9809 157.675 99.9494C158.605 99.9099 159.157 99.255 159.251 98.3713C159.299 97.9688 159.204 98.5922 159.251 98.3555C159.267 98.2529 159.283 98.1503 159.307 98.0477C159.346 97.8426 159.393 97.6453 159.448 97.4402C159.504 97.235 159.567 97.0456 159.63 96.8484C159.661 96.7537 159.701 96.6511 159.74 96.5564C159.803 96.3986 159.835 96.3434 159.74 96.5327C159.914 96.154 160.103 95.791 160.324 95.436C160.434 95.2624 160.552 95.0888 160.67 94.9231C160.836 94.6785 160.568 95.0414 160.686 94.8994C160.749 94.8205 160.82 94.7416 160.883 94.6627C161.151 94.3471 161.443 94.0551 161.758 93.7789C161.822 93.7237 161.885 93.6685 161.948 93.6211C162.263 93.3528 161.687 93.8026 162.019 93.5659C162.184 93.4475 162.35 93.3292 162.523 93.2187C163.367 92.6664 164.25 92.1456 164.967 91.4197C165.551 90.8358 165.598 89.7626 164.967 89.1866C164.336 88.6106 163.359 88.5633 162.736 89.1866L162.72 89.1708Z" fill="#DA9361"/>
<path d="M157.658 98.3712C159.685 98.3712 159.692 95.215 157.658 95.215C155.624 95.215 155.624 98.3712 157.658 98.3712Z" fill="#DA9361"/>
<path d="M157.343 98.3712C159.369 98.3712 159.377 95.215 157.343 95.215C155.309 95.215 155.309 98.3712 157.343 98.3712Z" fill="#DA9361"/>
<path d="M119.106 82.3771C118.594 87.0878 118.278 91.8063 118.152 96.5407C118.073 99.326 121.928 100.241 123.292 97.9373L123.608 97.4086C125.421 94.3471 120.651 91.5617 118.846 94.6232L118.53 95.1519L123.671 96.5485C123.797 91.8142 124.12 87.0956 124.625 82.385C125.003 78.8579 119.484 78.8816 119.106 82.385V82.3771Z" fill="#DA9361"/>
<path d="M118.672 86.5038C118.049 88.5554 117.663 90.6543 117.545 92.7926C117.49 93.8105 117.498 94.8284 117.576 95.8384C117.647 96.6905 118.057 97.8505 117.915 98.6869C117.647 100.281 118.625 102.364 120.572 102.182C122.378 102.009 124.144 102.025 125.949 102.214C127.345 102.364 128.835 100.825 128.709 99.4522C128.519 97.3455 127.833 95.3413 127.621 93.2424C127.408 91.1435 127.739 89.2182 128.007 87.2534C128.204 85.7621 126.596 84.5075 125.247 84.4917C123.592 84.4759 122.685 85.7779 122.488 87.2534C122.22 89.234 121.952 91.2382 122.102 93.2424C122.267 95.3491 123.001 97.3533 123.19 99.4522L125.949 96.6905C124.144 96.4933 122.386 96.4854 120.572 96.659L123.229 100.154C123.552 98.245 123.072 96.4617 123.024 94.5364C122.977 92.2718 123.332 90.1335 123.986 87.9715C125.019 84.5627 119.689 83.103 118.664 86.5038H118.672Z" fill="#DA9361"/>
<path d="M172.063 72.2929C172.299 76.0646 168.996 81.4223 172.97 84.3891C174.933 85.8568 177.377 84.8784 179.158 83.6001C180.94 82.3218 181.886 80.6964 183.108 78.9447L181.839 80.215L182.257 79.8915C183.692 78.7947 184.717 76.7669 183.526 75.0309C183.1 74.4155 182.683 73.8 182.257 73.1845C179.695 69.4365 173.537 72.9873 176.131 76.7669C176.557 77.3823 176.975 77.9978 177.4 78.6133L178.67 73.7527C177.519 74.6285 176.927 75.5991 176.123 76.7511C175.879 77.1062 175.54 77.3429 175.272 77.6664C175.035 77.9504 174.105 78.0925 175.106 78.0372L178.173 79.7968C177.881 79.4181 178.338 77.8321 178.512 77.1377C178.906 75.5438 179.253 73.9341 179.151 72.285C178.867 67.7479 171.771 67.7164 172.055 72.285L172.063 72.2929Z" fill="#EDAF7B"/>
<path d="M173.3 84.2313C173.316 87.3087 173.206 90.386 172.961 93.4554C172.685 96.9983 178.204 96.9825 178.48 93.4554C178.716 90.386 178.835 87.3087 178.819 84.2313C178.803 80.6806 173.284 80.6727 173.3 84.2313Z" fill="#EDAF7B"/>
<path d="M175.555 85.9909C175.516 87.4506 175.453 88.9104 175.429 90.3701C175.406 92.0114 176.06 93.8341 177.881 94.1813C179.34 94.4574 180.861 93.771 181.279 92.256C181.65 90.9067 180.822 89.1392 179.356 88.8551L179.151 88.8157L180.365 89.5258L180.231 89.3522L180.94 90.5674C180.94 90.8751 180.94 90.883 180.94 90.5832L180.956 89.9282L180.995 88.6184L181.074 85.9909C181.177 82.4322 175.658 82.4401 175.555 85.9909Z" fill="#EDAF7B"/>
<path d="M181.98 90.6464C179.883 91.4197 177.731 92.0115 175.531 92.3981C174.53 92.5717 173.529 92.6979 172.52 92.7768C172.212 92.8005 171.905 92.8242 171.597 92.84C171.495 92.84 171.006 92.7926 170.927 92.8636C171.227 92.9268 171.447 93.0767 171.605 93.3055C171.637 93.4712 171.652 93.4239 171.644 93.1714C171.692 92.8794 171.708 92.5638 171.7 92.2718L170.541 93.7947C171.203 93.6606 171.849 93.6132 172.527 93.6211C174.554 93.6448 174.562 90.4886 172.527 90.4649C171.581 90.457 170.635 90.5596 169.705 90.7569C169.051 90.891 168.53 91.6248 168.546 92.2797C168.562 92.982 168.396 93.6211 168.609 94.3155C168.854 95.1046 169.484 95.7674 170.304 95.9567C171.014 96.1224 171.81 96.0041 172.527 95.941C173.245 95.8778 173.907 95.8068 174.593 95.72C177.408 95.3413 180.159 94.6785 182.832 93.7C183.628 93.4081 184.172 92.6269 183.936 91.759C183.723 90.9857 182.8 90.3623 181.996 90.6543L181.98 90.6464Z" fill="#EDAF7B"/>
<path d="M192.285 121.57C196.148 130.099 201.344 137.832 207.698 144.697C210.118 147.309 214.013 143.395 211.601 140.791C205.546 134.258 200.721 126.888 197.047 118.784C195.58 115.549 190.826 118.358 192.285 121.57Z" fill="#EDAF7B"/>
<path d="M212.113 145.525C214.139 145.525 214.147 142.369 212.113 142.369C210.079 142.369 210.079 145.525 212.113 145.525Z" fill="#EDAF7B"/>
<path d="M208.597 137.122C206.736 129.523 204.868 121.932 203.007 114.334C202.581 112.59 199.924 112.985 199.909 114.752C199.869 120.354 200.886 125.933 202.936 131.141C203.251 131.93 203.992 132.482 204.875 132.245C205.648 132.032 206.271 131.109 205.979 130.304C204.237 125.467 202.495 120.631 200.744 115.802C200.271 114.492 197.985 114.121 197.701 115.802C197.614 116.307 197.528 116.819 197.449 117.324L198.97 116.164C198.348 116.196 197.733 116.228 197.11 116.259C195.959 116.322 195.091 117.569 195.746 118.634C197.606 121.664 199.026 124.891 199.987 128.316C200.539 130.265 203.583 129.436 203.031 127.48C201.998 123.81 200.46 120.291 198.466 117.048L197.102 119.423C197.725 119.392 198.34 119.36 198.963 119.329C199.585 119.297 200.366 118.863 200.484 118.169C200.571 117.664 200.658 117.151 200.736 116.646H197.693C199.436 121.483 201.178 126.32 202.928 131.149L205.971 130.312C204.016 125.341 203.023 120.102 203.054 114.76L199.956 115.178C201.817 122.777 203.685 130.367 205.546 137.966C206.027 139.939 209.07 139.102 208.589 137.13L208.597 137.122Z" fill="#EDAF7B"/>
<path d="M127.786 100.494C127.833 101.906 127.825 103.311 127.77 104.723C127.699 106.625 129.867 108.495 131.76 107.769C132.974 107.296 133.975 106.625 134.629 105.465C135.433 104.029 135.023 101.954 133.494 101.149C131.965 100.344 130.041 100.746 129.181 102.285C128.976 102.601 129.055 102.561 129.402 102.151C129.56 101.898 129.789 101.741 130.08 101.693L134.07 104.739C134.125 103.327 134.133 101.922 134.085 100.51C134.03 98.8605 132.674 97.2745 130.932 97.3534C129.189 97.4323 127.723 98.7422 127.778 100.51L127.786 100.494Z" fill="white"/>
<path d="M133.723 104.581C139.896 104.447 146.385 104.912 152.069 102.127L147.756 97.811C146.66 100.202 145.738 102.608 145.052 105.157C144.098 108.692 148.892 110.546 150.815 107.587C151.375 106.735 151.927 105.875 152.487 105.023L146.613 103.429C145.856 109.813 137.231 109.671 133.076 111.927C128.575 114.381 125.137 118.973 123.032 123.534C121.337 127.195 126.777 130.407 128.48 126.722C130.01 123.416 132.146 120.023 135.268 117.987C137.578 116.48 140.527 116.559 143.034 115.391C148.056 113.04 152.25 109.11 152.928 103.429C153.322 100.083 148.592 99.4759 147.055 101.835C146.495 102.687 145.943 103.547 145.383 104.4L151.146 106.83C151.69 104.81 152.345 102.893 153.22 100.991C154.544 98.1108 151.848 95.2308 148.907 96.6747C144.469 98.8525 138.548 98.1661 133.747 98.2686C129.694 98.3554 129.678 104.668 133.747 104.581H133.723Z" fill="white"/>
<path d="M123.923 121.278C118.783 125.026 117.584 131.48 115.779 137.232C114.557 141.114 120.643 142.779 121.857 138.913C122.985 135.323 123.821 129.121 127.1 126.73C130.38 124.339 127.203 118.879 123.915 121.278H123.923Z" fill="white"/>
<path d="M143.483 101.18C140.669 102.135 137.633 102.569 135.039 104.1C132.674 105.496 130.822 107.572 129.087 109.663C125.91 113.497 120.817 116.961 119.831 122.09C119.232 125.183 122.685 127.345 125.106 125.16C131.46 119.423 138.477 114.681 146.124 110.846C149.751 109.023 146.566 103.579 142.939 105.394C134.819 109.465 127.384 114.61 120.643 120.701L125.918 123.771C126.619 120.149 131.239 116.93 133.557 114.129C134.795 112.637 136.041 111.075 137.649 109.962C139.857 108.432 142.671 108.116 145.17 107.272C148.994 105.978 147.354 99.8782 143.491 101.188L143.483 101.18Z" fill="white"/>
<path d="M126.533 104.171C119.327 107.422 112.105 107.722 106.752 114.271C104.166 117.443 104.024 120.417 103.338 124.292C102.526 128.892 101.375 133.145 101.312 137.864C101.257 141.927 107.564 141.927 107.619 137.864C107.674 133.8 108.668 129.997 109.424 125.965C110.087 122.437 110.087 119.652 112.822 116.922C117.285 112.472 124.167 112.117 129.718 109.615C133.415 107.95 130.207 102.506 126.533 104.163V104.171Z" fill="white"/>
<path d="M111.245 112.393C109.022 114.452 107.091 116.819 105.467 119.376C104.552 120.812 105.167 122.856 106.602 123.692C108.123 124.584 110 124 110.914 122.556C112.262 120.433 113.863 118.563 115.708 116.851C118.696 114.089 114.226 109.631 111.245 112.385V112.393Z" fill="white"/>
<path d="M127.006 101.543C122.89 103.129 118.318 102.679 114.336 104.628C110.899 106.309 108.226 109.15 105.711 111.959C103.007 114.973 107.454 119.455 110.173 116.425C112.357 113.987 114.691 111.17 117.837 109.962C121.282 108.629 125.169 108.992 128.693 107.635C132.438 106.191 130.814 100.084 127.014 101.551L127.006 101.543Z" fill="white"/>
<path d="M163.973 93.9683C162.712 97.2587 159.125 99.2234 157.24 102.143C154.954 105.686 156.089 108.582 157.572 112.235C159.054 115.888 165.18 114.326 163.65 110.554C163.272 109.615 161.931 107.398 162.05 106.404C162.192 105.189 164.131 103.674 164.951 102.837C167.127 100.644 168.94 98.5527 170.06 95.6411C171.518 91.8457 165.424 90.2045 163.981 93.9604L163.973 93.9683Z" fill="white"/>
<path d="M164.817 92.8163C159.432 95.9252 157.855 104.234 157.911 109.955C157.95 114.01 164.257 114.026 164.218 109.955C164.186 106.719 164.825 100.099 167.994 98.2687C171.51 96.2408 168.333 90.7805 164.809 92.8163H164.817Z" fill="white"/>
<path d="M167.994 105.607C174.357 106.025 192.111 106.341 191.205 96.3118L184.716 101.259C188.169 101.954 188.445 105.489 190.44 107.982C192.127 110.081 195.967 109.86 197.685 107.982C199.404 106.104 199.909 104.329 199.309 101.804L189.943 105.757C190.921 102.451 190.566 101.551 188.871 103.066C188.327 103.429 187.799 103.816 187.286 104.218C186.057 105.141 184.906 106.12 183.794 107.169L192.545 110.799C192.845 107.501 192.853 104.463 192.064 101.228C190.913 96.4933 185.181 96.7616 182.698 100.005C180.215 103.248 178.488 107.138 177.731 111.241C176.643 117.127 183.605 119.857 187.097 115.194C188.217 113.703 189.163 112.188 190.014 110.531L180.648 106.577C179.418 110.034 178.819 113.568 178.669 117.23C178.401 123.834 188.603 123.81 188.918 117.23C189.1 113.395 188.871 110.278 185.607 107.919C183.25 106.214 180.041 107.658 178.598 109.757C176.769 112.416 175.2 115.162 173.829 118.082L183.376 120.67C183.258 116.33 183.14 111.99 183.021 107.643C182.887 102.664 176.044 100.517 173.474 105.055C171.558 108.424 170.62 112.022 169.894 115.794L179.962 117.159C179.742 113.963 179.308 110.799 178.646 107.666C177.826 103.8 172.693 102.829 170.084 105.402C166.055 109.371 164.872 116.89 163.895 122.209L173.963 123.574C173.9 118.847 173.758 114.137 173.222 109.434C172.622 104.179 164.431 101.898 163.154 108.069C162.365 111.896 161.577 115.73 160.781 119.557L170.848 120.922L170.407 109.497C170.194 103.903 161.727 102.301 160.339 108.132C159.385 112.14 158.754 116.196 158.352 120.299H168.602L168.956 114.997C169.343 109.221 160.213 108.029 158.889 113.632C157.864 117.995 156.358 123.266 156.705 127.771C157.091 132.814 161.545 133.808 165.692 132.743L159.204 127.795C159.283 130.273 158.557 132.419 156.452 133.879C152.613 136.546 153.559 143.774 159.038 143.434C159.109 143.434 163.083 143.079 161.333 142.811C161.971 143.45 162.728 143.884 163.595 144.129C164.218 144.231 164.833 144.318 165.456 144.397C168.27 144.61 171.29 144.081 174.097 143.75C180.569 142.992 180.648 132.727 174.097 133.492C172.772 133.65 171.448 133.792 170.123 133.918C169.24 133.997 168.357 134.076 167.466 134.139C168.097 135.023 168.065 135.149 167.38 134.51C166.181 134.163 165.164 133.397 163.816 133.208C162.231 132.979 160.631 133.074 159.038 133.177L161.624 142.732C166.678 139.229 169.65 134.037 169.453 127.787C169.35 124.426 166.268 121.996 162.965 122.84C162.681 122.895 162.405 122.974 162.129 123.061L166.552 125.602C167.348 126.738 166.583 127.779 167.064 125.807C167.332 124.718 167.348 123.518 167.529 122.406C167.868 120.37 168.294 118.358 168.767 116.346L158.699 114.981L158.345 120.283C157.903 126.935 167.955 126.754 168.594 120.283C168.909 117.088 169.477 113.971 170.218 110.846L160.15 109.481L160.591 120.907C160.804 126.438 169.437 128.174 170.659 122.272C171.448 118.445 172.236 114.61 173.032 110.783L162.965 109.418C163.501 114.121 163.643 118.824 163.706 123.558C163.777 129.129 172.693 130.794 173.773 124.923C174.207 122.58 174.712 120.26 175.382 117.971C175.831 116.425 176.178 113.774 177.329 112.645L168.767 110.381C169.24 112.637 169.563 114.847 169.721 117.151C170.099 122.556 178.63 124.544 179.789 118.516C180.341 115.628 180.869 112.803 182.335 110.223L172.788 107.635C172.906 111.975 173.024 116.314 173.143 120.662C173.269 125.396 180.412 128.103 182.69 123.25C184.062 120.331 185.631 117.585 187.46 114.926L180.451 116.764L180.987 117.151L178.63 114.089C178.89 115.06 178.732 116.251 178.685 117.222H188.934C189.045 114.436 189.62 111.919 190.55 109.292C192.49 103.832 183.833 100.186 181.184 105.339C180.333 106.996 179.387 108.511 178.267 110.002L187.633 113.955C188.256 110.594 189.486 107.879 191.567 105.165L182.201 103.942C182.753 106.214 182.525 108.471 182.312 110.783C181.886 115.454 188.075 117.222 191.063 114.413C195.218 110.499 202.723 107.627 198.821 100.565C195.943 95.3649 188.138 98.9552 189.455 104.518L189.612 105.197L190.929 100.21L190.464 100.723H197.709C196.29 98.9551 196.077 96.6511 194.28 94.9152C192.395 93.0925 190.022 91.8773 187.46 91.3565C184.488 90.7569 180.648 92.7532 180.971 96.3039C183.108 94.2682 183.415 93.5422 181.886 94.1261C181.184 94.3234 180.475 94.5049 179.757 94.6548C178.535 94.9231 177.305 95.1361 176.06 95.2703C173.387 95.5622 170.699 95.5228 168.018 95.3492C161.435 94.9152 161.459 105.173 168.018 105.607H167.994Z" fill="white"/>
<path d="M156.839 139.868C153.827 140.31 150.808 140.152 147.788 139.907C144.768 139.663 144.083 138.803 141.773 136.909L140.558 141.525C142.23 141.201 145.344 142.992 146.889 143.537C150.24 144.728 151.691 139.394 148.356 138.211C145.312 137.13 142.356 135.56 139.092 136.199C137.145 136.577 136.317 139.529 137.878 140.815C140.495 142.969 141.828 144.792 145.399 145.218C149.72 145.73 154.008 145.825 158.313 145.202C161.814 144.689 160.323 139.371 156.847 139.876L156.839 139.868Z" fill="white"/>
<path d="M171.219 95.6805C174.767 95.6805 174.775 90.1571 171.219 90.1571C167.663 90.1571 167.663 95.6805 171.219 95.6805Z" fill="#EDAF7B"/>
<path d="M171.708 96.0435C174.231 95.8778 176.746 95.578 179.237 95.1598C180.711 94.9152 181.531 93.0925 181.161 91.759C180.735 90.1966 179.245 89.5812 177.763 89.8337C175.752 90.173 173.734 90.386 171.7 90.5201C170.21 90.6148 168.94 91.7195 168.94 93.2818C168.94 94.7021 170.202 96.1382 171.7 96.0435H171.708Z" fill="#EDAF7B"/>
<path d="M174.089 80.3807C177.636 80.3807 177.644 74.8573 174.089 74.8573C170.533 74.8573 170.533 80.3807 174.089 80.3807Z" fill="#EDAF7B"/>
<path d="M173.489 80.1834C177.037 80.1834 177.045 74.66 173.489 74.66C169.934 74.66 169.934 80.1834 173.489 80.1834Z" fill="#EDAF7B"/>
<path d="M67.9945 30.2202C67.8526 28.0582 67.8132 28.6894 67.7265 27.7346C67.7107 27.6242 67.6476 26.5984 68.034 26.4879C68.4203 26.3617 68.8223 27.1034 68.9721 27.4506C69.2638 28.4764 69.3506 29.5495 69.2481 30.6068C69.2402 30.8751 69.0589 31.1118 68.7908 31.1828C68.641 31.1986 68.4912 31.2144 68.3414 31.2144C67.7344 31.2381 67.3165 31.3406 67.2061 30.9461C67.0721 30.4727 67.6949 30.3938 67.9866 30.2202H67.9945Z" fill="#191919"/>
<path d="M66.0554 27.0797C66.8596 27.1428 66.7413 28.7525 65.9293 28.6815C65.1172 28.6105 65.2355 27.0166 66.0554 27.0797Z" fill="#191919"/>
<path d="M70.8095 27.4663C71.6137 27.5294 71.4954 29.1391 70.6833 29.0681C70.297 28.9813 70.0526 28.6025 70.1315 28.2159C70.163 27.774 70.4626 27.4426 70.8095 27.4663Z" fill="#191919"/>
<path d="M69.2482 32.5084C69.4217 32.5952 69.5084 32.7924 69.4532 32.9818C69.4138 33.3132 69.3034 33.6288 69.13 33.9129C68.7831 34.4574 68.2154 34.8282 67.5768 34.9229C66.4888 35.0491 65.4955 34.2759 65.3614 33.1791C65.3457 33.0371 65.3457 32.895 65.3614 32.753C65.4718 31.9639 65.7241 31.0092 66.481 31.238C66.8515 31.3643 67.2299 31.4984 67.5926 31.6562C67.8291 31.7667 69.2167 32.4689 69.2561 32.5084H69.2482ZM66.7332 32.6741C66.6544 32.9345 66.7332 33.2185 66.9146 33.4158C67.3245 33.8577 67.8922 33.4474 68.381 33.0923C67.5453 32.8871 67.1432 32.8003 66.7332 32.6741Z" fill="#191919"/>
<path d="M21.2585 31.4668C20.6356 31.0013 19.5161 30.2438 18.6331 29.7309C18.4439 29.6283 18.3651 29.3916 18.4676 29.1943C18.5701 29.005 18.8066 28.9261 19.0037 29.0286C20.0759 29.5731 21.1245 30.1728 22.1336 30.8356C22.6145 31.1591 22.244 31.0328 21.2348 37.0928C20.4622 41.2196 20.0917 45.4095 20.1153 49.6072C20.3124 53.7419 21.7157 57.7266 24.1519 61.0643C26.0204 63.2658 28.4644 64.907 31.2001 65.8145C36.7031 67.7319 41.3704 66.7771 46.5029 63.8024C46.6921 63.6919 46.9365 63.755 47.0548 63.9365C47.1651 64.1259 47.1021 64.3784 46.9207 64.4967C41.67 67.7792 36.6952 68.9786 30.7981 67.0296C27.81 66.0748 25.1531 64.3074 23.1191 61.9165C20.4859 58.3579 18.9721 54.0891 18.7672 49.6625C18.7356 43.5078 19.5713 37.3847 21.2585 31.4668Z" fill="#191919"/>
<path d="M19.9897 26.9692C20.4391 27.5373 22.3549 29.1707 22.8437 28.5947C23.0881 28.3027 22.7964 27.9161 22.3391 27.3401C21.8819 26.8587 21.3773 26.4169 20.8491 26.0144C20.7387 25.9434 19.9739 25.612 19.7374 25.8566C19.4773 26.1328 19.8951 26.8587 19.9897 26.9692Z" fill="#191919"/>
<path d="M22.3232 24.7836C22.607 25.3991 24.1444 27.0719 24.6726 26.5906C25.051 26.2671 24.4597 25.4149 24.1838 25.0046C23.9157 24.6574 23.6319 24.326 23.3323 24.0104C23.2219 23.9157 22.5676 23.5133 22.3153 23.7026C22.0078 23.9236 22.2601 24.6811 22.3153 24.7836H22.3232Z" fill="#191919"/>
<path d="M24.767 23.1582C24.9799 23.5369 25.2164 23.892 25.4923 24.2313C26.0284 24.973 26.5015 25.7541 26.9193 26.5748C27.077 26.843 27.2426 27.0877 27.3924 27.3638C27.6841 27.8688 27.8417 28.2791 28.2202 28.1371C28.6144 28.0109 28.4961 27.6005 28.3463 26.9851C27.7077 24.2944 25.2637 21.509 24.5699 22.1639C24.3097 22.4243 24.5305 22.6453 24.767 23.1503V23.1582Z" fill="#191919"/>
<path d="M32.0048 27.3165C31.6816 28.0424 31.2795 28.7289 30.7986 29.368C29.9077 30.0071 27.9209 29.8099 26.8093 30.7568C25.6819 31.9246 25.7213 33.7867 26.8881 34.9072C27.0064 35.0177 27.1246 35.1202 27.2587 35.207C27.4242 35.357 27.6765 35.3491 27.8263 35.1913C27.9761 35.0255 27.9682 34.7731 27.8105 34.6231C27.8105 34.6231 27.8027 34.6152 27.7948 34.6074C27.3769 34.1339 27.1641 33.5185 27.2035 32.8872C27.235 30.2991 31.3504 32.2323 32.3832 29.2654C32.5646 28.721 32.6907 28.1686 32.7459 27.6005C32.8247 27.3954 32.7222 27.1665 32.5173 27.0876C32.3123 27.0087 32.0836 27.1113 32.0048 27.3165Z" fill="#191919"/>
<path d="M39.8178 47.2401C39.6601 46.814 38.58 47.0112 38.304 47.0665C36.6799 47.4768 35.0953 48.0133 33.55 48.6683C32.9508 44.4468 33.2583 47.8397 31.2243 33.7945C31.2243 33.5815 31.035 33.4079 30.8222 33.4158C30.6093 33.4237 30.4359 33.6052 30.4359 33.8182C30.3964 34.4889 30.3491 35.1517 30.3491 35.8303C30.2782 38.3079 31.5081 44.8019 32.0678 47.2558C32.2571 48.0844 32.9508 50.8382 33.0928 51.3826C33.1322 51.6035 33.345 51.7456 33.5579 51.7061C33.7787 51.6667 33.9206 51.4536 33.8811 51.2406C33.826 50.704 33.7629 50.1911 33.6919 49.6625C34.7405 49.5283 40.1804 48.2816 39.8256 47.2401H39.8178Z" fill="#191919"/>
<path d="M110.473 38.0633C109.543 39.1049 108.605 40.1228 107.706 41.1801C104.884 44.5257 102.353 48.1159 100.145 51.8955C99.8065 51.6035 99.428 51.351 99.0338 51.1459C98.3164 50.7908 96.0222 49.5362 95.6516 50.2385C95.4703 50.6014 96.2272 51.2327 96.6214 51.4615C97.599 51.9823 98.6081 52.4478 99.633 52.8581C99.294 53.592 98.9944 54.3494 98.7421 55.1227C98.6554 55.3279 98.75 55.5567 98.955 55.6435C99.16 55.7303 99.3886 55.6356 99.4753 55.4305C100.224 54.0259 103.717 48.6446 105.349 46.3405C105.428 46.2301 111.01 38.6709 111.088 38.5604C111.199 38.3632 111.136 38.1186 110.946 38.0081C110.797 37.9213 110.6 37.9371 110.466 38.0554L110.473 38.0633Z" fill="#191919"/>
<path d="M113.816 39.3495C114.289 39.2312 114.723 38.9708 115.038 38.5921C115.251 38.3396 115.417 38.0397 115.519 37.7241C115.827 36.7062 115.638 35.6094 115.007 34.7572C114.51 33.8735 114.211 33.3922 114.565 32.4058C115.078 30.9698 115.653 30.4963 115.133 30.2044C114.944 30.0939 114.699 30.157 114.589 30.3464C113.738 31.1513 113.209 32.248 113.115 33.4158C113.233 35.136 114.676 35.9329 114.274 37.3296L114.053 37.8977C113.935 38.1817 113.753 38.4264 113.517 38.6236C113.32 38.7183 113.233 38.9471 113.32 39.1523C113.406 39.3417 113.627 39.4285 113.824 39.3574L113.816 39.3495Z" fill="#191919"/>
<path d="M118.665 32.8003C120.589 31.9797 122.528 31.3879 122.307 30.7409C122.189 30.3779 121.866 30.4726 121.33 30.5358C120.108 30.7172 118.933 31.1275 117.869 31.7509C117.648 31.8771 116.907 32.5163 117.159 32.9029C117.388 33.2896 118.397 32.9187 118.673 32.8003H118.665Z" fill="#191919"/>
<path d="M119.445 34.915C119.697 34.8835 121.661 34.4179 122.796 34.0392C123.671 33.7078 123.994 33.6368 123.931 33.2659C123.868 32.8714 123.482 32.9029 122.938 32.9029C121.873 32.9266 120.817 33.116 119.808 33.4632C119.571 33.5263 119.343 33.5973 119.122 33.6841C118.87 33.7946 118.065 34.197 118.16 34.5994C118.255 35.0018 119.327 34.9308 119.445 34.915Z" fill="#191919"/>
<path d="M120.171 37.7241C120.778 37.4953 121.401 37.3059 122.04 37.1718C122.402 37.1086 122.765 37.0218 123.12 36.9114C124.2 36.5879 124.507 36.5011 124.452 36.1302C124.397 35.7594 124.034 35.7672 123.498 35.7436C122.15 35.6883 120.802 35.9724 119.596 36.58C119.296 36.7457 118.571 37.3848 118.815 37.7793C119.02 38.095 119.84 37.8582 120.171 37.7241Z" fill="#191919"/>
<path d="M119.768 41.1328C119.532 43.0265 119.343 44.6047 118.996 46.6483C118.247 51.0118 116.236 60.9224 113.698 64.5362C109.74 70.5094 102.305 73.1291 95.4857 70.9434C93.0417 70.2727 90.7711 69.0496 88.8632 67.3847C88.6976 67.2348 88.6819 66.9823 88.8317 66.8166C88.9815 66.6509 89.2338 66.6351 89.3993 66.785C92.5923 69.2469 96.5264 70.5488 100.555 70.4936C105.412 70.2885 109.882 67.795 112.61 63.7709C115.03 60.299 117.017 50.2385 117.726 46.4274C118.869 40.3516 118.68 40.4621 119.074 40.3043C120.147 39.8782 121.511 39.3101 122.677 38.9629C122.89 38.8919 123.111 39.0102 123.182 39.2233C123.245 39.4284 123.143 39.6494 122.938 39.7204C121.944 40.0834 120.588 40.7462 119.776 41.1407L119.768 41.1328Z" fill="#191919"/>
<path d="M132.107 51.6983C131.784 51.6667 131.469 51.6193 131.153 51.5483C130.791 51.4773 130.562 51.1222 130.633 50.7672C130.633 50.7593 130.633 50.7514 130.633 50.7435C131.122 48.7314 132.068 46.8613 133.4 45.2832C133.526 45.1096 133.771 45.0702 133.952 45.1964C134.118 45.3148 134.165 45.5357 134.063 45.7093C133.29 47.1927 132.636 48.7393 132.123 50.3332L132.888 50.4437C133.243 50.4831 133.503 50.7987 133.471 51.1617C133.274 54.1049 134.268 57.1033 137.232 56.9139C137.579 56.8902 137.878 57.1506 137.91 57.4978L138.115 60.6935C138.139 60.9065 138.028 61.1117 137.839 61.2222C137.248 61.4983 136.601 61.885 135.726 62.2479C135.521 62.3347 135.285 62.2479 135.19 62.0428C135.103 61.8376 135.19 61.6009 135.395 61.5062C136.057 61.159 136.57 60.7882 137.027 60.512C136.909 59.8492 136.775 58.8708 136.704 58.208C133.408 58.1054 132.068 55.0202 132.099 51.7219L132.107 51.6983Z" fill="#191919"/>
<path d="M135.915 53.1818C136.151 52.9135 136.301 52.6926 136.656 52.3138C137.231 51.7615 137.547 51.4301 137.878 51.6747C138.154 51.8878 138.035 52.156 137.641 53.0082C137.326 53.6237 136.9 54.1839 136.388 54.6416C136.128 54.8704 135.749 54.8625 135.497 54.6337C135.245 54.4206 135.024 54.1681 134.842 53.892C134.732 53.6789 134.417 52.8977 134.756 52.6689C135.032 52.4874 135.702 52.9609 135.923 53.1818H135.915Z" fill="#191919"/>
<path d="M136.301 47.1296C136.301 47.6662 136.632 48.1001 137.042 48.108C137.452 48.108 137.783 47.674 137.783 47.1375C137.783 46.593 137.452 46.1591 137.042 46.1591C136.632 46.1591 136.301 46.593 136.301 47.1296Z" fill="#191919"/>
<path d="M156.24 60.0937C156.13 59.5572 155.735 59.1232 155.207 58.9654C154.632 58.7997 154.466 59.0759 153.662 58.5945C151.912 57.5688 151.51 54.3494 151.344 52.4636C150.981 47.8791 151.636 43.3736 148.135 41.5904C147.67 41.3694 147.181 41.1722 146.693 41.0065C146.306 39.2311 145.202 37.6924 143.641 36.7534C140.653 34.765 137.374 36.3747 134.189 35.6251C132.659 35.2463 131.043 35.4909 129.687 36.2958C125.595 38.7419 125.611 45.9775 130.01 45.9775C130.467 46.017 130.909 45.8039 131.169 45.4252C132.091 45.7092 133.172 45.8118 133.471 44.8886C133.503 44.786 133.518 44.6677 133.518 44.5572C133.771 44.4704 134.007 44.3284 134.204 44.1469C134.559 43.7918 134.291 43.8234 134.693 44.0364C135.765 44.6361 136.956 44.7071 137.453 43.563C138.107 43.9812 138.88 44.1627 139.644 44.0759C139.873 46.1195 141.418 47.7608 143.444 48.108C144.54 48.2737 145.723 47.3663 145.983 48.8655C146.062 49.2284 145.983 49.5993 145.762 49.8991C145.597 50.0648 145.392 50.1832 145.163 50.2463C144.075 50.5935 143.31 50.3962 143.239 51.0748C143.145 52.8186 142.451 54.4757 141.268 55.7618C141.119 55.896 141.056 56.0932 141.095 56.2905C142.27 61.664 140.33 60.0858 146.401 60.3462C147.323 60.3936 148.112 59.999 148.798 60.1726C150.319 60.5514 151.778 61.159 153.11 61.9796C153.236 62.0585 153.394 62.0664 153.52 61.9954C154.608 61.9086 156.358 61.2063 156.24 60.0937ZM135.332 38.1658C134.559 38.3 133.802 38.513 133.069 38.805C132.115 39.1364 131.287 39.7676 130.72 40.604C130.333 41.2116 130.113 41.906 130.089 42.624C130.176 42.8292 130.073 43.058 129.876 43.1369C129.671 43.2237 129.442 43.1211 129.364 42.9239C128.812 41.9612 128.898 40.7697 129.576 39.8939C130.436 38.5525 131.831 37.6451 133.408 37.4005C134.047 37.3058 134.685 37.2979 135.324 37.3689C135.545 37.3926 135.702 37.5819 135.687 37.8029C135.671 37.9923 135.521 38.1422 135.332 38.158V38.1658ZM138.809 38.3394C138.249 38.4105 137.681 38.3868 137.121 38.2684C136.696 38.1816 136.617 37.5346 137.248 37.4873C137.768 37.4478 138.288 37.4636 138.801 37.5425C139.021 37.5425 139.203 37.724 139.203 37.9449C139.203 38.1659 139.021 38.3473 138.801 38.3473L138.809 38.3394Z" fill="#4F231D"/>
<path d="M81.618 31.1276C83.3525 29.3285 81.2632 26.9929 79.3317 26.6852C80.0806 25.2728 79.3553 23.9314 78.2516 22.9687C80.1674 19.631 75.776 16.9956 72.8195 18.0608C72.7091 12.2612 64.3443 11.63 61.8608 16.1434C61.4272 16.9482 61.2617 17.8714 61.4036 18.7788C58.384 18.7946 57.2803 22.3138 58.9911 24.5705C57.0437 24.4679 55.3881 25.9671 55.2856 27.9161C55.262 28.4211 55.3408 28.9182 55.5221 29.3837C51.3515 29.5652 51.0362 37.2743 57.0201 35.9645C57.6823 35.8067 58.2815 35.4674 58.7546 34.9782C59.74 36.6115 62.2471 37.0297 63.3272 35.4832C63.8082 36.0434 64.4468 36.4458 65.1563 36.6431C65.1327 37.1481 65.1484 37.6609 65.1957 38.1659L63.9737 38.45C63.7609 38.4895 63.6111 38.6946 63.6505 38.9156C63.6899 39.1365 63.9028 39.2864 64.1235 39.2548L65.8265 39.0734C66.0866 39.0339 66.268 38.8051 66.268 38.5447C66.2522 37.7556 66.3074 36.9745 66.4256 36.1933C66.4572 35.8698 66.2285 35.5778 65.9132 35.5305C65.0617 35.3727 64.3364 34.8282 63.9501 34.0471C63.3509 32.7767 63.1538 31.3564 63.3824 29.9676C63.4692 29.6047 63.2484 29.2417 62.8857 29.1549C62.8463 29.147 62.8069 29.1391 62.7596 29.1391C61.7505 29.076 61.2065 28.2081 61.4036 27.6399C61.5849 27.127 62.0264 26.7483 62.5546 26.6536C62.7754 26.622 62.9252 26.4169 62.8857 26.196C62.8857 26.1881 62.8857 26.1723 62.8857 26.1644C64.1945 25.8014 65.0144 24.4995 64.77 23.1581C65.4086 23.9945 66.3862 24.4995 67.4348 24.531C67.8999 24.3969 67.6319 23.7183 67.49 23.4343C68.7593 24.3969 70.3282 24.8861 71.9286 24.823C72.1967 25.5568 72.7564 26.1486 73.4739 26.4485C73.3793 26.6457 73.4581 26.8903 73.6552 26.985C73.7262 27.0166 73.805 27.0324 73.876 27.0245C74.4751 27.0955 74.9009 27.632 74.8299 28.2317C74.8299 28.2948 74.8142 28.3501 74.7984 28.4053C74.5146 28.9813 73.9233 29.3443 73.2847 29.3285C72.9457 29.3443 72.6776 29.6047 72.6461 29.944C72.5751 31.1433 72.2755 32.3269 71.7552 33.4079C69.9498 37.0297 67.6082 35.2464 67.419 36.1617C67.3717 36.3748 67.5294 36.5168 67.7265 36.6273C68.1443 36.8324 68.6095 36.9035 69.0668 36.8403L69.319 38.7577C69.3742 39.4205 70.4622 39.3259 71.5739 39.4521C71.7946 39.4837 71.9996 39.3337 72.0311 39.1128C72.0627 38.8998 71.9286 38.7025 71.7158 38.6631C71.1875 38.521 71.1166 38.5526 70.344 38.3395L70.2809 36.722C70.5489 36.5957 70.8091 36.4458 71.0456 36.2722C72.4647 37.3848 74.688 36.7141 75.8312 35.5305C77.7943 36.7378 80.2462 36.8009 82.2724 35.712C84.267 34.5205 83.723 31.9403 81.6338 31.1118L81.618 31.1276ZM62.531 20.5463C62.5152 20.7594 62.3339 20.8698 62.1052 20.9093C61.0961 21.075 60.694 21.3511 60.6546 21.7851C60.6309 21.9982 60.3313 22.0929 60.1264 21.9982C59.9214 21.9035 59.8268 21.6668 59.9135 21.4616C60.56 19.56 62.5625 19.8835 62.5231 20.5463H62.531ZM68.4439 15.9145C67.0564 15.5516 64.9986 16.6326 64.8883 18.1318C64.9119 18.3527 64.7542 18.5421 64.5335 18.5658C64.3127 18.5894 64.1235 18.4316 64.0999 18.2107C64.0999 18.2028 64.0999 18.1949 64.0999 18.187C63.5953 16.0645 66.268 13.9971 68.7277 15.1571C68.9327 15.2438 69.0273 15.4806 68.9485 15.6857C68.8697 15.8751 68.6568 15.9777 68.4597 15.9145H68.4439Z" fill="#311D16"/>
<path d="M154.316 96.8086C154.316 96.8086 136.577 101.338 125.193 97.4082C125.201 92.0584 123.703 87.0085 123.356 81.7139C121.96 81.4377 120.652 80.8381 119.532 79.9543C122.347 72.6792 126.226 65.917 133.384 62.1216C133.534 62.9738 133.763 63.8102 134.062 64.6229C134.985 66.8007 136.845 66.9428 138.753 65.6724C141.197 64.0548 143.208 61.9401 145.51 60.1727C148.916 57.5688 154.19 61.1195 156.815 63.5104C158.313 64.9149 159.591 66.5482 160.592 68.3473C162.271 70.9827 163.651 73.7997 164.699 76.7428C159.598 78.4156 155.018 81.3983 151.407 85.383C152.456 89.1626 153.086 93.0605 154.324 96.8007L154.316 96.8086Z" fill="#6F93FC"/>
<path d="M123.916 79.8202C123.995 79.5598 124.247 78.8181 124.294 78.6208C124.759 76.9559 124.405 77.3899 126.888 72.048C127.006 71.8586 126.943 71.6061 126.754 71.4878C126.573 71.3773 126.328 71.4246 126.21 71.6061C125.035 72.9475 124.137 74.5098 123.577 76.2063C123.072 77.3268 122.914 78.5656 123.119 79.7807C123.119 80.0017 123.301 80.1753 123.522 80.1753C123.727 80.1753 123.892 80.0175 123.916 79.8202Z" fill="#191919"/>
<path d="M149.199 85.0279L149.357 84.9648C149.546 84.8464 149.791 84.9096 149.909 85.0989C150.027 85.2883 149.964 85.5329 149.775 85.6513L149.026 86.1563C148.789 86.2825 148.49 86.1957 148.364 85.959C148.34 85.9117 148.324 85.8643 148.316 85.8091C147.875 84.1757 146.432 78.392 146.164 76.7113C146.022 75.291 146.006 75.0069 146.361 74.9359C146.755 74.8412 146.866 75.2594 147.149 75.9774C148.088 78.9285 148.774 81.9506 149.199 85.02V85.0279Z" fill="#191919"/>
<path d="M152.668 85.9671C152.724 86.7561 152.771 87.3874 152.881 88.2159C153.086 89.4942 154.434 95.6172 154.663 96.5247C155.049 98.1659 155.404 99.2864 155.735 100.557C155.775 100.778 155.988 100.92 156.208 100.872C156.429 100.833 156.571 100.62 156.524 100.399C156.382 99.2627 156.169 97.4557 155.932 96.2485C155.909 96.1301 154.427 88.855 153.961 87.3479C153.804 86.8193 153.615 86.3222 153.457 85.8093C153.417 85.5962 153.205 85.4542 152.992 85.4936C152.779 85.5331 152.637 85.7461 152.676 85.9592L152.668 85.9671Z" fill="#191919"/>
<path d="M163.816 78.7471C163.793 79.5125 163.824 80.2779 163.911 81.0354C164.478 86.472 164.273 85.1779 164.518 87.9239C164.581 88.6577 164.683 89.3757 164.739 90.1174C164.754 90.3463 164.944 90.512 165.172 90.5041C165.385 90.4883 165.551 90.3226 165.559 90.1095C165.827 86.8271 165.677 83.5288 165.109 80.2858C164.967 79.7177 164.802 79.1574 164.597 78.6051C164.557 78.392 164.352 78.2421 164.139 78.2816C163.927 78.321 163.777 78.5262 163.816 78.7392V78.7471Z" fill="#191919"/>
<path d="M173.837 80.5698C174.696 82.2111 177.195 82.3531 177.589 78.9996C177.629 78.7787 177.487 78.5735 177.266 78.5341C177.061 78.4946 176.864 78.6209 176.809 78.8181C176.06 81.0117 175.382 80.7119 174.459 80.0806C173.947 79.7255 173.616 80.1516 173.837 80.5698Z" fill="#191919"/>
<path d="M176.115 73.0581C176.47 73.1212 176.675 73.5789 176.588 74.076C176.501 74.5731 176.131 74.9203 175.792 74.8493C175.453 74.7782 175.224 74.3364 175.319 73.8314C175.413 73.3264 175.768 72.995 176.115 73.0581Z" fill="#191919"/>
<path d="M185.261 72.3952C185.552 71.0222 184.677 69.665 183.298 69.3731C183.266 69.3731 183.235 69.3573 183.203 69.3573C183.108 67.9765 181.91 66.9349 180.53 67.0296C180.27 67.0454 180.01 67.1085 179.766 67.2032C178.607 65.1043 176.202 65.9328 175.13 67.6214C173.269 66.7771 171.937 68.9865 172.449 70.604C171.464 71.2826 171.156 72.5924 171.732 73.6419C170.825 74.9754 170.068 76.4036 169.469 77.8949C169.335 78.2421 169.509 78.6287 169.855 78.7629C169.855 78.7629 169.871 78.7629 169.879 78.7629L170.518 78.9601C170.21 81.5246 169.974 83.9864 172.221 85.2884C172.221 85.8249 172.244 88.634 172.252 89.5098L170.368 90.0937C170.155 90.1568 170.029 90.3778 170.092 90.5908C170.155 90.8039 170.376 90.9301 170.589 90.867L172.899 90.4015C173.127 90.3462 173.285 90.1411 173.285 89.9043C173.443 88.0343 173.482 86.5903 173.514 85.604C173.924 85.6671 174.349 85.675 174.759 85.6198C175.461 85.5251 176.951 85.1463 176.683 84.5072C176.446 83.9312 173.75 84.5309 172.946 84.1758C171.093 83.3631 171.724 80.2936 171.913 78.5419C171.945 78.2263 171.755 77.9265 171.448 77.8397L170.991 77.6897C170.991 77.6897 171.992 75.4173 172.962 73.1921C173.064 73.0027 172.993 72.7581 172.804 72.6556C172.788 72.6477 172.765 72.6398 172.749 72.6319C172.962 71.5272 173.585 70.5488 174.499 69.9018C174.909 71.6535 176.73 71.6929 177.858 70.5409C177.574 71.5824 178.181 72.6477 179.222 72.9317C179.537 73.0185 179.876 73.0264 180.199 72.9475C179.395 74.5256 179.844 75.5593 181.24 76.0643C181.098 76.23 181.122 76.4825 181.287 76.6245C181.35 76.6798 181.429 76.7113 181.516 76.7192C182.02 76.735 182.525 76.8455 182.982 77.0427C183.55 77.3268 183.779 78.0133 183.495 78.5735C183.439 78.684 183.369 78.7865 183.274 78.8733C182.722 79.2442 182.068 79.4414 181.398 79.4414C181.145 79.4651 180.925 79.6308 180.83 79.8597C180.593 80.4593 180.349 81.0511 180.136 81.6508C179.45 83.4656 179.466 83.5524 179.466 84.0338C179.466 88.1448 179.608 88.6971 179.639 90.4409C179.639 90.6934 179.821 90.9143 180.065 90.9538C180.783 91.0643 181.784 91.1037 182.541 91.1511C182.761 91.1826 182.959 91.0327 182.998 90.8118C182.998 90.8118 182.998 90.8039 182.998 90.796C183.022 90.575 182.864 90.3778 182.643 90.3462C182.162 90.2594 180.869 90.0385 180.712 89.999C180.783 87.6476 180.822 87.3873 180.806 83.7892C181.114 82.8186 181.532 81.7297 181.934 80.7276C184.118 80.4909 185.032 79.1968 184.922 77.9975C186.01 77.7292 185.978 76.3641 185.537 75.5198C186.207 74.5256 186.089 73.2 185.245 72.3399L185.261 72.3952Z" fill="#9F714F"/>
<path d="M127.771 99.5151L127.519 101.456C124.554 101.117 121.558 101.29 118.649 101.961C117.033 96.3667 117.135 90.4173 118.941 84.8781C119.177 84.089 119.579 82.7871 119.879 82.0217C119.974 81.8244 119.895 81.5877 119.698 81.4851C119.501 81.3904 119.264 81.4693 119.162 81.6666C118.602 82.5504 118.129 83.4814 117.735 84.452C116.891 86.7481 116.394 89.1548 116.244 91.5929C115.976 95.191 116.528 98.8049 117.845 102.158C107.249 105.109 103.457 114.988 102.109 125.98C101.62 129.996 101.478 134.005 101.289 137.532C101.273 137.761 101.438 137.95 101.667 137.974C101.888 137.989 102.077 137.816 102.093 137.603C103.591 121.624 104.836 105.283 121.006 102.861C123.277 102.466 125.587 102.34 127.881 102.498C128.149 102.529 128.394 102.34 128.425 102.072L128.559 99.5861C128.575 99.3652 128.417 99.1758 128.197 99.1521C127.976 99.1284 127.787 99.2941 127.763 99.5151H127.771Z" fill="#191919"/>
<path d="M145.131 102.316C145.336 104.005 146.148 105.567 147.417 106.703C147.875 107.051 148.805 107.713 149.12 107.232C149.325 106.893 149.018 106.751 148.529 106.222C147.969 105.607 147.496 104.92 147.11 104.186C146.345 102.592 146.258 100.738 145.58 100.785C145.1 100.825 145.107 102.056 145.131 102.316Z" fill="#191919"/>
<path d="M188.548 118.46C188.816 118.46 189.076 118.437 189.336 118.397C189.549 118.35 189.77 118.484 189.817 118.705C189.864 118.91 189.746 119.115 189.549 119.17C189.108 119.344 188.635 119.454 188.162 119.494C187.941 119.494 187.744 119.368 187.665 119.17C186.104 115.801 184.63 111.982 184.44 111.375C184.086 110.199 184.007 109.891 184.33 109.733C184.693 109.56 184.842 109.891 185.276 110.53C186.601 113.071 187.696 115.722 188.556 118.452L188.548 118.46Z" fill="#191919"/>
<path d="M159.93 108.842C160.34 106.08 160.742 104.392 160.135 104.273C159.749 104.163 159.607 104.581 159.417 105.031C159.055 105.859 158.826 106.735 158.732 107.635C158.661 108.061 158.621 108.495 158.613 108.937C158.613 109.221 158.771 110.199 159.205 110.223C159.67 110.223 159.827 109.339 159.922 108.842H159.93Z" fill="#191919"/>
<path d="M192.695 122.879C193.208 124.362 193.831 125.806 194.572 127.187C197.307 132.427 199.893 137.374 202.463 140.53C204.316 142.818 206.8 145.028 209.732 145.438C209.953 145.478 210.166 145.336 210.206 145.115C210.245 144.894 210.103 144.681 209.882 144.641C204.19 143.45 199.602 133.516 196.937 128.742C196.093 127.235 194.043 123.802 193.436 122.571C193.358 122.366 193.137 122.264 192.932 122.335C192.727 122.413 192.624 122.634 192.695 122.84C192.695 122.847 192.695 122.855 192.703 122.863L192.695 122.879Z" fill="#191919"/>
<path d="M202.227 114.515C202.424 115.927 202.676 117.876 203.07 119.533C204.339 125.309 207.02 134.47 209.693 139.307C210.867 141.785 212.925 143.726 215.464 144.752C215.669 144.831 215.905 144.72 215.976 144.507C216.047 144.31 215.953 144.081 215.755 144.002C213.524 142.897 211.758 141.027 210.796 138.731C209.283 135.449 207.982 132.071 206.902 128.623C205.759 124.994 203.046 114.499 203.015 114.381C202.976 114.168 202.771 114.018 202.558 114.057C202.345 114.097 202.195 114.302 202.234 114.515H202.227Z" fill="#191919"/>
<path d="M209.882 144.01C210.347 144.333 210.86 144.578 211.404 144.744C211.664 144.807 212.507 144.957 212.657 144.554C212.776 144.176 212.35 143.907 211.822 143.537C211.388 143.3 210.946 143.079 210.489 142.897C210.379 142.874 209.646 142.787 209.472 143.063C209.322 143.331 209.772 143.923 209.874 144.018L209.882 144.01Z" fill="#191919"/>
<path d="M42.0723 144.838C39.5416 144.973 37.003 144.767 34.4722 144.862C31.839 144.973 28.6302 145.714 26.2256 144.491C24.0891 143.371 22.6069 141.296 22.2442 138.905C18.5624 138.345 15.9292 135.031 16.2288 131.314C14.1711 130.233 12.9175 128.063 13.0042 125.743C13.2644 121.617 17.2221 119.312 20.557 122.279C21.5583 123.281 22.3704 124.449 22.9538 125.735C26.3596 125.941 29.7497 128.671 29.7182 132.34C33.3133 133.255 32.785 135.922 34.1726 137.319C35.5917 138.984 37.6416 139.97 39.8254 140.049C40.3379 141.745 41.0868 143.355 42.0566 144.838H42.0723Z" fill="#6F93FC"/>
<path d="M19.0984 127.929C19.7055 128.537 20.2889 129.2 21.298 130.154C25.6657 134.092 29.7181 138.368 33.3999 142.953C33.526 143.134 33.7783 143.174 33.9596 143.047C34.141 142.921 34.1804 142.669 34.0543 142.487C32.1858 139.505 29.9861 136.743 27.4948 134.249C25.1375 131.646 22.4964 129.318 19.6109 127.314C19.4453 127.172 19.193 127.195 19.0511 127.369C18.9171 127.535 18.9328 127.779 19.0905 127.921L19.0984 127.929Z" fill="#191919"/>
<path d="M44.3747 145.454C42.3406 143.371 40.8899 140.791 40.1725 137.966C35.521 137.177 33.0612 132.805 32.9429 128.418C27.6213 125.601 26.2652 118.2 28.0155 112.89C24.854 109.757 23.2299 104.147 23.8449 99.7596C24.6333 94.252 29.0956 94.6229 31.918 98.8917C34.0467 102.237 35.5052 105.954 36.2305 109.852C40.7953 112.511 43.3497 117.632 42.719 122.887C46.2589 125.349 49.3573 130.012 48.0959 134.518C50.2245 135.733 52.2113 137.54 52.5897 139.962C52.6055 140.049 52.2271 143.639 52.03 145.454H44.3668H44.3747Z" fill="#6F93FC"/>
<path d="M30.2701 108.668C30.9008 110.688 31.6971 112.653 32.6432 114.547C33.8336 116.914 47.5044 141.122 48.6949 143.339C48.7974 143.536 49.0339 143.615 49.2389 143.521C49.436 143.418 49.5148 143.181 49.4202 142.976C43.9251 131.18 33.2423 113.655 31.0191 108.392C30.9402 108.187 30.7195 108.084 30.5145 108.163C30.3095 108.242 30.207 108.463 30.2859 108.668H30.2701Z" fill="#191919"/>
<path d="M84.6065 113.718C85.8916 112.542 87.1609 111.225 88.5091 110.144C87.9966 105.867 89.2423 101.401 92.8531 98.7576C92.7901 97.4005 92.4038 96.0827 91.7179 94.907C92.6718 92.3978 93.539 89.5809 93.0345 86.8744C92.8531 85.9118 92.4353 84.4284 91.3 84.2232C89.9519 83.9865 88.5722 85.4305 87.8626 86.3852C85.8128 89.0917 84.6538 92.3663 84.5435 95.7592C83.014 96.4378 81.6579 98.0001 81.8077 99.6098C82.4148 104.368 83.353 109.078 84.6144 113.71L84.6065 113.718Z" fill="#6F93FC"/>
<path d="M105.877 86.7009C104.663 83.7262 101.935 86.4326 100.658 87.7819C97.8909 90.6778 95.6834 94.4494 95.7622 98.5841C92.0489 101.464 90.2908 106.214 91.2368 110.814C88.6824 112.148 86.7114 114.365 85.6786 117.056C85.3869 117.774 83.9363 117.908 84.094 118.658C84.1097 118.697 85.8284 130.849 87.4131 136.995C88.0281 136.672 88.8007 136.822 89.3683 136.435C91.6941 134.952 92.9634 132.277 92.648 129.539C98.9237 126.138 101.888 119.218 101.068 112.314C104.356 108.376 105.215 102.963 103.323 98.1975C104.781 95.5068 107.005 89.5336 105.862 86.6851L105.877 86.7009Z" fill="#6F93FC"/>
<path d="M88.3041 127.605C88.6826 126.382 89.7627 124.031 90.2909 122.871C90.8191 121.711 100.162 101.164 100.579 100.273C100.682 100.075 100.603 99.8385 100.414 99.7359C100.217 99.6334 99.9724 99.7123 99.8699 99.9095C96.3931 106.048 93.2947 112.4 90.5826 118.918C89.266 121.632 88.2411 124.473 87.5394 127.408C87.4921 127.621 87.634 127.834 87.8469 127.882C88.044 127.921 88.2411 127.811 88.3041 127.613V127.605Z" fill="#191919"/>
<path d="M85.1581 105.701C85.5129 104.81 85.8046 103.894 86.0411 102.963C86.3249 101.867 88.7138 92.8082 88.9739 91.9323C89.0528 91.7272 88.9503 91.4905 88.7453 91.4037C88.5324 91.3326 88.3038 91.4352 88.2171 91.6404C87.1843 93.8261 86.3722 96.1064 85.7967 98.4578C85.0398 100.746 84.5668 103.121 84.3855 105.52C84.3461 105.733 84.488 105.946 84.7008 105.985C84.9058 106.025 85.1108 105.899 85.1581 105.693V105.701Z" fill="#191919"/>
<path d="M204.04 109.804C202.282 106.08 200.989 102.135 198.529 98.6076C194.769 93.2894 189.873 90.725 185.931 90.3462C185.536 90.3147 185.04 90.2357 184.787 90.4882C180.656 94.1495 177.006 96.2484 171.479 95.767C169.067 95.5619 168.476 93.3525 168.657 90.9143C168.681 90.5435 168.405 90.2279 168.042 90.2042C167.963 90.2042 167.892 90.2042 167.821 90.2279C160.923 92.1847 156.61 99.0732 156.484 106.222C155.38 106.104 154.269 106.072 153.165 106.127C153.859 103.523 154.048 100.817 153.725 98.1421C153.709 97.9212 153.52 97.7555 153.307 97.7712C153.086 97.787 152.921 97.9764 152.936 98.1894C153.102 101.172 152.621 104.155 151.517 106.932C147.197 116.977 135.213 114.026 127.243 125.42C123.632 130.596 122.473 136.151 121.046 139.426C120.951 139.631 121.046 139.867 121.243 139.962C121.44 140.057 121.684 139.962 121.779 139.765C123.608 135.962 125.256 129.144 130.231 123.794C137.342 124.102 144.461 124.015 151.557 123.526C156.634 123.092 156.295 122.84 156.248 123.163C155.924 125.751 155.656 128.331 155.514 130.28C155.507 130.415 155.554 130.549 155.641 130.651C155.853 130.88 156.066 130.809 156.642 130.817C156.524 131.969 156.342 133.113 156.098 134.249C151.478 133.46 146.803 133.074 142.12 133.097C138.753 133.026 135.71 133.373 133.329 135.796C132.706 136.419 132.202 137.145 131.831 137.95C130.144 141.777 132.517 144.744 136.38 145.667H119.572C121.14 144.239 122.914 141.027 121.077 139.875C120.021 139.402 118.886 139.126 117.727 139.078C115.984 138.968 116.733 139.512 116.244 138.392C116.221 138.329 116.189 138.274 116.158 138.218C118.397 131.006 121.101 123.952 124.262 117.095C126.998 111.319 131.492 106.009 137.76 104.675C137.973 104.628 138.107 104.415 138.059 104.202C138.012 103.997 137.823 103.871 137.618 103.894C128.173 105.259 124.05 113.6 120.525 122.224C120.399 122.208 120.265 122.193 120.139 122.185C120.328 119.707 120.313 117.214 120.108 114.736C120.052 114.365 119.974 114.002 119.871 113.647C121.203 112.992 122.638 112.55 124.105 112.321C124.326 112.29 124.475 112.093 124.444 111.872C124.412 111.667 124.231 111.517 124.026 111.524C111.759 112.243 108.037 126.051 105.459 138.06C104.852 138.06 104.253 138.147 103.677 138.321C102.873 138.155 102.045 138.124 101.233 138.226C100.981 137.043 100.343 136.261 99.1521 136.435C98.2691 136.561 97.5516 137.161 96.1325 137.579C94.1458 138.124 92.979 137.461 91.1026 137.216C90.0225 137.043 88.9187 137.193 87.9332 137.658C87.1133 138.274 87.4129 139.418 88.0436 140.215C89.3208 141.832 94.3665 143.986 98.001 143.671C98.411 143.639 98.8131 143.576 99.2151 143.497C99.16 143.86 99.2073 144.231 99.3492 144.57C100.13 145.959 102.842 145.801 103.953 145.067C104.71 144.468 105.341 143.734 105.814 142.89C108.1 144.081 110.663 144.665 113.241 144.578C113.367 144.57 114.242 144.468 114.455 144.404C114.408 144.767 114.455 145.138 114.589 145.478C114.754 145.777 118.42 145.675 67.979 145.675C69.6661 143.489 70.9827 141.051 71.8894 138.447C71.9131 138.463 71.9446 138.471 71.9761 138.471C72.3624 138.542 72.5753 138.266 72.867 137.95C73.0168 141.785 73.1193 144.42 73.1193 144.42C73.1193 144.649 73.3164 144.823 73.5371 144.815C73.7658 144.815 73.9392 144.618 73.9313 144.397C73.8131 133.705 73.6948 137.705 74.0181 135.788C74.1127 135.102 74.0023 134.407 73.6948 133.784C73.6791 132.94 73.6554 132.072 73.6396 131.18C77.2978 131.164 83.802 130.951 83.9361 130.935C85.1186 138.155 86.0568 143.892 86.0568 143.892C86.0963 144.113 86.3012 144.255 86.522 144.231C86.7428 144.191 86.8925 143.986 86.861 143.765C86.861 143.765 79.3318 95.4751 79.2057 94.8123H81.2792C81.5788 94.8123 81.8232 94.5677 81.8232 94.2678L81.6891 85.2095C81.6891 84.9885 81.5078 84.807 81.2871 84.807H81.0505C80.8061 82.574 80.6721 80.3331 80.6563 78.0922C74.499 78.2105 59.417 78.463 54.8443 79.2442C54.9547 80.27 55.0966 81.28 55.2385 82.3057C50.8471 83.0869 46.4637 83.6156 42.1196 84.7202C40.3378 85.1779 37.949 85.6987 36.7191 87.2058C35.4498 88.7523 35.3079 91.6876 35.5759 93.6524C36.0253 96.8638 45.7147 109.347 49.1206 113.45C49.0259 113.505 48.9471 113.592 48.8919 113.694C48.6791 114.081 48.8919 114.16 49.4832 115.604C50.5554 118.176 51.3123 120.875 51.7301 123.629C52.014 125.309 52.4791 127.306 54.1426 126.872C54.0323 128.024 53.9298 129.16 53.8194 130.272C53.709 130.399 53.6932 130.58 53.7721 130.73C53.0231 138.589 52.416 144.996 52.416 144.996C52.3924 145.217 52.5501 145.422 52.7787 145.446C52.9995 145.47 53.2044 145.312 53.2281 145.083C53.2281 145.083 53.8825 138.865 54.726 130.975C58.2502 131.219 59.6141 131.196 63.1303 131.204C62.7913 141.351 62.8386 141.753 62.7756 145.028C62.7756 145.249 62.949 145.438 63.1776 145.438C63.3905 145.438 63.5718 145.272 63.5876 145.059C64.037 137.011 64.1237 137.532 64.3918 131.204H67.6715C67.7897 131.606 67.9001 132.001 68.0184 132.395C67.9395 132.411 67.8686 132.442 67.8055 132.49C67.4744 132.726 67.6005 132.916 67.3955 135.03C67.1511 136.932 66.6939 138.794 66.0395 140.593C65.5586 142.029 64.1631 143.978 64.7781 145.691H21.7712C21.5504 145.691 21.377 145.864 21.377 146.085C21.377 146.306 21.5504 146.48 21.7712 146.48H65.4167C65.669 146.606 65.9528 146.661 66.2366 146.63C68.3889 146.393 56.0427 146.488 139.51 146.488C139.731 146.488 139.912 146.306 139.912 146.085C139.912 146.054 139.912 146.014 139.896 145.983C140.898 145.967 141.915 145.896 142.908 145.888C146.282 146.732 150.193 146.511 153.37 146.653C155.041 146.732 157.075 147.071 158.621 146.164C172.615 146.361 173.182 146.417 174.822 146.093C175.587 145.935 176.32 145.675 177.014 145.32C179.292 145.714 183.085 145.856 185.308 145.02C187.027 144.42 188.327 143 188.777 141.232C188.974 140.396 188.887 139.52 188.524 138.739C188.43 138.368 188.698 138.037 189.084 136.04C189.163 136.056 189.242 136.072 189.321 136.088C189.557 136.143 189.802 136.001 189.857 135.756C189.857 135.733 189.865 135.717 189.865 135.693C190.661 129.499 191.276 124.875 191.654 119.036C196.274 117.742 201.486 114.381 203.977 110.451C204.103 110.254 204.119 110.002 204.016 109.789L204.04 109.804ZM80.8456 87.9475L80.7509 93.7392C80.4987 93.7392 79.592 93.7234 78.2754 93.7155C79.5053 91.9796 80.3725 90.0227 80.8377 87.9475H80.8456ZM77.4791 94.8517H78.3621C79.3555 103.003 78.8509 99.8701 83.802 130.138C76.5725 129.886 76.6907 129.91 73.6081 129.894C73.0956 107.532 73.0483 109.623 72.6226 102.04C72.6226 101.937 72.5753 101.835 72.4965 101.764C74.0259 99.3651 75.6895 97.0611 77.4791 94.8438V94.8517ZM72.6384 132.127C72.4097 131.811 72.1732 131.511 71.9604 131.204H72.5989C72.6068 131.511 72.6226 131.819 72.6305 132.127H72.6384ZM71.8184 103.089C71.7238 109.078 71.7869 109.702 72.5595 129.902H71.3375C70.4624 122.69 68.7989 109.576 71.8263 103.089H71.8184ZM57.5564 87.0006C57.9033 86.9059 58.3211 87.403 58.5025 87.6871C58.6128 87.8765 58.7074 88.0737 58.8099 88.2631C58.9676 88.5472 59.8664 89.9517 59.4485 90.291C59.1253 90.5671 58.5261 90.0464 58.2108 89.7465C57.8796 89.3678 57.6116 88.9417 57.4145 88.484C57.0676 87.6713 57.3199 87.0795 57.5564 86.9927V87.0006ZM54.0874 124.954C54.0559 125.104 53.9219 125.57 53.7879 125.593C53.6932 125.601 53.6617 125.499 53.6144 125.42C52.9522 124.291 53.2754 122.808 51.943 118.46C51.533 117.072 50.9969 115.73 50.3505 114.436C51.4227 114.239 52.353 113.584 52.9049 112.645C53.8825 113.229 53.2754 113.915 53.4646 115.217C54.1426 119.952 54.2294 118.815 54.2057 123.51C54.2057 123.992 54.1663 124.473 54.0796 124.954H54.0874ZM54.5132 115.052C54.3003 113.971 54.9783 112.558 52.9995 111.769C52.8654 111.627 52.6526 111.603 52.4791 111.698C49.838 105.607 46.9919 99.5466 44.2246 93.5103C48.1824 93.5892 52.1401 93.2815 56.0348 92.5792V94.2994C56.0348 94.6702 56.3344 94.9622 56.7049 94.9701H57.5091C56.3817 103.279 56.6418 100.872 55.0493 117.474C54.8916 116.709 54.6709 115.912 54.5053 115.052H54.5132ZM63.7216 116.33C63.6901 116.74 63.3668 124.331 63.1776 129.894C59.6535 129.894 58.2186 129.878 54.8207 130.107C54.9783 128.647 55.136 127.14 55.2937 125.609C55.4671 124.938 55.546 124.252 55.5381 123.565C55.5381 123.203 58.2344 97.0453 58.3605 94.9464H64.2183C61.8452 101.953 62.2552 109.157 63.7059 116.33H63.7216ZM57.3908 93.6287V92.2952C58.5498 92.0348 59.6929 91.6955 60.8125 91.2931C62.4129 91.4509 64.0212 91.5298 65.6295 91.514C65.2905 92.2242 64.9752 92.9343 64.6992 93.6524C61.0963 93.6287 58.124 93.6208 57.3987 93.6208L57.3908 93.6287ZM64.4391 129.894C64.5652 126.864 64.6992 123.502 64.7938 121.033C65.5507 124.007 66.4179 126.966 67.2773 129.894H64.4391ZM66.5441 90.0779C66.1183 89.857 66.5441 88.7523 66.6939 88.4604C67.1984 87.5451 67.7976 86.6771 68.4599 85.8802C68.862 85.3594 69.3192 84.8859 69.8317 84.4756C70.3363 84.0574 70.6043 83.7576 70.9118 84.0338C71.2193 84.3099 70.967 84.6334 70.2416 85.6829C69.9105 86.18 69.3192 86.9138 68.8147 87.6161C68.0184 88.7208 67.1117 90.3778 66.5362 90.07L66.5441 90.0779ZM67.1354 144.641C66.8594 144.973 66.481 145.201 66.0632 145.28C65.5665 143.789 67.1354 142.732 68.2707 137.563C68.5939 136.277 68.7437 134.959 68.72 133.634C69.8475 133.563 70.8881 132.971 71.5188 132.032C72.662 133.823 73.7579 135.236 72.2599 136.877C72.1496 136.545 71.7948 136.372 71.4637 136.49C71.2666 136.553 71.1168 136.719 71.0616 136.916C70.1865 139.694 68.8541 142.306 67.1354 144.649V144.641ZM112.902 122.492C112.831 123.037 112.744 123.566 112.689 124.118C112.397 128.75 112.389 133.397 112.665 138.037C109.677 139.362 108.573 138.4 106.35 138.147C108.849 129.326 111.333 118.579 118.886 114.192C118.783 115.075 118.972 119.076 119.012 119.81C119.067 120.591 119.169 121.364 119.319 122.129C119.059 122.122 115.748 122.058 114.983 122.058C114.502 122.051 114.021 122.09 113.548 122.185C113.383 122.043 113.138 122.066 112.996 122.232C112.933 122.303 112.902 122.398 112.902 122.492ZM113.556 137.626C113.864 130.927 113.911 125.167 113.903 124.773C113.895 124.323 113.832 123.637 113.777 123.195C115.874 123.51 118.003 123.55 120.115 123.305C118.31 127.953 116.773 132.703 115.511 137.524C114.881 137.256 114.163 137.295 113.556 137.626ZM131.137 122.903C138.422 115.935 148.908 116.859 152.708 107.477C153.977 107.532 155.246 107.5 156.508 107.39C156.587 109.236 156.973 111.059 157.659 112.771C157.643 112.929 156.886 118.31 156.382 122.185C153.709 122.311 131.169 122.903 131.137 122.903ZM157.974 145.02C156.807 145.714 154.923 145.391 153.465 145.32C148.332 145.099 139.589 145.912 138.304 140.617C137.917 139.339 138.477 137.958 139.644 137.311C142.001 136.301 145.462 138.345 147.425 140.002C148.238 140.862 149.176 141.603 150.201 142.187C150.074 142.795 150.082 143.418 150.224 144.018C150.335 144.578 150.926 144.539 151.028 144.018C151.155 143.489 151.218 142.953 151.202 142.408C151.833 142.337 152.463 142.227 153.078 142.061C158.936 141.272 159.488 144.081 157.966 145.012L157.974 145.02ZM164.218 134.265C163.28 134.739 162.996 134.928 161.64 135.559C161.073 135.82 156.957 137.587 156.224 137.84C155.491 138.068 154.97 138.155 154.702 138.218C154.497 138.297 154.269 138.195 154.19 137.989C154.111 137.792 154.206 137.571 154.403 137.484C155.57 136.719 155.483 136.695 159.039 135.212C160.615 134.502 162.255 133.934 163.942 133.516C164.147 133.437 164.376 133.539 164.455 133.744C164.534 133.949 164.431 134.178 164.226 134.257L164.218 134.265ZM176.36 141.272C175.689 141.485 175.027 141.737 174.357 141.974C174.625 142.171 174.869 142.392 175.098 142.637C175.484 143.055 175.161 143.513 174.641 143.3C174.073 143.103 173.545 142.795 173.088 142.4C166.702 144.523 167.191 144.365 165.464 144.586C165.251 144.649 165.03 144.531 164.967 144.318C164.912 144.113 165.03 143.892 165.235 143.828C166.205 143.379 166.449 143.055 171.676 141.461C173.143 140.988 174.657 140.656 176.186 140.475C176.407 140.436 176.612 140.57 176.667 140.783C176.714 141.004 176.58 141.217 176.36 141.272ZM190.929 117.947C190.661 118.018 190.464 118.255 190.448 118.531C190.243 123.416 189.565 130.233 189.045 135.117C188.958 135.038 188.848 134.983 188.737 134.952C187.287 134.533 185.789 134.289 184.275 134.234C183.124 133.145 181.839 132.198 180.459 131.432C177.936 129.941 174.94 129.476 172.086 130.123C169.8 130.509 167.687 131.133 167.254 131.235C163.722 130.509 160.15 130.052 156.547 129.854C156.91 125.633 158.1 117.884 158.684 114.002C158.968 112.187 158.818 112.716 158.818 112.448C155.719 104.881 159.401 94.6624 167.301 91.8139C167.332 94.6545 168.531 96.8875 171.361 97.1321C177.187 97.6213 181.129 95.5145 185.481 91.6876C187.854 91.9322 190.133 92.7686 192.104 94.1179C198.316 98.2368 200.24 104.833 202.668 110.049C199.728 113.907 195.596 116.685 190.913 117.947H190.929Z" fill="#191919"/>
<path d="M95.0213 47.5478C89.881 44.4231 79.7895 38.6393 73.7977 38.7892C72.079 41.9297 67.4905 45.6777 64.1162 42.6793C63.1228 41.7877 62.5158 40.5488 62.4054 39.2232C55.0024 40.8487 47.8122 42.482 41.0005 46.0012C41.308 48.1632 41.8993 50.2779 42.7428 52.2821C44.0358 56.3773 46.0699 60.2042 48.7346 63.5814C48.5533 65.8854 48.5533 68.2053 48.7504 70.5172C48.7583 73.4841 49.1209 76.443 49.8226 79.3231C56.7605 80.191 63.7614 80.4199 70.7387 80.0096C75.1459 79.8517 79.5215 79.8281 83.9049 79.2678C84.0074 74.1469 83.834 69.018 83.3925 63.9128C84.5672 64.7019 85.7971 65.4041 87.0822 66.0117C89.4868 59.7071 92.1594 53.6551 95.0213 47.5478Z" fill="#6F93FC"/>
<path d="M49.8143 60.583C49.9405 60.1017 50.1376 58.5867 50.2953 57.7266C51.0994 53.0159 51.6355 52.4952 51.0442 52.2821C50.6185 52.1243 50.4372 52.6451 50.1139 53.3631C49.6172 54.5073 49.2625 55.7145 49.0575 56.9533C48.8525 58.0186 48.7027 59.0917 48.6081 60.1727C48.6002 60.4015 48.616 60.6382 48.6239 60.8671C48.6712 61.5693 48.6554 61.9638 49.0417 62.0112C49.4675 62.0428 49.5463 61.593 49.8065 60.583H49.8143Z" fill="#191919"/>
<path d="M60.1504 63.7788C61.1044 65.5384 62.7442 66.8246 64.6837 67.3217C65.2671 67.4716 65.7401 67.6452 65.8899 67.2349C66.0397 66.8246 65.6061 66.6825 65.0937 66.3827C63.5642 65.5857 62.1924 64.5047 61.065 63.1949C60.6786 62.8083 60.4737 62.54 60.1583 62.7057C59.8114 62.895 59.9927 63.3527 60.1583 63.7788H60.1504Z" fill="#191919"/>
<path d="M79.2924 62.0979C80.1912 62.8554 81.1688 63.5182 82.2095 64.0706C82.5485 64.2363 83.936 64.8675 84.1568 64.3783C84.3224 64.0311 84.078 63.9206 83.1082 63.171C82.8717 62.9896 80.3961 61.2931 80.2858 61.23C79.9073 60.9775 78.9455 60.4567 78.6617 60.8354C78.4173 61.1826 79.182 62.0032 79.2924 62.0979Z" fill="#191919"/>
</g>
<defs>
<clipPath id="clip0_209_1166">
<rect width="228" height="150" fill="white"/>
</clipPath>
</defs>
</svg>
