<svg xmlns="http://www.w3.org/2000/svg" fill="none" viewBox="-0.25 -0.25 200 200" id="Laboratory--Streamline-Bangalore.svg"><desc>Laboratory Streamline Illustration: https://streamlinehq.com</desc><g id="laboratory--science-technology-laboratory"><g id="room"><path id="vector" stroke="#120071" stroke-linecap="round" stroke-linejoin="round" d="M104.1779025 17.2417875 13.843305 55.1328225v90.77649000000001" stroke-width="0.5"></path><path id="vector_2" fill="#6dd6da" d="M104.1779025 17.2417875v59.438032500000006l16.558500000000002 6.9455925 7.3146675000000005 -9.178995 -0.047880000000000006 -0.0389025c-0.7411425 -0.59052 -0.8039850000000001 -1.745625 -0.1386525 -2.5805325000000003 0.6643350000000001 -0.83391 1.8044775 -1.0314150000000002 2.54562 -0.43989750000000005l8.698200000000002 6.9316275c0.7411425 0.59052 0.8039850000000001 1.745625 0.1386525 2.579535 -0.6643350000000001 0.83391 -1.8044775 1.0314150000000002 -2.54562 0.44089500000000004l-0.047880000000000006 -0.0389025 -5.3755275000000005 6.745095 13.073235 5.483257500000001v-19.211850000000002c0 -0.5965050000000001 6.035872500000001 -0.5965050000000001 6.035872500000001 0v1.5750525c1.570065 -0.277305 5.367547500000001 -0.17955000000000002 5.367547500000001 0.293265v1.6269225c1.570065 -0.277305 5.367547500000001 -0.17955000000000002 5.367547500000001 0.293265v22.386892500000002l-0.0019950000000000002 0.0708225 17.258745 7.2388575v7.038360000000001l-3.26382 1.3695675a19.674690000000002 19.674690000000002 0 0 0 2.4987375 2.3491125l-10.683225000000002 5.2278975c-1.5092174999999999 -0.47082 -2.7900075 -1.3755525000000002 -3.876285 -2.51769l-10.317142500000001 4.327155 -32.88159 -13.7924325 -0.09177 2.7501075000000004 74.75065500000001 31.3544175V55.131825000000006l-90.33659250000001 -37.8900375Z" stroke-width="0.5"></path><path id="vector_3" stroke="#120071" stroke-linecap="round" stroke-linejoin="round" d="M104.1779025 76.67982V17.2417875L194.51250000000002 55.1328225v90.77649000000001" stroke-width="0.5"></path><path id="vector_4" stroke="#120071" stroke-linecap="round" stroke-linejoin="round" d="m75.34716 120.1119675 -61.503855 25.797345A187.699575 187.699575 0 0 0 126.2835 167.7665325" stroke-width="0.5"></path><path id="vector_5" stroke="#120071" stroke-linecap="round" stroke-linejoin="round" d="M146.03499750000003 164.3490975A187.5928425 187.5928425 0 0 0 194.51250000000002 145.90931250000003l-74.75065500000001 -31.3544175" stroke-width="0.5"></path></g><g id="paper 2"><path id="vector_6" stroke="#120071" stroke-linecap="round" stroke-linejoin="round" d="M120.00224250000001 164.25333750000001c3.34761 -0.8349075 5.704702500000001 2.16657 7.2667875 5.24286 2.0678175 4.0727925 4.9476 12.171495 11.658780000000002 12.7630125l13.3834575 -9.280740000000002c-5.6278950000000005 -2.6423775000000003 -4.466805 -6.45981 -7.76055 -11.3086575 -2.0458725 -3.0114525000000003 -7.232872500000001 -5.68176 -10.814895000000002 -6.335122500000001 -4.489747500000001 2.591505 -9.2438325 6.3271425 -13.733580000000002 8.9186475Z" stroke-width="0.5"></path><path id="vector_7" stroke="#120071" stroke-linecap="round" stroke-linejoin="round" d="m132.350295 166.652325 5.895225000000001 -3.93813" stroke-width="0.5"></path><path id="vector_8" stroke="#120071" stroke-linecap="round" stroke-linejoin="round" d="m134.5338225 169.42238250000003 5.895225000000001 -3.93813" stroke-width="0.5"></path><path id="vector_9" stroke="#120071" stroke-linecap="round" stroke-linejoin="round" d="m135.96324 172.26525750000002 5.895225000000001 -3.93813" stroke-width="0.5"></path></g><g id="table"><path id="vector_10" stroke="#120071" stroke-linecap="round" stroke-linejoin="round" d="M78.53517000000001 94.473225v24.301095" stroke-width="0.5"></path><path id="vector_11" stroke="#120071" stroke-linecap="round" stroke-linejoin="round" d="m175.11411750000002 116.2097475 3.2648175000000004 -1.3685700000000003v-7.038360000000001" stroke-width="0.5"></path><path id="vector_12" stroke="#120071" stroke-linecap="round" stroke-linejoin="round" d="m119.853615 111.8047875 32.88258750000001 13.7924325 10.317142500000001 -4.328152500000001" stroke-width="0.5"></path><path id="vector_13" stroke="#120071" stroke-linecap="round" stroke-linejoin="round" d="M78.53517000000001 87.4358625v7.0373625l13.715625000000001 5.75358" stroke-width="0.5"></path><path id="vector_14" stroke="#120071" stroke-linecap="round" stroke-linejoin="round" d="m131.276985 88.0463325 13.073235 5.483257500000001" stroke-width="0.5"></path><path id="vector_15" stroke="#120071" stroke-linecap="round" stroke-linejoin="round" d="M102.54100500000001 97.5046275 78.53517000000001 87.4358625l25.6427325 -10.7560425 16.558500000000002 6.9455925" stroke-width="0.5"></path><path id="vector_16" stroke="#120071" stroke-linecap="round" stroke-linejoin="round" d="m159.574065 115.6910475 -6.837862500000001 2.8678125000000003 -32.65017 -13.6946775" stroke-width="0.5"></path><path id="vector_17" stroke="#120071" stroke-linecap="round" stroke-linejoin="round" d="m161.12019 100.56396000000001 17.258745 7.2388575 -6.9416025 2.9117025" stroke-width="0.5"></path><path id="vector_18" stroke="#120071" stroke-linecap="round" stroke-linejoin="round" d="M178.378935 114.84117750000001v24.301095" stroke-width="0.5"></path><path id="vector_19" stroke="#120071" stroke-linecap="round" stroke-linejoin="round" d="M152.73620250000002 125.59722000000001v24.301095" stroke-width="0.5"></path></g><g id="bottle"><path id="vector_20" stroke="#120071" stroke-linecap="round" stroke-linejoin="round" d="m128.05107 74.4464175 -16.468725000000003 20.666205 -42.241132500000006 11.173995c-3.3765375 0.8927625 -4.648350000000001 5.332635000000001 -2.1097125000000005 7.356562500000001l44.78874750000001 35.6915475c2.539635 2.0239275 6.5835 -0.20748 6.7002075 -3.6987300000000003l1.4633325000000001 -43.66955250000001 16.468725000000003 -20.667202500000002 -8.6014425 -6.85482v0.0019950000000000002Z" stroke-width="0.5"></path><path id="vector_21" fill="#6153bd" d="M112.26762750000002 115.911495c-1.901235 -1.71171 -3.1750425 -4.614435 -5.845350000000001 -5.2578225000000005 -3.0992325000000003 -0.7471275 -4.927650000000001 0.8947575000000001 -6.802950000000001 3.4104525000000003 -2.5366425 3.40347 -4.12167 6.560557500000001 -9.312660000000001 6.16854 -7.7336175 -0.584535 -7.2448425 -11.9350875 -11.261775 -16.512615l-9.704677499999999 2.567565c-3.3765375 0.8927625 -4.648350000000001 5.332635000000001 -2.1097125000000005 7.356562500000001L112.01925 149.33572500000002c2.539635 2.0239275 6.5835 -0.20748 6.7002075 -3.6987300000000003l1.1082225 -33.06114c-1.9231800000000001 3.4653150000000004 -4.6154325 5.986995 -7.5600525 3.33564Z" stroke-width="0.5"></path><path id="vector_22" stroke="#120071" stroke-linecap="round" stroke-linejoin="round" d="M112.26762750000002 115.911495c-1.901235 -1.71171 -3.1750425 -4.614435 -5.845350000000001 -5.2578225000000005 -3.0992325000000003 -0.7471275 -4.927650000000001 0.8947575000000001 -6.802950000000001 3.4104525000000003 -2.5366425 3.40347 -4.12167 6.560557500000001 -9.312660000000001 6.16854 -7.7336175 -0.584535 -7.2448425 -11.9350875 -11.261775 -16.512615l-9.704677499999999 2.567565c-3.3765375 0.8927625 -4.648350000000001 5.332635000000001 -2.1097125000000005 7.356562500000001L112.01925 149.33572500000002c2.539635 2.0239275 6.5835 -0.20748 6.7002075 -3.6987300000000003l1.1082225 -33.06114c-1.9231800000000001 3.4653150000000004 -4.6154325 5.986995 -7.5600525 3.33564Z" stroke-width="0.5"></path><path id="vector_23" stroke="#120071" stroke-linecap="round" stroke-linejoin="round" d="m139.1083575 78.3187125 -8.698200000000002 -6.932625000000001c-0.7411425 -0.5895225 -1.881285 -0.39301500000000006 -2.54562 0.4418925 -0.6643350000000001 0.8349075 -0.60249 1.9890150000000002 0.1386525 2.5805325000000003l8.698200000000002 6.9316275c0.7411425 0.59052 1.881285 0.39401250000000004 2.54562 -0.44089500000000004 0.6643350000000001 -0.8349075 0.60249 -1.9890150000000002 -0.1386525 -2.5805325000000003Z" stroke-width="0.5"></path></g><g id="light"><path id="vector_24" stroke="#120071" stroke-linecap="round" stroke-linejoin="round" d="m83.60646000000001 60.0425175 0.33915000000000006 9.2817375" stroke-width="0.5"></path><path id="vector_25" stroke="#120071" stroke-linecap="round" stroke-linejoin="round" d="m86.73462 58.886415 4.0857600000000005 6.930630000000001" stroke-width="0.5"></path><path id="vector_26" stroke="#120071" stroke-linecap="round" stroke-linejoin="round" d="m80.29875 61.303357500000004 -3.62292 9.702682500000002" stroke-width="0.5"></path><path id="vector_27" stroke="#120071" stroke-linecap="round" stroke-linejoin="round" d="m61.362210000000005 53.61762 10.3610325 4.3461075000000005 29.980860000000003 -12.5754825v2.8438725000000002L71.72324250000001 60.8076l-10.3610325 -4.3461075000000005v-2.8438725000000002Z" stroke-width="0.5"></path><path id="vector_28" stroke="#120071" stroke-linecap="round" stroke-linejoin="round" d="m61.362210000000005 53.61762 10.3610325 4.3461075000000005 29.980860000000003 -12.5754825 -10.3610325 -4.3461075000000005 -29.980860000000003 12.5754825Z" stroke-width="0.5"></path><path id="vector_29" stroke="#120071" stroke-linecap="round" stroke-linejoin="round" d="M70.433475 53.684452500000006V36.686055" stroke-width="0.5"></path><path id="vector_30" stroke="#120071" stroke-linecap="round" stroke-linejoin="round" d="M92.60590499999999 44.67603v-16.9974" stroke-width="0.5"></path></g><g id="bubble"><path id="vector_31" fill="#6153bd" d="M137.074455 57.963727500000005c-2.46582 0 -4.46481 1.2837825 -4.46481 2.8668150000000003 0 1.5830325 1.99899 2.8658175000000004 4.46481 2.8658175000000004s4.46481 -1.282785 4.46481 -2.8658175000000004c0 -1.5830325 -1.99899 -2.8668150000000003 -4.46481 -2.8668150000000003Z" stroke-width="0.5"></path><path id="vector_32" stroke="#120071" stroke-linecap="round" stroke-linejoin="round" d="M137.074455 57.963727500000005c-2.46582 0 -4.46481 1.2837825 -4.46481 2.8668150000000003 0 1.5830325 1.99899 2.8658175000000004 4.46481 2.8658175000000004s4.46481 -1.282785 4.46481 -2.8658175000000004c0 -1.5830325 -1.99899 -2.8668150000000003 -4.46481 -2.8668150000000003Z" stroke-width="0.5"></path><path id="vector_33" fill="#6153bd" d="M141.4325325 53.684452500000006c2.4069675 0 4.359075000000001 -2.29425 4.359075000000001 -5.126152500000001 0 -2.8309050000000004 -1.9521075 -5.126152500000001 -4.359075000000001 -5.126152500000001 -2.4069675 0 -4.359075000000001 2.29425 -4.359075000000001 5.126152500000001 0 2.8309050000000004 1.9521075 5.126152500000001 4.359075000000001 5.126152500000001Z" stroke-width="0.5"></path><path id="vector_34" stroke="#120071" stroke-linecap="round" stroke-linejoin="round" d="M141.4325325 53.684452500000006c2.4069675 0 4.359075000000001 -2.29425 4.359075000000001 -5.126152500000001 0 -2.8309050000000004 -1.9521075 -5.126152500000001 -4.359075000000001 -5.126152500000001 -2.4069675 0 -4.359075000000001 2.29425 -4.359075000000001 5.126152500000001 0 2.8309050000000004 1.9521075 5.126152500000001 4.359075000000001 5.126152500000001Z" stroke-width="0.5"></path><path id="vector_35" fill="#6153bd" d="M152.95066500000001 41.0421375c3.9540900000000003 0 7.1590575 -3.5640675 7.1590575 -7.960050000000001s-3.2049675000000004 -7.960050000000001 -7.1590575 -7.960050000000001c-3.9540900000000003 0 -7.1590575 3.5640675 -7.1590575 7.960050000000001s3.2049675000000004 7.960050000000001 7.1590575 7.960050000000001Z" stroke-width="0.5"></path><path id="vector_36" stroke="#120071" stroke-linecap="round" stroke-linejoin="round" d="M152.95066500000001 41.0421375c3.9540900000000003 0 7.1590575 -3.5640675 7.1590575 -7.960050000000001s-3.2049675000000004 -7.960050000000001 -7.1590575 -7.960050000000001c-3.9540900000000003 0 -7.1590575 3.5640675 -7.1590575 7.960050000000001s3.2049675000000004 7.960050000000001 7.1590575 7.960050000000001Z" stroke-width="0.5"></path></g><g id="magnifier"><path id="vector_37" fill="#6153bd" d="m54.832575 157.4224575 -7.421400000000001 10.918635a3.221925 3.221925 0 1 0 5.330640000000001 3.62292l7.421400000000001 -10.9196325a13.645800000000001 13.645800000000001 0 0 1 -5.330640000000001 -3.62292v0.0009975000000000001Z" stroke-width="0.5"></path><path id="vector_38" stroke="#120071" stroke-linecap="round" stroke-linejoin="round" d="m54.832575 157.4224575 -7.421400000000001 10.918635a3.221925 3.221925 0 1 0 5.330640000000001 3.62292l7.421400000000001 -10.9196325a13.645800000000001 13.645800000000001 0 0 1 -5.330640000000001 -3.62292v0.0009975000000000001Z" stroke-width="0.5"></path><path id="vector_39" stroke="#120071" stroke-linecap="round" stroke-linejoin="round" d="M72.51825000000001 137.134305c-6.190485000000001 -4.207455 -14.6203575 -2.599485 -18.8278125 3.591 -4.207455 6.190485000000001 -2.599485 14.6203575 3.591 18.8278125 6.190485000000001 4.207455 14.6203575 2.599485 18.8278125 -3.591 4.207455 -6.190485000000001 2.599485 -14.6203575 -3.591 -18.8278125Z" stroke-width="0.5"></path><path id="vector_40" stroke="#120071" stroke-linecap="round" stroke-linejoin="round" d="M70.28784 140.41608000000002c-4.3790249999999995 -2.9755425000000004 -10.3410825 -1.83939 -13.316625 2.539635 -2.9755425000000004 4.3790249999999995 -1.8383925 10.3410825 2.539635 13.316625 4.378027500000001 2.9755425000000004 10.3410825 1.8383925 13.316625 -2.539635 2.9755425000000004 -4.3790249999999995 1.8383925 -10.3410825 -2.539635 -13.316625Z" stroke-width="0.5"></path></g><g id="tube"><path id="vector_41" stroke="#120071" stroke-linecap="round" stroke-linejoin="round" d="M150.38609250000002 75.891795v-1.5760500000000002c0 -0.5955075 -6.035872500000001 -0.5955075 -6.035872500000001 0v22.38789a3.0174375 3.0174375 0 0 0 5.368545 1.89126l0 -0.0229425" stroke-width="0.5"></path><path id="vector_42" stroke="#120071" stroke-linecap="round" stroke-linejoin="round" d="M155.75364000000002 77.81298v-1.6269225c0 -0.5965050000000001 -6.035872500000001 -0.5965050000000001 -6.035872500000001 0V98.57294999999999a3.0174375 3.0174375 0 0 0 5.367547500000001 1.8922575000000001" stroke-width="0.5"></path><path id="vector_43" stroke="#120071" stroke-linecap="round" stroke-linejoin="round" d="M155.0863125 78.10624500000002v22.386892500000002a3.0174375 3.0174375 0 1 0 6.034875 0V78.10624500000002c0 -0.5965050000000001 -6.035872500000001 -0.5965050000000001 -6.035872500000001 0h0.0009975000000000001Z" stroke-width="0.5"></path></g><g id="paper 1"><path id="vector_44" stroke="#120071" stroke-linecap="round" stroke-linejoin="round" d="m166.92963000000003 123.78675750000001 10.683225000000002 -5.2278975c-5.476275 -4.3231649999999995 -6.66729 -9.79944 -10.095697500000002 -15.048285000000002l-11.9909475 3.9850125000000003c2.028915 2.739135 3.026415 6.082755000000001 4.4887500000000005 9.1620375 1.462335 3.0792825 3.6598275000000005 6.114675 6.9136725000000006 7.129132500000001h0.0009975000000000001Z" stroke-width="0.5"></path><path id="vector_45" stroke="#120071" stroke-linecap="round" stroke-linejoin="round" d="m162.98352 112.057155 4.9436100000000005 -1.8453750000000002" stroke-width="0.5"></path><path id="vector_46" stroke="#120071" stroke-linecap="round" stroke-linejoin="round" d="m163.96007250000002 114.6726 4.9436100000000005 -1.8453750000000002" stroke-width="0.5"></path><path id="vector_47" stroke="#120071" stroke-linecap="round" stroke-linejoin="round" d="m165.21393 117.08655 4.9436100000000005 -1.8453750000000002" stroke-width="0.5"></path></g><g id="door"><path id="vector_48" fill="#6dd6da" d="M52.38870000000001 59.321325 28.1843625 69.47388v70.41951l24.202342500000004 -10.151557500000001V59.321325Z" stroke-width="0.5"></path><path id="vector_49" stroke="#120071" stroke-linecap="round" stroke-linejoin="round" d="M52.38870000000001 59.321325 28.1843625 69.47388v70.41951l24.202342500000004 -10.151557500000001V59.321325Z" stroke-width="0.5"></path><path id="vector_50" fill="#6153bd" d="M48.40468500000001 99.72207c-0.7890225000000001 0 -1.42842 0.7900200000000001 -1.42842 1.7655750000000001s0.6393975000000001 1.7655750000000001 1.42842 1.7655750000000001c0.7890225000000001 0 1.42842 -0.7900200000000001 1.42842 -1.7655750000000001s-0.6393975000000001 -1.7655750000000001 -1.42842 -1.7655750000000001Z" stroke-width="0.5"></path><path id="vector_51" stroke="#120071" stroke-linecap="round" stroke-linejoin="round" d="M48.40468500000001 99.72207c-0.7890225000000001 0 -1.42842 0.7900200000000001 -1.42842 1.7655750000000001s0.6393975000000001 1.7655750000000001 1.42842 1.7655750000000001c0.7890225000000001 0 1.42842 -0.7900200000000001 1.42842 -1.7655750000000001s-0.6393975000000001 -1.7655750000000001 -1.42842 -1.7655750000000001Z" stroke-width="0.5"></path></g><g id="elements"><g id="group"><path id="vector_52" stroke="#120071" stroke-linecap="round" stroke-linejoin="round" d="M177.612855 34.984320000000004h10.47774" stroke-width="0.5"></path><path id="vector_53" stroke="#120071" stroke-linecap="round" stroke-linejoin="round" d="M182.85172500000002 40.22319V29.746447500000002" stroke-width="0.5"></path></g><g id="group_2"><path id="vector_54" stroke="#120071" stroke-linecap="round" stroke-linejoin="round" d="M161.293755 57.30438h5.7146775000000005" stroke-width="0.5"></path><path id="vector_55" stroke="#120071" stroke-linecap="round" stroke-linejoin="round" d="M164.150595 60.162217500000004v-5.7146775000000005" stroke-width="0.5"></path></g><g id="group_3"><path id="vector_56" stroke="#120071" stroke-linecap="round" stroke-linejoin="round" d="m174.67422 160.9795425 7.4084325 7.4084325" stroke-width="0.5"></path><path id="vector_57" stroke="#120071" stroke-linecap="round" stroke-linejoin="round" d="m174.67422 168.387975 7.4084325 -7.4084325" stroke-width="0.5"></path></g><g id="group_4"><path id="vector_58" stroke="#120071" stroke-linecap="round" stroke-linejoin="round" d="m4.987500000000001 112.9519125 3.77853 3.77853" stroke-width="0.5"></path><path id="vector_59" stroke="#120071" stroke-linecap="round" stroke-linejoin="round" d="m4.987500000000001 116.73044250000001 3.77853 -3.77853" stroke-width="0.5"></path></g><path id="vector_60" stroke="#120071" stroke-linecap="round" stroke-linejoin="round" d="m28.185360000000003 39.690525 3.2388825 5.3426100000000005 3.81045 -7.981995000000001" stroke-width="0.5"></path></g></g></svg>