<svg xmlns="http://www.w3.org/2000/svg" fill="none" viewBox="-0.25 -0.25 200 200" id="Mathematician-2--Streamline-Bangalore.svg"><desc>Mathematician 2 Streamline Illustration: https://streamlinehq.com</desc><g id="mathematician-2--science-technology-mathematician"><g id="board"><path id="vector" stroke="#120071" stroke-linecap="round" stroke-linejoin="round" d="M177.17096250000003 151.60005H30.781852500000003v8.41491h146.38911000000002v-8.41491Z" stroke-width="0.5"></path><path id="vector_2" fill="#6153bd" d="M40.504485 62.6559675v4.32516a19.418332499999998 19.418332499999998 0 0 1 5.0034600000000005 3.9411225v-3.281775h116.93692500000002v78.956115h-98.59290000000001l0.381045 5.0034600000000005h103.215315V62.6559675H40.504485Z" stroke-width="0.5"></path><path id="vector_3" stroke="#120071" stroke-linecap="round" stroke-linejoin="round" d="M64.23301500000001 151.60005h103.215315V62.6559675H40.504485v4.32516" stroke-width="0.5"></path><path id="vector_4" stroke="#120071" stroke-linecap="round" stroke-linejoin="round" d="M45.507945 70.9192575V67.64047500000001h116.93692500000002v78.956115h-98.59290000000001" stroke-width="0.5"></path><path id="vector_5" stroke="#120071" stroke-linecap="round" stroke-linejoin="round" d="M53.56575000000001 90.97200000000001a12.111645 12.111645 0 0 0 -5.187 -4.967550000000001" stroke-width="0.5"></path><path id="vector_6" stroke="#120071" stroke-linecap="round" stroke-linejoin="round" d="M83.09873250000001 122.64063C80.89725 126.35033250000001 78.2608575 128.77725 74.8125 128.77725c-2.9216775 0 -5.2578225000000005 -1.741635 -7.242847500000001 -4.5256575" stroke-width="0.5"></path><path id="vector_7" stroke="#120071" stroke-linecap="round" stroke-linejoin="round" d="M162.255345 85.455825c-14.5744725 0 -14.5744725 43.325415 -29.148945 43.325415S118.5319275 85.455825 103.95745500000001 85.455825c-7.140105000000001 0 -10.7819775 10.39794 -14.354025000000002 21.006352500000002" stroke-width="0.5"></path><path id="vector_8" stroke="#120071" stroke-linecap="round" stroke-linejoin="round" d="M75.89379000000001 119.30499h-7.121152500000001" stroke-width="0.5"></path><path id="vector_9" stroke="#120071" stroke-linecap="round" stroke-linejoin="round" d="M157.782555 119.30499h-43.931895000000004" stroke-width="0.5"></path><path id="vector_10" stroke="#120071" stroke-linecap="round" stroke-linejoin="round" d="m152.22947249999999 116.310495 5.5530825 2.994495 -5.5530825 2.994495" stroke-width="0.5"></path><path id="vector_11" stroke="#120071" stroke-linecap="round" stroke-linejoin="round" d="M142.52579250000002 101.01582750000001c-2.5935 0.8149575 -3.10821 -5.6857500000000005 -3.10821 -5.6857500000000005 -1.09725 3.0513525 -3.6907500000000004 9.417397500000002 -5.3067 4.6433625 -1.4364000000000001 -4.247355000000001 1.197 -6.28425 3.3915 -6.557565a3.030405 3.030405 0 0 1 3.221925 2.29425" stroke-width="0.5"></path><path id="vector_12" stroke="#120071" stroke-linecap="round" stroke-linejoin="round" d="m67.5876075 80.64189 6.8039475000000005 12.736080000000001 4.131645000000001 -18.004875000000002h27.064170000000004" stroke-width="0.5"></path><path id="vector_13" stroke="#120071" stroke-linecap="round" stroke-linejoin="round" d="M103.9764075 85.455825v28.54446" stroke-width="0.5"></path><path id="vector_14" stroke="#120071" stroke-linecap="round" stroke-linejoin="round" d="m107.25519000000001 86.2707825 -3.2787825 2.8239225" stroke-width="0.5"></path><path id="vector_15" stroke="#120071" stroke-linecap="round" stroke-linejoin="round" d="m111.27312 90.0612825 -7.296712500000001 6.274275" stroke-width="0.5"></path><path id="vector_16" stroke="#120071" stroke-linecap="round" stroke-linejoin="round" d="m114.00228 94.9510275 -10.0258725 8.64234" stroke-width="0.5"></path><path id="vector_17" stroke="#120071" stroke-linecap="round" stroke-linejoin="round" d="m116.18181750000001 100.2956325 -12.20541 10.53759" stroke-width="0.5"></path><path id="vector_18" stroke="#120071" stroke-linecap="round" stroke-linejoin="round" d="m118.20973500000001 106.1330025 -11.27175 9.4553025" stroke-width="0.5"></path><path id="vector_19" stroke="#120071" stroke-linecap="round" stroke-linejoin="round" d="m120.02917500000001 111.4776075 -7.968030000000001 6.8697825" stroke-width="0.5"></path><path id="vector_20" stroke="#120071" stroke-linecap="round" stroke-linejoin="round" d="m122.07604500000001 116.95488000000002 -2.7102075 2.35011" stroke-width="0.5"></path><path id="vector_21" stroke="#120071" stroke-linecap="round" stroke-linejoin="round" d="M30.781852500000003 156.6603675h146.38911000000002" stroke-width="0.5"></path></g><g id="protractor"><path id="vector_22" fill="#6dd6da" d="M172.717125 56.477452500000005c-6.67128 -6.936615 -17.6447775 -7.505190000000001 -25.9080675 -1.8762975000000002l-3.0134475000000003 -3.146115 -4.62441 4.4538375 32.787825 34.11450000000001 4.62441 -4.4538375 -3.0134475000000003 -3.1271625c5.970037500000001 -8.03586 5.818417500000001 -19.02831 -0.8528625000000001 -25.964925Zm-3.3735450000000005 21.567945 -18.308115 -19.0472625c5.60994 -3.2408775000000003 12.679222500000002 -2.6343975 17.057250000000003 1.933155 4.378027500000001 4.5675525 4.7191725 11.636835000000001 1.2508650000000001 17.1141075Z" stroke-width="0.5"></path><path id="vector_23" stroke="#120071" stroke-linecap="round" stroke-linejoin="round" d="M173.5699875 82.4423775c5.970037500000001 -8.03586 5.818417500000001 -19.02831 -0.8528625000000001 -25.964925 -6.67128 -6.936615 -17.6447775 -7.505190000000001 -25.9080675 -1.8762975000000002l-3.0134475000000003 -3.146115 -4.62441 4.4538375 32.787825 34.11450000000001 4.62441 -4.4538375 -3.0134475000000003 -3.1271625Zm-5.4772725 -21.511087500000002c4.378027500000001 4.5675525 4.7191725 11.636835000000001 1.2508650000000001 17.1141075l-18.308115 -19.0472625c5.60994 -3.2378850000000003 12.679222500000002 -2.6343975 17.057250000000003 1.933155Z" stroke-width="0.5"></path></g><g id="elements"><path id="vector_24" stroke="#120071" stroke-linecap="round" stroke-linejoin="round" d="m91.1006775 31.75242 -5.004457500000001 8.66628L94.7625 45.422160000000005l5.0034600000000005 -8.66628 -8.66628 -5.0034600000000005Z" stroke-width="0.5"></path><path id="vector_25" stroke="#120071" stroke-linecap="round" stroke-linejoin="round" d="M14.4827025 96.5430375 4.987500000000001 97.56647250000002l3.86631 -8.7371025 5.6288925 7.7136675Z" stroke-width="0.5"></path><path id="vector_26" stroke="#120071" stroke-linecap="round" stroke-linejoin="round" d="m188.940465 105.24223500000001 -0.0189525 11.163022500000002" stroke-width="0.5"></path><path id="vector_27" stroke="#120071" stroke-linecap="round" stroke-linejoin="round" d="m194.51250000000002 110.8332225 -11.163022500000002 -0.0189525" stroke-width="0.5"></path></g><g id="character"><path id="vector_28" fill="#6dd6da" d="M117.67906500000001 139.39464c-3.9072075 -5.6807625 -5.5530825 -7.362547500000001 -6.318165 -7.994962500000001 1.7625825 1.6867725000000002 4.1386275 9.1700175 5.560065 11.38746 0.4738125 0.7581 1.0044825 0.5875275 1.0613400000000002 -0.2084775a17.855249999999998 17.855249999999998 0 0 0 -0.30324 -3.1840200000000003Z" stroke-width="0.5"></path><path id="vector_29" stroke="#120071" stroke-linecap="round" stroke-linejoin="round" d="M117.67906500000001 139.39464c-3.9072075 -5.6807625 -5.5530825 -7.362547500000001 -6.318165 -7.994962500000001 1.7625825 1.6867725000000002 4.1386275 9.1700175 5.560065 11.38746 0.4738125 0.7581 1.0044825 0.5875275 1.0613400000000002 -0.2084775a17.855249999999998 17.855249999999998 0 0 0 -0.30324 -3.1840200000000003Z" stroke-width="0.5"></path><path id="vector_30" fill="#6dd6da" d="M63.2415 138.602625a2.4738 2.4738 0 0 1 -0.39301500000000006 0.7541100000000001c-0.2503725 0.349125 -1.3615875000000002 1.7346525000000002 -2.2064700000000004 2.798985a2.1655725 2.1655725 0 0 1 -0.5605950000000001 0.7072275l-3.664815 2.635395 -1.37655 1.609965a2.33415 2.33415 0 0 1 -2.04687 0.798c-4.56855 -0.61845 -9.177 -0.8588475 -11.471250000000001 -1.1172000000000002 0.5566050000000001 1.49625 1.4763000000000002 2.499735 2.6094600000000003 2.6244225a128.04708 128.04708 0 0 1 -16.9176 -1.5810375 133.48345500000002 133.48345500000002 0 0 0 -2.475795 19.915087500000002h40.7269275L63.2415 138.602625Z" stroke-width="0.5"></path><path id="vector_31" fill="#6dd6da" d="M38.5284375 134.4799575 38.9025 132.96675000000002c-2.5545975000000003 -0.0867825 -4.967550000000001 -0.2523675 -7.1171625 -0.4698225 0 0 -0.1586025 0.33516 -0.424935 0.9845325 2.0019825000000004 0.3281775 4.449847500000001 0.688275 7.168035000000001 0.9984974999999999Z" stroke-width="0.5"></path><path id="vector_32" stroke="#120071" stroke-linecap="round" stroke-linejoin="round" d="m63.2415 138.602625 2.22243 29.144955000000003" stroke-width="0.5"></path><path id="vector_33" stroke="#120071" stroke-linecap="round" stroke-linejoin="round" d="M31.361400000000003 133.48046250000002c0.26832750000000005 -0.65436 0.424935 -0.9845325 0.424935 -0.9845325" stroke-width="0.5"></path><path id="vector_34" stroke="#120071" stroke-linecap="round" stroke-linejoin="round" d="M24.738000000000003 167.74758000000003a133.6280925 133.6280925 0 0 1 2.475795 -19.91808" stroke-width="0.5"></path><path id="vector_35" stroke="#120071" stroke-linecap="round" stroke-linejoin="round" d="M38.5284375 134.4799575c-7.1271375 -0.8129625 -12.46875 -1.9840275000000003 -12.46875 -1.9840275000000003 1.49625 -3.7146900000000005 2.539635 -6.822900000000001 4.16955 -10.1395875l1.554105 10.1395875c2.1496125 0.2124675 4.561567500000001 0.38403750000000003 7.1171625 0.4698225" stroke-width="0.5"></path><path id="vector_36" stroke="#120071" stroke-linecap="round" stroke-linejoin="round" d="M64.205085 117.7259475c0.0668325 -1.3635825000000001 0.0947625 -2.7201825 0.08478750000000002 -4.0688025 4.131645000000001 2.4448725000000002 39.080055 18.289162500000003 43.666560000000004 20.1495a23.2188075 23.2188075 0 0 0 7.164045000000001 -13.835325c-5.848342500000001 -2.9635725 -52.646055000000004 -29.243707500000003 -63.77516250000001 -29.243707500000003 -3.305715 5.08725 -10.830855000000001 4.1665575 -16.640295 2.5585875000000002 -0.22743000000000002 0.0947625 -0.472815 0.209475 -0.69825 0.29925 -5.2867500000000005 2.160585 -13.21488 5.723655000000001 -21.2268 26.8935975 -7.2129225 19.057237500000003 -0.94962 23.46918 4.4538375 25.0173 9.094207500000001 2.6054700000000004 15.699652500000001 3.4403775 26.90058 3.91419" stroke-width="0.5"></path><path id="vector_37" fill="#6153bd" d="M41.521935 146.7871125c0.5566050000000001 1.49625 1.4763000000000002 2.499735 2.6094600000000003 2.6244225 1.1680725 0.1286775 2.3201850000000004 -0.7052325 3.1989825 -2.120685 -2.39799 -0.21147000000000002 -4.4917425 -0.35910000000000003 -5.808442500000001 -0.5037375000000001Z" stroke-width="0.5"></path><path id="vector_38" stroke="#120071" stroke-linecap="round" stroke-linejoin="round" d="M41.16981750000001 140.8240575a13.865250000000001 13.865250000000001 0 0 0 -0.15261750000000002 0.9975c-0.43391250000000003 3.9540900000000003 0.9605925000000001 7.3505775 3.114195 7.586985 1.1700675 0.1286775 2.3201850000000004 -0.69825 3.1989825 -2.120685" stroke-width="0.5"></path><path id="vector_39" stroke="#120071" stroke-linecap="round" stroke-linejoin="round" d="M30.5544225 121.7119575c-0.11371500000000001 0.2084775 -0.2084775 0.416955 -0.32219250000000005 0.6443850000000001" stroke-width="0.5"></path><path id="vector_40" stroke="#120071" stroke-linecap="round" stroke-linejoin="round" d="M64.2898725 113.657145a61.7123325 61.7123325 0 0 0 -0.8149575 -9.7226325" stroke-width="0.5"></path><path id="vector_41" fill="#6dd6da" d="M34.705020000000005 93.2832075c5.80944 1.6079700000000001 13.33458 2.527665 16.640295 -2.5585875000000002 -1.3426350000000002 0 -3.9570825000000003 -0.6643350000000001 -4.85184 -1.8573450000000002 -0.253365 -0.7880250000000001 -0.41895 -1.6019850000000002 -0.492765 -2.42592 1.6109625 -0.11371500000000001 3.7675575 -0.5715675 4.85184 -2.1037275 1.20897 -1.7087175000000001 -0.33017250000000004 -6.7221525 -4.4887500000000005 -12.375982500000001 -5.187 -7.0433475 -8.1306225 1.1181975 -7.239855 5.2498425 0 1.3566000000000003 -1.2777975 0.580545 -1.7625825 0.32219250000000005 -2.97654 -1.5900150000000002 -4.2962325 3.3625725 1.09725 4.85184 0.5675775 0.1566075 1.6109625 7.827382500000001 1.3456275 7.790475 -0.0039900000000000005 0.2643375 -2.256345 1.8753 -5.099220000000001 3.1072125000000006Z" stroke-width="0.5"></path><path id="vector_42" stroke="#120071" stroke-linecap="round" stroke-linejoin="round" d="M34.705020000000005 93.2832075c5.80944 1.6079700000000001 13.33458 2.527665 16.640295 -2.5585875000000002 -1.3426350000000002 0 -3.9570825000000003 -0.6643350000000001 -4.85184 -1.8573450000000002 -0.253365 -0.7880250000000001 -0.41895 -1.6019850000000002 -0.492765 -2.42592 1.6109625 -0.11371500000000001 3.7675575 -0.5715675 4.85184 -2.1037275 1.20897 -1.7087175000000001 -0.33017250000000004 -6.7221525 -4.4887500000000005 -12.375982500000001 -5.187 -7.0433475 -8.1306225 1.1181975 -7.239855 5.2498425 0 1.3566000000000003 -1.2777975 0.580545 -1.7625825 0.32219250000000005 -2.97654 -1.5900150000000002 -4.2962325 3.3625725 1.09725 4.85184 0.5675775 0.1566075 1.6109625 7.827382500000001 1.3456275 7.790475 -0.0039900000000000005 0.2643375 -2.256345 1.8753 -5.099220000000001 3.1072125000000006Z" stroke-width="0.5"></path><path id="vector_43" stroke="#120071" stroke-linecap="round" stroke-linejoin="round" d="m51.345315 90.72462 3.89025 6.026895000000001 -9.32463 -2.5017300000000002 -5.07927 5.53413 -6.1216574999999995 -6.500707500000001" stroke-width="0.5"></path><path id="vector_44" stroke="#120071" stroke-linecap="round" stroke-linejoin="round" d="m26.06268 132.49593000000002 -2.388015 -0.4738125" stroke-width="0.5"></path><path id="vector_45" fill="#6153bd" d="m56.078452500000004 121.31595000000002 -8.31516 -20.167455 0.12269250000000001 17.50413 8.1924675 2.663325Z" stroke-width="0.5"></path><path id="vector_46" stroke="#120071" stroke-linecap="round" stroke-linejoin="round" d="m56.078452500000004 121.31595000000002 -8.31516 -20.167455 0.12269250000000001 17.50413" stroke-width="0.5"></path><path id="vector_47" stroke="#120071" stroke-linecap="round" stroke-linejoin="round" d="m57.2964 121.7119575 -13.759515 -4.47279 -0.5576025000000001 2.3271675000000003 14.3171175 2.1456225Z" stroke-width="0.5"></path><path id="vector_48" stroke="#120071" stroke-linecap="round" stroke-linejoin="round" d="m63.3143175 137.94826500000002 1.0703175 -0.6384000000000001 4.7570775 -19.521075 -2.6154450000000002 -1.402485 -9.229867500000001 5.3256525 -15.048285000000002 -2.2553475 -4.813935 19.445265 2.2553475 1.7057250000000002 13.050292500000001 1.9122075" stroke-width="0.5"></path><path id="vector_49" stroke="#120071" stroke-linecap="round" stroke-linejoin="round" d="m57.2964 121.7119575 2.5964925000000005 1.5920100000000001 -4.2443625 17.245777500000003" stroke-width="0.5"></path><path id="vector_50" stroke="#120071" stroke-linecap="round" stroke-linejoin="round" d="m69.1417125 117.78879 -9.24882 5.5151775 -15.38943 -2.2742999999999998 -2.2553475 -1.5730575" stroke-width="0.5"></path><path id="vector_51" stroke="#120071" stroke-linecap="round" stroke-linejoin="round" d="m44.503462500000005 121.0296675 -4.813935 19.5779325" stroke-width="0.5"></path><path id="vector_52" stroke="#120071" stroke-linecap="round" stroke-linejoin="round" d="M62.3228025 137.2390425c-0.0329175 0.09975 -1.4812875 4.56855 -1.596 4.815930000000001 0.83391 -1.0483725 1.8842775 -2.3590875000000002 2.1266700000000003 -2.6982375000000003 0.8987475 -1.202985 0.4119675 -2.2553475 -0.5306700000000001 -2.1176925000000004Z" stroke-width="0.5"></path><path id="vector_53" stroke="#120071" stroke-linecap="round" stroke-linejoin="round" d="M60.983160000000005 134.58669c-0.019950000000000002 0.33316500000000004 -0.620445 5.129145 -0.7112175000000001 5.831385 -0.1187025 0.9047325 -0.25536000000000003 0.8758050000000001 -3.85434 5.080267500000001l3.664815 -2.635395c0.34014750000000005 -0.2703225 0.5965050000000001 -0.6314175000000001 0.7391475000000001 -1.0423875 0.45486000000000004 -1.3835325 1.5351525 -4.662315 1.781535 -5.4583200000000005 0.5216925 -1.7286675000000002 -0.6194475 -2.6483624999999997 -1.6199400000000002 -1.7755500000000002Z" stroke-width="0.5"></path><path id="vector_54" stroke="#120071" stroke-linecap="round" stroke-linejoin="round" d="M58.5283125 134.5238475a24.010822500000003 24.010822500000003 0 0 1 -1.2887700000000002 4.16955 4.1126925000000005 4.1126925000000005 0 0 1 -1.0044825 1.4593425000000002l-3.49125 2.3670675000000005 -11.571 -1.69575a11.529105000000001 11.529105000000001 0 0 0 0.33915000000000006 5.9620575c2.29425 0.25835250000000004 6.9096825 0.49875 11.485215 1.1181975a2.33415 2.33415 0 0 0 2.04687 -0.798l4.7191725 -5.5151775c0.27930000000000005 -0.33416250000000003 0.45785250000000005 -0.74214 0.5117175 -1.175055 0.189525 -1.4593425000000002 0.60648 -4.8707925 0.69825 -5.704702500000001 0.22743000000000002 -2.2912575000000004 -1.933155 -2.76507 -2.4448725000000002 -0.18753Z" stroke-width="0.5"></path><path id="vector_55" stroke="#120071" stroke-linecap="round" stroke-linejoin="round" d="m52.73982 142.5198075 -1.6029825 0.8548575" stroke-width="0.5"></path><path id="vector_56" stroke="#120071" stroke-linecap="round" stroke-linejoin="round" d="m67.45494 116.87907 -6.0837525 3.5820225000000003" stroke-width="0.5"></path><path id="vector_57" stroke="#120071" stroke-linecap="round" stroke-linejoin="round" d="m39.93591000000001 135.07347000000001 -1.1940075 4.813935" stroke-width="0.5"></path><path id="vector_58" stroke="#120071" stroke-linecap="round" stroke-linejoin="round" d="m43.536885000000005 120.36633000000002 -2.7102075 11.030355" stroke-width="0.5"></path><path id="vector_59" stroke="#120071" stroke-linecap="round" stroke-linejoin="round" d="M44.777775000000005 79.3441425c1.05735 -0.50673 1.3945049999999999 -2.0039775 0.7531125000000001 -3.3446175000000005 -0.64239 -1.34064 -2.0199375 -2.0169449999999998 -3.0772875 -1.510215 -1.05735 0.5057325 -1.3935075000000001 2.00298 -0.7521150000000001 3.34362 0.6413925 1.34064 2.01894 2.0169449999999998 3.07629 1.5112125Z" stroke-width="0.5"></path><path id="vector_60" stroke="#120071" stroke-linecap="round" stroke-linejoin="round" d="M50.595195000000004 76.63194c0.64239 -0.30723 0.64239 -1.6428825 0 -2.9835225000000003 -0.6413925 -1.34064 -1.681785 -2.1785400000000004 -2.3241750000000003 -1.87131 -0.6413925 0.30723 -0.64239 1.64388 0 2.9845200000000003 0.6413925 1.34064 1.6827825 2.1775425 2.3241750000000003 1.8703125Z" stroke-width="0.5"></path><path id="vector_61" stroke="#120071" stroke-linecap="round" stroke-linejoin="round" d="m45.526897500000004 75.97957500000001 2.7481125 -1.2319125000000002" stroke-width="0.5"></path><path id="vector_62" stroke="#120071" stroke-linecap="round" stroke-linejoin="round" d="m41.414205 76.90725 -2.31021 0.22244250000000002" stroke-width="0.5"></path><path id="vector_63" fill="#6153bd" d="m45.9059475 94.249785 -1.6109625 3.5441175 3.4683075 3.3545925000000003 1.3835325 -4.4917425 -3.2408775000000003 -2.4069675Z" stroke-width="0.5"></path><path id="vector_64" stroke="#120071" stroke-linecap="round" stroke-linejoin="round" d="m45.9059475 94.249785 -1.6109625 3.5441175 3.4683075 3.3545925000000003 1.3835325 -4.4917425 -3.2408775000000003 -2.4069675Z" stroke-width="0.5"></path><path id="vector_65" stroke="#120071" stroke-linecap="round" stroke-linejoin="round" d="m45.69747 167.74758000000003 5.268795 -15.46524" stroke-width="0.5"></path><path id="vector_66" stroke="#120071" stroke-linecap="round" stroke-linejoin="round" d="M39.449130000000004 86.38848750000001c-0.29925 -1.945125 -0.7052325 -3.9271575 -0.991515 -4.0029675000000005 -5.386500000000001 -1.5361500000000001 -4.0747875 -6.44385 -1.09725 -4.85184 0.484785 0.25835250000000004 1.7625825 1.0344075 1.7625825 -0.32219250000000005 -0.798 -3.7007250000000003 1.4902650000000002 -10.6383375 5.69373 -6.9825 -2.802975 -3.1580850000000003 -10.24233 -6.190485000000001 -10.223377500000002 -6.1715325000000005 -3.0922500000000004 -1.4593425000000002 -4.8707925 1.97106 -2.4827775 3.7905 -3.146115 -1.3466250000000002 -5.07927 2.822925 -1.89525 4.2264075000000005 -3.2787825 -0.9097200000000001 -4.378027500000001 3.9231675 -1.402485 4.5885a2.3072175 2.3072175 0 1 0 -0.6443850000000001 4.5675525s10.1355975 0.6753075000000001 11.2807275 5.157075Z" stroke-width="0.5"></path><path id="vector_67" fill="#6153bd" d="M46.25607 88.01241750000001a9.0223875 9.0223875 0 0 1 -0.25536000000000003 -1.5710625 7.6209 7.6209 0 0 1 -2.4448725000000002 -0.3600975l2.7002325 1.93116Z" stroke-width="0.5"></path><path id="vector_68" stroke="#120071" stroke-linecap="round" stroke-linejoin="round" d="M46.25607 88.01241750000001a9.0223875 9.0223875 0 0 1 -0.25536000000000003 -1.5710625 7.6209 7.6209 0 0 1 -2.4448725000000002 -0.3600975l2.7002325 1.93116Z" stroke-width="0.5"></path><path id="vector_69" fill="#6dd6da" d="M123.971295 142.54275c-4.3740375 -4.5485999999999995 -8.026882500000001 -9.454305 -13.494180000000002 -11.5041675a22.59138 22.59138 0 0 0 3.676785 -6.89871c3.8084550000000004 5.2677975 8.998447500000001 11.680725 11.181975000000001 17.73954 0.3561075 0.9845325 -0.5655825 1.4922600000000001 -1.3645800000000001 0.6633375Z" stroke-width="0.5"></path><path id="vector_70" stroke="#120071" stroke-linecap="round" stroke-linejoin="round" d="M123.971295 142.54275c-4.3740375 -4.5485999999999995 -8.026882500000001 -9.454305 -13.494180000000002 -11.5041675a22.59138 22.59138 0 0 0 3.676785 -6.89871c3.8084550000000004 5.2677975 8.998447500000001 11.680725 11.181975000000001 17.73954 0.3561075 0.9845325 -0.5655825 1.4922600000000001 -1.3645800000000001 0.6633375Z" stroke-width="0.5"></path><path id="vector_71" fill="#6dd6da" d="M120.50298750000002 127.77975c-1.0164525 0.0468825 -2.9186850000000004 0.3780525 -2.6723025 1.3645800000000001 -1.2887700000000002 -1.74363 -2.5585875000000002 -3.4304025 -3.676785 -5.0034600000000005 0.0947625 -0.26533500000000004 0.17057250000000002 -0.5306700000000001 0.2463825 -0.8149575 5.174032500000001 1.0204425 18.289162500000003 3.8892525000000004 6.102705 4.4538375Z" stroke-width="0.5"></path><path id="vector_72" stroke="#120071" stroke-linecap="round" stroke-linejoin="round" d="M120.50298750000002 127.77975c-1.0164525 0.0468825 -2.9186850000000004 0.3780525 -2.6723025 1.3645800000000001 -1.2887700000000002 -1.74363 -2.5585875000000002 -3.4304025 -3.676785 -5.0034600000000005 0.0947625 -0.26533500000000004 0.17057250000000002 -0.5306700000000001 0.2463825 -0.8149575 5.174032500000001 1.0204425 18.289162500000003 3.8892525000000004 6.102705 4.4538375Z" stroke-width="0.5"></path><path id="vector_73" fill="#6dd6da" d="M120.44214000000001 138.742275c-2.743125 -2.9575875 -5.5231575 -5.755574999999999 -9.07725 -7.3425975 2.793 2.31021 7.8074325 10.5106575 10.184475 13.3395675 0.5685749999999999 0.60648 1.2887700000000002 0.37905 1.1371499999999999 -0.5496225000000001a23.313570000000002 23.313570000000002 0 0 0 -2.2443750000000002 -5.4473475Z" stroke-width="0.5"></path><path id="vector_74" stroke="#120071" stroke-linecap="round" stroke-linejoin="round" d="M120.44214000000001 138.742275c-2.743125 -2.9575875 -5.5231575 -5.755574999999999 -9.07725 -7.3425975 2.793 2.31021 7.8074325 10.5106575 10.184475 13.3395675 0.5685749999999999 0.60648 1.2887700000000002 0.37905 1.1371499999999999 -0.5496225000000001a23.313570000000002 23.313570000000002 0 0 0 -2.2443750000000002 -5.4473475Z" stroke-width="0.5"></path></g></g></svg>