<svg xmlns="http://www.w3.org/2000/svg" fill="none" viewBox="-0.25 -0.25 200 200" id="Mathematician--Streamline-Bangalore.svg"><desc>Mathematician Streamline Illustration: https://streamlinehq.com</desc><g id="mathematician--science-technology-mathematician"><g id="cone"><path id="vector" stroke="#120071" stroke-linecap="round" stroke-linejoin="round" d="M74.7636225 87.079755 50.355795 42.767812500000005l-35.33943 64.157205c3.3735450000000005 -3.0184349999999998 17.914102500000002 -5.2877475 35.33943 -5.2877475 5.0283975000000005 0 9.8154 0.18852750000000001 14.1645 0.5306700000000001" stroke-width="0.5"></path><g id="group"><path id="vector_2" stroke="#120071" stroke-linecap="round" stroke-linejoin="round" d="M50.354797500000004 42.767812500000005v10.594447500000001" stroke-width="0.5"></path><path id="vector_3" stroke="#120071" stroke-linecap="round" stroke-linejoin="round" d="M50.354797500000004 61.53777v10.593449999999999" stroke-width="0.5"></path><path id="vector_4" stroke="#120071" stroke-linecap="round" stroke-linejoin="round" d="M50.354797500000004 80.09127000000001v10.594447500000001" stroke-width="0.5"></path><path id="vector_5" stroke="#120071" stroke-linecap="round" stroke-linejoin="round" d="M50.354797500000004 97.60338v10.594447500000001" stroke-width="0.5"></path></g><path id="vector_6" fill="#6153bd" d="M64.51929750000001 102.16794000000002a182.636265 182.636265 0 0 0 -14.1645 -0.5306700000000001c-19.925062500000003 0 -36.077580000000005 2.9675625 -36.077580000000005 6.6283875 0 3.660825 16.152517500000002 6.6283875 36.077580000000005 6.6283875 5.0283975000000005 0 9.8154 -0.18852750000000001 14.1645 -0.5306700000000001v-12.195435000000002Z" stroke-width="0.5"></path><path id="vector_7" stroke="#120071" stroke-linecap="round" stroke-linejoin="round" d="M64.51929750000001 102.16794000000002a182.636265 182.636265 0 0 0 -14.1645 -0.5306700000000001c-19.925062500000003 0 -36.077580000000005 2.9675625 -36.077580000000005 6.6283875 0 3.660825 16.152517500000002 6.6283875 36.077580000000005 6.6283875 5.0283975000000005 0 9.8154 -0.18852750000000001 14.1645 -0.5306700000000001" stroke-width="0.5"></path></g><g id="floor"><path id="vector_8" stroke="#120071" stroke-linecap="round" stroke-linejoin="round" d="M114.566865 150.2903325a373.9178625 373.9178625 0 0 0 7.3725225000000005 -3.96207c31.060155 -17.146027500000002 49.7952 -35.079082500000005 44.71194 -45.503955000000005" stroke-width="0.5"></path><path id="vector_9" stroke="#120071" stroke-linecap="round" stroke-linejoin="round" d="m64.51830000000001 119.1822975 -0.12568500000000002 0.06982500000000001c-37.2715875 20.574435 -59.524815000000004 40.999245 -38.71297500000001 50.7917025 16.2243375 7.6338675 43.00023 1.45635 71.67436500000001 -11.384467500000001" stroke-width="0.5"></path></g><g id="magnifier"><path id="vector_10" fill="#6153bd" d="m132.3812175 180.58341000000001 -10.47375 -11.6019225c4.063815 -5.9750250000000005 3.6897525 -14.1654975 -1.3675725 -19.767457500000003 -5.938117500000001 -6.5785125 -16.0846875 -7.0972125 -22.6632 -1.159095 -6.5785125 5.939115 -7.0972125 16.0846875 -1.1580975 22.6632 5.0573250000000005 5.6029575000000005 13.167 6.8099325 19.525065 3.3765375l10.47375 11.6019225a3.81444 3.81444 0 1 0 5.663805 -5.1131850000000005Zm-32.177355000000006 -13.0123875c-4.200472500000001 -4.65234 -3.8333925 -11.8293525 0.819945 -16.0288275 4.65234 -4.200472500000001 11.8293525 -3.8333925 16.029825000000002 0.8189475 4.1994750000000005 4.6533375 3.8333925 11.8293525 -0.8189475 16.0288275 -4.65234 4.200472500000001 -11.83035 3.8333925 -16.030822500000003 -0.8189475Z" stroke-width="0.5"></path><path id="vector_11" stroke="#120071" stroke-linecap="round" stroke-linejoin="round" d="m132.3812175 180.58341000000001 -10.47375 -11.6019225c4.063815 -5.9750250000000005 3.6897525 -14.1654975 -1.3675725 -19.767457500000003 -5.938117500000001 -6.5785125 -16.0846875 -7.0972125 -22.6632 -1.159095 -6.5785125 5.939115 -7.0972125 16.0846875 -1.1580975 22.6632 5.0573250000000005 5.6029575000000005 13.167 6.8099325 19.525065 3.3765375l10.47375 11.6019225a3.81444 3.81444 0 1 0 5.663805 -5.1131850000000005Zm-32.177355000000006 -13.0123875c-4.200472500000001 -4.65234 -3.8333925 -11.8293525 0.819945 -16.0288275 4.65234 -4.200472500000001 11.8293525 -3.8333925 16.029825000000002 0.8189475 4.1994750000000005 4.6533375 3.8333925 11.8293525 -0.8189475 16.0288275 -4.65234 4.200472500000001 -11.83035 3.8333925 -16.030822500000003 -0.8189475Z" stroke-width="0.5"></path></g><g id="triangle"><path id="vector_12" stroke="#120071" stroke-linecap="round" stroke-linejoin="round" d="M116.737425 100.82330999999999H194.51250000000002l-88.27875 -88.27875v74.535195m15.824340000000001 -36.4416675 34.3608825 34.3608825h-34.3608825V50.638087500000005Z" stroke-width="0.5"></path></g><g id="cube"><path id="vector_13" stroke="#120071" stroke-linecap="round" stroke-linejoin="round" d="M116.737425 87.079755H64.51929750000001v52.2181275h52.2181275V87.079755Z" stroke-width="0.5"></path><path id="vector_14" fill="#6153bd" d="M116.737425 87.079755v52.2181275l24.1145625 -13.4692425v-52.219125000000005L116.737425 87.079755Z" stroke-width="0.5"></path><path id="vector_15" stroke="#120071" stroke-linecap="round" stroke-linejoin="round" d="M116.737425 87.079755v52.2181275l24.1145625 -13.4692425v-52.219125000000005L116.737425 87.079755Z" stroke-width="0.5"></path><path id="vector_16" fill="#6dd6da" d="M88.6328625 73.609515 64.51929750000001 87.079755h52.2181275l24.1145625 -13.47024h-52.219125000000005Z" stroke-width="0.5"></path><path id="vector_17" stroke="#120071" stroke-linecap="round" stroke-linejoin="round" d="M88.6328625 73.609515 64.51929750000001 87.079755h52.2181275l24.1145625 -13.47024h-52.219125000000005Z" stroke-width="0.5"></path><g id="group_2"><path id="vector_18" stroke="#120071" stroke-linecap="round" stroke-linejoin="round" d="M88.6328625 96.12209250000001v12.402915" stroke-width="0.5"></path><path id="vector_19" stroke="#120071" stroke-linecap="round" stroke-linejoin="round" d="M88.6328625 78.4503825V90.8523" stroke-width="0.5"></path><path id="vector_20" stroke="#120071" stroke-linecap="round" stroke-linejoin="round" d="M88.6328625 60.901365000000006v12.4019175" stroke-width="0.5"></path><path id="vector_21" stroke="#120071" stroke-linecap="round" stroke-linejoin="round" d="M88.6328625 43.6535925v12.4019175" stroke-width="0.5"></path><path id="vector_22" stroke="#120071" stroke-linecap="round" stroke-linejoin="round" d="M88.6328625 112.98084v12.8468025" stroke-width="0.5"></path><path id="vector_23" stroke="#120071" stroke-linecap="round" stroke-linejoin="round" d="m88.6328625 43.6535925 -3.8892525000000004 3.8892525000000004" stroke-width="0.5"></path><path id="vector_24" stroke="#120071" stroke-linecap="round" stroke-linejoin="round" d="m92.3295975 47.350327500000006 -3.6967350000000003 -3.6967350000000003" stroke-width="0.5"></path></g><g id="group_3"><path id="vector_25" stroke="#120071" stroke-linecap="round" stroke-linejoin="round" d="M88.6328625 125.82764250000001h12.670245000000001" stroke-width="0.5"></path><path id="vector_26" stroke="#120071" stroke-linecap="round" stroke-linejoin="round" d="M106.53499500000001 125.82764250000001h12.6692475" stroke-width="0.5"></path><path id="vector_27" stroke="#120071" stroke-linecap="round" stroke-linejoin="round" d="M124.85907 125.82764250000001h12.670245000000001" stroke-width="0.5"></path><path id="vector_28" stroke="#120071" stroke-linecap="round" stroke-linejoin="round" d="M142.58464500000002 125.82764250000001h12.6692475" stroke-width="0.5"></path><path id="vector_29" stroke="#120071" stroke-linecap="round" stroke-linejoin="round" d="M158.54863500000002 125.82764250000001h12.6692475" stroke-width="0.5"></path><path id="vector_30" stroke="#120071" stroke-linecap="round" stroke-linejoin="round" d="m171.2178825 125.82764250000001 -3.8892525000000004 -3.8892525000000004" stroke-width="0.5"></path><path id="vector_31" stroke="#120071" stroke-linecap="round" stroke-linejoin="round" d="m167.5211475 129.52437749999999 3.6967350000000003 -3.6967350000000003" stroke-width="0.5"></path></g><g id="group_4"><path id="vector_32" stroke="#120071" stroke-linecap="round" stroke-linejoin="round" d="m60.893385 141.323805 12.805905 -7.1530725" stroke-width="0.5"></path><path id="vector_33" stroke="#120071" stroke-linecap="round" stroke-linejoin="round" d="m43.70646000000001 151.32075 12.805905 -7.1530725" stroke-width="0.5"></path><path id="vector_34" stroke="#120071" stroke-linecap="round" stroke-linejoin="round" d="m78.1391625 131.68995 10.4937 -5.8623075" stroke-width="0.5"></path><path id="vector_35" stroke="#120071" stroke-linecap="round" stroke-linejoin="round" d="m43.70646000000001 151.32075 5.396475000000001 1.0633350000000001" stroke-width="0.5"></path><path id="vector_36" stroke="#120071" stroke-linecap="round" stroke-linejoin="round" d="m44.716927500000004 146.191605 -1.0104674999999999 5.129145" stroke-width="0.5"></path></g></g><g id="elements"><g id="group_5"><path id="vector_37" stroke="#120071" stroke-linecap="round" stroke-linejoin="round" d="M136.3831875 22.764945h12.4039125" stroke-width="0.5"></path><path id="vector_38" stroke="#120071" stroke-linecap="round" stroke-linejoin="round" d="M142.58464500000002 28.966402500000004V16.56249" stroke-width="0.5"></path></g><g id="group_6"><path id="vector_39" stroke="#120071" stroke-linecap="round" stroke-linejoin="round" d="M165.89023500000002 52.34082h6.766042500000001" stroke-width="0.5"></path><path id="vector_40" stroke="#120071" stroke-linecap="round" stroke-linejoin="round" d="M169.2727575 55.7233425V48.957300000000004" stroke-width="0.5"></path></g><g id="group_7"><path id="vector_41" stroke="#120071" stroke-linecap="round" stroke-linejoin="round" d="m160.49775000000002 155.580075 8.7710175 8.7710175" stroke-width="0.5"></path><path id="vector_42" stroke="#120071" stroke-linecap="round" stroke-linejoin="round" d="m160.49775000000002 164.35109250000002 8.7710175 -8.7710175" stroke-width="0.5"></path></g><g id="group_8"><path id="vector_43" stroke="#120071" stroke-linecap="round" stroke-linejoin="round" d="m4.987500000000001 126.52190250000001 4.4737875 4.4737875" stroke-width="0.5"></path><path id="vector_44" stroke="#120071" stroke-linecap="round" stroke-linejoin="round" d="m4.987500000000001 130.99569000000002 4.4737875 -4.4737875" stroke-width="0.5"></path></g><path id="vector_45" stroke="#120071" stroke-linecap="round" stroke-linejoin="round" d="m46.182255000000005 30.613275 3.8353875000000004 6.326145 4.509697500000001 -9.450315000000002" stroke-width="0.5"></path></g></g></svg>