<svg xmlns="http://www.w3.org/2000/svg" fill="none" viewBox="-0.25 -0.25 200 200" id="New-Discovery--Streamline-Bangalore.svg"><desc>New Discovery Streamline Illustration: https://streamlinehq.com</desc><g id="new-discovery--science-technology-new-discovery"><g id="cloud 2"><path id="vector" stroke="#120071" stroke-linecap="round" stroke-linejoin="round" d="M142.7831475 101.71706999999999c2.216445 2.6882625 5.23488 4.343115 8.5635375 4.343115 5.24286 0 9.717645000000001 -4.10571 11.49918 -9.891210000000001 8.029875 5.4533325 18.9694575 -0.1087275 19.2966375 -9.809415 3.3924975 -0.0019950000000000002 6.7710300000000005 -1.3775475000000001 9.2119125 -4.103715 6.710182500000001 -7.4902275000000005 2.108715 -19.3584825 -7.740600000000001 -20.5335375 1.5501150000000001 -5.19099 0.1027425 -11.041327500000001 -4.1994750000000005 -14.8956675 -6.167542500000001 -5.5251525 -15.7275825 -4.7490975 -20.915580000000002 1.7446275000000002 -0.49376250000000005 -1.4593425000000002 -1.29675 -2.7381375 -2.4269175 -3.7496025 -3.8014725 -3.4054650000000004 -10.192455 -2.8329 -16.049775 0.8987475 -3.2827725 -2.5486125000000004 -8.234362500000001 -2.3860200000000003 -13.068247500000002 -0.1197" stroke-width="0.5"></path></g><g id="bulb"><path id="vector_2" fill="#6153bd" d="M96.95301 159.31072500000002v-3.6987300000000003a1.9630800000000002 1.9630800000000002 0 0 0 -3.9281550000000003 0v3.6987300000000003h3.9281550000000003Z" stroke-width="0.5"></path><path id="vector_3" stroke="#120071" stroke-linecap="round" stroke-linejoin="round" d="M96.95301 159.31072500000002v-3.6987300000000003a1.9630800000000002 1.9630800000000002 0 0 0 -3.9281550000000003 0v3.6987300000000003h3.9281550000000003Z" stroke-width="0.5"></path><path id="vector_4" fill="#6dd6da" d="m83.23938 159.31072500000002 0.9905175 14.553525h21.519067500000002l0.9905175 -14.553525H83.23938Z" stroke-width="0.5"></path><path id="vector_5" stroke="#120071" stroke-linecap="round" stroke-linejoin="round" d="m83.23938 159.31072500000002 0.9905175 14.553525h21.519067500000002l0.9905175 -14.553525H83.23938Z" stroke-width="0.5"></path><path id="vector_6" stroke="#120071" stroke-linecap="round" stroke-linejoin="round" d="M94.9889325 159.31072500000002v14.553525" stroke-width="0.5"></path><path id="vector_7" stroke="#120071" stroke-linecap="round" stroke-linejoin="round" d="M91.1824725 159.31072500000002v14.553525" stroke-width="0.5"></path><path id="vector_8" stroke="#120071" stroke-linecap="round" stroke-linejoin="round" d="M87.22439250000001 159.31072500000002v14.553525" stroke-width="0.5"></path><path id="vector_9" stroke="#120071" stroke-linecap="round" stroke-linejoin="round" d="M102.85023000000001 159.31072500000002v14.553525" stroke-width="0.5"></path><path id="vector_10" stroke="#120071" stroke-linecap="round" stroke-linejoin="round" d="M98.8911525 159.31072500000002v14.553525" stroke-width="0.5"></path><path id="vector_11" stroke="#120071" stroke-linecap="round" stroke-linejoin="round" d="M73.2095175 124.701465c3.6957375000000003 5.181015 6.4408575 11.20392 9.56004 19.13205h24.440745c6.649335000000001 -16.9026375 11.4662625 -24.961440000000003 27.20382 -34.72896000000001 9.526125 -5.9121825 15.753517500000001 -16.3220925 15.4223475 -28.430745 -0.6583500000000001 -24.048727500000002 -24.960442500000003 -43.381275 -54.8475375 -43.381275s-54.1891875 19.3325475 -54.8475375 43.381275c-0.33017250000000004 12.079725 5.871285 22.5036 15.423345000000001 28.430745a94.0193625 94.0193625 0 0 1 5.196975 3.4533450000000006" stroke-width="0.5"></path><path id="vector_12" fill="#6dd6da" d="m82.76856000000001 143.833515 0.32917500000000005 0.8379a5.2598175 5.2598175 0 0 0 4.8947325 3.3346425h13.9919325a5.2598175 5.2598175 0 0 0 4.8947325 -3.3346425l0.32917500000000005 -0.8379H82.76856000000001Z" stroke-width="0.5"></path><path id="vector_13" stroke="#120071" stroke-linecap="round" stroke-linejoin="round" d="m82.76856000000001 143.833515 0.32917500000000005 0.8379a5.2598175 5.2598175 0 0 0 4.8947325 3.3346425h13.9919325a5.2598175 5.2598175 0 0 0 4.8947325 -3.3346425l0.32917500000000005 -0.8379H82.76856000000001Z" stroke-width="0.5"></path><path id="vector_14" stroke="#120071" stroke-linecap="round" stroke-linejoin="round" d="M85.6283925 159.31072500000002v-15.477210000000001" stroke-width="0.5"></path><path id="vector_15" stroke="#120071" stroke-linecap="round" stroke-linejoin="round" d="M91.1824725 159.31072500000002v-15.477210000000001" stroke-width="0.5"></path><path id="vector_16" stroke="#120071" stroke-linecap="round" stroke-linejoin="round" d="M98.8911525 159.31072500000002v-15.477210000000001" stroke-width="0.5"></path><path id="vector_17" stroke="#120071" stroke-linecap="round" stroke-linejoin="round" d="M104.4033375 159.31072500000002v-15.477210000000001" stroke-width="0.5"></path><g id="group"><path id="vector_18" stroke="#120071" stroke-linecap="round" stroke-linejoin="round" d="M82.77255000000001 115.65813c0 0.0907725 0 -0.08977500000000001 0 0Z" stroke-width="0.5"></path><path id="vector_19" stroke="#120071" stroke-linecap="round" stroke-linejoin="round" d="M97.14852 78.972075c3.557085 17.8382925 -14.236320000000001 21.2617125 -14.375970000000002 36.686055 -0.0149625 11.18397 17.933055000000003 13.84131 22.39188 2.4119550000000003 5.60595 -14.369985000000002 -1.402485 -29.969887500000002 -8.01591 -39.09801Z" stroke-width="0.5"></path></g><path id="vector_20" fill="#6153bd" d="M96.4013925 109.264155c1.0473750000000002 5.253832500000001 -4.19349 6.262305 -4.2343875 10.804920000000001 -0.0039900000000000005 3.2947425 5.2817625 4.0767825 6.595470000000001 0.71022 1.6508625000000001 -4.2323925000000004 -0.412965 -8.8268775 -2.3610825 -11.51514Z" stroke-width="0.5"></path><path id="vector_21" stroke="#120071" stroke-linecap="round" stroke-linejoin="round" d="M96.4013925 109.264155c1.0473750000000002 5.253832500000001 -4.19349 6.262305 -4.2343875 10.804920000000001 -0.0039900000000000005 3.2947425 5.2817625 4.0767825 6.595470000000001 0.71022 1.6508625000000001 -4.2323925000000004 -0.412965 -8.8268775 -2.3610825 -11.51514Z" stroke-width="0.5"></path><path id="vector_22" fill="#6153bd" d="M96.3814425 127.7208975a1.9122075 1.9122075 0 1 0 0 3.8234175000000006 1.9122075 1.9122075 0 0 0 0 -3.8234175000000006Z" stroke-width="0.5"></path><path id="vector_23" stroke="#120071" stroke-linecap="round" stroke-linejoin="round" d="M96.3814425 127.7208975a1.9122075 1.9122075 0 1 0 0 3.8234175000000006 1.9122075 1.9122075 0 0 0 0 -3.8234175000000006Z" stroke-width="0.5"></path><path id="vector_24" fill="#6153bd" d="M95.31411750000001 141.5781675c0.9047325 0 1.6388925 -1.1012400000000002 1.6388925 -2.4588375 0 -1.3575975 -0.73416 -2.4588375 -1.6388925 -2.4588375s-1.6388925 1.1012400000000002 -1.6388925 2.4588375c0 1.3575975 0.73416 2.4588375 1.6388925 2.4588375Z" stroke-width="0.5"></path><path id="vector_25" stroke="#120071" stroke-linecap="round" stroke-linejoin="round" d="M95.31411750000001 141.5781675c0.9047325 0 1.6388925 -1.1012400000000002 1.6388925 -2.4588375 0 -1.3575975 -0.73416 -2.4588375 -1.6388925 -2.4588375s-1.6388925 1.1012400000000002 -1.6388925 2.4588375c0 1.3575975 0.73416 2.4588375 1.6388925 2.4588375Z" stroke-width="0.5"></path><g id="group_2"><path id="vector_26" stroke="#120071" stroke-linecap="round" stroke-linejoin="round" d="m24.2781525 100.55797500000001 12.022867500000002 -3.2688075000000003" stroke-width="0.5"></path><path id="vector_27" stroke="#120071" stroke-linecap="round" stroke-linejoin="round" d="m26.4287625 55.6275825 9.8722575 2.61744" stroke-width="0.5"></path><path id="vector_28" stroke="#120071" stroke-linecap="round" stroke-linejoin="round" d="m69.7053 25.63575 3.8593275000000005 8.8029375" stroke-width="0.5"></path><path id="vector_29" stroke="#120071" stroke-linecap="round" stroke-linejoin="round" d="m127.05357000000001 26.8397325 -6.2583150000000005 8.0228925" stroke-width="0.5"></path><path id="vector_30" stroke="#120071" stroke-linecap="round" stroke-linejoin="round" d="m136.336305 122.74038 8.18349 5.6089425" stroke-width="0.5"></path><path id="vector_31" stroke="#120071" stroke-linecap="round" stroke-linejoin="round" d="m150.716265 58.3208325 9.830362500000001 -2.76906" stroke-width="0.5"></path></g></g><g id="cloud 1"><path id="vector_32" stroke="#120071" stroke-linecap="round" stroke-linejoin="round" d="M67.62052500000001 112.288575c-4.4378775 -1.68777 -9.526125 0.57855 -12.177480000000001 5.12715 -5.0543325 -8.110672500000002 -17.021340000000002 -5.998965000000001 -20.8108425 4.191495 -3.281775 -7.824390000000001 -12.833835 -7.6617975000000005 -18.062730000000002 0.18753 -4.964557500000001 -0.039900000000000005 -9.3735075 2.4159450000000002 -10.9734975 6.6204075 -2.1715575 5.708692500000001 1.65585 12.462765000000001 8.5495725 15.0851925 5.863305 2.2304100000000004 12.043815 0.744135 15.100155 -3.25983 1.2877725 4.1486025 4.9246575 7.9690275 9.995947500000002 9.8981925 7.80843 2.9705550000000005 16.0587525 0.3381525 18.454747500000003 -5.8782675 5.29473 3.78651 12.534585000000002 0.5416425 15.026340000000001 -6.006945000000001 1.398495 -3.676785 0.9905175 -7.531125 -0.77007 -10.351057500000001 3.4663125000000004 -6.30819 1.067325 -13.560015 -4.3321425 -15.613867500000001Z" stroke-width="0.5"></path></g><g id="elements"><g id="group_3"><path id="vector_33" stroke="#120071" stroke-linecap="round" stroke-linejoin="round" d="M59.855985000000004 59.169705h8.74209" stroke-width="0.5"></path><path id="vector_34" stroke="#120071" stroke-linecap="round" stroke-linejoin="round" d="M64.22703000000001 63.54075v-8.74209" stroke-width="0.5"></path></g><g id="group_4"><path id="vector_35" stroke="#120071" stroke-linecap="round" stroke-linejoin="round" d="M15.4014 34.9075125h4.7690475" stroke-width="0.5"></path><path id="vector_36" stroke="#120071" stroke-linecap="round" stroke-linejoin="round" d="M17.785425 37.2915375v-4.7690475" stroke-width="0.5"></path></g><g id="group_5"><path id="vector_37" stroke="#120071" stroke-linecap="round" stroke-linejoin="round" d="m127.05357000000001 148.48186500000003 6.1815075 6.1815075" stroke-width="0.5"></path><path id="vector_38" stroke="#120071" stroke-linecap="round" stroke-linejoin="round" d="m127.05357000000001 154.6633725 6.1815075 -6.1815075" stroke-width="0.5"></path></g><g id="group_6"><path id="vector_39" stroke="#120071" stroke-linecap="round" stroke-linejoin="round" d="m171.663765 109.2232575 3.1521000000000003 3.1530975000000003" stroke-width="0.5"></path><path id="vector_40" stroke="#120071" stroke-linecap="round" stroke-linejoin="round" d="m171.663765 112.376355 3.1521000000000003 -3.1530975000000003" stroke-width="0.5"></path></g></g></g></svg>