<svg width="100%" height="100%" viewBox="0 0 120 138" version="1.1" xmlns="http://www.w3.org/2000/svg" xmlns:xlink="http://www.w3.org/1999/xlink" xml:space="preserve" xmlns:serif="http://www.serif.com/" style="fill-rule:evenodd;clip-rule:evenodd;"><path d="M119.25,7.5c0,-4.139 -3.361,-7.5 -7.5,-7.5l-104.25,0c-4.139,0 -7.5,3.361 -7.5,7.5l0,123c0,4.139 3.361,7.5 7.5,7.5l104.25,0c4.139,0 7.5,-3.361 7.5,-7.5l0,-123Z" style="fill:#fff;"/><path d="M109.566,17.231c-0,-3.933 -3.193,-7.125 -7.125,-7.125l-85.188,-0c-3.933,-0 -7.125,3.192 -7.125,7.125l-0,104.866c-0,3.932 3.192,7.125 7.125,7.125l85.188,-0c3.932,-0 7.125,-3.193 7.125,-7.125l-0,-104.866Z" style="fill:none;stroke:#000;stroke-width:0.75px;"/><rect x="39.011" y="3.981" width="44.331" height="11.942" style="fill:#fff;"/><ellipse cx="16.624" cy="121.193" rx="13.521" ry="12.827" style="fill:#fff;"/><ellipse cx="104.842" cy="121.193" rx="13.521" ry="12.827" style="fill:#fff;"/><path d="M23.077,123.151l0.837,-2.358l0.018,-0l0.81,2.358l-1.665,-0Zm0.135,-3.942l-2.43,6.426l1.422,-0l0.504,-1.431l2.403,-0l0.486,1.431l1.467,-0l-2.403,-6.426l-1.449,-0Zm8.594,4.293l-1.368,-0c-0.006,0.396 0.066,0.738 0.216,1.026c0.15,0.288 0.351,0.525 0.603,0.711c0.258,0.186 0.552,0.321 0.882,0.405c0.336,0.09 0.681,0.135 1.035,0.135c0.438,-0 0.821,-0.051 1.151,-0.153c0.336,-0.102 0.615,-0.243 0.837,-0.423c0.228,-0.186 0.399,-0.405 0.513,-0.657c0.114,-0.252 0.171,-0.525 0.171,-0.819c0,-0.36 -0.078,-0.654 -0.234,-0.882c-0.15,-0.234 -0.33,-0.42 -0.54,-0.558c-0.21,-0.138 -0.423,-0.237 -0.639,-0.297c-0.21,-0.066 -0.375,-0.111 -0.495,-0.135c-0.401,-0.102 -0.728,-0.186 -0.98,-0.252c-0.246,-0.066 -0.441,-0.132 -0.585,-0.198c-0.138,-0.066 -0.231,-0.138 -0.279,-0.216c-0.048,-0.078 -0.072,-0.18 -0.072,-0.306c-0,-0.138 0.03,-0.252 0.09,-0.342c0.06,-0.09 0.135,-0.165 0.225,-0.225c0.096,-0.06 0.201,-0.102 0.315,-0.126c0.114,-0.024 0.228,-0.036 0.342,-0.036c0.174,-0 0.333,0.015 0.477,0.045c0.15,0.03 0.281,0.081 0.395,0.153c0.114,0.072 0.204,0.171 0.27,0.297c0.072,0.126 0.114,0.285 0.126,0.477l1.368,-0c0,-0.372 -0.072,-0.687 -0.216,-0.945c-0.138,-0.264 -0.327,-0.48 -0.567,-0.648c-0.24,-0.168 -0.516,-0.288 -0.828,-0.36c-0.305,-0.078 -0.626,-0.117 -0.962,-0.117c-0.288,-0 -0.576,0.039 -0.864,0.117c-0.288,0.078 -0.546,0.198 -0.774,0.36c-0.228,0.162 -0.414,0.366 -0.558,0.612c-0.138,0.24 -0.207,0.525 -0.207,0.855c-0,0.294 0.054,0.546 0.162,0.756c0.114,0.204 0.261,0.375 0.441,0.513c0.18,0.138 0.384,0.252 0.612,0.342c0.228,0.084 0.462,0.156 0.702,0.216c0.234,0.066 0.465,0.126 0.693,0.18c0.228,0.054 0.432,0.117 0.611,0.189c0.18,0.072 0.324,0.162 0.432,0.27c0.114,0.108 0.171,0.249 0.171,0.423c0,0.162 -0.042,0.297 -0.126,0.405c-0.084,0.102 -0.189,0.183 -0.315,0.243c-0.126,0.06 -0.261,0.102 -0.404,0.126c-0.144,0.018 -0.279,0.027 -0.405,0.027c-0.186,-0 -0.366,-0.021 -0.54,-0.063c-0.174,-0.048 -0.327,-0.117 -0.459,-0.207c-0.126,-0.096 -0.228,-0.219 -0.306,-0.369c-0.078,-0.15 -0.117,-0.333 -0.117,-0.549Zm10.695,-0.297l-0,-3.996l-1.413,-0l-0,3.996c-0,0.48 -0.096,0.834 -0.288,1.062c-0.192,0.222 -0.54,0.333 -1.044,0.333c-0.288,-0 -0.519,-0.039 -0.693,-0.117c-0.168,-0.084 -0.3,-0.189 -0.396,-0.315c-0.096,-0.132 -0.159,-0.282 -0.189,-0.45c-0.03,-0.168 -0.045,-0.339 -0.045,-0.513l-0,-3.996l-1.413,-0l-0,3.996c-0,0.876 0.237,1.524 0.711,1.944c0.48,0.42 1.155,0.63 2.025,0.63c0.858,-0 1.53,-0.21 2.016,-0.63c0.486,-0.426 0.729,-1.074 0.729,-1.944Zm2.99,-0.972l0,-1.926l1.098,-0c0.162,-0 0.318,0.012 0.468,0.036c0.15,0.024 0.282,0.072 0.396,0.144c0.114,0.066 0.204,0.162 0.27,0.288c0.072,0.126 0.108,0.291 0.108,0.495c0,0.204 -0.036,0.369 -0.108,0.495c-0.066,0.126 -0.156,0.225 -0.27,0.297c-0.114,0.066 -0.246,0.111 -0.396,0.135c-0.15,0.024 -0.306,0.036 -0.468,0.036l-1.098,-0Zm-1.413,-3.024l0,6.426l1.413,-0l0,-2.304l1.485,-0c0.402,-0 0.744,-0.057 1.026,-0.171c0.282,-0.12 0.51,-0.276 0.684,-0.468c0.18,-0.192 0.309,-0.411 0.387,-0.657c0.084,-0.252 0.126,-0.507 0.126,-0.765c0,-0.264 -0.042,-0.519 -0.126,-0.765c-0.078,-0.246 -0.207,-0.465 -0.387,-0.657c-0.174,-0.192 -0.402,-0.345 -0.684,-0.459c-0.282,-0.12 -0.624,-0.18 -1.026,-0.18l-2.898,-0Zm6.363,-0l0,6.426l4.878,-0l0,-1.188l-3.465,-0l0,-1.575l3.114,-0l0,-1.098l-3.114,-0l0,-1.377l3.393,-0l0,-1.188l-4.806,-0Zm7.609,2.907l-0,-1.809l1.548,-0c0.324,-0 0.567,0.072 0.729,0.216c0.162,0.138 0.243,0.363 0.243,0.675c-0,0.324 -0.081,0.558 -0.243,0.702c-0.162,0.144 -0.405,0.216 -0.729,0.216l-1.548,-0Zm-1.413,-2.907l-0,6.426l1.413,-0l-0,-2.511l1.413,-0c0.354,-0 0.609,0.078 0.765,0.234c0.156,0.156 0.258,0.402 0.306,0.738c0.036,0.258 0.063,0.528 0.081,0.81c0.018,0.282 0.066,0.525 0.144,0.729l1.413,-0c-0.066,-0.09 -0.117,-0.198 -0.153,-0.324c-0.03,-0.132 -0.054,-0.27 -0.072,-0.414c-0.012,-0.144 -0.021,-0.285 -0.027,-0.423c-0.006,-0.138 -0.012,-0.258 -0.018,-0.36c-0.012,-0.162 -0.036,-0.324 -0.072,-0.486c-0.03,-0.162 -0.081,-0.309 -0.153,-0.441c-0.072,-0.138 -0.165,-0.255 -0.279,-0.351c-0.114,-0.102 -0.258,-0.177 -0.432,-0.225l-0,-0.018c0.36,-0.144 0.618,-0.354 0.774,-0.63c0.162,-0.276 0.243,-0.603 0.243,-0.981c-0,-0.246 -0.045,-0.474 -0.135,-0.684c-0.084,-0.216 -0.21,-0.405 -0.378,-0.567c-0.162,-0.162 -0.36,-0.288 -0.594,-0.378c-0.228,-0.096 -0.486,-0.144 -0.774,-0.144l-3.465,-0Zm11.133,2.907l-0,-1.809l1.548,-0c0.324,-0 0.567,0.072 0.729,0.216c0.162,0.138 0.243,0.363 0.243,0.675c-0,0.324 -0.081,0.558 -0.243,0.702c-0.162,0.144 -0.405,0.216 -0.729,0.216l-1.548,-0Zm-1.413,-2.907l-0,6.426l1.413,-0l-0,-2.511l1.413,-0c0.354,-0 0.609,0.078 0.765,0.234c0.156,0.156 0.258,0.402 0.306,0.738c0.036,0.258 0.063,0.528 0.081,0.81c0.018,0.282 0.066,0.525 0.144,0.729l1.413,-0c-0.066,-0.09 -0.117,-0.198 -0.153,-0.324c-0.03,-0.132 -0.054,-0.27 -0.072,-0.414c-0.012,-0.144 -0.021,-0.285 -0.027,-0.423c-0.006,-0.138 -0.012,-0.258 -0.018,-0.36c-0.012,-0.162 -0.036,-0.324 -0.072,-0.486c-0.03,-0.162 -0.081,-0.309 -0.153,-0.441c-0.072,-0.138 -0.165,-0.255 -0.279,-0.351c-0.114,-0.102 -0.258,-0.177 -0.432,-0.225l-0,-0.018c0.36,-0.144 0.618,-0.354 0.774,-0.63c0.162,-0.276 0.243,-0.603 0.243,-0.981c-0,-0.246 -0.045,-0.474 -0.135,-0.684c-0.084,-0.216 -0.21,-0.405 -0.378,-0.567c-0.162,-0.162 -0.36,-0.288 -0.594,-0.378c-0.228,-0.096 -0.486,-0.144 -0.774,-0.144l-3.465,-0Zm6.855,-0l-0,6.426l4.878,-0l-0,-1.188l-3.465,-0l-0,-1.575l3.114,-0l-0,-1.098l-3.114,-0l-0,-1.377l3.393,-0l-0,-1.188l-4.806,-0Zm7.816,3.942l0.837,-2.358l0.018,-0l0.81,2.358l-1.665,-0Zm0.135,-3.942l-2.43,6.426l1.422,-0l0.504,-1.431l2.403,-0l0.486,1.431l1.467,-0l-2.403,-6.426l-1.449,-0Zm6.179,5.238l-0,-4.05l1.008,-0c0.348,-0 0.639,0.051 0.873,0.153c0.24,0.096 0.432,0.237 0.576,0.423c0.144,0.186 0.246,0.411 0.306,0.675c0.066,0.258 0.099,0.549 0.099,0.873c-0,0.354 -0.045,0.654 -0.135,0.9c-0.09,0.246 -0.21,0.447 -0.36,0.603c-0.15,0.15 -0.321,0.258 -0.513,0.324c-0.192,0.066 -0.39,0.099 -0.594,0.099l-1.26,-0Zm-1.413,-5.238l-0,6.426l2.772,-0c0.492,-0 0.918,-0.081 1.278,-0.243c0.366,-0.168 0.669,-0.396 0.909,-0.684c0.246,-0.288 0.429,-0.63 0.549,-1.026c0.12,-0.396 0.18,-0.828 0.18,-1.296c-0,-0.534 -0.075,-0.999 -0.225,-1.395c-0.144,-0.396 -0.348,-0.726 -0.612,-0.99c-0.258,-0.264 -0.567,-0.462 -0.927,-0.594c-0.354,-0.132 -0.738,-0.198 -1.152,-0.198l-2.772,-0Zm7.031,-0l0,6.426l4.878,-0l0,-1.188l-3.465,-0l0,-1.575l3.114,-0l0,-1.098l-3.114,-0l0,-1.377l3.393,-0l0,-1.188l-4.806,-0Zm7.609,2.907l-0,-1.809l1.548,-0c0.324,-0 0.567,0.072 0.729,0.216c0.162,0.138 0.243,0.363 0.243,0.675c-0,0.324 -0.081,0.558 -0.243,0.702c-0.162,0.144 -0.405,0.216 -0.729,0.216l-1.548,-0Zm-1.413,-2.907l-0,6.426l1.413,-0l-0,-2.511l1.413,-0c0.354,-0 0.609,0.078 0.765,0.234c0.156,0.156 0.258,0.402 0.306,0.738c0.036,0.258 0.063,0.528 0.081,0.81c0.018,0.282 0.066,0.525 0.144,0.729l1.413,-0c-0.066,-0.09 -0.117,-0.198 -0.153,-0.324c-0.03,-0.132 -0.054,-0.27 -0.072,-0.414c-0.012,-0.144 -0.021,-0.285 -0.027,-0.423c-0.006,-0.138 -0.012,-0.258 -0.018,-0.36c-0.012,-0.162 -0.036,-0.324 -0.072,-0.486c-0.03,-0.162 -0.081,-0.309 -0.153,-0.441c-0.072,-0.138 -0.165,-0.255 -0.279,-0.351c-0.114,-0.102 -0.258,-0.177 -0.432,-0.225l-0,-0.018c0.36,-0.144 0.618,-0.354 0.774,-0.63c0.162,-0.276 0.243,-0.603 0.243,-0.981c-0,-0.246 -0.045,-0.474 -0.135,-0.684c-0.084,-0.216 -0.21,-0.405 -0.378,-0.567c-0.162,-0.162 -0.36,-0.288 -0.594,-0.378c-0.228,-0.096 -0.486,-0.144 -0.774,-0.144l-3.465,-0Zm9.384,5.04l-0,1.386l-1.413,-0l-0,-1.386l1.413,-0Zm-2.862,-2.97c0.006,-0.324 0.06,-0.621 0.162,-0.891c0.108,-0.27 0.255,-0.504 0.441,-0.702c0.192,-0.198 0.42,-0.351 0.684,-0.459c0.27,-0.114 0.57,-0.171 0.9,-0.171c0.426,-0 0.78,0.06 1.062,0.18c0.288,0.114 0.519,0.258 0.693,0.432c0.174,0.174 0.297,0.363 0.369,0.567c0.078,0.198 0.117,0.384 0.117,0.558c-0,0.288 -0.039,0.525 -0.117,0.711c-0.072,0.186 -0.165,0.345 -0.279,0.477c-0.108,0.132 -0.231,0.246 -0.369,0.342c-0.132,0.09 -0.258,0.183 -0.378,0.279c-0.12,0.09 -0.228,0.195 -0.324,0.315c-0.09,0.12 -0.147,0.27 -0.171,0.45l-0,0.342l-1.215,-0l-0,-0.405c0.018,-0.258 0.066,-0.474 0.144,-0.648c0.084,-0.174 0.18,-0.321 0.288,-0.441c0.108,-0.126 0.222,-0.234 0.342,-0.324c0.12,-0.09 0.231,-0.18 0.333,-0.27c0.102,-0.09 0.183,-0.189 0.243,-0.297c0.066,-0.108 0.096,-0.243 0.09,-0.405c-0,-0.276 -0.069,-0.48 -0.207,-0.612c-0.132,-0.132 -0.318,-0.198 -0.558,-0.198c-0.162,-0 -0.303,0.033 -0.423,0.099c-0.114,0.06 -0.21,0.144 -0.288,0.252c-0.072,0.102 -0.126,0.225 -0.162,0.369c-0.036,0.138 -0.054,0.288 -0.054,0.45l-1.323,-0Z" style="fill:#6922ea;fill-rule:nonzero;"/><path d="M46.129,111.651l0.837,-2.358l0.018,0l0.81,2.358l-1.665,0Zm0.135,-3.942l-2.43,6.426l1.422,-0l0.504,-1.431l2.403,0l0.486,1.431l1.467,-0l-2.403,-6.426l-1.449,0Zm6.179,2.907l-0,-1.809l1.548,-0c0.324,-0 0.567,0.072 0.729,0.216c0.162,0.138 0.243,0.363 0.243,0.675c-0,0.324 -0.081,0.558 -0.243,0.702c-0.162,0.144 -0.405,0.216 -0.729,0.216l-1.548,0Zm-1.413,-2.907l-0,6.426l1.413,0l-0,-2.511l1.413,0c0.354,0 0.609,0.078 0.765,0.234c0.156,0.156 0.258,0.402 0.306,0.738c0.036,0.258 0.063,0.528 0.081,0.81c0.018,0.282 0.066,0.525 0.144,0.729l1.413,0c-0.066,-0.09 -0.117,-0.198 -0.153,-0.324c-0.03,-0.132 -0.054,-0.27 -0.072,-0.414c-0.012,-0.144 -0.021,-0.285 -0.027,-0.423c-0.006,-0.138 -0.012,-0.258 -0.018,-0.36c-0.012,-0.162 -0.036,-0.324 -0.072,-0.486c-0.03,-0.162 -0.081,-0.309 -0.153,-0.441c-0.072,-0.138 -0.165,-0.255 -0.279,-0.351c-0.114,-0.102 -0.258,-0.177 -0.432,-0.225l-0,-0.018c0.36,-0.144 0.618,-0.354 0.774,-0.63c0.162,-0.276 0.243,-0.603 0.243,-0.981c-0,-0.246 -0.045,-0.474 -0.135,-0.684c-0.084,-0.216 -0.21,-0.405 -0.378,-0.567c-0.162,-0.162 -0.36,-0.288 -0.594,-0.378c-0.228,-0.096 -0.486,-0.144 -0.774,-0.144l-3.465,0Zm6.855,0l-0,6.426l4.878,-0l-0,-1.188l-3.465,0l-0,-1.575l3.114,0l-0,-1.098l-3.114,0l-0,-1.377l3.393,-0l-0,-1.188l-4.806,0Zm10.726,3.924l-0,2.502l1.413,-0l-0,-2.466l2.385,-3.96l-1.575,-0l-1.494,2.538l-1.503,-2.538l-1.584,-0l2.358,3.924Zm5.832,-0.684c-0,-0.282 0.03,-0.555 0.09,-0.819c0.066,-0.264 0.168,-0.498 0.306,-0.702c0.138,-0.21 0.318,-0.375 0.54,-0.495c0.222,-0.126 0.492,-0.189 0.81,-0.189c0.318,-0 0.588,0.063 0.81,0.189c0.222,0.12 0.402,0.285 0.54,0.495c0.138,0.204 0.237,0.438 0.297,0.702c0.066,0.264 0.099,0.537 0.099,0.819c-0,0.27 -0.033,0.534 -0.099,0.792c-0.06,0.252 -0.159,0.48 -0.297,0.684c-0.138,0.204 -0.318,0.369 -0.54,0.495c-0.222,0.12 -0.492,0.18 -0.81,0.18c-0.318,-0 -0.588,-0.06 -0.81,-0.18c-0.222,-0.126 -0.402,-0.291 -0.54,-0.495c-0.138,-0.204 -0.24,-0.432 -0.306,-0.684c-0.06,-0.258 -0.09,-0.522 -0.09,-0.792Zm-1.413,-0c-0,0.468 0.072,0.906 0.216,1.314c0.144,0.402 0.351,0.753 0.621,1.053c0.27,0.3 0.6,0.537 0.99,0.711c0.396,0.168 0.84,0.252 1.332,0.252c0.498,-0 0.942,-0.084 1.332,-0.252c0.39,-0.174 0.72,-0.411 0.99,-0.711c0.27,-0.3 0.477,-0.651 0.621,-1.053c0.144,-0.408 0.216,-0.846 0.216,-1.314c-0,-0.48 -0.072,-0.924 -0.216,-1.332c-0.144,-0.414 -0.351,-0.774 -0.621,-1.08c-0.27,-0.306 -0.6,-0.546 -0.99,-0.72c-0.39,-0.174 -0.834,-0.261 -1.332,-0.261c-0.492,-0 -0.936,0.087 -1.332,0.261c-0.39,0.174 -0.72,0.414 -0.99,0.72c-0.27,0.306 -0.477,0.666 -0.621,1.08c-0.144,0.408 -0.216,0.852 -0.216,1.332Zm13.098,0.756l-0,-3.996l-1.413,-0l-0,3.996c-0,0.48 -0.096,0.834 -0.288,1.062c-0.192,0.222 -0.54,0.333 -1.044,0.333c-0.288,-0 -0.519,-0.039 -0.693,-0.117c-0.168,-0.084 -0.3,-0.189 -0.396,-0.315c-0.096,-0.132 -0.159,-0.282 -0.189,-0.45c-0.03,-0.168 -0.045,-0.339 -0.045,-0.513l-0,-3.996l-1.413,-0l-0,3.996c-0,0.876 0.237,1.524 0.711,1.944c0.48,0.42 1.155,0.63 2.025,0.63c0.858,-0 1.53,-0.21 2.016,-0.63c0.486,-0.426 0.729,-1.074 0.729,-1.944Z" style="fill:#6922ea;fill-rule:nonzero;"/><path d="M49.905,12.482l-1.368,0c-0.006,0.396 0.066,0.738 0.216,1.026c0.15,0.288 0.351,0.525 0.603,0.711c0.258,0.186 0.552,0.321 0.882,0.405c0.336,0.09 0.681,0.135 1.035,0.135c0.438,0 0.822,-0.051 1.152,-0.153c0.336,-0.102 0.615,-0.243 0.837,-0.423c0.228,-0.186 0.399,-0.405 0.513,-0.657c0.114,-0.252 0.171,-0.525 0.171,-0.819c-0,-0.36 -0.078,-0.654 -0.234,-0.882c-0.15,-0.234 -0.33,-0.42 -0.54,-0.558c-0.21,-0.138 -0.423,-0.237 -0.639,-0.297c-0.21,-0.066 -0.375,-0.111 -0.495,-0.135c-0.402,-0.102 -0.729,-0.186 -0.981,-0.252c-0.246,-0.066 -0.441,-0.132 -0.585,-0.198c-0.138,-0.066 -0.231,-0.138 -0.279,-0.216c-0.048,-0.078 -0.072,-0.18 -0.072,-0.306c-0,-0.138 0.03,-0.252 0.09,-0.342c0.06,-0.09 0.135,-0.165 0.225,-0.225c0.096,-0.06 0.201,-0.102 0.315,-0.126c0.114,-0.024 0.228,-0.036 0.342,-0.036c0.174,0 0.333,0.015 0.477,0.045c0.15,0.03 0.282,0.081 0.396,0.153c0.114,0.072 0.204,0.171 0.27,0.297c0.072,0.126 0.114,0.285 0.126,0.477l1.368,0c-0,-0.372 -0.072,-0.687 -0.216,-0.945c-0.138,-0.264 -0.327,-0.48 -0.567,-0.648c-0.24,-0.168 -0.516,-0.288 -0.828,-0.36c-0.306,-0.078 -0.627,-0.117 -0.963,-0.117c-0.288,0 -0.576,0.039 -0.864,0.117c-0.288,0.078 -0.546,0.198 -0.774,0.36c-0.228,0.162 -0.414,0.366 -0.558,0.612c-0.138,0.24 -0.207,0.525 -0.207,0.855c-0,0.294 0.054,0.546 0.162,0.756c0.114,0.204 0.261,0.375 0.441,0.513c0.18,0.138 0.384,0.252 0.612,0.342c0.228,0.084 0.462,0.156 0.702,0.216c0.234,0.066 0.465,0.126 0.693,0.18c0.228,0.054 0.432,0.117 0.612,0.189c0.18,0.072 0.324,0.162 0.432,0.27c0.114,0.108 0.171,0.249 0.171,0.423c-0,0.162 -0.042,0.297 -0.126,0.405c-0.084,0.102 -0.189,0.183 -0.315,0.243c-0.126,0.06 -0.261,0.102 -0.405,0.126c-0.144,0.018 -0.279,0.027 -0.405,0.027c-0.186,0 -0.366,-0.021 -0.54,-0.063c-0.174,-0.048 -0.327,-0.117 -0.459,-0.207c-0.126,-0.096 -0.228,-0.219 -0.306,-0.369c-0.078,-0.15 -0.117,-0.333 -0.117,-0.549Zm6.664,-3.105l-0,5.238l1.413,0l-0,-5.238l1.926,0l-0,-1.188l-5.265,0l-0,1.188l1.926,0Zm9.894,2.808l-0,-3.996l-1.413,0l-0,3.996c-0,0.48 -0.096,0.834 -0.288,1.062c-0.192,0.222 -0.54,0.333 -1.044,0.333c-0.288,0 -0.519,-0.039 -0.693,-0.117c-0.168,-0.084 -0.3,-0.189 -0.396,-0.315c-0.096,-0.132 -0.159,-0.282 -0.189,-0.45c-0.03,-0.168 -0.045,-0.339 -0.045,-0.513l-0,-3.996l-1.413,0l-0,3.996c-0,0.876 0.237,1.524 0.711,1.944c0.48,0.42 1.155,0.63 2.025,0.63c0.858,0 1.53,-0.21 2.016,-0.63c0.486,-0.426 0.729,-1.074 0.729,-1.944Zm2.989,1.242l0,-4.05l1.008,0c0.348,0 0.639,0.051 0.873,0.153c0.24,0.096 0.432,0.237 0.576,0.423c0.144,0.186 0.246,0.411 0.306,0.675c0.066,0.258 0.099,0.549 0.099,0.873c0,0.354 -0.045,0.654 -0.135,0.9c-0.09,0.246 -0.21,0.447 -0.36,0.603c-0.15,0.15 -0.321,0.258 -0.513,0.324c-0.192,0.066 -0.39,0.099 -0.594,0.099l-1.26,0Zm-1.413,-5.238l0,6.426l2.772,0c0.492,0 0.918,-0.081 1.278,-0.243c0.366,-0.168 0.669,-0.396 0.909,-0.684c0.246,-0.288 0.429,-0.63 0.549,-1.026c0.12,-0.396 0.18,-0.828 0.18,-1.296c0,-0.534 -0.075,-0.999 -0.225,-1.395c-0.144,-0.396 -0.348,-0.726 -0.612,-0.99c-0.258,-0.264 -0.567,-0.462 -0.927,-0.594c-0.354,-0.132 -0.738,-0.198 -1.152,-0.198l-2.772,0Zm8.696,3.924l0,2.502l1.413,0l0,-2.466l2.385,-3.96l-1.575,0l-1.494,2.538l-1.503,-2.538l-1.584,0l2.358,3.924Z" style="fill:#6922ea;fill-rule:nonzero;"/><g><path d="M66.944,28.76c-8.362,2.169 -13.911,1.05 -16.75,0.192c-1.864,-0.563 -1.797,-0.782 -3.279,-1.193c-8.487,-2.362 -17.046,2.982 -18.838,4.102c-7.335,4.582 -15.069,14.169 -14.383,23.981c1.151,16.42 25.367,26.19 41.992,27.539c17.198,1.392 41.528,-4.986 49.271,-23.374c3.476,-8.251 4.96,-17.466 0.522,-27.888c-2.621,-6.154 -9.427,-13.952 -17.584,-12.731c-8.227,1.231 -7.982,6.01 -20.951,9.372Z" style="fill:#f0edf9;fill-rule:nonzero;"/><path d="M60.01,32.593c-7.567,3.854 -13.213,4.113 -16.176,3.992c-1.94,-0.08 -1.932,-0.288 -3.468,-0.321c-8.805,-0.182 -15.779,6.561 -17.236,7.973c-5.976,5.78 -11.103,16.137 -8.019,24.773c5.162,14.454 31.026,17.688 47.461,15.104c17,-2.674 38.993,-13.943 41.96,-32.188c1.331,-8.185 0.499,-16.786 -6.369,-25.113c-4.055,-4.915 -12.572,-10.352 -20.171,-7.4c-7.665,2.981 -6.251,7.207 -17.982,13.18Z" style="fill:none;fill-rule:nonzero;stroke:#f0edf9;stroke-width:0.75px;stroke-miterlimit:10;"/><path d="M61.909,33.517l1.96,-0.237c0.299,-0.036 0.604,-0.076 0.903,-0.112c1.002,-0.116 -0.738,-0.353 -0.085,-0.081l-1.874,-1.09l-0.841,-1.408l0,-2.258l-0.036,0.166l1.092,-1.873l-0.112,0.125c-1.481,1.654 -1.754,4.394 -0,6.008c1.619,1.484 4.424,1.765 6.012,-0c1.177,-1.315 1.655,-2.87 1.217,-4.605c-0.407,-1.618 -1.816,-2.91 -3.395,-3.343c-1.58,-0.434 -3.279,0.022 -4.832,0.21c-1.167,0.143 -2.138,0.38 -3.006,1.243c-0.738,0.737 -1.293,1.944 -1.243,3.003c0.049,1.06 0.412,2.24 1.243,3.004c0.774,0.707 1.915,1.377 3.006,1.243l-0.009,0.005Z" style="fill:#fff;fill-rule:nonzero;"/><path d="M70.297,24.241c3.453,0 3.458,-5.364 0,-5.364c-3.458,-0 -3.458,5.364 0,5.364Z" style="fill:#fff;fill-rule:nonzero;"/><path d="M68.069,22.346l-0.13,0.308c-0.116,0.179 -0.174,0.376 -0.187,0.581c-0.045,0.21 -0.036,0.416 0.027,0.626c0.049,0.206 0.142,0.38 0.281,0.532c0.112,0.17 0.255,0.304 0.439,0.402l0.376,0.157c0.277,0.076 0.555,0.076 0.831,-0l0.376,-0.157c0.237,-0.138 0.421,-0.326 0.564,-0.563l0.13,-0.308c0.116,-0.179 0.174,-0.376 0.187,-0.581c0.045,-0.211 0.036,-0.416 -0.026,-0.626c-0.049,-0.206 -0.143,-0.38 -0.282,-0.532c-0.112,-0.17 -0.255,-0.304 -0.439,-0.403l-0.375,-0.156c-0.278,-0.076 -0.555,-0.076 -0.832,0l-0.376,0.156c-0.237,0.139 -0.421,0.327 -0.564,0.564Z" style="fill:#fff;fill-rule:nonzero;"/><path d="M67.819,22.967l-0.483,1.055c-0.179,0.393 -0.278,0.773 -0.157,1.207c0.099,0.362 0.38,0.755 0.721,0.934c0.362,0.192 0.804,0.286 1.207,0.157c0.367,-0.116 0.77,-0.353 0.935,-0.72l0.483,-1.055c0.179,-0.393 0.278,-0.773 0.157,-1.207c-0.099,-0.362 -0.38,-0.755 -0.721,-0.934c-0.362,-0.192 -0.804,-0.286 -1.207,-0.157c-0.367,0.117 -0.77,0.354 -0.935,0.72Z" style="fill:#fff;fill-rule:nonzero;"/><path d="M67.085,27.741l0.059,1.703c0.026,0.783 0.576,1.431 1.355,1.538c0.711,0.094 1.579,-0.353 1.717,-1.122l0.054,-0.299c0.148,-0.801 -0.219,-1.726 -1.092,-1.927c-0.764,-0.174 -1.766,0.232 -1.927,1.091l-0.054,0.299l3.073,0.416l-0.058,-1.703c-0.027,-0.818 -0.702,-1.605 -1.565,-1.565c-0.864,0.04 -1.598,0.689 -1.566,1.565l0.004,0.004Z" style="fill:#fff;fill-rule:nonzero;"/><path d="M67.408,28.443c0.026,0.89 -0.113,1.748 -0.506,2.552c-0.372,0.76 -0.206,1.69 0.563,2.142c0.69,0.402 1.772,0.201 2.143,-0.564c0.631,-1.3 0.975,-2.677 0.935,-4.13c-0.058,-2.007 -3.189,-2.016 -3.131,-0l-0.004,-0Z" style="fill:#fff;fill-rule:nonzero;"/><path d="M59.069,32.153c0.13,0.349 0.242,0.599 0.51,0.867c0.143,0.143 0.304,0.273 0.483,0.367c0.488,0.259 1.073,0.358 1.61,0.188c0.385,-0.121 0.729,-0.367 0.936,-0.72c0.205,-0.353 0.281,-0.831 0.156,-1.207c-0.126,-0.375 -0.358,-0.742 -0.72,-0.934c-0.363,-0.192 -0.801,-0.286 -1.208,-0.157c-0.036,0.009 -0.067,0.018 -0.103,0.023l0.416,-0.058l-0.139,-0l0.416,0.058c-0.045,-0.009 -0.089,-0.023 -0.134,-0.036l0.376,0.156c-0.045,-0.017 -0.08,-0.04 -0.121,-0.067l0.318,0.246c-0.036,-0.031 -0.067,-0.058 -0.099,-0.094l0.246,0.318c-0.026,-0.036 -0.049,-0.076 -0.071,-0.117l0.157,0.376l-0.014,-0.031c-0.049,-0.206 -0.143,-0.38 -0.282,-0.532c-0.112,-0.17 -0.255,-0.304 -0.439,-0.403c-0.335,-0.196 -0.831,-0.281 -1.207,-0.156c-0.376,0.125 -0.743,0.358 -0.935,0.72c-0.192,0.362 -0.304,0.813 -0.156,1.207l0.004,-0.014Z" style="fill:#fff;fill-rule:nonzero;"/><path d="M60.022,33.941c0.344,1.931 1.275,3.639 2.666,5.02c0.872,0.867 2.241,0.407 2.617,-0.688c0.765,-2.249 1.136,-4.582 1.127,-6.956c-0.009,-2.016 -3.104,-2.016 -3.131,0l-0.045,3.237c-0.022,1.484 2.232,2.221 2.916,0.791c0.264,-0.255 0.234,-0.452 -0.093,-0.586c-0.269,-0.308 -0.336,-0.317 -0.192,-0.031l0.156,-1.207c-0.81,1.176 -1.731,2.226 -2.769,3.21c-1.463,1.39 0.751,3.598 2.214,2.212c1.463,-1.385 4.339,-3.768 3.029,-5.99c-0.497,-0.845 -1.409,-1.408 -2.402,-1.341c-1.284,0.085 -2.13,1.073 -2.649,2.155l2.917,0.791l0.044,-3.236l-3.131,-0c0.009,2.114 -0.331,4.121 -1.015,6.124l2.616,-0.689c-1.032,-1.032 -1.605,-2.203 -1.86,-3.638c-0.349,-1.98 -3.369,-1.14 -3.02,0.831l0.005,-0.009Z" style="fill:#fff;fill-rule:nonzero;"/><path d="M60.178,36.324l1.19,0.34c0.787,0.223 1.741,-0.278 1.928,-1.091c0.188,-0.814 -0.25,-1.685 -1.091,-1.927l-1.19,-0.339c-0.787,-0.224 -1.74,0.277 -1.928,1.09c-0.188,0.814 0.251,1.685 1.091,1.927Z" style="fill:#fff;fill-rule:nonzero;"/><path d="M59.762,34.053l0.703,0.523c0.178,0.116 0.376,0.174 0.581,0.188c0.21,0.044 0.416,0.035 0.626,-0.027c0.363,-0.098 0.756,-0.38 0.936,-0.72c0.192,-0.362 0.285,-0.804 0.156,-1.207l-0.156,-0.375c-0.139,-0.237 -0.327,-0.42 -0.564,-0.563l-0.702,-0.523c-0.18,-0.117 -0.376,-0.175 -0.582,-0.188c-0.21,-0.045 -0.416,-0.036 -0.627,0.027c-0.362,0.098 -0.756,0.38 -0.934,0.719c-0.193,0.362 -0.287,0.805 -0.157,1.207l0.157,0.376c0.139,0.237 0.326,0.42 0.563,0.563Z" style="fill:#fff;fill-rule:nonzero;"/><path d="M62.124,40.325l-0.08,3.947c-0.041,2.016 3.091,2.016 3.131,-0l0.081,-3.947c0.04,-2.016 -3.092,-2.016 -3.132,-0Z" style="fill:#fff;fill-rule:nonzero;"/><path d="M63.886,39.846l0.341,6.665c0.103,2.003 3.234,2.016 3.131,0l-0.34,-6.665c-0.103,-2.002 -3.234,-2.016 -3.132,0Z" style="fill:#fff;fill-rule:nonzero;"/><path d="M64.495,43.15l0.998,3.075c0.259,0.805 1.087,1.323 1.927,1.091c0.788,-0.219 1.356,-1.118 1.092,-1.927l-0.997,-3.075c-0.26,-0.805 -1.088,-1.323 -1.928,-1.091c-0.788,0.219 -1.356,1.118 -1.092,1.927Z" style="fill:#fff;fill-rule:nonzero;"/><path d="M61.861,41.938l-0.922,1.578c-0.412,0.707 -0.188,1.744 0.563,2.141c0.752,0.398 1.7,0.193 2.143,-0.563l0.922,-1.578c0.411,-0.706 0.188,-1.743 -0.564,-2.141c-0.751,-0.398 -1.7,-0.192 -2.142,0.563Z" style="fill:#fff;fill-rule:nonzero;"/><path d="M36.465,42.864c4.764,2.262 9.796,3.468 15.075,3.531c2.881,0.031 2.881,-4.439 -0,-4.47c-4.464,-0.049 -8.781,-1.001 -12.816,-2.919c-2.585,-1.229 -4.858,2.624 -2.259,3.858Z" style="fill:#fff;fill-rule:nonzero;"/><path d="M52.229,46.489l5.748,0.572c1.204,0.121 2.237,-1.113 2.237,-2.235c0,-1.31 -1.029,-2.114 -2.237,-2.235l-5.748,-0.572c-1.204,-0.121 -2.236,1.113 -2.236,2.235c-0,1.31 1.029,2.114 2.236,2.235Z" style="fill:#fff;fill-rule:nonzero;"/><path d="M53.204,46.435c3.691,-0.295 7.211,1.171 9.332,4.269c1.614,2.361 5.493,0.125 3.861,-2.257c-2.971,-4.345 -7.887,-6.907 -13.193,-6.486c-2.849,0.228 -2.876,4.698 0,4.47l0,0.004Z" style="fill:#fff;fill-rule:nonzero;"/><path d="M58.89,50.163l7.309,2.906c1.132,0.451 2.448,-0.492 2.751,-1.56c0.363,-1.27 -0.442,-2.307 -1.56,-2.749l-7.31,-2.906c-1.132,-0.451 -2.447,0.492 -2.752,1.56c-0.362,1.27 0.444,2.307 1.562,2.749Z" style="fill:#fff;fill-rule:nonzero;"/><path d="M69.438,50.195c0.045,-0.067 0.112,-0.148 0.143,-0.224c-0.143,0.371 -0.228,0.277 -0.058,0.094c0.058,-0.067 0.121,-0.13 0.183,-0.188c0.148,-0.138 0.336,-0.17 -0.098,0.054c0.152,-0.081 0.3,-0.192 0.448,-0.282c0.335,-0.201 -0.368,0.117 -0.113,0.036c0.108,-0.031 0.207,-0.071 0.314,-0.103c1.123,-0.326 1.937,-1.591 1.561,-2.749c-0.375,-1.158 -1.548,-1.909 -2.751,-1.56c-1.467,0.425 -2.688,1.363 -3.494,2.66c-0.617,0.997 -0.246,2.503 0.801,3.057c1.046,0.555 2.402,0.26 3.059,-0.8l0.005,0.005Z" style="fill:#fff;fill-rule:nonzero;"/><path d="M70.906,48.156l0.532,-0.791c0.165,-0.255 0.251,-0.532 0.263,-0.831c0.068,-0.295 0.054,-0.595 -0.039,-0.89c-0.166,-0.519 -0.506,-1.109 -1.029,-1.337l-0.233,-0.102c-0.255,-0.166 -0.532,-0.251 -0.832,-0.264c-0.295,-0.067 -0.595,-0.054 -0.891,0.04c-0.518,0.143 -1.082,0.545 -1.337,1.028c-0.273,0.519 -0.412,1.149 -0.223,1.721c0.165,0.519 0.505,1.109 1.029,1.337l0.232,0.103l-0.801,-3.058l-0.532,0.791c-0.165,0.255 -0.251,0.532 -0.264,0.832c-0.067,0.295 -0.054,0.594 0.04,0.889c0.143,0.519 0.546,1.082 1.029,1.337c0.519,0.273 1.15,0.411 1.722,0.223l0.533,-0.223c0.335,-0.197 0.603,-0.465 0.801,-0.8l-0,-0.005Z" style="fill:#fff;fill-rule:nonzero;"/><path d="M68.87,47.924c7.877,-0.259 15.469,-2.106 22.609,-5.436l-2.711,-0.349l1.029,0.926c2.133,1.917 5.31,-1.234 3.162,-3.161l-1.029,-0.925c-0.801,-0.72 -1.762,-0.791 -2.71,-0.349c-6.398,2.982 -13.3,4.596 -20.354,4.828c-2.872,0.094 -2.886,4.564 -0,4.47l0.004,-0.004Z" style="fill:#fff;fill-rule:nonzero;"/><path d="M89.644,48.492l-0.679,5.645c-0.143,1.203 1.132,2.235 2.236,2.235c1.329,0 2.094,-1.032 2.237,-2.235l0.68,-5.645c0.143,-1.203 -1.132,-2.236 -2.237,-2.236c-1.328,0 -2.093,1.033 -2.237,2.236Z" style="fill:#fff;fill-rule:nonzero;"/><path d="M85.69,49.555c-6.231,1.212 -12.463,2.423 -18.694,3.635c-2.461,0.478 -1.924,4.55 0.595,4.389c5.972,-0.375 11.939,-0.751 17.911,-1.127l-0.595,-4.389l-10.011,3.563c-2.693,0.956 -1.535,5.279 1.19,4.309l10.011,-3.563c2.233,-0.795 2.08,-4.559 -0.595,-4.389c-5.972,0.375 -11.939,0.751 -17.911,1.126l0.594,4.39c6.232,-1.211 12.464,-2.423 18.695,-3.634c2.823,-0.55 1.628,-4.859 -1.19,-4.31Z" style="fill:#fff;fill-rule:nonzero;"/><path d="M67.935,51.607l-3.56,12.709c-0.779,2.776 3.538,3.96 4.311,1.189l3.561,-12.709c0.779,-2.776 -3.538,-3.96 -4.312,-1.189Z" style="fill:#fff;fill-rule:nonzero;"/><path d="M65.851,62.103c-1.539,0.237 -3.078,0.05 -4.559,-0.393c-2.764,-0.823 -3.946,3.486 -1.19,4.309c2.295,0.684 4.581,0.755 6.934,0.393c1.194,-0.183 1.857,-1.68 1.561,-2.749c-0.349,-1.274 -1.552,-1.747 -2.751,-1.56l0.005,0Z" style="fill:#fff;fill-rule:nonzero;"/><path d="M67.412,51.017c-2.765,0.769 -5.534,0.908 -8.352,0.335c-2.818,-0.572 -4.012,3.737 -1.19,4.31c3.606,0.733 7.18,0.648 10.727,-0.336c2.769,-0.769 1.592,-5.082 -1.189,-4.309l0.004,0Z" style="fill:#fff;fill-rule:nonzero;"/><path d="M55.499,49.368c0.613,5.529 1.847,10.893 3.83,16.101c1.015,2.664 5.34,1.507 4.311,-1.189c-1.829,-4.81 -3.099,-9.794 -3.667,-14.912c-0.314,-2.83 -4.791,-2.861 -4.474,-0Z" style="fill:#fff;fill-rule:nonzero;"/><path d="M33.933,50.937l1.834,1.095c1.007,0.599 2.501,0.259 3.06,-0.8c0.559,-1.06 0.273,-2.419 -0.801,-3.058l-1.834,-1.095c-1.007,-0.599 -2.501,-0.259 -3.06,0.8c-0.559,1.059 -0.273,2.418 0.801,3.058Z" style="fill:#fff;fill-rule:nonzero;"/><path d="M35.365,53.02l6.915,0.661c1.203,0.117 2.237,-1.108 2.237,-2.235c-0,-1.305 -1.029,-2.119 -2.237,-2.235l-6.915,-0.661c-1.204,-0.117 -2.237,1.108 -2.237,2.235c-0,1.305 1.028,2.119 2.237,2.235Z" style="fill:#fff;fill-rule:nonzero;"/><path d="M90.387,48.38c-0.04,0.107 -0.139,0.299 -0.035,0.089c-0.086,0.17 -0.171,0.335 -0.264,0.496c-0.077,0.13 -0.153,0.26 -0.237,0.385c-0.032,0.049 -0.318,0.429 -0.117,0.183c-0.188,0.233 -0.398,0.451 -0.613,0.662c-0.035,0.035 -0.443,0.397 -0.286,0.268c0.134,-0.112 -0.322,0.223 -0.318,0.223c-1.002,0.675 -1.44,1.967 -0.801,3.058c0.582,0.992 2.054,1.479 3.06,0.8c1.848,-1.247 3.127,-2.901 3.923,-4.975c0.421,-1.095 -0.465,-2.499 -1.561,-2.749c-1.279,-0.291 -2.299,0.389 -2.751,1.56Z" style="fill:#fff;fill-rule:nonzero;"/><path d="M90.874,50.32c0.332,-0.268 -0.317,0.192 -0.397,0.237c-0.09,0.049 -0.626,0.259 -0.22,0.12c-0.196,0.067 -0.394,0.13 -0.595,0.179c-0.134,0.031 -0.268,0.058 -0.407,0.081c0.251,-0.036 0.246,-0.045 -0.022,-0.018c-1.167,0.067 -2.295,0.979 -2.237,2.235c0.054,1.153 0.984,2.306 2.237,2.235c1.834,-0.103 3.391,-0.751 4.804,-1.909c0.908,-0.742 0.828,-2.4 0,-3.16c-0.966,-0.885 -2.191,-0.791 -3.163,-0Z" style="fill:#fff;fill-rule:nonzero;"/><path d="M90.445,49.274c0.014,0.147 0,0.854 0.058,0.469c-0.022,0.143 -0.067,0.277 -0.098,0.416c-0.085,0.371 0.049,-0.031 -0.058,0.156c-0.072,0.126 -0.139,0.251 -0.22,0.367c-0.192,0.281 0.193,-0.188 -0.053,0.045c-0.027,0.026 -0.331,0.299 -0.175,0.178c0.166,-0.129 -0.312,0.175 -0.308,0.175c-1.06,0.581 -1.4,2.038 -0.801,3.057c0.599,1.02 1.995,1.386 3.06,0.8c1.982,-1.086 3.305,-3.388 3.068,-5.668c-0.12,-1.157 -0.943,-2.293 -2.236,-2.235c-1.109,0.049 -2.366,0.988 -2.237,2.235l0,0.005Z" style="fill:#fff;fill-rule:nonzero;"/><path d="M45.846,78.37c1.417,0.93 3.068,1.279 4.723,1.484c1.781,0.224 3.575,0.349 5.36,0.514c0.604,0.058 1.118,-0.554 1.118,-1.118c0,-0.652 -0.514,-1.059 -1.118,-1.117c-1.678,-0.156 -3.365,-0.286 -5.042,-0.478c-1.374,-0.157 -2.742,-0.451 -3.914,-1.221c-0.505,-0.331 -1.235,-0.098 -1.53,0.403c-0.318,0.545 -0.103,1.197 0.403,1.528l-0,0.005Z" style="fill:#fff;fill-rule:nonzero;"/><path d="M46.391,79.546l2.25,0.956c0.13,0.08 0.269,0.125 0.416,0.134c0.148,0.032 0.296,0.027 0.448,-0.018c0.259,-0.071 0.541,-0.272 0.666,-0.514c0.139,-0.259 0.206,-0.572 0.112,-0.863c-0.085,-0.254 -0.255,-0.559 -0.515,-0.666l-2.25,-0.956c-0.129,-0.08 -0.268,-0.125 -0.415,-0.134c-0.148,-0.032 -0.296,-0.027 -0.448,0.018c-0.259,0.071 -0.541,0.272 -0.667,0.513c-0.138,0.26 -0.205,0.573 -0.111,0.864c0.085,0.254 0.255,0.558 0.514,0.666Z" style="fill:#fff;fill-rule:nonzero;"/><path d="M48.301,80.708c2.863,0.518 5.811,0.366 8.589,-0.519c0.577,-0.183 0.944,-0.777 0.783,-1.377c-0.156,-0.563 -0.796,-0.965 -1.377,-0.782c-2.389,0.764 -4.935,0.966 -7.4,0.519c-0.595,-0.107 -1.207,0.16 -1.378,0.782c-0.147,0.541 0.184,1.265 0.783,1.377Z" style="fill:#fff;fill-rule:nonzero;"/><path d="M76.681,80.064l4.191,-0.438c0.304,-0.031 0.568,-0.103 0.792,-0.326c0.192,-0.192 0.34,-0.514 0.327,-0.792c-0.027,-0.554 -0.497,-1.184 -1.119,-1.117l-4.191,0.438c-0.305,0.031 -0.569,0.103 -0.792,0.326c-0.192,0.192 -0.34,0.515 -0.327,0.791c0.027,0.555 0.497,1.186 1.119,1.118Z" style="fill:#fff;fill-rule:nonzero;"/><path d="M80.698,79.367c1.32,-0.559 2.514,-1.337 3.592,-2.275l-1.87,-1.087c-0.081,0.3 -0.161,0.595 -0.259,0.885c-0.023,0.067 -0.05,0.139 -0.077,0.206c-0.062,0.174 0.063,-0.13 -0.013,0.035c-0.067,0.148 -0.139,0.291 -0.224,0.425c-0.036,0.058 -0.075,0.116 -0.116,0.175c0.067,-0.094 0.036,-0.041 -0.018,0.018c-0.049,0.048 -0.098,0.098 -0.143,0.147c-0.201,0.21 0.081,-0.04 -0.058,0.049c-0.215,0.139 -0.519,0.224 -0.703,0.246c-0.774,0.099 -1.574,0.081 -2.352,0.112l-2.573,0.107c-0.604,0.027 -1.118,0.496 -1.118,1.118c-0,0.586 0.51,1.144 1.118,1.117l2.864,-0.12c0.948,-0.041 1.95,-0 2.876,-0.224c1.789,-0.429 2.518,-2.087 2.943,-3.706c0.295,-1.126 -1.046,-1.801 -1.87,-1.086c-0.899,0.783 -1.99,1.44 -3.14,1.926c-0.554,0.237 -0.68,1.056 -0.403,1.53c0.336,0.576 0.971,0.639 1.53,0.402l0.014,-0Z" style="fill:#fff;fill-rule:nonzero;"/><path d="M81.239,78.803l-5.556,-0.442c-0.586,-0.045 -1.145,0.545 -1.118,1.117c0.027,0.644 0.492,1.069 1.118,1.118l5.556,0.442c0.586,0.045 1.145,-0.545 1.118,-1.117c-0.027,-0.644 -0.492,-1.068 -1.118,-1.118Z" style="fill:#fff;fill-rule:nonzero;"/><path d="M59.843,31.022c0.035,2.249 0.554,4.631 1.686,6.598c0.546,0.943 1.373,1.739 2.505,1.815c1.132,0.076 2.179,-0.764 2.76,-1.703c0.318,-0.51 0.528,-1.077 0.792,-1.614c0.206,-0.42 0.452,-0.889 0.841,-1.162l-1.226,-1.225l-0.608,1.019l1.544,0l-1.239,-2.159c-0.403,-0.702 -0.765,-1.564 -1.477,-2.002c-0.622,-0.385 -1.328,-0.358 -2.018,-0.237c-0.294,0.049 -0.585,0.129 -0.885,0.17c-0.165,0.022 -0.447,0.008 -0.631,-0.054c-0.599,-0.201 -1.082,0.322 -1.132,0.863c-0.241,2.543 0.725,5.131 2.523,6.937c0.278,0.282 0.743,0.34 1.083,0.139c0.367,-0.215 0.474,-0.613 0.411,-1.01l-0.836,-5.275c-0.076,-0.478 -0.671,-0.742 -1.1,-0.626c-0.519,0.143 -0.69,0.621 -0.627,1.1l0.367,2.686c0.103,0.76 0.242,1.556 0.917,2.03c0.716,0.5 1.673,0.295 2.232,-0.345c0.672,-0.773 0.559,-1.774 0.327,-2.695c-0.094,-0.38 -0.474,-0.657 -0.864,-0.657c-0.357,-0 -0.804,0.273 -0.863,0.657l-0.116,0.805l1.726,-0l-1.086,-3.009c-0.153,-0.416 -0.524,-0.711 -0.98,-0.639c-0.434,0.067 -0.774,0.425 -0.774,0.876l0,1.144c0,0.394 0.278,0.76 0.653,0.863c0.349,0.099 0.855,-0.053 1.011,-0.411l0.336,-0.764c0.196,-0.443 0.129,-0.961 -0.323,-1.225c-0.38,-0.224 -1.028,-0.125 -1.225,0.322l-0.336,0.764l1.669,0.451l0,-1.144l-1.753,0.237l1.086,3.008c0.135,0.376 0.447,0.658 0.864,0.658c0.357,-0 0.805,-0.273 0.863,-0.658l0.116,-0.804l-1.726,-0c0.062,0.246 0.143,0.5 0.134,0.755c-0,0.049 -0.027,0.215 -0.023,0.21c0.014,-0.062 -0.071,0.139 -0.036,0.067c-0.089,0.166 -0.089,-0.017 -0.013,0.036c0.009,0.009 0.117,0.031 0.13,0.031l0.027,0.036c-0.045,-0.094 -0.058,-0.107 -0.036,-0.04c-0.036,-0.089 -0.063,-0.188 -0.085,-0.286c-0.121,-0.505 -0.157,-1.037 -0.228,-1.551l-0.26,-1.887l-1.726,0.474l0.836,5.275l1.494,-0.872c-1.494,-1.497 -2.2,-3.58 -1.999,-5.672l-1.132,0.862c0.622,0.211 1.266,0.121 1.897,0c0.241,-0.049 0.541,-0.116 0.689,-0.125c0.13,-0.009 0.259,-0.009 0.389,0c-0.099,-0.004 0.049,0.027 0.049,0.023c0.184,0.098 0.295,0.326 0.412,0.523c0.196,0.335 0.389,0.675 0.581,1.014l1.168,2.03c0.335,0.59 1.203,0.572 1.543,-0l0.608,-1.019c0.438,-0.734 -0.469,-1.753 -1.225,-1.225c-1.043,0.733 -1.45,1.806 -1.996,2.905c-0.223,0.452 -0.474,0.908 -0.912,1.18c-0.367,0.224 -0.658,0.197 -0.949,-0.026c-0.335,-0.255 -0.572,-0.689 -0.774,-1.091c-0.268,-0.532 -0.483,-1.091 -0.661,-1.658c-0.38,-1.203 -0.582,-2.437 -0.6,-3.697c-0.017,-1.149 -1.807,-1.154 -1.789,-0l0,0.004Z" style="fill:#fdcaa4;fill-rule:nonzero;"/><path d="M64.956,32.113c1.15,-0 1.154,-1.788 -0,-1.788c-1.154,-0 -1.154,1.788 -0,1.788Z" style="fill:#fdcaa4;fill-rule:nonzero;"/><path d="M60.612,31.916c1.15,0 1.154,-1.788 -0,-1.788c-1.154,0 -1.154,1.788 -0,1.788Z" style="fill:#fdcaa4;fill-rule:nonzero;"/><path d="M58.863,34.63c0.013,0.33 0.094,0.621 0.241,0.916c0.072,0.143 0.175,0.268 0.273,0.389c0.099,0.121 0.224,0.21 0.349,0.304c0.072,0.054 0.143,0.098 0.224,0.134c0.144,0.063 0.291,0.134 0.443,0.165c0.331,0.067 0.649,0.072 0.979,-0.013c0.216,-0.054 0.426,-0.224 0.537,-0.411c0.112,-0.188 0.162,-0.474 0.09,-0.689c-0.072,-0.214 -0.206,-0.424 -0.411,-0.536c-0.207,-0.112 -0.448,-0.152 -0.69,-0.089c-0.044,0.008 -0.084,0.017 -0.129,0.026l0.237,-0.031c-0.094,0.013 -0.188,0.013 -0.286,0l0.237,0.031c-0.103,-0.013 -0.202,-0.04 -0.296,-0.08l0.215,0.089c-0.089,-0.035 -0.17,-0.085 -0.246,-0.143l0.179,0.139c-0.072,-0.058 -0.139,-0.125 -0.197,-0.197l0.139,0.179c-0.058,-0.076 -0.103,-0.157 -0.139,-0.241l0.09,0.214c-0.041,-0.094 -0.068,-0.188 -0.081,-0.29l0.031,0.236c0,-0.035 -0.009,-0.071 -0.009,-0.107c-0.009,-0.237 -0.093,-0.465 -0.264,-0.63c-0.156,-0.157 -0.411,-0.273 -0.63,-0.264c-0.219,0.009 -0.47,0.085 -0.631,0.264c-0.161,0.179 -0.273,0.393 -0.264,0.63l0.009,0.005Z" style="fill:#fdcaa4;fill-rule:nonzero;"/><path d="M62.102,39.949c0.014,0.461 -0.013,0.917 -0.076,1.368l0.031,-0.237c-0.04,0.295 -0.076,0.613 -0.192,0.89l0.089,-0.215c-0.022,0.054 -0.049,0.098 -0.081,0.148l0.139,-0.179c-0.026,0.036 -0.053,0.062 -0.089,0.089l0.179,-0.138c-0.027,0.018 -0.054,0.031 -0.081,0.049l0.215,-0.09c0,0 -0.04,0.014 -0.063,0.018c-0.451,0.116 -0.774,0.648 -0.626,1.1c0.148,0.451 0.613,0.746 1.1,0.626c0.738,-0.188 0.981,-0.912 1.092,-1.574c0.103,-0.612 0.156,-1.229 0.144,-1.85c-0.014,-0.47 -0.403,-0.917 -0.895,-0.894c-0.492,0.022 -0.908,0.393 -0.895,0.894l0.009,-0.005Z" style="fill:#fdcaa4;fill-rule:nonzero;"/><path d="M62.576,43.624c0.062,0.04 0.125,0.084 0.188,0.129l-0.179,-0.138c0.157,0.12 0.295,0.259 0.416,0.415l-0.138,-0.178c0.125,0.16 0.228,0.335 0.308,0.522l-0.089,-0.214c0.018,0.045 0.036,0.094 0.053,0.143c0.027,0.116 0.081,0.219 0.161,0.304c0.063,0.098 0.148,0.174 0.251,0.232c0.102,0.067 0.214,0.103 0.331,0.108c0.121,0.027 0.237,0.022 0.358,-0.018c0.214,-0.072 0.424,-0.206 0.536,-0.411c0.113,-0.206 0.17,-0.465 0.09,-0.689c-0.067,-0.192 -0.148,-0.389 -0.25,-0.568c-0.103,-0.178 -0.228,-0.344 -0.354,-0.505c-0.21,-0.268 -0.483,-0.487 -0.769,-0.67c-0.104,-0.067 -0.215,-0.103 -0.332,-0.107c-0.12,-0.027 -0.237,-0.023 -0.357,0.017c-0.117,0.027 -0.219,0.081 -0.304,0.161c-0.099,0.063 -0.175,0.148 -0.233,0.251c-0.112,0.205 -0.165,0.46 -0.09,0.688c0.076,0.228 0.206,0.407 0.412,0.537l-0.009,-0.009Z" style="fill:#fdcaa4;fill-rule:nonzero;"/><path d="M63.64,44.915l0.077,1.042c0.018,0.241 0.192,0.447 0.447,0.447c0.255,-0 0.439,-0.206 0.448,-0.447c0.009,-0.188 0.075,-0.362 0.187,-0.536c0.103,-0.161 0.255,-0.313 0.416,-0.438c0.385,-0.296 0.891,-0.483 1.347,-0.689c0.478,-0.214 0.966,-0.492 1.172,-1.006c0.205,-0.514 0.054,-1.028 -0.376,-1.336c-0.197,-0.139 -0.496,-0.036 -0.613,0.161c-0.129,0.223 -0.036,0.469 0.162,0.612c-0.036,-0.027 0.008,0.049 -0.005,0c0.035,0.139 -0.018,-0.085 0.022,0.058c0.009,0.04 -0,0.094 -0,0.107c-0.022,0.103 -0.017,0.103 -0.08,0.179c-0.041,0.054 -0.108,0.108 -0.162,0.148c-0.375,0.273 -0.845,0.411 -1.261,0.612c-0.859,0.411 -1.651,1.109 -1.695,2.123l0.895,0l-0.077,-1.041c-0.018,-0.241 -0.192,-0.447 -0.447,-0.447c-0.228,-0 -0.466,0.206 -0.448,0.447l-0.009,0.004Z" style="fill:#fdcaa4;fill-rule:nonzero;"/><path d="M65.113,39.6l0.308,2.11c0.009,0.076 0.022,0.152 0.031,0.228c0.009,0.049 0.014,0.094 0.023,0.143c-0.014,-0.116 -0.018,-0.138 -0.009,-0.071c0.004,0.076 0.071,0.38 0.013,0.438c0.023,-0.13 0.023,-0.143 0,-0.045c-0.009,0.045 -0.022,0.085 -0.036,0.125l0.036,-0.094c-0.049,0.081 -0.031,0.063 0.049,-0.044c-0.022,0.027 -0.049,0.053 -0.076,0.08c0.103,-0.076 0.13,-0.094 0.076,-0.058c-0.192,0.103 0.161,-0.018 -0.004,0.014c-0.179,0.035 0.197,0.008 0.027,-0c-0.099,-0 -0.072,-0 0.081,0.017c-0.09,-0.026 -0.072,-0.013 0.062,0.036c-0.023,-0.013 -0.049,-0.027 -0.071,-0.04c-0.059,-0.036 -0.032,-0.018 0.075,0.058c-0.027,-0.022 -0.053,-0.049 -0.075,-0.076c0.075,0.103 0.093,0.13 0.053,0.072c-0.067,-0.103 -0.121,-0.21 -0.179,-0.318c-0.04,-0.089 -0.031,-0.067 0.023,0.058c-0.018,-0.04 -0.032,-0.08 -0.05,-0.12c-0.027,-0.067 -0.054,-0.134 -0.08,-0.206c-0.125,-0.317 -0.246,-0.639 -0.336,-0.97c-0.04,-0.156 -0.107,-0.335 -0.107,-0.496l0.013,0.094c-0.004,-0.049 -0.009,-0.094 -0.013,-0.143c-0.009,-0.099 -0.009,-0.193 -0.009,-0.291l-1.669,0.452c-0.089,-0.206 0.032,0.084 0.045,0.12c0.027,0.067 0.05,0.139 0.071,0.206c0.054,0.161 0.099,0.322 0.144,0.487c0.045,0.166 0.076,0.331 0.103,0.496c0.008,0.049 0.058,0.264 0.008,0.049c0.023,0.09 0.023,0.197 0.027,0.291c0.036,0.447 0.314,0.818 0.774,0.876c0.461,0.058 0.837,-0.214 0.98,-0.639c0.255,-0.747 0.389,-1.542 0.403,-2.333l-1.79,-0l0.032,1.801c0.009,0.469 0.407,0.916 0.894,0.894c0.488,-0.022 0.904,-0.393 0.895,-0.894l-0.031,-1.801c-0.009,-0.47 -0.408,-0.917 -0.895,-0.895c-0.488,0.023 -0.886,0.394 -0.895,0.895c0,0.169 -0.009,0.344 -0.026,0.514c-0,0.026 -0.036,0.299 -0.018,0.174c0.018,-0.125 -0.027,0.147 -0.032,0.174c-0.063,0.34 -0.152,0.671 -0.264,0.997l1.758,0.237c-0.071,-0.898 -0.286,-1.725 -0.644,-2.552c-0.148,-0.345 -0.671,-0.523 -1.011,-0.412c-0.38,0.121 -0.653,0.456 -0.658,0.863c-0.004,0.702 0.175,1.386 0.421,2.038c0.246,0.653 0.483,1.355 1.082,1.788c0.636,0.465 1.607,0.309 2.126,-0.268c0.308,-0.344 0.447,-0.742 0.487,-1.193c0.032,-0.362 -0.045,-0.733 -0.098,-1.091l-0.331,-2.262c-0.032,-0.205 -0.242,-0.433 -0.412,-0.536c-0.192,-0.112 -0.474,-0.161 -0.689,-0.09c-0.51,0.166 -0.698,0.604 -0.626,1.1l0.014,0.013Z" style="fill:#fdcaa4;fill-rule:nonzero;"/><path d="M33.003,47.875c-0.229,0.554 -0.291,1.184 -0.26,1.779c0.018,0.348 0.067,0.693 0.116,1.037c0.041,0.268 0.072,0.545 0.144,0.804c0.201,0.729 0.769,1.279 1.525,1.377c0.756,0.099 1.472,-0.272 1.812,-0.93c0.179,-0.339 0.161,-0.809 -0.139,-1.081c-0.273,-0.251 -0.756,-0.376 -1.082,-0.139l-0.94,0.68c-0.313,0.228 -0.541,0.608 -0.412,1.01c0.13,0.402 0.457,0.639 0.864,0.657c0.962,0.04 1.91,-0.68 2.102,-1.627c0.094,-0.456 -0.129,-0.988 -0.626,-1.1c-0.496,-0.112 -0.966,0.143 -1.1,0.626l-0.166,0.608c-0.116,0.434 0.112,0.885 0.519,1.055c0.376,0.156 0.935,0.04 1.118,-0.367c0.465,-1.023 0.627,-2.119 0.412,-3.227c-0.058,-0.3 -0.193,-0.595 -0.403,-0.814c-0.228,-0.237 -0.514,-0.348 -0.814,-0.469c-0.483,-0.192 -0.966,-0.384 -1.449,-0.577c-0.546,-0.214 -1.141,0.331 -1.132,0.863c0.022,1.207 0.318,2.374 0.85,3.455c0.205,0.421 0.836,0.568 1.225,0.322c0.43,-0.277 0.542,-0.773 0.323,-1.224c-0.054,-0.112 -0.116,-0.224 -0.157,-0.336c0.045,0.116 0.023,0.054 -0.009,-0.027c-0.022,-0.058 -0.045,-0.116 -0.067,-0.174c-0.085,-0.232 -0.156,-0.469 -0.215,-0.711c-0.031,-0.12 -0.053,-0.241 -0.076,-0.362c-0.009,-0.049 -0.018,-0.098 -0.027,-0.147c-0.004,-0.036 -0.013,-0.072 -0.018,-0.112c-0.009,-0.054 -0.009,-0.049 0,0.009c0.009,0.071 0.009,0.058 0,-0.027l-0.009,-0.076c-0.004,-0.062 -0.013,-0.125 -0.018,-0.183c-0.008,-0.134 -0.012,-0.273 -0.017,-0.407l-1.132,0.863l1.19,0.474c0.098,0.04 0.206,0.067 0.295,0.116c-0.286,-0.157 0.179,0.165 -0.058,-0.049c0.072,0.071 0.063,0.058 -0.023,-0.041c-0.044,-0.12 -0.053,-0.138 -0.021,-0.044c0.013,0.071 0.03,0.143 0.044,0.219c0.009,0.067 0.009,0.049 -0.005,-0.058c0.005,0.049 0.009,0.098 0.014,0.147c0.009,0.098 0.013,0.197 0.013,0.295c0,0.192 0,0.398 -0.031,0.586c0.045,-0.237 -0.018,0.08 -0.026,0.125c-0.023,0.094 -0.045,0.192 -0.072,0.286c-0.027,0.094 -0.058,0.188 -0.09,0.282c-0.018,0.044 -0.036,0.093 -0.054,0.138c0.045,-0.098 0.045,-0.103 0,-0.013l1.638,0.688l0.165,-0.608l-1.726,-0.474l-0.045,0.166c0.058,-0.125 0.062,-0.143 0.022,-0.058l-0.027,0.049c-0.111,0.192 0,-0 0.005,-0c-0.027,0.027 -0.054,0.058 -0.08,0.08l-0,0c-0.023,0.018 -0.05,0.032 -0.077,0.045c-0.174,0.098 0.081,-0.013 0.005,0c-0.054,0.013 -0.21,0.013 -0.076,0.031c0.161,0.018 -0.077,0 -0.107,-0.004l0.451,1.667l0.94,-0.679l-1.226,-1.225c-0,-0 -0.058,0.085 -0.058,0.103c0.076,-0.094 0.094,-0.116 0.049,-0.067c-0.013,0.013 -0.027,0.027 -0.04,0.04c-0.059,0.076 0.13,-0.072 0.04,-0.031c-0.156,0.071 -0.013,-0.009 0.027,-0c-0.009,-0 -0.108,0.026 -0.112,0.031c0.031,-0.036 0.193,0.004 0.063,-0.013c-0.193,-0.032 0.138,0.053 0.031,0.008c-0.027,-0.008 -0.152,-0.058 -0.031,0c0.156,0.072 -0.054,-0.026 -0.05,-0.035c-0.004,0.018 0.157,0.111 0.045,0.027c-0.111,-0.085 0.049,0.017 0.027,0.044c-0.013,0.018 -0.099,-0.214 -0.049,-0.076c0.04,0.112 -0.005,-0.035 -0.009,-0.053c-0.014,-0.054 -0.027,-0.112 -0.041,-0.17c-0.022,-0.103 -0.036,-0.21 -0.053,-0.313c-0.013,-0.094 -0.031,-0.192 -0.045,-0.286c-0.013,-0.103 -0.036,-0.134 0,-0.018c-0.013,-0.045 -0.013,-0.098 -0.018,-0.143c-0.022,-0.215 -0.04,-0.434 -0.045,-0.653c0,-0.107 0,-0.214 0.009,-0.322c0,-0.049 0.009,-0.094 0.014,-0.143c0.004,-0.129 -0.031,0.152 -0,0.027c0.045,-0.223 0.099,-0.438 0.188,-0.648c0.178,-0.434 -0.193,-1.001 -0.626,-1.1c-0.519,-0.12 -0.909,0.161 -1.101,0.626l0.005,-0.004Z" style="fill:#fdcaa4;fill-rule:nonzero;"/><path d="M93.447,47.977c-0.085,0.144 0.031,-0.044 0.045,-0.04c-0,0 -0.09,0.085 -0.095,0.099c-0.053,0.08 0.144,-0.063 0.05,-0.045c-0.014,-0 -0.121,0.062 -0.121,0.067c0,-0.013 0.215,-0.076 0.058,-0.027c-0.035,0.014 -0.071,0.027 -0.112,0.036c-0.094,0.027 -0.192,0.054 -0.29,0.071c-0.407,0.09 -0.801,0.166 -1.181,0.349c-1.056,0.51 -1.235,1.69 -1.28,2.74c-0.053,1.212 0.376,2.495 1.624,2.919c1.248,0.425 2.362,-0.652 2.613,-1.824c0.142,-0.661 0.183,-1.358 0.259,-2.029l0.228,-1.962c0.045,-0.371 -0.309,-0.783 -0.657,-0.863c-0.349,-0.081 -0.846,0.045 -1.011,0.411l-1.812,4.032c-0.192,0.425 -0.139,0.984 0.322,1.225c0.389,0.206 1.02,0.134 1.226,-0.322l1.812,-4.032l-1.669,-0.451l-0.344,2.941c-0.014,0.112 -0.027,0.219 -0.041,0.331c-0.018,0.147 0.023,-0.121 0,0.027c-0.009,0.044 -0.013,0.089 -0.022,0.129c-0.023,0.116 -0.054,0.228 -0.085,0.344c-0,0 -0.045,0.139 -0.018,0.059c0.027,-0.081 -0.045,0.089 -0.054,0.102c-0.022,0.041 -0.053,0.081 -0.076,0.121c0.009,-0.018 0.098,-0.098 0.027,-0.04c-0.036,0.031 -0.072,0.067 -0.103,0.103c-0.067,0.071 0.027,-0.027 0.04,-0.032c-0.148,0.076 -0.004,0.018 0.023,0.005c-0.045,0.018 -0.094,0.022 -0.139,0.04c0.013,0 0.161,-0.013 0.063,-0.013c-0.068,-0 -0.05,-0 0.062,0.017l-0.067,-0.013c-0.036,-0.018 -0.152,-0.067 0.014,0.018c-0.032,-0.018 -0.063,-0.031 -0.095,-0.049c-0.021,-0.014 -0.147,-0.103 -0.057,-0.031c0.084,0.067 -0.009,-0.014 -0.023,-0.023c-0.036,-0.036 -0.067,-0.071 -0.103,-0.107c0.027,0.031 0.085,0.143 0.009,-0c-0.018,-0.031 -0.036,-0.067 -0.054,-0.094c-0.027,-0.054 -0.022,-0.045 0.009,0.036l-0.027,-0.081c-0.026,-0.098 -0.048,-0.196 -0.071,-0.295c-0.036,-0.138 0,0.121 0,-0.022c0,-0.045 -0.004,-0.089 -0.009,-0.13c-0.009,-0.237 0,-0.474 0.018,-0.706c0.005,-0.089 0.014,-0.183 0.023,-0.273c-0,-0.031 0.026,-0.187 0.004,-0.067c-0.018,0.112 0,-0.013 0.009,-0.031c0.022,-0.098 0.044,-0.192 0.067,-0.286c-0,-0.014 0.04,-0.134 0.004,-0.031c-0.036,0.116 0.036,-0.063 0.05,-0.09c0.022,-0.049 0.098,-0.112 -0.018,0.005c0.022,-0.023 0.053,-0.054 0.076,-0.076c0.076,-0.099 -0.139,0.062 -0.041,0.027c0.027,-0.009 0.05,-0.032 0.072,-0.045c-0.009,0.004 0.103,-0.058 0.103,-0.054c-0,0.005 -0.215,0.076 -0.05,0.023c0.077,-0.027 0.153,-0.05 0.234,-0.072c0.33,-0.089 0.675,-0.125 1.002,-0.241c0.474,-0.17 0.872,-0.434 1.131,-0.877c0.237,-0.402 0.108,-0.996 -0.322,-1.224c-0.429,-0.228 -0.971,-0.112 -1.226,0.322l-0.004,-0Z" style="fill:#fdcaa4;fill-rule:nonzero;"/><path d="M54.063,77.686c-2.362,0.219 -4.625,-0.138 -6.755,-1.194c-1.069,-0.527 -2.719,0.666 -1.833,1.834c1.221,1.608 2.885,2.534 4.942,2.435c1.718,-0.08 1.741,-2.695 0,-2.682l-1.767,0.014c-1.453,0.009 -1.901,2.422 -0.358,2.632c1.803,0.246 3.548,0.296 5.355,0.063c1.691,-0.219 1.709,-2.905 0,-2.682c-1.543,0.201 -3.091,0.246 -4.638,0.036l-0.359,2.633l1.767,-0.014l0,-2.682c-1.033,0.049 -1.977,-0.246 -2.626,-1.108l-1.833,1.832c2.545,1.257 5.278,1.824 8.109,1.56c1.705,-0.16 1.723,-2.842 0,-2.682l-0.004,0.005Z" style="fill:#fdcaa4;fill-rule:nonzero;"/><path d="M76.551,80.315c2.908,0.125 5.681,-1.033 7.627,-3.192l-2.241,-1.305c-0.39,1.117 -0.805,1.971 -2.009,2.355c-1.203,0.385 -2.478,0.144 -3.65,-0.045c-1.691,-0.267 -2.416,2.316 -0.716,2.589c1.955,0.312 3.963,0.59 5.834,-0.237c1.731,-0.765 2.536,-2.231 3.131,-3.947c0.438,-1.261 -1.36,-2.284 -2.241,-1.306c-1.512,1.677 -3.472,2.504 -5.731,2.41c-1.726,-0.076 -1.722,2.606 0,2.682l-0.004,-0.004Z" style="fill:#fdcaa4;fill-rule:nonzero;"/><path d="M67.77,25.162c-3.199,-0.662 -10.558,-0.975 -9.905,4.238c0.211,1.689 2.899,1.712 2.685,-0c-0.349,-2.794 5.01,-1.963 6.508,-1.654c1.687,0.348 2.407,-2.235 0.716,-2.589l-0.004,0.005Z" style="fill:#cf763a;fill-rule:nonzero;"/><path d="M60.912,30.146c0.528,-0.366 1.024,-0.746 1.459,-1.225c0.456,-0.505 0.679,-1.283 1.118,-1.748c0.438,-0.464 -0.443,-0.111 0.465,-0.299c0.335,-0.072 0.895,0.148 1.221,0.246c0.976,0.286 1.861,0.755 2.662,1.39c1.359,1.082 2.97,-0.536 1.896,-1.895l-0.523,-0.666c-1.029,-1.306 -2.644,0.366 -2.107,1.627l0.917,2.15c0.528,1.234 2.572,0.59 2.501,-0.675l-0.054,-0.899l-2.635,0.358c0.134,0.559 0.608,2.012 -0.362,2.253l1.651,1.649c0.742,-4.841 -5.028,-8.099 -8.428,-4.148c-0.667,0.774 -0.314,2.441 0.948,2.289c0.98,-0.116 1.964,-0.241 2.944,-0.349c0.979,-0.107 1.332,-0.062 1.404,1.037c0.108,1.717 2.792,1.726 2.685,0c-0.081,-1.292 -0.345,-2.762 -1.593,-3.451c-1.521,-0.84 -3.838,-0.111 -5.44,0.081l0.949,2.289c1.422,-1.654 4.32,-0.939 3.941,1.537c-0.152,0.993 0.577,1.918 1.65,1.65c2.657,-0.666 2.764,-3.322 2.237,-5.552c-0.345,-1.453 -2.725,-1.167 -2.635,0.357l0.054,0.899l2.5,-0.675l-0.916,-2.15l-2.108,1.627l0.524,0.666l1.896,-1.895c-1.695,-1.346 -3.677,-2.334 -5.882,-2.437c-2.72,-0.129 -2.425,2.352 -4.294,3.653c-1.41,0.979 -0.068,3.303 1.355,2.315l-0,-0.009Z" style="fill:#cf763a;fill-rule:nonzero;"/><path d="M69.877,24.907l0.523,-2.154c0.08,-0.331 0.308,-0.823 0.282,-1.163l0.08,-0.331c-0.675,0.014 -0.876,0.121 -0.603,0.309c0.075,0.063 0.143,0.13 0.201,0.206c0.063,0.084 0.054,0.022 -0.023,-0.179c-0.165,0.201 -0.496,0.339 -0.715,0.491l-2.004,1.359c-1.423,0.966 -0.081,3.29 1.355,2.316l2.004,-1.359c0.582,-0.393 1.248,-0.773 1.651,-1.363c0.805,-1.181 0.339,-2.571 -0.672,-3.456c-1.011,-0.885 -2.567,-1.091 -3.421,0.121c-0.425,0.603 -0.51,1.471 -0.68,2.168l-0.564,2.32c-0.407,1.676 2.178,2.391 2.59,0.715l-0.004,0Z" style="fill:#cf763a;fill-rule:nonzero;"/><path d="M57.544,29.494l1.136,2.981c0.08,0.21 0.255,0.353 0.492,0.322c0.237,-0.031 0.358,-0.215 0.389,-0.438l0.273,-2.168c0.031,-0.233 -0.229,-0.456 -0.448,-0.447c-0.268,0.013 -0.416,0.197 -0.447,0.447l-0.273,2.168l0.877,-0.121l-1.136,-2.981c-0.085,-0.224 -0.3,-0.38 -0.551,-0.313c-0.214,0.058 -0.398,0.322 -0.312,0.55Z" style="fill:#cf763a;fill-rule:nonzero;"/><path d="M59.579,29.829c-0.161,0.174 -0.273,0.371 -0.349,0.594c-0.063,0.188 -0.09,0.398 -0.067,0.595c-0,0.062 0.009,0.12 0.04,0.174c0.018,0.054 0.049,0.103 0.094,0.143c0.076,0.076 0.206,0.134 0.317,0.13c0.112,-0.005 0.237,-0.045 0.318,-0.13c0.076,-0.08 0.144,-0.201 0.13,-0.317c-0.009,-0.09 -0.009,-0.175 0,-0.264l-0.018,0.121c0.014,-0.103 0.041,-0.201 0.08,-0.295l-0.044,0.107c0.035,-0.085 0.085,-0.165 0.139,-0.241l-0.072,0.089c0.018,-0.027 0.04,-0.049 0.063,-0.076c0.08,-0.089 0.13,-0.197 0.13,-0.317c-0,-0.112 -0.05,-0.242 -0.13,-0.318c-0.081,-0.076 -0.197,-0.134 -0.318,-0.129c-0.121,0.004 -0.237,0.044 -0.317,0.129l0.004,0.005Z" style="fill:#cf763a;fill-rule:nonzero;"/><path d="M69.08,32.426l-0.098,0.049c-0.054,0.027 -0.094,0.067 -0.125,0.116c-0.041,0.045 -0.067,0.094 -0.081,0.152c-0.018,0.058 -0.022,0.121 -0.009,0.179c0,0.058 0.023,0.116 0.054,0.165l0.072,0.09c0.053,0.053 0.12,0.094 0.196,0.116l0.121,0.018c0.081,-0 0.157,-0.022 0.223,-0.063l0.099,-0.049c0.054,-0.027 0.094,-0.067 0.126,-0.116c0.039,-0.045 0.066,-0.094 0.08,-0.152c0.018,-0.058 0.022,-0.121 0.009,-0.179c-0,-0.058 -0.023,-0.116 -0.054,-0.165l-0.071,-0.09c-0.054,-0.053 -0.121,-0.094 -0.197,-0.116l-0.121,-0.018c-0.081,0 -0.156,0.023 -0.224,0.063Z" style="fill:#cf763a;fill-rule:nonzero;"/><path d="M58.948,33.07l0.197,0.241c0.04,0.045 0.089,0.076 0.143,0.094c0.054,0.027 0.112,0.04 0.175,0.04c0.062,0 0.121,-0.009 0.174,-0.04c0.054,-0.018 0.103,-0.049 0.143,-0.094l0.071,-0.089c0.041,-0.072 0.063,-0.143 0.063,-0.224l-0.018,-0.121c-0.022,-0.076 -0.057,-0.143 -0.116,-0.196l-0.196,-0.242c-0.041,-0.044 -0.09,-0.076 -0.144,-0.094c-0.054,-0.026 -0.111,-0.04 -0.174,-0.04c-0.063,0 -0.121,0.009 -0.175,0.04c-0.053,0.018 -0.103,0.05 -0.143,0.094l-0.072,0.09c-0.039,0.071 -0.062,0.143 -0.062,0.223l0.018,0.121c0.022,0.076 0.058,0.143 0.116,0.197Z" style="fill:#cf763a;fill-rule:nonzero;"/><path d="M70.355,24.29l-2.04,0.715c-0.219,0.076 -0.389,0.309 -0.313,0.55c0.072,0.219 0.313,0.394 0.55,0.313l2.04,-0.715c0.22,-0.076 0.389,-0.309 0.314,-0.55c-0.072,-0.219 -0.314,-0.393 -0.551,-0.313Z" style="fill:#cf763a;fill-rule:nonzero;"/><path d="M67.533,23.061l-0.041,1.77c-0.004,0.224 0.174,0.411 0.39,0.438c0.201,0.027 0.456,-0.098 0.492,-0.322l0.053,-0.313c0.022,-0.12 0.018,-0.232 -0.044,-0.344c-0.054,-0.094 -0.162,-0.183 -0.269,-0.205c-0.214,-0.05 -0.51,0.067 -0.55,0.313l-0.054,0.312l0.877,0.121l0.04,-1.77c0.004,-0.232 -0.21,-0.456 -0.447,-0.447c-0.237,0.009 -0.443,0.197 -0.447,0.447Z" style="fill:#cf763a;fill-rule:nonzero;"/><path d="M67.228,22.77l0,2.083c-0.004,0.233 0.201,0.456 0.443,0.447c0.242,-0.008 0.448,-0.196 0.448,-0.447l-0,-2.083c0.004,-0.232 -0.201,-0.456 -0.444,-0.447c-0.241,0.009 -0.447,0.197 -0.447,0.447Z" style="fill:#cf763a;fill-rule:nonzero;"/><path d="M86.491,91.901c-2.219,0 -42.332,0.233 -46.707,0.331c-0.313,0.009 -0.371,0.586 -0.031,0.586c4.12,-0.045 9.662,0.062 13.975,0.062c2.805,0 4.549,0.041 4.759,3.407c0.175,2.865 -1.006,4.009 -3.856,4.009c-4.836,0 -10.302,0.076 -14.932,0.076c-0.371,-0 -0.371,0.613 -0,0.626c12.163,0.384 40.507,-0.412 46.626,-0.34c2.59,0.031 4.044,-1.26 4.035,-4.027c-0.013,-3.156 -1.552,-4.73 -3.865,-4.73l-0.004,0Zm-20.032,6.339c-0.067,0.456 -0.559,0.42 -0.51,-0.117c0.027,-0.965 -0.045,-1.935 -0.215,-2.887c-0.143,-0.823 0,-0.711 0.774,-0.711c4.881,-0 11.425,-0.112 16.337,-0.107c0.403,-0 0.394,0.416 -0,0.433c-5.645,0.215 -11.228,0.371 -16.493,0.3c0.219,1.015 0.255,2.06 0.111,3.089l-0.004,-0Zm18.202,-0.532c-0.156,0.791 -0.559,0.916 -1.284,0.925c-5.18,0.054 -10.593,0.237 -15.728,0.138c-0.336,-0.003 -0.371,-0.536 -0.036,-0.531c5.203,0.045 10.973,-0.242 16.337,-0.349c0.21,-0.487 0.407,-1.381 -0.135,-3.161c-0.098,-0.312 0.22,-0.495 0.372,-0.205c0.514,0.979 0.684,2.101 0.474,3.187l0,-0.004Z" style="fill:#191919;fill-rule:nonzero;"/><path d="M41.44,99.764c1.48,-1.207 1.775,-4.278 0.246,-5.784c-0.207,-0.206 -0.519,0.098 -0.372,0.321c1.065,1.578 0.975,3.666 -0.224,5.145c-0.143,0.175 0.166,0.447 0.353,0.314l-0.003,0.004Z" style="fill:#191919;fill-rule:nonzero;"/><path d="M53.629,94.825c-2.746,0.098 -4.974,0.303 -7.77,0.089c-0.143,-0.009 -0.268,0.098 -0.282,0.246c-0.009,0.133 0.085,0.254 0.219,0.277c2.112,0.175 5.865,0.237 7.909,-0.117c0.134,-0.022 0.228,-0.151 0.206,-0.285c-0.022,-0.135 -0.152,-0.228 -0.286,-0.206l0.004,-0.004Z" style="fill:#191919;fill-rule:nonzero;"/><path d="M47.711,98.137c-0.318,-0 -0.3,0.483 0,0.496c1.847,0.081 3.699,0.108 5.552,0.099c0.264,-0.001 0.33,-0.466 0.048,-0.479c-1.86,-0.094 -3.73,-0.116 -5.6,-0.112l0,-0.004Z" style="fill:#191919;fill-rule:nonzero;"/><path d="M56.148,96.434c-1.799,0.013 -3.602,0.138 -5.399,0.165c-0.318,0.005 -0.354,0.496 -0.032,0.501c1.825,0.044 3.646,-0.014 5.467,-0.175c0.29,-0.026 0.237,-0.492 -0.036,-0.492Z" style="fill:#191919;fill-rule:nonzero;"/><path d="M66.607,38.796c-0,1.144 0.241,2.28 0.702,3.326c0.129,0.228 0.456,0.116 0.371,-0.148c-0.429,-1.269 -0.608,-2.606 -0.536,-3.943c0.272,-0.527 0.487,-1.086 0.639,-1.658c1.208,-0.072 2.429,-2.83 0.832,-3.397c-0.407,-0.121 -0.841,-0.023 -1.163,0.25c-1.597,-1.873 -0.788,-3.75 -1.646,-3.496c-1.226,0.362 -3.288,1.27 -6.576,-0.245c-0.322,-0.148 -0.372,0.232 -0.156,0.371c2.017,1.117 4.415,1.336 6.602,0.603c0.045,1.055 0.439,2.061 1.109,2.874c0.895,1.082 0.855,-0.076 1.637,0.17c0.972,0.398 -0.057,2.213 -0.738,2.316c-0.16,0.022 -0.29,0.134 -0.348,0.286c-0.975,3.326 -3.195,3.871 -4.728,2.588c-2.179,-1.824 -2.6,-5.002 -2.64,-7.631c0,-0.286 -0.331,-0.254 -0.371,0c-0.108,0.778 -0.09,1.569 0.049,2.343c-0.962,0.053 -1.709,1.721 -0,2.892c0.573,0.393 0.595,-0.134 0.421,-0.237c-0.993,-0.572 -1.334,-1.976 -0.318,-2.163c0.336,1.743 1.127,4.134 2.46,5.279c1.266,1.113 3.198,0.992 4.313,-0.277c0.026,-0.032 0.058,-0.067 0.085,-0.099l-0,-0.004Z" style="fill:#191919;fill-rule:nonzero;"/><path d="M62.563,34.151c-0.148,0.488 -0.215,0.997 -0.197,1.507c0.035,0.974 1.718,0.197 1.244,-0.125c-0.202,-0.139 -0.546,0.152 -0.717,0.085c-0.169,-0.067 0,-1.319 0.041,-1.44c0.071,-0.295 -0.278,-0.353 -0.371,-0.031l-0,0.004Z" style="fill:#191919;fill-rule:nonzero;"/><path d="M64.254,33.333c-0.202,-0.465 -0.774,0.076 -0.421,0.738c0.188,0.349 0.752,0.027 0.421,-0.738Z" style="fill:#191919;fill-rule:nonzero;"/><path d="M61.306,34.299c0.165,0.371 0.644,0.156 0.505,-0.559c-0.139,-0.715 -0.881,-0.282 -0.505,0.559Z" style="fill:#191919;fill-rule:nonzero;"/><path d="M64.441,37.186c0.528,-0.16 0.895,-0.643 0.909,-1.193c0.004,-0.501 -0.372,-0.545 -0.488,-0.049c-0.058,0.447 -0.403,0.804 -0.846,0.88c-0.742,0.215 -0.147,0.617 0.43,0.362l-0.005,0Z" style="fill:#191919;fill-rule:nonzero;"/><path d="M63.779,31.608c-0.174,0.076 -0.268,0.478 0.184,0.46c0.738,-0.035 1.033,0.546 1.221,0.456c0.385,-0.179 -0.488,-1.305 -1.405,-0.916Z" style="fill:#191919;fill-rule:nonzero;"/><path d="M61.838,31.751c-0.846,-0.268 -1.606,0.791 -1.239,1.037c0.206,0.134 0.237,-0.416 1.176,-0.559c0.139,-0.022 0.228,-0.152 0.206,-0.29c-0.013,-0.081 -0.067,-0.152 -0.143,-0.188Z" style="fill:#191919;fill-rule:nonzero;"/><path d="M61.954,39.842c-0.085,0.594 -0.21,1.18 -0.371,1.757c-0.232,0.858 0.326,0.764 0.461,0.031c0.102,-0.586 0.197,-1.171 0.313,-1.757c0.053,-0.273 -0.367,-0.295 -0.403,-0.031Z" style="fill:#191919;fill-rule:nonzero;"/><path d="M59.029,32.614c-2.04,-2.767 -1.458,-6.536 2.514,-7.559c2.88,-0.742 7.09,-0.738 8.611,2.373c0.877,1.793 0.335,3.836 -0.716,5.427c-0.094,0.139 -0.058,0.322 0.081,0.416c0.139,0.094 0.322,0.058 0.416,-0.081c3.565,-4.921 -0.211,-10.732 -8.267,-8.909c-1.776,0.403 -3.382,1.292 -4.12,3.036c-0.76,1.931 -0.345,4.125 1.069,5.645c0.099,0.112 0.268,0.126 0.38,0.027c0.112,-0.094 0.125,-0.264 0.032,-0.375Z" style="fill:#191919;fill-rule:nonzero;"/><path d="M67.904,23.521c0.026,-1.131 0.272,-3.138 0.975,-4.112c0.264,-0.349 0.72,-0.487 1.132,-0.34c0.872,0.282 1.678,0.742 2.366,1.35c0.685,0.595 0.854,1.583 0.407,2.369c-0.537,0.926 -1.605,1.301 -2.541,1.69c-0.179,0.072 -0.264,0.277 -0.187,0.451c0.067,0.166 0.25,0.251 0.42,0.202c1.033,-0.376 2.12,-0.868 2.782,-1.797c0.64,-0.881 0.64,-2.075 0,-2.96c-0.724,-0.88 -1.69,-1.533 -2.773,-1.882c-0.501,-0.223 -1.069,-0.232 -1.574,-0.031c-0.453,0.246 -0.806,0.644 -0.994,1.127c-0.586,1.242 -0.769,2.637 -0.523,3.987c0.067,0.134 0.233,0.192 0.367,0.125c0.071,-0.036 0.125,-0.103 0.148,-0.183l-0.005,0.004Z" style="fill:#191919;fill-rule:nonzero;"/><path d="M35.682,51.598c-0.537,0.394 -1.235,0.479 -1.852,0.224c-0.309,-0.13 -0.671,0.483 0.389,0.67c0.698,0.121 1.624,-0.272 1.745,-0.697c0.062,-0.224 -0.08,-0.3 -0.282,-0.197Z" style="fill:#191919;fill-rule:nonzero;"/><path d="M35.896,49.833c-0.46,0.013 -2.102,0.402 -2.536,-0.783c-0.049,-0.138 -0.196,-0.21 -0.335,-0.161c-0.103,0.036 -0.17,0.13 -0.175,0.237c0.112,1.382 2.014,1.569 3.159,1.037c0.228,-0.102 0.112,-0.339 -0.108,-0.335l-0.005,0.005Z" style="fill:#191919;fill-rule:nonzero;"/><path d="M35.946,48.617c-0.353,-0.032 -2.08,0.219 -2.277,-1.028c-0.018,-0.139 -0.148,-0.233 -0.286,-0.215c-0.103,0.013 -0.188,0.094 -0.211,0.197c-0.268,1.47 1.745,1.689 2.828,1.43c0.241,-0.076 0.205,-0.362 -0.054,-0.384Z" style="fill:#191919;fill-rule:nonzero;"/><path d="M35.91,50.892c0.103,-0.192 -0.031,-0.335 -0.224,-0.277c-0.684,0.416 -1.539,0.442 -2.245,0.071c-0.237,-0.116 -0.51,0.215 -0.286,0.398c0.953,0.765 2.474,0.349 2.759,-0.188l-0.004,-0.004Z" style="fill:#191919;fill-rule:nonzero;"/><path d="M91.859,50.87c1.529,0.67 3.167,-0.528 3.234,-1.337c0,-0.147 -0.112,-0.268 -0.259,-0.273c-0.067,0 -0.13,0.023 -0.18,0.063c-0.228,0.188 -0.858,1.453 -2.679,1.109c-0.336,-0.063 -0.429,0.299 -0.116,0.438Z" style="fill:#191919;fill-rule:nonzero;"/><path d="M92.481,49.596c1.158,0.196 2.71,-0.903 2.563,-1.896c-0.022,-0.138 -0.152,-0.232 -0.291,-0.214c-0.067,0.009 -0.125,0.049 -0.165,0.103c-0.676,1.063 -0.913,1.417 -2.282,1.551c-0.268,0.026 -0.362,0.362 0.179,0.456l-0.004,-0Z" style="fill:#191919;fill-rule:nonzero;"/><path d="M94.082,52.367c-0.451,0.094 -0.796,0.711 -2.201,0.206c-0.277,-0.099 -0.407,0.183 -0.156,0.371c0.845,0.621 2.344,0.371 2.63,-0.242c0.044,-0.134 -0.022,-0.277 -0.157,-0.326c-0.04,-0.013 -0.08,-0.018 -0.12,-0.013l0.004,0.004Z" style="fill:#191919;fill-rule:nonzero;"/><path d="M94.399,50.946c-0.492,0.219 -0.791,0.911 -2.648,0.572c-0.246,-0.045 -0.295,0.255 -0.107,0.371c1.029,0.63 2.764,0.112 3.114,-0.648c0.089,-0.206 -0.17,-0.376 -0.354,-0.295l-0.005,-0Z" style="fill:#191919;fill-rule:nonzero;"/><path d="M46.642,80.315c2.183,1.743 5.243,1.274 7.685,0.268c0.322,-0.134 0.134,-0.469 -0.197,-0.371c-2.067,0.639 -4.303,1.175 -6.343,0.125c-1.293,-0.666 -2.585,-2.338 -1.995,-3.469c0.523,-0.997 1.114,-0.246 2.398,0.245c1.628,0.636 3.372,0.903 5.117,0.792c0.331,-0.022 0.291,-0.425 -0.049,-0.429c-1.852,-0.023 -4.411,-0.523 -6.07,-1.48c-1.852,-1.064 -3.369,2.056 -0.546,4.31l-0,0.008Z" style="fill:#191919;fill-rule:nonzero;"/><path d="M82.169,75.388c-1.248,0.961 -3.538,2.048 -5.05,2.137c-0.295,0.018 -0.224,0.434 0.063,0.42c2.218,-0.089 4.11,-1.27 5.265,-2.15c1.874,-1.43 2.223,0.022 1.431,1.699c-0.416,0.956 -1.06,1.797 -1.878,2.449c-1.821,1.194 -3.543,0.93 -5.221,0.769c-0.246,-0.022 -0.299,0.309 -0.032,0.371c1.387,0.317 2.832,0.317 4.219,0c1.772,-0.514 2.715,-1.747 3.449,-3.357c1.163,-2.543 -0.022,-4.05 -2.241,-2.338l-0.005,0Z" style="fill:#191919;fill-rule:nonzero;"/><path d="M54.331,76.801c-0.071,1.752 0.466,3.576 1.482,4.483c3.596,0.023 18.577,-1.448 25.484,-9.243c4.285,-4.842 3.149,-7.006 0.935,-7.564c-2.214,-0.559 -6.603,-0.139 -11.139,3.174c-4.536,3.312 -10.19,7.375 -16.757,9.15l-0.005,-0Z" style="fill:#191919;fill-rule:nonzero;"/><path d="M54.327,76.345c3.324,-1.175 6.478,-2.776 9.394,-4.756c-2.004,-1.104 -3.887,-2.414 -5.623,-3.903c-4.259,-3.67 -6.701,-4.425 -8.973,-4.201c-3.141,0.308 -5.637,3.093 -0.922,8.796c1.315,1.592 3.74,3.081 6.124,4.068l-0,-0.004Z" style="fill:#191919;fill-rule:nonzero;"/><path d="M76.157,76.748c-2.988,1.568 -6.146,2.784 -9.412,3.629c2.89,0.608 5.829,0.966 8.781,1.082c0.51,-0.8 0.993,-3.215 0.631,-4.707l0,-0.005Z" style="fill:#191919;fill-rule:nonzero;"/><path d="M80.188,86.014c0.134,-0.049 0.201,-0.197 0.152,-0.331c-0.032,-0.08 -0.098,-0.143 -0.184,-0.161c-0.402,-0.125 -4.142,-0 -4.621,-0c-0.335,-0 -0.304,0.514 0.032,0.519c0.505,0.009 4.187,0.125 4.621,-0.023l-0,-0.004Z" style="fill:#6f93fc;fill-rule:nonzero;"/><path d="M83.963,84.306c-0.943,1.037 -1.002,3.233 0.13,4.439c0.098,0.099 0.259,0.094 0.358,0c0.081,-0.08 0.094,-0.21 0.036,-0.308c-0.922,-1.252 -0.765,-2.544 -0.054,-3.791c0.081,-0.138 0.031,-0.313 -0.108,-0.393c-0.116,-0.068 -0.268,-0.045 -0.357,0.057l-0.005,-0.004Z" style="fill:#6f93fc;fill-rule:nonzero;"/><path d="M45.336,83.054c-1.481,0 -2.873,1.109 -2.873,3.728c0,2.455 0.855,3.792 3.11,3.859c1.995,0.062 37.048,-0.076 41.159,-0.21c0.188,-0.036 0.314,-0.215 0.278,-0.408c-0.027,-0.142 -0.139,-0.249 -0.278,-0.276c-0.823,-0.13 -9.25,0.093 -10.727,0.102c-2.483,0.018 -2.63,-1.341 -2.51,-3.697c0.135,-2.588 2.412,-2.302 3.996,-2.306c2.778,-0.009 5.819,0.094 8.557,-0.054c0.206,-0.013 0.358,-0.192 0.344,-0.393c-0.013,-0.197 -0.179,-0.349 -0.375,-0.345c-3.7,-0.044 -7.435,0 -11.148,0.054c-6.616,0.094 -28.218,-0.054 -29.533,-0.054Zm22.197,1.529c0.085,-0.152 0.277,-0.205 0.429,-0.12c0.13,0.071 0.193,0.228 0.148,0.371c-0.555,1.627 -0.488,2.498 0.201,4.067c0.129,0.291 -0.277,0.452 -0.456,0.242c-0.957,-1.131 -1.065,-3.348 -0.331,-4.56l0.013,0.001l-0.004,-0.001Zm-2.022,0.019c0.389,-0.506 0.738,-0.068 0.604,0.138c-0.699,1.189 -0.761,2.646 -0.162,3.885c0.148,0.294 -0.219,0.599 -0.416,0.317c-0.827,-1.194 -0.939,-3.179 -0.035,-4.341l0.013,0l-0.004,0Zm-15.845,-0.102c0.371,-0.559 0.792,-0.399 0.541,0.169c-0.742,1.677 -0.796,2.736 -0.116,4.488c0.125,0.318 -0.215,0.474 -0.439,0.175c-0.925,-1.238 -0.934,-3.482 0,-4.832l0.014,-0Zm-2.554,0.156c0.353,-0.693 0.845,-0.523 0.572,0.295c-0.532,1.278 -0.483,2.726 0.139,3.965c0.148,0.3 -0.264,0.576 -0.448,0.282c-0.841,-1.373 -0.952,-3.076 -0.295,-4.542l0.032,-0Z" style="fill:#6f93fc;fill-rule:nonzero;"/><path d="M76.783,87.721c1.49,0.13 2.993,0.13 4.483,0c0.295,-0.071 0.331,-0.554 0,-0.554c-1.436,0 -2.962,0 -4.42,0.04c-0.143,-0.017 -0.273,0.081 -0.291,0.219c-0.018,0.143 0.081,0.273 0.219,0.291l0.009,-0l0,0.004Z" style="fill:#6f93fc;fill-rule:nonzero;"/><path d="M77.061,31.018c1.212,-2.414 2.532,-4.779 3.721,-7.197c0.121,-0.246 -0.299,-0.492 -0.429,-0.242c-1.239,2.428 -2.429,4.877 -3.627,7.314c-0.144,0.29 0.196,0.402 0.335,0.125Z" style="fill:#6f93fc;fill-rule:nonzero;"/><path d="M81.378,34.299c3.332,-1.122 7.3,-2.807 10.579,-4.198c0.3,-0.125 0.099,-0.549 -0.201,-0.451c-1.968,0.644 -8.817,3.411 -10.584,4.264c-0.291,0.139 -0.108,0.488 0.201,0.38l0.005,0.005Z" style="fill:#6f93fc;fill-rule:nonzero;"/><path d="M90.311,63.403c2.51,0.242 5.341,0.479 7.842,0.595c0.139,-0.009 0.246,-0.125 0.242,-0.263c-0.005,-0.107 -0.077,-0.197 -0.18,-0.228c-2.621,-0.318 -5.26,-0.479 -7.899,-0.479c-0.336,0 -0.309,0.345 -0.009,0.372l0.004,0.003Z" style="fill:#6f93fc;fill-rule:nonzero;"/><path d="M88.629,65.943c1.083,0.988 5.668,4.573 6.961,5.444c0.259,0.175 0.567,-0.165 0.326,-0.37c-1.212,-1.033 -5.775,-4.6 -7.028,-5.418c-0.098,-0.067 -0.228,-0.045 -0.295,0.053c-0.062,0.09 -0.044,0.215 0.04,0.287l-0.004,0.004Z" style="fill:#6f93fc;fill-rule:nonzero;"/><path d="M52.645,31.822c0.156,0.233 0.528,0.058 0.39,-0.196c-1.316,-2.459 -2.559,-5.002 -3.879,-7.412c-0.144,-0.264 -0.541,-0.022 -0.447,0.242c0.635,1.788 2.853,5.762 3.932,7.366l0.004,0Z" style="fill:#6f93fc;fill-rule:nonzero;"/><path d="M39.86,65.321c-0.801,0.465 -5.82,4.654 -6.374,5.177c-0.103,0.098 -0.103,0.259 -0.005,0.362c0.085,0.085 0.219,0.103 0.322,0.041c0.617,-0.417 5.704,-4.596 6.33,-5.262c0.071,-0.09 0.058,-0.223 -0.036,-0.295c-0.067,-0.053 -0.161,-0.058 -0.237,-0.018l0,-0.005Z" style="fill:#6f93fc;fill-rule:nonzero;"/><path d="M29.607,62.577c0.814,-0.058 6.567,-0.862 7.507,-1.154c0.295,-0.089 0.183,-0.438 -0.099,-0.429c-0.962,0.023 -6.71,0.926 -7.506,1.109c-0.278,0.063 -0.179,0.492 0.098,0.474Z" style="fill:#6f93fc;fill-rule:nonzero;"/><path d="M39.94,31.791c1.714,1.136 7.314,3.442 9.117,4.068c0.121,0.04 0.246,-0.027 0.287,-0.148c0.036,-0.111 -0.023,-0.232 -0.13,-0.277c-3.024,-1.193 -6.106,-2.959 -9.036,-4.112c-0.134,-0.063 -0.291,-0 -0.349,0.129c-0.058,0.126 -0.009,0.273 0.111,0.34Z" style="fill:#6f93fc;fill-rule:nonzero;"/><path d="M36.143,39.708l1.158,-1.037c3.199,1.676 7.457,2.646 11.032,3.021c4.63,0.483 14.4,-1.363 15.402,5.333c0.04,0.269 0.398,0.546 0.559,0.228c2.675,-5.31 9.747,-4.063 14.65,-4.957c4.026,-0.733 7.874,-2.445 11.586,-4.122c0.64,0.51 1.316,0.979 2.018,1.404c0.152,0.054 0.389,-0.156 0.188,-0.313c-0.658,-0.514 -1.316,-1.032 -1.978,-1.542c-0.103,-0.085 -0.246,-0.103 -0.371,-0.054c-3.543,1.52 -7.475,3.331 -11.497,4.068c-4.598,0.845 -11.908,-0.273 -14.731,4.564c-1.243,-6.07 -9.837,-4.774 -14.109,-5.015c-3.22,-0.193 -6.392,-0.845 -9.425,-1.94c-4.035,-1.449 -2.935,-1.708 -4.438,-0.371c-1.207,1.072 -1.082,1.658 -0.044,0.733Z" style="fill:#6f93fc;fill-rule:nonzero;"/><path d="M34.143,47.258c1.11,1.207 2.497,-0.094 2.689,2.06c0.188,2.097 -0.032,3.434 -1.964,3.697c0.098,0.832 0.188,1.623 0.269,2.334c0.066,0.594 -0.036,1.108 1.171,1.573c1.208,0.465 20.569,7.621 23.172,8.967c-0.773,-5.681 -1.592,-11.64 -2.098,-17.335c-0.031,-0.335 0.363,-0.322 0.408,0c0.804,5.932 1.731,12.266 2.388,18.233c1.32,1.592 4.563,3.134 7.126,0.372c0.738,-5.874 1.369,-11.672 2.018,-17.55c0.036,-0.34 0.42,-0.291 0.402,0.027c-0.326,5.494 -0.952,11.461 -1.713,16.941c4.093,-1.824 21.66,-7.371 22.774,-7.688c1.114,-0.317 1.517,-0.885 1.588,-1.609c0.018,-0.192 0.247,-1.399 0.577,-3.08c-2.836,-0.255 -2.469,-1.962 -2.085,-4.01c0.448,-2.382 2.873,-1.457 3.561,-3.37c0.654,-3.183 1.244,-5.941 1.378,-6.285c0.336,-0.885 -0.049,-1.417 -1.167,-0.984c-11.014,4.269 -18.274,6.652 -24.89,8.225c-1.168,0.277 -0.421,0.885 -2.876,1.77c-2.452,0.89 -6.026,0.349 -7.332,-0.701c-1.11,-0.894 -0.886,-1.422 -2.157,-1.681c-2.844,-0.59 -21.315,-6.191 -22.443,-6.625c-1.619,-0.63 -1.923,-0.438 -1.686,0.769c0.237,1.207 0.573,3.442 0.894,5.959l-0.004,-0.009Zm51.543,7.161c-1.445,0.746 -7.292,2.717 -8.987,3.191c-0.278,0.076 -0.47,-0.366 -0.198,-0.478c1.248,-0.514 7.516,-2.865 8.988,-3.182c0.277,-0.059 0.452,0.335 0.197,0.469Zm-10.982,0.161c3.555,-1.229 8.79,-3.201 12.306,-4.251c0.295,-0.09 0.389,0.366 0.147,0.491c-2.201,1.131 -10.105,3.733 -12.297,4.265c-0.291,0.071 -0.429,-0.407 -0.152,-0.505l-0.004,-0Zm-7.919,9.611c-1.686,1.654 -4.598,1.26 -6.012,0.37c-0.13,-0.066 -0.178,-0.223 -0.112,-0.353c0.068,-0.129 0.224,-0.178 0.354,-0.112c2.876,1.051 3.945,0.408 5.475,-0.37c0.157,-0.032 0.309,0.067 0.34,0.223c0.018,0.076 0,0.156 -0.045,0.224l0,0.018Zm-6.871,-10.961c2.814,1.399 4.957,1.265 7.269,-0.081c0.318,-0.183 0.528,0.152 0.296,0.394c-1.678,1.77 -5.834,1.989 -7.77,0.053c-0.175,-0.174 -0,-0.465 0.201,-0.366l0.004,-0Z" style="fill:#6f93fc;fill-rule:nonzero;"/></g></svg>
