<?xml version="1.0" encoding="UTF-8" standalone="no"?><!DOCTYPE svg PUBLIC "-//W3C//DTD SVG 1.1//EN" "http://www.w3.org/Graphics/SVG/1.1/DTD/svg11.dtd"><svg width="100%" height="100%" viewBox="0 0 120 138" version="1.1" xmlns="http://www.w3.org/2000/svg" xmlns:xlink="http://www.w3.org/1999/xlink" xml:space="preserve" xmlns:serif="http://www.serif.com/" style="fill-rule:evenodd;clip-rule:evenodd;"><path d="M119.25,7.5c0,-4.139 -3.361,-7.5 -7.5,-7.5l-104.25,0c-4.139,0 -7.5,3.361 -7.5,7.5l0,123c0,4.139 3.361,7.5 7.5,7.5l104.25,0c4.139,0 7.5,-3.361 7.5,-7.5l0,-123Z" style="fill:#fff;"/><path d="M109.566,17.231c-0,-3.933 -3.193,-7.125 -7.125,-7.125l-85.188,-0c-3.933,-0 -7.125,3.192 -7.125,7.125l-0,104.866c-0,3.932 3.192,7.125 7.125,7.125l85.188,-0c3.932,-0 7.125,-3.193 7.125,-7.125l-0,-104.866Z" style="fill:none;stroke:#000;stroke-width:0.75px;"/><rect x="39.011" y="3.981" width="44.331" height="11.942" style="fill:#fff;"/><ellipse cx="16.624" cy="121.193" rx="13.521" ry="12.827" style="fill:#fff;"/><ellipse cx="104.842" cy="121.193" rx="13.521" ry="12.827" style="fill:#fff;"/><path d="M19.527,119.736l0.837,-2.358l0.018,-0l0.81,2.358l-1.665,-0Zm0.135,-3.942l-2.43,6.426l1.422,-0l0.504,-1.431l2.403,-0l0.486,1.431l1.467,-0l-2.403,-6.426l-1.449,-0Zm6.179,2.601l0,-1.503l1.323,-0c0.126,-0 0.246,0.012 0.36,0.036c0.12,0.018 0.225,0.054 0.315,0.108c0.09,0.054 0.162,0.129 0.216,0.225c0.054,0.096 0.081,0.219 0.081,0.369c0,0.27 -0.081,0.465 -0.243,0.585c-0.162,0.12 -0.369,0.18 -0.621,0.18l-1.431,0Zm-1.413,-2.601l0,6.426l3.114,-0c0.288,-0 0.567,-0.036 0.837,-0.108c0.276,-0.072 0.519,-0.183 0.729,-0.333c0.216,-0.15 0.387,-0.342 0.513,-0.576c0.126,-0.24 0.189,-0.522 0.189,-0.846c0,-0.402 -0.099,-0.744 -0.297,-1.026c-0.192,-0.288 -0.486,-0.489 -0.882,-0.603c0.288,-0.138 0.504,-0.315 0.648,-0.531c0.15,-0.216 0.225,-0.486 0.225,-0.81c0,-0.3 -0.051,-0.552 -0.153,-0.756c-0.096,-0.204 -0.234,-0.366 -0.414,-0.486c-0.18,-0.126 -0.396,-0.216 -0.648,-0.27c-0.252,-0.054 -0.531,-0.081 -0.837,-0.081l-3.024,-0Zm1.413,5.328l0,-1.764l1.539,-0c0.306,-0 0.552,0.072 0.738,0.216c0.186,0.138 0.279,0.372 0.279,0.702c0,0.168 -0.03,0.306 -0.09,0.414c-0.054,0.108 -0.129,0.195 -0.225,0.261c-0.096,0.06 -0.207,0.105 -0.333,0.135c-0.126,0.024 -0.258,0.036 -0.396,0.036l-1.512,0Zm5.284,-5.328l0,6.426l1.413,-0l0,-6.426l-1.413,-0Zm3.014,-0l0,6.426l4.545,-0l0,-1.188l-3.132,0l0,-5.238l-1.413,-0Zm5.695,-0l0,6.426l1.413,-0l0,-6.426l-1.413,-0Zm4.437,1.188l-0,5.238l1.413,-0l-0,-5.238l1.926,-0l-0,-1.188l-5.265,-0l-0,1.188l1.926,-0Zm6.105,2.736l-0,2.502l1.413,-0l-0,-2.466l2.385,-3.96l-1.575,-0l-1.494,2.538l-1.503,-2.538l-1.584,-0l2.358,3.924Zm8.975,-1.323l0,-1.503l1.323,-0c0.126,-0 0.246,0.012 0.36,0.036c0.12,0.018 0.225,0.054 0.315,0.108c0.09,0.054 0.162,0.129 0.216,0.225c0.054,0.096 0.081,0.219 0.081,0.369c0,0.27 -0.081,0.465 -0.243,0.585c-0.162,0.12 -0.369,0.18 -0.621,0.18l-1.431,-0Zm-1.413,-2.601l0,6.426l3.114,-0c0.288,-0 0.567,-0.036 0.837,-0.108c0.276,-0.072 0.519,-0.183 0.729,-0.333c0.216,-0.15 0.387,-0.342 0.513,-0.576c0.126,-0.24 0.189,-0.522 0.189,-0.846c0,-0.402 -0.099,-0.744 -0.297,-1.026c-0.192,-0.288 -0.486,-0.489 -0.882,-0.603c0.288,-0.138 0.504,-0.315 0.648,-0.531c0.15,-0.216 0.225,-0.486 0.225,-0.81c0,-0.3 -0.051,-0.552 -0.153,-0.756c-0.096,-0.204 -0.234,-0.366 -0.414,-0.486c-0.18,-0.126 -0.396,-0.216 -0.648,-0.27c-0.252,-0.054 -0.531,-0.081 -0.837,-0.081l-3.024,-0Zm1.413,5.328l0,-1.764l1.539,-0c0.306,-0 0.552,0.072 0.738,0.216c0.186,0.138 0.279,0.372 0.279,0.702c0,0.168 -0.03,0.306 -0.09,0.414c-0.054,0.108 -0.129,0.195 -0.225,0.261c-0.096,0.06 -0.207,0.105 -0.333,0.135c-0.126,0.024 -0.258,0.036 -0.396,0.036l-1.512,-0Zm5.285,-5.328l-0,6.426l4.878,-0l-0,-1.188l-3.465,-0l-0,-1.575l3.114,-0l-0,-1.098l-3.114,-0l-0,-1.377l3.393,-0l-0,-1.188l-4.806,-0Zm6.195,-0l0,6.426l4.545,-0l0,-1.188l-3.132,-0l0,-5.238l-1.413,-0Zm5.695,-0l0,6.426l1.413,-0l0,-6.426l-1.413,-0Zm3.014,-0l0,6.426l4.878,-0l0,-1.188l-3.465,-0l0,-1.575l3.114,-0l0,-1.098l-3.114,-0l0,-1.377l3.393,-0l0,-1.188l-4.806,-0Zm6.197,-0l-0,6.426l1.413,-0l-0,-2.655l2.691,-0l-0,-1.098l-2.691,-0l-0,-1.485l3.105,-0l-0,-1.188l-4.518,-0Zm6.658,4.293l-1.368,-0c-0.006,0.396 0.066,0.738 0.216,1.026c0.15,0.288 0.351,0.525 0.603,0.711c0.258,0.186 0.552,0.321 0.882,0.405c0.336,0.09 0.681,0.135 1.035,0.135c0.438,-0 0.822,-0.051 1.152,-0.153c0.336,-0.102 0.615,-0.243 0.837,-0.423c0.228,-0.186 0.399,-0.405 0.513,-0.657c0.114,-0.252 0.171,-0.525 0.171,-0.819c-0,-0.36 -0.078,-0.654 -0.234,-0.882c-0.15,-0.234 -0.33,-0.42 -0.54,-0.558c-0.21,-0.138 -0.423,-0.237 -0.639,-0.297c-0.21,-0.066 -0.375,-0.111 -0.495,-0.135c-0.402,-0.102 -0.729,-0.186 -0.981,-0.252c-0.246,-0.066 -0.441,-0.132 -0.585,-0.198c-0.138,-0.066 -0.231,-0.138 -0.279,-0.216c-0.048,-0.078 -0.072,-0.18 -0.072,-0.306c-0,-0.138 0.03,-0.252 0.09,-0.342c0.06,-0.09 0.135,-0.165 0.225,-0.225c0.096,-0.06 0.201,-0.102 0.315,-0.126c0.114,-0.024 0.228,-0.036 0.342,-0.036c0.174,-0 0.333,0.015 0.477,0.045c0.15,0.03 0.282,0.081 0.396,0.153c0.114,0.072 0.204,0.171 0.27,0.297c0.072,0.126 0.114,0.285 0.126,0.477l1.368,-0c-0,-0.372 -0.072,-0.687 -0.216,-0.945c-0.138,-0.264 -0.327,-0.48 -0.567,-0.648c-0.24,-0.168 -0.516,-0.288 -0.828,-0.36c-0.306,-0.078 -0.627,-0.117 -0.963,-0.117c-0.288,-0 -0.576,0.039 -0.864,0.117c-0.288,0.078 -0.546,0.198 -0.774,0.36c-0.228,0.162 -0.414,0.366 -0.558,0.612c-0.138,0.24 -0.207,0.525 -0.207,0.855c-0,0.294 0.054,0.546 0.162,0.756c0.114,0.204 0.261,0.375 0.441,0.513c0.18,0.138 0.384,0.252 0.612,0.342c0.228,0.084 0.462,0.156 0.702,0.216c0.234,0.066 0.465,0.126 0.693,0.18c0.228,0.054 0.432,0.117 0.612,0.189c0.18,0.072 0.324,0.162 0.432,0.27c0.114,0.108 0.171,0.249 0.171,0.423c-0,0.162 -0.042,0.297 -0.126,0.405c-0.084,0.102 -0.189,0.183 -0.315,0.243c-0.126,0.06 -0.261,0.102 -0.405,0.126c-0.144,0.018 -0.279,0.027 -0.405,0.027c-0.186,-0 -0.366,-0.021 -0.54,-0.063c-0.174,-0.048 -0.327,-0.117 -0.459,-0.207c-0.126,-0.096 -0.228,-0.219 -0.306,-0.369c-0.078,-0.15 -0.117,-0.333 -0.117,-0.549Zm7.77,0.747l0,1.386l-1.413,-0l0,-1.386l1.413,-0Zm-2.862,-2.97c0.006,-0.324 0.06,-0.621 0.162,-0.891c0.108,-0.27 0.255,-0.504 0.441,-0.702c0.192,-0.198 0.42,-0.351 0.684,-0.459c0.27,-0.114 0.57,-0.171 0.9,-0.171c0.426,-0 0.78,0.06 1.062,0.18c0.288,0.114 0.519,0.258 0.693,0.432c0.174,0.174 0.297,0.363 0.369,0.567c0.078,0.198 0.117,0.384 0.117,0.558c0,0.288 -0.039,0.525 -0.117,0.711c-0.072,0.186 -0.165,0.345 -0.279,0.477c-0.108,0.132 -0.231,0.246 -0.369,0.342c-0.132,0.09 -0.258,0.183 -0.378,0.279c-0.12,0.09 -0.228,0.195 -0.324,0.315c-0.09,0.12 -0.147,0.27 -0.171,0.45l0,0.342l-1.215,-0l0,-0.405c0.018,-0.258 0.066,-0.474 0.144,-0.648c0.084,-0.174 0.18,-0.321 0.288,-0.441c0.108,-0.126 0.222,-0.234 0.342,-0.324c0.12,-0.09 0.231,-0.18 0.333,-0.27c0.102,-0.09 0.183,-0.189 0.243,-0.297c0.066,-0.108 0.096,-0.243 0.09,-0.405c0,-0.276 -0.069,-0.48 -0.207,-0.612c-0.132,-0.132 -0.318,-0.198 -0.558,-0.198c-0.162,-0 -0.303,0.033 -0.423,0.099c-0.114,0.06 -0.21,0.144 -0.288,0.252c-0.072,0.102 -0.126,0.225 -0.162,0.369c-0.036,0.138 -0.054,0.288 -0.054,0.45l-1.323,-0Z" style="fill:#6922ea;fill-rule:nonzero;"/><path d="M26.063,111.18l1.728,-6.426l-1.386,-0l-1.053,4.428l-0.018,-0l-1.098,-4.428l-1.323,-0l-1.116,4.374l-0.018,-0l-1.017,-4.374l-1.413,-0l1.701,6.426l1.431,0l1.071,-4.374l0.018,-0l1.089,4.374l1.404,0Zm2.739,-6.426l-0,6.426l1.413,0l-0,-2.772l2.601,0l-0,2.772l1.413,0l-0,-6.426l-1.413,-0l-0,2.466l-2.601,0l-0,-2.466l-1.413,-0Zm8.651,3.942l0.837,-2.358l0.018,0l0.81,2.358l-1.665,0Zm0.135,-3.942l-2.43,6.426l1.422,0l0.504,-1.431l2.403,0l0.486,1.431l1.467,0l-2.403,-6.426l-1.449,0Zm5.361,1.188l0.001,5.238l1.413,0l-0,-5.238l1.926,0l-0,-1.188l-5.265,0l-0,1.188l1.926,0Zm8.924,2.754l0.837,-2.358l0.018,0l0.81,2.358l-1.665,0Zm0.135,-3.942l-2.43,6.426l1.422,0l0.504,-1.431l2.403,0l0.486,1.431l1.467,0l-2.403,-6.426l-1.449,0Zm6.179,2.907l0,-1.809l1.548,0c0.325,0 0.568,0.072 0.73,0.216c0.162,0.138 0.243,0.363 0.243,0.675c-0,0.324 -0.081,0.558 -0.243,0.702c-0.162,0.144 -0.405,0.216 -0.73,0.216l-1.548,0Zm-1.413,-2.907l0,6.426l1.413,0l0,-2.511l1.413,0c0.354,0 0.61,0.078 0.766,0.234c0.156,0.156 0.258,0.402 0.306,0.738c0.036,0.258 0.063,0.528 0.081,0.81c0.018,0.282 0.066,0.525 0.144,0.729l1.413,0c-0.066,-0.09 -0.117,-0.198 -0.153,-0.324c-0.03,-0.132 -0.054,-0.27 -0.072,-0.414c-0.012,-0.144 -0.021,-0.285 -0.027,-0.423c-0.006,-0.138 -0.012,-0.258 -0.018,-0.36c-0.012,-0.162 -0.036,-0.324 -0.072,-0.486c-0.03,-0.162 -0.081,-0.309 -0.153,-0.441c-0.072,-0.138 -0.165,-0.255 -0.279,-0.351c-0.114,-0.102 -0.258,-0.177 -0.432,-0.225l-0,-0.018c0.36,-0.144 0.618,-0.354 0.774,-0.63c0.162,-0.276 0.243,-0.603 0.243,-0.981c-0,-0.246 -0.045,-0.474 -0.135,-0.684c-0.084,-0.216 -0.21,-0.405 -0.378,-0.567c-0.162,-0.162 -0.36,-0.288 -0.594,-0.378c-0.228,-0.096 -0.486,-0.144 -0.774,-0.144l-3.466,0Zm6.856,0l-0,6.426l4.878,0l-0,-1.188l-3.465,0l-0,-1.575l3.114,0l-0,-1.098l-3.114,0l-0,-1.377l3.393,0l-0,-1.188l-4.806,0Zm10.725,3.924l0,2.502l1.413,0l0,-2.466l2.385,-3.96l-1.575,-0l-1.494,2.538l-1.503,-2.538l-1.584,-0l2.358,3.924Zm5.832,-0.684c0,-0.282 0.03,-0.555 0.09,-0.819c0.066,-0.264 0.168,-0.498 0.306,-0.702c0.138,-0.21 0.318,-0.375 0.54,-0.495c0.222,-0.126 0.492,-0.189 0.81,-0.189c0.318,-0 0.588,0.063 0.81,0.189c0.222,0.12 0.402,0.285 0.54,0.495c0.138,0.204 0.237,0.438 0.297,0.702c0.066,0.264 0.099,0.537 0.099,0.819c0,0.27 -0.033,0.534 -0.099,0.792c-0.06,0.252 -0.159,0.48 -0.297,0.684c-0.138,0.204 -0.318,0.369 -0.54,0.495c-0.222,0.12 -0.492,0.18 -0.81,0.18c-0.318,-0 -0.588,-0.06 -0.81,-0.18c-0.222,-0.126 -0.402,-0.291 -0.54,-0.495c-0.138,-0.204 -0.24,-0.432 -0.306,-0.684c-0.06,-0.258 -0.09,-0.522 -0.09,-0.792Zm-1.413,-0c0,0.468 0.072,0.906 0.216,1.314c0.144,0.402 0.351,0.753 0.621,1.053c0.27,0.3 0.6,0.537 0.99,0.711c0.396,0.168 0.84,0.252 1.332,0.252c0.498,-0 0.942,-0.084 1.332,-0.252c0.39,-0.174 0.72,-0.411 0.99,-0.711c0.27,-0.3 0.477,-0.651 0.621,-1.053c0.144,-0.408 0.216,-0.846 0.216,-1.314c0,-0.48 -0.072,-0.924 -0.216,-1.332c-0.144,-0.414 -0.351,-0.774 -0.621,-1.08c-0.27,-0.306 -0.6,-0.546 -0.99,-0.72c-0.39,-0.174 -0.834,-0.261 -1.332,-0.261c-0.492,-0 -0.936,0.087 -1.332,0.261c-0.39,0.174 -0.72,0.414 -0.99,0.72c-0.27,0.306 -0.477,0.666 -0.621,1.08c-0.144,0.408 -0.216,0.852 -0.216,1.332Zm13.098,0.756l0,-3.996l-1.413,-0l0,3.996c0,0.48 -0.096,0.834 -0.288,1.062c-0.192,0.222 -0.54,0.333 -1.044,0.333c-0.288,-0 -0.519,-0.039 -0.693,-0.117c-0.168,-0.084 -0.3,-0.189 -0.396,-0.315c-0.096,-0.132 -0.159,-0.282 -0.189,-0.45c-0.03,-0.168 -0.045,-0.339 -0.045,-0.513l0,-3.996l-1.413,-0l0,3.996c0,0.876 0.237,1.524 0.711,1.944c0.48,0.42 1.155,0.63 2.025,0.63c0.858,-0 1.53,-0.21 2.016,-0.63c0.486,-0.426 0.729,-1.074 0.729,-1.944Zm2.99,-1.089l-0,-1.809l1.548,-0c0.324,-0 0.567,0.072 0.729,0.216c0.162,0.138 0.243,0.363 0.243,0.675c-0,0.324 -0.081,0.558 -0.243,0.702c-0.162,0.144 -0.405,0.216 -0.729,0.216l-1.548,0Zm-1.413,-2.907l-0,6.426l1.413,0l-0,-2.511l1.413,-0c0.354,-0 0.609,0.078 0.765,0.234c0.156,0.156 0.258,0.402 0.306,0.738c0.036,0.258 0.063,0.528 0.081,0.81c0.018,0.282 0.066,0.525 0.144,0.729l1.413,0c-0.066,-0.09 -0.117,-0.198 -0.153,-0.324c-0.03,-0.132 -0.054,-0.27 -0.072,-0.414c-0.012,-0.144 -0.021,-0.285 -0.027,-0.423c-0.006,-0.138 -0.012,-0.258 -0.018,-0.36c-0.012,-0.162 -0.036,-0.324 -0.072,-0.486c-0.03,-0.162 -0.081,-0.309 -0.153,-0.441c-0.072,-0.138 -0.165,-0.255 -0.279,-0.351c-0.114,-0.102 -0.258,-0.177 -0.432,-0.225l-0,-0.018c0.36,-0.144 0.618,-0.354 0.774,-0.63c0.162,-0.276 0.243,-0.603 0.243,-0.981c-0,-0.246 -0.045,-0.474 -0.135,-0.684c-0.084,-0.216 -0.21,-0.405 -0.378,-0.567c-0.162,-0.162 -0.36,-0.288 -0.594,-0.378c-0.228,-0.096 -0.486,-0.144 -0.774,-0.144l-3.465,-0Z" style="fill:#6922ea;fill-rule:nonzero;"/><path d="M45.956,12.482l-1.368,0c-0.006,0.396 0.066,0.738 0.216,1.026c0.15,0.288 0.351,0.525 0.603,0.711c0.258,0.186 0.552,0.321 0.882,0.405c0.336,0.09 0.681,0.135 1.035,0.135c0.438,0 0.822,-0.051 1.152,-0.153c0.336,-0.102 0.615,-0.243 0.837,-0.423c0.228,-0.186 0.399,-0.405 0.513,-0.657c0.114,-0.252 0.171,-0.525 0.171,-0.819c0,-0.36 -0.078,-0.654 -0.234,-0.882c-0.15,-0.234 -0.33,-0.42 -0.54,-0.558c-0.21,-0.138 -0.423,-0.237 -0.639,-0.297c-0.21,-0.066 -0.375,-0.111 -0.495,-0.135c-0.402,-0.102 -0.729,-0.186 -0.981,-0.252c-0.246,-0.066 -0.441,-0.132 -0.585,-0.198c-0.138,-0.066 -0.231,-0.138 -0.279,-0.216c-0.048,-0.078 -0.072,-0.18 -0.072,-0.306c0,-0.138 0.03,-0.252 0.09,-0.342c0.06,-0.09 0.135,-0.165 0.225,-0.225c0.096,-0.06 0.201,-0.102 0.315,-0.126c0.114,-0.024 0.228,-0.036 0.342,-0.036c0.174,0 0.333,0.015 0.477,0.045c0.15,0.03 0.282,0.081 0.396,0.153c0.114,0.072 0.204,0.171 0.27,0.297c0.072,0.126 0.114,0.285 0.126,0.477l1.368,0c0,-0.372 -0.072,-0.687 -0.216,-0.945c-0.138,-0.264 -0.327,-0.48 -0.567,-0.648c-0.24,-0.168 -0.516,-0.288 -0.828,-0.36c-0.306,-0.078 -0.627,-0.117 -0.963,-0.117c-0.288,0 -0.576,0.039 -0.864,0.117c-0.288,0.078 -0.546,0.198 -0.774,0.36c-0.228,0.162 -0.414,0.366 -0.558,0.612c-0.138,0.24 -0.207,0.525 -0.207,0.855c0,0.294 0.054,0.546 0.162,0.756c0.114,0.204 0.261,0.375 0.441,0.513c0.18,0.138 0.384,0.252 0.612,0.342c0.228,0.084 0.462,0.156 0.702,0.216c0.234,0.066 0.465,0.126 0.693,0.18c0.228,0.054 0.432,0.117 0.612,0.189c0.18,0.072 0.324,0.162 0.432,0.27c0.114,0.108 0.171,0.249 0.171,0.423c0,0.162 -0.042,0.297 -0.126,0.405c-0.084,0.102 -0.189,0.183 -0.315,0.243c-0.126,0.06 -0.261,0.102 -0.405,0.126c-0.144,0.018 -0.279,0.027 -0.405,0.027c-0.186,0 -0.366,-0.021 -0.54,-0.063c-0.174,-0.048 -0.327,-0.117 -0.459,-0.207c-0.126,-0.096 -0.228,-0.219 -0.306,-0.369c-0.078,-0.15 -0.117,-0.333 -0.117,-0.549Zm6.664,-3.105l-0,5.238l1.413,0l-0,-5.238l1.926,0l-0,-1.188l-5.265,0l-0,1.188l1.926,0Zm9.894,2.808l-0,-3.996l-1.413,0l-0,3.996c-0,0.48 -0.096,0.834 -0.288,1.062c-0.192,0.222 -0.54,0.333 -1.044,0.333c-0.288,0 -0.519,-0.039 -0.693,-0.117c-0.168,-0.084 -0.3,-0.189 -0.396,-0.315c-0.096,-0.132 -0.159,-0.282 -0.189,-0.45c-0.03,-0.168 -0.045,-0.339 -0.045,-0.513l-0,-3.996l-1.413,0l-0,3.996c-0,0.876 0.237,1.524 0.711,1.944c0.48,0.42 1.155,0.63 2.025,0.63c0.858,0 1.53,-0.21 2.016,-0.63c0.486,-0.426 0.729,-1.074 0.729,-1.944Zm2.989,1.242l0,-4.05l1.008,0c0.348,0 0.639,0.051 0.873,0.153c0.24,0.096 0.432,0.237 0.576,0.423c0.144,0.186 0.246,0.411 0.306,0.675c0.066,0.258 0.099,0.549 0.099,0.873c0,0.354 -0.045,0.654 -0.135,0.9c-0.09,0.246 -0.21,0.447 -0.36,0.603c-0.15,0.15 -0.321,0.258 -0.513,0.324c-0.192,0.066 -0.39,0.099 -0.594,0.099l-1.26,0Zm-1.413,-5.238l0,6.426l2.772,0c0.492,0 0.918,-0.081 1.278,-0.243c0.366,-0.168 0.669,-0.396 0.909,-0.684c0.246,-0.288 0.429,-0.63 0.549,-1.026c0.12,-0.396 0.18,-0.828 0.18,-1.296c0,-0.534 -0.075,-0.999 -0.225,-1.395c-0.144,-0.396 -0.348,-0.726 -0.612,-0.99c-0.258,-0.264 -0.567,-0.462 -0.927,-0.594c-0.354,-0.132 -0.738,-0.198 -1.152,-0.198l-2.772,0Zm8.697,3.924l-0,2.502l1.413,0l-0,-2.466l2.385,-3.96l-1.575,0l-1.494,2.538l-1.503,-2.538l-1.584,0l2.358,3.924Z" style="fill:#6922ea;fill-rule:nonzero;"/><path d="M48.19,29.188c-2.133,2.064 -6.82,0.739 -9.873,0.739c-6.212,0 -12.639,0.41 -17.336,5.114c-1.179,1.18 -1.969,3.215 -2.321,4.802c-0.466,2.096 -1.16,4.345 -0.62,6.505c1.806,7.228 11.59,9.407 14.704,15.646c1.276,2.551 -4.805,4.602 -6.036,5.424c-7.667,5.103 -8.46,11.692 -7.894,15.647c0.994,6.955 6.321,12.789 13.313,13.787c4.412,0.63 8.949,-1.437 13.003,-2.787c3.389,-1.13 8.386,-5.174 12.229,-3.254c3.45,1.725 6.893,5.97 9.598,8.674c2.458,2.461 8.249,2.045 11.299,1.706c1.557,-0.174 3.597,-0.798 4.953,-1.706c11.721,-7.852 -0.01,-17.585 0.153,-19.207c0.268,-2.666 5.902,-1.453 9.908,-2.787c7.68,-2.563 13.425,-11.225 11.146,-19.212c-1.519,-5.32 -7.038,-8.027 -11.766,-9.605c-1.941,-0.646 -7.952,0.135 -8.825,-2.479c-0.508,-1.523 0.716,-12.294 0.381,-15.73c-1.27,-12.975 -14.816,-16.661 -23.442,-14.171c-6.608,1.907 -9.748,10.162 -12.574,12.894Z" style="fill:#e6f2fc;"/><path d="M58.574,40.874c-1.145,1.107 -3.661,0.396 -5.298,0.396c-3.334,0 -6.781,0.221 -9.304,2.742c-0.633,0.634 -1.058,1.728 -1.246,2.579c-0.25,1.127 -0.624,2.333 -0.333,3.491c0.969,3.878 6.219,5.049 7.891,8.396c0.684,1.37 -2.577,2.47 -3.239,2.909c-4.115,2.739 -4.54,6.274 -4.236,8.395c0.534,3.735 3.392,6.864 7.145,7.401c2.37,0.339 4.803,-0.771 6.98,-1.497c1.819,-0.608 4.501,-2.777 6.564,-1.747c1.851,0.925 3.699,3.203 5.15,4.656c1.321,1.321 4.429,1.097 6.065,0.915c0.835,-0.093 1.932,-0.426 2.658,-0.915c6.288,-4.214 -0.007,-9.436 0.082,-10.31c0.144,-1.43 3.169,-0.78 5.318,-1.498c4.121,-1.375 5.425,-4.773 4.2,-9.057c-0.815,-2.855 -2.66,-4.627 -5.198,-5.472c-1.042,-0.349 -5.32,-1.021 -5.787,-2.422c-0.272,-0.819 -0.307,-5.097 -0.489,-6.94c-0.681,-6.963 -5.973,-9.545 -10.602,-8.207c-3.546,1.024 -4.799,4.716 -6.318,6.185l-0.003,-0Z" style="fill:#cae8f9;"/><path d="M26.89,76.137c-0.048,0.384 -0.464,0.72 -0.803,0.838c-2.525,0.871 -2.142,4.624 0.637,4.714c3.565,0.115 7.133,0.23 10.697,0.348c3.089,0.099 3.083,-4.7 0,-4.799c-3.564,-0.115 -7.132,-0.23 -10.697,-0.349l0.636,4.713c2.57,-0.886 3.984,-2.806 4.322,-5.465c0.164,-1.286 -1.221,-2.399 -2.397,-2.399c-1.433,-0 -2.232,1.107 -2.398,2.399l0.003,0Z" style="fill:#fff;fill-rule:nonzero;"/><path d="M39.122,72.861c-1.678,2.649 -2.605,5.618 -2.791,8.744c-0.013,0.215 -0.041,0.445 -0.029,0.659c0.058,0.897 -0.121,-0.156 0.295,0.01c-0.554,-0.224 -1.733,0.041 -2.338,0.054l-5.668,0.116c-3.082,0.063 -3.092,4.863 -0,4.799l6.615,-0.134c1.902,-0.039 3.836,-0.132 5.016,-1.866c0.947,-1.392 0.768,-3.011 0.988,-4.594c0.272,-1.943 1.014,-3.722 2.056,-5.366c1.659,-2.618 -2.491,-5.027 -4.14,-2.422l-0.004,-0Z" style="fill:#fff;fill-rule:nonzero;"/><path d="M37.364,86.831l7.632,-0.016c2.017,-0.004 4.517,0.367 6.416,-0.442c1.9,-0.81 2.568,-2.57 2.964,-4.419c0.499,-2.313 0.78,-4.678 0.895,-7.04c0.064,-1.273 -1.147,-2.431 -2.398,-2.399l-11.746,0.311c-2.257,0.06 -2.925,2.505 -1.695,4.095l0.199,0.256l-0.704,-1.696c0.036,0.323 -0.249,0.739 -0.326,1.107c-0.156,0.736 -0.083,1.514 0.269,2.186c0.722,1.379 2.097,1.555 3.485,1.6c3.389,0.112 6.784,0.156 10.173,0.233l-0.636,-4.713l-7.907,1.68c-2.071,0.441 -5.959,0.473 -6.979,2.704c-0.477,1.042 -0.288,2.29 0.55,3.1c0.837,0.809 2.075,0.848 3.197,0.896l8.572,0.368c3.085,0.131 3.078,-4.669 -0,-4.8c-3.236,-0.137 -6.609,-0.022 -9.816,-0.448l1.212,0.327l0.47,0.531l0.243,1.849l0.077,-0.262l-1.103,1.433c0.553,-0.393 1.995,-0.464 2.724,-0.621l3.344,-0.71l6.688,-1.423c2.708,-0.576 2.002,-4.653 -0.636,-4.714l-5.723,-0.131l-2.545,-0.057c-0.726,-0.017 -1.982,0.096 -2.494,-0.109l1.433,1.104l-0.189,-0.263l0.326,1.213l-0.128,0.173c0.106,-0.247 0.211,-0.496 0.314,-0.746c0.124,-0.377 0.23,-0.768 0.233,-1.174c0.006,-0.918 -0.393,-1.587 -0.934,-2.285l-1.694,4.096l11.746,-0.311l-2.397,-2.4c-0.08,1.649 -0.243,3.277 -0.554,4.899c-0.105,0.557 -0.156,1.728 -0.514,2.224c-0.211,0.288 -0.026,-0.025 0.041,-0.045c-0.291,0.08 -0.658,0.013 -0.959,0.017c-3.709,0.022 -7.421,0.016 -11.129,0.025c-3.086,0.006 -3.092,4.806 -0,4.799l0.003,-0.003Z" style="fill:#fff;fill-rule:nonzero;"/><path d="M31.283,57.192c0.32,1.177 0.406,2.304 0.323,3.516l4.709,-0.637l-0.208,-1.372c-0.339,-2.227 -3.35,-2.086 -4.383,-0.573c-0.607,0.893 -0.732,1.942 -0.508,2.991c0.163,0.763 0.601,1.415 0.735,2.18c0.224,1.276 1.787,1.997 2.951,1.676c1.346,-0.371 1.899,-1.67 1.675,-2.953c-0.089,-0.506 -0.275,-0.944 -0.482,-1.414c-0.374,-0.848 0.032,-0.439 -0.227,-0.058l-4.384,-0.573l0.208,1.374c0.176,1.164 1.576,1.878 2.631,1.718c1.225,-0.186 1.995,-1.136 2.079,-2.359c0.111,-1.615 -0.071,-3.231 -0.496,-4.793c-0.809,-2.975 -5.435,-1.715 -4.623,1.277Z" style="fill:#fff;fill-rule:nonzero;"/><path d="M36.619,58.907l1.196,-0.611l-3.61,-2.074c0.256,1.958 0.189,3.846 -0.3,5.759c-0.768,2.996 3.855,4.272 4.623,1.278c0.591,-2.307 0.78,-4.672 0.473,-7.037c-0.237,-1.817 -1.848,-2.972 -3.61,-2.073l-1.196,0.611c-2.749,1.405 -0.326,5.548 2.421,4.143l0.003,0.004Z" style="fill:#fff;fill-rule:nonzero;"/><path d="M31.989,64.756l0.266,3.068c0.144,1.667 2.215,1.895 2.826,0.384c0.492,-1.216 0.751,-2.464 0.873,-3.769l-2.878,0c-0.006,1.171 0.199,2.33 0.643,3.414c0.528,1.28 2.302,1.446 2.775,0c0.326,-0.998 0.451,-2.054 0.349,-3.1c-0.077,-0.775 -0.608,-1.44 -1.439,-1.44c-0.719,-0 -1.515,0.662 -1.439,1.44c0.08,0.822 0.013,1.549 -0.246,2.332l2.775,0c-0.355,-0.864 -0.546,-1.715 -0.54,-2.646c0.003,-0.777 -0.665,-1.44 -1.439,-1.44c-0.837,0 -1.365,0.663 -1.439,1.44c-0.095,1.037 -0.38,2.042 -0.77,3.005l2.826,0.384l-0.265,-3.069c-0.067,-0.774 -0.614,-1.439 -1.439,-1.439c-0.726,-0 -1.506,0.658 -1.439,1.439l0,-0.003Z" style="fill:#fff;fill-rule:nonzero;"/><path d="M31.698,69.325c1.589,0.489 3.217,0.528 4.841,0.179c1.81,-0.387 1.042,-3.164 -0.764,-2.777c-1.126,0.24 -2.216,0.16 -3.309,-0.18c-1.775,-0.546 -2.532,2.231 -0.764,2.778l-0.004,-0Z" style="fill:#fff;fill-rule:nonzero;"/><path d="M42.403,45.558c-1.401,0.845 -2.36,2.313 -2.107,3.99c0.236,1.574 1.646,2.851 3.28,2.704c0.774,-0.071 1.439,-0.611 1.439,-1.44c-0,-0.723 -0.662,-1.511 -1.439,-1.44c-0.31,0.029 -0.444,-0.032 -0.454,-0.374c-0.01,-0.442 0.39,-0.749 0.729,-0.957c1.586,-0.954 0.141,-3.446 -1.452,-2.486l0.004,0.003Z" style="fill:#fff;fill-rule:nonzero;"/><path d="M45.801,50.818c0.282,-0.269 0.573,-0.457 0.943,-0.579c0.771,-0.256 0.362,0.176 0.106,-0.614c0.348,1.065 1.436,1.759 2.558,1.452c1.045,-0.288 1.803,-1.488 1.451,-2.559c-1.202,-3.677 -5.777,-2.759 -7.993,-0.64c-1.937,1.852 1.004,4.79 2.938,2.94l-0.003,0Z" style="fill:#fff;fill-rule:nonzero;"/><path d="M44.382,49.346l3.159,-0.358c1.198,-0.138 2.183,-0.81 2.356,-2.08c0.15,-1.123 -0.547,-2.374 -1.717,-2.633l-0.185,-0.042c-1.222,-0.272 -2.651,0.368 -2.951,1.677c-0.275,1.216 0.364,2.662 1.675,2.953l0.185,0.042l0.637,-4.713l-3.159,0.358c-1.241,0.141 -2.462,1.001 -2.398,2.4c0.054,1.177 1.065,2.55 2.398,2.399l-0,-0.003Z" style="fill:#fff;fill-rule:nonzero;"/><path d="M45.686,48.828c0.553,-0.067 1.612,-0.119 1.883,-0.096c0.397,0.032 0.087,0.061 0.202,-0.419c0.319,-1.338 1.301,-0.736 0.598,-0.88c-0.39,-0.08 -0.88,-0 -1.273,0.038c-0.876,0.09 -1.723,0.256 -2.551,0.56c-1.215,0.448 -2.04,1.626 -1.676,2.953c0.32,1.172 1.73,2.128 2.952,1.677c0.575,-0.211 1.16,-0.39 1.768,-0.429c0.722,-0.044 1.406,0.045 2.126,-0.121c1.681,-0.391 2.871,-1.901 2.823,-3.641c-0.045,-1.578 -0.975,-3.037 -2.334,-3.821c-1.359,-0.784 -2.983,-0.806 -4.518,-0.621c-1.285,0.157 -2.398,0.989 -2.398,2.4c0,1.174 1.103,2.56 2.398,2.4Z" style="fill:#fff;fill-rule:nonzero;"/><path d="M46.716,52.789l2.324,-0.278c0.745,-0.09 1.477,-0.599 1.439,-1.44c-0.032,-0.704 -0.64,-1.536 -1.439,-1.44l-2.324,0.278c-0.745,0.09 -1.477,0.599 -1.439,1.44c0.032,0.704 0.639,1.536 1.439,1.44Z" style="fill:#fff;fill-rule:nonzero;"/><path d="M44.107,52.092l-0.362,1.625c-0.143,0.653 0.199,1.414 0.893,1.574c0.649,0.148 1.416,-0.195 1.572,-0.892l0.362,-1.626c0.144,-0.653 -0.198,-1.414 -0.892,-1.574c-0.649,-0.147 -1.417,0.195 -1.573,0.893Z" style="fill:#fff;fill-rule:nonzero;"/><path d="M43.761,54.443l-0.284,0.816c-0.166,0.474 0.189,1.072 0.671,1.181c0.537,0.121 1.001,-0.163 1.18,-0.672l0.285,-0.816c0.166,-0.474 -0.189,-1.072 -0.672,-1.181c-0.537,-0.121 -1,0.164 -1.18,0.672Z" style="fill:#fff;fill-rule:nonzero;"/><path d="M43.528,55.928l-0.937,1.155c-0.064,0.058 -0.105,0.128 -0.131,0.205c-0.041,0.077 -0.057,0.16 -0.054,0.246c-0,0.157 0.07,0.346 0.189,0.451c0.118,0.106 0.281,0.195 0.45,0.189c0.16,-0.006 0.349,-0.057 0.451,-0.189l0.937,-1.155c0.064,-0.057 0.105,-0.128 0.131,-0.204c0.042,-0.078 0.058,-0.161 0.054,-0.247c0,-0.157 -0.07,-0.345 -0.188,-0.451c-0.119,-0.106 -0.282,-0.195 -0.451,-0.189c-0.16,0.007 -0.349,0.058 -0.451,0.189Z" style="fill:#fff;fill-rule:nonzero;"/><path d="M42.422,57.841l-0.812,0.64c-0.061,0.048 -0.093,0.154 -0.093,0.227c0,0.081 0.035,0.173 0.093,0.228c0.057,0.054 0.14,0.096 0.227,0.093l0.086,-0.013c0.054,-0.017 0.102,-0.042 0.141,-0.083l0.812,-0.641c0.061,-0.048 0.093,-0.153 0.093,-0.226c-0,-0.081 -0.036,-0.174 -0.093,-0.228c-0.058,-0.054 -0.141,-0.096 -0.227,-0.093l-0.087,0.013c-0.054,0.016 -0.102,0.041 -0.14,0.083Z" style="fill:#fff;fill-rule:nonzero;"/><path d="M57.324,36.992l0.636,2.269c0.294,1.046 1.484,1.798 2.558,1.453c1.074,-0.346 1.765,-1.437 1.451,-2.56l-0.636,-2.269c-0.294,-1.046 -1.483,-1.798 -2.558,-1.452c-1.074,0.345 -1.764,1.436 -1.451,2.559Z" style="fill:#fff;fill-rule:nonzero;"/><path d="M60.847,37.584c-0.744,0.128 -1.227,-0.102 -1.451,-0.697c-0.032,-0.035 -0.039,-0.074 -0.029,-0.115c-0.067,0.022 -0.166,0.678 -0.179,0.739c-0.157,0.78 -0.214,1.568 0.042,2.335c0.358,1.066 1.428,1.763 2.557,1.453c1.04,-0.285 1.813,-1.488 1.451,-2.56c-0.172,-0.512 -0.063,0.039 -0.012,-0.249c0.045,-0.25 0.125,-0.493 0.173,-0.739c0.137,-0.727 0.166,-1.44 -0.058,-2.151c-0.499,-1.571 -2.043,-2.329 -3.6,-2.028c-1.103,0.211 -1.733,1.536 -1.451,2.56c0.316,1.155 1.451,1.664 2.557,1.452Z" style="fill:#fff;fill-rule:nonzero;"/><path d="M59.348,41.75l0.307,1.392c0.182,0.819 1.173,1.373 1.966,1.117c0.857,-0.279 1.311,-1.091 1.116,-1.968l-0.307,-1.392c-0.182,-0.819 -1.174,-1.372 -1.967,-1.117c-0.856,0.279 -1.31,1.092 -1.115,1.968Z" style="fill:#fff;fill-rule:nonzero;"/><path d="M60.083,39.76c-0.489,0.97 -0.623,1.974 -0.387,3.036c0.183,0.82 1.174,1.376 1.967,1.117c0.856,-0.278 1.311,-1.091 1.116,-1.968c-0.087,-0.384 -0.013,0.33 -0.013,-0.064c-0,-0.019 -0.013,-0.364 0.009,-0.371l-0.019,0.179c0.016,-0.08 0.035,-0.16 0.061,-0.24c0.061,-0.313 -0.128,0.237 0.028,-0.073c0.378,-0.746 0.221,-1.77 -0.572,-2.189c-0.729,-0.384 -1.784,-0.224 -2.187,0.573l-0.003,0Z" style="fill:#fff;fill-rule:nonzero;"/><path d="M75.865,39.923c-0.666,-0.185 -1.34,-0.419 -2.037,-0.435c-0.882,-0.019 -1.758,0.416 -2.229,1.171c-0.47,0.755 -0.514,1.709 -0.096,2.483c0.451,0.838 1.254,1.213 2.162,1.312c0.835,0.093 1.633,-0.803 1.598,-1.6c-0.041,-0.944 -0.706,-1.5 -1.598,-1.6c0.486,0.055 0.85,0.426 0.709,0.954c-0.038,0.144 -0.213,0.326 -0.335,0.397c-0.073,0.041 -0.22,0.038 -0.265,0.067c-0.081,-0.016 -0.071,-0.016 0.025,0.003c0.054,0.01 0.106,0.022 0.16,0.035c0.106,0.026 0.211,0.055 0.316,0.083c0.246,0.068 0.493,0.138 0.742,0.208c0.806,0.228 1.775,-0.278 1.967,-1.116c0.192,-0.839 -0.256,-1.725 -1.116,-1.968l-0.003,0.006Z" style="fill:#fff;fill-rule:nonzero;"/><path d="M73.553,46.95c1.823,-0.157 3.536,-0.672 5.08,-1.671c1.66,-1.071 0.915,-3.423 -0.968,-3.577c-2.475,-0.201 -4.112,2.163 -3.6,4.445c0.226,1.011 1.393,1.606 2.359,1.34c1.039,-0.285 1.567,-1.347 1.34,-2.361c0.08,0.361 -0.585,0.377 -0.102,0.416l-0.969,-3.577c-0.96,0.617 -1.995,1.046 -3.144,1.145c-1.032,0.09 -1.917,0.819 -1.917,1.92c-0,0.969 0.879,2.009 1.917,1.92l0.004,-0Z" style="fill:#fff;fill-rule:nonzero;"/><path d="M70.711,46.838c0.399,0.832 1.374,1.395 2.286,1.401c0.978,0.007 1.815,-0.509 2.337,-1.318c0.521,-0.81 0.201,-2.157 -0.687,-2.627c-0.954,-0.506 -2.043,-0.214 -2.625,0.688l-0.042,0.061l0.3,-0.387c-0.048,0.06 -0.096,0.108 -0.156,0.156l0.387,-0.3c-0.039,0.028 -0.084,0.054 -0.129,0.076l0.458,-0.192c-0.071,0.029 -0.134,0.052 -0.211,0.064l0.512,-0.067c-0.078,0.007 -0.144,0.007 -0.221,0l0.512,0.067c-0.048,-0.009 -0.096,-0.022 -0.141,-0.041l0.457,0.192c-0.07,-0.032 -0.128,-0.064 -0.192,-0.112l0.387,0.301c-0.038,-0.033 -0.073,-0.064 -0.106,-0.103l0.301,0.387c-0.048,-0.061 -0.083,-0.118 -0.115,-0.188c-0.198,-0.413 -0.72,-0.765 -1.148,-0.884c-0.46,-0.128 -1.071,-0.07 -1.477,0.192c-0.406,0.263 -0.771,0.659 -0.882,1.149c-0.119,0.528 -0.042,0.992 0.192,1.478l0.003,0.007Z" style="fill:#fff;fill-rule:nonzero;"/><path d="M75.931,49.948c1.935,-0 4.042,0.131 4.956,-1.965c0.854,-1.955 -0.166,-3.695 -1.4,-5.187c-0.662,-0.799 -2.03,-0.684 -2.715,0c-0.789,0.791 -0.661,1.914 0,2.717c0.212,0.256 0.41,0.522 0.566,0.819c0,0 0.093,0.419 0.042,0.122c-0.035,-0.208 -0.048,0.08 -0.013,0.048c0.022,-0.023 0.361,-0.359 0.361,-0.365l0.071,-0.022l-1.874,-0c-2.468,-0 -2.471,3.839 0,3.839l0.006,-0.006Z" style="fill:#fff;fill-rule:nonzero;"/><path d="M76.843,40.17l-0.365,1.564c-0.226,0.976 0.301,2.125 1.34,2.362c0.978,0.224 2.116,-0.295 2.359,-1.341l0.365,-1.565c0.227,-0.976 -0.3,-2.124 -1.34,-2.361c-0.978,-0.224 -2.116,0.294 -2.359,1.341Z" style="fill:#fff;fill-rule:nonzero;"/><path d="M77.434,40.982c-0.012,1.328 -0.342,3.133 0.851,4.054c0.655,0.506 1.307,0.461 1.982,0.429c-0.121,0.007 0.332,0 0.383,0.01c0.055,0.025 0.113,0.035 0.167,0.028c0.332,0.231 0.329,0.151 -0.01,-0.243l0,-1.02l-0.048,0.233l0.493,-0.848l0.073,-0.067l0.969,-0.262c-0.351,0.044 -0.953,-0.131 -1.477,-0.247c-1.01,-0.22 -2.075,0.304 -2.36,1.341c-0.265,0.96 0.324,2.137 1.34,2.361c0.883,0.196 1.845,0.528 2.753,0.349c1.31,-0.259 2.299,-1.481 1.956,-2.864c-0.252,-1.027 -1.067,-1.737 -1.998,-2.156c-0.569,-0.256 -1.119,-0.4 -1.742,-0.445c-0.179,-0.013 -0.355,-0.016 -0.531,-0.006c-0.173,0.022 -0.345,0.044 -0.518,0.067c-0.3,0.054 -0.339,0.051 -0.115,-0.01l0.969,0.263l-0.157,-0.077l0.687,0.688l-0.095,-0.192l0.262,0.969c-0.054,-0.78 -0.003,-1.574 -0,-2.355c0.022,-2.47 -3.815,-2.473 -3.837,0l0.003,0Z" style="fill:#fff;fill-rule:nonzero;"/><path d="M80.101,49.334l0.409,-0.228c0.224,-0.121 0.403,-0.284 0.537,-0.496c0.17,-0.185 0.284,-0.403 0.342,-0.652c0.08,-0.256 0.093,-0.512 0.035,-0.765c-0.012,-0.256 -0.086,-0.493 -0.227,-0.714l-0.3,-0.387c-0.24,-0.237 -0.521,-0.403 -0.847,-0.493l-0.512,-0.067c-0.346,0 -0.668,0.09 -0.969,0.263l-0.409,0.227c-0.224,0.121 -0.403,0.285 -0.537,0.496c-0.17,0.185 -0.285,0.403 -0.342,0.653c-0.08,0.255 -0.093,0.511 -0.036,0.764c0.013,0.256 0.087,0.493 0.228,0.714l0.3,0.387c0.24,0.237 0.522,0.403 0.847,0.493l0.512,0.067c0.345,-0 0.668,-0.09 0.969,-0.262Z" style="fill:#fff;fill-rule:nonzero;"/><path d="M78.486,53.97c1.234,-0 1.237,-1.92 -0,-1.92c-1.237,0 -1.237,1.92 -0,1.92Z" style="fill:#fff;fill-rule:nonzero;"/><path d="M82.633,57.412c0.345,2.269 0.255,5.165 1.839,6.976c1.492,1.709 3.97,-0.79 2.487,-2.49c-0.41,-0.466 -0.371,-1.718 -0.457,-2.281l-0.477,-3.139c-0.143,-0.947 -1.323,-1.449 -2.165,-1.228c-1.006,0.265 -1.371,1.228 -1.227,2.166l-0,-0.004Z" style="fill:#fff;fill-rule:nonzero;"/><path d="M84.631,59.403l0.345,5.302c0.147,2.265 3.357,2.262 3.517,-0l0.65,-9.113l-3.518,0l0.122,5.181c0.039,1.641 2.475,2.527 3.277,0.889l0.611,-1.248c0.198,-0.409 0.69,-0.813 0.102,-0.477l-1.774,-0l0.147,0.073l-0.809,-1.052l0.054,0.157l0.451,-1.712l-0.09,0.103c-1.492,1.692 0.985,4.191 2.488,2.489l0.089,-0.102c0.403,-0.455 0.662,-1.101 0.451,-1.713c-0.374,-1.091 -1.406,-1.824 -2.573,-1.369c-1.235,0.48 -1.65,1.987 -2.184,3.078l3.277,0.889l-0.121,-5.18c-0.055,-2.284 -3.357,-2.243 -3.518,0l-0.649,9.113l3.517,-0l-0.345,-5.302c-0.147,-2.249 -3.664,-2.265 -3.517,-0l0,-0.006Z" style="fill:#fff;fill-rule:nonzero;"/><path d="M86.419,62.158l1.326,4.985c0.582,2.186 3.978,1.257 3.393,-0.934l-1.327,-4.986c-0.582,-2.185 -3.977,-1.257 -3.392,0.935Z" style="fill:#fff;fill-rule:nonzero;"/><path d="M89.638,60.584c2.264,-0.001 2.267,-3.52 -0,-3.52c-2.267,-0 -2.267,3.52 -0,3.52Z" style="fill:#fff;fill-rule:nonzero;"/><path d="M83.231,64.298l2.81,3.178c0.63,0.71 1.845,0.643 2.487,0c0.707,-0.707 0.633,-1.776 0,-2.49l-2.81,-3.177c-0.63,-0.71 -1.845,-0.643 -2.487,-0c-0.707,0.707 -0.634,1.776 0,2.489Z" style="fill:#fff;fill-rule:nonzero;"/><path d="M82.495,65.511c0.96,1.085 2.152,1.981 3.473,2.582c1.406,0.643 2.912,-0.409 2.583,-1.986l-0.089,-0.432c-0.195,-0.932 -1.289,-1.47 -2.165,-1.23c-0.966,0.267 -1.423,1.233 -1.228,2.167l0.09,0.432l2.583,-1.987c-1.141,-0.522 -1.931,-1.098 -2.759,-2.032c-0.63,-0.71 -1.845,-0.643 -2.488,-0c-0.706,0.707 -0.633,1.776 0,2.489l0,-0.003Z" style="fill:#fff;fill-rule:nonzero;"/><path d="M81.687,64.106c1.256,1.364 2.746,2.49 4.405,3.318c1.468,0.733 2.766,-1.475 1.292,-2.211c-1.474,-0.736 -2.765,-1.698 -3.888,-2.918c-1.122,-1.219 -2.922,0.599 -1.809,1.811Z" style="fill:#fff;fill-rule:nonzero;"/><path d="M81.594,65.223c1.723,2.534 4.06,4.367 6.916,5.465c1.537,0.592 2.202,-1.882 0.681,-2.466c-2.194,-0.846 -4.068,-2.347 -5.388,-4.288c-0.921,-1.354 -3.14,-0.074 -2.209,1.292l-0,-0.003Z" style="fill:#fff;fill-rule:nonzero;"/><path d="M81.917,67.012c1.838,2.14 4.399,3.343 7.2,3.545c1.643,0.118 1.634,-2.441 0,-2.56c-2.146,-0.153 -4,-1.174 -5.391,-2.793c-1.074,-1.251 -2.877,0.567 -1.809,1.811l0,-0.003Z" style="fill:#fff;fill-rule:nonzero;"/><path d="M84.196,70.336c0.489,4.861 1.803,9.465 3.99,13.832c0.726,1.45 2.814,1.251 3.591,-0l0.182,-0.294c1.414,-2.282 -2.18,-4.374 -3.59,-2.099l-0.183,0.294l3.591,0c-1.839,-3.67 -3.012,-7.647 -3.424,-11.733c-0.266,-2.639 -4.425,-2.665 -4.157,-0Z" style="fill:#fff;fill-rule:nonzero;"/><path d="M86.035,69.089c1.362,4.428 3.44,8.577 6.25,12.263c0.838,1.098 2.203,1.677 3.501,0.919c1.081,-0.63 1.762,-2.397 0.918,-3.504c-2.551,-3.343 -4.498,-7.017 -5.736,-11.042c-0.966,-3.139 -5.905,-1.802 -4.933,1.36l-0,0.004Z" style="fill:#fff;fill-rule:nonzero;"/><path d="M88.366,77.58c-2.785,-0.079 -5.832,-0.515 -8.582,0.048c-2.529,0.518 -5.464,2.704 -4.952,5.625c0.658,3.757 4.978,2.39 7.526,1.961l9.345,-1.57c1.362,-0.231 2.126,-1.914 1.787,-3.149c-0.396,-1.447 -1.777,-2.019 -3.145,-1.788l-6.331,1.065l-3.015,0.506c-0.572,0.096 -2.212,0.645 -2.762,0.48l1.528,1.177l-0.214,-0.314l0.349,1.293c0.012,0.364 -0.285,0.137 0.057,0.064c0.294,-0.061 0.601,-0.285 0.924,-0.355c0.732,-0.157 1.521,-0.09 2.267,-0.071c1.739,0.042 3.478,0.099 5.218,0.147c3.293,0.093 3.289,-5.026 -0,-5.119Z" style="fill:#fff;fill-rule:nonzero;"/><path d="M76.267,81.964c-0.128,-2.34 -0.323,-4.768 -1.521,-6.841c-1.081,-1.869 -2.782,-2.979 -4.729,-3.788c-4.256,-1.767 -8.943,-2.372 -13.508,-1.77c-1.369,0.179 -2.558,1.046 -2.558,2.559c-0,1.245 1.18,2.742 2.558,2.56c3.36,-0.441 6.688,-0.243 9.93,0.771c1.193,0.375 2.785,0.807 3.61,1.814c1.029,1.251 1.016,3.171 1.1,4.698c0.179,3.276 5.294,3.299 5.115,-0l0.003,-0.003Z" style="fill:#fff;fill-rule:nonzero;"/><path d="M59.399,51.461c-1.65,1.043 -3.041,2.56 -3.712,4.419c-0.448,1.239 -0.246,2.579 0.655,3.561c0.902,0.983 2.424,1.098 3.642,0.717c1.218,-0.381 2.222,-1.801 1.787,-3.148c-0.435,-1.348 -1.777,-2.215 -3.146,-1.789c-0.246,0.061 -0.268,0.077 -0.067,0.051c0.301,-0.035 0.598,0.013 0.889,0.147l0.917,0.919c0.272,0.457 0.307,0.889 0.106,1.292c0.071,-0.147 0.147,-0.288 0.23,-0.428c0.084,-0.141 0.17,-0.279 0.262,-0.41c-0.134,0.16 -0.14,0.17 -0.028,0.035c0.185,-0.221 0.39,-0.41 0.591,-0.614c0.23,-0.192 0.246,-0.211 0.051,-0.061c0.132,-0.096 0.269,-0.186 0.406,-0.269c1.129,-0.713 1.685,-2.313 0.918,-3.503c-0.767,-1.191 -2.29,-1.683 -3.501,-0.919Z" style="fill:#fff;fill-rule:nonzero;"/><path d="M62.053,55.941c-0.192,-0.042 -0.129,-0.029 0.192,0.038c0.191,0.045 0.38,0.099 0.565,0.16c-0.131,-0.048 0.461,0.234 0.582,0.308c0.307,0.188 0.307,0.201 0.521,0.415c0.192,0.247 0.249,0.298 0.176,0.151c0.33,0.614 0.387,0.313 0.169,-0.896l0.918,-0.919c0,0 0.365,-0.015 0.362,-0.019c-0.122,-0.118 -0.816,-0.214 -0.972,-0.256l-2.088,-0.553c-3.185,-0.848 -4.543,4.089 -1.359,4.937c1.455,0.387 3.06,1.037 4.579,0.995c2.135,-0.058 3.83,-1.907 3.516,-4.054c-0.483,-3.292 -4.191,-5.142 -7.158,-5.423c-1.378,-0.132 -2.558,1.27 -2.558,2.559c0,1.495 1.177,2.429 2.558,2.56l-0.003,-0.003Z" style="fill:#fff;fill-rule:nonzero;"/><path d="M58.516,60.823l0.956,3.104c0.525,1.708 2.974,2.666 4.275,1.13l2.212,-2.614c0.864,-1.021 1.075,-2.634 0,-3.619c-0.952,-0.874 -2.691,-1.091 -3.615,-0l-2.213,2.614l4.274,1.129l-0.955,-3.103c-0.394,-1.277 -1.803,-2.224 -3.146,-1.789c-1.343,0.435 -2.21,1.779 -1.788,3.148Z" style="fill:#fff;fill-rule:nonzero;"/><path d="M65.822,62.865c2.056,-0 2.063,-3.199 0,-3.199c-2.062,-0 -2.062,3.199 0,3.199Z" style="fill:#fff;fill-rule:nonzero;"/><path d="M66.404,61.294c2.056,-0 2.062,-3.2 0,-3.2c-2.062,0 -2.062,3.2 0,3.2Z" style="fill:#fff;fill-rule:nonzero;"/><path d="M58.622,62.456c2.056,-0.001 2.062,-3.2 0,-3.2c-2.062,0 -2.062,3.2 0,3.2Z" style="fill:#fff;fill-rule:nonzero;"/><path d="M60.275,65.972l0,0.739c-0.004,0.675 0.492,1.388 1.17,1.542c0.713,0.163 1.41,-0.115 1.807,-0.736l0.742,-1.155l-2.981,-0.806l0.173,1.645c0.045,0.435 0.147,0.809 0.467,1.132c0.278,0.278 0.732,0.486 1.132,0.467c0.792,-0.035 1.691,-0.707 1.599,-1.599l-0.174,-1.645c-0.069,-0.682 -0.444,-1.376 -1.173,-1.543c-0.729,-0.166 -1.41,0.116 -1.806,0.737l-0.742,1.155l2.98,0.806l-0,-0.739c0.003,-0.838 -0.735,-1.638 -1.596,-1.6c-0.86,0.038 -1.595,0.704 -1.598,1.6Z" style="fill:#fff;fill-rule:nonzero;"/><path d="M59.386,69.728c1.158,0.506 2.322,0.912 3.562,1.155c0.847,0.167 1.727,-0.24 1.966,-1.116c0.214,-0.784 -0.266,-1.802 -1.116,-1.969c-0.953,-0.185 -1.905,-0.441 -2.798,-0.831c-0.789,-0.346 -1.716,-0.234 -2.186,0.573c-0.397,0.678 -0.221,1.84 0.572,2.188Z" style="fill:#fff;fill-rule:nonzero;"/><path d="M63.964,70.419c1.251,-0.137 3.361,1.028 4.461,1.568c1.192,0.586 2.554,1.491 2.708,2.944c0.211,2.029 3.411,2.047 3.197,0c-0.237,-2.284 -1.465,-4.006 -3.402,-5.216c-0.979,-0.611 -2.075,-1.027 -3.149,-1.439c-1.218,-0.468 -2.491,-1.197 -3.815,-1.054c-2.023,0.225 -2.046,3.424 0,3.201l0,-0.004Z" style="fill:#fff;fill-rule:nonzero;"/><path d="M65.982,76.921l3.043,2c0.723,0.473 1.769,0.144 2.187,-0.573c0.458,-0.781 0.151,-1.715 -0.572,-2.189l-3.043,-1.999c-0.723,-0.474 -1.769,-0.144 -2.187,0.572c-0.458,0.781 -0.15,1.715 0.572,2.189Z" style="fill:#fff;fill-rule:nonzero;"/><path d="M63.619,78.595c2.705,3.856 6.66,6.581 11.312,7.474c2.612,0.502 3.734,-3.507 1.106,-4.012c-3.562,-0.685 -6.727,-2.567 -8.827,-5.562c-1.525,-2.175 -5.132,-0.099 -3.591,2.1Z" style="fill:#fff;fill-rule:nonzero;"/><path d="M68.677,80.799l0.406,0.583c0.131,0.243 0.311,0.438 0.534,0.582c0.202,0.182 0.435,0.307 0.707,0.371c0.275,0.086 0.553,0.099 0.828,0.038c0.278,-0.012 0.534,-0.096 0.774,-0.246c0.444,-0.285 0.834,-0.714 0.955,-1.242l0.074,-0.553c0,-0.374 -0.096,-0.726 -0.285,-1.049l-0.405,-0.583c-0.132,-0.243 -0.311,-0.438 -0.534,-0.582c-0.202,-0.183 -0.435,-0.308 -0.707,-0.371c-0.275,-0.087 -0.553,-0.099 -0.828,-0.039c-0.278,0.013 -0.534,0.096 -0.774,0.246c-0.445,0.285 -0.835,0.714 -0.956,1.242l-0.074,0.554c0,0.374 0.096,0.726 0.285,1.049Z" style="fill:#fff;fill-rule:nonzero;"/><path d="M50.431,86.709l25.788,0.32c2.676,0.032 2.676,-4.128 0,-4.16l-25.788,-0.32c-2.676,-0.032 -2.676,4.128 -0,4.16Z" style="fill:#fff;fill-rule:nonzero;"/><path d="M68.501,81.292l-15.966,-0.717l1.048,3.875c3.648,-1.712 7.587,-2.537 11.609,-2.531c2.702,0.003 2.645,-3.974 0,-4.16c-4.044,-0.285 -8.089,-0.47 -12.143,-0.556l0,4.159l9.608,-0.544c2.27,-0.128 2.906,-3.459 0.553,-4.086l-7.453,-1.983l0,4.011c2.855,-0.857 5.704,-1.238 8.681,-1.16l-0,-4.16l-8.962,0.304c-2.666,0.089 -2.686,4.127 0,4.159l9.828,0.116c2.676,0.031 2.676,-4.128 -0,-4.16l-9.828,-0.115l0,4.159l8.962,-0.304c2.67,-0.09 2.682,-4.092 -0,-4.159c-3.316,-0.083 -6.609,0.358 -9.787,1.309c-1.931,0.579 -2.021,3.471 0,4.011l7.453,1.984l0.553,-4.085l-9.608,0.544c-2.657,0.15 -2.695,4.101 0,4.159c4.051,0.086 8.099,0.272 12.143,0.557l0,-4.16c-4.783,-0.006 -9.384,1.069 -13.706,3.098c-1.986,0.934 -0.847,3.791 1.049,3.874l15.966,0.717c2.673,0.119 2.67,-4.041 0,-4.159l0,0.003Z" style="fill:#fff;fill-rule:nonzero;"/><path d="M57.596,68.068c-2.513,0.742 -4.579,2.31 -6.017,4.492c-0.617,0.938 -0.186,2.3 0.745,2.844c1.013,0.596 2.225,0.196 2.842,-0.745c0.834,-1.267 2.084,-2.153 3.533,-2.582c2.561,-0.755 1.47,-4.771 -1.106,-4.012l0.003,0.003Z" style="fill:#fff;fill-rule:nonzero;"/><path d="M42.531,75.005l5.518,0.035c2.676,0.016 2.679,-4.144 -0,-4.16l-5.518,-0.035c-2.677,-0.016 -2.68,4.144 -0,4.16Z" style="fill:#fff;fill-rule:nonzero;"/><path d="M52.407,71.273l-5.113,-0.188c-2.676,-0.099 -2.669,4.061 0,4.159l5.113,0.19c2.676,0.099 2.669,-4.061 -0,-4.161Z" style="fill:#fff;fill-rule:nonzero;"/><path d="M73.853,75.472l1.024,7.26c0.156,1.119 1.573,1.711 2.557,1.453c1.199,-0.318 1.608,-1.453 1.452,-2.56l-1.023,-7.26c-0.157,-1.12 -1.573,-1.713 -2.558,-1.453c-1.199,0.316 -1.608,1.453 -1.452,2.56Z" style="fill:#fff;fill-rule:nonzero;"/><path d="M82.738,55.877c-0.569,2.774 -0.172,5.513 1.231,7.976c0.509,0.893 2.053,1.261 2.762,0.356l0.276,-0.353c1.381,-1.762 -1.091,-4.268 -2.487,-2.489l-0.276,0.353l2.763,0.354c-0.924,-1.622 -1.254,-3.429 -0.879,-5.266c0.453,-2.211 -2.936,-3.158 -3.393,-0.934l0.003,0.003Z" style="fill:#885a3a;fill-rule:nonzero;"/><path d="M84.25,55.694l0.749,7.35c0.227,2.23 3.747,2.255 3.517,0l-0.748,-7.35c-0.227,-2.23 -3.747,-2.255 -3.518,0Z" style="fill:#885a3a;fill-rule:nonzero;"/><path d="M86.345,57.847c0.23,1.06 0.742,1.937 1.583,2.628l0.354,-2.765c-3.005,1.764 -1.41,5.021 -0.579,7.596c0.694,2.148 4.093,1.229 3.393,-0.934c-0.128,-0.393 -1.343,-3.443 -1.039,-3.622c0.898,-0.528 1.246,-2.032 0.355,-2.764c-0.432,-0.356 -0.56,-0.529 -0.678,-1.072c-0.48,-2.211 -3.872,-1.277 -3.393,0.934l0.004,-0Z" style="fill:#885a3a;fill-rule:nonzero;"/><path d="M81.226,64.01c0.467,1.168 1.074,2.192 1.935,3.117c0.626,0.675 1.86,0.681 2.487,0c0.665,-0.724 0.672,-1.77 -0,-2.49c-0.141,-0.15 -0.279,-0.304 -0.406,-0.466c0.233,0.297 -0.137,-0.219 -0.173,-0.276c-0.111,-0.176 -0.214,-0.355 -0.306,-0.537c-0.033,-0.064 -0.288,-0.65 -0.141,-0.285c-0.339,-0.852 -1.19,-1.545 -2.165,-1.229c-0.825,0.266 -1.595,1.251 -1.228,2.166l-0.003,0Z" style="fill:#885a3a;fill-rule:nonzero;"/><path d="M81.882,66.676l0.76,1.609c0.397,0.835 1.656,1.117 2.408,0.63c0.857,-0.553 1.052,-1.516 0.63,-2.409l-0.761,-1.609c-0.396,-0.836 -1.656,-1.117 -2.408,-0.631c-0.856,0.554 -1.051,1.517 -0.629,2.41Z" style="fill:#885a3a;fill-rule:nonzero;"/><path d="M84.705,65.642c0.099,0.576 0.418,1.1 0.796,1.536c0.393,0.458 0.901,0.723 1.455,0.934c0.402,0.154 0.997,0.032 1.355,-0.175c0.358,-0.209 0.713,-0.634 0.809,-1.053c0.102,-0.451 0.08,-0.957 -0.176,-1.357c-0.256,-0.4 -0.601,-0.637 -1.052,-0.809l-0.067,-0.026l0.419,0.175c-0.131,-0.056 -0.25,-0.124 -0.361,-0.21l0.354,0.275c-0.108,-0.09 -0.204,-0.189 -0.294,-0.301l0.276,0.355c-0.084,-0.115 -0.151,-0.233 -0.208,-0.365l0.175,0.42c-0.041,-0.112 -0.073,-0.222 -0.093,-0.339c-0.069,-0.41 -0.463,-0.849 -0.808,-1.053c-0.377,-0.221 -0.934,-0.314 -1.356,-0.177c-0.422,0.138 -0.834,0.404 -1.052,0.81c-0.233,0.442 -0.262,0.867 -0.175,1.357l0.003,0.003Z" style="fill:#885a3a;fill-rule:nonzero;"/><path d="M85.459,71.492c0.822,2.745 1.829,5.435 3.044,8.031c1.045,2.233 2.353,4.265 4.489,5.586c1.931,1.193 3.699,-1.849 1.774,-3.04c-1.758,-1.088 -2.644,-3.029 -3.469,-4.854c-0.975,-2.16 -1.767,-4.393 -2.448,-6.661c-0.681,-2.269 -4.045,-1.242 -3.393,0.934l0.003,0.004Z" style="fill:#885a3a;fill-rule:nonzero;"/><path d="M85.916,73.898c0.614,2.29 1.292,4.562 2.06,6.805c0.594,1.738 1.102,4.467 2.995,5.273c1.893,0.806 3.59,-0.906 4.745,-2.253c1.448,-1.692 2.238,-3.685 1.627,-5.903c-0.403,-1.462 -2.449,-1.724 -3.213,-0.419c-0.355,0.422 -0.278,0.496 0.23,0.217l-0.847,-0.873l-1.694,-1.75c-0.864,-0.893 -2.296,-1.971 -2.37,-3.315l-3.277,0.889l4.268,6.554c1.232,1.891 4.278,0.127 3.038,-1.776l-4.269,-6.553c-0.894,-1.373 -3.379,-0.954 -3.276,0.89c0.175,3.154 2.835,5.218 4.881,7.333c0.931,0.96 1.887,2.211 3.345,2.269c1.458,0.057 2.363,-1.008 3.005,-2.106l-3.213,-0.419c0.374,1.356 -0.572,2.374 -1.461,3.264c-0.192,0.192 -0.387,0.377 -0.582,0.563c0.544,0.093 0.63,-0.099 0.253,-0.583c-0.016,-0.509 -0.435,-1.203 -0.602,-1.673c-0.844,-2.426 -1.588,-4.886 -2.254,-7.366c-0.585,-2.185 -3.977,-1.257 -3.392,0.934l0.003,-0.002Z" style="fill:#885a3a;fill-rule:nonzero;"/><path d="M85.597,67.962c0.822,0 0.825,-1.28 -0,-1.28c-0.825,-0 -0.825,1.28 -0,1.28Z" style="fill:#885a3a;fill-rule:nonzero;"/><path d="M87.355,69.2l0.112,0.538c0.032,0.157 0.205,0.249 0.352,0.23c0.163,-0.022 0.265,-0.154 0.278,-0.313l0.057,-0.733l-0.639,0l-0.007,0.227l0.595,-0.16l-0.099,-0.147c-0.076,-0.115 -0.22,-0.192 -0.361,-0.147c-0.141,0.045 -0.224,0.163 -0.234,0.306l-0.044,0.526c-0.013,0.156 0.131,0.294 0.278,0.313c0.147,0.02 0.323,-0.073 0.351,-0.23l0.055,-0.314l-0.617,0l0.16,0.691c0.032,0.131 0.172,0.24 0.306,0.234c0.135,-0.007 0.279,-0.093 0.308,-0.234l0.096,-0.454l-0.586,0.077l0.202,0.477c0.028,0.064 0.124,0.131 0.192,0.147c0.07,0.015 0.14,0.012 0.208,-0.016c0.131,-0.055 0.246,-0.231 0.185,-0.378l-0.544,-1.305l-0.585,0.246l0.733,1.142c0.089,0.141 0.287,0.212 0.438,0.116c0.14,-0.09 0.211,-0.288 0.115,-0.439l-0.732,-1.142c-0.087,-0.135 -0.25,-0.195 -0.4,-0.131c-0.131,0.054 -0.246,0.23 -0.185,0.377l0.543,1.306l0.585,-0.246l-0.201,-0.477c-0.048,-0.115 -0.208,-0.167 -0.32,-0.154c-0.118,0.016 -0.24,0.106 -0.265,0.231l-0.096,0.454l0.617,-0l-0.16,-0.691c-0.032,-0.131 -0.173,-0.24 -0.307,-0.234c-0.135,0.007 -0.285,0.093 -0.307,0.234l-0.054,0.313l0.626,0.087l0.045,-0.525l-0.595,0.16l0.099,0.147c0.077,0.116 0.221,0.192 0.362,0.147c0.14,-0.044 0.23,-0.163 0.233,-0.307l0.006,-0.227c0.007,-0.166 -0.15,-0.326 -0.319,-0.32c-0.186,0.01 -0.307,0.141 -0.32,0.32l-0.058,0.733l0.627,-0.086l-0.112,-0.538c-0.035,-0.164 -0.236,-0.275 -0.393,-0.224c-0.173,0.057 -0.259,0.217 -0.224,0.393Z" style="fill:#885a3a;fill-rule:nonzero;"/><path d="M87.265,69.159l0,0.595c0,0.083 0.036,0.169 0.093,0.227c0.058,0.058 0.147,0.096 0.228,0.093c0.079,-0.004 0.169,-0.032 0.226,-0.093c0.058,-0.061 0.093,-0.141 0.093,-0.227l0,-0.595c0,-0.083 -0.035,-0.17 -0.093,-0.227c-0.057,-0.058 -0.147,-0.096 -0.226,-0.093c-0.081,0.003 -0.17,0.032 -0.228,0.093c-0.057,0.06 -0.093,0.14 -0.093,0.227Z" style="fill:#885a3a;fill-rule:nonzero;"/><path d="M94.379,80.693c0.017,1.364 -0.904,2.49 -2.305,2.55c-1.4,0.062 -1.959,1.914 -0.726,2.685c1.235,0.771 2.683,0.32 3.504,-0.819c0.458,-0.63 0.109,-1.603 -0.514,-1.971c-0.726,-0.426 -1.512,-0.115 -1.97,0.516c0.051,-0.075 0.342,-0.273 0.432,-0.215l-0.726,2.684c2.952,-0.128 5.218,-2.451 5.183,-5.43c-0.023,-1.852 -2.9,-1.855 -2.878,0Z" style="fill:#885a3a;fill-rule:nonzero;"/><path d="M94.67,81.032l-0.096,0.42l-0.051,0.383c-0.006,0.199 0.035,0.385 0.125,0.554c0.035,0.122 0.096,0.227 0.186,0.317c0.102,0.157 0.236,0.282 0.402,0.372l0.342,0.144l0.384,0.051c0.198,0.006 0.384,-0.036 0.553,-0.126c0.179,-0.057 0.332,-0.156 0.464,-0.297l0.163,-0.153c0.14,-0.132 0.239,-0.285 0.297,-0.465c0.089,-0.172 0.131,-0.354 0.125,-0.553c0.006,-0.198 -0.036,-0.384 -0.125,-0.554c-0.058,-0.179 -0.157,-0.332 -0.297,-0.463c-0.275,-0.253 -0.634,-0.439 -1.017,-0.423c-0.384,0.016 -0.736,0.151 -1.017,0.423l-0.163,0.153l2.405,1.402l0.096,-0.42c0.086,-0.374 0.051,-0.774 -0.144,-1.11c-0.09,-0.166 -0.215,-0.304 -0.371,-0.403c-0.138,-0.128 -0.301,-0.215 -0.489,-0.259c-0.368,-0.083 -0.78,-0.067 -1.11,0.144c-0.307,0.198 -0.579,0.493 -0.662,0.86l0,0.003Z" style="fill:#885a3a;fill-rule:nonzero;"/><path d="M87.001,77.453c0.258,2.568 1.266,4.904 3.183,6.68c0.951,0.88 2.45,0.941 3.393,0c0.888,-0.89 0.956,-2.511 -0,-3.395c-0.956,-0.883 -1.653,-2.016 -1.778,-3.285c-0.124,-1.271 -1.01,-2.401 -2.398,-2.401c-1.195,0 -2.529,1.101 -2.397,2.4l-0.003,0Z" style="fill:#885a3a;fill-rule:nonzero;"/><path d="M88.206,80.917l0.69,2.304l4.384,-1.849l-1.273,-1.654c-0.4,-0.519 -0.773,-0.922 -1.432,-1.104c-0.576,-0.157 -1.34,-0.087 -1.848,0.243c-0.508,0.329 -0.963,0.822 -1.103,1.434c-0.141,0.611 -0.141,1.35 0.243,1.849l1.272,1.654c0.381,0.496 0.787,0.957 1.432,1.104c0.537,0.121 1.053,0.093 1.561,-0.122c1.067,-0.45 1.736,-1.676 1.388,-2.832l-0.691,-2.303c-0.362,-1.2 -1.698,-2.084 -2.951,-1.677c-1.254,0.406 -2.062,1.664 -1.676,2.953l0.004,0Z" style="fill:#885a3a;fill-rule:nonzero;"/><path d="M86.482,78.937l-7.471,-0.819c-1.28,-0.141 -2.411,1.213 -2.399,2.4l0.033,2.694c0.015,1.42 1.541,2.898 3.033,2.313c2.696,-1.056 5.369,-1.482 8.256,-1.286c3.082,0.208 3.069,-4.592 -0,-4.8c-3.249,-0.22 -6.5,0.269 -9.531,1.459l3.034,2.314l-0.032,-2.694l-2.398,2.399l7.472,0.819c1.289,0.141 2.398,-1.203 2.398,-2.399c0,-1.415 -1.106,-2.259 -2.398,-2.4l0.003,-0Z" style="fill:#885a3a;fill-rule:nonzero;"/><path d="M85.037,80.911c-1.854,0.022 -3.676,0.34 -5.416,0.985c-2.145,0.797 -1.295,3.747 0.933,3.396l2.718,-0.429c0.94,-0.147 1.461,-1.322 1.228,-2.166c-0.275,-1.002 -1.222,-1.38 -2.164,-1.229l-2.718,0.428l0.933,3.396c1.461,-0.544 2.923,-0.842 4.483,-0.858c2.261,-0.026 2.267,-3.546 0,-3.519l0.003,-0.004Z" style="fill:#885a3a;fill-rule:nonzero;"/><path d="M77.098,84.293c-0.316,0.154 -0.6,0.397 -0.681,0.755c-0.066,0.294 0,0.602 0.208,0.825c0.151,0.161 0.342,0.241 0.554,0.27c0.303,0.041 0.613,-0.048 0.911,-0.106l0.828,-0.154c0.15,-0.028 0.307,-0.166 0.383,-0.294c0.08,-0.138 0.116,-0.34 0.065,-0.493c-0.052,-0.153 -0.147,-0.304 -0.295,-0.384c-0.16,-0.083 -0.317,-0.099 -0.492,-0.064c-0.432,0.08 -0.866,0.176 -1.301,0.244l0.169,-0.023c-0.061,0.01 -0.121,0.013 -0.185,0.006l0.169,0.023c-0.029,-0.003 -0.057,-0.01 -0.083,-0.019l0.153,0.064c-0.019,-0.01 -0.038,-0.02 -0.054,-0.03l0.128,0.1c-0.019,-0.013 -0.032,-0.029 -0.048,-0.045l0.099,0.128c0,0 -0.019,-0.025 -0.025,-0.041l0.064,0.153c-0.01,-0.022 -0.017,-0.042 -0.02,-0.067l0.023,0.169l-0,-0.07l-0.023,0.17c0.007,-0.032 0.013,-0.065 0.026,-0.096l-0.064,0.154c0.013,-0.03 0.028,-0.058 0.048,-0.084l-0.099,0.128c0.028,-0.032 0.058,-0.061 0.092,-0.089l-0.127,0.099c0.07,-0.051 0.147,-0.09 0.223,-0.129c0.138,-0.066 0.256,-0.24 0.295,-0.384c0.041,-0.153 0.022,-0.357 -0.065,-0.492c-0.086,-0.135 -0.22,-0.256 -0.383,-0.294c-0.176,-0.038 -0.333,-0.013 -0.493,0.063l0,0.007Z" style="fill:#885a3a;fill-rule:nonzero;"/><path d="M76.967,80.165l1.535,-0.099c0.17,-0.01 0.33,-0.064 0.451,-0.189c0.112,-0.112 0.195,-0.294 0.188,-0.451c-0.006,-0.156 -0.06,-0.336 -0.188,-0.451c-0.128,-0.115 -0.285,-0.198 -0.451,-0.188l-1.535,0.099c-0.169,0.009 -0.329,0.063 -0.451,0.189c-0.111,0.111 -0.195,0.294 -0.188,0.45c0.006,0.157 0.061,0.336 0.188,0.452c0.129,0.115 0.285,0.198 0.451,0.188Z" style="fill:#885a3a;fill-rule:nonzero;"/><path d="M59.06,51.541c-0.217,0.253 -0.32,0.279 -0.723,0.493c-0.402,0.214 -0.812,0.445 -1.157,0.765c-0.764,0.71 -1.18,1.747 -1.145,2.783c0.029,0.864 0.717,1.6 1.599,1.6c0.882,0 1.627,-0.733 1.599,-1.6c-0.013,-0.4 -0.099,0.144 0.006,-0.24c0.061,-0.224 -0.009,-0.054 0.074,-0.156c0.057,-0.093 0.057,-0.096 0.006,-0.01l0.122,-0.115c-0.218,0.115 0.22,-0.112 0.217,-0.112c0.598,-0.333 1.205,-0.614 1.663,-1.146c0.565,-0.652 0.642,-1.622 -0,-2.262c-0.579,-0.579 -1.692,-0.656 -2.261,0Z" style="fill:#ffe58e;fill-rule:nonzero;"/><path d="M55.61,55.458l-0.051,1.328c-0.032,0.838 0.758,1.637 1.599,1.599c0.895,-0.041 1.563,-0.703 1.598,-1.599l0.052,-1.328c0.031,-0.839 -0.758,-1.639 -1.599,-1.6c-0.895,0.041 -1.564,0.704 -1.599,1.6Z" style="fill:#ffe58e;fill-rule:nonzero;"/><path d="M56.227,58.19l0.553,0.928c0.112,0.189 0.33,0.326 0.554,0.317c0.131,-0.006 0.23,-0.026 0.345,-0.093c0.105,-0.06 0.185,-0.141 0.249,-0.243c0.103,-0.17 0.122,-0.355 0.077,-0.547c-0.035,-0.154 -0.16,-0.304 -0.294,-0.384c-0.074,-0.048 -0.154,-0.074 -0.237,-0.077c-0.086,-0.019 -0.169,-0.016 -0.256,0.013c-0.153,0.051 -0.303,0.147 -0.383,0.294c-0.083,0.157 -0.106,0.32 -0.064,0.493l-0,0.013l-0.019,-0.17l-0,0.013l0.022,-0.17l0,0.013l0.061,-0.154c-0,0 -0.007,0.013 -0.013,0.02l0.099,-0.128l-0.009,0.006l0.127,-0.099l-0.009,0.006l0.153,-0.063l-0.009,-0l0.169,-0.02l-0.013,0l0.554,0.317l-0.554,-0.928c-0.083,-0.137 -0.227,-0.249 -0.383,-0.294c-0.087,-0.026 -0.17,-0.032 -0.256,-0.013c-0.086,0.003 -0.163,0.029 -0.237,0.077c-0.137,0.09 -0.255,0.221 -0.294,0.384c-0.038,0.163 -0.025,0.342 0.064,0.492l0.003,-0.003Z" style="fill:#ffe58e;fill-rule:nonzero;"/><path d="M56.071,57.956c0.019,0.25 0.06,0.497 0.153,0.727c0.055,0.134 0.112,0.269 0.189,0.394c0.077,0.124 0.169,0.246 0.265,0.355c0.096,0.108 0.211,0.198 0.329,0.269c0.164,0.099 0.349,0.15 0.541,0.16c0.048,-0 0.096,-0.007 0.14,-0.013c0.045,-0.007 0.096,-0.01 0.141,-0.023c0.128,-0.038 0.211,-0.086 0.31,-0.163c0.147,-0.112 0.25,-0.253 0.32,-0.419c0.07,-0.166 0.106,-0.342 0.09,-0.525c-0.016,-0.182 -0.058,-0.349 -0.116,-0.525c-0.054,-0.159 -0.147,-0.294 -0.294,-0.384c-0.137,-0.079 -0.339,-0.114 -0.492,-0.064c-0.154,0.051 -0.304,0.148 -0.384,0.295c-0.08,0.147 -0.121,0.329 -0.064,0.492c0.039,0.113 0.077,0.225 0.093,0.343l-0.022,-0.169c0.006,0.05 0.006,0.102 -0,0.153l0.022,-0.17c-0.006,0.048 -0.019,0.093 -0.035,0.138l0.064,-0.154c-0.016,0.039 -0.035,0.074 -0.061,0.106l0.099,-0.128c-0.019,0.022 -0.038,0.042 -0.061,0.061l0.128,-0.099c-0.022,0.015 -0.048,0.032 -0.073,0.041l0.153,-0.064c-0.025,0.01 -0.048,0.017 -0.073,0.02l0.169,-0.023l-0.093,0l0.17,0.023c-0.038,-0.007 -0.074,-0.017 -0.109,-0.033l0.154,0.064c-0.048,-0.022 -0.093,-0.048 -0.138,-0.08l0.128,0.099c-0.07,-0.053 -0.131,-0.118 -0.185,-0.188l0.099,0.128c-0.093,-0.122 -0.173,-0.253 -0.234,-0.397l0.064,0.154c-0.06,-0.141 -0.099,-0.291 -0.121,-0.442l0.022,0.169c-0.006,-0.041 -0.009,-0.083 -0.013,-0.124c-0.012,-0.173 -0.064,-0.33 -0.188,-0.451c-0.112,-0.112 -0.294,-0.195 -0.451,-0.189c-0.157,0.006 -0.336,0.061 -0.451,0.189c-0.115,0.128 -0.198,0.285 -0.189,0.451l0.004,-0.004Z" style="fill:#ffe58e;fill-rule:nonzero;"/><path d="M57.516,59.989c1.439,-0 1.442,-2.24 -0,-2.24c-1.442,-0 -1.442,2.24 -0,2.24Z" style="fill:#ffe58e;fill-rule:nonzero;"/><path d="M57.455,59.956c1.439,0 1.442,-2.24 0,-2.24c-1.442,0 -1.442,2.24 0,2.24Z" style="fill:#ffe58e;fill-rule:nonzero;"/><path d="M59.038,57.608c1.099,-0.749 2.427,-1.453 3.056,-2.685c0.63,-1.232 -1.276,-2.415 -1.931,-1.129c-0.441,0.861 -1.483,1.357 -2.254,1.878c-0.499,0.339 -0.722,0.985 -0.403,1.533c0.288,0.495 1.03,0.742 1.532,0.402Z" style="fill:#ffe58e;fill-rule:nonzero;"/><path d="M61.819,53.384c2.085,-0.486 3.927,0.448 4.882,2.333c0.442,0.867 1.813,0.633 2.046,-0.269l0.109,-0.419l-2.158,-0c0.441,1.206 0.413,2.348 -0.211,3.488c-0.69,1.266 1.241,2.396 1.931,1.129c0.892,-1.638 1.081,-3.449 0.435,-5.212c-0.362,-0.983 -1.864,-1.143 -2.158,-0l-0.109,0.419l2.046,-0.269c-1.416,-2.79 -4.392,-4.063 -7.41,-3.36c-1.404,0.327 -0.81,2.487 0.594,2.16l0.003,0Z" style="fill:#ffe58e;fill-rule:nonzero;"/><path d="M61.177,55.112c1.307,2.243 3.696,3.245 6.225,2.771c0.888,-0.166 0.997,-1.293 0.492,-1.872c-1.563,-1.801 -3.555,-3.084 -5.813,-3.833c-1.371,-0.454 -1.957,1.709 -0.595,2.16c1.903,0.63 3.514,1.747 4.825,3.257l0.493,-1.872c-1.538,0.288 -2.919,-0.413 -3.696,-1.744c-0.726,-1.244 -2.66,-0.118 -1.931,1.13l-0,0.003Z" style="fill:#ffe58e;fill-rule:nonzero;"/><path d="M60.61,56.523c-0.339,1.011 -0.821,1.94 -1.425,2.815c-0.704,1.021 0.959,1.981 1.656,0.97c0.697,-1.011 1.227,-2.112 1.617,-3.273c0.39,-1.161 -1.458,-1.677 -1.851,-0.512l0.003,0Z" style="fill:#fbcfa7;fill-rule:nonzero;"/><path d="M59.421,57.809l0.186,-0.217l0.565,-0.154c-0.597,0.025 -1.099,-0.022 -1.521,0.48c-0.368,0.439 -0.387,0.95 -0.374,1.501c0.025,1.123 0.166,2.195 0.69,3.199c0.669,1.278 2.6,0.148 1.931,-1.129c-0.336,-0.64 -0.37,-1.36 -0.387,-2.07c-0.006,-0.333 0.122,-0.518 -0.255,-0.045c-0.377,0.474 -0.163,0.361 0.211,0.262c0.374,-0.099 0.681,-0.358 0.885,-0.697c0.739,-1.241 -1.195,-2.371 -1.931,-1.13Z" style="fill:#fbcfa7;fill-rule:nonzero;"/><path d="M58.382,62.269c1.439,0 1.442,-2.239 0,-2.239c-1.442,0 -1.442,2.239 0,2.239Z" style="fill:#fbcfa7;fill-rule:nonzero;"/><path d="M58.942,62.378c-0.061,1.409 0.908,2.656 2.286,2.976c1.506,0.352 3.018,-0.508 3.897,-1.686c0.774,-1.04 1.611,-2.752 1.295,-4.089c-0.374,-1.593 -2.478,-1.958 -3.776,-2.461c-1.084,-0.419 -1.829,1.13 -1.09,1.872l1.861,1.869l0.789,-1.911c-1.144,-0.028 -2.618,-0.307 -3.673,0.238c-0.921,0.473 -1.442,1.538 -1.241,2.553c0.189,0.953 0.975,1.76 1.966,1.83c0.506,0.039 0.989,-0.099 1.366,-0.445c0.178,-0.163 0.304,-0.332 0.415,-0.547l0.112,-0.268c0.278,-0.57 -0.083,-0.916 -1.087,-1.038c-1.035,1.008 0.55,2.589 1.583,1.584c1.033,-1.005 0.4,-2.847 -1.151,-2.697c-0.467,0.044 -1.439,0.573 -1.368,1.171c-0.174,0.346 0.054,0.281 0.681,-0.192c0.258,0 0.514,0.003 0.773,0.013c0.541,0.01 1.084,0.025 1.624,0.038c0.978,0.026 1.464,-1.234 0.79,-1.91l-1.861,-1.868l-1.09,1.872c0.569,0.22 1.435,0.387 1.931,0.751c0.368,0.269 0.195,0.023 0.205,0.458c0.006,0.272 -0.208,0.63 -0.311,0.87c-0.246,0.57 -0.575,1.209 -1.119,1.549c-0.6,0.374 -1.617,0.413 -1.575,-0.525c0.063,-1.44 -2.175,-1.437 -2.239,0l0.007,-0.007Z" style="fill:#fbcfa7;fill-rule:nonzero;"/><path d="M65.857,60.568c1.439,-0 1.442,-2.24 0,-2.24c-1.442,-0 -1.442,2.24 0,2.24Z" style="fill:#fbcfa7;fill-rule:nonzero;"/><path d="M66.212,62.267l0.115,0.012l-0.965,-1.686l-0.109,0.192c-0.083,0.128 -0.125,0.269 -0.134,0.416c-0.033,0.151 -0.026,0.298 0.019,0.448c0.035,0.147 0.102,0.272 0.201,0.38c0.08,0.123 0.182,0.218 0.314,0.288l0.268,0.113c0.198,0.054 0.397,0.054 0.595,-0l0.268,-0.113c0.17,-0.098 0.301,-0.233 0.403,-0.402l0.109,-0.192c0.198,-0.349 0.205,-0.781 -0,-1.13c-0.099,-0.169 -0.233,-0.3 -0.403,-0.403c-0.175,-0.102 -0.361,-0.153 -0.566,-0.153l-0.115,-0.014c-0.154,-0.006 -0.297,0.026 -0.431,0.096c-0.138,0.045 -0.26,0.123 -0.362,0.231c-0.108,0.102 -0.185,0.221 -0.23,0.362c-0.07,0.134 -0.103,0.278 -0.096,0.432l0.041,0.297c0.055,0.189 0.151,0.355 0.288,0.493l0.228,0.176c0.175,0.103 0.36,0.153 0.565,0.153l-0.003,0.004Z" style="fill:#fbcfa7;fill-rule:nonzero;"/><path d="M62.062,64.964c-0.029,0.173 -0.057,0.342 -0.083,0.515c-0.013,0.077 -0.035,0.16 -0.042,0.24c-0.013,0.224 0.023,-0.022 0.116,-0.109c0.15,-0.137 0.364,-0.195 0.562,-0.153c0.026,0.006 0.294,0.182 0.285,0.188c0.035,-0.015 -0.457,-0.508 -0.518,-0.55c-0.458,-0.329 -1.074,-0.4 -1.564,-0.096c-0.489,0.304 -0.786,0.951 -0.585,1.52c0.202,0.569 0.764,0.95 1.379,0.781c0.552,-0.151 0.984,-0.803 0.78,-1.379l-0.026,-0.077l0,0.595l-0.052,0.115l-0.402,0.403l-0.307,0.09l-0.566,-0.154c-0.029,-0.038 -0.054,-0.076 -0.077,-0.118c0.077,0.106 0.157,0.211 0.24,0.317c0.131,0.15 0.278,0.284 0.458,0.38c0.405,0.222 0.882,0.253 1.32,0.116c0.939,-0.295 1.096,-1.184 1.234,-2.029c0.092,-0.576 -0.151,-1.235 -0.78,-1.379c-0.541,-0.122 -1.276,0.163 -1.378,0.781l0.006,0.003Z" style="fill:#fbcfa7;fill-rule:nonzero;"/><path d="M60.48,67.201c1.128,0.147 2.266,0.179 3.405,0.092c0.259,-0.019 0.479,-0.208 0.479,-0.48c0,-0.243 -0.22,-0.499 -0.479,-0.48c-1.136,0.087 -2.273,0.055 -3.405,-0.092c-0.256,-0.035 -0.48,0.246 -0.48,0.48c-0,0.288 0.22,0.445 0.48,0.48Z" style="fill:#fbcfa7;fill-rule:nonzero;"/><path d="M56.771,77.958l0.754,1.808c0.234,0.56 0.819,0.918 1.41,0.572c0.966,-0.56 1.528,-1.286 1.89,-2.336l-1.883,-0.256l-0.173,0.397l1.41,1.085c0.297,-1.13 0.317,-2.124 0.112,-3.273c-0.141,-0.787 -1.1,-0.822 -1.602,-0.423l-0.949,0.756c-0.88,0.7 0.243,2.002 1.163,1.506c0.8,-0.429 1.139,-1.052 1.362,-1.91c0.345,-1.321 0.633,-2.447 1.535,-3.538l-1.602,-0.935c-0.348,0.874 -0.185,1.718 -0.486,2.579c-0.422,1.206 -0.63,2.346 -0.575,3.628c0.054,1.283 1.969,1.239 1.918,0c-0.048,-1.151 0.125,-2.182 0.578,-3.241c0.362,-0.841 0.084,-1.625 0.417,-2.457c0.351,-0.88 -1.008,-1.654 -1.602,-0.934c-0.595,0.719 -1.055,1.398 -1.414,2.22c-0.281,0.649 -0.473,2.595 -1.093,2.928l1.164,1.507l0.95,-0.755l-1.602,-0.423c0.14,0.8 0.089,1.478 -0.112,2.253c-0.218,0.829 0.674,1.478 1.41,1.085c0.808,-0.435 1.221,-1.13 1.122,-2.055c-0.112,-1.062 -1.516,-1.321 -1.883,-0.255c-0.154,0.559 -0.489,0.956 -1.007,1.187l1.41,0.572l-0.755,-1.807c-0.47,-1.124 -2.324,-0.631 -1.851,0.511l-0.016,0.004Z" style="fill:#fbcfa7;fill-rule:nonzero;"/><path d="M63.817,70.327c-1.825,0.304 -1.988,2.396 -0.534,3.295l0,-1.657l-0.243,0.137l1.41,1.085c0.666,-2.07 -3.149,-1.904 -2.18,0.352c0.236,0.55 0.8,0.742 1.16,1.177c0.678,0.81 0.375,1.738 0.225,2.672c-0.202,1.27 0.092,2.521 1.304,3.139c0.37,0.189 0.863,0.173 1.164,-0.15c0.952,-1.024 1.183,-2.102 0.943,-3.469c-0.31,-1.782 -0.78,-3.551 -1.173,-5.318c-0.269,-1.206 -2.117,-0.694 -1.852,0.512c0.358,1.613 1.921,5.629 0.723,6.918l1.164,-0.15c-0.845,-0.429 -0.007,-3.059 -0.272,-3.974c-0.125,-0.435 -0.342,-0.836 -0.611,-1.197c-0.418,-0.566 -0.553,-0.925 -1.068,-0.432l-0.934,0.246l-0.447,-0.831c-0.262,0.822 0.707,1.478 1.41,1.084l0.243,-0.138c0.642,-0.361 0.598,-1.286 0,-1.656l0.074,0.21c1.215,-0.201 0.7,-2.054 -0.512,-1.852l0.006,-0.003Z" style="fill:#fbcfa7;fill-rule:nonzero;"/><path d="M61.225,72.455l0.083,-0.01l-0.512,-0l0.077,0.025l-0.422,-0.246c-0.039,-0.54 -0.087,-0.676 -0.144,-0.4c-0.026,0.077 -0.045,0.153 -0.064,0.234c-0.041,0.188 -0.067,0.387 -0.074,0.579c-0.012,0.364 0.055,0.742 0.192,1.081c0.192,0.48 0.639,0.819 1.18,0.672c0.457,-0.125 0.863,-0.697 0.671,-1.18c-0.083,-0.205 -0.153,-0.413 -0.118,-0.637c0.039,-0.262 0.147,-0.484 0.144,-0.758c-0,-0.349 -0.147,-0.676 -0.396,-0.919c-0.336,-0.323 -0.691,-0.349 -1.129,-0.288c-0.515,0.071 -0.793,0.73 -0.671,1.181c0.153,0.553 0.664,0.742 1.18,0.672l0.003,-0.006Z" style="fill:#fbcfa7;fill-rule:nonzero;"/><path d="M32.536,56.226l-0.511,4.815l3.139,-0.425c-0.262,-1.076 -0.802,-2.099 -1.937,-2.448c-1.036,-0.317 -2.123,0.137 -2.622,1.069c-0.598,1.113 -0.077,2.012 0.508,2.959c0.269,0.435 1.449,3.139 0.854,3.439c-1.838,0.929 -0.221,3.69 1.615,2.762c1.521,-0.771 1.784,-2.3 1.566,-3.865c-0.115,-0.826 -0.236,-1.651 -0.518,-2.438c-0.057,-0.16 -1.016,-1.834 -1.023,-1.818l-0.735,0.957c-0.799,-0.432 -1.065,-0.356 -0.793,0.23c0.46,1.872 2.961,1.268 3.14,-0.425l0.511,-4.816c0.218,-2.044 -2.98,-2.028 -3.197,0l0.003,0.004Z" style="fill:#f9ac6b;fill-rule:nonzero;"/><path d="M33.687,68.634l1.628,0.617c1.694,0.644 2.829,-2.095 1.23,-2.924c-0.316,-0.07 -0.402,-0.243 -0.259,-0.515l-3.139,-0.425l0.083,0.767l3.14,-0.425c-0.269,-0.989 -0.295,-1.873 -0.058,-2.867l-3.14,-0.426c0.055,2.598 2.795,3.997 4.63,1.814c0.85,-1.008 0.956,-2.287 0.985,-3.551c0.035,-1.571 0.012,-3.145 0.019,-4.717l-2.404,1.383l0.243,0.146l-0.793,-1.381c0.076,0.832 0.121,1.661 0.096,2.495c-0.013,0.4 -0.435,2.035 -0.288,2.304c1.029,1.888 1.362,-0.896 1.435,-1.245l0.473,-2.169c0.439,-2.006 -2.644,-2.864 -3.082,-0.851c-0.351,1.612 -1.285,3.833 -0.898,5.484c0.352,1.495 1.96,2.205 3.344,1.674c1.644,-0.631 1.979,-2.387 2.133,-3.949c0.153,-1.561 0.582,-4.287 -1.049,-5.273c-1.045,-0.633 -2.401,0.183 -2.404,1.382c-0,0.528 -0.31,5.984 -0.087,6.074l0.957,0.735l-0.109,-0.355c-0.039,-1.76 -2.711,-2.227 -3.14,-0.425c-0.368,1.545 -0.358,3.033 0.058,4.566c0.457,1.683 3.338,1.417 3.139,-0.426l-0.083,-0.768c-0.182,-1.715 -2.602,-2.265 -3.139,-0.426c-0.48,1.651 0.191,3.334 1.729,4.131l1.231,-2.925l-1.627,-0.617c-1.925,-0.73 -2.759,2.361 -0.851,3.085l-0.003,0.003Z" style="fill:#f9ac6b;fill-rule:nonzero;"/><path d="M31.862,62.238c2.055,0 2.062,-3.2 -0,-3.2c-2.063,-0 -2.063,3.2 -0,3.2Z" style="fill:#f9ac6b;fill-rule:nonzero;"/><path d="M85.702,63.022c0.704,-0.039 1.33,-0.47 1.611,-1.117c0.119,-0.404 -0.306,-0.547 -0.45,-0.096c-0.243,0.502 -0.726,0.842 -1.279,0.902c-0.096,0.023 -0.284,0.317 0.118,0.308l0,0.003Z" style="fill:#191919;fill-rule:nonzero;"/><path d="M86.412,59.601c-0.14,-0.521 -0.854,-0.048 -0.428,0.451c0.118,0.145 0.572,0.093 0.428,-0.451Z" style="fill:#191919;fill-rule:nonzero;"/><path d="M85.392,57.397c-0.332,0.093 -0.332,0.473 0.096,0.473c0.476,-0.035 0.956,0.039 1.4,0.214c0.074,0.026 0.154,-0.015 0.179,-0.089c0.02,-0.051 0,-0.108 -0.038,-0.148c-0.454,-0.383 -1.052,-0.546 -1.637,-0.453l-0,0.003Z" style="fill:#191919;fill-rule:nonzero;"/><path d="M84.113,58.58c-0.316,-0.179 -0.691,-0.23 -1.042,-0.144c-0.214,0.071 -0.189,0.308 0.022,0.333c0.278,0.01 0.554,0.074 0.806,0.189c0.285,0.122 0.355,-0.259 0.214,-0.381l0,0.003Z" style="fill:#191919;fill-rule:nonzero;"/><path d="M84.49,60.219c-0.066,0.528 -0.076,1.062 -0.022,1.59c0.096,0.617 1.493,0.166 1.282,-0.167c-0.118,-0.188 -0.591,0.215 -0.901,0.071c-0.083,-0.493 -0.116,-0.995 -0.096,-1.494c-0,-0.074 -0.058,-0.131 -0.131,-0.131c-0.074,-0 -0.132,0.057 -0.132,0.131Z" style="fill:#191919;fill-rule:nonzero;"/><path d="M84.017,60.385c0.355,-0.214 0.026,-0.95 -0.284,-0.714c-0.237,0.145 -0.144,0.973 0.284,0.714Z" style="fill:#191919;fill-rule:nonzero;"/><path d="M81.622,62.308c0.333,1.091 1.139,2.515 2.063,3.181c0.428,0.307 0.639,-0.001 0.214,-0.403c-0.911,-0.768 -1.599,-1.77 -1.992,-2.896c-0.032,-0.08 -0.125,-0.118 -0.201,-0.083c-0.08,0.031 -0.119,0.124 -0.084,0.201Z" style="fill:#191919;fill-rule:nonzero;"/><path d="M89.328,63.447c0.115,-0.099 0.022,-0.284 -0.119,-0.215c-1.326,0.57 -2.253,2.635 -1.611,4.106c0.096,0.189 0.355,0.118 0.307,-0.096c-0.355,-1.824 0.112,-2.691 1.423,-3.795Z" style="fill:#191919;fill-rule:nonzero;"/><path d="M81.409,63.899c0.377,1.2 1.224,2.191 2.346,2.751c0.307,0.144 0.617,-0.096 0.144,-0.403c-0.975,-0.56 -1.749,-1.414 -2.206,-2.445c-0.119,-0.188 -0.336,-0.118 -0.284,0.096Z" style="fill:#191919;fill-rule:nonzero;"/><path d="M82.429,62.26c0.533,1.104 1.428,1.993 2.538,2.515c1.541,0.688 1.851,-0.381 3.178,-1.257c0.144,-0.096 0.07,-0.285 -0.096,-0.238c-1.186,0.286 -1.304,1.854 -2.964,1.044c-0.969,-0.537 -1.784,-1.315 -2.372,-2.255c-0.064,-0.071 -0.173,-0.081 -0.243,-0.017c-0.058,0.051 -0.077,0.138 -0.041,0.205l-0,0.004Z" style="fill:#191919;fill-rule:nonzero;"/><path d="M84.49,68.506c0.119,0.189 0.429,0.022 0.333,-0.167c-0.451,-1.209 -2.254,-1.471 -2.893,-2.54c-0.119,-0.189 -0.333,0 -0.26,0.189c0.663,1.257 2.015,1.232 2.82,2.515l0,0.003Z" style="fill:#191919;fill-rule:nonzero;"/><path d="M82.262,58.559c0.086,1.163 0.317,2.309 0.687,3.416c0.048,0.167 0.356,0.096 0.308,-0.095c-0.499,-1.604 -0.701,-3.287 -0.592,-4.963c0.668,0.243 1.407,-0.103 1.65,-0.771c0.013,-0.036 0.025,-0.071 0.035,-0.109c0.639,0.95 2.538,0.854 3.13,-0c-0.167,1.305 1.352,3.606 1.659,3.18c0.144,-0.214 0.285,-0.451 0.547,-0.521c0.972,-0.308 1.138,1.542 0.546,1.804c-0.258,0.119 -0.783,-0.214 -0.473,0.618c0.41,1.088 0.758,2.195 1.043,3.321c0.048,0.215 0.306,0.119 0.306,-0.096c-0.207,-1.152 -0.527,-2.278 -0.949,-3.369c0.454,-0.058 0.809,-0.423 0.854,-0.877c0.917,-0.333 1.391,-1.346 1.058,-2.265c-0.087,-0.233 -0.221,-0.448 -0.393,-0.627c1.282,-1.283 1.042,-3.395 -0.924,-3.37c0.336,-1.062 -0.256,-2.198 -1.32,-2.53c-0.544,-0.17 -1.132,-0.106 -1.622,0.182c-0.712,-1.923 -3.628,-1.354 -3.699,0.355c-1.851,-1.52 -4.246,0.854 -2.823,2.681c-1.612,0.026 -1.755,3.872 0.972,4.038l0,-0.002Z" style="fill:#341c14;fill-rule:nonzero;"/><path d="M85.51,69.83c0.384,0.432 1.046,0.468 1.478,0.084c0.226,-0.201 0.351,-0.493 0.348,-0.797c0.394,-0.154 0.774,-0.336 1.138,-0.547c-0.054,-0.323 -0.176,-0.631 -0.354,-0.902c-0.369,0.095 -0.726,0.23 -1.068,0.403c-0.359,-0.442 -1.005,-0.513 -1.446,-0.154c-0.258,0.211 -0.402,0.535 -0.38,0.867c-0.237,0.144 -0.499,0.307 -0.592,0.381c-0.012,0.326 0.081,0.652 0.259,0.925c0.192,-0.071 0.429,-0.164 0.62,-0.263l-0.003,0.003Zm0.215,-1.042c0.073,-0.833 1.163,-0.737 1.067,0.306c-0.07,0.855 -1.157,0.688 -1.067,-0.306Z" style="fill:#191919;fill-rule:nonzero;"/><path d="M80.318,77.852c-0.07,-1.187 -0.118,-3.987 0.189,-5.033c0.047,-0.189 0.284,-0.237 0.259,0.166c-0.08,1.613 -0.064,3.232 0.048,4.842c1.79,-0.058 3.584,0.028 5.358,0.262c-0.758,-1.993 -1.826,-8.188 -1.943,-8.994c-0.119,-0.807 -1.731,-1.353 -2.587,-2.182c-1.992,0.713 -4.767,2.944 -6.926,5.98c0.794,1.731 1.446,3.526 1.944,5.362c1.212,-0.201 2.43,-0.335 3.658,-0.403Z" style="fill:#191919;fill-rule:nonzero;"/><path d="M91.486,64.871c-0.972,1.021 -1.803,1.52 -3.274,1.542c0.307,2.115 2.158,5.196 3.769,7.452c0.253,-0.537 0.435,-1.104 0.544,-1.686c0.048,-0.333 0.259,-0.214 0.259,-0.022c-0.038,0.748 -0.198,1.488 -0.473,2.182c1.944,2.659 4.482,5.222 5.432,8.451c1.068,-1.354 5.24,-8.761 2.347,-13.67c-1.707,-2.965 -5.429,-4.486 -8.607,-4.249l0.003,0Z" style="fill:#191919;fill-rule:nonzero;"/><path d="M94.974,86.325c1.685,0.022 2.465,0.022 3.888,0.022c0.735,-1.827 1.493,-5.411 1.755,-8.376c-1.519,4.915 -3.818,7.24 -5.643,8.354Z" style="fill:#191919;fill-rule:nonzero;"/><path d="M88.5,84.857c-2.676,0.252 -5.327,0.738 -7.919,1.445c1.54,-0.022 7.091,-0.07 9.035,-0.022c-0.503,-0.355 -0.893,-0.851 -1.116,-1.423Z" style="fill:#191919;fill-rule:nonzero;"/><path d="M88.123,84.261c0.284,-0.041 0.236,-0.473 -0.048,-0.429c-6.861,0.964 -8,1.786 -10.932,2.041c-0.402,0.023 -0.732,0.452 -0.189,0.452c1.756,0 4.65,-0.902 6.546,-1.258c1.659,-0.332 2.963,-0.55 4.623,-0.806Z" style="fill:#191919;fill-rule:nonzero;"/><path d="M77.518,78.565c-1.046,0.209 -0.784,0.548 -0.403,0.452c2.704,-0.57 6.355,-0.452 9.061,0c0.261,0.048 0.38,-0.355 0.117,-0.403c-2.679,-0.451 -6.096,-0.582 -8.775,-0.049Z" style="fill:#191919;fill-rule:nonzero;"/><path d="M94.213,77.948c0.118,0.096 0.355,-0.048 0.259,-0.214c-2.241,-2.669 -4.233,-5.536 -5.953,-8.569c-0.096,-0.166 -0.381,-0 -0.307,0.166c0.905,1.805 4.447,7.35 6.001,8.617Z" style="fill:#191919;fill-rule:nonzero;"/><path d="M97.155,82.982c0.096,-0.238 -0.215,-0.43 -0.333,-0.215c-0.713,1.257 -1.567,2.515 -2.942,3.132c-1.4,0.641 -2.941,0.451 -3.96,-0.758c-2.207,-2.611 -3.818,-10.917 -4.413,-14.69c-0.048,-0.237 -0.381,-0.144 -0.333,0.096c0.499,3.606 2.114,12.104 4.461,14.882c1.797,2.144 5.589,1.612 7.516,-2.442l0.004,-0.006Z" style="fill:#191919;fill-rule:nonzero;"/><path d="M61.797,73.51c0.166,-0.093 0.048,-0.285 -0.144,-0.259c-0.854,0.166 -1.423,0.403 -1.685,1.258c-0.262,0.777 -0.329,1.609 -0.189,2.421c0.048,0.215 0.355,0.167 0.381,-0.047c0.022,-0.925 -0.118,-1.117 0.189,-2.138c0.261,-0.95 0.69,-0.806 1.448,-1.235Z" style="fill:#191919;fill-rule:nonzero;"/><path d="M62.104,69.878c-0.026,0.516 -0.01,1.031 0.048,1.543c0.022,0.188 0.354,0.166 0.38,-0c0.01,-0.515 -0.013,-1.031 -0.07,-1.543c-0.026,-0.165 -0.352,-0.165 -0.355,0l-0.003,0Z" style="fill:#191919;fill-rule:nonzero;"/><path d="M63.907,69.69c0.633,-0.346 1.637,-1.021 2.062,-1.852c0.119,-0.237 0.096,-0.308 -0.07,-0.522c-0.211,-0.237 -0.457,-0.438 -0.732,-0.592c-0.285,-0.144 -0.307,-0.048 -0.522,0.096c-1.4,0.973 -3.536,0.784 -5.003,0.022c-0.118,-0.07 -0.451,0.119 -0.144,0.285c1.826,0.924 3.795,1.091 5.477,-0.096c0.272,0.173 0.518,0.381 0.735,0.618c-0.563,0.799 -1.32,1.436 -2.206,1.852c-0.332,-0.403 -0.665,-0.784 -0.998,-1.187c-0.501,-0.557 -0.706,0.445 -1.518,1.258c-0.822,-0.407 -1.608,-0.884 -2.347,-1.425c0.237,-0.236 0.451,-0.473 0.688,-0.713c0.144,-0.118 -0.048,-0.355 -0.215,-0.26c-0.249,0.184 -0.479,0.388 -0.687,0.619c-0.176,0.204 -0.157,0.511 0.048,0.69c0.38,0.356 2.299,1.591 2.609,1.447c0.521,-0.259 0.806,-0.95 1.161,-1.376c0.332,0.333 0.783,0.998 1.041,1.258c0.167,0.185 0.448,-0.033 0.618,-0.122l0.003,0Z" style="fill:#191919;fill-rule:nonzero;"/><path d="M66.42,60.149c0.086,-0.365 0.118,-0.743 0.096,-1.117c-0.048,-0.404 -0.425,-0.429 -0.403,0.022c0.048,0.592 -0.166,1.284 -0.096,1.424c0.167,0.403 0.758,-0.259 1.043,0.166c0.402,0.666 -0.474,1.923 -1.02,1.59c-0.141,-0.096 -0.259,-0.021 -0.355,0.285c-0.144,0.417 -0.336,0.813 -0.569,1.187c-1.283,1.875 -3.866,2.349 -5.289,0.733c-0.502,-0.649 -0.828,-1.417 -0.949,-2.23c-0.013,-0.17 -0.16,-0.297 -0.329,-0.285c-0.052,0.003 -0.103,0.019 -0.148,0.048c-0.498,0.381 -0.949,-0.188 -0.997,-0.902c-0.07,-0.973 0.521,-1.043 0.949,-0.714c0.071,0.058 0.173,0.045 0.231,-0.022c0.032,-0.038 0.044,-0.093 0.032,-0.141c-0.023,-0.214 -0.144,-1.424 -0.144,-1.686c-0.023,-0.237 -0.307,-0.144 -0.307,0.07c0.022,0.429 0.048,0.877 0.096,1.283c-0.445,-0.214 -0.979,-0.028 -1.193,0.413c-0.048,0.1 -0.077,0.208 -0.086,0.32c-0.189,1.283 0.713,2.278 1.541,1.805c0.237,1.043 0.639,2.112 1.519,2.752c-0.048,0.428 -0.071,0.854 -0.119,1.283c-0.022,0.38 0.237,0.428 0.333,0.236c0.063,-0.431 0.102,-0.867 0.118,-1.305c1.183,0.617 2.609,0.544 3.722,-0.189c0.022,0.429 -0,0.877 0.048,1.306c-0,0.105 0.089,0.192 0.195,0.188c0.105,-0 0.192,-0.089 0.188,-0.195c-0,-0.013 -0,-0.029 -0.006,-0.041c-0.071,-0.714 -0.023,-1.162 -0.048,-1.521c0.719,-0.569 1.24,-1.35 1.493,-2.229c0.291,0.07 0.598,-0 0.831,-0.189c1.113,-0.756 1.02,-2.775 -0.38,-2.346l0.003,0Z" style="fill:#191919;fill-rule:nonzero;"/><path d="M60.514,58.059c-0.485,-0.01 -0.952,0.189 -1.281,0.547c-0.144,0.144 -0.048,0.451 0.236,0.307c0.307,-0.22 0.668,-0.352 1.042,-0.381c0.429,-0.048 0.359,-0.448 0,-0.473l0.003,-0Z" style="fill:#191919;fill-rule:nonzero;"/><path d="M66.28,72.941c-0.135,-1.174 -0.886,-2.186 -1.97,-2.659c-0.259,-0.096 -0.285,0.166 -0.096,0.259c1.208,0.64 1.685,1.875 1.733,3.18c0.048,1.069 -0.451,2.73 0.805,3.322c0.215,0.096 0.381,-0.26 0.167,-0.356c-1.068,-0.495 -0.39,-2.13 -0.639,-3.747Z" style="fill:#191919;fill-rule:nonzero;"/><path d="M60.825,70.685c0.115,-0.144 -0.023,-0.333 -0.189,-0.214c-0.921,0.789 -1.595,1.827 -1.944,2.992c-0.166,0.617 -0.118,1.257 -0.262,1.852c-0.166,0.688 -0.758,0.95 -1.304,1.327c-0.189,0.119 -0.023,0.452 0.188,0.356c0.531,-0.218 0.985,-0.589 1.305,-1.069c0.499,-0.854 -0,-1.923 1.02,-3.702c0.355,-0.543 0.751,-1.056 1.186,-1.539l-0,-0.003Z" style="fill:#191919;fill-rule:nonzero;"/><path d="M59.402,75.836c0.08,-0.733 0.023,-1.494 0.429,-2.16c0.367,-0.556 0.953,-0.927 1.611,-1.021c0.284,-0.047 0.259,-0.332 0,-0.332c-0.764,0.026 -1.468,0.413 -1.896,1.043c-0.409,0.746 -0.566,1.603 -0.451,2.445c0,0.166 0.288,0.214 0.307,0.022l0,0.003Z" style="fill:#191919;fill-rule:nonzero;"/><path d="M62.296,75.626c-0.087,0.617 0.048,9.8 0.07,10.299c0,0.262 0.428,0.236 0.428,-0.022c0,-2.633 -0.118,-7.383 -0.166,-10.252c-0.026,-0.144 -0.307,-0.215 -0.332,-0.023l-0,-0.003Z" style="fill:#191919;fill-rule:nonzero;"/><path d="M64.831,79.99c-0.553,-0.209 -0.963,-0.682 -1.09,-1.258c-0.263,-1.257 1.042,-2.467 0.38,-3.773c-0.24,-0.502 -0.78,-0.783 -1.327,-0.69c-0.073,-0 -0.131,0.058 -0.131,0.131c0,0.073 0.058,0.131 0.131,0.131c0.627,0.022 1.119,0.554 1.094,1.181c-0,0.019 -0,0.035 -0.003,0.054c-0,0.688 -0.381,1.328 -0.521,1.993c-0.301,1.082 0.274,2.218 1.326,2.611c0.262,0.122 0.403,-0.278 0.144,-0.377l-0.003,-0.003Z" style="fill:#191919;fill-rule:nonzero;"/><path d="M56.934,77.213c-0.026,-0.19 -0,-0.833 -0.333,-0.733c-0.291,0.054 -0.575,0.134 -0.853,0.236c-0.381,0.166 -0.569,0.593 -0.048,0.451c0.236,-0.07 0.499,-0.144 0.732,-0.214c0.121,1.539 0.735,2.995 1.755,4.153c-1.391,1.187 -2.89,2.237 -4.482,3.133c-0.451,0.262 -0.333,0.665 0.048,0.451c1.723,-0.899 3.325,-2.016 4.767,-3.322c0.07,-0.07 0.166,-0.165 0.07,-0.306c-0.85,-1.329 -1.451,-2.301 -1.656,-3.847l-0,-0.002Z" style="fill:#191919;fill-rule:nonzero;"/><path d="M77.115,82.505c-0.263,-2.493 -2.04,-7.356 -3.035,-9.516c-1.518,-3.251 -3.913,-4.438 -7.28,-5.174c-0.092,-0.019 -0.182,0.038 -0.201,0.131c-0.019,0.093 0.038,0.183 0.131,0.201c2.916,1.021 5.074,1.402 6.663,4.416c1.138,2.16 3.651,8.784 3.297,11.321c-0.285,1.971 -1.327,1.875 -2.706,1.971c-2.465,0.166 -6.688,-3.133 -8.443,-4.745c1.186,-0.832 1.944,-2.73 2.158,-4.058c1.886,0.518 3.712,1.251 5.432,2.183c0.236,0.118 0.428,-0.189 0.188,-0.308c-1.096,-0.614 -2.238,-1.148 -3.414,-1.59c-0.103,-0.566 -0.349,-1.097 -0.713,-1.542c-0.188,-0.166 -0.284,0.048 -0.215,0.167c0.231,0.377 0.407,0.783 0.522,1.209c-0.563,-0.215 -1.142,-0.381 -1.73,-0.499c-0.451,-0.071 -0.451,-0 -0.521,0.38c-0.783,3.773 -2.561,3.68 -2.062,4.224c1.755,1.971 5.975,4.937 8.728,4.985c2.584,0.07 3.482,-1.068 3.201,-3.75l-0,-0.006Z" style="fill:#191919;fill-rule:nonzero;"/><path d="M65.068,74.959c-0.061,-0.71 -0.534,-1.314 -1.209,-1.541c-0.406,-0.081 -0.819,-0.112 -1.234,-0.097c-0.189,0 -0.189,0.237 -0.023,0.285c0.688,0.189 1.257,-0.07 1.756,0.64c0.546,0.758 0.236,1.494 0.332,1.946c0.039,0.102 0.15,0.153 0.249,0.114c0.045,-0.015 0.084,-0.05 0.106,-0.092c0.08,-0.416 0.086,-0.841 0.023,-1.258l-0,0.003Z" style="fill:#191919;fill-rule:nonzero;"/><path d="M62.011,74.128c-0.553,0.176 -1.004,0.582 -1.234,1.116c-0.998,2.09 1.733,3.632 -2.206,5.078c-0.102,0.032 -0.163,0.141 -0.131,0.244c0.029,0.096 0.128,0.156 0.227,0.137c0.626,-0.147 1.212,-0.442 1.707,-0.854c2.206,-1.853 -0.949,-3.632 1.755,-5.459c0.144,-0.118 0.071,-0.307 -0.118,-0.262Z" style="fill:#191919;fill-rule:nonzero;"/><path d="M59.946,60.171c0.304,0.265 0.69,-0.57 0.284,-0.785c-0.355,-0.188 -0.502,0.596 -0.284,0.785Z" style="fill:#191919;fill-rule:nonzero;"/><path d="M64.735,73.274c0.611,0.575 0.569,1.423 0.591,2.207c0,0.189 0.285,0.166 0.333,0.001c0.118,-0.855 0.022,-1.876 -0.639,-2.516c-0.714,-0.665 -1.803,-0.758 -2.706,-0.617c-0.079,0.003 -0.14,0.07 -0.137,0.151c0.003,0.079 0.071,0.14 0.151,0.137c0.013,-0 0.022,-0 0.034,-0.007c0.807,0 1.724,0.032 2.373,0.641l0,0.003Z" style="fill:#191919;fill-rule:nonzero;"/><path d="M56.627,59.579c0.214,0.188 0.451,-0.145 0.262,-0.333c-1.375,-1.376 -1.375,-3.465 -0.428,-5.078c2.727,-4.7 10.838,-3.75 12.52,1.091c0.601,1.59 0.067,3.386 -1.305,4.39c-0.143,0.118 -0.022,0.381 0.167,0.285c1.896,-0.95 2.228,-3.44 1.445,-5.222c-2.324,-5.292 -11.36,-5.577 -13.566,0c-0.665,1.639 -0.454,3.657 0.902,4.864l0.003,0.003Z" style="fill:#191919;fill-rule:nonzero;"/><path d="M57.362,58.155c1.446,0.16 3.227,-0.854 3.936,-2.089c0.048,-0.077 0.026,-0.176 -0.051,-0.224c-0.067,-0.042 -0.157,-0.029 -0.208,0.032c-1.068,1.305 -2.04,1.73 -3.677,1.922c-0.092,0.036 -0.137,0.148 -0.102,0.241c0.019,0.047 0.058,0.086 0.102,0.115l0,0.003Z" style="fill:#191919;fill-rule:nonzero;"/><path d="M61.915,61.809c0.166,-0.119 0.166,-0.285 0,-0.355c-0.118,-0.049 -0.758,0.118 -0.806,-0.001c-0.096,-0.236 0.263,-1.257 0.333,-1.756c0.048,-0.355 -0.118,-0.355 -0.285,-0.071c-0.166,0.285 -0.69,1.735 -0.451,2.16c0.237,0.356 0.972,0.192 1.209,0.023Z" style="fill:#191919;fill-rule:nonzero;"/><path d="M52.311,71.753c1.445,-2.019 3.034,-2.848 5.406,-3.583c0.237,-0.071 0.167,-0.451 -0.07,-0.38c-2.727,0.806 -4.128,1.567 -5.787,3.867c-0.237,0.285 0.214,0.426 0.451,0.096Z" style="fill:#191919;fill-rule:nonzero;"/><path d="M67.037,58.369c0.083,-0.025 0.131,-0.112 0.106,-0.198c-0.02,-0.061 -0.068,-0.102 -0.131,-0.112c-1.471,-0.022 -3.249,-0.237 -4.365,-1.306c-1.042,-0.998 -1.566,-2.729 -1.637,-4.13c-0.022,-0.237 -0.38,-0.259 -0.355,-0.023c0.023,1.472 0.691,3.395 1.755,4.416c1.065,1.021 3.175,1.574 4.627,1.353Z" style="fill:#191919;fill-rule:nonzero;"/><path d="M61.276,63.163c0.767,0.409 1.729,0.166 1.992,-0.57c0.048,-0.167 -0.144,-0.307 -0.263,-0.167c-0.691,0.806 -1.282,0.474 -1.636,0.5c-0.189,-0.023 -0.234,0.162 -0.093,0.237Z" style="fill:#191919;fill-rule:nonzero;"/><path d="M64.332,59.153c-0.179,-0.518 -1.186,-1.091 -1.659,-0.925c-0.189,0.071 -0.263,0.452 -0,0.5c0.527,0.067 1.023,0.291 1.423,0.64c0.118,0.096 0.303,-0.023 0.236,-0.215Z" style="fill:#191919;fill-rule:nonzero;"/><path d="M62.817,60.337c0.451,-0.09 0.428,-0.924 0.07,-0.832c-0.333,0.071 -0.451,0.906 -0.07,0.832Z" style="fill:#191919;fill-rule:nonzero;"/><path d="M75.906,45.34c0.237,-0.07 0.473,-0.144 0.713,-0.214c-0.144,0.592 -0.307,1.187 -0.451,1.779c-0.237,0.854 0.096,0.925 0.285,0.617c0.591,-0.924 1.209,-1.875 1.851,-2.777c0.879,-1.257 1.09,-1.139 -0.521,-1.091c0.284,-0.547 0.569,-1.091 0.831,-1.638c0.262,-0.547 -1.493,0.07 -1.66,0.214c-0.073,0.048 -0.095,0.147 -0.048,0.221c0.042,0.064 0.122,0.09 0.192,0.064c0.189,-0.048 0.592,-0.237 1.043,-0.333l-0.783,1.568c-0.048,0.118 -0,0.262 0.143,0.262c0.308,0 0.64,-0.022 0.95,-0.022c-0.591,0.854 -1.186,1.731 -1.778,2.585l0.499,-1.708c0.038,-0.103 -0.016,-0.218 -0.118,-0.256c-0.039,-0.013 -0.08,-0.016 -0.118,-0.007c-0.237,0.071 -0.499,0.167 -0.732,0.237c0.143,-0.688 0.332,-1.376 0.498,-2.089c0.048,-0.189 -0.237,-0.237 -0.307,-0.071c-0.275,0.775 -0.499,1.568 -0.665,2.375c-0.073,0.147 0.023,0.335 0.189,0.287l-0.013,-0.003Z" style="fill:#191919;fill-rule:nonzero;"/><path d="M47.259,63.284c0.119,0.096 0.31,0 0.237,-0.144c-0.166,-0.474 -0.31,-0.95 0.048,-1.447c0.297,-0.396 0.789,-0.597 1.282,-0.521c0.099,0 0.179,-0.08 0.179,-0.182c-0,-0.061 -0.032,-0.118 -0.083,-0.151c-0.665,-0.306 -1.97,0.263 -1.97,1.521c-0.038,0.339 0.077,0.678 0.307,0.924Z" style="fill:#191919;fill-rule:nonzero;"/><path d="M46.358,66.08c0.006,0.113 0.099,0.199 0.211,0.192c0.105,-0.006 0.188,-0.089 0.191,-0.192c0.052,-0.438 0.02,-0.879 -0.095,-1.305c-0.237,-0.831 -1.02,-1.139 -0.998,-1.971c0.022,-0.499 0.118,-0.998 0.144,-1.472c-0,-0.086 -0.07,-0.153 -0.157,-0.153c-0.073,0 -0.137,0.054 -0.15,0.131c-0.096,0.474 -0.189,0.951 -0.237,1.424c-0.096,1.043 0.617,1.327 0.902,1.993c0.192,0.423 0.256,0.893 0.189,1.353Z" style="fill:#191919;fill-rule:nonzero;"/><path d="M46.62,57.23l0.355,3.488c0.022,0.144 0.284,0.144 0.307,-0.023c0.118,-0.877 -0.189,-2.611 -0.381,-3.538c-0.022,-0.141 -0.307,-0.093 -0.284,0.073l0.003,0Z" style="fill:#191919;fill-rule:nonzero;"/><path d="M49.014,63.636c0.093,0.192 0.333,0.048 0.285,-0.119c-0.07,-0.402 -0.237,-0.876 0.547,-0.876c0.639,-0 0.732,0.57 0.713,1.091c-0.048,0.973 -0.876,1.804 -0.876,2.681c-0,0.112 0.096,0.205 0.208,0.202c0.092,-0 0.172,-0.064 0.195,-0.154c0.236,-0.973 0.332,-0.877 0.665,-1.686c0.287,-0.601 0.329,-1.289 0.118,-1.923c-0.473,-1.069 -2.606,-0.775 -1.851,0.784l-0.004,-0Z" style="fill:#191919;fill-rule:nonzero;"/><path d="M47.947,62.404c-0.045,0.352 0.019,0.711 0.188,1.02c0.045,0.068 0.135,0.084 0.202,0.039c0.051,-0.035 0.073,-0.096 0.057,-0.156c-0.096,-0.5 -0.188,-1.092 0.285,-1.354c0.425,-0.26 0.949,-0.288 1.4,-0.071c0.166,0.096 0.307,-0.166 0.189,-0.285c-0.4,-0.498 -2.181,-0.306 -2.321,0.807Z" style="fill:#191919;fill-rule:nonzero;"/><path d="M37.226,58.418c-0.143,0.022 -0.284,0.047 -0.402,0.07c-0.215,-0.666 -0.854,-1.354 -1.637,-1.069c-0.832,0.307 -0.854,1.209 -0.806,1.613c-0.691,0.07 -1.4,0.166 -2.088,0.237c-0.089,0.022 -0.147,0.112 -0.125,0.201c0.016,0.07 0.077,0.122 0.151,0.128c0.713,-0.048 1.422,-0.096 2.135,-0.118c0.419,2.134 2.827,1.555 2.491,-0.57c0.118,-0.022 0.237,-0.022 0.333,-0.048c0.262,1.846 2.407,1.904 2.206,-0.285c0.188,0 0.591,-0.096 0.403,-0.381c-0.096,-0.144 -0.307,-0.048 -0.451,-0.022c-0.381,-1.568 -2.136,-1.376 -2.206,0.237l-0.004,0.007Zm-2.465,0.806c-0.07,-0.548 0.048,-1.117 0.403,-1.328c0.592,-0.381 1.186,0.214 1.375,0.972c0.393,1.818 -1.547,2.202 -1.778,0.356Zm3.866,0.617c-0.87,0.301 -1.455,-1.676 -0.688,-2.255c1.02,-0.8 1.689,1.906 0.688,2.255Z" style="fill:#191919;fill-rule:nonzero;"/><path d="M37.274,61.099c-0.546,0.048 -0.498,0.285 -0.144,0.333c0.237,0.022 0.618,-0.023 0.733,-0.237c0.188,-0.333 -0.071,-0.88 -0.403,-1.187c-0.237,-0.238 -0.355,-0.023 -0.259,0.095c0.214,0.333 0.735,0.88 0.07,0.999l0.003,-0.003Z" style="fill:#191919;fill-rule:nonzero;"/><path d="M39.007,60.455c-0.022,-0.236 -0.259,-0.236 -0.259,0c0.048,1.614 -0.118,4.202 -2.42,4.391c-0.902,0.07 -1.874,-0.356 -2.657,-0.806c-0.144,-0.097 -0.332,0.144 -0.166,0.261c0.783,0.564 1.717,0.887 2.679,0.925c0.048,0.381 0.144,0.784 0.189,1.162c0.118,0.736 0.403,0.381 0.355,0.144c-0.048,-0.452 -0.119,-0.903 -0.189,-1.329c2.228,-0.354 2.641,-2.895 2.465,-4.748l0.003,0Z" style="fill:#191919;fill-rule:nonzero;"/><path d="M35.759,63.233c0.515,0.246 1.132,0.029 1.381,-0.49c0.016,-0.035 0.032,-0.07 0.045,-0.105c0.166,-0.356 0.07,-0.429 -0.237,-0.429c-0.607,0.045 -1.202,-0.192 -1.611,-0.64c-0.39,-0.326 -0.486,1.312 0.428,1.66l-0.006,0.004Zm1.138,-0.666c-0.38,0.733 -1.519,0.381 -1.541,-0.473c0.451,0.319 0.991,0.486 1.541,0.473Z" style="fill:#191919;fill-rule:nonzero;"/><path d="M35.685,59.153c-0.051,0.141 0.023,0.521 0.263,0.473c0.188,-0.021 0.188,-0.284 0.118,-0.45c-0.096,-0.237 -0.288,-0.285 -0.381,-0.023Z" style="fill:#191919;fill-rule:nonzero;"/><path d="M38.32,58.724c-0.051,0.167 0.022,0.593 0.259,0.5c0.118,-0.048 0.166,-0.167 0.144,-0.381c-0.045,-0.263 -0.314,-0.407 -0.4,-0.119l-0.003,0Z" style="fill:#191919;fill-rule:nonzero;"/><path d="M34.192,57.751c0.358,-0.412 0.857,-0.684 1.401,-0.758c0.131,-0.025 0.214,-0.153 0.188,-0.284c-0.022,-0.103 -0.105,-0.179 -0.211,-0.192c-0.556,0.003 -1.08,0.246 -1.448,0.665c-0.521,0.569 -0.074,0.733 0.07,0.569Z" style="fill:#191919;fill-rule:nonzero;"/><path d="M27.884,57.445c-0.08,1.503 0.716,2.918 2.04,3.631c0.118,0.688 0.569,1.494 1.423,1.494c0.256,1.268 0.422,2.554 0.499,3.846c-0.007,0.093 0.064,0.174 0.153,0.18c0.093,0.006 0.173,-0.064 0.179,-0.154l0,-0.022c-0.026,-1.235 -0.16,-2.468 -0.403,-3.68c-0.048,-0.214 -0.048,-0.64 -0.284,-0.617c-0.474,0.047 -0.95,-0.355 -1.091,-1.117c-0.166,-0.807 0.285,-1.472 0.924,-1.165c0.096,0.048 0.167,-0.023 0.215,-0.071c0.924,-0.902 2.087,-2.562 2.087,-4.389c1.234,0.547 4.198,0.758 5.551,0.307c-0.096,-1.805 -1.826,-4.579 -5.669,-4.201c-4.291,0.429 -5.579,3.705 -5.621,5.958l-0.003,-0Z" style="fill:#191919;fill-rule:nonzero;"/><path d="M37.751,56.709c0.3,-0.093 0.623,-0.093 0.924,0c0.236,0.07 0.214,-0.166 0.022,-0.333c-0.329,-0.173 -0.713,-0.208 -1.068,-0.096c-0.355,0.166 -0.233,0.579 0.119,0.429l0.003,-0Z" style="fill:#191919;fill-rule:nonzero;"/><path d="M28.69,53.455c0.268,-0.589 0.738,-1.063 1.327,-1.328c-0.499,-3.702 -5.669,-4.131 -7.258,-0.451c-1.589,3.679 1.611,5.436 2.277,6.786c0.639,1.354 1.019,3.443 0.591,4.272c-0.428,0.806 0.096,0.854 0.687,-0.26c0.474,-0.902 1.327,-3.538 0.64,-5.721c-0.732,-2.258 1.093,-3.468 1.733,-3.302l0.003,0.004Z" style="fill:#191919;fill-rule:nonzero;"/><path d="M53.139,72.323c-3.012,-0.045 -7.993,-0.166 -10.72,0.071c-2.136,0.188 -2.657,0.854 -3.156,2.706c-0.713,2.707 -1.851,7.238 -2.228,9.826c-2.865,-0.041 -5.733,0.068 -8.585,0.333c-1.068,0.144 -1.138,0.925 -0.806,1.258c0.167,0.166 0.381,-0.071 0.259,-0.237c-0.099,-0.176 -0.035,-0.4 0.141,-0.496c0.592,-0.403 7.779,-0.477 8.799,-0.477c0.38,0 0.499,-0.048 0.591,-0.451c0.713,-3.347 1.637,-7.19 2.491,-10.347c0.259,-1.021 1.042,-1.569 2.302,-1.662c3.178,-0.261 7.66,-0.117 11.027,-0.069c1.186,0.021 1.896,0.498 1.803,1.827c-0.118,1.779 -1.685,7.237 -2.254,9.256c-0.179,0.791 -0.46,1.555 -0.831,2.278c-0.144,0.237 0.214,0.499 0.355,0.259c0.425,-0.892 0.767,-1.821 1.02,-2.777c0.757,-2.659 1.825,-6.502 2.158,-8.854c0.147,-1.612 -0.758,-2.418 -2.369,-2.441l0.003,-0.003Z" style="fill:#191919;fill-rule:nonzero;"/><path d="M46.665,78.019c-0.096,0.14 0.07,0.354 0.236,0.236c0.342,-0.278 0.831,-0.288 1.186,-0.022c0.307,0.284 0.381,0.877 -0.188,1.897c-0.713,1.306 -1.685,1.495 -2.114,0.973c-0.521,-0.64 -0.022,-1.945 0.474,-2.467c0.118,-0.144 -0.096,-0.355 -0.215,-0.237c-1.042,0.951 -1.234,2.349 -0.639,2.992c0.949,1.043 2.324,0.189 2.845,-0.925c0.307,-0.665 0.784,-1.568 0.355,-2.255c-0.291,-0.57 -0.988,-0.798 -1.557,-0.506c-0.15,0.077 -0.281,0.185 -0.383,0.317l-0,-0.003Z" style="fill:#191919;fill-rule:nonzero;"/><path d="M49.513,48.85c0.547,-0.352 -0.166,-1.283 -0.732,-0.713c-0.476,0.451 0.285,1.001 0.732,0.713Z" style="fill:#191919;fill-rule:nonzero;"/><path d="M43.726,49.253c0.617,0.234 1.091,-0.451 0.713,-0.806c-0.521,-0.499 -1.419,0.541 -0.713,0.806Z" style="fill:#191919;fill-rule:nonzero;"/><path d="M46.358,49.113c0.831,0.259 1.138,-0.807 0.332,-0.999c-0.521,-0.118 -1.02,0.781 -0.332,0.999Z" style="fill:#191919;fill-rule:nonzero;"/><path d="M77.85,53.336c-0.115,-0.24 -0.403,-0.166 -0.38,0.048c0.096,0.733 1.566,0.855 1.992,0.048c0.757,-1.472 -1.638,-1.897 -1.944,-0.95c-0.119,0.355 0.188,0.333 0.354,0.07c0.215,-0.355 1.611,-0.214 1.234,0.64c-0.166,0.429 -1.061,0.544 -1.256,0.144Z" style="fill:#6f93fc;fill-rule:nonzero;"/><path d="M73.796,48.377c-0.022,1.305 1.352,1.779 2.395,1.993c3.817,0.784 5.55,-1.257 5.074,-2.681c-0.01,-0.074 -0.077,-0.125 -0.154,-0.115c-0.074,0.009 -0.125,0.076 -0.115,0.153c0,0.013 0.006,0.023 0.01,0.035c0.143,1.735 -1.874,2.375 -3.275,2.397c-1.089,0.022 -4.101,-0.547 -3.462,-2.208c0.118,-0.285 -0.096,-0.451 -0.259,-0.285c-0.972,1.021 -2.443,0.736 -3.155,-0.499c-0.759,-1.328 -0.355,-3.203 1.304,-2.991c0.115,0.006 0.211,-0.08 0.217,-0.196c0.006,-0.096 -0.054,-0.182 -0.147,-0.208c-1.4,-0.569 -1.637,-2.751 0.048,-3.772c1.611,-0.973 2.964,-0.429 4.054,0.854c0.189,0.237 0.428,0.189 0.451,-0.284c0.118,-1.236 1.685,-1.946 2.797,-1.661c1.232,0.4 1.906,1.721 1.506,2.953c-0.003,0.013 -0.009,0.026 -0.012,0.035c-0.071,0.215 0.144,0.285 0.306,0.237c1.471,-0.381 3.035,1.235 3.179,2.633c0.236,2.279 -1.804,2.349 -3.035,2.09c-0.236,-0.048 -0.188,0.214 0,0.285c1.778,0.592 3.63,-0.237 3.415,-2.375c-0.144,-1.567 -1.777,-3.276 -3.437,-3.014c0.237,-1.059 -0.163,-2.159 -1.02,-2.825c-1.518,-1.117 -3.77,-0.144 -4.079,1.402c-0.992,-1.229 -2.715,-1.578 -4.102,-0.832c-1.612,0.832 -2.372,2.991 -0.854,4.223c-1.116,0.263 -1.611,1.376 -1.471,2.515c0.352,2.042 2.414,3.11 3.814,2.138l0.007,0.003Z" style="fill:#6f93fc;fill-rule:nonzero;"/><path d="M99.505,87.134c-20.261,-0.208 -53.685,-0.604 -79.16,0.548c-0.166,-0 -0.144,0.521 0.023,0.521c24.493,-0.62 46.883,-1.097 79.159,-0.381c0.211,0 0.188,-0.684 -0.022,-0.688Z" style="fill:#6f93fc;fill-rule:nonzero;"/><path d="M44.554,71.828c1.187,-0.001 3.511,-0.001 5.1,-0.023c0.348,-1.619 0.591,-3.261 0.732,-4.912c-1.256,0.167 -3.629,0.048 -4.671,-0.355c-0.246,1.792 -0.633,3.561 -1.161,5.293l0,-0.004Z" style="fill:#6f93fc;fill-rule:nonzero;"/><path d="M26.986,86.325c-0.141,-0.604 0.156,-1.223 0.713,-1.495c0.639,-0.306 7.209,-0.355 8.754,-0.428c0.07,-0.381 0.284,-1.402 0.591,-2.729c-3.881,-0.781 -7.827,-1.2 -11.785,-1.258c-0.355,-0 -0.214,-0.333 0,-0.333c0.569,-0.022 1.139,-0.022 1.708,-0.022c0.438,-1.734 1.093,-3.411 1.943,-4.985c0.096,-0.166 0.307,-0.07 0.237,0.096c-0.735,1.58 -1.324,3.225 -1.755,4.911c3.28,0.125 6.548,0.499 9.771,1.117c0.521,-2.256 1.234,-5.151 1.895,-7.097c0.57,-1.734 1.471,-2.16 2.68,-2.23c0.591,-0.023 1.352,-0.048 2.372,-0.023c0.096,-0.284 0.189,-0.569 0.285,-0.925c-1.161,-1.896 -3.652,-3.583 -7.044,-3.846c-1.16,1.377 -4.412,1.236 -6.19,-0.45c-1.042,0.118 -4.482,0.876 -6.544,3.202c-2.894,3.322 -6.83,10.94 -4.934,14.953c0.947,2.041 6.235,1.663 7.303,1.542Z" style="fill:#6f93fc;fill-rule:nonzero;"/><path d="M59.661,30.743c0.074,-0.592 -0.332,-3.609 -0.639,-3.894c-0.061,-0.064 -0.16,-0.067 -0.224,-0.006c-0.016,0.016 -0.029,0.032 -0.035,0.054c-0.096,0.215 0.473,3.466 0.546,3.846c0.023,0.1 0.122,0.16 0.218,0.138c0.067,-0.016 0.121,-0.07 0.137,-0.138l-0.003,0Z" style="fill:#6f93fc;fill-rule:nonzero;"/><path d="M63.005,42.848c0.058,-0.115 0.01,-0.253 -0.105,-0.311c-0.035,-0.016 -0.07,-0.025 -0.109,-0.022c-0.402,-0 -0.949,0.784 -2.941,0.499c-0.214,-0.022 -0.355,0.285 -0.144,0.381c1.26,0.473 3.108,-0.096 3.299,-0.547Z" style="fill:#6f93fc;fill-rule:nonzero;"/><path d="M65.425,38.669c0.855,0.496 1.752,0.918 2.68,1.257c0.105,0.016 0.204,-0.057 0.224,-0.163c0.009,-0.06 -0.013,-0.125 -0.058,-0.169c-0.851,-0.496 -1.748,-0.912 -2.679,-1.235c-0.086,-0.045 -0.192,-0.013 -0.236,0.07c-0.045,0.086 -0.014,0.192 0.069,0.237l0,0.003Z" style="fill:#6f93fc;fill-rule:nonzero;"/><path d="M60.895,43.916c-0.108,-0.022 -0.214,0.045 -0.237,0.154c-0.018,0.093 0.03,0.189 0.119,0.227c0.592,0.333 1.637,-0.048 1.234,-0.403c-0.189,-0.166 -0.477,0.147 -1.116,0.022Z" style="fill:#6f93fc;fill-rule:nonzero;"/><path d="M64.901,33.092c0.355,-0.147 2.255,-2.374 2.561,-2.8c0.119,-0.166 -0.144,-0.332 -0.285,-0.214c-0.786,0.758 -1.527,1.558 -2.228,2.396c-0.451,0.5 -0.214,0.685 -0.048,0.618Z" style="fill:#6f93fc;fill-rule:nonzero;"/><path d="M58.926,40.592c0.045,0.099 0.163,0.144 0.262,0.099c0.077,-0.035 0.121,-0.112 0.115,-0.195c-0.166,-1.043 -1.116,-1.638 -1.637,-2.493c-1.09,-1.779 0.355,-3.82 2.206,-4.297c1.519,-0.403 3.226,0.144 3.629,1.971c0.355,1.568 -0.355,2.707 -0.854,4.131c-0.096,0.307 0.214,0.403 0.355,0.118c0.64,-1.209 1.256,-2.658 1.068,-4.034c-0.333,-2.208 -2.18,-3.181 -4.246,-2.682c-1.803,0.452 -3.344,2.016 -3.034,3.987c0.262,1.613 1.675,2.061 2.136,3.395Z" style="fill:#6f93fc;fill-rule:nonzero;"/><path d="M59.45,42.397c1.106,0.393 2.331,0.252 3.319,-0.381c0.214,-0.167 0.118,-0.522 -0.189,-0.403c-1.256,0.451 -1.755,0.569 -2.989,0.403c-0.214,-0.023 -0.358,0.288 -0.141,0.381Z" style="fill:#6f93fc;fill-rule:nonzero;"/><path d="M52.928,40.662c-0.166,0.215 -0,0.5 0.473,0.167c0.659,-0.41 1.285,-0.871 1.874,-1.376c0.07,-0.064 0.079,-0.173 0.016,-0.243c-0.052,-0.058 -0.138,-0.077 -0.205,-0.042c-0.761,0.435 -1.484,0.934 -2.158,1.494Z" style="fill:#6f93fc;fill-rule:nonzero;"/><path d="M54.709,34.327c0.092,0.026 0.185,-0.032 0.211,-0.125c0.019,-0.07 -0.01,-0.144 -0.067,-0.185c-0.95,-0.615 -1.941,-1.165 -2.964,-1.639c-0.099,-0.032 -0.205,0.026 -0.237,0.125c-0.025,0.077 0.003,0.163 0.07,0.208c0.956,0.608 1.957,1.149 2.99,1.616l-0.003,0Z" style="fill:#6f93fc;fill-rule:nonzero;"/><path d="M59.45,41.494c0.787,0.247 2.775,-0.144 3.2,-0.473c0.285,-0.237 0.023,-0.57 -0.332,-0.429c-0.886,0.336 -1.829,0.49 -2.775,0.451c-0.429,-0.022 -0.499,0.326 -0.096,0.451l0.003,0Z" style="fill:#6f93fc;fill-rule:nonzero;"/><path d="M61.369,40.118c-0.033,-1.251 0.079,-2.502 0.332,-3.727c0.013,-0.087 -0.048,-0.167 -0.134,-0.179c-0.077,-0.013 -0.15,0.035 -0.176,0.108c-0.313,1.242 -0.425,2.522 -0.333,3.798c-0.003,0.087 0.061,0.157 0.147,0.164c0.086,0.006 0.157,-0.061 0.164,-0.148l-0,-0.016Z" style="fill:#6f93fc;fill-rule:nonzero;"/><path d="M60.799,36.18c-0.627,0.166 -1.272,0.256 -1.921,0.259c-0.109,-0 -0.198,0.089 -0.198,0.201c-0,0.039 0.012,0.077 0.032,0.109c0.486,1.101 0.914,2.224 1.282,3.369c0.07,0.215 0.284,0.167 0.236,-0.048c-0.22,-1.12 -0.572,-2.211 -1.042,-3.25c0.591,-0.029 1.173,-0.141 1.733,-0.333c0.079,-0.042 0.112,-0.141 0.07,-0.224c-0.035,-0.067 -0.115,-0.103 -0.189,-0.083l-0.003,-0Z" style="fill:#6f93fc;fill-rule:nonzero;"/><path d="M43.608,52.719c0.118,2.294 -0.732,4.534 -2.347,6.169c-0.45,0.451 -0.07,0.546 0.381,0.381c2.135,-0.833 4.054,-3.277 4.601,-5.459c0.095,-0.381 -0.237,-0.355 -0.285,-0.119c-0.588,2.17 -2.046,4 -4.032,5.056c1.452,-1.635 2.21,-3.772 2.114,-5.958c-0.023,-0.355 -0.071,-0.381 -0.499,-0.451c-3.651,-0.57 -5.004,-5.814 0.758,-7.926c5.147,-1.875 9.105,1.613 8.204,5.126c-0.665,2.634 -3.463,3.037 -5.762,3.037c-0.307,-0 -0.284,0.381 0.023,0.381c2.372,0.048 5.074,-0.285 5.953,-2.659c1.896,-5.056 -3.415,-7.811 -7.897,-6.55c-7.258,2.089 -5.432,8.805 -1.212,8.972Z" style="fill:#6f93fc;fill-rule:nonzero;"/></svg>