<?xml version="1.0" encoding="UTF-8" standalone="no"?><!DOCTYPE svg PUBLIC "-//W3C//DTD SVG 1.1//EN" "http://www.w3.org/Graphics/SVG/1.1/DTD/svg11.dtd"><svg width="100%" height="100%" viewBox="0 0 202 234" version="1.1" xmlns="http://www.w3.org/2000/svg" xmlns:xlink="http://www.w3.org/1999/xlink" xml:space="preserve" xmlns:serif="http://www.serif.com/" style="fill-rule:evenodd;clip-rule:evenodd;"><path d="M201.75,7.5c0,-4.139 -3.361,-7.5 -7.5,-7.5l-186.75,0c-4.139,0 -7.5,3.361 -7.5,7.5l0,219c0,4.139 3.361,7.5 7.5,7.5l186.75,0c4.139,0 7.5,-3.361 7.5,-7.5l0,-219Z" style="fill:#fff;"/><path d="M185.625,24c0,-3.932 -3.193,-7.125 -7.125,-7.125l-154.5,0c-3.932,0 -7.125,3.193 -7.125,7.125l0,188.25c0,3.932 3.193,7.125 7.125,7.125l154.5,0c3.932,0 7.125,-3.193 7.125,-7.125l0,-188.25Z" style="fill:none;stroke:#000;stroke-width:0.75px;"/><rect x="66" y="6.75" width="75" height="20.25" style="fill:#fff;"/><ellipse cx="28.125" cy="205.5" rx="22.875" ry="21.75" style="fill:#fff;"/><ellipse cx="177.375" cy="205.5" rx="22.875" ry="21.75" style="fill:#fff;"/><path d="M24.182,195.861l-0.001,9.639l2.12,0l0,-3.983l4.037,0l-0,-1.646l-4.037,-0l0,-2.228l4.657,0l0,-1.782l-6.777,0Zm16.724,5.994l-0,-5.994l-2.12,0l0,5.994c0,0.72 -0.144,1.251 -0.432,1.593c-0.288,0.333 -0.81,0.5 -1.566,0.5c-0.432,-0 -0.778,-0.059 -1.039,-0.176c-0.252,-0.126 -0.45,-0.284 -0.594,-0.473c-0.144,-0.197 -0.239,-0.422 -0.284,-0.674c-0.045,-0.252 -0.067,-0.509 -0.067,-0.77l-0,-5.994l-2.12,0l0,5.994c0,1.314 0.356,2.286 1.067,2.916c0.72,0.63 1.732,0.945 3.037,0.945c1.287,0 2.295,-0.315 3.024,-0.945c0.729,-0.639 1.094,-1.611 1.094,-2.916Zm4.498,-4.212l0,7.857l2.12,0l0,-7.857l2.889,0l-0,-1.782l-7.898,0l0,1.782l2.889,0Zm14.841,4.212l0,-5.994l-2.119,0l0,5.994c0,0.72 -0.144,1.251 -0.432,1.593c-0.288,0.333 -0.81,0.5 -1.566,0.5c-0.432,-0 -0.778,-0.059 -1.039,-0.176c-0.252,-0.126 -0.451,-0.283 -0.594,-0.472c-0.145,-0.198 -0.239,-0.423 -0.284,-0.675c-0.045,-0.252 -0.067,-0.509 -0.067,-0.77l-0,-5.994l-2.12,0l0,5.994c0,1.314 0.356,2.286 1.067,2.916c0.72,0.63 1.732,0.945 3.037,0.945c1.287,0 2.295,-0.315 3.024,-0.945c0.729,-0.639 1.093,-1.611 1.093,-2.916Zm4.485,-1.633l-0,-2.714l2.322,0c0.486,0 0.85,0.108 1.093,0.324c0.243,0.207 0.365,0.545 0.365,1.013c-0,0.486 -0.122,0.837 -0.365,1.053c-0.243,0.216 -0.607,0.324 -1.093,0.324l-2.322,-0Zm-2.12,-4.361l0,9.639l2.12,0l-0,-3.766l2.119,-0c0.531,-0 0.914,0.117 1.148,0.351c0.234,0.233 0.387,0.603 0.459,1.107c0.054,0.387 0.094,0.792 0.121,1.215c0.027,0.423 0.099,0.787 0.216,1.093l2.12,0c-0.099,-0.135 -0.176,-0.297 -0.23,-0.486c-0.045,-0.198 -0.081,-0.405 -0.108,-0.621c-0.018,-0.216 -0.031,-0.427 -0.04,-0.634c-0.009,-0.208 -0.018,-0.388 -0.027,-0.54c-0.018,-0.243 -0.054,-0.486 -0.108,-0.73c-0.045,-0.243 -0.122,-0.463 -0.23,-0.661c-0.108,-0.207 -0.247,-0.383 -0.418,-0.527c-0.171,-0.153 -0.387,-0.265 -0.648,-0.337l-0,-0.027c0.54,-0.216 0.927,-0.531 1.161,-0.945c0.243,-0.414 0.364,-0.905 0.364,-1.472c0,-0.369 -0.067,-0.711 -0.202,-1.026c-0.126,-0.324 -0.315,-0.607 -0.567,-0.85c-0.243,-0.243 -0.54,-0.432 -0.891,-0.567c-0.342,-0.144 -0.729,-0.216 -1.161,-0.216l-5.198,0Zm10.284,0l-0,9.639l7.317,-0l-0,-1.782l-5.198,0l0,-2.363l4.671,0l0,-1.647l-4.671,0l0,-2.065l5.09,-0l-0,-1.782l-7.209,0Zm20.016,3.24l2.052,-0c-0.063,-0.558 -0.216,-1.053 -0.459,-1.485c-0.243,-0.432 -0.553,-0.792 -0.931,-1.08c-0.369,-0.297 -0.792,-0.522 -1.269,-0.675c-0.468,-0.153 -0.968,-0.23 -1.499,-0.23c-0.738,0 -1.404,0.131 -1.998,0.392c-0.585,0.261 -1.08,0.621 -1.485,1.08c-0.405,0.459 -0.715,0.999 -0.931,1.62c-0.216,0.612 -0.324,1.278 -0.324,1.998c-0,0.702 0.108,1.359 0.324,1.971c0.216,0.603 0.526,1.13 0.931,1.579c0.405,0.45 0.9,0.806 1.485,1.067c0.594,0.252 1.26,0.378 1.998,0.378c0.594,0 1.139,-0.09 1.634,-0.27c0.495,-0.18 0.927,-0.441 1.296,-0.783c0.369,-0.342 0.666,-0.756 0.891,-1.242c0.225,-0.486 0.364,-1.031 0.418,-1.633l-2.052,-0c-0.081,0.647 -0.306,1.169 -0.675,1.565c-0.36,0.397 -0.864,0.594 -1.512,0.594c-0.477,0 -0.882,-0.089 -1.215,-0.269c-0.333,-0.19 -0.603,-0.437 -0.81,-0.743c-0.207,-0.306 -0.36,-0.648 -0.459,-1.026c-0.09,-0.387 -0.135,-0.783 -0.135,-1.188c0,-0.423 0.045,-0.833 0.135,-1.228c0.099,-0.397 0.252,-0.747 0.459,-1.053c0.207,-0.315 0.477,-0.563 0.81,-0.743c0.333,-0.189 0.738,-0.284 1.215,-0.284c0.261,0 0.509,0.046 0.743,0.136c0.243,0.08 0.459,0.197 0.648,0.35c0.189,0.154 0.346,0.334 0.472,0.541c0.126,0.198 0.207,0.418 0.243,0.661Zm6.551,2.673l1.255,-3.537l0.027,-0l1.215,3.537l-2.497,0Zm0.202,-5.913l-3.645,9.639l2.133,0l0.756,-2.147l3.605,0l0.729,2.147l2.2,0l-3.604,-9.639l-2.174,0Zm9.269,4.361l-0,-2.714l2.322,0c0.486,0 0.85,0.108 1.093,0.324c0.243,0.207 0.365,0.545 0.365,1.012c-0,0.487 -0.122,0.838 -0.365,1.053c-0.243,0.216 -0.607,0.325 -1.093,0.325l-2.322,-0Zm-2.12,-4.361l0,9.639l2.12,0l-0,-3.767l2.119,0c0.531,0 0.914,0.118 1.148,0.352c0.234,0.233 0.387,0.602 0.459,1.107c0.054,0.386 0.094,0.791 0.121,1.214c0.027,0.423 0.099,0.788 0.216,1.094l2.12,0c-0.099,-0.135 -0.176,-0.297 -0.23,-0.486c-0.045,-0.198 -0.081,-0.405 -0.108,-0.621c-0.018,-0.216 -0.031,-0.427 -0.04,-0.635c-0.009,-0.207 -0.018,-0.387 -0.027,-0.54c-0.018,-0.243 -0.054,-0.486 -0.108,-0.729c-0.045,-0.243 -0.122,-0.463 -0.23,-0.661c-0.108,-0.207 -0.247,-0.383 -0.418,-0.527c-0.171,-0.153 -0.387,-0.265 -0.648,-0.337l-0,-0.027c0.54,-0.216 0.927,-0.531 1.161,-0.945c0.243,-0.414 0.364,-0.905 0.364,-1.472c0,-0.369 -0.067,-0.711 -0.202,-1.026c-0.126,-0.324 -0.315,-0.607 -0.567,-0.85c-0.243,-0.243 -0.54,-0.432 -0.891,-0.567c-0.342,-0.144 -0.729,-0.216 -1.161,-0.216l-5.198,0Zm10.284,0l-0,9.639l7.317,-0l-0,-1.782l-5.198,0l0,-2.363l4.671,0l0,-1.647l-4.671,0l0,-2.065l5.09,-0l-0,-1.782l-7.209,0Zm9.293,0l-0,9.639l7.317,-0l-0,-1.782l-5.198,0l0,-2.363l4.671,0l0,-1.647l-4.671,0l0,-2.065l5.09,-0l-0,-1.782l-7.209,0Zm11.413,4.36l0,-2.713l2.322,-0c0.486,-0 0.851,0.108 1.094,0.324c0.243,0.207 0.364,0.544 0.364,1.012c0,0.486 -0.121,0.837 -0.364,1.053c-0.243,0.216 -0.608,0.324 -1.094,0.324l-2.322,0Zm-2.119,-4.36l-0,9.639l2.119,-0l0,-3.767l2.12,0c0.531,0 0.913,0.117 1.147,0.351c0.234,0.234 0.387,0.603 0.459,1.107c0.054,0.387 0.095,0.792 0.122,1.215c0.027,0.423 0.099,0.788 0.216,1.094l2.119,-0c-0.099,-0.135 -0.175,-0.297 -0.229,-0.486c-0.045,-0.198 -0.081,-0.405 -0.108,-0.621c-0.018,-0.216 -0.032,-0.428 -0.041,-0.635c-0.009,-0.207 -0.018,-0.387 -0.027,-0.54c-0.018,-0.243 -0.054,-0.486 -0.108,-0.729c-0.045,-0.243 -0.121,-0.463 -0.229,-0.661c-0.108,-0.207 -0.248,-0.383 -0.419,-0.527c-0.171,-0.153 -0.387,-0.265 -0.648,-0.337l0,-0.027c0.54,-0.216 0.927,-0.531 1.161,-0.945c0.243,-0.414 0.365,-0.905 0.365,-1.472c-0,-0.369 -0.068,-0.711 -0.203,-1.026c-0.126,-0.324 -0.315,-0.607 -0.567,-0.85c-0.243,-0.243 -0.54,-0.432 -0.891,-0.567c-0.342,-0.144 -0.729,-0.216 -1.161,-0.216l-5.197,-0Zm20.925,7.074c0.18,-0.243 0.324,-0.545 0.432,-0.905c0.108,-0.36 0.162,-0.796 0.162,-1.309c-0,-0.423 -0.05,-0.833 -0.149,-1.229c-0.09,-0.396 -0.238,-0.747 -0.445,-1.053c-0.207,-0.315 -0.477,-0.562 -0.81,-0.742c-0.333,-0.189 -0.738,-0.284 -1.215,-0.284c-0.477,0 -0.882,0.095 -1.215,0.284c-0.333,0.18 -0.603,0.427 -0.81,0.742c-0.207,0.306 -0.36,0.657 -0.459,1.053c-0.09,0.396 -0.135,0.806 -0.135,1.229c-0,0.405 0.045,0.801 0.135,1.188c0.099,0.378 0.252,0.72 0.459,1.026c0.207,0.306 0.477,0.553 0.81,0.742c0.333,0.18 0.738,0.27 1.215,0.27c0.225,0 0.396,-0.009 0.513,-0.027c0.117,-0.018 0.229,-0.054 0.337,-0.108l-0.904,-0.823l0.985,-1.053l1.094,0.999Zm0.31,2.227c-0.639,0.369 -1.417,0.554 -2.335,0.554c-0.738,-0 -1.404,-0.126 -1.998,-0.378c-0.585,-0.261 -1.08,-0.617 -1.485,-1.067c-0.405,-0.45 -0.716,-0.976 -0.932,-1.579c-0.216,-0.612 -0.324,-1.269 -0.324,-1.971c0,-0.72 0.108,-1.386 0.324,-1.998c0.216,-0.621 0.527,-1.161 0.932,-1.62c0.405,-0.459 0.9,-0.819 1.485,-1.08c0.594,-0.261 1.26,-0.392 1.998,-0.392c0.747,0 1.413,0.131 1.998,0.392c0.585,0.261 1.08,0.621 1.485,1.08c0.405,0.459 0.715,0.999 0.931,1.62c0.216,0.612 0.324,1.278 0.324,1.998c0,0.702 -0.108,1.354 -0.324,1.957c-0.216,0.603 -0.526,1.134 -0.931,1.593l1.201,1.094l-0.985,1.026l-1.364,-1.229Zm12.573,-3.307l0,-5.994l-2.119,-0l-0,5.994c-0,0.72 -0.144,1.251 -0.432,1.593c-0.288,0.333 -0.81,0.499 -1.566,0.499c-0.432,0 -0.779,-0.058 -1.04,-0.175c-0.252,-0.126 -0.45,-0.284 -0.594,-0.473c-0.144,-0.198 -0.238,-0.423 -0.283,-0.675c-0.045,-0.252 -0.068,-0.508 -0.068,-0.769l0,-5.994l-2.119,0l-0,5.994c-0,1.314 0.355,2.286 1.066,2.916c0.72,0.63 1.733,0.945 3.038,0.945c1.287,0 2.295,-0.315 3.024,-0.945c0.729,-0.639 1.093,-1.611 1.093,-2.916Zm2.366,-5.994l-0,9.639l2.119,-0l0,-9.639l-2.119,0Zm3.9,7.965l0,1.674l8.127,-0l0,-1.782l-5.305,0l5.17,-6.183l0,-1.674l-7.587,0l0,1.782l4.766,-0l-5.171,6.183Z" style="fill:#6922ea;fill-rule:nonzero;"/><path d="M83.862,18.156l-1.824,0c-0.008,0.528 0.088,0.984 0.288,1.368c0.2,0.384 0.468,0.7 0.804,0.948c0.344,0.248 0.736,0.428 1.176,0.54c0.448,0.12 0.908,0.18 1.38,0.18c0.584,0 1.096,-0.068 1.536,-0.204c0.448,-0.136 0.82,-0.324 1.116,-0.564c0.304,-0.248 0.532,-0.54 0.684,-0.876c0.152,-0.336 0.228,-0.7 0.228,-1.092c0,-0.48 -0.104,-0.872 -0.312,-1.176c-0.2,-0.312 -0.44,-0.56 -0.72,-0.744c-0.28,-0.184 -0.564,-0.316 -0.852,-0.396c-0.28,-0.088 -0.5,-0.148 -0.66,-0.18c-0.536,-0.136 -0.972,-0.248 -1.308,-0.336c-0.328,-0.088 -0.588,-0.176 -0.78,-0.264c-0.184,-0.088 -0.308,-0.184 -0.372,-0.288c-0.064,-0.104 -0.096,-0.24 -0.096,-0.408c0,-0.184 0.04,-0.336 0.12,-0.456c0.08,-0.12 0.18,-0.22 0.3,-0.3c0.128,-0.08 0.268,-0.136 0.42,-0.168c0.152,-0.032 0.304,-0.048 0.456,-0.048c0.232,0 0.444,0.02 0.636,0.06c0.2,0.04 0.376,0.108 0.528,0.204c0.152,0.096 0.272,0.228 0.36,0.396c0.096,0.168 0.152,0.38 0.168,0.636l1.824,0c0,-0.496 -0.096,-0.916 -0.288,-1.26c-0.184,-0.352 -0.436,-0.64 -0.756,-0.864c-0.32,-0.224 -0.688,-0.384 -1.104,-0.48c-0.408,-0.104 -0.836,-0.156 -1.284,-0.156c-0.384,0 -0.768,0.052 -1.152,0.156c-0.384,0.104 -0.728,0.264 -1.032,0.48c-0.304,0.216 -0.552,0.488 -0.744,0.816c-0.184,0.32 -0.276,0.7 -0.276,1.14c0,0.392 0.072,0.728 0.216,1.008c0.152,0.272 0.348,0.5 0.588,0.684c0.24,0.184 0.512,0.336 0.816,0.456c0.304,0.112 0.616,0.208 0.936,0.288c0.312,0.088 0.62,0.168 0.924,0.24c0.304,0.072 0.576,0.156 0.816,0.252c0.24,0.096 0.432,0.216 0.576,0.36c0.152,0.144 0.228,0.332 0.228,0.564c0,0.216 -0.056,0.396 -0.168,0.54c-0.112,0.136 -0.252,0.244 -0.42,0.324c-0.168,0.08 -0.348,0.136 -0.54,0.168c-0.192,0.024 -0.372,0.036 -0.54,0.036c-0.248,0 -0.488,-0.028 -0.72,-0.084c-0.232,-0.064 -0.436,-0.156 -0.612,-0.276c-0.168,-0.128 -0.304,-0.292 -0.408,-0.492c-0.104,-0.2 -0.156,-0.444 -0.156,-0.732Zm8.885,-4.14l0,6.984l1.884,0l0,-6.984l2.568,0l0,-1.584l-7.02,0l0,1.584l2.568,0Zm13.192,3.744l0,-5.328l-1.884,0l0,5.328c0,0.64 -0.128,1.112 -0.384,1.416c-0.256,0.296 -0.72,0.444 -1.392,0.444c-0.384,-0 -0.692,-0.052 -0.924,-0.156c-0.224,-0.112 -0.4,-0.252 -0.528,-0.42c-0.128,-0.176 -0.212,-0.376 -0.252,-0.6c-0.04,-0.224 -0.06,-0.452 -0.06,-0.684l0,-5.328l-1.884,0l0,5.328c0,1.168 0.316,2.032 0.948,2.592c0.64,0.56 1.54,0.84 2.7,0.84c1.144,0 2.04,-0.28 2.688,-0.84c0.648,-0.568 0.972,-1.432 0.972,-2.592Zm3.986,1.656l0,-5.4l1.344,0c0.465,0 0.852,0.068 1.164,0.204c0.321,0.128 0.576,0.316 0.768,0.564c0.192,0.248 0.329,0.548 0.408,0.9c0.089,0.344 0.132,0.732 0.132,1.164c0,0.472 -0.06,0.872 -0.18,1.2c-0.12,0.328 -0.279,0.596 -0.48,0.804c-0.199,0.2 -0.427,0.344 -0.684,0.432c-0.255,0.088 -0.519,0.132 -0.792,0.132l-1.68,0Zm-1.884,-6.984l0,8.568l3.696,0c0.657,0 1.224,-0.108 1.704,-0.324c0.489,-0.224 0.893,-0.528 1.212,-0.912c0.329,-0.384 0.573,-0.84 0.732,-1.368c0.161,-0.528 0.24,-1.104 0.24,-1.728c0,-0.712 -0.099,-1.332 -0.3,-1.86c-0.192,-0.528 -0.463,-0.968 -0.816,-1.32c-0.343,-0.352 -0.756,-0.616 -1.236,-0.792c-0.471,-0.176 -0.984,-0.264 -1.536,-0.264l-3.696,0Zm11.595,5.232l0,3.336l1.884,0l0,-3.288l3.18,-5.28l-2.1,0l-1.992,3.384l-2.004,-3.384l-2.112,0l3.144,5.232Z" style="fill:#6922ea;fill-rule:nonzero;"/><path d="M117.537,61.949c-13.72,0.747 -21.956,-2.552 -26.084,-4.665c-2.706,-1.386 -2.532,-1.688 -4.696,-2.742c-12.401,-6.016 -27.481,-0.609 -30.638,0.522c-12.926,4.64 -28.14,16.589 -30.344,31.358c-3.694,24.718 30.667,46.383 56.051,53.294c26.248,7.151 66.174,4.864 84.344,-20.145c8.149,-11.224 13.536,-24.463 10.114,-41.252c-2.021,-9.909 -9.991,-23.501 -23.067,-24.094c-13.192,-0.604 -14.405,6.563 -35.675,7.724l-0.005,0Z" style="fill:#f1f1f1;fill-rule:nonzero;"/><path d="M46.487,72.659l4.765,-0.505c0.493,-0.051 0.973,-0.398 0.947,-0.947c-0.019,-0.467 -0.417,-1.003 -0.947,-0.946l-4.765,0.504c-0.493,0.051 -0.973,0.398 -0.947,0.948c0.019,0.466 0.416,1.003 0.947,0.946Z" style="fill:#fff;fill-rule:nonzero;"/><path d="M44.833,72.186c6.735,3.667 13.71,4.487 21.278,4.5c4.058,0.007 4.065,-6.305 0,-6.312c-6.432,-0.013 -12.352,-0.511 -18.097,-3.635c-3.566,-1.945 -6.76,3.502 -3.187,5.447l0.006,0Z" style="fill:#fff;fill-rule:nonzero;"/><path d="M63.251,71.227c-6.072,0.561 -11.879,-2.184 -17.49,-4.166c-1.048,-0.373 -2.31,0.063 -3.068,0.814c-2.057,2.013 -2.777,4.696 -1.937,7.467c1.18,3.894 6.968,2.285 6.084,-1.679l-0.234,-1.048c-0.555,-2.493 -3.578,-2.828 -5.276,-1.395c-2.62,2.21 -7.505,0.575 -8.578,4.879c-0.852,3.415 2.146,5.757 5.195,6.047c4.374,0.41 8.982,-0.082 13.387,-0.019c4.905,0.063 9.803,0.246 14.694,0.512c4.059,0.22 4.047,-6.092 0.001,-6.312c-6.527,-0.354 -13.06,-0.55 -19.599,-0.543c-1.635,-0 -3.27,0.013 -4.904,0.037c-0.815,0.013 -1.635,0.026 -2.45,0.044c-1.533,-0.239 -1.578,0.708 -0.132,2.854c1.887,0.877 5.573,-1.95 6.849,-3.03l-5.277,-1.395l0.233,1.048l6.085,-1.679c-0.322,-0.537 -0.221,-0.978 0.316,-1.325l-3.068,0.813c6.16,2.172 12.498,5.013 19.169,4.394c4.008,-0.373 4.052,-6.685 0,-6.312l0,-0.006Z" style="fill:#fff;fill-rule:nonzero;"/><path d="M65.965,75.316c-8.079,-1.988 -16.253,-3.446 -24.515,-4.436c-4.027,-0.486 -3.989,5.832 -0,6.311c7.694,0.928 15.313,2.361 22.836,4.216c3.945,0.973 5.624,-5.112 1.679,-6.084l0,-0.007Z" style="fill:#fff;fill-rule:nonzero;"/><path d="M71.678,78.371c0.681,-0.593 1.54,-0.94 2.443,-1.022c0.353,-0.031 0.745,-0.019 1.098,0.038l0.575,0.145c0.504,0.272 0.523,0.095 0.044,-0.523l0.429,-1.591c-0,-0 -2.531,0.259 -3.106,0.29c-1.433,0.076 -2.853,0.013 -4.279,-0.126c-1.698,-0.164 -3.157,1.571 -3.157,3.156c0,1.843 1.452,2.992 3.157,3.156c3.048,0.296 6.482,0.309 9.443,-0.6c2.96,-0.909 4.961,-4.034 3.319,-6.924c-1.294,-2.273 -4.291,-3.239 -6.76,-3.333c-2.891,-0.107 -5.51,1.004 -7.669,2.872c-3.08,2.664 1.402,7.107 4.463,4.462Z" style="fill:#fff;fill-rule:nonzero;"/><path d="M69.626,82.266l6.376,0.101c4.064,0.063 4.064,-6.249 0,-6.312l-6.376,-0.101c-4.064,-0.063 -4.064,6.249 0,6.312Z" style="fill:#fff;fill-rule:nonzero;"/><path d="M117.125,80.897c1.053,-0.247 2.108,-0.493 3.161,-0.745c0.461,-0.108 0.922,-0.221 1.364,-0.398c0.467,-0.184 1.111,-0.417 1.3,-0.934c0.114,-0.303 0.063,-0.645 -0.183,-0.878c-0.246,-0.233 -0.568,-0.258 -0.877,-0.208c-0.48,0.082 -0.953,0.221 -1.415,0.366c-0.996,0.309 -1.968,0.713 -2.903,1.193c-0.719,0.373 -0.081,1.465 0.638,1.092c0.644,-0.335 1.3,-0.625 1.988,-0.865c0.341,-0.12 0.688,-0.227 1.042,-0.328c0.176,-0.051 0.353,-0.095 0.53,-0.139c0.094,-0.025 0.196,-0.044 0.29,-0.069c0.209,-0.051 -0.031,0.031 -0.138,-0.101l-0.165,-0.278l0.019,0.069l0,-0.334c0.057,-0.089 0.076,-0.114 0.063,-0.076c-0.05,0.031 -0.107,0.063 -0.163,0.094c-0.083,0.045 -0.165,0.089 -0.253,0.127c-0.177,0.082 -0.366,0.145 -0.556,0.202c-0.416,0.126 -0.845,0.221 -1.268,0.322l-2.816,0.663c-0.789,0.183 -0.454,1.401 0.335,1.218l0.007,0.007Z" style="fill:#fff;fill-rule:nonzero;"/><path d="M128.354,65.571l-0.001,2.6c0,0.405 0.177,0.828 0.461,1.118c0.284,0.29 0.726,0.479 1.117,0.46c0.391,-0.018 0.834,-0.151 1.117,-0.46c0.285,-0.31 0.462,-0.689 0.462,-1.118l-0,-2.6c-0,-0.404 -0.177,-0.827 -0.462,-1.117c-0.283,-0.291 -0.726,-0.48 -1.117,-0.461c-0.391,0.019 -0.833,0.151 -1.117,0.461c-0.284,0.309 -0.461,0.687 -0.461,1.117Z" style="fill:#fff;fill-rule:nonzero;"/><path d="M128.713,70.153l-0,2.235c-0,0.404 0.177,0.827 0.461,1.117c0.145,0.152 0.309,0.265 0.505,0.328c0.189,0.101 0.391,0.145 0.606,0.139c0.41,-0.019 0.833,-0.151 1.117,-0.461c0.284,-0.309 0.461,-0.688 0.461,-1.117l-0,-2.234c-0,-0.404 -0.177,-0.827 -0.461,-1.117c-0.145,-0.152 -0.309,-0.266 -0.505,-0.329c-0.189,-0.101 -0.391,-0.145 -0.606,-0.139c-0.41,0.019 -0.833,0.152 -1.117,0.461c-0.284,0.31 -0.461,0.688 -0.461,1.117Z" style="fill:#fff;fill-rule:nonzero;"/><path d="M128.694,73.676l-0.031,9.146c-0,0.681 0.58,1.262 1.262,1.262c0.681,0 1.262,-0.581 1.262,-1.262l0.032,-9.147c0,-0.681 -0.581,-1.262 -1.263,-1.262c-0.681,0 -1.262,0.581 -1.262,1.263Z" style="fill:#fff;fill-rule:nonzero;"/><path d="M128.594,83.497l-0.127,8.06c-0.013,0.663 0.587,1.294 1.262,1.262c0.676,-0.031 1.25,-0.555 1.263,-1.262l0.126,-8.06c0.013,-0.663 -0.587,-1.294 -1.262,-1.263c-0.676,0.032 -1.25,0.556 -1.262,1.263Z" style="fill:#fff;fill-rule:nonzero;"/><path d="M128.574,93.458l-0.233,5.484c-0.032,0.663 0.599,1.294 1.262,1.263c0.707,-0.032 1.231,-0.555 1.262,-1.263l0.234,-5.484c0.032,-0.663 -0.6,-1.295 -1.262,-1.264c-0.707,0.032 -1.232,0.556 -1.263,1.264Z" style="fill:#fff;fill-rule:nonzero;"/><path d="M128.536,100.634l-0.044,4.608c-0.006,0.662 0.588,1.294 1.263,1.262c0.675,-0.032 1.256,-0.555 1.262,-1.263l0.044,-4.607c0.007,-0.663 -0.587,-1.294 -1.262,-1.263c-0.676,0.032 -1.257,0.556 -1.263,1.263Z" style="fill:#fff;fill-rule:nonzero;"/><path d="M128.625,106.119l0.195,3.592c0.038,0.656 0.556,1.294 1.263,1.262c0.656,-0.032 1.3,-0.556 1.262,-1.262l-0.195,-3.592c-0.039,-0.656 -0.556,-1.294 -1.263,-1.262c-0.657,0.031 -1.3,0.555 -1.262,1.262Z" style="fill:#fff;fill-rule:nonzero;"/><path d="M128.422,110.184l0.083,6.097c0.006,0.663 0.575,1.294 1.262,1.263c0.688,-0.032 1.269,-0.556 1.262,-1.263l-0.081,-6.097c-0.007,-0.663 -0.575,-1.294 -1.263,-1.262c-0.688,0.031 -1.268,0.555 -1.263,1.262Z" style="fill:#fff;fill-rule:nonzero;"/><path d="M128.328,117.026l0.139,2.777c0.018,0.335 0.132,0.651 0.372,0.89c0.221,0.221 0.581,0.385 0.89,0.373c0.31,-0.013 0.663,-0.12 0.89,-0.373c0.227,-0.252 0.385,-0.555 0.373,-0.89l-0.139,-2.777c-0.019,-0.334 -0.132,-0.65 -0.372,-0.89c-0.222,-0.22 -0.581,-0.385 -0.891,-0.372c-0.309,0.012 -0.663,0.12 -0.889,0.372c-0.227,0.253 -0.386,0.556 -0.373,0.89Z" style="fill:#fff;fill-rule:nonzero;"/><path d="M71.173,82.67l-0,2.626c-0,0.322 0.138,0.662 0.373,0.889c0.233,0.228 0.58,0.386 0.89,0.373c0.681,-0.031 1.262,-0.556 1.262,-1.262l0,-2.626c0,-0.322 -0.139,-0.663 -0.373,-0.89c-0.233,-0.227 -0.58,-0.385 -0.889,-0.372c-0.682,0.032 -1.263,0.555 -1.263,1.262Z" style="fill:#fff;fill-rule:nonzero;"/><path d="M70.882,86.457l0.026,8.496c0,0.682 0.581,1.262 1.262,1.262c0.682,0 1.263,-0.58 1.263,-1.262l-0.025,-8.496c-0,-0.682 -0.581,-1.262 -1.263,-1.262c-0.682,-0 -1.263,0.58 -1.263,1.262Z" style="fill:#fff;fill-rule:nonzero;"/><path d="M70.605,96.342l0.12,5.87c0.013,0.662 0.568,1.294 1.262,1.263c0.695,-0.032 1.275,-0.556 1.262,-1.263l-0.12,-5.87c-0.012,-0.663 -0.567,-1.295 -1.262,-1.262c-0.694,0.031 -1.275,0.555 -1.262,1.262Z" style="fill:#fff;fill-rule:nonzero;"/><path d="M81.531,106.548c-5.258,-2.102 -11.482,0.448 -14.069,5.391c-1.269,2.417 -0.619,5.485 1.811,6.911c2.273,1.332 5.637,0.612 6.912,-1.811c0.139,-0.297 0.303,-0.581 0.492,-0.852c-0.277,0.378 -0.221,0.346 0.183,-0.095c-0.764,0.36 0.663,-0.499 -0.133,0.019c0.575,-0.114 0.701,-0.171 0.392,-0.171c-0.316,-0.006 -0.177,-0.019 0.417,-0.031c0.637,0.019 0.732,0.025 0.283,0.019c0.354,0.088 0.701,0.208 1.036,0.36c2.461,0.984 5.649,-1.074 6.211,-3.529c0.663,-2.916 -0.897,-5.157 -3.529,-6.211l-0.006,-0Z" style="fill:#fff;fill-rule:nonzero;"/><path d="M70.555,108.297c-1.774,0.833 -3.264,2.196 -4.463,3.73c-0.676,0.859 -1.307,1.736 -1.913,2.638c-0.278,0.417 -0.562,0.833 -0.839,1.257c-0.543,0.833 0.265,-0.253 -0.436,0.574c-1.698,2.02 -2.127,5.189 -0,7.138c1.875,1.724 5.321,2.16 7.139,0c1.256,-1.489 2.342,-3.092 3.415,-4.714c0.202,-0.31 0.404,-0.562 0.057,-0.127c0.239,-0.303 0.492,-0.586 0.763,-0.865c0.253,-0.258 0.764,-0.675 0.183,-0.258c0.373,-0.265 0.777,-0.474 1.187,-0.663c2.398,-1.123 3.194,-4.759 1.812,-6.912c-1.591,-2.467 -4.343,-3.01 -6.912,-1.811l0.007,0.013Z" style="fill:#fff;fill-rule:nonzero;"/><path d="M64.665,113.44c-4.121,4.344 -7.309,9.816 -8.275,15.787c-0.966,5.971 1.421,12.561 7.871,14.044c2.739,0.631 5.353,-0.833 6.211,-3.528l3.825,-11.955c0.846,-2.651 0.96,-5.612 4.172,-5.675c1.212,-0.025 2.664,-0.075 3.825,0.309c0.878,0.291 0.108,-0.479 0.279,0.064c0.189,0.587 -0.089,1.287 -0.171,1.881c-0.562,3.875 -1.471,7.732 -2.203,11.576l9.74,-0c-1.414,-4.519 -0.777,-9.335 -3.378,-13.521c-2.587,-4.159 -7.58,-6.343 -12.321,-4.758c-5.434,1.811 -4.418,9.606 1.345,9.915l21.808,1.181l-1.344,-9.916l-5,1.527l4.911,8.439c0.41,-0.41 2.184,-0.649 2.973,-0.985c1.187,-0.498 2.253,-1.155 3.156,-2.076c2.31,-2.355 2.663,-5.914 0.998,-8.73c-1.484,-2.499 -3.952,-5.005 -6.003,-7.025c-2.304,-2.266 -5.214,-3.326 -8.389,-2.467l4.911,8.439c-1.143,1.332 -1.155,-0.966 -0.493,0.403c0.303,0.632 1.578,1.686 2.027,2.235c1.236,1.496 2.348,3.086 3.389,4.721c1.042,1.635 2.051,3.447 2.935,5.246c0.657,1.344 2.058,3.553 2.07,5.1l0.688,-2.55c0.619,-0.386 0.626,-0.461 0.02,-0.234c-0.506,0.164 -1.023,0.297 -1.547,0.397c-1.143,0.228 -2.254,0.234 -3.421,0.203l4.362,7.6c1.937,-3.188 2.884,-6.717 2.764,-10.447l-9.916,1.345c0.795,2.158 0.404,3.711 -1.351,5.207c-4.948,4.229 2.222,11.342 7.139,7.138c4.235,-3.622 5.87,-9.795 3.945,-15.034c-1.925,-5.24 -10.105,-4.703 -9.916,1.344c0.063,2.038 -0.322,3.598 -1.389,5.353c-2.039,3.357 0.619,7.492 4.362,7.599c4.626,0.126 11.336,-0.72 13.665,-5.371c2.329,-4.652 -1.635,-10.75 -3.762,-14.688c-2.348,-4.355 -5.295,-8.913 -8.931,-12.302c-3.636,-3.389 -10.03,-4.797 -13.792,-0.404c-3.168,3.698 -0.221,9.815 4.911,8.439c-1.54,-0.461 -1.843,-0.309 -0.902,0.461l1.59,1.798l1.59,1.8c0.928,1.212 1.048,1.205 0.36,-0.006l0.688,-2.55c0.158,-0.316 0.6,-0.089 0.234,-0.177c-0.537,-0.133 -1.66,0.435 -2.146,0.606c-1.56,0.543 -2.809,1.306 -3.977,2.48c-3.478,3.503 0.013,9.935 4.911,8.439l4.999,-1.527c5.536,-1.692 4.336,-9.614 -1.344,-9.917l-21.809,-1.18l1.345,9.916c2.197,-0.732 2.828,9.784 3.276,11.229c1.382,4.431 8.755,5.17 9.74,0l1.761,-9.259c0.555,-2.923 1.319,-5.94 0.77,-8.913c-1.136,-6.097 -6.463,-7.959 -11.98,-8.357c-5.518,-0.398 -11.078,1.288 -13.678,6.741c-2.715,5.7 -4.154,12.214 -6.073,18.216l6.211,-3.528c-3.68,-0.846 3.591,-11.614 4.861,-12.952c4.475,-4.715 -2.658,-11.867 -7.139,-7.139l0.012,-0.007Z" style="fill:#fff;fill-rule:nonzero;"/><path d="M58.246,151.421c16.903,3.313 33.921,7.441 51.184,8.243c6.495,0.303 6.483,-9.797 0,-10.1c-16.354,-0.757 -32.481,-4.74 -48.495,-7.883c-6.35,-1.243 -9.064,8.489 -2.683,9.74l-0.006,-0Z" style="fill:#fff;fill-rule:nonzero;"/><path d="M52.963,152.348c4.885,4.784 11.456,4.784 17.875,5.106l20.376,1.017c6.494,0.321 6.476,-9.778 -0.001,-10.099l-16.777,-0.834c-2.783,-0.139 -5.567,-0.227 -8.344,-0.417c-2.165,-0.151 -4.368,-0.327 -5.984,-1.905c-4.645,-4.551 -11.797,2.587 -7.138,7.138l-0.007,-0.006Z" style="fill:#fff;fill-rule:nonzero;"/><path d="M54.055,139.541c6.502,0 6.508,-10.099 -0,-10.099c-6.508,-0 -6.508,10.099 -0,10.099Z" style="fill:#fff;fill-rule:nonzero;"/><path d="M54.661,129.328l-7.101,-0.524c-2.639,-0.196 -5.163,2.462 -5.05,5.05c0.133,2.903 2.222,4.841 5.05,5.05l7.101,0.523c2.638,0.196 5.163,-2.461 5.049,-5.05c-0.132,-2.903 -2.222,-4.841 -5.049,-5.049Z" style="fill:#fff;fill-rule:nonzero;"/><path d="M41.57,130.931c0.618,9.008 0.782,18.021 0.492,27.047c-0.095,2.847 4.324,2.841 4.419,0c0.29,-9.02 0.132,-18.039 -0.492,-27.047c-0.196,-2.821 -4.615,-2.84 -4.419,0Z" style="fill:#fff;fill-rule:nonzero;"/><path d="M41.456,157.871l0.272,1.691c0.082,0.512 0.587,1.067 1.016,1.32c0.473,0.277 1.174,0.397 1.704,0.221c0.53,-0.177 1.048,-0.506 1.319,-1.016c0.297,-0.556 0.322,-1.086 0.221,-1.705l-0.271,-1.691c-0.082,-0.512 -0.587,-1.067 -1.016,-1.32c-0.474,-0.277 -1.175,-0.397 -1.705,-0.221c-0.53,0.177 -1.048,0.506 -1.319,1.017c-0.297,0.555 -0.322,1.085 -0.221,1.704Z" style="fill:#fff;fill-rule:nonzero;"/><path d="M43.514,161.602c0.467,-0.159 0.94,-0.285 1.42,-0.386c0.208,-0.044 0.41,-0.082 0.619,-0.113c0.069,-0.013 0.138,-0.019 0.208,-0.031c-0.247,0.031 -0.284,0.037 -0.108,0.012c0.108,-0.012 0.209,-0.025 0.316,-0.032c0.947,-0.088 1.894,-0.069 2.834,0.044c0.373,0.044 0.865,-0.208 1.118,-0.46c0.271,-0.272 0.479,-0.726 0.46,-1.118c-0.019,-0.391 -0.151,-0.833 -0.46,-1.117c-0.329,-0.303 -0.676,-0.41 -1.118,-0.461c-2.045,-0.252 -4.172,-0.024 -6.129,0.619c-0.782,0.259 -1.376,1.098 -1.104,1.944c0.252,0.776 1.104,1.382 1.944,1.105l-0,-0.006Z" style="fill:#fff;fill-rule:nonzero;"/><path d="M48.803,161.462l11.892,-0.877c0.852,-0.063 1.578,-0.682 1.578,-1.578c0,-0.808 -0.726,-1.641 -1.578,-1.578l-11.892,0.877c-0.852,0.063 -1.578,0.682 -1.578,1.578c0,0.808 0.726,1.641 1.578,1.578Z" style="fill:#fff;fill-rule:nonzero;"/><path d="M61.85,154.526l-6.753,-0.089c-1.497,-0.019 -5.107,0.606 -6.003,-0.669c-0.675,-0.959 -0.133,-4.766 -0.165,-5.984l-0.196,-7.183c-0.087,-3.244 -5.137,-3.256 -5.049,0l0.259,9.576c0.069,2.462 -0.385,5.725 1.445,7.694c1.578,1.698 3.876,1.54 6.022,1.566l10.434,0.138c3.251,0.044 3.251,-5.005 -0.001,-5.049l0.007,-0Z" style="fill:#fff;fill-rule:nonzero;"/><path d="M44.183,141.34c1.893,3.907 3.137,7.991 3.888,12.264c0.638,3.617 5.706,2.967 6.697,-0c1.124,-3.358 1.685,-6.804 1.774,-10.345l-6.817,0.921l1.212,6.457c0.789,4.21 6.362,2.595 6.817,-0.921c0.675,-5.189 0.814,-10.365 0.41,-15.579c-0.29,-3.761 -5.737,-4.885 -6.817,-0.921c-1.079,3.964 -1.654,7.575 -1.944,11.457l6.943,-0c-0.032,-2.127 0.569,-3.699 1.837,-5.397l-6.344,-0.827c0.53,1.666 0.707,3.087 0.353,4.81c-0.789,3.844 4.148,6.04 6.344,2.676c-1.464,-2.999 -2.562,-3.49 -3.288,-1.471l-1.212,2.07c-0.808,1.383 -1.641,2.753 -2.424,4.141c-1.218,2.153 -2.354,4.394 -1.066,6.811c2.354,4.418 9.146,3.402 13.116,2.455c4.342,-1.035 2.505,-7.732 -1.843,-6.697c-0.771,0.184 -1.547,0.373 -2.343,0.448c-0.359,0.032 -2.297,-0.196 -2.65,0.013c-0.625,-0.183 -0.669,0.063 -0.133,0.739c0.146,0.94 0.348,1.022 0.612,0.252c0.455,-0.278 0.935,-1.597 1.212,-2.07c1.465,-2.506 4.103,-5.637 4.355,-8.622c0.215,-2.589 -1.47,-4.804 -4.058,-5.183c-2.847,-0.416 -4.809,1.37 -6.274,3.605l6.343,2.676c0.6,-2.923 0.556,-5.649 -0.353,-8.502c-0.966,-3.049 -4.589,-3.188 -6.343,-0.827c-1.945,2.613 -2.835,5.655 -2.784,8.9c0.069,4.512 6.608,4.411 6.943,-0c0.246,-3.276 0.833,-6.445 1.698,-9.614l-6.817,-0.922c0.404,5.214 0.272,10.39 -0.41,15.579l6.817,-0.922l-1.212,-6.457c-0.745,-3.952 -6.728,-2.871 -6.817,0.922c-0.07,2.953 -0.587,5.699 -1.521,8.495l6.697,0c-0.859,-4.873 -2.43,-9.474 -4.589,-13.924c-1.95,-4.02 -7.941,-0.504 -5.996,3.504l-0.013,0.006Z" style="fill:#fff;fill-rule:nonzero;"/><path d="M61.08,161.21l21.007,0c4.468,0.013 4.475,-6.931 -0,-6.936l-21.007,-0c-4.468,-0.013 -4.475,6.929 0,6.936Z" style="fill:#fff;fill-rule:nonzero;"/><path d="M82.636,161.191c9.619,-0.587 19.245,-0.631 28.87,-0.139c4.469,0.227 4.457,-6.715 0,-6.943c-9.625,-0.492 -19.251,-0.448 -28.87,0.139c-4.438,0.272 -4.469,7.214 -0,6.943Z" style="fill:#fff;fill-rule:nonzero;"/><path d="M111.362,143.234c-10.642,-0.537 -21.253,0.384 -31.668,2.644c-4.362,0.947 -2.518,7.644 1.843,6.697c9.822,-2.133 19.782,-2.897 29.818,-2.392c4.469,0.227 4.456,-6.716 -0,-6.943l0.006,-0.007Z" style="fill:#fff;fill-rule:nonzero;"/><path d="M110.888,149.704l0.145,0.056l-0.826,-0.347c0.144,0.076 0.264,0.151 0.391,0.246l-0.701,-0.543c0.082,0.069 0.151,0.139 0.221,0.221l-0.543,-0.701c0.094,0.133 0.17,0.253 0.24,0.398l-0.347,-0.827c0.057,0.152 0.094,0.291 0.12,0.448l-0.126,-0.921c0.012,0.164 -0,0.303 -0.02,0.467l0.127,-0.921c-0.02,0.1 -0.044,0.201 -0.083,0.303l0.348,-0.828c-0.063,0.152 -0.133,0.272 -0.221,0.411l0.542,-0.701c-0.063,0.083 -0.132,0.158 -0.207,0.233c-1.282,1.288 -1.383,3.636 -0,4.911c1.382,1.275 3.54,1.377 4.91,0c1.263,-1.268 1.862,-3.181 1.395,-4.935c-0.221,-0.834 -0.644,-1.591 -1.231,-2.223c-0.669,-0.719 -1.388,-1.072 -2.284,-1.419c-0.789,-0.303 -1.97,-0.063 -2.677,0.347c-0.707,0.41 -1.408,1.249 -1.597,2.077c-0.202,0.889 -0.157,1.887 0.347,2.676c0.505,0.789 1.187,1.249 2.077,1.596l0,-0.024Z" style="fill:#fff;fill-rule:nonzero;"/><path d="M152.061,91.69c-1.306,-1.446 -3.181,-2.254 -5.119,-2.304c-2.67,-0.063 -4.917,2.291 -4.172,4.999c0.397,1.458 1.672,2.379 3.086,2.632c1.578,0.284 -0.151,-0.037 -0.151,-0.082c0.012,0.189 0.681,0.416 0.858,0.498c1.944,0.929 3.933,0.713 5.978,0.31l-3.92,-5.1c-1.376,2.689 0.227,5.706 3.327,5.782c1.874,0.044 3.471,-1.629 3.471,-3.472c-0,-1.843 -1.59,-3.428 -3.471,-3.472l-0.222,0l2.456,1.01l-0.17,-0.138l0.889,1.533l-0.037,-0.214l-0.348,2.676l0.102,-0.196c1.426,-2.796 -0.916,-5.693 -3.921,-5.1c-0.264,0.057 -0.523,0.101 -0.789,0.152c0.259,-0.045 0.171,-0.051 -0.271,-0.013c-0.423,-0.019 -0.448,-0.019 -0.076,-0c0.253,0.145 0.278,0.157 0.063,0.031c-0.839,-0.877 -2.19,-0.946 -3.301,-1.079l1.755,0.473l-0.195,-0.144l1.716,2.997l-0.018,-0.252l-0.474,1.755l0.158,-0.215l-1.244,1.244l0.24,-0.108l-1.755,0.474c0.24,-0.025 0.972,-0.032 0.329,-0.069c0.126,0.006 0.107,0.063 0.328,0.309c1.256,1.395 3.629,1.281 4.911,-0c1.382,-1.383 1.262,-3.516 -0,-4.911l-0.013,-0.006Z" style="fill:#fff;fill-rule:nonzero;"/><path d="M145.219,98.513c4.469,0 4.475,-6.943 -0,-6.943c-4.476,-0 -4.476,6.943 -0,6.943Z" style="fill:#fff;fill-rule:nonzero;"/><path d="M147.233,98.513c4.468,0 4.475,-6.943 -0,-6.943c-4.476,-0 -4.476,6.943 -0,6.943Z" style="fill:#fff;fill-rule:nonzero;"/><path d="M133.618,125.617c1.293,1.149 2.827,1.799 4.582,1.653c0.84,-0.069 1.622,-0.245 2.411,-0.511c0.297,-0.101 0.713,-0.163 0.978,-0.322c0.531,-0.309 0.632,0.398 -0.555,-0.316l-1.244,-1.243l-0.126,-0.284l0.347,-2.676l-0.113,0.265c-0.732,1.723 -0.518,3.718 1.243,4.753c1.458,0.852 4.009,0.486 4.754,-1.244c0.567,-1.338 0.845,-2.733 0.069,-4.065c-0.619,-1.053 -1.623,-1.779 -2.802,-2.076c-1.181,-0.297 -2.507,-0.076 -3.662,0.265c-0.353,0.101 -0.946,0.196 -1.224,0.41c-0.423,0.335 -0.398,-0.088 0.246,0.48c-1.402,-1.244 -3.529,-1.382 -4.911,-0c-1.268,1.269 -1.408,3.661 0,4.911l0.007,-0Z" style="fill:#fff;fill-rule:nonzero;"/><path d="M122.951,132.465l2.587,5.177c0.959,1.924 3.838,2.619 5.612,1.47c1.969,-1.269 2.499,-3.554 1.47,-5.611l-2.588,-5.176c-0.959,-1.925 -3.838,-2.62 -5.611,-1.471c-1.969,1.268 -2.499,3.554 -1.471,5.611Z" style="fill:#fff;fill-rule:nonzero;"/><path d="M126.087,134.662l20.88,-0.038l-2.228,-8.231c-3.692,1.679 -6.23,4.892 -8.111,8.389c-0.984,1.831 -1.798,3.755 -2.89,5.523c-0.506,0.814 -1.029,1.609 -1.737,2.265l-0.624,0.569c-1.301,0.587 -1.098,0.758 0.599,0.505l2.638,2.032c0.196,1.25 0.297,1.408 0.31,0.474c0.044,-0.581 0.095,-1.155 0.164,-1.736c0.132,-1.149 0.315,-2.278 0.537,-3.415c0.435,-2.285 1.035,-4.526 1.716,-6.742l-8.521,0l2.02,4.899c1.704,4.135 6.836,4.21 8.521,-0c0.656,-1.641 0.903,-3.327 0.833,-5.088c-0.12,-2.979 -3.812,-5.99 -6.646,-3.812c-1.161,0.89 -0.278,0.524 -0.764,0.385c-0.549,-0.157 -1.332,-1.288 -1.818,-1.666c-1.672,-1.307 -3.812,-2.039 -5.94,-1.553c-5.554,1.281 -4.752,7.038 -4.538,11.387c0.278,5.649 8.906,5.725 8.837,-0l-0.012,-0.827c-0.07,-5.687 -8.774,-5.693 -8.837,0l-0.082,7.208c-0.026,1.907 -0.228,3.939 0.58,5.719c1.768,3.882 6.003,4.381 9.708,3.37c5.479,-1.489 3.156,-10.017 -2.348,-8.521l-0.808,0.221c1.25,1.989 1.812,2.323 1.679,1.011c0.272,-0.619 0.026,-2.393 0.038,-3.006l0.07,-6.009l-8.837,0l0.012,0.828l8.837,-0l-0.145,-2.948l-0.089,-1.768l-3.357,1.989c-0,0.738 2.733,2.342 3.276,2.619c2.84,1.44 6.482,1.118 9,-0.814l-6.646,-3.812c0.044,1.149 -0.089,1.672 -0.518,2.739l8.522,0l-2.021,-4.898c-1.596,-3.876 -7.132,-4.488 -8.52,0c-1.452,4.703 -6.843,23.462 4.222,20.23c3.996,-1.168 6.937,-4.88 8.888,-8.351c1.95,-3.471 3.237,-7.928 7.265,-9.765c4.027,-1.836 1.887,-8.243 -2.228,-8.23l-20.88,0.037c-5.688,0.013 -5.694,8.85 -0,8.838l-0.007,-0.007Z" style="fill:#fff;fill-rule:nonzero;"/><path d="M120.331,126.822l0.013,5c-0.001,0.631 0.479,1.154 1.091,1.236c0.568,0.076 1.275,-0.283 1.383,-0.902l0.713,-4.071c0.063,-0.341 0.057,-0.663 -0.126,-0.972c-0.151,-0.259 -0.454,-0.512 -0.757,-0.581c-0.613,-0.139 -1.434,0.189 -1.554,0.884l-0.713,4.071l2.481,0.334l-0.013,-4.999c0,-0.662 -0.58,-1.294 -1.262,-1.262c-0.682,0.031 -1.262,0.555 -1.262,1.262l0.006,-0Z" style="fill:#fff;fill-rule:nonzero;"/><path d="M122.496,128.217l2.083,0.057c0.315,0.007 0.669,-0.145 0.89,-0.372c0.221,-0.227 0.385,-0.581 0.372,-0.89c-0.013,-0.309 -0.12,-0.663 -0.372,-0.891c-0.253,-0.227 -0.55,-0.359 -0.89,-0.371l-2.083,-0.058c-0.316,-0.005 -0.669,0.146 -0.89,0.373c-0.222,0.227 -0.385,0.581 -0.373,0.89c0.013,0.309 0.12,0.663 0.373,0.89c0.252,0.227 0.549,0.36 0.89,0.372Z" style="fill:#fff;fill-rule:nonzero;"/><path d="M119.315,149.009l0.782,4.74c0.088,0.543 0.707,0.922 1.218,0.928l5.138,0.082c0.663,0.013 1.294,-0.587 1.263,-1.262c-0.031,-0.675 -0.556,-1.25 -1.263,-1.263l-5.138,-0.082l1.219,0.928l-0.783,-4.74c-0.108,-0.657 -0.953,-1.079 -1.553,-0.884c-0.706,0.227 -0.997,0.853 -0.883,1.553Z" style="fill:#fff;fill-rule:nonzero;"/><path d="M114.801,160.844l10.497,0.044c2.437,0.012 2.443,-3.774 0,-3.787l-10.497,-0.044c-2.436,-0.013 -2.442,3.775 0,3.787Z" style="fill:#fff;fill-rule:nonzero;"/><path d="M140.132,93.545l-0.904,1.029c-1.148,1.307 -0.303,3.056 1.339,3.232l6.123,0.657c1.016,0.107 1.893,-0.947 1.893,-1.894c0,-1.117 -0.871,-1.786 -1.893,-1.893l-6.123,-0.657l1.338,3.232l0.903,-1.029c1.603,-1.824 -1.067,-4.514 -2.676,-2.677Z" style="fill:#fff;fill-rule:nonzero;"/><path d="M61.074,77.349c7.72,0 7.732,-11.993 0,-11.993c-7.733,0 -7.733,11.993 0,11.993Z" style="fill:#fff;fill-rule:nonzero;"/><path d="M49.088,78.7c7.719,-0 7.731,-11.993 -0,-11.993c-7.733,0 -7.733,11.993 -0,11.993Z" style="fill:#fff;fill-rule:nonzero;"/><path d="M47.901,78.365c7.719,0 7.732,-11.993 -0,-11.993c-7.732,0 -7.732,11.993 -0,11.993Z" style="fill:#fff;fill-rule:nonzero;"/><path d="M148.11,131.879c-0.329,1.521 -0.733,3.036 -1.724,4.285l10.024,2.645l-0.606,-2.159c-1.326,-4.734 -6.583,-5.34 -10.024,-2.644c-6.552,5.144 -1.464,12.093 1.086,17.622c0.189,0.411 0.139,0.297 -0.151,-0.334c0.17,0.676 0.196,0.562 0.063,-0.347c-0.101,1.08 0.637,-2.916 1.502,-2.373c0.322,0.201 -2.089,0.561 -1.395,0.46c-1.079,0.164 -2.323,0.007 -3.409,-0.044c-5.51,-0.246 -11.02,-0.233 -16.536,-0.278c-7.72,-0.057 -7.727,11.937 -0,11.993c5.857,0.044 11.702,0.164 17.559,0.316c5.169,0.132 11.147,-1.099 13.502,-6.255c1.634,-3.592 0.322,-7.31 -1.484,-10.56c-0.347,-0.625 -0.72,-1.231 -1.066,-1.85c-0.19,-0.328 -1.042,-1.818 -0.764,-1.338c0.391,0.676 -0.215,-0.259 -0.12,-0.391c0.31,-0.436 -0.152,0.871 -0,0.328c0.019,-0.063 -1.054,2.121 -0.291,1.521l-10.023,-2.644l0.606,2.158c1.111,3.964 7.12,6.312 10.023,2.645c2.304,-2.91 4.015,-5.914 4.804,-9.582c1.623,-7.524 -9.935,-10.743 -11.563,-3.187l-0.013,0.013Z" style="fill:#fff;fill-rule:nonzero;"/><path d="M141.627,152.72l5.081,-2.67c2.784,-1.464 3.851,-5.567 2.153,-8.206c-1.824,-2.827 -5.226,-3.711 -8.206,-2.151l-5.081,2.67c-2.784,1.464 -3.85,5.566 -2.152,8.205c1.824,2.828 5.226,3.711 8.205,2.152Z" style="fill:#fff;fill-rule:nonzero;"/><path d="M128.354,160.889c5.787,-0.885 11.645,-1.087 17.489,-0.847c7.72,0.316 7.701,-11.677 0,-11.993c-6.949,-0.283 -13.81,0.221 -20.677,1.276c-3.207,0.492 -4.974,4.513 -4.192,7.378c0.941,3.421 4.166,4.677 7.379,4.191l0,-0.006Z" style="fill:#fff;fill-rule:nonzero;"/><path d="M129.3,161.318l29.275,-0.222c4.09,-0.031 6.571,-3.793 5.781,-7.593c-1.142,-5.517 -1.205,-11.065 -0.523,-16.645c0.397,-3.219 -3.036,-5.996 -5.996,-5.996c-3.567,0 -5.599,2.765 -5.996,5.996c-0.815,6.653 -0.411,13.275 0.952,19.833l5.782,-7.594l-29.275,0.221c-7.713,0.057 -7.732,12.05 0,11.993l0,0.006Z" style="fill:#fff;fill-rule:nonzero;"/><path d="M163.7,119.09c-0.347,0.12 -0.347,0.12 -0.006,0c0.36,-0.082 0.347,-0.094 -0.051,-0.031c0.196,-0.013 0.941,0.082 0.227,-0.063c0.102,0.019 0.916,0.277 0.266,-0c0.164,0.076 0.322,0.163 0.473,0.259c-0.271,-0.234 -0.271,-0.234 0,0.006c1.225,1.11 3.27,1.3 4.463,-0c1.11,-1.213 1.306,-3.282 -0,-4.463c-2.405,-2.178 -5.662,-2.644 -8.559,-1.162c-1.471,0.752 -2.02,2.942 -1.13,4.318c0.972,1.502 2.739,1.938 4.317,1.129l0,0.007Z" style="fill:#fff;fill-rule:nonzero;"/><path d="M157.414,95.105c-2.796,-1.516 -3.744,-1.49 -2.847,0.062c0.183,0.449 0.441,0.846 0.776,1.194c0.593,0.663 1.351,1.06 2.171,1.35c2.027,0.707 4.526,0.354 6.641,0.354c4.065,-0 4.065,-6.287 -0,-6.312c-4.721,-0.025 -9.411,-0.372 -14.082,-1.124c-3.977,-0.637 -5.688,5.441 -1.679,6.085c5.226,0.839 10.465,1.313 15.755,1.345l-0,-6.312l-4.4,-0c-0.492,-0.051 -0.366,0.076 0.379,0.379c-0.682,-1.276 -1.036,-2.362 -2.494,-2.999c-3.174,-1.388 -5.832,1.332 -6.312,4.298c-0.643,3.977 5.442,5.688 6.085,1.679l0.007,0Z" style="fill:#fff;fill-rule:nonzero;"/><path d="M161.592,92.422l-9.903,0.031c-4.059,0.013 -4.072,6.325 0,6.312l9.903,-0.031c4.059,-0.013 4.072,-6.325 -0,-6.312Z" style="fill:#fff;fill-rule:nonzero;"/><path d="M154.214,89.822l-1.749,0.504c-0.77,0.221 -1.477,0.758 -1.887,1.452c-0.411,0.695 -0.562,1.673 -0.316,2.43c0.246,0.758 0.72,1.502 1.452,1.888c0.732,0.385 1.603,0.555 2.43,0.315l1.749,-0.505c0.769,-0.221 1.476,-0.757 1.887,-1.452c0.41,-0.694 0.561,-1.672 0.316,-2.43c-0.246,-0.757 -0.721,-1.502 -1.452,-1.887c-0.733,-0.385 -1.604,-0.556 -2.43,-0.316Z" style="fill:#fff;fill-rule:nonzero;"/><path d="M165.367,111.547c-0.202,0.025 -0.366,0.019 -0.568,-0.006l0.839,0.114c-1.041,-0.215 -2.064,-0.468 -3.124,-0.171c-1.351,0.379 -2.348,1.427 -2.752,2.752c-0.613,1.995 1.048,3.971 3.042,3.995l0.126,0c1.654,0.026 3.232,-1.464 3.156,-3.155c-0.076,-1.692 -1.388,-3.131 -3.156,-3.156l-0.126,-0l3.043,3.996l0.037,-0.127l-0.316,0.751l0.064,-0.114l-0.492,0.638c0.057,-0.076 0.12,-0.132 0.195,-0.183l-0.637,0.492l0.12,-0.069l-0.752,0.316c0.083,-0.039 0.171,-0.063 0.266,-0.082l-0.839,0.113c0.126,-0.019 0.252,-0.019 0.378,0l-0.84,-0.113c0.777,0.119 1.553,0.41 2.342,0.322c0.865,-0.102 1.591,-0.285 2.235,-0.922c0.549,-0.549 0.959,-1.445 0.921,-2.235c-0.038,-0.788 -0.302,-1.66 -0.921,-2.234c-0.575,-0.53 -1.421,-1.016 -2.235,-0.922l-0.006,0Z" style="fill:#fff;fill-rule:nonzero;"/><path d="M170.751,117.367c3.251,-0 3.257,-5.05 0,-5.05c-3.257,0 -3.257,5.05 0,5.05Z" style="fill:#fff;fill-rule:nonzero;"/><path d="M171.281,116.546c3.251,0 3.257,-5.05 0,-5.05c-3.257,0 -3.257,5.05 0,5.05Z" style="fill:#fff;fill-rule:nonzero;"/><path d="M171.805,115.96c3.25,-0 3.257,-5.05 -0,-5.05c-3.257,-0 -3.257,5.05 -0,5.05Z" style="fill:#fff;fill-rule:nonzero;"/><path d="M172.102,115.726c3.25,-0 3.257,-5.05 -0,-5.05c-3.258,0 -3.258,5.05 -0,5.05Z" style="fill:#fff;fill-rule:nonzero;"/><path d="M172.625,115.373c3.252,-0.001 3.257,-5.05 0,-5.05c-3.256,-0 -3.256,5.049 0,5.049Z" style="fill:#fff;fill-rule:nonzero;"/><path d="M172.512,116.957c3.251,-0.001 3.257,-5.05 0,-5.05c-3.257,-0 -3.257,5.049 0,5.049Z" style="fill:#fff;fill-rule:nonzero;"/><path d="M169.924,114.899l-0,0.056c-0.013,0.348 0.057,0.67 0.214,0.973c0.101,0.315 0.278,0.587 0.525,0.814c0.227,0.246 0.498,0.423 0.814,0.524c0.303,0.158 0.625,0.234 0.972,0.215l0.669,-0.089c0.429,-0.12 0.802,-0.334 1.117,-0.65l0.398,-0.511c0.227,-0.391 0.34,-0.821 0.347,-1.275l0,-0.057c0.012,-0.347 -0.057,-0.669 -0.215,-0.972c-0.1,-0.315 -0.278,-0.587 -0.524,-0.814c-0.227,-0.246 -0.498,-0.423 -0.814,-0.524c-0.303,-0.158 -0.625,-0.234 -0.972,-0.215l-0.669,0.088c-0.429,0.121 -0.802,0.335 -1.118,0.651l-0.397,0.511c-0.227,0.391 -0.341,0.821 -0.347,1.275Z" style="fill:#fff;fill-rule:nonzero;"/><path d="M169.811,115.84l-0.001,0.056c-0.012,0.347 0.058,0.669 0.215,0.972c0.101,0.316 0.278,0.587 0.524,0.815c0.227,0.245 0.498,0.423 0.814,0.524c0.303,0.157 0.625,0.233 0.972,0.214l0.669,-0.088c0.43,-0.12 0.802,-0.335 1.117,-0.65l0.398,-0.512c0.227,-0.391 0.341,-0.821 0.347,-1.275l0,-0.056c0.013,-0.347 -0.057,-0.669 -0.214,-0.972c-0.102,-0.316 -0.278,-0.588 -0.525,-0.815c-0.227,-0.246 -0.498,-0.423 -0.813,-0.524c-0.303,-0.157 -0.626,-0.233 -0.972,-0.214l-0.669,0.088c-0.43,0.12 -0.802,0.335 -1.118,0.65l-0.397,0.512c-0.228,0.391 -0.341,0.82 -0.348,1.275Z" style="fill:#fff;fill-rule:nonzero;"/><path d="M172.335,119.185c3.25,-0 3.257,-5.05 -0,-5.05c-3.257,-0 -3.257,5.05 -0,5.05Z" style="fill:#fff;fill-rule:nonzero;"/><path d="M172.688,120.005c3.251,0 3.257,-5.049 0,-5.049c-3.256,-0 -3.256,5.049 0,5.049Z" style="fill:#fff;fill-rule:nonzero;"/><path d="M172.922,120.479c3.251,-0.001 3.258,-5.049 0,-5.049c-3.257,-0 -3.257,5.049 0,5.049Z" style="fill:#fff;fill-rule:nonzero;"/><path d="M171.281,120.358c3.251,0 3.257,-5.048 0,-5.048c-3.257,-0 -3.257,5.048 0,5.048Z" style="fill:#fff;fill-rule:nonzero;"/><path d="M169.987,120.416c3.251,-0 3.257,-5.05 0,-5.05c-3.257,-0 -3.257,5.05 0,5.05Z" style="fill:#fff;fill-rule:nonzero;"/><path d="M168.523,120.605l4.513,-0.391c1.357,-0.12 2.525,-1.073 2.525,-2.525c-0,-1.275 -1.162,-2.645 -2.525,-2.525l-4.513,0.392c-1.357,0.12 -2.525,1.073 -2.525,2.524c0,1.275 1.161,2.645 2.525,2.525Z" style="fill:#fff;fill-rule:nonzero;"/><path d="M166.295,115.202l-8.155,-0.215c-3.252,-0.088 -3.252,4.961 -0,5.05l8.154,0.214c3.251,0.089 3.251,-4.961 0,-5.049Z" style="fill:#fff;fill-rule:nonzero;"/><path d="M160.778,120.674l3.522,-0.076c1.32,-0.031 2.588,-1.142 2.525,-2.524c-0.063,-1.382 -1.111,-2.557 -2.525,-2.525l-3.522,0.076c-1.319,0.032 -2.588,1.142 -2.525,2.525c0.063,1.382 1.111,2.556 2.525,2.524Z" style="fill:#fff;fill-rule:nonzero;"/><path d="M165.076,97.756c3.251,-0 3.257,-5.05 0,-5.05c-3.257,0 -3.257,5.05 0,5.05Z" style="fill:#fff;fill-rule:nonzero;"/><path d="M148.236,130.894l6.887,0.227c3.25,0.107 3.244,-4.943 -0,-5.05l-6.887,-0.227c-3.25,-0.107 -3.244,4.942 0,5.05Z" style="fill:#fff;fill-rule:nonzero;"/><path d="M156.581,128.117c1.217,-0 1.217,-1.894 -0.001,-1.894c-1.218,-0 -1.218,1.894 0,1.894Z" style="fill:#fff;fill-rule:nonzero;"/><path d="M156.738,127.87c1.219,0 1.219,-1.893 0,-1.893c-1.218,-0 -1.218,1.893 0,1.893Z" style="fill:#fff;fill-rule:nonzero;"/><path d="M156.902,127.788c1.218,-0 1.218,-1.894 0,-1.894c-1.218,0 -1.218,1.894 0,1.894Z" style="fill:#fff;fill-rule:nonzero;"/><path d="M156.095,127.631c1.218,-0 1.218,-1.894 -0,-1.894c-1.218,-0 -1.218,1.894 -0,1.894Z" style="fill:#fff;fill-rule:nonzero;"/><path d="M157.628,130.704l2.67,0c0.492,0 0.972,-0.435 0.947,-0.947c-0.025,-0.511 -0.417,-0.946 -0.947,-0.946l-2.67,-0c-0.492,-0 -0.972,0.435 -0.946,0.946c0.024,0.512 0.416,0.947 0.946,0.947Z" style="fill:#fff;fill-rule:nonzero;"/><path d="M159.901,132.605l2.997,0.087c0.992,0.032 1.938,-0.889 1.894,-1.893c-0.044,-1.054 -0.833,-1.862 -1.894,-1.893l-2.997,-0.089c-0.992,-0.031 -1.938,0.89 -1.894,1.894c0.044,1.054 0.833,1.861 1.894,1.894Z" style="fill:#fff;fill-rule:nonzero;"/><path d="M164.029,131.506c1.622,-0 1.628,-2.525 -0,-2.525c-1.629,0 -1.629,2.525 -0,2.525Z" style="fill:#fff;fill-rule:nonzero;"/><path d="M161.895,131.866l0.044,4.456c0.006,0.827 0.72,1.616 1.578,1.578c0.859,-0.038 1.584,-0.694 1.578,-1.578l-0.044,-4.456c-0.006,-0.828 -0.719,-1.617 -1.578,-1.578c-0.858,0.037 -1.584,0.694 -1.578,1.578Z" style="fill:#fff;fill-rule:nonzero;"/><path d="M161.618,137.288l0.069,17.086c0.006,2.032 3.162,2.032 3.156,-0l-0.07,-17.087c-0.006,-2.032 -3.162,-2.032 -3.155,0Z" style="fill:#fff;fill-rule:nonzero;"/><path d="M161.921,155.346l-0.171,4.438l1.578,-1.578l-2.784,-0.089c-0.826,-0.025 -1.615,0.745 -1.578,1.578c0.038,0.878 0.695,1.553 1.578,1.578l2.784,0.089c0.878,0.024 1.547,-0.745 1.578,-1.578l0.17,-4.438c0.032,-0.827 -0.751,-1.615 -1.578,-1.578c-0.883,0.038 -1.546,0.694 -1.577,1.578Z" style="fill:#fff;fill-rule:nonzero;"/><path d="M71.318,70.76c-1.11,0.251 -2.184,0.662 -3.174,1.223c0.264,-3.496 -2.084,-6.658 -5.511,-7.416c-3.213,-0.612 -6.564,1.686 -7.701,4.728c-2.607,-2.373 -6.097,-3.522 -9.606,-3.169c-3.346,0.48 -5.448,3.017 -6.085,6.193c-6.704,-1.212 -9.399,5.39 -6.104,8.729c3.636,3.692 18.204,1.704 20.129,1.375c0.265,-0.043 0.196,-0.479 -0.063,-0.46c-3.56,0.366 -7.139,0.53 -10.718,0.48c-3.257,-0.101 -10.623,-0.31 -9.91,-5.227c0.492,-3.415 3.857,-4.651 6.912,-3.958c0.233,0.064 0.479,-0.075 0.549,-0.309c0.536,-3.124 2.449,-5.649 5.731,-5.996c3.434,-0.36 6.281,1.313 8.881,3.301c-0.139,0.663 -0.157,1.345 -0.063,2.014c0.063,0.214 0.29,0.341 0.505,0.277c0.139,-0.037 0.24,-0.145 0.278,-0.277c0.088,-0.543 0.126,-3.352 2.033,-5.138c1.331,-1.376 3.25,-2.02 5.144,-1.729c2.171,0.447 3.932,2.025 4.614,4.134c0.441,1.628 0.303,3.364 -0.392,4.898c-0.107,0.265 0.291,0.397 0.436,0.177c0.303,-0.455 0.536,-0.947 0.701,-1.465c1.212,-0.587 2.398,-1.237 3.546,-1.944c0.108,-0.076 0.133,-0.227 0.051,-0.334c-0.044,-0.057 -0.114,-0.095 -0.183,-0.102l0,-0.005Z" style="fill:#191919;fill-rule:nonzero;"/><path d="M73.357,82.841c11.62,2.165 14.94,-13.332 -0.108,-12.713c-0.46,0.019 -0.353,0.814 0.108,0.808c11.292,-0.101 12.409,11.551 -0.063,11.444c-0.266,-0.026 -0.196,0.435 0.063,0.46Z" style="fill:#191919;fill-rule:nonzero;"/><path d="M62.677,82.272c2.809,0.594 5.681,0.859 8.553,0.789c0.391,-0.063 0.391,-0.738 -0,-0.789c-1.294,-0.158 -7,-0.492 -8.49,-0.461c-0.126,-0.005 -0.239,0.089 -0.246,0.222c-0.006,0.113 0.07,0.214 0.183,0.239Z" style="fill:#191919;fill-rule:nonzero;"/><path d="M68.894,118.958c0.335,2.379 0.53,4.772 0.594,7.176c0.044,0.436 0.7,0.613 0.807,0.108c0.247,-1.137 0.064,-5.536 -0.965,-7.416c-0.076,-0.109 -0.227,-0.133 -0.335,-0.057c-0.063,0.044 -0.101,0.113 -0.101,0.189Z" style="fill:#191919;fill-rule:nonzero;"/><path d="M98.775,118.326c-1.375,1.774 -1.534,6.565 -1.117,7.568c0.063,0.221 0.296,0.341 0.518,0.278c0.17,-0.051 0.29,-0.208 0.296,-0.385c0.044,-1.029 0.038,-5.516 0.745,-7.328c0.095,-0.24 -0.328,-0.309 -0.435,-0.133l-0.007,-0Z" style="fill:#191919;fill-rule:nonzero;"/><path d="M67.032,127.056l0.789,15.161c4.4,0.701 14.026,4.57 16.652,5.82c2.733,-1.944 12.668,-4.071 15.381,-4.443l1.667,-16.911l-34.482,0.373l-0.007,0Zm17.308,11.658c-0.991,0 -1.793,-0.802 -1.793,-1.792c0,-0.991 0.802,-1.793 1.793,-1.793c0.99,0 1.792,0.802 1.792,1.793c0,0.99 -0.808,1.792 -1.792,1.792Z" style="fill:#6f93fc;fill-rule:nonzero;"/><path d="M157.957,125.831c-0,-0.063 -0.196,-0.24 -0.24,-0.24c-3.106,-0.239 -10.743,-0.264 -11.444,-0.264c0.019,-1.124 -0.032,-2.254 -0.158,-3.371c-0.082,-1.452 -1.218,-2.626 -2.67,-2.759c-1.332,-0.132 -6.716,-0.018 -8.048,0.019c-1.578,-0.088 -2.954,1.061 -3.15,2.626c-0.138,1.099 -0.164,2.203 -0.088,3.301c-0.877,0 -10.566,-0.265 -12.163,-0.088c-0.196,0.019 -0.417,0.373 -0.417,0.417c-0.309,2.341 -0.346,26.819 -0.176,29.275c0.044,0.107 0.132,0.195 0.24,0.24c3.086,0.195 36.034,0.372 37.606,0.176c0.019,-0 0.366,-0.063 0.392,-0.309c0.259,-2.26 0.486,-26.58 0.309,-29.029l0.007,0.006Zm-24.113,-5.188c0.865,-0.764 1.319,-0.467 8.534,-0.638c0.84,-0.151 1.704,0.076 2.361,0.613c0.675,0.675 0.852,3.938 0.96,4.683c-2.298,-0.044 -10.743,-0.158 -12.669,-0.176c0.064,-1.484 -0.328,-3.479 0.808,-4.488l0.006,0.006Zm-13.936,33.845c0.221,-2.298 0.719,-26.277 0.543,-28.55c1.445,0.133 33.914,0.285 36.994,0.133c-0.221,2.317 -0.833,25.923 -0.656,28.221c-1.439,-0.107 -33.814,0.019 -36.881,0.196Z" style="fill:#191919;fill-rule:nonzero;"/><path d="M80.701,90.757c0.135,-0.179 0.097,0 -0.113,0.555c0.585,-1.117 1.665,-1.44 3.24,-0.96c-0.442,-0.66 -2.182,-0.825 -2.857,-0.832c-2.378,-0.03 -4.47,1.635 -5.055,3.945c-0.87,3.435 1.83,6.952 4.755,8.445c6.45,3.285 14.572,-1.725 13.927,-9.158c-0.21,-2.422 -1.92,-4.5 -4.5,-4.5c-2.272,0 -4.71,2.063 -4.5,4.5c0.03,0.323 0.105,0.713 0.03,1.035c0.083,-0.345 0.06,-0.27 -0.09,-0.075c-0.082,0.105 -0.682,0.51 -0.262,0.308c0.33,-0.158 -0.12,0.112 -0.338,0.007c0.398,0.188 -0.262,-0.112 -0.322,-0.15c0.285,0.165 0.195,-0.112 0.03,-0.075c-0.203,-0.195 -0.248,-0.24 -0.135,-0.142c0.465,0.39 0.547,0.982 0.24,1.777l-2.07,2.693l0.352,-0.248l-2.272,0.615l0.405,0.03l-2.273,-0.615c2.55,1.358 5.123,1.68 7.59,-0.12c2.468,-1.8 2.933,-4.312 3.21,-7.042c0.248,-2.422 -2.242,-4.5 -4.5,-4.5c-2.64,-0 -4.252,2.07 -4.5,4.5l0.008,0.007Z" style="fill:#f9ab6a;fill-rule:nonzero;"/><path d="M84.623,104.512c5.79,0 5.798,-9 0,-9c-5.797,0 -5.797,9 0,9Z" style="fill:#f9ab6a;fill-rule:nonzero;"/><path d="M84.623,109.545c5.79,0 5.798,-9 0,-9c-5.797,0 -5.797,9 0,9Z" style="fill:#f9ab6a;fill-rule:nonzero;"/><path d="M85.628,109.215c5.79,0 5.798,-9 0,-9c-5.797,0 -5.797,9 0,9Z" style="fill:#f9ab6a;fill-rule:nonzero;"/><path d="M81.743,103.335l-0.435,1.005l-0.45,1.073l-0.157,1.2l0.157,1.2c0.143,0.585 0.405,1.094 0.803,1.529c0.202,0.338 0.472,0.608 0.81,0.811c0.277,0.277 0.615,0.472 0.99,0.577c0.352,0.203 0.727,0.308 1.132,0.308c0.6,0.134 1.2,0.104 1.793,-0.083l0.667,-0.188c0.585,-0.142 1.095,-0.404 1.53,-0.802c0.488,-0.315 0.878,-0.735 1.163,-1.26c0.33,-0.517 0.51,-1.073 0.532,-1.672c0.135,-0.6 0.105,-1.2 -0.082,-1.793l-0.45,-1.073c-0.398,-0.674 -0.938,-1.214 -1.613,-1.612l-1.072,-0.45c-0.795,-0.218 -1.598,-0.218 -2.393,-0l-0.667,0.187l5.085,6.608l0.435,-1.005c0.33,-0.518 0.51,-1.073 0.532,-1.673c0.135,-0.6 0.105,-1.2 -0.082,-1.792c-0.143,-0.585 -0.405,-1.095 -0.803,-1.53c-0.315,-0.487 -0.735,-0.877 -1.26,-1.162l-1.072,-0.45c-0.795,-0.218 -1.598,-0.218 -2.393,-0l-1.072,0.45c-0.675,0.397 -1.215,0.937 -1.613,1.612l-0.015,-0.015Z" style="fill:#f9ab6a;fill-rule:nonzero;"/><path d="M133.125,141.933c-0.902,-2.714 -1.761,-5.416 -2.714,-8.117c-0.069,-0.233 -0.309,-0.366 -0.543,-0.309c-1.692,0.341 -3.308,0.997 -4.746,1.944c-0.177,0.114 -0.266,0.322 -0.222,0.524c1.231,3.938 1.181,4.98 1.704,6.584c0.14,0.416 0.847,0.371 0.809,-0.108c-0.278,-2.19 -0.796,-4.336 -1.553,-6.413c1.174,-0.732 2.462,-1.282 3.806,-1.616c0.852,2.474 1.73,4.942 2.6,7.417c-1.23,0.606 -2.518,1.086 -3.849,1.42c-0.241,0.063 -0.222,0.479 0.063,0.461c1.552,-0.165 3.054,-0.638 4.418,-1.395c0.164,-0.057 0.252,-0.228 0.214,-0.398l0.013,0.006Z" style="fill:#6f93fc;fill-rule:nonzero;"/><path d="M138.005,142.893c-0.436,-2.128 -1.137,-4.192 -2.077,-6.149c-0.095,-0.131 -0.253,-0.201 -0.417,-0.176c-0.89,0.227 -1.767,0.505 -2.626,0.833c-0.22,0.089 -0.107,0.461 0.107,0.435c0.809,-0.113 1.604,-0.277 2.387,-0.504c0.744,1.748 1.312,3.566 1.685,5.428c-1.792,0.852 -3.636,1.604 -5.511,2.253c-0.088,-0.309 -0.208,-0.612 -0.346,-0.896c-0.222,-0.455 -0.834,-0.107 -0.765,0.328c0.089,0.436 0.203,0.871 0.347,1.294c0.07,0.246 0.322,0.392 0.569,0.329c2.19,-0.758 4.33,-1.654 6.412,-2.67c0.196,-0.082 0.297,-0.297 0.234,-0.499l0,-0.006Z" style="fill:#191919;fill-rule:nonzero;"/><path d="M154.169,132.875c-1.786,-0.012 -3.566,-0.126 -5.34,-0.346c-0.177,-0 -0.328,0.113 -0.373,0.283c-0.656,1.837 -1.186,3.718 -1.596,5.625c-0.025,0.132 0.057,0.258 0.189,0.284c0.114,0.019 0.228,-0.044 0.272,-0.152c0.701,-1.685 1.205,-3.503 1.773,-5.251c1.465,0.195 2.954,0.309 4.444,0.372c-0.896,2.146 -1.748,4.311 -2.582,6.495c-1.432,-0.285 -2.903,-0.348 -4.355,-0.177c-0.505,0.088 -0.328,0.764 0.107,0.808c1.465,0.152 2.955,0.063 4.419,0.303c0.246,0.056 0.498,-0.082 0.568,-0.328c0.877,-2.506 1.862,-4.967 2.866,-7.417c0.132,-0.22 -0.133,-0.505 -0.392,-0.505l0,0.006Z" style="fill:#191919;fill-rule:nonzero;"/><path d="M148.349,146.112c-0.492,-1.408 -3.111,-1.995 -4.285,-0.764c-0.915,0.903 -0.922,2.38 -0.013,3.294c0.707,0.714 1.786,0.891 2.683,0.449c1.205,-0.505 1.975,-1.951 1.615,-2.973l0,-0.006Z" style="fill:#6f93fc;fill-rule:nonzero;"/><path d="M71.76,61.727c0,-0.064 -0.177,-0.24 -0.24,-0.24c-3.611,-0.221 -40.845,-0.391 -42.707,-0.177c-0.063,0 -0.41,0.24 -0.416,0.416c-0.076,2.955 0.088,82.372 0.176,88.867c0,0.019 0.108,0.221 0.177,0.221c3.446,0.322 6.912,0.391 10.371,0.195c0.524,-0.063 0.542,-0.852 -0,-0.833c-2.361,0.095 -8.509,-0.088 -10.062,0.133c0.303,-11.462 0.329,-85.061 0.196,-88.147c1.641,0.133 38.484,0 42.006,-0.196c-0.221,3.415 -0.739,40.214 -0.549,41.943c0,0.228 0.189,0.417 0.416,0.417c0.228,0 0.418,-0.183 0.418,-0.417c0.214,-1.704 0.302,-38.679 0.22,-42.183l-0.006,0Z" style="fill:#6f93fc;fill-rule:nonzero;"/><path d="M129.034,61.487c-0.043,-0.107 -0.131,-0.196 -0.239,-0.24c-7.202,-0.139 -53.361,-0.132 -55.413,0.044c-0.189,0.076 -0.341,0.228 -0.417,0.417c-0.195,1.704 -0.044,37.039 0.177,40.384c0,0.132 0.108,0.24 0.24,0.24c0.132,-0 0.24,-0.108 0.24,-0.24c0.221,-3.346 0.347,-38.352 0.221,-39.93c1.66,0.089 50.692,-0.24 54.718,-0.435c-0.347,7.833 -0.612,58.437 -0.435,60.69c0,0.227 0.189,0.416 0.417,0.416c0.227,0 0.416,-0.189 0.416,-0.416c0.158,-1.989 0.164,-56.417 0.088,-60.93l-0.012,0Z" style="fill:#6f93fc;fill-rule:nonzero;"/><path d="M125.468,77.848c-0.087,-0.416 -0.675,-0.612 -0.921,-0.701c-1.439,-0.499 -2.91,0.095 -3.983,0.505c-1.155,0.442 -2.821,1.073 -5.189,1.944c-1.23,-0.328 -2.303,-1.085 -3.017,-2.146c-0.631,0.108 -1.205,0.429 -1.615,0.922c0.24,1.748 1.729,4.159 2.145,4.772c1.831,-0.24 3.599,-0.802 5.227,-1.66c-0.019,0.303 -1.685,4.399 -1.357,4.525c0.966,-0.505 4.242,-4.898 4.399,-5.27c1.136,-0.386 2.235,-0.878 3.283,-1.465c0.372,-0.265 1.142,-0.877 1.028,-1.42l0,-0.006Zm-7.807,2.361c0.031,0.315 -0.196,0.599 -0.512,0.63l-0.075,0c-0.348,0 -0.619,-0.107 -0.675,-0.523c-0.045,-0.347 0.207,-0.669 0.554,-0.707c0.348,-0.045 0.669,0.208 0.708,0.555l-0,0.045Zm1.161,-0.809c-0.032,-0.309 0.195,-0.586 0.511,-0.618l0.146,0c0.315,-0.013 0.58,0.239 0.593,0.555l-0,0.076c-0,0.347 -0.29,0.619 -0.638,0.613c-0.347,-0 -0.618,-0.291 -0.612,-0.638l-0,0.012Zm2.865,-0.176c-0.303,0.006 -0.555,-0.227 -0.567,-0.524c-0.159,-0.771 1.199,-1.029 1.249,-0.108c0.044,0.373 -0.22,0.663 -0.675,0.632l-0.007,-0Z" style="fill:#6f93fc;fill-rule:nonzero;"/><path d="M175.504,111.301c-1.805,-2.727 -5.58,-1.357 -6.76,1.161c-1.534,-1.319 -3.547,-1.943 -5.555,-1.729c-1.862,0.284 -3.333,1.729 -3.654,3.585c-1.818,-0.265 -3.725,0.48 -4.287,2.405c-0.554,1.9 0.499,3.175 2.235,3.743c2.765,0.897 7.675,0.531 10.345,0.019c0.259,-0.05 0.196,-0.473 -0.063,-0.46c-2.664,0.176 -10.44,0.915 -11.683,-1.395c-0.657,-1.225 0.303,-2.873 1.508,-3.302c0.694,-0.214 1.439,-0.24 2.146,-0.063c0.234,0.057 0.474,-0.075 0.543,-0.309c0.315,-1.812 1.446,-3.238 3.371,-3.346c1.9,-0.107 3.301,0.834 4.747,1.863c-0.051,0.334 -0.057,0.675 -0.02,1.009c0.051,0.417 0.713,0.613 0.809,0.107c-0.083,-1.382 0.599,-2.701 1.773,-3.433c1.534,-0.896 2.847,-0.373 4.179,0.48c0.271,0.126 0.504,-0.133 0.378,-0.335l-0.012,0Z" style="fill:#191919;fill-rule:nonzero;"/><path d="M173.181,120.358c0.688,0.329 1.445,0.487 2.209,0.462c0.215,-0.057 0.341,-0.278 0.284,-0.493c-0.032,-0.107 -0.1,-0.196 -0.196,-0.252c-0.745,-0.19 -1.521,-0.221 -2.272,-0.089c-0.095,0.102 -0.101,0.259 -0.019,0.372l-0.006,0Z" style="fill:#191919;fill-rule:nonzero;"/><path d="M175.548,61.487c0,-0.088 -0.177,-0.24 -0.24,-0.24c-3.611,-0.24 -42.158,-0.524 -44.02,-0.328c-0.107,0.019 -0.416,0.309 -0.416,0.417c-0.177,1.861 -0.36,53.866 -0.133,58.171c0.006,0.132 0.12,0.233 0.252,0.227c0.12,-0.006 0.221,-0.107 0.228,-0.227c0.454,-7.524 0.631,-55.722 0.524,-57.717c1.704,0.158 39.708,0.158 43.319,-0.044c-0.303,11.462 -0.329,85.079 -0.196,88.165c-1.622,0.348 -5.927,0.095 -7.088,0.329c-0.127,0.037 -0.202,0.17 -0.164,0.296c0.025,0.083 0.081,0.139 0.164,0.165c2.537,0.208 5.093,0.227 7.637,0.063c0.221,-0.025 0.31,-0.391 0.31,-0.391c0.151,-2.999 -0.095,-82.391 -0.177,-88.892l-0,0.006Z" style="fill:#6f93fc;fill-rule:nonzero;"/><path d="M165.329,128.911c-0.001,0 -0.108,-0.22 -0.177,-0.22c-1.748,-0.208 -3.516,-0.26 -5.271,-0.158c-0.227,0.012 -0.41,0.201 -0.397,0.435c0.006,0.215 0.183,0.392 0.397,0.398c1.648,0.07 3.302,0.019 4.943,-0.158c-0.177,2.582 -0.196,26.189 -0.196,27.394c-15.906,-0.309 -48.854,-0.177 -49.397,-0.177c0.46,-1.445 -0.525,-2.537 -1.907,-3.042c3.389,-1.231 4.475,-4.191 3.415,-7.354c-0.764,-2.272 -2.512,-3.256 -4.81,-3.629c-5.466,-0.877 -14.233,1.035 -19.624,2.405c-2.827,0.587 -5.604,1.395 -8.313,2.405c-3.086,-1.225 -6.166,-2.456 -9.322,-3.503c-4.898,-1.629 -10.434,-3.339 -15.641,-2.405c-3.567,0.638 -7.506,3.503 -7.506,7.505c0,2.272 1.332,4.071 3.175,5.447c-0.226,0.694 -0.239,1.446 -0.025,2.146c-4.242,-0.019 -8.49,-0.107 -12.712,0.045c-0,-1.074 0.133,-25.791 0.044,-27.041c2.014,0.176 10.402,0.132 12.403,-0.24c0.127,-0.044 0.196,-0.183 0.151,-0.31c-0.024,-0.069 -0.081,-0.126 -0.151,-0.151c-2.007,-0.379 -10.718,-0.435 -12.864,-0.196c-0.176,0.089 -0.321,0.24 -0.416,0.417c-0.158,1.332 0.107,30.954 0.221,32.4c-0,0.018 0.132,0.239 0.24,0.239c4.506,0.045 9.038,0.158 13.539,0.177c-0.089,1.18 -0.089,12.492 0.309,14.922c-0,0.366 2.203,0.36 2.581,0.264c0.139,-0.094 0.247,-0.233 0.303,-0.39c0.159,-1.314 0.222,-12.492 -0.063,-14.764c10.503,0.044 87.27,0.044 91.032,0.044c-0.088,1.18 -0.088,12.447 0.309,14.877c0,0.366 2.203,0.36 2.582,0.266c0.139,-0.096 0.246,-0.234 0.309,-0.392c0.158,-1.313 0.221,-12.472 -0.063,-14.726c4.222,0.019 8.464,0.031 12.712,-0.044c0.196,-0 0.417,-0.372 0.417,-0.417c0.107,-1.401 -0,-29.71 -0.221,-32.462l-0.007,-0.007Zm-50.729,27.502l-4.904,0c0.006,-0.555 -0.107,-1.111 -0.329,-1.616c-0.088,-0.089 -0.24,-0.089 -0.327,0c-0.196,0.518 -0.291,1.067 -0.285,1.616l-0.675,0c-0,-0.499 -0.101,-0.991 -0.309,-1.446c-0.095,-0.088 -0.234,-0.088 -0.329,0c-0.195,0.455 -0.296,0.947 -0.283,1.446l-0.24,0c-0.076,-0.587 -0.222,-1.629 -0.676,-1.269c-0.246,0.189 -0.239,1.136 -0.239,1.269l-1.181,0c0.082,-0.6 0.095,-1.212 0.044,-1.818c2.272,-0.284 4.463,-0.922 6.804,-0.72c0.808,0.02 1.597,0.234 2.298,0.632c0.587,0.442 0.84,1.199 0.631,1.906Zm0.455,-11.879c1.206,1.426 1.635,3.358 1.136,5.163c-0.543,1.792 -2.165,2.821 -3.851,3.389c-2.884,-0.568 -8.028,0.72 -8.054,0.72c-5.359,-1.332 -14.284,-3.983 -18.948,-6.104c1.155,-0.278 24.983,-7.902 29.711,-3.175l0.006,0.007Zm-62.634,3.964c0.246,-1.799 1.199,-3.434 2.645,-4.532c1.83,-1.351 4.052,-2.058 6.324,-2.013c5.271,-0.146 10.548,1.678 15.445,3.389c4.293,1.502 8.535,3.149 12.757,4.835c4.943,1.969 14.24,4.09 14.549,4.285c0.139,0.638 0.196,1.294 0.177,1.944c-11.879,-0.018 -39.816,-0.018 -41.918,-0.018c-2.493,-0.638 -4.936,-1.314 -7.044,-2.866c-1.609,-1.186 -3.061,-2.929 -2.929,-5.031l-0.006,0.007Zm6.413,7.877l-3.371,0c-0.018,-0.303 -0.284,-1.029 0.063,-1.553c1.042,0.638 2.153,1.155 3.308,1.553Zm-1.421,19.693c-0.498,0.019 -0.996,0.07 -1.489,0.158c0.284,-2.297 0.196,-13.299 0.088,-14.486l1.616,0c-0.309,2.272 -0.309,13.148 -0.221,14.328l0.006,0Zm94.163,0c-0.499,0.019 -0.998,0.07 -1.49,0.158c0.285,-2.297 0.196,-13.255 0.089,-14.441l1.597,-0c-0.266,2.253 -0.285,13.103 -0.196,14.283Zm-109.784,-14.984c0.088,-1.269 0.107,-2.538 0.132,-3.806c3.913,0.132 113.805,-0.019 122.692,-0.177c0,1.25 -0.088,2.537 0,3.806c-3.875,-0.151 -118.299,0.089 -122.824,0.177Z" style="fill:#191919;fill-rule:nonzero;"/><path d="M90.639,96.557c-0.826,2.638 -3.762,2.032 -3.958,-0.064c1.175,0.076 2.348,0.088 3.522,0.045c0.152,-0.02 0.259,-0.159 0.234,-0.31c-0.019,-0.12 -0.114,-0.221 -0.234,-0.233c-1.249,-0.108 -2.563,-0.089 -3.831,-0.089c-0.17,0 -0.309,0.139 -0.309,0.303c-0.001,0.177 0.019,0.353 0.044,0.524c-0.518,-0.183 -1.079,-0.215 -1.616,-0.088c0.026,-0.146 0.038,-0.29 0.044,-0.436c0.001,-0.17 -0.138,-0.303 -0.309,-0.303c-1.275,-0.038 -2.556,-0.006 -3.831,0.089c-0.152,0.018 -0.259,0.157 -0.233,0.309c0.018,0.12 0.113,0.221 0.233,0.234c1.174,0.043 2.348,0.031 3.522,-0.045c-0.253,2.077 -2.999,2.727 -3.958,0.064c-0.063,-0.159 -0.309,-0.159 -0.309,0.044c0.019,2.266 3.428,3.256 4.614,0.808c0.65,-0.278 1.382,-0.309 2.058,-0.089c1.079,2.487 4.62,1.585 4.658,-0.745c-0.038,-0.151 -0.297,-0.177 -0.347,-0.025l0.006,0.007Z" style="fill:#6f93fc;fill-rule:nonzero;"/><path d="M84.908,98.393c-0.808,1.464 0.637,1.755 1.01,1.534c0.075,-0.044 0.101,-0.139 0.057,-0.215c-0.02,-0.038 -0.057,-0.062 -0.102,-0.069c-0.308,-0.044 -1.117,0.019 -0.833,-1.206c0.019,-0.088 -0.088,-0.088 -0.133,-0.044Z" style="fill:#191919;fill-rule:nonzero;"/><path d="M82.958,100.956c0.99,1.174 2.732,1.344 3.938,0.391c0.215,-0.177 -0.069,-0.48 -0.284,-0.372c-1.11,0.688 -2.531,0.637 -3.585,-0.133c-0.044,-0.044 -0.108,0.044 -0.064,0.107l-0.005,0.007Z" style="fill:#191919;fill-rule:nonzero;"/><path d="M114.799,133.142c0.025,-2.405 -8.465,-19.144 -12.997,-23.297c-1.761,-1.755 -3.945,-3.017 -6.344,-3.674c0.133,-1.376 0.303,-3.219 0.392,-5.403c0.17,-4.134 0.277,-6.211 -0.221,-8.092c-0.404,-1.528 -1.401,-5.441 -5.012,-7.48c-3.635,-2.051 -8.218,-1.281 -11.179,0.922c-1.729,1.344 -3.016,3.175 -3.698,5.252c-0.644,1.798 -0.613,2.392 -0.675,14.22c-3.744,0.852 -8.824,5.025 -10.63,6.937c-4.785,5.044 -8.483,11.861 -8.906,18.905c-0.196,3.238 0.562,6.753 3.415,8.666c0.22,0.151 0.505,-0.196 0.283,-0.372c-5.156,-4.115 -2.751,-12.359 -0.435,-17.371c3.901,-8.452 10.459,-13.842 15.774,-15.622c1.982,-0.745 4.179,-0.694 6.123,0.158c1.249,6.848 7.681,4.601 8.445,1.66c0.069,-0.259 -0.328,-0.417 -0.435,-0.177c-0.979,2.146 -6.325,4.223 -7.24,-2.013c0.58,-0.531 0.921,-1.269 0.941,-2.058c1.836,0.593 3.836,0.378 5.51,-0.594c-0.196,1.446 1.072,2.689 1.395,2.936c-0.12,0.208 -0.045,0.466 0.157,0.586c0.089,0.051 0.196,0.07 0.303,0.051c3.857,-0.751 7.852,0.252 10.895,2.733c4.191,3.661 12.624,20.104 13.104,21.858c1.072,3.914 -1.881,6.237 -3.302,7.089c-2.461,1.319 -5.163,2.133 -7.94,2.405c-0.284,0.037 -0.31,0.486 -0,0.48c4.771,-0.101 12.214,-2.582 12.277,-8.692l-0,-0.013Zm-26.802,-30.209c-1.899,1.73 -5.295,0.922 -5.642,0.543c-2.5,-1.635 -4.052,-4.387 -4.16,-7.372c0.568,-0 5.555,-1.029 7.025,-4.002c1.925,3.219 5.82,3.503 6.476,3.477c-0.195,4.293 -1.962,5.782 -3.699,7.354Z" style="fill:#191919;fill-rule:nonzero;"/><path d="M99.041,86.078c1.659,-0.063 8.4,-2.619 9.758,-3.629c0.353,-0.259 0.17,-0.947 -0.329,-0.764c-1.666,0.6 -8.11,3.188 -9.562,3.958c-0.108,0.076 -0.139,0.227 -0.057,0.335c0.044,0.063 0.114,0.1 0.19,0.1Z" style="fill:#191919;fill-rule:nonzero;"/><path d="M102.537,90.32c3.566,-1.18 7.044,-2.626 10.39,-4.33c0.195,-0.126 0.253,-0.391 0.126,-0.587c-0.095,-0.151 -0.278,-0.221 -0.455,-0.183c-3.528,1.281 -6.949,2.84 -10.231,4.659c-0.114,0.069 -0.146,0.22 -0.07,0.334c0.051,0.082 0.145,0.12 0.24,0.107Z" style="fill:#191919;fill-rule:nonzero;"/><path d="M59.704,110.007c1.376,-0.126 6.817,-2.55 7.941,-3.502c0.384,-0.329 -0.107,-0.828 -0.506,-0.658c-1.268,0.556 -6.343,2.999 -7.549,3.7c-0.195,0.132 -0.132,0.485 0.108,0.46l0.006,0Z" style="fill:#191919;fill-rule:nonzero;"/><path d="M35.548,114.015c2.809,-0.732 31.371,-11.222 33.169,-12.756c0.354,-0.303 0.133,-0.896 -0.328,-0.764c-1.395,0.398 -30.461,11.942 -33.037,13.085c-0.239,0.107 -0.063,0.505 0.196,0.435Z" style="fill:#191919;fill-rule:nonzero;"/><path d="M165.79,91.525c-2.007,-0.82 -4.286,-0.624 -6.123,0.525c0.063,-2.273 -1.73,-4.16 -4.001,-4.224c-1.755,-0.043 -3.346,1.023 -3.965,2.67c-1.534,-1.299 -3.535,-1.912 -5.535,-1.704c-1.862,0.291 -3.333,1.73 -3.655,3.585c-1.818,-0.264 -3.724,0.48 -4.286,2.406c-0.555,1.899 0.499,3.174 2.228,3.743c2.765,0.896 7.676,0.53 10.346,0.019c0.126,-0.032 0.201,-0.152 0.176,-0.278c-0.025,-0.114 -0.126,-0.189 -0.239,-0.184c-2.664,0.177 -10.44,0.916 -11.684,-1.394c-0.657,-1.225 0.303,-2.872 1.508,-3.301c0.695,-0.215 1.44,-0.24 2.147,-0.063c0.233,0.063 0.479,-0.076 0.549,-0.31c0.316,-1.811 1.445,-3.238 3.371,-3.345c1.905,-0.107 3.3,0.833 4.746,1.837c-0.051,0.334 -0.063,0.675 -0.019,1.01c0.063,0.416 0.713,0.612 0.808,0.107c0.044,-1.036 0.416,-2.02 1.073,-2.821c1.167,-1.314 3.175,-1.439 4.494,-0.272c0.423,0.372 0.738,0.852 0.909,1.388c0.297,0.954 0.259,1.983 -0.108,2.91c-0.087,0.285 0.285,0.373 0.436,0.178c0.177,-0.234 0.322,-0.493 0.436,-0.765c-0,0 0.014,-0.006 0.044,-0.019c1.944,-0.921 3.983,-1.88 6.104,-0.788c1.445,0.744 2.998,3.105 1.445,4.462c-2.297,2.014 -8.269,1.174 -10.673,1.136c-0.127,-0.006 -0.24,0.089 -0.246,0.222c-0.007,0.113 0.069,0.214 0.183,0.239c2.682,0.631 5.466,0.726 8.18,0.265c6.438,-1.123 4.077,-5.971 1.357,-7.227l-0.006,-0.007Z" style="fill:#191919;fill-rule:nonzero;"/><path d="M82.629,97.283c-0.113,-0.102 -0.272,-0.133 -0.416,-0.089c-0.152,0.013 -0.272,0.145 -0.259,0.296c0.006,0.095 0.063,0.183 0.151,0.227c0.145,0.07 0.322,0.063 0.461,-0.018c0.126,-0.063 0.177,-0.221 0.114,-0.348c-0.013,-0.024 -0.032,-0.044 -0.051,-0.069Z" style="fill:#191919;fill-rule:nonzero;"/><path d="M88.625,97.283c-0.107,-0.108 -0.505,-0.196 -0.637,0.044c-0.076,0.139 -0.025,0.315 0.107,0.391c0.019,-0.001 0.284,0.132 0.461,-0.019c0.126,-0.076 0.177,-0.24 0.101,-0.366c-0.012,-0.019 -0.019,-0.032 -0.038,-0.05l0.006,-0.001Z" style="fill:#191919;fill-rule:nonzero;"/></svg>