<?xml version="1.0" encoding="UTF-8" standalone="no"?><!DOCTYPE svg PUBLIC "-//W3C//DTD SVG 1.1//EN" "http://www.w3.org/Graphics/SVG/1.1/DTD/svg11.dtd"><svg width="100%" height="100%" viewBox="0 0 676 296" version="1.1" xmlns="http://www.w3.org/2000/svg" xmlns:xlink="http://www.w3.org/1999/xlink" xml:space="preserve" xmlns:serif="http://www.serif.com/" style="fill-rule:evenodd;clip-rule:evenodd;stroke-miterlimit:10;"><g><path d="M-0.166,10.034c62.561,3.204 121.699,44.067 184.624,38.219c55.38,-5.144 101.72,-45.594 158.415,-44.241c51.819,1.233 95.823,36.44 146.679,42.89c62.304,7.9 123.202,-18.57 185.342,-17.828" style="fill:none;fill-rule:nonzero;stroke:#6922ea;stroke-width:0.8px;"/><path d="M-0.127,21.947c34.381,2.367 67.199,13.029 100.315,22.495c26.974,7.708 56.26,16.33 84.305,13.466c54.316,-5.547 102.436,-41.933 157.926,-40.591c53.611,1.293 103.673,31.782 156.622,38.77c26.876,3.548 54.668,-0.758 80.989,-4.882c31.54,-4.94 62.709,-10.218 94.902,-10.218" style="fill:none;fill-rule:nonzero;stroke:#6922ea;stroke-width:0.8px;"/><path d="M-0.088,33.86c34.067,2.33 67.053,11.275 100.267,19.304c27.232,6.584 56.271,14.002 84.248,11.704c53.475,-4.397 102.586,-33.22 156.851,-32.309c27.667,0.464 55.87,7.192 83.039,12.666c31.754,6.404 63.606,13.758 95.805,16.896c52.024,5.067 102.962,-9.678 154.849,-9.225" style="fill:none;fill-rule:nonzero;stroke:#6922ea;stroke-width:0.8px;"/><path d="M-0.049,45.768c61.492,3.513 122.703,27.285 184.297,24.431c52.642,-2.441 102.57,-22.161 155.596,-21.577c68.82,0.762 137.504,14.644 206.276,18.199c43.203,2.235 85.752,-3.234 128.89,-2.013" style="fill:none;fill-rule:nonzero;stroke:#6922ea;stroke-width:0.8px;"/><path d="M-0.012,57.682c61.448,2.608 122.463,17.801 183.966,17.286c51.851,-0.433 102.586,-11.188 154.558,-10.57c112.11,1.332 224.428,7.136 336.536,12.324" style="fill:none;fill-rule:nonzero;stroke:#6922ea;stroke-width:0.8px;"/><path d="M0.028,69.595c61.214,1.94 122.285,9.567 183.512,10.638c51.438,0.901 102.69,-2.385 154.143,-1.469c82.851,1.48 165.688,0.147 248.523,0.7c15.985,0.106 33.382,-0.53 49.118,3.798c13.278,3.652 25.994,4.742 39.767,5.368" style="fill:none;fill-rule:nonzero;stroke:#6922ea;stroke-width:0.8px;"/><path d="M0.066,81.507c61.034,1.112 122.188,1.128 183.227,3.627c51.447,2.108 102.847,5.625 154.303,6.071c83.637,0.724 167.145,-3.342 250.813,-1.522c14.983,0.324 33.914,-1.609 48.334,4.478c12.791,5.4 24.343,6.07 38.383,6.387" style="fill:none;fill-rule:nonzero;stroke:#6922ea;stroke-width:0.8px;"/><path d="M0.105,93.416c33.337,-0.047 66.57,-1.661 99.824,-3.075c27.769,-1.177 56.056,-3.248 83.917,-1c51.421,4.146 102.123,16.618 153.794,14.965c82.635,-2.643 165.232,-9.11 248.083,-7.607c15.123,0.273 35.399,-1.861 49.347,6.296c13.356,7.808 24.272,9.108 40.094,9.462" style="fill:none;fill-rule:nonzero;stroke:#6922ea;stroke-width:0.8px;"/><path d="M0.143,105.329c33.679,-0.475 67.018,-4.108 100.425,-7.31c27.544,-2.641 56.458,-6.622 84.28,-3.351c51.178,6.017 100.898,27.858 152.835,23.409c81.118,-6.947 162.185,-16.688 243.948,-16.836c16.046,-0.028 37.064,-1.637 50.879,8.997c3.896,2.997 6.931,6.552 11.391,8.829c9.47,4.836 21.086,4.902 31.302,5.302" style="fill:none;fill-rule:nonzero;stroke:#6922ea;stroke-width:0.8px;"/><path d="M0.182,117.242c34.094,-0.607 67.537,-5.969 101.112,-10.662c27.325,-3.82 56.866,-9.246 84.686,-5.164c50.725,7.433 99.644,38.309 151.749,30.563c79.335,-11.788 158.821,-24.635 239.533,-26.689c17.572,-0.445 38.397,-0.97 52.515,11.88c4.401,4.007 7.899,8.675 13.06,11.829c9.685,5.912 21.528,6.646 32.404,7.284" style="fill:none;fill-rule:nonzero;stroke:#6922ea;stroke-width:0.8px;"/><path d="M0.22,129.155c34.485,-0.355 67.993,-7.107 101.682,-12.919c27.214,-4.695 57.104,-10.888 85.029,-6.37c50.449,8.166 98.49,46.882 150.845,35.603c77.384,-16.667 156.189,-31.507 235.969,-34.631c19.019,-0.744 39.313,-0.217 53.834,14.223c4.863,4.831 8.735,10.421 14.47,14.359c9.82,6.746 21.82,7.992 33.236,8.775" style="fill:none;fill-rule:nonzero;stroke:#6922ea;stroke-width:0.8px;"/><path d="M0.259,141.064c34.741,0.36 68.226,-7.367 101.931,-13.862c27.298,-5.261 57.02,-11.31 85.182,-6.874c51.06,8.044 97.263,52.506 150.441,37.698c33.949,-9.455 68.257,-16.763 103.126,-22.694c43.205,-7.345 87.198,-14.17 131.27,-15.456c19.639,-0.573 39.83,-0.017 54.42,15.315c5.075,5.335 9.219,11.431 15.271,15.802c9.848,7.105 21.782,8.471 33.419,9.106" style="fill:none;fill-rule:nonzero;stroke:#6922ea;stroke-width:0.8px;"/><path d="M0.298,152.977c34.934,0.752 68.312,-8.039 101.945,-15.337c27.313,-5.926 56.829,-12.144 85.194,-7.642c51.298,8.138 96.917,54.428 150.411,38.711c33.235,-9.768 66.912,-17.652 101.04,-24.201c42.367,-8.128 86.122,-16.109 129.678,-15.984c20.762,0.059 40.083,2.681 55.512,18.069c5.672,5.65 10.628,12.002 17.327,16.545c10.223,6.934 22.044,8.413 33.953,8.879" style="fill:none;fill-rule:nonzero;stroke:#6922ea;stroke-width:0.8px;"/><path d="M0.337,164.889c35.25,0.482 68.47,-9.995 101.966,-18.685c27.085,-7.026 56.7,-14.438 85.215,-9.643c50.915,8.566 97.055,57.966 150.358,41.033c31.885,-10.127 63.94,-19.207 96.673,-26.605c40.601,-9.179 83.354,-18.591 125.553,-17.512c22.512,0.574 41.609,6.608 58.389,22.271c17.839,16.648 31.625,26.998 56.9,28.181" style="fill:none;fill-rule:nonzero;stroke:#6922ea;stroke-width:0.8px;"/><path d="M0.375,176.802c35.648,-0.079 68.682,-12.522 101.996,-22.837c26.71,-8.276 56.578,-17.372 85.24,-12.172c50.082,9.082 97.593,62.275 150.292,43.929c30.256,-10.533 60.273,-21.058 91.325,-29.397c38.389,-10.313 79.847,-21.302 120.339,-19.466c24.125,1.094 44.009,11.155 62.037,27.091c19.914,17.606 36.469,30.166 63.83,31.897" style="fill:none;fill-rule:nonzero;stroke:#6922ea;stroke-width:0.8px;"/><path d="M0.414,188.711c36.064,-0.561 68.914,-14.895 102.026,-26.73c26.346,-9.417 56.413,-20.109 85.265,-14.531c49.131,9.498 98.291,66.449 150.229,46.633c28.737,-10.963 56.837,-22.832 86.296,-32.069c36.24,-11.36 76.582,-23.922 115.482,-21.283c25.31,1.719 46.457,15.587 65.433,31.714c21.796,18.529 41.024,33.074 70.337,35.298" style="fill:none;fill-rule:nonzero;stroke:#6922ea;stroke-width:0.8px;"/><path d="M0.452,200.625c36.407,-0.557 69.121,-16.38 102.041,-29.291c26.17,-10.266 56.179,-21.811 85.279,-16.012c29.339,5.847 54.74,24.524 81.015,38.049c21.852,11.252 45.689,19.953 69.175,10.356c27.708,-11.326 54.54,-24.135 82.89,-34.096c34.69,-12.186 74.559,-26.103 112.422,-22.39c25.936,2.542 47.987,19.119 67.558,35.308c22.984,19.01 44.171,34.863 74.68,37.115" style="fill:none;fill-rule:nonzero;stroke:#6922ea;stroke-width:0.8px;"/><path d="M0.491,212.537c36.453,-0.481 69.204,-16.447 102.125,-29.414c26.254,-10.343 56.113,-21.794 85.315,-16.081c49.288,9.637 97.836,67.581 150.097,48.412c28.044,-10.287 54.931,-23.42 83.06,-33.616c34.399,-12.47 74.106,-27.118 111.857,-23.399c26.085,2.566 48.095,19.174 67.681,35.56c22.979,19.223 44.187,35.598 74.924,37.578" style="fill:none;fill-rule:nonzero;stroke:#6922ea;stroke-width:0.8px;"/><path d="M0.529,224.45c36.327,-0.494 69.377,-15.338 102.614,-27.468c26.594,-9.709 56.386,-20.324 85.583,-15.021c50.237,9.129 96.521,61.021 149.578,46.475c29.444,-8.069 57.512,-21.336 86.185,-31.559c35.106,-12.514 74.652,-27.6 113.04,-25.432c26.049,1.47 47.313,16.497 66.244,33.52c21.908,19.701 41.359,36.497 71.812,38.525" style="fill:none;fill-rule:nonzero;stroke:#6922ea;stroke-width:0.8px;"/><path d="M0.569,236.359c36.233,-0.124 69.705,-13.527 103.359,-24.485c27.144,-8.841 56.721,-18.024 86.014,-13.304c50.811,8.185 95.564,53.719 148.775,43.466c31.064,-5.983 60.777,-19.311 90.425,-29.646c36.274,-12.64 76.043,-28.143 115.461,-27.631c25.811,0.331 45.949,13.491 63.885,31.338c20.231,20.135 37.33,37.278 67.144,39.302" style="fill:none;fill-rule:nonzero;stroke:#6922ea;stroke-width:0.8px;"/><path d="M0.607,248.272c65.308,0.575 124.738,-41.876 190.632,-32.743c50.868,7.05 95.19,46.579 147.912,40.238c32.655,-3.927 64.144,-17.293 94.897,-27.764c37.539,-12.781 77.655,-28.689 118.141,-29.866c25.465,-0.74 44.546,10.332 61.332,29.129c18.352,20.561 32.968,38.027 62.154,40.046" style="fill:none;fill-rule:nonzero;stroke:#6922ea;stroke-width:0.8px;"/><path d="M0.645,260.184c65.478,0.976 125.671,-36.536 191.644,-28.682c50.597,6.024 95.343,40.368 147.216,37.635c33.903,-1.787 67.075,-15.227 98.714,-25.799c38.554,-12.879 78.843,-29.168 120.093,-32c25.1,-1.723 43.602,7.266 59.318,27.001c16.747,21.033 29.193,38.837 58.075,40.886" style="fill:none;fill-rule:nonzero;stroke:#6922ea;stroke-width:0.8px;"/><path d="M0.683,272.093c65.332,0.435 126.306,-34.19 192.082,-26.947c50.319,5.54 95.89,35.735 146.911,36.508c34.468,0.521 69.051,-13.07 101.005,-23.629c38.986,-12.885 78.953,-29.5 120.348,-33.911c24.85,-2.652 43.491,4.575 58.577,25.071c15.918,21.628 26.964,39.807 56.133,41.952" style="fill:none;fill-rule:nonzero;stroke:#6922ea;stroke-width:0.8px;"/></g></svg>