<svg width="40" height="40" fill="none" xmlns="http://www.w3.org/2000/svg"><path d="M19.984 37.142c10.962 0 17.128-6.165 17.128-17.127 0-10.961-6.166-17.127-17.128-17.127-10.961 0-17.127 6.166-17.127 17.127 0 10.962 6.166 17.127 17.127 17.127z" fill="#fff"/><path d="M37.112 20.015c0 10.962-6.166 17.127-17.128 17.127-10.961 0-17.127-6.165-17.127-17.127 0-10.961 6.166-17.127 17.127-17.127" stroke="#6922EA" stroke-width="3" stroke-linecap="round" stroke-linejoin="round"/><path d="M17.244 11.394c-3.977.902-6.166 3.91-6.166 8.62 0 5.7 3.206 8.906 8.906 8.906 4.942 0 8.009-2.41 8.738-6.764M19.984 20.014l5.936-5.936" stroke="#6922EA" stroke-width="3" stroke-linecap="round" stroke-linejoin="round"/><path d="M25.918 14.083l-.356-1.153a5.714 5.714 0 0 1 1.42-5.724l4.347-4.348L32.7 7.3l4.444 1.37-4.348 4.348a5.714 5.714 0 0 1-5.725 1.42l-1.152-.356z" fill="#D7E0FF" stroke="#6922EA" stroke-width="3" stroke-linecap="round" stroke-linejoin="round"/></svg>