<?xml version="1.0" encoding="UTF-8" standalone="no"?>
<!DOCTYPE svg PUBLIC "-//W3C//DTD SVG 1.1//EN" "http://www.w3.org/Graphics/SVG/1.1/DTD/svg11.dtd">
<svg width="100%" height="100%" viewBox="0 0 1440 600" version="1.1" xmlns="http://www.w3.org/2000/svg" xmlns:xlink="http://www.w3.org/1999/xlink" xml:space="preserve" xmlns:serif="http://www.serif.com/" style="fill-rule:evenodd;clip-rule:evenodd;stroke-linejoin:round;stroke-miterlimit:2;">
    <g>
        <rect x="0" y="0" width="1440" height="600" style="fill:rgb(21,27,44);"/>
        <path d="M569,266.5C514.323,62.675 477,-1.5 388,-51.5L845,-73L1206,222L1852,436.5C1830.67,527.833 1757.6,691 1636,613C1484,515.5 1492,509 1255,473C1055.28,442.663 653.5,581.5 569,266.5Z" style="fill:url(#_Linear1);fill-rule:nonzero;"/>
        <path d="M896.5,50C845.7,-35.2 806.333,-59.5 793,-61L1115,-102L1397,37L1669,77L1715,140.5L1706,481C1652.33,449.333 1543,388.5 1397,388.5C1248.39,388.5 1151.5,429.5 1018.5,388.5C919.214,357.893 960,156.5 896.5,50Z" style="fill:url(#_Radial2);fill-rule:nonzero;"/>
        <path d="M1192.5,121.5C1114.22,109.95 1078,-13.167 1075,-72L1732.5,-67L1703,145.5C1682.83,132.167 1628.8,118.1 1542,108.5C1433.5,96.5 1314.5,139.5 1192.5,121.5Z" style="fill:url(#_Linear3);fill-rule:nonzero;"/>
        <path d="M73.98,29.462C74.053,28.846 74.947,28.846 75.02,29.462L75.634,34.633C76.426,41.31 81.69,46.574 88.367,47.366L93.538,47.98C94.154,48.053 94.154,48.947 93.538,49.02L88.367,49.634C81.69,50.426 76.426,55.69 75.634,62.367L75.02,67.538C74.947,68.154 74.053,68.154 73.98,67.538L73.366,62.367C72.574,55.69 67.31,50.426 60.633,49.634L55.462,49.02C54.846,48.947 54.846,48.053 55.462,47.98L60.633,47.366C67.31,46.574 72.574,41.31 73.366,34.633L73.98,29.462Z" style="fill:rgb(233,146,208);fill-rule:nonzero;"/>
        <path d="M62.259,456.102C62.434,454.633 64.566,454.633 64.741,456.102L66.204,468.432C68.093,484.354 80.646,496.907 96.567,498.796L108.898,500.259C110.367,500.434 110.367,502.566 108.898,502.741L96.567,504.204C80.646,506.093 68.093,518.646 66.204,534.567L64.741,546.898C64.566,548.367 62.434,548.367 62.259,546.898L60.796,534.567C58.907,518.646 46.354,506.093 30.433,504.204L18.102,502.741C16.633,502.566 16.633,500.434 18.102,500.259L30.433,498.796C46.354,496.907 58.907,484.354 60.796,468.432L62.259,456.102Z" style="fill:rgb(233,146,208);fill-rule:nonzero;"/>
        <path d="M497.98,333.462C498.053,332.846 498.947,332.846 499.02,333.462L499.634,338.633C500.426,345.31 505.69,350.574 512.367,351.366L517.538,351.98C518.154,352.053 518.154,352.947 517.538,353.02L512.367,353.634C505.69,354.426 500.426,359.69 499.634,366.367L499.02,371.538C498.947,372.154 498.053,372.154 497.98,371.538L497.366,366.367C496.574,359.69 491.31,354.426 484.633,353.634L479.462,353.02C478.846,352.947 478.846,352.053 479.462,351.98L484.633,351.366C491.31,350.574 496.574,345.31 497.366,338.633L497.98,333.462Z" style="fill:rgb(233,146,208);fill-rule:nonzero;"/>
    </g>
    <defs>
        <linearGradient id="_Linear1" x1="0" y1="0" x2="1" y2="0" gradientUnits="userSpaceOnUse" gradientTransform="matrix(1262,1045,-1045,1262,350.5,-100)"><stop offset="0" style="stop-color:rgb(61,45,203);stop-opacity:1"/><stop offset="0.91" style="stop-color:rgb(98,54,175);stop-opacity:1"/><stop offset="1" style="stop-color:rgb(107,56,168);stop-opacity:1"/></linearGradient>
        <radialGradient id="_Radial2" cx="0" cy="0" r="1" gradientUnits="userSpaceOnUse" gradientTransform="matrix(187,-328,518.724,295.736,1245.5,174)"><stop offset="0" style="stop-color:rgb(107,56,168);stop-opacity:1"/><stop offset="1" style="stop-color:rgb(105,34,234);stop-opacity:1"/></radialGradient>
        <linearGradient id="_Linear3" x1="0" y1="0" x2="1" y2="0" gradientUnits="userSpaceOnUse" gradientTransform="matrix(1323,548.5,-548.5,1323,777,-148.5)"><stop offset="0" style="stop-color:rgb(105,34,234);stop-opacity:1"/><stop offset="1" style="stop-color:rgb(184,55,224);stop-opacity:1"/></linearGradient>
    </defs>
</svg>
