<svg xmlns="http://www.w3.org/2000/svg" fill="none" viewBox="-0.25 -0.25 200 200" id="Bank-2--Streamline-Bangalore.svg"><desc>Bank 2 Streamline Illustration: https://streamlinehq.com</desc><g id="bank-2--infrastructure-bank"><g id="circle"><path id="vector" fill="#b6db93" d="M43.029157500000004 20.6233125c-3.27748575 0.00029925 -6.518562750000001 0.6875767500000001 -9.514155 2.01744375s-5.6791665 3.2727975000000002 -7.87775625 5.703605250000001c-2.1984900000000005 2.43080775 -3.863118 5.2953285 -4.886553 8.40902475 -1.0233352500000001 3.1135965000000003 -1.3827345000000002 6.407142 -1.0550557500000002 9.668268750000001l23.44125 -8.2942125L50.467515000000006 58.852500000000006 40.34887500000001 62.42754000000001l1.7955 5.07927c3.1171875 0.12199425000000001 6.22729275 -0.3792495 9.14837175 -1.474305 2.921079 -1.09495575 5.5942792500000005 -2.76177825 7.863093 -4.90281225 2.2688137500000005 -2.1411337500000003 4.08765525 -4.7132872500000005 5.349991500000001 -7.5660375 1.2622365000000002 -2.85275025 1.9427310000000002 -5.928641250000001 2.0014837500000002 -9.04762425 0.058752750000000006 -3.118983 -0.5054332500000001 -6.218415 -1.6595407500000001 -9.11665125 -1.15400775 -2.89823625 -2.8746952500000003 -5.537022750000001 -5.0613150000000005 -7.762046250000001 -2.18661975 -2.2249237500000003 -4.7951820000000005 -3.991197 -7.67286975 -5.195379000000001 -2.8777874999999997 -1.20428175 -5.9668455 -1.82213325 -9.086427 -1.8176445l0.0019950000000000002 -0.0009975000000000001Z" stroke-width="0.5"></path><path id="vector_2" fill="#b6db93" d="M178.6113525 108.142965c5.858317500000001 -8.0208975 9.2178975 -17.59260825 9.65979 -27.5152395 0.4418925 -9.92263125 -2.0538525 -19.754988750000003 -7.1760150000000005 -28.2649605 -1.6119600000000003 1.406076 -3.5221725000000004 2.42801475 -5.5869975 2.988909 -2.0638275 0.56089425 -4.2284025000000005 0.6461805 -6.330135 0.249375 -2.10273 -0.39680550000000003 -4.086757500000001 -1.2653287500000001 -5.8044525 -2.5401337500000003 -1.717695 -1.2749047500000001 -3.1241700000000003 -2.9228745000000003 -4.1126925000000005 -4.81982025 -12.34107 9.9181425 -31.022250000000003 1.2199425000000002 -31.022250000000003 -14.8797075 -0.0009975000000000001 -1.55600025 0.18852750000000001 -3.10631475 0.5635875 -4.61643 -9.9660225 1.8137542500000001 -19.1529975 6.59297625 -26.358937500000003 13.7126325 5.442360000000001 0.7299705000000001 10.5505575 3.041178 14.6921775 6.64704075 4.1406225 3.60586275 7.1331225 8.347878000000001 8.604435 13.63811925h35.306512500000004l18.1634775 18.164475000000003 3.61893 5.70171h-4.21743v21.53403Z" stroke-width="0.5"></path></g><g id="card 2"><path id="vector_3" stroke="#120071" stroke-linecap="round" stroke-linejoin="round" d="M15.106140000000002 67.91279250000001 8.858797500000001 50.256045l34.2770925 -12.128602500000001 7.331625 20.72007 -10.118640000000001 3.5800275000000004" stroke-width="0.5"></path><g id="group"><path id="vector_4" stroke="#120071" stroke-linecap="round" stroke-linejoin="round" d="m19.42401825 49.875 -5.798268 2.051658 2.051658 5.798367750000001 5.798367750000001 -2.05175775L19.42401825 49.875Z" stroke-width="0.5"></path><path id="vector_5" stroke="#120071" stroke-linecap="round" stroke-linejoin="round" d="M42.583275 48.2041875 36.53643 47.08200000000001l3.9959850000000006 -4.675282500000001 2.05086 5.797470000000001Z" stroke-width="0.5"></path><g id="group_2"><g id="group_3"><path id="vector_6" stroke="#120071" stroke-linecap="round" stroke-linejoin="round" d="m17.0462775 61.7582175 2.5745475 2.0398875" stroke-width="0.5"></path><path id="vector_7" stroke="#120071" stroke-linecap="round" stroke-linejoin="round" d="m18.69315 61.175677500000006 -0.7191975 3.2049675000000004" stroke-width="0.5"></path></g><g id="group_4"><path id="vector_8" stroke="#120071" stroke-linecap="round" stroke-linejoin="round" d="m20.131545 60.66695250000001 2.5745475 2.0388900000000003" stroke-width="0.5"></path><path id="vector_9" stroke="#120071" stroke-linecap="round" stroke-linejoin="round" d="m21.7784175 60.083415 -0.7191975 3.2049675000000004" stroke-width="0.5"></path></g><g id="group_5"><path id="vector_10" stroke="#120071" stroke-linecap="round" stroke-linejoin="round" d="m23.21781 59.57469 2.57355 2.0388900000000003" stroke-width="0.5"></path><path id="vector_11" stroke="#120071" stroke-linecap="round" stroke-linejoin="round" d="m24.863685 58.99215 -0.7182000000000001 3.2049675000000004" stroke-width="0.5"></path></g><g id="group_6"><path id="vector_12" stroke="#120071" stroke-linecap="round" stroke-linejoin="round" d="m26.3030775 58.483425000000004 2.5745475 2.0388900000000003" stroke-width="0.5"></path><path id="vector_13" stroke="#120071" stroke-linecap="round" stroke-linejoin="round" d="m27.94995 57.899887500000006 -0.7191975 3.2049675000000004" stroke-width="0.5"></path></g></g></g></g><g id="card 1"><path id="vector_14" stroke="#120071" stroke-linecap="round" stroke-linejoin="round" d="M32.810767500000004 84.9620625 12.319125 92.21289 4.987500000000001 71.49282l34.2770925 -12.128602500000001 5.947095 16.8088725" stroke-width="0.5"></path><path id="vector_15" stroke="#120071" stroke-linecap="round" stroke-linejoin="round" d="m15.5532195 71.11287225000001 -5.7983079 2.051658 2.0516978999999997 5.798367750000001 5.798268 -2.05175775 -2.051658 -5.798268Z" stroke-width="0.5"></path><path id="vector_16" stroke="#120071" stroke-linecap="round" stroke-linejoin="round" d="m38.71297500000001 69.44196000000001 -6.0478425 -1.1221875000000001 3.9959850000000006 -4.67628 2.0518575 5.7984675Z" stroke-width="0.5"></path><g id="group_7"><g id="group_8"><path id="vector_17" stroke="#120071" stroke-linecap="round" stroke-linejoin="round" d="m13.174980000000001 82.99499250000001 2.5745475 2.0398875" stroke-width="0.5"></path><path id="vector_18" stroke="#120071" stroke-linecap="round" stroke-linejoin="round" d="m14.8218525 82.4124525 -0.7191975 3.2049675000000004" stroke-width="0.5"></path></g><g id="group_9"><path id="vector_19" stroke="#120071" stroke-linecap="round" stroke-linejoin="round" d="m16.261245 81.9037275 2.57355 2.0388900000000003" stroke-width="0.5"></path><path id="vector_20" stroke="#120071" stroke-linecap="round" stroke-linejoin="round" d="m17.907120000000003 81.32118750000001 -0.7182000000000001 3.2039700000000004" stroke-width="0.5"></path></g><g id="group_10"><path id="vector_21" stroke="#120071" stroke-linecap="round" stroke-linejoin="round" d="m19.3465125 80.811465 2.5745475 2.0398875" stroke-width="0.5"></path><path id="vector_22" stroke="#120071" stroke-linecap="round" stroke-linejoin="round" d="m20.993385 80.22892500000002 -0.7191975 3.2049675000000004" stroke-width="0.5"></path></g><g id="group_11"><path id="vector_23" stroke="#120071" stroke-linecap="round" stroke-linejoin="round" d="m22.43178 79.7202 2.5745475 2.0388900000000003" stroke-width="0.5"></path><path id="vector_24" stroke="#120071" stroke-linecap="round" stroke-linejoin="round" d="m24.0786525 79.13766 -0.7191975 3.2039700000000004" stroke-width="0.5"></path></g></g></g><g id="coin 1"><path id="vector_25" stroke="#120071" stroke-linecap="round" stroke-linejoin="round" d="M165.86829 28.8846075c-1.0962525 -4.539822 -3.81843 -8.520246000000002 -7.65282 -11.18706225 -3.8333925 -2.666916 -8.512665000000002 -3.8351880000000005 -13.150042500000001 -3.28347075 -4.6373775 0.55171725 -8.911665 2.7851197500000002 -12.0128925 6.277068 -3.1012275000000002 3.4919482500000005 -4.813935 8.00004975 -4.813935 12.670245000000001 0 16.1066325 18.6861675 24.793860000000002 31.022250000000003 14.8797075" stroke-width="0.5"></path><path id="vector_26" stroke="#120071" stroke-linecap="round" stroke-linejoin="round" d="M152.104785 25.007325h-5.3974725c-1.1082225 0 -2.1705600000000005 0.440097 -2.9535975 1.2235335 -0.784035 0.7834365 -1.2239325 1.84607325 -1.2239325 2.9539965 0 1.10792325 0.43989750000000005 2.1705600000000005 1.2239325 2.9539965 0.7830375 0.7834365 1.8453750000000002 1.2235335 2.9535975 1.2235335h1.2219375000000001c1.0962525 0.016957500000000004 2.14263 0.464436 2.9117025 1.2459772500000001 0.77007 0.78154125 1.20099 1.83430275 1.20099 2.9310540000000005 0 1.09675125 -0.43092 2.14951275 -1.20099 2.9310540000000005 -0.7690725 0.78154125 -1.8154500000000002 1.22901975 -2.9117025 1.2459772500000001h-5.3974725" stroke-width="0.5"></path><path id="vector_27" stroke="#120071" stroke-linecap="round" stroke-linejoin="round" d="M147.31778250000002 21.58191v23.560950000000002" stroke-width="0.5"></path></g><g id="coin 2"><path id="vector_28" stroke="#120071" stroke-linecap="round" stroke-linejoin="round" d="M185.77839 43.81568625c1.1600925000000002 -7.71915375 -4.1585775 -14.916615000000002 -11.8772325 -16.0759095 -7.7196525000000005 -1.1592945 -14.916615000000002 4.1585775 -16.07571 11.877831 -1.1600925000000002 7.71915375 4.1585775 14.916615000000002 11.8772325 16.0759095 7.7196525000000005 1.1592945 14.916615000000002 -4.1585775 16.07571 -11.877831Z" stroke-width="0.5"></path><path id="vector_29" stroke="#120071" stroke-linecap="round" stroke-linejoin="round" d="M175.34653500000002 35.5279575h-3.99798c-0.819945 0 -1.6069725000000001 0.3257835 -2.1865200000000002 0.90573 -0.5795475 0.5798467500000001 -0.90573 1.3663755 -0.90573 2.1865200000000002 0 0.8201445 0.32618250000000004 1.60667325 0.90573 2.1865200000000002 0.5795475 0.5799465 1.366575 0.90573 2.1865200000000002 0.90573h0.9037350000000001c0.819945 0 1.6069725000000001 0.3257835 2.1865200000000002 0.90573 0.5795475 0.5798467500000001 0.90573 1.3663755 0.90573 2.1865200000000002 0 0.8201445 -0.32618250000000004 1.60667325 -0.90573 2.1865200000000002 -0.5795475 0.5799465 -1.366575 0.90573 -2.1865200000000002 0.90573h-3.99798" stroke-width="0.5"></path><path id="vector_30" stroke="#120071" stroke-linecap="round" stroke-linejoin="round" d="M171.8004225 32.989320000000006V50.443575" stroke-width="0.5"></path></g><g id="building"><path id="vector_31" stroke="#120071" stroke-linecap="round" stroke-linejoin="round" d="M150.6793575 86.6099325H38.3708325v94.32958500000001h112.308525V86.6099325Z" stroke-width="0.5"></path><path id="vector_32" stroke="#120071" stroke-linecap="round" stroke-linejoin="round" d="M178.6113525 86.608935h-27.931995v94.32958500000001h27.931995V86.608935Z" stroke-width="0.5"></path><path id="vector_33" stroke="#120071" stroke-linecap="round" stroke-linejoin="round" d="M194.51250000000002 180.93951750000002H20.2622175v4.27728H194.51250000000002v-4.27728Z" stroke-width="0.5"></path><path id="vector_34" stroke="#120071" stroke-linecap="round" stroke-linejoin="round" d="M123.56331750000001 144.1277775h-72.51825000000001v36.80775h6.5705325v-20.548500000000004c0 -0.9526125 0.18753 -1.89525 0.5520165 -2.775045 0.36438675000000004 -0.8797950000000001 0.8985480000000001 -1.6797900000000001 1.57196025 -2.3531025000000003s1.4729085 -1.2069750000000001 2.3527035 -1.5720600000000002c0.8797950000000001 -0.3640875 1.8228315 -0.5516175000000001 2.77514475 -0.5516175000000001 0.95231325 0 1.89534975 0.18753 2.77514475 0.5516175000000001 0.8797950000000001 0.365085 1.6792912500000001 0.8987475 2.3527035 1.5720600000000002s1.2075734999999999 1.4733075000000002 1.57196025 2.3531025000000003c0.36448650000000005 0.8797950000000001 0.5520165 1.8224325000000001 0.5520165 2.775045v20.548500000000004h5.885250000000001V162.43290000000002c-0.012768000000000002 -1.22892 0.218253 -2.4468675 0.6795967500000001 -3.5860125000000003 0.461244 -1.139145 1.1438332500000001 -2.1745500000000004 2.0079675 -3.0473625 0.864234 -0.8738100000000001 1.8930555 -1.5670725 3.0269137500000003 -2.0398875 1.1337585000000001 -0.472815 2.3502097500000003 -0.7172025 3.57873075 -0.7172025 1.2286207500000002 0 2.44497225 0.2443875 3.57873075 0.7172025 1.13385825 0.472815 2.16267975 1.1660775 3.0268140000000003 2.0398875 0.864234 0.8728125 1.54682325 1.9082175000000001 2.0080672500000003 3.0473625 0.46134375000000005 1.139145 0.6923647500000001 2.3570925000000003 0.6795967500000001 3.5860125000000003v18.5066175h5.8902375000000005v-20.548500000000004c-0.0109725 -0.959595 0.16758 -1.91121 0.5276775 -2.80098 0.35910000000000003 -0.8897700000000001 0.891765 -1.69974 1.566075 -2.38203 0.6743100000000001 -0.6822900000000001 1.4772975000000002 -1.2239325 2.3630775 -1.5940050000000001 0.8847825 -0.36907500000000004 1.8354000000000001 -0.5595975000000001 2.7939975 -0.5595975000000001 0.959595 0 1.9102125 0.1905225 2.794995 0.5595975000000001 0.88578 0.3700725 1.6887675000000002 0.911715 2.3630775 1.5940050000000001 0.6743100000000001 0.6822900000000001 1.2069750000000001 1.4922600000000001 1.566075 2.38203 0.3600975 0.8897700000000001 0.5386500000000001 1.8413850000000003 0.5276775 2.80098v20.548500000000004h6.57153l0.007980000000000001 -36.81174000000001Z" stroke-width="0.5"></path><path id="vector_35" stroke="#120071" stroke-linecap="round" stroke-linejoin="round" d="M60.131295 154.90576500000003v26.034750000000003H72.11925000000001v-20.548500000000004c-0.0034912500000000004 -1.3875225 -0.40448625000000005 -2.7441225 -1.155504 -3.9111975 -0.75101775 -1.1660775 -1.820637 -2.092755 -3.0820755 -2.6703075000000003 -1.26133875 -0.576555 -2.66182875 -0.7810425000000001 -4.03538625 -0.58653 -1.3736572500000002 0.1945125 -2.66282625 0.77805 -3.7149892500000004 1.681785Z" stroke-width="0.5"></path><path id="vector_36" fill="#b6db93" d="M57.61959000000001 160.3910175v20.548500000000004h2.511705v-26.034750000000003c-0.7888229999999999 0.6802950000000001 -1.421637 1.5221850000000001 -1.85505075 2.4688125000000003 -0.4335135 0.9466275 -0.6574522500000001 1.9760475000000002 -0.65665425 3.0174375Z" stroke-width="0.5"></path><path id="vector_37" stroke="#120071" stroke-linecap="round" stroke-linejoin="round" d="M116.9917875 160.3910175c-0.0039900000000000005 -1.37655 -0.399 -2.7241725 -1.1401425 -3.8852625 -0.740145 -1.16109 -1.7964975 -2.08677 -3.0433725000000003 -2.6703075000000003 -1.2468750000000002 -0.5835375 -2.6343975 -0.8009925000000001 -3.999975 -0.6254325000000001 -1.366575 0.1745625 -2.6543475 0.7351575 -3.7136925 1.6139550000000003v26.1155475h11.8971825v-20.548500000000004Z" stroke-width="0.5"></path><path id="vector_38" fill="#b6db93" d="M102.489135 160.3910175v20.548500000000004h2.6054700000000004v-26.1155475c-0.815955 0.6792975000000001 -1.4733075000000002 1.5311625 -1.9231800000000001 2.4927525000000004 -0.4498725 0.9625875 -0.6832875 2.0119575 -0.6822900000000001 3.074295Z" stroke-width="0.5"></path><path id="vector_39" stroke="#120071" stroke-linecap="round" stroke-linejoin="round" d="M80.8763025 155.7267075v25.21281h15.722595000000002V162.43290000000002c-0.0041895 -1.8194400000000002 -0.541842 -3.596985 -1.54642425 -5.1141825 -1.0045822500000001 -1.5162 -2.4319050000000004 -2.70522 -4.1053109999999995 -3.41943 -1.67330625 -0.7132125 -3.5193795000000003 -0.9206925000000001 -5.30939325 -0.5965050000000001 -1.7900137500000002 0.325185 -3.44546475 1.1680725 -4.7614665 2.423925Z" stroke-width="0.5"></path><path id="vector_40" fill="#b6db93" d="M78.01248 162.43290000000002v18.5066175h2.8638225v-25.21281c-0.90622875 0.86583 -1.6272217500000001 1.90722 -2.119488 3.0593325000000005 -0.49226625 1.15311 -0.7455315 2.3930025 -0.7443345 3.64686Z" stroke-width="0.5"></path><path id="vector_41" stroke="#120071" stroke-linecap="round" stroke-linejoin="round" d="M134.56973250000001 144.1277775h-11.006415v36.81174000000001h11.006415v-36.81174000000001Z" stroke-width="0.5"></path><path id="vector_42" fill="#b6db93" d="M111.9993 158.5895325c-0.4778025 -0.149625 -0.9845325 -0.185535 -1.4792925000000001 -0.1027425 -0.49376250000000005 0.081795 -0.9615900000000001 0.27930000000000005 -1.3655775 0.5755574999999999 -0.40398750000000005 0.2962575 -0.7321650000000001 0.6832875 -0.9585975 1.131165 -0.2264325 0.44688000000000005 -0.3441375 0.9406425 -0.3441375 1.4413875v9.011415000000001h1.91121v-9.011415000000001c0 -0.6792975000000001 0.217455 -1.3416375 0.6194475 -1.889265 0.40199250000000003 -0.5476275 0.9685725000000001 -0.9526125 1.6169475 -1.1561025Z" stroke-width="0.5"></path><path id="vector_43" stroke="#120071" stroke-linecap="round" stroke-linejoin="round" d="M111.9993 158.5895325c-0.648375 0.20349 -1.214955 0.608475 -1.6169475 1.1561025s-0.6194475 1.2099675 -0.6194475 1.889265v9.011415000000001h4.4717925v-9.011415000000001c0 -0.6792975000000001 -0.2164575 -1.3416375 -0.61845 -1.889265 -0.40199250000000003 -0.5476275 -0.9685725000000001 -0.9526125 -1.6169475 -1.1561025Z" stroke-width="0.5"></path><path id="vector_44" fill="#b6db93" d="M143.58015 158.5895325c-0.4778025 -0.149625 -0.9845325 -0.185535 -1.4792925000000001 -0.1027425 -0.49376250000000005 0.081795 -0.9615900000000001 0.27930000000000005 -1.3655775 0.5755574999999999 -0.40398750000000005 0.2962575 -0.7321650000000001 0.6832875 -0.9585975 1.131165 -0.2264325 0.44688000000000005 -0.3441375 0.9406425 -0.3441375 1.4413875v9.011415000000001h1.913205v-9.011415000000001c0 -0.6792975000000001 0.2164575 -1.34064 0.61845 -1.8882675000000002 0.40199250000000003 -0.5476275 0.9675750000000001 -0.95361 1.6159500000000002 -1.1571Z" stroke-width="0.5"></path><path id="vector_45" stroke="#120071" stroke-linecap="round" stroke-linejoin="round" d="M143.58015 158.5895325c-0.648375 0.20349 -1.214955 0.608475 -1.6169475 1.1561025s-0.61845 1.2099675 -0.61845 1.889265v9.011415000000001h4.470795000000001v-9.011415000000001c0 -0.6792975000000001 -0.2164575 -1.3416375 -0.61845 -1.889265 -0.40199250000000003 -0.5476275 -0.9685725000000001 -0.9526125 -1.6169475 -1.1561025Z" stroke-width="0.5"></path><path id="vector_46" fill="#b6db93" d="M143.58015 121.98028500000001c-0.4778025 -0.149625 -0.9845325 -0.185535 -1.4792925000000001 -0.1027425 -0.49376250000000005 0.081795 -0.9615900000000001 0.27930000000000005 -1.3655775 0.5755574999999999 -0.40398750000000005 0.2962575 -0.7321650000000001 0.6832875 -0.9585975 1.131165 -0.2264325 0.44688000000000005 -0.3441375 0.9406425 -0.3441375 1.4413875v9.011415000000001h1.913205v-9.011415000000001c0 -0.6792975000000001 0.2164575 -1.34064 0.61845 -1.8882675000000002 0.40199250000000003 -0.5476275 0.9675750000000001 -0.95361 1.6159500000000002 -1.1571Z" stroke-width="0.5"></path><path id="vector_47" stroke="#120071" stroke-linecap="round" stroke-linejoin="round" d="M143.58015 121.98028500000001c-0.648375 0.20349 -1.214955 0.608475 -1.6169475 1.1561025s-0.61845 1.2099675 -0.61845 1.889265v9.011415000000001h4.470795000000001v-9.011415000000001c0 -0.6792975000000001 -0.2164575 -1.3416375 -0.61845 -1.889265 -0.40199250000000003 -0.5476275 -0.9685725000000001 -0.9526125 -1.6169475 -1.1561025Z" stroke-width="0.5"></path><path id="vector_48" fill="#b6db93" d="M47.18175 158.5895325c-0.47800200000000004 -0.149625 -0.98463225 -0.185535 -1.47879375 -0.1027425 -0.49426125000000004 0.081795 -0.9621885000000001 0.27930000000000005 -1.3659765 0.5755574999999999 -0.40378800000000004 0.2962575 -0.7321650000000001 0.6832875 -0.95849775 1.131165 -0.22633275 0.44688000000000005 -0.344337 0.9406425 -0.344337 1.4413875v9.011415000000001h1.9122075v-9.011415000000001c0 -0.6792975000000001 0.21675675 -1.3416375 0.618849 -1.889265 0.40199250000000003 -0.5476275 0.968373 -0.9526125 1.6165485000000002 -1.1561025Z" stroke-width="0.5"></path><path id="vector_49" stroke="#120071" stroke-linecap="round" stroke-linejoin="round" d="M47.18175 158.5895325c-0.6481755000000001 0.20349 -1.2145560000000002 0.608475 -1.6165485000000002 1.1561025 -0.40209225000000004 0.5476275 -0.618849 1.2099675 -0.618849 1.889265v9.011415000000001h4.470795000000001v-9.011415000000001c0 -0.6792975000000001 -0.21675675 -1.3416375 -0.618849 -1.889265 -0.40199250000000003 -0.5476275 -0.968373 -0.9526125 -1.6165485000000002 -1.1561025Z" stroke-width="0.5"></path><path id="vector_50" fill="#b6db93" d="M47.18175 121.98028500000001c-0.47800200000000004 -0.149625 -0.98463225 -0.185535 -1.47879375 -0.1027425 -0.49426125000000004 0.081795 -0.9621885000000001 0.27930000000000005 -1.3659765 0.5755574999999999 -0.40378800000000004 0.2962575 -0.7321650000000001 0.6832875 -0.95849775 1.131165 -0.22633275 0.44688000000000005 -0.344337 0.9406425 -0.344337 1.4413875v9.011415000000001h1.9122075v-9.011415000000001c0 -0.6792975000000001 0.21675675 -1.3416375 0.618849 -1.889265 0.40199250000000003 -0.5476275 0.968373 -0.9526125 1.6165485000000002 -1.1561025Z" stroke-width="0.5"></path><path id="vector_51" stroke="#120071" stroke-linecap="round" stroke-linejoin="round" d="M47.18175 121.98028500000001c-0.6481755000000001 0.20349 -1.2145560000000002 0.608475 -1.6165485000000002 1.1561025 -0.40209225000000004 0.5476275 -0.618849 1.2099675 -0.618849 1.889265v9.011415000000001h4.470795000000001v-9.011415000000001c0 -0.6792975000000001 -0.21675675 -1.3416375 -0.618849 -1.889265 -0.40199250000000003 -0.5476275 -0.968373 -0.9526125 -1.6165485000000002 -1.1561025Z" stroke-width="0.5"></path><path id="vector_52" fill="#b6db93" d="M143.58015 95.08668750000001c-0.4778025 -0.15002400000000002 -0.9845325 -0.18533550000000001 -1.4792925000000001 -0.10324125 -0.49376250000000005 0.08209425000000001 -0.9615900000000001 0.27939975000000006 -1.3655775 0.57585675 -0.40398750000000005 0.29655675000000004 -0.7321650000000001 0.6839857500000001 -0.9585975 1.13086575 -0.2264325 0.44697975 -0.3441375 0.9409417500000001 -0.3441375 1.44188625v9.011415000000001h1.913205v-9.011415000000001c0 -0.6792975000000001 0.2164575 -1.3409392500000001 0.61845 -1.8886665 0.40199250000000003 -0.5477272500000001 0.9675750000000001 -0.9529117500000001 1.6159500000000002 -1.156701Z" stroke-width="0.5"></path><path id="vector_53" stroke="#120071" stroke-linecap="round" stroke-linejoin="round" d="M143.58015 95.08668750000001c-0.648375 0.20358975 -1.214955 0.60877425 -1.6169475 1.1565015s-0.61845 1.2094687499999999 -0.61845 1.8888660000000002v9.011415000000001h4.470795000000001v-9.011415000000001c0 -0.6793972500000001 -0.2164575 -1.34113875 -0.61845 -1.8888660000000002 -0.40199250000000003 -0.5477272500000001 -0.9685725000000001 -0.9529117500000001 -1.6169475 -1.1565015Z" stroke-width="0.5"></path><path id="vector_54" fill="#b6db93" d="M158.4239475 158.5895325c0.4778025 -0.149625 0.9845325 -0.185535 1.4792925000000001 -0.1027425 0.49376250000000005 0.081795 0.9615900000000001 0.27930000000000005 1.3655775 0.5755574999999999 0.40398750000000005 0.2962575 0.7321650000000001 0.6832875 0.9585975 1.131165 0.2264325 0.44688000000000005 0.3441375 0.9406425 0.3441375 1.4413875v9.011415000000001h-1.9122075v-9.011415000000001c0 -0.6792975000000001 -0.2164575 -1.3416375 -0.61845 -1.889265 -0.40199250000000003 -0.5476275 -0.9685725000000001 -0.9526125 -1.6169475 -1.1561025Z" stroke-width="0.5"></path><path id="vector_55" stroke="#120071" stroke-linecap="round" stroke-linejoin="round" d="M158.4239475 158.5895325c0.648375 0.20349 1.214955 0.608475 1.6169475 1.1561025s0.61845 1.2099675 0.61845 1.889265v9.011415000000001h-4.470795000000001v-9.011415000000001c0 -0.6792975000000001 0.2164575 -1.3416375 0.61845 -1.889265 0.40199250000000003 -0.5476275 0.9685725000000001 -0.9526125 1.6169475 -1.1561025Z" stroke-width="0.5"></path><path id="vector_56" fill="#b6db93" d="M158.4239475 121.98028500000001c0.4778025 -0.149625 0.9845325 -0.185535 1.4792925000000001 -0.1027425 0.49376250000000005 0.081795 0.9615900000000001 0.27930000000000005 1.3655775 0.5755574999999999 0.40398750000000005 0.2962575 0.7321650000000001 0.6832875 0.9585975 1.131165 0.2264325 0.44688000000000005 0.3441375 0.9406425 0.3441375 1.4413875v9.011415000000001h-1.9122075v-9.011415000000001c0 -0.6792975000000001 -0.2164575 -1.3416375 -0.61845 -1.889265 -0.40199250000000003 -0.5476275 -0.9685725000000001 -0.9526125 -1.6169475 -1.1561025Z" stroke-width="0.5"></path><path id="vector_57" stroke="#120071" stroke-linecap="round" stroke-linejoin="round" d="M158.4239475 121.98028500000001c0.648375 0.20349 1.214955 0.608475 1.6169475 1.1561025s0.61845 1.2099675 0.61845 1.889265v9.011415000000001h-4.470795000000001v-9.011415000000001c0 -0.6792975000000001 0.2164575 -1.3416375 0.61845 -1.889265 0.40199250000000003 -0.5476275 0.9685725000000001 -0.9526125 1.6169475 -1.1561025Z" stroke-width="0.5"></path><path id="vector_58" fill="#b6db93" d="M158.4239475 95.08668750000001c0.4778025 -0.15002400000000002 0.9845325 -0.18533550000000001 1.4792925000000001 -0.10324125 0.49376250000000005 0.08209425000000001 0.9615900000000001 0.27939975000000006 1.3655775 0.57585675 0.40398750000000005 0.29655675000000004 0.7321650000000001 0.6839857500000001 0.9585975 1.13086575 0.2264325 0.44697975 0.3441375 0.9409417500000001 0.3441375 1.44188625v9.011415000000001h-1.9122075v-9.011415000000001c0 -0.679497 -0.2164575 -1.34113875 -0.61845 -1.8888660000000002 -0.40199250000000003 -0.5477272500000001 -0.9685725000000001 -0.9529117500000001 -1.6169475 -1.1565015Z" stroke-width="0.5"></path><path id="vector_59" stroke="#120071" stroke-linecap="round" stroke-linejoin="round" d="M158.4239475 95.08668750000001c0.648375 0.20358975 1.214955 0.60877425 1.6169475 1.1565015s0.61845 1.2094687499999999 0.61845 1.8888660000000002v9.011415000000001h-4.470795000000001v-9.011415000000001c0 -0.6793972500000001 0.2164575 -1.34113875 0.61845 -1.8888660000000002 0.40199250000000003 -0.5477272500000001 0.9685725000000001 -0.9529117500000001 1.6169475 -1.1565015Z" stroke-width="0.5"></path><path id="vector_60" fill="#b6db93" d="M169.8233775 158.5895325c0.4778025 -0.149625 0.9845325 -0.185535 1.4792925000000001 -0.1027425 0.49376250000000005 0.081795 0.9615900000000001 0.27930000000000005 1.3655775 0.5755574999999999 0.40398750000000005 0.2962575 0.7321650000000001 0.6832875 0.9585975 1.131165 0.2264325 0.44688000000000005 0.3441375 0.9406425 0.3441375 1.4413875v9.011415000000001h-1.9122075v-9.011415000000001c0 -0.6792975000000001 -0.2164575 -1.3416375 -0.61845 -1.889265 -0.40199250000000003 -0.5476275 -0.9685725000000001 -0.9526125 -1.6169475 -1.1561025Z" stroke-width="0.5"></path><path id="vector_61" stroke="#120071" stroke-linecap="round" stroke-linejoin="round" d="M169.8233775 158.5895325c0.648375 0.20349 1.214955 0.608475 1.6169475 1.1561025s0.61845 1.2099675 0.61845 1.889265v9.011415000000001h-4.4717925v-9.011415000000001c0 -0.6792975000000001 0.217455 -1.3416375 0.6194475 -1.889265 0.40199250000000003 -0.5476275 0.9685725000000001 -0.9526125 1.6169475 -1.1561025Z" stroke-width="0.5"></path><path id="vector_62" fill="#b6db93" d="M169.8233775 121.98028500000001c0.4778025 -0.149625 0.9845325 -0.185535 1.4792925000000001 -0.1027425 0.49376250000000005 0.081795 0.9615900000000001 0.27930000000000005 1.3655775 0.5755574999999999 0.40398750000000005 0.2962575 0.7321650000000001 0.6832875 0.9585975 1.131165 0.2264325 0.44688000000000005 0.3441375 0.9406425 0.3441375 1.4413875v9.011415000000001h-1.9122075v-9.011415000000001c0 -0.6792975000000001 -0.2164575 -1.3416375 -0.61845 -1.889265 -0.40199250000000003 -0.5476275 -0.9685725000000001 -0.9526125 -1.6169475 -1.1561025Z" stroke-width="0.5"></path><path id="vector_63" stroke="#120071" stroke-linecap="round" stroke-linejoin="round" d="M169.8233775 121.98028500000001c0.648375 0.20349 1.214955 0.608475 1.6169475 1.1561025s0.61845 1.2099675 0.61845 1.889265v9.011415000000001h-4.4717925v-9.011415000000001c0 -0.6792975000000001 0.217455 -1.3416375 0.6194475 -1.889265 0.40199250000000003 -0.5476275 0.9685725000000001 -0.9526125 1.6169475 -1.1561025Z" stroke-width="0.5"></path><path id="vector_64" fill="#b6db93" d="M169.8233775 95.08668750000001c0.4778025 -0.15002400000000002 0.9845325 -0.18533550000000001 1.4792925000000001 -0.10324125 0.49376250000000005 0.08209425000000001 0.9615900000000001 0.27939975000000006 1.3655775 0.57585675 0.40398750000000005 0.29655675000000004 0.7321650000000001 0.6839857500000001 0.9585975 1.13086575 0.2264325 0.44697975 0.3441375 0.9409417500000001 0.3441375 1.44188625v9.011415000000001h-1.9122075v-9.011415000000001c0 -0.679497 -0.2164575 -1.34113875 -0.61845 -1.8888660000000002 -0.40199250000000003 -0.5477272500000001 -0.9685725000000001 -0.9529117500000001 -1.6169475 -1.1565015Z" stroke-width="0.5"></path><path id="vector_65" stroke="#120071" stroke-linecap="round" stroke-linejoin="round" d="M169.8233775 95.08668750000001c0.648375 0.20358975 1.214955 0.60877425 1.6169475 1.1565015s0.61845 1.2094687499999999 0.61845 1.8888660000000002v9.011415000000001h-4.4717925v-9.011415000000001c0 -0.6795967500000001 0.217455 -1.3413382500000002 0.6194475 -1.88916525 0.40199250000000003 -0.5477272500000001 0.9685725000000001 -0.95271225 1.6169475 -1.15620225Z" stroke-width="0.5"></path><path id="vector_66" fill="#b6db93" d="M124.29947250000001 95.08668750000001c-0.4778025 -0.15002400000000002 -0.9845325 -0.18533550000000001 -1.4792925000000001 -0.10324125 -0.49376250000000005 0.08209425000000001 -0.9615900000000001 0.27939975000000006 -1.3655775 0.57585675 -0.40398750000000005 0.29655675000000004 -0.7321650000000001 0.6839857500000001 -0.9585975 1.13086575 -0.2264325 0.44697975 -0.3441375 0.9409417500000001 -0.3441375 1.44188625v9.011415000000001h1.9122075v-9.011415000000001c0 -0.679497 0.2164575 -1.34113875 0.61845 -1.8888660000000002 0.40199250000000003 -0.5477272500000001 0.9685725000000001 -0.9529117500000001 1.6169475 -1.1565015Z" stroke-width="0.5"></path><path id="vector_67" stroke="#120071" stroke-linecap="round" stroke-linejoin="round" d="M124.29947250000001 95.08668750000001c-0.648375 0.20358975 -1.214955 0.60877425 -1.6169475 1.1565015s-0.61845 1.2094687499999999 -0.61845 1.8888660000000002v9.011415000000001h4.470795000000001v-9.011415000000001c0 -0.6793972500000001 -0.2164575 -1.34113875 -0.61845 -1.8888660000000002 -0.40199250000000003 -0.5477272500000001 -0.9685725000000001 -0.9529117500000001 -1.6169475 -1.1565015Z" stroke-width="0.5"></path><path id="vector_68" fill="#b6db93" d="M105.018795 95.08668750000001c-0.4778025 -0.15002400000000002 -0.9845325 -0.18533550000000001 -1.4792925000000001 -0.10324125 -0.49376250000000005 0.08209425000000001 -0.9615900000000001 0.27939975000000006 -1.3655775 0.57585675 -0.40398750000000005 0.29655675000000004 -0.7321650000000001 0.6839857500000001 -0.9585975 1.13086575 -0.2264325 0.44697975 -0.3441375 0.9409417500000001 -0.3441375 1.44188625v9.011415000000001h1.9122075v-9.011415000000001c0 -0.679497 0.2164575 -1.34113875 0.61845 -1.8888660000000002 0.40199250000000003 -0.5477272500000001 0.9685725000000001 -0.9529117500000001 1.6169475 -1.1565015Z" stroke-width="0.5"></path><path id="vector_69" stroke="#120071" stroke-linecap="round" stroke-linejoin="round" d="M105.018795 95.08668750000001c-0.648375 0.20358975 -1.214955 0.60877425 -1.6169475 1.1565015s-0.61845 1.2094687499999999 -0.61845 1.8888660000000002v9.011415000000001h4.470795000000001v-9.011415000000001c0 -0.6793972500000001 -0.2164575 -1.34113875 -0.61845 -1.8888660000000002 -0.40199250000000003 -0.5477272500000001 -0.9685725000000001 -0.9529117500000001 -1.6169475 -1.1565015Z" stroke-width="0.5"></path><path id="vector_70" fill="#b6db93" d="M85.7381175 95.08668750000001c-0.47770275 -0.1490265 -0.9837345000000001 -0.18363975000000002 -1.4772975000000002 -0.10104675 -0.49356300000000003 0.08249325 -0.960792 0.27999825 -1.3639815 0.5763555 -0.40318950000000003 0.296457 -0.73106775 0.6834870000000001 -0.9571012500000001 1.1298682500000001 -0.2260335 0.446481 -0.343938 0.9397447500000001 -0.34423725000000005 1.4401905000000002v9.011415000000001h1.9122075v-9.011415000000001c-0.00029925 -0.67879875 0.21575925 -1.3400415 0.616854 -1.8876690000000003 0.40099500000000005 -0.5477272500000001 0.96627825 -0.953211 1.613556 -1.1576985000000002Z" stroke-width="0.5"></path><path id="vector_71" stroke="#120071" stroke-linecap="round" stroke-linejoin="round" d="M85.7381175 95.08668750000001c-0.6481755000000001 0.20358975 -1.2145560000000002 0.60877425 -1.6165485000000002 1.1565015 -0.40209225000000004 0.5477272500000001 -0.618849 1.2094687499999999 -0.618849 1.8888660000000002v9.011415000000001h4.470795000000001v-9.011415000000001c0 -0.6793972500000001 -0.21675675 -1.34113875 -0.618849 -1.8888660000000002 -0.40199250000000003 -0.5477272500000001 -0.968373 -0.9529117500000001 -1.6165485000000002 -1.1565015Z" stroke-width="0.5"></path><path id="vector_72" fill="#b6db93" d="M66.45744 95.08668750000001c-0.47800200000000004 -0.15002400000000002 -0.98463225 -0.18533550000000001 -1.47879375 -0.10324125 -0.49426125000000004 0.08209425000000001 -0.9621885000000001 0.27939975000000006 -1.3659765 0.57585675 -0.40378800000000004 0.29655675000000004 -0.7321650000000001 0.6839857500000001 -0.95849775 1.13086575 -0.22633275 0.44697975 -0.344337 0.9409417500000001 -0.344337 1.44188625v9.011415000000001h1.9122075v-9.011415000000001c0 -0.679497 0.21675675 -1.34113875 0.618849 -1.8888660000000002 0.40199250000000003 -0.5477272500000001 0.968373 -0.9529117500000001 1.6165485000000002 -1.1565015Z" stroke-width="0.5"></path><path id="vector_73" stroke="#120071" stroke-linecap="round" stroke-linejoin="round" d="M66.45744 95.08668750000001c-0.6481755000000001 0.20358975 -1.2145560000000002 0.60877425 -1.6165485000000002 1.1565015 -0.40209225000000004 0.5477272500000001 -0.618849 1.2094687499999999 -0.618849 1.8888660000000002v9.011415000000001h4.470795000000001v-9.011415000000001c0 -0.6793972500000001 -0.21675675 -1.34113875 -0.618849 -1.8888660000000002 -0.40199250000000003 -0.5477272500000001 -0.968373 -0.9529117500000001 -1.6165485000000002 -1.1565015Z" stroke-width="0.5"></path><path id="vector_74" fill="#b6db93" d="M47.18175 95.08668750000001c-0.47800200000000004 -0.15002400000000002 -0.98463225 -0.18533550000000001 -1.47879375 -0.10324125 -0.49426125000000004 0.08209425000000001 -0.9621885000000001 0.27939975000000006 -1.3659765 0.57585675 -0.40378800000000004 0.29655675000000004 -0.7321650000000001 0.6839857500000001 -0.95849775 1.13086575 -0.22633275 0.44697975 -0.344337 0.9409417500000001 -0.344337 1.44188625v9.011415000000001h1.9122075v-9.011415000000001c0 -0.679497 0.21675675 -1.34113875 0.618849 -1.8888660000000002 0.40199250000000003 -0.5477272500000001 0.968373 -0.9529117500000001 1.6165485000000002 -1.1565015Z" stroke-width="0.5"></path><path id="vector_75" stroke="#120071" stroke-linecap="round" stroke-linejoin="round" d="M47.18175 95.08668750000001c-0.6481755000000001 0.20358975 -1.2145560000000002 0.60877425 -1.6165485000000002 1.1565015 -0.40209225000000004 0.5477272500000001 -0.618849 1.2094687499999999 -0.618849 1.8888660000000002v9.011415000000001h4.470795000000001v-9.011415000000001c0 -0.6793972500000001 -0.21675675 -1.34113875 -0.618849 -1.8888660000000002 -0.40199250000000003 -0.5477272500000001 -0.968373 -0.9529117500000001 -1.6165485000000002 -1.1565015Z" stroke-width="0.5"></path><path id="vector_76" fill="#b6db93" d="M108.8073 121.98028500000001c-0.4778025 -0.149625 -0.9845325 -0.185535 -1.4792925000000001 -0.1027425 -0.49376250000000005 0.081795 -0.9615900000000001 0.27930000000000005 -1.3655775 0.5755574999999999 -0.40398750000000005 0.2962575 -0.7321650000000001 0.6832875 -0.9585975 1.131165 -0.2264325 0.44688000000000005 -0.3441375 0.9406425 -0.3441375 1.4413875v9.011415000000001h1.9122075v-9.011415000000001c0 -0.6792975000000001 0.2164575 -1.3416375 0.61845 -1.889265 0.40199250000000003 -0.5476275 0.9685725000000001 -0.9526125 1.6169475 -1.1561025Z" stroke-width="0.5"></path><path id="vector_77" stroke="#120071" stroke-linecap="round" stroke-linejoin="round" d="M108.8073 121.98028500000001c-0.648375 0.20349 -1.214955 0.608475 -1.6169475 1.1561025s-0.61845 1.2099675 -0.61845 1.889265v9.011415000000001h4.470795000000001v-9.011415000000001c0 -0.6792975000000001 -0.2164575 -1.3416375 -0.61845 -1.889265 -0.40199250000000003 -0.5476275 -0.9685725000000001 -0.9526125 -1.6169475 -1.1561025Z" stroke-width="0.5"></path><path id="vector_78" fill="#b6db93" d="M88.36553250000001 121.98028500000001c-0.47800200000000004 -0.149625 -0.98463225 -0.185535 -1.47879375 -0.1027425 -0.49426125000000004 0.081795 -0.9621885000000001 0.27930000000000005 -1.3659765 0.5755574999999999 -0.40378800000000004 0.2962575 -0.7321650000000001 0.6832875 -0.95849775 1.131165 -0.22633275 0.44688000000000005 -0.344337 0.9406425 -0.344337 1.4413875v9.011415000000001h1.9122075v-9.011415000000001c0 -0.6792975000000001 0.21675675 -1.3416375 0.618849 -1.889265 0.40199250000000003 -0.5476275 0.968373 -0.9526125 1.6165485000000002 -1.1561025Z" stroke-width="0.5"></path><path id="vector_79" stroke="#120071" stroke-linecap="round" stroke-linejoin="round" d="M88.36553250000001 121.98028500000001c-0.6481755000000001 0.20349 -1.2145560000000002 0.608475 -1.6165485000000002 1.1561025 -0.40209225000000004 0.5476275 -0.618849 1.2099675 -0.618849 1.889265v9.011415000000001h4.4717925v-9.011415000000001c0 -0.6792975000000001 -0.21695625000000002 -1.3416375 -0.619248 -1.889265 -0.40219200000000005 -0.5476275 -0.968772 -0.9526125 -1.6171470000000001 -1.1561025Z" stroke-width="0.5"></path><path id="vector_80" fill="#b6db93" d="M68.03847750000001 121.98028500000001c-0.47800200000000004 -0.149625 -0.98463225 -0.185535 -1.47879375 -0.1027425 -0.49426125000000004 0.081795 -0.9621885000000001 0.27930000000000005 -1.3659765 0.5755574999999999 -0.40378800000000004 0.2962575 -0.7321650000000001 0.6832875 -0.95849775 1.131165 -0.22633275 0.44688000000000005 -0.344337 0.9406425 -0.344337 1.4413875v9.011415000000001h1.9122075v-9.011415000000001c0 -0.6792975000000001 0.21675675 -1.3416375 0.618849 -1.889265 0.40199250000000003 -0.5476275 0.968373 -0.9526125 1.6165485000000002 -1.1561025Z" stroke-width="0.5"></path><path id="vector_81" stroke="#120071" stroke-linecap="round" stroke-linejoin="round" d="M68.03847750000001 121.98028500000001c-0.6481755000000001 0.20349 -1.2145560000000002 0.608475 -1.6165485000000002 1.1561025 -0.40209225000000004 0.5476275 -0.618849 1.2099675 -0.618849 1.889265v9.011415000000001h4.4717925v-9.011415000000001c-0.00009975000000000001 -0.6792975000000001 -0.21695625000000002 -1.3416375 -0.619248 -1.889265 -0.40219200000000005 -0.5476275 -0.968772 -0.9526125 -1.6171470000000001 -1.1561025Z" stroke-width="0.5"></path><path id="vector_82" fill="#b6db93" d="M67.08287250000001 158.5895325c-0.47800200000000004 -0.149625 -0.98463225 -0.185535 -1.47879375 -0.1027425 -0.49426125000000004 0.081795 -0.9621885000000001 0.27930000000000005 -1.3659765 0.5755574999999999 -0.40378800000000004 0.2962575 -0.7321650000000001 0.6832875 -0.95849775 1.131165 -0.22633275 0.44688000000000005 -0.344337 0.9406425 -0.344337 1.4413875v9.011415000000001h1.9122075v-9.011415000000001c0 -0.6792975000000001 0.21675675 -1.3416375 0.618849 -1.889265 0.40199250000000003 -0.5476275 0.968373 -0.9526125 1.6165485000000002 -1.1561025Z" stroke-width="0.5"></path><path id="vector_83" stroke="#120071" stroke-linecap="round" stroke-linejoin="round" d="M67.08287250000001 158.5895325c-0.6481755000000001 0.20349 -1.2145560000000002 0.608475 -1.6165485000000002 1.1561025 -0.40209225000000004 0.5476275 -0.618849 1.2099675 -0.618849 1.889265v9.011415000000001h4.470795000000001v-9.011415000000001c0 -0.6792975000000001 -0.21675675 -1.3416375 -0.618849 -1.889265 -0.40199250000000003 -0.5476275 -0.968373 -0.9526125 -1.6165485000000002 -1.1561025Z" stroke-width="0.5"></path><path id="vector_84" fill="#b6db93" d="M91.9525425 157.32270750000004c-0.8221395000000001 -0.15561 -1.6684185000000002 -0.12768000000000002 -2.4784882500000003 0.081795 -0.81006975 0.209475 -1.5638805000000002 0.5955075 -2.20776675 1.1301675 -0.64388625 0.5336625 -1.161888 1.2039825000000002 -1.51709775 1.961085 -0.35511 0.7581 -0.53874975 1.5840300000000003 -0.53775225 2.4209325v18.022830000000003h2.0947500000000003v-18.022830000000003c0.00019950000000000002 -1.3276725 0.46483500000000005 -2.6144475000000003 1.3133085 -3.6358875000000004 0.8485732500000001 -1.0214400000000001 2.02761825 -1.713705 3.3330465000000005 -1.9580925000000002Z" stroke-width="0.5"></path><path id="vector_85" stroke="#120071" stroke-linecap="round" stroke-linejoin="round" d="M91.9525425 157.32270750000004c-1.30542825 0.2443875 -2.48447325 0.9366525 -3.3330465000000005 1.9580925000000002 -0.8484735000000001 1.0214400000000001 -1.313109 2.308215 -1.3133085 3.6358875000000004v18.022830000000003h9.292710000000001v-18.022830000000003c-0.00039900000000000005 -1.3276725 -0.4650345 -2.6144475000000003 -1.31360775 -3.6358875000000004 -0.8484735000000001 -1.0214400000000001 -2.0274187500000003 -1.713705 -3.33274725 -1.9580925000000002Z" stroke-width="0.5"></path><path id="vector_86" stroke="#120071" stroke-linecap="round" stroke-linejoin="round" d="M91.9525425 157.32270750000004v23.61681" stroke-width="0.5"></path><path id="vector_87" stroke="#120071" stroke-linecap="round" stroke-linejoin="round" d="M123.56331750000001 140.04501H51.0490575v4.0837650000000005h72.51426000000001v-4.0837650000000005Z" stroke-width="0.5"></path><path id="vector_88" stroke="#120071" stroke-linecap="round" stroke-linejoin="round" d="M134.568735 140.04501h-10.782975v4.0837650000000005h10.782975v-4.0837650000000005Z" stroke-width="0.5"></path><path id="vector_89" stroke="#120071" stroke-linecap="round" stroke-linejoin="round" d="M123.66705750000001 111.60229500000001H51.1527975v6.617415h72.51426000000001v-6.617415Z" stroke-width="0.5"></path><path id="vector_90" stroke="#120071" stroke-linecap="round" stroke-linejoin="round" d="M134.568735 111.60229500000001h-10.782975v6.617415h10.782975v-6.617415Z" stroke-width="0.5"></path><path id="vector_91" stroke="#120071" stroke-linecap="round" stroke-linejoin="round" d="M132.52186500000002 135.3976575h-6.6882375000000005v4.646355000000001h6.6882375000000005v-4.646355000000001Z" stroke-width="0.5"></path><path id="vector_92" stroke="#120071" stroke-linecap="round" stroke-linejoin="round" d="M131.26701 118.21971h-4.17753v17.177947500000002h4.17753v-17.177947500000002Z" stroke-width="0.5"></path><path id="vector_93" stroke="#120071" stroke-linecap="round" stroke-linejoin="round" d="M61.276425 135.3976575h-6.6882375000000005v4.646355000000001h6.6882375000000005v-4.646355000000001Z" stroke-width="0.5"></path><path id="vector_94" stroke="#120071" stroke-linecap="round" stroke-linejoin="round" d="M60.02157 118.21971h-4.17753v17.177947500000002h4.17753v-17.177947500000002Z" stroke-width="0.5"></path><path id="vector_95" stroke="#120071" stroke-linecap="round" stroke-linejoin="round" d="M120.23166750000001 135.3976575h-6.6882375000000005v4.646355000000001h6.6882375000000005v-4.646355000000001Z" stroke-width="0.5"></path><path id="vector_96" stroke="#120071" stroke-linecap="round" stroke-linejoin="round" d="M118.97681250000001 118.21971h-4.17753v17.177947500000002h4.17753v-17.177947500000002Z" stroke-width="0.5"></path><path id="vector_97" stroke="#120071" stroke-linecap="round" stroke-linejoin="round" d="M100.57992 135.3976575h-6.6882375000000005v4.646355000000001h6.6882375000000005v-4.646355000000001Z" stroke-width="0.5"></path><path id="vector_98" stroke="#120071" stroke-linecap="round" stroke-linejoin="round" d="M99.32506500000001 118.21971h-4.17753v17.177947500000002h4.17753v-17.177947500000002Z" stroke-width="0.5"></path><path id="vector_99" stroke="#120071" stroke-linecap="round" stroke-linejoin="round" d="M80.9281725 135.3976575h-6.6882375000000005v4.646355000000001h6.6882375000000005v-4.646355000000001Z" stroke-width="0.5"></path><path id="vector_100" stroke="#120071" stroke-linecap="round" stroke-linejoin="round" d="M79.67331750000001 118.21971h-4.17753v17.177947500000002h4.17753v-17.177947500000002Z" stroke-width="0.5"></path><path id="vector_101" fill="#6153bd" d="M151.007535 80.40847500000001h27.703567500000002L161.04637499999998 62.743747500000005h-27.61878l17.57994 17.6647275Z" stroke-width="0.5"></path><path id="vector_102" fill="#6153bd" d="M179.5270575 81.405975h-28.348950000000002v5.20296h31.650675000000003l-3.3017250000000002 -5.20296Z" stroke-width="0.5"></path><path id="vector_103" fill="#6153bd" d="M150.1806075 81.405975H35.0930475l-3.33963 5.20296h118.42719000000001V81.405975Z" stroke-width="0.5"></path><path id="vector_104" fill="#6153bd" d="M126.752325 80.40847500000001h22.8477375L132.019125 62.74275h-6.279262500000001c1.222935 4.418925 1.0124625 6.28425 1.0124625 17.665725000000002Z" stroke-width="0.5"></path><path id="vector_105" fill="#6153bd" d="M64.189125 67.00407 36.4456575 80.40847500000001h27.55893c0 -10.945567500000001 -0.0588525 -11.281725000000002 0.18453750000000002 -13.404405Z" stroke-width="0.5"></path><path id="vector_106" stroke="#120071" stroke-linecap="round" stroke-linejoin="round" d="M64.189125 67.00407 35.4142425 80.907225l-3.660825 5.70171h151.075365l-3.61893 -5.70171 -18.1634775 -18.1634775h-35.306512500000004" stroke-width="0.5"></path><path id="vector_107" stroke="#120071" stroke-linecap="round" stroke-linejoin="round" d="M95.378955 42.42168c6.7999575000000005 0.81984525 13.065255000000002 4.1023185 17.609865 9.22697475 4.5446100000000005 5.1247560000000005 7.054320000000001 11.73668475 7.055317500000001 18.58631775v11.172h6.7081875V70.233975c0.0009975000000000001 -3.9625687500000004 -0.8398950000000001 -7.880250000000001 -2.4648225000000004 -11.49409275 -1.625925 -3.6139425000000003 -3.9989775000000005 -6.84175275 -6.964545 -9.47036475 -2.9655675 -2.62871175 -6.454822500000001 -4.5982755 -10.2373425 -5.778717 -3.78252 -1.1804415000000001 -7.772719500000001 -1.5448282500000001 -11.706660000000001 -1.0691205000000001Z" stroke-width="0.5"></path><path id="vector_108" stroke="#120071" stroke-linecap="round" stroke-linejoin="round" d="M120.0441375 70.23497250000001c0 -7.4312752500000006 -2.9516025000000004 -14.55821325 -8.2064325 -19.812943500000003 -5.25483 -5.254730250000001 -12.38206725 -8.2068315 -19.8133425 -8.2068315 -7.4312752500000006 0 -14.55821325 2.95210125 -19.812943500000003 8.2068315 -5.254730250000001 5.254730250000001 -8.2068315 12.38166825 -8.2068315 19.812943500000003v11.172h7.997955000000001v-11.67075c0 -5.25133875 2.08607175 -10.28771625 5.799365250000001 -14.00100975 3.7132935000000002 -3.7132935000000002 8.74957125 -5.799365250000001 14.00100975 -5.799365250000001 5.25133875 0 10.2872175 2.08607175 14.000910000000001 5.799365250000001 3.7136925 3.7132935000000002 5.7994650000000005 8.749671 5.7994650000000005 14.00100975v11.67075h8.44284l-0.0019950000000000002 -11.172Z" stroke-width="0.5"></path><path id="vector_109" stroke="#120071" stroke-linecap="round" stroke-linejoin="round" d="M94.86923250000001 50.17425c-2.824521 -0.4418925 -5.711286 -0.26703075 -8.461792500000001 0.5125155 -2.7505065 0.77954625 -5.2997175 2.14532325 -7.47237225 4.00346625 -2.1726547500000004 1.858143 -3.91728225 4.16466225 -5.113983 6.761055 -1.196601 2.59639275 -1.8170460000000002 5.4210135 -1.8185422500000001 8.279948250000002v11.67075h6.134625000000001v-11.67075c0.0013965 -4.7187735 1.68786975 -9.281937 4.7554815 -12.867550500000002 3.06761175 -3.58551375 7.3148670000000005 -5.95776825 11.976583500000002 -6.6894345Z" stroke-width="0.5"></path><path id="vector_110" fill="#b6db93" d="M94.86923250000001 50.17425c-4.6617165 0.7316662500000001 -8.908971750000001 3.10392075 -11.976583500000002 6.6894345 -3.06761175 3.5856135 -4.754085 8.148777 -4.7554815 12.867550500000002v11.67075h33.464130000000004v-11.67075c-0.0009975000000000001 -4.7187735 -1.68777 -9.281937 -4.7550825 -12.867550500000002 -3.0683100000000003 -3.58551375 -7.315266 -5.95776825 -11.9769825 -6.6894345Z" stroke-width="0.5"></path><path id="vector_111" stroke="#120071" stroke-linecap="round" stroke-linejoin="round" d="M57.61959000000001 160.3910175v20.548500000000004h2.511705v-26.034750000000003c-0.7888229999999999 0.6802950000000001 -1.421637 1.5221850000000001 -1.85505075 2.4688125000000003 -0.4335135 0.9466275 -0.6574522500000001 1.9760475000000002 -0.65665425 3.0174375Z" stroke-width="0.5"></path><path id="vector_112" stroke="#120071" stroke-linecap="round" stroke-linejoin="round" d="M102.489135 160.3910175v20.548500000000004h2.6054700000000004v-26.1155475c-0.815955 0.6792975000000001 -1.4733075000000002 1.5311625 -1.9231800000000001 2.4927525000000004 -0.4498725 0.9625875 -0.6832875 2.0119575 -0.6822900000000001 3.074295Z" stroke-width="0.5"></path><path id="vector_113" stroke="#120071" stroke-linecap="round" stroke-linejoin="round" d="M78.01248 162.43290000000002v18.5066175h2.8638225v-25.21281c-0.90622875 0.86583 -1.6272217500000001 1.90722 -2.119488 3.0593325000000005 -0.49226625 1.15311 -0.7455315 2.3930025 -0.7443345 3.64686Z" stroke-width="0.5"></path><path id="vector_114" stroke="#120071" stroke-linecap="round" stroke-linejoin="round" d="M111.9993 158.5895325c-0.4778025 -0.149625 -0.9845325 -0.185535 -1.4792925000000001 -0.1027425 -0.49376250000000005 0.081795 -0.9615900000000001 0.27930000000000005 -1.3655775 0.5755574999999999 -0.40398750000000005 0.2962575 -0.7321650000000001 0.6832875 -0.9585975 1.131165 -0.2264325 0.44688000000000005 -0.3441375 0.9406425 -0.3441375 1.4413875v9.011415000000001h1.91121v-9.011415000000001c0 -0.6792975000000001 0.217455 -1.3416375 0.6194475 -1.889265 0.40199250000000003 -0.5476275 0.9685725000000001 -0.9526125 1.6169475 -1.1561025Z" stroke-width="0.5"></path><path id="vector_115" stroke="#120071" stroke-linecap="round" stroke-linejoin="round" d="M143.58015 158.5895325c-0.4778025 -0.149625 -0.9845325 -0.185535 -1.4792925000000001 -0.1027425 -0.49376250000000005 0.081795 -0.9615900000000001 0.27930000000000005 -1.3655775 0.5755574999999999 -0.40398750000000005 0.2962575 -0.7321650000000001 0.6832875 -0.9585975 1.131165 -0.2264325 0.44688000000000005 -0.3441375 0.9406425 -0.3441375 1.4413875v9.011415000000001h1.913205v-9.011415000000001c0 -0.6792975000000001 0.2164575 -1.34064 0.61845 -1.8882675000000002 0.40199250000000003 -0.5476275 0.9675750000000001 -0.95361 1.6159500000000002 -1.1571Z" stroke-width="0.5"></path><path id="vector_116" stroke="#120071" stroke-linecap="round" stroke-linejoin="round" d="M143.58015 121.98028500000001c-0.4778025 -0.149625 -0.9845325 -0.185535 -1.4792925000000001 -0.1027425 -0.49376250000000005 0.081795 -0.9615900000000001 0.27930000000000005 -1.3655775 0.5755574999999999 -0.40398750000000005 0.2962575 -0.7321650000000001 0.6832875 -0.9585975 1.131165 -0.2264325 0.44688000000000005 -0.3441375 0.9406425 -0.3441375 1.4413875v9.011415000000001h1.913205v-9.011415000000001c0 -0.6792975000000001 0.2164575 -1.34064 0.61845 -1.8882675000000002 0.40199250000000003 -0.5476275 0.9675750000000001 -0.95361 1.6159500000000002 -1.1571Z" stroke-width="0.5"></path><path id="vector_117" stroke="#120071" stroke-linecap="round" stroke-linejoin="round" d="M47.18175 158.5895325c-0.47800200000000004 -0.149625 -0.98463225 -0.185535 -1.47879375 -0.1027425 -0.49426125000000004 0.081795 -0.9621885000000001 0.27930000000000005 -1.3659765 0.5755574999999999 -0.40378800000000004 0.2962575 -0.7321650000000001 0.6832875 -0.95849775 1.131165 -0.22633275 0.44688000000000005 -0.344337 0.9406425 -0.344337 1.4413875v9.011415000000001h1.9122075v-9.011415000000001c0 -0.6792975000000001 0.21675675 -1.3416375 0.618849 -1.889265 0.40199250000000003 -0.5476275 0.968373 -0.9526125 1.6165485000000002 -1.1561025Z" stroke-width="0.5"></path><path id="vector_118" stroke="#120071" stroke-linecap="round" stroke-linejoin="round" d="M47.18175 121.98028500000001c-0.47800200000000004 -0.149625 -0.98463225 -0.185535 -1.47879375 -0.1027425 -0.49426125000000004 0.081795 -0.9621885000000001 0.27930000000000005 -1.3659765 0.5755574999999999 -0.40378800000000004 0.2962575 -0.7321650000000001 0.6832875 -0.95849775 1.131165 -0.22633275 0.44688000000000005 -0.344337 0.9406425 -0.344337 1.4413875v9.011415000000001h1.9122075v-9.011415000000001c0 -0.6792975000000001 0.21675675 -1.3416375 0.618849 -1.889265 0.40199250000000003 -0.5476275 0.968373 -0.9526125 1.6165485000000002 -1.1561025Z" stroke-width="0.5"></path><path id="vector_119" stroke="#120071" stroke-linecap="round" stroke-linejoin="round" d="M143.58015 95.08668750000001c-0.4778025 -0.15002400000000002 -0.9845325 -0.18533550000000001 -1.4792925000000001 -0.10324125 -0.49376250000000005 0.08209425000000001 -0.9615900000000001 0.27939975000000006 -1.3655775 0.57585675 -0.40398750000000005 0.29655675000000004 -0.7321650000000001 0.6839857500000001 -0.9585975 1.13086575 -0.2264325 0.44697975 -0.3441375 0.9409417500000001 -0.3441375 1.44188625v9.011415000000001h1.913205v-9.011415000000001c0 -0.6792975000000001 0.2164575 -1.3409392500000001 0.61845 -1.8886665 0.40199250000000003 -0.5477272500000001 0.9675750000000001 -0.9529117500000001 1.6159500000000002 -1.156701Z" stroke-width="0.5"></path><path id="vector_120" stroke="#120071" stroke-linecap="round" stroke-linejoin="round" d="M158.4239475 158.5895325c0.4778025 -0.149625 0.9845325 -0.185535 1.4792925000000001 -0.1027425 0.49376250000000005 0.081795 0.9615900000000001 0.27930000000000005 1.3655775 0.5755574999999999 0.40398750000000005 0.2962575 0.7321650000000001 0.6832875 0.9585975 1.131165 0.2264325 0.44688000000000005 0.3441375 0.9406425 0.3441375 1.4413875v9.011415000000001h-1.9122075v-9.011415000000001c0 -0.6792975000000001 -0.2164575 -1.3416375 -0.61845 -1.889265 -0.40199250000000003 -0.5476275 -0.9685725000000001 -0.9526125 -1.6169475 -1.1561025Z" stroke-width="0.5"></path><path id="vector_121" stroke="#120071" stroke-linecap="round" stroke-linejoin="round" d="M158.4239475 121.98028500000001c0.4778025 -0.149625 0.9845325 -0.185535 1.4792925000000001 -0.1027425 0.49376250000000005 0.081795 0.9615900000000001 0.27930000000000005 1.3655775 0.5755574999999999 0.40398750000000005 0.2962575 0.7321650000000001 0.6832875 0.9585975 1.131165 0.2264325 0.44688000000000005 0.3441375 0.9406425 0.3441375 1.4413875v9.011415000000001h-1.9122075v-9.011415000000001c0 -0.6792975000000001 -0.2164575 -1.3416375 -0.61845 -1.889265 -0.40199250000000003 -0.5476275 -0.9685725000000001 -0.9526125 -1.6169475 -1.1561025Z" stroke-width="0.5"></path><path id="vector_122" stroke="#120071" stroke-linecap="round" stroke-linejoin="round" d="M158.4239475 95.08668750000001c0.4778025 -0.15002400000000002 0.9845325 -0.18533550000000001 1.4792925000000001 -0.10324125 0.49376250000000005 0.08209425000000001 0.9615900000000001 0.27939975000000006 1.3655775 0.57585675 0.40398750000000005 0.29655675000000004 0.7321650000000001 0.6839857500000001 0.9585975 1.13086575 0.2264325 0.44697975 0.3441375 0.9409417500000001 0.3441375 1.44188625v9.011415000000001h-1.9122075v-9.011415000000001c0 -0.679497 -0.2164575 -1.34113875 -0.61845 -1.8888660000000002 -0.40199250000000003 -0.5477272500000001 -0.9685725000000001 -0.9529117500000001 -1.6169475 -1.1565015Z" stroke-width="0.5"></path><path id="vector_123" stroke="#120071" stroke-linecap="round" stroke-linejoin="round" d="M169.8233775 158.5895325c0.4778025 -0.149625 0.9845325 -0.185535 1.4792925000000001 -0.1027425 0.49376250000000005 0.081795 0.9615900000000001 0.27930000000000005 1.3655775 0.5755574999999999 0.40398750000000005 0.2962575 0.7321650000000001 0.6832875 0.9585975 1.131165 0.2264325 0.44688000000000005 0.3441375 0.9406425 0.3441375 1.4413875v9.011415000000001h-1.9122075v-9.011415000000001c0 -0.6792975000000001 -0.2164575 -1.3416375 -0.61845 -1.889265 -0.40199250000000003 -0.5476275 -0.9685725000000001 -0.9526125 -1.6169475 -1.1561025Z" stroke-width="0.5"></path><path id="vector_124" stroke="#120071" stroke-linecap="round" stroke-linejoin="round" d="M169.8233775 121.98028500000001c0.4778025 -0.149625 0.9845325 -0.185535 1.4792925000000001 -0.1027425 0.49376250000000005 0.081795 0.9615900000000001 0.27930000000000005 1.3655775 0.5755574999999999 0.40398750000000005 0.2962575 0.7321650000000001 0.6832875 0.9585975 1.131165 0.2264325 0.44688000000000005 0.3441375 0.9406425 0.3441375 1.4413875v9.011415000000001h-1.9122075v-9.011415000000001c0 -0.6792975000000001 -0.2164575 -1.3416375 -0.61845 -1.889265 -0.40199250000000003 -0.5476275 -0.9685725000000001 -0.9526125 -1.6169475 -1.1561025Z" stroke-width="0.5"></path><path id="vector_125" stroke="#120071" stroke-linecap="round" stroke-linejoin="round" d="M169.8233775 95.08668750000001c0.4778025 -0.15002400000000002 0.9845325 -0.18533550000000001 1.4792925000000001 -0.10324125 0.49376250000000005 0.08209425000000001 0.9615900000000001 0.27939975000000006 1.3655775 0.57585675 0.40398750000000005 0.29655675000000004 0.7321650000000001 0.6839857500000001 0.9585975 1.13086575 0.2264325 0.44697975 0.3441375 0.9409417500000001 0.3441375 1.44188625v9.011415000000001h-1.9122075v-9.011415000000001c0 -0.679497 -0.2164575 -1.34113875 -0.61845 -1.8888660000000002 -0.40199250000000003 -0.5477272500000001 -0.9685725000000001 -0.9529117500000001 -1.6169475 -1.1565015Z" stroke-width="0.5"></path><path id="vector_126" stroke="#120071" stroke-linecap="round" stroke-linejoin="round" d="M124.29947250000001 95.08668750000001c-0.4778025 -0.15002400000000002 -0.9845325 -0.18533550000000001 -1.4792925000000001 -0.10324125 -0.49376250000000005 0.08209425000000001 -0.9615900000000001 0.27939975000000006 -1.3655775 0.57585675 -0.40398750000000005 0.29655675000000004 -0.7321650000000001 0.6839857500000001 -0.9585975 1.13086575 -0.2264325 0.44697975 -0.3441375 0.9409417500000001 -0.3441375 1.44188625v9.011415000000001h1.9122075v-9.011415000000001c0 -0.679497 0.2164575 -1.34113875 0.61845 -1.8888660000000002 0.40199250000000003 -0.5477272500000001 0.9685725000000001 -0.9529117500000001 1.6169475 -1.1565015Z" stroke-width="0.5"></path><path id="vector_127" stroke="#120071" stroke-linecap="round" stroke-linejoin="round" d="M105.018795 95.08668750000001c-0.4778025 -0.15002400000000002 -0.9845325 -0.18533550000000001 -1.4792925000000001 -0.10324125 -0.49376250000000005 0.08209425000000001 -0.9615900000000001 0.27939975000000006 -1.3655775 0.57585675 -0.40398750000000005 0.29655675000000004 -0.7321650000000001 0.6839857500000001 -0.9585975 1.13086575 -0.2264325 0.44697975 -0.3441375 0.9409417500000001 -0.3441375 1.44188625v9.011415000000001h1.9122075v-9.011415000000001c0 -0.679497 0.2164575 -1.34113875 0.61845 -1.8888660000000002 0.40199250000000003 -0.5477272500000001 0.9685725000000001 -0.9529117500000001 1.6169475 -1.1565015Z" stroke-width="0.5"></path><path id="vector_128" stroke="#120071" stroke-linecap="round" stroke-linejoin="round" d="M85.7381175 95.08668750000001c-0.47770275 -0.1490265 -0.9837345000000001 -0.18363975000000002 -1.4772975000000002 -0.10104675 -0.49356300000000003 0.08249325 -0.960792 0.27999825 -1.3639815 0.5763555 -0.40318950000000003 0.296457 -0.73106775 0.6834870000000001 -0.9571012500000001 1.1298682500000001 -0.2260335 0.446481 -0.343938 0.9397447500000001 -0.34423725000000005 1.4401905000000002v9.011415000000001h1.9122075v-9.011415000000001c-0.00029925 -0.67879875 0.21575925 -1.3400415 0.616854 -1.8876690000000003 0.40099500000000005 -0.5477272500000001 0.96627825 -0.953211 1.613556 -1.1576985000000002Z" stroke-width="0.5"></path><path id="vector_129" stroke="#120071" stroke-linecap="round" stroke-linejoin="round" d="M66.45744 95.08668750000001c-0.47800200000000004 -0.15002400000000002 -0.98463225 -0.18533550000000001 -1.47879375 -0.10324125 -0.49426125000000004 0.08209425000000001 -0.9621885000000001 0.27939975000000006 -1.3659765 0.57585675 -0.40378800000000004 0.29655675000000004 -0.7321650000000001 0.6839857500000001 -0.95849775 1.13086575 -0.22633275 0.44697975 -0.344337 0.9409417500000001 -0.344337 1.44188625v9.011415000000001h1.9122075v-9.011415000000001c0 -0.679497 0.21675675 -1.34113875 0.618849 -1.8888660000000002 0.40199250000000003 -0.5477272500000001 0.968373 -0.9529117500000001 1.6165485000000002 -1.1565015Z" stroke-width="0.5"></path><path id="vector_130" stroke="#120071" stroke-linecap="round" stroke-linejoin="round" d="M47.18175 95.08668750000001c-0.47800200000000004 -0.15002400000000002 -0.98463225 -0.18533550000000001 -1.47879375 -0.10324125 -0.49426125000000004 0.08209425000000001 -0.9621885000000001 0.27939975000000006 -1.3659765 0.57585675 -0.40378800000000004 0.29655675000000004 -0.7321650000000001 0.6839857500000001 -0.95849775 1.13086575 -0.22633275 0.44697975 -0.344337 0.9409417500000001 -0.344337 1.44188625v9.011415000000001h1.9122075v-9.011415000000001c0 -0.679497 0.21675675 -1.34113875 0.618849 -1.8888660000000002 0.40199250000000003 -0.5477272500000001 0.968373 -0.9529117500000001 1.6165485000000002 -1.1565015Z" stroke-width="0.5"></path><path id="vector_131" stroke="#120071" stroke-linecap="round" stroke-linejoin="round" d="M108.8073 121.98028500000001c-0.4778025 -0.149625 -0.9845325 -0.185535 -1.4792925000000001 -0.1027425 -0.49376250000000005 0.081795 -0.9615900000000001 0.27930000000000005 -1.3655775 0.5755574999999999 -0.40398750000000005 0.2962575 -0.7321650000000001 0.6832875 -0.9585975 1.131165 -0.2264325 0.44688000000000005 -0.3441375 0.9406425 -0.3441375 1.4413875v9.011415000000001h1.9122075v-9.011415000000001c0 -0.6792975000000001 0.2164575 -1.3416375 0.61845 -1.889265 0.40199250000000003 -0.5476275 0.9685725000000001 -0.9526125 1.6169475 -1.1561025Z" stroke-width="0.5"></path><path id="vector_132" stroke="#120071" stroke-linecap="round" stroke-linejoin="round" d="M88.36553250000001 121.98028500000001c-0.47800200000000004 -0.149625 -0.98463225 -0.185535 -1.47879375 -0.1027425 -0.49426125000000004 0.081795 -0.9621885000000001 0.27930000000000005 -1.3659765 0.5755574999999999 -0.40378800000000004 0.2962575 -0.7321650000000001 0.6832875 -0.95849775 1.131165 -0.22633275 0.44688000000000005 -0.344337 0.9406425 -0.344337 1.4413875v9.011415000000001h1.9122075v-9.011415000000001c0 -0.6792975000000001 0.21675675 -1.3416375 0.618849 -1.889265 0.40199250000000003 -0.5476275 0.968373 -0.9526125 1.6165485000000002 -1.1561025Z" stroke-width="0.5"></path><path id="vector_133" stroke="#120071" stroke-linecap="round" stroke-linejoin="round" d="M68.03847750000001 121.98028500000001c-0.47800200000000004 -0.149625 -0.98463225 -0.185535 -1.47879375 -0.1027425 -0.49426125000000004 0.081795 -0.9621885000000001 0.27930000000000005 -1.3659765 0.5755574999999999 -0.40378800000000004 0.2962575 -0.7321650000000001 0.6832875 -0.95849775 1.131165 -0.22633275 0.44688000000000005 -0.344337 0.9406425 -0.344337 1.4413875v9.011415000000001h1.9122075v-9.011415000000001c0 -0.6792975000000001 0.21675675 -1.3416375 0.618849 -1.889265 0.40199250000000003 -0.5476275 0.968373 -0.9526125 1.6165485000000002 -1.1561025Z" stroke-width="0.5"></path><path id="vector_134" stroke="#120071" stroke-linecap="round" stroke-linejoin="round" d="M67.08287250000001 158.5895325c-0.47800200000000004 -0.149625 -0.98463225 -0.185535 -1.47879375 -0.1027425 -0.49426125000000004 0.081795 -0.9621885000000001 0.27930000000000005 -1.3659765 0.5755574999999999 -0.40378800000000004 0.2962575 -0.7321650000000001 0.6832875 -0.95849775 1.131165 -0.22633275 0.44688000000000005 -0.344337 0.9406425 -0.344337 1.4413875v9.011415000000001h1.9122075v-9.011415000000001c0 -0.6792975000000001 0.21675675 -1.3416375 0.618849 -1.889265 0.40199250000000003 -0.5476275 0.968373 -0.9526125 1.6165485000000002 -1.1561025Z" stroke-width="0.5"></path><path id="vector_135" stroke="#120071" stroke-linecap="round" stroke-linejoin="round" d="M91.9525425 157.32270750000004c-0.8221395000000001 -0.15561 -1.6684185000000002 -0.12768000000000002 -2.4784882500000003 0.081795 -0.81006975 0.209475 -1.5638805000000002 0.5955075 -2.20776675 1.1301675 -0.64388625 0.5336625 -1.161888 1.2039825000000002 -1.51709775 1.961085 -0.35511 0.7581 -0.53874975 1.5840300000000003 -0.53775225 2.4209325v18.022830000000003h2.0947500000000003v-18.022830000000003c0.00019950000000000002 -1.3276725 0.46483500000000005 -2.6144475000000003 1.3133085 -3.6358875000000004 0.8485732500000001 -1.0214400000000001 2.02761825 -1.713705 3.3330465000000005 -1.9580925000000002Z" stroke-width="0.5"></path><path id="vector_136" stroke="#120071" stroke-linecap="round" stroke-linejoin="round" d="M94.86923250000001 50.17425c-4.6617165 0.7316662500000001 -8.908971750000001 3.10392075 -11.976583500000002 6.6894345 -3.06761175 3.5856135 -4.754085 8.148777 -4.7554815 12.867550500000002v11.67075h33.464130000000004v-11.67075c-0.0009975000000000001 -4.7187735 -1.68777 -9.281937 -4.7550825 -12.867550500000002 -3.0683100000000003 -3.58551375 -7.315266 -5.95776825 -11.9769825 -6.6894345Z" stroke-width="0.5"></path><path id="vector_137" stroke="#120071" stroke-linecap="round" stroke-linejoin="round" d="M99.31209750000001 58.75275H93.91462500000002c-1.0966515 0.016957500000000004 -2.14263 0.464436 -2.9121015000000003 1.2459772500000001 -0.76957125 0.78154125 -1.20089025 1.83430275 -1.20089025 2.9310540000000005 0 1.09675125 0.431319 2.14951275 1.20089025 2.9310540000000005 0.7694715 0.78154125 1.8154500000000002 1.22901975 2.9121015000000003 1.2459772500000001h1.2209400000000001c1.10792325 0 2.1705600000000005 0.440097 2.9539965 1.2235335 0.7834365 0.7834365 1.2235335 1.84607325 1.2235335 2.9539965 0 1.10792325 -0.440097 2.1705600000000005 -1.2235335 2.9539965 -0.7834365 0.7834365 -1.84607325 1.2235335 -2.9539965 1.2235335h-5.3974725" stroke-width="0.5"></path><path id="vector_138" stroke="#120071" stroke-linecap="round" stroke-linejoin="round" d="M94.52509500000001 55.323345v23.560950000000002" stroke-width="0.5"></path></g></g></svg>