<svg xmlns="http://www.w3.org/2000/svg" fill="none" viewBox="-0.25 -0.25 200 200" id="Credit-Score-2--Streamline-Bangalore.svg"><desc>Credit Score 2 Streamline Illustration: https://streamlinehq.com</desc><g id="credit-score-2--finance-credit-score"><g id="laptop"><path id="vector" fill="#6153bd" fill-rule="evenodd" d="M185.31834300000003 177.49385325000003H17.171763000000002C17.172560999999998 180.326853 18.29823975 183.0426465 20.30112 185.04552675C22.304100000000002 187.04840700000003 25.02059175 188.17428525000003 27.8531925 188.17528275H174.63791100000003C177.46991325000002 188.17428525000003 180.18660450000002 187.04840700000003 182.18948475 185.04552675C184.19246475 183.0426465 185.31724575 180.32585550000002 185.31824325000002 177.49385325000003Z" clip-rule="evenodd" stroke-width="0.5"></path><path id="vector_2" stroke="#120071" stroke-linecap="round" stroke-linejoin="round" d="M38.6876385 85.78679550000001V148.06121925H165.23836875V75.50107425C165.23836875 73.9755975 164.632587 72.51276375 163.55359125 71.43396750000001C162.47469525 70.35537075 161.0122605 69.7493895 159.48658425000002 69.7493895H79.3676835" stroke-width="0.5"></path><path id="vector_3" stroke="#120071" stroke-linecap="round" stroke-linejoin="round" d="M38.6876385 148.06121925L17.16966825 177.49385325000003H185.31834300000003L165.23836875 148.06121925" stroke-width="0.5"></path><path id="vector_4" stroke="#120071" stroke-linecap="round" stroke-linejoin="round" d="M185.31834300000003 177.49385325000003H17.171763000000002C17.172560999999998 180.326853 18.29823975 183.0426465 20.30112 185.04552675C22.304100000000002 187.04840700000003 25.02059175 188.17428525000003 27.8531925 188.17528275H174.63791100000003C177.46991325000002 188.17428525000003 180.18660450000002 187.04840700000003 182.18948475 185.04552675C184.19246475 183.0426465 185.31724575 180.32585550000002 185.31824325000002 177.49385325000003Z" stroke-width="0.5"></path><path id="vector_5" fill="#b6db93" fill-rule="evenodd" d="M123.82815375 165.28983975000003H78.39172950000001L75.75144675 171.84112050000002H126.733572L123.82815375 165.28983975000003Z" clip-rule="evenodd" stroke-width="0.5"></path><path id="vector_6" stroke="#120071" stroke-linecap="round" stroke-linejoin="round" d="M123.82815375 165.28983975000003H78.39172950000001L75.75144675 171.84112050000002H126.733572L123.82815375 165.28983975000003Z" stroke-width="0.5"></path><path id="vector_7" stroke="#120071" stroke-linecap="round" stroke-linejoin="round" d="M50.3296605 153.64981275H152.84562825" stroke-width="0.5"></path><path id="vector_8" stroke="#120071" stroke-linecap="round" stroke-linejoin="round" d="M45.297971249999996 159.23830650000002H157.19313225" stroke-width="0.5"></path></g><g id="dashboard"><path id="vector_9" stroke="#120071" stroke-linecap="round" stroke-linejoin="round" d="M148.60226325000002 131.9024175C148.6460535 119.5525695 143.790822 107.69019975 135.10100100000002 98.91539175000001C126.41127975 90.14068350000001 114.5957925 85.17063975 102.24704175000001 85.09522875C89.89759275 85.019718 78.02245500000001 89.84492475 69.22580175 98.51280075C60.42924825 107.18027775 55.429379250000004 118.98349575 55.322646750000004 131.33234625L85.67717025000002 131.51798100000002C85.70360400000001 127.19910525 87.4446405 123.06686175 90.51743925 120.03186825C93.5900385 116.995977 97.7428305 115.30611225000001 102.061407 115.33164825C106.38128025000002 115.35808200000001 110.51252625000001 117.098919 113.54851725 120.1726155C116.58341100000001 123.2453145 118.27427325000001 127.39790700000002 118.24773975000001 131.71678275L148.60226325000002 131.9024175Z" stroke-width="0.5"></path><path id="vector_10" fill="#b6db93" fill-rule="evenodd" d="M148.60226325000002 131.9024175C148.6460535 119.5525695 143.790822 107.69019975 135.10100100000002 98.91539175000001C126.41127975 90.14068350000001 114.5957925 85.17063975 102.24704175000001 85.09522875C89.89759275 85.019718 78.02245500000001 89.84492475 69.22580175 98.51280075C60.42924825 107.18027775 55.429379250000004 118.98349575 55.322646750000004 131.33234625L85.67717025000002 131.51798100000002C85.70360400000001 127.19910525 87.4446405 123.06686175 90.51743925 120.03186825C93.5900385 116.995977 97.7428305 115.30611225000001 102.061407 115.33164825C106.38128025000002 115.35808200000001 110.51252625000001 117.098919 113.54851725 120.1726155C116.58341100000001 123.2453145 118.27427325000001 127.39790700000002 118.24773975000001 131.71678275L148.60226325000002 131.9024175Z" clip-rule="evenodd" stroke-width="0.5"></path><path id="vector_11" stroke="#120071" stroke-linecap="round" stroke-linejoin="round" d="M148.60226325000002 131.9024175C148.6460535 119.5525695 143.790822 107.69019975 135.10100100000002 98.91539175000001C126.41127975 90.14068350000001 114.5957925 85.17063975 102.24704175000001 85.09522875C89.89759275 85.019718 78.02245500000001 89.84492475 69.22580175 98.51280075C60.42924825 107.18027775 55.429379250000004 118.98349575 55.322646750000004 131.33234625L85.67717025000002 131.51798100000002C85.70360400000001 127.19910525 87.4446405 123.06686175 90.51743925 120.03186825C93.5900385 116.995977 97.7428305 115.30611225000001 102.061407 115.33164825C106.38128025000002 115.35808200000001 110.51252625000001 117.098919 113.54851725 120.1726155C116.58341100000001 123.2453145 118.27427325000001 127.39790700000002 118.24773975000001 131.71678275L148.60226325000002 131.9024175Z" stroke-width="0.5"></path><path id="vector_12" stroke="#120071" stroke-linecap="round" stroke-linejoin="round" d="M101.962455 115.335738V84.986202" stroke-width="0.5"></path><path id="vector_13" stroke="#120071" stroke-linecap="round" stroke-linejoin="round" d="M89.6830305 120.92014200000001L67.52666024999999 100.15787775000001" stroke-width="0.5"></path><path id="vector_14" stroke="#120071" stroke-linecap="round" stroke-linejoin="round" d="M114.85683825000001 121.675848L137.043732 100.88814750000002" stroke-width="0.5"></path><path id="vector_15" stroke="#120071" stroke-linecap="round" stroke-linejoin="round" d="M69.79776825 121.879737L67.29524024999999 116.6685975L75.75962625000001 120.764133" stroke-width="0.5"></path><path id="vector_16" stroke="#120071" stroke-linecap="round" stroke-linejoin="round" d="M88.01969925000002 101.3174715C87.91546050000001 100.92994275000001 87.8919195 100.5250575 87.95047275 100.12835175000001C88.00892625 99.7314465 88.14827700000001 99.35090025000001 88.35984675 99.01005450000001C88.57141650000001 98.66920875000001 88.8507165 98.37554475 89.18029050000001 98.1470175C89.510064 97.91849025 89.88312900000001 97.76008725 90.276543 97.681584C91.88371500000001 97.28787075000001 93.3797655 97.94362725 93.56639775000001 99.74870325C93.72041175 101.23787100000001 91.85718150000001 101.90080950000001 90.8261655 103.19895600000001C89.61669675 104.72054250000001 89.630961 105.59145975 89.8869195 107.92171950000001L95.433618 106.3532505" stroke-width="0.5"></path><path id="vector_17" stroke="#120071" stroke-linecap="round" stroke-linejoin="round" d="M117.16066425000001 98.21335125000002L121.69769325000001 100.81064175L116.15717925000001 101.81711925S120.26488425000001 102.93890775 118.792275 105.89639550000001C118.126344 107.23334475 116.39677875000001 108.47543175 114.76407075 107.658579C111.39870525 105.97489875000001 113.7850245 103.02968025 113.7850245 103.02968025" stroke-width="0.5"></path><path id="vector_18" stroke="#120071" stroke-linecap="round" stroke-linejoin="round" d="M133.501011 124.93916925L131.8621185 118.82040450000001L138.94367025 121.42387950000001L129.525774 123.946956" stroke-width="0.5"></path><path id="vector_19" fill="#6153bd" fill-rule="evenodd" d="M97.2193425 123.62266875000002C96.564384 124.31812575000001 96.07032225 125.15034 95.77206975000001 126.05796525000001C95.47371749999999 126.9655905 95.378556 127.92827774999999 95.49326850000001 128.87769825C95.6077815 129.82612125 95.9293755 130.73883375 96.43530750000001 131.54960175C96.94123950000001 132.36036975000002 97.61904075 133.0507395 98.420931 133.57083599999999S100.12885050000001 134.42848650000002 101.07627600000001 134.56005675C102.02260425 134.6906295 102.98638875 134.61312375 103.90009875 134.33063175C104.81281125000001 134.04813975 105.65310525000001 133.56884100000002 106.36093125000001 132.92635125C107.06865750000001 132.2838615 107.6264595 131.49354225000002 107.99463675 130.61235075C108.18835125000001 130.14731625000002 108.07623225 130.45733925000002 115.559577 105.05300925L97.2193425 123.62266875000002ZM101.9634525 132.259323C101.14251 132.259323 100.3399215 132.01563375 99.65703300000001 131.55977625C98.97424425000001 131.10292125 98.44207800000001 130.45434674999998 98.12786550000001 129.69664575000002C97.81365300000002 128.9378475 97.73135925 128.10264075 97.89165750000001 127.29696000000001C98.05185600000002 126.4923765 98.44716525 125.752032 99.02790975 125.1716865C99.60845474999999 124.59144075 100.348101 124.1957325 101.15378175000001 124.03563375000002C101.95836525 123.87553500000001 102.793572 123.9571305 103.55237025 124.27224075C104.31106875 124.58635350000002 104.95964325000001 125.11871925 105.41550075 125.80090950000002C105.87135825000001 126.48319950000001 106.11514725 127.28678550000001 106.11514725 128.107728C106.11514725 129.20807025000002 105.67764375 130.26462225000003 104.899494 131.04277199999999C104.12034675 131.82191925 103.064892 132.25942275 101.9634525 132.25942275Z" clip-rule="evenodd" stroke-width="0.5"></path><path id="vector_20" stroke="#120071" stroke-linecap="round" stroke-linejoin="round" d="M108.16999725000001 130.1484135C107.86915125 131.05803375000002 107.37149850000002 131.88915075 106.71165225000001 132.5847075C106.05290325000001 133.2801645 105.24931725 133.82270474999999 104.35695375 134.17252800000003C103.4656875 134.52235125 102.50699025000002 134.67117825000003 101.551485 134.609034C100.5948825 134.54679 99.66431475000002 134.27556975000002 98.825118 133.81253025C97.98602100000001 133.35058800000002 97.25894325000002 132.70909575 96.6954555 131.93403825000001C96.1320675 131.15898074999998 95.746035 130.2697095 95.56498875000001 129.32946600000002C95.3839425 128.388225 95.41237125 127.41935325 95.64798075 126.49038150000001C95.88369 125.5623075 96.320994 124.6964775 96.92867100000001 123.95613300000001L115.55947725000001 105.05300925L108.16999725000001 130.1484135Z" stroke-width="0.5"></path><path id="vector_21" stroke="#120071" stroke-linecap="round" stroke-linejoin="round" d="M101.9634525 123.95613300000001C102.784395 123.95613300000001 103.5869835 124.19982225000001 104.27027100000001 124.65567975000002C104.952561 125.11153725000001 105.48482700000001 125.76011175000001 105.79893975 126.51891C106.11305250000001 127.2776085 106.1956455 128.11181775 106.03554675000001 128.9174985C105.875448 129.7230795 105.47973975000001 130.46242650000002 104.899494 131.04277199999999C104.31825075 131.62401525 103.578804 132.0197235 102.773223 132.17982225C101.96853975000002 132.33992100000003 101.133333 132.257328 100.3746345 131.94321525C99.6161355 131.62910250000002 98.96766075000001 131.09673675 98.511504 130.4145465C98.05534725000001 129.731259 97.8118575 128.9286705 97.8118575 128.107728C97.8118575 127.00628850000001 98.24926125000002 125.95083375 99.02790975 125.1716865C99.80635875 124.3936365 100.86211275000001 123.95613300000001 101.9634525 123.95613300000001Z" stroke-width="0.5"></path></g><g id="card"><path id="vector_22" fill="#6153bd" fill-rule="evenodd" d="M79.3493295 81.9627795C79.26923025 82.659234 78.93566625 83.3018235 78.412278 83.76825450000001C77.88888975 84.23458575000001 77.21218575 84.49214025 76.51114275 84.491841H21.52734675C20.77004475 84.491841 20.043765 84.190995 19.508207249999998 83.65553700000001C18.97274925 83.120079 18.67190325 82.39369950000001 18.67190325 81.6363975V49.334055750000005C18.67190325 48.57675375000001 18.97274925 47.850474 19.508207249999998 47.315016C20.043765 46.779458250000005 20.77004475 46.478612250000005 21.52734675 46.478612250000005H20.028204C19.270902 46.478612250000005 18.544622250000003 46.779458250000005 18.00916425 47.315016C17.4736065 47.850474 17.172760500000003 48.57675375000001 17.172760500000003 49.334055750000005V82.9315515C17.172760500000003 83.68885350000001 17.4736065 84.415233 18.00916425 84.950691C18.544622250000003 85.48614900000001 19.270902 85.786995 20.028204 85.786995H76.20221699999999C77.77876574999999 85.786995 79.36359375 84.451143 79.36359375 81.97504875L79.3493295 81.9627795Z" clip-rule="evenodd" stroke-width="0.5"></path><path id="vector_23" stroke="#120071" stroke-linecap="round" stroke-linejoin="round" d="M22.343202 46.478612250000005H20.028204C19.270902 46.478612250000005 18.544622250000003 46.779458250000005 18.00916425 47.315016C17.4736065 47.850474 17.172760500000003 48.57675375000001 17.172760500000003 49.334055750000005V82.9315515C17.172760500000003 83.68885350000001 17.4736065 84.415233 18.00916425 84.950691C18.544622250000003 85.48614900000001 19.270902 85.786995 20.028204 85.786995H76.20221699999999C77.77976325 85.786995 79.36359375 84.45104325000001 79.36359375 81.97494900000001" stroke-width="0.5"></path><path id="vector_24" fill="#b6db93" d="M18.670905750000003 66.372852V81.63629775000001C18.670905750000003 82.39359975 18.971751750000003 83.1198795 19.50720975 83.65543725C20.04266775 84.19089525 20.769047250000003 84.49174125 21.526349250000003 84.49174125H76.51114275C77.26844475000001 84.49174125 77.99482425 84.19089525 78.53028225 83.65543725C79.06574025 83.1198795 79.36658625 82.39359975 79.36658625 81.63629775000001V66.1352475L18.670905750000003 66.372852ZM33.11231175 77.03802225H23.6281815V74.29270275H33.11231175V77.03802225ZM46.267840500000005 77.03802225H36.7836105V74.29270275H46.267840500000005V77.03802225ZM59.769003 77.03802225H50.2817805V74.29270275H59.759826000000004L59.769003 77.03802225ZM72.92453175 77.03802225H63.4332195V74.29270275H72.911265L72.92453175 77.03802225Z" stroke-width="0.5"></path><path id="vector_25" stroke="#120071" stroke-linecap="round" stroke-linejoin="round" d="M79.3676835 49.334055750000005C79.3676835 48.57675375000001 79.0668375 47.850474 78.53127975 47.315016C77.99582175 46.779458250000005 77.269542 46.478612250000005 76.51223999999999 46.478612250000005H21.52734675C20.77004475 46.478612250000005 20.043765 46.779458250000005 19.508207249999998 47.315016C18.97274925 47.850474 18.67190325 48.57675375000001 18.67190325 49.334055750000005V81.6363975C18.67190325 82.39369950000001 18.97274925 83.120079 19.508207249999998 83.65553700000001C20.043765 84.190995 20.77004475 84.491841 21.52734675 84.491841H76.51114275C77.26844475000001 84.491841 77.99482425 84.190995 78.53028225 83.65553700000001C79.06574025 83.120079 79.36658625 82.39369950000001 79.36658625 81.6363975L79.3676835 49.334055750000005Z" stroke-width="0.5"></path><path id="vector_26" fill="#6153bd" fill-rule="evenodd" d="M74.43793875 56.596953L67.67249475000001 59.75832975V53.435576250000004L74.43793875 56.596953Z" clip-rule="evenodd" stroke-width="0.5"></path><path id="vector_27" stroke="#120071" stroke-linecap="round" stroke-linejoin="round" d="M74.43793875 56.596953L67.67249475000001 59.75832975V53.435576250000004L74.43793875 56.596953Z" stroke-width="0.5"></path><path id="vector_28" fill="#b6db93" fill-rule="evenodd" d="M33.11231175 54.266892750000004C33.1120125 53.99916375000001 33.00557925 53.742507 32.81625375 53.5531815S32.370471 53.2575225 32.102742 53.257323H24.63775125C24.3699225 53.257323 24.113166000000003 53.363656500000005 23.9238405 53.55288225C23.734515000000002 53.7423075 23.6281815 53.999064000000004 23.6281815 54.266892750000004V58.75404675C23.6281815 59.02187550000001 23.734515000000002 59.278731750000006 23.92374075 59.468157C24.113066250000003 59.65778175 24.36982275 59.764314750000004 24.63775125 59.764614H32.097654750000004C32.365483499999996 59.764314750000004 32.62233975 59.65778175 32.8115655 59.468157C33.000890999999996 59.278731750000006 33.1072245 59.02187550000001 33.1072245 58.75404675L33.11231175 54.266892750000004Z" clip-rule="evenodd" stroke-width="0.5"></path><path id="vector_29" stroke="#120071" stroke-linecap="round" stroke-linejoin="round" d="M33.11231175 54.266892750000004C33.1120125 53.99916375000001 33.00557925 53.742507 32.81625375 53.5531815S32.370471 53.2575225 32.102742 53.257323H24.63775125C24.3699225 53.257323 24.113166000000003 53.363656500000005 23.9238405 53.55288225C23.734515000000002 53.7423075 23.6281815 53.999064000000004 23.6281815 54.266892750000004V58.75404675C23.6281815 59.02187550000001 23.734515000000002 59.278731750000006 23.92374075 59.468157C24.113066250000003 59.65778175 24.36982275 59.764314750000004 24.63775125 59.764614H32.097654750000004C32.365483499999996 59.764314750000004 32.62233975 59.65778175 32.8115655 59.468157C33.000890999999996 59.278731750000006 33.1072245 59.02187550000001 33.1072245 58.75404675L33.11231175 54.266892750000004Z" stroke-width="0.5"></path><path id="vector_30" stroke="#120071" stroke-linecap="round" stroke-linejoin="round" d="M33.1072245 74.29270275H23.6281815V77.03802225H33.1072245V74.29270275Z" stroke-width="0.5"></path><path id="vector_31" stroke="#120071" stroke-linecap="round" stroke-linejoin="round" d="M59.76082350000001 74.29270275H50.2817805V77.03802225H59.76082350000001V74.29270275Z" stroke-width="0.5"></path><path id="vector_32" stroke="#120071" stroke-linecap="round" stroke-linejoin="round" d="M46.258663500000004 74.29270275H36.779520749999996V77.03802225H46.258663500000004V74.29270275Z" stroke-width="0.5"></path><path id="vector_33" stroke="#120071" stroke-linecap="round" stroke-linejoin="round" d="M72.9122625 74.29270275H63.4332195V77.03802225H72.9122625V74.29270275Z" stroke-width="0.5"></path><path id="vector_34" stroke="#120071" stroke-linecap="round" stroke-linejoin="round" d="M18.670905750000003 66.37295175L79.3676835 66.13235475" stroke-width="0.5"></path></g><g id="arrow"><path id="vector_35" fill="#b6db93" fill-rule="evenodd" d="M105.22178625000001 41.35066425000001L134.72983125 23.2072365L164.23897350000001 41.35066425000001H156.27323775V69.7481925H115.07309625V41.35066425000001H105.22178625000001Z" clip-rule="evenodd" stroke-width="0.5"></path><path id="vector_36" stroke="#120071" stroke-linecap="round" stroke-linejoin="round" d="M105.22178625000001 41.35066425000001L134.72983125 23.2072365L164.23897350000001 41.35066425000001H156.27323775V69.7481925H115.07309625V41.35066425000001H105.22178625000001Z" stroke-width="0.5"></path><path id="vector_37" stroke="#120071" stroke-linecap="round" stroke-linejoin="round" d="M136.41760125000002 51.5302515C137.81270475 51.5302515 138.94367025 50.399286 138.94367025 49.004182500000006C138.94367025 47.609079 137.81270475 46.4781135 136.41760125000002 46.4781135C135.02249774999999 46.4781135 133.89153225 47.609079 133.89153225 49.004182500000006C133.89153225 50.399286 135.02249774999999 51.5302515 136.41760125000002 51.5302515Z" stroke-width="0.5"></path><path id="vector_38" stroke="#120071" stroke-linecap="round" stroke-linejoin="round" d="M145.23689775 60.34944825C146.63200125000003 60.34944825 147.76296675 59.218582500000004 147.76296675 57.82337925C147.76296675 56.42827575 146.63200125000003 55.29731025 145.23689775 55.29731025C143.84179425000002 55.29731025 142.71082875000002 56.42827575 142.71082875000002 57.82337925C142.71082875000002 59.218582500000004 143.84179425000002 60.34944825 145.23689775 60.34944825Z" stroke-width="0.5"></path><path id="vector_39" stroke="#120071" stroke-linecap="round" stroke-linejoin="round" d="M133.89053475 60.00082200000001L147.75987450000002 47.1767625" stroke-width="0.5"></path><path id="vector_40" stroke="#120071" stroke-linecap="round" stroke-linejoin="round" d="M121.69769325000001 53.58839325H126.75082875000001" stroke-width="0.5"></path></g><g id="coin 2"><path id="vector_41" fill="#b6db93" fill-rule="evenodd" d="M176.79580275 88.31386200000001C176.79580275 85.88125875000001 177.76257975000001 83.5484055 179.48197050000002 81.82821675C181.20235875 80.10812775 183.53571075000002 79.14174975000002 185.967915 79.14174975000002H183.6499245C181.2176205 79.14174975000002 178.88436825 80.10812775 177.16398 81.82821675C175.44458925 83.5484055 174.47781225 85.88125875000001 174.47781225 88.31386200000001S175.44458925 93.07941825000002 177.16398 94.79960700000001C178.88436825 96.51969600000001 181.2176205 97.486074 183.6499245 97.486074H185.967915C183.53571075000002 97.486074 181.20235875 96.51969600000001 179.48197050000002 94.79960700000001C177.76257975000001 93.07941825000002 176.79580275 90.746565 176.79580275 88.31386200000001Z" clip-rule="evenodd" stroke-width="0.5"></path><path id="vector_42" fill-rule="evenodd" stroke="#120071" stroke-linecap="round" stroke-linejoin="round" d="M176.79580275 88.31386200000001C176.79580275 85.88125875000001 177.76257975000001 83.5484055 179.48197050000002 81.82821675C181.20235875 80.10812775 183.53571075000002 79.14174975000002 185.967915 79.14174975000002H183.6499245C181.2176205 79.14174975000002 178.88436825 80.10812775 177.16398 81.82821675C175.44458925 83.5484055 174.47781225 85.88125875000001 174.47781225 88.31386200000001S175.44458925 93.07941825000002 177.16398 94.79960700000001C178.88436825 96.51969600000001 181.2176205 97.486074 183.6499245 97.486074H185.967915C183.53571075000002 97.486074 181.20235875 96.51969600000001 179.48197050000002 94.79960700000001C177.76257975000001 93.07941825000002 176.79580275 90.746565 176.79580275 88.31386200000001Z" clip-rule="evenodd" stroke-width="0.5"></path><path id="vector_43" stroke="#120071" stroke-linecap="round" stroke-linejoin="round" d="M185.967915 79.14174975000002C184.153662 79.14174975000002 182.38020675 79.67970150000001 180.87198675000002 80.6875755C179.363667 81.69534975 178.187814 83.12785950000001 177.49435200000002 84.803859C176.7998925 86.4798585 176.61834750000003 88.32413625000001 176.9722605 90.10327725C177.32607375 91.882518 178.19908575000002 93.516822 179.48197050000002 94.79960700000001C180.76485524999998 96.08229225 182.39965800000002 96.95580300000002 184.17820050000003 97.30981575000001C185.9577405 97.66372875 187.8015195 97.482084 189.47811750000002 96.78792375C191.15361825000002 96.093564 192.58642725 94.91801025000001 193.594002 93.40969050000001C194.60257425000003 91.90127100000001 195.14002725 90.12791550000001 195.14002725 88.31396175C195.14002725 85.88125875000001 194.17325025 83.5484055 192.45385950000002 81.82821675C190.73347125 80.10812775 188.40011925000002 79.14174975000002 185.967915 79.14174975000002Z" stroke-width="0.5"></path><g id="group"><path id="vector_44" stroke="#120071" stroke-linecap="round" stroke-linejoin="round" d="M188.46336075000002 84.82291125H185.00313300000002C184.77580275 84.817425 184.55036775000002 84.85722525000001 184.33929675000002 84.94031700000001C184.12822575 85.02330900000001 183.93540900000002 85.14769725 183.77331525000002 85.30629975000001C183.61012425 85.46490225000001 183.48164625 85.65422775 183.39286875 85.86350325000001C183.3051885 86.072679 183.25930350000002 86.29741575 183.25930350000002 86.52444675C183.25930350000002 86.75147775 183.3051885 86.9762145 183.39286875 87.18539025C183.48164625 87.39466575 183.61012425 87.58399125000001 183.77331525000002 87.74259375000001C183.93540900000002 87.90119625 184.12822575 88.02558450000001 184.33929675000002 88.10857650000001C184.55036775000002 88.19166825 184.77580275 88.23156825 185.00313300000002 88.22598225000002L186.888807 88.23725400000001C187.345662 88.236855 187.78526025 88.41560700000001 188.1115425 88.73510625C188.43892200000002 89.05460550000001 188.62754925000002 89.48941575 188.63772375000002 89.94637050000001C188.63772375000002 90.39853725 188.45827350000002 90.83205075000001 188.13907350000002 91.15174950000001C187.81887600000002 91.47154800000001 187.38546225 91.65119775000001 186.9336945 91.651497L183.47346675 91.64541225" stroke-width="0.5"></path><path id="vector_45" stroke="#120071" stroke-linecap="round" stroke-linejoin="round" d="M185.967915 93.121014V83.506311" stroke-width="0.5"></path></g></g><g id="coin 1"><path id="vector_46" fill="#b6db93" fill-rule="evenodd" d="M5.7968715 132.29712825000001C5.796672000000001 130.5869145 6.133428 128.89395750000003 6.78768825 127.3143165C7.442048250000001 125.73467550000001 8.401144500000001 124.29877425000001 9.610314 123.08930550000001C10.819383750000002 121.88083425 12.254886 120.92113950000001 13.834626750000002 120.26747775000001C15.414567000000002 119.61271875 17.107723500000002 119.276262 18.81773775 119.276262H15.525788250000002C12.072443250000001 119.276262 8.760543750000002 120.6478245 6.318663750000001 123.090303C3.87678375 125.53168425000001 2.504922 128.84398275 2.504922 132.29712825000001S3.87678375 139.0624725 6.318663750000001 141.50385375C8.760543750000002 143.94633225 12.072443250000001 145.3179945 15.525788250000002 145.3179945H18.81773775C17.107723500000002 145.3179945 15.414567000000002 144.981438 13.834626750000002 144.326679C12.254886 143.67301725 10.819383750000002 142.71342225 9.610314 141.504951C8.401144500000001 140.2953825 7.442048250000001 138.85958100000002 6.78768825 137.27984025C6.133428 135.70019925 5.796672000000001 134.007342 5.7968715 132.29712825000001Z" clip-rule="evenodd" stroke-width="0.5"></path><path id="vector_47" fill-rule="evenodd" stroke="#120071" stroke-linecap="round" stroke-linejoin="round" d="M5.7968715 132.29712825000001C5.796672000000001 130.5869145 6.133428 128.89395750000003 6.78768825 127.3143165C7.442048250000001 125.73467550000001 8.401144500000001 124.29877425000001 9.610314 123.08930550000001C10.819383750000002 121.88083425 12.254886 120.92113950000001 13.834626750000002 120.26747775000001C15.414567000000002 119.61271875 17.107723500000002 119.276262 18.81773775 119.276262H15.525788250000002C12.072443250000001 119.276262 8.760543750000002 120.6478245 6.318663750000001 123.090303C3.87678375 125.53168425000001 2.504922 128.84398275 2.504922 132.29712825000001S3.87678375 139.0624725 6.318663750000001 141.50385375C8.760543750000002 143.94633225 12.072443250000001 145.3179945 15.525788250000002 145.3179945H18.81773775C17.107723500000002 145.3179945 15.414567000000002 144.981438 13.834626750000002 144.326679C12.254886 143.67301725 10.819383750000002 142.71342225 9.610314 141.504951C8.401144500000001 140.2953825 7.442048250000001 138.85958100000002 6.78768825 137.27984025C6.133428 135.70019925 5.796672000000001 134.007342 5.7968715 132.29712825000001Z" clip-rule="evenodd" stroke-width="0.5"></path><path id="vector_48" stroke="#120071" stroke-linecap="round" stroke-linejoin="round" d="M18.81773775 119.276262C16.24239225 119.276262 13.7250015 120.04004775000001 11.583768000000001 121.47086175000001C9.442434750000002 122.901576 7.7735175000000005 124.9350795 6.7879875 127.3143165C5.8024575 129.6935535 5.544603750000001 132.3113925 6.0470445 134.83746150000002C6.54948525 137.3635305 7.789577250000001 139.68351600000003 9.610613250000002 141.50385375C11.431549500000001 143.32528875000003 13.751634750000001 144.56538075 16.27750425 145.06812075000002C18.803274000000002 145.56986325 21.421312500000003 145.31181 23.8005495 144.326679C26.179786500000002 143.341548 28.21338975 141.672132 29.64420375 139.53059925000002C31.074918 137.38996425 31.838604 134.87207475000002 31.838604 132.29712825000001C31.838604 130.5869145 31.501748250000002 128.89395750000003 30.847488000000002 127.3143165C30.19302825 125.73467550000001 29.233932000000003 124.29877425000001 28.02486225 123.090303C26.8157925 121.88083425 25.380390000000002 120.922137 23.8005495 120.26747775000001C22.22080875 119.61271875 20.527652250000003 119.27616225000001 18.81773775 119.27616225000001Z" stroke-width="0.5"></path><g id="group_2"><path id="vector_49" stroke="#120071" stroke-linecap="round" stroke-linejoin="round" d="M22.359461250000003 127.34184750000001H17.448070500000004C17.126676 127.33576275 16.8072765 127.39281975000002 16.5084255 127.51112325C16.2095745 127.62942675000001 15.937356750000001 127.806882 15.707832 128.03121975000002C15.478107750000001 128.25665475000002 15.295665 128.52478275 15.171177 128.82163875C15.046689 129.11729775 14.98254975 129.43550025 14.98254975 129.7577925C14.98254975 130.0789875 15.046689 130.39719 15.171177 130.69294875C15.295665 130.98970500000001 15.478107750000001 131.25793275 15.707832 131.483268C15.937356750000001 131.708703 16.2095745 131.885061 16.5084255 132.0033645C16.8072765 132.121668 17.126676 132.17982225 17.448070500000004 132.17264025L20.12506125 132.18899925C20.77423425 132.18800174999998 21.39787125 132.4418655 21.862008 132.89572800000002C22.3262445 133.34949075 22.594173 133.96754175 22.6083375 134.61611625C22.607739000000002 135.25860600000001 22.35247875 135.87356475 21.8985165 136.32732750000002C21.444654 136.78119 20.82909675 137.03615100000002 20.18730525 137.03615100000002L15.2759145 137.026974" stroke-width="0.5"></path><path id="vector_50" stroke="#120071" stroke-linecap="round" stroke-linejoin="round" d="M18.81773775 139.12062675V125.47353" stroke-width="0.5"></path></g></g><g id="coin 4"><path id="vector_51" fill="#b6db93" fill-rule="evenodd" d="M182.03966025000003 152.23635525C181.05552675 147.45852975000003 182.95746 142.94384475 186.36871050000002 141.53657175C182.064099 141.773079 178.888458 146.74362150000002 180.1111935 152.6727615C181.3808115 158.83242375 186.45329850000002 162.00606975000002 190.47851025000003 160.3427385C186.71035425000002 160.54772475000001 183.04514025 157.113033 182.03966025000003 152.23635525Z" clip-rule="evenodd" stroke-width="0.5"></path><path id="vector_52" fill-rule="evenodd" stroke="#120071" stroke-linecap="round" stroke-linejoin="round" d="M182.03966025000003 152.23635525C181.05552675 147.45852975000003 182.95746 142.94384475 186.36871050000002 141.53657175C182.064099 141.773079 178.888458 146.74362150000002 180.1111935 152.6727615C181.3808115 158.83242375 186.45329850000002 162.00606975000002 190.47851025000003 160.3427385C186.71035425000002 160.54772475000001 183.04514025 157.113033 182.03966025000003 152.23635525Z" clip-rule="evenodd" stroke-width="0.5"></path><path id="vector_53" stroke="#120071" stroke-linecap="round" stroke-linejoin="round" d="M191.34843 160.23061950000002C195.40725750000001 159.3943155 197.81911275000002 154.458486 196.73602725 149.206449C195.654039 143.95451175000002 191.48608500000003 140.37498300000001 187.428255 141.21118725C183.36942750000003 142.04848875000002 180.95757225000003 146.98431825 182.03966025000003 152.23635525C183.12264600000003 157.48829250000003 187.2906 161.06682375 191.34843 160.23061950000002Z" stroke-width="0.5"></path><g id="group_3"><path id="vector_54" stroke="#120071" stroke-linecap="round" stroke-linejoin="round" d="M190.39491974999999 146.63449500000002L187.64142075000004 147.30451575C187.27733325000003 147.49932750000002 186.98875650000002 147.80935050000002 186.82047825 148.18570725C186.65220000000002 148.56296175000003 186.6144945 148.984206 186.71234925 149.38500150000002C186.80920650000002 149.78569725000003 187.03773375 150.1427025 187.36092375 150.39965850000002C187.68321600000002 150.65661450000002 188.083014 150.79945650000002 188.4949815 150.80454375000002L189.9972165 150.45162825C190.42444575000002 150.4088355 190.85177475 150.53222625 191.19032625 150.79636424999998C191.52887775000002 151.06050225 191.75331525 151.44493875 191.8154595 151.87027275C191.961294 152.269971 191.94603225 152.71156425 191.77366425000002 153.10009050000002C191.60029875 153.48861675 191.28309375 153.79564725 190.88848275 153.9547485L188.13498375000003 154.61758725" stroke-width="0.5"></path><path id="vector_55" stroke="#120071" stroke-linecap="round" stroke-linejoin="round" d="M190.49486925 155.65169550000002L188.0820165 145.764675" stroke-width="0.5"></path></g></g><g id="coin 3"><path id="vector_56" fill="#b6db93" fill-rule="evenodd" d="M182.73920700000002 122.44063125000001C180.8341815 126.394422 177.00587625 128.5819395 173.80160700000002 127.72738125000002C177.00787125000002 129.90871425 181.992678 128.08937400000002 184.35665325000002 123.182073C186.81229875 118.08305250000001 184.91854500000002 113.046276 181.1330325 112.03660650000002C183.9415935 113.94771675000001 184.68393300000002 118.40534475000001 182.73920700000002 122.44063125000001Z" clip-rule="evenodd" stroke-width="0.5"></path><path id="vector_57" fill-rule="evenodd" stroke="#120071" stroke-linecap="round" stroke-linejoin="round" d="M182.73920700000002 122.44063125000001C180.8341815 126.394422 177.00587625 128.5819395 173.80160700000002 127.72738125000002C177.00787125000002 129.90871425 181.992678 128.08937400000002 184.35665325000002 123.182073C186.81229875 118.08305250000001 184.91854500000002 113.046276 181.1330325 112.03660650000002C183.9415935 113.94771675000001 184.68393300000002 118.40534475000001 182.73920700000002 122.44063125000001Z" clip-rule="evenodd" stroke-width="0.5"></path><path id="vector_58" stroke="#120071" stroke-linecap="round" stroke-linejoin="round" d="M182.73920700000002 122.4417285C184.83285975 118.09532175000001 183.8079285 113.26033950000001 180.449745 111.64199550000001C177.09046425000003 110.02454924999999 172.67064150000002 112.23550800000001 170.57698875000003 116.58291225C168.4823385 120.929319 169.50826725000002 125.76420150000001 172.86645075 127.38164775000001C176.224734 129.0000915 180.64555425 126.78813525000001 182.73920700000002 122.4417285Z" stroke-width="0.5"></path><g id="group_4"><path id="vector_59" stroke="#120071" stroke-linecap="round" stroke-linejoin="round" d="M173.70684450000002 121.879737L176.03810175 122.89958100000001C176.40418425000001 122.95973025 176.78054100000003 122.89549125 177.10682325000002 122.718036C177.432108 122.54058075 177.69016125000002 122.2601835 177.839088 121.91953725C177.98791500000002 121.57998825 178.02053325 121.19954175000001 177.92986050000002 120.839544S177.6310095 120.16034625 177.33934050000002 119.93092125L176.07271500000002 119.36394225000001C175.7433405 119.160951 175.505736 118.83975600000001 175.40788125 118.465494C175.30892925 118.0922295 175.358904 117.69452625000001 175.54653375 117.35597475C175.6607475 116.99079000000002 175.91161875 116.68385925 176.24817525 116.50031925C176.5836345 116.31677925000001 176.97834525 116.27089425 177.34752 116.37184125L179.67678225000003 117.399765" stroke-width="0.5"></path><path id="vector_60" stroke="#120071" stroke-linecap="round" stroke-linejoin="round" d="M178.55898375 115.38262050000002L174.887685 123.76850325000001" stroke-width="0.5"></path></g></g><g id="details"><g id="group_5"><path id="vector_61" stroke="#120071" stroke-linecap="round" stroke-linejoin="round" d="M54.624097500000005 31.156613250000003H61.17537825" stroke-width="0.5"></path><path id="vector_62" stroke="#120071" stroke-linecap="round" stroke-linejoin="round" d="M57.899688000000005 27.881122500000004V34.43240325000001" stroke-width="0.5"></path></g><g id="group_6"><path id="vector_63" stroke="#120071" stroke-linecap="round" stroke-linejoin="round" d="M10.180983750000001 11.32471725L14.81297475 15.95770575" stroke-width="0.5"></path><path id="vector_64" stroke="#120071" stroke-linecap="round" stroke-linejoin="round" d="M14.81297475 11.32471725L10.180983750000001 15.95770575" stroke-width="0.5"></path></g><g id="group_7"><path id="vector_65" stroke="#120071" stroke-linecap="round" stroke-linejoin="round" d="M7.86498825 165.44485125L12.49697925 170.07783975" stroke-width="0.5"></path><path id="vector_66" stroke="#120071" stroke-linecap="round" stroke-linejoin="round" d="M12.49697925 165.44485125L7.86399075 170.07783975" stroke-width="0.5"></path></g><g id="group_8"><path id="vector_67" stroke="#120071" stroke-linecap="round" stroke-linejoin="round" d="M174.19222800000003 16.9162035H180.743409" stroke-width="0.5"></path><path id="vector_68" stroke="#120071" stroke-linecap="round" stroke-linejoin="round" d="M177.466821 13.64071275V20.191893750000002" stroke-width="0.5"></path></g><path id="vector_69" stroke="#120071" stroke-linecap="round" stroke-linejoin="round" d="M5.54799525 102.4769655C6.8270895000000005 102.4769655 7.86399075 101.43986475000001 7.86399075 100.16097C7.86399075 98.881776 6.8270895000000005 97.84477500000001 5.54799525 97.84477500000001C4.2689010000000005 97.84477500000001 3.23199975 98.881776 3.23199975 100.16097C3.23199975 101.43986475000001 4.2689010000000005 102.4769655 5.54799525 102.4769655Z" stroke-width="0.5"></path></g></g></svg>