<svg xmlns="http://www.w3.org/2000/svg" fill="none" viewBox="-0.25 -0.25 200 200" id="Deposit-4--Streamline-Bangalore.svg"><desc>Deposit 4 Streamline Illustration: https://streamlinehq.com</desc><g id="deposit-4--finance-deposit"><g id="bank"><path id="vector" fill="#b6db93" fill-rule="evenodd" d="M115.656135 73.33929225c0.011970000000000001 -0.6877762500000001 0.15960000000000002 -1.3663755 0.4359075 -1.99649625 0.27630750000000004 -0.630021 0.6743100000000001 -1.19909475 1.1720625 -1.6740045 0.49775250000000004 -0.47500950000000003 1.0842825 -0.8464785 1.7266725000000003 -1.09296075 0.64239 -0.2463825 1.3276725 -0.3628905 2.0149500000000002 -0.342741H95.10564v0.19551000000000002c1.11031725 0.260946 2.100735 0.8874757500000001 2.81225175 1.7789415000000002 0.711417 0.8914657500000001 1.10273625 1.996197 1.11091575 3.1367385000000003 -0.1187025 2.4269175 -1.4782950000000001 3.6558375 -3.9231675 3.7605750000000002v45.38615025h24.473662500000003V77.10485475000002c-2.4448725000000002 -0.109725 -3.8054625 -1.338645 -3.9231675 -3.7655625Z" clip-rule="evenodd" stroke-width="0.5"></path><path id="vector_2" fill="#b6db93" fill-rule="evenodd" d="M161.71669500000002 68.403762v-0.1745625h-25.9000875c0.6872775 -0.02024925 1.37256 0.09615900000000001 2.0149500000000002 0.3425415 0.64239 0.2463825 1.22892 0.6178515 1.7266725000000003 1.0928609999999999 0.49775250000000004 0.47500950000000003 0.8957550000000001 1.0440832500000001 1.1720625 1.674204 0.27630750000000004 0.6301207500000001 0.4239375 1.30881975 0.4359075 1.996596 -0.117705 2.4269175 -1.4782950000000001 3.6558375 -3.92217 3.7605750000000002v45.3860505h24.472665V77.095977c-5.6189175 -0.237405 -4.8837600000000005 -7.478257500000001 0 -8.692215000000001Z" clip-rule="evenodd" stroke-width="0.5"></path><path id="vector_3" stroke="#120071" stroke-linecap="round" stroke-linejoin="round" d="M79.48080000000002 73.33929225s0.09975 1.09725 -1.230915 1.0892700000000002c-1.7755500000000002 -0.0109725 -1.6159500000000002 -3.28377 1.230915 -3.2668125 2.7521025 0.015960000000000002 2.6224275 5.7426075 -1.230915 5.930137500000001 -2.9526000000000003 0.1446375 -4.6004700000000005 -1.0703175 -4.731142500000001 -3.7525950000000003 0.0117705 -0.6892725 0.1605975 -1.3693680000000001 0.43770300000000006 -2.00068575 0.2771055 -0.6312180000000001 0.6770032500000001 -1.20108975 1.1764515 -1.6763985000000001 0.4993485000000001 -0.475209 1.0882725 -0.8463787500000001 1.7325577500000002 -1.09196325 0.6441855000000001 -0.24548475000000003 1.3307647500000002 -0.3604965 2.01983775 -0.3381525" stroke-width="0.5"></path><path id="vector_4" stroke="#120071" stroke-linecap="round" stroke-linejoin="round" d="M121.6181925 73.339392s0.09975 1.09725 -1.2299175000000002 1.0892700000000002c-1.7765475 -0.0109725 -1.6159500000000002 -3.28377 1.2299175000000002 -3.2668125 2.7521025 0.015960000000000002 2.623425 5.7426075 -1.2299175000000002 5.930137500000001 -2.9535975 0.1446375 -4.601467500000001 -1.0703175 -4.73214 -3.7525950000000003 0.011970000000000001 -0.6894720000000001 0.1605975 -1.3695675 0.43790250000000003 -2.000985 0.277305 -0.63131775 0.6773025 -1.2011895 1.1760525000000002 -1.67649825 0.4997475 -0.47530875 1.0892700000000002 -0.8464785 1.7336550000000002 -1.0918635 0.6443850000000001 -0.24548475000000003 1.3306650000000002 -0.36039675000000004 2.0199375 -0.33785325" stroke-width="0.5"></path><path id="vector_5" stroke="#120071" stroke-linecap="round" stroke-linejoin="round" d="M163.7565825 73.33929225s0.09975 1.09725 -1.230915 1.0892700000000002c-1.7765475 -0.0109725 -1.6159500000000002 -3.28377 1.230915 -3.2668125 2.7511050000000004 0.015960000000000002 2.6224275 5.7426075 -1.230915 5.930137500000001 -2.9535975 0.1446375 -4.601467500000001 -1.0703175 -4.73214 -3.7525950000000003 0.011970000000000001 -0.6893722500000001 0.1605975 -1.3693680000000001 0.43790250000000003 -2.0005859999999998 0.277305 -0.6312180000000001 0.6773025 -1.20099 1.17705 -1.676199 0.4997475 -0.47530875 1.0882725 -0.8464785 1.7326575000000002 -1.092063 0.6443850000000001 -0.24548475000000003 1.3306650000000002 -0.36059625 2.0199375 -0.33835200000000004" stroke-width="0.5"></path><path id="vector_6" stroke="#120071" stroke-linecap="round" stroke-linejoin="round" d="M93.06675 73.33929225s-0.09975 1.09725 1.2299175000000002 1.0892700000000002c1.7765475 -0.0109725 1.6169475 -3.28377 -1.2299175000000002 -3.2668125 -2.7521025 0.015960000000000002 -2.6224275 5.7426075 1.2299175000000002 5.930137500000001 2.9535975 0.1446375 4.601467500000001 -1.0703175 4.73214 -3.7525950000000003 -0.01147125 -0.6892725 -0.15989925 -1.36946775 -0.43660575 -2.00088525s-0.676305 -1.20148875 -1.175454 -1.676997c-0.499149 -0.47560800000000003 -1.0878735000000002 -0.847077 -1.7318595 -1.09296075 -0.6440857500000001 -0.24588375 -1.3306650000000002 -0.3612945 -2.0196382500000003 -0.3393495" stroke-width="0.5"></path><path id="vector_7" stroke="#120071" stroke-linecap="round" stroke-linejoin="round" d="M135.20414250000002 73.33929225s-0.09975 1.09725 1.230915 1.0892700000000002c1.7755500000000002 -0.0109725 1.6159500000000002 -3.28377 -1.230915 -3.2668125 -2.7511050000000004 0.015960000000000002 -2.6224275 5.7426075 1.230915 5.930137500000001 2.9535975 0.1446375 4.6004700000000005 -1.0703175 4.731142500000001 -3.7525950000000003 -0.011970000000000001 -0.6892725 -0.1605975 -1.3693680000000001 -0.43790250000000003 -2.00068575 -0.277305 -0.6312180000000001 -0.6773025 -1.20108975 -1.1760525000000002 -1.6763985000000001 -0.4997475 -0.475209 -1.0882725 -0.8463787500000001 -1.7326575000000002 -1.09196325 -0.6443850000000001 -0.24548475000000003 -1.3306650000000002 -0.3604965 -2.0199375 -0.3381525" stroke-width="0.5"></path><path id="vector_8" stroke="#120071" stroke-linecap="round" stroke-linejoin="round" d="M177.3425325 73.33929225s-0.09975 1.09725 1.2299175000000002 1.0892700000000002c1.7765475 -0.0109725 1.6159500000000002 -3.28377 -1.2299175000000002 -3.2668125 -2.7521025 0.015960000000000002 -2.623425 5.7426075 1.2299175000000002 5.930137500000001 2.9535975 0.1446375 4.601467500000001 -1.0703175 4.73214 -3.7525950000000003 -0.011970000000000001 -0.6893722500000001 -0.1605975 -1.3693680000000001 -0.43790250000000003 -2.0005859999999998 -0.277305 -0.6312180000000001 -0.6773025 -1.20099 -1.17705 -1.676199 -0.4997475 -0.47530875 -1.0882725 -0.8464785 -1.7326575000000002 -1.092063 -0.6443850000000001 -0.24548475000000003 -1.3306650000000002 -0.36059625 -2.0199375 -0.33835200000000004" stroke-width="0.5"></path><path id="vector_9" stroke="#120071" stroke-linecap="round" stroke-linejoin="round" d="M77.44191 77.09976750000001v45.386250000000004" stroke-width="0.5"></path><path id="vector_10" stroke="#120071" stroke-linecap="round" stroke-linejoin="round" d="M119.57930250000001 77.09976750000001v45.386250000000004" stroke-width="0.5"></path><path id="vector_11" stroke="#120071" stroke-linecap="round" stroke-linejoin="round" d="M161.71669500000002 77.09976750000001v45.386250000000004" stroke-width="0.5"></path><path id="vector_12" stroke="#120071" stroke-linecap="round" stroke-linejoin="round" d="M95.10564 77.09976750000001v45.386250000000004" stroke-width="0.5"></path><path id="vector_13" stroke="#120071" stroke-linecap="round" stroke-linejoin="round" d="M137.24403 77.09976750000001v45.386250000000004" stroke-width="0.5"></path><path id="vector_14" stroke="#120071" stroke-linecap="round" stroke-linejoin="round" d="M179.38142249999999 77.09976750000001v45.386250000000004" stroke-width="0.5"></path><path id="vector_15" stroke="#120071" stroke-linecap="round" stroke-linejoin="round" d="M83.23539000000001 77.10704925V122.49300000000001" stroke-width="0.5"></path><path id="vector_16" stroke="#120071" stroke-linecap="round" stroke-linejoin="round" d="M125.3727825 77.10704925V122.49300000000001" stroke-width="0.5"></path><path id="vector_17" stroke="#120071" stroke-linecap="round" stroke-linejoin="round" d="M167.51117250000001 77.10704925V122.49300000000001" stroke-width="0.5"></path><path id="vector_18" stroke="#120071" stroke-linecap="round" stroke-linejoin="round" d="M89.31216 76.946352V122.49300000000001" stroke-width="0.5"></path><path id="vector_19" stroke="#120071" stroke-linecap="round" stroke-linejoin="round" d="M131.4495525 76.946352V122.49300000000001" stroke-width="0.5"></path><path id="vector_20" stroke="#120071" stroke-linecap="round" stroke-linejoin="round" d="M173.5879425 76.946352V122.49300000000001" stroke-width="0.5"></path><path id="vector_21" stroke="#120071" stroke-linecap="round" stroke-linejoin="round" d="M189.29358000000002 132.701415H67.5297525v5.107200000000001h121.7638275v-5.107200000000001Z" stroke-width="0.5"></path><path id="vector_22" stroke="#120071" stroke-linecap="round" stroke-linejoin="round" d="M184.691115 127.59521250000002H72.13221750000001v5.107200000000001h112.5588975v-5.107200000000001Z" stroke-width="0.5"></path><path id="vector_23" stroke="#120071" stroke-linecap="round" stroke-linejoin="round" d="M179.38042500000003 122.48801250000001H77.44091250000001v5.107200000000001H179.38042500000003v-5.107200000000001Z" stroke-width="0.5"></path><path id="vector_24" stroke="#120071" stroke-linecap="round" stroke-linejoin="round" d="m128.4111675 43.6021215 49.525875 24.6272775h-99.05175l49.525875 -24.6272775Z" stroke-width="0.5"></path><path id="vector_25" fill="#b6db93" fill-rule="evenodd" d="m128.4111675 48.9227865 29.378370000000004 13.98894h-58.75275l29.374380000000002 -13.98894Z" clip-rule="evenodd" stroke-width="0.5"></path><path id="vector_26" stroke="#120071" stroke-linecap="round" stroke-linejoin="round" d="m128.4111675 48.9227865 29.378370000000004 13.98894h-58.75275l29.374380000000002 -13.98894Z" stroke-width="0.5"></path><path id="vector_27" fill="#6153bd" fill-rule="evenodd" d="M128.4111675 30.985542c2.4568425 -0.9880237500000001 5.200965000000001 -0.9880237500000001 7.658805 0 1.18902 0.491169 2.4827775 0.6735120000000001 3.7615725 0.53017125 1.2787950000000001 -0.14344050000000003 2.499735 -0.60777675 3.5511000000000004 -1.35011625v9.497197500000002s-5.2867500000000005 1.6059750000000002 -8.0089275 0 -6.962550000000001 0 -6.962550000000001 0v-8.6772525Z" clip-rule="evenodd" stroke-width="0.5"></path><path id="vector_28" stroke="#120071" stroke-linecap="round" stroke-linejoin="round" d="M136.0699725 30.985542c-2.45784 -0.9880237500000001 -5.2019625000000005 -0.9880237500000001 -7.658805 0v8.67825s4.237380000000001 -1.6049775000000002 6.962550000000001 0 8.0089275 0 8.0089275 0v-9.498195c-1.051365 0.7423395 -2.2723050000000002 1.20667575 -3.5511000000000004 1.35011625 -1.2787950000000001 0.14334075 -2.5725525000000005 -0.03900225 -3.7615725 -0.53017125Z" stroke-width="0.5"></path><path id="vector_29" stroke="#120071" stroke-linecap="round" stroke-linejoin="round" d="M128.4111675 43.6017225V30.9853425" stroke-width="0.5"></path></g><g id="wallet"><path id="vector_30" fill="#b6db93" fill-rule="evenodd" d="M18.19749225 121.4206875c-0.95670225 -0.11172000000000001 -6.30819 0.82593 -6.32814 5.5032075 -0.019950000000000002 4.677277500000001 4.68825 5.021415 4.68825 5.021415h7.17003s-1.5471225 -4.25733 -3.96207 -10.50168c-0.9346575000000001 -0.005985000000000001 -1.48428 -0.0129675 -1.56807 -0.0229425Z" clip-rule="evenodd" stroke-width="0.5"></path><path id="vector_31" fill="#b6db93" fill-rule="evenodd" d="m80.9241825 121.337895 -26.720930250000002 0.073815c1.5620850000000002 3.7735425 2.9575875 7.354567500000001 4.06581 10.533600000000002H80.9241825c-0.044887500000000004 -3.4882575 0 -10.607415000000001 0 -10.607415000000001Z" clip-rule="evenodd" stroke-width="0.5"></path><path id="vector_32" fill="#6153bd" fill-rule="evenodd" d="M88.18997250000001 131.94531h-1.5431325c0 -2.6334000000000004 0.0109725 -7.3386075 0 -10.239337500000001 -0.0045885000000000006 -1.055355 -0.424536 -2.0668200000000003 -1.1688705 -2.8159425000000002 -0.7443345 -0.7491225 -1.7534055000000002 -1.1740575000000002 -2.8091595 -1.18503 -4.320172500000001 -0.04389 -16.8906675 -0.16359 -30.093577500000002 -0.15960000000000002 0.5586000000000001 1.3037325 1.1012400000000002 2.5905075 1.62792 3.86232l26.721030000000003 -0.073815v10.607415000000001H16.543537500000003c-0.27531000000000005 -0.0249375 -4.68825 -0.4897725 -4.674285 -5.020417500000001 0.019950000000000002 -4.677277500000001 5.3715375 -5.6149275 6.32814 -5.5032075 0.08379 0.009975000000000001 0.6334125 0.016957500000000004 1.5670725 0.0229425 -0.40498500000000004 -1.0463775 -0.83391 -2.148615 -1.2837825 -3.2967375000000003 -5.7785175 0.399 -11.028330075000001 1.741635 -12.814852575000002 7.281750000000001 -0.955605 2.9655675 -0.6683250000000001 1.5551025 -0.6673275000000001 58.66596750000001 0.000528675 1.66383 0.6617315250000001 3.25983 1.8382728000000002 4.4358825 1.176541275 1.17705 2.772122325 1.8373950000000001 4.435972275 1.8383925h75.7152375c1.6640295 0 3.25973025 -0.6613425 4.436281500000001 -1.8383925 1.1766510000000001 -1.1760525000000002 1.8377940000000001 -2.7720525 1.8379935 -4.4358825v-47.08200000000001c-0.00209475 -1.3436325 -0.537453 -2.6324025 -1.4884695000000001 -3.5820225000000003 -0.9509167500000001 -0.9486225 -2.23988625 -1.482285 -3.5838180000000004 -1.482285Zm-2.7301575000000002 36.8905425c-0.8972512500000001 0 -1.774353 -0.2663325 -2.52038325 -0.7650825000000001 -0.74603025 -0.49775250000000004 -1.3274730000000001 -1.2069750000000001 -1.6709122500000002 -2.0358975 -0.3433395 -0.8289225 -0.43321425 -1.7406375000000003 -0.25815299999999997 -2.6204324999999997 0.17506125 -0.8807925000000001 0.60717825 -1.6887675000000002 1.24158825 -2.3231775000000003 0.63450975 -0.63441 1.442784 -1.0663275 2.32287825 -1.2418875000000003 0.8799945 -0.1745625 1.7921085 -0.08478750000000002 2.6211307500000003 0.25835250000000004 0.8289225 0.34314 1.53744675 0.9246825000000001 2.0359972500000003 1.6708125 0.49845075 0.7461300000000001 0.764484 1.6229325000000001 0.764484 2.5206825000000004 0 1.202985 -0.47790225000000003 2.3570925000000003 -1.3286700000000002 3.2079600000000004 -0.8508675 0.8508675 -2.0047755 1.3286700000000002 -3.2079600000000004 1.3286700000000002Z" clip-rule="evenodd" stroke-width="0.5"></path><path id="vector_33" stroke="#120071" stroke-linecap="round" stroke-linejoin="round" d="M18.4806825 118.1468925c-5.7745275 0.399 -11.028330075000001 1.741635 -12.814852575000002 7.281750000000001 -0.955605 2.9655675 -0.6683250000000001 1.5551025 -0.6673275000000001 58.66596750000001 0.000528675 1.66383 0.6617315250000001 3.25983 1.8382728000000002 4.4358825 1.176541275 1.17705 2.772122325 1.8373950000000001 4.435972275 1.8383925h75.7152375c1.6640295 0 3.25973025 -0.6613425 4.436281500000001 -1.8383925 1.1766510000000001 -1.1760525000000002 1.8377940000000001 -2.7720525 1.8379935 -4.4358825v-47.08200000000001c0 -1.3456275 -0.5343607499999999 -2.635395 -1.4855767500000001 -3.5870100000000003 -0.95131575 -0.9506175 -2.2413825 -1.4852775000000003 -3.58671075 -1.4852775000000003h-1.5431325c0 -2.6334000000000004 0.0109725 -7.3386075 0 -10.239337500000001 -0.005985000000000001 -1.055355 -0.42643125000000004 -2.064825 -1.170666 -2.81295 -0.7442347500000001 -0.7471275 -1.75250775 -1.1720625 -2.807364 -1.183035 -4.320172500000001 -0.04389 -16.8906675 -0.16458750000000003 -30.093577500000002 -0.15960000000000002m1.62792 3.86232 26.721030000000003 -0.073815v10.607415000000001H16.543537500000003c-0.27531000000000005 -0.0249375 -4.68825 -0.4897725 -4.674285 -5.020417500000001 0.019950000000000002 -4.677277500000001 5.3715375 -5.6149275 6.32814 -5.5032075 0.08379 0.009975000000000001 0.6334125 0.017955 1.5670725 0.0229425" stroke-width="0.5"></path><path id="vector_34" fill="#b6db93" fill-rule="evenodd" d="M100.27967250000002 158.3222025c-1.585227 -1.5850275 -3.7352385000000004 -2.475795 -5.97702 -2.475795H83.54262c-2.226021 0.023940000000000003 -4.352691 0.9256800000000001 -5.9182672499999995 2.507715 -1.56557625 1.5830325 -2.4436755000000003 3.7196775000000004 -2.4436755000000003 5.9451 0 2.2264200000000005 0.87809925 4.363065 2.4436755000000003 5.9451 1.56557625 1.5830325 3.69224625 2.4847725 5.9182672499999995 2.5087125h10.760032500000001c1.66951575 -0.005985000000000001 3.30002925 -0.504735 4.686654000000001 -1.434405 1.386126 -0.9296700000000001 2.467416 -2.2493625 3.105816 -3.7914975 0.6393975000000001 -1.542135 0.8079750000000001 -3.2388825 0.484785 -4.8767775 -0.32319000000000003 -1.637895 -1.1231849999999999 -3.1441200000000005 -2.3002350000000003 -4.328152500000001Zm-14.8198575 10.51365c-0.8972512500000001 0 -1.774353 -0.2663325 -2.52038325 -0.7650825000000001 -0.74603025 -0.49775250000000004 -1.32757275 -1.2069750000000001 -1.6709122500000002 -2.0358975 -0.3433395 -0.8289225 -0.43321425 -1.7406375000000003 -0.25815299999999997 -2.6204324999999997 0.17506125 -0.8807925000000001 0.60717825 -1.6887675000000002 1.24158825 -2.3231775000000003 0.63441 -0.63441 1.442784 -1.0663275 2.32287825 -1.2418875000000003 0.8799945 -0.1745625 1.7921085 -0.08478750000000002 2.6211307500000003 0.25835250000000004 0.8289225 0.34314 1.53744675 0.9246825000000001 2.0358975 1.6708125 0.49855050000000006 0.7461300000000001 0.76458375 1.6229325000000001 0.76458375 2.5206825000000004 0 1.202985 -0.47790225000000003 2.3570925000000003 -1.3287697500000002 3.2079600000000004 -0.85076775 0.8508675 -2.00467575 1.3286700000000002 -3.20786025 1.3286700000000002Z" clip-rule="evenodd" stroke-width="0.5"></path><path id="vector_35" stroke="#120071" stroke-linecap="round" stroke-linejoin="round" d="M102.75546750000001 164.2992225c-0.0009975000000000001 -2.2413825 -0.891765 -4.390995 -2.4767925 -5.9760225 -1.5848280000000001 -1.5850275 -3.7344405 -2.475795 -5.9760225 -2.4767925H83.54262c-2.226021 0.023940000000000003 -4.352691 0.9256800000000001 -5.9182672499999995 2.507715 -1.56557625 1.5830325 -2.4436755000000003 3.7196775000000004 -2.4436755000000003 5.9451 0 2.2264200000000005 0.87809925 4.363065 2.4436755000000003 5.9451 1.56557625 1.5830325 3.69224625 2.4847725 5.9182672499999995 2.5087125h10.760032500000001c2.2417815 -0.0009975000000000001 4.39149375 -0.891765 5.97702 -2.4767925 1.5850275 -1.5860250000000002 2.4747975 -3.7356375 2.475795 -5.97702Z" stroke-width="0.5"></path><path id="vector_36" stroke="#120071" stroke-linecap="round" stroke-linejoin="round" d="M87.51775725 168.34209c2.23210575 -1.1371499999999999 3.1199805000000005 -3.8683050000000003 1.98312975 -6.099712500000001 -1.1369505 -2.232405 -3.86800575 -3.1201800000000004 -6.100111500000001 -1.9840275000000003 -2.23210575 1.1371499999999999 -3.1199805000000005 3.8683050000000003 -1.98312975 6.10071 1.13685075 2.232405 3.86800575 3.1201800000000004 6.100111500000001 1.98303Z" stroke-width="0.5"></path></g><g id="cash 1"><path id="vector_37" stroke="#120071" stroke-linecap="round" stroke-linejoin="round" d="M33.23869500000001 76.57518225 4.998462525 86.90529225C13.79742 104.63176500000002 23.726535000000002 131.94531 23.726535000000002 131.94531h34.5424275c-6.9196575000000005 -19.8452625 -25.0302675 -55.37012775 -25.0302675 -55.37012775Z" stroke-width="0.5"></path><g id="group"><path id="vector_38" stroke="#120071" stroke-linecap="round" stroke-linejoin="round" d="m42.5064675 117.74689500000001 -2.1077175 -5.739615h0.011970000000000001c-0.27501075 -0.75012 -0.8367030000000001 -1.3605900000000002 -1.56158625 -1.69575 -0.7248832500000001 -0.33615750000000005 -1.5536062500000003 -0.37107 -2.30372625 -0.09576000000000001 -0.75012 0.27531000000000005 -1.3602907499999999 0.8369025 -1.69624875 1.5620850000000002 -0.335958 0.724185 -0.370272 1.5531075 -0.09526125 2.3032275 -0.0109725 0 1.127175 3.1351425 1.127175 3.1351425 0.277704 0.7581 0.24787875 1.5950025 -0.0831915 2.3311575 -0.33107025 0.7371525 -0.9369517500000001 1.3147050000000002 -1.6883685000000002 1.609965 -0.7507185000000001 0.2743125 -1.57954125 0.2394 -2.30432475 -0.09775500000000001 -0.7248832500000001 -0.33615750000000005 -1.2863760000000002 -0.9466275 -1.56098775 -1.697745h0.0109725l-2.0997375000000003 -5.7465975" stroke-width="0.5"></path><path id="vector_39" stroke="#120071" stroke-linecap="round" stroke-linejoin="round" d="m27.225765000000003 118.6536225 15.9470325 -5.845350000000001" stroke-width="0.5"></path></g></g><g id="cash 2"><path id="vector_40" stroke="#120071" stroke-linecap="round" stroke-linejoin="round" d="M11.87025 62.21118225000001s10.8518025 -17.998890000000003 29.396325 -20.34102c2.4300097500000004 -0.33007275 4.9039095 -0.058952250000000005 7.204743000000001 0.789621 2.3007337500000005 0.8484735000000001 4.358277 2.24846475 5.992182000000001 4.0771815 0 0 -19.030305000000002 -1.09725 -22.8257925 19.039282500000002L11.87025 62.21118225000001Z" stroke-width="0.5"></path><g id="group_2"><path id="vector_41" stroke="#120071" stroke-linecap="round" stroke-linejoin="round" d="M24.91465725 48.569272500000004c0.52139325 0.1677795 1.076103 0.2048865 1.61525175 0.10822875 0.53914875 -0.09675750000000001 1.04627775 -0.32428725 1.47699825 -0.66283875 0.0089775 0.005985000000000001 2.0378925000000003 -1.6159500000000002 2.0378925000000003 -1.6159500000000002 0.5763555 -0.4047855 1.2564510000000002 -0.63630525 1.9600875000000002 -0.66702825 0.7036365000000001 -0.030723000000000004 1.40138775 0.14044800000000002 2.0109600000000003 0.49346325 0.2587515 0.11940075000000001 0.48169275 0.30473625 0.6462802500000001 0.537453 0.16458750000000003 0.2328165 0.26513549999999997 0.5046352500000001 0.29146950000000005 0.78852375 0.026334 0.28378875 -0.022344 0.5695725 -0.141246 0.82862325 -0.11890200000000001 0.25905075 -0.3038385 0.48229125 -0.53615625 0.6473775l-3.7206750000000004 2.97654" stroke-width="0.5"></path><path id="vector_42" stroke="#120071" stroke-linecap="round" stroke-linejoin="round" d="m35.04018 51.004968000000005 -7.0393575 -4.4887500000000005" stroke-width="0.5"></path></g></g><g id="cash 3"><path id="vector_43" stroke="#120071" stroke-linecap="round" stroke-linejoin="round" d="M61.3791675 42.35793975000001s7.56504 -7.225890000000001 8.67825 -14.993422500000001L78.80250000000001 31.889177250000003s-7.24185 12.248302500000001 -13.004407500000001 16.203390000000002l-4.418925 -5.7346275Z" stroke-width="0.5"></path><g id="group_3"><path id="vector_44" stroke="#120071" stroke-linecap="round" stroke-linejoin="round" d="m69.44595000000001 35.700525 -1.043385 1.38453c-0.06743099999999999 0.08947575 -0.11670750000000002 0.19122075000000002 -0.14473725 0.299649 -0.0281295 0.10842825 -0.034613250000000005 0.22134525 -0.019152 0.33226725 0.015561 0.11092199999999999 0.05276775 0.21765450000000003 0.1095255 0.3142125 0.05675775 0.096558 0.132069 0.1809465 0.221445 0.2483775 0.089376 0.06753075 0.19122075000000002 0.11670750000000002 0.299649 0.144837 0.10842825 0.0281295 0.2212455 0.034613250000000005 0.33216750000000006 0.01905225 0.11092199999999999 -0.015561 0.21775425 -0.05276775 0.31431225 -0.1095255 0.09645825 -0.05675775 0.1809465 -0.13196925 0.2483775 -0.221445l0.5735625 -0.7511175c0.1378545 -0.18304125000000002 0.341943 -0.30473625 0.56847525 -0.33905025 0.22663200000000003 -0.034314000000000004 0.45765300000000003 0.021546000000000003 0.6434872500000001 0.15551025000000002 0.18104625 0.13645800000000002 0.30054675000000003 0.33915000000000006 0.33216750000000006 0.5635875 0.03162075 0.22453725 -0.027231750000000002 0.45236625 -0.16359 0.6334125l-1.0473750000000002 1.382535" stroke-width="0.5"></path><path id="vector_45" stroke="#120071" stroke-linecap="round" stroke-linejoin="round" d="m72.0145125 39.20184975 -3.8473575 -2.9017275" stroke-width="0.5"></path></g></g><g id="cash 4"><path id="vector_46" stroke="#120071" stroke-linecap="round" stroke-linejoin="round" d="M96.08418750000001 59.67862950000001s-6.278265 -12.355034999999999 -15.0871875 -15.8313225l10.326120000000001 -6.118665000000001s12.981465 8.9645325 14.7300825 16.991415" stroke-width="0.5"></path><g id="group_4"><path id="vector_47" stroke="#120071" stroke-linecap="round" stroke-linejoin="round" d="m99.6033675 50.40567 -1.3286700000000002 -1.8443775c-0.085785 -0.11920125 -0.19421325000000003 -0.22034775000000004 -0.31910025000000003 -0.29765400000000003 -0.12488700000000001 -0.07730625 -0.26383875 -0.12917625000000002 -0.4087755 -0.152817 -0.14493675000000003 -0.02364075 -0.29316525 -0.01845375 -0.436107 0.015162 -0.14294175 0.033715499999999995 -0.2779035 0.09516150000000001 -0.39710475 0.1809465 -0.11920125 0.085785 -0.22034775000000004 0.19421325000000003 -0.29765400000000003 0.31910025000000003 -0.07730625 0.12488700000000001 -0.12917625000000002 0.26383875 -0.152817 0.4087755 -0.02364075 0.14493675000000003 -0.01845375 0.29316525 0.015162 0.436107 0.033715499999999995 0.14294175 0.09516150000000001 0.2779035 0.1809465 0.39710475l0.7182000000000001 1.0104674999999999c0.175959 0.24348975000000003 0.249375 0.54633075 0.20458725000000003 0.8433862500000001 -0.044688 0.29705550000000003 -0.2040885 0.5647845 -0.44398725 0.7456312500000001 -0.119301 0.08608425 -0.25446225 0.1478295 -0.39760350000000005 0.1817445 -0.143241 0.03381525 -0.291669 0.039102 -0.43690500000000004 0.015561 -0.145236 -0.02344125 -0.28448700000000005 -0.075411 -0.40967325000000004 -0.15271725000000003 -0.12508650000000002 -0.07730625 -0.23381400000000002 -0.1785525 -0.31989825 -0.29795325000000006l-1.3256775 -1.8473700000000002" stroke-width="0.5"></path><path id="vector_48" stroke="#120071" stroke-linecap="round" stroke-linejoin="round" d="m94.2208575 52.2628155 5.126152500000001 -3.6907500000000004" stroke-width="0.5"></path></g></g><g id="details"><path id="vector_49" stroke="#120071" stroke-linecap="round" stroke-linejoin="round" d="m14.914620000000001 22.604347500000003 3.5640675 4.7610675 5.0722875 -11.2168875" stroke-width="0.5"></path><g id="group_5"><path id="vector_50" stroke="#120071" stroke-linecap="round" stroke-linejoin="round" d="M189.2925825 101.6502375H194.51250000000002" stroke-width="0.5"></path><path id="vector_51" stroke="#120071" stroke-linecap="round" stroke-linejoin="round" d="M191.90204250000002 99.03987975000001v5.21981775" stroke-width="0.5"></path></g><g id="group_6"><path id="vector_52" stroke="#120071" stroke-linecap="round" stroke-linejoin="round" d="m178.07868750000003 150.859905 3.6907500000000004 3.6907500000000004" stroke-width="0.5"></path><path id="vector_53" stroke="#120071" stroke-linecap="round" stroke-linejoin="round" d="m181.77043500000002 150.85890750000002 -3.6907500000000004 3.6907500000000004" stroke-width="0.5"></path></g><g id="group_7"><path id="vector_54" stroke="#120071" stroke-linecap="round" stroke-linejoin="round" d="m80.99700000000001 9.1280028 3.6907500000000004 3.69076995" stroke-width="0.5"></path><path id="vector_55" stroke="#120071" stroke-linecap="round" stroke-linejoin="round" d="m84.68775000000001 9.1280028 -3.6907500000000004 3.69076995" stroke-width="0.5"></path></g></g><g id="coin 2"><path id="vector_56" fill="#b6db93" fill-rule="evenodd" d="M129.1852275 164.9356275c-2.9097075 0 -5.7007125 -1.1561025 -7.758555 -3.2139450000000003 -2.0578425000000005 -2.0578425000000005 -3.2139450000000003 -4.84785 -3.2139450000000003 -7.758555 0 -2.9097075 1.1561025 -5.7007125 3.2139450000000003 -7.758555 2.0578425000000005 -2.0578425000000005 4.8488475 -3.2139450000000003 7.758555 -3.2139450000000003h-2.6144475000000003c-2.9097075 0 -5.7007125 1.1561025 -7.758555 3.2139450000000003 -2.0578425000000005 2.0578425000000005 -3.2139450000000003 4.8488475 -3.2139450000000003 7.758555 0 2.910705 1.1561025 5.7007125 3.2139450000000003 7.758555 2.0578425000000005 2.0578425000000005 4.8488475 3.2139450000000003 7.758555 3.2139450000000003h2.6144475000000003Z" clip-rule="evenodd" stroke-width="0.5"></path><path id="vector_57" fill-rule="evenodd" stroke="#120071" stroke-linecap="round" stroke-linejoin="round" d="M129.1852275 164.9356275c-2.9097075 0 -5.7007125 -1.1561025 -7.758555 -3.2139450000000003 -2.0578425000000005 -2.0578425000000005 -3.2139450000000003 -4.84785 -3.2139450000000003 -7.758555 0 -2.9097075 1.1561025 -5.7007125 3.2139450000000003 -7.758555 2.0578425000000005 -2.0578425000000005 4.8488475 -3.2139450000000003 7.758555 -3.2139450000000003h-2.6144475000000003c-2.9097075 0 -5.7007125 1.1561025 -7.758555 3.2139450000000003 -2.0578425000000005 2.0578425000000005 -3.2139450000000003 4.8488475 -3.2139450000000003 7.758555 0 2.910705 1.1561025 5.7007125 3.2139450000000003 7.758555 2.0578425000000005 2.0578425000000005 4.8488475 3.2139450000000003 7.758555 3.2139450000000003h2.6144475000000003Z" clip-rule="evenodd" stroke-width="0.5"></path><path id="vector_58" stroke="#120071" stroke-linecap="round" stroke-linejoin="round" d="M129.1852275 164.9356275c6.06081 0 10.974495000000001 -4.913685 10.974495000000001 -10.974495000000001 0 -6.06081 -4.913685 -10.974495000000001 -10.974495000000001 -10.974495000000001 -6.06081 0 -10.974495000000001 4.913685 -10.974495000000001 10.974495000000001 0 6.06081 4.913685 10.974495000000001 10.974495000000001 10.974495000000001Z" stroke-width="0.5"></path><g id="group_8"><path id="vector_59" stroke="#120071" stroke-linecap="round" stroke-linejoin="round" d="M132.16875000000002 149.7836025h-4.1396250000000006c-0.5396475000000001 0 -1.05735 0.2144625 -1.4393925 0.5965050000000001s-0.5965050000000001 0.899745 -0.5965050000000001 1.4393925 0.2144625 1.0583475 0.5965050000000001 1.4393925c0.3820425 0.3820425 0.899745 0.5965050000000001 1.4393925 0.5965050000000001l2.256345 0.0149625c0.5466300000000001 0 1.0723125 0.21346500000000002 1.4643300000000001 0.5955075 0.39102000000000003 0.38304000000000005 0.6174525000000001 0.9027375000000001 0.6304200000000001 1.4493675000000001 0 0.540645 -0.21546 1.0593450000000002 -0.5975025 1.442385 -0.38304000000000005 0.3820425 -0.9017400000000001 0.5975025 -1.442385 0.5975025l-4.1396250000000006 -0.007980000000000001" stroke-width="0.5"></path><path id="vector_60" stroke="#120071" stroke-linecap="round" stroke-linejoin="round" d="M129.186225 159.71172v-11.5021725" stroke-width="0.5"></path></g></g><g id="coin 1"><path id="vector_61" fill="#b6db93" fill-rule="evenodd" d="M177.19191 52.801764750000004c-1.68378 0.021047250000000003 -3.3545925000000003 -0.2922675 -4.91568 -0.9219892500000001 -1.5620850000000002 -0.62972175 -2.9825250000000003 -1.5630825 -4.1805225 -2.74621725 -1.1979975 -1.183035 -2.1496125 -2.5922032500000003 -2.798985 -4.145709750000001 -0.6493725 -1.5535065 -0.983535 -3.2205285000000003 -0.983535 -4.9042087500000004s0.33416250000000003 -3.3506025000000004 0.983535 -4.9042087500000004c0.6493725 -1.5535065 1.6009875 -2.96267475 2.798985 -4.145709750000001 1.1979975 -1.183035 2.6184375 -2.1164955 4.1805225 -2.74621725 1.5610875 -0.62972175 3.2319000000000004 -0.9430365 4.91568 -0.9219892500000001H174.1635c-1.68378 -0.021047250000000003 -3.3545925000000003 0.2922675 -4.91568 0.9219892500000001 -1.5620850000000002 0.62972175 -2.9825250000000003 1.56318225 -4.1805225 2.74621725 -1.1979975 1.183035 -2.1496125 2.5922032500000003 -2.798985 4.145709750000001 -0.6493725 1.5536062500000003 -0.983535 3.2205285000000003 -0.983535 4.9042087500000004s0.33416250000000003 3.3507022500000003 0.983535 4.9042087500000004 1.6009875 2.96267475 2.798985 4.145709750000001c1.1979975 1.18313475 2.6184375 2.1164955 4.1805225 2.74621725 1.5610875 0.62972175 3.2319000000000004 0.9430365 4.91568 0.9219892500000001h3.02841Z" clip-rule="evenodd" stroke-width="0.5"></path><path id="vector_62" fill-rule="evenodd" stroke="#120071" stroke-linecap="round" stroke-linejoin="round" d="M177.19191 52.801764750000004c-1.68378 0.021047250000000003 -3.3545925000000003 -0.2922675 -4.91568 -0.9219892500000001 -1.5620850000000002 -0.62972175 -2.9825250000000003 -1.5630825 -4.1805225 -2.74621725 -1.1979975 -1.183035 -2.1496125 -2.5922032500000003 -2.798985 -4.145709750000001 -0.6493725 -1.5535065 -0.983535 -3.2205285000000003 -0.983535 -4.9042087500000004s0.33416250000000003 -3.3506025000000004 0.983535 -4.9042087500000004c0.6493725 -1.5535065 1.6009875 -2.96267475 2.798985 -4.145709750000001 1.1979975 -1.183035 2.6184375 -2.1164955 4.1805225 -2.74621725 1.5610875 -0.62972175 3.2319000000000004 -0.9430365 4.91568 -0.9219892500000001H174.1635c-1.68378 -0.021047250000000003 -3.3545925000000003 0.2922675 -4.91568 0.9219892500000001 -1.5620850000000002 0.62972175 -2.9825250000000003 1.56318225 -4.1805225 2.74621725 -1.1979975 1.183035 -2.1496125 2.5922032500000003 -2.798985 4.145709750000001 -0.6493725 1.5536062500000003 -0.983535 3.2205285000000003 -0.983535 4.9042087500000004s0.33416250000000003 3.3507022500000003 0.983535 4.9042087500000004 1.6009875 2.96267475 2.798985 4.145709750000001c1.1979975 1.18313475 2.6184375 2.1164955 4.1805225 2.74621725 1.5610875 0.62972175 3.2319000000000004 0.9430365 4.91568 0.9219892500000001h3.02841Z" clip-rule="evenodd" stroke-width="0.5"></path><path id="vector_63" stroke="#120071" stroke-linecap="round" stroke-linejoin="round" d="M177.19191 52.80076725000001c7.024395 0 12.718125 -5.694129 12.718125 -12.718125s-5.69373 -12.718125 -12.718125 -12.718125 -12.718125 5.694129 -12.718125 12.718125 5.69373 12.718125 12.718125 12.718125Z" stroke-width="0.5"></path><g id="group_9"><path id="vector_64" stroke="#120071" stroke-linecap="round" stroke-linejoin="round" d="M180.64725 35.24277225h-4.797975c-0.6254325000000001 0 -1.2259275 0.24847725 -1.66782 0.6908685 -0.44289 0.442491 -0.6912675 1.04248725 -0.6912675 1.6682190000000001 0 0.625632 0.2483775 1.22562825 0.6912675 1.66811925 0.4418925 0.44239125 1.0423875 0.6909682500000001 1.66782 0.6909682500000001l2.6154450000000002 0.016957500000000004c0.63441 -0.00069825 1.242885 0.24708075000000002 1.69575 0.69017025 0.45386250000000006 0.44298975 0.7152075 1.04607825 0.7291725 1.67988975 0 0.626829 -0.249375 1.2280222500000002 -0.692265 1.67131125 -0.44388750000000005 0.44328900000000004 -1.0443825 0.6924645 -1.67181 0.69276375l-4.796977500000001 -0.0089775" stroke-width="0.5"></path><path id="vector_65" stroke="#120071" stroke-linecap="round" stroke-linejoin="round" d="M177.19191 46.7478375V33.416250000000005" stroke-width="0.5"></path></g></g><g id="coin 3"><path id="vector_66" fill="#b6db93" fill-rule="evenodd" d="M166.337115 190.3718775c-3.3456150000000004 -0.041895 -6.539610000000001 -1.40049 -8.890717500000001 -3.7805250000000004 -2.3511075000000003 -2.3810325000000003 -3.6688050000000003 -5.591985 -3.6688050000000003 -8.937600000000002 0 -3.3456150000000004 1.3176975 -6.556567500000001 3.6688050000000003 -8.937600000000002 2.3511075000000003 -2.3800350000000003 5.5451025000000005 -3.7386300000000006 8.890717500000001 -3.7805250000000004h-3.030405c-3.3456150000000004 0.041895 -6.539610000000001 1.40049 -8.890717500000001 3.7805250000000004 -2.3511075000000003 2.3810325000000003 -3.6688050000000003 5.591985 -3.6688050000000003 8.937600000000002 0 3.3456150000000004 1.3176975 6.556567500000001 3.6688050000000003 8.937600000000002 2.3511075000000003 2.3800350000000003 5.5451025000000005 3.7386300000000006 8.890717500000001 3.7805250000000004h3.030405Z" clip-rule="evenodd" stroke-width="0.5"></path><path id="vector_67" fill-rule="evenodd" stroke="#120071" stroke-linecap="round" stroke-linejoin="round" d="M166.337115 190.3718775c-3.3456150000000004 -0.041895 -6.539610000000001 -1.40049 -8.890717500000001 -3.7805250000000004 -2.3511075000000003 -2.3810325000000003 -3.6688050000000003 -5.591985 -3.6688050000000003 -8.937600000000002 0 -3.3456150000000004 1.3176975 -6.556567500000001 3.6688050000000003 -8.937600000000002 2.3511075000000003 -2.3800350000000003 5.5451025000000005 -3.7386300000000006 8.890717500000001 -3.7805250000000004h-3.030405c-3.3456150000000004 0.041895 -6.539610000000001 1.40049 -8.890717500000001 3.7805250000000004 -2.3511075000000003 2.3810325000000003 -3.6688050000000003 5.591985 -3.6688050000000003 8.937600000000002 0 3.3456150000000004 1.3176975 6.556567500000001 3.6688050000000003 8.937600000000002 2.3511075000000003 2.3800350000000003 5.5451025000000005 3.7386300000000006 8.890717500000001 3.7805250000000004h3.030405Z" clip-rule="evenodd" stroke-width="0.5"></path><path id="vector_68" stroke="#120071" stroke-linecap="round" stroke-linejoin="round" d="M166.337115 190.3718775c7.024395 0 12.718125 -5.69373 12.718125 -12.718125s-5.69373 -12.718125 -12.718125 -12.718125 -12.718125 5.69373 -12.718125 12.718125 5.69373 12.718125 12.718125 12.718125Z" stroke-width="0.5"></path><g id="group_10"><path id="vector_69" stroke="#120071" stroke-linecap="round" stroke-linejoin="round" d="M169.796445 172.81288500000002h-4.796977500000001c-0.3142125 -0.005985000000000001 -0.62643 0.049875 -0.9177000000000001 0.165585 -0.2922675 0.11571000000000001 -0.5586000000000001 0.2882775 -0.7820400000000001 0.5077275 -0.2244375 0.22044750000000002 -0.40299000000000007 0.48279 -0.5246850000000001 0.7720650000000001 -0.121695 0.289275 -0.18453750000000002 0.600495 -0.18453750000000002 0.9147075000000001 0 0.313215 0.06284250000000001 0.6244350000000001 0.18453750000000002 0.9137100000000001 0.121695 0.289275 0.3002475 0.5516175000000001 0.5246850000000001 0.7720650000000001 0.22344000000000003 0.21945 0.4897725 0.3920175 0.7820400000000001 0.5077275 0.29127 0.11571000000000001 0.6034875000000001 0.17256749999999998 0.9177000000000001 0.165585l2.6154450000000002 0.015960000000000002c0.6334125 -0.0009975000000000001 1.242885 0.24738000000000002 1.69575 0.6902699999999999 0.45386250000000006 0.44289 0.7152075 1.0463775 0.7291725 1.6797900000000001 0 0.6274275 -0.249375 1.2279225000000002 -0.692265 1.67181 -0.44388750000000005 0.44289 -1.0453800000000002 0.692265 -1.67181 0.692265l-4.796977500000001 -0.0089775" stroke-width="0.5"></path><path id="vector_70" stroke="#120071" stroke-linecap="round" stroke-linejoin="round" d="M166.3381125 184.31805v-13.33059" stroke-width="0.5"></path></g></g></g></svg>