<svg width="330" height="188" viewBox="0 0 330 188" fill="none" xmlns="http://www.w3.org/2000/svg">
<path d="M170.8 90.8796C156.56 84.0996 145.73 78.6096 129.3 70.5596C137.22 111.14 138.54 131.91 144.85 140.56C151.06 129.54 165.26 104.51 170.8 90.8796Z" fill="#6F93FC"/>
<path d="M255.09 72.5898C245.93 82.5198 232.89 96.4598 223.08 105.84C219.49 109.27 216.62 111.73 208.61 108.18C194.14 101.76 183.14 96.6998 173.54 92.1698C166.67 109.02 155.7 127.39 146.43 143.93C154.11 146.75 166.97 142.85 191.31 136.17C242.34 122.18 285.88 122.83 297.71 117.38C286.98 106.51 269.15 88.3898 255.09 72.5898Z" fill="#6F93FC"/>
<path d="M209.83 105.43C216.68 108.47 218.23 106.28 221.54 103.13C235.35 90.0002 269 53.3602 289.36 29.8402C284.74 24.5102 279.92 25.2202 166.19 49.7502C153.97 52.4802 126.18 56.4902 125.97 64.0102C129.5 66.6602 170.26 87.8502 209.83 105.42V105.43Z" fill="#6F93FC"/>
<path d="M297.52 112.89C292.53 66.9102 291.55 45.7702 289.82 33.9902C278.15 47.2102 269.04 57.4202 257.15 70.3502C270.22 85.0502 286.64 101.84 297.53 112.88L297.52 112.89Z" fill="#6F93FC"/>
<path d="M134.28 112.14C133.53 114.03 135.83 112.23 136.55 111.99C138.08 111.39 139.72 111.1 141.36 111.16C142.77 108.76 134.57 111.4 134.28 112.14Z" fill="#191919"/>
<path d="M113.39 104.81C112.78 105.86 112.83 107.21 113.58 108.17C114.33 109.13 115.54 109.53 116.75 109.27C117.57 109.1 118.26 108.17 118.22 107.34C118.2 106.98 118.11 106.64 117.95 106.33C117.75 105.95 117.2 105.47 116.75 105.41C115.95 105.3 115.18 105.26 114.4 105.53C113.67 105.78 112.96 106.17 112.42 106.74C111.83 107.36 111.49 108.16 111.72 109.02C111.88 109.64 112.31 110.16 112.88 110.46C113.4 110.73 113.98 110.79 114.51 111.01L114.03 110.81C114.15 110.86 114.26 110.92 114.36 110.99L113.96 110.68C114.04 110.74 114.1 110.81 114.17 110.88L113.86 110.48C113.9 110.54 113.94 110.6 113.97 110.68L113.77 110.2C113.8 110.28 113.82 110.35 113.83 110.44L113.76 109.91C113.76 109.99 113.76 110.07 113.76 110.15L113.83 109.62C113.81 109.7 113.79 109.78 113.76 109.85L113.96 109.37C113.91 109.47 113.86 109.57 113.79 109.66L114.1 109.26C114.03 109.35 113.95 109.42 113.86 109.49L114.26 109.18C114.16 109.25 114.06 109.3 113.94 109.35L114.42 109.15C114.26 109.21 114.11 109.24 113.95 109.26L114.48 109.19C114.21 109.22 113.95 109.2 113.69 109.17L114.22 109.24C113.72 109.17 113.24 109.05 112.77 108.88C112.18 108.67 111.5 108.88 111.03 109.24C110.56 109.6 110.17 110.2 110.24 110.81C110.33 111.55 110.53 112.21 111.09 112.74C111.54 113.17 112.05 113.42 112.64 113.63C113.59 113.99 114.78 114.2 115.75 113.83C116.25 113.64 116.67 113.39 116.95 112.91C117.2 112.48 117.31 111.85 117.15 111.37C116.99 110.89 116.69 110.42 116.23 110.17C115.77 109.92 115.18 109.78 114.69 109.97C114.56 110.02 114.43 110.06 114.28 110.08L114.81 110.01C114.63 110.03 114.46 110.01 114.28 110L114.81 110.07C114.39 110.01 113.97 109.89 113.58 109.73L114.06 109.93C113.91 109.86 113.77 109.79 113.63 109.7L114.03 110.01C113.95 109.95 113.88 109.88 113.81 109.8L114.12 110.2C114.08 110.14 114.04 110.08 114.01 110.01L114.21 110.49C114.21 110.49 114.18 110.4 114.17 110.35L114.24 110.88V110.8C113.39 111.44 112.54 112.09 111.7 112.73C112.07 112.86 112.45 112.97 112.84 113.04C113.34 113.13 113.87 113.22 114.38 113.18C115.6 113.1 116.82 112.55 117.39 111.41C117.96 110.27 117.86 108.72 116.8 107.84C116.34 107.46 115.86 107.21 115.29 107.04C115.01 106.95 114.71 106.9 114.44 106.8L114.92 107C114.92 107 114.83 106.96 114.79 106.93L115.19 107.24L115.14 107.19L115.45 107.59L115.41 107.53L115.61 108.01L115.59 107.94V109V108.9C115.54 109.06 115.47 109.22 115.4 109.38L115.45 109.29L115.14 109.69C115.26 109.54 115.4 109.41 115.54 109.29L115.14 109.6C115.34 109.45 115.55 109.33 115.78 109.22L115.3 109.42C115.53 109.33 115.77 109.26 116.02 109.23L115.49 109.3C115.71 109.28 115.92 109.27 116.14 109.3L115.61 109.23H115.7V105.39L115.62 105.41L116.15 105.34C116.06 105.35 115.98 105.35 115.89 105.34L116.42 105.41C116.3 105.39 116.2 105.36 116.09 105.32L116.57 105.52C116.49 105.48 116.42 105.44 116.35 105.39L116.75 105.7C116.68 105.64 116.63 105.58 116.57 105.51L116.88 105.91C116.83 105.83 116.79 105.77 116.76 105.68L116.96 106.16C116.93 106.08 116.91 106 116.9 105.91L116.97 106.44C116.97 106.35 116.97 106.27 116.97 106.18L116.9 106.71C116.92 106.62 116.94 106.54 116.97 106.46L116.77 106.94C116.79 106.89 116.82 106.84 116.85 106.79C117.37 105.88 117.09 104.56 116.13 104.05C115.17 103.54 113.95 103.8 113.39 104.77V104.81Z" fill="#EEAF77"/>
<path d="M126.78 100.69C127.14 100.85 127.49 101.01 127.87 101.11C128.25 101.21 128.65 101.26 129.04 101.31C129.67 101.39 130.29 101.31 130.92 101.21C131.18 101.15 131.41 101.03 131.6 100.85C131.82 100.71 131.99 100.52 132.12 100.29C132.27 100.06 132.35 99.8102 132.36 99.5502C132.42 99.2802 132.41 99.0202 132.32 98.7502C132.16 98.2702 131.86 97.8002 131.4 97.5502L130.92 97.3502C130.57 97.2502 130.21 97.2502 129.86 97.3502C129.8 97.3602 129.74 97.3702 129.68 97.3802L130.21 97.3102C129.82 97.3602 129.44 97.3602 129.05 97.3102L129.58 97.3802C129.18 97.3202 128.79 97.2202 128.41 97.0602L128.89 97.2602C128.89 97.2602 128.83 97.2402 128.8 97.2202C128.57 97.0702 128.32 96.9902 128.06 96.9802C127.79 96.9202 127.53 96.9302 127.26 97.0202C127 97.0802 126.77 97.2002 126.58 97.3802C126.36 97.5202 126.19 97.7102 126.06 97.9402C125.81 98.4002 125.69 98.9702 125.86 99.4802L126.06 99.9602C126.24 100.26 126.48 100.5 126.78 100.68V100.69Z" fill="#EEAF77"/>
<path d="M128.06 101.6C128.6 101.61 129.13 101.64 129.67 101.68C129.91 101.7 130.15 101.72 130.38 101.75C130.53 101.77 130.68 101.78 130.82 101.8C130.88 101.8 130.94 101.81 131 101.82C131.13 101.84 131.12 101.84 130.98 101.82C130.83 101.8 130.83 101.8 131.01 101.82L131.14 101.85C131.4 101.89 131.13 101.85 131.02 101.79C130.94 101.75 130.72 101.49 130.88 101.68C131.13 101.98 130.71 101.37 130.82 101.58C130.98 101.89 131.18 102.2 131.37 102.49C132.11 103.6 133.21 104.3 134.58 104.29C135.14 104.29 135.71 104.17 136.24 104.01C136.47 103.94 136.7 103.86 136.94 103.79C137.07 103.75 137.2 103.73 137.33 103.7C137.6 103.63 136.86 103.73 137.36 103.72C138.41 103.7 139.41 102.82 139.36 101.72C139.31 100.62 138.48 99.6996 137.36 99.7196C136.75 99.7296 136.15 99.8495 135.57 100.03C135.36 100.09 135.16 100.16 134.95 100.22C134.83 100.25 134.7 100.27 134.58 100.31C134.33 100.37 134.91 100.32 134.66 100.29C134.39 100.26 134.44 100.28 134.68 100.32C134.44 100.27 134.62 100.32 134.75 100.38C134.44 100.24 134.86 100.39 134.85 100.47C134.85 100.47 134.53 100.1 134.78 100.41C134.98 100.65 134.81 100.43 134.78 100.37C134.73 100.28 134.68 100.2 134.63 100.12C134.54 99.9696 134.46 99.8096 134.36 99.6596C134.03 99.1596 133.66 98.7296 133.16 98.3996C132.59 98.0196 131.96 97.9395 131.3 97.8495C130.23 97.7095 129.17 97.6195 128.09 97.5895C127.01 97.5595 126.04 98.5295 126.09 99.5895C126.14 100.65 126.97 101.56 128.09 101.59L128.06 101.6Z" fill="#EEAF77"/>
<path d="M134.14 102.35C136.1 102.35 138.06 102.16 139.99 101.82C140.3 101.77 140.66 101.52 140.87 101.31C141.18 101 141.36 100.59 141.42 100.16C141.47 99.7896 141.42 99.4596 141.28 99.1196C141.12 98.7496 140.84 98.3396 140.46 98.1596C140.32 98.0996 140.19 98.0296 140.05 97.9696C139.56 97.7396 139.05 97.6196 138.51 97.7696C138.05 97.8996 137.54 98.2596 137.31 98.6896C137.06 99.1496 136.94 99.7196 137.11 100.23C137.26 100.7 137.56 101.21 138.03 101.43C138.17 101.49 138.3 101.56 138.44 101.62L138.92 97.9596C138.48 98.0396 138.04 98.1096 137.6 98.1696L138.13 98.0996C136.8 98.2696 135.47 98.3596 134.13 98.3596C133.08 98.3596 132.08 99.2796 132.13 100.36C132.18 101.44 133.01 102.36 134.13 102.36L134.14 102.35Z" fill="#EEAF77"/>
<path d="M131.54 99.6694C132.64 99.8294 133.74 99.9494 134.85 99.9194C135.96 99.8894 137.06 99.7594 138.15 99.5594C138.62 99.4694 139.11 99.0394 139.35 98.6394C139.6 98.2094 139.71 97.5794 139.55 97.0994C139.39 96.6194 139.09 96.1494 138.63 95.8994C138.13 95.6394 137.64 95.5894 137.09 95.6994C136.81 95.7494 136.53 95.7994 136.24 95.8394L136.77 95.7694C135.31 95.9594 133.84 95.9694 132.39 95.7794L132.92 95.8494C132.81 95.8394 132.71 95.8194 132.6 95.7994C132.05 95.7194 131.56 95.7094 131.06 95.9994C130.65 96.2394 130.25 96.7194 130.14 97.1994C130.02 97.7094 130.05 98.2894 130.34 98.7394C130.6 99.1494 131.03 99.5794 131.54 99.6594V99.6694Z" fill="#EEAF77"/>
<path d="M131.47 116.93C133.92 116.07 136.43 115.41 138.99 114.95C139.81 114.8 140.49 113.84 140.46 113.02C140.43 112.2 139.87 111.25 138.99 111.09C138.89 111.07 138.78 111.05 138.68 111.03C138.14 110.93 137.62 110.95 137.14 111.23C136.73 111.47 136.33 111.95 136.22 112.43C136 113.41 136.52 114.69 137.62 114.89C137.72 114.91 137.83 114.93 137.93 114.95V111.09C135.37 111.55 132.86 112.21 130.41 113.07C129.43 113.42 128.66 114.45 129.01 115.53C129.32 116.5 130.41 117.3 131.47 116.93Z" fill="#EEAF77"/>
<path d="M130.39 116.52C131.9 116.36 133.23 115.92 134.6 115.29C135.73 114.77 136.84 114.18 137.95 113.61C138.88 113.14 139.23 111.74 138.67 110.87C138.05 109.92 136.93 109.65 135.93 110.15C134.66 110.79 133.4 111.48 132.09 112.04L132.57 111.84C131.77 112.17 130.95 112.44 130.09 112.56L130.62 112.49C130.54 112.5 130.46 112.51 130.39 112.52C129.85 112.58 129.38 112.71 128.98 113.11C128.63 113.46 128.37 114.03 128.39 114.52C128.43 115.51 129.28 116.64 130.39 116.52Z" fill="#EEAF77"/>
<path d="M134.52 117.57C136.72 117.87 138.98 117.37 140.94 116.37C141.87 115.89 142.22 114.51 141.66 113.63C141.05 112.68 139.92 112.4 138.92 112.91C138.72 113.01 138.52 113.1 138.32 113.19L138.8 112.99C138.04 113.31 137.25 113.53 136.44 113.64L136.97 113.57C136.16 113.68 135.34 113.68 134.52 113.57C134.05 113.51 133.42 113.84 133.11 114.16C132.76 114.51 132.5 115.08 132.52 115.57C132.54 116.06 132.71 116.62 133.11 116.98L133.51 117.29C133.82 117.47 134.16 117.56 134.52 117.56V117.57Z" fill="#EEAF77"/>
<path d="M137.76 113.36C138.09 113.28 138.42 113.21 138.75 113.17L138.22 113.24C138.96 113.14 139.7 113.14 140.44 113.24L139.91 113.17C140.04 113.19 140.18 113.21 140.31 113.23C140.58 113.31 140.84 113.33 141.11 113.27C141.38 113.26 141.62 113.18 141.85 113.03C142.26 112.79 142.66 112.31 142.77 111.83C142.89 111.32 142.86 110.74 142.57 110.29C142.3 109.88 141.88 109.46 141.37 109.37C140.6 109.23 139.81 109.14 139.02 109.17C138.23 109.2 137.45 109.31 136.69 109.5C136.21 109.62 135.74 109.99 135.49 110.42C135.24 110.85 135.13 111.48 135.29 111.96C135.45 112.44 135.75 112.91 136.21 113.16C136.67 113.41 137.21 113.5 137.75 113.36H137.76Z" fill="#EEAF77"/>
<path d="M139.32 116.21C139.63 116.1 139.95 116.02 140.28 115.97L139.75 116.04C140.12 115.99 140.49 115.99 140.85 116.03C141.13 116.04 141.38 115.98 141.62 115.86C141.87 115.78 142.08 115.64 142.26 115.45C142.46 115.27 142.59 115.05 142.67 114.81C142.8 114.57 142.85 114.31 142.84 114.04L142.77 113.51C142.67 113.17 142.5 112.88 142.26 112.63L141.86 112.32C141.55 112.14 141.21 112.05 140.85 112.05C140.49 112.01 140.14 112.02 139.78 112.05C139.26 112.11 138.75 112.18 138.25 112.36C137.99 112.42 137.76 112.54 137.57 112.72C137.35 112.86 137.18 113.05 137.05 113.28C136.9 113.51 136.82 113.76 136.81 114.02C136.75 114.29 136.76 114.55 136.85 114.82L137.05 115.3C137.23 115.6 137.47 115.84 137.77 116.02L138.25 116.22C138.6 116.32 138.96 116.32 139.31 116.22L139.32 116.21Z" fill="#EEAF77"/>
<path d="M138.25 117.11C138.51 117.16 138.77 117.2 139.04 117.22C139.13 117.22 139.22 117.22 139.31 117.22C139.57 117.2 139.83 117.17 140.09 117.11C140.18 117.09 140.27 117.06 140.35 117.02C140.61 116.96 140.84 116.84 141.03 116.66C141.25 116.52 141.42 116.33 141.55 116.1C141.7 115.87 141.78 115.62 141.79 115.36C141.85 115.09 141.84 114.83 141.75 114.56L141.55 114.08C141.37 113.78 141.13 113.54 140.83 113.36L140.35 113.16C140 113.06 139.64 113.06 139.29 113.16C139.15 113.22 139 113.26 138.84 113.28L139.37 113.21C139.22 113.23 139.06 113.23 138.91 113.21L139.44 113.28C139.44 113.28 139.35 113.27 139.31 113.26C139.04 113.18 138.78 113.16 138.51 113.22C138.24 113.23 138 113.31 137.77 113.46C137.54 113.59 137.35 113.76 137.21 113.98C137.03 114.17 136.91 114.4 136.85 114.66L136.78 115.19C136.78 115.55 136.87 115.89 137.05 116.2L137.36 116.6C137.61 116.85 137.9 117.02 138.24 117.11H138.25Z" fill="#EEAF77"/>
<path d="M136.72 99.3798C136.87 99.3498 137.02 99.3298 137.17 99.3098L136.64 99.3798C137.54 99.2598 138.45 99.2698 139.36 99.3798L138.83 99.3098C138.89 99.3098 138.96 99.3298 139.02 99.3398C139.29 99.4198 139.55 99.4398 139.82 99.3798C140.09 99.3698 140.33 99.2898 140.56 99.1398C140.97 98.8998 141.37 98.4198 141.48 97.9398C141.6 97.4298 141.57 96.8498 141.28 96.3998C141.02 95.9898 140.59 95.5598 140.08 95.4798C139.35 95.3698 138.61 95.2798 137.87 95.2898C137.13 95.2998 136.39 95.3898 135.66 95.5198C135.19 95.5998 134.7 96.0498 134.46 96.4398C134.21 96.8698 134.1 97.4998 134.26 97.9798C134.42 98.4598 134.72 98.9298 135.18 99.1798L135.66 99.3798C136.01 99.4798 136.37 99.4798 136.72 99.3798Z" fill="#EEAF77"/>
<path d="M142.64 112.14C140.91 111.62 133.4 112.84 134.79 114.23C136.19 114.21 137.41 113.51 139.45 113.19C140.65 113 144.19 113.53 142.65 112.13L142.64 112.14Z" fill="#191919"/>
<path d="M140.77 113.85C139.43 114.04 134.07 114.69 135.3 115.91C136.7 115.77 138.08 115.46 139.4 114.99C140.21 114.8 142.15 114.48 140.76 113.85H140.77Z" fill="#191919"/>
<path d="M139.77 100.28C136.45 100.56 132.74 99.7903 132.49 100.54C132.28 101.77 141.6 101.5 139.77 100.28Z" fill="#191919"/>
<path d="M133.13 98.5098C130.17 100.43 142.7 99.6497 140.98 97.9597C140.1 97.2897 139.92 99.2598 133.13 98.5098Z" fill="#191919"/>
<path d="M133.2 96.7396C130.36 98.2996 141.14 98.0796 138.67 96.5996C136.85 96.7896 135.02 96.8396 133.2 96.7396Z" fill="#191919"/>
<path d="M140.44 115.62C131.4 118.98 133.89 113.83 129.94 117.13C129.97 116.01 129.54 114.94 128.76 114.14C129.49 113.13 137.41 110.71 136.57 109.51C136.28 109.19 136.16 109.21 135.7 109.49C132.84 111.22 129.79 112.63 126.62 113.68C123.79 114.54 120.87 115.07 117.92 115.25C117.07 116.33 118.79 116.12 119.56 116.04C124.94 115.82 127.26 113.64 128.26 114.99C128.91 115.81 129.56 117.48 128.49 118.06C118.59 124.12 102.14 131.22 84.6898 135.46C83.7398 135.8 83.0798 135.16 82.1198 134.66C74.8298 129.84 77.1498 123.78 78.9898 117.72C80.0898 113.78 80.5098 109.68 80.2198 105.6C79.8198 104.56 82.8198 103.68 83.2998 103.16C88.7598 100.11 94.6998 98.0001 100.86 96.9201C99.4998 98.9401 99.9698 100.9 98.2998 101.44C92.4498 102.46 95.9798 106.63 93.3798 109.48C92.9598 109.85 92.4198 110.05 91.8698 110.04C88.6798 110.27 87.5498 113.4 87.6598 116.11C87.8598 123.81 100.8 125.15 105.28 123.07C110.11 120.7 104.6 118.66 110.39 115.73C110.91 115.06 111.21 114.25 111.26 113.4C113.21 113.87 115.36 114.88 117.14 113.75C118.97 112.58 117.92 110.04 118.08 108.45C118.55 107.65 120.19 106.59 119.22 106C118.38 105.42 117.34 106.13 117 104.5C121.14 102.93 131 101.68 131.31 102.87C132.56 105.92 135.26 104.23 133.18 103.64C132.23 103.27 132.33 102.4 131.88 101.64C127.98 100.81 125.92 103.18 126.34 98.2201C126.73 95.9201 129.16 98.1201 130.39 97.1901C132.7 95.4601 135.47 95.8301 138.16 95.8001C138.68 95.3301 138.34 94.9201 137.47 94.8701C134.31 94.6801 131.69 94.6101 129.57 96.6401C129.35 96.9001 129.34 96.7701 128.84 96.6901C123.73 95.5301 118.51 94.9201 113.27 94.8801C109.7 92.5601 105.03 92.9301 101.87 95.7701C99.2098 96.2101 96.5698 96.8001 93.9798 97.5401C90.2898 98.5701 78.0598 103.68 79.2498 105.49C79.5098 108.15 79.4098 110.83 78.9498 113.46C78.9998 113.21 59.2398 108.38 32.9898 136.04C29.4698 139.76 23.7098 146.75 23.6998 146.85C19.1698 143.25 13.1298 155.81 16.2998 153.77C16.9498 150.74 20.7398 144.93 23.9198 148.23C21.4098 148.58 18.9698 151.99 17.7098 154.4C16.6398 156.31 27.7398 151.72 27.7398 151.72L80.6398 134.85C81.6598 135.62 82.7998 136.2 84.0098 136.58C86.0198 136.35 87.7898 135.55 89.7498 135.13C104.69 131.07 118.99 124.97 132.25 116.99C134.82 119 143.33 116.31 140.44 115.62ZM125.55 97.5301C124.95 100.85 126.66 101.36 124.75 101.69C122.12 102.18 119.53 102.83 116.98 103.64C117.76 100.68 116.7 97.5401 114.29 95.6601C120.05 95.6901 125.76 96.3501 125.54 97.5301H125.55ZM113.14 107.62C114.35 107.07 115.41 106.22 116.21 105.15C116.42 106.51 117.11 106.19 118.28 106.7C117.8 107.22 117.37 107.79 117 108.39C116.72 109.12 118.67 113.59 114.93 113.29C113.7 113.09 112.48 112.82 111.28 112.5C111.3 110.7 111.1 108.91 113.14 107.62ZM26.5298 150.16C26.6598 150.47 26.8398 150.76 27.0698 151.01L18.7698 153.96C20.1698 151.48 23.8198 147.3 26.5298 150.16ZM27.1098 149.4C26.7898 149.06 26.4098 148.78 25.9898 148.56C35.8198 143.27 60.6198 118.65 74.2098 123.88C55.5798 126.2 56.0498 129.53 33.9198 144.61C33.8098 144.45 29.8998 147.79 27.1198 149.38L27.1098 149.4Z" fill="#191919"/>
<path d="M111.77 94.5696C108.25 92.7296 104.22 92.7096 101.35 95.7796C100.74 96.4296 98.7099 100.1 100.04 98.9896C98.7199 100.1 96.8699 99.8196 95.5999 101.39C94.4999 102.74 94.4699 104.18 93.9199 105.72C93.4899 106.92 93.8599 106.82 93.0499 107.56C92.5199 108.05 91.4799 108.13 90.8699 108.54C87.2199 111.01 87.3299 115.4 88.5199 119.18L94.3999 114.66L95.3099 117.66L87.9999 114.58C86.6699 123.6 97.7799 127.04 105.09 124.33C106.51 123.8 107.61 122.73 108.17 121.31C108.5 120.48 108.29 119.62 108.55 118.81C108.41 119.26 108.24 119.34 108.81 118.6C109.96 117.08 111.09 116.41 111.53 114.37C111.97 112.33 110.99 110.07 111.7 108.02H103.99L104.22 109.25C104.81 112.36 108.86 112.91 110.91 111.02C113.93 108.23 117.79 105.62 117.26 101.02C116.78 96.8996 113.4 93.9196 109.45 93.1696C105.84 92.4796 101.12 93.6596 100.22 97.6896C99.2399 102.04 102.94 103.17 106.08 104.46L103.69 102.62C103.76 101.1 103.51 100.85 102.93 101.86C102.48 102.38 102.05 102.92 101.65 103.48C101.09 104.26 100.59 104.99 100.22 105.89C99.0199 108.78 100.07 111.13 96.4599 112.46C91.6699 114.22 93.7399 121.95 98.5899 120.17C101.2 119.21 103.77 118.16 105.48 115.86C107.5 113.14 107.48 109.62 109.26 106.73C110.65 104.49 112.28 102.49 111.26 99.6996C110.89 98.6796 110.07 97.7396 109.17 97.1496C108.68 96.8296 106.39 95.6896 106.88 96.2796L108.05 99.1096L108.15 98.2296L106.98 101.06L107.39 100.97C109.15 101.34 109.47 101.85 108.36 102.51C108.11 103.26 105.76 104.92 105.26 105.38L111.95 107.15L111.72 105.92C110.93 101.74 105.19 102.51 104.01 105.92C103.39 107.7 103.59 108.95 103.55 110.78C103.5 113.7 104.21 111.08 102.86 113.03C102.18 114.02 101.29 114.53 100.85 115.76C100.65 116.33 100.21 119.05 100.59 118.49L102.98 116.65C102.41 116.81 95.7399 116.7 95.7299 116.74C96.3699 112.37 91.0699 109.68 88.4199 113.66C86.5099 116.53 87.5999 119.84 90.3799 121.61C93.2899 123.46 97.2899 120.38 96.2599 117.09C95.3799 114.27 97.7099 114.89 99.4699 113.24C101.06 111.74 101.17 109.92 101.69 107.96C101.74 107.59 101.79 107.22 101.84 106.84C101.82 106.1 101.94 106.06 102.19 106.73C102.84 106.26 103.8 106.18 104.5 105.7C105.2 105.22 105.8 104.65 106.25 103.96C106.7 103.27 106.54 100.87 107.76 101.51C112.32 103.89 116.37 96.9896 111.8 94.5996L111.77 94.5696Z" fill="#9F7151"/>
<path d="M94.3599 90.3502C95.1199 89.1902 119.91 83.2002 120.36 83.2702C122.01 83.1402 122.18 83.9202 120.81 84.4802C119.29 84.9902 103.62 88.4502 102.1 88.8502C99.9299 89.3102 94.5099 90.7602 94.3699 90.3602L94.3599 90.3502Z" fill="#191919"/>
<path d="M122.48 79.1104C122.23 79.6104 121.26 79.7804 120.7 80.0604C118.65 80.8704 101.3 85.4104 100.36 84.7904C99.9602 84.5704 100.05 84.1304 100.43 83.8604C101.32 83.5304 102.25 83.3004 103.2 83.1904C104.81 82.8004 121.95 78.5904 122.48 79.1004V79.1104Z" fill="#191919"/>
<path d="M108.09 145.97C107.84 146.47 106.87 146.64 106.31 146.92C104.26 147.73 86.91 152.27 85.97 151.66C85.57 151.44 85.66 151 86.04 150.73C86.93 150.4 87.86 150.17 88.81 150.06C90.42 149.67 107.56 145.45 108.09 145.97Z" fill="#191919"/>
<path d="M122.52 49.5199C122.78 45.2499 119.85 37.4399 112.97 37.2499C108.69 37.1399 106.18 39.3499 103.7 42.8299C103.64 38.4099 101.35 34.3299 97.6101 31.9699C93.8001 29.6999 89.0301 29.7899 85.3101 32.2199C82.1701 34.4499 80.4301 38.1599 80.7301 42.0099C78.5601 37.2699 73.4001 34.6699 68.3101 35.7399C63.3801 36.7899 58.1201 41.1999 58.2101 49.5199H122.53H122.52Z" fill="#6F93FC"/>
<path d="M302.42 152.44C302.44 148.94 301.98 144.69 298.95 142.98C295.82 141.22 292.09 143.25 289.09 145.23C288.11 141.8 286.13 130.02 276.3 129.45C263.63 128.72 260.13 138.72 261.53 142.71C258.84 138.68 252.75 137.85 248.55 140.28C244.42 142.94 241.92 147.52 241.9 152.44H302.42Z" fill="#6F93FC"/>
<path d="M203.87 168.88C203.81 164.91 206.99 161.64 210.96 161.58C213.54 161.54 215.93 162.89 217.25 165.1C217.55 160.67 221.38 157.31 225.82 157.61C228.4 157.78 230.74 159.19 232.11 161.38C232.29 159.27 233.97 157.6 236.09 157.45C240.34 157.08 244.91 162.17 243.82 168.11L203.88 168.87L203.87 168.88Z" fill="#6F93FC"/>
</svg>
