<svg xmlns="http://www.w3.org/2000/svg" fill="none" viewBox="-0.25 -0.25 200 200" id="Biologist-2--Streamline-Bangalore.svg"><desc>Biologist 2 Streamline Illustration: https://streamlinehq.com</desc><g id="biologist-2--science-technology-biologist"><g id="cell"><path id="vector" stroke="#120071" stroke-linecap="round" stroke-linejoin="round" d="M106.26966 51.093945000000005H92.5929375a45.3932325 45.3932325 0 0 0 -39.242647500000004 22.578412500000002L46.78275 84.9660525a45.3932325 45.3932325 0 0 0 0 45.628642500000005l6.565545 11.293695a45.3892425 45.3892425 0 0 0 39.242647500000004 22.578412500000002h13.6767225a45.39423000000001 45.39423000000001 0 0 0 39.242647500000004 -22.578412500000002l6.566542500000001 -11.293695a45.39423000000001 45.39423000000001 0 0 0 0 -45.628642500000005l-6.566542500000001 -11.293695a45.395227500000004 45.395227500000004 0 0 0 -39.2406525 -22.578412500000002Z" stroke-width="0.5"></path><path id="vector_2" fill="#f1a65e" d="m144.0559575 84.48825000000001 -2.136645 -3.5720475a45.39024 45.39024 0 0 0 -38.9593575 -22.0976175h-7.057312500000001a45.3932325 45.3932325 0 0 0 -38.9593575 22.094625L54.807637500000006 84.48825000000001a45.39423000000001 45.39423000000001 0 0 0 0 46.5882375l2.13465 3.5720475a45.388245000000005 45.388245000000005 0 0 0 38.960355 22.0976175h7.057312500000001a45.3872475 45.3872475 0 0 0 38.9593575 -22.0976175l2.136645 -3.5720475a45.396225 45.396225 0 0 0 0 -46.5882375Zm-5.13114 46.09248a44.426655 44.426655 0 0 1 -38.130435 21.627795h-2.7261675000000003a44.4236625 44.4236625 0 0 1 -44.4256575 -44.4256575 44.4256575 44.4256575 0 0 1 44.4256575 -44.4256575h2.7261675000000003a44.426655 44.426655 0 0 1 38.130435 67.22352Z" stroke-width="0.5"></path><path id="vector_3" stroke="#120071" stroke-linecap="round" stroke-linejoin="round" d="m144.0559575 84.48825000000001 -2.136645 -3.5720475a45.39024 45.39024 0 0 0 -38.9593575 -22.0976175h-7.057312500000001a45.3932325 45.3932325 0 0 0 -38.9593575 22.094625L54.807637500000006 84.48825000000001a45.39423000000001 45.39423000000001 0 0 0 0 46.5882375l2.13465 3.5720475a45.388245000000005 45.388245000000005 0 0 0 38.960355 22.0976175h7.057312500000001a45.3872475 45.3872475 0 0 0 38.9593575 -22.0976175l2.136645 -3.5720475a45.396225 45.396225 0 0 0 0 -46.5882375Zm-5.13114 46.09248a44.426655 44.426655 0 0 1 -38.130435 21.627795h-2.7261675000000003a44.4236625 44.4236625 0 0 1 -44.4256575 -44.4256575 44.4256575 44.4256575 0 0 1 44.4256575 -44.4256575h2.7261675000000003a44.426655 44.426655 0 0 1 38.130435 67.22352Z" stroke-width="0.5"></path><path id="vector_4" fill="#f1a65e" d="M80.18703000000001 81.78702000000001a15.381450000000001 15.381450000000001 0 1 0 0 30.762900000000002 15.381450000000001 15.381450000000001 0 0 0 0 -30.762900000000002Zm0 19.9110975a6.5904825 6.5904825 0 1 1 -0.0019950000000000002 -13.181962500000001 6.5904825 6.5904825 0 0 1 0.0019950000000000002 13.181962500000001Z" stroke-width="0.5"></path><path id="vector_5" stroke="#120071" stroke-linecap="round" stroke-linejoin="round" d="M80.18703000000001 81.78702000000001a15.381450000000001 15.381450000000001 0 1 0 0 30.762900000000002 15.381450000000001 15.381450000000001 0 0 0 0 -30.762900000000002Zm0 19.9110975a6.5904825 6.5904825 0 1 1 -0.0019950000000000002 -13.181962500000001 6.5904825 6.5904825 0 0 1 0.0019950000000000002 13.181962500000001Z" stroke-width="0.5"></path><path id="vector_6" fill="#f1a65e" d="M111.6771075 88.316655c-3.9570825000000003 4.1386275 -3.7815225000000003 10.3410825 -4.9545825 15.600900000000001 -2.30622 10.3370925 -9.149070000000002 10.67325 -13.46625 14.754022500000001 -7.6717725 7.250827500000001 -3.4114500000000003 20.590395 7.13013 22.784895a20.0427675 20.0427675 0 0 0 13.78944 -2.5446225000000005c6.868785000000001 -3.9271575 11.132100000000001 -10.7161425 14.6123775 -17.597895 3.6299025 -7.182 8.54259 -14.721105 8.557552500000002 -23.050230000000003 0.0209475 -13.603905000000001 -16.4757075 -19.560975 -25.6686675 -9.94707Zm-6.577515000000001 44.4885a4.902712500000001 4.902712500000001 0 0 1 -4.5336375 -3.0294075 4.9077 4.9077 0 1 1 8.00394 1.5930075000000001 4.910692500000001 4.910692500000001 0 0 1 -3.4703025000000003 1.4373975v-0.0009975000000000001Z" stroke-width="0.5"></path><path id="vector_7" stroke="#120071" stroke-linecap="round" stroke-linejoin="round" d="M111.6771075 88.316655c-3.9570825000000003 4.1386275 -3.7815225000000003 10.3410825 -4.9545825 15.600900000000001 -2.30622 10.3370925 -9.149070000000002 10.67325 -13.46625 14.754022500000001 -7.6717725 7.250827500000001 -3.4114500000000003 20.590395 7.13013 22.784895a20.0427675 20.0427675 0 0 0 13.78944 -2.5446225000000005c6.868785000000001 -3.9271575 11.132100000000001 -10.7161425 14.6123775 -17.597895 3.6299025 -7.182 8.54259 -14.721105 8.557552500000002 -23.050230000000003 0.0209475 -13.603905000000001 -16.4757075 -19.560975 -25.6686675 -9.94707Zm-6.577515000000001 44.4885a4.902712500000001 4.902712500000001 0 0 1 -4.5336375 -3.0294075 4.9077 4.9077 0 1 1 8.00394 1.5930075000000001 4.910692500000001 4.910692500000001 0 0 1 -3.4703025000000003 1.4373975v-0.0009975000000000001Z" stroke-width="0.5"></path><path id="vector_8" fill="#6153bd" d="m122.6316525 72.125235 -5.304705 -2.6134500000000003c-5.707695000000001 -2.81295 -9.9341025 5.767545 -4.22541 8.5785l5.304705 2.6134500000000003c5.6747775 2.794995 9.900187500000001 -5.783505000000001 4.22541 -8.5785Z" stroke-width="0.5"></path><path id="vector_9" stroke="#120071" stroke-linecap="round" stroke-linejoin="round" d="m122.6316525 72.125235 -5.304705 -2.6134500000000003c-5.707695000000001 -2.81295 -9.9341025 5.767545 -4.22541 8.5785l5.304705 2.6134500000000003c5.6747775 2.794995 9.900187500000001 -5.783505000000001 4.22541 -8.5785Z" stroke-width="0.5"></path><path id="vector_10" fill="#6153bd" d="M103.65222000000001 74.363625a4.1206725 4.1206725 0 1 0 0 -8.2423425 4.1206725 4.1206725 0 0 0 0 8.2423425Z" stroke-width="0.5"></path><path id="vector_11" stroke="#120071" stroke-linecap="round" stroke-linejoin="round" d="M103.65222000000001 74.363625a4.1206725 4.1206725 0 1 0 0 -8.2423425 4.1206725 4.1206725 0 0 0 0 8.2423425Z" stroke-width="0.5"></path><path id="vector_12" fill="#6153bd" d="M94.31861250000001 84.61493250000001c0.7830375 1.0044825 2.1755475 -0.40598249999999997 1.3965 -1.3965a19.110105 19.110105 0 0 0 -15.501149999999999 -7.319655000000001 0.991515 0.991515 0 0 0 0 1.981035 17.25675 17.25675 0 0 1 14.104650000000001 6.73512Z" stroke-width="0.5"></path><path id="vector_13" fill="#6153bd" d="M79.23142500000002 118.49003250000001a17.2637325 17.2637325 0 0 1 -14.10066 -6.7401075c-0.7830375 -1.0044825 -2.1755475 0.40698 -1.3965 1.4014875a19.107112500000003 19.107112500000003 0 0 0 15.501149999999999 7.319655000000001 0.9895200000000001 0.9895200000000001 0 0 0 0.9446325 -0.9925125 0.9895200000000001 0.9895200000000001 0 0 0 -0.9486225 -0.9885225000000001Z" stroke-width="0.5"></path><path id="vector_14" fill="#6153bd" d="M102.95397000000001 145.289865a17.271712500000003 17.271712500000003 0 0 1 -14.0996625 -6.737115c-0.7830375 -1.0044825 -2.1755475 0.40598249999999997 -1.3965 1.3965a19.10412 19.10412 0 0 0 15.5001525 7.319655000000001 0.9945075000000001 0.9945075000000001 0 0 0 0.9446325 -0.991515 0.9945075000000001 0.9945075000000001 0 0 0 -0.9486225 -0.9875250000000001Z" stroke-width="0.5"></path><path id="vector_15" fill="#6153bd" d="M92.68271250000001 75.64441500000001a23.541000000000004 23.541000000000004 0 0 1 7.4603025 6.8518275c0.7251825000000001 1.0374 2.4438750000000002 0.048877500000000004 1.7107125 -0.9975a25.83525 25.83525 0 0 0 -8.171520000000001 -7.563045000000001 0.991515 0.991515 0 0 0 -0.999495 1.7087175000000001Z" stroke-width="0.5"></path><path id="vector_16" fill="#6153bd" d="M141.8335275 101.69811750000001c-0.34114500000000003 5.248845 -2.8169399999999998 10.573500000000001 -5.5550775 15.010380000000001 -0.835905 1.3536075 1.29675 2.5935 2.1276675000000003 1.2438825000000002 2.9755425000000004 -4.8169275 5.521162500000001 -10.559535 5.891235 -16.25925 0.1027425 -1.5790425000000001 -2.36208 -1.5720600000000002 -2.4638250000000004 0.004987500000000001Z" stroke-width="0.5"></path><path id="vector_17" fill="#6153bd" d="M98.85723750000001 107.145465a21.8701875 21.8701875 0 0 0 2.0897625000000004 -15.0492825c-0.33416250000000003 -1.5491175 -2.7102075 -0.89775 -2.3760450000000004 0.6553575a19.1669625 19.1669625 0 0 1 -1.8403875 13.150042500000001c-0.7491225 1.3974975 1.3775475000000001 2.6433750000000003 2.1266700000000003 1.2438825000000002Z" stroke-width="0.5"></path><path id="vector_18" stroke="#120071" stroke-linecap="round" stroke-linejoin="round" d="M94.31861250000001 84.61493250000001c0.7830375 1.0044825 2.1755475 -0.40598249999999997 1.3965 -1.3965a19.110105 19.110105 0 0 0 -15.501149999999999 -7.319655000000001 0.991515 0.991515 0 0 0 0 1.981035 17.25675 17.25675 0 0 1 14.104650000000001 6.73512Z" stroke-width="0.5"></path><path id="vector_19" stroke="#120071" stroke-linecap="round" stroke-linejoin="round" d="M79.23142500000002 118.49003250000001a17.2637325 17.2637325 0 0 1 -14.10066 -6.7401075c-0.7830375 -1.0044825 -2.1755475 0.40698 -1.3965 1.4014875a19.107112500000003 19.107112500000003 0 0 0 15.501149999999999 7.319655000000001 0.9895200000000001 0.9895200000000001 0 0 0 0.9446325 -0.9925125 0.9895200000000001 0.9895200000000001 0 0 0 -0.9486225 -0.9885225000000001Z" stroke-width="0.5"></path><path id="vector_20" stroke="#120071" stroke-linecap="round" stroke-linejoin="round" d="M102.95397000000001 145.289865a17.271712500000003 17.271712500000003 0 0 1 -14.0996625 -6.737115c-0.7830375 -1.0044825 -2.1755475 0.40598249999999997 -1.3965 1.3965a19.10412 19.10412 0 0 0 15.5001525 7.319655000000001 0.9945075000000001 0.9945075000000001 0 0 0 0.9446325 -0.991515 0.9945075000000001 0.9945075000000001 0 0 0 -0.9486225 -0.9875250000000001Z" stroke-width="0.5"></path><path id="vector_21" stroke="#120071" stroke-linecap="round" stroke-linejoin="round" d="M92.68271250000001 75.64441500000001a23.541000000000004 23.541000000000004 0 0 1 7.4603025 6.8518275c0.7251825000000001 1.0374 2.4438750000000002 0.048877500000000004 1.7107125 -0.9975a25.83525 25.83525 0 0 0 -8.171520000000001 -7.563045000000001 0.991515 0.991515 0 0 0 -0.999495 1.7087175000000001Z" stroke-width="0.5"></path><path id="vector_22" stroke="#120071" stroke-linecap="round" stroke-linejoin="round" d="M141.8335275 101.69811750000001c-0.34114500000000003 5.248845 -2.8169399999999998 10.573500000000001 -5.5550775 15.010380000000001 -0.835905 1.3536075 1.29675 2.5935 2.1276675000000003 1.2438825000000002 2.9755425000000004 -4.8169275 5.521162500000001 -10.559535 5.891235 -16.25925 0.1027425 -1.5790425000000001 -2.36208 -1.5720600000000002 -2.4638250000000004 0.004987500000000001Z" stroke-width="0.5"></path><path id="vector_23" stroke="#120071" stroke-linecap="round" stroke-linejoin="round" d="M98.85723750000001 107.145465a21.8701875 21.8701875 0 0 0 2.0897625000000004 -15.0492825c-0.33416250000000003 -1.5491175 -2.7102075 -0.89775 -2.3760450000000004 0.6553575a19.1669625 19.1669625 0 0 1 -1.8403875 13.150042500000001c-0.7491225 1.3974975 1.3775475000000001 2.6433750000000003 2.1266700000000003 1.2438825000000002Z" stroke-width="0.5"></path><path id="vector_24" fill="#f1a65e" d="M77.71722000000001 124.505955c-2.7580875000000002 -0.09975 -3.4314 1.63191 -6.407940000000001 1.69575a3.9690525 3.9690525 0 0 0 -2.80098 1.2279225000000002 3.9630675 3.9630675 0 0 0 -0.73416 4.3760325 3.9650625 3.9650625 0 0 0 3.7885050000000002 2.3092125c2.6084625000000004 -0.1087275 3.1022250000000002 1.7057250000000002 5.9441025 1.7057250000000002a5.661810000000001 5.661810000000001 0 0 0 0.2104725 -11.319630000000002v0.004987500000000001Z" stroke-width="0.5"></path><path id="vector_25" stroke="#120071" stroke-linecap="round" stroke-linejoin="round" d="M77.71722000000001 124.505955c-2.7580875000000002 -0.09975 -3.4314 1.63191 -6.407940000000001 1.69575a3.9690525 3.9690525 0 0 0 -2.80098 1.2279225000000002 3.9630675 3.9630675 0 0 0 -0.73416 4.3760325 3.9650625 3.9650625 0 0 0 3.7885050000000002 2.3092125c2.6084625000000004 -0.1087275 3.1022250000000002 1.7057250000000002 5.9441025 1.7057250000000002a5.661810000000001 5.661810000000001 0 0 0 0.2104725 -11.319630000000002v0.004987500000000001Z" stroke-width="0.5"></path></g><g id="laurel"><path id="vector_26" stroke="#120071" stroke-linecap="round" stroke-linejoin="round" d="M5.08725 82.0613325a19.9410225 19.9410225 0 0 0 19.33155 19.758480000000002A19.942020000000003 19.942020000000003 0 0 0 5.08725 82.0613325Z" stroke-width="0.5"></path><path id="vector_27" stroke="#120071" stroke-linecap="round" stroke-linejoin="round" d="m47.01417 145.76268 -19.7255625 -32.29905a19.660725000000003 19.660725000000003 0 0 1 -2.4847725 -14.1734775l1.0493700000000001 -5.14311" stroke-width="0.5"></path><path id="vector_28" stroke="#120071" stroke-linecap="round" stroke-linejoin="round" d="M30.0995625 66.83250000000001a19.940025 19.940025 0 0 0 -4.2463575 27.313545A19.942020000000003 19.942020000000003 0 0 0 30.0995625 66.83250000000001Z" stroke-width="0.5"></path><path id="vector_29" fill="#6153bd" d="m5.08725 82.0613325 19.33155 19.758480000000002A19.942020000000003 19.942020000000003 0 0 0 5.08725 82.0613325Z" stroke-width="0.5"></path><path id="vector_30" stroke="#120071" stroke-linecap="round" stroke-linejoin="round" d="m5.0882475000000005 82.0613325 19.330552500000003 19.758480000000002" stroke-width="0.5"></path><path id="vector_31" stroke="#120071" stroke-linecap="round" stroke-linejoin="round" d="M5.463307500000001 116.22171750000001a21.191887500000004 21.191887500000004 0 0 0 28.252192500000003 8.0408475 21.186899999999998 21.186899999999998 0 0 0 -12.506655 -9.709665000000001 21.186899999999998 21.186899999999998 0 0 0 -15.745537500000001 1.6688175Z" stroke-width="0.5"></path><path id="vector_32" stroke="#120071" stroke-linecap="round" stroke-linejoin="round" d="M5.755574999999999 104.1719175a14.81487 14.81487 0 0 0 19.750500000000002 5.621910000000001 14.81487 14.81487 0 0 0 -19.750500000000002 -5.621910000000001Z" stroke-width="0.5"></path><path id="vector_33" stroke="#120071" stroke-linecap="round" stroke-linejoin="round" d="M25.5090675 109.7938275 5.755574999999999 104.1719175" stroke-width="0.5"></path><path id="vector_34" stroke="#120071" stroke-linecap="round" stroke-linejoin="round" d="M8.843835 130.98771000000002a27.173895 27.173895 0 0 0 35.972842500000006 11.177985 27.1788825 27.1788825 0 0 0 -35.972842500000006 -11.177985Z" stroke-width="0.5"></path><path id="vector_35" stroke="#120071" stroke-linecap="round" stroke-linejoin="round" d="m5.463307500000001 116.22171750000001 28.251195 8.0408475" stroke-width="0.5"></path><path id="vector_36" fill="#6153bd" d="m30.0995625 66.83250000000001 -4.2463575 27.3145425A19.942020000000003 19.942020000000003 0 0 0 30.0995625 66.83250000000001Z" stroke-width="0.5"></path><path id="vector_37" stroke="#120071" stroke-linecap="round" stroke-linejoin="round" d="m30.0995625 66.83349750000001 -4.2463575 27.313545" stroke-width="0.5"></path><path id="vector_38" fill="#6153bd" d="m8.843835 130.98771000000002 35.972842500000006 11.177985a27.173895 27.173895 0 0 0 -35.972842500000006 -11.177985Z" stroke-width="0.5"></path><path id="vector_39" stroke="#120071" stroke-linecap="round" stroke-linejoin="round" d="m8.843835 130.98771000000002 35.972842500000006 11.177985" stroke-width="0.5"></path><path id="vector_40" stroke="#120071" stroke-linecap="round" stroke-linejoin="round" d="M193.2027825 82.0613325a19.936035 19.936035 0 0 1 -19.329555000000003 19.758480000000002 19.9430175 19.9430175 0 0 1 19.329555000000003 -19.758480000000002Z" stroke-width="0.5"></path><path id="vector_41" stroke="#120071" stroke-linecap="round" stroke-linejoin="round" d="m151.2778575 145.76268 19.724565000000002 -32.29905a19.65075 19.65075 0 0 0 2.4847725 -14.1734775l-1.0483725 -5.14311" stroke-width="0.5"></path><path id="vector_42" stroke="#120071" stroke-linecap="round" stroke-linejoin="round" d="M168.19246500000003 66.83250000000001a19.9430175 19.9430175 0 0 1 4.2463575 27.313545A19.9390275 19.9390275 0 0 1 168.19246500000003 66.83250000000001Z" stroke-width="0.5"></path><path id="vector_43" fill="#6153bd" d="m193.2027825 82.0613325 -19.329555000000003 19.758480000000002a19.9430175 19.9430175 0 0 1 19.329555000000003 -19.758480000000002Z" stroke-width="0.5"></path><path id="vector_44" stroke="#120071" stroke-linecap="round" stroke-linejoin="round" d="m193.2027825 82.0613325 -19.329555000000003 19.758480000000002" stroke-width="0.5"></path><path id="vector_45" stroke="#120071" stroke-linecap="round" stroke-linejoin="round" d="M192.82872000000003 116.22171750000001a21.188895000000002 21.188895000000002 0 0 1 -28.251195 8.0408475 21.188895000000002 21.188895000000002 0 0 1 28.251195 -8.0408475Z" stroke-width="0.5"></path><path id="vector_46" stroke="#120071" stroke-linecap="round" stroke-linejoin="round" d="M192.53645250000002 104.1719175a14.813872500000002 14.813872500000002 0 0 1 -19.750500000000002 5.621910000000001 14.813872500000002 14.813872500000002 0 0 1 19.750500000000002 -5.621910000000001Z" stroke-width="0.5"></path><path id="vector_47" stroke="#120071" stroke-linecap="round" stroke-linejoin="round" d="m172.78296000000003 109.7938275 19.7534925 -5.621910000000001" stroke-width="0.5"></path><path id="vector_48" stroke="#120071" stroke-linecap="round" stroke-linejoin="round" d="M189.4481925 130.98771000000002a27.1788825 27.1788825 0 0 1 -35.972842500000006 11.177985 27.1748925 27.1748925 0 0 1 35.972842500000006 -11.177985Z" stroke-width="0.5"></path><path id="vector_49" stroke="#120071" stroke-linecap="round" stroke-linejoin="round" d="m192.82872000000003 116.22171750000001 -28.251195 8.0408475" stroke-width="0.5"></path><path id="vector_50" fill="#6153bd" d="m168.19246500000003 66.83250000000001 4.2463575 27.313545A19.9390275 19.9390275 0 0 1 168.19246500000003 66.83250000000001Z" stroke-width="0.5"></path><path id="vector_51" stroke="#120071" stroke-linecap="round" stroke-linejoin="round" d="m168.19246500000003 66.83349750000001 4.2463575 27.313545" stroke-width="0.5"></path><path id="vector_52" fill="#6153bd" d="m189.4481925 130.98771000000002 -35.972842500000006 11.177985a27.1748925 27.1748925 0 0 1 35.972842500000006 -11.177985Z" stroke-width="0.5"></path><path id="vector_53" stroke="#120071" stroke-linecap="round" stroke-linejoin="round" d="m189.4481925 130.98771000000002 -35.972842500000006 11.177985" stroke-width="0.5"></path></g><g id="pointer"><path id="vector_54" stroke="#120071" stroke-linecap="round" stroke-linejoin="round" d="m120.74139000000001 123.5174325 34.990305000000006 45.4091925" stroke-width="0.5"></path><path id="vector_55" fill="#6153bd" d="M157.8035025 175.0083825a3.393495 3.393495 0 1 0 0 -6.78699 3.393495 3.393495 0 0 0 0 6.78699Z" stroke-width="0.5"></path><path id="vector_56" stroke="#120071" stroke-linecap="round" stroke-linejoin="round" d="M157.8035025 175.0083825a3.393495 3.393495 0 1 0 0 -6.78699 3.393495 3.393495 0 0 0 0 6.78699Z" stroke-width="0.5"></path><path id="vector_57" fill="#6153bd" d="M49.79919 51.09095250000001a3.393495 3.393495 0 1 0 0 -6.78699 3.393495 3.393495 0 0 0 0 6.78699Z" stroke-width="0.5"></path><path id="vector_58" stroke="#120071" stroke-linecap="round" stroke-linejoin="round" d="M49.79919 51.09095250000001a3.393495 3.393495 0 1 0 0 -6.78699 3.393495 3.393495 0 0 0 0 6.78699Z" stroke-width="0.5"></path><path id="vector_59" fill="#6153bd" d="M111.48359250000001 30.475620000000003a3.393495 3.393495 0 1 0 0 -6.78699 3.393495 3.393495 0 0 0 0 6.78699Z" stroke-width="0.5"></path><path id="vector_60" stroke="#120071" stroke-linecap="round" stroke-linejoin="round" d="M111.48359250000001 30.475620000000003a3.393495 3.393495 0 1 0 0 -6.78699 3.393495 3.393495 0 0 0 0 6.78699Z" stroke-width="0.5"></path><path id="vector_61" stroke="#120071" stroke-linecap="round" stroke-linejoin="round" d="M190.6830975 169.02338250000003h-21.053235000000004a3.8304 3.8304 0 1 0 0 7.658805h21.053235000000004a3.8304 3.8304 0 1 0 0 -7.658805Z" stroke-width="0.5"></path><path id="vector_62" stroke="#120071" stroke-linecap="round" stroke-linejoin="round" d="M36.7349325 40.037655H15.6816975a3.8304 3.8304 0 0 0 0 7.6598025000000005h21.053235000000004a3.8304 3.8304 0 0 0 0 -7.6608Z" stroke-width="0.5"></path><path id="vector_63" stroke="#120071" stroke-linecap="round" stroke-linejoin="round" d="M146.61454500000002 22.817812500000002h-21.053235000000004a3.8304 3.8304 0 0 0 -3.5939925000000006 5.308695 3.8194275 3.8194275 0 0 0 2.1097125000000005 2.0748c0.4718175 0.189525 0.9765525 0.2822925 1.48428 0.2743125h21.053235000000004a3.8313975000000005 3.8313975000000005 0 0 0 3.7675575 -3.8284050000000005 3.8313975000000005 3.8313975000000005 0 0 0 -3.7675575 -3.8294025Z" stroke-width="0.5"></path><path id="vector_64" stroke="#120071" stroke-linecap="round" stroke-linejoin="round" d="M110.26664250000002 30.251182500000002 95.9465325 67.53673500000001" stroke-width="0.5"></path><path id="vector_65" stroke="#120071" stroke-linecap="round" stroke-linejoin="round" d="m51.958777500000004 50.315895000000005 28.2282525 34.23918750000001" stroke-width="0.5"></path></g></g></svg>