<svg xmlns="http://www.w3.org/2000/svg" fill="none" viewBox="-0.25 -0.25 200 200" id="Dna--Streamline-Bangalore.svg"><desc>DNA Streamline Illustration: https://streamlinehq.com</desc><g id="dna--science-technology-dna"><g id="background"><path id="vector" stroke="#120071" stroke-linecap="round" stroke-linejoin="round" d="M66.56517000000001 44.566305c-31.411275 -1.90323 -55.309380000000004 5.7346275 -60.51533250000001 24.293115 -6.613425 23.572920000000003 18.330060000000003 45.397222500000005 56.50638000000001 60.438525000000006" stroke-width="0.5"></path><path id="vector_2" stroke="#120071" stroke-linecap="round" stroke-linejoin="round" d="M92.9540325 48.072517500000004a213.0869475 213.0869475 0 0 0 -14.348040000000001 -2.3560950000000003" stroke-width="0.5"></path><path id="vector_3" stroke="#120071" stroke-linecap="round" stroke-linejoin="round" d="M171.03933 77.9276925c-14.900655000000002 -10.2313575 -35.79329250000001 -18.7460175 -59.421075 -25.374405a256.40937 256.40937 0 0 0 -8.9006925 -2.3271675000000003" stroke-width="0.5"></path><path id="vector_4" stroke="#120071" stroke-linecap="round" stroke-linejoin="round" d="M144.38214000000002 147.0943425c25.205827499999998 0.24538500000000002 43.709452500000005 -7.1351175 48.9183975 -25.69959 3.9890025000000002 -14.217367500000002 -2.0947500000000003 -26.88861 -14.888685 -37.838167500000004" stroke-width="0.5"></path><path id="vector_5" stroke="#120071" stroke-linecap="round" stroke-linejoin="round" d="M117.33792000000001 144.4649325c4.805955 0.815955 9.48822 1.454355 14.014875000000002 1.897245" stroke-width="0.5"></path><path id="vector_6" stroke="#120071" stroke-linecap="round" stroke-linejoin="round" d="M73.54368 133.31687250000002a278.97282 278.97282 0 0 0 14.186445 4.38501c8.361045 2.34612 16.552515000000003 4.312192500000001 24.44673 5.829390000000001" stroke-width="0.5"></path></g><g id="nucleotide"><path id="vector_7" stroke="#120071" stroke-linecap="round" stroke-linejoin="round" d="m173.46924 71.6993025 -7.81242 20.027805a4.45683 4.45683 0 1 0 8.3041875 3.2388825l7.81242 -20.027805a4.45683 4.45683 0 1 0 -8.3041875 -3.2388825Z" stroke-width="0.5"></path><path id="vector_8" stroke="#120071" stroke-linecap="round" stroke-linejoin="round" d="M38.453625 63.3302775a3.6408750000000003 3.6408750000000003 0 0 0 -4.626405 2.2613325L29.3614125 78.59302500000001a3.6408750000000003 3.6408750000000003 0 1 0 6.887737500000001 2.3650725l4.4658075 -13.001415000000001a3.6408750000000003 3.6408750000000003 0 0 0 -2.2613325 -4.626405Z" stroke-width="0.5"></path><path id="vector_9" stroke="#120071" stroke-linecap="round" stroke-linejoin="round" d="m70.74868500000001 125.35083750000001 -29.097075000000004 14.0138775a4.1944875 4.1944875 0 0 0 3.6398775000000003 7.5580575l29.097075000000004 -14.0138775a4.1944875 4.1944875 0 0 0 -3.6398775000000003 -7.5580575Z" stroke-width="0.5"></path></g><g id="bubble"><path id="vector_10" stroke="#120071" stroke-linecap="round" stroke-linejoin="round" d="M135.8964075 11.274742500000002c-5.338620000000001 -1.5570975 -10.9276125 1.5082200000000001 -12.484710000000002 6.84684s1.5082200000000001 10.9276125 6.84684 12.484710000000002 10.9276125 -1.5082200000000001 12.484710000000002 -6.84684 -1.5082200000000001 -10.9276125 -6.84684 -12.484710000000002Z" stroke-width="0.5"></path><path id="vector_11" stroke="#120071" stroke-linecap="round" stroke-linejoin="round" d="M123.448605 39.4321725a3.91419 3.91419 0 1 0 -2.192505 7.5151650000000005 3.91419 3.91419 0 0 0 2.192505 -7.5151650000000005Z" stroke-width="0.5"></path><path id="vector_12" stroke="#120071" stroke-linecap="round" stroke-linejoin="round" d="M144.22054500000002 36.87258750000001a2.563575 2.563575 0 1 0 -1.4354025000000001 4.92366 2.563575 2.563575 0 0 0 1.4354025000000001 -4.92366Z" stroke-width="0.5"></path></g><g id="dna"><path id="vector_13" stroke="#120071" stroke-linecap="round" stroke-linejoin="round" d="m55.2615 39.187785000000005 21.934027500000003 -8.899695000000001a2.7959925 2.7959925 0 0 0 -2.10273 -5.182012500000001l-21.548992500000004 8.744085a63.1108275 63.1108275 0 0 0 1.717695 5.3376225Z" stroke-width="0.5"></path><path id="vector_14" stroke="#120071" stroke-linecap="round" stroke-linejoin="round" d="m62.775667500000004 52.13932500000001 19.99389 -8.112667499999999a2.79699 2.79699 0 0 0 -2.10273 -5.18301l-21.3594675 8.66628a33.989812500000006 33.989812500000006 0 0 0 3.4683075 4.6293975000000005Z" stroke-width="0.5"></path><path id="vector_15" stroke="#120071" stroke-linecap="round" stroke-linejoin="round" d="m76.54316250000001 60.7667025 11.177985 -4.5356325a2.79699 2.79699 0 0 0 -2.10273 -5.182012500000001L69.38709750000001 57.63555c2.31021 1.3935075000000001 4.7171775 2.3989875 7.156065000000001 3.1311525Z" stroke-width="0.5"></path><path id="vector_16" stroke="#120071" stroke-linecap="round" stroke-linejoin="round" d="m89.79894 41.1738075 18.733050000000002 -7.60095c0.325185 -2.0199375 0.52668 -4.110697500000001 0.5835375 -6.27228l-21.419317500000002 8.6912175c-3.4284075 1.390515 -1.32468 6.5745225000000005 2.10273 5.182012500000001Z" stroke-width="0.5"></path><path id="vector_17" stroke="#120071" stroke-linecap="round" stroke-linejoin="round" d="m94.75152750000001 53.378220000000006 8.021895 -3.2548425a56.80762500000001 56.80762500000001 0 0 0 3.3516 -7.395465l-13.476225000000001 5.468295c-3.3924975 1.37655 -1.3595925 6.589485 2.10273 5.182012500000001Z" stroke-width="0.5"></path><path id="vector_18" stroke="#120071" stroke-linecap="round" stroke-linejoin="round" d="m119.88354000000001 137.39664750000003 -5.01543 2.0349c-1.7506125 2.447865 -3.4064625000000004 5.11119 -4.7590725 7.9670325l11.8772325 -4.81992a2.794995 2.794995 0 1 0 -2.10273 -5.182012500000001Z" stroke-width="0.5"></path><path id="vector_19" stroke="#120071" stroke-linecap="round" stroke-linejoin="round" d="m124.6226625 149.07637499999998 -17.38842 7.055317500000001a28.73598 28.73598 0 0 0 -0.45087000000000005 6.218415l19.942020000000003 -8.09172a2.7959925 2.7959925 0 1 0 -2.10273 -5.182012500000001Z" stroke-width="0.5"></path><path id="vector_20" stroke="#120071" stroke-linecap="round" stroke-linejoin="round" d="m130.1966925 162.81494250000003 -21.53403 8.738100000000001a35.576834999999996 35.576834999999996 0 0 0 2.3790375 5.070292500000001l21.258720000000004 -8.6253825a2.794995 2.794995 0 1 0 -2.10273 -5.182012500000001l-0.0009975000000000001 -0.0009975000000000001Z" stroke-width="0.5"></path><path id="vector_21" stroke="#120071" stroke-linecap="round" stroke-linejoin="round" d="m132.2435625 132.382215 -5.330640000000001 2.16258c-3.3835200000000003 1.37256 -1.374555 6.593475000000001 2.10273 5.182012500000001l12.621367500000002 -5.121165c-2.763075 -0.831915 -5.877270000000001 -1.5810375 -9.3934575 -2.2234275Z" stroke-width="0.5"></path><path id="vector_22" stroke="#120071" stroke-linecap="round" stroke-linejoin="round" d="m151.0165125 138.36721500000002 -19.365465000000004 7.8573075c-3.3835200000000003 1.37256 -1.374555 6.593475000000001 2.10273 5.182012500000001l22.8976125 -9.290715c-1.5481200000000002 -1.298745 -3.3984825 -2.5605825 -5.6348775 -3.7496025v0.0009975000000000001Z" stroke-width="0.5"></path><path id="vector_23" stroke="#120071" stroke-linecap="round" stroke-linejoin="round" d="m162.72018 149.6180175 -25.494105 10.3450725c-3.3835200000000003 1.37256 -1.374555 6.593475000000001 2.10273 5.18301l25.42827 -10.31814c-0.45885000000000004 -1.8703125 -1.1341575000000002 -3.50721 -2.036895 -5.2099425Z" stroke-width="0.5"></path><path id="vector_24" fill="#6153bd" d="M97.3390425 79.933665a2.794995 2.794995 0 1 0 -2.10273 -5.182012500000001l-5.330640000000001 2.16258c-1.8693150000000003 2.523675 -3.6967350000000003 5.266800000000001 -5.2308900000000005 8.1585525l12.66426 -5.13912Z" stroke-width="0.5"></path><path id="vector_25" fill="#6153bd" d="m80.6369025 100.3135875 21.4412625 -8.6991975a2.7959925 2.7959925 0 1 0 -2.10273 -5.18301l-18.7400325 7.6039425000000005c-0.46284000000000003 2.0628300000000004 -0.68628 4.16157 -0.5985 6.278265Z" stroke-width="0.5"></path><path id="vector_26" fill="#6153bd" d="m105.549465 100.1699475 -22.48365 9.123135000000001a21.284655 21.284655 0 0 0 3.341625 4.6792725l21.244754999999998 -8.620395a2.7959925 2.7959925 0 0 0 -2.10273 -5.182012500000001Z" stroke-width="0.5"></path><path id="vector_27" fill="#6153bd" d="M114.14392500000001 113.9135025a2.79699 2.79699 0 0 0 -3.6418725 -1.54014L93.5655 119.24514c2.4009825 1.2378975 4.9845075 2.1935025 7.6199025 2.9436225l11.41938 -4.6333874999999995a2.7939975 2.7939975 0 0 0 1.5391425 -3.6418725Z" stroke-width="0.5"></path><path id="vector_28" stroke="#120071" stroke-linecap="round" stroke-linejoin="round" d="M97.3390425 79.933665a2.794995 2.794995 0 1 0 -2.10273 -5.182012500000001l-5.330640000000001 2.16258c-1.8693150000000003 2.523675 -3.6967350000000003 5.266800000000001 -5.2308900000000005 8.1585525l12.66426 -5.13912Z" stroke-width="0.5"></path><path id="vector_29" stroke="#120071" stroke-linecap="round" stroke-linejoin="round" d="m80.6369025 100.3135875 21.4412625 -8.6991975a2.7959925 2.7959925 0 1 0 -2.10273 -5.18301l-18.7400325 7.6039425000000005c-0.46284000000000003 2.0628300000000004 -0.68628 4.16157 -0.5985 6.278265Z" stroke-width="0.5"></path><path id="vector_30" stroke="#120071" stroke-linecap="round" stroke-linejoin="round" d="m105.549465 100.1699475 -22.48365 9.123135000000001a21.284655 21.284655 0 0 0 3.341625 4.6792725l21.244754999999998 -8.620395a2.7959925 2.7959925 0 0 0 -2.10273 -5.182012500000001Z" stroke-width="0.5"></path><path id="vector_31" stroke="#120071" stroke-linecap="round" stroke-linejoin="round" d="M114.14392500000001 113.9135025a2.79699 2.79699 0 0 0 -3.6418725 -1.54014L93.5655 119.24514c2.4009825 1.2378975 4.9845075 2.1935025 7.6199025 2.9436225l11.41938 -4.6333874999999995a2.7939975 2.7939975 0 0 0 1.5391425 -3.6418725Z" stroke-width="0.5"></path><path id="vector_32" fill="#6153bd" d="M167.1919725 171.827355a2.79699 2.79699 0 0 1 -2.7560925 -3.2887575000000004c1.0902675 -6.099712500000001 1.7605875 -11.640825000000001 -1.09725 -17.6846775 -3.6967350000000003 -7.8204 -11.918130000000001 -17.1679725 -42.934395 -20.063715000000002l-1.4613375000000002 -0.133665c-12.102667499999999 -1.0962525 -34.6302075 -3.1371375 -41.96283 -21.208845 -7.1590575 -17.641785000000002 7.088235 -34.6122525 14.741055000000001 -43.7304 0.5316675000000001 -0.6334125 1.0374 -1.2349050000000001 1.5072225 -1.8034800000000002 8.520645 -10.2951975 17.981932500000003 -24.619297500000002 15.503145 -44.1643125a2.7959925 2.7959925 0 1 1 5.5470975000000005 -0.7042349999999999c2.7481125 21.675675000000002 -7.503195000000001 37.2695925 -16.74204 48.4336125 -0.4778025 0.5775525 -0.991515 1.18902 -1.5321600000000002 1.8334050000000002 -7.381500000000001 8.7929625 -19.73454 23.509080000000004 -13.843305 38.0316825 5.893230000000001 14.5245975 23.978902500000004 16.511617500000003 38.76285 17.8761975 26.398837500000003 2.4368925000000004 41.037150000000004 9.6328575 47.4700275 23.2427475 3.5590800000000002 7.527135 2.7620775 14.2572675 1.5461250000000002 21.05922a2.7959925 2.7959925 0 0 1 -2.74911 2.304225l0.0009975000000000001 0.0009975000000000001Z" stroke-width="0.5"></path><path id="vector_33" stroke="#120071" stroke-linecap="round" stroke-linejoin="round" d="M167.1919725 171.827355a2.79699 2.79699 0 0 1 -2.7560925 -3.2887575000000004c1.0902675 -6.099712500000001 1.7605875 -11.640825000000001 -1.09725 -17.6846775 -3.6967350000000003 -7.8204 -11.918130000000001 -17.1679725 -42.934395 -20.063715000000002l-1.4613375000000002 -0.133665c-12.102667499999999 -1.0962525 -34.6302075 -3.1371375 -41.96283 -21.208845 -7.1590575 -17.641785000000002 7.088235 -34.6122525 14.741055000000001 -43.7304 0.5316675000000001 -0.6334125 1.0374 -1.2349050000000001 1.5072225 -1.8034800000000002 8.520645 -10.2951975 17.981932500000003 -24.619297500000002 15.503145 -44.1643125a2.7959925 2.7959925 0 1 1 5.5470975000000005 -0.7042349999999999c2.7481125 21.675675000000002 -7.503195000000001 37.2695925 -16.74204 48.4336125 -0.4778025 0.5775525 -0.991515 1.18902 -1.5321600000000002 1.8334050000000002 -7.381500000000001 8.7929625 -19.73454 23.509080000000004 -13.843305 38.0316825 5.893230000000001 14.5245975 23.978902500000004 16.511617500000003 38.76285 17.8761975 26.398837500000003 2.4368925000000004 41.037150000000004 9.6328575 47.4700275 23.2427475 3.5590800000000002 7.527135 2.7620775 14.2572675 1.5461250000000002 21.05922a2.7959925 2.7959925 0 0 1 -2.74911 2.304225l0.0009975000000000001 0.0009975000000000001Z" stroke-width="0.5"></path><path id="vector_34" fill="#f1a65e" d="m104.368425 77.08181250000001 12.622365 -5.121165c-2.771055 -0.959595 -5.8463475 -1.7246775 -9.222885000000002 -2.2932525l-5.502210000000001 2.232405c-3.3924975 1.37655 -1.3595925 6.589485 2.10273 5.182012500000001Z" stroke-width="0.5"></path><path id="vector_35" fill="#f1a65e" d="m109.10754750000001 88.76154 21.013335 -8.5256325c-1.3276725 -1.52418 -2.8917525000000004 -2.902725 -4.68825 -4.133640000000001l-18.427815000000002 7.477260000000001a2.794995 2.794995 0 0 0 -1.5391425 3.6428700000000003 2.794995 2.794995 0 0 0 3.6418725 1.5391425Z" stroke-width="0.5"></path><path id="vector_36" fill="#f1a65e" d="m114.6815775 102.49911 20.7879 -8.43486a21.511087500000002 21.511087500000002 0 0 0 -0.8758050000000001 -5.679765000000001l-22.014825000000002 8.932612500000001a2.7959925 2.7959925 0 0 0 2.10273 5.18301v-0.0009975000000000001Z" stroke-width="0.5"></path><path id="vector_37" fill="#f1a65e" d="M117.531435 109.52151a2.794995 2.794995 0 1 0 2.10273 5.182012500000001l11.10018 -4.5037125c1.34064 -2.36208 2.4987375 -4.8378749999999995 3.333645 -7.3884825l-16.536555 6.710182500000001Z" stroke-width="0.5"></path><path id="vector_38" stroke="#120071" stroke-linecap="round" stroke-linejoin="round" d="m104.368425 77.08181250000001 12.622365 -5.121165c-2.771055 -0.959595 -5.8463475 -1.7246775 -9.222885000000002 -2.2932525l-5.502210000000001 2.232405c-3.3924975 1.37655 -1.3595925 6.589485 2.10273 5.182012500000001Z" stroke-width="0.5"></path><path id="vector_39" stroke="#120071" stroke-linecap="round" stroke-linejoin="round" d="m109.10754750000001 88.76154 21.013335 -8.5256325c-1.3276725 -1.52418 -2.8917525000000004 -2.902725 -4.68825 -4.133640000000001l-18.427815000000002 7.477260000000001a2.794995 2.794995 0 0 0 -1.5391425 3.6428700000000003 2.794995 2.794995 0 0 0 3.6418725 1.5391425Z" stroke-width="0.5"></path><path id="vector_40" stroke="#120071" stroke-linecap="round" stroke-linejoin="round" d="m114.6815775 102.49911 20.7879 -8.43486a21.511087500000002 21.511087500000002 0 0 0 -0.8758050000000001 -5.679765000000001l-22.014825000000002 8.932612500000001a2.7959925 2.7959925 0 0 0 2.10273 5.18301v-0.0009975000000000001Z" stroke-width="0.5"></path><path id="vector_41" stroke="#120071" stroke-linecap="round" stroke-linejoin="round" d="M117.531435 109.52151a2.794995 2.794995 0 1 0 2.10273 5.182012500000001l11.10018 -4.5037125c1.34064 -2.36208 2.4987375 -4.8378749999999995 3.333645 -7.3884825l-16.536555 6.710182500000001Z" stroke-width="0.5"></path><path id="vector_42" fill="#f1a65e" d="M114.1548975 188.63124000000002a2.7900075 2.7900075 0 0 1 -2.1276675000000003 -0.9805425c-23.646735 -27.70257 -3.2508525 -50.535345 6.55158 -61.5088425 7.572022500000001 -8.476754999999999 21.6258 -24.209325 15.3066375 -39.784290000000006 -5.891235 -14.51961 -24.5594475 -17.460240000000002 -40.22319 -17.914102500000002 -14.689185000000002 -0.424935 -39.27556500000001 -1.1132100000000003 -46.8834975 -38.912475a2.794995 2.794995 0 0 1 2.1895124999999998 -3.2927475000000004 2.793 2.793 0 0 1 3.2927475000000004 2.1895124999999998c6.7301325 33.438195 26.8616775 33.999787500000004 41.55984 34.4247225 18.324075 0.5306700000000001 38.353875 4.414935000000001 45.2466 21.4013625 7.6298775 18.8038725 -8.528625000000002 36.894532500000004 -16.29516 45.5887425 -9.4393425 10.5665175 -26.966415 30.18834 -6.4907325 54.175222500000004 1.5630825 1.8314100000000002 0.2264325 4.61244 -2.1256725 4.61244l-0.0009975000000000001 0.0009975000000000001Z" stroke-width="0.5"></path><path id="vector_43" stroke="#120071" stroke-linecap="round" stroke-linejoin="round" d="M114.1548975 188.63124000000002a2.7900075 2.7900075 0 0 1 -2.1276675000000003 -0.9805425c-23.646735 -27.70257 -3.2508525 -50.535345 6.55158 -61.5088425 7.572022500000001 -8.476754999999999 21.6258 -24.209325 15.3066375 -39.784290000000006 -5.891235 -14.51961 -24.5594475 -17.460240000000002 -40.22319 -17.914102500000002 -14.689185000000002 -0.424935 -39.27556500000001 -1.1132100000000003 -46.8834975 -38.912475a2.794995 2.794995 0 0 1 2.1895124999999998 -3.2927475000000004 2.793 2.793 0 0 1 3.2927475000000004 2.1895124999999998c6.7301325 33.438195 26.8616775 33.999787500000004 41.55984 34.4247225 18.324075 0.5306700000000001 38.353875 4.414935000000001 45.2466 21.4013625 7.6298775 18.8038725 -8.528625000000002 36.894532500000004 -16.29516 45.5887425 -9.4393425 10.5665175 -26.966415 30.18834 -6.4907325 54.175222500000004 1.5630825 1.8314100000000002 0.2264325 4.61244 -2.1256725 4.61244l-0.0009975000000000001 0.0009975000000000001Z" stroke-width="0.5"></path></g><g id="elements"><g id="group"><path id="vector_44" stroke="#120071" stroke-linecap="round" stroke-linejoin="round" d="M29.9120325 102.26769h10.2533025" stroke-width="0.5"></path><path id="vector_45" stroke="#120071" stroke-linecap="round" stroke-linejoin="round" d="M35.038185 107.3938425V97.14054" stroke-width="0.5"></path></g><g id="group_2"><path id="vector_46" stroke="#120071" stroke-linecap="round" stroke-linejoin="round" d="M15.9250875 128.005185h5.592982500000001" stroke-width="0.5"></path><path id="vector_47" stroke="#120071" stroke-linecap="round" stroke-linejoin="round" d="M18.7220775 130.8011775v-5.592982500000001" stroke-width="0.5"></path></g><g id="group_3"><path id="vector_48" stroke="#120071" stroke-linecap="round" stroke-linejoin="round" d="m170.969505 124.38027 7.24983 7.24983" stroke-width="0.5"></path><path id="vector_49" stroke="#120071" stroke-linecap="round" stroke-linejoin="round" d="m170.969505 131.63010000000003 7.24983 -7.24983" stroke-width="0.5"></path></g><g id="group_4"><path id="vector_50" stroke="#120071" stroke-linecap="round" stroke-linejoin="round" d="m51.8749875 165.3505875 3.6977325 3.6987300000000003" stroke-width="0.5"></path><path id="vector_51" stroke="#120071" stroke-linecap="round" stroke-linejoin="round" d="m51.8749875 169.04931750000003 3.6977325 -3.6987300000000003" stroke-width="0.5"></path></g><path id="vector_52" stroke="#120071" stroke-linecap="round" stroke-linejoin="round" d="m173.71562250000002 60.2400225 3.170055 5.2288950000000005 3.7276575000000003 -7.811422500000001" stroke-width="0.5"></path></g></g></svg>