<svg width="279" height="212" viewBox="0 0 279 212" fill="none" xmlns="http://www.w3.org/2000/svg">
<path d="M79.2297 37.7354C79.8233 43.2811 80.042 48.8268 79.7452 54.4038C79.7452 54.685 79.6983 57.9187 79.9639 57.5125C80.5731 57.7312 80.5106 57.7468 79.792 57.575C79.3859 57.4969 78.9797 57.4344 78.5736 57.3875C76.0585 57.1376 73.0591 57.5437 70.6533 56.8095C66.5761 55.5754 65.342 51.3107 61.8739 49.4986C58.6246 47.7958 55.594 49.7173 54.3912 52.7947C53.1883 55.8722 56.2033 58.4498 58.9058 58.731C60.8585 58.9341 62.7644 59.2153 64.6859 59.6214C65.8262 59.8714 67.982 60.9649 68.9818 60.7149C70.0597 61.3242 70.3097 60.9024 69.716 59.4496L69.6067 60.4494C69.5755 61.4179 69.5286 62.4958 69.8566 63.4487C71.3407 67.8228 76.7302 68.1509 80.6356 67.526C85.6189 66.7293 85.7752 62.5114 85.2596 58.3561C84.4786 51.8574 83.1976 45.4057 82.1197 38.9539C81.2761 33.8925 74.5432 35.1578 73.0747 38.9539C71.122 43.9841 69.4036 49.0768 67.8883 54.2632L77.0895 55.5129C76.7927 49.9828 76.1834 44.4996 75.3242 39.0164C74.6525 34.6736 68.7787 34.9391 66.7635 37.8916C64.9202 40.5942 63.3424 43.3748 61.9833 46.343L70.544 49.9516C71.3251 46.218 71.8562 42.4844 72.1687 38.6727C72.6529 32.6584 63.2799 32.6896 62.7956 38.6727C62.5613 41.6408 62.1239 44.5465 61.5147 47.4521C60.4836 52.3261 67.7321 56.169 70.0753 51.0607C71.4344 48.0926 73.0122 45.3119 74.8556 42.6094L66.2949 41.4846C67.0291 46.1399 67.4665 50.7795 67.7165 55.4817C67.9977 60.6681 75.4023 61.9491 76.9177 56.7314C78.433 51.5138 80.167 46.4523 82.1041 41.4221H73.0591C73.6683 45.0932 74.2776 48.78 74.8868 52.4511C75.1836 54.2475 75.5117 56.0441 75.7773 57.8562L76.0741 60.0744C76.0741 62.2771 76.2147 62.3865 76.5271 60.4337L79.3234 58.2779C78.8704 58.2155 78.4017 58.1998 77.9331 58.2155C76.4178 58.028 76.7458 58.7778 78.9329 60.4337C79.1203 60.4025 79.011 58.6685 78.9953 58.481C78.8079 56.1378 77.6363 54.4975 75.6835 53.2946C71.0283 50.4046 64.1703 49.9047 58.8433 49.3423L63.358 55.2786L63.5142 54.888L60.2337 58.1686L60.6867 58.0592L56.1252 56.8564C59.7338 59.887 62.0458 63.5893 66.7167 65.3546C69.2162 66.3075 71.6844 66.3856 74.3244 66.495C76.9645 66.6043 79.5577 67.3229 82.0728 67.0105C86.8687 66.4169 88.3215 62.5739 88.7589 58.3248C89.4463 51.4669 89.2588 44.5777 88.5246 37.7354C87.8841 31.7992 78.5111 31.7367 79.1516 37.7354H79.2297Z" fill="#EFAE79"/>
<path d="M59.4057 61.5732L58.3122 71.5555H67.6852L67.5915 70.79C66.9823 65.6036 60.2337 64.3383 58.3903 69.5403C56.547 74.7423 60.2962 79.8506 65.1858 81.2722C70.0754 82.6938 77.6519 82.1158 79.7921 77.0075C80.7918 74.633 80.4638 71.5711 79.3234 69.2747C77.9018 66.416 75.1837 65.2912 72.0749 65.5724C66.6073 66.0879 62.5613 72.9458 67.3884 77.1012C68.8413 78.3509 71.3407 79.1164 73.0747 77.8354C78.0424 74.1799 77.1832 68.2437 72.6686 64.557L68.107 72.3834L74.137 73.7425C80.0108 75.0704 82.5259 66.041 76.6365 64.6976L70.6065 63.3385C66.4355 62.4012 62.1708 67.9937 66.045 71.165C66.4199 71.4461 66.7636 71.743 67.0916 72.071C67.9352 73.0864 68.357 72.3053 68.3414 69.7278L74.0277 70.462H74.0589C74.2776 71.2431 74.4807 72.0242 74.6994 72.8209C73.1841 73.477 72.6842 74.1799 73.2309 74.9298L71.1689 73.7269L71.7469 74.383L70.544 72.321C70.7315 72.7271 70.8721 73.1489 70.9658 73.5863C71.0908 74.3205 71.1845 74.1331 71.2314 73.0083L73.2934 71.8054C71.9187 72.3835 70.3566 72.4772 68.8725 72.3991C68.4195 72.3678 67.9821 72.321 67.5603 72.2429C67.076 72.1491 67.4197 72.1335 67.4509 72.0398L58.2497 70.79L58.3435 71.5555C59.0464 77.5542 67.0448 77.6011 67.7165 71.5555L68.81 61.5732C69.0912 59.0581 66.4511 56.8867 64.1235 56.8867C61.3585 56.8867 59.7182 59.0425 59.437 61.5732H59.4057Z" fill="#EFAE79"/>
<path d="M56.9375 154.117C56.7188 156.788 56.6719 159.428 56.7656 162.099C56.8594 164.583 58.8433 166.848 61.4522 166.786C70.3878 166.583 85.7283 168.66 89.9774 158.194C91.4458 154.57 90.0711 150.321 86.1188 149.149C83.7131 148.43 81.073 149.133 78.6204 149.399C77.027 149.571 75.4492 149.743 73.8558 149.93L71.9499 150.133C69.9816 149.727 69.5286 150.211 70.5752 151.586C69.966 148.883 67.2166 147.977 64.8108 148.305C63.6861 148.462 62.5457 148.618 61.4209 148.774L65.0295 157.335C65.3107 157.163 69.6223 154.367 68.0133 154.445C68.6225 154.413 70.5909 156.163 71.2313 156.429C74.1214 157.678 77.2301 157.6 80.3076 157.272C86.2438 156.647 86.3063 147.274 80.3076 147.899C78.5892 148.087 76.4334 148.508 74.7618 147.837C72.981 147.118 72.2155 145.65 70.1222 145.306C65.9981 144.634 63.5142 147.274 60.2805 149.258C55.4378 152.226 58.8746 158.506 63.8891 157.819C65.0139 157.663 66.1543 157.507 67.2791 157.35L61.5146 154.07C62.3895 157.96 65.4669 159.787 69.3567 159.756C71.7781 159.74 74.2932 159.241 76.6989 158.975C78.7298 158.756 82.1197 157.694 84.0724 158.334L81.2761 156.179C80.7293 155.351 76.4646 156.944 76.0584 156.991C74.5588 157.178 73.0122 157.132 71.4969 157.178C68.1382 157.257 64.7952 157.335 61.4365 157.413L66.123 162.099C66.0293 159.428 66.0762 156.788 66.2949 154.117C66.7792 148.102 57.4061 148.134 56.9219 154.117H56.9375Z" fill="#EFAE79"/>
<path d="M83.3851 157.412C89.415 157.412 89.4307 148.039 83.3851 148.039C77.3395 148.039 77.3395 157.412 83.3851 157.412Z" fill="#EFAE79"/>
<path d="M60.468 167.691C66.498 167.691 66.5136 158.318 60.468 158.318C54.4224 158.318 54.4224 167.691 60.468 167.691Z" fill="#EFAE79"/>
<path d="M133.015 65.5264C133.359 69.8849 131.625 74.1027 132.156 78.4612C132.437 80.8201 133.374 83.0071 134.171 85.2254C135.952 90.1775 137.155 92.9113 142.732 92.9269C146.216 92.9269 147.637 92.2708 149.418 89.1621C150.371 87.5218 150.777 86.8657 152.339 85.8502C153.573 85.0535 154.745 84.4287 155.542 83.1008C159.619 76.3054 151.917 70.0255 145.513 71.6189L150.074 79.4454C157.104 73.7591 149.949 62.4333 142.045 67.3854C136.952 70.5878 141.654 78.6955 146.778 75.4774L143.435 72.8218C139.592 75.9305 143.794 81.7105 147.996 80.6482L147.59 77.7426C147.09 77.8988 146.622 78.1331 146.2 78.4456C145.434 78.6799 144.419 79.789 143.919 80.3358C142.638 81.7105 142.216 83.7726 141.076 85.0848L144.388 83.7101C143.607 83.6944 142.857 83.5226 142.06 83.5539C137.436 83.7101 144.294 84.3349 144.138 85.3191C144.325 84.1944 142.888 81.8823 142.498 80.7888C140.654 75.5555 142.779 70.9159 142.373 65.5264C141.904 59.5433 132.531 59.4964 133 65.5264H133.015Z" fill="#EFAE79"/>
<path d="M142.966 68.6816C143.779 68.7128 143.732 68.6503 142.794 68.4785C143.279 68.8065 143.435 68.8846 143.279 68.7441C143.575 69.2283 143.997 69.4783 144.325 70.0719C144.888 71.1029 145.06 72.0715 145.044 73.2431C144.997 79.2731 154.37 79.2887 154.417 73.2431C154.464 66.8538 150.168 59.1679 142.982 59.3085C136.952 59.4335 136.936 68.8065 142.982 68.6816H142.966Z" fill="#EFAE79"/>
<path d="M140.889 66.7121C141.685 67.0714 142.498 67.4151 143.341 67.6963C143.825 67.8525 144.497 68.2118 144.997 68.2587C144.638 68.2274 144.138 67.9619 144.856 68.2587C145.294 68.4305 144.247 67.5557 144.747 68.1806C144.341 67.6807 144.2 67.2277 144.325 66.6028C143.841 68.9929 145.013 71.7736 147.606 72.3672C149.933 72.8983 152.855 71.6642 153.37 69.0866C153.948 66.1498 153.277 63.1348 150.918 61.1508C149.777 60.1823 148.606 59.6355 147.2 59.12C146.794 58.9794 146.387 58.8544 145.981 58.7294C145.7 58.6357 144.372 58.0733 145.622 58.6357C143.388 57.6203 140.482 57.9171 139.217 60.3229C138.139 62.3693 138.514 65.6499 140.904 66.7278L140.889 66.7121Z" fill="#EFAE79"/>
<path d="M140.186 86.1172C146.216 86.1172 146.231 76.7441 140.186 76.7441C134.14 76.7441 134.14 86.1172 140.186 86.1172Z" fill="#EFAE79"/>
<path d="M146.497 91.2558C152.527 91.2558 152.542 81.8828 146.497 81.8828C140.451 81.8828 140.451 91.2558 146.497 91.2558Z" fill="#EFAE79"/>
<path d="M145.622 91.6288C145.622 91.6288 145.481 91.6601 145.403 91.6757L145.825 91.6132C145.684 91.6288 145.544 91.6288 145.403 91.6132L145.825 91.6757C145.684 91.6601 145.559 91.6132 145.419 91.5663L145.794 91.7226C145.669 91.6757 145.559 91.5976 145.45 91.5195L145.762 91.7694H145.747C145.606 91.5976 145.434 91.4882 145.247 91.4257C145.06 91.332 144.856 91.2852 144.638 91.2852C144.419 91.2852 144.216 91.3164 144.028 91.4257C143.841 91.4882 143.669 91.5976 143.529 91.7538L143.279 92.0662C143.138 92.3162 143.06 92.5661 143.06 92.8473L143.122 93.2691C143.201 93.5347 143.326 93.769 143.529 93.9565C143.732 94.1127 143.919 94.2845 144.153 94.3939C144.388 94.5032 144.622 94.6126 144.888 94.6594C145.153 94.7063 145.403 94.7532 145.669 94.7532C145.856 94.7532 146.059 94.7063 146.247 94.6907C146.309 94.6907 146.387 94.6594 146.45 94.6438C146.653 94.5969 146.825 94.5032 146.981 94.3626C147.153 94.2533 147.278 94.1127 147.387 93.9252C147.497 93.7534 147.559 93.5503 147.575 93.3472C147.621 93.1441 147.606 92.9254 147.543 92.7223L147.387 92.3474C147.247 92.1131 147.059 91.9256 146.825 91.7851L146.45 91.6288C146.169 91.5507 145.903 91.5507 145.622 91.6288Z" fill="#EFAE79"/>
<path d="M133.937 87.7418C134.671 88.9759 135.765 90.0382 137.046 90.6787C137.42 90.8662 137.842 90.9443 138.248 90.8349C138.608 90.7412 138.998 90.46 139.186 90.1163C139.373 89.757 139.467 89.3196 139.342 88.9134C139.217 88.5385 138.983 88.1636 138.623 87.9761C138.264 87.7887 137.936 87.5856 137.624 87.3356L137.936 87.5856C137.514 87.2575 137.139 86.8826 136.811 86.4452L137.061 86.7576C136.905 86.5546 136.764 86.3515 136.639 86.1484C136.436 85.8047 136.093 85.5392 135.702 85.4298C135.312 85.3205 134.827 85.3673 134.499 85.586C134.171 85.8047 133.874 86.1172 133.781 86.5233C133.687 86.9295 133.718 87.3669 133.937 87.7262V87.7418Z" fill="#EFAE79"/>
<path d="M143.076 93.4427C145.091 93.4427 145.091 90.3184 143.076 90.3184C141.06 90.3184 141.06 93.4427 143.076 93.4427Z" fill="#EFAE79"/>
<path d="M142.17 93.4427C144.185 93.4427 144.185 90.3184 142.17 90.3184C140.154 90.3184 140.154 93.4427 142.17 93.4427Z" fill="#EFAE79"/>
<path d="M57.2812 168.63C66.9354 170.473 76.9489 169.536 86.0251 165.756C87.8528 164.99 87.0561 161.975 85.1971 162.741C76.6365 166.302 67.2166 167.349 58.1091 165.615C56.1408 165.24 55.2972 168.255 57.2812 168.63Z" fill="#EFAE79"/>
<path d="M91.5083 26.1899C90.7116 25.0027 89.3994 24.2685 87.9778 24.1903C86.7906 24.2528 85.6814 24.7527 84.8222 25.5651C84.4161 23.9092 83.057 22.6594 81.3698 22.3939C78.308 22.1283 75.3399 23.503 73.5434 26.0025C71.9968 21.0035 64.2641 21.1597 62.077 27.8458C59.5307 26.5648 55.7971 27.6115 53.8444 31.5482C51.7042 35.9222 51.3762 43.1395 54.8911 50.1536C55.1254 50.5598 55.6565 50.2005 55.4847 49.7943C55.4691 49.7475 55.4378 49.685 55.4222 49.6537C56.7969 48.5914 58.7184 48.5758 60.0931 49.6381C60.3118 49.7787 60.593 49.7318 60.7804 49.56C63.8267 46.2169 65.4357 41.8116 65.2639 37.297C70.9814 38.9529 77.0583 38.9997 82.807 37.4376C85.6814 36.8596 88.3371 35.5005 90.4773 33.5165C92.2425 31.6107 93.1486 28.5019 91.5083 26.2055V26.1899ZM86.6187 34.0633C85.0878 34.8287 84.2911 33.579 85.4784 32.751C86.9624 31.9543 88.0247 30.5484 88.384 28.8925C88.4933 28.5019 88.8683 28.2676 89.2588 28.3301C89.6494 28.377 89.9462 28.705 89.9462 29.0956C89.6806 31.1889 88.4465 33.0166 86.6031 34.0476L86.6187 34.0633Z" fill="#5C332B"/>
<path d="M108.63 112.514C108.302 110.077 108.067 107.578 107.63 105.156C107.567 104.766 106.943 104.86 106.943 105.25C107.193 109.609 107.677 113.951 108.395 118.263C108.395 118.888 108.567 119.497 108.864 120.044C109.036 120.2 109.286 120.2 109.458 120.044C109.505 119.997 109.536 119.935 109.551 119.888C109.723 119.482 109.551 119.154 108.63 112.53V112.514Z" fill="#191919"/>
<path d="M72.0437 50.2636C72.0437 51.5602 73.1841 52.5443 74.1839 51.5289C74.6682 51.0603 74.7619 50.3104 74.4182 49.7324C74.0902 49.1232 73.3247 48.8889 72.6998 49.2169C72.3093 49.42 72.0593 49.8262 72.0281 50.2636H72.0437Z" fill="#191919"/>
<path d="M82.8227 51.1692C83.6038 52.6377 85.0097 51.7004 85.1347 50.6381C85.1972 50.31 85.1347 49.982 84.9472 49.7164C83.8537 48.2948 81.8697 49.3884 82.8227 51.1692Z" fill="#191919"/>
<path d="M74.6056 57.7624C75.6679 58.3092 76.7927 58.6997 77.9487 58.934C79.0578 59.0434 80.0889 58.3716 80.4482 57.3094C80.6981 56.2002 80.6981 55.0598 80.4638 53.9507C80.2138 51.0138 79.6983 48.1082 78.9485 45.265C78.7766 44.9213 78.308 45.1244 78.2767 45.4369C78.2767 46.0305 78.3392 46.6397 78.4955 47.2177C79.0266 50.1546 79.3859 53.1227 79.589 56.0909C79.5733 56.9657 79.2297 57.8093 78.2455 57.8561C77.0426 57.9186 75.996 57.0594 74.9025 56.7001C74.59 56.6532 74.3088 56.8719 74.2776 57.1688C74.2463 57.4187 74.3869 57.6687 74.6056 57.7624Z" fill="#191919"/>
<path d="M73.4965 61.7927C72.0749 61.324 71.7156 59.7775 71.0908 58.6215C70.8564 58.1997 70.2784 58.5121 70.3409 58.9495C70.7627 61.6521 72.6529 63.6517 75.5898 63.0268C77.8237 62.5894 78.0268 61.5896 77.4957 61.4021C76.7614 61.1991 75.2461 62.4176 73.4809 61.8083L73.4965 61.7927Z" fill="#191919"/>
<path d="M69.0131 44.8877C69.2162 44.419 69.4661 43.9816 69.7629 43.5755C70.3097 42.7788 71.0283 42.1383 71.8875 41.6853C72.3405 41.4509 72.8091 41.3416 73.2622 41.1073C73.4652 40.9823 73.5277 40.7167 73.4028 40.5136C73.3247 40.3887 73.1997 40.3105 73.0591 40.3105C71.3719 40.5449 69.8879 41.5603 69.0287 43.0443C68.7475 43.5286 68.5444 44.0754 68.4507 44.6378C68.2476 44.9814 68.8881 45.2158 69.0287 44.8877H69.0131Z" fill="#191919"/>
<path d="M82.1821 41.2025C82.9164 41.6555 83.6037 42.2023 84.213 42.8115C84.7753 43.4364 85.2128 44.1706 85.4627 44.9829C85.5721 45.3266 85.7908 46.2327 86.3219 45.9515C86.7749 45.7172 86.5406 44.9517 86.4312 44.5768C85.9626 43.2021 85.0565 42.0148 83.8537 41.1869C83.4163 40.9213 82.932 40.7338 82.4165 40.6245C82.2446 40.5932 82.0728 40.7026 82.0416 40.8588C82.0103 40.9838 82.0728 41.1244 82.1821 41.2025Z" fill="#191919"/>
<path d="M156.213 79.8982C156.073 78.3204 155.12 76.9144 153.683 76.2271C152.402 75.7116 151.043 75.3991 149.668 75.2898C148.278 75.0554 146.856 75.0711 145.466 75.3366C144.95 75.446 145.106 76.1802 145.591 76.2114C148.043 76.149 150.496 76.4301 152.886 77.0706C153.73 77.3831 154.433 77.9923 154.854 78.789C155.245 79.5857 155.432 80.4605 155.417 81.3354C155.37 81.6322 155.823 81.6634 155.917 81.3978C156.12 80.9292 156.229 80.4137 156.213 79.8982Z" fill="#191919"/>
<path d="M149.512 71.1793C151.621 71.8979 153.214 73.6163 153.792 75.7721C153.839 75.9752 154.058 76.1001 154.261 76.0376C154.464 75.9752 154.589 75.7721 154.526 75.569C154.386 74.3505 153.87 73.2101 153.073 72.2884C150.871 70.1795 147.934 68.961 144.888 68.8985C144.372 68.8829 143.513 68.8048 143.201 69.3047C143.107 69.4609 143.138 69.6484 143.263 69.7733C143.607 70.1326 144.357 70.0233 144.825 70.0233C146.45 70.0858 148.043 70.4607 149.512 71.1637V71.1793Z" fill="#191919"/>
<path d="M149.652 65.8699C151.652 67.0572 153.027 69.0568 153.448 71.3375C153.511 71.7281 154.089 71.6187 154.104 71.2594C154.089 69.2911 153.214 67.4165 151.699 66.1355C149.543 64.3234 146.887 63.183 144.091 62.8706C143.466 62.6519 142.779 62.6362 142.138 62.8081C141.935 62.9174 141.873 63.1674 141.982 63.3548C141.998 63.3861 142.029 63.4173 142.045 63.4486C142.56 63.9016 143.388 63.8547 144.044 63.9797C146.012 64.2453 147.918 64.8858 149.637 65.8699H149.652Z" fill="#191919"/>
<path d="M144.575 59.6355C146.434 59.6824 148.231 60.3385 149.684 61.4945C150.715 62.1506 151.558 63.0723 152.105 64.1502C152.23 64.5251 152.417 64.8688 152.636 65.1969C152.761 65.3218 152.98 65.3218 153.105 65.1969C153.152 65.15 153.167 65.1031 153.183 65.0563C153.261 64.6033 153.183 64.1346 152.995 63.7284C152.199 61.7289 149.559 60.073 147.528 59.2762C146.544 58.8388 145.434 58.7764 144.419 59.1357C144.138 59.2138 144.294 59.6356 144.575 59.6512V59.6355Z" fill="#191919"/>
<path d="M152.761 79.9274C152.62 79.6618 152.402 79.4587 152.121 79.3494C149.949 78.8026 147.7 78.5371 145.45 78.5995C144.028 78.4902 142.904 77.3654 142.794 75.9439C142.685 74.5535 143.622 73.2882 144.981 72.9914C146.497 72.6477 147.418 72.882 146.059 72.6008C145.466 72.5071 144.872 72.4758 144.278 72.4914C139.701 72.4914 139.529 66.5396 144.466 66.5396H144.685C142.919 66.1647 141.779 66.3053 140.576 65.2899C139.404 64.2744 139.264 62.4936 140.279 61.3219C140.748 60.7752 141.404 60.4315 142.107 60.369C141.779 59.5879 141.857 58.6975 142.295 57.9633C142.045 57.4946 141.795 57.026 141.545 56.5417C139.608 56.4948 137.702 56.8073 135.89 57.479C134.062 58.3538 132.5 59.6973 131.359 61.3844C132.343 63.3371 132.343 63.3059 132.781 64.1807C133.015 64.3369 133.218 64.54 133.375 64.7743C133.375 64.6337 133.39 64.4463 133.421 64.1651C133.562 62.6967 134.796 61.5563 136.28 61.5563C137.561 61.5563 138.67 62.4155 138.983 63.6652C139.529 66.7271 138.858 69.867 137.092 72.429C138.545 75.1784 143.013 83.536 143.825 84.9263C144.357 84.2546 144.981 83.6454 145.684 83.1455C147.278 81.8489 149.121 80.9116 151.105 80.3804C153.245 79.8493 152.761 80.1773 152.761 79.9274Z" fill="#191919"/>
<path d="M140.061 55.3862C140.342 55.3862 140.639 55.3706 140.92 55.3862C140.576 54.7145 138.967 51.7464 138.498 50.9028C138.264 50.3717 137.873 49.9186 137.389 49.6218C134.749 48.169 130.078 50.6372 128.188 52.9493C127.36 53.8709 127.735 53.9959 128.172 54.9176C128.516 55.6049 130.375 59.3542 130.984 60.5414C132.093 57.9794 135.28 55.6049 140.076 55.4019L140.061 55.3862Z" fill="#191919"/>
<path d="M153.027 81.1934C152.449 81.2558 151.886 81.3496 151.339 81.4902C149.48 82.0057 147.731 82.8961 146.216 84.0834C145.138 84.9269 144.841 85.3331 144.419 85.6924C144.981 86.2548 149.684 88.0513 152.074 89.3323C152.324 89.4729 152.636 89.3948 152.777 89.1604C152.792 89.1292 152.808 89.0823 152.823 89.0511C153.433 87.2702 153.948 85.4581 154.37 83.6303C153.48 83.1617 152.964 82.2088 153.042 81.209L153.027 81.1934Z" fill="#191919"/>
<path d="M73.4496 210.293C75.3242 202.966 78.2455 195.952 82.1353 189.453H81.2136C82.682 191.937 83.8693 194.577 84.7129 197.342C86.1032 201.467 88.5246 209.293 89.2744 211.168C89.3525 211.418 89.6337 211.558 89.8837 211.464C90.118 211.386 90.2429 211.152 90.1961 210.902C89.8055 209.356 89.2744 207.871 88.7745 206.356C86.7124 200.014 84.7753 193.046 82.0884 188.875C81.9322 188.626 81.6041 188.547 81.3386 188.704C81.2605 188.751 81.2136 188.813 81.1667 188.875C76.0897 197.233 73.2622 205.981 72.7466 210.059C72.6998 210.543 73.309 210.73 73.4496 210.277V210.293Z" fill="#191919"/>
<path d="M116.362 166.957C120.112 176.377 123.314 186 125.939 195.794C127.407 201.309 127.329 202.324 128.079 204.152C128.251 204.542 128.875 204.542 128.844 204.043C128.75 202.762 128.547 201.496 128.204 200.278C125.86 190.155 122.72 180.251 118.799 170.628C118.284 169.284 117.69 167.972 117.003 166.707C116.909 166.535 116.69 166.472 116.534 166.582C116.394 166.66 116.331 166.816 116.362 166.972V166.957Z" fill="#191919"/>
<path d="M193.471 116.875C193.424 116.235 192.565 116.079 191.862 116.079C189.363 116.001 172.382 116.001 166.399 116.219C166.18 116.157 165.946 116.282 165.883 116.501C165.852 116.579 165.868 116.672 165.883 116.75C165.18 120.953 165.508 136.902 165.946 141.636C165.993 142.276 166.852 142.433 167.555 142.433C170.226 142.511 187.16 142.511 193.018 142.292C193.237 142.354 193.471 142.229 193.534 142.011C193.565 141.933 193.565 141.839 193.534 141.761C194.237 137.605 193.909 121.562 193.471 116.875ZM167.086 141.402C167.024 139.839 166.899 138.277 166.836 136.699C166.336 124.155 166.93 119.719 166.727 116.985C167.477 117 192.3 117.11 192.3 117.11C192.378 119.125 192.643 122.077 192.706 126.655C192.909 136.559 192.487 139.105 192.659 141.527C185.613 141.323 166.945 141.402 167.086 141.402Z" fill="#191919"/>
<path d="M210.358 14.8787C210.358 14.8787 276.407 15.0505 277.782 14.9255C278.266 14.9255 278.36 14.8787 278.516 14.8787C278.984 14.8787 279.141 14.1913 278.656 14.0819C278.484 14.0819 278.422 14.0351 278.235 14.0351C278.172 14.0351 277.891 13.9882 277.891 13.9882C277.828 13.9882 276.625 13.8945 276.157 13.8789C274.423 13.832 210.327 13.9414 210.327 13.9414C209.749 13.957 209.749 14.9255 210.374 14.863L210.358 14.8787Z" fill="#6F93FC"/>
<path d="M278.703 47.4374C278.531 47.4374 278.469 47.3906 278.281 47.3906C278.219 47.3906 277.938 47.3437 277.938 47.3437C277.875 47.3437 276.672 47.25 276.204 47.2343C274.47 47.1875 210.374 47.2968 210.374 47.2968C209.749 47.3593 209.749 48.3279 210.374 48.281C210.436 48.281 276.422 48.4528 277.797 48.3279C278.281 48.3279 278.375 48.281 278.531 48.281C278.937 48.281 279.25 47.5468 278.719 47.4218L278.703 47.4374Z" fill="#6F93FC"/>
<path d="M278.703 81.1151C278.531 81.1151 278.469 81.0683 278.281 81.0683C278.219 81.0683 277.938 81.0214 277.938 81.0214C277.875 81.0214 276.672 80.9277 276.204 80.9121C274.47 80.8652 210.374 80.9745 210.374 80.9745C209.749 81.037 209.749 82.0056 210.374 81.9587C210.436 81.9587 276.422 82.1306 277.797 82.0056C278.281 82.0056 278.375 81.9587 278.531 81.9587C278.937 81.9587 279.25 81.2089 278.719 81.0995L278.703 81.1151Z" fill="#6F93FC"/>
<path d="M249.553 121.203C246.913 121.062 210.218 121.25 210.389 121.25C209.765 121.312 209.749 122.281 210.389 122.234C210.78 122.187 249.194 122.468 250.475 122.249H250.553C250.553 122.249 250.631 122.249 250.662 122.234C250.693 122.234 250.709 122.234 250.725 122.218C250.772 122.218 250.803 122.202 250.85 122.202C251.35 122.202 251.49 121.515 250.99 121.406C250.959 121.406 250.725 121.343 250.662 121.343C250.631 121.343 250.615 121.343 250.6 121.328C250.553 121.328 250.537 121.328 250.506 121.312C250.459 121.312 250.412 121.312 250.381 121.296C250.147 121.296 249.834 121.25 249.522 121.234L249.553 121.203Z" fill="#6F93FC"/>
<path d="M250.943 122.201C250.943 122.201 250.896 122.201 250.881 122.216C250.865 122.201 251.021 122.17 250.943 122.201Z" fill="#6F93FC"/>
<path d="M278.703 91.9433C278.531 91.9433 278.469 91.8964 278.281 91.8964C278.219 91.8964 277.938 91.8495 277.938 91.8495C277.875 91.8495 276.672 91.7558 276.204 91.7402C274.47 91.6933 210.374 91.8027 210.374 91.8027C209.749 91.8652 209.749 92.8337 210.374 92.7868C210.436 92.7868 276.422 92.9587 277.797 92.8337C278.281 92.8337 278.375 92.7868 278.531 92.7868C278.937 92.7868 279.25 92.0526 278.719 91.9276L278.703 91.9433Z" fill="#6F93FC"/>
<path d="M278.703 130.434C278.469 130.434 278.188 130.324 276.188 130.246C274.454 130.199 210.358 130.309 210.358 130.309C209.733 130.371 209.733 131.34 210.358 131.293C210.577 131.261 276.251 131.48 277.782 131.34C278.266 131.34 278.36 131.293 278.516 131.293C278.938 131.293 279.219 130.527 278.703 130.434Z" fill="#6F93FC"/>
<path d="M239.008 24.2849C238.899 24.238 238.774 24.1911 238.649 24.1755H238.634C238.087 23.8943 210.218 24.1286 210.358 24.1286C209.765 24.2068 209.718 25.1597 210.358 25.1128C211.046 25.0659 238.055 25.3784 238.915 25.0972C238.962 25.0972 238.977 25.0816 239.024 25.0816C239.087 25.0816 239.133 25.0347 239.165 25.0035H239.18C239.383 24.7691 239.383 24.3786 239.008 24.3005V24.2849ZM238.649 24.2068C238.743 24.2068 238.93 24.2692 238.696 24.2068H238.649Z" fill="#6F93FC"/>
<path d="M178.599 27.0651C179.115 27.5806 179.958 27.5806 180.49 27.0651C186.238 20.4415 199.267 5.30405 200.064 4.36675C200.954 3.3982 201.673 2.27344 202.188 1.03933C202.469 0.336351 201.548 -0.241652 200.97 0.102025C199.142 1.36738 197.548 2.9608 196.252 4.77291C194.83 6.42881 180.802 22.6441 179.49 24.1751C178.178 22.8316 172.273 16.8641 171.835 16.4423C171.398 15.9737 170.867 15.5988 170.289 15.3332C169.523 14.8177 168.555 15.8331 169.023 16.5985C169.804 17.7702 167.727 15.9112 178.599 27.0807V27.0651Z" fill="#6F93FC"/>
<path d="M173.069 53.9983C173.866 54.8575 178.756 59.9346 180.396 61.6373C180.927 62.1529 181.755 62.1529 182.286 61.6373C188.035 55.0137 201.063 39.8763 201.86 38.939C202.75 37.9705 203.469 36.8457 203.985 35.6116C204.266 34.9086 203.344 34.3306 202.766 34.6743C200.938 35.9396 199.345 37.5331 198.048 39.3452C196.627 41.0011 182.598 57.2164 181.286 58.7473C179.974 57.4039 174.069 51.4364 173.632 51.0146C173.194 50.5459 172.663 50.171 172.085 49.9054C171.32 49.3899 170.351 50.4053 170.82 51.1708C171.538 52.2487 170.445 51.202 173.069 54.014V53.9983Z" fill="#6F93FC"/>
<path d="M203.938 71.6665C202.11 72.9475 200.517 74.5253 199.22 76.3374C197.798 77.9933 183.77 94.2086 182.458 95.7395C181.146 94.3961 175.241 88.4286 174.803 88.0068C174.366 87.5381 173.835 87.1632 173.257 86.8976C172.491 86.3821 171.523 87.3975 171.991 88.163C172.148 88.413 172.273 88.6629 172.397 88.9285C172.897 89.7408 181.427 98.4889 181.567 98.6452C182.083 99.1607 182.927 99.1607 183.458 98.6452C189.206 92.0216 202.235 76.8841 203.032 75.9468C203.922 74.9783 204.641 73.8535 205.156 72.6194C205.453 71.9164 204.531 71.3384 203.938 71.6821V71.6665Z" fill="#6F93FC"/>
<path d="M191.518 17.9434C191.643 26.4104 191.284 29.2692 191.456 31.4718C190.706 31.4562 165.883 31.3469 165.883 31.3469C165.758 28.1913 165.305 24.7233 165.477 12.0541C165.493 10.3669 165.649 8.6329 165.524 6.93013C166.274 6.94575 191.081 7.05511 191.081 7.05511C191.331 6.77392 191.581 6.49273 191.784 6.22716C191.565 6.00845 190.878 6.05532 190.675 6.05532C188.16 5.97721 171.21 5.97721 165.212 6.19591C164.993 6.13343 164.759 6.2584 164.696 6.47711C164.665 6.55522 164.68 6.64895 164.696 6.72706C163.993 10.9293 164.321 26.8947 164.758 31.6124C164.805 32.2529 165.665 32.4091 166.368 32.4091C168.883 32.4872 185.832 32.4872 191.831 32.2685C192.05 32.331 192.284 32.206 192.346 31.9873C192.378 31.9092 192.378 31.8155 192.346 31.7218C192.753 26.6916 192.862 21.6302 192.706 16.5843C192.3 17.0061 191.909 17.4904 191.534 17.9278L191.518 17.9434Z" fill="#191919"/>
<path d="M191.847 54.2458C191.909 60.6976 191.612 64.15 191.768 66.0402C191.019 66.0246 166.196 65.9152 166.196 65.9152C166.071 62.7752 165.618 59.2916 165.79 46.6224C165.805 44.9353 165.961 43.2013 165.836 41.4985C166.586 41.5141 191.409 41.6235 191.409 41.6235C191.425 42.1546 191.456 42.717 191.487 43.2481C191.878 42.7951 192.253 42.3421 192.628 41.9203C192.549 41.2329 192.659 40.6081 190.972 40.6081C188.753 40.5299 171.46 40.5299 165.508 40.7486C165.29 40.6862 165.055 40.8111 164.993 41.0298C164.962 41.1079 164.977 41.2017 164.993 41.2798C164.274 45.5133 164.634 61.6661 165.055 66.1652C165.102 66.8056 165.961 66.9619 166.664 66.9619C168.883 67.04 186.176 67.04 192.128 66.8213C192.346 66.8838 192.581 66.7588 192.643 66.5401C192.674 66.462 192.674 66.3682 192.643 66.2745C193.018 61.8067 193.143 57.3389 193.034 52.8555C192.659 53.2929 192.237 53.7459 191.862 54.2146L191.847 54.2458Z" fill="#191919"/>
<path d="M192.44 91.9115C192.44 100.004 192.19 100.285 192.362 102.409C191.612 102.394 166.789 102.284 166.789 102.284C166.664 99.1288 166.211 95.6764 166.383 82.9915C166.399 81.3044 166.555 79.5548 166.43 77.8676C167.18 77.8833 192.003 77.9926 192.003 77.9926C192.05 78.9299 192.112 79.8828 192.143 80.8514C192.549 80.3984 192.94 79.9453 193.299 79.5235C193.159 77.6177 193.44 77.0084 191.565 77.0084C189.347 76.9303 172.007 76.9303 166.102 77.149C165.883 77.0865 165.649 77.2115 165.586 77.4302C165.555 77.5083 165.571 77.6021 165.586 77.6802C164.868 81.9293 165.227 98.0977 165.649 102.566C165.696 103.206 166.555 103.362 167.258 103.362C169.492 103.44 186.801 103.44 192.721 103.222C192.94 103.284 193.174 103.159 193.237 102.94C193.268 102.862 193.252 102.769 193.237 102.691C193.721 99.7849 193.643 89.9432 193.643 90.5525C193.237 90.9742 192.846 91.4585 192.44 91.8959V91.9115Z" fill="#191919"/>
<path d="M87.7279 153.615C83.5412 154.849 79.2453 155.615 74.8868 155.927C73.4184 156.021 71.4813 155.99 71.6219 155.99C71.247 155.958 70.872 155.99 70.5127 156.052C70.2628 156.13 70.1378 156.411 70.2159 156.661C70.2628 156.802 70.3722 156.911 70.5127 156.958C70.872 157.052 71.247 157.099 71.6219 157.067C76.4646 157.13 81.2761 156.458 85.9157 155.099C86.6343 154.88 87.3217 154.599 87.9934 154.256C88.3371 154.084 88.0559 153.537 87.7122 153.615H87.7279Z" fill="#191919"/>
<path d="M85.7595 158.615C81.5417 159.693 77.2145 160.287 72.856 160.396C72.2468 160.318 71.6219 160.365 71.0282 160.568C70.8408 160.677 70.7939 160.927 70.9033 161.115C70.9345 161.162 70.9814 161.208 71.0282 161.24C71.6375 161.474 72.2936 161.552 72.9341 161.474C77.4019 161.521 81.8229 160.771 86.0251 159.271C86.3688 159.084 86.0876 158.553 85.7439 158.631L85.7595 158.615Z" fill="#191919"/>
<path d="M149.168 88.8343C148.34 89.5373 147.637 90.3652 147.075 91.3025C146.481 92.1305 146.137 93.1303 146.106 94.1457C142.31 93.6926 138.748 92.0992 135.858 89.5998C135.108 88.9437 134.468 88.2251 133.749 87.5377C134.577 86.5067 134.937 85.1788 134.718 83.8666C134.343 80.2424 131.562 77.4148 133.125 74.1187C134.218 71.8691 135.952 70.6819 136.639 67.167C136.858 66.1828 136.874 65.1518 136.655 64.1676C136.577 63.9489 136.343 63.8396 136.124 63.9177C135.968 63.9802 135.858 64.1208 135.843 64.2926C135.89 65.9954 135.562 67.6825 134.874 69.2447C133.531 72.0878 130.734 73.8375 131.828 78.1178C132.25 79.7737 133.093 81.2422 133.515 82.8981C133.921 84.1634 133.843 85.5381 133.312 86.7722C133.156 86.5848 132.859 86.5692 132.672 86.7254C132.656 86.741 132.625 86.7566 132.609 86.7879C130.297 89.2717 128.126 91.9118 126.032 94.5831C123.142 83.9291 117.987 72.2909 107.349 68.7604C100.569 66.5109 92.8674 68.0574 85.822 69.7602C84.3848 70.0258 83.0101 70.5569 81.776 71.3224L81.2293 71.6973C80.9012 70.7131 80.6981 69.6977 80.6044 68.6667C81.7135 68.6667 82.8227 68.5105 83.8849 68.1668C87.103 67.0889 88.7902 63.9177 89.3994 60.7934C90.4148 53.3106 90.3836 45.734 89.29 38.2669C89.1807 37.7045 88.9932 37.189 88.8839 36.6422C88.7901 36.2517 88.134 36.3454 88.1809 36.7203C88.259 37.642 88.2434 38.5637 88.3215 39.5166C89.0245 45.8746 89.0713 52.2952 88.4621 58.6532C88.134 61.5744 87.2905 64.9175 84.5567 66.4953C83.1039 67.2139 81.4792 67.5263 79.8545 67.4013C74.59 67.2295 69.4661 65.6361 65.0295 62.7929C64.5453 62.6055 64.2172 63.3085 64.5453 63.6209C65.1858 64.2145 65.9044 64.7144 66.6854 65.1049C70.4034 67.1514 74.5275 68.3543 78.761 68.6042C79.0422 68.6198 79.2922 68.6198 79.5733 68.6511C79.5265 69.932 79.7452 71.1974 80.1982 72.4003C78.433 73.5719 76.4646 74.3842 74.3869 74.8216C68.685 76.0401 62.7332 74.3842 58.484 70.3851C59.2495 66.4172 59.5307 62.3711 59.2808 58.3407C59.2808 57.9814 58.9839 57.7003 58.6403 57.7003C56.8281 57.6534 55.2816 56.3568 54.9379 54.5759C54.2974 51.436 57.578 48.0148 59.8744 50.0456C60.0775 50.2331 60.3899 50.2175 60.5774 50.0144C60.718 49.8582 60.7492 49.6238 60.6555 49.4364C60.015 48.3429 58.7028 47.8586 57.4999 48.2804C54.5474 49.327 52.9852 52.5607 54.0319 55.5288C54.2662 56.2162 54.6411 56.8411 55.1254 57.3878C55.9221 58.2158 56.9531 58.7469 58.0779 58.9031C58.2654 62.6211 57.9998 66.3391 57.2812 69.9789C52.0323 67.7919 46.1429 66.1828 40.4722 67.3232C35.2077 68.5417 30.4119 71.2443 26.647 75.1028C22.726 79.1957 19.3986 83.8197 16.7585 88.8499C11.0097 99.1446 6.52627 110.111 3.4488 121.499C0.543162 132.325 -2.61242 147.025 3.51129 155.945C6.44817 160.007 10.5567 163.069 15.2744 164.74C20.9607 166.927 27.0844 167.505 33.1144 167.974C34.9578 168.114 36.7855 168.239 38.582 168.333C35.2077 177.847 32.7082 187.657 31.1305 197.624C30.0994 204.341 30.115 204.56 30.2088 206.091C30.2088 206.263 30.3494 206.403 30.5212 206.388C30.6618 206.388 30.7711 206.294 30.818 206.169C31.0055 205.575 31.1461 204.982 31.2398 204.372C33.5831 187.392 35.5358 181.518 39.3787 168.364C45.0806 168.677 50.7982 168.349 56.4376 167.38C56.6407 167.333 56.8125 167.162 56.8438 166.958C63.8735 167.833 71.0127 167.568 77.9643 166.177C79.9639 165.834 81.9166 165.287 83.8224 164.553C84.1036 164.428 83.9474 163.865 83.6037 163.912C81.2761 164.209 71.1376 167.755 56.7969 165.927C56.6875 163.959 56.7657 161.975 57.0469 160.007C57.5624 154.977 58.3122 151.821 58.3747 150.493C61.8271 151.196 65.3576 146.963 68.5913 146.385C68.8569 146.353 69.1068 146.26 69.3255 146.103C69.4817 146.01 69.5286 145.791 69.4192 145.635C69.3724 145.572 69.3099 145.525 69.2318 145.494C68.7319 145.307 68.4976 145.4 67.7477 145.588C66.3261 146.072 64.9671 146.76 63.7329 147.619C62.1395 148.869 60.2024 149.587 58.1872 149.696C57.8748 149.259 57.4999 148.869 57.0937 148.525C52.5634 144.166 43.6278 138.277 33.0051 134.122C33.1769 132.684 33.13 131.2 33.1925 129.748C33.4425 125.03 34.1298 120.343 35.2233 115.75C35.7545 114.032 36.1919 112.282 36.5356 110.517C36.5356 110.299 36.3481 110.127 36.1294 110.127C35.9888 110.127 35.8638 110.205 35.8013 110.314C34.9109 111.564 33.5518 117.938 33.255 119.531C32.5676 123.327 31.7709 130.638 32.2083 133.794C27.3031 131.95 22.2261 130.607 17.0553 129.779C16.2898 129.654 15.9618 130.825 16.7429 130.95C30.2556 133.2 42.9717 138.793 53.7663 147.213C52.2822 149.962 50.2983 159.601 50.97 166.912C43.5809 167.427 36.1763 167.24 28.8341 166.349C20.8201 165.521 12.525 163.756 6.72935 157.867C2.77706 153.852 1.35549 149.103 1.26176 143.448C0.886838 125.608 13.103 93.349 24.5068 79.3207C29.5995 73.0876 36.598 68.1356 44.612 68.1356C48.9079 68.3074 53.1258 69.3228 57.0156 71.1349C56.75 74.6186 59.2183 79.1801 64.2016 81.2578C70.1691 83.7572 77.7769 82.2732 80.5419 76.8368C81.1824 75.7277 81.4792 74.4467 81.4011 73.1657C81.9322 72.8064 82.4477 72.369 83.0257 72.0566C84.3223 71.4317 85.7127 70.9943 87.1343 70.7756C92.68 69.4946 98.5537 68.2449 104.224 69.2291C109.442 70.1976 114.082 73.1501 117.175 77.4617C122.08 83.726 124.158 92.3023 125.626 95.2392C120.94 101.035 116.753 107.221 113.113 113.735C113.019 113.907 113.066 114.126 113.238 114.235C113.41 114.329 113.629 114.282 113.738 114.11C114.738 112.532 118.737 106.44 120.94 103.331C124.361 98.4729 128.219 93.6302 129.188 92.521C131 94.1301 132.984 95.5516 135.077 96.7701C138.436 98.8322 142.263 99.9726 146.2 100.098C145.122 111.017 143.029 116.891 141.654 122.89C141.592 123.202 142.06 123.452 142.216 123.124C143.029 121.421 143.654 119.625 144.107 117.781C146.184 110.283 147.403 102.581 147.762 94.8174C147.715 94.505 147.45 94.2707 147.137 94.255C147.028 94.255 146.934 94.255 146.825 94.2394C147.231 92.8803 147.903 91.6306 148.824 90.5683C149.199 90.1934 149.527 89.756 149.762 89.2873C149.887 88.9749 149.449 88.7093 149.199 88.8655L149.168 88.8343ZM54.4224 147.822C55.4378 148.587 56.3595 149.447 57.1718 150.415C57.1718 151.618 55.0317 162.6 55.6565 166.349C54.4849 166.568 53.282 166.74 52.0948 166.865C51.9854 165.662 51.9073 164.521 51.9073 163.365C51.9698 158.085 52.829 152.852 54.438 147.822H54.4224ZM57.9529 71.6661C63.8579 76.9462 72.4186 78.0085 79.4484 74.353C79.7452 74.2124 80.042 74.0249 80.3076 73.8843C78.6517 84.6321 59.2964 83.7885 57.9529 71.6817V71.6661ZM146.247 98.9259C145.06 98.9103 143.857 98.7853 142.685 98.5666C136.436 97.27 131.89 93.1928 129.625 91.9274C130.719 90.6152 131.859 89.3342 132.968 88.022C134.156 89.6623 135.655 91.0526 137.358 92.1305C140.092 93.9426 143.232 95.0361 146.481 95.3173C146.419 96.5202 146.325 97.7231 146.216 98.9259H146.247Z" fill="#191919"/>
<path d="M69.1693 151.633C70.4659 151.867 71.7937 151.992 73.106 152.023C76.4646 152.132 79.8389 152.023 83.182 151.664C83.8537 151.664 84.5098 151.523 85.1034 151.242C85.2596 151.148 85.3065 150.961 85.2128 150.805C85.1659 150.727 85.1034 150.68 85.0253 150.664C84.3692 150.539 83.6818 150.539 83.0257 150.664C75.0587 151.461 70.3409 150.789 69.138 151.023C68.81 151.07 68.8881 151.554 69.1537 151.648L69.1693 151.633Z" fill="#191919"/>
<path d="M91.6802 131.902C90.571 132.965 89.5869 134.167 88.7589 135.464C90.243 135.683 91.6958 135.933 93.1486 136.198C93.6797 135.402 95.0857 133.964 95.7887 133.027C94.4452 132.527 93.0705 132.152 91.6645 131.902H91.6802Z" fill="#6F93FC"/>
<path d="M85.4471 141.572C84.4473 142.744 83.5881 144.025 82.8695 145.384C84.3536 145.478 85.8533 145.571 87.3217 145.712C87.7747 144.806 88.7433 143.759 89.6337 142.306C88.259 141.947 86.8531 141.697 85.4315 141.572H85.4471Z" fill="#6F93FC"/>
<path d="M71.372 149.195C74.4494 142.056 82.1822 130.496 86.8843 124.31C87.103 124.028 87.3061 123.622 87.6498 123.544C90.0711 122.872 126.72 127.606 133.687 129.168C134.093 128.637 135.327 127.09 135.358 127.043C135.577 126.794 135.546 126.278 135.14 126.216C128.516 125.106 84.1818 120.482 84.1818 120.482C84.0568 120.467 83.9474 120.498 83.8537 120.592C83.0414 121.357 75.4492 135.385 70.3409 149.211H71.3251L71.372 149.195Z" fill="#6F93FC"/>
<path d="M140.717 131.73C129.188 128.2 92.1019 124.123 88.2902 124.263C87.9309 124.263 87.9622 124.216 87.5404 124.748C86.4469 126.122 80.0576 134.995 75.6523 142.244C74.2932 144.493 73.0591 146.805 71.9499 149.196C72.8247 149.196 73.9339 149.242 74.4806 149.242C77.3863 149.242 80.2763 149.102 83.1663 148.789C83.9474 148.649 84.7285 148.68 85.5096 148.852C86.6499 149.164 87.306 150.352 86.9936 151.476C86.9467 151.648 86.8843 151.804 86.7905 151.961C87.1186 151.867 87.4466 151.804 87.7747 151.789C88.7901 151.789 89.6649 152.507 89.8993 153.507C90.1023 154.476 89.6181 155.444 88.7276 155.866C87.9309 156.241 87.0874 156.569 86.2438 156.835C87.3998 157.053 88.1652 158.162 87.9622 159.334C87.8372 160.021 87.3842 160.599 86.7437 160.896C86.0407 161.193 85.3221 161.459 84.6035 161.662C85.8532 162.24 86.3844 163.708 85.8064 164.958C85.5564 165.505 85.1034 165.942 84.5566 166.192C80.9168 167.942 69.7316 169.644 64.1703 169.269C63.6235 171.082 62.2645 176.58 62.1707 176.94C62.0614 177.33 62.2957 177.736 62.6863 177.83C62.7487 177.846 62.8112 177.861 62.8737 177.861C67.4353 178.205 89.04 184.126 104.927 187.422C105.209 187.484 105.49 187.297 105.537 187.016C105.537 186.969 105.537 186.922 105.537 186.859C111.598 171.035 120.268 156.335 131.156 143.369C132.937 141.228 137.952 135.48 140.888 132.543C141.076 132.387 141.107 132.09 140.935 131.902C140.873 131.824 140.779 131.777 140.685 131.746L140.717 131.73ZM90.7428 142.275C90.1023 143.353 89.3994 144.415 88.6495 145.431C88.1184 146.196 87.9934 146.868 87.4466 146.649C87.431 146.634 87.3842 146.634 87.3685 146.602C85.6814 146.462 83.963 146.321 82.2602 146.243C82.0103 146.243 81.8385 146.024 81.8541 145.774C81.8541 145.712 81.8697 145.649 81.9009 145.603C82.6352 143.884 83.7599 142.353 85.1659 141.119C85.2127 141.057 85.3065 141.041 85.3846 141.057C85.7751 140.963 86.1813 140.916 86.5875 140.932C87.9153 141.041 89.2119 141.291 90.4929 141.666C90.7116 141.713 90.8678 141.916 90.8209 142.15C90.8209 142.197 90.7897 142.244 90.7741 142.291L90.7428 142.275ZM95.2887 135.058C94.7107 135.698 94.1796 136.354 93.6797 137.057C93.5235 137.214 93.2735 137.229 93.1017 137.104H93.0861C91.3677 136.761 89.6805 136.479 87.9622 136.23C87.7435 136.167 87.6029 135.933 87.6653 135.714C87.6653 135.683 87.6966 135.652 87.7122 135.62C88.6183 133.949 89.8993 132.512 91.4458 131.402C91.5239 131.371 91.602 131.356 91.6801 131.387C92.5081 131.309 93.3516 131.387 94.1484 131.637C94.9763 131.855 95.8043 132.121 96.6166 132.433C96.8509 132.496 96.9915 132.746 96.9134 132.996C96.9134 133.027 96.8822 133.074 96.8665 133.105C96.3979 133.808 95.8667 134.48 95.2887 135.105V135.058ZM113.082 149.602C112.332 149.649 112.223 149.43 108.973 148.618C103.225 147.18 101.069 146.946 96.5229 146.071C96.1948 146.009 96.2885 145.478 96.6166 145.509C101.569 146.056 106.458 147.024 111.254 148.383C111.957 148.493 112.629 148.727 113.254 149.071C113.379 149.164 113.41 149.352 113.316 149.477C113.269 149.555 113.176 149.602 113.082 149.602ZM117.675 140.432C116.909 140.432 116.144 140.307 115.394 140.088C114.66 139.947 110.332 139.041 108.88 138.76C105.927 138.182 102.959 137.714 100.022 137.026C99.6784 136.932 99.7722 136.386 100.116 136.433C103.74 136.854 111.02 138.323 113.441 138.854C114.941 139.026 116.409 139.385 117.815 139.932C117.94 140.01 117.971 140.182 117.893 140.322C117.846 140.401 117.753 140.447 117.659 140.447L117.675 140.432Z" fill="#6F93FC"/>
</svg>
