<svg width="177" height="184" viewBox="0 0 177 184" fill="none" xmlns="http://www.w3.org/2000/svg">
<path d="M32.388 96.9672L32.5965 100.331C32.5826 100.72 32.666 101.068 32.8328 101.401C32.944 101.749 33.1386 102.041 33.4027 102.291C33.6529 102.569 33.9587 102.75 34.2923 102.861C34.6259 103.041 34.9873 103.111 35.3626 103.097C36.0854 103.069 36.8221 102.833 37.3224 102.277C37.8228 101.721 38.1842 101.04 38.1425 100.317L37.934 96.9533C37.9479 96.5641 37.8645 96.2166 37.6977 95.883C37.5865 95.5355 37.3919 95.2437 37.1278 94.9935C36.8776 94.7155 36.5719 94.5348 36.2383 94.4236C35.9047 94.2429 35.5433 94.1734 35.168 94.1873C34.4452 94.2151 33.7085 94.4514 33.2081 95.0074C32.7077 95.5633 32.3463 96.2444 32.388 96.9672Z" fill="#7F5A3E"/>
<path d="M31.2763 99.3986C31.3041 99.5515 31.3458 99.6905 31.4014 99.8434C31.4987 100.135 31.6377 100.413 31.7628 100.705C31.7906 100.775 31.8323 100.844 31.8601 100.914C31.9296 101.053 32.013 101.178 32.0964 101.303C32.2771 101.553 32.4578 101.789 32.6524 102.026C32.708 102.095 32.7636 102.151 32.8192 102.206C33.0694 102.484 33.3752 102.665 33.7088 102.776C34.0424 102.957 34.4038 103.026 34.7791 103.013C35.1683 103.026 35.5158 102.943 35.8494 102.776C36.1969 102.665 36.4887 102.47 36.7389 102.206L37.1698 101.65C37.42 101.219 37.5451 100.747 37.5451 100.246L37.4478 99.5098C37.3088 99.0372 37.0725 98.6341 36.7389 98.2866C36.6694 98.2171 36.5999 98.1337 36.5304 98.0503L36.9613 98.6063C36.7945 98.3839 36.6555 98.1476 36.5443 97.8835L36.8223 98.5507C36.7389 98.3561 36.6694 98.1476 36.6277 97.9252C36.5444 97.5638 36.3776 97.2441 36.1274 96.98C35.9328 96.6742 35.6687 96.438 35.349 96.2573C35.0293 96.0488 34.6818 95.9376 34.3204 95.9237C33.9451 95.8403 33.5837 95.8542 33.2084 95.9793L32.5412 96.2573C32.1242 96.5075 31.7906 96.841 31.5404 97.258L31.2625 97.9252C31.1235 98.4117 31.1235 98.9121 31.2625 99.3986H31.2763Z" fill="#7F5A3E"/>
<path d="M33.0958 103.415C36.6681 103.415 36.682 97.8555 33.0958 97.8555C29.5097 97.8555 29.5097 103.415 33.0958 103.415Z" fill="#7F5A3E"/>
<path d="M33.5963 102.36C33.8048 103.068 34.0967 103.749 34.3886 104.431C34.6388 104.848 34.9724 105.181 35.3894 105.431C35.8203 105.682 36.2929 105.807 36.7933 105.807C37.2936 105.807 37.7662 105.682 38.1971 105.431C38.6141 105.181 38.9477 104.848 39.1979 104.431C39.3786 104 39.5871 103.569 39.6983 103.11C39.8095 102.651 39.8651 102.151 39.9207 101.692C39.9763 101.192 39.9624 100.692 39.9207 100.177C39.7956 98.8568 39.4898 97.578 39.2952 96.2575L39.3925 96.9942V96.883C39.3925 96.4938 39.3091 96.1463 39.1423 95.8127C39.0311 95.4652 38.8365 95.1733 38.5724 94.9231C38.0859 94.4367 37.2936 94.0753 36.6126 94.1031C35.9315 94.1309 35.1531 94.3672 34.6527 94.9231C34.194 95.4235 33.7492 96.1741 33.8326 96.883C33.9994 98.0923 34.2496 99.2738 34.4164 100.469L34.3191 99.7325C34.4164 100.414 34.4442 101.109 34.3608 101.79L34.4581 101.053C34.4025 101.442 34.3052 101.817 34.1662 102.193L34.4442 101.526L34.4025 101.623H39.1979C39.1701 101.553 39.1423 101.484 39.1006 101.414L39.3786 102.082C39.2118 101.692 39.0728 101.289 38.9616 100.886C38.767 100.205 38.2944 99.5796 37.6828 99.2182C37.0712 98.8568 36.2095 98.7178 35.5423 98.9402C34.8751 99.1626 34.2218 99.5796 33.8743 100.219C33.5268 100.858 33.3739 101.637 33.5963 102.36Z" fill="#7F5A3E"/>
<path d="M36.1681 104.597C39.7403 104.597 39.7542 99.0371 36.1681 99.0371C32.582 99.0371 32.582 104.597 36.1681 104.597Z" fill="#7F5A3E"/>
<path d="M36.1681 104.695C39.7403 104.695 39.7542 99.1348 36.1681 99.1348C32.582 99.1348 32.582 104.695 36.1681 104.695Z" fill="#7F5A3E"/>
<path d="M34.1935 105.571L34.0684 107.156C34.0684 107.351 34.0962 107.531 34.1935 107.698C34.2491 107.865 34.3464 108.018 34.4854 108.143C34.6105 108.282 34.7633 108.379 34.9301 108.435C35.0969 108.518 35.2776 108.56 35.4722 108.56C35.8336 108.546 36.2089 108.421 36.4591 108.157L36.6815 107.879C36.8066 107.656 36.8761 107.434 36.8761 107.184L37.0012 105.599C37.0012 105.405 36.9734 105.224 36.8761 105.057C36.8205 104.89 36.7232 104.737 36.5842 104.612C36.4591 104.473 36.3062 104.376 36.1394 104.32C35.9726 104.237 35.7919 104.195 35.5973 104.195C35.2359 104.209 34.8606 104.334 34.6104 104.598L34.3881 104.876C34.263 105.099 34.1935 105.321 34.1935 105.571Z" fill="#7F5A3E"/>
<path d="M35.2656 106.558V106.947C35.2656 107.142 35.2934 107.322 35.3907 107.489C35.4463 107.656 35.5436 107.809 35.6826 107.934C35.8077 108.073 35.9606 108.17 36.1274 108.226C36.2942 108.309 36.4749 108.351 36.6695 108.351L37.0448 108.295C37.2811 108.226 37.4896 108.115 37.6564 107.934L37.8788 107.656C38.0039 107.434 38.0734 107.211 38.0734 106.961V106.572C38.0734 106.377 38.0456 106.197 37.9483 106.03C37.8927 105.863 37.7954 105.71 37.6564 105.585C37.5313 105.446 37.3784 105.349 37.2116 105.293C37.0448 105.21 36.8641 105.168 36.6695 105.168L36.2942 105.224C36.0579 105.293 35.8494 105.404 35.6826 105.585L35.4602 105.863C35.3351 106.085 35.2656 106.308 35.2656 106.558Z" fill="#7F5A3E"/>
<path d="M36.1523 106.462V106.754C36.1523 106.949 36.1801 107.129 36.2774 107.296C36.333 107.463 36.4303 107.616 36.5693 107.741C36.6944 107.88 36.8473 107.977 37.0141 108.033C37.1809 108.116 37.3616 108.158 37.5562 108.158L37.9315 108.102C38.1678 108.033 38.3763 107.922 38.5431 107.741L38.7655 107.463C38.8906 107.241 38.9601 107.018 38.9601 106.768V106.476C38.9601 106.282 38.9323 106.101 38.835 105.934C38.7794 105.767 38.6821 105.614 38.5431 105.489C38.418 105.35 38.2651 105.253 38.0983 105.197C37.9315 105.114 37.7508 105.072 37.5562 105.072L37.1809 105.128C36.9446 105.197 36.7361 105.309 36.5693 105.489L36.3469 105.767C36.2218 105.99 36.1523 106.212 36.1523 106.462Z" fill="#7F5A3E"/>
<path d="M1.51713 110.172C3.50479 111.77 5.54804 113.299 7.6469 114.759C8.24459 115.176 9.21758 114.884 9.55117 114.258C9.92646 113.549 9.69017 112.799 9.05078 112.354C8.0639 111.673 7.09092 110.964 6.13184 110.255C5.89554 110.074 5.65924 109.894 5.40904 109.713C5.28395 109.616 5.17276 109.532 5.04766 109.435C5.00596 109.393 4.61676 109.102 4.88086 109.31C4.40827 108.949 3.93568 108.573 3.46309 108.198C3.1712 107.962 2.87929 107.795 2.4762 107.795C2.12871 107.795 1.72562 107.948 1.48932 108.198C1.03063 108.698 0.877731 109.685 1.48932 110.158L1.51713 110.172Z" fill="#7F5A3E"/>
<path d="M1.37689 109.421C1.37689 109.421 1.73827 109.477 1.54368 109.435C1.34908 109.394 1.69658 109.463 1.71048 109.463C1.87728 109.491 2.05798 109.532 2.22477 109.574C2.58617 109.671 2.93365 109.783 3.28115 109.922C3.10045 109.852 3.21164 109.894 3.32284 109.949C3.39234 109.977 3.46184 110.019 3.53134 110.047C3.69814 110.13 3.87884 110.227 4.04563 110.325C4.19853 110.408 4.33753 110.505 4.49043 110.603C4.57382 110.658 4.64332 110.714 4.72672 110.77C4.89352 110.895 4.49042 110.561 4.76842 110.811C5.03251 111.034 5.29661 111.27 5.53291 111.534C5.6719 111.687 5.797 111.84 5.9221 111.993C5.8387 111.882 5.8665 111.909 5.9221 112.007C5.9777 112.09 6.04719 112.173 6.10279 112.257C6.61708 112.966 7.13137 113.702 7.79856 114.272C8.35455 114.745 9.23024 114.856 9.75843 114.272C10.231 113.758 10.3561 112.813 9.75843 112.312C9.43873 112.048 9.17464 111.743 8.91054 111.423C9.09124 111.645 8.84105 111.326 8.82715 111.312C8.77155 111.228 8.70204 111.145 8.64644 111.061C8.52135 110.895 8.39625 110.728 8.27115 110.561C7.67347 109.769 7.03407 109.088 6.25569 108.49C4.83791 107.406 3.15605 106.808 1.39078 106.627C0.667994 106.558 -0.0269925 107.322 0.00080692 108.017C0.0425061 108.838 0.612395 109.324 1.39078 109.407L1.37689 109.421Z" fill="#7F5A3E"/>
<path d="M2.96305 108.183C3.06034 108.183 3.15764 108.183 3.25494 108.197C3.51903 108.211 3.04644 108.155 3.22713 108.197C3.40783 108.238 3.57463 108.266 3.74143 108.308C3.83873 108.336 3.92212 108.364 4.01942 108.391C4.26961 108.461 3.85263 108.308 4.00553 108.391C4.15842 108.475 4.32521 108.544 4.47811 108.642C4.54761 108.683 4.61711 108.739 4.67271 108.781C4.8256 108.878 4.46422 108.6 4.64491 108.767C4.75611 108.878 4.88121 108.975 4.9785 109.086C5.0202 109.142 5.0758 109.198 5.1175 109.239C5.31209 109.462 4.9368 108.975 5.1175 109.225C5.2009 109.35 5.2982 109.476 5.36769 109.615C5.43719 109.754 5.5206 109.893 5.59009 110.032C5.61789 110.101 5.64569 110.157 5.67349 110.226C5.74299 110.379 5.5623 109.934 5.6457 110.171C5.75689 110.476 5.86808 110.768 5.95148 111.088C6.13218 111.713 6.24338 112.353 6.36848 112.978C6.49357 113.701 7.41096 114.16 8.07815 113.951C8.84263 113.701 9.19012 113.006 9.05113 112.242C8.78703 110.782 8.46734 109.253 7.63336 108.002C6.57698 106.404 4.88121 105.472 2.96305 105.417C2.24026 105.389 1.54527 106.07 1.57307 106.807C1.60087 107.543 2.18466 108.169 2.96305 108.197V108.183Z" fill="#7F5A3E"/>
<path d="M6.49017 108.948C6.49017 108.948 6.57356 109.046 6.61526 109.087C6.71256 109.185 6.43456 108.795 6.55966 109.018C6.60136 109.087 6.75425 109.407 6.65696 109.185C6.55966 108.962 6.65696 109.185 6.65696 109.226C6.67086 109.282 6.69866 109.351 6.71256 109.407C6.74036 109.518 6.75426 109.629 6.78206 109.741C6.68476 109.296 6.78206 109.713 6.78206 109.838C6.78206 109.963 6.78205 110.102 6.79595 110.227C6.79595 110.463 6.79595 110.714 6.79595 110.95C6.80985 111.506 6.86545 112.104 7.06005 112.632C7.32414 113.382 7.72724 113.924 8.36663 114.397C8.64462 114.592 9.13111 114.619 9.4369 114.536C9.7427 114.453 10.1041 114.202 10.2709 113.897C10.4377 113.577 10.5211 113.188 10.4099 112.826C10.2987 112.465 10.0763 112.229 9.77049 111.992C10.1875 112.298 9.7288 111.923 9.7427 111.923C9.7705 111.923 9.93729 112.215 9.84 112.034C9.8122 111.978 9.7844 111.937 9.7566 111.881C9.701 111.784 9.6732 111.631 9.7983 111.992C9.7844 111.951 9.7705 111.909 9.7427 111.853C9.701 111.756 9.6732 111.645 9.6593 111.534C9.6593 111.478 9.63151 111.409 9.61761 111.353C9.56201 111.117 9.64541 111.631 9.61761 111.464C9.61761 111.353 9.5898 111.242 9.5898 111.131C9.5759 110.894 9.5759 110.658 9.5759 110.422C9.5759 109.185 9.38131 107.878 8.45002 106.975C7.92183 106.474 6.99056 106.419 6.49017 106.975C5.98978 107.531 5.93418 108.392 6.49017 108.934V108.948Z" fill="#7F5A3E"/>
<path d="M32.9723 126.546L33.1391 126.935C33.5561 127.908 35.0712 127.769 35.5437 126.935C35.5993 126.824 35.7383 126.588 35.7661 126.532C35.7661 126.532 35.9468 126.365 35.7661 126.477C35.9051 126.379 36.3638 126.407 36.6835 126.379C37.587 126.296 38.4905 126.226 39.394 126.171C41.2009 126.046 43.0079 125.962 44.8288 125.907L43.6334 125.212L43.9253 124.114C44.0226 124.03 44.106 124.002 44.2033 124.044C44.2033 124.044 43.967 123.988 43.8975 123.961C43.5361 123.863 43.1747 123.794 42.7855 123.766C42.0349 123.71 41.3955 124.447 41.3955 125.156C41.3955 125.948 42.0349 126.49 42.7855 126.546C43.0635 126.56 43.3554 126.713 43.6473 126.755C44.1199 126.824 44.5647 126.824 45.0234 126.643C45.8712 126.324 46.4133 125.476 46.3021 124.558C46.2465 124.058 45.9825 123.571 45.5377 123.307C45.0929 123.043 44.5091 123.127 43.9948 123.141C43.2303 123.168 42.4658 123.196 41.7013 123.238C40.1724 123.321 38.6434 123.419 37.1144 123.558C36.3916 123.613 35.5855 123.599 34.8905 123.836C34.0704 124.114 33.5422 124.781 33.1391 125.517H35.5437L35.377 125.128C35.0851 124.433 34.0704 124.28 33.4727 124.628C32.7638 125.045 32.6804 125.837 32.9723 126.532V126.546Z" fill="#7F5A3E"/>
<path d="M44.7569 125.544C46.55 125.544 46.55 122.764 44.7569 122.764C42.9638 122.764 42.9638 125.544 44.7569 125.544Z" fill="#7F5A3E"/>
<path d="M38.0998 124.057C36.3623 123.682 34.4859 124.196 33.2488 125.489C32.9986 125.753 32.8457 126.101 32.8457 126.476C32.8457 126.823 32.9986 127.226 33.2488 127.463C33.7909 127.963 34.6805 128.019 35.2087 127.463C35.3338 127.338 35.4588 127.213 35.5978 127.101L35.3199 127.324C35.5839 127.115 35.8758 126.948 36.1955 126.823L35.8619 126.962C36.1816 126.837 36.5013 126.74 36.8349 126.698L36.4596 126.754C36.7793 126.712 37.099 126.712 37.4187 126.754L37.0434 126.698C37.1546 126.712 37.2519 126.726 37.3631 126.754C37.7245 126.837 38.0998 126.809 38.4334 126.615C38.7253 126.448 39.0033 126.114 39.0728 125.781C39.1562 125.419 39.1423 125.03 38.9338 124.711C38.7392 124.419 38.4612 124.141 38.0998 124.071V124.057Z" fill="#7F5A3E"/>
<path d="M67.0115 83.8478C66.5945 84.0701 66.1636 84.3342 65.8439 84.6956C65.3296 85.2655 65.135 85.9049 65.0655 86.6694C64.9821 87.698 64.9404 88.7266 64.8709 89.7551C64.8292 90.4779 65.5381 91.1729 66.2609 91.1451C67.0532 91.1034 67.5952 90.5335 67.6508 89.7551C67.6925 89.1992 67.7203 88.6432 67.762 88.0872C67.8037 87.5312 67.8037 87.003 67.8732 86.4748L67.8177 86.8501C67.8455 86.7111 67.8732 86.586 67.9149 86.4609L67.776 86.7945C67.776 86.7945 67.8316 86.6833 67.8593 86.6277C67.9844 86.4192 67.7899 86.6694 67.776 86.7111C67.776 86.6555 68.04 86.5026 68.0261 86.4748C68.0261 86.4887 67.7481 86.6694 67.9149 86.5721C67.9705 86.5443 68.0122 86.5026 68.0678 86.4748C68.179 86.4053 68.2902 86.3497 68.4014 86.2802C69.0408 85.9327 69.3049 85.0014 68.9018 84.3759C68.4987 83.7505 67.6786 83.5003 66.9976 83.8755L67.0115 83.8478Z" fill="#7F5A3E"/>
<path d="M68.9431 86.7228C69.0543 86.7228 69.1655 86.7367 69.2767 86.7506L68.9014 86.695C69.235 86.7367 69.5547 86.834 69.8605 86.9591L69.5269 86.8201C69.8327 86.9452 70.1245 87.112 70.3886 87.3205L70.1106 87.0981C70.2357 87.1954 70.347 87.2927 70.4442 87.4178L70.2218 87.1398C70.2218 87.1398 70.2636 87.2093 70.2914 87.251L70.1523 86.9174C70.1523 86.9174 70.1663 86.973 70.1802 87.0008L70.1245 86.6255C70.1245 86.6255 70.1245 86.695 70.1245 86.7367L70.1802 86.3614C70.1802 86.3614 70.1662 86.4309 70.1523 86.4726L70.2914 86.139C70.2914 86.139 70.2496 86.2085 70.2357 86.2363L70.4581 85.9583C70.4581 85.9583 70.4025 86.0139 70.3747 86.0417L70.6527 85.8193C70.6527 85.8193 70.5415 85.8888 70.4859 85.9166L70.8195 85.7776C70.8195 85.7776 70.7083 85.8054 70.6527 85.8193L71.028 85.7637C70.9168 85.7637 70.8195 85.7637 70.7222 85.7637L71.0975 85.8193C70.75 85.7637 70.4025 85.6664 70.0411 85.6803C69.8326 85.6803 69.6103 85.7081 69.4157 85.7637C69.0682 85.861 68.8458 86.0139 68.5817 86.2502L68.3593 86.5282C68.262 86.6811 68.2064 86.8618 68.1925 87.0425C68.1508 87.3344 68.1925 87.668 68.3593 87.9321C68.6929 88.4603 69.3045 88.7244 69.9299 88.5715C70.2218 88.502 70.5276 88.4186 70.8195 88.3491C71.0975 88.2796 71.3755 88.1823 71.6674 88.1545L71.2921 88.2101C71.2921 88.2101 71.4033 88.2101 71.4728 88.2101L71.0975 88.1545C71.0975 88.1545 71.1531 88.1545 71.1809 88.1684L70.8473 88.0294C70.8473 88.0294 70.9168 88.0711 70.9585 88.085L70.6805 87.8626C70.6805 87.8626 70.7222 87.8904 70.7361 87.9182L70.5137 87.6402C70.5137 87.6402 70.5693 87.7236 70.5832 87.7653L70.4442 87.4317C70.4442 87.4317 70.4859 87.5568 70.4859 87.6124L70.4303 87.2371C70.4442 87.3761 70.4442 87.5012 70.4303 87.6402L70.4859 87.2649C70.4859 87.2649 70.4581 87.3761 70.4442 87.4178L70.5832 87.0842C70.5832 87.0842 70.5554 87.1259 70.5415 87.1537L70.7639 86.8757C70.7639 86.8757 70.7222 86.9174 70.7083 86.9313L70.9863 86.7089C70.9863 86.7089 70.9446 86.7367 70.9168 86.7506L71.2504 86.6116C71.2504 86.6116 71.1253 86.6533 71.0558 86.6672L71.4311 86.6116C70.9029 86.6811 70.3608 86.7367 69.8327 86.7923C69.6381 86.7923 69.4574 86.8201 69.2906 86.9174C69.1238 86.973 68.9709 87.0703 68.8458 87.2093C68.6095 87.4456 68.4288 87.8487 68.4427 88.1962C68.4566 88.5437 68.5817 88.9328 68.8458 89.183C69.096 89.4193 69.4713 89.6278 69.8327 89.5861C70.4859 89.5166 71.1531 89.4749 71.7925 89.3637C72.4319 89.2525 72.9045 88.7799 73.1269 88.1684C73.2242 87.8765 73.252 87.5429 73.2242 87.2371C73.1964 86.8896 73.1408 86.6672 72.9879 86.3475C72.8628 86.0695 72.6265 85.8332 72.3624 85.6664C71.8898 85.3606 71.3338 85.3467 70.7917 85.4718C70.2497 85.5969 69.7214 85.7359 69.1933 85.8749L70.5415 88.1962L70.5693 88.1684L70.2914 88.3908C70.2914 88.3908 70.3886 88.3352 70.4442 88.3074L70.1106 88.4464C70.1106 88.4464 70.2218 88.4186 70.2774 88.4047L69.9022 88.4603C70.0273 88.4464 70.1384 88.4603 70.2635 88.4603L69.8882 88.4047C70.2357 88.4603 70.5832 88.5576 70.9307 88.5437C71.4728 88.5437 71.9454 88.3491 72.3624 87.9877C72.7377 87.6541 72.9462 87.1398 72.9462 86.6394C72.9462 86.0973 72.6682 85.583 72.2651 85.2355C71.3338 84.4293 70.2079 83.9706 68.9709 83.9011C68.6234 83.8872 68.2342 84.0679 67.984 84.3042C67.7338 84.5405 67.567 84.9436 67.5809 85.2911C67.6226 86.0695 68.1925 86.6394 68.9709 86.6811L68.9431 86.7228Z" fill="#7F5A3E"/>
<path d="M68.4578 90.5885C68.7914 90.7275 69.0833 90.8526 69.4447 90.9082C69.8061 90.9638 70.1397 91.0055 70.4872 90.9638C70.8347 90.9221 71.1683 90.8804 71.488 90.7553C71.8077 90.6302 72.1413 90.4912 72.4193 90.2688C72.5861 90.1854 72.7112 90.0603 72.8084 89.9074C72.9335 89.7684 73.0169 89.6155 73.0586 89.4348C73.1559 89.1012 73.1142 88.6564 72.9196 88.3645C72.7251 88.0726 72.447 87.8085 72.0857 87.7251C71.7243 87.6417 71.3073 87.6418 71.0154 87.8642C70.8486 87.9892 70.6679 88.1004 70.4594 88.1838L70.793 88.0448C70.5845 88.1282 70.3621 88.1838 70.1397 88.2255L70.515 88.1699C70.2787 88.1977 70.0424 88.1977 69.7922 88.1699L70.1675 88.2255C69.959 88.1977 69.7505 88.1421 69.5559 88.0587L69.8895 88.1977H69.8478C69.6949 88.0865 69.5142 88.0309 69.3335 88.017C69.1528 87.9753 68.9582 87.9892 68.7775 88.0448C68.4578 88.1282 68.1103 88.3784 67.9435 88.6842C67.7767 89.0039 67.6933 89.3931 67.8045 89.7545C67.9018 90.0742 68.1242 90.4495 68.4439 90.5885H68.4578Z" fill="#7F5A3E"/>
<path d="M71.196 88.1014C70.8624 88.2404 70.5149 88.3099 70.1535 88.3655L70.5288 88.3099C70.1674 88.3516 69.8061 88.3794 69.4447 88.3933L69.0694 88.4489C68.8887 88.4906 68.7358 88.574 68.5968 88.6991C68.3605 88.8798 68.1659 89.13 68.0964 89.4219C68.0408 89.6721 68.0408 89.9223 68.0964 90.1586C68.1659 90.4783 68.4439 90.8258 68.7358 90.9926C69.3613 91.3401 70.1257 91.5346 70.8346 91.4512C71.3072 91.3956 71.7242 91.3262 72.1412 91.0899C72.3775 90.9509 72.5721 90.7841 72.7389 90.5617C72.9752 90.242 73.1003 89.8945 73.1142 89.5053C73.1142 89.1578 72.9474 88.7686 72.7111 88.5184C72.4748 88.2682 72.0717 88.1014 71.7242 88.1153C71.3767 88.1292 70.9875 88.2543 70.7373 88.5184C70.4871 88.7825 70.3342 89.1161 70.3342 89.5053C70.3342 89.5192 70.3342 89.547 70.3342 89.5609L70.3898 89.1856C70.3898 89.1856 70.3759 89.2412 70.362 89.269L70.501 88.9354C70.501 88.9354 70.4732 88.991 70.4593 89.0049L70.6817 88.7269C70.6817 88.7269 70.6122 88.7964 70.5705 88.8381L70.8485 88.6157C70.8485 88.6157 70.7234 88.6991 70.6539 88.7269L70.9875 88.5879C70.8346 88.6435 70.6817 88.6852 70.5288 88.6991L70.9041 88.6435C70.6956 88.6713 70.501 88.6713 70.2925 88.6435L70.6678 88.6991C70.4593 88.6713 70.2647 88.6157 70.084 88.5462L70.4176 88.6852C70.3342 88.6435 70.2508 88.6157 70.1813 88.574L69.4864 91.1594C69.9173 91.1455 70.3342 91.1177 70.7512 91.0482C71.1682 90.9787 71.5852 90.9231 71.9744 90.7563C72.1551 90.7146 72.308 90.6312 72.447 90.5061C72.5999 90.4088 72.7111 90.2837 72.8084 90.1169C72.9891 89.825 73.0586 89.3802 72.9474 89.0466C72.8362 88.713 72.6277 88.3794 72.308 88.2126L71.9744 88.0736C71.7242 88.0041 71.4879 88.0041 71.2377 88.0736L71.196 88.1014Z" fill="#7F5A3E"/>
<path d="M71.1688 84.4158C70.4739 83.8181 69.6538 83.3594 68.7503 83.1927C68.3055 83.1093 67.8329 83.0537 67.3742 83.0815C66.7348 83.1231 66.0954 83.2204 65.6089 83.6652C65.1225 84.11 64.9835 84.7494 64.9557 85.3888C64.9418 85.8475 64.9279 86.3062 64.914 86.7649C64.9001 87.6823 64.914 88.5996 64.9279 89.5031C64.9418 90.2259 65.5534 90.9209 66.3178 90.8931C67.0823 90.8653 67.7356 90.2815 67.7078 89.5031C67.68 88.7247 67.68 88.002 67.68 87.2514C67.68 86.5008 67.6661 85.7919 67.7495 85.0691L67.6939 85.4444C67.7217 85.2776 67.7912 85.2498 67.6383 85.5C67.541 85.6529 67.402 85.778 67.2352 85.8614C67.0128 85.9587 67.2074 85.8892 67.263 85.8614C67.3464 85.8475 67.4159 85.8336 67.4993 85.8197L67.124 85.8753C67.4576 85.8336 67.8051 85.8336 68.1387 85.8753L67.7634 85.8197C67.9441 85.8475 68.1248 85.8753 68.3055 85.9309C68.375 85.9448 68.4584 85.9726 68.5279 86.0004C68.5696 86.0143 68.8893 86.1394 68.653 86.0421C68.4167 85.9448 68.7225 86.0838 68.7642 86.1116C68.8337 86.1533 68.9032 86.1811 68.9727 86.2228C69.0422 86.2645 69.0978 86.3062 69.1673 86.3479C69.2785 86.4313 69.2507 86.4035 69.07 86.2645C69.1117 86.2923 69.1534 86.334 69.1951 86.3618C69.487 86.5981 69.7928 86.7649 70.182 86.7649C70.5295 86.7649 70.9325 86.612 71.1688 86.3618C71.6414 85.8475 71.7665 84.9023 71.1688 84.4019V84.4158Z" fill="#7F5A3E"/>
<path d="M110.853 97.8153C110.783 97.718 110.714 97.6068 110.658 97.4956C110.63 97.44 110.603 97.3705 110.561 97.301C110.478 97.162 110.589 97.3844 110.589 97.3844C110.45 97.1759 110.436 96.8562 110.366 96.6199C110.311 96.4253 110.38 96.8701 110.366 96.6755C110.366 96.6199 110.366 96.5643 110.366 96.5226C110.366 96.3975 110.366 96.2724 110.366 96.1473C110.366 95.8554 110.408 95.5774 110.366 95.2855C110.241 93.9094 109.282 92.8392 107.962 92.4778C106.808 92.1581 105.46 92.4083 104.362 92.867C103.708 93.145 103.139 93.4924 102.708 94.0623C102.277 94.6322 101.943 95.4523 102.152 96.1751C102.36 96.8979 102.972 97.2454 103.667 97.3149C103.973 97.3427 104.278 97.3427 104.584 97.3427C105.321 97.3288 106.057 97.2176 106.78 97.0647C107.503 96.9118 107.976 96.05 107.753 95.355C107.517 94.6044 106.808 94.2152 106.044 94.382C105.835 94.4237 105.571 94.5349 105.362 94.5071H105.501C105.501 94.5071 105.39 94.5071 105.335 94.5071C105.223 94.5071 105.112 94.5349 104.987 94.5349C104.779 94.5488 104.57 94.5627 104.348 94.5627C104.237 94.5627 104.112 94.5627 104 94.5627H103.889C103.625 94.5349 103.736 94.5627 104.209 94.6739L104.709 95.1743L104.681 95.1187L104.876 95.8137C104.876 95.5913 104.765 96.0917 104.862 95.8415C104.959 95.5635 104.709 96.0639 104.862 95.8415C104.89 95.7998 104.904 95.7581 104.932 95.7303C104.987 95.6469 104.959 95.6747 104.848 95.8276C104.904 95.7998 105.001 95.6747 105.043 95.633C105.251 95.4384 104.793 95.772 105.071 95.6191C105.084 95.6191 105.335 95.4523 105.349 95.4662C105.196 95.5218 105.154 95.5357 105.251 95.5079C105.307 95.494 105.349 95.4662 105.404 95.4523C105.501 95.4245 105.599 95.3828 105.71 95.355C105.918 95.2994 106.127 95.2438 106.349 95.2021C106.433 95.1882 106.766 95.1187 106.419 95.1743C106.502 95.1604 106.6 95.1604 106.697 95.1465C106.808 95.1465 106.919 95.1465 107.03 95.1465C107.086 95.1465 107.142 95.1465 107.197 95.1465C107.03 95.1187 107.003 95.1187 107.1 95.1465C107.183 95.1743 107.281 95.2021 107.364 95.216C107.461 95.2438 107.42 95.2299 107.239 95.1604C107.281 95.1743 107.322 95.2021 107.364 95.216C107.434 95.2438 107.489 95.2855 107.559 95.3272C107.795 95.4662 107.392 95.1326 107.559 95.3272C107.781 95.5913 107.559 95.3272 107.559 95.3133C107.559 95.3133 107.67 95.5218 107.684 95.5357C107.614 95.3411 107.586 95.2994 107.614 95.4106C107.628 95.4662 107.642 95.5079 107.656 95.5635C107.628 95.3967 107.628 95.3689 107.628 95.4801C107.628 95.5357 107.628 95.5913 107.628 95.6469C107.628 95.8693 107.6 96.1056 107.6 96.328C107.6 97.3427 107.906 98.3713 108.462 99.233C108.851 99.8446 109.713 100.15 110.366 99.7334C110.978 99.3442 111.284 98.4825 110.867 97.8292L110.853 97.8153Z" fill="#EEAF77"/>
<path d="M103.402 98.2892C104.959 98.4421 106.516 98.1085 107.92 97.4413C108.225 97.3023 108.476 96.9132 108.559 96.6074C108.656 96.2738 108.615 95.829 108.42 95.5371C108.225 95.2452 107.947 94.9811 107.586 94.8977C107.211 94.8143 106.863 94.8699 106.516 95.0367C106.418 95.0784 106.307 95.134 106.21 95.1757L106.544 95.0367C105.96 95.2869 105.348 95.4537 104.723 95.5371L105.098 95.4815C104.542 95.551 103.972 95.5649 103.416 95.5093C103.083 95.4815 102.666 95.69 102.429 95.9124C102.193 96.1487 102.012 96.5518 102.026 96.8993C102.04 97.2467 102.165 97.6359 102.429 97.8861C102.721 98.1502 103.027 98.2475 103.416 98.2892H103.402Z" fill="#EEAF77"/>
<path d="M103.388 99.6509C104.138 99.8455 104.861 99.8316 105.626 99.7065C105.89 99.6648 106.14 99.5953 106.376 99.498C106.724 99.359 107.071 99.2061 107.377 98.9976C107.683 98.7891 107.919 98.525 108.016 98.1636C108.114 97.83 108.072 97.3852 107.877 97.0933C107.683 96.8014 107.405 96.5374 107.043 96.454C106.682 96.3706 106.279 96.3845 105.973 96.593C105.778 96.7319 105.57 96.8431 105.348 96.9265L105.681 96.7875C105.389 96.9126 105.083 96.996 104.764 97.0377L105.139 96.9821C104.819 97.0238 104.5 97.0238 104.18 96.9821L104.555 97.0377C104.416 97.0238 104.277 96.996 104.138 96.9543C103.777 96.8709 103.388 96.9126 103.068 97.0933C102.776 97.2601 102.498 97.5937 102.429 97.9273C102.345 98.2887 102.359 98.6779 102.568 98.9976C102.776 99.3173 103.04 99.5536 103.402 99.637L103.388 99.6509Z" fill="#EEAF77"/>
<path d="M104.275 101.208C105.624 101.36 106.972 101.055 108.181 100.457C108.487 100.304 108.737 99.9427 108.82 99.623C108.918 99.2894 108.876 98.8446 108.681 98.5527C108.487 98.2608 108.209 97.9967 107.847 97.9133C107.472 97.8299 107.125 97.8855 106.777 98.0523C106.68 98.1079 106.569 98.1496 106.471 98.1913L106.805 98.0523C106.332 98.2469 105.832 98.3859 105.332 98.4554L105.707 98.3998C105.234 98.4554 104.762 98.4693 104.289 98.3998C103.956 98.3581 103.525 98.5805 103.302 98.8029C103.066 99.0392 102.885 99.4423 102.899 99.7898C102.913 100.137 103.038 100.526 103.302 100.777L103.58 100.999C103.803 101.124 104.025 101.194 104.275 101.194V101.208Z" fill="#EEAF77"/>
<path d="M165.256 106.836C165.256 106.836 165.256 106.6 165.256 106.753C165.229 106.961 165.326 106.517 165.27 106.725C165.243 106.836 165.215 106.948 165.173 107.059C165.159 107.114 165.131 107.17 165.104 107.226C165.201 106.975 165.117 107.184 165.104 107.226C165.006 107.434 164.923 107.629 164.839 107.837C164.589 108.463 164.52 109.144 164.506 109.797C164.506 110.422 164.506 111.048 164.506 111.66C164.506 112.271 164.506 112.924 164.659 113.522C164.853 114.287 165.395 114.912 166.16 115.134C166.994 115.371 167.939 114.995 168.467 114.342C168.87 113.842 169.162 113.272 169.468 112.716C169.76 112.202 170.038 111.673 170.288 111.131C170.914 109.839 171.442 108.504 171.664 107.086C171.775 106.378 171.484 105.558 170.691 105.377C170.024 105.224 169.107 105.585 168.982 106.35C168.884 107.003 168.717 107.629 168.509 108.254C168.453 108.421 168.398 108.588 168.328 108.741C168.314 108.782 168.106 109.269 168.217 109.019C168.092 109.297 167.967 109.575 167.828 109.853C167.536 110.45 167.216 111.034 166.897 111.604C166.744 111.882 166.605 112.16 166.438 112.424C166.41 112.466 166.382 112.521 166.341 112.563C166.452 112.438 166.452 112.424 166.341 112.535C166.48 112.438 166.48 112.438 166.341 112.521C166.494 112.41 166.674 112.396 166.869 112.452C166.98 112.48 167.077 112.535 167.161 112.619C167.258 112.702 167.314 112.799 167.341 112.924C167.341 112.924 167.258 112.66 167.272 112.646C167.3 112.855 167.3 112.883 167.286 112.73C167.286 112.646 167.286 112.577 167.286 112.493C167.286 112.313 167.272 112.118 167.258 111.938C167.23 111.243 167.216 110.548 167.23 109.853C167.23 109.727 167.23 109.602 167.23 109.477C167.23 109.394 167.23 109.31 167.244 109.227C167.216 109.38 167.216 109.38 167.244 109.227C167.286 109.06 167.328 108.907 167.369 108.741C167.425 108.588 167.425 108.588 167.369 108.741C167.397 108.671 167.439 108.588 167.466 108.518C167.814 107.712 168.05 106.989 167.856 106.1C167.703 105.391 166.841 104.904 166.146 105.127C165.395 105.363 165.006 106.072 165.173 106.836H165.256Z" fill="#EEAF77"/>
<path d="M167.812 106.085C167.52 107.169 167.158 108.212 166.727 109.254L166.866 108.921C166.7 109.324 166.519 109.713 166.324 110.116C166.158 110.464 166.074 110.811 166.185 111.186C166.269 111.506 166.519 111.854 166.825 112.02C167.45 112.354 168.382 112.215 168.729 111.52C169.452 110.019 170.063 108.448 170.494 106.836C170.689 106.141 170.258 105.293 169.521 105.126C168.785 104.959 168.02 105.348 167.812 106.099V106.085Z" fill="#EEAF77"/>
<path d="M166.727 102.487C166.88 104.197 166.839 105.907 166.63 107.616C166.588 107.95 166.811 108.381 167.033 108.603C167.269 108.84 167.673 109.02 168.02 109.006C168.368 108.993 168.757 108.867 169.007 108.603C169.271 108.311 169.368 108.006 169.41 107.616C169.619 105.921 169.66 104.197 169.507 102.487C169.452 101.765 168.91 101.056 168.117 101.097C167.422 101.125 166.658 101.709 166.727 102.487Z" fill="#EEAF77"/>
<path d="M168.146 101.944C168.215 102.82 168.201 103.696 168.118 104.572C168.118 104.669 168.09 104.766 168.09 104.877C168.048 105.197 168.132 104.613 168.09 104.905C168.048 105.141 168.02 105.364 167.965 105.6C167.881 106.031 167.77 106.462 167.659 106.879C167.464 107.574 167.909 108.422 168.632 108.589C169.355 108.755 170.133 108.366 170.342 107.616C170.87 105.781 171.078 103.849 170.939 101.944C170.884 101.222 170.342 100.513 169.549 100.554C168.841 100.582 168.104 101.166 168.159 101.944H168.146Z" fill="#EEAF77"/>
<path d="M169.48 104.334C169.494 105.126 169.452 105.905 169.355 106.697L169.411 106.322C169.313 107.072 169.147 107.823 168.952 108.546C168.757 109.269 169.202 110.089 169.925 110.255C170.648 110.422 171.426 110.033 171.635 109.282C172.093 107.684 172.316 106.002 172.274 104.334C172.274 103.611 171.649 102.916 170.884 102.944C170.12 102.972 169.48 103.556 169.494 104.334H169.48Z" fill="#EEAF77"/>
<path d="M170.343 106.282C170.343 106.282 170.343 106.393 170.329 106.448L170.385 106.073C170.315 106.56 170.176 107.032 169.996 107.491L170.135 107.157C169.94 107.616 169.69 108.033 169.384 108.436L169.607 108.158C169.454 108.339 169.301 108.519 169.134 108.686C168.62 109.201 168.578 110.146 169.134 110.646C169.69 111.146 170.552 111.202 171.094 110.646C171.636 110.09 172.108 109.479 172.428 108.784C172.609 108.394 172.776 107.991 172.901 107.574C173.026 107.157 173.081 106.712 173.137 106.268C173.179 105.934 172.956 105.503 172.734 105.281C172.498 105.045 172.095 104.864 171.747 104.878C171.4 104.892 171.01 105.017 170.76 105.281L170.538 105.559C170.413 105.781 170.343 106.004 170.343 106.254V106.282Z" fill="#EEAF77"/>
<path d="M133.508 107.018C133.327 108.436 133.216 109.868 133.188 111.299C133.16 112.731 133.119 114.329 134.078 115.553C134.564 116.164 135.245 116.526 136.01 116.609C136.774 116.692 137.497 116.373 138.081 115.942C139.109 115.191 139.985 114.26 140.625 113.134C141.333 111.883 141.723 110.493 141.806 109.061C141.848 108.339 141.139 107.644 140.416 107.671C139.624 107.713 139.068 108.283 139.026 109.061C139.026 109.228 138.998 109.395 138.984 109.562C139.012 109.256 138.97 109.631 138.957 109.687C138.901 109.979 138.831 110.257 138.748 110.549C138.692 110.716 138.637 110.868 138.581 111.021C138.442 111.397 138.706 110.785 138.526 111.16C138.401 111.424 138.262 111.689 138.109 111.939C138.025 112.078 137.928 112.217 137.831 112.356C137.678 112.592 137.942 112.231 137.747 112.481C137.553 112.703 137.358 112.926 137.15 113.134C137.038 113.231 136.927 113.329 136.816 113.426C136.774 113.468 136.719 113.509 136.663 113.551C136.774 113.468 136.774 113.468 136.649 113.551C136.524 113.634 136.385 113.732 136.246 113.801C136.163 113.843 136.163 113.843 136.274 113.801C136.107 113.843 136.107 113.843 136.26 113.829C136.093 113.829 136.107 113.829 136.288 113.829L136.399 113.885C136.33 113.857 136.26 113.815 136.191 113.76C136.316 113.857 136.316 113.857 136.191 113.746C136.079 113.621 136.079 113.621 136.191 113.746L136.135 113.648C136.065 113.509 136.065 113.509 136.121 113.621C136.093 113.537 136.065 113.454 136.052 113.356C136.052 113.329 135.996 112.926 136.01 113.19C136.01 113.009 135.982 112.828 135.982 112.634C135.982 112.258 135.982 111.897 135.982 111.522C135.982 110.007 136.107 108.492 136.302 106.99C136.399 106.268 135.593 105.573 134.912 105.6C134.078 105.642 133.619 106.212 133.522 106.99L133.508 107.018Z" fill="#EEAF77"/>
<path d="M140.569 112.981C142.362 112.981 142.362 110.201 140.569 110.201C138.776 110.201 138.776 112.981 140.569 112.981Z" fill="#EEAF77"/>
<path d="M136.08 107.391C136.08 108.503 136.038 109.601 135.927 110.699C135.899 110.977 135.871 111.255 135.843 111.533C135.829 111.658 135.816 111.797 135.802 111.922C135.829 111.672 135.802 111.992 135.774 112.061C135.69 112.617 135.593 113.173 135.482 113.729C135.343 114.438 135.677 115.258 136.455 115.439C137.15 115.592 138.012 115.23 138.165 114.466C138.623 112.131 138.86 109.754 138.86 107.377C138.86 106.654 138.22 105.959 137.47 105.987C136.719 106.015 136.08 106.599 136.08 107.377V107.391Z" fill="#EEAF77"/>
<path d="M138.082 108.114C137.929 108.545 137.776 108.976 137.595 109.393L137.734 109.06C137.442 109.769 137.095 110.45 136.72 111.131C136.539 111.45 136.483 111.853 136.581 112.201C136.664 112.521 136.914 112.868 137.22 113.035C137.873 113.382 138.749 113.216 139.124 112.535C139.778 111.367 140.32 110.13 140.764 108.851C140.876 108.518 140.792 108.073 140.625 107.781C140.459 107.489 140.125 107.211 139.791 107.141C139.43 107.058 139.041 107.072 138.721 107.28C138.401 107.489 138.207 107.753 138.082 108.114Z" fill="#EEAF77"/>
<path d="M135.288 107.713C135.622 107.685 135.955 107.657 136.289 107.671C136.469 107.671 136.65 107.671 136.817 107.699C136.9 107.699 136.97 107.699 137.053 107.713C137.053 107.713 137.415 107.768 137.22 107.727C137.039 107.699 137.29 107.741 137.331 107.741C137.429 107.754 137.526 107.782 137.623 107.796C137.776 107.824 137.929 107.866 138.082 107.907C138.249 107.949 138.429 108.005 138.596 108.06C138.749 108.116 138.971 108.158 139.097 108.241C139.027 108.199 138.888 108.144 139.041 108.227C139.097 108.255 139.152 108.283 139.208 108.31C139.333 108.38 139.458 108.449 139.583 108.519C139.639 108.547 139.694 108.588 139.75 108.63C139.861 108.714 139.889 108.811 139.75 108.616C139.819 108.714 139.944 108.783 140.028 108.866C140.083 108.922 140.139 108.978 140.195 109.033C140.222 109.061 140.361 109.228 140.236 109.075C140.069 108.88 140.389 109.311 140.361 109.311C140.347 109.311 140.264 109.005 140.32 109.228C140.334 109.283 140.347 109.339 140.375 109.395C140.445 109.631 140.375 109.158 140.375 109.339C140.375 109.408 140.375 109.492 140.375 109.561C140.347 110.284 141.029 110.979 141.765 110.951C142.502 110.924 143.127 110.34 143.155 109.561C143.211 107.88 141.904 106.503 140.459 105.836C138.86 105.1 137.067 104.766 135.302 104.933C134.579 105.002 133.87 105.517 133.912 106.323C133.94 107.018 134.523 107.782 135.302 107.713H135.288Z" fill="#EEAF77"/>
<path d="M134.982 117.234V119.028C134.996 119.903 135.886 120.64 136.748 120.362C136.775 120.362 136.803 120.348 136.845 120.334L136.47 120.39C136.47 120.39 136.595 120.39 136.664 120.39L136.289 120.334C136.442 120.362 136.595 120.404 136.748 120.445C137.123 120.543 137.457 120.557 137.832 120.473C138.165 120.404 138.513 120.195 138.735 119.945C138.847 119.834 138.958 119.681 139.027 119.528C139.097 119.375 139.18 119.222 139.208 119.055C139.305 118.555 139.277 118.055 139.125 117.568C138.999 117.165 138.86 116.748 138.735 116.345C138.624 115.997 138.416 115.692 138.096 115.511C137.804 115.33 137.359 115.261 137.026 115.372C136.692 115.483 136.358 115.692 136.192 116.011C136.025 116.331 135.942 116.72 136.053 117.082C136.15 117.373 136.247 117.679 136.345 117.971C136.414 118.207 136.497 118.43 136.539 118.666L136.484 118.291C136.484 118.402 136.497 118.513 136.484 118.624L136.539 118.249C136.539 118.249 136.511 118.374 136.497 118.444L136.636 118.11C136.636 118.11 136.595 118.207 136.553 118.249L136.775 117.971C136.775 117.971 136.734 118.027 136.706 118.041L136.984 117.818C136.984 117.818 136.928 117.86 136.887 117.874L137.22 117.735C137.22 117.735 137.137 117.763 137.095 117.777L137.47 117.721C137.47 117.721 137.345 117.721 137.276 117.721L137.651 117.777C137.484 117.749 137.331 117.693 137.165 117.651C136.789 117.568 136.386 117.526 136.011 117.651L137.776 118.986V117.193C137.776 116.831 137.609 116.47 137.359 116.206C137.109 115.942 136.72 115.789 136.372 115.803C136.025 115.817 135.636 115.942 135.386 116.206C135.135 116.47 134.982 116.817 134.982 117.193V117.234Z" fill="#EEAF77"/>
<path d="M138.526 120.305C140.32 120.305 140.32 117.525 138.526 117.525C136.733 117.525 136.733 120.305 138.526 120.305Z" fill="#EEAF77"/>
<path d="M135.773 120.667C137.566 120.667 137.566 117.887 135.773 117.887C133.979 117.887 133.979 120.667 135.773 120.667Z" fill="#EEAF77"/>
<path d="M141.722 103.069C143.515 103.069 143.515 100.289 141.722 100.289C139.929 100.289 139.929 103.069 141.722 103.069Z" fill="#9F7152"/>
<path d="M139.985 101.555C138.776 101.513 137.511 101.694 136.357 102.111C135.148 102.555 134.078 103.292 133.661 104.571C133.397 105.391 134.119 106.392 134.995 106.336C135.065 106.336 135.148 106.336 135.217 106.322C135.94 106.267 136.649 105.725 136.607 104.932C136.58 104.223 135.996 103.487 135.217 103.542C135.148 103.542 135.065 103.542 134.995 103.556L136.329 105.322C136.413 105.071 136.177 105.6 136.288 105.391C136.316 105.335 136.357 105.266 136.399 105.21C136.524 104.988 136.19 105.433 136.357 105.28C136.413 105.224 136.455 105.183 136.51 105.127C136.552 105.099 136.58 105.057 136.621 105.03L136.455 105.155C136.455 105.155 136.58 105.071 136.635 105.03C136.774 104.946 136.913 104.877 137.052 104.807C137.33 104.682 136.858 104.877 136.983 104.835C137.052 104.807 137.122 104.779 137.191 104.752C137.372 104.696 137.539 104.64 137.719 104.585C138.095 104.488 138.47 104.404 138.859 104.349L138.484 104.404C138.97 104.335 139.471 104.321 139.957 104.335C140.68 104.362 141.375 103.681 141.347 102.945C141.319 102.166 140.736 101.582 139.957 101.555H139.985Z" fill="#9F7152"/>
<path d="M139.762 101.888C139.401 101.985 139.053 102.096 138.706 102.221C138.275 102.388 137.83 102.569 137.441 102.805C136.579 103.319 135.828 104.167 135.856 105.237C135.856 105.599 136.009 105.96 136.259 106.224C136.496 106.461 136.899 106.641 137.246 106.627C137.594 106.613 137.983 106.488 138.233 106.224C138.483 105.96 138.65 105.613 138.636 105.237C138.636 105.182 138.636 105.126 138.636 105.071L138.581 105.446C138.581 105.363 138.608 105.293 138.636 105.21L138.497 105.543C138.539 105.446 138.594 105.349 138.664 105.265L138.442 105.543C138.553 105.404 138.664 105.293 138.803 105.196L138.525 105.418C138.859 105.168 139.234 104.987 139.623 104.834L139.289 104.973C139.679 104.807 140.082 104.681 140.499 104.57C140.832 104.487 141.152 104.223 141.333 103.931C141.513 103.639 141.583 103.194 141.472 102.861C141.235 102.138 140.513 101.693 139.762 101.888Z" fill="#9F7152"/>
<path d="M141.042 102.638C140.486 102.972 139.944 103.333 139.471 103.764C138.929 104.265 138.498 104.89 138.29 105.599C138.192 105.933 138.248 106.364 138.429 106.669C138.609 106.975 138.929 107.239 139.263 107.309C139.624 107.392 140.013 107.378 140.333 107.17C140.653 106.961 140.861 106.697 140.972 106.336C141 106.252 141.028 106.183 141.056 106.099L140.917 106.433C141 106.238 141.111 106.072 141.236 105.905L141.014 106.183C141.222 105.919 141.473 105.682 141.737 105.474L141.459 105.696C141.778 105.46 142.112 105.238 142.446 105.043C142.751 104.862 142.988 104.557 143.085 104.209C143.141 104.028 143.154 103.834 143.113 103.653C143.113 103.472 143.043 103.292 142.946 103.139C142.751 102.847 142.473 102.583 142.112 102.499C141.751 102.416 141.361 102.444 141.042 102.638Z" fill="#9F7152"/>
<path d="M142.07 103.985C141.987 104.013 141.903 104.041 141.834 104.069C141.653 104.138 141.473 104.208 141.306 104.305C141.056 104.43 140.847 104.611 140.625 104.777C140.5 104.875 140.388 104.986 140.277 105.111C140.096 105.32 139.916 105.542 139.791 105.792C139.693 105.945 139.638 106.126 139.624 106.306C139.582 106.487 139.596 106.682 139.652 106.862C139.693 107.043 139.777 107.196 139.902 107.335C139.999 107.488 140.124 107.599 140.291 107.696C140.611 107.863 141 107.947 141.361 107.835L141.695 107.696C141.903 107.571 142.07 107.405 142.195 107.196C142.251 107.085 142.334 106.974 142.404 106.862L142.181 107.14C142.307 106.974 142.459 106.835 142.612 106.71L142.334 106.932C142.501 106.807 142.668 106.71 142.862 106.626L142.529 106.765C142.612 106.723 142.71 106.696 142.793 106.668C142.974 106.626 143.127 106.543 143.266 106.418C143.418 106.32 143.53 106.195 143.627 106.028C143.724 105.876 143.78 105.695 143.794 105.514C143.835 105.333 143.822 105.139 143.766 104.958L143.627 104.625C143.502 104.416 143.335 104.249 143.127 104.124C142.793 103.943 142.418 103.874 142.056 103.985H142.07Z" fill="#9F7152"/>
<path d="M142.292 105.46C142.125 105.53 141.972 105.627 141.819 105.738C141.583 105.905 141.36 106.086 141.166 106.294C141.041 106.447 140.916 106.6 140.804 106.767C140.749 106.837 140.707 106.92 140.651 106.989C140.499 107.24 140.387 107.518 140.304 107.796C140.248 107.976 140.234 108.171 140.276 108.352C140.276 108.532 140.346 108.713 140.443 108.866C140.526 109.033 140.651 109.158 140.804 109.255C140.943 109.38 141.096 109.464 141.277 109.505L141.652 109.561C141.902 109.561 142.139 109.491 142.347 109.366L142.625 109.144C142.792 108.977 142.917 108.769 142.987 108.532C143.014 108.463 143.028 108.407 143.056 108.338L142.917 108.671C143.001 108.463 143.112 108.282 143.251 108.101L143.028 108.379C143.153 108.213 143.306 108.06 143.473 107.935L143.195 108.157C143.348 108.032 143.515 107.935 143.696 107.851C143.862 107.768 143.987 107.643 144.085 107.49C144.21 107.351 144.293 107.198 144.335 107.017C144.391 106.837 144.404 106.642 144.363 106.461C144.363 106.281 144.293 106.1 144.196 105.947C144.001 105.655 143.723 105.391 143.362 105.308L142.987 105.252C142.736 105.252 142.5 105.321 142.292 105.447V105.46Z" fill="#9F7152"/>
<path d="M141.861 107.225C141.583 107.67 141.361 108.156 141.18 108.643C141.027 109.032 140.93 109.435 140.861 109.852C140.805 110.033 140.791 110.228 140.833 110.408C140.833 110.589 140.902 110.77 141 110.923C141.166 111.214 141.5 111.492 141.834 111.562C142.195 111.645 142.584 111.631 142.904 111.423C143.182 111.242 143.488 110.936 143.543 110.589C143.627 110.089 143.752 109.616 143.946 109.157L143.807 109.491C143.932 109.199 144.085 108.907 144.252 108.629C144.447 108.323 144.488 107.892 144.391 107.559C144.294 107.225 144.058 106.892 143.752 106.725C143.432 106.558 143.043 106.475 142.682 106.586C142.32 106.697 142.042 106.905 141.848 107.225H141.861Z" fill="#9F7152"/>
<path d="M143.751 100.832C144.279 99.1086 145.21 97.4824 146.809 96.6901C147.49 96.3426 148.477 96.287 149.339 96.3565C150.409 96.4399 151.479 96.6901 152.508 96.9959C154.231 97.4963 154.968 94.8136 153.244 94.3132C150.729 93.5765 147.837 93.0622 145.391 94.2854C143.125 95.4252 141.777 97.7465 141.054 100.096C140.832 100.818 141.318 101.611 142.027 101.805C142.736 102 143.515 101.555 143.737 100.832H143.751Z" fill="#9F7152"/>
<path d="M144.987 101.762C145.279 101.456 145.571 101.136 145.877 100.845C146.016 100.706 146.168 100.567 146.321 100.428C146.391 100.358 146.474 100.289 146.544 100.233C146.585 100.191 146.85 99.9828 146.627 100.163C146.405 100.344 146.669 100.136 146.711 100.108C146.808 100.038 146.919 99.9689 147.016 99.8994C147.183 99.8021 147.35 99.7048 147.531 99.6214C147.809 99.4824 147.503 99.677 147.433 99.6631C147.489 99.6631 147.642 99.5936 147.711 99.5658C147.809 99.538 147.892 99.5241 147.989 99.4963C148.365 99.3851 147.684 99.4963 147.934 99.4963C148.142 99.4963 148.351 99.4963 148.559 99.4963C148.837 99.4963 148.212 99.4129 148.476 99.4963C148.573 99.5241 148.684 99.538 148.782 99.5658C148.879 99.5936 148.99 99.6214 149.087 99.6631C149.143 99.677 149.477 99.7882 149.213 99.7048C148.935 99.6214 149.338 99.7743 149.393 99.8021C149.491 99.8577 149.574 99.8994 149.671 99.955C149.782 100.024 150.158 100.191 150.199 100.316C150.172 100.233 149.935 100.094 150.158 100.289C150.241 100.358 150.324 100.428 150.394 100.497C150.755 100.817 151.089 101.164 151.423 101.512C152.173 102.304 153.619 102.318 154.369 101.512C155.148 100.664 155.162 99.4129 154.369 98.565C152.715 96.8136 150.477 95.1179 147.92 95.3542C145.362 95.5905 143.667 97.1194 142.04 98.8569C141.304 99.6631 141.192 101.025 142.04 101.804C142.846 102.54 144.195 102.652 144.987 101.804V101.762Z" fill="#9F7152"/>
<path d="M146.226 101.082C149.603 101.277 151.507 103.89 152.494 106.864C153.62 110.242 154.134 113.8 155.121 117.22C156.914 123.377 160.403 129.396 166.825 131.495C169.382 132.329 170.481 128.298 167.937 127.478C154.023 122.932 162.447 97.8573 146.226 96.926C143.543 96.7731 143.557 100.943 146.226 101.096V101.082Z" fill="#9F7152"/>
<path d="M149.325 96.9669C155.177 96.4804 155.9 103.277 157.151 107.419C157.971 110.13 158.972 112.799 159.972 115.454C160.904 117.928 161.918 120.332 163.781 122.278C165.643 124.224 168.576 121.278 166.728 119.332C164.879 117.386 164.073 114.578 163.155 112.09C162.071 109.157 161.098 106.21 160.334 103.166C159.653 100.497 158.805 97.8009 156.845 95.7576C154.885 93.7144 152.133 92.5607 149.339 92.7831C146.545 93.0055 146.656 97.1754 149.339 96.953L149.325 96.9669Z" fill="#9F7152"/>
<path d="M152.995 101.069C154.802 106.421 156.428 111.856 158.499 117.11C159.472 119.57 160.57 121.975 162.072 124.157C163.281 125.908 165.06 128.855 167.34 129.105C168.299 129.216 169.049 128.368 169.355 127.576L169.397 127.465C169.73 126.603 169.174 125.561 168.438 125.116L168.354 125.06C166.047 123.67 163.948 127.27 166.255 128.66L166.339 128.716L165.38 126.367L165.338 126.478L167.353 124.949H167.228C167.576 125.033 167.923 125.13 168.285 125.213C166.728 124.032 165.394 121.766 164.448 120.07C163.364 118.124 162.516 116.067 161.766 113.982C160.098 109.34 158.597 104.642 157.012 99.9713C156.164 97.4416 152.133 98.5257 152.995 101.083V101.069Z" fill="#9F7152"/>
<path d="M161.668 118.677C162.808 120.595 164.059 122.472 165.504 124.168C166.227 125.029 167.172 125.641 168.187 126.1C169.299 126.6 170.439 127.045 171.62 127.365C172.676 127.657 173.927 127.003 174.192 125.905C174.456 124.807 173.858 123.653 172.732 123.334C172.259 123.209 171.787 123.056 171.314 122.903C171.078 122.819 170.856 122.736 170.619 122.639C170.397 122.555 170.327 122.555 170.591 122.639C170.494 122.611 170.383 122.555 170.286 122.5C169.869 122.305 169.48 122.097 169.09 121.86C169.285 122.055 168.701 121.624 169.09 121.86C168.993 121.777 168.896 121.694 168.812 121.596C168.646 121.429 168.493 121.263 168.354 121.082C168.284 120.999 168.229 120.915 168.159 120.846C167.978 120.623 168.465 121.235 168.145 120.832C168.006 120.637 167.853 120.443 167.714 120.248C167.422 119.859 167.144 119.47 166.88 119.066C166.324 118.246 165.782 117.412 165.282 116.565C164.726 115.633 163.378 115.202 162.432 115.814C161.487 116.426 161.084 117.663 161.682 118.663L161.668 118.677Z" fill="#9F7152"/>
<path d="M165.407 127.281C166.116 128.046 166.88 128.768 167.742 129.352C168.729 130.019 169.896 130.395 171.078 130.45C171.592 130.478 172.19 130.2 172.551 129.839C172.912 129.477 173.19 128.88 173.163 128.365C173.107 127.198 172.245 126.336 171.078 126.28C170.953 126.28 170.841 126.267 170.716 126.253L171.272 126.322C170.911 126.267 170.577 126.169 170.23 126.03L170.73 126.239C170.285 126.044 169.868 125.794 169.479 125.488L169.896 125.808C169.326 125.363 168.826 124.849 168.339 124.321C167.978 123.931 167.38 123.709 166.866 123.709C166.352 123.709 165.74 123.931 165.393 124.321C165.045 124.71 164.753 125.238 164.781 125.794C164.809 126.35 165.004 126.85 165.393 127.267L165.407 127.281Z" fill="#9F7152"/>
<path d="M166.295 131.175C166.851 131.509 167.435 131.759 168.033 131.995C168.477 132.176 168.936 132.315 169.409 132.412C169.951 132.538 170.521 132.496 171.021 132.204C171.257 132.079 171.466 131.898 171.605 131.662C171.786 131.467 171.911 131.231 171.98 130.953C172.105 130.425 172.077 129.827 171.772 129.341C171.48 128.896 171.063 128.507 170.521 128.382C169.979 128.256 169.492 128.104 168.992 127.895L169.492 128.104C169.117 127.937 168.755 127.756 168.408 127.548C168.172 127.395 167.907 127.311 167.629 127.297C167.351 127.242 167.073 127.242 166.795 127.339C166.517 127.409 166.281 127.534 166.087 127.714C165.864 127.867 165.684 128.062 165.545 128.298C165.294 128.785 165.155 129.368 165.336 129.91C165.517 130.453 165.823 130.87 166.295 131.161V131.175Z" fill="#9F7152"/>
<path d="M10.0208 112.006C9.24245 110.533 10.0903 109.504 9.82624 108.337C9.54825 107.364 8.78377 106.585 7.81079 106.307C7.60229 106.252 7.37989 106.391 7.33819 106.599C7.29649 106.766 7.36599 106.933 7.50499 107.03C7.96368 107.239 8.38067 107.53 8.74207 107.906C9.08956 108.434 9.20076 109.087 9.03396 109.685C8.79766 110.616 8.99226 111.603 9.57605 112.368C9.70115 112.479 9.88185 112.465 9.99304 112.34C10.0764 112.242 10.0903 112.117 10.0347 112.006H10.0208Z" fill="#191919"/>
<path d="M7.10117 108.612C7.28187 108.751 7.62936 108.57 7.46257 108.334C6.08649 106.291 3.08415 105.332 2.38916 105.79C2.29186 105.846 2.25017 105.985 2.31967 106.082C2.31967 106.082 2.33356 106.11 2.34746 106.124C2.86175 106.75 4.00153 106.18 7.10117 108.612Z" fill="#191919"/>
<path d="M5.61451 109.241C5.73961 109.241 5.85081 109.129 5.83691 109.004C5.83691 108.963 5.8369 108.935 5.8091 108.907C5.44771 108.226 4.29403 107.865 3.62685 107.573C2.79286 107.156 1.87548 106.905 0.944197 106.836C0.8191 106.836 0.721799 106.947 0.735699 107.072C0.735699 107.142 0.777409 107.211 0.833007 107.253C1.61139 107.698 2.54267 107.865 3.34886 108.24C4.69713 108.865 5.04462 109.254 5.61451 109.254V109.241Z" fill="#191919"/>
<path d="M3.40371 109.1C2.88942 108.794 2.31953 108.572 1.72184 108.475C1.52725 108.447 1.51335 108.711 1.62455 108.794C2.15273 109.142 2.69482 109.448 3.26471 109.726C3.66781 110.059 4.15429 110.296 4.66858 110.407C4.79368 110.407 4.83538 110.282 4.79368 110.198C4.46009 109.684 3.98749 109.295 3.4176 109.086L3.40371 109.1Z" fill="#191919"/>
<path d="M4.89312 111.95C3.73944 111.408 2.96105 110.338 1.71008 109.991C1.59888 109.963 1.48768 110.032 1.45988 110.143C1.43208 110.227 1.47378 110.324 1.54327 110.366C2.54406 110.908 3.28075 111.784 4.23983 112.367C4.71242 112.631 5.2267 112.826 5.75489 112.937C7.04757 113.243 6.86687 113.507 7.35336 113.702C7.45066 113.743 7.61747 113.716 7.63136 113.591C7.82596 112.326 5.6298 112.312 4.89312 111.95Z" fill="#191919"/>
<path d="M6.57179 109.754C6.0853 110.629 6.71078 111.741 7.23897 111.686C7.68376 111.644 7.16948 111.005 7.07218 110.768C6.96098 110.49 6.93318 110.185 6.97488 109.879C6.97488 109.768 6.90537 109.656 6.79418 109.643C6.71078 109.643 6.62739 109.684 6.58569 109.754H6.57179Z" fill="#191919"/>
<path d="M29.7025 138.153C30.606 133.649 31.7596 131.523 32.3017 129.062C32.3573 128.784 31.9542 128.576 31.8152 128.854C31.2175 130.147 30.7172 131.481 30.3141 132.843C28.8963 136.957 28.2013 141.294 28.2708 145.645C28.1179 152.859 28.8546 160.059 31.9681 166.522C32.5102 167.912 33.3164 169.191 34.3311 170.289C34.484 170.428 34.8176 170.289 34.7203 170.053C33.9419 168.037 28.799 162.366 28.9936 146.757C28.9658 143.866 29.1882 140.974 29.6886 138.125L29.7025 138.153Z" fill="#191919"/>
<path d="M17.1504 148.893C20.1388 146.363 23.8362 144.821 27.742 144.445C27.881 144.445 27.9922 144.334 27.9922 144.195C27.9922 144.056 27.881 143.945 27.742 143.945C23.0022 143.653 18.8323 146.433 15.26 149.435C14.8013 149.825 14.2176 150.172 14.0091 150.742C13.9535 150.895 14.1203 151.006 14.2453 150.978C14.843 150.881 14.9125 150.575 17.1504 148.893Z" fill="#191919"/>
<path d="M42.2527 128.447C42.1693 128.364 42.0303 128.364 41.933 128.447C41.9052 128.475 41.8913 128.503 41.8774 128.545C41.7662 128.92 41.7245 129.337 41.6133 129.712C41.516 130.06 41.377 130.407 41.3075 130.755C41.238 131.589 41.4187 132.423 41.8218 133.145C42.4751 134.883 42.7392 136.759 42.6141 138.608C42.6141 138.705 42.6975 138.775 42.7948 138.775C42.8643 138.775 42.9338 138.719 42.9477 138.65C43.4064 136.37 43.1145 133.993 42.1276 131.894C41.7245 130.491 43.045 129.434 42.2527 128.433V128.447Z" fill="#191919"/>
<path d="M24.1718 141.11C24.1718 141.11 24.1162 141.082 24.0884 141.068C24.0884 140.971 24.7138 138.997 23.4351 137.969C23.0042 137.663 22.5177 137.455 22.0034 137.371C18.2366 136.356 14.3168 136.065 10.4388 136.468C9.50754 136.607 8.32606 136.996 8.50676 138.177C8.67356 139.331 9.96623 140.082 10.8697 140.624C13.3439 142.083 16.0404 143.112 18.8482 143.668C19.7933 143.876 20.7802 143.668 21.5586 143.098C21.781 142.903 22.0173 142.431 22.3231 142.375C22.6706 142.306 23.0737 142.556 23.4212 142.556C24.4359 142.556 24.7555 141.555 24.1718 141.096V141.11ZM23.6436 141.472C23.8382 141.861 22.5177 141.541 22.337 141.555C20.947 141.611 21.5169 143.418 18.5007 142.764C16.3462 142.278 14.2613 141.513 12.3014 140.471C11.3006 140.04 10.3971 139.428 9.64654 138.65C8.63186 137.413 10.5917 137.274 11.3979 137.204C13.7748 137.01 16.1655 137.121 18.5007 137.524C19.7516 137.691 20.9887 137.913 22.198 138.219C24.0189 138.719 23.4212 140.79 23.6992 141.166C23.6019 141.235 23.5741 141.36 23.6297 141.458L23.6436 141.472Z" fill="#191919"/>
<path d="M35.3195 97.0206C35.0137 96.9094 34.3743 97.2569 34.2214 97.8546C34.2075 97.9241 34.2492 98.0075 34.3187 98.0214C34.3743 98.0353 34.4299 98.0214 34.4716 97.9658C34.7913 97.4932 35.1666 97.5071 35.3612 97.3542C35.4446 97.2986 35.4724 97.1735 35.4168 97.0901C35.389 97.0623 35.3612 97.0345 35.3195 97.0206Z" fill="#191919"/>
<path d="M38.7107 96.3542C38.3632 96.0901 37.8906 96.0623 37.5153 96.2708C37.3346 96.3542 37.4597 96.6461 37.6543 96.5905C37.9184 96.5488 38.1825 96.5905 38.4049 96.7156C38.6412 96.8268 38.933 96.521 38.6968 96.3403L38.7107 96.3542Z" fill="#191919"/>
<path d="M38.1254 98.5907C38.0837 99.1884 38.6119 99.3552 38.7231 99.1189C38.8343 98.9521 38.8482 98.7436 38.7787 98.5629C38.598 98.2293 38.1532 98.2571 38.1254 98.5907Z" fill="#191919"/>
<path d="M35.8744 98.9537C35.7215 99.1066 35.7215 99.3707 35.8744 99.5236C35.9995 99.6487 36.1941 99.6626 36.347 99.5792C36.5277 99.4819 36.5972 99.2456 36.4999 99.051C36.4999 99.0371 36.486 99.0232 36.4721 98.9954C36.347 98.8147 36.1107 98.773 35.93 98.8981C35.9022 98.912 35.8883 98.9259 35.8744 98.9537Z" fill="#191919"/>
<path d="M38.917 100.858C38.3193 100.079 37.8189 99.2315 37.4436 98.328C37.4019 98.2307 37.2212 98.2724 37.2351 98.3836C37.4158 100.26 38.5973 100.663 38.3749 101.177C38.2498 101.483 37.8884 101.483 37.6938 101.747C37.6521 101.831 37.6799 101.928 37.7494 101.97C38.2776 102.262 39.0421 101.372 38.917 100.858Z" fill="#191919"/>
<path d="M38.5018 102.956C38.5018 102.956 38.3628 102.887 38.3072 102.929C38.0848 103.081 38.0014 103.54 37.8485 103.86C37.7095 103.999 37.5566 104.124 37.3898 104.235C36.7226 104.235 36.2361 103.04 36.0276 102.414C35.972 102.248 35.694 102.261 35.7218 102.456C35.7218 102.539 35.7357 102.623 35.7496 102.734C35.694 102.762 35.6523 102.817 35.6523 102.873C35.6523 103.637 35.8886 104.791 36.7087 105.097C37.5149 105.305 38.3489 104.805 38.5435 103.999C38.5435 103.971 38.5435 103.943 38.5574 103.915C38.5574 103.721 38.7798 103.262 38.4879 102.956H38.5018Z" fill="#6F93FC"/>
<path d="M36.1384 101.747H36.1106C35.9299 101.567 35.7353 101.747 35.8326 101.9C36.3886 102.776 37.4589 103.165 38.4458 102.832C38.5987 102.72 38.5848 102.442 38.2651 102.442C38.2512 102.387 38.2095 102.345 38.1539 102.317C37.5284 102.012 36.8473 101.803 36.1384 101.734V101.747Z" fill="#6F93FC"/>
<path d="M165.88 106.058C165.88 105.932 165.769 105.821 165.644 105.835C165.602 105.835 165.575 105.835 165.533 105.863C165.032 106.099 164.796 106.78 164.588 107.281C163.962 108.754 164.393 109.685 164.532 110.895C164.532 111.548 164.602 112.215 164.727 112.855C164.768 112.952 164.88 113.007 164.977 112.966C165.032 112.952 165.074 112.91 165.088 112.855C165.839 111.103 164.379 109.393 165.269 107.448C165.477 106.989 165.866 106.586 165.866 106.071L165.88 106.058Z" fill="#191919"/>
<path d="M167.421 102.414C167.352 103.387 167.352 104.346 167.421 105.319C167.352 106.39 167.199 107.446 166.963 108.489C166.921 108.697 167.241 108.878 167.352 108.655C167.811 107.641 168.089 106.556 168.144 105.444C168.2 104.513 168.325 103.151 167.727 102.373C167.672 102.303 167.56 102.289 167.491 102.345C167.463 102.373 167.449 102.4 167.435 102.428L167.421 102.414Z" fill="#191919"/>
<path d="M168.993 108.627C169.466 108.322 169.605 107.613 169.744 107.098C170.341 105.055 170.383 102.873 169.869 100.802C169.785 100.565 169.396 100.593 169.41 100.857C169.688 102.845 169.591 104.86 169.118 106.806C168.868 107.349 168.757 107.932 168.771 108.53C168.785 108.613 168.868 108.655 168.937 108.641C168.937 108.641 168.965 108.641 168.979 108.627H168.993Z" fill="#191919"/>
<path d="M170.172 109.293C170.519 109.293 170.686 109.057 170.811 108.765C171.048 108.209 171.242 107.625 171.381 107.042C171.729 105.888 171.854 104.665 171.729 103.455C171.687 103.136 171.201 103.108 171.214 103.455C171.214 105.04 170.909 106.611 170.339 108.084C170.2 108.473 169.769 109.293 170.172 109.293Z" fill="#191919"/>
<path d="M172.578 106.097C171.285 111.49 167.935 112.643 168.45 113.95C168.491 114.075 168.63 114.159 168.756 114.117C168.769 114.117 168.783 114.117 168.811 114.089C169.131 113.936 169.2 113.63 169.381 113.338C170.132 112.115 172.634 110.155 172.995 106.152C173.009 105.93 172.647 105.874 172.592 106.097H172.578Z" fill="#191919"/>
<path d="M20.572 124.253C20.572 124.253 20.6832 124.155 20.7388 124.128C20.3774 123.113 20.6137 121.973 21.3504 121.195C21.128 119.944 21.962 118.748 23.213 118.526C23.213 117.261 23.9775 116.135 25.159 115.677C25.0756 115.079 25.1589 114.467 25.3813 113.897C25.5481 113.55 25.8122 113.272 26.1458 113.105C26.1041 112.966 26.0902 112.813 26.0763 112.66C26.0068 111.534 26.6045 110.478 27.6053 109.964C27.4385 108.713 28.0362 107.476 29.1204 106.822C29.1204 106.739 29.1204 106.656 29.1204 106.572C28.6061 106.781 28.1196 107.031 27.6748 107.323C27.3829 107.907 26.8686 108.351 26.2292 108.546C25.9651 109.394 25.3396 110.075 24.5196 110.395C23.769 111.465 23.1435 112.605 22.6431 113.8C22.0732 115.148 21.3643 116.483 20.8778 117.873C19.6547 116.316 17.2222 115.051 15.026 113.897C14.9287 114.495 14.6229 115.051 14.1504 115.44C14.1504 115.732 14.1504 116.01 14.0948 116.302C13.9558 116.789 13.4554 117.08 12.9689 116.941C12.3573 116.747 11.7596 116.566 11.148 116.372C10.6476 116.219 10.3696 115.704 10.5086 115.204C10.5781 114.982 10.7171 114.787 10.9256 114.662C11.2592 114.495 11.5789 114.342 11.9125 114.175C11.9125 113.647 12.0793 113.133 12.3851 112.702C9.43835 111.604 10.9395 112.327 8.14567 114.203C7.96498 114.314 7.89548 114.551 8.00668 114.731C8.03448 114.787 8.09007 114.829 8.14567 114.87C8.61826 115.176 10.7588 119.304 16.277 122.599C17.5836 123.419 19.0292 123.975 20.5581 124.211L20.572 124.253Z" fill="#191919"/>
<path d="M56.6526 18.5856C58.9183 19.6976 61.2812 20.5733 63.7276 21.2265C64.5199 21.5184 65.3539 21.6574 66.1878 21.6574C66.3129 21.6574 66.4241 21.5462 66.4102 21.4072C66.4102 21.3238 66.3685 21.2543 66.299 21.2126C65.5067 20.6706 64.7006 20.7262 61.6148 19.7671C60.0164 19.2667 58.4318 18.6968 56.8472 18.1408C56.7221 18.113 56.5831 18.1825 56.5553 18.3215C56.5275 18.4188 56.5692 18.53 56.6665 18.5856H56.6526Z" fill="#6F93FC"/>
<path d="M76.4494 14.7067C72.2378 6.78387 71.7791 3.96222 71.0424 3.05874C70.9451 2.96144 70.7783 2.94754 70.6811 3.05874C70.6394 3.10044 70.6116 3.15604 70.5977 3.22554C70.7228 4.22632 71.0146 5.1993 71.4733 6.08888C72.6826 9.18852 74.1977 12.1492 76.0047 14.9291C76.1714 15.1932 76.5884 14.9847 76.4355 14.7067H76.4494Z" fill="#6F93FC"/>
<path d="M87.5117 10.8153C87.9843 7.34036 88.165 3.82373 88.0538 0.307093C88.026 -0.137698 87.5117 -0.082098 87.4839 0.362694C87.3032 2.37816 87.3727 5.3527 86.9835 10.857C86.9557 11.2879 87.47 11.2045 87.5117 10.8014V10.8153Z" fill="#6F93FC"/>
<path d="M97.4636 14.5247C104.275 9.08994 104.511 8.90924 105.261 7.95016C105.345 7.85286 105.345 7.71386 105.261 7.63047C105.192 7.56097 105.081 7.54707 104.997 7.60267C103.566 8.50615 102.231 9.54863 101.022 10.744C99.7015 11.8699 98.3949 13.0097 97.0884 14.1494C96.8382 14.3718 97.2135 14.7193 97.4636 14.5247Z" fill="#6F93FC"/>
<path d="M104.01 26.1069C108.5 23.3131 109.848 23.1463 112.336 21.8675C112.559 21.7563 112.392 21.4366 112.169 21.4783C109.542 21.9787 105.956 24.1054 103.718 25.6205C103.426 25.8151 103.691 26.2876 103.996 26.093L104.01 26.1069Z" fill="#6F93FC"/>
<path d="M92.5578 24.8815C91.9045 25.2846 91.3624 25.8405 90.9593 26.5077C88.2906 30.0661 85.9971 33.8746 84.079 37.8777C82.5917 40.9079 82.1469 43.8407 80.9793 46.9959C80.9793 47.0237 80.9376 47.0515 80.9098 47.0515C80.9098 47.0515 80.882 47.0515 80.8681 47.0376C81.6326 42.1866 82.967 37.4329 84.8435 32.8877C86.9284 28.0089 89.0134 23.1162 89.5277 17.8204C89.6111 17.4034 89.5277 16.9586 89.3331 16.5833C88.8188 15.8605 87.7485 16.0829 87.0813 16.4165C85.4968 17.1949 84.1624 19.3911 82.8697 21.5177C77.5044 30.3997 76.8511 36.3071 74.5577 43.0901C74.2797 43.8963 73.3206 47.4407 73.1399 47.6631C73.1538 37.4329 79.228 26.8969 78.2689 21.8374C78.116 21.0173 77.8102 19.9471 76.9901 19.5718C76.1005 19.1687 75.1692 19.9332 74.516 20.4475C71.875 22.5046 70.207 25.8128 68.9144 28.8707C64.1468 40.1017 65.1058 48.1218 64.8418 54.474H64.8278C64.1607 51.43 63.1877 48.4693 61.9228 45.6338C60.8664 43.382 59.3235 39.921 56.3768 39.8515C55.0841 39.8793 53.8748 40.4909 53.0965 41.5194C51.1783 43.8546 51.7621 47.3851 52.4432 50.3458C54.2779 58.3103 58.6564 65.3853 59.8239 73.3637C59.949 74.1838 60.1158 77.7839 60.0741 78.1175C59.6849 81.0781 61.6031 81.0503 61.8255 81.1059C62.6039 81.2866 66.5236 82.1901 67.3159 82.3708C67.2464 82.6627 67.1769 82.9824 67.0935 83.3299C68.553 83.0797 70.0541 83.4966 71.18 84.4557C71.2773 84.0387 71.3746 83.6217 71.458 83.1909C73.6403 83.6078 75.7947 84.0109 76.6982 84.0943C76.9901 84.1221 78.811 84.5947 79.6728 83.594C80.062 83.2743 80.4372 82.9546 80.7986 82.621C77.0596 77.1306 74.0851 71.1537 71.9584 64.8571C71.3051 62.925 70.5823 60.6038 71.8055 58.7412C72.9453 57.1844 74.9191 56.5034 76.7816 57.0177C80.6735 57.9072 81.5909 61.9382 85.3161 66.1081C83.0921 58.8107 82.7168 51.0686 84.2319 43.5905C84.9686 39.8793 86.8728 33.8885 88.8883 31.053C90.4311 28.8707 92.7246 28.6761 94.1285 29.6074C94.3787 28.7317 94.5177 27.8282 94.5455 26.9247C94.5455 25.8683 93.9478 24.256 92.5995 24.8537L92.5578 24.8815Z" fill="#6F93FC"/>
<path d="M68.5665 85.7213C68.9 85.6796 69.2197 85.6657 69.5533 85.6657C68.6221 84.9707 66.7873 85.068 67.2599 86.1383C67.4823 86.5692 67.6491 87.0418 67.7186 87.5282C67.7464 88.2371 67.5379 88.9321 67.107 89.4881C66.8707 89.9468 66.3147 90.1553 65.8421 89.9607C65.8004 91.1422 66.3286 91.9623 68.2329 92.0735C68.8722 92.1152 69.2475 91.9901 69.456 91.3646C69.456 91.3368 69.4699 91.2951 69.4977 91.2395C69.0112 91.0588 68.3858 90.7113 68.3024 90.197C68.2468 89.8912 68.497 89.5298 68.8027 89.5576C68.5108 89.3908 68.3997 89.0294 68.5665 88.7375C68.6637 88.5707 68.8305 88.4456 69.0251 88.4317C68.6777 88.3066 68.4414 87.973 68.4414 87.5977C68.4414 87.1947 68.7332 87.0418 68.9278 87.1391C68.4274 86.9445 68.1356 86.4302 68.219 85.9159C68.3024 85.7908 68.4414 85.7213 68.5943 85.7213H68.5665Z" fill="#6F93FC"/>
<path d="M70.0658 85.0273C70.3577 85.2358 70.6635 85.4165 70.9971 85.5555C71.1778 85.6111 71.4141 85.4165 71.3307 85.2219C71.011 84.4435 69.9407 84.096 69.204 83.8458C66.7577 83.0119 65.1314 84.1655 64.9368 85.5555C64.8256 86.3756 65.1592 86.3756 65.1453 89.0026C65.1453 89.1138 65.2426 89.1972 65.3538 89.1972C65.4372 89.1972 65.5206 89.1416 65.5484 89.0582C66.299 86.7787 64.9646 85.4582 66.4797 84.5686C67.536 83.957 69.0372 84.4435 70.0936 85.0273H70.0658Z" fill="#191919"/>
<path d="M68.7063 86.5975C69.9156 87.4871 72.765 87.6261 73.1264 86.1944C73.2098 85.6801 72.9874 85.1659 72.5426 84.8879C72.3341 84.7072 71.9728 84.9435 72.1395 85.1937C72.2785 85.4161 72.5287 85.7635 72.4036 86.0415C72.1673 86.5558 70.6384 86.4307 70.1102 86.3195C69.6793 86.2361 68.609 85.4439 68.5117 86.2639C68.5117 86.4029 68.5812 86.528 68.7063 86.6114V86.5975Z" fill="#191919"/>
<path d="M72.6256 87.1259C72.57 87.5707 71.2496 87.6263 70.9577 87.6402C70.3878 87.6124 69.8318 87.5151 69.2897 87.3622C69.0812 87.3205 68.8727 87.4595 68.831 87.668C68.7893 87.8487 68.9005 88.0433 69.0812 88.0989C69.9847 88.4325 70.9716 88.502 71.9307 88.3074C72.5422 88.1684 73.404 87.9321 73.1816 87.1398C73.1121 86.8757 72.6673 86.834 72.6256 87.1398V87.1259Z" fill="#191919"/>
<path d="M72.8058 88.3615C72.0552 88.8758 71.1378 89.0704 70.2482 88.9314C69.9007 88.9036 68.9416 88.4866 68.9277 89.126C68.9277 89.2511 68.9972 89.3762 69.1084 89.4318C69.859 89.7654 70.6791 89.8627 71.4853 89.7098C72.1803 89.682 72.8197 89.3345 73.2367 88.7785C73.4035 88.5283 73.0421 88.1669 72.8058 88.3476V88.3615Z" fill="#191919"/>
<path d="M72.4597 89.9748C70.6528 90.9617 69.6937 89.6134 68.7763 89.8636C68.3315 89.9887 68.6929 90.8922 70.7362 91.0868C71.5007 91.198 72.2651 90.9478 72.8072 90.4196C72.9045 90.2945 72.8906 90.1138 72.7655 90.0165C72.6821 89.947 72.557 89.9331 72.4597 89.9748Z" fill="#191919"/>
<path d="M113.115 55.6281C113.99 52.9177 114.477 50.1099 114.546 47.2605C114.532 46.1346 114.296 44.8975 112.948 44.7724C111.836 44.7724 110.835 45.3979 110.363 46.3987C109.125 48.4281 107.735 56.7123 107.43 59.117C107.666 54.1131 109.515 43.7578 110.168 39.0596C110.307 38.1006 110.641 36.7245 110.168 35.8071C109.709 34.9314 108.722 35.0704 107.972 35.4457C105.929 36.4604 105.011 38.8094 104.247 40.8249C103.524 42.7292 97.6582 77.5897 103.44 39.9075C104.344 34.0696 104.719 32.9021 104.01 31.7901C103.454 30.9839 102.342 30.7754 101.536 31.3314C101.508 31.3453 101.494 31.3592 101.467 31.387C100.396 32.1932 99.4929 33.2218 98.8396 34.3893C97.2134 36.7523 95.9068 39.3098 94.9199 42.0064C94.0581 44.3693 93.7106 51.5277 93.3909 54.0158C93.0573 49.8875 94.072 41.0473 94.4751 36.9469C94.6002 35.8349 94.628 34.709 94.5724 33.5971C94.6419 32.6241 94.3778 31.6511 93.8496 30.831C93.3353 30.3028 92.5709 30.0804 91.8481 30.2611C89.9994 30.6086 89.082 32.7909 88.3036 34.5283C83.2302 45.8844 83.119 58.839 88.0118 70.2784C83.5777 66.4838 82.4657 64.3433 80.4364 61.327C79.6024 59.8258 78.2402 58.7 76.614 58.1579C75.2379 57.727 73.7228 58.1579 72.7915 59.2838C71.7073 60.8266 72.4301 62.856 72.9583 64.4545C78.6433 81.4399 87.1222 87.8199 89.9299 93.5466C89.9577 93.6022 90.3747 94.6447 90.6388 94.6864C94.6697 95.437 98.8257 95.0478 102.648 93.5883C102.843 94.0331 103.065 94.4779 103.288 94.9227C103.315 94.9227 103.357 94.9505 103.385 94.9783C103.913 93.8385 104.9 92.9906 106.095 92.6153C105.984 92.4207 105.887 92.2261 105.79 92.0454C107.888 90.7945 110.766 88.3759 111.794 86.5967C112.308 85.6933 112.003 84.8176 111.739 82.6492C109.973 68.4854 110.946 63.551 113.142 55.6976L113.115 55.6281Z" fill="#6F93FC"/>
<path d="M108.904 98.1746C108.042 97.6047 107.584 96.5901 107.737 95.5615C106.986 94.1715 107.097 94.3105 107 94.3105C106.388 94.38 105.832 94.6997 105.457 95.2001C105.763 95.1028 106.096 95.0194 106.416 94.9638C106.791 94.9082 106.875 95.0333 106.93 95.2557C107.014 95.6866 106.847 96.1314 106.5 96.4233C106.611 96.3399 106.764 96.326 106.875 96.4094C107.208 96.729 107.222 97.2572 106.903 97.5908C106.861 97.6325 106.819 97.6603 106.778 97.6881C107.111 97.6325 107.431 97.841 107.486 98.1746C107.528 98.3692 107.459 98.5777 107.32 98.7167C107.709 98.5499 108.39 99.1198 107.653 100.023C107.32 100.412 106.903 100.732 106.43 100.927C106.708 101.135 107.069 101.205 107.403 101.121C108.07 100.996 108.682 100.663 109.154 100.176C109.516 99.5924 109.502 98.8696 109.113 98.2997C109.029 98.2719 108.96 98.2163 108.89 98.1607L108.904 98.1746Z" fill="#6F93FC"/>
<path d="M104.79 94.7536C104.568 95.0455 104.332 95.2957 104.054 95.5459C103.929 95.6293 103.762 95.5876 103.678 95.4486C103.651 95.4069 103.637 95.3652 103.637 95.3235C103.72 94.4895 104.638 93.8362 105.277 93.3914C107.417 91.8764 109.28 92.5714 109.85 93.8084C110.197 94.6007 109.878 94.8092 110.642 97.1722C110.67 97.2834 110.6 97.3946 110.503 97.4224C110.42 97.4502 110.336 97.4224 110.281 97.339C108.905 95.3791 109.822 93.7111 108.099 93.2941C106.931 93.0023 105.569 93.9335 104.777 94.7814L104.79 94.7536Z" fill="#191919"/>
<path d="M102.176 96.7274C101.953 96.2548 102.023 95.6988 102.356 95.3096C102.509 95.0594 102.912 95.1984 102.829 95.4903C102.759 95.7544 102.606 96.1436 102.829 96.3799C103.218 96.8108 104.594 96.2687 105.108 95.9907C105.484 95.7822 106.29 94.7258 106.623 95.4764C106.957 96.227 103.19 98.3814 102.189 96.7413L102.176 96.7274Z" fill="#191919"/>
<path d="M102.926 97.4801C103.121 97.8831 104.386 97.5635 104.678 97.4801C105.206 97.2994 105.72 97.0492 106.193 96.7295C106.387 96.6461 106.624 96.7295 106.707 96.9241C106.777 97.0909 106.735 97.2855 106.596 97.3967C105.818 97.9665 104.9 98.314 103.941 98.4113C103.329 98.4391 102.44 98.4808 102.412 97.6469C102.412 97.3828 102.815 97.2299 102.94 97.4801H102.926Z" fill="#191919"/>
<path d="M103.121 98.7164C103.983 98.9805 104.914 98.911 105.734 98.5218C106.068 98.3967 106.846 97.7295 107.054 98.3272C107.096 98.4523 107.054 98.5774 106.971 98.6747C106.359 99.2168 105.595 99.5504 104.775 99.6338C104.094 99.8006 103.385 99.6477 102.829 99.2446C102.593 99.05 102.829 98.6052 103.121 98.7164Z" fill="#191919"/>
<path d="M103.899 100.161C104.58 100.314 105.303 100.203 105.915 99.8557C106.401 99.5916 106.832 99.0217 107.402 99.0078C107.861 99.0078 107.777 99.9808 105.873 100.745C105.178 101.079 104.372 101.065 103.691 100.704C103.552 100.62 103.51 100.439 103.594 100.3C103.649 100.203 103.76 100.148 103.872 100.161H103.899Z" fill="#191919"/>
<path d="M167.353 117.246C167.464 116.62 167.547 115.981 167.631 115.355C167.631 115.286 167.603 115.216 167.533 115.174C166.797 114.813 166.046 114.382 165.268 114.062C165.837 115.202 166.546 116.259 167.353 117.246Z" fill="#6F93FC"/>
<path d="M162.485 130.783C160.08 129.074 158.19 126.752 157.022 124.042C156.577 124.876 156.23 125.766 156.007 126.697C155.952 127.378 155.827 128.059 155.646 128.712C155.549 128.949 155.215 128.837 155.146 128.657C155.007 127.934 155.076 127.197 155.326 126.502C155.41 126.155 155.521 125.779 155.646 125.432C153.422 122.68 150.99 119.858 147.64 118.01C145.18 116.647 142.024 115.841 139.842 117.551C139.022 118.19 138.41 119.122 137.424 119.511C136.52 119.844 135.505 119.733 134.699 119.205C134.074 118.732 133.504 118.204 132.962 117.634C128.361 113.423 123.552 112.589 118.075 106.82C110.333 98.6472 111.014 99.231 110.847 99.1615C110.667 99.092 110.458 99.092 110.263 99.1615C109.624 99.3422 109.36 100.176 107.275 100.76C107.164 100.788 107.108 100.913 107.136 101.024C107.136 101.038 107.136 101.052 107.15 101.066C107.303 101.274 109.638 105.208 109.694 105.305C112.64 110.253 113.252 111.727 118.895 116.689C122.315 119.678 125.97 122.374 129.82 124.779C129.848 124.445 129.862 124.098 129.848 123.764C129.806 123.403 129.779 123.027 129.793 122.652C129.793 122.527 129.904 122.416 130.029 122.416C130.112 122.416 130.182 122.457 130.223 122.527C131.169 124.07 129.751 127.781 129.876 129.491C130.126 132.91 134.129 134.939 133.796 138.498C133.796 138.609 133.893 138.692 133.99 138.692C134.004 138.692 134.018 138.692 134.032 138.692C138.091 137.483 142.358 137.261 146.528 138.025C146.695 138.053 146.848 137.858 146.695 137.733C146.667 137.719 146.639 137.692 146.611 137.664C146.764 135.273 147.237 132.91 148.001 130.63C147.237 129.727 146.542 128.782 145.916 127.781C145.875 127.712 145.888 127.614 145.972 127.559C146.041 127.517 146.125 127.531 146.166 127.586C146.848 128.268 147.501 128.963 148.14 129.685C148.446 130.033 148.905 130.394 149.224 130.825C151.963 133.146 155.187 135.37 158.704 134.064C160.289 133.424 161.637 132.312 162.582 130.895C162.54 130.881 162.485 130.853 162.457 130.825L162.485 130.783Z" fill="#6F93FC"/>
<path d="M140.902 110.13C140.749 110.144 140.763 110.408 140.902 110.436C141.611 110.575 141.597 111.757 141.235 112.174C141.068 112.368 140.902 112.577 140.638 112.535C140.374 112.493 140.29 112.257 140.137 112.076C140.012 111.965 139.831 111.965 139.72 112.076C139.651 112.146 139.623 112.257 139.651 112.354C139.692 112.521 139.776 112.688 139.887 112.813C139.776 112.813 139.679 112.855 139.609 112.938C139.025 114.008 138.275 114.968 137.385 115.802C136.37 116.566 134.939 116.371 134.16 115.371C134.105 115.301 134.063 115.232 134.021 115.162C133.382 114.05 133.146 112.744 133.368 111.479C133.618 108.977 134.146 108.435 133.994 107.698C133.966 107.601 133.855 107.531 133.757 107.573C133.729 107.573 133.702 107.601 133.674 107.628C133.257 108.282 133.007 109.018 132.979 109.797C132.506 112.354 132.326 115.259 134.577 116.566C134.675 117.178 134.633 117.817 134.48 118.415C134.438 118.748 134.869 118.998 135.064 118.651C135.37 118.081 135.411 117.414 135.175 116.816C135.953 117.08 136.801 116.983 137.496 116.538C139.025 115.537 137.955 115.51 138.636 116.969C138.775 117.275 139.011 117.761 139.401 117.761C139.484 117.761 139.553 117.692 139.553 117.622C139.581 117.317 139.275 117.039 139.136 116.761C138.97 116.399 138.872 116.01 138.831 115.621C138.831 115.565 138.789 115.51 138.733 115.482C139.359 114.815 139.845 114.036 140.165 113.188C140.165 113.161 140.179 113.133 140.179 113.091C140.79 113.494 141.402 113.022 141.819 112.41C142.319 111.687 142.028 109.964 140.916 110.117L140.902 110.13Z" fill="#191919"/>
<path d="M134.341 110.852C134.633 111.172 135.008 111.408 135.425 111.533C135.578 111.547 135.745 111.394 135.647 111.255C135.467 111.033 135.23 110.838 134.98 110.685C135.661 110.226 136.092 109.49 136.189 108.684C136.203 108.517 135.967 108.517 135.911 108.642C135.619 109.392 135.091 110.032 134.396 110.449C134.271 110.518 134.23 110.685 134.313 110.81C134.313 110.824 134.341 110.852 134.355 110.866L134.341 110.852Z" fill="#191919"/>
<path d="M134.577 108.542C134.619 108.431 134.73 108.292 134.855 108.334C134.98 108.376 135.008 108.528 135.105 108.612C135.189 108.695 135.342 108.695 135.425 108.612C135.467 108.57 135.495 108.515 135.495 108.459C135.453 108.111 135.133 107.861 134.786 107.903C134.494 107.931 134.271 108.181 134.299 108.473C134.299 108.501 134.299 108.528 134.299 108.556C134.327 108.626 134.397 108.667 134.466 108.64C134.508 108.64 134.536 108.598 134.549 108.556L134.577 108.542Z" fill="#191919"/>
<path d="M137.97 109.281C137.997 109.476 138.261 109.657 138.414 109.462C138.665 109.101 138.567 108.614 138.206 108.364C137.844 108.114 137.358 108.211 137.108 108.572C137.024 108.697 136.969 108.85 136.969 109.003C136.969 109.101 137.052 109.184 137.163 109.184C137.247 109.184 137.316 109.128 137.33 109.059C137.386 108.906 137.608 108.739 137.775 108.823C137.942 108.906 137.956 109.114 137.97 109.267V109.281Z" fill="#191919"/>
<path d="M134.895 113.895C134.714 113.561 134.686 113.186 134.505 112.852C134.422 112.727 134.255 112.685 134.13 112.755C134.047 112.81 133.991 112.894 133.991 112.991C133.908 114.061 134.922 115.465 136.104 115.02C137.285 114.576 137.716 112.796 137.8 111.698C137.8 111.532 137.675 111.406 137.522 111.393C137.41 111.393 137.313 111.448 137.258 111.545C136.799 112.518 135.173 112.143 134.366 111.921C134.283 111.893 134.186 111.949 134.158 112.046C134.144 112.115 134.158 112.185 134.227 112.227C135.075 112.769 136.132 112.866 137.077 112.505C136.938 113.116 136.646 113.686 136.215 114.145C135.937 114.464 135.451 114.506 135.117 114.214C135.02 114.131 134.95 114.02 134.895 113.895Z" fill="#191919"/>
<path d="M133.824 106.14C133.838 104.639 134.728 103.29 136.09 102.679C138.828 101.136 139.467 102.067 140.301 101.928C140.329 101.956 140.357 101.984 140.385 101.998C140.885 102.276 141.344 102.581 141.803 102.929C142.067 103.137 142.442 102.762 142.178 102.554C141.733 102.192 141.08 101.622 140.468 101.664C140.468 101.664 140.468 101.65 140.468 101.636C140.051 100.969 138.898 100.997 138.203 101.108C137.271 101.289 136.382 101.65 135.576 102.151C134.186 102.998 133.018 104.472 133.518 106.168C133.546 106.251 133.63 106.293 133.713 106.279C133.782 106.265 133.824 106.195 133.824 106.126V106.14Z" fill="#191919"/>
<path d="M144.001 104.43C142.834 102.317 141.93 103.026 142.167 103.387C142.472 103.86 142.834 103.707 143.432 104.861C143.793 105.57 143.988 106.362 144.001 107.154C143.904 108.683 143.376 110.157 142.472 111.394C142.417 111.505 142.445 111.63 142.556 111.7C142.639 111.741 142.737 111.727 142.806 111.672C144.752 109.781 145.225 106.849 144.001 104.43Z" fill="#191919"/>
<path d="M140.568 101.15C140.943 100.483 141.764 101.344 142.097 101.622C142.306 101.748 142.486 101.914 142.667 102.081C142.848 102.317 142.709 102.762 142.945 102.804C143.098 102.873 143.279 102.818 143.362 102.679C143.89 101.831 142.486 101.025 141.916 100.622C141.347 100.219 140.276 100.107 140.221 101.053C140.221 101.15 140.304 101.233 140.401 101.233C140.471 101.233 140.526 101.192 140.554 101.136L140.568 101.15Z" fill="#191919"/>
<path d="M135.952 105.847C135.994 105.333 136.161 104.847 136.453 104.416C136.661 104.096 137.037 103.86 137.064 103.457C137.064 103.359 136.981 103.304 136.898 103.29C136.383 103.262 136.036 103.915 135.841 104.318C135.591 104.805 135.521 105.361 135.674 105.875C135.702 105.959 135.786 106 135.869 105.973C135.925 105.959 135.966 105.903 135.966 105.834L135.952 105.847Z" fill="#191919"/>
<path d="M139.039 104.333C139.039 104.333 138.928 104.249 138.858 104.277C138.65 104.513 138.497 104.791 138.413 105.097C138.26 105.431 138.066 105.737 137.843 106.029C137.732 106.181 137.968 106.348 138.107 106.237C138.413 105.973 138.677 105.653 138.858 105.306C139.067 105.028 139.136 104.666 139.039 104.333Z" fill="#191919"/>
<path d="M141.429 105.806C141.096 105.959 140.915 106.39 140.651 106.64C140.345 106.918 140.011 107.155 139.65 107.363C139.525 107.447 139.553 107.725 139.747 107.711C140.234 107.641 140.679 107.419 141.026 107.085C142.041 106.21 141.749 105.654 141.429 105.806Z" fill="#191919"/>
<path d="M142.292 108.127C141.805 108.127 141.513 108.864 140.804 109.114C140.638 109.169 140.638 109.489 140.86 109.461C141.208 109.42 141.555 109.295 141.833 109.086C142.083 108.891 142.431 108.613 142.417 108.252C142.417 108.183 142.361 108.127 142.292 108.127Z" fill="#191919"/>
<path d="M173.578 123.486C170.77 122.443 168.74 121.039 166.169 116.967C160.957 108.669 161.985 101.872 157.746 96.562C155.828 93.9211 152.645 92.5172 149.406 92.8647C145.848 93.3095 141.803 95.5057 141.469 99.481C141.455 99.7173 141.803 99.759 141.858 99.5366C142.734 95.9227 146.181 93.9211 149.726 93.6014C153.103 93.2817 155.911 95.1582 157.746 97.8825C159.747 100.871 160.428 104.485 161.36 107.89C162.944 113.659 167.545 123.43 173.48 124.125C173.869 124.167 173.869 123.611 173.578 123.5V123.486Z" fill="#191919"/>
<path d="M168.881 131.838C166.796 131.018 164.767 130.671 161.904 128.03C154.412 121.08 154.829 109.446 151.423 103.872C150.019 101.579 147.086 99.6327 144.445 101.259C144.334 101.328 144.293 101.467 144.362 101.579C144.432 101.69 144.571 101.732 144.682 101.662C146.002 101.106 147.503 101.245 148.699 102.037C151.951 104.053 152.952 110.196 153.925 113.991C155.704 120.871 158.512 127.78 164.836 131.088C166.032 131.824 167.408 132.228 168.812 132.255C168.937 132.255 169.02 132.13 169.006 132.019C169.006 131.936 168.951 131.866 168.867 131.838H168.881Z" fill="#191919"/>
<path d="M157.328 115.23C158.315 118.469 160.164 121.374 162.693 123.626C163.514 124.432 164.459 125.113 165.487 125.627C165.626 125.683 165.807 125.516 165.668 125.391C164.32 124.168 160.261 121.93 157.648 115.133C157.564 114.966 157.273 115.036 157.342 115.23H157.328Z" fill="#191919"/>
<path d="M159.984 112.866C161.652 117.078 164.238 120.872 167.56 123.972C168.505 124.973 169.728 125.654 171.076 125.918C171.271 125.946 171.354 125.626 171.174 125.543C169.242 124.639 167.546 123.569 164.808 120.163C162.987 117.898 161.444 115.41 160.235 112.769C160.179 112.63 159.943 112.727 159.998 112.866H159.984Z" fill="#191919"/>
<path d="M137.787 142.431C137.787 142.32 137.69 142.223 137.579 142.223C137.482 142.223 137.398 142.278 137.37 142.376C136.328 147.852 135.647 148.617 135.758 149.617C135.925 151.063 136.981 151.202 136.912 150.66C136.828 150.104 136.272 149.979 136.564 148.811C137.231 146.74 137.648 144.6 137.787 142.431Z" fill="#191919"/>
<path d="M152.675 148.576C153.064 147.978 153.315 147.311 153.384 146.602C154.01 146.602 155.358 146.671 155.983 146.755C156.164 146.783 156.22 146.866 156.164 147.019C156.192 147.325 156.164 147.631 156.122 147.922C156.122 148.715 156.178 149.507 156.331 150.285C156.4 150.508 156.637 150.619 156.859 150.549C156.956 150.522 157.026 150.466 157.081 150.383C157.596 149.604 158.263 149.868 158.624 149.757C158.791 149.715 158.874 149.535 158.833 149.382C158.819 149.34 158.791 149.285 158.763 149.257C158.235 148.882 157.512 148.923 157.026 149.354C156.762 147.227 157.22 146.727 156.734 146.241C156.386 145.893 155.761 145.949 155.33 145.921C154.579 145.879 153.843 145.879 153.092 145.893C152.898 145.893 152.745 146.046 152.745 146.241C152.675 146.977 152.536 147.714 152.342 148.437C152.328 148.548 152.397 148.645 152.508 148.659C152.578 148.659 152.647 148.645 152.689 148.59L152.675 148.576Z" fill="#191919"/>
<path d="M177 156.417C176.68 155.402 176.055 154.513 175.193 153.873C173.567 152.344 171.663 151.135 169.578 150.329C168.174 149.773 165.964 148.939 164.796 149.898C164.643 150.037 164.518 150.19 164.421 150.357C164.421 149.578 164.351 148.8 164.296 148.021C164.296 147.841 164.171 147.674 163.99 147.632C162.656 147.354 161.307 147.215 159.945 147.229C159.764 147.229 159.612 147.34 159.556 147.521C158.958 151.733 157.123 156.083 156.456 157.974C156.373 158.196 156.707 158.321 156.832 158.14C158.5 155.486 159.709 151.191 160.279 148.035C161.363 148.035 162.447 148.147 163.503 148.355C163.573 149.37 163.601 150.384 163.587 151.413C163.587 151.635 163.781 151.816 164.004 151.816C164.073 151.816 164.143 151.802 164.198 151.76C164.991 151.357 165.019 150.329 166.019 150.273C167.006 150.301 167.979 150.537 168.869 150.94C170.87 151.677 172.705 152.775 174.276 154.207C174.915 154.777 176.291 155.861 176.097 156.834C175.888 157.835 174.359 157.654 173.636 157.529C171.593 157.154 169.536 156.153 167.423 156.709C165.533 157.195 164.143 159.1 163.587 160.934C162.808 160.323 161.933 159.864 160.988 159.572C159.556 159.044 158.041 158.766 156.512 158.752C156.415 158.752 156.345 158.835 156.359 158.933C156.359 159.002 156.415 159.058 156.47 159.086C156.623 159.127 156.776 159.155 156.929 159.197C156.832 159.294 156.776 159.433 156.693 159.517C153.523 162.366 150.535 165.424 147.783 168.676C147.269 171.526 146.282 174.264 144.836 176.78C144.614 177.072 144.127 176.752 144.225 176.432C144.475 175.64 144.947 174.904 145.267 174.153C146.212 171.915 146.949 169.594 147.449 167.231C147.727 165.382 147.88 163.52 147.922 161.643C149.923 161.643 151.925 161.629 153.927 161.546C154.149 161.546 154.33 161.365 154.33 161.143C154.302 150.148 148.909 140.863 148.172 140.863C148.283 140.794 148.353 140.682 148.353 140.557C148.353 139.251 147.616 138.069 146.449 137.472C143.794 135.984 138.123 136.596 135.009 137.708C133.285 138.319 131.993 138.945 132.368 140.794C132.285 140.794 132.201 140.794 132.146 140.863C127.1 145.005 122.18 150.315 120.512 156.806C120.456 157.028 120.595 157.265 120.817 157.32C120.845 157.32 120.887 157.32 120.915 157.32C121.651 157.348 122.388 157.404 123.125 157.487C121.012 159.669 119.163 162.102 117.634 164.743C116.258 167.203 114.702 170.873 115.772 173.5C117.898 178.74 127.517 175.237 132.257 172.179C132.479 170.331 132.799 168.246 133.188 166.216C132.424 167.036 131.52 167.703 130.519 168.176C130.339 168.218 130.144 168.107 130.102 167.926C130.075 167.815 130.102 167.69 130.186 167.606C130.686 167.175 131.312 166.869 131.84 166.466C132.326 166.035 132.841 165.646 133.383 165.285C133.591 163.978 133.925 162.7 134.384 161.462C134.439 161.379 134.564 161.351 134.648 161.407C134.689 161.435 134.731 161.49 134.731 161.546C134.648 163.13 133.466 166.689 132.799 173.555C132.66 175.043 132.521 176.544 132.493 178.031C132.757 180.213 133.55 182.284 135.662 183.327C139.29 185.12 143.363 182.868 146.462 180.992C153.857 176.488 158.819 168.913 162.114 160.976C163.1 161.476 163.156 161.824 163.559 161.907C163.712 161.949 163.879 161.838 163.92 161.685C163.92 161.657 163.92 161.643 163.92 161.615C164.81 161.504 165.088 157.293 169.008 157.445C171.287 157.543 173.803 158.988 175.707 158.321C176.541 158.085 177.084 157.279 176.972 156.417H177ZM134.203 160.628C134.286 160.337 134.37 160.059 134.453 159.767C134.578 159.669 134.634 159.503 134.578 159.336C136.121 154.262 136.58 154.082 137.497 151.357C137.539 151.163 137.428 150.968 137.233 150.913C137.08 150.871 136.927 150.94 136.844 151.079C135.635 153.581 134.648 156.194 133.869 158.863C133.021 158.544 132.146 158.279 131.242 158.085C128.059 157.237 124.793 156.709 121.498 156.528C123.458 149.648 128.629 145.492 132.563 141.224C132.577 141.211 132.59 141.183 132.604 141.169C132.785 141.252 132.994 141.169 133.077 141.002C133.105 140.933 133.119 140.849 133.105 140.78C133.035 140.168 133.105 139.543 133.341 138.959C134.411 138.82 136.858 137.472 141.222 137.346C143.404 137.291 147.755 137.416 147.672 140.557C147.672 140.752 147.825 140.919 148.019 140.919C148.061 140.919 148.103 140.919 148.13 140.905C148.047 140.974 148.005 141.085 148.047 141.183C149.604 144.408 153.412 150.523 153.565 160.74C147.116 160.893 140.652 160.851 134.203 160.615V160.628Z" fill="#191919"/>
<path d="M67.2879 90.8087C65.0779 90.3222 65.1474 90.211 64.8416 90.3083C64.6192 90.3778 64.6053 90.4334 63.2014 92.1986C60.352 95.6736 57.9473 99.5099 56.0431 103.583C52.0816 103.541 48.1202 103.93 44.2422 104.75C42.4491 105.167 40.7255 105.806 39.0854 106.64C38.9742 106.474 38.9047 106.279 38.9047 106.071C38.9047 105.987 38.8352 105.918 38.7518 105.918C38.6823 105.918 38.6267 105.959 38.5989 106.029C38.5155 106.307 38.5433 106.599 38.6545 106.849C37.2089 107.502 35.5549 107.516 34.1093 106.863C34.3456 106.307 34.429 105.709 34.3873 105.112C35.8051 106.335 37.6815 106.891 39.0715 105.306C39.975 104.055 40.3642 102.498 40.1418 100.955C40.114 99.2319 39.8082 97.5223 39.2383 95.896C39.1966 95.8404 39.1271 95.8126 39.0576 95.8543C39.0159 95.8821 39.002 95.9099 39.002 95.9516C39.0159 97.0219 40.392 102.123 39.002 104.375C38.3765 105.487 36.9865 105.876 35.8746 105.25C35.8329 105.223 35.7911 105.195 35.7494 105.181C34.6375 104.375 33.7062 103.36 33.0112 102.193C33.0668 102.151 33.1085 102.109 33.1502 102.067C33.2475 101.956 33.2475 101.789 33.1502 101.692C33.0668 101.609 32.9417 101.595 32.8305 101.65C32.6498 101.789 32.483 101.956 32.3301 102.137C31.6907 102.457 31.1486 101.956 30.7733 101.456C30.1618 100.65 30.9679 99.5099 31.7463 99.7184C31.8992 99.7601 32.0382 99.5516 31.9131 99.4404C31.788 99.3292 31.6351 99.2597 31.4822 99.2041C31.9409 98.6203 31.9965 97.828 31.649 97.1748C31.8297 96.9385 31.9548 96.6744 32.0243 96.3825C32.0521 96.9524 32.5108 97.3972 33.0807 97.411C34.1093 97.3833 33.9981 96.2018 33.6089 95.5207C33.8869 95.201 34.0676 94.8257 34.151 94.4087C34.1649 94.4087 34.1788 94.4087 34.2066 94.4226C34.1232 95.1871 34.5124 96.0906 35.4437 95.9099C36.3888 95.7292 36.1942 94.8118 35.8328 94.1724C36.1247 93.9361 36.3471 93.6303 36.4722 93.2689L36.5973 93.3662C35.9301 95.0342 37.5703 96.2852 38.0846 95.0898C38.029 94.4643 38.6823 93.3384 37.5564 92.6851C37.2784 92.5461 37.7232 92.2403 37.5008 91.3091C37.3062 90.8504 36.8892 90.5307 36.4027 90.4612C36.639 89.8774 36.3888 89.2102 35.819 88.9183C37.2923 86.6666 35.0684 85.5546 34.0398 86.5832C33.9842 86.6388 33.9425 86.7083 33.8869 86.7639C33.7757 86.889 33.8313 86.889 33.6923 86.889C33.4977 86.889 33.2892 86.8056 33.0807 86.8195C32.6637 86.8473 32.2606 87.0419 31.9826 87.3476C31.5517 87.8202 31.4683 88.5152 31.7741 89.0712C31.4683 89.5021 31.4683 90.0859 31.7741 90.5168C31.4822 90.6558 31.232 90.8921 31.0652 91.1701C31.0652 91.1701 30.9401 91.3647 30.9679 91.3647C30.6065 91.462 30.2869 91.6844 30.0645 91.9763C29.3695 92.8241 29.8838 93.3523 29.6197 93.8249C29.439 94.0751 29.2722 94.3392 29.1471 94.6172C28.3409 93.116 26.798 93.3662 26.4366 94.3809C25.4497 94.1168 24.449 94.7006 24.1849 95.6875C24.1571 95.7709 24.1432 95.8404 24.1432 95.9238C24.1154 96.0906 24.171 96.2574 23.9764 96.3408C23.5316 96.3269 23.0868 96.3964 22.6698 96.5771C22.225 96.7717 21.8358 97.0914 21.5578 97.4806C20.9323 97.008 20.1122 96.8551 19.3617 97.0636C18.9864 96.174 18.069 95.6319 17.1099 95.7292C16.3176 95.0759 15.2195 94.5199 14.3995 95.2288C13.6767 94.8952 12.8288 95.062 12.2867 95.6458C12.0921 95.8543 12.1894 95.8821 11.8975 95.8543C11.6473 95.8265 11.3971 95.8265 11.1469 95.8543C10.4102 95.9238 9.86814 96.5771 9.93764 97.3138C10.0071 98.0504 10.6604 98.5925 11.3971 98.523C11.8558 98.4813 12.2589 98.2033 12.4674 97.8002C13.3014 98.1477 14.2605 97.7863 14.6497 96.9802C15.1778 97.286 15.8172 97.3416 16.3871 97.1192C16.7346 98.0226 17.7354 98.5091 18.6528 98.2033C19.0559 99.1763 20.1678 99.635 21.1408 99.2319C21.2242 99.2041 21.3076 99.1624 21.3771 99.1068C22.1694 100.177 24.1293 99.8852 24.5185 97.6056C25.5192 97.6612 26.1864 96.6744 26.52 95.7153C27.1177 95.9794 27.7849 95.9238 28.3409 95.5763C28.5355 95.7987 28.7996 95.9516 29.0915 96.035C29.1193 96.1462 29.1471 96.2713 29.2027 96.3825C28.2158 95.8821 26.8953 96.4798 26.6729 98.1477C25.5748 98.4257 24.8104 99.4126 24.7826 100.538C23.9486 100.705 23.2675 101.303 23.0034 102.095C22.0165 101.595 20.8211 101.873 20.1539 102.749C19.6814 102.332 19.0976 102.04 18.4721 101.928C18.0551 101.901 17.652 102.054 17.3879 102.359C16.4288 101.567 15.025 101.706 14.2327 102.651C14.2049 102.679 14.1771 102.721 14.1632 102.749C13.5516 102.471 12.8149 102.651 12.4118 103.179C12.245 103.43 12.2033 103.666 11.9114 103.805C11.5778 103.958 10.8133 103.874 10.3129 104.472C9.39556 105.57 11.2581 107.002 12.3562 105.362C13.1902 105.709 14.1632 105.348 14.5385 104.528C15.9423 105.223 17.0821 104.834 17.6103 104.013C18.347 104.333 19.1949 104.291 19.8899 103.902C20.7933 104.583 22.0721 104.389 22.7393 103.499C22.7393 103.485 22.7671 103.457 22.781 103.444C24.0042 104.403 25.8806 102.943 26.0613 101.442C26.6312 101.067 27.0204 100.455 27.1177 99.774C28.0212 99.9269 29.0498 99.3431 29.2861 97.8141H29.439C29.4251 98.0921 29.439 98.384 29.5224 98.662C29.6197 99.2041 29.5919 99.8296 30.1618 99.9686C29.995 100.261 29.9116 100.594 29.9116 100.928C29.8838 100.928 29.856 100.914 29.8282 100.914C28.7162 100.9 27.7849 101.776 27.7293 102.888C26.659 103.068 25.9084 104.069 26.0613 105.153C25.269 105.556 24.7548 106.362 24.7131 107.266C23.8235 107.349 23.0868 107.975 22.8644 108.837C22.1694 108.656 21.4466 108.892 20.974 109.434C20.1818 109.045 19.2227 109.24 18.6389 109.893C17.8744 109.782 17.1516 109.42 16.3732 109.74C15.9979 109.879 15.6921 110.185 15.5531 110.56C14.6497 110.56 13.9269 111.283 13.9269 112.186C13.9269 112.186 13.9269 112.214 13.9269 112.228C12.9539 112.492 12.3145 113.451 12.4674 114.452C12.0504 114.647 11.6334 114.855 11.2164 115.064C10.994 115.203 10.9245 115.495 11.0635 115.717C11.1191 115.814 11.2164 115.884 11.3276 115.925C11.9253 116.12 12.5369 116.315 13.1485 116.509C13.3987 116.579 13.6489 116.426 13.7184 116.19C13.7601 115.87 13.774 115.564 13.7462 115.244C14.3578 114.814 14.7192 114.105 14.7192 113.354C15.4419 113.396 16.0674 112.895 16.1925 112.186C16.9431 112.214 17.6659 111.867 18.0968 111.255C18.3192 111.352 18.5416 111.436 18.7779 111.491C19.5563 111.63 20.3624 111.408 20.974 110.894C21.9609 111.491 23.2536 111.158 23.8374 110.171C23.8374 110.143 23.8652 110.129 23.8791 110.102C24.8799 109.935 25.6721 109.142 25.8389 108.142C26.8536 107.975 27.5486 107.03 27.3957 106.015C28.2575 105.57 28.7857 104.667 28.7718 103.708C29.6614 103.68 30.3981 102.999 30.4676 102.109C30.5927 102.248 30.7316 102.387 30.8845 102.498C30.6899 102.526 30.537 102.665 30.4954 102.86C30.1757 103.444 30.1896 104.152 30.5093 104.722C29.7726 105.251 29.4112 106.154 29.578 107.057C28.3965 107.627 27.771 108.934 28.0768 110.213C27.076 110.602 26.4505 111.589 26.5339 112.659C26.5617 112.993 26.7424 113.215 26.4505 113.437C26.1586 113.66 25.9501 113.743 25.7833 114.091C25.6026 114.549 25.547 115.064 25.6304 115.55C25.6304 115.8 25.686 115.898 25.5054 116.023C25.2274 116.148 24.9633 116.287 24.6992 116.454C24.1988 116.843 23.8652 117.399 23.7679 118.024C23.6984 118.455 23.8652 118.692 23.4204 118.9C22.8227 119.192 22.2111 119.414 21.9331 120.082C21.7663 120.471 21.7663 120.902 21.9331 121.291C21.1825 121.93 20.8906 122.973 21.2242 123.918C21.252 124.001 21.3215 124.112 21.3076 124.196C21.3076 124.363 21.2242 124.349 21.0713 124.46C19.6953 125.405 20.3207 127.504 21.53 127.017C22.225 126.642 22.5447 125.808 22.2667 125.058C23.337 124.474 23.2814 123.084 22.9756 121.958C24.0042 121.485 24.6575 120.443 24.6436 119.317C25.6304 119.192 26.3671 118.344 26.3254 117.357C26.8536 117.288 27.3262 116.996 27.6042 116.537C27.9795 115.87 28.0629 115.078 27.8544 114.341C28.6884 114.119 29.5641 112.715 29.1749 111.172C30.1896 110.435 30.6899 109.184 30.4814 107.947C31.232 107.502 31.6073 106.64 31.4405 105.793C32.4413 105.389 32.5664 104.125 32.4552 103.082C32.4552 103.013 32.4274 102.957 32.3996 102.901C32.5108 102.874 32.6081 102.818 32.6915 102.749C33.0112 103.457 33.456 104.097 33.9981 104.667C34.012 105.348 33.9008 106.015 33.6645 106.654C33.4282 106.557 33.2058 106.432 32.9695 106.307C32.622 106.21 32.2606 106.14 31.8992 106.126C31.927 106.918 31.5656 107.669 30.9262 108.142C31.0374 109.351 30.551 110.546 29.6197 111.352C29.8699 112.603 29.3417 113.882 28.2992 114.619C28.4521 115.356 28.327 116.12 27.9378 116.773C27.6459 117.218 27.2011 117.552 26.7007 117.719C26.5756 118.664 25.9084 119.442 24.9911 119.692C24.8938 120.721 24.31 121.652 23.4343 122.18C23.6567 122.806 23.6706 123.487 23.476 124.126C26.0613 123.57 28.2992 121.972 29.6614 119.706C30.1479 118.733 30.5787 117.719 30.9262 116.69C31.0235 116.37 31.0235 116.078 31.3015 115.856C31.3849 115.773 31.5378 115.773 31.6212 115.856C31.6212 115.856 31.6351 115.87 31.649 115.884C31.9548 116.468 31.4127 117.496 31.1764 118.066C30.9262 118.761 30.551 119.387 30.0645 119.943C30.4676 120.957 31.2042 124.057 31.5934 125.461C31.649 125.655 31.8575 125.767 32.0521 125.711C32.2884 125.614 32.5108 125.53 32.7332 125.447C32.7749 125.947 32.8583 126.42 32.8722 126.92C32.8444 127.268 32.8444 127.629 32.8722 127.99C32.7471 128.06 32.622 128.143 32.4969 128.227C32.3023 128.366 32.4135 128.727 32.6637 128.644C36.5 127.407 38.8074 126.559 42.9912 126.851C44.9372 126.99 46.2576 127.462 46.4939 127.129C47.1055 128.241 47.4391 129.492 47.4669 130.77C47.5086 130.937 47.6893 131.048 47.8561 130.993C47.87 130.993 47.8839 130.993 47.8978 130.979C47.5364 131.896 60.7134 146.31 62.6732 163.991C63.7574 173.762 58.2253 177.265 52.7905 175.486C50.4554 174.721 48.6762 173.081 46.6051 171.844C46.6051 171.844 46.6005 171.844 46.5912 171.844C47.7032 168.48 48.1619 164.936 47.9534 161.405C47.8005 154.789 46.4522 148.256 43.9642 142.127C43.7557 141.598 42.8939 141.835 43.1024 142.363C45.2152 147.533 46.5079 153.01 46.9248 158.584C47.314 163.741 47.3418 169.62 44.4507 174.151C41.7402 178.405 37.3062 180.128 32.1355 178.321C27.493 176.695 24.0598 172.803 21.6551 168.633C18.7223 163.532 17.2628 157.833 15.011 152.44C14.9832 152.357 14.8998 152.301 14.8025 152.329C14.7192 152.357 14.6635 152.44 14.6913 152.537C17.2489 162.128 21.53 174.485 30.5926 178.586C37.473 181.699 43.5055 178.961 46.3133 172.47C49.2461 175.263 53.9442 177.752 57.8639 176.459C61.6586 175.194 63.4377 171.149 63.6323 167.424C63.6879 165.2 63.4794 162.976 63.0207 160.808C61.186 151.022 56.2516 141.821 50.4693 133.703C50.3164 133.481 48.426 130.77 48.0507 130.854C48.0646 130.826 48.0785 130.798 48.0785 130.77C48.2036 129.353 47.731 127.949 46.7719 126.892C46.7163 126.823 46.6051 126.809 46.5356 126.865C46.5356 126.865 46.5079 126.892 46.5079 126.906C46.4523 126.753 46.3688 126.726 46.1326 126.6C46.3827 126.197 46.5078 125.753 46.5217 125.28C46.6329 124.71 46.6329 124.112 46.5217 123.543C46.7024 123.543 46.897 123.543 47.0777 123.57C47.2723 123.57 47.4391 123.404 47.4391 123.209C47.4391 121.235 48.7874 119.553 48.8291 117.58C48.8708 115.787 47.5086 114.549 46.9804 112.951C46.341 112.312 45.8546 111.519 45.5905 110.657C45.5349 110.491 45.7851 110.38 45.8685 110.532C46.2437 111.283 46.7719 111.964 47.3974 112.534C48.2731 112.409 49.121 112.228 49.9689 111.978C51.1781 111.686 52.3874 111.352 53.5828 111.005C55.7651 110.518 57.85 109.657 59.7404 108.447C63.3543 105.82 64.7026 101.567 66.0092 97.5083C66.732 95.4651 67.2601 93.3523 67.6076 91.2118C67.6076 91.045 67.5103 90.8921 67.3435 90.8365L67.2879 90.8087ZM31.9826 91.7539C32.1494 91.7261 32.2884 91.9624 32.1494 92.0597C31.4961 92.56 31.7185 93.1299 32.1494 93.6859C32.205 93.7554 32.2189 93.8527 32.1633 93.9361C31.8853 94.3948 31.927 94.9786 32.2745 95.3817C31.8992 96.0906 32.1911 96.1323 31.9687 95.3817C31.7741 95.1732 31.649 94.9091 31.6351 94.6172C31.6351 94.4087 31.6629 94.2002 31.6907 94.0056C31.6907 93.8388 31.6212 93.6859 31.51 93.5469C31.1625 92.977 31.1486 91.9207 31.9826 91.7539ZM30.2452 96.3547C29.7448 95.9238 29.6336 95.201 29.9811 94.645C30.0367 94.5616 30.2174 94.5755 30.2035 94.7006C30.0645 95.2288 30.2452 95.7848 30.6482 96.1323C30.7455 96.2018 30.7873 96.3269 30.7178 96.4381C30.7178 96.452 30.7038 96.4659 30.6899 96.4798C30.3981 96.8273 30.2869 97.286 30.3981 97.7168C30.4954 97.9809 30.6204 98.2311 30.7455 98.4674C30.7872 98.5925 30.6482 98.662 30.537 98.6203C29.6614 98.2589 29.8143 97.0497 30.2313 96.3547H30.2452ZM45.9797 123.543C45.8685 124.099 45.8824 124.668 45.7851 125.211C45.6461 125.6 45.5766 126.017 45.5488 126.434C41.49 125.628 37.2645 126.045 33.4421 127.643C33.4282 126.851 33.2753 126.072 32.9973 125.336C36.4444 124.251 40.0445 123.682 43.6584 123.64C44.4368 123.612 45.2013 123.543 45.9658 123.543H45.9797Z" fill="#191919"/>
<path d="M38.3751 94.9078C38.4724 95.0051 38.5141 95.1441 38.7643 95.1024C38.8894 95.3109 39.2786 95.4638 39.3759 95.2275C39.6678 94.5047 40.0709 93.365 38.8755 92.9341C39.0006 92.2808 38.5976 91.6553 37.9721 91.4746C37.986 91.7943 37.9721 92.114 37.8887 92.4198C38.7922 93.0592 38.6254 93.9905 38.3613 94.9217L38.3751 94.9078Z" fill="#191919"/>
</svg>
