<svg width="190" height="144" viewBox="0 0 190 144" fill="none" xmlns="http://www.w3.org/2000/svg">
<path d="M59.8429 36.2232C60.7129 37.9632 61.1029 39.9632 61.9629 41.6632C63.1329 41.0532 63.2529 41.0332 62.3529 41.6132C61.9429 41.8332 61.6129 42.1332 61.3729 42.5132C59.6129 44.9532 61.8429 48.4432 60.1429 50.7332L62.2329 49.1232C58.9929 50.3332 54.8529 47.6132 51.3429 48.5132C48.2029 49.3132 46.4929 51.9632 46.3129 55.0432L53.1829 54.1132C53.0529 53.3232 52.9229 52.5332 52.7829 51.7432C52.2129 48.3232 46.7229 48.4832 46.0329 51.7432C45.8829 52.4432 45.7329 53.1432 45.5829 53.8532L52.3329 55.7132C52.9029 52.7132 55.1029 50.2432 56.2529 47.4132C57.4029 44.5832 57.9829 41.4532 58.1629 38.2932L51.2929 39.2232C51.1829 38.6132 49.6229 41.3732 49.5529 41.6432C49.2429 42.8532 49.3729 44.1432 49.8929 45.2532C51.1329 47.9032 54.5929 49.6332 57.0529 50.8632C59.1929 51.9332 61.3929 50.9832 62.1929 48.7732C63.5529 45.0132 63.7229 41.3732 63.1229 37.4632C62.4429 33.0232 55.6929 34.9132 56.3729 39.3232C56.7829 41.9832 56.3529 44.4132 55.4429 46.9132L60.5829 44.8232C59.0229 44.0432 57.8129 43.1432 56.3229 42.2132C57.0229 42.6532 55.7729 44.2932 57.2429 42.2632C58.3429 40.7332 58.3529 39.1332 58.0329 37.3532C57.3029 33.2932 51.3729 34.5432 51.1629 38.2832C50.9829 41.4832 50.1329 44.4032 48.5929 47.2132C47.3629 49.4432 46.0729 51.3032 45.5829 53.8432C44.7429 58.2332 51.3929 60.1332 52.3329 55.7032C52.4829 55.0032 52.6329 54.3032 52.7829 53.5932H46.0329C46.1629 54.3832 46.2929 55.1732 46.4329 55.9632C47.1129 60.0432 53.0929 58.7632 53.3029 55.0332C53.2329 56.1632 63.5729 56.3932 64.9229 55.5132C68.5029 53.1832 67.2529 48.1432 67.6129 44.6232L65.8829 47.6432C71.4529 43.7832 68.4729 37.8532 65.8829 32.6732C63.8729 28.6432 57.8329 32.1832 59.8429 36.2032V36.2232Z" fill="#F3CCA9"/>
<path d="M65.8044 46.6738C70.3044 46.6738 70.3144 39.6738 65.8044 39.6738C61.2944 39.6738 61.2944 46.6738 65.8044 46.6738Z" fill="#F3CCA9"/>
<path d="M45.4527 56.5323C45.0627 59.3223 43.8427 63.8922 45.3527 66.4722C47.1527 69.5722 51.4227 68.0822 54.0527 69.5622C56.3427 70.8522 59.3427 69.2322 59.3227 66.5422C59.2927 62.4922 59.4527 58.3822 59.1027 54.3422C58.8527 51.4122 55.4127 49.6122 53.1327 51.8722C50.3027 54.6622 48.8627 58.0423 48.4927 61.9623C48.0727 66.4423 55.0727 66.4123 55.4927 61.9623C55.6827 59.9223 56.6527 58.2322 58.0827 56.8222L52.1127 54.3522C52.4627 58.3922 52.2927 62.5022 52.3327 66.5522L57.6027 63.5323C56.4127 62.8623 55.2427 62.4622 53.9127 62.2422C52.8027 62.0622 51.1527 62.2122 50.1627 61.6922L51.7727 63.7823C51.4827 62.2923 52.0227 59.8923 52.2327 58.3923C52.5027 56.5023 51.7727 54.6522 49.7927 54.0822C48.1527 53.6122 45.7527 54.6622 45.4827 56.5222L45.4527 56.5323Z" fill="#F3CCA9"/>
<path d="M47.1345 69.7031C51.6345 69.7031 51.6445 62.7031 47.1345 62.7031C42.6245 62.7031 42.6245 69.7031 47.1345 69.7031Z" fill="#F3CCA9"/>
<path d="M56.6638 71.1641C61.1638 71.1641 61.1738 64.1641 56.6638 64.1641C52.1537 64.1641 52.1537 71.1641 56.6638 71.1641Z" fill="#F3CCA9"/>
<path d="M46.8727 68.9141C51.3727 68.9141 51.3827 61.9141 46.8727 61.9141C42.3627 61.9141 42.3627 68.9141 46.8727 68.9141Z" fill="#F3CCA9"/>
<path d="M44.7536 70.3633C49.2536 70.3633 49.2636 63.3633 44.7536 63.3633C40.2436 63.3633 40.2436 70.3633 44.7536 70.3633Z" fill="#F3CCA9"/>
<path d="M57.9938 72.7441C62.4938 72.7441 62.5038 65.7441 57.9938 65.7441C53.4838 65.7441 53.4838 72.7441 57.9938 72.7441Z" fill="#F3CCA9"/>
<path d="M116.134 38.9927C113.134 40.8227 109.444 45.7227 112.604 48.9727C113.894 50.3027 115.874 50.6927 117.314 51.9527C119.414 53.7827 119.284 56.4027 119.304 59.0427C119.344 63.5427 126.344 63.5527 126.304 59.0427C126.274 55.4627 126.094 51.4927 123.794 48.5727C122.884 47.4127 121.694 46.4927 120.504 45.6227C119.904 45.1727 119.304 44.7327 118.644 44.3727L117.804 44.0227C116.854 43.6927 116.694 43.6027 117.314 43.7527L118.214 47.1627C118.434 46.2727 118.874 45.5227 119.664 45.0427C123.504 42.7027 119.994 36.6427 116.134 39.0027V38.9927Z" fill="#F3CCA9"/>
<path d="M116.173 44.8931C118.423 47.0731 120.653 48.6031 120.983 51.8531C121.313 55.1031 120.693 58.293 120.073 61.323C119.163 65.723 125.913 67.603 126.823 63.183C127.733 58.763 128.533 53.6031 127.773 48.9731C127.113 44.943 123.923 42.6531 121.123 39.9431C117.883 36.8031 112.933 41.7531 116.173 44.8931Z" fill="#F3CCA9"/>
<path d="M117.823 46.1839C118.533 46.6839 119.973 47.3239 120.473 48.0439C121.153 49.0139 121.083 51.3439 121.263 52.5139C121.773 55.8239 122.023 59.0739 121.873 62.4239C121.673 66.9239 128.673 66.9139 128.873 62.4239C129.073 57.9339 128.463 53.1139 127.653 48.5039C126.893 44.1639 124.883 42.6039 121.353 40.1439C117.653 37.5639 114.143 43.6239 117.823 46.1839Z" fill="#F3CCA9"/>
<path d="M125.834 64.4141C130.334 64.4141 130.344 57.4141 125.834 57.4141C121.324 57.4141 121.324 64.4141 125.834 64.4141Z" fill="#F3CCA9"/>
<path d="M122.113 62.2129C126.613 62.2129 126.623 55.2129 122.113 55.2129C117.603 55.2129 117.603 62.2129 122.113 62.2129Z" fill="#F3CCA9"/>
<path d="M136.113 27.6423C135.413 27.8423 112.933 43.9023 111.073 45.3123C109.213 46.7223 105.553 51.7023 106.033 52.1623C106.773 52.8723 113.073 50.5823 113.913 50.0923C114.753 49.6023 138.253 33.0123 139.403 32.2123C140.553 31.4123 136.813 27.4323 136.113 27.6323V27.6423Z" fill="#6F93FC"/>
<path d="M94.6427 79.0934C84.6827 79.6634 75.5527 71.7234 61.3127 67.2734C55.3427 68.3134 44.0227 67.7434 42.3927 64.0534C21.1127 67.2034 3.16267 80.6834 0.372671 89.7434C-2.29733 98.4134 10.0527 115.553 15.9827 121.143C18.6027 106.263 22.2427 90.4134 28.0227 76.4334C28.3127 75.7234 28.9727 76.1634 28.7427 76.8434C22.4127 96.3434 17.9227 116.403 15.3427 136.743C26.5927 143.393 62.4427 144.953 74.0527 142.103C74.1427 137.193 74.8427 120.713 75.4827 107.963C70.4927 107.563 65.5127 106.983 60.5727 106.173C59.7827 106.043 60.1327 105.213 60.9027 105.313C70.1927 106.563 88.9827 108.743 99.8327 105.773C106.503 103.943 120.203 96.9134 131.103 63.7534C127.953 61.3934 122.593 59.3434 117.313 58.7734C115.873 62.9334 99.5427 78.8234 94.6327 79.1034L94.6427 79.0934Z" fill="#6F93FC"/>
<path d="M89.282 8.95298C94.712 12.753 99.572 17.293 103.742 22.443C104.402 23.223 105.132 22.613 105.632 21.973C112.252 13.423 115.792 8.40298 124.632 1.06298C125.332 0.482977 124.542 -0.357022 123.792 0.162978C117.732 4.40298 108.402 13.323 104.422 19.633C100.172 15.023 95.312 11.013 89.982 7.71298C88.962 7.09298 88.282 8.29298 89.272 8.95298H89.282Z" fill="#6F93FC"/>
<path d="M95.243 8.01381C96.963 8.21381 109.433 7.68381 111.373 7.65381C112.343 7.63381 112.413 6.08381 111.433 6.12381C109.473 6.19381 96.893 6.49381 95.133 6.80381C94.413 6.93381 94.603 7.94381 95.243 8.01381Z" fill="#6F93FC"/>
<path d="M91.1225 45.9332C90.2525 45.5432 89.5425 46.7232 90.3325 47.2132C94.7425 49.9632 98.9625 53.0132 102.942 56.3532C104.142 57.3532 105.622 55.4432 104.432 54.4332C100.412 50.9932 95.9325 48.1332 91.1125 45.9332H91.1225Z" fill="#6F93FC"/>
<path d="M116.763 25.8527C116.803 22.1427 116.443 18.1627 116.423 14.4227C116.423 13.4727 115.103 13.6327 115.113 14.5827C115.143 18.5427 115.183 22.4927 115.213 26.4427C112.243 26.4427 98.8333 26.8027 95.7733 27.3827C95.4533 23.9827 95.2934 20.5627 94.7934 17.1827C94.7334 16.8827 94.4434 16.6827 94.1434 16.7427C93.8934 16.7927 93.7034 17.0127 93.6934 17.2727C93.8534 20.5927 93.9933 23.9827 94.2433 27.3027C94.3833 29.0727 94.3834 28.9527 96.1234 28.8227C102.153 28.3827 108.293 28.0227 114.343 27.9727C116.083 27.9527 116.723 28.0727 116.753 25.8627L116.763 25.8527Z" fill="#6F93FC"/>
<path d="M109.273 39.4222C105.943 39.4622 102.303 39.5122 98.9829 39.8922C95.5229 40.2922 95.7629 40.5822 96.0129 43.7022C96.0729 44.5222 96.1729 45.3422 96.3229 46.1422C96.3629 46.4822 96.6729 46.7322 97.0129 46.6822C97.3029 46.6522 97.5229 46.4222 97.5529 46.1422C97.5529 45.5722 97.2729 41.7222 97.3529 41.6222C97.4329 41.5222 107.903 40.7922 109.023 40.7122C109.983 40.6422 110.223 39.4022 109.263 39.4122L109.273 39.4222Z" fill="#6F93FC"/>
<path d="M98.1135 54.6722C98.0335 54.3322 97.6935 54.1122 97.3535 54.1922C97.0735 54.2522 96.8635 54.5022 96.8535 54.7822C96.8935 56.8422 97.0435 58.9022 97.3035 60.9522C97.2735 61.3522 97.5735 61.7122 97.9835 61.7422C98.0835 61.7422 105.714 61.5522 111.294 61.0222C112.724 60.8922 111.854 59.6122 111.014 59.6722C107.074 59.9722 102.664 60.1322 98.7035 60.2422C98.5435 58.3222 98.4135 56.4922 98.1235 54.6622L98.1135 54.6722Z" fill="#6F93FC"/>
<path d="M64.2423 36.5532C62.3223 36.4332 61.1723 38.8032 62.2123 39.0232C62.7523 39.1332 62.9224 37.7932 64.1624 37.8032C64.5024 37.8232 64.8024 37.5632 64.8324 37.2232C64.8624 36.8832 64.5924 36.5832 64.2524 36.5532H64.2423Z" fill="#191919"/>
<path d="M66.9326 34.4223C66.6426 33.8423 66.1325 34.3123 66.2725 34.8623C67.1225 38.2423 68.0726 40.1223 68.7926 43.8723C69.1826 45.8923 67.3326 44.6623 67.2826 46.2323C67.2426 47.4023 67.1326 48.5623 66.9326 49.7223C66.1326 49.5823 65.4025 49.1823 64.8525 48.5823C64.5025 48.1123 63.8826 48.5323 64.1726 49.1623C64.7026 50.1423 65.6826 50.8023 66.7926 50.9323C66.1526 56.0123 63.4726 56.3023 59.1826 55.4123C58.3926 55.2523 57.6025 54.9723 56.7425 54.8523C56.3225 54.7923 55.2526 55.6423 58.0626 56.4323C58.0626 57.7923 58.3626 64.7523 58.7526 66.0323C58.9126 66.5723 59.7625 66.5023 59.7125 65.9023C59.4625 62.7523 59.3626 59.8023 59.3126 56.7223C67.8726 58.4723 67.7426 53.2323 68.4226 46.5123C70.1926 46.2623 70.2726 44.8023 70.0026 43.4023C69.4026 40.2823 68.3726 37.2623 66.9526 34.4223H66.9326Z" fill="#191919"/>
<path d="M42.7029 19.9723C40.4129 11.6923 31.5429 3.11235 19.6029 9.34235C7.66293 15.5723 9.24293 32.3323 15.6729 39.4223C19.7029 43.8723 23.5529 49.1324 22.9629 53.2124C22.3729 57.2924 28.6529 53.7523 25.3829 40.3723C22.7629 29.6823 31.3129 20.7923 37.9929 24.9823C39.2229 23.0223 40.8229 21.3223 42.7029 19.9823V19.9723Z" fill="#C57A43"/>
<path d="M54.6127 39.6926C56.3927 40.7526 67.4827 31.8126 66.8027 29.7526C61.3227 13.2626 40.9627 17.5425 37.6927 29.3325C34.0327 42.5625 44.9327 52.9426 45.6327 52.8526C46.6427 52.7226 49.8127 50.6825 50.9927 46.7225C52.0527 47.3425 53.3527 47.3425 54.4127 46.7225C55.0927 46.3325 54.6027 45.5725 53.8827 45.8225C52.1427 46.4425 50.2527 45.0326 50.4427 42.0226C50.4527 40.5026 51.7027 39.2826 53.2227 39.2926C53.7127 39.2926 54.1927 39.4326 54.6127 39.6826V39.6926Z" fill="#C57945"/>
<path d="M45.073 54.3935C44.423 57.3735 44.083 60.4135 44.043 63.4735C44.073 63.7635 44.333 63.9835 44.633 63.9535C44.863 63.9335 45.053 63.7635 45.103 63.5435C45.703 60.6435 45.803 57.5035 46.333 54.4835C46.463 53.7635 45.213 53.6935 45.083 54.3935H45.073Z" fill="#191919"/>
<path d="M65.4233 40.5631C64.9733 38.9831 63.4733 38.9131 64.0633 41.1431C64.5933 43.1531 65.9033 42.2331 65.4233 40.5631Z" fill="#191919"/>
<path d="M114.113 40.3521C114.583 39.8721 118.093 39.6021 118.363 39.5121C118.963 39.3121 118.833 38.4221 118.323 38.2321C117.303 37.8321 114.433 38.4021 113.463 38.9321C112.493 39.4621 112.343 41.2121 111.483 43.0521C111.043 44.0021 110.453 44.8721 110.073 45.8321C109.883 46.3021 110.453 46.6321 110.863 46.3021C112.803 44.7721 114.083 40.3721 114.113 40.3521Z" fill="#191919"/>
<path d="M111.753 48.6125C111.443 48.5925 111.183 48.8325 111.163 49.1425C111.153 49.3825 111.293 49.6025 111.513 49.6925C118.373 52.2025 117.953 56.7825 118.903 57.8625C119.113 58.1025 120.463 58.6025 120.123 56.6725C119.453 52.7725 115.723 48.9225 111.743 48.6125H111.753Z" fill="#191919"/>
<path d="M125.802 44.0029C128.472 50.5029 128.602 52.1029 128.422 59.1429C128.402 59.9329 129.582 60.2529 129.792 59.4429C131.002 54.7729 129.582 47.2929 126.792 43.3529C126.382 42.7729 125.552 43.4029 125.802 44.0029Z" fill="#191919"/>
<path d="M121.433 46.0834C121.273 47.8534 120.163 47.8334 119.073 48.1634C117.703 48.5734 118.483 48.9534 119.073 49.0934C120.573 49.5134 122.123 48.6434 122.553 47.1434C122.663 46.7534 122.683 46.3434 122.623 45.9334C122.453 45.1534 121.503 45.3234 121.443 46.0734L121.433 46.0834Z" fill="#191919"/>
<path d="M170.352 21.5037C171.862 21.4237 171.422 19.1037 169.922 19.1837C159.102 19.7937 148.092 19.1437 137.602 19.8037C136.412 19.8737 136.622 21.6837 137.702 21.8137C143.952 22.5437 164.242 21.8537 170.342 21.5037H170.352Z" fill="#191919"/>
<path d="M187.953 7.04258C175.063 6.61258 147.873 6.74258 135.893 8.00258C134.913 8.10258 134.643 9.90258 135.823 9.89258C149.533 9.80258 172.143 8.89258 188.173 9.39258C189.703 9.44258 189.453 7.08258 187.953 7.03258V7.04258Z" fill="#191919"/>
<path d="M186.353 40.0221C170.733 41.3121 152.023 39.7021 137.793 41.4221C136.663 41.5621 136.953 43.4821 138.103 43.4121C150.803 42.6521 169.633 43.2021 186.413 42.4021C187.923 42.3221 187.883 39.8921 186.353 40.0121V40.0221Z" fill="#191919"/>
<path d="M168.372 51.0922C161.072 50.6522 144.912 50.7022 138.802 51.0022C137.662 51.0622 137.492 52.9822 138.682 53.0622C147.792 53.6222 157.742 53.5922 168.242 53.3822C169.482 53.3622 169.742 51.1822 168.382 51.0922H168.372Z" fill="#191919"/>
</svg>
