<svg width="127" height="214" viewBox="0 0 127 214" fill="none" xmlns="http://www.w3.org/2000/svg">
<path d="M75.2331 8.84875C75.4797 11.9219 75.5556 15.0898 75.1762 18.144L75.3089 17.1386C75.252 17.48 75.1762 17.7836 75.0623 18.106L75.4417 17.1955C75.3659 17.3662 75.271 17.499 75.1762 17.6508L75.7642 16.892C75.6314 17.0627 75.4797 17.2145 75.3089 17.3662L76.0677 16.7781C75.8401 16.9489 75.6125 17.0817 75.3469 17.1955L76.2574 16.8161C75.7263 17.0437 75.1762 17.1765 74.5881 17.2524L75.5935 17.1196C75.271 17.1575 74.9675 17.1765 74.626 17.1196L75.6314 17.2524C75.4986 17.2334 75.3848 17.1955 75.271 17.1386L76.1816 17.518C76.0677 17.4611 75.9729 17.4042 75.878 17.3283L76.6368 17.9163C76.504 17.7836 76.3902 17.6697 76.2764 17.518L76.8645 18.2768C76.0488 17.1955 75.233 16.0952 74.4173 15.014L71.1356 20.7239C72.2738 20.6859 73.4309 20.667 74.5691 20.5911C75.8401 20.5152 77.0162 20.2117 77.9647 19.3011C78.9132 18.3906 79.2926 17.1955 79.3495 15.9435C79.4633 13.6671 79.3495 11.3717 79.3495 9.09536C79.3495 7.7485 78.6286 6.49649 77.4715 5.81358C76.2574 5.09273 74.8726 5.18758 73.6396 5.81358C72.4066 6.43959 71.2873 7.65365 70.6803 8.92463C69.9594 10.4802 69.7318 12.0167 69.5801 13.724C69.4852 14.6346 70.0733 15.7917 70.6993 16.3988C71.3632 17.0627 72.4445 17.5559 73.374 17.518C74.3035 17.48 75.3658 17.1575 76.0488 16.3988C76.7696 15.621 77.0542 14.7673 77.168 13.724C77.2059 13.4205 77.2249 13.1359 77.2628 12.8324L77.13 13.8378C77.2249 13.1739 77.3387 12.5479 77.5853 11.9219L77.2059 12.8324C77.3577 12.491 77.5284 12.1874 77.7371 11.9029L77.149 12.6617C77.3387 12.4341 77.5474 12.2254 77.775 12.0357L77.0162 12.6238C77.168 12.5289 77.3197 12.4341 77.4715 12.3582L71.7616 9.0764C71.7616 10.2525 71.7616 11.4287 71.7616 12.6048C71.7616 13.7809 71.8375 14.8812 71.7616 16.0194L71.8944 15.014C71.8944 15.1278 71.8564 15.2416 71.8185 15.3364L72.1979 14.4259L72.122 14.5776L72.7101 13.8189L72.5963 13.9327L73.355 13.3446L73.2033 13.4395L74.1138 13.0601C74 13.098 73.8672 13.1359 73.7534 13.1359L74.7588 13.0032C73.5447 13.079 72.3307 13.098 71.1356 13.1359C69.7887 13.1929 68.5557 13.8189 67.8538 15.014C67.2278 16.0763 67.0571 17.7835 67.8538 18.8459C68.4988 19.6995 69.1437 20.5721 69.7887 21.4258C70.7751 22.7347 71.7236 24.0815 73.4309 24.5178C75.916 25.1439 78.9701 24.3092 80.8292 22.564C82.84 20.667 82.84 17.7646 82.9348 15.2037C83.0107 13.079 82.9538 10.9734 82.7831 8.84875C82.7072 7.82438 82.4226 6.91383 81.6638 6.174C80.9999 5.51006 79.9186 5.01684 78.9891 5.05478C77.0731 5.14963 75.0244 6.72413 75.1951 8.84875H75.2331Z" fill="#F4C88A"/>
<path d="M73.1082 24.5196C77.9834 24.5196 78.0024 16.9316 73.1082 16.9316C68.2139 16.9316 68.2139 24.5196 73.1082 24.5196Z" fill="#F4C88A"/>
<path d="M79.2527 12.2071C84.1279 12.2071 84.1469 4.61914 79.2527 4.61914C74.3585 4.61914 74.3585 12.2071 79.2527 12.2071Z" fill="#F4C88A"/>
<path d="M48.5799 43.8846C46.5502 48.4563 46.3605 53.3695 48.4282 57.9792C50.1734 61.868 53.5311 64.7514 57.4199 66.3259C61.3087 67.9004 66.5065 67.7297 70.0538 65.1877C73.6012 62.6458 75.593 58.3206 76.6363 53.9955C77.9453 48.5512 77.9832 42.974 76.9209 37.4728C76.5415 35.5189 74.0944 34.2289 72.2543 34.817C70.1676 35.4999 69.2002 37.3969 69.5985 39.4836C70.3953 43.619 70.2625 48.2476 69.2002 52.402C68.65 54.5836 68.3845 55.589 67.2463 57.3532C67.1135 57.5618 66.9617 57.7705 66.8289 57.9792C67.0376 57.6946 66.9997 57.7326 66.7151 58.074C66.6013 58.1689 65.5959 59.0604 66.0701 58.719C65.6718 59.0035 65.2165 59.2691 64.7612 59.4588C65.3683 59.2122 64.2111 59.5726 64.0783 59.6106C63.8886 59.6485 63.7179 59.6864 63.5282 59.7244C63.9076 59.6675 63.8697 59.6675 63.4144 59.7244C62.9022 59.7244 62.409 59.7244 61.8968 59.7054C62.5797 59.7623 61.1949 59.5726 61.0242 59.5157C60.5499 59.4019 60.0757 59.2501 59.6204 59.0604C60.2654 59.326 59.0134 58.719 58.8995 58.6431C58.5771 58.4534 58.2735 58.2637 57.97 58.055C57.6096 57.7895 57.5716 57.7705 57.8752 57.9792C57.6855 57.8274 57.5147 57.6567 57.325 57.4859C56.9646 57.1445 56.6421 56.803 56.3196 56.4236C56.0351 56.0822 56.0161 56.0442 56.2437 56.3288C56.111 56.1391 55.9592 55.9304 55.8454 55.7217C55.5798 55.3044 55.3522 54.8871 55.1435 54.4508C55.4091 55.0199 54.9918 53.9955 54.9538 53.8817C54.7831 53.3695 54.6503 52.8383 54.5744 52.3072C54.6693 52.8383 54.5175 51.4535 54.5175 51.3018C54.5175 50.7706 54.5175 50.2205 54.5934 49.6704C54.5175 50.2205 54.8021 48.8357 54.84 48.6839C54.8779 48.5322 55.3332 47.2991 55.1625 47.6785C55.9592 45.8764 55.7505 43.5241 53.7967 42.4808C52.1463 41.6082 49.4715 41.9117 48.5989 43.8466L48.5799 43.8846Z" fill="#F4C88A"/>
<path d="M54.1373 47.4537C53.9666 49.3317 53.9666 51.2287 54.1942 53.1067C54.346 54.3966 54.4788 55.6486 54.972 56.8437C55.5031 58.1147 56.4327 59.2719 57.7037 59.9168C59.5248 60.8274 61.7442 61.112 63.774 60.9033C65.1778 60.7705 66.5246 60.5049 67.7577 59.7461C68.8769 59.0632 69.7305 58.1526 70.4514 57.0714C71.8931 54.9467 72.1207 52.3099 72.2725 49.8249C72.4053 47.8331 70.4324 45.9361 68.4785 46.0309C66.316 46.1258 64.8174 47.7003 64.6846 49.8249C64.6466 50.4888 64.5897 51.1528 64.5138 51.8167L64.6466 50.8113C64.5328 51.627 64.3621 52.4048 64.0396 53.1636L64.419 52.253C64.2293 52.6893 63.9827 53.1067 63.6981 53.4861L64.2862 52.7273C64.0586 53.0118 63.8119 53.2774 63.5084 53.505L64.2672 52.917C64.0017 53.1256 63.7361 53.2774 63.4326 53.4292L64.3431 53.0498C63.9068 53.2395 63.4705 53.3533 62.9963 53.4102L64.0017 53.2774C63.0532 53.3912 62.0667 53.3722 61.0993 53.2584L62.1047 53.3912C61.6494 53.3343 61.2131 53.2395 60.7768 53.0687L61.6873 53.4481C61.4597 53.3533 61.251 53.2395 61.0613 53.0877L61.8201 53.6758C61.6683 53.543 61.5356 53.4102 61.4028 53.2584L61.9909 54.0172C61.8581 53.8275 61.7632 53.6568 61.6683 53.4481L62.0478 54.3587C61.8201 53.7517 61.7253 53.1067 61.6304 52.4807L61.7632 53.4861C61.4976 51.4753 61.4597 49.4455 61.6494 47.4347C61.7442 46.5241 61.1562 45.3859 60.5302 44.7599C59.8662 44.096 58.7849 43.6028 57.8554 43.6407C56.9259 43.6787 55.8636 44.0011 55.1807 44.7599C54.4977 45.5187 54.1753 46.3913 54.0614 47.4347L54.1373 47.4537Z" fill="#F4C88A"/>
<path d="M58.3301 49.9582C57.8938 51.4189 57.6092 53.0124 57.8179 54.53C58.1594 57.034 60.4737 58.6085 62.9018 58.286C65.6525 57.9256 67.8719 55.5164 69.1809 53.1831C71.7797 48.4975 71.3055 43.2429 71.6659 38.1021C71.7987 36.1102 69.8258 34.2133 67.8719 34.3081C65.6904 34.403 64.2297 35.9774 64.078 38.1021C63.9641 39.7524 63.9642 41.4218 63.9072 43.0722C63.8693 43.9068 63.8124 44.7225 63.7555 45.5382C63.6986 45.9746 63.7175 45.9556 63.7744 45.4434C63.7555 45.6331 63.7176 45.8038 63.6796 45.9935C63.6227 46.316 63.5468 46.6575 63.4709 46.98C63.414 47.2266 63.0915 48.839 62.8639 48.8959C63.0915 48.3837 63.1105 48.3078 62.9398 48.6683C62.8639 48.82 62.788 48.9718 62.7121 49.1046C62.5604 49.3891 62.3897 49.6737 62.2189 49.9582C62.1241 50.091 62.0292 50.2238 61.9344 50.3566C62.2758 49.9203 62.3327 49.8444 62.0672 50.1669C61.8395 50.3945 61.6119 50.6222 61.3842 50.8688C61.0807 51.1344 61.1377 51.0964 61.574 50.736C61.4601 50.8308 61.3273 50.9067 61.2135 50.9826C61.8206 50.755 61.9344 50.717 61.555 50.8308C62.5793 50.6222 63.4899 50.8308 64.2866 51.5137L65.2541 53.1831C65.3679 53.4866 65.2541 54.0367 65.292 53.3538C65.292 53.259 65.292 53.1641 65.311 53.0693C65.349 52.7847 65.311 52.8796 65.2731 53.3538C65.1782 53.2969 65.5766 52.0639 65.6145 51.9311C66.1836 50.0341 64.9316 47.7198 62.9587 47.2645C60.9859 46.8092 58.8992 47.8715 58.2922 49.9203L58.3301 49.9582Z" fill="#F4C88A"/>
<path d="M66.6026 30.0984C66.8113 30.7624 67.001 31.4263 67.1338 32.1092C67.1527 32.261 67.3424 32.8491 67.2855 32.9818C67.2096 32.4697 67.2097 32.4127 67.2666 32.8491V33.1526C67.3994 34.4805 67.3993 35.8273 67.2855 37.1742C67.2286 37.8192 67.2096 38.4831 67.0958 39.1281C67.2665 38.1416 67.0958 39.166 67.0579 39.3178C67.001 39.6592 66.9441 40.0197 66.8871 40.3611C66.6595 41.708 66.375 43.0359 66.1094 44.3637C65.711 46.2987 66.6785 48.5561 68.7652 49.0303C70.6622 49.4666 72.9955 48.4612 73.4318 46.3746C74.6838 40.3801 75.8599 34.0631 73.9439 28.0687C73.3369 26.1717 71.2882 24.7679 69.2774 25.4129C67.3804 26.0199 65.9766 28.0497 66.6216 30.0795L66.6026 30.0984Z" fill="#F4C88A"/>
<path d="M70.3012 31.8585C70.434 32.0671 70.5668 32.2568 70.6617 32.4845L70.2823 31.5739C70.491 32.0861 70.6048 32.6172 70.6996 33.1674L70.5668 32.162C70.9273 35.1213 70.7945 38.1185 70.6806 41.0778C70.6048 43.0696 72.4828 44.9666 74.4746 44.8718C76.5992 44.7769 78.1927 43.2024 78.2686 41.0778C78.3445 38.9532 78.4204 36.9613 78.3445 34.9126C78.2686 32.6172 78.2306 29.9615 76.8458 28.0265C76.2578 27.2108 75.5749 26.5659 74.5695 26.2813C73.6589 26.0347 72.4449 26.1485 71.6481 26.6607C70.0357 27.7041 69.0682 30.1132 70.2823 31.8585H70.3012Z" fill="#F4C88A"/>
<path d="M77.6411 27.0801C75.8199 29.4513 75.5733 32.6003 75.6302 35.4837C75.6871 38.3671 75.9907 41.5161 76.2373 44.5134C76.5029 47.7193 76.6736 50.9252 76.427 54.1311C76.1993 56.9007 76.1235 59.7841 78.1912 61.9467C80.2589 64.1092 83.5596 64.3369 86.3103 64.0903C89.0609 63.8436 92.0391 62.9521 94.4293 61.3207C97.2748 59.3668 99.1149 56.9766 99.4943 53.4861C99.8168 50.432 99.4374 47.283 98.9252 44.2668C98.5837 42.237 96.0987 41.1178 94.2586 41.611C92.115 42.1991 91.2614 44.2478 91.6028 46.2776C91.9443 48.3073 92.115 50.4509 91.9823 52.5186C91.8874 53.9034 90.901 54.6622 89.5541 55.421C88.2073 56.1798 86.6327 56.5592 85.0962 56.5592C84.6978 56.5592 84.2236 56.5592 83.8821 56.5213C84.0339 56.5592 83.8821 56.5213 83.4837 56.4454C82.9905 56.2747 82.9526 56.2937 83.3889 56.5213C83.5786 56.5782 83.7304 56.711 83.8252 56.8628C83.939 57.1094 83.939 57.1094 83.8821 56.8628C83.8821 56.8628 83.8821 56.6161 83.8821 56.1988C83.939 54.0931 84.2046 52.0254 84.1667 49.9008C84.1287 47.4916 83.9201 45.0825 83.7114 42.6733C83.5027 40.2641 83.2941 37.855 83.2561 35.4458C83.2182 33.6247 83.1992 32.2399 84.2426 30.8741C85.4946 29.2426 84.4892 26.6248 82.8767 25.6763C80.9228 24.5381 78.931 25.4107 77.679 27.0421L77.6411 27.0801Z" fill="#F4C88A"/>
<path d="M85.0971 47.8697C86.2163 51.4739 87.8667 54.9454 90.0861 57.9996C90.6742 58.8153 91.3381 59.4603 92.3625 59.7448C93.2731 59.9914 94.4871 59.8776 95.2838 59.3654C96.0806 58.8532 96.8014 58.0565 97.0291 57.089C97.2567 56.1216 97.2377 54.9834 96.6497 54.1677C95.2459 52.2517 94.0888 50.165 93.1403 47.9835L93.5197 48.894C93.1023 47.9076 92.7419 46.8832 92.4194 45.8589C92.1349 44.9294 91.5278 44.0947 90.6742 43.5825C89.8205 43.0703 88.6634 42.8996 87.7528 43.2031C85.8369 43.8291 84.471 45.8399 85.0971 47.8697Z" fill="#F4C88A"/>
<path d="M91.9643 54.8126C91.9643 54.8126 91.9074 54.8695 91.8695 54.8885L92.6282 54.3004C92.2299 54.6039 91.7936 54.8695 91.3193 55.0592L92.2299 54.6798C91.8315 54.8505 91.4331 54.9643 90.9968 55.0592L93.9182 55.4386C93.9182 55.4386 93.7854 55.3437 93.7285 55.3058L94.4873 55.8939C94.2976 55.7421 94.1079 55.5524 93.9561 55.3627L94.5442 56.1215C94.5442 56.1215 94.4683 56.0266 94.4493 55.9887C94.2027 55.5524 93.8803 55.192 93.4629 54.9264C93.1025 54.5849 92.6662 54.3573 92.173 54.2435C91.6608 54.0917 91.1676 54.0538 90.6554 54.1676C90.1432 54.1866 89.6879 54.3383 89.2516 54.6229L88.4928 55.2109C88.0186 55.6852 87.6961 56.2353 87.5254 56.8803L87.3926 57.8857C87.3926 58.5686 87.5633 59.2136 87.9047 59.8016C88.1324 60.1241 88.379 60.4466 88.6446 60.7501C88.7015 60.826 88.7584 60.8829 88.8153 60.9398C89.1568 61.2813 89.5741 61.5658 89.9535 61.8504C89.9914 61.8883 90.0294 61.9073 90.0673 61.9263C90.3519 62.116 90.6554 62.2488 90.9968 62.3246L92.0022 62.4574L93.0076 62.3246C93.0076 62.3246 93.0646 62.3246 93.1025 62.3246C93.1594 62.3246 93.1973 62.3057 93.2543 62.2867C93.444 62.2487 93.6147 62.1919 93.7854 62.1349C94.4304 61.9263 95.0564 61.6607 95.6634 61.3382C96.2705 61.0157 96.8016 60.5794 97.3328 60.1431C97.7122 59.8016 97.9588 59.3843 98.1105 58.929C98.3571 58.4738 98.452 57.9805 98.433 57.4684C98.452 56.9372 98.3382 56.463 98.1105 56.0077C97.9588 55.5334 97.6932 55.1351 97.3328 54.7936L96.574 54.2055C95.9859 53.8641 95.3409 53.6934 94.658 53.6934L93.6526 53.8261C93.0076 54.0158 92.4575 54.3383 91.9833 54.7936L91.9643 54.8126Z" fill="#F4C88A"/>
<path d="M80.053 38.5553C80.3376 40.0539 80.5842 41.5715 80.8308 43.0701C80.9446 43.772 81.0584 44.4739 81.1533 45.1568C81.2102 45.4982 81.2481 45.8587 81.305 46.2001C81.343 46.4278 81.362 46.6744 81.3999 46.902C81.4568 47.3004 81.4568 47.3762 81.4188 47.0917C81.3619 46.6554 81.4947 47.6987 81.5137 47.8126C81.5706 48.2299 81.6086 48.6283 81.6655 49.0456C81.7603 49.7475 81.8362 50.4494 81.9121 51.1513C82.0828 52.6688 82.2346 54.1864 82.3673 55.723C82.5381 57.6958 83.9798 59.6118 86.1613 59.5169C88.0773 59.4221 90.145 57.8476 89.9553 55.723C89.3862 49.2922 88.5325 42.8804 87.3564 36.5255C86.996 34.5716 84.5299 33.2817 82.6898 33.8697C80.5842 34.5526 79.6547 36.4496 80.0341 38.5363L80.053 38.5553Z" fill="#F4C88A"/>
<path d="M76.8621 62.836C81.7373 62.836 81.7563 55.248 76.8621 55.248C71.9679 55.248 71.9679 62.836 76.8621 62.836Z" fill="#F4C88A"/>
<path d="M73.4128 56.8215C72.7299 57.6182 71.9522 58.3581 71.1175 59.003L71.8763 58.415C71.6866 58.5667 71.4969 58.6995 71.3072 58.8323C70.8709 59.0789 70.5105 59.4014 70.2449 59.8188C69.9034 60.1792 69.6758 60.6155 69.562 61.1087C69.4102 61.6209 69.3723 62.1141 69.4861 62.6263C69.5051 63.1385 69.6568 63.5938 69.9414 64.0301L70.5295 64.7888C71.0037 65.2631 71.5538 65.5856 72.1988 65.7563L73.2042 65.8891C73.8871 65.8891 74.5321 65.7184 75.1202 65.3769C76.448 64.4474 77.7 63.423 78.7434 62.19C79.1228 61.8485 79.3694 61.4312 79.5211 60.9759C79.7677 60.5206 79.8626 60.0274 79.8436 59.5152C79.8626 58.9841 79.7488 58.5098 79.5211 58.0546C79.3694 57.5803 79.1038 57.1819 78.7434 56.8405L77.9846 56.2524C77.3965 55.911 76.7516 55.7402 76.0686 55.7402L75.0632 55.873C74.4183 56.0627 73.8681 56.3852 73.3939 56.8405L73.4128 56.8215Z" fill="#F4C88A"/>
<path d="M64.2857 21.8853C64.4185 23.8392 64.3426 25.831 64.8548 27.747C65.4429 29.9285 66.7518 31.8634 68.6867 33.0775C69.5024 33.5897 70.6975 33.7225 71.6081 33.4569C72.5186 33.1913 73.4481 32.5274 73.8845 31.7117C74.8709 29.8526 74.3208 27.6521 72.5186 26.5139C72.3858 26.4381 72.2531 26.3432 72.1203 26.2484L72.8791 26.8364C72.6324 26.6278 72.4048 26.4191 72.2151 26.1725L72.8032 26.9313C72.4997 26.5519 72.272 26.1345 72.0823 25.6793L72.4617 26.5898C72.1961 25.9448 72.0444 25.2809 71.9495 24.598L72.0823 25.6034C71.9306 24.3704 71.9495 23.1183 71.8737 21.8663C71.8167 20.8609 71.4943 19.9124 70.7544 19.1916C70.0905 18.5276 69.0092 18.0344 68.0797 18.0724C67.1502 18.1103 66.0878 18.4328 65.4049 19.1916C64.722 19.9504 64.2288 20.8799 64.2857 21.8663V21.8853Z" fill="#F4C88A"/>
<path d="M63.1297 24.0439C63.4901 25.0683 63.9264 26.0926 64.4576 27.0411C64.9887 27.9896 65.6716 28.8622 66.3545 29.6969C66.8478 30.3039 67.4169 30.8541 68.0239 31.3473C68.8775 32.0492 69.7691 32.7321 70.7366 33.2632C71.6092 33.7565 72.6905 33.9082 73.6579 33.6426C74.5305 33.396 75.498 32.7131 75.9343 31.8974C76.4086 31.0248 76.6362 29.9435 76.3137 28.9761C75.9912 28.0086 75.4411 27.1929 74.5685 26.6997C73.9994 26.3962 73.4682 26.0357 72.9561 25.6374L73.7148 26.2254C72.8612 25.5615 72.1214 24.8027 71.4574 23.968L72.0455 24.7268C71.3626 23.8542 70.8125 22.9057 70.3762 21.8813L70.7556 22.7919C70.6417 22.5263 70.5469 22.2607 70.452 21.9952C70.1295 21.0467 69.5794 20.2499 68.7068 19.7188C67.8911 19.2445 66.696 19.0359 65.7855 19.3394C64.8749 19.6429 63.9833 20.212 63.5091 21.0846C63.0348 21.9572 62.7882 23.0385 63.1297 24.006V24.0439Z" fill="#F4C88A"/>
<path d="M81.7192 22.1083C81.7192 22.1083 81.7192 22.241 81.7192 22.2979L81.8519 21.2925C81.8519 21.3874 81.814 21.4822 81.7761 21.5771L82.1555 20.6665C82.0986 20.7804 82.0227 20.8942 81.9468 21.008L82.5349 20.2492C81.9468 21.008 81.0932 21.634 80.3533 22.2031L81.1121 21.615C80.2964 22.241 79.4618 22.8101 78.5702 23.3223C77.9062 23.7017 77.1854 24.0052 76.6163 24.5554C75.5919 25.5418 75.1746 27.0214 75.5729 28.4252C75.7626 29.0891 76.1231 29.6583 76.5973 30.1515C77.2423 30.8154 78.3994 31.3845 79.3479 31.2517C79.8791 31.2707 80.3534 31.1569 80.8086 30.9292C81.2829 30.7775 81.6812 30.5119 82.0227 30.1515C82.6866 29.4875 83.1798 28.4062 83.1419 27.4767C83.104 26.5472 82.7815 25.4849 82.0227 24.802L81.2639 24.2139C80.6758 23.8724 80.0309 23.7017 79.3479 23.7017H79.291C80.1826 24.0811 81.0742 24.4415 81.9658 24.8209L81.9089 24.783L82.8763 26.4523V26.3765C82.7435 27.3439 82.6107 28.3304 82.478 29.2978L82.5159 29.2409L81.9278 29.9997L81.9847 29.9618L81.226 30.5498C82.5159 29.829 83.7679 29.1081 84.944 28.1976C85.7408 27.5905 86.5375 26.9645 87.2773 26.2816C87.7516 25.8453 88.15 25.3711 88.5104 24.8399C88.776 24.4605 88.9467 24.0052 89.0795 23.5879C89.0984 23.512 89.1174 23.4361 89.1364 23.3603C89.2123 22.9809 89.2881 22.5446 89.2692 22.1652C89.2692 21.1787 88.8518 20.1923 88.1499 19.4904C87.486 18.8265 86.4047 18.3333 85.4752 18.3712C84.5457 18.4091 83.4834 18.7316 82.8004 19.4904C82.1175 20.2492 81.6623 21.1598 81.6812 22.1652L81.7192 22.1083Z" fill="#F4C88A"/>
<path d="M83.6567 21.8996C83.5429 22.4497 83.3721 22.9809 83.1635 23.5121L83.5428 22.6015C83.2393 23.3413 82.822 24.0242 82.3478 24.6692L82.9358 23.9104C82.4806 24.4985 81.9494 25.0107 81.3803 25.4659L82.1391 24.8779C81.8735 25.0676 81.6079 25.2573 81.3424 25.428C80.5267 25.9402 79.8627 26.7559 79.5971 27.7044C79.4454 28.2166 79.4074 28.7098 79.5213 29.222C79.5402 29.7342 79.692 30.1894 79.9765 30.6257C80.5077 31.4414 81.2855 32.1433 82.2529 32.371C83.2204 32.5986 84.3016 32.5227 85.1743 31.9916C86.7867 31.0051 88.0577 29.7342 89.139 28.1976C89.4994 27.6854 89.8029 27.1543 90.0495 26.5852C90.4289 25.7126 90.7894 24.8779 90.9791 23.9484C91.1877 22.943 91.1308 21.9376 90.5996 21.027C90.1444 20.2492 89.2338 19.4904 88.3233 19.2818C87.3558 19.0541 86.2556 19.111 85.4019 19.6612C84.6052 20.1734 83.8654 20.9701 83.6567 21.9376V21.8996Z" fill="#F4C88A"/>
<path d="M72.7678 64.6625C71.6486 65.4592 70.4345 66.1042 69.1445 66.5784C74.2854 66.218 79.3883 65.4971 84.4153 64.4728C82.8028 64.1693 77.4723 61.0582 76.372 60.4512C76.0685 61.2858 75.5753 62.0257 74.9683 62.6706C74.3233 63.4484 73.5835 64.1313 72.7488 64.6814L72.7678 64.6625Z" fill="#6F93FC"/>
<path d="M62.4103 49.9786L68.4427 29.2825C67.5701 29.0549 66.7734 28.5996 66.1284 27.9736C65.3886 27.4045 64.7246 26.7596 64.1176 26.0577C63.6813 25.4506 63.3778 24.7677 63.207 24.0469C61.4049 24.0469 53.3617 24.4452 48.8279 30.6863C45.9824 34.3096 43.4594 38.1794 41.2969 42.239C41.2969 42.239 56.4727 47.266 62.0119 49.6751C62.1258 49.8838 62.2206 49.9786 62.4103 49.9786ZM58.0852 27.1579C57.2315 27.3666 56.4348 27.7839 55.7708 28.372C54.4809 29.3205 53.3048 30.3828 52.2614 31.5779C51.8251 32.2608 51.3129 32.9058 50.7628 33.4939C50.5162 33.7215 50.1368 33.7215 49.9092 33.4749C49.7574 33.3231 49.7005 33.0955 49.7574 32.8868C50.0799 32.0142 50.5921 31.2175 51.256 30.5725C52.4132 29.2256 53.7601 28.0685 55.2776 27.1579C56.0554 26.6268 56.966 26.3233 57.8955 26.2663C58.6922 26.2663 58.6922 27.1769 58.0852 27.1769V27.1579Z" fill="#6F93FC"/>
<path d="M84.2269 30.8768C83.8095 31.0475 83.3732 31.1992 82.918 31.2751C83.4112 32.7737 88.0398 46.451 88.2485 47.058C91.7579 45.3508 99.4027 42.4294 99.4027 42.4294C98.7009 39.4891 97.6955 36.6246 96.3865 33.893C94.7741 30.9526 92.4598 28.4676 89.6522 26.6465C88.3433 28.6004 86.4274 30.08 84.2269 30.8768Z" fill="#6F93FC"/>
<path d="M20.9062 105.275C21.7789 111.118 25.459 116.145 30.7516 118.743C39.8951 123.467 48.9437 132.212 50.8596 140.957C50.8596 140.957 53.8758 133.919 58.808 130.106C63.7401 126.293 77.7209 118.155 80.6233 113.318C83.5636 108.405 83.0325 104.687 83.0325 104.687C83.0325 104.687 81.5339 101.158 75.9947 101.462C70.5693 101.765 45.4343 101.671 36.0821 102.164C30.8844 102.353 25.7625 103.397 20.9062 105.275Z" fill="#6F93FC"/>
<path d="M85.2328 200.864C85.2328 203.083 65.3335 205.189 51.0492 205.189C36.7649 205.189 16.6758 203.69 16.6758 201.471L51.0492 175.33L85.2328 200.864Z" fill="#6F93FC"/>
<path d="M73.6796 19.5302C74.4763 19.7389 75.2731 19.9096 76.0888 20.0235C76.2405 20.0045 76.3733 19.9286 76.4872 19.8148C76.563 19.7389 76.601 19.6251 76.582 19.5113C76.6199 19.2457 76.4492 18.9801 76.1836 18.9042C75.5766 18.6956 73.9642 18.6007 73.7745 18.5059C73.5468 18.5438 73.3571 18.6956 73.2812 18.9042C73.2812 19.1698 73.452 19.3974 73.6796 19.5113V19.5302Z" fill="#191919"/>
<path d="M78.4978 14.8098C78.2132 13.9562 77.9666 13.0836 77.7959 12.192C77.72 11.9454 77.4734 11.8126 77.2268 11.8885C77.0371 11.9454 76.9043 12.1161 76.9043 12.3058C76.9043 13.7665 77.3027 15.2082 78.1184 16.4223C78.3271 16.7258 78.9151 17.0293 79.2186 16.631C79.636 16.2136 78.6875 15.341 78.5167 14.8288L78.4978 14.8098Z" fill="#191919"/>
<path d="M74.2868 10.3702C73.6797 10.1615 72.9968 10.2753 72.4846 10.6737C72.276 10.8824 72.276 11.2238 72.4846 11.4325C72.6174 11.5653 72.8071 11.6222 72.9778 11.5842C73.3003 11.5084 73.6418 11.4704 73.9832 11.4894C74.3247 11.4704 74.5713 11.1669 74.5333 10.8254C74.5333 10.6357 74.4195 10.484 74.2678 10.3702H74.2868Z" fill="#191919"/>
<path d="M81.4173 9.87733C81.2276 9.55484 80.8862 9.36514 80.5068 9.38411C80.0894 9.38411 79.6721 9.57381 79.4065 9.87733C79.1978 10.086 79.1978 10.4275 79.4065 10.6361C79.5393 10.7689 79.729 10.8258 79.9187 10.7879C80.3171 10.693 81.7208 10.7879 81.4173 9.87733Z" fill="#191919"/>
<path d="M9.54297 199.462V199.86C9.54297 200.96 10.8519 201.567 14.1716 202.269C22.8977 204.109 40.2931 204.982 49.759 204.982C59.225 204.982 76.5445 204.128 85.3465 202.269C88.6662 201.567 89.9751 200.865 89.9751 199.86V199.462L49.778 173.018L9.56193 199.462H9.54297ZM49.759 203.483C43.2713 203.483 17.0171 202.478 11.5538 199.974L49.8539 174.839L88.154 199.974C82.2354 202.516 56.2088 203.483 49.759 203.483Z" fill="#191919"/>
<path d="M49.9475 156.325C50.232 156.325 50.4597 156.098 50.4597 155.813C50.4597 155.528 50.232 155.32 49.9475 155.301C49.3404 155.415 49.3404 156.306 49.9475 156.306V156.325Z" fill="#191919"/>
<path d="M49.9471 150.595C50.5352 150.576 50.9904 150.082 50.9715 149.513C50.9715 148.963 50.5162 148.508 49.9471 148.489C49.359 148.47 48.8848 148.925 48.8658 149.513C48.8468 150.101 49.3021 150.576 49.8902 150.595C49.9092 150.595 49.9281 150.595 49.9661 150.595H49.9471Z" fill="#191919"/>
<path d="M49.9473 162.658C50.4215 162.658 50.782 162.241 50.763 161.767C50.763 161.312 50.3836 160.951 49.9473 160.951C49.473 160.951 49.1126 161.369 49.1316 161.843C49.1316 162.298 49.511 162.658 49.9473 162.658Z" fill="#191919"/>
<path d="M49.9462 165.58C49.5289 165.618 49.2253 165.997 49.2823 166.415C49.3202 166.775 49.6048 167.041 49.9462 167.079C50.3635 167.041 50.6671 166.661 50.6102 166.244C50.5722 165.884 50.2877 165.618 49.9462 165.58Z" fill="#191919"/>
<path d="M99.1176 207.087C98.6244 176.925 92.9524 167.421 83.5434 160.042C81.1152 158.145 78.3077 156.343 75.5002 154.522C57.3081 142.647 56.4924 139.308 75.5002 127.186C76.7901 126.351 78.0042 125.479 79.3131 124.682C78.6302 125.479 78.0801 126.408 77.7007 127.395C76.1452 131.265 77.1695 134.357 81.3239 134.622C83.8469 134.622 85.023 134.015 86.8441 134.717C88.3428 135.419 89.7276 136.33 90.9606 137.43C92.3454 138.606 94.0717 139.346 95.8928 139.535C96.8413 139.573 97.7897 139.327 98.6054 138.834C99.2884 138.208 99.6488 137.335 99.6108 136.424C99.497 134.717 98.7003 133.124 97.3914 132.004C94.9632 129.766 92.5351 129.273 89.8603 124.568C89.9931 124.435 89.9552 124.341 89.9552 121.95C90.1259 119.674 90.088 117.379 89.8603 115.121C94.1855 109.279 96.993 100.742 98.3019 85.7749C98.3968 86.1733 98.6054 86.4768 98.7003 86.8752C99.7247 90.6123 100.37 94.4631 100.616 98.333C102.096 111.726 101.887 111.84 102.324 113.604C101.754 114.097 101.299 114.704 101.015 115.406C99.6867 117.777 100.502 120.755 102.817 122.14C105.586 123.658 108.394 121.381 110.556 121.135C114.066 120.736 115.925 123.051 122.318 123.051C124.158 123.051 126.434 122.633 126.833 120.831C127.136 120.091 127.022 119.257 126.529 118.612C125.144 116.392 122.185 116.506 115.47 114.192C113.933 113.85 112.681 112.75 112.15 111.27C112.15 111.207 112.118 111.138 112.055 111.062C112.017 105.39 111.657 99.7178 110.955 94.0837C110.367 89.2654 109.911 84.3143 108.242 79.7046C103.993 68.0381 95.4944 67.5449 87.7357 64.5287C91.4538 64.377 96.2152 62.8214 98.3968 59.8052C100.294 57.1684 100.408 54.0953 100.408 50.8515C100.37 49.0114 100.066 47.1713 99.497 45.4261C99.3073 44.9139 98.4916 44.9329 98.4916 45.5209C98.871 48.2905 99.0418 51.0791 99.0038 53.8866C98.9469 56.8839 97.3535 59.6535 94.7736 61.228C90.3536 63.732 84.9661 63.8837 80.3944 61.6263C79.6546 61.2469 79.2752 62.2713 79.7874 62.5369C81.1911 63.4285 82.7656 64.0355 84.416 64.339C79.37 65.3065 74.2671 66.0084 69.1453 66.4447C70.4352 65.9704 71.6493 65.3254 72.7685 64.5287C74.3999 63.5043 75.6899 62.0437 76.4866 60.2985C77.7197 57.8513 77.5679 54.5316 77.5869 51.9517C77.7196 38.8246 76.4676 35.0875 76.9798 29.131C77.0178 28.0687 77.3213 27.0253 77.8904 26.1148C79.5977 24.104 83.1261 25.4319 84.7195 23.6108C85.8388 22.188 85.5921 20.1203 84.1694 19.0011C84.1314 18.9632 84.0745 18.9252 84.0176 18.8873C84.2073 17.2559 84.2263 15.6055 84.1125 13.9551C83.9987 12.153 83.9607 10.3319 83.7141 8.62459C83.6383 8.01756 82.6139 7.92271 82.7087 8.62459C82.8036 10.5405 82.9174 12.4375 82.9174 14.3535C83.0692 16.2884 82.8794 18.2233 82.3104 20.0824C81.931 21.1447 81.267 22.0742 80.3944 22.7951C79.3511 23.5159 78.137 23.8953 76.885 23.8953C75.8796 23.9902 74.8742 23.9902 73.7739 23.9902C72.8254 24.0661 71.858 23.8194 71.0612 23.2883C69.9231 22.1311 69.3919 20.4807 69.6575 18.8683C69.7523 18.4699 69.1643 18.1664 68.8607 18.4699C66.2429 17.4645 67.8553 14.8467 70.4732 15.9659C71.0802 16.2694 70.6629 14.657 70.568 14.05C70.4542 13.2532 70.0748 10.0284 70.568 9.32648C71.0612 8.71944 72.2753 7.73301 75.0828 7.31568C76.9988 7.03113 81.5326 7.73301 83.5244 6.51894C85.8767 5.07723 85.668 1.75751 81.8171 0.391681C78.2318 -0.879298 76.3349 1.15047 74.0774 3.50273C73.072 4.48917 71.9149 5.34281 70.6629 6.00675C69.335 6.70864 68.2347 7.75198 67.438 9.02296C66.6223 11.1286 67.0396 12.3427 67.3431 14.9605C66.9258 15.1123 66.5654 15.3968 66.3377 15.7573C65.9014 16.5919 65.9773 17.6163 66.5464 18.3751C66.5464 18.3751 65.7497 19.4753 65.6359 19.5892C64.4408 21.8845 65.3134 24.711 67.6087 25.9061C67.6846 25.9441 67.7795 25.982 67.8553 26.0199C68.3486 26.2286 68.7659 25.5267 68.3485 25.1094C67.3431 24.4265 66.6223 23.3831 66.3377 22.188C66.2239 21.0688 66.5654 19.9496 67.2483 19.077C67.5139 19.3426 67.8174 19.5323 68.1589 19.684C67.7984 20.8222 67.9122 22.0552 68.4624 23.0986C69.2401 24.5213 70.7577 24.9197 71.9718 25.7164C74.1723 27.1392 74.6845 28.7326 75.0828 31.3505C75.8416 36.2637 75.8796 44.7621 75.8796 49.1442C75.8796 53.8866 76.24 59.331 73.072 62.3092C70.0558 65.1737 65.9394 66.5205 61.8229 66.0273C57.5926 65.3444 53.7797 63.087 51.1619 59.6914C48.7906 56.4855 47.8042 52.4639 48.4492 48.5371C48.563 48.0439 48.6389 47.5317 48.6578 47.0385C48.7527 46.5453 47.8611 46.3366 47.6524 46.735C46.3815 49.2959 46.2866 54.2281 49.0562 59.1033C51.3136 62.7835 54.8041 65.5721 58.9016 66.9379C55.6388 66.9379 52.3759 66.6533 49.1511 66.1412V68.4555C27.2409 68.4555 3.60446 70.2386 0.493406 73.4825C0.170918 73.7481 0.000206019 74.1654 0.0950552 74.5827C1.10046 104.745 6.35511 114.249 15.7831 121.628C23.3142 127.547 37.7881 134.489 37.7881 140.825C37.7881 146.82 24.7938 153.289 15.7831 160.023C6.31717 167.099 0.512386 176.906 0.000200233 207.068C-0.0187696 208.282 1.30912 209.098 4.42018 209.876C22.0432 214.258 77.0367 214.277 94.6787 209.876C97.8087 209.098 99.1366 208.263 99.1176 207.049V207.087ZM49.8719 141.546C48.3353 137.24 45.7744 133.389 42.4357 130.297C33.0457 121.211 15.5175 115.652 13.2791 104.271C13.8672 104.498 14.4742 104.707 15.0812 104.878C24.2816 107.401 60.1156 108.539 78.7061 105.883C79.0096 108.691 79.408 111.517 79.7115 114.325C72.3322 120.452 64.4407 123.468 57.4029 130.202C54.0073 133.313 51.4085 137.221 49.8719 141.565V141.546ZM105.567 78.6233C106.174 79.6856 107.104 82.5311 106.876 83.4417C106.8 83.7072 106.535 83.859 106.269 83.7831C106.136 83.7452 106.042 83.6693 105.985 83.5555C105.624 82.0758 105.15 80.6341 104.581 79.2303C103.974 77.8266 103.12 76.5366 102.077 75.4174C101.906 75.2467 101.906 74.9811 102.077 74.8104C102.248 74.6397 102.513 74.6397 102.684 74.8104C103.917 75.8537 104.922 77.1626 105.605 78.6233H105.567ZM82.6518 89.7776C82.3673 89.0757 82.2534 88.279 81.9499 87.5581C80.2047 81.6775 76.4297 76.6315 71.2889 73.2928C70.7957 72.9893 71.2889 72.2874 71.6872 72.5909C75.4812 74.7535 78.6112 77.9214 80.7359 81.7344C81.4567 82.9105 82.0637 84.1625 82.538 85.4525C83.1071 86.7614 83.4865 88.1462 83.6382 89.5689C83.5434 89.9673 82.8415 90.2708 82.6328 89.7776H82.6518ZM79.2372 75.702C82.3862 75.7778 85.5352 76.2141 88.5894 77.0109C87.0907 77.2195 81.6464 77.8076 80.8497 77.9214C80.3944 77.1247 79.8633 76.3849 79.2372 75.702ZM49.6822 70.7698C50.2893 73.4825 50.6686 76.4607 52.9071 78.3008C53.4193 78.6802 54.0073 78.9458 54.6144 79.0976C41.9615 79.2683 29.3086 78.7561 16.7126 77.5989C3.94592 76.2521 2.02998 74.7914 1.84028 74.4879C2.04895 74.1844 3.85108 72.6478 16.2194 71.3768C25.268 70.4473 37.1242 69.9731 49.5874 69.8782C49.5874 70.1817 49.6063 70.4853 49.7012 70.7888L49.6822 70.7698ZM78.2318 102.734C78.3267 103.341 78.3267 103.834 78.4405 104.441C77.53 104.536 76.5245 104.631 75.4243 104.745C52.1293 106.983 18.2302 105.542 13.2032 102.525C18.7993 99.1677 57.8013 98.0864 78.0421 100.609C78.0421 101.311 78.137 102.013 78.2508 102.715L78.2318 102.734ZM83.6572 20.4049C83.9607 20.6894 84.1504 21.0878 84.1504 21.5051C84.1884 22.0552 84.0177 22.6054 83.6572 23.0037C83.2968 23.3073 82.8225 23.497 82.3483 23.497C82.0448 23.5918 81.8551 23.5918 81.5516 23.7056C82.538 22.814 83.2778 21.6758 83.6572 20.3859V20.4049ZM74.8173 125.858C67.3052 130.809 60.2484 135.514 60.2484 140.731C60.2484 147.977 74.2292 154.446 82.7656 161.142C90.3725 167.118 96.7464 174.516 97.8467 206.973C97.7518 207.182 96.4429 208.794 83.4675 210.084C62.5248 212.19 33.6527 212 16.1246 210.084C3.14919 208.662 1.85924 207.163 1.74542 206.973C2.84567 174.516 9.14366 167.004 16.8264 161.142C26.3872 153.858 39.3437 147.844 39.3437 140.731C39.3437 133.617 24.9835 126.693 16.8264 120.319C9.4282 114.533 3.05435 107.154 1.84028 76.29C2.82671 76.7643 3.87005 77.1057 4.95133 77.2954C19.1787 80.5772 46.4953 80.71 61.2349 80.3116C63.8148 80.7669 66.2808 81.6585 68.5762 82.9295C73.11 85.7939 76.6763 90.8589 77.6248 98.921C77.2264 98.8262 76.7142 98.8262 76.3159 98.7124C60.8365 96.9672 27.2219 96.9102 14.8915 100.021C12.3875 100.647 11.3821 101.33 11.3821 102.336C11.7805 109.468 17.718 114.59 22.8399 118.213C32.0403 124.758 46.7419 130.809 49.0752 144.544H50.5738C51.5792 138.606 55.2973 133.996 58.3135 131.075C63.7009 125.858 69.5626 123.43 79.9202 115.899C80.1288 117.606 80.622 121.533 80.622 121.742C80.5082 121.931 75.9934 125.061 74.7793 125.858H74.8173ZM94.6218 131.284C95.9876 132.042 97.1258 133.162 97.9415 134.508C98.6244 135.874 98.5675 137.62 97.1448 137.828C95.6462 138.227 94.0337 137.43 92.7248 136.614C90.8278 135.305 89.0446 133.465 86.5975 132.896C83.6193 132.194 81.5326 133.503 79.6546 132.403C78.2508 131.568 78.5543 129.595 78.9527 128.286C79.37 126.94 80.1288 125.725 81.1721 124.777C81.5705 124.872 88.0013 124.379 88.5135 124.284C89.7465 127.224 91.8901 129.69 94.6408 131.322L94.6218 131.284ZM90.107 112.693C89.4999 101.425 88.229 88.7153 81.9689 79.3252C84.8144 79.0027 89.4999 78.4716 91.7194 78.0163C92.2126 78.2249 92.6299 78.5095 93.1232 78.7182C94.9253 79.8184 96.4429 81.336 97.5431 83.1381C96.2342 98.7124 93.5215 107.268 90.107 112.693ZM125.486 120.831C125.182 121.438 124.385 121.533 123.873 121.628C121.104 121.552 118.334 121.23 115.621 120.623C113.895 119.959 112.036 119.712 110.196 119.921C108.584 120.205 107.18 121.135 105.567 121.324C103.765 121.438 102.229 120.072 102.115 118.27C102.077 117.701 102.191 117.113 102.456 116.601C102.874 115.671 103.424 114.78 104.069 113.983C106.554 113.736 108.982 113.148 111.315 112.276C112.017 114.894 115.451 115.766 117.746 116.487C119.567 117.075 124.689 118.707 125.182 119.295C125.6 119.693 125.713 120.3 125.467 120.812L125.486 120.831Z" fill="#191919"/>
<path d="M59.109 66.8607C57.1551 66.1778 55.334 65.1914 53.6836 63.9393C50.3639 61.5112 48.1064 57.9259 47.3477 53.9043V65.6656C47.9547 65.7605 48.6566 65.9691 49.3585 66.064C52.5833 66.5762 55.8461 66.8417 59.109 66.8607Z" fill="#6F93FC"/>
<path d="M73.6797 14.3921C73.6797 14.8853 73.9832 15.3975 74.3816 15.3975C74.78 15.3975 75.0835 14.9992 75.0835 14.3921C75.0835 13.8989 74.78 13.3867 74.3816 13.3867C73.9832 13.3867 73.6797 13.7851 73.6797 14.3921Z" fill="#191919"/>
<path d="M80.6218 12.4922C80.2234 12.4922 79.9199 12.8906 79.9199 13.4976C79.9199 13.9908 80.2234 14.503 80.6218 14.503C81.0202 14.503 81.3237 14.1046 81.3237 13.4976C81.3237 12.9854 81.0202 12.4922 80.6218 12.4922Z" fill="#191919"/>
<path d="M66.0341 28.07C66.5463 28.5253 67.1154 28.8857 67.7414 29.1702C60.7415 54.2294 60.9122 53.5655 60.8174 54.4001C60.7415 54.7416 60.9312 55.0641 61.2727 55.1589C61.6141 55.2348 61.9366 55.0451 62.0315 54.7037C62.5247 53.2999 68.9365 29.2841 68.9744 29.1702C69.2021 28.9047 69.1641 28.5063 68.8796 28.2787C68.1587 27.9751 67.4758 27.5768 66.8688 27.0646C65.2374 25.6988 64.5165 25.3763 64.2509 23.2517C64.2509 22.417 64.175 21.5633 64.0423 20.7476C63.9853 20.5579 63.7767 20.4441 63.587 20.501C63.4732 20.539 63.3783 20.6338 63.3404 20.7476C63.0369 21.8289 63.0369 22.9861 63.3404 24.0674C63.7577 25.6798 64.7062 27.1025 66.0531 28.089L66.0341 28.07Z" fill="#191919"/>
<path d="M85.4421 28.9777C84.3988 29.5847 83.3365 30.1159 82.2173 30.5901C81.9137 30.5901 81.5154 30.7988 81.724 31.1971C82.7674 34.6307 87.7944 51.4759 89.9759 54.6249C90.3933 55.213 91.3797 54.8336 91.0762 54.1317C90.1087 50.774 92.2333 58.9121 83.033 31.311C84.911 30.7988 86.6752 29.8692 88.1548 28.5983C88.7429 28.0102 89.293 27.3842 89.7673 26.6823C90.583 25.5062 91.3797 22.6607 91.0762 22.0537C91.0003 21.7691 90.6968 21.5984 90.3933 21.6743C90.2605 21.7122 90.1277 21.8071 90.0708 21.9399C89.3499 23.0022 90.4691 25.9235 85.4421 28.9777Z" fill="#191919"/>
<path d="M85.9314 26.3604C87.7335 25.4878 88.8338 23.6287 88.7389 21.6369C88.72 20.4987 88.2457 19.4174 87.43 18.6207C87.0317 18.3172 86.4246 18.7155 86.7281 19.1139C86.9178 19.3985 87.0886 19.702 87.2213 20.0245C87.468 20.4987 87.6008 21.0109 87.6197 21.5231C87.7525 22.6044 87.3921 23.6856 86.6143 24.4444C86.216 24.7859 85.8555 25.1653 85.5141 25.5447C85.2106 26.0379 85.5141 26.4552 85.9124 26.3414L85.9314 26.3604Z" fill="#191919"/>
</svg>
