<svg width="409" height="370" viewBox="0 0 409 370" fill="none" xmlns="http://www.w3.org/2000/svg">
<path d="M216.751 334.953C215.808 336.35 214.811 337.597 213.814 338.645C191.252 339.862 162.859 340.603 140.36 338.594C139.417 337.447 138.629 336.2 138 334.751C153.415 336.299 178.109 337.146 216.748 334.95L216.751 334.953Z" fill="#6E93FC"/>
<path d="M242.06 333.194C234.427 333.807 227.236 334.3 220.47 334.703C219.685 335.95 218.793 337.197 217.796 338.395C225.332 337.958 233.401 337.414 242.019 336.727C242.019 335.519 242.036 334.344 242.06 333.194Z" fill="#6E93FC"/>
<path d="M244.329 346.679C244.015 346.878 243.694 347.223 243.227 347.676C242.218 348.662 241.234 349.622 240.186 350.52C230.486 351.168 221.574 351.616 213.393 351.966C212.868 350.869 212.45 349.719 212.188 348.472C221.834 348.123 232.477 347.523 244.329 346.677V346.679Z" fill="#6E93FC"/>
<path d="M222.517 316.139C222.571 317.287 222.517 318.485 222.517 319.681C196.765 321.324 160.936 322.631 135.274 319.63C135.274 318.483 135.221 317.236 135.221 315.989C170.449 320.096 222.763 316.139 222.517 316.139Z" fill="#6E93FC"/>
<path d="M243.12 318.176C243.269 316.97 243.427 315.797 243.594 314.652C237.283 315.165 231.276 315.612 225.559 315.991C225.663 317.19 225.61 318.337 225.559 319.485C231.135 319.115 236.984 318.678 243.12 318.176Z" fill="#6E93FC"/>
<path d="M217.118 300.669C192.131 302.192 160.732 303.066 135.85 300.42C135.904 299.221 136.008 298.025 136.059 296.778C151.003 298.474 175.435 299.473 214.39 297.326C215.438 298.423 216.332 299.573 217.118 300.669Z" fill="#6E93FC"/>
<path d="M247.435 295C236.658 295.919 226.737 296.636 217.587 297.178C218.53 298.175 219.369 299.274 220.208 300.47C228.393 299.968 237.205 299.348 246.667 298.561C246.925 297.372 247.182 296.187 247.433 295H247.435Z" fill="#6E93FC"/>
<path d="M184.819 282.656C169.751 283.029 151.37 282.765 136.269 281.159C136.215 279.861 136.111 278.614 135.902 277.467C146.44 278.665 161.748 279.512 183.56 279.114C183.873 280.361 184.294 281.56 184.819 282.656Z" fill="#6E93FC"/>
<path d="M245.476 279.29C228.174 280.736 212.817 281.758 199.607 282.207C200.446 280.81 200.971 279.613 201.389 278.614C213.5 278.165 227.394 277.286 242.86 276.036C243.803 277.085 244.637 278.142 245.476 279.29Z" fill="#6E93FC"/>
<path d="M189.591 255.909C189.12 256.707 188.699 257.506 188.227 258.355C182.933 258.505 177.951 258.554 173.284 258.554C142.478 258.554 124.262 255.469 124.262 255.111C122.898 253.713 121.43 252.216 119.806 250.569C118.991 250.569 137.885 255.645 183.509 254.861C186.708 256.059 189.275 255.159 189.591 255.909Z" fill="#6E93FC"/>
<path d="M142.456 232.854C131.365 232.819 122.256 232.46 114.815 231.938C115.824 232.78 116.31 234.2 116.531 235.688C129.002 236.454 142.125 236.577 146.073 236.396C144.709 235.249 143.503 234.052 142.456 232.854Z" fill="#6E93FC"/>
<path d="M133.123 216.038C120.014 215.938 109.792 215.39 101.823 214.64C101.718 213.543 101.665 212.294 101.665 210.998C109.32 211.748 119.229 212.296 131.917 212.396C132.337 213.643 132.704 214.842 133.123 216.038Z" fill="#6E93FC"/>
<path d="M126.639 194.475C117.36 194.325 108.637 194.131 102.19 193.582C102.19 192.284 102.295 191.088 102.399 190.04C108.324 190.54 116.468 190.734 124.908 190.882C125.538 192.081 126.114 193.277 126.639 194.475Z" fill="#6E93FC"/>
<path d="M105.965 166.486C105.965 168.182 104.653 168.083 104.183 166.935C103.551 165.389 101.507 159.001 100.984 157.404C100.773 156.757 100.306 155.963 101.351 155.609C103.447 154.896 105.965 164.517 105.965 166.486Z" fill="#191919"/>
<path d="M108.168 154.46C110.108 154.96 112.308 166.7 109.374 166.437C107.801 166.295 108.871 165.229 107.538 157.205C107.39 156.305 107.118 155.208 108.168 154.46Z" fill="#191919"/>
<path d="M113.096 160.497C112.887 157.054 112.838 156.256 112.938 155.605C113.1 154.557 114.039 154.608 114.457 155.205C116.501 158.548 115.823 167.024 113.356 166.233C112.412 165.929 112.726 165.034 113.147 160.494H113.093L113.096 160.497Z" fill="#191919"/>
<path d="M173.862 231.207C179.945 231.457 179.835 226.572 181.359 227.415C183.453 228.572 177.139 235.582 172.185 232.306C171.288 231.714 171.188 230.709 173.862 231.258V231.207Z" fill="#191919"/>
<path d="M170.925 223.673C171.134 221.378 171.241 219.422 172.236 219.531C173.074 219.624 172.972 220.679 172.916 221.528C172.717 224.573 172.022 225.077 174.698 225.869C178.785 227.076 170.716 230.26 170.925 223.673Z" fill="#191919"/>
<path d="M180.154 218.035C182.198 218.435 181.365 221.707 179.787 221.378C178.01 221.006 178.528 217.935 180.154 218.035Z" fill="#191919"/>
<path d="M166.311 218.432C167.937 218.631 168.146 221.725 166.311 221.776C164.529 221.824 164.58 218.631 166.311 218.432Z" fill="#191919"/>
<path d="M120.134 184.341C136.789 207.532 125.635 232.886 166.783 247.626C177.373 251.418 177.147 249.636 178.999 251.668C184.056 257.214 189.18 254.81 189.642 255.909C185.388 263.109 182.699 269.255 183.404 277.416C184.112 285.618 191.789 292.432 197.247 285.65C204.002 277.254 200.959 272.853 205.636 276.617C209.669 279.864 213.09 275.472 214.235 271.229C215.555 266.34 214.76 260.15 215.754 258.454C230.37 262.492 242.075 273.329 249.305 285.185C249.599 283.353 249.864 281.465 250.088 279.503C249.144 278.2 248.15 276.937 247.107 275.722C239.637 267.015 232.881 260.976 221.995 256.809H221.941C218.691 255.562 216.542 254.963 215.859 253.665C214.937 252.496 215.915 245.222 207.576 233.604C205.794 231.121 203.852 228.752 201.861 226.419C196.802 220.491 206.268 218.071 202.019 206.757C192.688 181.932 158.479 190.144 160.336 211.997C160.336 212.768 160.411 212.89 160.178 214.492C158.433 226.521 163.523 242.297 176.379 242.936C178.318 243.033 178.435 243.134 178.318 244.932C178.083 248.526 179.67 249.551 158.763 241.438C136.094 232.643 135.165 208.193 127.252 191.088C123.43 182.825 120.375 180.289 117.29 177.462C119.614 170.907 121.663 167.214 121.685 161.584C121.702 157.223 119.949 156.397 118.653 164.641C118.019 168.683 115.719 172.177 114.615 176.117C114.406 176.865 113.777 176.719 113.201 176.666C104.702 175.872 105.421 177.205 103.972 173.072C102.587 169.12 100.513 159.449 98.1524 160.397C97.4182 160.647 97.5227 161.247 97.7853 161.746C99.3047 165.141 99.9173 168.722 100.985 172.226C102.285 176.506 103.1 177.23 101.614 178.912C100.173 180.546 99.2585 191.148 99.0981 193.283C98.5973 199.892 98.5705 209.566 98.782 214.242C99.1394 222.079 99.8128 224.608 101.225 228.314C102.122 228.726 102.888 229.49 103.292 230.561C103.442 230.961 103.605 231.51 103.763 232.107C104.089 230.933 104.651 230.096 105.322 229.559C104.471 227.248 103.739 224.739 103.18 222.018C100.985 211.349 102.027 189.5 103.311 183.135C103.997 179.732 104.823 179.72 106.017 179.611C113.694 178.915 117.029 180.021 120.134 184.343V184.341ZM162.065 217.935C161.868 212.261 168.83 215.746 169.141 213.494C169.307 212.298 165.891 211.1 162.065 212.696C162.118 212.446 162.223 212.196 162.378 211.949C165.514 202.629 181.805 203.635 185.709 210.75C186.837 212.805 186.924 215.13 187.073 217.587C187.204 219.786 189.015 221.583 190.953 220.133C194.208 217.694 196.909 218.927 196.038 221.38C194.75 225.012 191.057 223.532 191.057 231.26C191.057 232.609 190.933 233.754 190.848 234.753C190.233 241.98 189.917 241.679 190.953 246.98C191.176 248.125 191.22 249.275 191.215 250.423C191.188 256.312 178.632 252.019 180.047 247.727C181.199 244.234 179.16 242.998 181.357 242.04C189.064 238.675 189.176 231.454 186.652 233.856C185.787 234.679 185.573 235.052 184.45 236.35C176.551 245.485 162.821 239.766 162.062 217.937L162.065 217.935Z" fill="#191919"/>
<path d="M245.133 345.797C239.668 352.033 232.321 357.079 222.831 360.101C221.416 360.552 220.317 360.4 219.318 359.402C215.55 355.643 211.978 351.711 211.978 346.378C211.978 345.131 212.127 344.173 213.131 343.285C226.715 331.285 229.463 313.68 220.208 300.47C214.475 292.289 205.485 287.879 205.213 290.738C205.089 292.034 207.756 290.812 212.657 295.53C218.535 301.185 222.247 308.092 222.515 316.139C222.553 317.287 222.515 318.485 222.515 319.682C221.28 332.188 211.842 342.442 207.466 343.134C187.632 346.281 171.079 346.785 159.755 346.029C150.159 345.388 144.072 343.039 140.409 338.592C129.999 325.966 138.858 293.365 135.952 277.464C135.272 272.031 133.835 267.973 131.63 264.294C129.435 260.634 125.314 256.045 121.85 252.533C120.579 251.244 118.429 249.379 116.003 246.767C115.738 248.452 115.417 249.962 115.055 251.351C115.75 252.063 116.465 252.76 117.207 253.433C126.42 261.821 131.037 268.308 132.179 280.609C133.434 294.1 125.528 336.767 139.256 343.035C142.225 344.388 141.945 346.033 141.51 349.071C141.206 350.224 138.59 369.22 140.409 374.271C140.785 375.317 192.943 376.793 209.248 376.217C210.717 376.166 212.132 376.231 213.6 376.367C216.009 376.589 220.677 376.467 221.097 376.518C225.028 376.767 220.516 364.474 223.771 363.644C234.222 360.978 242.114 355.619 248.133 348.146C246.961 347.449 245.962 346.67 245.133 345.797ZM202.906 359.851C202.225 359.252 201.527 358.694 202.223 357.656C203.813 355.289 205.816 353.463 208.41 352.116C208.782 351.924 209.144 351.716 209.564 351.568C209.615 351.718 209.722 351.917 209.827 352.068C214.546 362.047 219.422 361.55 219.527 365.691C213.6 363.877 207.999 364.342 202.906 359.854V359.851Z" fill="#191919"/>
<path d="M182.145 213.842C176.906 211.984 176.072 214.485 175.119 213.294C173.716 211.537 180.567 209.244 183.142 212.296C183.91 213.208 183.404 214.291 182.145 213.844V213.842Z" fill="#191919"/>
<path d="M26.6378 307.157C28.1723 307.157 29.4165 305.972 29.4165 304.512C29.4165 303.052 28.1723 301.868 26.6378 301.868C25.1031 301.868 23.8591 303.052 23.8591 304.512C23.8591 305.972 25.1031 307.157 26.6378 307.157Z" fill="#6E93FC"/>
<path d="M4.93115 325.871C6.46586 325.871 7.70983 324.687 7.70983 323.227C7.70983 321.767 6.46586 320.582 4.93115 320.582C3.39643 320.582 2.15247 321.767 2.15247 323.227C2.15247 324.687 3.39643 325.871 4.93115 325.871Z" fill="#6E93FC"/>
<path d="M34.816 336.001C36.3505 336.001 37.5947 334.817 37.5947 333.357C37.5947 331.897 36.3505 330.712 34.816 330.712C33.2813 330.712 32.0374 331.897 32.0374 333.357C32.0374 334.817 33.2813 336.001 34.816 336.001Z" fill="#6E93FC"/>
<path d="M16.6754 349.423C18.2101 349.423 19.4541 348.238 19.4541 346.778C19.4541 345.318 18.2101 344.134 16.6754 344.134C15.1409 344.134 13.8967 345.318 13.8967 346.778C13.8967 348.238 15.1409 349.423 16.6754 349.423Z" fill="#6E93FC"/>
<path d="M4.93115 294.283C6.46586 294.283 7.70983 293.099 7.70983 291.639C7.70983 290.179 6.46586 288.994 4.93115 288.994C3.39643 288.994 2.15247 290.179 2.15247 291.639C2.15247 293.099 3.39643 294.283 4.93115 294.283Z" fill="#6E93FC"/>
<path d="M23.8592 263.244C25.394 263.244 26.6379 262.059 26.6379 260.599C26.6379 259.139 25.394 257.954 23.8592 257.954C22.3248 257.954 21.0806 259.139 21.0806 260.599C21.0806 262.059 22.3248 263.244 23.8592 263.244Z" fill="#6E93FC"/>
<path d="M67.5329 325.871C69.0674 325.871 70.3116 324.687 70.3116 323.227C70.3116 321.767 69.0674 320.582 67.5329 320.582C65.9982 320.582 64.7543 321.767 64.7543 323.227C64.7543 324.687 65.9982 325.871 67.5329 325.871Z" fill="#6E93FC"/>
<path d="M95.5311 328.516C97.0656 328.516 98.3098 327.331 98.3098 325.871C98.3098 324.411 97.0656 323.227 95.5311 323.227C93.9964 323.227 92.7524 324.411 92.7524 325.871C92.7524 327.331 93.9964 328.516 95.5311 328.516Z" fill="#6E93FC"/>
<path d="M79.068 344.085C80.6025 344.085 81.8467 342.901 81.8467 341.441C81.8467 339.981 80.6025 338.796 79.068 338.796C77.5333 338.796 76.2893 339.981 76.2893 341.441C76.2893 342.901 77.5333 344.085 79.068 344.085Z" fill="#6E93FC"/>
<path d="M81.8468 307.157C83.3815 307.157 84.6255 305.972 84.6255 304.512C84.6255 303.052 83.3815 301.868 81.8468 301.868C80.3123 301.868 79.0681 303.052 79.0681 304.512C79.0681 305.972 80.3123 307.157 81.8468 307.157Z" fill="#6E93FC"/>
<path d="M106.488 296.928C108.023 296.928 109.267 295.743 109.267 294.283C109.267 292.823 108.023 291.639 106.488 291.639C104.953 291.639 103.709 292.823 103.709 294.283C103.709 295.743 104.953 296.928 106.488 296.928Z" fill="#6E93FC"/>
<path d="M93.3823 278.964C94.9171 278.964 96.161 277.779 96.161 276.319C96.161 274.859 94.9171 273.675 93.3823 273.675C91.8479 273.675 90.6036 274.859 90.6036 276.319C90.6036 277.779 91.8479 278.964 93.3823 278.964Z" fill="#6E93FC"/>
<path d="M37.6483 281.608C39.183 281.608 40.427 280.424 40.427 278.964C40.427 277.504 39.183 276.319 37.6483 276.319C36.1138 276.319 34.8696 277.504 34.8696 278.964C34.8696 280.424 36.1138 281.608 37.6483 281.608Z" fill="#6E93FC"/>
<path d="M61.9757 286.949C63.5102 286.949 64.7544 285.764 64.7544 284.304C64.7544 282.844 63.5102 281.659 61.9757 281.659C60.441 281.659 59.197 282.844 59.197 284.304C59.197 285.764 60.441 286.949 61.9757 286.949Z" fill="#6E93FC"/>
<path d="M113.567 264.593C112.291 260.507 109.32 261.897 108.902 260.8C111.156 255.011 113.599 250.425 114.041 239.891C114.107 238.345 114.25 233.708 112.626 233.652C109.952 233.562 111.535 244.567 107.12 256.858C105.849 260.398 106.806 261.337 104.708 261.099C94.9113 259.993 94.1723 262.545 92.806 259.602C88.5177 250.365 88.9674 248.417 87.6668 241.737C86.7527 237.04 80.7991 243.084 90.7591 261.448C89.5533 262.096 88.1409 262.249 87.2997 263.545C77.2231 279.04 78.7157 281.051 76.7611 278.415C68.2233 266.897 56.987 258.725 43.2055 253.665C40.6358 252.721 40.6529 252.769 41.212 250.023C42.6147 243.144 40.3222 234.601 35.341 228.266C27.5325 218.333 34.6944 209.818 24.5399 198.476C17.135 190.204 8.96421 190.028 -1.04682 192.687C-5.71442 193.927 -0.366127 189.343 1.26024 186.599C-2.72424 186.4 -4.08805 189.295 -6.18361 191.888C-6.18361 188.295 -4.29712 185.801 -3.03784 183.006C-7.44289 183.855 -10.6543 188.298 -9.85449 192.187C-9.6989 192.937 -9.22485 193.684 -10.6421 194.084C-21.9659 197.277 -31.007 209.707 -27.6813 223.627C-26.6919 227.771 -27.0104 231.704 -30.5135 237.449C-41.4532 255.395 -30.0321 264.255 -32.9251 267.291C-71.3794 307.627 -57.255 383.843 -53.1101 371.835C-52.7478 370.784 -66.279 304.159 -30.5645 268.788C-22.7026 261.002 -4.55968 251.571 -3.93004 254.616C-3.87169 264.417 11.6943 265.558 13.4762 256.661C13.8968 255.564 13.4398 254.664 13.4227 253.718C13.3693 250.772 13.1602 251.018 26.3729 251.971C37.3831 252.765 63.1181 263.57 75.2904 281.412C76.9216 283.804 66.1107 307.014 67.4259 311.102C67.8441 312.4 69.0912 312.245 69.5239 311.301C69.9834 310.297 82.4765 265.409 92.383 264.493C97.6803 264.003 102.973 264.442 108.27 264.493C109.58 264.505 110.378 265.09 110.681 266.34C112.092 272.117 115.028 282.009 114.561 292.988C111.428 366.791 60.9837 346.082 60.4537 337.998C59.6223 325.323 58.47 320.929 54.6338 308.307C46.2127 280.606 47.2313 282.164 46.4558 280.562C45.9258 279.468 44.5207 279.565 44.3578 281.011C44.2557 281.909 45.1941 286.551 45.4056 287.448C51.4929 313.069 56.372 315.797 57.5705 346.582C57.6167 347.78 57.1548 348.144 55.9976 348.377C39.7874 351.672 -6.40727 353.255 -18.9247 352.07C-20.8136 351.892 -20.8452 351.971 -20.8647 350.275C-21.3363 309.448 -15.6209 297.729 -15.5164 296.282C-15.4094 294.785 -17.2886 294.492 -18.3996 296.581C-22.8144 304.885 -24.5647 331.211 -24.4286 344.386C-24.0882 377.17 -19.8145 374.526 -18.0836 374.775C-6.19091 375.483 40.6699 374.095 41.8976 373.878C47.5595 374.227 56.0535 373.436 58.4141 373.528C61.1393 373.635 60.9302 362.001 60.9302 343.937C64.6011 346.133 69.8959 349.986 81.5868 349.925C98.2589 349.84 106.6 339.199 112.048 324.076C119.866 302.37 119.465 283.48 113.567 264.593ZM5.03808 259.602C-4.24121 259.731 -0.414749 249.521 -0.990906 243.734C3.04706 244.882 6.61096 244.683 10.2818 243.334C10.9115 252.117 13.4787 259.484 5.03808 259.602ZM23.4411 219.98C20.9201 224.171 17.7695 222.276 17.8302 226.917C18.015 240.89 2.59488 247.709 -6.96884 236.697C-11.5708 231.399 -9.8399 229.668 -13.8365 228.613C-15.6136 228.143 -18.4531 227.465 -17.77 225.119C-16.3113 220.126 -11.7823 226.422 -7.23139 219.43C-1.03223 209.906 -3.29554 208.284 -0.626251 208.95C7.35729 210.943 13.96 221.933 18.1438 217.882C20.5603 215.542 25.2717 216.933 23.4387 219.978L23.4411 219.98Z" fill="#191919"/>
<path d="M94.5346 235.249C94.5346 238.742 95.4778 243.382 95.5313 246.876C95.5532 248.322 93.8928 249.076 93.1197 247.276C91.9455 244.539 89.3516 229.124 93.4333 229.86C94.7461 230.096 94.4811 231.607 94.4811 235.249H94.5346Z" fill="#191919"/>
<path d="M98.6768 242.385C99.253 238.044 97.8673 234.895 98.5188 231.556C98.7716 230.258 100.306 230.057 100.826 231.406C102.25 235.096 103.079 247.885 99.7246 247.425C98.3073 247.23 98.6233 245.629 98.6233 242.334L98.6768 242.385Z" fill="#191919"/>
<path d="M108.953 236.099C108.115 251.319 103.909 248.672 104.077 246.876C104.174 245.828 104.573 246.918 105.859 235.198C106.007 233.85 106.223 231.129 107.64 231.307C109.002 231.478 108.846 234.949 108.951 236.096L108.953 236.099Z" fill="#191919"/>
<path d="M-3.40461 231.706C-3.92971 230.309 -2.56347 229.758 -1.72719 230.658C3.37071 236.137 6.54808 231.16 7.44757 233.053C8.59016 235.453 -1.25556 237.743 -3.45809 231.706H-3.40461Z" fill="#191919"/>
<path d="M7.02862 226.918C7.02862 228.264 5.98328 229.856 4.8261 229.364C3.41367 228.76 5.9298 227.665 4.14541 225.421C3.15112 224.171 1.78001 222.619 2.7816 221.827C4.18674 220.719 6.71502 225.171 7.02862 226.966V226.918Z" fill="#191919"/>
<path d="M9.4942 222.224C7.92131 222.074 7.34272 218.992 9.23164 219.131C10.7 219.24 11.3807 222.176 9.4942 222.224Z" fill="#191919"/>
<path d="M208.963 98.0835C213.944 98.9836 216.348 101.827 217.036 106.418C218.594 116.8 216.567 133.265 214.415 142.247C211.535 154.274 188.564 145.988 182.433 154.124C174.199 165.049 176.87 162.328 171.213 172.636C169.465 175.82 167 174.587 166.39 172.088C160.612 148.471 164.922 152.266 140.908 150.78C131.157 150.176 123.118 147.388 122.084 138.156C121.338 131.472 121.413 119.993 123.657 106.17C124.605 100.332 127.644 98.6388 131.259 97.7873C143.059 95.0062 189.089 94.4994 208.96 98.0858L208.963 98.0835ZM169.324 169.242C175.458 157.516 180.019 146.176 193.81 146.687C198.161 146.849 205.87 145.692 208.491 144.741C211.639 143.598 212.354 139.35 212.738 136.157C214.248 123.575 215.612 116.497 214.206 106.017C213.732 102.475 211.792 102.082 208.491 101.376C195.273 98.5555 146.514 98.0673 131.733 101.277C124.182 102.915 125.505 125.979 125.704 136.705C125.981 151.676 150.45 145.292 159.364 148.432C166.599 150.979 166.862 157.164 169.273 169.24H169.327L169.324 169.242Z" fill="#6E93FC"/>
<path d="M143.844 122.285C143.582 116.647 143.429 116.098 143.74 115.05C144.109 113.803 145.687 113.4 146.205 115.05C147.425 118.937 147.289 126.527 147.097 130.569C147.039 131.767 146.993 132.92 145.578 133.114C143.324 133.422 143.716 128.773 143.847 126.578C143.976 124.433 142.381 125.245 137.242 125.68C135.406 125.835 136.036 126.777 135.982 131.617C135.958 133.813 133.87 133.466 133.517 131.716C133.026 129.275 133.046 130.27 133.097 116.397C133.109 113.123 135.09 113.479 135.45 115.108C135.992 117.558 135.059 122.938 137.499 122.635C139.493 122.387 141.537 121.936 143.895 122.336L143.844 122.285Z" fill="#6E93FC"/>
<path d="M154.434 123.232C156.216 123.081 160.869 122.385 161.039 124.328C161.282 127.075 154.388 125.226 154.485 127.521C154.597 130.166 154.116 129.942 156.846 130.166C160.983 130.504 162.787 130.161 163.242 131.862C163.896 134.301 156.95 133.26 154.067 133.061C150.501 132.813 151.366 130.117 151.288 117.891C151.274 115.746 151.6 114.839 153.07 114.497C155.059 114.037 163.254 113.447 163.504 115.395C163.67 116.69 160.884 117.234 159.729 117.19C153.282 116.952 154.485 116.741 154.485 123.229H154.432L154.434 123.232Z" fill="#6E93FC"/>
<path d="M208.07 123.033C207.866 132.963 199.746 137.098 195.541 130.319C192.718 125.772 193.224 117.982 198.006 114.351C202.557 110.897 208.233 115.249 208.073 123.035L208.07 123.033ZM198.686 117.792C194.102 125.064 199.112 135.363 203.563 129.319C208.447 122.688 202.912 111.093 198.686 117.792Z" fill="#6E93FC"/>
<path d="M169.796 116.198C170.491 129.366 168.486 130.937 171.002 130.87C175.407 130.752 176.192 130.673 177.974 131.37C179.126 131.821 178.92 133.17 177.974 133.515C176.457 134.07 170.844 133.913 170.005 133.864C167.124 133.7 165.957 134.19 167.217 116.754C167.508 112.718 169.65 113.456 169.796 116.198Z" fill="#6E93FC"/>
<path d="M181.331 114.701C181.961 113.204 183.334 113.749 183.585 114.65C184.35 117.387 184.056 122.734 184.056 127.174C184.056 129.12 183.585 130.418 185.525 130.319C186.205 130.319 191.026 130.124 191.607 130.469C192.806 131.179 192.555 132.579 191.503 132.815C188.157 133.56 181.409 134.162 181.385 130.719C181.385 130.531 181.258 114.877 181.331 114.701Z" fill="#6E93FC"/>
<path d="M65.7282 107.01C76.663 108.574 76.4077 112.346 78.2748 124.47C79.4441 132.052 79.0624 139.639 78.7464 147.224C78.0681 163.492 57.6717 160.269 39.9494 162.194C33.4488 162.9 29.7803 164.945 14.2581 181.505C11.7857 184.143 10.7501 184.987 9.43493 184.399C7.50225 183.536 8.18537 181.507 8.96331 178.71C15.3886 155.576 13.3173 161.275 -0.420523 159.547C-7.23474 158.689 -12.284 157.703 -13.7913 151.863C-14.7442 148.172 -16.7401 132.402 -16.8325 127.411C-17.1947 107.901 -13.6867 108.745 1.46596 106.751C18.5878 104.5 56.2325 105.652 65.7282 107.01ZM31.3216 161.41C34.7275 159.327 38.3206 158.207 43.0976 158.052C64.5929 157.349 74.7303 157.552 75.0804 145.977C75.3186 138.043 75.4037 122.32 72.8268 114.738C72.1486 112.741 70.7799 111.709 68.6843 111.295C52.5641 108.111 12.7436 108.91 -4.97873 110.997C-14.7831 112.151 -15.8747 112.542 -11.8464 146.627C-11.2678 151.516 -10.3781 154.461 -5.86849 155.359C9.6756 158.453 16.1543 154.339 15.7119 163.173C15.4275 168.823 12.6609 177.421 12.9016 178.263C13.9299 177.65 24.9596 165.304 31.3265 161.412L31.3216 161.41Z" fill="#6E93FC"/>
<path d="M48.4966 139.988C42.0057 132.445 51.6375 120.832 58.7215 127.913C66.2651 135.453 55.7459 148.413 48.4966 139.988ZM58.4055 134C58.1405 127.903 52.1602 126.763 49.9114 130.557C47.546 134.546 50.225 139.829 54.2095 139.488C56.6211 139.283 58.5295 136.892 58.4031 134H58.4055Z" fill="#6E93FC"/>
<path d="M33.0817 127.563C38.7971 122.024 44.6657 141.568 41.5223 142.084C39.1618 142.471 39.8012 138.123 38.5856 137.593C37.7542 137.23 36.6457 137.577 35.2308 137.593C30.9838 137.644 32.2309 138.109 30.6702 141.436C30.3639 142.089 29.9943 142.815 29.0973 142.584C26.5933 141.936 31.2463 129.409 33.1352 127.563H33.0817ZM32.7147 134.898C34.6012 134.798 36.174 134.699 37.9049 134.599C37.1173 132.702 36.6457 130.957 35.1263 129.56C33.0477 132.278 32.7147 135.194 32.7147 134.898Z" fill="#6E93FC"/>
<path d="M9.22589 140.389C12.0581 139.889 13.7501 139.285 14.2071 140.338C15.0215 142.223 10.3272 143.642 8.28266 143.531C-3.46657 142.894 -3.61487 129.618 4.66526 126.314C9.28181 124.472 11.2704 127.311 7.07686 128.211C0.313693 129.659 -0.734089 140.736 9.22589 140.386V140.389Z" fill="#6E93FC"/>
<path d="M22.5967 136.946C22.5967 140.139 23.1218 142.559 21.0238 142.584C18.9793 142.61 19.3197 139.94 19.2929 136.946C19.2832 135.798 19.186 131.057 19.3975 129.56C19.6576 127.714 21.7604 127.913 21.9671 129.56C22.5578 134.299 22.4387 136.147 22.4387 136.946H22.5967Z" fill="#6E93FC"/>
<path d="M19.869 122.973C22.1225 122.973 21.8089 125.927 19.7644 125.768C17.98 125.627 18.0335 123.072 19.869 122.973Z" fill="#6E93FC"/>
<path d="M335.331 105.56C388.919 105.241 383.959 108.159 386.502 124.723C387.645 132.16 387.246 139.594 386.974 147.028C386.164 169.136 350.153 155.048 337.427 166.839C319.894 183.086 320.079 185.34 317.555 184.303C313.736 182.737 321.457 170.784 320.438 162.197C320.059 159.004 319.391 160.795 308.641 159.604C301.406 158.801 296.094 157.81 294.485 152.218C292.576 145.587 289.221 121.271 293.07 112.597C296.361 105.174 327.265 105.609 335.329 105.56H335.331ZM335.752 164.044C350.588 150.372 382.34 165.543 383.254 146.329C383.689 137.199 383.514 128.016 382.102 118.934C381.419 114.542 380.58 111.863 376.596 111.199C361.329 108.659 314.196 108.224 299.104 111.699C294.592 112.738 294.001 115.292 294.28 127.618C294.38 131.958 296.269 147.479 297.373 151.172C300.613 162.003 325.439 150.524 324.061 163.549C322.089 182.163 313.943 184.158 335.805 164.097L335.752 164.044Z" fill="#6E93FC"/>
<path d="M359.995 124.25C366.907 117.55 374.005 141.189 370.203 141.813C367.348 142.28 368.121 137.022 366.651 136.381C365.646 135.942 364.305 136.362 362.594 136.381C357.457 136.443 358.965 137.005 357.078 141.029C356.707 141.818 356.26 142.697 355.175 142.417C352.147 141.634 357.775 126.483 360.059 124.25H359.995ZM359.551 133.121C361.832 133.001 363.735 132.88 365.828 132.76C364.875 130.465 364.305 128.355 362.467 126.665C359.953 129.953 359.551 133.479 359.551 133.121Z" fill="#6E93FC"/>
<path d="M315.297 131.608C315.034 125.97 314.881 125.421 315.192 124.373C315.562 123.126 317.14 122.723 317.658 124.373C318.878 128.26 318.742 135.85 318.55 139.892C318.491 141.09 318.445 142.243 317.03 142.437C314.777 142.745 315.168 138.096 315.299 135.901C315.428 133.756 313.834 134.568 308.694 135.003C306.859 135.158 307.489 136.1 307.435 140.94C307.411 143.136 305.322 142.789 304.97 141.039C304.479 138.598 304.498 139.593 304.549 125.72C304.562 122.446 306.543 122.802 306.903 124.431C307.445 126.881 306.511 132.261 308.952 131.958C310.945 131.71 312.99 131.259 315.348 131.659L315.297 131.608Z" fill="#6E93FC"/>
<path d="M336.807 132.097C336.602 142.028 328.483 146.162 324.277 139.383C321.454 134.836 321.96 127.046 326.742 123.415C331.293 119.961 336.969 124.313 336.809 132.099L336.807 132.097ZM327.423 126.856C322.838 134.128 327.848 144.427 332.299 138.383C337.183 131.752 331.648 120.158 327.423 126.856Z" fill="#6E93FC"/>
<path d="M340.707 123.587C341.337 122.09 342.711 122.636 342.961 123.536C343.727 126.273 343.433 131.621 343.433 136.061C343.433 138.007 342.961 139.305 344.901 139.205C345.582 139.205 350.402 139.011 350.983 139.356C352.182 140.066 351.932 141.466 350.879 141.702C347.534 142.447 340.785 143.048 340.761 139.605C340.761 139.418 340.635 123.763 340.707 123.587Z" fill="#6E93FC"/>
<path d="M341.796 252.316L351.496 255.06L371.785 267.386L385.837 279.862L391.394 304.064L382.27 325.321L360.984 340.39L349.974 341.938L340.17 329.863L333.458 327.917L323.182 333.854L322.029 339.044C331.282 347.91 328.537 345.638 334.35 349.472L339.277 343.634L348.034 342.637L351.126 344.285L351.335 353.116L345.097 356.011L318.621 356.46L315.738 336.947C317.982 309.307 316.715 321.191 321.558 283.952L330.365 256.307L341.796 252.316Z" fill="#6E93FC"/>
<path d="M303.626 243.584C271.802 311.063 285.17 346.133 273.9 346.381C267.032 346.531 260.172 346.205 253.61 343.986C247.642 341.966 244.479 338.896 254.553 291.44C263.198 250.719 245.512 231.813 261.212 153.512C261.842 150.368 267.188 151.46 274.687 150.569C281.45 149.764 275.361 181.194 286.694 212.796C290.38 223.072 292.799 223.079 292.41 226.42C291.863 231.115 294.926 235.652 301.166 235.802C300.379 241.64 304.689 241.346 303.631 243.586L303.626 243.584Z" fill="#6E93FC"/>
<path d="M384.368 277.967C377.182 269.035 364.48 259.287 354.642 254.912C350.966 253.278 357.683 254.213 357.158 245.978C374.985 244.731 372.325 227.771 359.411 223.423C358.364 223.071 358.062 222.479 358.364 221.477C358.857 219.837 359.193 218.131 359.778 216.537C363.282 207.035 358.159 194.751 345.097 192.585C336.555 191.169 338.388 189.642 332.41 189.642C324.074 189.642 314.892 198.224 313.586 203.913C313.324 205.061 312.957 205.78 311.384 205.711C307.134 205.519 308.605 209.441 306.718 209.353C300.48 209.064 295.48 210.797 294.344 216.639C293.705 219.929 296.498 220.885 294.974 221.778C293.09 222.882 283.94 204.582 280.818 159.403C280.587 156.059 280.043 152.797 278.983 149.572C278.538 148.216 277.779 147.406 276.309 147.177C273.535 146.742 277.327 145.932 275.888 135.002C274.602 125.223 266.949 119.073 271.223 130.312C273.175 135.446 274.473 147.667 270.489 147.478C266.086 147.267 264.022 149.197 260.475 146.779C256.629 144.16 251.227 141.846 247.997 132.209C245.624 125.126 241.129 140.592 259.899 149.574C256.544 158.257 253.972 172.129 252.822 181.312C246.198 234.205 255.309 245.634 253.398 271.935C251.48 298.33 244.537 308.661 244.642 337.605C244.664 343.294 248.359 346.355 254.133 347.984C256.279 348.59 255.472 349.18 254.762 359.461C253.812 373.214 255.46 376.402 256.756 376.106C261.38 376.24 330.941 378.14 350.596 371.564C351.228 371.594 351.822 371.161 351.916 370.541C352.354 367.649 350.9 360.504 350.081 357.667C349.274 354.865 352.549 356.571 353.331 352.077C354.226 346.938 351.656 344.261 354.642 343.743C384.719 338.535 404.651 303.18 384.368 277.974V277.967ZM324.074 194.63C332.901 188.052 337.131 193.975 345.309 195.429C355.376 197.217 361.483 206.197 355.952 220.929C353.686 226.963 358.526 224.666 363.24 229.013C368.751 234.097 366.955 241.254 360.933 242.438C356.261 243.357 353.207 241.038 353.749 245.381C354.141 248.521 353.698 250.826 350.183 251.818C344.682 253.373 341.332 248.681 337.967 252.367C335.458 255.118 331.109 254.408 329.368 251.069C328.379 249.169 328.425 247.177 328.425 245.132C328.425 242.237 329.266 240.398 332.619 239.541C340.014 237.658 340.59 230.869 346.724 230.209C351.758 229.668 355.21 225.126 351.075 222.125C347.716 219.686 346.678 222.368 344.468 219.881C341.803 216.88 338.174 210.949 337.075 206.407C336.025 202.067 335.611 207.537 319.197 210.001C316.839 210.355 317.721 208.962 316.681 208.205C313.09 205.593 320.546 197.259 324.074 194.63ZM312.487 340.293C307.035 340.293 282.034 341.091 282.393 337.549C287.122 290.801 290.117 287.948 306.145 245.432C306.575 244.289 306.563 243.287 307.771 243.537C309.239 243.838 308.248 244.935 308.189 245.583C306.874 260.611 321.453 262.899 328.165 254.863C333.722 256.71 322.98 257.908 317.68 296.431C311.658 340.196 316.051 340.293 312.487 340.293ZM325.384 253.116C321.003 258.524 313.071 256.259 311.542 252.168C310.499 249.373 309.507 244 312.222 242.487C314.17 241.402 314.267 237.796 315.264 236.598C325.489 244.782 327.2 237.442 325.698 244.683C324.477 250.569 327.438 250.581 325.384 253.116ZM312.959 208.555C316.161 209.945 314.269 212.243 318.465 212.097C324.336 211.891 330.419 210.052 334.561 208.055C336.659 212.495 341.322 223.999 346.777 223.326C349.711 222.963 353.429 226.473 344.208 227.967C339.433 228.74 339.073 234.166 330.837 237.35C319.569 241.705 311.053 231.607 313.849 219.335C315.098 213.844 312.339 212.042 311.228 210.353C309.879 208.3 311.228 207.803 312.959 208.555ZM297.126 223.176C298.856 222.428 299.119 221.676 297.806 220.281C295.084 217.384 297.541 213.386 300.376 212.248C303.257 211.091 308.092 210.996 308.449 211.549C311.561 216.348 311.175 213.446 311.175 222.178C310.756 225.871 311.333 229.814 313.273 233.507C313.902 234.705 311.989 237.685 310.652 240.044C309.582 241.929 306.419 240.925 304.676 239.643C301.032 236.966 306.93 233.372 301.584 233.257C293.613 233.083 293.197 224.874 297.128 223.178L297.126 223.176ZM253.607 343.986C247.639 341.966 244.476 338.896 254.551 291.44C263.196 250.719 245.51 231.813 261.209 153.512C261.839 150.367 267.185 151.46 274.685 150.569C281.448 149.764 275.358 181.194 286.692 212.796C290.377 223.071 292.796 223.078 292.407 226.419C291.86 231.114 294.923 235.652 301.164 235.8C300.378 241.638 304.686 241.344 303.629 243.586C271.804 311.065 285.172 346.136 273.899 346.383C267.032 346.534 260.174 346.207 253.61 343.988L253.607 343.986ZM354.746 340.143C350.917 341.284 345.365 336.598 343.736 332.558C339.345 321.674 368.856 292.84 369.269 292.289C370.013 291.296 368.749 290.299 367.854 290.792C364.563 292.608 354.048 302.009 347.198 312.898C338.631 326.51 340.802 329.166 338.337 327.968C324.446 321.225 317.524 345.934 323.918 337.2C328.01 331.612 332.04 327.375 339.017 330.862C341.217 331.961 338.337 333.805 345.99 341.191C345.097 342.339 338.954 339.143 334.036 347.778C333.265 349.132 334.141 350.872 336.448 347.778C341.322 341.242 344.993 345.483 349.031 342.938C350.237 345.983 350.861 352.554 347.091 353.368C341.422 354.592 329.262 356.927 323.602 355.613C319.353 354.627 319.479 355.06 318.567 350.772C313.946 328.997 326.332 256.173 333.878 257.256C337.235 257.739 339.751 256.458 341.48 253.614C346.357 256.707 351.965 255.81 359.462 260.75C376.502 271.978 389.381 283.455 388.876 303.067C388.494 317.886 377.8 333.269 354.744 340.143H354.746Z" fill="#191919"/>
<path d="M261.367 124.169C261.944 120.774 261.89 119.652 262.994 119.627C264.829 119.585 263.312 123.518 266.82 131.003C268.763 135.145 266.964 135.508 265.982 134.696C264.973 133.863 261.472 128.361 261.367 124.169Z" fill="#191919"/>
<path d="M252.664 129.31C253.452 132.105 254.983 134.389 257.069 136.446C259.233 138.579 255.861 140.84 251.458 133.352C246.737 125.319 250.724 121.975 252.718 129.31H252.664Z" fill="#191919"/>
<path d="M255.652 124.867C255.73 121.97 258.219 122.671 258.693 125.515C259.216 128.659 260.701 131.322 262.415 134.048C263.237 135.355 261.997 136.244 260.789 135.394C257.971 133.414 255.562 128.159 255.65 124.864L255.652 124.867Z" fill="#191919"/>
<path d="M334.663 335.751C329.787 335.002 327.38 343.477 325.489 342.538C323.763 341.681 328.214 332.97 333.562 333.257C337.493 333.467 336.55 336.501 334.663 335.751Z" fill="#191919"/>
<path d="M329.998 347.278C328.163 346.23 331.515 340.788 333.091 339.393C335.864 336.943 339.479 338.393 339.278 339.893C338.949 342.336 336.547 338.794 333.562 342.736C331.411 345.58 330.995 347.177 329.998 347.278Z" fill="#191919"/>
<path d="M324.754 228.463C326.748 229.111 328.59 228.671 330.311 227.315C332.261 225.779 332.356 230.305 328.372 231.059C324.176 231.853 321.659 228.364 324.805 228.415L324.752 228.465L324.754 228.463Z" fill="#191919"/>
<path d="M329.84 217.236C327.008 221.727 325.314 220.792 327.271 223.124C329.714 226.035 321.82 223.976 325.068 220.281C329.057 215.743 329.106 216.139 329.84 217.287V217.236Z" fill="#191919"/>
<path d="M324.966 214.242C324.993 216.787 321.48 217.486 321.453 215.14C321.426 212.745 324.939 211.797 324.966 214.242Z" fill="#191919"/>
<path d="M336.29 219.331C338.597 219.58 337.233 222.866 335.609 222.824C333.406 222.767 334.35 219.331 336.29 219.331Z" fill="#191919"/>
</svg>
