<svg width="416" height="418" viewBox="0 0 416 418" fill="none" xmlns="http://www.w3.org/2000/svg">
<path d="M157.377 135.072C157.422 135.108 157.477 135.13 157.535 135.136C157.592 135.141 157.65 135.13 157.701 135.103C158.213 134.845 158.8 134.78 159.356 134.921C159.911 135.062 160.397 135.4 160.724 135.871C161.051 136.342 161.198 136.916 161.137 137.487C161.076 138.058 160.812 138.588 160.393 138.979C159.012 140.205 157.649 141.36 156.508 142.254C170.751 151.727 195.173 154.623 212.747 150.845C223.552 148.486 233.656 143.622 242.247 136.642C241.894 136.315 241.647 135.889 241.539 135.42C241.431 134.95 241.467 134.459 241.643 134.011C241.819 133.562 242.126 133.177 242.523 132.907C242.921 132.636 243.391 132.493 243.872 132.495C244.561 132.512 245.248 132.582 245.927 132.703C245.353 132.52 244.801 132.275 244.281 131.971C243.836 131.701 243.489 131.294 243.29 130.812C243.091 130.329 243.051 129.796 243.177 129.289C243.302 128.782 243.585 128.329 243.986 127.995C244.386 127.662 244.883 127.465 245.403 127.434C246.622 127.369 247.843 127.517 249.011 127.87C248.912 127.49 248.898 127.093 248.972 126.707C249.045 126.321 249.204 125.956 249.436 125.64C249.669 125.324 249.969 125.063 250.315 124.879C250.66 124.694 251.043 124.589 251.435 124.572C252.245 124.518 253.059 124.565 253.858 124.709C261.231 114.874 266.029 103.343 267.813 91.171C269.598 78.9987 268.312 66.5723 264.073 55.0264C260.081 44.8979 253.8 35.8361 245.722 28.5538C237.645 21.2716 227.992 15.9677 217.522 13.0595C209.812 11.1759 201.853 10.5188 193.939 11.1121C175.512 12.3005 159.261 18.0343 144.899 34.7059C121.763 61.5607 122.591 100.761 141.779 127.799C144.144 125.956 150.207 121.544 153.204 121.544C153.711 121.548 154.205 121.705 154.621 121.995C155.037 122.285 155.355 122.695 155.534 123.17C155.72 123.077 155.911 122.993 156.106 122.918C156.421 122.793 156.757 122.733 157.095 122.74C157.434 122.748 157.767 122.823 158.076 122.962C158.385 123.101 158.663 123.3 158.893 123.548C159.124 123.796 159.303 124.088 159.42 124.407C160.376 127.184 156.166 127.928 155.973 129.43C155.97 129.447 155.973 129.465 155.98 129.482C155.987 129.498 155.999 129.512 156.014 129.522C156.029 129.531 156.046 129.537 156.064 129.537C156.082 129.537 156.099 129.533 156.114 129.523C156.614 129.244 157.198 129.154 157.758 129.271C158.318 129.388 158.817 129.704 159.164 130.161C159.51 130.617 159.681 131.184 159.644 131.756C159.606 132.329 159.364 132.869 158.962 133.276C157.385 134.819 157.125 134.874 157.377 135.072ZM132.467 90.6444C132.752 91.3057 132.922 92.0108 132.97 92.7294C132.967 92.7843 132.95 92.8376 132.921 92.8843C132.892 92.9311 132.852 92.9699 132.804 92.9972C132.757 93.0245 132.703 93.0395 132.648 93.0408C132.593 93.0421 132.539 93.0296 132.49 93.0046C131.773 92.5078 131.262 91.7667 131.05 90.9196C130.888 90.9391 130.728 90.9698 130.57 91.0114C129.931 91.126 129.634 90.1899 130.295 90.0022L130.799 89.8646C130.682 89.1957 130.706 88.5099 130.867 87.8505C130.897 87.7464 130.961 87.6549 131.047 87.5898C131.133 87.5247 131.239 87.4895 131.347 87.4895C131.455 87.4895 131.56 87.5247 131.647 87.5898C131.733 87.6549 131.796 87.7464 131.826 87.8505C131.995 88.3809 132.118 88.9251 132.192 89.4768C133.615 89.1411 133.802 90.3713 132.467 90.6444ZM146.016 119.943C132.147 98.8593 132.434 63.0494 146.224 45.9983C146.54 45.6063 147.162 46.1151 146.91 46.5258C136.153 63.971 134.903 86.4994 141.334 105.648C142.979 110.301 144.98 114.819 147.32 119.163C147.423 119.336 147.454 119.544 147.404 119.739C147.355 119.935 147.23 120.103 147.057 120.207C146.884 120.31 146.677 120.34 146.482 120.291C146.287 120.241 146.119 120.116 146.016 119.943ZM159.636 38.9197C159.158 39.2587 158.573 39.4134 157.991 39.3555C157.991 39.9685 158.902 41.5176 158.265 42.4246C158.216 42.5103 158.14 42.5773 158.049 42.615C157.958 42.6528 157.857 42.6591 157.762 42.6331C156.624 42.2724 156.574 40.7087 156.414 39.7016C156.414 39.6328 156.391 39.564 156.391 39.5181C155.86 39.5852 155.333 39.6848 154.814 39.8163C154.267 39.956 153.878 39.1303 154.425 38.8759C155.02 38.5955 155.63 38.3512 156.254 38.1441C156.175 37.3073 156.276 36.4633 156.551 35.6692C156.759 35.1646 157.629 35.0041 157.739 35.6692C157.833 36.3909 157.879 37.1181 157.876 37.846C159.659 37.652 160.046 38.5757 159.638 38.9197H159.636ZM212.368 36.9953C212.809 37.1182 213.244 37.2637 213.67 37.431C213.948 36.7566 214.293 36.1119 214.7 35.5066C215.018 35.0479 215.927 35.1396 215.842 35.8277C215.722 36.637 215.506 37.4292 215.201 38.1879C215.596 38.418 215.978 38.67 216.345 38.9427C216.95 39.4743 216.187 40.5627 215.476 40.0894C215.201 39.9059 214.906 39.7224 214.631 39.539C214.423 39.9977 214.196 40.4564 213.99 40.8901C213.535 41.8533 212.145 41.0068 212.574 40.0665C212.782 39.6078 212.963 39.1261 213.169 38.6445C212.771 38.4047 212.358 38.1909 211.933 38.0044C211.376 37.7063 211.786 36.841 212.368 36.9953ZM181.168 61.5983C181.603 61.5983 182.037 61.5983 182.472 61.5753C182.328 60.9207 182.305 60.2451 182.404 59.5821C182.431 59.4942 182.483 59.4161 182.553 59.3568C182.624 59.2976 182.71 59.2597 182.801 59.2477C182.892 59.2356 182.984 59.2499 183.068 59.2888C183.151 59.3277 183.222 59.3897 183.271 59.4674C183.61 60.0781 183.835 60.7458 183.934 61.4377C184.564 61.2378 185.235 61.2141 185.877 61.3689C185.951 61.3893 186.018 61.4283 186.072 61.4823C186.127 61.5363 186.166 61.6034 186.187 61.6772C186.208 61.751 186.21 61.8289 186.192 61.9034C186.174 61.978 186.137 62.0467 186.085 62.1028C185.539 62.525 184.855 62.7286 184.167 62.6741C184.313 63.04 184.384 63.4316 184.377 63.8255C184.369 64.2195 184.282 64.6079 184.122 64.9676C184.07 65.0429 183.994 65.0977 183.906 65.1228C183.818 65.1479 183.725 65.1417 183.641 65.1052C182.863 64.5548 182.84 63.5707 182.68 62.6762C182.133 62.6533 181.584 62.5845 181.035 62.5157C180.525 62.4323 180.66 61.5983 181.168 61.5983ZM193.211 137.832C193.176 137.955 193.094 138.059 192.984 138.123C192.873 138.188 192.742 138.206 192.618 138.176C191.997 137.918 191.504 137.424 191.246 136.802C190.79 137.428 190.243 138.053 189.555 137.993C189.389 137.993 189.23 137.927 189.113 137.809C188.996 137.692 188.931 137.533 188.931 137.367C188.906 136.798 189.188 136.489 190.416 135.259C189.891 134.461 189.49 133.588 189.228 132.67C189.161 132.372 189.569 132.044 189.798 132.328C190.381 132.826 190.882 133.412 191.283 134.067C191.558 133.65 191.805 133.218 192.038 132.784C192.373 132.159 193.45 132.601 193.203 133.266C192.933 134.009 192.588 134.723 192.175 135.397C192.729 136.16 193.369 136.94 193.207 137.832H193.211ZM232.471 91.5451C232.047 92.0033 231.47 92.289 230.849 92.3479C231.099 93.0848 231.184 93.8676 231.1 94.6413C231.005 95.1897 230.285 95.1397 230.027 94.779C229.61 94.0812 229.359 93.2963 229.295 92.4855C228.975 92.5084 228.671 92.5063 228.428 92.5313C227.787 92.5939 227.696 91.5889 228.268 91.4304C228.517 91.3616 228.769 91.272 229.066 91.1802C228.825 90.2452 228.718 89.2807 228.746 88.3155C228.794 87.8359 229.526 87.4815 229.786 88.0402C230.138 88.923 230.375 89.8472 230.493 90.7904C231.133 90.6036 231.82 90.6693 232.413 90.9738C232.627 91.0802 232.629 91.3325 232.467 91.5368L232.471 91.5451ZM231.356 28.1403C230.899 27.9088 231.217 27.1812 231.7 27.3063C237.018 29.1299 241.673 32.5036 245.068 36.9953C255.614 49.2178 261.201 64.9628 260.722 81.1159C260.688 86.7429 259.603 92.3137 257.521 97.5395C257.202 98.2713 256.192 97.698 256.31 97.0349C257.648 91.0037 258.428 84.8617 258.642 78.6869C258.567 68.3871 255.927 58.2691 250.962 49.2509C246.788 41.6407 239.335 32.1664 231.348 28.1319L231.356 28.1403Z" fill="#6E93FC"/>
<path d="M231.404 61.9929C233.236 64.823 234.707 68.0694 235.817 71.7319C236.927 75.3389 237.482 79.0292 237.482 82.8027C237.482 87.2976 236.705 91.5706 235.151 95.6216C233.652 99.6726 231.376 102.974 228.323 105.527C225.325 108.08 221.661 109.356 217.331 109.356C213.279 109.356 209.559 108.329 206.173 106.276C202.787 104.167 200.233 101.726 198.512 98.9512C197.235 96.8979 196.264 94.595 195.598 92.0423C194.931 89.4341 194.598 86.826 194.598 84.2178C194.598 79.6674 195.542 75.2279 197.429 70.8995C199.372 66.571 202.037 63.1027 205.423 60.4946C208.643 58.1084 212.335 56.9153 216.498 56.9153C221.106 56.9153 226.074 58.6078 231.404 61.9929ZM209.087 67.7364C208.588 68.5688 208.088 69.3179 207.588 69.9839C206.367 71.8151 205.479 73.3689 204.924 74.6453C204.369 75.8661 203.869 77.7529 203.425 80.3055C203.203 81.4709 203.092 82.8305 203.092 84.3843C203.092 88.3243 203.869 91.7371 205.423 94.6227C207.033 97.4529 209.226 99.3674 212.002 100.366C213.334 100.866 214.833 101.115 216.498 101.115C220.662 101.115 223.798 99.2841 225.908 95.6216C228.073 91.9036 229.155 87.3254 229.155 81.8871C229.155 76.8372 228.212 72.703 226.324 69.4844C224.437 66.2103 221.522 64.5733 217.581 64.5733C215.971 64.5733 214.583 64.823 213.417 65.3225C212.307 65.8219 210.864 66.6265 209.087 67.7364Z" fill="#F7F8FA"/>
<path d="M178.122 65.1562C177.567 76.0328 177.289 84.6897 177.289 91.1269C177.289 94.4564 177.373 97.6195 177.539 100.616C177.983 100.949 178.844 101.116 180.12 101.116L182.036 101.032C182.813 100.921 183.534 100.866 184.201 100.866C185.644 100.866 186.754 101.116 187.531 101.615C188.364 102.114 188.78 103.086 188.78 104.528C188.78 105.916 188.364 106.998 187.531 107.775C186.754 108.552 185.117 108.94 182.619 108.94C180.509 108.94 177.955 108.774 174.958 108.441C174.236 108.385 173.542 108.33 172.876 108.274C172.21 108.219 171.599 108.191 171.044 108.191C167.991 108.246 165.715 108.357 164.216 108.524C162.717 108.69 161.024 108.774 159.136 108.774C157.416 108.774 156.555 107.47 156.555 104.861C156.555 102.364 158.165 101.116 161.385 101.116C161.884 101.116 162.689 101.171 163.8 101.282C164.743 101.449 165.743 101.532 166.797 101.532C167.408 101.532 167.908 101.504 168.296 101.449C168.352 97.7305 168.546 92.32 168.879 85.2169C169.212 76.8929 169.379 70.7332 169.379 66.7377C169.101 66.7932 168.13 67.1817 166.464 67.9031C163.911 69.1794 162.023 69.8176 160.802 69.8176C160.136 69.8176 159.525 69.4846 158.97 68.8187C158.415 68.0973 158.137 67.2649 158.137 66.3215C158.137 65.3782 158.72 64.4625 159.886 63.5746C161.052 62.6868 162.939 61.5214 165.548 60.0786C166.992 59.3572 168.379 58.5525 169.712 57.6646C170.045 57.4427 170.517 57.2207 171.127 56.9987C171.793 56.7768 172.293 56.6658 172.626 56.6658C174.069 56.6658 175.374 56.971 176.54 57.5814C177.761 58.1363 178.372 58.8855 178.372 59.8289L178.122 65.1562Z" fill="#F7F8FA"/>
<path d="M201.275 204.538C201.163 204.51 201.046 204.508 200.932 204.532C200.819 204.556 200.713 204.605 200.621 204.675C200.528 204.745 200.453 204.835 200.4 204.939C200.347 205.042 200.318 205.155 200.314 205.271C199.971 207.863 200.079 213.486 202.074 215.19C202.132 215.24 202.202 215.273 202.277 215.286C202.353 215.298 202.43 215.29 202.501 215.262C202.572 215.233 202.633 215.186 202.679 215.125C202.725 215.063 202.753 214.991 202.76 214.915C202.916 212.704 201.317 211.333 201.731 206.095C202.173 206.05 202.602 205.917 202.993 205.704C203.384 205.492 203.729 205.203 204.007 204.856C204.286 204.508 204.493 204.109 204.617 203.681C204.74 203.252 204.777 202.804 204.726 202.361C204.528 199.598 202.114 198.777 201.344 200.324C201.184 200.643 201.454 201.187 201.868 201.01C203.526 200.299 204.015 205.123 201.275 204.538Z" fill="#191919"/>
<path d="M182.718 189.442C183.538 188.284 183.92 186.87 183.793 185.456C185.118 185.254 186.348 184.645 187.313 183.714C188.279 182.783 188.933 181.575 189.186 180.256C190.175 180.142 191.111 179.754 191.89 179.134C191.693 179.664 190.667 180.051 190.085 180.714C189.662 181.208 189.348 181.786 189.164 182.41C188.979 183.033 188.927 183.689 189.012 184.334C189.062 184.722 189.24 184.999 188.874 185.364C188.142 185.673 187.56 186.256 187.252 186.99C186.868 187.87 186.779 188.852 187 189.786C187 190.016 187 190.22 187.023 190.449C187.03 190.798 187.111 191.142 187.261 191.457C187.41 191.772 187.625 192.052 187.891 192.277C188.157 192.503 188.468 192.669 188.803 192.765C189.137 192.86 189.489 192.883 189.833 192.832C190.425 192.741 190.994 192.534 191.506 192.221C192.017 191.909 192.462 191.498 192.815 191.013C193.168 190.527 193.421 189.977 193.56 189.392C193.7 188.808 193.722 188.202 193.627 187.609C194.73 187.143 195.609 186.265 196.078 185.162C196.548 184.058 196.571 182.815 196.144 181.694C196.422 181.505 196.682 181.29 196.92 181.052C197.009 181.442 197.04 181.843 197.011 182.243C196.841 183.736 195.695 184.213 197.427 187.099C192.544 190.451 195.22 194.636 197.359 194.636C197.926 194.608 198.483 194.468 198.996 194.225C199.51 193.981 199.971 193.638 200.352 193.216C200.003 193.548 199.731 193.953 199.556 194.403C199.381 194.853 199.308 195.335 199.34 195.817C199.373 196.298 199.512 196.766 199.746 197.188C199.98 197.609 200.304 197.974 200.695 198.255C202.775 199.582 206.007 197.152 205.585 193.583C206.025 193.168 206.377 192.67 206.62 192.116C206.864 191.562 206.993 190.965 207.002 190.36C207.01 189.755 206.898 189.155 206.67 188.594C206.442 188.034 206.104 187.525 205.677 187.099C206.083 186.275 206.272 185.36 206.226 184.442C206.952 185.73 207.922 186.864 209.082 187.778C208.192 189.969 207.903 192.358 208.245 194.698C208.586 197.038 209.546 199.244 211.024 201.087C209.167 202.625 207.882 204.748 207.38 207.11C206.878 209.472 207.187 211.936 208.258 214.099C201.334 217.986 196.656 221.655 190.578 221.038C191.697 220.054 191.4 217.854 190.898 216.48C192.625 215.484 194.214 214.268 195.628 212.861C197.086 211.71 198.213 210.193 198.896 208.464C199.133 207.711 198.064 207.336 197.662 207.936C195.899 210.573 193.621 212.824 190.967 214.556C189.653 215.441 188.061 215.815 186.492 215.609C184.922 215.402 183.481 214.629 182.439 213.434C180.342 210.855 179.26 207.595 179.398 204.271C179.291 200.502 179.583 196.732 180.267 193.024C180.4 192.267 179.286 191.925 179.103 192.703C178.077 196.93 177.707 201.29 178.004 205.63C178.728 215.221 184.943 218.574 189.86 216.902C189.943 217.594 189.95 218.293 189.883 218.987C189.697 219.625 189.65 220.297 189.746 220.955C188.629 220.76 187.554 220.373 186.57 219.81C186.137 219.558 185.794 220.106 186.066 220.452C187.836 222.69 191.142 222.973 193.792 222.673C198.209 222.177 202.151 219.545 209.125 215.596C209.148 215.642 209.194 215.688 209.217 215.734C205.562 218.837 205.186 222.992 206.908 225.675C207.293 226.274 207.913 226.662 208.302 227.21C208.691 227.758 208.012 229.272 207.886 230.004C207.717 231.035 207.61 232.075 207.565 233.119C207.568 233.33 207.654 233.532 207.803 233.682C207.952 233.832 208.153 233.918 208.364 233.921C210.104 233.949 211.84 233.748 213.529 233.325C213.736 233.264 213.911 233.125 214.018 232.938C214.124 232.75 214.154 232.528 214.101 232.318C213.541 230.707 213.083 229.062 212.73 227.393C212.593 226.407 213.125 226.161 213.62 225.492C215.594 222.827 214.752 219.585 212.959 216.764C214.186 215.372 215.084 213.72 215.586 211.931C216.418 211.449 217.25 210.968 218.082 210.488C217.96 212.771 218.693 215.017 220.137 216.787C218.82 218.437 218.057 220.462 217.959 222.573C217.861 224.684 218.432 226.772 219.59 228.538C219.059 229.764 218.007 232.891 218.758 233.99C219.017 234.261 219.336 234.467 219.69 234.59C220.043 234.713 220.421 234.751 220.792 234.699C221.994 234.727 223.196 234.636 224.38 234.426C224.488 234.397 224.588 234.347 224.676 234.279C224.765 234.211 224.839 234.126 224.894 234.029C224.949 233.932 224.985 233.825 224.999 233.714C225.013 233.604 225.004 233.491 224.975 233.384C224.367 231.984 224.011 230.487 223.922 228.963C223.966 226.074 226.909 224.718 224.563 216.662C225.476 215.147 226.055 213.453 226.26 211.694C226.465 209.936 226.291 208.154 225.751 206.468C225.705 206.331 225.636 206.17 225.591 206.033C235.454 200.147 236.095 200.017 237.359 198.497C237.427 198.423 237.469 198.328 237.48 198.228C237.49 198.128 237.468 198.027 237.418 197.939C237.367 197.852 237.289 197.784 237.197 197.744C237.104 197.704 237.002 197.695 236.904 197.718C235.148 198.27 233.5 199.123 232.034 200.238C230.318 201.281 226.418 203.606 226.185 203.743C229.372 199.617 229.457 192.935 223.169 186.173C224.464 183.371 224.675 180.188 223.762 177.239C223.519 175.764 222.911 174.375 221.992 173.198C221.074 172.022 219.875 171.095 218.506 170.504C218.778 168.824 218.527 167.1 217.788 165.568C217.05 164.035 215.858 162.767 214.376 161.937C212.894 161.106 211.192 160.753 209.503 160.925C207.813 161.097 206.217 161.786 204.932 162.898C204.161 162.379 203.268 162.069 202.341 162C201.415 161.932 200.486 162.105 199.647 162.505C198.808 162.905 198.087 163.516 197.555 164.28C197.023 165.043 196.698 165.932 196.612 166.86C195.251 167.154 194.05 167.951 193.249 169.094C192.449 170.236 192.108 171.639 192.294 173.023C192.201 173.148 192.153 173.301 192.157 173.456C190.874 173.052 189.485 173.163 188.282 173.765C187.079 174.368 186.156 175.415 185.709 176.686C184.86 176.727 184.03 176.945 183.271 177.328C182.512 177.711 181.842 178.248 181.303 178.907C180.765 179.565 180.37 180.33 180.144 181.151C179.919 181.972 179.868 182.831 179.995 183.673C179.035 184.247 178.298 185.131 177.904 186.18C177.509 187.228 177.481 188.38 177.823 189.446C177.975 191.961 181.143 191.504 182.718 189.442ZM215.946 209.783C216.144 207.322 215.628 204.856 214.46 202.682C214.305 202.499 214.214 202.27 214.201 202.03C214.189 201.789 214.256 201.552 214.392 201.354C214.788 200.58 215.138 199.785 215.442 198.971C216.049 197.009 216.188 194.931 215.846 192.906C215.505 190.881 214.693 188.964 213.477 187.311C212.437 185.916 212.181 186.298 212.403 184.953C213.807 176.49 209.572 173.069 206.028 173.773C205.881 172.655 205.456 171.592 204.793 170.681C206.144 170.199 207.309 169.301 208.121 168.115C208.787 169.534 209.754 170.792 210.954 171.8C212.153 172.808 213.557 173.542 215.068 173.953C214.434 176.647 214.516 179.462 215.306 182.115C216.096 184.767 217.567 187.166 219.571 189.071C218.741 191.486 218.489 194.063 218.835 196.593C219.18 199.124 220.113 201.538 221.56 203.641C220.045 204.831 218.94 206.466 218.4 208.318C217.387 209.008 216.736 209.296 215.946 209.783Z" fill="#191919"/>
<path d="M182.514 197.734C182.207 197.747 181.917 197.878 181.705 198.1C181.492 198.322 181.374 198.618 181.374 198.926C181.374 199.233 181.492 199.529 181.705 199.751C181.917 199.973 182.207 200.104 182.514 200.117C182.82 200.104 183.11 199.973 183.323 199.751C183.535 199.529 183.654 199.233 183.654 198.926C183.654 198.618 183.535 198.322 183.323 198.1C183.11 197.878 182.82 197.747 182.514 197.734Z" fill="#191919"/>
<path d="M190.214 200.643C190.529 200.643 190.831 200.517 191.054 200.294C191.276 200.071 191.402 199.768 191.402 199.452C191.402 199.137 191.276 198.834 191.054 198.61C190.831 198.387 190.529 198.262 190.214 198.262C189.899 198.262 189.597 198.387 189.374 198.61C189.151 198.834 189.026 199.137 189.026 199.452C189.026 199.768 189.151 200.071 189.374 200.294C189.597 200.517 189.899 200.643 190.214 200.643Z" fill="#191919"/>
<path d="M186.74 196.223C186.715 196.142 186.668 196.07 186.603 196.015C186.539 195.96 186.461 195.925 186.377 195.913C186.294 195.901 186.208 195.913 186.131 195.947C186.054 195.982 185.988 196.038 185.942 196.108C185.471 197.055 185.139 198.066 184.958 199.108C183.949 202.2 182.83 203.157 183.976 203.941C184.812 204.54 185.788 204.911 186.809 205.019C186.905 205.014 186.997 204.981 187.074 204.925C187.152 204.869 187.212 204.793 187.248 204.704C187.284 204.615 187.294 204.518 187.277 204.423C187.26 204.329 187.217 204.241 187.152 204.171C186.339 203.357 185.087 203.291 185.004 202.957C184.791 202.317 187.323 198.652 186.74 196.223Z" fill="#191919"/>
<path d="M184.319 206.531C184.223 206.533 184.131 206.565 184.055 206.624C183.979 206.683 183.925 206.765 183.899 206.857C183.873 206.95 183.878 207.048 183.912 207.138C183.947 207.227 184.009 207.303 184.09 207.354C185.084 207.87 186.199 208.102 187.315 208.026C188.431 207.95 189.505 207.568 190.42 206.923C190.483 207.757 190.376 208.596 190.105 209.388C189.834 210.179 189.405 210.907 188.843 211.526C188.489 211.898 188.008 212.124 187.496 212.158C186.983 212.192 186.477 212.032 186.077 211.71C185.168 210.828 185.492 208.743 184.454 208.847C183.152 208.893 184.111 210.978 184.363 211.618C184.602 212.253 185.042 212.792 185.616 213.153C186.191 213.513 186.867 213.674 187.541 213.611C191.31 213.332 192.019 208.432 191.836 205.526C191.832 205.384 191.787 205.247 191.707 205.131C191.627 205.014 191.514 204.924 191.384 204.871C191.253 204.817 191.11 204.803 190.971 204.83C190.832 204.856 190.704 204.923 190.603 205.021C189.721 205.704 188.706 206.191 187.622 206.451C186.539 206.711 185.414 206.739 184.319 206.531Z" fill="#191919"/>
<path d="M192.637 195.664C192.356 195.027 191.862 194.509 191.24 194.2C190.618 193.89 189.908 193.809 189.232 193.969C189.142 193.995 189.062 194.049 189.006 194.125C188.949 194.2 188.918 194.292 188.918 194.386C188.918 194.48 188.949 194.572 189.006 194.647C189.062 194.722 189.142 194.777 189.232 194.803C190.118 195.061 190.875 195.641 191.356 196.429C191.828 197.282 193.051 196.542 192.637 195.664Z" fill="#191919"/>
<path d="M183.427 193.954C182.746 193.921 182.069 194.071 181.466 194.389C180.863 194.707 180.356 195.182 179.999 195.764C179.791 196.154 180.228 196.635 180.623 196.389C181.479 195.71 182.526 195.317 183.616 195.268C184.409 195.097 184.113 194.044 183.427 193.954Z" fill="#191919"/>
<path d="M105.502 396.476C105.277 394.393 104.794 392.345 104.062 390.382C103.676 389.579 102.579 390.061 102.532 390.799C102.324 394.006 103.879 397.144 103.948 400.35C104.017 403.511 100.93 403.907 98.5088 403.146C95.8838 402.312 94.2802 400.915 89.7728 400.763C81.3696 400.48 73.0954 405.546 65.0478 402.963C63.0573 402.325 58.8765 400.19 60.6133 397.602C62.3043 395.081 65.961 395.269 68.5901 395.309C76.2549 395.432 82.6446 392.096 85.2717 388.62C85.6544 388.113 84.9285 387.452 84.4251 387.774C80.6545 390.9 76.0235 392.801 71.1485 393.224C69.2765 393.351 67.3774 393.155 65.5034 393.293C58.4459 393.818 54.9557 399.769 61.8717 403.853C66.7867 406.757 72.9747 405.938 78.2787 404.725C83.9571 403.434 89.155 401.876 94.5485 403.922C96.0301 404.607 97.5672 405.165 99.1432 405.59C102.055 406.157 105.456 405.046 106.022 401.787C106.175 400 105.999 398.199 105.502 396.476Z" fill="#191919"/>
<path d="M87.6762 388.778C90.4197 388.532 92.2272 391.174 94.7835 391.71C98.1614 392.419 99.9232 388.999 98.6232 388.32C97.8162 387.903 97.5666 388.637 97.1672 389.154C96.7428 389.561 96.1932 389.812 95.6081 389.866C95.023 389.921 94.4369 389.774 93.9453 389.452C91.8008 388.434 89.9059 386.714 87.4099 387.803C87.3148 387.863 87.2417 387.953 87.2011 388.059C87.1605 388.164 87.1547 388.28 87.1844 388.389C87.2142 388.498 87.278 388.595 87.3664 388.665C87.4549 388.735 87.5634 388.775 87.6762 388.778Z" fill="#191919"/>
<path d="M285.255 369.743C282.432 368.513 279.502 367.547 276.503 366.857C276.217 366.794 275.918 366.843 275.668 366.995C275.418 367.147 275.235 367.39 275.159 367.673C275.083 367.956 275.118 368.258 275.258 368.516C275.398 368.773 275.631 368.967 275.91 369.057C280.937 370.883 285.823 370.823 286.079 375.195C286.019 377.22 285.668 379.226 285.039 381.152C283.244 388.808 285.445 397.504 283.645 401.927C282.751 404.126 279.989 404.279 277.932 404.562C275.644 404.879 269.549 405.142 267.532 404.012C264.204 402.146 271.357 398.088 272.923 395.995C273.179 395.653 272.763 395.278 272.422 395.33C269.944 395.713 267.419 398.249 265.818 400.094C265.452 400.414 265.158 400.809 264.956 401.251C264.753 401.694 264.646 402.174 264.642 402.661C264.637 403.147 264.736 403.63 264.931 404.076C265.125 404.522 265.412 404.921 265.772 405.248C268.836 407.94 277.337 407.15 281.355 406.211C289.499 404.31 285.648 393.424 286.863 384.152C287.208 381.517 288.224 379.021 288.417 376.362C288.574 375.072 288.36 373.763 287.8 372.59C287.239 371.417 286.357 370.429 285.255 369.743Z" fill="#191919"/>
<path d="M231.005 148.026C231.322 151.398 231.841 154.749 232.559 158.059C234.944 172.906 235.647 184.278 236.581 188.984C236.721 189.695 237.723 189.465 237.769 188.823C238.499 178.607 233.655 151.258 232.032 147.749C231.789 147.221 231.005 147.523 231.005 148.026Z" fill="#6E93FC"/>
<path d="M285.919 231.338C285.534 237.197 286.73 251.942 283.839 279.764C275.498 271.424 267.15 263.084 258.794 254.744C258.69 254.642 258.564 254.564 258.426 254.517C258.287 254.47 258.14 254.455 257.996 254.472C257.851 254.49 257.712 254.54 257.589 254.619C257.466 254.698 257.362 254.803 257.286 254.928C252.824 263.57 248.67 272.381 244.373 281.132C242.798 242.237 242.57 235.383 241.837 229.912C241.837 229.809 241.796 229.71 241.724 229.636C241.651 229.563 241.552 229.522 241.449 229.522C241.345 229.522 241.246 229.563 241.173 229.636C241.101 229.71 241.06 229.809 241.06 229.912C240.631 239.124 241.731 256.131 242.636 284.912C242.665 285.805 243.959 286.286 244.396 285.394C249.028 275.941 253.72 266.496 258.359 257.038C266.859 265.536 275.36 274.035 283.862 282.533C283.996 282.662 284.164 282.749 284.346 282.784C284.528 282.819 284.716 282.8 284.888 282.73C285.059 282.66 285.207 282.541 285.313 282.389C285.419 282.236 285.478 282.056 285.484 281.87C287.939 260.439 288.115 236.857 287.496 231.359C287.498 231.15 287.418 230.947 287.272 230.797C287.126 230.647 286.927 230.561 286.718 230.558C286.509 230.556 286.307 230.636 286.157 230.783C286.007 230.929 285.922 231.129 285.919 231.338Z" fill="#6E93FC"/>
<path d="M357.833 243.202C345.517 203.514 326.25 163.63 299.994 132.515C292.483 123.408 284.068 115.089 274.88 107.685C274.242 107.181 273.345 108.01 273.967 108.6C290.439 124.307 301.355 135.914 314.552 155.607C332.232 181.982 344.92 210.822 354.885 240.844C345.715 234.454 335.95 228.968 325.726 224.464C325.589 224.387 325.436 224.342 325.279 224.333C325.123 224.324 324.966 224.35 324.821 224.411C324.676 224.471 324.546 224.563 324.442 224.681C324.337 224.798 324.261 224.938 324.218 225.089C320.526 237.141 316.564 249.096 312.838 261.122C304.841 229.664 289.297 201.552 273.83 173.969C273.679 173.716 273.435 173.532 273.15 173.458C272.865 173.384 272.563 173.424 272.308 173.572C272.053 173.719 271.866 173.961 271.787 174.245C271.708 174.529 271.744 174.833 271.887 175.091C287.785 203.38 304.691 233.584 311.628 265.734C311.699 265.97 311.845 266.176 312.042 266.322C312.239 266.469 312.478 266.548 312.724 266.548C312.969 266.548 313.208 266.469 313.406 266.322C313.603 266.176 313.748 265.97 313.82 265.734C317.945 252.789 321.843 239.757 325.863 226.793C336.608 231.573 346.818 237.478 356.325 244.409C357.055 244.926 358.089 244.036 357.833 243.202Z" fill="#6E93FC"/>
<path d="M106.804 99.8997C105.639 99.8813 104.491 100.173 103.476 100.746C103.087 99.6933 102.777 98.6133 102.425 97.5165C102.292 97.0995 101.645 96.9432 101.442 97.3789C101.236 98.026 101.169 98.7092 101.244 99.3841C101.319 100.059 101.534 100.711 101.876 101.297C100.986 101.595 100.098 101.883 99.2264 102.189C98.6794 102.381 98.723 103.269 99.3616 103.244C100.418 103.205 101.467 103.059 102.494 102.808C102.812 103.642 103.145 104.439 103.499 105.235C103.746 106.121 104.254 106.911 104.955 107.504C105.055 107.56 105.168 107.589 105.283 107.588C105.398 107.587 105.51 107.556 105.61 107.498C105.709 107.44 105.791 107.357 105.849 107.258C105.907 107.158 105.938 107.045 105.939 106.93C105.974 105.982 105.645 106.034 104.179 102.602C104.138 102.522 104.108 102.437 104.087 102.35C105.269 102.163 106.345 101.562 107.126 100.654C107.162 100.585 107.182 100.508 107.185 100.429C107.188 100.351 107.174 100.273 107.143 100.201C107.112 100.129 107.066 100.064 107.007 100.012C106.948 99.9601 106.879 99.9217 106.804 99.8997Z" fill="#6E93FC"/>
<path d="M286.649 59.1923C287.757 59.4005 288.898 59.3383 289.977 59.0109C290.031 58.9769 290.077 58.9314 290.112 58.8777C290.146 58.8239 290.169 58.7632 290.178 58.6998C290.186 58.6364 290.181 58.5718 290.162 58.5106C290.143 58.4495 290.111 58.3932 290.068 58.3458C289.091 57.689 287.907 57.4118 286.74 57.566C286.786 56.536 286.836 55.506 286.878 54.451C286.903 53.8568 285.919 53.6962 285.804 54.3134C285.596 55.4143 285.438 56.5131 285.301 57.6119C284.571 57.6578 283.845 57.7495 283.107 57.8412C282.368 57.933 282.583 59.0922 283.267 59.0922C283.891 59.0922 284.515 59.0922 285.139 59.1152C285.116 59.2528 285.116 59.3674 285.093 59.5051C284.802 63.3915 284.781 63.4541 285.322 63.9962C285.408 64.0783 285.523 64.124 285.642 64.124C285.761 64.124 285.876 64.0783 285.963 63.9962C286.535 63.4916 286.466 63.0099 286.487 62.2781C286.505 61.7548 286.591 59.6698 286.649 59.1923Z" fill="#6E93FC"/>
<path d="M289.713 139.825C289.436 139.095 289.083 138.397 288.66 137.74C288.586 137.621 288.471 137.532 288.337 137.49C288.202 137.448 288.058 137.455 287.928 137.511C287.799 137.566 287.694 137.666 287.631 137.792C287.569 137.918 287.553 138.062 287.587 138.199C287.75 139.026 288.002 139.833 288.34 140.605C287.816 140.947 287.288 141.335 286.786 141.727C286.695 141.789 286.63 141.883 286.606 141.991C286.581 142.099 286.598 142.212 286.653 142.308C286.708 142.404 286.797 142.475 286.902 142.508C287.008 142.54 287.122 142.532 287.221 142.484C287.749 142.236 288.271 142.002 288.821 141.773C289.417 143.12 289.505 144.483 290.649 144.934C290.744 144.958 290.844 144.951 290.935 144.914C291.026 144.876 291.102 144.81 291.152 144.725C291.637 143.641 290.794 142.509 290.374 141.495C290.33 141.369 290.276 141.247 290.214 141.128C290.887 140.942 291.471 140.52 291.859 139.938C292.188 139.519 291.491 138.902 289.713 139.825Z" fill="#6E93FC"/>
<path d="M253.926 16.2893C253.609 16.6542 253.273 17.0021 252.92 17.3318C252.554 16.9419 252.194 16.5707 251.801 16.21C251.37 15.8139 250.542 16.3476 250.954 16.8731C251.297 17.3088 251.595 17.7675 251.892 18.2241C251.343 18.6411 250.576 19.0936 250.453 19.7608C250.416 19.8891 250.431 20.0267 250.495 20.1439C250.559 20.261 250.666 20.3481 250.794 20.3863C251.161 20.4265 251.533 20.3791 251.878 20.2479C252.224 20.1167 252.534 19.9055 252.782 19.6315C252.891 19.8577 253.045 20.0595 253.233 20.2246C253.422 20.3898 253.642 20.515 253.881 20.5927C253.971 20.6152 254.067 20.6014 254.148 20.5543C254.229 20.5072 254.288 20.4305 254.313 20.3404C254.391 20.0297 254.392 19.7048 254.317 19.3935C254.241 19.0822 254.092 18.794 253.881 18.5536C254.289 18.0895 254.67 17.6022 255.023 17.0941C255.447 16.4873 254.434 15.6971 253.926 16.2893Z" fill="#6E93FC"/>
<path d="M141.792 20.847C141.616 20.4571 141.385 20.0947 141.105 19.7712C141.042 19.7102 140.963 19.6691 140.877 19.6529C140.792 19.6368 140.703 19.6463 140.622 19.6803C140.542 19.7143 140.473 19.7713 140.425 19.8442C140.376 19.9171 140.35 20.0026 140.35 20.0902C140.364 20.488 140.434 20.8819 140.558 21.2599C140.467 21.2828 140.375 21.3287 140.284 21.3516C140.154 21.3936 140.045 21.4841 139.979 21.6043C139.914 21.7244 139.897 21.8652 139.933 21.9974C139.968 22.1296 140.052 22.2432 140.169 22.3147C140.285 22.3862 140.425 22.4101 140.558 22.3816C140.672 22.3587 140.787 22.3357 140.924 22.3128C140.924 22.3357 140.947 22.3816 140.947 22.4045C141.176 23.03 141.334 23.8265 142.043 24.0079C142.135 24.0336 142.233 24.0269 142.32 23.9889C142.408 23.951 142.48 23.8841 142.524 23.7994C142.89 23.2281 142.547 22.5859 142.295 22.0126C142.629 21.913 142.924 21.7136 143.141 21.4413C143.428 21.1035 143.027 20.5864 141.792 20.847Z" fill="#6E93FC"/>
<path d="M203.17 202.361C202.75 202.193 202.295 202.129 201.845 202.173C201.394 202.217 200.961 202.369 200.581 202.615C198.411 204.302 198.833 205.93 199.607 206.967C199.891 207.316 200.249 207.597 200.656 207.788C201.063 207.98 201.508 208.076 201.958 208.071C202.407 208.066 202.849 207.959 203.252 207.758C203.654 207.558 204.006 207.269 204.282 206.913C204.557 206.557 204.749 206.143 204.843 205.702C204.936 205.262 204.929 204.805 204.822 204.368C204.715 203.93 204.511 203.522 204.225 203.175C203.939 202.827 203.579 202.549 203.17 202.361Z" fill="#6E93FC"/>
<path d="M185.438 219.725C174.073 211.564 151.632 202.106 144.945 188.045C143.426 184.72 142.819 181.05 143.185 177.412C143.876 168.34 145.744 159.408 146.513 150.336C146.52 150.272 146.511 150.207 146.487 150.147C146.463 150.087 146.425 150.033 146.376 149.992C148.333 148.548 149.897 146.633 150.923 144.425C151.53 143.733 152.239 143.138 153.026 142.661C154.159 141.804 157.315 139.275 159.08 137.69C159.16 137.605 159.207 137.493 159.213 137.376C159.219 137.259 159.183 137.143 159.112 137.05C159.041 136.957 158.939 136.892 158.825 136.867C158.711 136.842 158.591 136.858 158.488 136.913C155.656 138.711 152.918 140.652 150.284 142.73C149.477 143.699 148.786 144.761 148.227 145.893C146.682 148.107 144.857 148.812 144.662 149.306C143.223 148.889 141.598 148.966 140.138 148.572C139.131 148.301 138.172 147.93 137.188 147.588C138.274 146.497 136.475 138.487 141.074 133.316C143.817 130.582 146.933 128.253 150.33 126.398C151.479 125.924 152.568 125.317 153.575 124.588C153.654 124.5 153.706 124.391 153.725 124.275C153.745 124.158 153.731 124.038 153.686 123.929C153.64 123.82 153.565 123.726 153.468 123.658C153.372 123.59 153.258 123.551 153.14 123.546C151.241 123.621 147.293 126.227 145.735 127.324C140.743 130.839 137.569 133.439 136.481 139.533C135.989 142.094 135.935 144.721 136.321 147.3C135.368 147.012 134.241 147.327 134.657 148.238C135.027 149.06 135.845 149.197 136.646 149.475C139.501 150.418 142.511 150.8 145.511 150.599C144.003 158.615 142.967 166.77 141.923 174.88C141.28 178.618 141.476 182.452 142.495 186.104C146.492 198.476 161.907 207.208 171.883 213.226C176.178 215.817 180.425 218.461 184.748 220.99C185.521 221.434 186.17 220.25 185.438 219.725Z" fill="#191919"/>
<path d="M245.242 130.343C246.265 130.842 247.338 131.234 248.441 131.51C250.86 132.473 253.218 133.582 255.503 134.832C256.431 135.491 257.542 135.843 258.679 135.839C258.774 135.814 258.862 135.767 258.935 135.702C259.009 135.637 259.067 135.557 259.105 135.466C259.142 135.375 259.159 135.277 259.152 135.179C259.146 135.081 259.117 134.986 259.068 134.901C258.471 133.858 257.1 133.462 256.05 132.953C254.837 132.363 253.602 131.796 252.35 131.235C250.232 130.099 247.886 129.458 245.486 129.359C245.375 129.37 245.271 129.414 245.187 129.487C245.103 129.56 245.044 129.657 245.017 129.765C244.991 129.872 244.998 129.986 245.038 130.089C245.079 130.193 245.15 130.281 245.242 130.343Z" fill="#191919"/>
<path d="M243.757 135.497C247.448 136.702 251.064 138.125 254.588 139.757C255.501 140.082 256.597 140.557 257.446 139.825C257.511 139.76 257.553 139.676 257.565 139.584C257.577 139.493 257.558 139.4 257.512 139.321C257.08 138.314 255.64 138.147 254.725 137.809C251.106 136.479 247.728 134.509 243.909 134.373C243.776 134.381 243.649 134.435 243.55 134.526C243.452 134.617 243.389 134.739 243.371 134.872C243.353 135.005 243.381 135.14 243.452 135.254C243.523 135.368 243.631 135.454 243.757 135.497Z" fill="#191919"/>
<path d="M147.114 131.74C146.299 132.526 145.182 133.364 145.082 134.58C145.055 134.901 145.4 135.061 145.652 135.015C146.75 134.807 147.524 133.654 148.258 132.907C151.138 130.239 154.2 127.774 157.421 125.531C157.905 125.147 157.285 124.547 156.797 124.753C153.203 126.525 149.931 128.886 147.114 131.74Z" fill="#191919"/>
<path d="M156.988 131.258C155.324 132.434 150.486 136.218 150.27 136.389C149.579 136.936 148.814 137.374 148.579 138.245C148.562 138.309 148.56 138.377 148.573 138.442C148.586 138.507 148.613 138.568 148.654 138.621C148.694 138.674 148.745 138.717 148.804 138.748C148.863 138.778 148.928 138.794 148.995 138.795C149.931 138.729 150.326 138.349 153.109 136C154.636 134.711 156.175 133.439 157.564 132.015C157.932 131.631 157.444 130.937 156.988 131.258Z" fill="#191919"/>
<path d="M276.64 328.831C276.603 328.546 276.465 328.284 276.251 328.092C276.037 327.901 275.762 327.793 275.475 327.788C261.552 328.714 247.664 329.804 233.875 331.91C233.825 333.578 233.64 336.197 233.328 338.532C233.162 339.767 233.23 341.57 232.253 342.471C232.168 342.553 232.067 342.614 231.955 342.651C231.844 342.688 231.725 342.699 231.609 342.683C231.493 342.668 231.381 342.626 231.283 342.562C231.185 342.497 231.103 342.411 231.042 342.31C230.454 341.141 231.042 339.677 231.225 338.441C233.568 321.145 232.56 303.559 228.255 286.647C226.54 280.705 224.44 274.882 221.969 269.214C221.631 268.182 221.008 267.267 220.172 266.575C219.337 265.883 218.323 265.442 217.248 265.303C219.123 258.085 222.189 251.233 226.321 245.03C234.691 231.974 244.269 223.409 254.107 208.751C264.241 193.652 267.627 185.683 270.105 167.977C271.045 162.563 271.443 157.068 271.292 151.574C271.251 150.897 271.309 150.146 269.628 150.323C270.561 147.331 270.978 144.201 270.864 141.068C270.786 139.689 270.426 138.34 269.804 137.106C269.183 135.873 268.314 134.781 267.253 133.9C265.078 131.861 262.604 130.169 259.917 128.883C257.357 127.434 254.49 126.617 251.553 126.5C251.378 126.505 251.211 126.573 251.081 126.691C250.951 126.808 250.868 126.969 250.845 127.143C250.823 127.317 250.864 127.494 250.96 127.64C251.056 127.787 251.202 127.894 251.37 127.943C253.4 128.79 259.178 129.259 265.539 134.824C266.6 135.6 267.479 136.6 268.114 137.752C268.75 138.904 269.127 140.182 269.219 141.496C269.338 144.48 269.129 147.468 268.595 150.407C266.003 150.569 264.254 150.407 261.922 150.361C261.961 149.381 261.034 149.012 259.499 146.512C259.01 145.716 258.681 144.792 258.174 144.01C257.932 143.701 257.623 143.452 257.271 143.281C256.918 143.11 256.531 143.022 256.14 143.024C252.241 142.206 248.436 140.993 244.783 139.404C244.302 139.244 243.845 139.957 244.279 140.299C247.26 142.386 250.661 143.793 254.243 144.421C255.181 144.629 256.397 144.577 256.963 145.43C257.85 147.231 258.955 148.916 260.254 150.446C259.476 150.768 259.137 151.524 258.7 152.21C252.612 162.183 247.536 172.742 243.549 183.729C241.839 187.69 240.396 191.762 239.229 195.916C239.111 196.419 239.853 196.786 240.099 196.283C243.281 189.959 247.745 173.673 258.195 155.899C259.212 154.439 260.12 152.905 260.913 151.312C260.94 151.33 260.972 151.338 261.005 151.335C262.788 151.743 264.614 151.935 266.444 151.908C267.71 152.031 268.986 151.984 270.24 151.768C269.678 156.731 269.452 161.703 268.784 166.659C266.452 183.725 263.184 192.023 253.793 206.289C243.079 222.552 235.163 228.713 225.844 242.62C221.844 248.592 216.601 257.949 216.041 265.023C203.554 262.706 190.741 262.8 178.289 265.299C177.672 261.485 176.321 257.829 174.312 254.532C168.12 243.127 158.623 235.26 150.363 227.066C125.819 202.717 123.843 184.434 129.524 164.933C131.005 159.848 133.06 154.958 134.643 149.906C134.83 149.312 133.892 148.901 133.636 149.471C125.436 167.758 121.626 183.902 129.73 201.998C141.14 227.485 164.638 236.555 174.658 259.15C175.594 261.258 176.211 263.504 177.127 265.614C176.989 265.659 176.852 265.687 176.711 265.728C172.361 267.069 173.214 270.069 173.397 276.449C161.863 274.434 150.229 273.035 138.547 272.256C114.947 270.968 101.221 279.52 92.8887 307.557C86.0683 330.509 82.3826 359.353 80.9827 383.172C80.9843 383.421 81.0661 383.663 81.2161 383.861C81.3661 384.06 81.5761 384.204 81.8147 384.273C102.204 388.581 123.152 389.579 143.857 387.227C144.152 387.221 144.433 387.1 144.641 386.891C144.85 386.683 144.971 386.401 144.978 386.106C143.913 364.676 144.639 343.196 147.148 321.888C144.959 321.044 142.843 320.026 140.818 318.841C140.084 318.412 138.434 317.693 138.875 316.548C140.202 313.122 144.491 323.664 176.261 323.741C176.833 320.067 182.476 300.416 185.357 298.177C185.416 298.12 185.49 298.081 185.57 298.065C185.651 298.05 185.734 298.059 185.81 298.09C185.885 298.122 185.95 298.176 185.995 298.244C186.04 298.313 186.064 298.393 186.064 298.475C186.243 301.267 184.781 302.114 181.488 312.236C174.687 333.199 173.819 355.123 176.209 368.335C178.876 383.064 188.558 387.04 203.563 388.143C227.51 389.915 250.559 387.588 272.145 385.795C272.075 386.657 272.057 387.522 272.091 388.387C272.141 389.738 272 391.479 273.004 392.486C273.064 392.546 273.137 392.591 273.217 392.618C273.298 392.646 273.383 392.654 273.467 392.643C273.551 392.632 273.631 392.602 273.702 392.554C273.772 392.507 273.831 392.445 273.874 392.371C274.262 391.076 274.294 389.699 273.965 388.387C273.249 368.495 274.143 348.578 276.64 328.831Z" fill="#191919"/>
</svg>
