<svg width="486" height="485" viewBox="0 0 486 485" fill="none" xmlns="http://www.w3.org/2000/svg">
<path d="M293.751 334.953C292.808 336.35 291.811 337.597 290.814 338.645C268.252 339.862 239.86 340.603 217.36 338.594C216.417 337.447 215.629 336.2 215 334.751C230.415 336.299 255.11 337.146 293.749 334.95L293.751 334.953Z" fill="#6E93FC"/>
<path d="M319.06 333.194C311.427 333.807 304.236 334.3 297.47 334.703C296.685 335.95 295.793 337.197 294.796 338.395C302.332 337.958 310.401 337.414 319.019 336.727C319.019 335.519 319.036 334.344 319.06 333.194Z" fill="#6E93FC"/>
<path d="M321.329 346.679C321.015 346.878 320.694 347.223 320.227 347.676C319.218 348.662 318.234 349.622 317.186 350.52C307.486 351.168 298.574 351.616 290.394 351.966C289.868 350.869 289.45 349.719 289.188 348.472C298.834 348.123 309.477 347.523 321.329 346.677V346.679Z" fill="#6E93FC"/>
<path d="M299.517 316.139C299.571 317.287 299.517 318.485 299.517 319.681C273.765 321.324 237.936 322.631 212.274 319.63C212.274 318.483 212.22 317.236 212.22 315.989C247.449 320.096 299.763 316.139 299.517 316.139Z" fill="#6E93FC"/>
<path d="M320.12 318.176C320.269 316.97 320.427 315.797 320.595 314.652C314.284 315.165 308.276 315.612 302.559 315.991C302.663 317.19 302.61 318.337 302.559 319.485C308.135 319.115 313.984 318.678 320.12 318.176Z" fill="#6E93FC"/>
<path d="M294.118 300.669C269.131 302.192 237.732 303.066 212.85 300.42C212.904 299.221 213.008 298.025 213.059 296.778C228.003 298.474 252.435 299.473 291.39 297.326C292.438 298.423 293.332 299.573 294.118 300.669Z" fill="#6E93FC"/>
<path d="M324.435 295C313.658 295.919 303.737 296.636 294.587 297.178C295.53 298.175 296.369 299.274 297.208 300.47C305.393 299.968 314.205 299.348 323.667 298.561C323.925 297.372 324.182 296.187 324.433 295H324.435Z" fill="#6E93FC"/>
<path d="M261.819 282.656C246.751 283.029 228.37 282.765 213.269 281.159C213.215 279.861 213.111 278.614 212.902 277.467C223.44 278.665 238.748 279.512 260.56 279.114C260.873 280.361 261.294 281.56 261.819 282.656Z" fill="#6E93FC"/>
<path d="M322.476 279.29C305.174 280.736 289.817 281.758 276.607 282.207C277.446 280.81 277.971 279.613 278.389 278.614C290.5 278.165 304.394 277.286 319.86 276.036C320.803 277.085 321.637 278.142 322.476 279.29Z" fill="#6E93FC"/>
<path d="M266.591 255.909C266.12 256.707 265.699 257.506 265.227 258.355C259.933 258.505 254.951 258.554 250.284 258.554C219.478 258.554 201.262 255.469 201.262 255.111C199.898 253.713 198.43 252.216 196.806 250.569C195.991 250.569 214.885 255.645 260.509 254.861C263.708 256.059 266.275 255.159 266.591 255.909Z" fill="#6E93FC"/>
<path d="M219.456 232.854C208.365 232.819 199.256 232.46 191.815 231.938C192.824 232.78 193.31 234.2 193.531 235.688C206.002 236.454 219.125 236.577 223.073 236.396C221.709 235.249 220.503 234.052 219.456 232.854Z" fill="#6E93FC"/>
<path d="M210.122 216.038C197.014 215.938 186.792 215.39 178.823 214.64C178.718 213.543 178.665 212.294 178.665 210.998C186.32 211.748 196.229 212.296 208.917 212.396C209.337 213.643 209.704 214.842 210.122 216.038Z" fill="#6E93FC"/>
<path d="M203.639 194.475C194.36 194.325 185.637 194.131 179.19 193.582C179.19 192.284 179.295 191.088 179.399 190.04C185.324 190.54 193.468 190.734 201.908 190.882C202.538 192.081 203.114 193.277 203.639 194.475Z" fill="#6E93FC"/>
<path d="M182.966 166.486C182.966 168.182 181.653 168.083 181.184 166.935C180.551 165.389 178.507 159.001 177.984 157.404C177.773 156.757 177.306 155.963 178.351 155.609C180.447 154.896 182.966 164.517 182.966 166.486Z" fill="#191919"/>
<path d="M185.168 154.46C187.108 154.96 189.308 166.7 186.374 166.437C184.801 166.295 185.871 165.229 184.538 157.205C184.39 156.305 184.118 155.208 185.168 154.46Z" fill="#191919"/>
<path d="M190.096 160.497C189.887 157.054 189.838 156.256 189.938 155.605C190.1 154.557 191.039 154.608 191.457 155.205C193.501 158.548 192.823 167.024 190.356 166.233C189.412 165.929 189.726 165.034 190.147 160.494H190.093L190.096 160.497Z" fill="#191919"/>
<path d="M250.862 231.207C256.945 231.457 256.835 226.572 258.359 227.415C260.453 228.572 254.139 235.582 249.185 232.306C248.288 231.714 248.188 230.709 250.862 231.258V231.207Z" fill="#191919"/>
<path d="M247.925 223.673C248.134 221.378 248.241 219.422 249.236 219.531C250.074 219.624 249.972 220.679 249.916 221.528C249.717 224.573 249.022 225.077 251.698 225.869C255.785 227.076 247.716 230.26 247.925 223.673Z" fill="#191919"/>
<path d="M257.154 218.035C259.198 218.435 258.365 221.707 256.787 221.378C255.01 221.006 255.528 217.935 257.154 218.035Z" fill="#191919"/>
<path d="M243.311 218.432C244.937 218.631 245.146 221.725 243.311 221.776C241.529 221.824 241.58 218.631 243.311 218.432Z" fill="#191919"/>
<path d="M197.134 184.341C213.789 207.532 202.635 232.886 243.783 247.626C254.373 251.418 254.147 249.636 255.999 251.668C261.056 257.214 266.18 254.81 266.642 255.909C262.388 263.109 259.699 269.255 260.404 277.416C261.112 285.618 268.789 292.432 274.247 285.65C281.002 277.254 277.959 272.853 282.636 276.617C286.669 279.864 290.09 275.472 291.235 271.229C292.555 266.34 291.76 260.15 292.754 258.454C307.37 262.492 319.075 273.329 326.305 285.185C326.599 283.353 326.864 281.465 327.088 279.503C326.144 278.2 325.15 276.937 324.107 275.722C316.637 267.015 309.881 260.976 298.995 256.809H298.941C295.691 255.562 293.542 254.963 292.859 253.665C291.937 252.496 292.915 245.222 284.576 233.604C282.794 231.121 280.852 228.752 278.861 226.419C273.802 220.491 283.268 218.071 279.019 206.757C269.688 181.932 235.479 190.144 237.336 211.997C237.336 212.768 237.411 212.89 237.178 214.492C235.433 226.521 240.523 242.297 253.379 242.936C255.318 243.033 255.435 243.134 255.318 244.932C255.083 248.526 256.67 249.551 235.763 241.438C213.094 232.643 212.165 208.193 204.252 191.088C200.43 182.825 197.375 180.289 194.29 177.462C196.614 170.907 198.663 167.214 198.685 161.584C198.702 157.223 196.949 156.397 195.653 164.641C195.019 168.683 192.719 172.177 191.615 176.117C191.406 176.865 190.777 176.719 190.201 176.666C181.702 175.872 182.421 177.205 180.972 173.072C179.587 169.12 177.513 159.449 175.152 160.397C174.418 160.647 174.523 161.247 174.785 161.746C176.305 165.141 176.917 168.722 177.985 172.226C179.285 176.506 180.1 177.23 178.614 178.912C177.173 180.546 176.259 191.148 176.098 193.283C175.597 199.892 175.571 209.566 175.782 214.242C176.139 222.079 176.813 224.608 178.225 228.314C179.122 228.726 179.888 229.49 180.292 230.561C180.442 230.961 180.605 231.51 180.763 232.107C181.089 230.933 181.651 230.096 182.322 229.559C181.471 227.248 180.739 224.739 180.18 222.018C177.985 211.349 179.027 189.5 180.311 183.135C180.997 179.732 181.823 179.72 183.017 179.611C190.694 178.915 194.029 180.021 197.134 184.343V184.341ZM239.065 217.935C238.868 212.261 245.83 215.746 246.141 213.494C246.307 212.298 242.891 211.1 239.065 212.696C239.118 212.446 239.223 212.196 239.378 211.949C242.514 202.629 258.805 203.635 262.709 210.75C263.837 212.805 263.924 215.13 264.073 217.587C264.204 219.786 266.015 221.583 267.953 220.133C271.208 217.694 273.909 218.927 273.038 221.38C271.75 225.012 268.057 223.532 268.057 231.26C268.057 232.609 267.933 233.754 267.848 234.753C267.233 241.98 266.917 241.679 267.953 246.98C268.176 248.125 268.22 249.275 268.215 250.423C268.188 256.312 255.632 252.019 257.047 247.727C258.199 244.234 256.16 242.998 258.357 242.04C266.064 238.675 266.176 231.454 263.652 233.856C262.787 234.679 262.573 235.052 261.45 236.35C253.551 245.485 239.821 239.766 239.062 217.937L239.065 217.935Z" fill="#191919"/>
<path d="M322.133 345.797C316.668 352.033 309.321 357.079 299.831 360.101C298.416 360.552 297.317 360.4 296.318 359.402C292.55 355.643 288.978 351.711 288.978 346.378C288.978 345.131 289.127 344.173 290.131 343.285C303.715 331.285 306.463 313.68 297.208 300.47C291.475 292.289 282.485 287.879 282.213 290.738C282.089 292.034 284.756 290.812 289.657 295.53C295.535 301.185 299.247 308.092 299.515 316.139C299.553 317.287 299.515 318.485 299.515 319.682C298.28 332.188 288.842 342.442 284.466 343.134C264.632 346.281 248.079 346.785 236.755 346.029C227.159 345.388 221.072 343.039 217.409 338.592C206.999 325.966 215.858 293.365 212.952 277.464C212.272 272.031 210.835 267.973 208.63 264.294C206.435 260.634 202.314 256.045 198.85 252.533C197.579 251.244 195.429 249.379 193.003 246.767C192.738 248.452 192.417 249.962 192.055 251.351C192.75 252.063 193.465 252.76 194.207 253.433C203.42 261.821 208.037 268.308 209.179 280.609C210.434 294.1 202.528 336.767 216.256 343.035C219.225 344.388 218.945 346.033 218.51 349.071C218.206 350.224 215.59 369.22 217.409 374.271C217.785 375.317 269.943 376.793 286.248 376.217C287.717 376.166 289.132 376.231 290.6 376.367C293.009 376.589 297.677 376.467 298.097 376.518C302.028 376.767 297.516 364.474 300.771 363.644C311.222 360.978 319.114 355.619 325.133 348.146C323.961 347.449 322.962 346.67 322.133 345.797ZM279.906 359.851C279.225 359.252 278.527 358.694 279.223 357.656C280.813 355.289 282.816 353.463 285.41 352.116C285.782 351.924 286.144 351.716 286.564 351.568C286.615 351.718 286.722 351.917 286.827 352.068C291.546 362.047 296.422 361.55 296.527 365.691C290.6 363.877 284.999 364.342 279.906 359.854V359.851Z" fill="#191919"/>
<path d="M259.145 213.842C253.906 211.984 253.072 214.485 252.119 213.294C250.717 211.537 257.567 209.244 260.142 212.296C260.91 213.208 260.404 214.291 259.145 213.844V213.842Z" fill="#191919"/>
<path d="M103.638 307.157C105.172 307.157 106.417 305.972 106.417 304.512C106.417 303.052 105.172 301.868 103.638 301.868C102.103 301.868 100.859 303.052 100.859 304.512C100.859 305.972 102.103 307.157 103.638 307.157Z" fill="#6E93FC"/>
<path d="M81.9311 325.871C83.4659 325.871 84.7098 324.687 84.7098 323.227C84.7098 321.767 83.4659 320.582 81.9311 320.582C80.3964 320.582 79.1525 321.767 79.1525 323.227C79.1525 324.687 80.3964 325.871 81.9311 325.871Z" fill="#6E93FC"/>
<path d="M111.816 336.001C113.351 336.001 114.595 334.817 114.595 333.357C114.595 331.897 113.351 330.712 111.816 330.712C110.281 330.712 109.037 331.897 109.037 333.357C109.037 334.817 110.281 336.001 111.816 336.001Z" fill="#6E93FC"/>
<path d="M63.8946 346.73C65.4294 346.73 66.6733 345.545 66.6733 344.085C66.6733 342.625 65.4294 341.441 63.8946 341.441C62.3602 341.441 61.116 342.625 61.116 344.085C61.116 345.545 62.3602 346.73 63.8946 346.73Z" fill="#6E93FC"/>
<path d="M93.6754 349.423C95.2101 349.423 96.4541 348.238 96.4541 346.778C96.4541 345.318 95.2101 344.134 93.6754 344.134C92.1409 344.134 90.8967 345.318 90.8967 346.778C90.8967 348.238 92.1409 349.423 93.6754 349.423Z" fill="#6E93FC"/>
<path d="M65.3632 312.446C66.8979 312.446 68.1418 311.262 68.1418 309.802C68.1418 308.342 66.8979 307.157 65.3632 307.157C63.8287 307.157 62.5845 308.342 62.5845 309.802C62.5845 311.262 63.8287 312.446 65.3632 312.446Z" fill="#6E93FC"/>
<path d="M81.9311 294.283C83.4659 294.283 84.7098 293.099 84.7098 291.639C84.7098 290.179 83.4659 288.994 81.9311 288.994C80.3964 288.994 79.1525 290.179 79.1525 291.639C79.1525 293.099 80.3964 294.283 81.9311 294.283Z" fill="#6E93FC"/>
<path d="M55.141 281.608C56.6757 281.608 57.9197 280.424 57.9197 278.964C57.9197 277.504 56.6757 276.319 55.141 276.319C53.6063 276.319 52.3623 277.504 52.3623 278.964C52.3623 280.424 53.6063 281.608 55.141 281.608Z" fill="#6E93FC"/>
<path d="M100.859 263.244C102.394 263.244 103.638 262.059 103.638 260.599C103.638 259.139 102.394 257.954 100.859 257.954C99.3248 257.954 98.0806 259.139 98.0806 260.599C98.0806 262.059 99.3248 263.244 100.859 263.244Z" fill="#6E93FC"/>
<path d="M144.533 325.871C146.067 325.871 147.312 324.687 147.312 323.227C147.312 321.767 146.067 320.582 144.533 320.582C142.998 320.582 141.754 321.767 141.754 323.227C141.754 324.687 142.998 325.871 144.533 325.871Z" fill="#6E93FC"/>
<path d="M172.531 328.516C174.066 328.516 175.31 327.331 175.31 325.871C175.31 324.411 174.066 323.227 172.531 323.227C170.996 323.227 169.752 324.411 169.752 325.871C169.752 327.331 170.996 328.516 172.531 328.516Z" fill="#6E93FC"/>
<path d="M156.068 344.085C157.602 344.085 158.847 342.901 158.847 341.441C158.847 339.981 157.602 338.796 156.068 338.796C154.533 338.796 153.289 339.981 153.289 341.441C153.289 342.901 154.533 344.085 156.068 344.085Z" fill="#6E93FC"/>
<path d="M158.847 307.157C160.382 307.157 161.625 305.972 161.625 304.512C161.625 303.052 160.382 301.868 158.847 301.868C157.312 301.868 156.068 303.052 156.068 304.512C156.068 305.972 157.312 307.157 158.847 307.157Z" fill="#6E93FC"/>
<path d="M183.488 296.928C185.023 296.928 186.267 295.743 186.267 294.283C186.267 292.823 185.023 291.639 183.488 291.639C181.953 291.639 180.709 292.823 180.709 294.283C180.709 295.743 181.953 296.928 183.488 296.928Z" fill="#6E93FC"/>
<path d="M170.382 278.964C171.917 278.964 173.161 277.779 173.161 276.319C173.161 274.859 171.917 273.675 170.382 273.675C168.848 273.675 167.604 274.859 167.604 276.319C167.604 277.779 168.848 278.964 170.382 278.964Z" fill="#6E93FC"/>
<path d="M114.648 281.608C116.183 281.608 117.427 280.424 117.427 278.964C117.427 277.504 116.183 276.319 114.648 276.319C113.114 276.319 111.87 277.504 111.87 278.964C111.87 280.424 113.114 281.608 114.648 281.608Z" fill="#6E93FC"/>
<path d="M30.8646 315.091C32.3993 315.091 33.6433 313.907 33.6433 312.447C33.6433 310.984 32.3993 309.802 30.8646 309.802C29.3301 309.802 28.0859 310.984 28.0859 312.447C28.0859 313.907 29.3301 315.091 30.8646 315.091Z" fill="#6E93FC"/>
<path d="M43.0804 338.694C44.6152 338.694 45.8591 337.509 45.8591 336.049C45.8591 334.589 44.6152 333.405 43.0804 333.405C41.546 333.405 40.3018 334.589 40.3018 336.049C40.3018 337.509 41.546 338.694 43.0804 338.694Z" fill="#6E93FC"/>
<path d="M30.8646 365.791C32.3993 365.791 33.6433 364.606 33.6433 363.146C33.6433 361.686 32.3993 360.502 30.8646 360.502C29.3301 360.502 28.0859 361.686 28.0859 363.146C28.0859 364.606 29.3301 365.791 30.8646 365.791Z" fill="#6E93FC"/>
<path d="M138.976 286.949C140.51 286.949 141.754 285.764 141.754 284.304C141.754 282.844 140.51 281.659 138.976 281.659C137.441 281.659 136.197 282.844 136.197 284.304C136.197 285.764 137.441 286.949 138.976 286.949Z" fill="#6E93FC"/>
<path d="M190.567 264.593C189.291 260.507 186.32 261.897 185.902 260.8C188.156 255.011 190.599 250.425 191.041 239.891C191.107 238.345 191.25 233.708 189.626 233.652C186.952 233.562 188.535 244.567 184.12 256.858C182.849 260.398 183.806 261.337 181.708 261.099C171.911 259.993 171.172 262.545 169.806 259.602C165.518 250.365 165.967 248.417 164.667 241.737C163.753 237.04 157.799 243.084 167.759 261.448C166.553 262.096 165.141 262.249 164.3 263.545C154.223 279.04 155.716 281.051 153.761 278.415C145.223 266.897 133.987 258.725 120.205 253.665C117.636 252.721 117.653 252.769 118.212 250.023C119.615 243.144 117.322 234.601 112.341 228.266C104.533 218.333 111.694 209.818 101.54 198.476C94.135 190.204 85.9642 190.028 75.9532 192.687C71.2856 193.927 76.6339 189.343 78.2602 186.599C74.2758 186.4 72.9119 189.295 70.8164 191.888C70.8164 188.295 72.7029 185.801 73.9622 183.006C69.5571 183.855 66.3457 188.298 67.1455 192.187C67.3011 192.937 67.7752 193.684 66.3579 194.084C55.0341 197.277 45.993 209.707 49.3187 223.627C50.3081 227.771 49.9896 231.704 46.4865 237.449C35.5468 255.395 46.9679 264.255 44.0749 267.291C5.62064 307.627 19.745 383.843 23.8899 371.835C24.2522 370.784 10.721 304.159 46.4355 268.788C54.2974 261.002 72.4403 251.571 73.07 254.616C73.1283 264.417 88.6943 265.558 90.4762 256.661C90.8968 255.564 90.4398 254.664 90.4227 253.718C90.3693 250.772 90.1602 251.018 103.373 251.971C114.383 252.765 140.118 263.57 152.29 281.412C153.922 283.804 143.111 307.014 144.426 311.102C144.844 312.4 146.091 312.245 146.524 311.301C146.983 310.297 159.477 265.409 169.383 264.493C174.68 264.003 179.973 264.442 185.27 264.493C186.58 264.505 187.378 265.09 187.681 266.34C189.092 272.117 192.028 282.009 191.561 292.988C188.428 366.791 137.984 346.082 137.454 337.998C136.622 325.323 135.47 320.929 131.634 308.307C123.213 280.606 124.231 282.164 123.456 280.562C122.926 279.468 121.521 279.565 121.358 281.011C121.256 281.909 122.194 286.551 122.406 287.448C128.493 313.069 133.372 315.797 134.57 346.582C134.617 347.78 134.155 348.144 132.998 348.377C116.787 351.672 70.5927 353.255 58.0753 352.07C56.1864 351.892 56.1548 351.971 56.1353 350.275C55.6637 309.448 61.3791 297.729 61.4836 296.282C61.5906 294.785 59.7114 294.492 58.6004 296.581C54.1856 304.885 52.4353 331.211 52.5714 344.386C52.9118 377.17 57.1855 374.526 58.9164 374.775C70.8091 375.483 117.67 374.095 118.898 373.878C124.559 374.227 133.054 373.436 135.414 373.528C138.139 373.635 137.93 362.001 137.93 343.937C141.601 346.133 146.896 349.986 158.587 349.925C175.259 349.84 183.6 339.199 189.048 324.076C196.866 302.37 196.465 283.48 190.567 264.593ZM82.0381 259.602C72.7588 259.731 76.5853 249.521 76.0091 243.734C80.0471 244.882 83.611 244.683 87.2818 243.334C87.9115 252.117 90.4787 259.484 82.0381 259.602ZM100.441 219.98C97.9201 224.171 94.7695 222.276 94.8302 226.917C95.015 240.89 79.5949 247.709 70.0312 236.697C65.4292 231.399 67.1601 229.668 63.1635 228.613C61.3864 228.143 58.5469 227.465 59.23 225.119C60.6887 220.126 65.2177 226.422 69.7686 219.43C75.9678 209.906 73.7045 208.284 76.3737 208.95C84.3573 210.943 90.96 221.933 95.1438 217.882C97.5603 215.542 102.272 216.933 100.439 219.978L100.441 219.98Z" fill="#191919"/>
<path d="M171.535 235.249C171.535 238.742 172.478 243.382 172.531 246.876C172.553 248.322 170.893 249.076 170.12 247.276C168.946 244.539 166.352 229.124 170.433 229.86C171.746 230.096 171.481 231.607 171.481 235.249H171.535Z" fill="#191919"/>
<path d="M175.677 242.385C176.253 238.044 174.867 234.895 175.519 231.556C175.772 230.258 177.306 230.057 177.826 231.406C179.25 235.096 180.079 247.885 176.725 247.425C175.307 247.23 175.623 245.629 175.623 242.334L175.677 242.385Z" fill="#191919"/>
<path d="M185.953 236.099C185.115 251.319 180.909 248.672 181.077 246.876C181.174 245.828 181.573 246.918 182.859 235.198C183.007 233.85 183.223 231.129 184.641 231.307C186.002 231.478 185.846 234.949 185.951 236.096L185.953 236.099Z" fill="#191919"/>
<path d="M73.5954 231.706C73.0703 230.309 74.4365 229.758 75.2728 230.658C80.3707 236.137 83.5481 231.16 84.4476 233.053C85.5902 235.453 75.7444 237.743 73.5419 231.706H73.5954Z" fill="#191919"/>
<path d="M84.0286 226.918C84.0286 228.264 82.9833 229.856 81.8261 229.364C80.4137 228.76 82.9298 227.665 81.1454 225.421C80.1511 224.171 78.78 222.619 79.7816 221.827C81.1867 220.719 83.715 225.171 84.0286 226.966V226.918Z" fill="#191919"/>
<path d="M86.4942 222.224C84.9213 222.074 84.3427 218.992 86.2316 219.131C87.7 219.24 88.3807 222.176 86.4942 222.224Z" fill="#191919"/>
<path d="M73.6998 224.77C73.4907 226.216 71.1885 226.167 70.9746 223.773C70.8214 222.077 73.8578 222.475 73.6998 224.77Z" fill="#191919"/>
<path d="M285.963 98.0835C290.944 98.9836 293.348 101.827 294.036 106.418C295.594 116.8 293.567 133.265 291.415 142.247C288.535 154.274 265.564 145.988 259.433 154.124C251.199 165.049 253.87 162.328 248.213 172.636C246.465 175.82 244 174.587 243.39 172.088C237.612 148.471 241.922 152.266 217.908 150.78C208.157 150.176 200.118 147.388 199.084 138.156C198.338 131.472 198.413 119.993 200.657 106.17C201.605 100.332 204.644 98.6388 208.259 97.7873C220.059 95.0062 266.089 94.4994 285.96 98.0858L285.963 98.0835ZM246.324 169.242C252.458 157.516 257.019 146.176 270.81 146.687C275.161 146.849 282.87 145.692 285.491 144.741C288.639 143.598 289.354 139.35 289.738 136.157C291.248 123.575 292.611 116.497 291.206 106.017C290.732 102.475 288.792 102.082 285.491 101.376C272.273 98.5555 223.514 98.0673 208.733 101.277C201.182 102.915 202.505 125.979 202.704 136.705C202.981 151.676 227.45 145.292 236.364 148.432C243.599 150.979 243.862 157.164 246.273 169.24H246.327L246.324 169.242Z" fill="#6E93FC"/>
<path d="M220.844 122.285C220.582 116.647 220.429 116.098 220.74 115.05C221.109 113.803 222.687 113.4 223.205 115.05C224.425 118.937 224.289 126.527 224.097 130.569C224.039 131.767 223.993 132.92 222.578 133.114C220.324 133.422 220.716 128.773 220.847 126.578C220.976 124.433 219.381 125.245 214.242 125.68C212.406 125.835 213.036 126.777 212.982 131.617C212.958 133.813 210.87 133.466 210.517 131.716C210.026 129.275 210.046 130.27 210.097 116.397C210.109 113.123 212.09 113.479 212.45 115.108C212.992 117.558 212.059 122.938 214.499 122.635C216.493 122.387 218.537 121.936 220.895 122.336L220.844 122.285Z" fill="#6E93FC"/>
<path d="M231.434 123.232C233.216 123.081 237.869 122.385 238.039 124.328C238.282 127.075 231.388 125.226 231.485 127.521C231.597 130.166 231.116 129.942 233.846 130.166C237.983 130.504 239.787 130.161 240.242 131.862C240.896 134.301 233.95 133.26 231.067 133.061C227.501 132.813 228.366 130.117 228.288 117.891C228.274 115.746 228.6 114.839 230.07 114.497C232.059 114.037 240.254 113.447 240.504 115.395C240.67 116.69 237.884 117.234 236.729 117.19C230.282 116.952 231.485 116.741 231.485 123.229H231.432L231.434 123.232Z" fill="#6E93FC"/>
<path d="M285.07 123.033C284.866 132.963 276.746 137.098 272.541 130.319C269.718 125.772 270.224 117.982 275.006 114.351C279.557 110.897 285.233 115.249 285.073 123.035L285.07 123.033ZM275.686 117.792C271.101 125.064 276.112 135.363 280.563 129.319C285.447 122.688 279.911 111.093 275.686 117.792Z" fill="#6E93FC"/>
<path d="M246.796 116.198C247.491 129.366 245.486 130.937 248.002 130.87C252.407 130.752 253.192 130.673 254.974 131.37C256.126 131.821 255.92 133.17 254.974 133.515C253.457 134.07 247.844 133.913 247.005 133.864C244.124 133.7 242.957 134.19 244.217 116.754C244.508 112.718 246.65 113.456 246.796 116.198Z" fill="#6E93FC"/>
<path d="M258.331 114.701C258.961 113.204 260.334 113.749 260.585 114.65C261.35 117.387 261.056 122.734 261.056 127.174C261.056 129.12 260.585 130.418 262.525 130.319C263.205 130.319 268.026 130.124 268.607 130.469C269.806 131.179 269.555 132.579 268.502 132.815C265.157 133.56 258.409 134.162 258.384 130.719C258.384 130.531 258.258 114.877 258.331 114.701Z" fill="#6E93FC"/>
<path d="M142.728 107.01C153.663 108.574 153.408 112.346 155.275 124.47C156.444 132.052 156.062 139.639 155.746 147.224C155.068 163.492 134.672 160.269 116.949 162.194C110.449 162.9 106.78 164.945 91.2581 181.505C88.7857 184.143 87.7501 184.987 86.4349 184.399C84.5023 183.536 85.1854 181.507 85.9633 178.71C92.3886 155.576 90.3173 161.275 76.5795 159.547C69.7653 158.689 64.716 157.703 63.2087 151.863C62.2558 148.172 60.2599 132.402 60.1675 127.411C59.8053 107.901 63.3133 108.745 78.466 106.751C95.5878 104.5 133.233 105.652 142.728 107.01ZM108.322 161.41C111.728 159.327 115.321 158.207 120.098 158.052C141.593 157.349 151.73 157.552 152.08 145.977C152.319 138.043 152.404 122.32 149.827 114.738C149.149 112.741 147.78 111.709 145.684 111.295C129.564 108.111 89.7436 108.91 72.0213 110.997C62.2169 112.151 61.1253 112.542 65.1536 146.627C65.7322 151.516 66.6219 154.461 71.1315 155.359C86.6756 158.453 93.1543 154.339 92.7119 163.173C92.4275 168.823 89.6609 177.421 89.9016 178.263C90.9299 177.65 101.96 165.304 108.326 161.412L108.322 161.41Z" fill="#6E93FC"/>
<path d="M125.497 139.988C119.006 132.445 128.637 120.832 135.722 127.913C143.265 135.453 132.746 148.413 125.497 139.988ZM135.406 134C135.141 127.903 129.16 126.763 126.911 130.557C124.546 134.546 127.225 139.829 131.21 139.488C133.621 139.283 135.529 136.892 135.403 134H135.406Z" fill="#6E93FC"/>
<path d="M110.082 127.563C115.797 122.024 121.666 141.568 118.522 142.084C116.162 142.471 116.801 138.123 115.586 137.593C114.754 137.23 113.646 137.577 112.231 137.593C107.984 137.644 109.231 138.109 107.67 141.436C107.364 142.089 106.994 142.815 106.097 142.584C103.593 141.936 108.246 129.409 110.135 127.563H110.082ZM109.715 134.898C111.601 134.798 113.174 134.699 114.905 134.599C114.117 132.702 113.646 130.957 112.126 129.56C110.048 132.278 109.715 135.194 109.715 134.898Z" fill="#6E93FC"/>
<path d="M86.2259 140.389C89.0581 139.889 90.7501 139.285 91.2071 140.338C92.0215 142.223 87.3272 143.642 85.2827 143.531C73.5334 142.894 73.3851 129.618 81.6653 126.314C86.2818 124.472 88.2704 127.311 84.0769 128.211C77.3137 129.659 76.2659 140.736 86.2259 140.386V140.389Z" fill="#6E93FC"/>
<path d="M99.5967 136.946C99.5967 140.139 100.122 142.559 98.0238 142.584C95.9793 142.61 96.3197 139.94 96.2929 136.946C96.2832 135.798 96.186 131.057 96.3975 129.56C96.6576 127.714 98.7604 127.913 98.9671 129.56C99.5578 134.299 99.4387 136.147 99.4387 136.946H99.5967Z" fill="#6E93FC"/>
<path d="M96.869 122.973C99.1225 122.973 98.8089 125.927 96.7644 125.768C94.98 125.627 95.0335 123.072 96.869 122.973Z" fill="#6E93FC"/>
<path d="M412.331 105.56C465.918 105.241 460.959 108.159 463.502 124.723C464.645 132.16 464.246 139.594 463.974 147.028C463.164 169.136 427.153 155.048 414.426 166.839C396.894 183.086 397.079 185.34 394.555 184.303C390.736 182.737 398.457 170.784 397.438 162.197C397.059 159.004 396.391 160.795 385.64 159.604C378.406 158.801 373.094 157.81 371.485 152.218C369.576 145.587 366.221 121.271 370.07 112.597C373.361 105.174 404.265 105.609 412.328 105.56H412.331ZM412.752 164.044C427.588 150.372 459.34 165.543 460.254 146.329C460.689 137.199 460.514 128.016 459.102 118.934C458.419 114.542 457.58 111.863 453.595 111.199C438.328 108.659 391.195 108.224 376.104 111.699C371.592 112.738 371.001 115.292 371.28 127.618C371.38 131.958 373.269 147.479 374.373 151.172C377.613 162.003 402.439 150.524 401.061 163.549C399.089 182.163 390.943 184.158 412.805 164.097L412.752 164.044Z" fill="#6E93FC"/>
<path d="M436.994 124.25C443.907 117.55 451.005 141.189 447.203 141.813C444.348 142.28 445.121 137.022 443.651 136.381C442.646 135.942 441.305 136.362 439.594 136.381C434.457 136.443 435.965 137.005 434.078 141.029C433.707 141.818 433.26 142.697 432.175 142.417C429.147 141.634 434.775 126.483 437.059 124.25H436.994ZM436.55 133.121C438.832 133.001 440.734 132.88 442.828 132.76C441.875 130.465 441.305 128.355 439.467 126.665C436.953 129.953 436.55 133.479 436.55 133.121Z" fill="#6E93FC"/>
<path d="M392.297 131.608C392.034 125.97 391.881 125.421 392.192 124.373C392.562 123.126 394.14 122.723 394.657 124.373C395.878 128.26 395.742 135.85 395.55 139.892C395.491 141.09 395.445 142.243 394.03 142.437C391.777 142.745 392.168 138.096 392.299 135.901C392.428 133.756 390.833 134.568 385.694 135.003C383.859 135.158 384.488 136.1 384.435 140.94C384.411 143.136 382.322 142.789 381.97 141.039C381.479 138.598 381.498 139.593 381.549 125.72C381.561 122.446 383.543 122.802 383.902 124.431C384.445 126.881 383.511 132.261 385.952 131.958C387.945 131.71 389.99 131.259 392.348 131.659L392.297 131.608Z" fill="#6E93FC"/>
<path d="M413.806 132.097C413.602 142.028 405.483 146.162 401.277 139.383C398.454 134.836 398.96 127.046 403.742 123.415C408.293 119.961 413.969 124.313 413.809 132.099L413.806 132.097ZM404.423 126.856C399.838 134.128 404.848 144.427 409.299 138.383C414.183 131.752 408.648 120.158 404.423 126.856Z" fill="#6E93FC"/>
<path d="M417.707 123.587C418.337 122.09 419.71 122.636 419.961 123.536C420.727 126.273 420.432 131.621 420.432 136.061C420.432 138.007 419.961 139.305 421.901 139.205C422.581 139.205 427.402 139.011 427.983 139.356C429.182 140.066 428.931 141.466 427.879 141.702C424.534 142.447 417.785 143.048 417.761 139.605C417.761 139.418 417.634 123.763 417.707 123.587Z" fill="#6E93FC"/>
<path d="M418.796 252.316L428.496 255.06L448.786 267.386L462.837 279.862L468.394 304.064L459.271 325.321L437.984 340.39L426.974 341.938L417.17 329.863L410.458 327.917L400.182 333.854L399.029 339.044C408.282 347.91 405.537 345.638 411.35 349.472L416.278 343.634L425.034 342.637L428.127 344.285L428.336 353.116L422.097 356.011L395.621 356.46L392.738 336.947C394.982 309.307 393.715 321.191 398.558 283.952L407.365 256.307L418.796 252.316Z" fill="#6E93FC"/>
<path d="M380.627 243.584C348.802 311.063 362.17 346.133 350.9 346.381C344.032 346.531 337.172 346.205 330.61 343.986C324.642 341.966 321.479 338.896 331.554 291.44C340.198 250.719 322.512 231.813 338.212 153.512C338.842 150.368 344.188 151.46 351.687 150.569C358.451 149.764 352.361 181.194 363.694 212.796C367.38 223.072 369.799 223.079 369.41 226.42C368.863 231.115 371.926 235.652 378.166 235.802C377.379 241.64 381.689 241.346 380.631 243.586L380.627 243.584Z" fill="#6E93FC"/>
<path d="M461.369 277.967C454.183 269.035 441.48 259.287 431.642 254.912C427.966 253.278 434.683 254.213 434.158 245.978C451.985 244.731 449.325 227.771 436.412 223.423C435.364 223.071 435.062 222.479 435.364 221.477C435.857 219.837 436.193 218.131 436.779 216.537C440.282 207.035 435.16 194.751 422.098 192.585C413.555 191.169 415.388 189.642 409.41 189.642C401.074 189.642 391.892 198.224 390.586 203.913C390.324 205.061 389.957 205.78 388.384 205.711C384.134 205.519 385.605 209.441 383.719 209.353C377.481 209.064 372.48 210.797 371.345 216.639C370.705 219.929 373.499 220.885 371.974 221.778C370.09 222.882 360.94 204.582 357.818 159.403C357.587 156.059 357.043 152.797 355.983 149.572C355.538 148.216 354.78 147.406 353.309 147.177C350.535 146.742 354.327 145.932 352.888 135.002C351.602 125.223 343.949 119.073 348.223 130.312C350.175 135.446 351.473 147.667 347.489 147.478C343.086 147.267 341.022 149.197 337.475 146.779C333.63 144.16 328.228 141.846 324.997 132.209C322.624 125.126 318.129 140.592 336.899 149.574C333.544 158.257 330.972 172.129 329.822 181.312C323.198 234.205 332.309 245.634 330.399 271.935C328.481 298.33 321.538 308.661 321.642 337.605C321.664 343.294 325.359 346.355 331.133 347.984C333.279 348.59 332.472 349.18 331.762 359.461C330.812 373.214 332.46 376.402 333.756 376.106C338.38 376.24 407.942 378.14 427.597 371.564C428.229 371.594 428.822 371.161 428.917 370.541C429.354 367.649 427.9 360.504 427.081 357.667C426.274 354.865 429.549 356.571 430.332 352.077C431.226 346.938 428.657 344.261 431.642 343.743C461.719 338.535 481.651 303.18 461.369 277.974V277.967ZM401.074 194.63C409.901 188.052 414.131 193.975 422.309 195.429C432.376 197.217 438.483 206.197 432.952 220.929C430.686 226.963 435.527 224.666 440.24 229.013C445.752 234.097 443.955 241.254 437.933 242.438C433.261 243.357 430.208 241.038 430.75 245.381C431.141 248.521 430.699 250.826 427.183 251.818C421.682 253.373 418.332 248.681 414.967 252.367C412.458 255.118 408.109 254.408 406.369 251.069C405.379 249.169 405.426 247.177 405.426 245.132C405.426 242.237 406.267 240.398 409.619 239.541C417.014 237.658 417.59 230.869 423.724 230.209C428.759 229.668 432.211 225.126 428.076 222.125C424.716 219.686 423.678 222.368 421.468 219.881C418.804 216.88 415.174 210.949 414.075 206.407C413.025 202.067 412.612 207.537 396.197 210.001C393.839 210.355 394.722 208.962 393.681 208.205C390.09 205.593 397.546 197.259 401.074 194.63ZM389.488 340.293C384.035 340.293 359.034 341.091 359.394 337.549C364.122 290.801 367.117 287.948 383.145 245.432C383.575 244.289 383.563 243.287 384.771 243.537C386.24 243.838 385.248 244.935 385.19 245.583C383.874 260.611 398.453 262.899 405.165 254.863C410.723 256.71 399.98 257.908 394.68 296.431C388.659 340.196 393.052 340.293 389.488 340.293ZM402.384 253.116C398.004 258.524 390.071 256.259 388.542 252.168C387.499 249.373 386.507 244 389.223 242.487C391.17 241.402 391.267 237.796 392.264 236.598C402.489 244.782 404.2 237.442 402.698 244.683C401.477 250.569 404.438 250.581 402.384 253.116ZM389.959 208.555C393.161 209.945 391.27 212.243 395.466 212.097C401.337 211.891 407.419 210.052 411.561 208.055C413.659 212.495 418.322 223.999 423.777 223.326C426.712 222.963 430.429 226.473 421.208 227.967C416.433 228.74 416.073 234.166 407.837 237.35C396.569 241.705 388.053 231.607 390.849 219.335C392.099 213.844 389.339 212.042 388.228 210.353C386.879 208.3 388.228 207.803 389.959 208.555ZM374.126 223.176C375.857 222.428 376.119 221.676 374.807 220.281C372.084 217.384 374.542 213.386 377.376 212.248C380.257 211.091 385.092 210.996 385.45 211.549C388.561 216.348 388.175 213.446 388.175 222.178C387.757 225.871 388.333 229.814 390.273 233.507C390.902 234.705 388.989 237.685 387.652 240.044C386.582 241.929 383.42 240.925 381.677 239.643C378.032 236.966 383.93 233.372 378.584 233.257C370.613 233.083 370.197 224.874 374.128 223.178L374.126 223.176ZM330.608 343.986C324.64 341.966 321.477 338.896 331.551 291.44C340.196 250.719 322.51 231.813 338.21 153.512C338.839 150.367 344.185 151.46 351.685 150.569C358.448 149.764 352.358 181.194 363.692 212.796C367.377 223.071 369.796 223.078 369.407 226.419C368.86 231.114 371.923 235.652 378.164 235.8C377.379 241.638 381.686 241.344 380.629 243.586C348.804 311.065 362.172 346.136 350.9 346.383C344.032 346.534 337.174 346.207 330.61 343.988L330.608 343.986ZM431.746 340.143C427.918 341.284 422.365 336.598 420.736 332.558C416.346 321.674 445.856 292.84 446.269 292.289C447.013 291.296 445.749 290.299 444.855 290.792C441.563 292.608 431.049 302.009 424.198 312.898C415.631 326.51 417.802 329.166 415.337 327.968C401.446 321.225 394.525 345.934 400.918 337.2C405.01 331.612 409.04 327.375 416.018 330.862C418.218 331.961 415.337 333.805 422.99 341.191C422.098 342.339 415.954 339.143 411.036 347.778C410.266 349.132 411.141 350.872 413.448 347.778C418.322 341.242 421.993 345.483 426.031 342.938C427.237 345.983 427.862 352.554 424.091 353.368C418.422 354.592 406.262 356.927 400.602 355.613C396.353 354.627 396.479 355.06 395.568 350.772C390.946 328.997 403.332 256.173 410.878 257.256C414.236 257.739 416.752 256.458 418.48 253.614C423.357 256.707 428.965 255.81 436.463 260.75C453.502 271.978 466.381 283.455 465.876 303.067C465.494 317.886 454.8 333.269 431.744 340.143H431.746Z" fill="#191919"/>
<path d="M338.368 124.169C338.944 120.774 338.89 119.652 339.994 119.627C341.829 119.585 340.313 123.518 343.821 131.003C345.763 135.145 343.964 135.508 342.982 134.696C341.973 133.863 338.472 128.361 338.368 124.169Z" fill="#191919"/>
<path d="M329.664 129.31C330.452 132.105 331.983 134.389 334.069 136.446C336.233 138.579 332.861 140.84 328.458 133.352C323.737 125.319 327.724 121.975 329.718 129.31H329.664Z" fill="#191919"/>
<path d="M332.652 124.867C332.73 121.97 335.22 122.671 335.694 125.515C336.216 128.659 337.702 131.322 339.416 134.048C340.237 135.355 338.997 136.244 337.789 135.394C334.972 133.414 332.562 128.159 332.65 124.864L332.652 124.867Z" fill="#191919"/>
<path d="M411.664 335.751C406.787 335.002 404.38 343.477 402.489 342.538C400.763 341.681 405.214 332.97 410.562 333.257C414.493 333.467 413.55 336.501 411.664 335.751Z" fill="#191919"/>
<path d="M406.998 347.278C405.163 346.23 408.515 340.788 410.091 339.393C412.864 336.943 416.479 338.393 416.278 339.893C415.949 342.336 413.548 338.794 410.562 342.736C408.411 345.58 407.995 347.177 406.998 347.278Z" fill="#191919"/>
<path d="M401.754 228.463C403.748 229.111 405.59 228.671 407.312 227.315C409.261 225.779 409.356 230.305 405.372 231.059C401.176 231.853 398.659 228.364 401.805 228.415L401.752 228.465L401.754 228.463Z" fill="#191919"/>
<path d="M406.84 217.236C404.008 221.727 402.314 220.792 404.271 223.124C406.714 226.035 398.82 223.976 402.068 220.281C406.057 215.743 406.106 216.139 406.84 217.287V217.236Z" fill="#191919"/>
<path d="M401.966 214.242C401.993 216.787 398.48 217.486 398.453 215.14C398.427 212.745 401.939 211.797 401.966 214.242Z" fill="#191919"/>
<path d="M413.29 219.331C415.597 219.58 414.233 222.866 412.609 222.824C410.407 222.767 411.35 219.331 413.29 219.331Z" fill="#191919"/>
</svg>
